<?xml version='1.0' encoding='UTF-8'?>
<svg version="1.1" width="700.0" height="700.0" onload="init(evt)" xmlns="http://www.w3.org/2000/svg">
      <style>.caption {
  font-size: 14px;
  font-family: Georgia, serif;
}
</style>
      <script type="text/ecmascript"><![CDATA[
function init(evt) {
  if ( window.svgDocument == null ) {
    svgDocument = evt.target.ownerDocument;
  }
}

function RectHover(evt, i, c) {
  rect = svgDocument.getElementById('rect' + i);
  if( c != null ) {
    rect.setAttributeNS(null, "fill", c)  
  }
  tooltiptext = svgDocument.getElementById('tooltiptext' + i);
  tooltipbg = svgDocument.getElementById('tooltipbg' + i);
  if( tooltipbg != null) {
    tbb = tooltiptext.getBBox();
    tooltipbg.setAttributeNS(null, "width", tbb.width);
    tooltipbg.setAttributeNS(null, "height", tbb.height);
    tooltipbg.setAttributeNS(null, "x", tbb.x);
    tooltipbg.setAttributeNS(null, "y", tbb.y);
    tooltipbg.setAttributeNS(null, "visibility", "visible");
  }
  tooltiptext.setAttributeNS(null,"visibility","visible");
}

function RectUnhover(evt, i, c) {
  rect = svgDocument.getElementById('rect' + i);
  if( c != null ) {
    rect.setAttributeNS(null, "fill", c)  
  }
  tooltiptext = svgDocument.getElementById('tooltiptext' + i);
  tooltiptext.setAttributeNS(null,"visibility","hidden");
  tooltipbg = svgDocument.getElementById('tooltipbg' + i);
  if( tooltipbg != null ) {
    tooltipbg.setAttributeNS(null,"visibility","hidden");
  }
}
]]></script>
      <line x1="124.63560834213624" y1="309.2968751696469" x2="612.5576504341298" y2="284.4913018200755" stroke="rgb(0,0,0)" stroke-width="1"/><line x1="281.29133226762906" y1="408.58745774899694" x2="586.3637308185195" y2="514.7271659383525" stroke="rgb(0,0,0)" stroke-width="1"/><line x1="586.3637308185195" y1="514.7271659383525" x2="639.506442675195" y2="124.05788091818106" stroke="rgb(0,0,0)" stroke-width="1"/><line x1="327.01182562461236" y1="650.9661492018411" x2="612.5576504341298" y2="284.4913018200755" stroke="rgb(0,0,0)" stroke-width="1"/><line x1="658.8417084061911" y1="460.1907600395551" x2="202.047961153443" y2="33.36792409021323" stroke="rgb(0,0,0)" stroke-width="1"/><line x1="314.4755085536788" y1="424.6801892286663" x2="586.3637308185195" y2="514.7271659383525" stroke="rgb(0,0,0)" stroke-width="1"/><line x1="586.3637308185195" y1="514.7271659383525" x2="281.29133226762906" y2="408.58745774899694" stroke="rgb(0,0,0)" stroke-width="1"/><line x1="612.5576504341298" y1="284.4913018200755" x2="124.63560834213624" y2="309.2968751696469" stroke="rgb(0,0,0)" stroke-width="1"/><line x1="612.5576504341298" y1="284.4913018200755" x2="586.3637308185195" y2="514.7271659383525" stroke="rgb(0,0,0)" stroke-width="1"/><line x1="202.047961153443" y1="33.36792409021323" x2="639.506442675195" y2="124.05788091818106" stroke="rgb(0,0,0)" stroke-width="1"/><line x1="410.5263925717028" y1="526.0364557243494" x2="131.22086287208157" y2="399.8470780887334" stroke="rgb(0,0,0)" stroke-width="1"/><line x1="612.5576504341298" y1="284.4913018200755" x2="327.01182562461236" y2="650.9661492018411" stroke="rgb(0,0,0)" stroke-width="1"/><line x1="568.8411551506276" y1="92.78645222831236" x2="639.506442675195" y2="124.05788091818106" stroke="rgb(0,0,0)" stroke-width="1"/><line x1="586.3637308185195" y1="514.7271659383525" x2="410.5263925717028" y2="526.0364557243494" stroke="rgb(0,0,0)" stroke-width="1"/><line x1="131.22086287208157" y1="399.8470780887334" x2="410.5263925717028" y2="526.0364557243494" stroke="rgb(0,0,0)" stroke-width="1"/><line x1="639.506442675195" y1="124.05788091818106" x2="568.8411551506276" y2="92.78645222831236" stroke="rgb(0,0,0)" stroke-width="1"/><line x1="639.506442675195" y1="124.05788091818106" x2="202.047961153443" y2="33.36792409021323" stroke="rgb(0,0,0)" stroke-width="1"/><line x1="410.5263925717028" y1="526.0364557243494" x2="586.3637308185195" y2="514.7271659383525" stroke="rgb(0,0,0)" stroke-width="1"/><line x1="202.047961153443" y1="33.36792409021323" x2="658.8417084061911" y2="460.1907600395551" stroke="rgb(0,0,0)" stroke-width="1"/><line x1="24.727201379058595" y1="559.6777568537906" x2="586.3637308185195" y2="514.7271659383525" stroke="rgb(0,0,0)" stroke-width="1"/><line x1="586.3637308185195" y1="514.7271659383525" x2="612.5576504341298" y2="284.4913018200755" stroke="rgb(0,0,0)" stroke-width="1"/><line x1="586.3637308185195" y1="514.7271659383525" x2="314.4755085536788" y2="424.6801892286663" stroke="rgb(0,0,0)" stroke-width="1"/><line x1="586.3637308185195" y1="514.7271659383525" x2="24.727201379058595" y2="559.6777568537906" stroke="rgb(0,0,0)" stroke-width="1"/><line x1="639.506442675195" y1="124.05788091818106" x2="586.3637308185195" y2="514.7271659383525" stroke="rgb(0,0,0)" stroke-width="1"/><polygon points="10,0 20,3 20,-3" fill="black" transform="translate(612.5576504341298,284.4913018200755) rotate(177.0896332533594)"/><polygon points="10,0 20,3 20,-3" fill="black" transform="translate(586.3637308185195,514.7271659383525) rotate(199.1836269240831)"/><polygon points="10,0 20,3 20,-3" fill="black" transform="translate(639.506442675195,124.05788091818106) rotate(97.74639373645397)"/><polygon points="10,0 20,3 20,-3" fill="black" transform="translate(612.5576504341298,284.4913018200755) rotate(127.9246148485358)"/><polygon points="10,0 20,3 20,-3" fill="black" transform="translate(202.047961153443,33.36792409021323) rotate(43.05736030107332)"/><polygon points="10,0 20,3 20,-3" fill="black" transform="translate(586.3637308185195,514.7271659383525) rotate(198.3244143702891)"/><polygon points="10,0 20,3 20,-3" fill="black" transform="translate(281.29133226762906,408.58745774899694) rotate(19.183626924083057)"/><polygon points="10,0 20,3 20,-3" fill="black" transform="translate(124.63560834213624,309.2968751696469) rotate(357.08963325335947)"/><polygon points="10,0 20,3 20,-3" fill="black" transform="translate(586.3637308185195,514.7271659383525) rotate(276.49062916772345)"/><polygon points="10,0 20,3 20,-3" fill="black" transform="translate(639.506442675195,124.05788091818106) rotate(191.71213887962634)"/><polygon points="10,0 20,3 20,-3" fill="black" transform="translate(131.22086287208157,399.8470780887334) rotate(24.31330588650559)"/><polygon points="10,0 20,3 20,-3" fill="black" transform="translate(327.01182562461236,650.9661492018411) rotate(307.92461484853584)"/><polygon points="10,0 20,3 20,-3" fill="black" transform="translate(639.506442675195,124.05788091818106) rotate(203.87077254774817)"/><polygon points="10,0 20,3 20,-3" fill="black" transform="translate(410.5263925717028,526.0364557243494) rotate(356.3199891964794)"/><polygon points="10,0 20,3 20,-3" fill="black" transform="translate(410.5263925717028,526.0364557243494) rotate(204.3133058865056)"/><polygon points="10,0 20,3 20,-3" fill="black" transform="translate(568.8411551506276,92.78645222831236) rotate(23.870772547748203)"/><polygon points="10,0 20,3 20,-3" fill="black" transform="translate(202.047961153443,33.36792409021323) rotate(11.712138879626337)"/><polygon points="10,0 20,3 20,-3" fill="black" transform="translate(586.3637308185195,514.7271659383525) rotate(176.31998919647938)"/><polygon points="10,0 20,3 20,-3" fill="black" transform="translate(658.8417084061911,460.1907600395551) rotate(223.05736030107332)"/><polygon points="10,0 20,3 20,-3" fill="black" transform="translate(586.3637308185195,514.7271659383525) rotate(175.42408500240745)"/><polygon points="10,0 20,3 20,-3" fill="black" transform="translate(612.5576504341298,284.4913018200755) rotate(96.49062916772345)"/><polygon points="10,0 20,3 20,-3" fill="black" transform="translate(314.4755085536788,424.6801892286663) rotate(18.324414370289077)"/><polygon points="10,0 20,3 20,-3" fill="black" transform="translate(24.727201379058595,559.6777568537906) rotate(355.4240850024075)"/><polygon points="10,0 20,3 20,-3" fill="black" transform="translate(586.3637308185195,514.7271659383525) rotate(277.746393736454)"/><circle cx="327.01182562461236" cy="650.9661492018411" r="10" fill="rgb(255,255,0)" stroke="rgb(0,0,0)" stroke-width="1"/><circle cx="586.3637308185195" cy="514.7271659383525" r="10" fill="rgb(255,255,0)" stroke="rgb(0,0,0)" stroke-width="1"/><circle cx="612.5576504341298" cy="284.4913018200755" r="10" fill="rgb(255,255,0)" stroke="rgb(0,0,0)" stroke-width="1"/><circle cx="281.29133226762906" cy="408.58745774899694" r="10" fill="rgb(255,255,0)" stroke="rgb(0,0,0)" stroke-width="1"/><circle cx="410.5263925717028" cy="526.0364557243494" r="10" fill="rgb(255,255,0)" stroke="rgb(0,0,0)" stroke-width="1"/><circle cx="568.8411551506276" cy="92.78645222831236" r="10" fill="rgb(255,255,0)" stroke="rgb(0,0,0)" stroke-width="1"/><circle cx="314.4755085536788" cy="424.6801892286663" r="10" fill="rgb(255,255,0)" stroke="rgb(0,0,0)" stroke-width="1"/><circle cx="131.22086287208157" cy="399.8470780887334" r="10" fill="rgb(255,255,0)" stroke="rgb(0,0,0)" stroke-width="1"/><circle cx="639.506442675195" cy="124.05788091818106" r="10" fill="rgb(255,255,0)" stroke="rgb(0,0,0)" stroke-width="1"/><circle cx="124.63560834213624" cy="309.2968751696469" r="10" fill="rgb(255,255,0)" stroke="rgb(0,0,0)" stroke-width="1"/><circle cx="24.727201379058595" cy="559.6777568537906" r="10" fill="rgb(255,255,0)" stroke="rgb(0,0,0)" stroke-width="1"/><circle cx="658.8417084061911" cy="460.1907600395551" r="10" fill="rgb(255,255,0)" stroke="rgb(0,0,0)" stroke-width="1"/><circle cx="202.047961153443" cy="33.36792409021323" r="10" fill="rgb(255,255,0)" stroke="rgb(0,0,0)" stroke-width="1"/><text text-anchor="middle" alignment-baseline="middle" x="327.01182562461236" y="650.9661492018411" fill="rgb(0,0,0)" font-size="12">inch (in)</text><text text-anchor="middle" alignment-baseline="middle" x="586.3637308185195" y="514.7271659383525" fill="rgb(0,0,0)" font-size="12">meter (m)</text><text text-anchor="middle" alignment-baseline="middle" x="612.5576504341298" y="284.4913018200755" fill="rgb(0,0,0)" font-size="12">foot (ft)</text><text text-anchor="middle" alignment-baseline="middle" x="281.29133226762906" y="408.58745774899694" fill="rgb(0,0,0)" font-size="12">micrometer (μm)</text><text text-anchor="middle" alignment-baseline="middle" x="410.5263925717028" y="526.0364557243494" fill="rgb(0,0,0)" font-size="12">nanometer (nm)</text><text text-anchor="middle" alignment-baseline="middle" x="568.8411551506276" y="92.78645222831236" fill="rgb(0,0,0)" font-size="12">Astronomical Unit (AU)</text><text text-anchor="middle" alignment-baseline="middle" x="314.4755085536788" y="424.6801892286663" fill="rgb(0,0,0)" font-size="12">millimeter (mm)</text><text text-anchor="middle" alignment-baseline="middle" x="131.22086287208157" y="399.8470780887334" fill="rgb(0,0,0)" font-size="12">Planck length (ℓP)</text><text text-anchor="middle" alignment-baseline="middle" x="639.506442675195" y="124.05788091818106" fill="rgb(0,0,0)" font-size="12">kilometer (km)</text><text text-anchor="middle" alignment-baseline="middle" x="124.63560834213624" y="309.2968751696469" fill="rgb(0,0,0)" font-size="12">mile (m)</text><text text-anchor="middle" alignment-baseline="middle" x="24.727201379058595" y="559.6777568537906" fill="rgb(0,0,0)" font-size="12">centimeter (cm)</text><text text-anchor="middle" alignment-baseline="middle" x="658.8417084061911" y="460.1907600395551" fill="rgb(0,0,0)" font-size="12">parsec (pc)</text><text text-anchor="middle" alignment-baseline="middle" x="202.047961153443" y="33.36792409021323" fill="rgb(0,0,0)" font-size="12">lightyear (ly)</text><text text-anchor="middle" alignment-baseline="middle" x="417.38883359733234" y="294.41353115990404" fill="rgb(0,0,0)" font-size="12">1.893939393939394E-4</text><text text-anchor="middle" alignment-baseline="middle" x="464.3347713981633" y="472.2712826626103" fill="rgb(0,0,0)" font-size="12">1000000.0</text><text text-anchor="middle" alignment-baseline="middle" x="618.2493579325247" y="280.32559492624966" fill="rgb(0,0,0)" font-size="12">1000.0</text><text text-anchor="middle" alignment-baseline="middle" x="498.33932051032275" y="431.0812407727817" fill="rgb(0,0,0)" font-size="12">12.0</text><text text-anchor="middle" alignment-baseline="middle" x="384.76546005454225" y="204.09705846995" fill="rgb(0,0,0)" font-size="12">0.3067484662576687</text><text text-anchor="middle" alignment-baseline="middle" x="477.6084419125832" y="478.708375254478" fill="rgb(0,0,0)" font-size="12">1000.0</text><text text-anchor="middle" alignment-baseline="middle" x="403.3202916879852" y="451.04334102473916" fill="rgb(0,0,0)" font-size="12">1.0000000000000006E-6</text><text text-anchor="middle" alignment-baseline="middle" x="319.8044251789337" y="299.37464582981835" fill="rgb(0,0,0)" font-size="12">5280.0</text><text text-anchor="middle" alignment-baseline="middle" x="596.8412986647636" y="422.6328202910417" fill="rgb(0,0,0)" font-size="12">3.2808398950131235</text><text text-anchor="middle" alignment-baseline="middle" x="464.5230500664942" y="87.78189818699391" fill="rgb(0,0,0)" font-size="12">1.0570008340246153E-13</text><text text-anchor="middle" alignment-baseline="middle" x="242.94307475193006" y="450.3228291429798" fill="rgb(0,0,0)" font-size="12">6.187353050365054E25</text><text text-anchor="middle" alignment-baseline="middle" x="441.23015554841936" y="504.37621024913483" fill="rgb(0,0,0)" font-size="12">0.08333333333333333</text><text text-anchor="middle" alignment-baseline="middle" x="611.240327665368" y="111.54930944223358" fill="rgb(0,0,0)" font-size="12">6.6845871222684464E-9</text><text text-anchor="middle" alignment-baseline="middle" x="480.8613278704295" y="521.5127398099506" fill="rgb(0,0,0)" font-size="12">1.0000000000000009E-9</text><text text-anchor="middle" alignment-baseline="middle" x="298.8041806918543" y="475.56070467010295" fill="rgb(0,0,0)" font-size="12">1.6162E-26</text><text text-anchor="middle" alignment-baseline="middle" x="597.1072701604546" y="105.29502370425983" fill="rgb(0,0,0)" font-size="12">1.495978707E8</text><text text-anchor="middle" alignment-baseline="middle" x="377.0313537621438" y="69.64390682140036" fill="rgb(0,0,0)" font-size="12">9.4607304725808E12</text><text text-anchor="middle" alignment-baseline="middle" x="516.0287955197928" y="519.2508818527513" fill="rgb(0,0,0)" font-size="12">1.0E9</text><text text-anchor="middle" alignment-baseline="middle" x="476.1242095050918" y="289.4616256598183" fill="rgb(0,0,0)" font-size="12">3.26</text><text text-anchor="middle" alignment-baseline="middle" x="361.70911904273515" y="532.7074023045277" fill="rgb(0,0,0)" font-size="12">100.0</text><text text-anchor="middle" alignment-baseline="middle" x="602.0800825878856" y="376.5856474673863" fill="rgb(0,0,0)" font-size="12">0.3048</text><text text-anchor="middle" alignment-baseline="middle" x="423.2307974596151" y="460.6989799125408" fill="rgb(0,0,0)" font-size="12">0.0010000000000000002</text><text text-anchor="middle" alignment-baseline="middle" x="249.38181315484292" y="541.6975204876154" fill="rgb(0,0,0)" font-size="12">0.010000000000000002</text><text text-anchor="middle" alignment-baseline="middle" x="607.6208155611897" y="358.45945193028393" fill="rgb(0,0,0)" font-size="12">0.0010000000000000002</text>
      Sorry, your browser does not support inline SVG.
    </svg>