<?xml version='1.0' encoding='UTF-8'?>
<svg version="1.1" width="700.0" height="700.0" onload="init(evt)" xmlns="http://www.w3.org/2000/svg">
      <style>.caption {
  font-size: 14px;
  font-family: Georgia, serif;
}
</style>
      <script type="text/ecmascript"><![CDATA[
function init(evt) {
  if ( window.svgDocument == null ) {
    svgDocument = evt.target.ownerDocument;
  }
}

function RectHover(evt, i, c) {
  rect = svgDocument.getElementById('rect' + i);
  if( c != null ) {
    rect.setAttributeNS(null, "fill", c)  
  }
  tooltiptext = svgDocument.getElementById('tooltiptext' + i);
  tooltipbg = svgDocument.getElementById('tooltipbg' + i);
  if( tooltipbg != null) {
    tbb = tooltiptext.getBBox();
    tooltipbg.setAttributeNS(null, "width", tbb.width);
    tooltipbg.setAttributeNS(null, "height", tbb.height);
    tooltipbg.setAttributeNS(null, "x", tbb.x);
    tooltipbg.setAttributeNS(null, "y", tbb.y);
    tooltipbg.setAttributeNS(null, "visibility", "visible");
  }
  tooltiptext.setAttributeNS(null,"visibility","visible");
}

function RectUnhover(evt, i, c) {
  rect = svgDocument.getElementById('rect' + i);
  if( c != null ) {
    rect.setAttributeNS(null, "fill", c)  
  }
  tooltiptext = svgDocument.getElementById('tooltiptext' + i);
  tooltiptext.setAttributeNS(null,"visibility","hidden");
  tooltipbg = svgDocument.getElementById('tooltipbg' + i);
  if( tooltipbg != null ) {
    tooltipbg.setAttributeNS(null,"visibility","hidden");
  }
}
]]></script>
      <line x1="3.519239905110616" y1="230.68258369832" x2="236.41269181623028" y2="592.040202910478" stroke="rgb(0,0,0)" stroke-width="1"/><line x1="284.6924229652268" y1="440.13518275258417" x2="49.62320851800056" y2="364.7165699027026" stroke="rgb(0,0,0)" stroke-width="1"/><line x1="284.6924229652268" y1="440.13518275258417" x2="247.2306127313217" y2="149.59525596547627" stroke="rgb(0,0,0)" stroke-width="1"/><line x1="203.22556907974914" y1="301.28473111678665" x2="284.6924229652268" y2="440.13518275258417" stroke="rgb(0,0,0)" stroke-width="1"/><line x1="244.94399651290362" y1="82.40577600880366" x2="203.22556907974914" y2="301.28473111678665" stroke="rgb(0,0,0)" stroke-width="1"/><line x1="247.2306127313217" y1="149.59525596547627" x2="268.95223448234117" y2="312.7171359873047" stroke="rgb(0,0,0)" stroke-width="1"/><line x1="49.62320851800056" y1="364.7165699027026" x2="284.6924229652268" y2="440.13518275258417" stroke="rgb(0,0,0)" stroke-width="1"/><line x1="284.6924229652268" y1="440.13518275258417" x2="203.22556907974914" y2="301.28473111678665" stroke="rgb(0,0,0)" stroke-width="1"/><line x1="640.0655219046348" y1="500.79215058112084" x2="284.6924229652268" y2="440.13518275258417" stroke="rgb(0,0,0)" stroke-width="1"/><line x1="284.6924229652268" y1="440.13518275258417" x2="420.72934501279053" y2="429.85295541397596" stroke="rgb(0,0,0)" stroke-width="1"/><line x1="284.6924229652268" y1="440.13518275258417" x2="640.0655219046348" y2="500.79215058112084" stroke="rgb(0,0,0)" stroke-width="1"/><line x1="299.06369347631113" y1="483.40430839575845" x2="236.41269181623028" y2="592.040202910478" stroke="rgb(0,0,0)" stroke-width="1"/><line x1="218.3517386172974" y1="280.5531051957084" x2="411.0916356375152" y2="325.2680099598128" stroke="rgb(0,0,0)" stroke-width="1"/><line x1="268.95223448234117" y1="312.7171359873047" x2="247.2306127313217" y2="149.59525596547627" stroke="rgb(0,0,0)" stroke-width="1"/><line x1="247.2306127313217" y1="149.59525596547627" x2="284.6924229652268" y2="440.13518275258417" stroke="rgb(0,0,0)" stroke-width="1"/><line x1="203.22556907974914" y1="301.28473111678665" x2="244.94399651290362" y2="82.40577600880366" stroke="rgb(0,0,0)" stroke-width="1"/><line x1="236.41269181623028" y1="592.040202910478" x2="284.6924229652268" y2="440.13518275258417" stroke="rgb(0,0,0)" stroke-width="1"/><line x1="411.0916356375152" y1="325.2680099598128" x2="203.22556907974914" y2="301.28473111678665" stroke="rgb(0,0,0)" stroke-width="1"/><line x1="203.22556907974914" y1="301.28473111678665" x2="411.0916356375152" y2="325.2680099598128" stroke="rgb(0,0,0)" stroke-width="1"/><line x1="284.6924229652268" y1="440.13518275258417" x2="236.41269181623028" y2="592.040202910478" stroke="rgb(0,0,0)" stroke-width="1"/><line x1="236.41269181623028" y1="592.040202910478" x2="3.519239905110616" y2="230.68258369832" stroke="rgb(0,0,0)" stroke-width="1"/><line x1="236.41269181623028" y1="592.040202910478" x2="299.06369347631113" y2="483.40430839575845" stroke="rgb(0,0,0)" stroke-width="1"/><line x1="411.0916356375152" y1="325.2680099598128" x2="218.3517386172974" y2="280.5531051957084" stroke="rgb(0,0,0)" stroke-width="1"/><line x1="420.72934501279053" y1="429.85295541397596" x2="284.6924229652268" y2="440.13518275258417" stroke="rgb(0,0,0)" stroke-width="1"/><polygon points="10,0 20,3 20,-3" fill="black" transform="translate(236.41269181623028,592.040202910478) rotate(237.19839154379167)"/><polygon points="10,0 20,3 20,-3" fill="black" transform="translate(49.62320851800056,364.7165699027026) rotate(17.78809921446208)"/><polygon points="10,0 20,3 20,-3" fill="black" transform="translate(247.2306127313217,149.59525596547627) rotate(82.65289926098801)"/><polygon points="10,0 20,3 20,-3" fill="black" transform="translate(284.6924229652268,440.13518275258417) rotate(239.59884032344672)"/><polygon points="10,0 20,3 20,-3" fill="black" transform="translate(203.22556907974914,301.28473111678665) rotate(280.79116801863626)"/><polygon points="10,0 20,3 20,-3" fill="black" transform="translate(268.95223448234117,312.7171359873047) rotate(262.41500689869883)"/><polygon points="10,0 20,3 20,-3" fill="black" transform="translate(284.6924229652268,440.13518275258417) rotate(197.78809921446208)"/><polygon points="10,0 20,3 20,-3" fill="black" transform="translate(203.22556907974914,301.28473111678665) rotate(59.59884032344674)"/><polygon points="10,0 20,3 20,-3" fill="black" transform="translate(284.6924229652268,440.13518275258417) rotate(9.686203507284802)"/><polygon points="10,0 20,3 20,-3" fill="black" transform="translate(420.72934501279053,429.85295541397596) rotate(175.6775692665427)"/><polygon points="10,0 20,3 20,-3" fill="black" transform="translate(640.0655219046348,500.79215058112084) rotate(189.68620350728483)"/><polygon points="10,0 20,3 20,-3" fill="black" transform="translate(236.41269181623028,592.040202910478) rotate(299.9723185141366)"/><polygon points="10,0 20,3 20,-3" fill="black" transform="translate(411.0916356375152,325.2680099598128) rotate(193.06133913867788)"/><polygon points="10,0 20,3 20,-3" fill="black" transform="translate(247.2306127313217,149.59525596547627) rotate(82.41500689869882)"/><polygon points="10,0 20,3 20,-3" fill="black" transform="translate(284.6924229652268,440.13518275258417) rotate(262.652899260988)"/><polygon points="10,0 20,3 20,-3" fill="black" transform="translate(244.94399651290362,82.40577600880366) rotate(100.79116801863626)"/><polygon points="10,0 20,3 20,-3" fill="black" transform="translate(284.6924229652268,440.13518275258417) rotate(107.63173510879183)"/><polygon points="10,0 20,3 20,-3" fill="black" transform="translate(203.22556907974914,301.28473111678665) rotate(6.581599928974015)"/><polygon points="10,0 20,3 20,-3" fill="black" transform="translate(411.0916356375152,325.2680099598128) rotate(186.58159992897404)"/><polygon points="10,0 20,3 20,-3" fill="black" transform="translate(236.41269181623028,592.040202910478) rotate(287.6317351087919)"/><polygon points="10,0 20,3 20,-3" fill="black" transform="translate(3.519239905110616,230.68258369832) rotate(57.19839154379166)"/><polygon points="10,0 20,3 20,-3" fill="black" transform="translate(299.06369347631113,483.40430839575845) rotate(119.97231851413657)"/><polygon points="10,0 20,3 20,-3" fill="black" transform="translate(218.3517386172974,280.5531051957084) rotate(13.06133913867788)"/><polygon points="10,0 20,3 20,-3" fill="black" transform="translate(284.6924229652268,440.13518275258417) rotate(355.6775692665427)"/><circle cx="3.519239905110616" cy="230.68258369832" r="10" fill="rgb(255,255,0)" stroke="rgb(0,0,0)" stroke-width="1"/><circle cx="284.6924229652268" cy="440.13518275258417" r="10" fill="rgb(255,255,0)" stroke="rgb(0,0,0)" stroke-width="1"/><circle cx="236.41269181623028" cy="592.040202910478" r="10" fill="rgb(255,255,0)" stroke="rgb(0,0,0)" stroke-width="1"/><circle cx="420.72934501279053" cy="429.85295541397596" r="10" fill="rgb(255,255,0)" stroke="rgb(0,0,0)" stroke-width="1"/><circle cx="247.2306127313217" cy="149.59525596547627" r="10" fill="rgb(255,255,0)" stroke="rgb(0,0,0)" stroke-width="1"/><circle cx="244.94399651290362" cy="82.40577600880366" r="10" fill="rgb(255,255,0)" stroke="rgb(0,0,0)" stroke-width="1"/><circle cx="640.0655219046348" cy="500.79215058112084" r="10" fill="rgb(255,255,0)" stroke="rgb(0,0,0)" stroke-width="1"/><circle cx="268.95223448234117" cy="312.7171359873047" r="10" fill="rgb(255,255,0)" stroke="rgb(0,0,0)" stroke-width="1"/><circle cx="203.22556907974914" cy="301.28473111678665" r="10" fill="rgb(255,255,0)" stroke="rgb(0,0,0)" stroke-width="1"/><circle cx="299.06369347631113" cy="483.40430839575845" r="10" fill="rgb(255,255,0)" stroke="rgb(0,0,0)" stroke-width="1"/><circle cx="49.62320851800056" cy="364.7165699027026" r="10" fill="rgb(255,255,0)" stroke="rgb(0,0,0)" stroke-width="1"/><circle cx="218.3517386172974" cy="280.5531051957084" r="10" fill="rgb(255,255,0)" stroke="rgb(0,0,0)" stroke-width="1"/><circle cx="411.0916356375152" cy="325.2680099598128" r="10" fill="rgb(255,255,0)" stroke="rgb(0,0,0)" stroke-width="1"/><text text-anchor="middle" alignment-baseline="middle" x="3.519239905110616" y="230.68258369832" fill="rgb(0,0,0)" font-size="12">inch (in)</text><text text-anchor="middle" alignment-baseline="middle" x="284.6924229652268" y="440.13518275258417" fill="rgb(0,0,0)" font-size="12">meter (m)</text><text text-anchor="middle" alignment-baseline="middle" x="236.41269181623028" y="592.040202910478" fill="rgb(0,0,0)" font-size="12">foot (ft)</text><text text-anchor="middle" alignment-baseline="middle" x="420.72934501279053" y="429.85295541397596" fill="rgb(0,0,0)" font-size="12">micrometer (μm)</text><text text-anchor="middle" alignment-baseline="middle" x="247.2306127313217" y="149.59525596547627" fill="rgb(0,0,0)" font-size="12">nanometer (nm)</text><text text-anchor="middle" alignment-baseline="middle" x="244.94399651290362" y="82.40577600880366" fill="rgb(0,0,0)" font-size="12">Astronomical Unit (AU)</text><text text-anchor="middle" alignment-baseline="middle" x="640.0655219046348" y="500.79215058112084" fill="rgb(0,0,0)" font-size="12">millimeter (mm)</text><text text-anchor="middle" alignment-baseline="middle" x="268.95223448234117" y="312.7171359873047" fill="rgb(0,0,0)" font-size="12">Planck length (ℓP)</text><text text-anchor="middle" alignment-baseline="middle" x="203.22556907974914" y="301.28473111678665" fill="rgb(0,0,0)" font-size="12">kilometer (km)</text><text text-anchor="middle" alignment-baseline="middle" x="299.06369347631113" y="483.40430839575845" fill="rgb(0,0,0)" font-size="12">mile (m)</text><text text-anchor="middle" alignment-baseline="middle" x="49.62320851800056" y="364.7165699027026" fill="rgb(0,0,0)" font-size="12">centimeter (cm)</text><text text-anchor="middle" alignment-baseline="middle" x="218.3517386172974" y="280.5531051957084" fill="rgb(0,0,0)" font-size="12">parsec (pc)</text><text text-anchor="middle" alignment-baseline="middle" x="411.0916356375152" y="325.2680099598128" fill="rgb(0,0,0)" font-size="12">lightyear (ly)</text><text text-anchor="middle" alignment-baseline="middle" x="143.2553110517824" y="447.4971552256148" fill="rgb(0,0,0)" font-size="12">12.0</text><text text-anchor="middle" alignment-baseline="middle" x="143.65089429689107" y="394.8840150426552" fill="rgb(0,0,0)" font-size="12">0.010000000000000002</text><text text-anchor="middle" alignment-baseline="middle" x="262.21533682488376" y="265.81122668031946" fill="rgb(0,0,0)" font-size="12">1.0000000000000009E-9</text><text text-anchor="middle" alignment-baseline="middle" x="252.10568141103573" y="384.5950020982651" fill="rgb(0,0,0)" font-size="12">0.0010000000000000002</text><text text-anchor="middle" alignment-baseline="middle" x="219.91294005301094" y="213.73314907359344" fill="rgb(0,0,0)" font-size="12">6.6845871222684464E-9</text><text text-anchor="middle" alignment-baseline="middle" x="260.2635857819334" y="247.4683839785733" fill="rgb(0,0,0)" font-size="12">6.187353050365054E25</text><text text-anchor="middle" alignment-baseline="middle" x="190.66473718633628" y="409.96773761263154" fill="rgb(0,0,0)" font-size="12">100.0</text><text text-anchor="middle" alignment-baseline="middle" x="235.8123106339402" y="356.8249117711057" fill="rgb(0,0,0)" font-size="12">1000.0</text><text text-anchor="middle" alignment-baseline="middle" x="426.84166254099" y="464.3979698839988" fill="rgb(0,0,0)" font-size="12">1000.0</text><text text-anchor="middle" alignment-baseline="middle" x="366.31457619376505" y="433.9658463494192" fill="rgb(0,0,0)" font-size="12">1.0000000000000006E-6</text><text text-anchor="middle" alignment-baseline="middle" x="497.9162823288716" y="476.5293634497062" fill="rgb(0,0,0)" font-size="12">0.0010000000000000002</text><text text-anchor="middle" alignment-baseline="middle" x="261.4730924802626" y="548.5858451045901" fill="rgb(0,0,0)" font-size="12">1.893939393939394E-4</text><text text-anchor="middle" alignment-baseline="middle" x="333.9956768294281" y="307.38204805417104" fill="rgb(0,0,0)" font-size="12">0.3067484662576687</text><text text-anchor="middle" alignment-baseline="middle" x="255.9192614317295" y="214.84400797420764" fill="rgb(0,0,0)" font-size="12">1.6162E-26</text><text text-anchor="middle" alignment-baseline="middle" x="269.7076988716648" y="323.919212037741" fill="rgb(0,0,0)" font-size="12">1.0E9</text><text text-anchor="middle" alignment-baseline="middle" x="228.25662553964182" y="169.95735805199686" fill="rgb(0,0,0)" font-size="12">1.495978707E8</text><text text-anchor="middle" alignment-baseline="middle" x="265.3805305056282" y="500.89719081574174" fill="rgb(0,0,0)" font-size="12">3.2808398950131235</text><text text-anchor="middle" alignment-baseline="middle" x="286.37199570285554" y="310.8780426539971" fill="rgb(0,0,0)" font-size="12">1.0570008340246153E-13</text><text text-anchor="middle" alignment-baseline="middle" x="327.94520901440876" y="315.6746984226023" fill="rgb(0,0,0)" font-size="12">9.4607304725808E12</text><text text-anchor="middle" alignment-baseline="middle" x="255.72458427582887" y="531.2781948473205" fill="rgb(0,0,0)" font-size="12">0.3048</text><text text-anchor="middle" alignment-baseline="middle" x="96.6766206695585" y="375.2256313831832" fill="rgb(0,0,0)" font-size="12">0.08333333333333333</text><text text-anchor="middle" alignment-baseline="middle" x="274.0032928122788" y="526.8586662016463" fill="rgb(0,0,0)" font-size="12">5280.0</text><text text-anchor="middle" alignment-baseline="middle" x="295.4476974253845" y="298.43906710135013" fill="rgb(0,0,0)" font-size="12">3.26</text><text text-anchor="middle" alignment-baseline="middle" x="339.1071917842523" y="436.0222918171409" fill="rgb(0,0,0)" font-size="12">1000000.0</text>
      Sorry, your browser does not support inline SVG.
    </svg>