<?xml version='1.0' encoding='UTF-8'?>
<svg version="1.1" width="700.0" height="600.0" onload="init(evt)" xmlns="http://www.w3.org/2000/svg">
      <style>.caption {
  font-size: 14px;
  font-family: Georgia, serif;
}
</style>
      <script type="text/ecmascript"><![CDATA[
function init(evt) {
  if ( window.svgDocument == null ) {
    svgDocument = evt.target.ownerDocument;
  }
}

function RectHover(evt, i, c) {
  rect = svgDocument.getElementById('rect' + i);
  if( c != null ) {
    rect.setAttributeNS(null, "fill", c)  
  }
  tooltiptext = svgDocument.getElementById('tooltiptext' + i);
  tooltipbg = svgDocument.getElementById('tooltipbg' + i);
  if( tooltipbg != null) {
    tbb = tooltiptext.getBBox();
    tooltipbg.setAttributeNS(null, "width", tbb.width);
    tooltipbg.setAttributeNS(null, "height", tbb.height);
    tooltipbg.setAttributeNS(null, "x", tbb.x);
    tooltipbg.setAttributeNS(null, "y", tbb.y);
    tooltipbg.setAttributeNS(null, "visibility", "visible");
  }
  tooltiptext.setAttributeNS(null,"visibility","visible");
}

function RectUnhover(evt, i, c) {
  rect = svgDocument.getElementById('rect' + i);
  if( c != null ) {
    rect.setAttributeNS(null, "fill", c)  
  }
  tooltiptext = svgDocument.getElementById('tooltiptext' + i);
  tooltiptext.setAttributeNS(null,"visibility","hidden");
  tooltipbg = svgDocument.getElementById('tooltipbg' + i);
  if( tooltipbg != null ) {
    tooltipbg.setAttributeNS(null,"visibility","hidden");
  }
}
]]></script>
      <line x1="50.0" y1="550.0" x2="550.0" y2="550.0" stroke="rgb(0,0,0)" stroke-width="1"/><line x1="50.0" y1="550.0" x2="50.0" y2="50.0" stroke="rgb(0,0,0)" stroke-width="1"/><line x1="50.0" y1="550.0" x2="50.0" y2="50.0" stroke="rgb(192,192,192)" stroke-width="1"/><line x1="50.0" y1="548.0" x2="50.0" y2="552.0" stroke="rgb(192,192,192)" stroke-width="1"/><text text-anchor="middle" alignment-baseline="hanging" x="50.0" y="553.0" font-size="12.0">0</text><line x1="100.5050505050505" y1="550.0" x2="100.5050505050505" y2="50.0" stroke="rgb(192,192,192)" stroke-width="1"/><line x1="100.5050505050505" y1="548.0" x2="100.5050505050505" y2="552.0" stroke="rgb(192,192,192)" stroke-width="1"/><text text-anchor="middle" alignment-baseline="hanging" x="100.5050505050505" y="553.0" font-size="12.0">10</text><line x1="151.010101010101" y1="550.0" x2="151.010101010101" y2="50.0" stroke="rgb(192,192,192)" stroke-width="1"/><line x1="151.010101010101" y1="548.0" x2="151.010101010101" y2="552.0" stroke="rgb(192,192,192)" stroke-width="1"/><text text-anchor="middle" alignment-baseline="hanging" x="151.010101010101" y="553.0" font-size="12.0">20</text><line x1="201.51515151515153" y1="550.0" x2="201.51515151515153" y2="50.0" stroke="rgb(192,192,192)" stroke-width="1"/><line x1="201.51515151515153" y1="548.0" x2="201.51515151515153" y2="552.0" stroke="rgb(192,192,192)" stroke-width="1"/><text text-anchor="middle" alignment-baseline="hanging" x="201.51515151515153" y="553.0" font-size="12.0">30</text><line x1="252.02020202020202" y1="550.0" x2="252.02020202020202" y2="50.0" stroke="rgb(192,192,192)" stroke-width="1"/><line x1="252.02020202020202" y1="548.0" x2="252.02020202020202" y2="552.0" stroke="rgb(192,192,192)" stroke-width="1"/><text text-anchor="middle" alignment-baseline="hanging" x="252.02020202020202" y="553.0" font-size="12.0">40</text><line x1="302.52525252525254" y1="550.0" x2="302.52525252525254" y2="50.0" stroke="rgb(192,192,192)" stroke-width="1"/><line x1="302.52525252525254" y1="548.0" x2="302.52525252525254" y2="552.0" stroke="rgb(192,192,192)" stroke-width="1"/><text text-anchor="middle" alignment-baseline="hanging" x="302.52525252525254" y="553.0" font-size="12.0">50</text><line x1="353.03030303030306" y1="550.0" x2="353.03030303030306" y2="50.0" stroke="rgb(192,192,192)" stroke-width="1"/><line x1="353.03030303030306" y1="548.0" x2="353.03030303030306" y2="552.0" stroke="rgb(192,192,192)" stroke-width="1"/><text text-anchor="middle" alignment-baseline="hanging" x="353.03030303030306" y="553.0" font-size="12.0">60</text><line x1="403.5353535353535" y1="550.0" x2="403.5353535353535" y2="50.0" stroke="rgb(192,192,192)" stroke-width="1"/><line x1="403.5353535353535" y1="548.0" x2="403.5353535353535" y2="552.0" stroke="rgb(192,192,192)" stroke-width="1"/><text text-anchor="middle" alignment-baseline="hanging" x="403.5353535353535" y="553.0" font-size="12.0">70</text><line x1="454.04040404040404" y1="550.0" x2="454.04040404040404" y2="50.0" stroke="rgb(192,192,192)" stroke-width="1"/><line x1="454.04040404040404" y1="548.0" x2="454.04040404040404" y2="552.0" stroke="rgb(192,192,192)" stroke-width="1"/><text text-anchor="middle" alignment-baseline="hanging" x="454.04040404040404" y="553.0" font-size="12.0">80</text><line x1="504.5454545454545" y1="550.0" x2="504.5454545454545" y2="50.0" stroke="rgb(192,192,192)" stroke-width="1"/><line x1="504.5454545454545" y1="548.0" x2="504.5454545454545" y2="552.0" stroke="rgb(192,192,192)" stroke-width="1"/><text text-anchor="middle" alignment-baseline="hanging" x="504.5454545454545" y="553.0" font-size="12.0">90</text><line x1="50.0" y1="550.0" x2="550.0" y2="550.0" stroke="rgb(192,192,192)" stroke-width="1"/><text text-anchor="end" alignment-baseline="middle" x="45.0" y="550.0" font-size="12.0">0.0</text><line x1="48.0" y1="550.0" x2="52.0" y2="550.0" stroke="rgb(192,192,192)" stroke-width="1"/><line x1="50.0" y1="367.86070302489236" x2="550.0" y2="367.86070302489236" stroke="rgb(192,192,192)" stroke-width="1"/><text text-anchor="end" alignment-baseline="middle" x="45.0" y="367.86070302489236" font-size="12.0">1000.0</text><line x1="48.0" y1="367.86070302489236" x2="52.0" y2="367.86070302489236" stroke="rgb(192,192,192)" stroke-width="1"/><line x1="50.0" y1="185.72140604978466" x2="550.0" y2="185.72140604978466" stroke="rgb(192,192,192)" stroke-width="1"/><text text-anchor="end" alignment-baseline="middle" x="45.0" y="185.72140604978466" font-size="12.0">2000.0</text><line x1="48.0" y1="185.72140604978466" x2="52.0" y2="185.72140604978466" stroke="rgb(192,192,192)" stroke-width="1"/><polyline points="50.0,415.6613409018973 55.05050505050505,416.8400152841624 60.101010101010104,407.6279941667079 65.15151515151516,409.8453290626236 70.20202020202021,411.1317626314759 75.25252525252526,258.4607044737077 80.30303030303031,408.40513695804134 85.35353535353535,389.89379458267854 90.40404040404042,417.1212197829998 95.45454545454545,417.14633650259304 100.5050505050505,416.0310528794821 105.55555555555554,416.5059750085361 110.60606060606061,370.0887049249943 115.65656565656566,371.91868583600035 120.7070707070707,352.1130598737908 125.75757575757576,352.05823630545444 130.80808080808083,344.60233868415435 135.85858585858585,304.0353046598485 140.9090909090909,378.80567256102404 145.95959595959596,379.7439492587045 151.010101010101,379.84361338404676 156.06060606060606,381.0443469314906 161.1111111111111,407.21891698464555 166.16161616161617,405.3411050712306 171.21212121212122,404.72333239112845 176.26262626262627,345.007226371412 181.31313131313132,187.924951779129 186.36363636363635,335.95245237196605 191.4141414141414,337.0585888168696 196.46464646464648,400.2899907720413 201.51515151515153,407.69174663882524 206.56565656565658,402.91021892393735 211.61616161616163,233.68908508836608 216.66666666666666,234.93806084454314 221.7171717171717,281.58331803095325 226.76767676767676,192.84343293937832 231.8181818181818,397.0095491939064 236.86868686868686,348.55934474241377 241.91919191919192,390.6302581809695 246.96969696969697,387.8044186516431 252.02020202020202,370.75943086110544 257.07070707070704,348.03845497352165 262.1212121212121,400.4626416681139 267.1717171717172,256.53077862983895 272.2222222222222,405.717123849953 277.27272727272725,405.46432586834504 282.32323232323233,327.52249531726096 287.3737373737374,327.1750265521724 292.42424242424244,410.30414769332094 297.47474747474746,410.69276711720363 302.52525252525254,410.8177009017785 307.57575757575756,411.43983257537235 312.62626262626264,222.55525714031785 317.67676767676767,384.836481428604 322.7272727272727,326.9743137776705 327.77777777777777,273.34267159429226 332.8282828282828,265.74558543386786 337.8787878787879,265.5181859460782 342.92929292929296,262.1065931434777 347.979797979798,358.0040844591284 353.03030303030306,374.66147572610464 358.0808080808081,400.2088964802896 363.13131313131316,401.0715661385349 368.1818181818182,413.3393216933839 373.23232323232327,413.2707138792309 378.2828282828283,413.17132513757366 383.3333333333333,263.0013180961482 388.3838383838384,71.07122183949434 393.4343434343434,385.5860898927178 398.4848484848485,369.7950357167505 403.5353535353535,333.0566160944195 408.58585858585855,348.7087323317636 413.6363636363636,363.6869261555833 418.68686868686865,331.67908956043243 423.73737373737373,282.3476088526607 428.7878787878788,410.07584283037886 433.83838383838383,410.6119395160713 438.8888888888889,410.069937481664 443.93939393939394,366.06027133129453 448.989898989899,366.06027133129453 454.04040404040404,407.03902647660095 459.0909090909091,406.0796762160059 464.14141414141415,406.491499640691 469.19191919191917,405.3243706835521 474.24242424242425,75.51049074839301 479.2929292929293,138.34567574444907 484.34343434343435,146.39019869054925 489.3939393939394,350.27166912314965 494.4444444444444,412.7302145262952 499.4949494949495,412.62689322042684 504.5454545454545,412.7090198163004 509.59595959595964,338.3020462648801 514.6464646464647,260.06134434614785 519.6969696969697,313.46607919021056 524.7474747474748,362.9299964368055 529.7979797979798,379.4170220648418 534.8484848484849,378.9934330903857 539.8989898989898,379.9347647616097 544.9494949494949,407.0485575412381 550.0,380.298513020105" fill="none" stroke="rgb(0,0,0)" stroke-width="1"/><circle cx="50.0" cy="415.6613409018973" r="2" fill="rgb(0,0,0)"/><circle cx="55.05050505050505" cy="416.8400152841624" r="2" fill="rgb(0,0,0)"/><circle cx="60.101010101010104" cy="407.6279941667079" r="2" fill="rgb(0,0,0)"/><circle cx="65.15151515151516" cy="409.8453290626236" r="2" fill="rgb(0,0,0)"/><circle cx="70.20202020202021" cy="411.1317626314759" r="2" fill="rgb(0,0,0)"/><circle cx="75.25252525252526" cy="258.4607044737077" r="2" fill="rgb(0,0,0)"/><circle cx="80.30303030303031" cy="408.40513695804134" r="2" fill="rgb(0,0,0)"/><circle cx="85.35353535353535" cy="389.89379458267854" r="2" fill="rgb(0,0,0)"/><circle cx="90.40404040404042" cy="417.1212197829998" r="2" fill="rgb(0,0,0)"/><circle cx="95.45454545454545" cy="417.14633650259304" r="2" fill="rgb(0,0,0)"/><circle cx="100.5050505050505" cy="416.0310528794821" r="2" fill="rgb(0,0,0)"/><circle cx="105.55555555555554" cy="416.5059750085361" r="2" fill="rgb(0,0,0)"/><circle cx="110.60606060606061" cy="370.0887049249943" r="2" fill="rgb(0,0,0)"/><circle cx="115.65656565656566" cy="371.91868583600035" r="2" fill="rgb(0,0,0)"/><circle cx="120.7070707070707" cy="352.1130598737908" r="2" fill="rgb(0,0,0)"/><circle cx="125.75757575757576" cy="352.05823630545444" r="2" fill="rgb(0,0,0)"/><circle cx="130.80808080808083" cy="344.60233868415435" r="2" fill="rgb(0,0,0)"/><circle cx="135.85858585858585" cy="304.0353046598485" r="2" fill="rgb(0,0,0)"/><circle cx="140.9090909090909" cy="378.80567256102404" r="2" fill="rgb(0,0,0)"/><circle cx="145.95959595959596" cy="379.7439492587045" r="2" fill="rgb(0,0,0)"/><circle cx="151.010101010101" cy="379.84361338404676" r="2" fill="rgb(0,0,0)"/><circle cx="156.06060606060606" cy="381.0443469314906" r="2" fill="rgb(0,0,0)"/><circle cx="161.1111111111111" cy="407.21891698464555" r="2" fill="rgb(0,0,0)"/><circle cx="166.16161616161617" cy="405.3411050712306" r="2" fill="rgb(0,0,0)"/><circle cx="171.21212121212122" cy="404.72333239112845" r="2" fill="rgb(0,0,0)"/><circle cx="176.26262626262627" cy="345.007226371412" r="2" fill="rgb(0,0,0)"/><circle cx="181.31313131313132" cy="187.924951779129" r="2" fill="rgb(0,0,0)"/><circle cx="186.36363636363635" cy="335.95245237196605" r="2" fill="rgb(0,0,0)"/><circle cx="191.4141414141414" cy="337.0585888168696" r="2" fill="rgb(0,0,0)"/><circle cx="196.46464646464648" cy="400.2899907720413" r="2" fill="rgb(0,0,0)"/><circle cx="201.51515151515153" cy="407.69174663882524" r="2" fill="rgb(0,0,0)"/><circle cx="206.56565656565658" cy="402.91021892393735" r="2" fill="rgb(0,0,0)"/><circle cx="211.61616161616163" cy="233.68908508836608" r="2" fill="rgb(0,0,0)"/><circle cx="216.66666666666666" cy="234.93806084454314" r="2" fill="rgb(0,0,0)"/><circle cx="221.7171717171717" cy="281.58331803095325" r="2" fill="rgb(0,0,0)"/><circle cx="226.76767676767676" cy="192.84343293937832" r="2" fill="rgb(0,0,0)"/><circle cx="231.8181818181818" cy="397.0095491939064" r="2" fill="rgb(0,0,0)"/><circle cx="236.86868686868686" cy="348.55934474241377" r="2" fill="rgb(0,0,0)"/><circle cx="241.91919191919192" cy="390.6302581809695" r="2" fill="rgb(0,0,0)"/><circle cx="246.96969696969697" cy="387.8044186516431" r="2" fill="rgb(0,0,0)"/><circle cx="252.02020202020202" cy="370.75943086110544" r="2" fill="rgb(0,0,0)"/><circle cx="257.07070707070704" cy="348.03845497352165" r="2" fill="rgb(0,0,0)"/><circle cx="262.1212121212121" cy="400.4626416681139" r="2" fill="rgb(0,0,0)"/><circle cx="267.1717171717172" cy="256.53077862983895" r="2" fill="rgb(0,0,0)"/><circle cx="272.2222222222222" cy="405.717123849953" r="2" fill="rgb(0,0,0)"/><circle cx="277.27272727272725" cy="405.46432586834504" r="2" fill="rgb(0,0,0)"/><circle cx="282.32323232323233" cy="327.52249531726096" r="2" fill="rgb(0,0,0)"/><circle cx="287.3737373737374" cy="327.1750265521724" r="2" fill="rgb(0,0,0)"/><circle cx="292.42424242424244" cy="410.30414769332094" r="2" fill="rgb(0,0,0)"/><circle cx="297.47474747474746" cy="410.69276711720363" r="2" fill="rgb(0,0,0)"/><circle cx="302.52525252525254" cy="410.8177009017785" r="2" fill="rgb(0,0,0)"/><circle cx="307.57575757575756" cy="411.43983257537235" r="2" fill="rgb(0,0,0)"/><circle cx="312.62626262626264" cy="222.55525714031785" r="2" fill="rgb(0,0,0)"/><circle cx="317.67676767676767" cy="384.836481428604" r="2" fill="rgb(0,0,0)"/><circle cx="322.7272727272727" cy="326.9743137776705" r="2" fill="rgb(0,0,0)"/><circle cx="327.77777777777777" cy="273.34267159429226" r="2" fill="rgb(0,0,0)"/><circle cx="332.8282828282828" cy="265.74558543386786" r="2" fill="rgb(0,0,0)"/><circle cx="337.8787878787879" cy="265.5181859460782" r="2" fill="rgb(0,0,0)"/><circle cx="342.92929292929296" cy="262.1065931434777" r="2" fill="rgb(0,0,0)"/><circle cx="347.979797979798" cy="358.0040844591284" r="2" fill="rgb(0,0,0)"/><circle cx="353.03030303030306" cy="374.66147572610464" r="2" fill="rgb(0,0,0)"/><circle cx="358.0808080808081" cy="400.2088964802896" r="2" fill="rgb(0,0,0)"/><circle cx="363.13131313131316" cy="401.0715661385349" r="2" fill="rgb(0,0,0)"/><circle cx="368.1818181818182" cy="413.3393216933839" r="2" fill="rgb(0,0,0)"/><circle cx="373.23232323232327" cy="413.2707138792309" r="2" fill="rgb(0,0,0)"/><circle cx="378.2828282828283" cy="413.17132513757366" r="2" fill="rgb(0,0,0)"/><circle cx="383.3333333333333" cy="263.0013180961482" r="2" fill="rgb(0,0,0)"/><circle cx="388.3838383838384" cy="71.07122183949434" r="2" fill="rgb(0,0,0)"/><circle cx="393.4343434343434" cy="385.5860898927178" r="2" fill="rgb(0,0,0)"/><circle cx="398.4848484848485" cy="369.7950357167505" r="2" fill="rgb(0,0,0)"/><circle cx="403.5353535353535" cy="333.0566160944195" r="2" fill="rgb(0,0,0)"/><circle cx="408.58585858585855" cy="348.7087323317636" r="2" fill="rgb(0,0,0)"/><circle cx="413.6363636363636" cy="363.6869261555833" r="2" fill="rgb(0,0,0)"/><circle cx="418.68686868686865" cy="331.67908956043243" r="2" fill="rgb(0,0,0)"/><circle cx="423.73737373737373" cy="282.3476088526607" r="2" fill="rgb(0,0,0)"/><circle cx="428.7878787878788" cy="410.07584283037886" r="2" fill="rgb(0,0,0)"/><circle cx="433.83838383838383" cy="410.6119395160713" r="2" fill="rgb(0,0,0)"/><circle cx="438.8888888888889" cy="410.069937481664" r="2" fill="rgb(0,0,0)"/><circle cx="443.93939393939394" cy="366.06027133129453" r="2" fill="rgb(0,0,0)"/><circle cx="448.989898989899" cy="366.06027133129453" r="2" fill="rgb(0,0,0)"/><circle cx="454.04040404040404" cy="407.03902647660095" r="2" fill="rgb(0,0,0)"/><circle cx="459.0909090909091" cy="406.0796762160059" r="2" fill="rgb(0,0,0)"/><circle cx="464.14141414141415" cy="406.491499640691" r="2" fill="rgb(0,0,0)"/><circle cx="469.19191919191917" cy="405.3243706835521" r="2" fill="rgb(0,0,0)"/><circle cx="474.24242424242425" cy="75.51049074839301" r="2" fill="rgb(0,0,0)"/><circle cx="479.2929292929293" cy="138.34567574444907" r="2" fill="rgb(0,0,0)"/><circle cx="484.34343434343435" cy="146.39019869054925" r="2" fill="rgb(0,0,0)"/><circle cx="489.3939393939394" cy="350.27166912314965" r="2" fill="rgb(0,0,0)"/><circle cx="494.4444444444444" cy="412.7302145262952" r="2" fill="rgb(0,0,0)"/><circle cx="499.4949494949495" cy="412.62689322042684" r="2" fill="rgb(0,0,0)"/><circle cx="504.5454545454545" cy="412.7090198163004" r="2" fill="rgb(0,0,0)"/><circle cx="509.59595959595964" cy="338.3020462648801" r="2" fill="rgb(0,0,0)"/><circle cx="514.6464646464647" cy="260.06134434614785" r="2" fill="rgb(0,0,0)"/><circle cx="519.6969696969697" cy="313.46607919021056" r="2" fill="rgb(0,0,0)"/><circle cx="524.7474747474748" cy="362.9299964368055" r="2" fill="rgb(0,0,0)"/><circle cx="529.7979797979798" cy="379.4170220648418" r="2" fill="rgb(0,0,0)"/><circle cx="534.8484848484849" cy="378.9934330903857" r="2" fill="rgb(0,0,0)"/><circle cx="539.8989898989898" cy="379.9347647616097" r="2" fill="rgb(0,0,0)"/><circle cx="544.9494949494949" cy="407.0485575412381" r="2" fill="rgb(0,0,0)"/><circle cx="550.0" cy="380.298513020105" r="2" fill="rgb(0,0,0)"/><polyline points="50.0,246.91141100659485 55.05050505050505,239.27525486701194 60.101010101010104,213.93279788115177 65.15151515151516,193.8603709811141 70.20202020202021,158.3624653866683 75.25252525252526,124.22187578246462 80.30303030303031,111.96635786007357 85.35353535353535,106.08359940780184 90.40404040404042,101.60166526207098 95.45454545454545,92.2094100542966 100.5050505050505,82.93036411186637 105.55555555555554,80.70412061468534 110.60606060606061,72.68888011078968 115.65656565656566,70.83399834829805 120.7070707070707,65.62790150396063 125.75757575757576,65.42622625136886 130.80808080808083,71.01842387413075 135.85858585858585,62.34254612646998 140.9090909090909,77.15297377880921 145.95959595959596,80.19570207903968 151.010101010101,69.0229497795799 156.06060606060606,68.06791830515476 161.1111111111111,76.06113790143576 166.16161616161617,80.20536879505113 171.21212121212122,61.389565589373774 176.26262626262627,62.841388610732906 181.31313131313132,58.11312599210652 186.36363636363635,58.773285518100465 191.4141414141414,67.2586549533163 196.46464646464648,76.6797348604772 201.51515151515153,82.19572965074224 206.56565656565658,76.2411527071381 211.61616161616163,68.6457979572192 216.66666666666666,59.818891546143334 221.7171717171717,59.39762844566167 226.76767676767676,60.26683765856194 231.8181818181818,73.83486267565775 236.86868686868686,65.9405219522622 241.91919191919192,72.96357961052098 246.96969696969697,87.68702983731566 252.02020202020202,74.89177905094976 257.07070707070704,69.43913762331891 262.1212121212121,64.23329866547397 267.1717171717172,62.731823648179216 272.2222222222222,67.14485923022386 277.27272727272725,66.0772845734204 282.32323232323233,62.15370358178302 287.3737373737374,64.14797161277681 292.42424242424244,63.85605686878432 297.47474747474746,65.79846887821788 302.52525252525254,72.97446093941778 307.57575757575756,70.74719898580912 312.62626262626264,57.25542557277237 317.67676767676767,62.3704536154562 322.7272727272727,62.267019474719916 327.77777777777777,60.28746828068034 332.8282828282828,58.81327749674301 337.8787878787879,58.23180263549057 342.92929292929296,63.100973705959575 347.979797979798,63.75563592396793 353.03030303030306,57.94891466501048 358.0808080808081,61.7257227546113 363.13131313131316,67.25374003461923 368.1818181818182,78.66117744496194 373.23232323232327,67.6160227374387 378.2828282828283,66.79544708547729 383.3333333333333,58.18505083441261 388.3838383838384,53.56922807625904 393.4343434343434,62.486870002738044 398.4848484848485,62.02754387288513 403.5353535353535,64.12313210334423 408.58585858585855,66.76307843034334 413.6363636363636,68.62293545995311 418.68686868686865,65.68712213923783 423.73737373737373,62.12959837494577 428.7878787878788,68.16836962879148 433.83838383838383,66.0072637999881 438.8888888888889,68.45361985432777 443.93939393939394,59.515359304914114 448.989898989899,61.668695358231446 454.04040404040404,71.27448388533435 459.0909090909091,67.08727954415008 464.14141414141415,63.90955743625386 469.19191919191917,58.27151750978538 474.24242424242425,54.15794935056897 479.2929292929293,55.20719116163565 484.34343434343435,55.81553079477084 489.3939393939394,69.76430605223004 494.4444444444444,64.94705571601179 499.4949494949495,61.80138900298169 504.5454545454545,63.92485631079518 509.59595959595964,66.29432446813155 514.6464646464647,60.01907507078283 519.6969696969697,58.93125784296916 524.7474747474748,56.969414434597866 529.7979797979798,61.50655531061636 534.8484848484849,61.48925017664129 539.8989898989898,57.98572801782433 544.9494949494949,62.90596786216713 550.0,62.9279152713504" fill="none" stroke="rgb(0,0,255)" stroke-width="1"/><circle cx="50.0" cy="246.91141100659485" r="2" fill="rgb(0,0,255)"/><circle cx="55.05050505050505" cy="239.27525486701194" r="2" fill="rgb(0,0,255)"/><circle cx="60.101010101010104" cy="213.93279788115177" r="2" fill="rgb(0,0,255)"/><circle cx="65.15151515151516" cy="193.8603709811141" r="2" fill="rgb(0,0,255)"/><circle cx="70.20202020202021" cy="158.3624653866683" r="2" fill="rgb(0,0,255)"/><circle cx="75.25252525252526" cy="124.22187578246462" r="2" fill="rgb(0,0,255)"/><circle cx="80.30303030303031" cy="111.96635786007357" r="2" fill="rgb(0,0,255)"/><circle cx="85.35353535353535" cy="106.08359940780184" r="2" fill="rgb(0,0,255)"/><circle cx="90.40404040404042" cy="101.60166526207098" r="2" fill="rgb(0,0,255)"/><circle cx="95.45454545454545" cy="92.2094100542966" r="2" fill="rgb(0,0,255)"/><circle cx="100.5050505050505" cy="82.93036411186637" r="2" fill="rgb(0,0,255)"/><circle cx="105.55555555555554" cy="80.70412061468534" r="2" fill="rgb(0,0,255)"/><circle cx="110.60606060606061" cy="72.68888011078968" r="2" fill="rgb(0,0,255)"/><circle cx="115.65656565656566" cy="70.83399834829805" r="2" fill="rgb(0,0,255)"/><circle cx="120.7070707070707" cy="65.62790150396063" r="2" fill="rgb(0,0,255)"/><circle cx="125.75757575757576" cy="65.42622625136886" r="2" fill="rgb(0,0,255)"/><circle cx="130.80808080808083" cy="71.01842387413075" r="2" fill="rgb(0,0,255)"/><circle cx="135.85858585858585" cy="62.34254612646998" r="2" fill="rgb(0,0,255)"/><circle cx="140.9090909090909" cy="77.15297377880921" r="2" fill="rgb(0,0,255)"/><circle cx="145.95959595959596" cy="80.19570207903968" r="2" fill="rgb(0,0,255)"/><circle cx="151.010101010101" cy="69.0229497795799" r="2" fill="rgb(0,0,255)"/><circle cx="156.06060606060606" cy="68.06791830515476" r="2" fill="rgb(0,0,255)"/><circle cx="161.1111111111111" cy="76.06113790143576" r="2" fill="rgb(0,0,255)"/><circle cx="166.16161616161617" cy="80.20536879505113" r="2" fill="rgb(0,0,255)"/><circle cx="171.21212121212122" cy="61.389565589373774" r="2" fill="rgb(0,0,255)"/><circle cx="176.26262626262627" cy="62.841388610732906" r="2" fill="rgb(0,0,255)"/><circle cx="181.31313131313132" cy="58.11312599210652" r="2" fill="rgb(0,0,255)"/><circle cx="186.36363636363635" cy="58.773285518100465" r="2" fill="rgb(0,0,255)"/><circle cx="191.4141414141414" cy="67.2586549533163" r="2" fill="rgb(0,0,255)"/><circle cx="196.46464646464648" cy="76.6797348604772" r="2" fill="rgb(0,0,255)"/><circle cx="201.51515151515153" cy="82.19572965074224" r="2" fill="rgb(0,0,255)"/><circle cx="206.56565656565658" cy="76.2411527071381" r="2" fill="rgb(0,0,255)"/><circle cx="211.61616161616163" cy="68.6457979572192" r="2" fill="rgb(0,0,255)"/><circle cx="216.66666666666666" cy="59.818891546143334" r="2" fill="rgb(0,0,255)"/><circle cx="221.7171717171717" cy="59.39762844566167" r="2" fill="rgb(0,0,255)"/><circle cx="226.76767676767676" cy="60.26683765856194" r="2" fill="rgb(0,0,255)"/><circle cx="231.8181818181818" cy="73.83486267565775" r="2" fill="rgb(0,0,255)"/><circle cx="236.86868686868686" cy="65.9405219522622" r="2" fill="rgb(0,0,255)"/><circle cx="241.91919191919192" cy="72.96357961052098" r="2" fill="rgb(0,0,255)"/><circle cx="246.96969696969697" cy="87.68702983731566" r="2" fill="rgb(0,0,255)"/><circle cx="252.02020202020202" cy="74.89177905094976" r="2" fill="rgb(0,0,255)"/><circle cx="257.07070707070704" cy="69.43913762331891" r="2" fill="rgb(0,0,255)"/><circle cx="262.1212121212121" cy="64.23329866547397" r="2" fill="rgb(0,0,255)"/><circle cx="267.1717171717172" cy="62.731823648179216" r="2" fill="rgb(0,0,255)"/><circle cx="272.2222222222222" cy="67.14485923022386" r="2" fill="rgb(0,0,255)"/><circle cx="277.27272727272725" cy="66.0772845734204" r="2" fill="rgb(0,0,255)"/><circle cx="282.32323232323233" cy="62.15370358178302" r="2" fill="rgb(0,0,255)"/><circle cx="287.3737373737374" cy="64.14797161277681" r="2" fill="rgb(0,0,255)"/><circle cx="292.42424242424244" cy="63.85605686878432" r="2" fill="rgb(0,0,255)"/><circle cx="297.47474747474746" cy="65.79846887821788" r="2" fill="rgb(0,0,255)"/><circle cx="302.52525252525254" cy="72.97446093941778" r="2" fill="rgb(0,0,255)"/><circle cx="307.57575757575756" cy="70.74719898580912" r="2" fill="rgb(0,0,255)"/><circle cx="312.62626262626264" cy="57.25542557277237" r="2" fill="rgb(0,0,255)"/><circle cx="317.67676767676767" cy="62.3704536154562" r="2" fill="rgb(0,0,255)"/><circle cx="322.7272727272727" cy="62.267019474719916" r="2" fill="rgb(0,0,255)"/><circle cx="327.77777777777777" cy="60.28746828068034" r="2" fill="rgb(0,0,255)"/><circle cx="332.8282828282828" cy="58.81327749674301" r="2" fill="rgb(0,0,255)"/><circle cx="337.8787878787879" cy="58.23180263549057" r="2" fill="rgb(0,0,255)"/><circle cx="342.92929292929296" cy="63.100973705959575" r="2" fill="rgb(0,0,255)"/><circle cx="347.979797979798" cy="63.75563592396793" r="2" fill="rgb(0,0,255)"/><circle cx="353.03030303030306" cy="57.94891466501048" r="2" fill="rgb(0,0,255)"/><circle cx="358.0808080808081" cy="61.7257227546113" r="2" fill="rgb(0,0,255)"/><circle cx="363.13131313131316" cy="67.25374003461923" r="2" fill="rgb(0,0,255)"/><circle cx="368.1818181818182" cy="78.66117744496194" r="2" fill="rgb(0,0,255)"/><circle cx="373.23232323232327" cy="67.6160227374387" r="2" fill="rgb(0,0,255)"/><circle cx="378.2828282828283" cy="66.79544708547729" r="2" fill="rgb(0,0,255)"/><circle cx="383.3333333333333" cy="58.18505083441261" r="2" fill="rgb(0,0,255)"/><circle cx="388.3838383838384" cy="53.56922807625904" r="2" fill="rgb(0,0,255)"/><circle cx="393.4343434343434" cy="62.486870002738044" r="2" fill="rgb(0,0,255)"/><circle cx="398.4848484848485" cy="62.02754387288513" r="2" fill="rgb(0,0,255)"/><circle cx="403.5353535353535" cy="64.12313210334423" r="2" fill="rgb(0,0,255)"/><circle cx="408.58585858585855" cy="66.76307843034334" r="2" fill="rgb(0,0,255)"/><circle cx="413.6363636363636" cy="68.62293545995311" r="2" fill="rgb(0,0,255)"/><circle cx="418.68686868686865" cy="65.68712213923783" r="2" fill="rgb(0,0,255)"/><circle cx="423.73737373737373" cy="62.12959837494577" r="2" fill="rgb(0,0,255)"/><circle cx="428.7878787878788" cy="68.16836962879148" r="2" fill="rgb(0,0,255)"/><circle cx="433.83838383838383" cy="66.0072637999881" r="2" fill="rgb(0,0,255)"/><circle cx="438.8888888888889" cy="68.45361985432777" r="2" fill="rgb(0,0,255)"/><circle cx="443.93939393939394" cy="59.515359304914114" r="2" fill="rgb(0,0,255)"/><circle cx="448.989898989899" cy="61.668695358231446" r="2" fill="rgb(0,0,255)"/><circle cx="454.04040404040404" cy="71.27448388533435" r="2" fill="rgb(0,0,255)"/><circle cx="459.0909090909091" cy="67.08727954415008" r="2" fill="rgb(0,0,255)"/><circle cx="464.14141414141415" cy="63.90955743625386" r="2" fill="rgb(0,0,255)"/><circle cx="469.19191919191917" cy="58.27151750978538" r="2" fill="rgb(0,0,255)"/><circle cx="474.24242424242425" cy="54.15794935056897" r="2" fill="rgb(0,0,255)"/><circle cx="479.2929292929293" cy="55.20719116163565" r="2" fill="rgb(0,0,255)"/><circle cx="484.34343434343435" cy="55.81553079477084" r="2" fill="rgb(0,0,255)"/><circle cx="489.3939393939394" cy="69.76430605223004" r="2" fill="rgb(0,0,255)"/><circle cx="494.4444444444444" cy="64.94705571601179" r="2" fill="rgb(0,0,255)"/><circle cx="499.4949494949495" cy="61.80138900298169" r="2" fill="rgb(0,0,255)"/><circle cx="504.5454545454545" cy="63.92485631079518" r="2" fill="rgb(0,0,255)"/><circle cx="509.59595959595964" cy="66.29432446813155" r="2" fill="rgb(0,0,255)"/><circle cx="514.6464646464647" cy="60.01907507078283" r="2" fill="rgb(0,0,255)"/><circle cx="519.6969696969697" cy="58.93125784296916" r="2" fill="rgb(0,0,255)"/><circle cx="524.7474747474748" cy="56.969414434597866" r="2" fill="rgb(0,0,255)"/><circle cx="529.7979797979798" cy="61.50655531061636" r="2" fill="rgb(0,0,255)"/><circle cx="534.8484848484849" cy="61.48925017664129" r="2" fill="rgb(0,0,255)"/><circle cx="539.8989898989898" cy="57.98572801782433" r="2" fill="rgb(0,0,255)"/><circle cx="544.9494949494949" cy="62.90596786216713" r="2" fill="rgb(0,0,255)"/><circle cx="550.0" cy="62.9279152713504" r="2" fill="rgb(0,0,255)"/><polyline points="50.0,60.9191516162133 55.05050505050505,61.0797316116504 60.101010101010104,60.65807321803811 65.15151515151516,60.69683246749344 70.20202020202021,60.040657160079434 75.25252525252526,57.5900153263251 80.30303030303031,55.67962422611049 85.35353535353535,55.212141474597786 90.40404040404042,55.79731380715964 95.45454545454545,55.41022209001994 100.5050505050505,55.37486164592036 105.55555555555554,55.160661733764584 110.60606060606061,55.436459712666704 115.65656565656566,55.61117416480744 120.7070707070707,55.18784358987051 125.75757575757576,55.313118473053294 130.80808080808083,53.346662265496605 135.85858585858585,54.624385082486924 140.9090909090909,54.16663590805797 145.95959595959596,54.25877836452287 151.010101010101,53.807479208030884 156.06060606060606,53.80885058881938 161.1111111111111,53.64711182969819 166.16161616161617,53.095168734814536 171.21212121212122,52.68442473736201 176.26262626262627,52.81673796634618 181.31313131313132,52.79639174759916 186.36363636363635,52.81673796634618 191.4141414141414,52.81673796634618 196.46464646464648,52.56902959284082 201.51515151515153,52.60229186283743 206.56565656565658,52.60229186283743 211.61616161616163,52.712776724146465 216.66666666666666,52.887675920819106 221.7171717171717,52.48442579142153 226.76767676767676,52.48442579142153 231.8181818181818,52.49394692973823 236.86868686868686,52.48442579142153 241.91919191919192,52.49394692973823 246.96969696969697,52.49394692973823 252.02020202020202,52.435765411285274 257.07070707070704,52.49394692973823 262.1212121212121,52.51701186779525 267.1717171717172,52.51701186779525 272.2222222222222,52.48442579142153 277.27272727272725,52.51701186779525 282.32323232323233,52.49394692973823 287.3737373737374,52.321077912340684 292.42424242424244,52.4006992791505 297.47474747474746,52.4006992791505 302.52525252525254,52.4006992791505 307.57575757575756,52.4006992791505 312.62626262626264,52.4006992791505 317.67676767676767,52.4006992791505 322.7272727272727,52.36811320277678 327.77777777777777,52.36811320277678 332.8282828282828,52.23807059321115 337.8787878787879,52.228549454894505 342.92929292929296,52.228549454894505 347.979797979798,51.56932455370594 353.03030303030306,52.23807059321115 358.0808080808081,52.23807059321115 363.13131313131316,52.23807059321115 368.1818181818182,52.23807059321115 373.23232323232327,52.23430865465872 378.2828282828283,52.20982660176111 383.3333333333333,52.22453105619621 388.3838383838384,52.16876463160986 393.4343434343434,52.16876463160986 398.4848484848485,52.119882736328236 403.5353535353535,52.13098734879031 408.58585858585855,52.13098734879031 413.6363636363636,52.13098734879031 418.68686868686865,52.13098734879031 423.73737373737373,52.119882736328236 428.7878787878788,52.119882736328236 433.83838383838383,52.13098734879031 438.8888888888889,52.13098734879031 443.93939393939394,52.119882736328236 448.989898989899,52.13098734879031 454.04040404040404,52.118657883730634 459.0909090909091,52.09911541468557 464.14141414141415,50.901989328894956 469.19191919191917,50.048881895281625 474.24242424242425,50.27534031973528 479.2929292929293,50.1590448327064 484.34343434343435,50.140696814073976 489.3939393939394,50.14447585424227 494.4444444444444,50.103321305868405 499.4949494949495,50.103321305868405 504.5454545454545,50.23078127995126 509.59595959595964,50.005905348714805 514.6464646464647,50.03777728281955 519.6969696969697,50.103321305868405 524.7474747474748,50.02607692318088 529.7979797979798,50.0 534.8484848484849,50.048881895281625 539.8989898989898,50.01110461246208 544.9494949494949,50.03777728281955 550.0,50.03777728281955" fill="none" stroke="rgb(0,255,0)" stroke-width="1"/><circle cx="50.0" cy="60.9191516162133" r="2" fill="rgb(0,255,0)"/><circle cx="55.05050505050505" cy="61.0797316116504" r="2" fill="rgb(0,255,0)"/><circle cx="60.101010101010104" cy="60.65807321803811" r="2" fill="rgb(0,255,0)"/><circle cx="65.15151515151516" cy="60.69683246749344" r="2" fill="rgb(0,255,0)"/><circle cx="70.20202020202021" cy="60.040657160079434" r="2" fill="rgb(0,255,0)"/><circle cx="75.25252525252526" cy="57.5900153263251" r="2" fill="rgb(0,255,0)"/><circle cx="80.30303030303031" cy="55.67962422611049" r="2" fill="rgb(0,255,0)"/><circle cx="85.35353535353535" cy="55.212141474597786" r="2" fill="rgb(0,255,0)"/><circle cx="90.40404040404042" cy="55.79731380715964" r="2" fill="rgb(0,255,0)"/><circle cx="95.45454545454545" cy="55.41022209001994" r="2" fill="rgb(0,255,0)"/><circle cx="100.5050505050505" cy="55.37486164592036" r="2" fill="rgb(0,255,0)"/><circle cx="105.55555555555554" cy="55.160661733764584" r="2" fill="rgb(0,255,0)"/><circle cx="110.60606060606061" cy="55.436459712666704" r="2" fill="rgb(0,255,0)"/><circle cx="115.65656565656566" cy="55.61117416480744" r="2" fill="rgb(0,255,0)"/><circle cx="120.7070707070707" cy="55.18784358987051" r="2" fill="rgb(0,255,0)"/><circle cx="125.75757575757576" cy="55.313118473053294" r="2" fill="rgb(0,255,0)"/><circle cx="130.80808080808083" cy="53.346662265496605" r="2" fill="rgb(0,255,0)"/><circle cx="135.85858585858585" cy="54.624385082486924" r="2" fill="rgb(0,255,0)"/><circle cx="140.9090909090909" cy="54.16663590805797" r="2" fill="rgb(0,255,0)"/><circle cx="145.95959595959596" cy="54.25877836452287" r="2" fill="rgb(0,255,0)"/><circle cx="151.010101010101" cy="53.807479208030884" r="2" fill="rgb(0,255,0)"/><circle cx="156.06060606060606" cy="53.80885058881938" r="2" fill="rgb(0,255,0)"/><circle cx="161.1111111111111" cy="53.64711182969819" r="2" fill="rgb(0,255,0)"/><circle cx="166.16161616161617" cy="53.095168734814536" r="2" fill="rgb(0,255,0)"/><circle cx="171.21212121212122" cy="52.68442473736201" r="2" fill="rgb(0,255,0)"/><circle cx="176.26262626262627" cy="52.81673796634618" r="2" fill="rgb(0,255,0)"/><circle cx="181.31313131313132" cy="52.79639174759916" r="2" fill="rgb(0,255,0)"/><circle cx="186.36363636363635" cy="52.81673796634618" r="2" fill="rgb(0,255,0)"/><circle cx="191.4141414141414" cy="52.81673796634618" r="2" fill="rgb(0,255,0)"/><circle cx="196.46464646464648" cy="52.56902959284082" r="2" fill="rgb(0,255,0)"/><circle cx="201.51515151515153" cy="52.60229186283743" r="2" fill="rgb(0,255,0)"/><circle cx="206.56565656565658" cy="52.60229186283743" r="2" fill="rgb(0,255,0)"/><circle cx="211.61616161616163" cy="52.712776724146465" r="2" fill="rgb(0,255,0)"/><circle cx="216.66666666666666" cy="52.887675920819106" r="2" fill="rgb(0,255,0)"/><circle cx="221.7171717171717" cy="52.48442579142153" r="2" fill="rgb(0,255,0)"/><circle cx="226.76767676767676" cy="52.48442579142153" r="2" fill="rgb(0,255,0)"/><circle cx="231.8181818181818" cy="52.49394692973823" r="2" fill="rgb(0,255,0)"/><circle cx="236.86868686868686" cy="52.48442579142153" r="2" fill="rgb(0,255,0)"/><circle cx="241.91919191919192" cy="52.49394692973823" r="2" fill="rgb(0,255,0)"/><circle cx="246.96969696969697" cy="52.49394692973823" r="2" fill="rgb(0,255,0)"/><circle cx="252.02020202020202" cy="52.435765411285274" r="2" fill="rgb(0,255,0)"/><circle cx="257.07070707070704" cy="52.49394692973823" r="2" fill="rgb(0,255,0)"/><circle cx="262.1212121212121" cy="52.51701186779525" r="2" fill="rgb(0,255,0)"/><circle cx="267.1717171717172" cy="52.51701186779525" r="2" fill="rgb(0,255,0)"/><circle cx="272.2222222222222" cy="52.48442579142153" r="2" fill="rgb(0,255,0)"/><circle cx="277.27272727272725" cy="52.51701186779525" r="2" fill="rgb(0,255,0)"/><circle cx="282.32323232323233" cy="52.49394692973823" r="2" fill="rgb(0,255,0)"/><circle cx="287.3737373737374" cy="52.321077912340684" r="2" fill="rgb(0,255,0)"/><circle cx="292.42424242424244" cy="52.4006992791505" r="2" fill="rgb(0,255,0)"/><circle cx="297.47474747474746" cy="52.4006992791505" r="2" fill="rgb(0,255,0)"/><circle cx="302.52525252525254" cy="52.4006992791505" r="2" fill="rgb(0,255,0)"/><circle cx="307.57575757575756" cy="52.4006992791505" r="2" fill="rgb(0,255,0)"/><circle cx="312.62626262626264" cy="52.4006992791505" r="2" fill="rgb(0,255,0)"/><circle cx="317.67676767676767" cy="52.4006992791505" r="2" fill="rgb(0,255,0)"/><circle cx="322.7272727272727" cy="52.36811320277678" r="2" fill="rgb(0,255,0)"/><circle cx="327.77777777777777" cy="52.36811320277678" r="2" fill="rgb(0,255,0)"/><circle cx="332.8282828282828" cy="52.23807059321115" r="2" fill="rgb(0,255,0)"/><circle cx="337.8787878787879" cy="52.228549454894505" r="2" fill="rgb(0,255,0)"/><circle cx="342.92929292929296" cy="52.228549454894505" r="2" fill="rgb(0,255,0)"/><circle cx="347.979797979798" cy="51.56932455370594" r="2" fill="rgb(0,255,0)"/><circle cx="353.03030303030306" cy="52.23807059321115" r="2" fill="rgb(0,255,0)"/><circle cx="358.0808080808081" cy="52.23807059321115" r="2" fill="rgb(0,255,0)"/><circle cx="363.13131313131316" cy="52.23807059321115" r="2" fill="rgb(0,255,0)"/><circle cx="368.1818181818182" cy="52.23807059321115" r="2" fill="rgb(0,255,0)"/><circle cx="373.23232323232327" cy="52.23430865465872" r="2" fill="rgb(0,255,0)"/><circle cx="378.2828282828283" cy="52.20982660176111" r="2" fill="rgb(0,255,0)"/><circle cx="383.3333333333333" cy="52.22453105619621" r="2" fill="rgb(0,255,0)"/><circle cx="388.3838383838384" cy="52.16876463160986" r="2" fill="rgb(0,255,0)"/><circle cx="393.4343434343434" cy="52.16876463160986" r="2" fill="rgb(0,255,0)"/><circle cx="398.4848484848485" cy="52.119882736328236" r="2" fill="rgb(0,255,0)"/><circle cx="403.5353535353535" cy="52.13098734879031" r="2" fill="rgb(0,255,0)"/><circle cx="408.58585858585855" cy="52.13098734879031" r="2" fill="rgb(0,255,0)"/><circle cx="413.6363636363636" cy="52.13098734879031" r="2" fill="rgb(0,255,0)"/><circle cx="418.68686868686865" cy="52.13098734879031" r="2" fill="rgb(0,255,0)"/><circle cx="423.73737373737373" cy="52.119882736328236" r="2" fill="rgb(0,255,0)"/><circle cx="428.7878787878788" cy="52.119882736328236" r="2" fill="rgb(0,255,0)"/><circle cx="433.83838383838383" cy="52.13098734879031" r="2" fill="rgb(0,255,0)"/><circle cx="438.8888888888889" cy="52.13098734879031" r="2" fill="rgb(0,255,0)"/><circle cx="443.93939393939394" cy="52.119882736328236" r="2" fill="rgb(0,255,0)"/><circle cx="448.989898989899" cy="52.13098734879031" r="2" fill="rgb(0,255,0)"/><circle cx="454.04040404040404" cy="52.118657883730634" r="2" fill="rgb(0,255,0)"/><circle cx="459.0909090909091" cy="52.09911541468557" r="2" fill="rgb(0,255,0)"/><circle cx="464.14141414141415" cy="50.901989328894956" r="2" fill="rgb(0,255,0)"/><circle cx="469.19191919191917" cy="50.048881895281625" r="2" fill="rgb(0,255,0)"/><circle cx="474.24242424242425" cy="50.27534031973528" r="2" fill="rgb(0,255,0)"/><circle cx="479.2929292929293" cy="50.1590448327064" r="2" fill="rgb(0,255,0)"/><circle cx="484.34343434343435" cy="50.140696814073976" r="2" fill="rgb(0,255,0)"/><circle cx="489.3939393939394" cy="50.14447585424227" r="2" fill="rgb(0,255,0)"/><circle cx="494.4444444444444" cy="50.103321305868405" r="2" fill="rgb(0,255,0)"/><circle cx="499.4949494949495" cy="50.103321305868405" r="2" fill="rgb(0,255,0)"/><circle cx="504.5454545454545" cy="50.23078127995126" r="2" fill="rgb(0,255,0)"/><circle cx="509.59595959595964" cy="50.005905348714805" r="2" fill="rgb(0,255,0)"/><circle cx="514.6464646464647" cy="50.03777728281955" r="2" fill="rgb(0,255,0)"/><circle cx="519.6969696969697" cy="50.103321305868405" r="2" fill="rgb(0,255,0)"/><circle cx="524.7474747474748" cy="50.02607692318088" r="2" fill="rgb(0,255,0)"/><circle cx="529.7979797979798" cy="50.0" r="2" fill="rgb(0,255,0)"/><circle cx="534.8484848484849" cy="50.048881895281625" r="2" fill="rgb(0,255,0)"/><circle cx="539.8989898989898" cy="50.01110461246208" r="2" fill="rgb(0,255,0)"/><circle cx="544.9494949494949" cy="50.03777728281955" r="2" fill="rgb(0,255,0)"/><circle cx="550.0" cy="50.03777728281955" r="2" fill="rgb(0,255,0)"/><text x="350.0" y="20.0" text-anchor="middle" fill="rgb(0,0,0)" font-size="20.0">GA Demo</text><text x="350.0" y="575.0" text-anchor="middle" fill="rgb(0,0,0)" font-size="12.0">generation</text><text transform="rotate(-90.0 20.0 300.0)" x="20.0" y="300.0" text-anchor="middle" fill="rgb(0,0,0)" font-size="12.0">fitness</text><text x="620" y="62" fill="rgb(0,0,0)" font-size="12">min</text><text x="620" y="74" fill="rgb(0,0,255)" font-size="12">ave</text><text x="620" y="86" fill="rgb(0,255,0)" font-size="12">max</text>
      Sorry, your browser does not support inline SVG.
    </svg>