<?xml version='1.0' encoding='UTF-8'?>
<svg version="1.1" width="700.0" height="600.0" onload="init(evt)" xmlns="http://www.w3.org/2000/svg">
      <style>.caption {
  font-size: 14px;
  font-family: Georgia, serif;
}
</style>
      <script type="text/ecmascript"><![CDATA[
function init(evt) {
  if ( window.svgDocument == null ) {
    svgDocument = evt.target.ownerDocument;
  }
}

function RectHover(evt, i, c) {
  rect = svgDocument.getElementById('rect' + i);
  if( c != null ) {
    rect.setAttributeNS(null, "fill", c)  
  }
  tooltiptext = svgDocument.getElementById('tooltiptext' + i);
  tooltipbg = svgDocument.getElementById('tooltipbg' + i);
  if( tooltipbg != null) {
    tbb = tooltiptext.getBBox();
    tooltipbg.setAttributeNS(null, "width", tbb.width);
    tooltipbg.setAttributeNS(null, "height", tbb.height);
    tooltipbg.setAttributeNS(null, "x", tbb.x);
    tooltipbg.setAttributeNS(null, "y", tbb.y);
    tooltipbg.setAttributeNS(null, "visibility", "visible");
  }
  tooltiptext.setAttributeNS(null,"visibility","visible");
}

function RectUnhover(evt, i, c) {
  rect = svgDocument.getElementById('rect' + i);
  if( c != null ) {
    rect.setAttributeNS(null, "fill", c)  
  }
  tooltiptext = svgDocument.getElementById('tooltiptext' + i);
  tooltiptext.setAttributeNS(null,"visibility","hidden");
  tooltipbg = svgDocument.getElementById('tooltipbg' + i);
  if( tooltipbg != null ) {
    tooltipbg.setAttributeNS(null,"visibility","hidden");
  }
}
]]></script>
      <line x1="50.0" y1="550.0" x2="550.0" y2="550.0" stroke="rgb(0,0,0)" stroke-width="1"/><line x1="50.0" y1="550.0" x2="50.0" y2="50.0" stroke="rgb(0,0,0)" stroke-width="1"/><line x1="50.0" y1="550.0" x2="50.0" y2="50.0" stroke="rgb(192,192,192)" stroke-width="1"/><line x1="50.0" y1="548.0" x2="50.0" y2="552.0" stroke="rgb(192,192,192)" stroke-width="1"/><text text-anchor="middle" alignment-baseline="hanging" x="50.0" y="553.0" font-size="12.0">0</text><line x1="100.5050505050505" y1="550.0" x2="100.5050505050505" y2="50.0" stroke="rgb(192,192,192)" stroke-width="1"/><line x1="100.5050505050505" y1="548.0" x2="100.5050505050505" y2="552.0" stroke="rgb(192,192,192)" stroke-width="1"/><text text-anchor="middle" alignment-baseline="hanging" x="100.5050505050505" y="553.0" font-size="12.0">10</text><line x1="151.010101010101" y1="550.0" x2="151.010101010101" y2="50.0" stroke="rgb(192,192,192)" stroke-width="1"/><line x1="151.010101010101" y1="548.0" x2="151.010101010101" y2="552.0" stroke="rgb(192,192,192)" stroke-width="1"/><text text-anchor="middle" alignment-baseline="hanging" x="151.010101010101" y="553.0" font-size="12.0">20</text><line x1="201.51515151515153" y1="550.0" x2="201.51515151515153" y2="50.0" stroke="rgb(192,192,192)" stroke-width="1"/><line x1="201.51515151515153" y1="548.0" x2="201.51515151515153" y2="552.0" stroke="rgb(192,192,192)" stroke-width="1"/><text text-anchor="middle" alignment-baseline="hanging" x="201.51515151515153" y="553.0" font-size="12.0">30</text><line x1="252.02020202020202" y1="550.0" x2="252.02020202020202" y2="50.0" stroke="rgb(192,192,192)" stroke-width="1"/><line x1="252.02020202020202" y1="548.0" x2="252.02020202020202" y2="552.0" stroke="rgb(192,192,192)" stroke-width="1"/><text text-anchor="middle" alignment-baseline="hanging" x="252.02020202020202" y="553.0" font-size="12.0">40</text><line x1="302.52525252525254" y1="550.0" x2="302.52525252525254" y2="50.0" stroke="rgb(192,192,192)" stroke-width="1"/><line x1="302.52525252525254" y1="548.0" x2="302.52525252525254" y2="552.0" stroke="rgb(192,192,192)" stroke-width="1"/><text text-anchor="middle" alignment-baseline="hanging" x="302.52525252525254" y="553.0" font-size="12.0">50</text><line x1="353.03030303030306" y1="550.0" x2="353.03030303030306" y2="50.0" stroke="rgb(192,192,192)" stroke-width="1"/><line x1="353.03030303030306" y1="548.0" x2="353.03030303030306" y2="552.0" stroke="rgb(192,192,192)" stroke-width="1"/><text text-anchor="middle" alignment-baseline="hanging" x="353.03030303030306" y="553.0" font-size="12.0">60</text><line x1="403.5353535353535" y1="550.0" x2="403.5353535353535" y2="50.0" stroke="rgb(192,192,192)" stroke-width="1"/><line x1="403.5353535353535" y1="548.0" x2="403.5353535353535" y2="552.0" stroke="rgb(192,192,192)" stroke-width="1"/><text text-anchor="middle" alignment-baseline="hanging" x="403.5353535353535" y="553.0" font-size="12.0">70</text><line x1="454.04040404040404" y1="550.0" x2="454.04040404040404" y2="50.0" stroke="rgb(192,192,192)" stroke-width="1"/><line x1="454.04040404040404" y1="548.0" x2="454.04040404040404" y2="552.0" stroke="rgb(192,192,192)" stroke-width="1"/><text text-anchor="middle" alignment-baseline="hanging" x="454.04040404040404" y="553.0" font-size="12.0">80</text><line x1="504.5454545454545" y1="550.0" x2="504.5454545454545" y2="50.0" stroke="rgb(192,192,192)" stroke-width="1"/><line x1="504.5454545454545" y1="548.0" x2="504.5454545454545" y2="552.0" stroke="rgb(192,192,192)" stroke-width="1"/><text text-anchor="middle" alignment-baseline="hanging" x="504.5454545454545" y="553.0" font-size="12.0">90</text><line x1="50.0" y1="550.0" x2="550.0" y2="550.0" stroke="rgb(192,192,192)" stroke-width="1"/><text text-anchor="end" alignment-baseline="middle" x="45.0" y="550.0" font-size="12.0">0.0</text><line x1="48.0" y1="550.0" x2="52.0" y2="550.0" stroke="rgb(192,192,192)" stroke-width="1"/><line x1="50.0" y1="367.81471710383676" x2="550.0" y2="367.81471710383676" stroke="rgb(192,192,192)" stroke-width="1"/><text text-anchor="end" alignment-baseline="middle" x="45.0" y="367.81471710383676" font-size="12.0">1000.0</text><line x1="48.0" y1="367.81471710383676" x2="52.0" y2="367.81471710383676" stroke="rgb(192,192,192)" stroke-width="1"/><line x1="50.0" y1="185.62943420767346" x2="550.0" y2="185.62943420767346" stroke="rgb(192,192,192)" stroke-width="1"/><text text-anchor="end" alignment-baseline="middle" x="45.0" y="185.62943420767346" font-size="12.0">2000.0</text><line x1="48.0" y1="185.62943420767346" x2="52.0" y2="185.62943420767346" stroke="rgb(192,192,192)" stroke-width="1"/><polyline points="50.0,394.12511657420146 55.05050505050505,396.33753991949425 60.101010101010104,411.7257581573382 65.15151515151516,394.1896547739434 70.20202020202021,366.95776360640747 75.25252525252526,322.3019658687522 80.30303030303031,397.7126617877328 85.35353535353535,219.51725237580303 90.40404040404042,334.0272061924763 95.45454545454545,314.1149706915582 100.5050505050505,313.7163626347942 105.55555555555554,415.2278869174861 110.60606060606061,331.34249274699334 115.65656565656566,159.4405669032663 120.7070707070707,154.44730900616582 125.75757575757576,212.08717690931553 130.80808080808083,366.8091470842989 135.85858585858585,404.37611796916326 140.9090909090909,179.41325929843532 145.95959595959596,223.96039482873937 151.010101010101,350.3358460290433 156.06060606060606,287.17379419974503 161.1111111111111,285.54737433695766 166.16161616161617,184.7707089097322 171.21212121212122,196.0687480920535 176.26262626262627,340.8229815579602 181.31313131313132,340.40475041736136 186.36363636363635,340.21514050701035 191.4141414141414,340.5251686852671 196.46464646464648,384.9983294265457 201.51515151515153,385.6422353387258 206.56565656565658,385.47316958665647 211.61616161616163,385.3439995856697 216.66666666666666,413.21172254392286 221.7171717171717,414.7814926904363 226.76767676767676,413.82149475339804 231.8181818181818,412.9438938106299 236.86868686868686,391.89068528302136 241.91919191919192,246.13865652476807 246.96969696969697,397.8163745746889 252.02020202020202,225.22886173290112 257.07070707070704,278.4778591383731 262.1212121212121,334.81910865683545 267.1717171717172,282.978515343596 272.2222222222222,323.9520472612773 277.27272727272725,282.1937873563175 282.32323232323233,412.2899491629971 287.3737373737374,386.04418429089907 292.42424242424244,375.4282857139717 297.47474747474746,406.2187854123546 302.52525252525254,348.5671789869681 307.57575757575756,348.5671789869681 312.62626262626264,356.3453084189406 317.67676767676767,356.3888899580304 322.7272727272727,317.9470727951496 327.77777777777777,407.81365167279506 332.8282828282828,373.308245873953 337.8787878787879,374.1627153728026 342.92929292929296,404.4600516515377 347.979797979798,350.4957374923275 353.03030303030306,208.8473844599552 358.0808080808081,321.87873143914146 363.13131313131316,414.07005111357495 368.1818181818182,396.17628383420754 373.23232323232327,321.64526125268713 378.2828282828283,321.8043742308579 383.3333333333333,414.787219473513 388.3838383838384,334.3520855354476 393.4343434343434,228.93357539127072 398.4848484848485,351.3090712975061 403.5353535353535,379.2149465264 408.58585858585855,409.9301519650563 413.6363636363636,411.1032770501267 418.68686868686865,398.5226763633756 423.73737373737373,398.4997900261195 428.7878787878788,398.5226763633756 433.83838383838383,410.830500278251 438.8888888888889,314.39179490815843 443.93939393939394,313.9758220385782 448.989898989899,350.88587279726687 454.04040404040404,350.28329044316865 459.0909090909091,350.1993294308413 464.14141414141415,269.68072178634407 469.19191919191917,412.08288370806446 474.24242424242425,343.80535188233847 479.2929292929293,288.32347728114115 484.34343434343435,295.6506372263217 489.3939393939394,240.14479779912222 494.4444444444444,377.5423339246001 499.4949494949495,266.6404080348404 504.5454545454545,344.7613686867103 509.59595959595964,377.67334705762215 514.6464646464647,307.77445558022345 519.6969696969697,371.735995926765 524.7474747474748,308.52447003240616 529.7979797979798,307.05714465289094 534.8484848484849,301.64324629463806 539.8989898989898,301.2550117232952 544.9494949494949,305.2081045192074 550.0,319.05814012615986" fill="none" stroke="rgb(0,0,0)" stroke-width="1"/><circle cx="50.0" cy="394.12511657420146" r="2" fill="rgb(0,0,0)"/><circle cx="55.05050505050505" cy="396.33753991949425" r="2" fill="rgb(0,0,0)"/><circle cx="60.101010101010104" cy="411.7257581573382" r="2" fill="rgb(0,0,0)"/><circle cx="65.15151515151516" cy="394.1896547739434" r="2" fill="rgb(0,0,0)"/><circle cx="70.20202020202021" cy="366.95776360640747" r="2" fill="rgb(0,0,0)"/><circle cx="75.25252525252526" cy="322.3019658687522" r="2" fill="rgb(0,0,0)"/><circle cx="80.30303030303031" cy="397.7126617877328" r="2" fill="rgb(0,0,0)"/><circle cx="85.35353535353535" cy="219.51725237580303" r="2" fill="rgb(0,0,0)"/><circle cx="90.40404040404042" cy="334.0272061924763" r="2" fill="rgb(0,0,0)"/><circle cx="95.45454545454545" cy="314.1149706915582" r="2" fill="rgb(0,0,0)"/><circle cx="100.5050505050505" cy="313.7163626347942" r="2" fill="rgb(0,0,0)"/><circle cx="105.55555555555554" cy="415.2278869174861" r="2" fill="rgb(0,0,0)"/><circle cx="110.60606060606061" cy="331.34249274699334" r="2" fill="rgb(0,0,0)"/><circle cx="115.65656565656566" cy="159.4405669032663" r="2" fill="rgb(0,0,0)"/><circle cx="120.7070707070707" cy="154.44730900616582" r="2" fill="rgb(0,0,0)"/><circle cx="125.75757575757576" cy="212.08717690931553" r="2" fill="rgb(0,0,0)"/><circle cx="130.80808080808083" cy="366.8091470842989" r="2" fill="rgb(0,0,0)"/><circle cx="135.85858585858585" cy="404.37611796916326" r="2" fill="rgb(0,0,0)"/><circle cx="140.9090909090909" cy="179.41325929843532" r="2" fill="rgb(0,0,0)"/><circle cx="145.95959595959596" cy="223.96039482873937" r="2" fill="rgb(0,0,0)"/><circle cx="151.010101010101" cy="350.3358460290433" r="2" fill="rgb(0,0,0)"/><circle cx="156.06060606060606" cy="287.17379419974503" r="2" fill="rgb(0,0,0)"/><circle cx="161.1111111111111" cy="285.54737433695766" r="2" fill="rgb(0,0,0)"/><circle cx="166.16161616161617" cy="184.7707089097322" r="2" fill="rgb(0,0,0)"/><circle cx="171.21212121212122" cy="196.0687480920535" r="2" fill="rgb(0,0,0)"/><circle cx="176.26262626262627" cy="340.8229815579602" r="2" fill="rgb(0,0,0)"/><circle cx="181.31313131313132" cy="340.40475041736136" r="2" fill="rgb(0,0,0)"/><circle cx="186.36363636363635" cy="340.21514050701035" r="2" fill="rgb(0,0,0)"/><circle cx="191.4141414141414" cy="340.5251686852671" r="2" fill="rgb(0,0,0)"/><circle cx="196.46464646464648" cy="384.9983294265457" r="2" fill="rgb(0,0,0)"/><circle cx="201.51515151515153" cy="385.6422353387258" r="2" fill="rgb(0,0,0)"/><circle cx="206.56565656565658" cy="385.47316958665647" r="2" fill="rgb(0,0,0)"/><circle cx="211.61616161616163" cy="385.3439995856697" r="2" fill="rgb(0,0,0)"/><circle cx="216.66666666666666" cy="413.21172254392286" r="2" fill="rgb(0,0,0)"/><circle cx="221.7171717171717" cy="414.7814926904363" r="2" fill="rgb(0,0,0)"/><circle cx="226.76767676767676" cy="413.82149475339804" r="2" fill="rgb(0,0,0)"/><circle cx="231.8181818181818" cy="412.9438938106299" r="2" fill="rgb(0,0,0)"/><circle cx="236.86868686868686" cy="391.89068528302136" r="2" fill="rgb(0,0,0)"/><circle cx="241.91919191919192" cy="246.13865652476807" r="2" fill="rgb(0,0,0)"/><circle cx="246.96969696969697" cy="397.8163745746889" r="2" fill="rgb(0,0,0)"/><circle cx="252.02020202020202" cy="225.22886173290112" r="2" fill="rgb(0,0,0)"/><circle cx="257.07070707070704" cy="278.4778591383731" r="2" fill="rgb(0,0,0)"/><circle cx="262.1212121212121" cy="334.81910865683545" r="2" fill="rgb(0,0,0)"/><circle cx="267.1717171717172" cy="282.978515343596" r="2" fill="rgb(0,0,0)"/><circle cx="272.2222222222222" cy="323.9520472612773" r="2" fill="rgb(0,0,0)"/><circle cx="277.27272727272725" cy="282.1937873563175" r="2" fill="rgb(0,0,0)"/><circle cx="282.32323232323233" cy="412.2899491629971" r="2" fill="rgb(0,0,0)"/><circle cx="287.3737373737374" cy="386.04418429089907" r="2" fill="rgb(0,0,0)"/><circle cx="292.42424242424244" cy="375.4282857139717" r="2" fill="rgb(0,0,0)"/><circle cx="297.47474747474746" cy="406.2187854123546" r="2" fill="rgb(0,0,0)"/><circle cx="302.52525252525254" cy="348.5671789869681" r="2" fill="rgb(0,0,0)"/><circle cx="307.57575757575756" cy="348.5671789869681" r="2" fill="rgb(0,0,0)"/><circle cx="312.62626262626264" cy="356.3453084189406" r="2" fill="rgb(0,0,0)"/><circle cx="317.67676767676767" cy="356.3888899580304" r="2" fill="rgb(0,0,0)"/><circle cx="322.7272727272727" cy="317.9470727951496" r="2" fill="rgb(0,0,0)"/><circle cx="327.77777777777777" cy="407.81365167279506" r="2" fill="rgb(0,0,0)"/><circle cx="332.8282828282828" cy="373.308245873953" r="2" fill="rgb(0,0,0)"/><circle cx="337.8787878787879" cy="374.1627153728026" r="2" fill="rgb(0,0,0)"/><circle cx="342.92929292929296" cy="404.4600516515377" r="2" fill="rgb(0,0,0)"/><circle cx="347.979797979798" cy="350.4957374923275" r="2" fill="rgb(0,0,0)"/><circle cx="353.03030303030306" cy="208.8473844599552" r="2" fill="rgb(0,0,0)"/><circle cx="358.0808080808081" cy="321.87873143914146" r="2" fill="rgb(0,0,0)"/><circle cx="363.13131313131316" cy="414.07005111357495" r="2" fill="rgb(0,0,0)"/><circle cx="368.1818181818182" cy="396.17628383420754" r="2" fill="rgb(0,0,0)"/><circle cx="373.23232323232327" cy="321.64526125268713" r="2" fill="rgb(0,0,0)"/><circle cx="378.2828282828283" cy="321.8043742308579" r="2" fill="rgb(0,0,0)"/><circle cx="383.3333333333333" cy="414.787219473513" r="2" fill="rgb(0,0,0)"/><circle cx="388.3838383838384" cy="334.3520855354476" r="2" fill="rgb(0,0,0)"/><circle cx="393.4343434343434" cy="228.93357539127072" r="2" fill="rgb(0,0,0)"/><circle cx="398.4848484848485" cy="351.3090712975061" r="2" fill="rgb(0,0,0)"/><circle cx="403.5353535353535" cy="379.2149465264" r="2" fill="rgb(0,0,0)"/><circle cx="408.58585858585855" cy="409.9301519650563" r="2" fill="rgb(0,0,0)"/><circle cx="413.6363636363636" cy="411.1032770501267" r="2" fill="rgb(0,0,0)"/><circle cx="418.68686868686865" cy="398.5226763633756" r="2" fill="rgb(0,0,0)"/><circle cx="423.73737373737373" cy="398.4997900261195" r="2" fill="rgb(0,0,0)"/><circle cx="428.7878787878788" cy="398.5226763633756" r="2" fill="rgb(0,0,0)"/><circle cx="433.83838383838383" cy="410.830500278251" r="2" fill="rgb(0,0,0)"/><circle cx="438.8888888888889" cy="314.39179490815843" r="2" fill="rgb(0,0,0)"/><circle cx="443.93939393939394" cy="313.9758220385782" r="2" fill="rgb(0,0,0)"/><circle cx="448.989898989899" cy="350.88587279726687" r="2" fill="rgb(0,0,0)"/><circle cx="454.04040404040404" cy="350.28329044316865" r="2" fill="rgb(0,0,0)"/><circle cx="459.0909090909091" cy="350.1993294308413" r="2" fill="rgb(0,0,0)"/><circle cx="464.14141414141415" cy="269.68072178634407" r="2" fill="rgb(0,0,0)"/><circle cx="469.19191919191917" cy="412.08288370806446" r="2" fill="rgb(0,0,0)"/><circle cx="474.24242424242425" cy="343.80535188233847" r="2" fill="rgb(0,0,0)"/><circle cx="479.2929292929293" cy="288.32347728114115" r="2" fill="rgb(0,0,0)"/><circle cx="484.34343434343435" cy="295.6506372263217" r="2" fill="rgb(0,0,0)"/><circle cx="489.3939393939394" cy="240.14479779912222" r="2" fill="rgb(0,0,0)"/><circle cx="494.4444444444444" cy="377.5423339246001" r="2" fill="rgb(0,0,0)"/><circle cx="499.4949494949495" cy="266.6404080348404" r="2" fill="rgb(0,0,0)"/><circle cx="504.5454545454545" cy="344.7613686867103" r="2" fill="rgb(0,0,0)"/><circle cx="509.59595959595964" cy="377.67334705762215" r="2" fill="rgb(0,0,0)"/><circle cx="514.6464646464647" cy="307.77445558022345" r="2" fill="rgb(0,0,0)"/><circle cx="519.6969696969697" cy="371.735995926765" r="2" fill="rgb(0,0,0)"/><circle cx="524.7474747474748" cy="308.52447003240616" r="2" fill="rgb(0,0,0)"/><circle cx="529.7979797979798" cy="307.05714465289094" r="2" fill="rgb(0,0,0)"/><circle cx="534.8484848484849" cy="301.64324629463806" r="2" fill="rgb(0,0,0)"/><circle cx="539.8989898989898" cy="301.2550117232952" r="2" fill="rgb(0,0,0)"/><circle cx="544.9494949494949" cy="305.2081045192074" r="2" fill="rgb(0,0,0)"/><circle cx="550.0" cy="319.05814012615986" r="2" fill="rgb(0,0,0)"/><polyline points="50.0,194.0810560906159 55.05050505050505,164.74600104860423 60.101010101010104,150.85764365855118 65.15151515151516,132.85013097782905 70.20202020202021,122.22877943570217 75.25252525252526,108.18458280901899 80.30303030303031,97.74055368896609 85.35353535353535,88.1359100612413 90.40404040404042,86.45501568669476 95.45454545454545,78.91681939793142 100.5050505050505,74.32444336380911 105.55555555555554,74.88633888281635 110.60606060606061,70.2311260781259 115.65656565656566,64.82830343600034 120.7070707070707,62.96234645288138 125.75757575757576,62.36217163734801 130.80808080808083,64.86669800185706 135.85858585858585,70.83936056935414 140.9090909090909,60.67584905156531 145.95959595959596,61.42772137040106 151.010101010101,66.61094520004008 156.06060606060606,62.11472821624949 161.1111111111111,62.53012730551819 166.16161616161617,60.17527819955296 171.21212121212122,61.30154675684099 176.26262626262627,65.71454626292126 181.31313131313132,63.77098570111906 186.36363636363635,63.9135868313503 191.4141414141414,70.25124720027844 196.46464646464648,69.89868120581838 201.51515151515153,71.21092110400195 206.56565656565658,76.5855526260001 211.61616161616163,66.13466723817135 216.66666666666666,69.73210839443192 221.7171717171717,72.2775443415735 226.76767676767676,76.25549533475248 231.8181818181818,69.26349860359215 236.86868686868686,67.14362178897312 241.91919191919192,60.916577592436624 246.96969696969697,64.20684467048943 252.02020202020202,62.25878842647677 257.07070707070704,58.69610744354185 262.1212121212121,61.14639664769044 267.1717171717172,58.45654089507849 272.2222222222222,63.22425897433004 277.27272727272725,63.52627965743022 282.32323232323233,78.04553082878999 287.3737373737374,72.0571684689462 292.42424242424244,68.11426846210594 297.47474747474746,72.22938613560831 302.52525252525254,72.6145947716754 307.57575757575756,69.46258379727209 312.62626262626264,73.41303290348236 317.67676767676767,70.12091283010466 322.7272727272727,64.92133129449081 327.77777777777777,82.92865838064637 332.8282828282828,74.88373964038317 337.8787878787879,78.04526142057227 342.92929292929296,77.35487249008094 347.979797979798,69.3002167731484 353.03030303030306,58.29316534501419 358.0808080808081,58.37485763529514 363.13131313131316,64.50238923271456 368.1818181818182,65.70725011768599 373.23232323232327,63.26736457052647 378.2828282828283,58.950971359763685 383.3333333333333,60.41688056556211 388.3838383838384,62.57603019464784 393.4343434343434,54.467493339008115 398.4848484848485,55.5783925174772 403.5353535353535,62.034491293328244 408.58585858585855,66.06451430603028 413.6363636363636,68.19944895521093 418.68686868686865,67.70691270798824 423.73737373737373,73.85697524607355 428.7878787878788,72.51570853962346 433.83838383838383,67.80296611362456 438.8888888888889,59.476925306962414 443.93939393939394,63.35301875652419 448.989898989899,68.81933885486802 454.04040404040404,68.73757875885809 459.0909090909091,64.47054856851241 464.14141414141415,59.525770927564565 469.19191919191917,65.59598667717597 474.24242424242425,62.241095508440594 479.2929292929293,57.52589130288084 484.34343434343435,60.16160525874335 489.3939393939394,58.73458804015064 494.4444444444444,57.97944916594088 499.4949494949495,57.741075425528834 504.5454545454545,63.005856213789514 509.59595959595964,64.25056324283838 514.6464646464647,58.61313679254647 519.6969696969697,62.165485484100714 524.7474747474748,62.755172572534434 529.7979797979798,61.88625949231772 534.8484848484849,61.52433541872023 539.8989898989898,56.0241426258371 544.9494949494949,56.94403208336149 550.0,63.454397974805715" fill="none" stroke="rgb(0,0,255)" stroke-width="1"/><circle cx="50.0" cy="194.0810560906159" r="2" fill="rgb(0,0,255)"/><circle cx="55.05050505050505" cy="164.74600104860423" r="2" fill="rgb(0,0,255)"/><circle cx="60.101010101010104" cy="150.85764365855118" r="2" fill="rgb(0,0,255)"/><circle cx="65.15151515151516" cy="132.85013097782905" r="2" fill="rgb(0,0,255)"/><circle cx="70.20202020202021" cy="122.22877943570217" r="2" fill="rgb(0,0,255)"/><circle cx="75.25252525252526" cy="108.18458280901899" r="2" fill="rgb(0,0,255)"/><circle cx="80.30303030303031" cy="97.74055368896609" r="2" fill="rgb(0,0,255)"/><circle cx="85.35353535353535" cy="88.1359100612413" r="2" fill="rgb(0,0,255)"/><circle cx="90.40404040404042" cy="86.45501568669476" r="2" fill="rgb(0,0,255)"/><circle cx="95.45454545454545" cy="78.91681939793142" r="2" fill="rgb(0,0,255)"/><circle cx="100.5050505050505" cy="74.32444336380911" r="2" fill="rgb(0,0,255)"/><circle cx="105.55555555555554" cy="74.88633888281635" r="2" fill="rgb(0,0,255)"/><circle cx="110.60606060606061" cy="70.2311260781259" r="2" fill="rgb(0,0,255)"/><circle cx="115.65656565656566" cy="64.82830343600034" r="2" fill="rgb(0,0,255)"/><circle cx="120.7070707070707" cy="62.96234645288138" r="2" fill="rgb(0,0,255)"/><circle cx="125.75757575757576" cy="62.36217163734801" r="2" fill="rgb(0,0,255)"/><circle cx="130.80808080808083" cy="64.86669800185706" r="2" fill="rgb(0,0,255)"/><circle cx="135.85858585858585" cy="70.83936056935414" r="2" fill="rgb(0,0,255)"/><circle cx="140.9090909090909" cy="60.67584905156531" r="2" fill="rgb(0,0,255)"/><circle cx="145.95959595959596" cy="61.42772137040106" r="2" fill="rgb(0,0,255)"/><circle cx="151.010101010101" cy="66.61094520004008" r="2" fill="rgb(0,0,255)"/><circle cx="156.06060606060606" cy="62.11472821624949" r="2" fill="rgb(0,0,255)"/><circle cx="161.1111111111111" cy="62.53012730551819" r="2" fill="rgb(0,0,255)"/><circle cx="166.16161616161617" cy="60.17527819955296" r="2" fill="rgb(0,0,255)"/><circle cx="171.21212121212122" cy="61.30154675684099" r="2" fill="rgb(0,0,255)"/><circle cx="176.26262626262627" cy="65.71454626292126" r="2" fill="rgb(0,0,255)"/><circle cx="181.31313131313132" cy="63.77098570111906" r="2" fill="rgb(0,0,255)"/><circle cx="186.36363636363635" cy="63.9135868313503" r="2" fill="rgb(0,0,255)"/><circle cx="191.4141414141414" cy="70.25124720027844" r="2" fill="rgb(0,0,255)"/><circle cx="196.46464646464648" cy="69.89868120581838" r="2" fill="rgb(0,0,255)"/><circle cx="201.51515151515153" cy="71.21092110400195" r="2" fill="rgb(0,0,255)"/><circle cx="206.56565656565658" cy="76.5855526260001" r="2" fill="rgb(0,0,255)"/><circle cx="211.61616161616163" cy="66.13466723817135" r="2" fill="rgb(0,0,255)"/><circle cx="216.66666666666666" cy="69.73210839443192" r="2" fill="rgb(0,0,255)"/><circle cx="221.7171717171717" cy="72.2775443415735" r="2" fill="rgb(0,0,255)"/><circle cx="226.76767676767676" cy="76.25549533475248" r="2" fill="rgb(0,0,255)"/><circle cx="231.8181818181818" cy="69.26349860359215" r="2" fill="rgb(0,0,255)"/><circle cx="236.86868686868686" cy="67.14362178897312" r="2" fill="rgb(0,0,255)"/><circle cx="241.91919191919192" cy="60.916577592436624" r="2" fill="rgb(0,0,255)"/><circle cx="246.96969696969697" cy="64.20684467048943" r="2" fill="rgb(0,0,255)"/><circle cx="252.02020202020202" cy="62.25878842647677" r="2" fill="rgb(0,0,255)"/><circle cx="257.07070707070704" cy="58.69610744354185" r="2" fill="rgb(0,0,255)"/><circle cx="262.1212121212121" cy="61.14639664769044" r="2" fill="rgb(0,0,255)"/><circle cx="267.1717171717172" cy="58.45654089507849" r="2" fill="rgb(0,0,255)"/><circle cx="272.2222222222222" cy="63.22425897433004" r="2" fill="rgb(0,0,255)"/><circle cx="277.27272727272725" cy="63.52627965743022" r="2" fill="rgb(0,0,255)"/><circle cx="282.32323232323233" cy="78.04553082878999" r="2" fill="rgb(0,0,255)"/><circle cx="287.3737373737374" cy="72.0571684689462" r="2" fill="rgb(0,0,255)"/><circle cx="292.42424242424244" cy="68.11426846210594" r="2" fill="rgb(0,0,255)"/><circle cx="297.47474747474746" cy="72.22938613560831" r="2" fill="rgb(0,0,255)"/><circle cx="302.52525252525254" cy="72.6145947716754" r="2" fill="rgb(0,0,255)"/><circle cx="307.57575757575756" cy="69.46258379727209" r="2" fill="rgb(0,0,255)"/><circle cx="312.62626262626264" cy="73.41303290348236" r="2" fill="rgb(0,0,255)"/><circle cx="317.67676767676767" cy="70.12091283010466" r="2" fill="rgb(0,0,255)"/><circle cx="322.7272727272727" cy="64.92133129449081" r="2" fill="rgb(0,0,255)"/><circle cx="327.77777777777777" cy="82.92865838064637" r="2" fill="rgb(0,0,255)"/><circle cx="332.8282828282828" cy="74.88373964038317" r="2" fill="rgb(0,0,255)"/><circle cx="337.8787878787879" cy="78.04526142057227" r="2" fill="rgb(0,0,255)"/><circle cx="342.92929292929296" cy="77.35487249008094" r="2" fill="rgb(0,0,255)"/><circle cx="347.979797979798" cy="69.3002167731484" r="2" fill="rgb(0,0,255)"/><circle cx="353.03030303030306" cy="58.29316534501419" r="2" fill="rgb(0,0,255)"/><circle cx="358.0808080808081" cy="58.37485763529514" r="2" fill="rgb(0,0,255)"/><circle cx="363.13131313131316" cy="64.50238923271456" r="2" fill="rgb(0,0,255)"/><circle cx="368.1818181818182" cy="65.70725011768599" r="2" fill="rgb(0,0,255)"/><circle cx="373.23232323232327" cy="63.26736457052647" r="2" fill="rgb(0,0,255)"/><circle cx="378.2828282828283" cy="58.950971359763685" r="2" fill="rgb(0,0,255)"/><circle cx="383.3333333333333" cy="60.41688056556211" r="2" fill="rgb(0,0,255)"/><circle cx="388.3838383838384" cy="62.57603019464784" r="2" fill="rgb(0,0,255)"/><circle cx="393.4343434343434" cy="54.467493339008115" r="2" fill="rgb(0,0,255)"/><circle cx="398.4848484848485" cy="55.5783925174772" r="2" fill="rgb(0,0,255)"/><circle cx="403.5353535353535" cy="62.034491293328244" r="2" fill="rgb(0,0,255)"/><circle cx="408.58585858585855" cy="66.06451430603028" r="2" fill="rgb(0,0,255)"/><circle cx="413.6363636363636" cy="68.19944895521093" r="2" fill="rgb(0,0,255)"/><circle cx="418.68686868686865" cy="67.70691270798824" r="2" fill="rgb(0,0,255)"/><circle cx="423.73737373737373" cy="73.85697524607355" r="2" fill="rgb(0,0,255)"/><circle cx="428.7878787878788" cy="72.51570853962346" r="2" fill="rgb(0,0,255)"/><circle cx="433.83838383838383" cy="67.80296611362456" r="2" fill="rgb(0,0,255)"/><circle cx="438.8888888888889" cy="59.476925306962414" r="2" fill="rgb(0,0,255)"/><circle cx="443.93939393939394" cy="63.35301875652419" r="2" fill="rgb(0,0,255)"/><circle cx="448.989898989899" cy="68.81933885486802" r="2" fill="rgb(0,0,255)"/><circle cx="454.04040404040404" cy="68.73757875885809" r="2" fill="rgb(0,0,255)"/><circle cx="459.0909090909091" cy="64.47054856851241" r="2" fill="rgb(0,0,255)"/><circle cx="464.14141414141415" cy="59.525770927564565" r="2" fill="rgb(0,0,255)"/><circle cx="469.19191919191917" cy="65.59598667717597" r="2" fill="rgb(0,0,255)"/><circle cx="474.24242424242425" cy="62.241095508440594" r="2" fill="rgb(0,0,255)"/><circle cx="479.2929292929293" cy="57.52589130288084" r="2" fill="rgb(0,0,255)"/><circle cx="484.34343434343435" cy="60.16160525874335" r="2" fill="rgb(0,0,255)"/><circle cx="489.3939393939394" cy="58.73458804015064" r="2" fill="rgb(0,0,255)"/><circle cx="494.4444444444444" cy="57.97944916594088" r="2" fill="rgb(0,0,255)"/><circle cx="499.4949494949495" cy="57.741075425528834" r="2" fill="rgb(0,0,255)"/><circle cx="504.5454545454545" cy="63.005856213789514" r="2" fill="rgb(0,0,255)"/><circle cx="509.59595959595964" cy="64.25056324283838" r="2" fill="rgb(0,0,255)"/><circle cx="514.6464646464647" cy="58.61313679254647" r="2" fill="rgb(0,0,255)"/><circle cx="519.6969696969697" cy="62.165485484100714" r="2" fill="rgb(0,0,255)"/><circle cx="524.7474747474748" cy="62.755172572534434" r="2" fill="rgb(0,0,255)"/><circle cx="529.7979797979798" cy="61.88625949231772" r="2" fill="rgb(0,0,255)"/><circle cx="534.8484848484849" cy="61.52433541872023" r="2" fill="rgb(0,0,255)"/><circle cx="539.8989898989898" cy="56.0241426258371" r="2" fill="rgb(0,0,255)"/><circle cx="544.9494949494949" cy="56.94403208336149" r="2" fill="rgb(0,0,255)"/><circle cx="550.0" cy="63.454397974805715" r="2" fill="rgb(0,0,255)"/><polyline points="50.0,57.738233317884124 55.05050505050505,58.56227651600915 60.101010101010104,56.392107145888986 65.15151515151516,56.74832042098399 70.20202020202021,57.29198827562527 75.25252525252526,56.79077363029876 80.30303030303031,56.507603264352326 85.35353535353535,56.00424566163542 90.40404040404042,55.90257774314966 95.45454545454545,56.59613323833338 100.5050505050505,55.63356493637133 105.55555555555554,55.39865745639611 110.60606060606061,53.359977492475764 115.65656565656566,52.09414164213234 120.7070707070707,52.09414164213234 125.75757575757576,52.49647041085217 130.80808080808083,52.28709555168058 135.85858585858585,55.236542454655876 140.9090909090909,55.6321577572387 145.95959595959596,54.58409790688779 151.010101010101,54.46574546107752 156.06060606060606,54.894946793101724 161.1111111111111,55.00444874272233 166.16161616161617,54.936328393865494 171.21212121212122,54.22764779227617 176.26262626262627,54.592166534950024 181.31313131313132,54.68213537646392 186.36363636363635,54.470555556161685 191.4141414141414,54.19766741054144 196.46464646464648,54.26620944606327 201.51515151515153,54.43272247089391 206.56565656565658,54.45314396781532 211.61616161616163,54.22764779227617 216.66666666666666,54.016283982154164 221.7171717171717,54.256911895417375 226.76767676767676,54.0719236870147 231.8181818181818,53.970709678356684 236.86868686868686,53.89727076080402 241.91919191919192,53.44877610049832 246.96969696969697,53.44877610049832 252.02020202020202,53.53678042097914 257.07070707070704,53.906835205591506 262.1212121212121,53.80354901855026 267.1717171717172,53.8335471487664 272.2222222222222,51.88760319223712 277.27272727272725,50.9143820021128 282.32323232323233,50.89093142756758 287.3737373737374,50.89093142756758 292.42424242424244,50.89093142756758 297.47474747474746,51.73585925413346 302.52525252525254,50.68109504092848 307.57575757575756,50.70454561547376 312.62626262626264,50.632145598125874 317.67676767676767,50.67918835760139 322.7272727272727,50.80156423980242 327.77777777777777,50.61268875841739 332.8282828282828,50.7729518979848 337.8787878787879,50.67693172686677 342.92929292929296,50.63807773912794 347.979797979798,50.63560681851152 353.03030303030306,50.624736632851864 358.0808080808081,50.60460566830727 363.13131313131316,50.58980242116138 368.1818181818182,50.56720053600043 373.23232323232327,50.59255779387286 378.2828282828283,50.56720053600043 383.3333333333333,50.612720481255565 388.3838383838384,50.55462663768071 393.4343434343434,50.53619938579618 398.4848484848485,50.53619938579618 403.5353535353535,50.59086540042739 408.58585858585855,50.59255779387286 413.6363636363636,50.60648344026305 418.68686868686865,50.544314198744416 423.73737373737373,50.57921668759673 428.7878787878788,50.54258400862892 433.83838383838383,50.544314198744416 438.8888888888889,50.544314198744416 443.93939393939394,50.56967145661673 448.989898989899,50.44328699751247 454.04040404040404,50.56967145661673 459.0909090909091,50.0 464.14141414141415,50.56967145661673 469.19191919191917,50.56967145661673 474.24242424242425,50.50859678154552 479.2929292929293,50.56967145661673 484.34343434343435,50.52872774609011 489.3939393939394,50.54473479769143 494.4444444444444,50.551350923317045 499.4949494949495,50.53121995877245 504.5454545454545,50.51991323408589 509.59595959595964,50.49702689682988 514.6464646464647,50.49702689682988 519.6969696969697,50.52381439688736 524.7474747474748,50.49702689682988 529.7979797979798,50.499782269541356 534.8484848484849,50.51534743012962 539.8989898989898,50.47689593228529 544.9494949494949,50.47689593228529 550.0,50.51534743012962" fill="none" stroke="rgb(0,255,0)" stroke-width="1"/><circle cx="50.0" cy="57.738233317884124" r="2" fill="rgb(0,255,0)"/><circle cx="55.05050505050505" cy="58.56227651600915" r="2" fill="rgb(0,255,0)"/><circle cx="60.101010101010104" cy="56.392107145888986" r="2" fill="rgb(0,255,0)"/><circle cx="65.15151515151516" cy="56.74832042098399" r="2" fill="rgb(0,255,0)"/><circle cx="70.20202020202021" cy="57.29198827562527" r="2" fill="rgb(0,255,0)"/><circle cx="75.25252525252526" cy="56.79077363029876" r="2" fill="rgb(0,255,0)"/><circle cx="80.30303030303031" cy="56.507603264352326" r="2" fill="rgb(0,255,0)"/><circle cx="85.35353535353535" cy="56.00424566163542" r="2" fill="rgb(0,255,0)"/><circle cx="90.40404040404042" cy="55.90257774314966" r="2" fill="rgb(0,255,0)"/><circle cx="95.45454545454545" cy="56.59613323833338" r="2" fill="rgb(0,255,0)"/><circle cx="100.5050505050505" cy="55.63356493637133" r="2" fill="rgb(0,255,0)"/><circle cx="105.55555555555554" cy="55.39865745639611" r="2" fill="rgb(0,255,0)"/><circle cx="110.60606060606061" cy="53.359977492475764" r="2" fill="rgb(0,255,0)"/><circle cx="115.65656565656566" cy="52.09414164213234" r="2" fill="rgb(0,255,0)"/><circle cx="120.7070707070707" cy="52.09414164213234" r="2" fill="rgb(0,255,0)"/><circle cx="125.75757575757576" cy="52.49647041085217" r="2" fill="rgb(0,255,0)"/><circle cx="130.80808080808083" cy="52.28709555168058" r="2" fill="rgb(0,255,0)"/><circle cx="135.85858585858585" cy="55.236542454655876" r="2" fill="rgb(0,255,0)"/><circle cx="140.9090909090909" cy="55.6321577572387" r="2" fill="rgb(0,255,0)"/><circle cx="145.95959595959596" cy="54.58409790688779" r="2" fill="rgb(0,255,0)"/><circle cx="151.010101010101" cy="54.46574546107752" r="2" fill="rgb(0,255,0)"/><circle cx="156.06060606060606" cy="54.894946793101724" r="2" fill="rgb(0,255,0)"/><circle cx="161.1111111111111" cy="55.00444874272233" r="2" fill="rgb(0,255,0)"/><circle cx="166.16161616161617" cy="54.936328393865494" r="2" fill="rgb(0,255,0)"/><circle cx="171.21212121212122" cy="54.22764779227617" r="2" fill="rgb(0,255,0)"/><circle cx="176.26262626262627" cy="54.592166534950024" r="2" fill="rgb(0,255,0)"/><circle cx="181.31313131313132" cy="54.68213537646392" r="2" fill="rgb(0,255,0)"/><circle cx="186.36363636363635" cy="54.470555556161685" r="2" fill="rgb(0,255,0)"/><circle cx="191.4141414141414" cy="54.19766741054144" r="2" fill="rgb(0,255,0)"/><circle cx="196.46464646464648" cy="54.26620944606327" r="2" fill="rgb(0,255,0)"/><circle cx="201.51515151515153" cy="54.43272247089391" r="2" fill="rgb(0,255,0)"/><circle cx="206.56565656565658" cy="54.45314396781532" r="2" fill="rgb(0,255,0)"/><circle cx="211.61616161616163" cy="54.22764779227617" r="2" fill="rgb(0,255,0)"/><circle cx="216.66666666666666" cy="54.016283982154164" r="2" fill="rgb(0,255,0)"/><circle cx="221.7171717171717" cy="54.256911895417375" r="2" fill="rgb(0,255,0)"/><circle cx="226.76767676767676" cy="54.0719236870147" r="2" fill="rgb(0,255,0)"/><circle cx="231.8181818181818" cy="53.970709678356684" r="2" fill="rgb(0,255,0)"/><circle cx="236.86868686868686" cy="53.89727076080402" r="2" fill="rgb(0,255,0)"/><circle cx="241.91919191919192" cy="53.44877610049832" r="2" fill="rgb(0,255,0)"/><circle cx="246.96969696969697" cy="53.44877610049832" r="2" fill="rgb(0,255,0)"/><circle cx="252.02020202020202" cy="53.53678042097914" r="2" fill="rgb(0,255,0)"/><circle cx="257.07070707070704" cy="53.906835205591506" r="2" fill="rgb(0,255,0)"/><circle cx="262.1212121212121" cy="53.80354901855026" r="2" fill="rgb(0,255,0)"/><circle cx="267.1717171717172" cy="53.8335471487664" r="2" fill="rgb(0,255,0)"/><circle cx="272.2222222222222" cy="51.88760319223712" r="2" fill="rgb(0,255,0)"/><circle cx="277.27272727272725" cy="50.9143820021128" r="2" fill="rgb(0,255,0)"/><circle cx="282.32323232323233" cy="50.89093142756758" r="2" fill="rgb(0,255,0)"/><circle cx="287.3737373737374" cy="50.89093142756758" r="2" fill="rgb(0,255,0)"/><circle cx="292.42424242424244" cy="50.89093142756758" r="2" fill="rgb(0,255,0)"/><circle cx="297.47474747474746" cy="51.73585925413346" r="2" fill="rgb(0,255,0)"/><circle cx="302.52525252525254" cy="50.68109504092848" r="2" fill="rgb(0,255,0)"/><circle cx="307.57575757575756" cy="50.70454561547376" r="2" fill="rgb(0,255,0)"/><circle cx="312.62626262626264" cy="50.632145598125874" r="2" fill="rgb(0,255,0)"/><circle cx="317.67676767676767" cy="50.67918835760139" r="2" fill="rgb(0,255,0)"/><circle cx="322.7272727272727" cy="50.80156423980242" r="2" fill="rgb(0,255,0)"/><circle cx="327.77777777777777" cy="50.61268875841739" r="2" fill="rgb(0,255,0)"/><circle cx="332.8282828282828" cy="50.7729518979848" r="2" fill="rgb(0,255,0)"/><circle cx="337.8787878787879" cy="50.67693172686677" r="2" fill="rgb(0,255,0)"/><circle cx="342.92929292929296" cy="50.63807773912794" r="2" fill="rgb(0,255,0)"/><circle cx="347.979797979798" cy="50.63560681851152" r="2" fill="rgb(0,255,0)"/><circle cx="353.03030303030306" cy="50.624736632851864" r="2" fill="rgb(0,255,0)"/><circle cx="358.0808080808081" cy="50.60460566830727" r="2" fill="rgb(0,255,0)"/><circle cx="363.13131313131316" cy="50.58980242116138" r="2" fill="rgb(0,255,0)"/><circle cx="368.1818181818182" cy="50.56720053600043" r="2" fill="rgb(0,255,0)"/><circle cx="373.23232323232327" cy="50.59255779387286" r="2" fill="rgb(0,255,0)"/><circle cx="378.2828282828283" cy="50.56720053600043" r="2" fill="rgb(0,255,0)"/><circle cx="383.3333333333333" cy="50.612720481255565" r="2" fill="rgb(0,255,0)"/><circle cx="388.3838383838384" cy="50.55462663768071" r="2" fill="rgb(0,255,0)"/><circle cx="393.4343434343434" cy="50.53619938579618" r="2" fill="rgb(0,255,0)"/><circle cx="398.4848484848485" cy="50.53619938579618" r="2" fill="rgb(0,255,0)"/><circle cx="403.5353535353535" cy="50.59086540042739" r="2" fill="rgb(0,255,0)"/><circle cx="408.58585858585855" cy="50.59255779387286" r="2" fill="rgb(0,255,0)"/><circle cx="413.6363636363636" cy="50.60648344026305" r="2" fill="rgb(0,255,0)"/><circle cx="418.68686868686865" cy="50.544314198744416" r="2" fill="rgb(0,255,0)"/><circle cx="423.73737373737373" cy="50.57921668759673" r="2" fill="rgb(0,255,0)"/><circle cx="428.7878787878788" cy="50.54258400862892" r="2" fill="rgb(0,255,0)"/><circle cx="433.83838383838383" cy="50.544314198744416" r="2" fill="rgb(0,255,0)"/><circle cx="438.8888888888889" cy="50.544314198744416" r="2" fill="rgb(0,255,0)"/><circle cx="443.93939393939394" cy="50.56967145661673" r="2" fill="rgb(0,255,0)"/><circle cx="448.989898989899" cy="50.44328699751247" r="2" fill="rgb(0,255,0)"/><circle cx="454.04040404040404" cy="50.56967145661673" r="2" fill="rgb(0,255,0)"/><circle cx="459.0909090909091" cy="50.0" r="2" fill="rgb(0,255,0)"/><circle cx="464.14141414141415" cy="50.56967145661673" r="2" fill="rgb(0,255,0)"/><circle cx="469.19191919191917" cy="50.56967145661673" r="2" fill="rgb(0,255,0)"/><circle cx="474.24242424242425" cy="50.50859678154552" r="2" fill="rgb(0,255,0)"/><circle cx="479.2929292929293" cy="50.56967145661673" r="2" fill="rgb(0,255,0)"/><circle cx="484.34343434343435" cy="50.52872774609011" r="2" fill="rgb(0,255,0)"/><circle cx="489.3939393939394" cy="50.54473479769143" r="2" fill="rgb(0,255,0)"/><circle cx="494.4444444444444" cy="50.551350923317045" r="2" fill="rgb(0,255,0)"/><circle cx="499.4949494949495" cy="50.53121995877245" r="2" fill="rgb(0,255,0)"/><circle cx="504.5454545454545" cy="50.51991323408589" r="2" fill="rgb(0,255,0)"/><circle cx="509.59595959595964" cy="50.49702689682988" r="2" fill="rgb(0,255,0)"/><circle cx="514.6464646464647" cy="50.49702689682988" r="2" fill="rgb(0,255,0)"/><circle cx="519.6969696969697" cy="50.52381439688736" r="2" fill="rgb(0,255,0)"/><circle cx="524.7474747474748" cy="50.49702689682988" r="2" fill="rgb(0,255,0)"/><circle cx="529.7979797979798" cy="50.499782269541356" r="2" fill="rgb(0,255,0)"/><circle cx="534.8484848484849" cy="50.51534743012962" r="2" fill="rgb(0,255,0)"/><circle cx="539.8989898989898" cy="50.47689593228529" r="2" fill="rgb(0,255,0)"/><circle cx="544.9494949494949" cy="50.47689593228529" r="2" fill="rgb(0,255,0)"/><circle cx="550.0" cy="50.51534743012962" r="2" fill="rgb(0,255,0)"/><text x="350.0" y="20.0" text-anchor="middle" fill="rgb(0,0,0)" font-size="20.0">GA Demo</text><text x="350.0" y="575.0" text-anchor="middle" fill="rgb(0,0,0)" font-size="12.0">generation</text><text transform="rotate(-90.0 20.0 300.0)" x="20.0" y="300.0" text-anchor="middle" fill="rgb(0,0,0)" font-size="12.0">fitness</text><text x="620" y="62" fill="rgb(0,0,0)" font-size="12">min</text><text x="620" y="74" fill="rgb(0,0,255)" font-size="12">ave</text><text x="620" y="86" fill="rgb(0,255,0)" font-size="12">max</text>
      Sorry, your browser does not support inline SVG.
    </svg>