<?xml version='1.0' encoding='UTF-8'?>
<svg version="1.1" width="700.0" height="600.0" onload="init(evt)" xmlns="http://www.w3.org/2000/svg">
      <style>.caption {
  font-size: 14px;
  font-family: Georgia, serif;
}
</style>
      <script type="text/ecmascript"><![CDATA[
function init(evt) {
  if ( window.svgDocument == null ) {
    svgDocument = evt.target.ownerDocument;
  }
}

function RectHover(evt, i, c) {
  rect = svgDocument.getElementById('rect' + i);
  if( c != null ) {
    rect.setAttributeNS(null, "fill", c)  
  }
  tooltiptext = svgDocument.getElementById('tooltiptext' + i);
  tooltipbg = svgDocument.getElementById('tooltipbg' + i);
  if( tooltipbg != null) {
    tbb = tooltiptext.getBBox();
    tooltipbg.setAttributeNS(null, "width", tbb.width);
    tooltipbg.setAttributeNS(null, "height", tbb.height);
    tooltipbg.setAttributeNS(null, "x", tbb.x);
    tooltipbg.setAttributeNS(null, "y", tbb.y);
    tooltipbg.setAttributeNS(null, "visibility", "visible");
  }
  tooltiptext.setAttributeNS(null,"visibility","visible");
}

function RectUnhover(evt, i, c) {
  rect = svgDocument.getElementById('rect' + i);
  if( c != null ) {
    rect.setAttributeNS(null, "fill", c)  
  }
  tooltiptext = svgDocument.getElementById('tooltiptext' + i);
  tooltiptext.setAttributeNS(null,"visibility","hidden");
  tooltipbg = svgDocument.getElementById('tooltipbg' + i);
  if( tooltipbg != null ) {
    tooltipbg.setAttributeNS(null,"visibility","hidden");
  }
}
]]></script>
      <line x1="50.0" y1="550.0" x2="550.0" y2="550.0" stroke="rgb(0,0,0)" stroke-width="1"/><line x1="50.0" y1="550.0" x2="50.0" y2="50.0" stroke="rgb(0,0,0)" stroke-width="1"/><line x1="50.0" y1="550.0" x2="50.0" y2="50.0" stroke="rgb(192,192,192)" stroke-width="1"/><line x1="50.0" y1="548.0" x2="50.0" y2="552.0" stroke="rgb(192,192,192)" stroke-width="1"/><text text-anchor="middle" alignment-baseline="hanging" x="50.0" y="553.0" font-size="12.0">0</text><line x1="313.1578947368421" y1="550.0" x2="313.1578947368421" y2="50.0" stroke="rgb(192,192,192)" stroke-width="1"/><line x1="313.1578947368421" y1="548.0" x2="313.1578947368421" y2="552.0" stroke="rgb(192,192,192)" stroke-width="1"/><text text-anchor="middle" alignment-baseline="hanging" x="313.1578947368421" y="553.0" font-size="12.0">10</text><line x1="50.0" y1="550.0" x2="550.0" y2="550.0" stroke="rgb(192,192,192)" stroke-width="1"/><text text-anchor="end" alignment-baseline="middle" x="45.0" y="550.0" font-size="12.0">0.0</text><line x1="48.0" y1="550.0" x2="52.0" y2="550.0" stroke="rgb(192,192,192)" stroke-width="1"/><line x1="50.0" y1="318.0725505926689" x2="550.0" y2="318.0725505926689" stroke="rgb(192,192,192)" stroke-width="1"/><text text-anchor="end" alignment-baseline="middle" x="45.0" y="318.0725505926689" font-size="12.0">0.1</text><line x1="48.0" y1="318.0725505926689" x2="52.0" y2="318.0725505926689" stroke="rgb(192,192,192)" stroke-width="1"/><line x1="50.0" y1="86.14510118533775" x2="550.0" y2="86.14510118533775" stroke="rgb(192,192,192)" stroke-width="1"/><text text-anchor="end" alignment-baseline="middle" x="45.0" y="86.14510118533775" font-size="12.0">0.2</text><line x1="48.0" y1="86.14510118533775" x2="52.0" y2="86.14510118533775" stroke="rgb(192,192,192)" stroke-width="1"/><polyline points="50.0,364.0861714199925 76.3157894736842,508.87406791161277 102.63157894736841,504.3665987421019 128.94736842105263,504.3665987421019 155.26315789473682,504.3665987421019 181.57894736842104,504.3665987421019 207.89473684210526,504.3665987421019 234.21052631578945,504.3665987421019 260.52631578947364,504.3665987421019 286.8421052631579,504.3665987421019 313.1578947368421,504.3665987421019 339.4736842105263,504.3665987421019 365.7894736842105,504.3665987421019 392.10526315789474,504.3665987421019 418.4210526315789,504.3665987421019 444.7368421052632,504.3665987421019 471.05263157894734,504.3665987421019 497.36842105263156,504.3665987421019 523.6842105263158,504.3665987421019 550.0,504.3665987421019" fill="none" stroke="rgb(255,0,0)" stroke-width="1"/><circle cx="50.0" cy="364.0861714199925" r="2" fill="rgb(255,0,0)"/><circle cx="76.3157894736842" cy="508.87406791161277" r="2" fill="rgb(255,0,0)"/><circle cx="102.63157894736841" cy="504.3665987421019" r="2" fill="rgb(255,0,0)"/><circle cx="128.94736842105263" cy="504.3665987421019" r="2" fill="rgb(255,0,0)"/><circle cx="155.26315789473682" cy="504.3665987421019" r="2" fill="rgb(255,0,0)"/><circle cx="181.57894736842104" cy="504.3665987421019" r="2" fill="rgb(255,0,0)"/><circle cx="207.89473684210526" cy="504.3665987421019" r="2" fill="rgb(255,0,0)"/><circle cx="234.21052631578945" cy="504.3665987421019" r="2" fill="rgb(255,0,0)"/><circle cx="260.52631578947364" cy="504.3665987421019" r="2" fill="rgb(255,0,0)"/><circle cx="286.8421052631579" cy="504.3665987421019" r="2" fill="rgb(255,0,0)"/><circle cx="313.1578947368421" cy="504.3665987421019" r="2" fill="rgb(255,0,0)"/><circle cx="339.4736842105263" cy="504.3665987421019" r="2" fill="rgb(255,0,0)"/><circle cx="365.7894736842105" cy="504.3665987421019" r="2" fill="rgb(255,0,0)"/><circle cx="392.10526315789474" cy="504.3665987421019" r="2" fill="rgb(255,0,0)"/><circle cx="418.4210526315789" cy="504.3665987421019" r="2" fill="rgb(255,0,0)"/><circle cx="444.7368421052632" cy="504.3665987421019" r="2" fill="rgb(255,0,0)"/><circle cx="471.05263157894734" cy="504.3665987421019" r="2" fill="rgb(255,0,0)"/><circle cx="497.36842105263156" cy="504.3665987421019" r="2" fill="rgb(255,0,0)"/><circle cx="523.6842105263158" cy="504.3665987421019" r="2" fill="rgb(255,0,0)"/><circle cx="550.0" cy="504.3665987421019" r="2" fill="rgb(255,0,0)"/><polyline points="50.0,50.0 76.3157894736842,268.5713110364214 102.63157894736841,274.2248887930215 128.94736842105263,274.2248887930215 155.26315789473682,274.2248887930215 181.57894736842104,274.2248887930215 207.89473684210526,274.2248887930215 234.21052631578945,274.2248887930215 260.52631578947364,274.2248887930215 286.8421052631579,274.2248887930215 313.1578947368421,274.2248887930215 339.4736842105263,274.2248887930215 365.7894736842105,274.2248887930215 392.10526315789474,274.2248887930215 418.4210526315789,274.2248887930215 444.7368421052632,274.2248887930215 471.05263157894734,274.2248887930215 497.36842105263156,274.2248887930215 523.6842105263158,274.2248887930215 550.0,274.2248887930215" fill="none" stroke="rgb(0,0,255)" stroke-width="1"/><circle cx="50.0" cy="50.0" r="2" fill="rgb(0,0,255)"/><circle cx="76.3157894736842" cy="268.5713110364214" r="2" fill="rgb(0,0,255)"/><circle cx="102.63157894736841" cy="274.2248887930215" r="2" fill="rgb(0,0,255)"/><circle cx="128.94736842105263" cy="274.2248887930215" r="2" fill="rgb(0,0,255)"/><circle cx="155.26315789473682" cy="274.2248887930215" r="2" fill="rgb(0,0,255)"/><circle cx="181.57894736842104" cy="274.2248887930215" r="2" fill="rgb(0,0,255)"/><circle cx="207.89473684210526" cy="274.2248887930215" r="2" fill="rgb(0,0,255)"/><circle cx="234.21052631578945" cy="274.2248887930215" r="2" fill="rgb(0,0,255)"/><circle cx="260.52631578947364" cy="274.2248887930215" r="2" fill="rgb(0,0,255)"/><circle cx="286.8421052631579" cy="274.2248887930215" r="2" fill="rgb(0,0,255)"/><circle cx="313.1578947368421" cy="274.2248887930215" r="2" fill="rgb(0,0,255)"/><circle cx="339.4736842105263" cy="274.2248887930215" r="2" fill="rgb(0,0,255)"/><circle cx="365.7894736842105" cy="274.2248887930215" r="2" fill="rgb(0,0,255)"/><circle cx="392.10526315789474" cy="274.2248887930215" r="2" fill="rgb(0,0,255)"/><circle cx="418.4210526315789" cy="274.2248887930215" r="2" fill="rgb(0,0,255)"/><circle cx="444.7368421052632" cy="274.2248887930215" r="2" fill="rgb(0,0,255)"/><circle cx="471.05263157894734" cy="274.2248887930215" r="2" fill="rgb(0,0,255)"/><circle cx="497.36842105263156" cy="274.2248887930215" r="2" fill="rgb(0,0,255)"/><circle cx="523.6842105263158" cy="274.2248887930215" r="2" fill="rgb(0,0,255)"/><circle cx="550.0" cy="274.2248887930215" r="2" fill="rgb(0,0,255)"/><polyline points="50.0,156.16830506770657 76.3157894736842,364.0921146847098 102.63157894736841,368.87022839766604 128.94736842105263,368.87022839766604 155.26315789473682,368.87022839766604 181.57894736842104,368.87022839766604 207.89473684210526,368.87022839766604 234.21052631578945,368.87022839766604 260.52631578947364,368.87022839766604 286.8421052631579,368.87022839766604 313.1578947368421,368.87022839766604 339.4736842105263,368.87022839766604 365.7894736842105,368.87022839766604 392.10526315789474,368.87022839766604 418.4210526315789,368.87022839766604 444.7368421052632,368.87022839766604 471.05263157894734,368.87022839766604 497.36842105263156,368.87022839766604 523.6842105263158,368.87022839766604 550.0,368.87022839766604" fill="none" stroke="rgb(0,255,0)" stroke-width="1"/><circle cx="50.0" cy="156.16830506770657" r="2" fill="rgb(0,255,0)"/><circle cx="76.3157894736842" cy="364.0921146847098" r="2" fill="rgb(0,255,0)"/><circle cx="102.63157894736841" cy="368.87022839766604" r="2" fill="rgb(0,255,0)"/><circle cx="128.94736842105263" cy="368.87022839766604" r="2" fill="rgb(0,255,0)"/><circle cx="155.26315789473682" cy="368.87022839766604" r="2" fill="rgb(0,255,0)"/><circle cx="181.57894736842104" cy="368.87022839766604" r="2" fill="rgb(0,255,0)"/><circle cx="207.89473684210526" cy="368.87022839766604" r="2" fill="rgb(0,255,0)"/><circle cx="234.21052631578945" cy="368.87022839766604" r="2" fill="rgb(0,255,0)"/><circle cx="260.52631578947364" cy="368.87022839766604" r="2" fill="rgb(0,255,0)"/><circle cx="286.8421052631579" cy="368.87022839766604" r="2" fill="rgb(0,255,0)"/><circle cx="313.1578947368421" cy="368.87022839766604" r="2" fill="rgb(0,255,0)"/><circle cx="339.4736842105263" cy="368.87022839766604" r="2" fill="rgb(0,255,0)"/><circle cx="365.7894736842105" cy="368.87022839766604" r="2" fill="rgb(0,255,0)"/><circle cx="392.10526315789474" cy="368.87022839766604" r="2" fill="rgb(0,255,0)"/><circle cx="418.4210526315789" cy="368.87022839766604" r="2" fill="rgb(0,255,0)"/><circle cx="444.7368421052632" cy="368.87022839766604" r="2" fill="rgb(0,255,0)"/><circle cx="471.05263157894734" cy="368.87022839766604" r="2" fill="rgb(0,255,0)"/><circle cx="497.36842105263156" cy="368.87022839766604" r="2" fill="rgb(0,255,0)"/><circle cx="523.6842105263158" cy="368.87022839766604" r="2" fill="rgb(0,255,0)"/><circle cx="550.0" cy="368.87022839766604" r="2" fill="rgb(0,255,0)"/><text x="350.0" y="20.0" text-anchor="middle" fill="rgb(0,0,0)" font-size="20.0">KMeans Mean Centroid Distances</text><text x="350.0" y="575.0" text-anchor="middle" fill="rgb(0,0,0)" font-size="12.0">step</text><text transform="rotate(-90.0 20.0 300.0)" x="20.0" y="300.0" text-anchor="middle" fill="rgb(0,0,0)" font-size="12.0">average distance to centroid</text><text x="620" y="62" fill="rgb(255,0,0)" font-size="12">0</text><text x="620" y="74" fill="rgb(0,0,255)" font-size="12">1</text><text x="620" y="86" fill="rgb(0,255,0)" font-size="12">2</text>
      Sorry, your browser does not support inline SVG.
    </svg>