<?xml version='1.0' encoding='UTF-8'?>
<svg version="1.1" width="700.0" height="600.0" onload="init(evt)" xmlns="http://www.w3.org/2000/svg">
      <style>.caption {
  font-size: 14px;
  font-family: Georgia, serif;
}
</style>
      <script type="text/ecmascript"><![CDATA[
function init(evt) {
  if ( window.svgDocument == null ) {
    svgDocument = evt.target.ownerDocument;
  }
}

function RectHover(evt, i, c) {
  rect = svgDocument.getElementById('rect' + i);
  if( c != null ) {
    rect.setAttributeNS(null, "fill", c)  
  }
  tooltiptext = svgDocument.getElementById('tooltiptext' + i);
  tooltipbg = svgDocument.getElementById('tooltipbg' + i);
  if( tooltipbg != null) {
    tbb = tooltiptext.getBBox();
    tooltipbg.setAttributeNS(null, "width", tbb.width);
    tooltipbg.setAttributeNS(null, "height", tbb.height);
    tooltipbg.setAttributeNS(null, "x", tbb.x);
    tooltipbg.setAttributeNS(null, "y", tbb.y);
    tooltipbg.setAttributeNS(null, "visibility", "visible");
  }
  tooltiptext.setAttributeNS(null,"visibility","visible");
}

function RectUnhover(evt, i, c) {
  rect = svgDocument.getElementById('rect' + i);
  if( c != null ) {
    rect.setAttributeNS(null, "fill", c)  
  }
  tooltiptext = svgDocument.getElementById('tooltiptext' + i);
  tooltiptext.setAttributeNS(null,"visibility","hidden");
  tooltipbg = svgDocument.getElementById('tooltipbg' + i);
  if( tooltipbg != null ) {
    tooltipbg.setAttributeNS(null,"visibility","hidden");
  }
}
]]></script>
      <line x1="50.0" y1="550.0" x2="550.0" y2="550.0" stroke="rgb(0,0,0)" stroke-width="1"/><line x1="50.0" y1="550.0" x2="50.0" y2="50.0" stroke="rgb(0,0,0)" stroke-width="1"/><line x1="50.0" y1="550.0" x2="50.0" y2="50.0" stroke="rgb(192,192,192)" stroke-width="1"/><line x1="50.0" y1="548.0" x2="50.0" y2="552.0" stroke="rgb(192,192,192)" stroke-width="1"/><text text-anchor="middle" alignment-baseline="hanging" x="50.0" y="553.0" font-size="12.0">0</text><line x1="313.1578947368421" y1="550.0" x2="313.1578947368421" y2="50.0" stroke="rgb(192,192,192)" stroke-width="1"/><line x1="313.1578947368421" y1="548.0" x2="313.1578947368421" y2="552.0" stroke="rgb(192,192,192)" stroke-width="1"/><text text-anchor="middle" alignment-baseline="hanging" x="313.1578947368421" y="553.0" font-size="12.0">10</text><line x1="50.0" y1="550.0" x2="550.0" y2="550.0" stroke="rgb(192,192,192)" stroke-width="1"/><text text-anchor="end" alignment-baseline="middle" x="45.0" y="550.0" font-size="12.0">0.00</text><line x1="48.0" y1="550.0" x2="52.0" y2="550.0" stroke="rgb(192,192,192)" stroke-width="1"/><line x1="50.0" y1="523.6251536767746" x2="550.0" y2="523.6251536767746" stroke="rgb(192,192,192)" stroke-width="1"/><text text-anchor="end" alignment-baseline="middle" x="45.0" y="523.6251536767746" font-size="12.0">0.01</text><line x1="48.0" y1="523.6251536767746" x2="52.0" y2="523.6251536767746" stroke="rgb(192,192,192)" stroke-width="1"/><line x1="50.0" y1="497.2503073535492" x2="550.0" y2="497.2503073535492" stroke="rgb(192,192,192)" stroke-width="1"/><text text-anchor="end" alignment-baseline="middle" x="45.0" y="497.2503073535492" font-size="12.0">0.02</text><line x1="48.0" y1="497.2503073535492" x2="52.0" y2="497.2503073535492" stroke="rgb(192,192,192)" stroke-width="1"/><line x1="50.0" y1="470.8754610303238" x2="550.0" y2="470.8754610303238" stroke="rgb(192,192,192)" stroke-width="1"/><text text-anchor="end" alignment-baseline="middle" x="45.0" y="470.8754610303238" font-size="12.0">0.03</text><line x1="48.0" y1="470.8754610303238" x2="52.0" y2="470.8754610303238" stroke="rgb(192,192,192)" stroke-width="1"/><line x1="50.0" y1="444.5006147070984" x2="550.0" y2="444.5006147070984" stroke="rgb(192,192,192)" stroke-width="1"/><text text-anchor="end" alignment-baseline="middle" x="45.0" y="444.5006147070984" font-size="12.0">0.04</text><line x1="48.0" y1="444.5006147070984" x2="52.0" y2="444.5006147070984" stroke="rgb(192,192,192)" stroke-width="1"/><line x1="50.0" y1="418.125768383873" x2="550.0" y2="418.125768383873" stroke="rgb(192,192,192)" stroke-width="1"/><text text-anchor="end" alignment-baseline="middle" x="45.0" y="418.125768383873" font-size="12.0">0.05</text><line x1="48.0" y1="418.125768383873" x2="52.0" y2="418.125768383873" stroke="rgb(192,192,192)" stroke-width="1"/><line x1="50.0" y1="391.75092206064755" x2="550.0" y2="391.75092206064755" stroke="rgb(192,192,192)" stroke-width="1"/><text text-anchor="end" alignment-baseline="middle" x="45.0" y="391.75092206064755" font-size="12.0">0.06</text><line x1="48.0" y1="391.75092206064755" x2="52.0" y2="391.75092206064755" stroke="rgb(192,192,192)" stroke-width="1"/><line x1="50.0" y1="365.3760757374222" x2="550.0" y2="365.3760757374222" stroke="rgb(192,192,192)" stroke-width="1"/><text text-anchor="end" alignment-baseline="middle" x="45.0" y="365.3760757374222" font-size="12.0">0.07</text><line x1="48.0" y1="365.3760757374222" x2="52.0" y2="365.3760757374222" stroke="rgb(192,192,192)" stroke-width="1"/><line x1="50.0" y1="339.00122941419676" x2="550.0" y2="339.00122941419676" stroke="rgb(192,192,192)" stroke-width="1"/><text text-anchor="end" alignment-baseline="middle" x="45.0" y="339.00122941419676" font-size="12.0">0.08</text><line x1="48.0" y1="339.00122941419676" x2="52.0" y2="339.00122941419676" stroke="rgb(192,192,192)" stroke-width="1"/><line x1="50.0" y1="312.62638309097133" x2="550.0" y2="312.62638309097133" stroke="rgb(192,192,192)" stroke-width="1"/><text text-anchor="end" alignment-baseline="middle" x="45.0" y="312.62638309097133" font-size="12.0">0.09</text><line x1="48.0" y1="312.62638309097133" x2="52.0" y2="312.62638309097133" stroke="rgb(192,192,192)" stroke-width="1"/><line x1="50.0" y1="286.25153676774596" x2="550.0" y2="286.25153676774596" stroke="rgb(192,192,192)" stroke-width="1"/><text text-anchor="end" alignment-baseline="middle" x="45.0" y="286.25153676774596" font-size="12.0">0.10</text><line x1="48.0" y1="286.25153676774596" x2="52.0" y2="286.25153676774596" stroke="rgb(192,192,192)" stroke-width="1"/><line x1="50.0" y1="259.8766904445206" x2="550.0" y2="259.8766904445206" stroke="rgb(192,192,192)" stroke-width="1"/><text text-anchor="end" alignment-baseline="middle" x="45.0" y="259.8766904445206" font-size="12.0">0.11</text><line x1="48.0" y1="259.8766904445206" x2="52.0" y2="259.8766904445206" stroke="rgb(192,192,192)" stroke-width="1"/><line x1="50.0" y1="233.50184412129516" x2="550.0" y2="233.50184412129516" stroke="rgb(192,192,192)" stroke-width="1"/><text text-anchor="end" alignment-baseline="middle" x="45.0" y="233.50184412129516" font-size="12.0">0.12</text><line x1="48.0" y1="233.50184412129516" x2="52.0" y2="233.50184412129516" stroke="rgb(192,192,192)" stroke-width="1"/><line x1="50.0" y1="207.12699779806974" x2="550.0" y2="207.12699779806974" stroke="rgb(192,192,192)" stroke-width="1"/><text text-anchor="end" alignment-baseline="middle" x="45.0" y="207.12699779806974" font-size="12.0">0.13</text><line x1="48.0" y1="207.12699779806974" x2="52.0" y2="207.12699779806974" stroke="rgb(192,192,192)" stroke-width="1"/><line x1="50.0" y1="180.7521514748443" x2="550.0" y2="180.7521514748443" stroke="rgb(192,192,192)" stroke-width="1"/><text text-anchor="end" alignment-baseline="middle" x="45.0" y="180.7521514748443" font-size="12.0">0.14</text><line x1="48.0" y1="180.7521514748443" x2="52.0" y2="180.7521514748443" stroke="rgb(192,192,192)" stroke-width="1"/><line x1="50.0" y1="154.377305151619" x2="550.0" y2="154.377305151619" stroke="rgb(192,192,192)" stroke-width="1"/><text text-anchor="end" alignment-baseline="middle" x="45.0" y="154.377305151619" font-size="12.0">0.15</text><line x1="48.0" y1="154.377305151619" x2="52.0" y2="154.377305151619" stroke="rgb(192,192,192)" stroke-width="1"/><line x1="50.0" y1="128.00245882839351" x2="550.0" y2="128.00245882839351" stroke="rgb(192,192,192)" stroke-width="1"/><text text-anchor="end" alignment-baseline="middle" x="45.0" y="128.00245882839351" font-size="12.0">0.16</text><line x1="48.0" y1="128.00245882839351" x2="52.0" y2="128.00245882839351" stroke="rgb(192,192,192)" stroke-width="1"/><line x1="50.0" y1="101.62761250516814" x2="550.0" y2="101.62761250516814" stroke="rgb(192,192,192)" stroke-width="1"/><text text-anchor="end" alignment-baseline="middle" x="45.0" y="101.62761250516814" font-size="12.0">0.17</text><line x1="48.0" y1="101.62761250516814" x2="52.0" y2="101.62761250516814" stroke="rgb(192,192,192)" stroke-width="1"/><line x1="50.0" y1="75.25276618194272" x2="550.0" y2="75.25276618194272" stroke="rgb(192,192,192)" stroke-width="1"/><text text-anchor="end" alignment-baseline="middle" x="45.0" y="75.25276618194272" font-size="12.0">0.18</text><line x1="48.0" y1="75.25276618194272" x2="52.0" y2="75.25276618194272" stroke="rgb(192,192,192)" stroke-width="1"/><polyline points="50.0,65.78414096042434 76.3157894736842,186.37965490709536 102.63157894736841,276.0816443984237 128.94736842105263,375.1374586283782 155.26315789473682,477.7088296092213 181.57894736842104,498.1055843774093 207.89473684210526,498.1055843774093 234.21052631578945,498.1055843774093 260.52631578947364,498.1055843774093 286.8421052631579,498.1055843774093 313.1578947368421,498.1055843774093 339.4736842105263,498.1055843774093 365.7894736842105,498.1055843774093 392.10526315789474,498.1055843774093 418.4210526315789,498.1055843774093 444.7368421052632,498.1055843774093 471.05263157894734,498.1055843774093 497.36842105263156,498.1055843774093 523.6842105263158,498.1055843774093 550.0,498.1055843774093" fill="none" stroke="rgb(255,0,0)" stroke-width="1"/><circle cx="50.0" cy="65.78414096042434" r="2" fill="rgb(255,0,0)"/><circle cx="76.3157894736842" cy="186.37965490709536" r="2" fill="rgb(255,0,0)"/><circle cx="102.63157894736841" cy="276.0816443984237" r="2" fill="rgb(255,0,0)"/><circle cx="128.94736842105263" cy="375.1374586283782" r="2" fill="rgb(255,0,0)"/><circle cx="155.26315789473682" cy="477.7088296092213" r="2" fill="rgb(255,0,0)"/><circle cx="181.57894736842104" cy="498.1055843774093" r="2" fill="rgb(255,0,0)"/><circle cx="207.89473684210526" cy="498.1055843774093" r="2" fill="rgb(255,0,0)"/><circle cx="234.21052631578945" cy="498.1055843774093" r="2" fill="rgb(255,0,0)"/><circle cx="260.52631578947364" cy="498.1055843774093" r="2" fill="rgb(255,0,0)"/><circle cx="286.8421052631579" cy="498.1055843774093" r="2" fill="rgb(255,0,0)"/><circle cx="313.1578947368421" cy="498.1055843774093" r="2" fill="rgb(255,0,0)"/><circle cx="339.4736842105263" cy="498.1055843774093" r="2" fill="rgb(255,0,0)"/><circle cx="365.7894736842105" cy="498.1055843774093" r="2" fill="rgb(255,0,0)"/><circle cx="392.10526315789474" cy="498.1055843774093" r="2" fill="rgb(255,0,0)"/><circle cx="418.4210526315789" cy="498.1055843774093" r="2" fill="rgb(255,0,0)"/><circle cx="444.7368421052632" cy="498.1055843774093" r="2" fill="rgb(255,0,0)"/><circle cx="471.05263157894734" cy="498.1055843774093" r="2" fill="rgb(255,0,0)"/><circle cx="497.36842105263156" cy="498.1055843774093" r="2" fill="rgb(255,0,0)"/><circle cx="523.6842105263158" cy="498.1055843774093" r="2" fill="rgb(255,0,0)"/><circle cx="550.0" cy="498.1055843774093" r="2" fill="rgb(255,0,0)"/><polyline points="50.0,144.0809192053249 76.3157894736842,379.78163082199 102.63157894736841,426.15769508935716 128.94736842105263,363.6230261377224 155.26315789473682,261.2422013756429 181.57894736842104,236.38786842862845 207.89473684210526,236.38786842862845 234.21052631578945,236.38786842862845 260.52631578947364,236.38786842862845 286.8421052631579,236.38786842862845 313.1578947368421,236.38786842862845 339.4736842105263,236.38786842862845 365.7894736842105,236.38786842862845 392.10526315789474,236.38786842862845 418.4210526315789,236.38786842862845 444.7368421052632,236.38786842862845 471.05263157894734,236.38786842862845 497.36842105263156,236.38786842862845 523.6842105263158,236.38786842862845 550.0,236.38786842862845" fill="none" stroke="rgb(0,0,255)" stroke-width="1"/><circle cx="50.0" cy="144.0809192053249" r="2" fill="rgb(0,0,255)"/><circle cx="76.3157894736842" cy="379.78163082199" r="2" fill="rgb(0,0,255)"/><circle cx="102.63157894736841" cy="426.15769508935716" r="2" fill="rgb(0,0,255)"/><circle cx="128.94736842105263" cy="363.6230261377224" r="2" fill="rgb(0,0,255)"/><circle cx="155.26315789473682" cy="261.2422013756429" r="2" fill="rgb(0,0,255)"/><circle cx="181.57894736842104" cy="236.38786842862845" r="2" fill="rgb(0,0,255)"/><circle cx="207.89473684210526" cy="236.38786842862845" r="2" fill="rgb(0,0,255)"/><circle cx="234.21052631578945" cy="236.38786842862845" r="2" fill="rgb(0,0,255)"/><circle cx="260.52631578947364" cy="236.38786842862845" r="2" fill="rgb(0,0,255)"/><circle cx="286.8421052631579" cy="236.38786842862845" r="2" fill="rgb(0,0,255)"/><circle cx="313.1578947368421" cy="236.38786842862845" r="2" fill="rgb(0,0,255)"/><circle cx="339.4736842105263" cy="236.38786842862845" r="2" fill="rgb(0,0,255)"/><circle cx="365.7894736842105" cy="236.38786842862845" r="2" fill="rgb(0,0,255)"/><circle cx="392.10526315789474" cy="236.38786842862845" r="2" fill="rgb(0,0,255)"/><circle cx="418.4210526315789" cy="236.38786842862845" r="2" fill="rgb(0,0,255)"/><circle cx="444.7368421052632" cy="236.38786842862845" r="2" fill="rgb(0,0,255)"/><circle cx="471.05263157894734" cy="236.38786842862845" r="2" fill="rgb(0,0,255)"/><circle cx="497.36842105263156" cy="236.38786842862845" r="2" fill="rgb(0,0,255)"/><circle cx="523.6842105263158" cy="236.38786842862845" r="2" fill="rgb(0,0,255)"/><circle cx="550.0" cy="236.38786842862845" r="2" fill="rgb(0,0,255)"/><polyline points="50.0,50.0 76.3157894736842,269.0819873647311 102.63157894736841,370.1569920981339 128.94736842105263,418.0337990955587 155.26315789473682,361.3046806837638 181.57894736842104,344.01878032202137 207.89473684210526,344.01878032202137 234.21052631578945,344.01878032202137 260.52631578947364,344.01878032202137 286.8421052631579,344.01878032202137 313.1578947368421,344.01878032202137 339.4736842105263,344.01878032202137 365.7894736842105,344.01878032202137 392.10526315789474,344.01878032202137 418.4210526315789,344.01878032202137 444.7368421052632,344.01878032202137 471.05263157894734,344.01878032202137 497.36842105263156,344.01878032202137 523.6842105263158,344.01878032202137 550.0,344.01878032202137" fill="none" stroke="rgb(0,255,0)" stroke-width="1"/><circle cx="50.0" cy="50.0" r="2" fill="rgb(0,255,0)"/><circle cx="76.3157894736842" cy="269.0819873647311" r="2" fill="rgb(0,255,0)"/><circle cx="102.63157894736841" cy="370.1569920981339" r="2" fill="rgb(0,255,0)"/><circle cx="128.94736842105263" cy="418.0337990955587" r="2" fill="rgb(0,255,0)"/><circle cx="155.26315789473682" cy="361.3046806837638" r="2" fill="rgb(0,255,0)"/><circle cx="181.57894736842104" cy="344.01878032202137" r="2" fill="rgb(0,255,0)"/><circle cx="207.89473684210526" cy="344.01878032202137" r="2" fill="rgb(0,255,0)"/><circle cx="234.21052631578945" cy="344.01878032202137" r="2" fill="rgb(0,255,0)"/><circle cx="260.52631578947364" cy="344.01878032202137" r="2" fill="rgb(0,255,0)"/><circle cx="286.8421052631579" cy="344.01878032202137" r="2" fill="rgb(0,255,0)"/><circle cx="313.1578947368421" cy="344.01878032202137" r="2" fill="rgb(0,255,0)"/><circle cx="339.4736842105263" cy="344.01878032202137" r="2" fill="rgb(0,255,0)"/><circle cx="365.7894736842105" cy="344.01878032202137" r="2" fill="rgb(0,255,0)"/><circle cx="392.10526315789474" cy="344.01878032202137" r="2" fill="rgb(0,255,0)"/><circle cx="418.4210526315789" cy="344.01878032202137" r="2" fill="rgb(0,255,0)"/><circle cx="444.7368421052632" cy="344.01878032202137" r="2" fill="rgb(0,255,0)"/><circle cx="471.05263157894734" cy="344.01878032202137" r="2" fill="rgb(0,255,0)"/><circle cx="497.36842105263156" cy="344.01878032202137" r="2" fill="rgb(0,255,0)"/><circle cx="523.6842105263158" cy="344.01878032202137" r="2" fill="rgb(0,255,0)"/><circle cx="550.0" cy="344.01878032202137" r="2" fill="rgb(0,255,0)"/><text x="350.0" y="20.0" text-anchor="middle" fill="rgb(0,0,0)" font-size="20.0">KMeans Mean Centroid Distances</text><text x="350.0" y="575.0" text-anchor="middle" fill="rgb(0,0,0)" font-size="12.0">step</text><text transform="rotate(-90.0 20.0 300.0)" x="20.0" y="300.0" text-anchor="middle" fill="rgb(0,0,0)" font-size="12.0">average distance to centroid</text><text x="620" y="62" fill="rgb(255,0,0)" font-size="12">0</text><text x="620" y="74" fill="rgb(0,0,255)" font-size="12">1</text><text x="620" y="86" fill="rgb(0,255,0)" font-size="12">2</text>
      Sorry, your browser does not support inline SVG.
    </svg>