<?xml version='1.0' encoding='UTF-8'?>
<svg version="1.1" width="700.0" height="700.0" onload="init(evt)" xmlns="http://www.w3.org/2000/svg">
      <style>.caption {
  font-size: 14px;
  font-family: Georgia, serif;
}
</style>
      <script type="text/ecmascript"><![CDATA[
function init(evt) {
  if ( window.svgDocument == null ) {
    svgDocument = evt.target.ownerDocument;
  }
}

function RectHover(evt, i, c) {
  rect = svgDocument.getElementById('rect' + i);
  if( c != null ) {
    rect.setAttributeNS(null, "fill", c)  
  }
  tooltiptext = svgDocument.getElementById('tooltiptext' + i);
  tooltipbg = svgDocument.getElementById('tooltipbg' + i);
  if( tooltipbg != null) {
    tbb = tooltiptext.getBBox();
    tooltipbg.setAttributeNS(null, "width", tbb.width);
    tooltipbg.setAttributeNS(null, "height", tbb.height);
    tooltipbg.setAttributeNS(null, "x", tbb.x);
    tooltipbg.setAttributeNS(null, "y", tbb.y);
    tooltipbg.setAttributeNS(null, "visibility", "visible");
  }
  tooltiptext.setAttributeNS(null,"visibility","visible");
}

function RectUnhover(evt, i, c) {
  rect = svgDocument.getElementById('rect' + i);
  if( c != null ) {
    rect.setAttributeNS(null, "fill", c)  
  }
  tooltiptext = svgDocument.getElementById('tooltiptext' + i);
  tooltiptext.setAttributeNS(null,"visibility","hidden");
  tooltipbg = svgDocument.getElementById('tooltipbg' + i);
  if( tooltipbg != null ) {
    tooltipbg.setAttributeNS(null,"visibility","hidden");
  }
}
]]></script>
      <line x1="254.6896574521648" y1="352.4742218150332" x2="419.2102623441421" y2="325.9593506919886" stroke="rgb(0,0,0)" stroke-width="1"/><line x1="692.5015059683885" y1="457.04991948859896" x2="419.2102623441421" y2="325.9593506919886" stroke="rgb(0,0,0)" stroke-width="1"/><line x1="281.3455109539077" y1="419.16349919603977" x2="419.2102623441421" y2="325.9593506919886" stroke="rgb(0,0,0)" stroke-width="1"/><line x1="302.2566570685551" y1="145.80418231245125" x2="122.32020208257791" y2="682.2314792939868" stroke="rgb(0,0,0)" stroke-width="1"/><line x1="82.52406623106656" y1="668.8205290604817" x2="419.2102623441421" y2="325.9593506919886" stroke="rgb(0,0,0)" stroke-width="1"/><line x1="667.0464891763904" y1="298.17874467172265" x2="302.2566570685551" y2="145.80418231245125" stroke="rgb(0,0,0)" stroke-width="1"/><line x1="200.80855217388765" y1="365.49489530948927" x2="190.18324529651798" y2="412.6514600985164" stroke="rgb(0,0,0)" stroke-width="1"/><line x1="419.2102623441421" y1="325.9593506919886" x2="302.2566570685551" y2="145.80418231245125" stroke="rgb(0,0,0)" stroke-width="1"/><line x1="218.98148375046412" y1="258.54412366697954" x2="190.18324529651798" y2="412.6514600985164" stroke="rgb(0,0,0)" stroke-width="1"/><line x1="419.2102623441421" y1="325.9593506919886" x2="254.6896574521648" y2="352.4742218150332" stroke="rgb(0,0,0)" stroke-width="1"/><line x1="200.80855217388765" y1="365.49489530948927" x2="419.2102623441421" y2="325.9593506919886" stroke="rgb(0,0,0)" stroke-width="1"/><line x1="200.80855217388765" y1="365.49489530948927" x2="306.3204800088808" y2="66.91287149956356" stroke="rgb(0,0,0)" stroke-width="1"/><line x1="306.3204800088808" y1="66.91287149956356" x2="200.80855217388765" y2="365.49489530948927" stroke="rgb(0,0,0)" stroke-width="1"/><line x1="190.18324529651798" y1="412.6514600985164" x2="200.80855217388765" y2="365.49489530948927" stroke="rgb(0,0,0)" stroke-width="1"/><line x1="302.2566570685551" y1="145.80418231245125" x2="419.2102623441421" y2="325.9593506919886" stroke="rgb(0,0,0)" stroke-width="1"/><line x1="419.2102623441421" y1="325.9593506919886" x2="281.3455109539077" y2="419.16349919603977" stroke="rgb(0,0,0)" stroke-width="1"/><line x1="450.56633777238204" y1="254.57520546425408" x2="281.3455109539077" y2="419.16349919603977" stroke="rgb(0,0,0)" stroke-width="1"/><line x1="419.2102623441421" y1="325.9593506919886" x2="82.52406623106656" y2="668.8205290604817" stroke="rgb(0,0,0)" stroke-width="1"/><line x1="419.2102623441421" y1="325.9593506919886" x2="200.80855217388765" y2="365.49489530948927" stroke="rgb(0,0,0)" stroke-width="1"/><line x1="122.32020208257791" y1="682.2314792939868" x2="302.2566570685551" y2="145.80418231245125" stroke="rgb(0,0,0)" stroke-width="1"/><line x1="419.2102623441421" y1="325.9593506919886" x2="692.5015059683885" y2="457.04991948859896" stroke="rgb(0,0,0)" stroke-width="1"/><line x1="281.3455109539077" y1="419.16349919603977" x2="450.56633777238204" y2="254.57520546425408" stroke="rgb(0,0,0)" stroke-width="1"/><line x1="190.18324529651798" y1="412.6514600985164" x2="218.98148375046412" y2="258.54412366697954" stroke="rgb(0,0,0)" stroke-width="1"/><line x1="302.2566570685551" y1="145.80418231245125" x2="667.0464891763904" y2="298.17874467172265" stroke="rgb(0,0,0)" stroke-width="1"/><polygon points="10,0 20,3 20,-3" fill="black" transform="translate(419.2102623441421,325.9593506919886) rotate(170.8446827713375)"/><polygon points="10,0 20,3 20,-3" fill="black" transform="translate(419.2102623441421,325.9593506919886) rotate(25.625800077393734)"/><polygon points="10,0 20,3 20,-3" fill="black" transform="translate(419.2102623441421,325.9593506919886) rotate(145.9391455091578)"/><polygon points="10,0 20,3 20,-3" fill="black" transform="translate(122.32020208257791,682.2314792939868) rotate(288.54325197704657)"/><polygon points="10,0 20,3 20,-3" fill="black" transform="translate(419.2102623441421,325.9593506919886) rotate(134.4793730391906)"/><polygon points="10,0 20,3 20,-3" fill="black" transform="translate(302.2566570685551,145.80418231245125) rotate(22.670541178777682)"/><polygon points="10,0 20,3 20,-3" fill="black" transform="translate(190.18324529651798,412.6514600985164) rotate(282.69782156771475)"/><polygon points="10,0 20,3 20,-3" fill="black" transform="translate(302.2566570685551,145.80418231245125) rotate(57.00906712245951)"/><polygon points="10,0 20,3 20,-3" fill="black" transform="translate(190.18324529651798,412.6514600985164) rotate(280.5848529002851)"/><polygon points="10,0 20,3 20,-3" fill="black" transform="translate(254.6896574521648,352.4742218150332) rotate(350.8446827713375)"/><polygon points="10,0 20,3 20,-3" fill="black" transform="translate(419.2102623441421,325.9593506919886) rotate(169.73931011634602)"/><polygon points="10,0 20,3 20,-3" fill="black" transform="translate(306.3204800088808,66.91287149956356) rotate(109.46222094429136)"/><polygon points="10,0 20,3 20,-3" fill="black" transform="translate(200.80855217388765,365.49489530948927) rotate(289.4622209442914)"/><polygon points="10,0 20,3 20,-3" fill="black" transform="translate(200.80855217388765,365.49489530948927) rotate(102.69782156771473)"/><polygon points="10,0 20,3 20,-3" fill="black" transform="translate(419.2102623441421,325.9593506919886) rotate(237.0090671224595)"/><polygon points="10,0 20,3 20,-3" fill="black" transform="translate(281.3455109539077,419.16349919603977) rotate(325.9391455091578)"/><polygon points="10,0 20,3 20,-3" fill="black" transform="translate(281.3455109539077,419.16349919603977) rotate(315.7950877921105)"/><polygon points="10,0 20,3 20,-3" fill="black" transform="translate(82.52406623106656,668.8205290604817) rotate(314.4793730391906)"/><polygon points="10,0 20,3 20,-3" fill="black" transform="translate(200.80855217388765,365.49489530948927) rotate(349.739310116346)"/><polygon points="10,0 20,3 20,-3" fill="black" transform="translate(302.2566570685551,145.80418231245125) rotate(108.54325197704658)"/><polygon points="10,0 20,3 20,-3" fill="black" transform="translate(692.5015059683885,457.04991948859896) rotate(205.62580007739373)"/><polygon points="10,0 20,3 20,-3" fill="black" transform="translate(450.56633777238204,254.57520546425408) rotate(135.7950877921105)"/><polygon points="10,0 20,3 20,-3" fill="black" transform="translate(218.98148375046412,258.54412366697954) rotate(100.58485290028511)"/><polygon points="10,0 20,3 20,-3" fill="black" transform="translate(667.0464891763904,298.17874467172265) rotate(202.6705411787777)"/><circle cx="667.0464891763904" cy="298.17874467172265" r="10" fill="rgb(255,255,0)" stroke="rgb(0,0,0)" stroke-width="1"/><circle cx="419.2102623441421" cy="325.9593506919886" r="10" fill="rgb(255,255,0)" stroke="rgb(0,0,0)" stroke-width="1"/><circle cx="302.2566570685551" cy="145.80418231245125" r="10" fill="rgb(255,255,0)" stroke="rgb(0,0,0)" stroke-width="1"/><circle cx="692.5015059683885" cy="457.04991948859896" r="10" fill="rgb(255,255,0)" stroke="rgb(0,0,0)" stroke-width="1"/><circle cx="281.3455109539077" cy="419.16349919603977" r="10" fill="rgb(255,255,0)" stroke="rgb(0,0,0)" stroke-width="1"/><circle cx="306.3204800088808" cy="66.91287149956356" r="10" fill="rgb(255,255,0)" stroke="rgb(0,0,0)" stroke-width="1"/><circle cx="254.6896574521648" cy="352.4742218150332" r="10" fill="rgb(255,255,0)" stroke="rgb(0,0,0)" stroke-width="1"/><circle cx="450.56633777238204" cy="254.57520546425408" r="10" fill="rgb(255,255,0)" stroke="rgb(0,0,0)" stroke-width="1"/><circle cx="200.80855217388765" cy="365.49489530948927" r="10" fill="rgb(255,255,0)" stroke="rgb(0,0,0)" stroke-width="1"/><circle cx="122.32020208257791" cy="682.2314792939868" r="10" fill="rgb(255,255,0)" stroke="rgb(0,0,0)" stroke-width="1"/><circle cx="82.52406623106656" cy="668.8205290604817" r="10" fill="rgb(255,255,0)" stroke="rgb(0,0,0)" stroke-width="1"/><circle cx="218.98148375046412" cy="258.54412366697954" r="10" fill="rgb(255,255,0)" stroke="rgb(0,0,0)" stroke-width="1"/><circle cx="190.18324529651798" cy="412.6514600985164" r="10" fill="rgb(255,255,0)" stroke="rgb(0,0,0)" stroke-width="1"/><text text-anchor="middle" alignment-baseline="middle" x="667.0464891763904" y="298.17874467172265" fill="rgb(0,0,0)" font-size="12">inch (in)</text><text text-anchor="middle" alignment-baseline="middle" x="419.2102623441421" y="325.9593506919886" fill="rgb(0,0,0)" font-size="12">meter (m)</text><text text-anchor="middle" alignment-baseline="middle" x="302.2566570685551" y="145.80418231245125" fill="rgb(0,0,0)" font-size="12">foot (ft)</text><text text-anchor="middle" alignment-baseline="middle" x="692.5015059683885" y="457.04991948859896" fill="rgb(0,0,0)" font-size="12">micrometer (μm)</text><text text-anchor="middle" alignment-baseline="middle" x="281.3455109539077" y="419.16349919603977" fill="rgb(0,0,0)" font-size="12">nanometer (nm)</text><text text-anchor="middle" alignment-baseline="middle" x="306.3204800088808" y="66.91287149956356" fill="rgb(0,0,0)" font-size="12">Astronomical Unit (AU)</text><text text-anchor="middle" alignment-baseline="middle" x="254.6896574521648" y="352.4742218150332" fill="rgb(0,0,0)" font-size="12">millimeter (mm)</text><text text-anchor="middle" alignment-baseline="middle" x="450.56633777238204" y="254.57520546425408" fill="rgb(0,0,0)" font-size="12">Planck length (ℓP)</text><text text-anchor="middle" alignment-baseline="middle" x="200.80855217388765" y="365.49489530948927" fill="rgb(0,0,0)" font-size="12">kilometer (km)</text><text text-anchor="middle" alignment-baseline="middle" x="122.32020208257791" y="682.2314792939868" fill="rgb(0,0,0)" font-size="12">mile (m)</text><text text-anchor="middle" alignment-baseline="middle" x="82.52406623106656" y="668.8205290604817" fill="rgb(0,0,0)" font-size="12">centimeter (cm)</text><text text-anchor="middle" alignment-baseline="middle" x="218.98148375046412" y="258.54412366697954" fill="rgb(0,0,0)" font-size="12">parsec (pc)</text><text text-anchor="middle" alignment-baseline="middle" x="190.18324529651798" y="412.6514600985164" fill="rgb(0,0,0)" font-size="12">lightyear (ly)</text><text text-anchor="middle" alignment-baseline="middle" x="353.4020203873512" y="336.5652991412065" fill="rgb(0,0,0)" font-size="12">1000.0</text><text text-anchor="middle" alignment-baseline="middle" x="528.5267597938407" y="378.3955782106328" fill="rgb(0,0,0)" font-size="12">1000000.0</text><text text-anchor="middle" alignment-baseline="middle" x="364.06436178804836" y="363.2410100936091" fill="rgb(0,0,0)" font-size="12">1.0E9</text><text text-anchor="middle" alignment-baseline="middle" x="194.2947840769688" y="467.66056050137263" fill="rgb(0,0,0)" font-size="12">5280.0</text><text text-anchor="middle" alignment-baseline="middle" x="284.53578389891186" y="463.1038220393858" fill="rgb(0,0,0)" font-size="12">100.0</text><text text-anchor="middle" alignment-baseline="middle" x="448.1725899116892" y="206.7540072561598" fill="rgb(0,0,0)" font-size="12">12.0</text><text text-anchor="middle" alignment-baseline="middle" x="194.43336804746585" y="393.78883418290553" fill="rgb(0,0,0)" font-size="12">9.4607304725808E12</text><text text-anchor="middle" alignment-baseline="middle" x="349.03809917878993" y="217.8662496642662" fill="rgb(0,0,0)" font-size="12">0.3048</text><text text-anchor="middle" alignment-baseline="middle" x="201.70254067809643" y="351.00852552590163" fill="rgb(0,0,0)" font-size="12">0.3067484662576687</text><text text-anchor="middle" alignment-baseline="middle" x="320.49789940895573" y="341.86827336581536" fill="rgb(0,0,0)" font-size="12">0.0010000000000000002</text><text text-anchor="middle" alignment-baseline="middle" x="331.84957827604035" y="341.77356853898885" fill="rgb(0,0,0)" font-size="12">0.0010000000000000002</text><text text-anchor="middle" alignment-baseline="middle" x="264.1157088748835" y="186.34568102353384" fill="rgb(0,0,0)" font-size="12">1.495978707E8</text><text text-anchor="middle" alignment-baseline="middle" x="243.01332330788492" y="246.062085785519" fill="rgb(0,0,0)" font-size="12">6.6845871222684464E-9</text><text text-anchor="middle" alignment-baseline="middle" x="196.55842942293978" y="384.35752122510013" fill="rgb(0,0,0)" font-size="12">1.0570008340246153E-13</text><text text-anchor="middle" alignment-baseline="middle" x="372.4288202339073" y="253.89728334017366" fill="rgb(0,0,0)" font-size="12">3.2808398950131235</text><text text-anchor="middle" alignment-baseline="middle" x="336.49141151000146" y="381.8818397944193" fill="rgb(0,0,0)" font-size="12">1.0000000000000009E-9</text><text text-anchor="middle" alignment-baseline="middle" x="349.0338416812974" y="353.32818170332547" fill="rgb(0,0,0)" font-size="12">1.6162E-26</text><text text-anchor="middle" alignment-baseline="middle" x="217.1985446762968" y="531.6760577130844" fill="rgb(0,0,0)" font-size="12">0.010000000000000002</text><text text-anchor="middle" alignment-baseline="middle" x="288.16923624198944" y="349.68067746248903" fill="rgb(0,0,0)" font-size="12">1000.0</text><text text-anchor="middle" alignment-baseline="middle" x="230.28207507416423" y="360.3751011050654" fill="rgb(0,0,0)" font-size="12">1.893939393939394E-4</text><text text-anchor="middle" alignment-baseline="middle" x="583.18500851869" y="404.6136919699548" fill="rgb(0,0,0)" font-size="12">1.0000000000000006E-6</text><text text-anchor="middle" alignment-baseline="middle" x="382.8780070449923" y="320.41052295696835" fill="rgb(0,0,0)" font-size="12">6.187353050365054E25</text><text text-anchor="middle" alignment-baseline="middle" x="207.46218836888568" y="320.1870582395943" fill="rgb(0,0,0)" font-size="12">3.26</text><text text-anchor="middle" alignment-baseline="middle" x="521.1305563332563" y="237.2289197280141" fill="rgb(0,0,0)" font-size="12">0.08333333333333333</text>
      Sorry, your browser does not support inline SVG.
    </svg>