<?xml version='1.0' encoding='UTF-8'?>
<svg version="1.1" width="700.0" height="700.0" onload="init(evt)" xmlns="http://www.w3.org/2000/svg">
      <style>.caption {
  font-size: 14px;
  font-family: Georgia, serif;
}
</style>
      <script type="text/ecmascript"><![CDATA[
function init(evt) {
  if ( window.svgDocument == null ) {
    svgDocument = evt.target.ownerDocument;
  }
}

function RectHover(evt, i, c) {
  rect = svgDocument.getElementById('rect' + i);
  if( c != null ) {
    rect.setAttributeNS(null, "fill", c)  
  }
  tooltiptext = svgDocument.getElementById('tooltiptext' + i);
  tooltipbg = svgDocument.getElementById('tooltipbg' + i);
  if( tooltipbg != null) {
    tbb = tooltiptext.getBBox();
    tooltipbg.setAttributeNS(null, "width", tbb.width);
    tooltipbg.setAttributeNS(null, "height", tbb.height);
    tooltipbg.setAttributeNS(null, "x", tbb.x);
    tooltipbg.setAttributeNS(null, "y", tbb.y);
    tooltipbg.setAttributeNS(null, "visibility", "visible");
  }
  tooltiptext.setAttributeNS(null,"visibility","visible");
}

function RectUnhover(evt, i, c) {
  rect = svgDocument.getElementById('rect' + i);
  if( c != null ) {
    rect.setAttributeNS(null, "fill", c)  
  }
  tooltiptext = svgDocument.getElementById('tooltiptext' + i);
  tooltiptext.setAttributeNS(null,"visibility","hidden");
  tooltipbg = svgDocument.getElementById('tooltipbg' + i);
  if( tooltipbg != null ) {
    tooltipbg.setAttributeNS(null,"visibility","hidden");
  }
}
]]></script>
      <line x1="659.1267802730869" y1="46.224281916089524" x2="462.1326190596574" y2="66.05843486453368" stroke="rgb(0,0,0)" stroke-width="1"/><line x1="659.1267802730869" y1="46.224281916089524" x2="345.27588508580607" y2="187.152953154802" stroke="rgb(0,0,0)" stroke-width="1"/><line x1="659.1267802730869" y1="46.224281916089524" x2="117.9724158098121" y2="600.8978861200208" stroke="rgb(0,0,0)" stroke-width="1"/><line x1="50.61874529106125" y1="1.0465563722425353" x2="659.1267802730869" y2="46.224281916089524" stroke="rgb(0,0,0)" stroke-width="1"/><line x1="659.1267802730869" y1="46.224281916089524" x2="408.44383349196676" y2="260.2226502861945" stroke="rgb(0,0,0)" stroke-width="1"/><line x1="345.27588508580607" y1="187.152953154802" x2="659.1267802730869" y2="46.224281916089524" stroke="rgb(0,0,0)" stroke-width="1"/><line x1="659.1267802730869" y1="46.224281916089524" x2="268.230675297676" y2="543.8112701574516" stroke="rgb(0,0,0)" stroke-width="1"/><line x1="583.0350783592097" y1="578.1137093221554" x2="451.15349079156607" y2="83.27131929567773" stroke="rgb(0,0,0)" stroke-width="1"/><line x1="408.44383349196676" y1="260.2226502861945" x2="659.1267802730869" y2="46.224281916089524" stroke="rgb(0,0,0)" stroke-width="1"/><line x1="527.4924024213611" y1="147.80335621639202" x2="408.44383349196676" y2="260.2226502861945" stroke="rgb(0,0,0)" stroke-width="1"/><line x1="583.0350783592097" y1="578.1137093221554" x2="268.230675297676" y2="543.8112701574516" stroke="rgb(0,0,0)" stroke-width="1"/><line x1="117.9724158098121" y1="600.8978861200208" x2="294.149947975257" y2="292.21594834424155" stroke="rgb(0,0,0)" stroke-width="1"/><line x1="268.230675297676" y1="543.8112701574516" x2="659.1267802730869" y2="46.224281916089524" stroke="rgb(0,0,0)" stroke-width="1"/><line x1="268.230675297676" y1="543.8112701574516" x2="583.0350783592097" y2="578.1137093221554" stroke="rgb(0,0,0)" stroke-width="1"/><line x1="451.15349079156607" y1="83.27131929567773" x2="583.0350783592097" y2="578.1137093221554" stroke="rgb(0,0,0)" stroke-width="1"/><line x1="408.44383349196676" y1="260.2226502861945" x2="527.4924024213611" y2="147.80335621639202" stroke="rgb(0,0,0)" stroke-width="1"/><line x1="462.1326190596574" y1="66.05843486453368" x2="659.1267802730869" y2="46.224281916089524" stroke="rgb(0,0,0)" stroke-width="1"/><line x1="659.1267802730869" y1="46.224281916089524" x2="50.61874529106125" y2="1.0465563722425353" stroke="rgb(0,0,0)" stroke-width="1"/><line x1="223.06676313407425" y1="465.26503309538356" x2="268.230675297676" y2="543.8112701574516" stroke="rgb(0,0,0)" stroke-width="1"/><line x1="294.149947975257" y1="292.21594834424155" x2="117.9724158098121" y2="600.8978861200208" stroke="rgb(0,0,0)" stroke-width="1"/><line x1="117.9724158098121" y1="600.8978861200208" x2="659.1267802730869" y2="46.224281916089524" stroke="rgb(0,0,0)" stroke-width="1"/><line x1="408.44383349196676" y1="260.2226502861945" x2="496.63185532981413" y2="204.01811533990076" stroke="rgb(0,0,0)" stroke-width="1"/><line x1="496.63185532981413" y1="204.01811533990076" x2="408.44383349196676" y2="260.2226502861945" stroke="rgb(0,0,0)" stroke-width="1"/><line x1="268.230675297676" y1="543.8112701574516" x2="223.06676313407425" y2="465.26503309538356" stroke="rgb(0,0,0)" stroke-width="1"/><polygon points="10,0 20,3 20,-3" fill="black" transform="translate(462.1326190596574,66.05843486453368) rotate(354.2506092728753)"/><polygon points="10,0 20,3 20,-3" fill="black" transform="translate(345.27588508580607,187.152953154802) rotate(335.8184582980597)"/><polygon points="10,0 20,3 20,-3" fill="black" transform="translate(117.9724158098121,600.8978861200208) rotate(314.293177298964)"/><polygon points="10,0 20,3 20,-3" fill="black" transform="translate(659.1267802730869,46.224281916089524) rotate(184.2460452794582)"/><polygon points="10,0 20,3 20,-3" fill="black" transform="translate(408.44383349196676,260.2226502861945) rotate(319.5138918280305)"/><polygon points="10,0 20,3 20,-3" fill="black" transform="translate(659.1267802730869,46.224281916089524) rotate(155.81845829805968)"/><polygon points="10,0 20,3 20,-3" fill="black" transform="translate(268.230675297676,543.8112701574516) rotate(308.15259148325055)"/><polygon points="10,0 20,3 20,-3" fill="black" transform="translate(451.15349079156607,83.27131929567773) rotate(75.07684006768449)"/><polygon points="10,0 20,3 20,-3" fill="black" transform="translate(659.1267802730869,46.224281916089524) rotate(139.51389182803052)"/><polygon points="10,0 20,3 20,-3" fill="black" transform="translate(408.44383349196676,260.2226502861945) rotate(316.6405114044185)"/><polygon points="10,0 20,3 20,-3" fill="black" transform="translate(268.230675297676,543.8112701574516) rotate(6.2186597102779615)"/><polygon points="10,0 20,3 20,-3" fill="black" transform="translate(294.149947975257,292.21594834424155) rotate(119.71518798139351)"/><polygon points="10,0 20,3 20,-3" fill="black" transform="translate(659.1267802730869,46.224281916089524) rotate(128.15259148325055)"/><polygon points="10,0 20,3 20,-3" fill="black" transform="translate(583.0350783592097,578.1137093221554) rotate(186.21865971027796)"/><polygon points="10,0 20,3 20,-3" fill="black" transform="translate(583.0350783592097,578.1137093221554) rotate(255.0768400676845)"/><polygon points="10,0 20,3 20,-3" fill="black" transform="translate(527.4924024213611,147.80335621639202) rotate(136.64051140441842)"/><polygon points="10,0 20,3 20,-3" fill="black" transform="translate(659.1267802730869,46.224281916089524) rotate(174.25060927287527)"/><polygon points="10,0 20,3 20,-3" fill="black" transform="translate(50.61874529106125,1.0465563722425353) rotate(4.246045279458201)"/><polygon points="10,0 20,3 20,-3" fill="black" transform="translate(268.230675297676,543.8112701574516) rotate(240.10119362946824)"/><polygon points="10,0 20,3 20,-3" fill="black" transform="translate(117.9724158098121,600.8978861200208) rotate(299.71518798139357)"/><polygon points="10,0 20,3 20,-3" fill="black" transform="translate(659.1267802730869,46.224281916089524) rotate(134.293177298964)"/><polygon points="10,0 20,3 20,-3" fill="black" transform="translate(496.63185532981413,204.01811533990076) rotate(147.4895712816352)"/><polygon points="10,0 20,3 20,-3" fill="black" transform="translate(408.44383349196676,260.2226502861945) rotate(327.4895712816352)"/><polygon points="10,0 20,3 20,-3" fill="black" transform="translate(223.06676313407425,465.26503309538356) rotate(60.10119362946823)"/><circle cx="527.4924024213611" cy="147.80335621639202" r="10" fill="rgb(255,255,0)" stroke="rgb(0,0,0)" stroke-width="1"/><circle cx="659.1267802730869" cy="46.224281916089524" r="10" fill="rgb(255,255,0)" stroke="rgb(0,0,0)" stroke-width="1"/><circle cx="408.44383349196676" cy="260.2226502861945" r="10" fill="rgb(255,255,0)" stroke="rgb(0,0,0)" stroke-width="1"/><circle cx="345.27588508580607" cy="187.152953154802" r="10" fill="rgb(255,255,0)" stroke="rgb(0,0,0)" stroke-width="1"/><circle cx="117.9724158098121" cy="600.8978861200208" r="10" fill="rgb(255,255,0)" stroke="rgb(0,0,0)" stroke-width="1"/><circle cx="223.06676313407425" cy="465.26503309538356" r="10" fill="rgb(255,255,0)" stroke="rgb(0,0,0)" stroke-width="1"/><circle cx="462.1326190596574" cy="66.05843486453368" r="10" fill="rgb(255,255,0)" stroke="rgb(0,0,0)" stroke-width="1"/><circle cx="294.149947975257" cy="292.21594834424155" r="10" fill="rgb(255,255,0)" stroke="rgb(0,0,0)" stroke-width="1"/><circle cx="268.230675297676" cy="543.8112701574516" r="10" fill="rgb(255,255,0)" stroke="rgb(0,0,0)" stroke-width="1"/><circle cx="496.63185532981413" cy="204.01811533990076" r="10" fill="rgb(255,255,0)" stroke="rgb(0,0,0)" stroke-width="1"/><circle cx="50.61874529106125" cy="1.0465563722425353" r="10" fill="rgb(255,255,0)" stroke="rgb(0,0,0)" stroke-width="1"/><circle cx="451.15349079156607" cy="83.27131929567773" r="10" fill="rgb(255,255,0)" stroke="rgb(0,0,0)" stroke-width="1"/><circle cx="583.0350783592097" cy="578.1137093221554" r="10" fill="rgb(255,255,0)" stroke="rgb(0,0,0)" stroke-width="1"/><text text-anchor="middle" alignment-baseline="middle" x="527.4924024213611" y="147.80335621639202" fill="rgb(0,0,0)" font-size="12">inch (in)</text><text text-anchor="middle" alignment-baseline="middle" x="659.1267802730869" y="46.224281916089524" fill="rgb(0,0,0)" font-size="12">meter (m)</text><text text-anchor="middle" alignment-baseline="middle" x="408.44383349196676" y="260.2226502861945" fill="rgb(0,0,0)" font-size="12">foot (ft)</text><text text-anchor="middle" alignment-baseline="middle" x="345.27588508580607" y="187.152953154802" fill="rgb(0,0,0)" font-size="12">micrometer (μm)</text><text text-anchor="middle" alignment-baseline="middle" x="117.9724158098121" y="600.8978861200208" fill="rgb(0,0,0)" font-size="12">nanometer (nm)</text><text text-anchor="middle" alignment-baseline="middle" x="223.06676313407425" y="465.26503309538356" fill="rgb(0,0,0)" font-size="12">Astronomical Unit (AU)</text><text text-anchor="middle" alignment-baseline="middle" x="462.1326190596574" y="66.05843486453368" fill="rgb(0,0,0)" font-size="12">millimeter (mm)</text><text text-anchor="middle" alignment-baseline="middle" x="294.149947975257" y="292.21594834424155" fill="rgb(0,0,0)" font-size="12">Planck length (ℓP)</text><text text-anchor="middle" alignment-baseline="middle" x="268.230675297676" y="543.8112701574516" fill="rgb(0,0,0)" font-size="12">kilometer (km)</text><text text-anchor="middle" alignment-baseline="middle" x="496.63185532981413" y="204.01811533990076" fill="rgb(0,0,0)" font-size="12">mile (m)</text><text text-anchor="middle" alignment-baseline="middle" x="50.61874529106125" y="1.0465563722425353" fill="rgb(0,0,0)" font-size="12">centimeter (cm)</text><text text-anchor="middle" alignment-baseline="middle" x="451.15349079156607" y="83.27131929567773" fill="rgb(0,0,0)" font-size="12">parsec (pc)</text><text text-anchor="middle" alignment-baseline="middle" x="583.0350783592097" y="578.1137093221554" fill="rgb(0,0,0)" font-size="12">lightyear (ly)</text><text text-anchor="middle" alignment-baseline="middle" x="540.9302835450292" y="58.124773685156015" fill="rgb(0,0,0)" font-size="12">0.0010000000000000002</text><text text-anchor="middle" alignment-baseline="middle" x="470.8162431607184" y="130.78148465931702" fill="rgb(0,0,0)" font-size="12">1.0000000000000006E-6</text><text text-anchor="middle" alignment-baseline="middle" x="334.434161595122" y="379.0284444384483" fill="rgb(0,0,0)" font-size="12">1.0000000000000009E-9</text><text text-anchor="middle" alignment-baseline="middle" x="415.7235662802766" y="28.153191698550728" fill="rgb(0,0,0)" font-size="12">100.0</text><text text-anchor="middle" alignment-baseline="middle" x="508.7170122044148" y="174.6233029381525" fill="rgb(0,0,0)" font-size="12">0.3048</text><text text-anchor="middle" alignment-baseline="middle" x="533.5864221981745" y="102.59575041157451" fill="rgb(0,0,0)" font-size="12">1000000.0</text><text text-anchor="middle" alignment-baseline="middle" x="424.58911728784034" y="344.7764748609068" fill="rgb(0,0,0)" font-size="12">1000.0</text><text text-anchor="middle" alignment-baseline="middle" x="503.90612581862354" y="281.2082753062688" fill="rgb(0,0,0)" font-size="12">3.26</text><text text-anchor="middle" alignment-baseline="middle" x="558.8536015606388" y="131.8236292641315" fill="rgb(0,0,0)" font-size="12">3.2808398950131235</text><text text-anchor="middle" alignment-baseline="middle" x="456.0632610637245" y="215.2549326582735" fill="rgb(0,0,0)" font-size="12">12.0</text><text text-anchor="middle" alignment-baseline="middle" x="394.15243652228946" y="557.5322458233331" fill="rgb(0,0,0)" font-size="12">1.0570008340246153E-13</text><text text-anchor="middle" alignment-baseline="middle" x="223.67893510907905" y="415.68872345455327" fill="rgb(0,0,0)" font-size="12">6.187353050365054E25</text><text text-anchor="middle" alignment-baseline="middle" x="502.7683382829225" y="245.2590772126344" fill="rgb(0,0,0)" font-size="12">0.0010000000000000002</text><text text-anchor="middle" alignment-baseline="middle" x="457.1133171345962" y="564.3927336562739" fill="rgb(0,0,0)" font-size="12">9.4607304725808E12</text><text text-anchor="middle" alignment-baseline="middle" x="530.2824433321523" y="380.1767533115643" fill="rgb(0,0,0)" font-size="12">0.3067484662576687</text><text text-anchor="middle" alignment-baseline="middle" x="479.8729748496034" y="192.771073844313" fill="rgb(0,0,0)" font-size="12">0.08333333333333333</text><text text-anchor="middle" alignment-baseline="middle" x="580.3291157877151" y="54.15794309546719" fill="rgb(0,0,0)" font-size="12">1000.0</text><text text-anchor="middle" alignment-baseline="middle" x="294.0219592838715" y="19.11764658978133" fill="rgb(0,0,0)" font-size="12">0.010000000000000002</text><text text-anchor="middle" alignment-baseline="middle" x="250.16511043223528" y="512.3927753326244" fill="rgb(0,0,0)" font-size="12">6.6845871222684464E-9</text><text text-anchor="middle" alignment-baseline="middle" x="188.44342867599008" y="477.4251110097091" fill="rgb(0,0,0)" font-size="12">1.6162E-26</text><text text-anchor="middle" alignment-baseline="middle" x="442.66503448777695" y="268.093723597662" fill="rgb(0,0,0)" font-size="12">1.0E9</text><text text-anchor="middle" alignment-baseline="middle" x="461.35664659467517" y="226.49992931841825" fill="rgb(0,0,0)" font-size="12">5280.0</text><text text-anchor="middle" alignment-baseline="middle" x="443.7190422271057" y="237.740836307677" fill="rgb(0,0,0)" font-size="12">1.893939393939394E-4</text><text text-anchor="middle" alignment-baseline="middle" x="241.13232799951496" y="496.6835279202108" fill="rgb(0,0,0)" font-size="12">1.495978707E8</text>
      Sorry, your browser does not support inline SVG.
    </svg>