<?xml version='1.0' encoding='UTF-8'?>
<svg version="1.1" width="700.0" height="700.0" onload="init(evt)" xmlns="http://www.w3.org/2000/svg">
      <style>.caption {
  font-size: 14px;
  font-family: Georgia, serif;
}
</style>
      <script type="text/ecmascript"><![CDATA[
function init(evt) {
  if ( window.svgDocument == null ) {
    svgDocument = evt.target.ownerDocument;
  }
}

function RectHover(evt, i, c) {
  rect = svgDocument.getElementById('rect' + i);
  if( c != null ) {
    rect.setAttributeNS(null, "fill", c)  
  }
  tooltiptext = svgDocument.getElementById('tooltiptext' + i);
  tooltipbg = svgDocument.getElementById('tooltipbg' + i);
  if( tooltipbg != null) {
    tbb = tooltiptext.getBBox();
    tooltipbg.setAttributeNS(null, "width", tbb.width);
    tooltipbg.setAttributeNS(null, "height", tbb.height);
    tooltipbg.setAttributeNS(null, "x", tbb.x);
    tooltipbg.setAttributeNS(null, "y", tbb.y);
    tooltipbg.setAttributeNS(null, "visibility", "visible");
  }
  tooltiptext.setAttributeNS(null,"visibility","visible");
}

function RectUnhover(evt, i, c) {
  rect = svgDocument.getElementById('rect' + i);
  if( c != null ) {
    rect.setAttributeNS(null, "fill", c)  
  }
  tooltiptext = svgDocument.getElementById('tooltiptext' + i);
  tooltiptext.setAttributeNS(null,"visibility","hidden");
  tooltipbg = svgDocument.getElementById('tooltipbg' + i);
  if( tooltipbg != null ) {
    tooltipbg.setAttributeNS(null,"visibility","hidden");
  }
}
]]></script>
      <line x1="407.8736527263266" y1="196.6173537730659" x2="149.30405286538974" y2="228.77950156384964" stroke="rgb(0,0,0)" stroke-width="1"/><line x1="109.5761325262699" y1="379.8286990011949" x2="407.8736527263266" y2="196.6173537730659" stroke="rgb(0,0,0)" stroke-width="1"/><line x1="25.054018349512752" y1="388.1867486050414" x2="149.15136336460608" y2="247.41098696627105" stroke="rgb(0,0,0)" stroke-width="1"/><line x1="111.28543496843366" y1="138.60008989856254" x2="633.6102250298101" y2="477.56537426235633" stroke="rgb(0,0,0)" stroke-width="1"/><line x1="407.8736527263266" y1="196.6173537730659" x2="676.7433401378097" y2="674.7112487855773" stroke="rgb(0,0,0)" stroke-width="1"/><line x1="111.28543496843366" y1="138.60008989856254" x2="407.8736527263266" y2="196.6173537730659" stroke="rgb(0,0,0)" stroke-width="1"/><line x1="25.054018349512752" y1="388.1867486050414" x2="407.8736527263266" y2="196.6173537730659" stroke="rgb(0,0,0)" stroke-width="1"/><line x1="407.8736527263266" y1="196.6173537730659" x2="616.6685339641604" y2="610.7040943770874" stroke="rgb(0,0,0)" stroke-width="1"/><line x1="279.5657736006631" y1="219.38113780932562" x2="25.054018349512752" y2="388.1867486050414" stroke="rgb(0,0,0)" stroke-width="1"/><line x1="111.28543496843366" y1="138.60008989856254" x2="132.41738821598113" y2="543.5853823464863" stroke="rgb(0,0,0)" stroke-width="1"/><line x1="149.15136336460608" y1="247.41098696627105" x2="243.3461052776052" y2="650.5468181004177" stroke="rgb(0,0,0)" stroke-width="1"/><line x1="132.41738821598113" y1="543.5853823464863" x2="111.28543496843366" y2="138.60008989856254" stroke="rgb(0,0,0)" stroke-width="1"/><line x1="25.054018349512752" y1="388.1867486050414" x2="279.5657736006631" y2="219.38113780932562" stroke="rgb(0,0,0)" stroke-width="1"/><line x1="616.6685339641604" y1="610.7040943770874" x2="407.8736527263266" y2="196.6173537730659" stroke="rgb(0,0,0)" stroke-width="1"/><line x1="407.8736527263266" y1="196.6173537730659" x2="109.5761325262699" y2="379.8286990011949" stroke="rgb(0,0,0)" stroke-width="1"/><line x1="616.6685339641604" y1="610.7040943770874" x2="6.147353006773415" y2="346.766990299839" stroke="rgb(0,0,0)" stroke-width="1"/><line x1="633.6102250298101" y1="477.56537426235633" x2="111.28543496843366" y2="138.60008989856254" stroke="rgb(0,0,0)" stroke-width="1"/><line x1="149.15136336460608" y1="247.41098696627105" x2="25.054018349512752" y2="388.1867486050414" stroke="rgb(0,0,0)" stroke-width="1"/><line x1="407.8736527263266" y1="196.6173537730659" x2="111.28543496843366" y2="138.60008989856254" stroke="rgb(0,0,0)" stroke-width="1"/><line x1="243.3461052776052" y1="650.5468181004177" x2="149.15136336460608" y2="247.41098696627105" stroke="rgb(0,0,0)" stroke-width="1"/><line x1="149.30405286538974" y1="228.77950156384964" x2="407.8736527263266" y2="196.6173537730659" stroke="rgb(0,0,0)" stroke-width="1"/><line x1="407.8736527263266" y1="196.6173537730659" x2="25.054018349512752" y2="388.1867486050414" stroke="rgb(0,0,0)" stroke-width="1"/><line x1="6.147353006773415" y1="346.766990299839" x2="616.6685339641604" y2="610.7040943770874" stroke="rgb(0,0,0)" stroke-width="1"/><line x1="676.7433401378097" y1="674.7112487855773" x2="407.8736527263266" y2="196.6173537730659" stroke="rgb(0,0,0)" stroke-width="1"/><polygon points="10,0 20,3 20,-3" fill="black" transform="translate(149.30405286538974,228.77950156384964) rotate(352.90968802967035)"/><polygon points="10,0 20,3 20,-3" fill="black" transform="translate(407.8736527263266,196.6173537730659) rotate(148.44217112766827)"/><polygon points="10,0 20,3 20,-3" fill="black" transform="translate(149.15136336460608,247.41098696627105) rotate(131.3969806972056)"/><polygon points="10,0 20,3 20,-3" fill="black" transform="translate(633.6102250298101,477.56537426235633) rotate(212.98175672458115)"/><polygon points="10,0 20,3 20,-3" fill="black" transform="translate(676.7433401378097,674.7112487855773) rotate(240.6475385984208)"/><polygon points="10,0 20,3 20,-3" fill="black" transform="translate(407.8736527263266,196.6173537730659) rotate(191.06818088811124)"/><polygon points="10,0 20,3 20,-3" fill="black" transform="translate(407.8736527263266,196.6173537730659) rotate(153.41584509874957)"/><polygon points="10,0 20,3 20,-3" fill="black" transform="translate(616.6685339641604,610.7040943770874) rotate(243.24139652896682)"/><polygon points="10,0 20,3 20,-3" fill="black" transform="translate(25.054018349512752,388.1867486050414) rotate(326.4455650871962)"/><polygon points="10,0 20,3 20,-3" fill="black" transform="translate(132.41738821598113,543.5853823464863) rotate(267.01304049904695)"/><polygon points="10,0 20,3 20,-3" fill="black" transform="translate(243.3461052776052,650.5468181004177) rotate(256.8484951098782)"/><polygon points="10,0 20,3 20,-3" fill="black" transform="translate(111.28543496843366,138.60008989856254) rotate(87.0130404990469)"/><polygon points="10,0 20,3 20,-3" fill="black" transform="translate(279.5657736006631,219.38113780932562) rotate(146.4455650871962)"/><polygon points="10,0 20,3 20,-3" fill="black" transform="translate(407.8736527263266,196.6173537730659) rotate(63.2413965289668)"/><polygon points="10,0 20,3 20,-3" fill="black" transform="translate(109.5761325262699,379.8286990011949) rotate(328.4421711276683)"/><polygon points="10,0 20,3 20,-3" fill="black" transform="translate(6.147353006773415,346.766990299839) rotate(23.379523924777203)"/><polygon points="10,0 20,3 20,-3" fill="black" transform="translate(111.28543496843366,138.60008989856254) rotate(32.981756724581146)"/><polygon points="10,0 20,3 20,-3" fill="black" transform="translate(25.054018349512752,388.1867486050414) rotate(311.3969806972056)"/><polygon points="10,0 20,3 20,-3" fill="black" transform="translate(111.28543496843366,138.60008989856254) rotate(11.068180888111272)"/><polygon points="10,0 20,3 20,-3" fill="black" transform="translate(149.15136336460608,247.41098696627105) rotate(76.84849510987817)"/><polygon points="10,0 20,3 20,-3" fill="black" transform="translate(407.8736527263266,196.6173537730659) rotate(172.90968802967035)"/><polygon points="10,0 20,3 20,-3" fill="black" transform="translate(25.054018349512752,388.1867486050414) rotate(333.41584509874957)"/><polygon points="10,0 20,3 20,-3" fill="black" transform="translate(616.6685339641604,610.7040943770874) rotate(203.37952392477723)"/><polygon points="10,0 20,3 20,-3" fill="black" transform="translate(407.8736527263266,196.6173537730659) rotate(60.64753859842078)"/><circle cx="633.6102250298101" cy="477.56537426235633" r="10" fill="rgb(255,255,0)" stroke="rgb(0,0,0)" stroke-width="1"/><circle cx="407.8736527263266" cy="196.6173537730659" r="10" fill="rgb(255,255,0)" stroke="rgb(0,0,0)" stroke-width="1"/><circle cx="111.28543496843366" cy="138.60008989856254" r="10" fill="rgb(255,255,0)" stroke="rgb(0,0,0)" stroke-width="1"/><circle cx="149.30405286538974" cy="228.77950156384964" r="10" fill="rgb(255,255,0)" stroke="rgb(0,0,0)" stroke-width="1"/><circle cx="616.6685339641604" cy="610.7040943770874" r="10" fill="rgb(255,255,0)" stroke="rgb(0,0,0)" stroke-width="1"/><circle cx="279.5657736006631" cy="219.38113780932562" r="10" fill="rgb(255,255,0)" stroke="rgb(0,0,0)" stroke-width="1"/><circle cx="676.7433401378097" cy="674.7112487855773" r="10" fill="rgb(255,255,0)" stroke="rgb(0,0,0)" stroke-width="1"/><circle cx="6.147353006773415" cy="346.766990299839" r="10" fill="rgb(255,255,0)" stroke="rgb(0,0,0)" stroke-width="1"/><circle cx="25.054018349512752" cy="388.1867486050414" r="10" fill="rgb(255,255,0)" stroke="rgb(0,0,0)" stroke-width="1"/><circle cx="132.41738821598113" cy="543.5853823464863" r="10" fill="rgb(255,255,0)" stroke="rgb(0,0,0)" stroke-width="1"/><circle cx="109.5761325262699" cy="379.8286990011949" r="10" fill="rgb(255,255,0)" stroke="rgb(0,0,0)" stroke-width="1"/><circle cx="243.3461052776052" cy="650.5468181004177" r="10" fill="rgb(255,255,0)" stroke="rgb(0,0,0)" stroke-width="1"/><circle cx="149.15136336460608" cy="247.41098696627105" r="10" fill="rgb(255,255,0)" stroke="rgb(0,0,0)" stroke-width="1"/><text text-anchor="middle" alignment-baseline="middle" x="633.6102250298101" y="477.56537426235633" fill="rgb(0,0,0)" font-size="12">inch (in)</text><text text-anchor="middle" alignment-baseline="middle" x="407.8736527263266" y="196.6173537730659" fill="rgb(0,0,0)" font-size="12">meter (m)</text><text text-anchor="middle" alignment-baseline="middle" x="111.28543496843366" y="138.60008989856254" fill="rgb(0,0,0)" font-size="12">foot (ft)</text><text text-anchor="middle" alignment-baseline="middle" x="149.30405286538974" y="228.77950156384964" fill="rgb(0,0,0)" font-size="12">micrometer (μm)</text><text text-anchor="middle" alignment-baseline="middle" x="616.6685339641604" y="610.7040943770874" fill="rgb(0,0,0)" font-size="12">nanometer (nm)</text><text text-anchor="middle" alignment-baseline="middle" x="279.5657736006631" y="219.38113780932562" fill="rgb(0,0,0)" font-size="12">Astronomical Unit (AU)</text><text text-anchor="middle" alignment-baseline="middle" x="676.7433401378097" y="674.7112487855773" fill="rgb(0,0,0)" font-size="12">millimeter (mm)</text><text text-anchor="middle" alignment-baseline="middle" x="6.147353006773415" y="346.766990299839" fill="rgb(0,0,0)" font-size="12">Planck length (ℓP)</text><text text-anchor="middle" alignment-baseline="middle" x="25.054018349512752" y="388.1867486050414" fill="rgb(0,0,0)" font-size="12">kilometer (km)</text><text text-anchor="middle" alignment-baseline="middle" x="132.41738821598113" y="543.5853823464863" fill="rgb(0,0,0)" font-size="12">mile (m)</text><text text-anchor="middle" alignment-baseline="middle" x="109.5761325262699" y="379.8286990011949" fill="rgb(0,0,0)" font-size="12">centimeter (cm)</text><text text-anchor="middle" alignment-baseline="middle" x="243.3461052776052" y="650.5468181004177" fill="rgb(0,0,0)" font-size="12">parsec (pc)</text><text text-anchor="middle" alignment-baseline="middle" x="149.15136336460608" y="247.41098696627105" fill="rgb(0,0,0)" font-size="12">lightyear (ly)</text><text text-anchor="middle" alignment-baseline="middle" x="252.7318928097645" y="215.91464244753615" fill="rgb(0,0,0)" font-size="12">1.0000000000000006E-6</text><text text-anchor="middle" alignment-baseline="middle" x="288.5546446463039" y="269.90189186431746" fill="rgb(0,0,0)" font-size="12">100.0</text><text text-anchor="middle" alignment-baseline="middle" x="99.51242535856875" y="303.7212916217792" fill="rgb(0,0,0)" font-size="12">9.4607304725808E12</text><text text-anchor="middle" alignment-baseline="middle" x="424.6803090052595" y="341.97926051683885" fill="rgb(0,0,0)" font-size="12">0.08333333333333333</text><text text-anchor="middle" alignment-baseline="middle" x="569.1954651732165" y="483.4736907805727" fill="rgb(0,0,0)" font-size="12">0.0010000000000000002</text><text text-anchor="middle" alignment-baseline="middle" x="289.23836562316944" y="173.41044822326455" fill="rgb(0,0,0)" font-size="12">3.2808398950131235</text><text text-anchor="middle" alignment-baseline="middle" x="254.74579897560105" y="273.24511170585606" fill="rgb(0,0,0)" font-size="12">0.0010000000000000002</text><text text-anchor="middle" alignment-baseline="middle" x="533.1505814690269" y="445.06939813547876" fill="rgb(0,0,0)" font-size="12">1.0000000000000009E-9</text><text text-anchor="middle" alignment-baseline="middle" x="126.85872044997288" y="320.66450428675506" fill="rgb(0,0,0)" font-size="12">6.6845871222684464E-9</text><text text-anchor="middle" alignment-baseline="middle" x="123.96460691696214" y="381.5912653673168" fill="rgb(0,0,0)" font-size="12">5280.0</text><text text-anchor="middle" alignment-baseline="middle" x="205.66820851240556" y="489.292485646759" fill="rgb(0,0,0)" font-size="12">3.26</text><text text-anchor="middle" alignment-baseline="middle" x="119.73821626745266" y="300.59420687773206" fill="rgb(0,0,0)" font-size="12">1.893939393939394E-4</text><text text-anchor="middle" alignment-baseline="middle" x="177.76107150020295" y="286.9033821276119" fill="rgb(0,0,0)" font-size="12">1.495978707E8</text><text text-anchor="middle" alignment-baseline="middle" x="491.3916052214601" y="362.2520500146745" fill="rgb(0,0,0)" font-size="12">1.0E9</text><text text-anchor="middle" alignment-baseline="middle" x="228.89514060629259" y="306.5441609099433" fill="rgb(0,0,0)" font-size="12">0.010000000000000002</text><text text-anchor="middle" alignment-baseline="middle" x="250.35582538972818" y="452.34183193073835" fill="rgb(0,0,0)" font-size="12">6.187353050365054E25</text><text text-anchor="middle" alignment-baseline="middle" x="320.2153509929842" y="274.18620364408" fill="rgb(0,0,0)" font-size="12">12.0</text><text text-anchor="middle" alignment-baseline="middle" x="74.69295635555008" y="331.87644394953327" fill="rgb(0,0,0)" font-size="12">1.0570008340246153E-13</text><text text-anchor="middle" alignment-baseline="middle" x="229.92072207159086" y="161.8069954483639" fill="rgb(0,0,0)" font-size="12">0.3048</text><text text-anchor="middle" alignment-baseline="middle" x="186.82926012980573" y="408.6653194199297" fill="rgb(0,0,0)" font-size="12">0.3067484662576687</text><text text-anchor="middle" alignment-baseline="middle" x="304.4458127819519" y="209.48221288937938" fill="rgb(0,0,0)" font-size="12">1000000.0</text><text text-anchor="middle" alignment-baseline="middle" x="178.1818721002383" y="311.5589906722512" fill="rgb(0,0,0)" font-size="12">1000.0</text><text text-anchor="middle" alignment-baseline="middle" x="372.4600615812056" y="505.129252746188" fill="rgb(0,0,0)" font-size="12">1.6162E-26</text><text text-anchor="middle" alignment-baseline="middle" x="515.4215276909199" y="387.85491177807046" fill="rgb(0,0,0)" font-size="12">1000.0</text>
      Sorry, your browser does not support inline SVG.
    </svg>