<?xml version='1.0' encoding='UTF-8'?>
<svg version="1.1" width="700.0" height="700.0" onload="init(evt)" xmlns="http://www.w3.org/2000/svg">
      <style>.caption {
  font-size: 14px;
  font-family: Georgia, serif;
}
</style>
      <script type="text/ecmascript"><![CDATA[
function init(evt) {
  if ( window.svgDocument == null ) {
    svgDocument = evt.target.ownerDocument;
  }
}

function RectHover(evt, i, c) {
  rect = svgDocument.getElementById('rect' + i);
  if( c != null ) {
    rect.setAttributeNS(null, "fill", c)  
  }
  tooltiptext = svgDocument.getElementById('tooltiptext' + i);
  tooltipbg = svgDocument.getElementById('tooltipbg' + i);
  if( tooltipbg != null) {
    tbb = tooltiptext.getBBox();
    tooltipbg.setAttributeNS(null, "width", tbb.width);
    tooltipbg.setAttributeNS(null, "height", tbb.height);
    tooltipbg.setAttributeNS(null, "x", tbb.x);
    tooltipbg.setAttributeNS(null, "y", tbb.y);
    tooltipbg.setAttributeNS(null, "visibility", "visible");
  }
  tooltiptext.setAttributeNS(null,"visibility","visible");
}

function RectUnhover(evt, i, c) {
  rect = svgDocument.getElementById('rect' + i);
  if( c != null ) {
    rect.setAttributeNS(null, "fill", c)  
  }
  tooltiptext = svgDocument.getElementById('tooltiptext' + i);
  tooltiptext.setAttributeNS(null,"visibility","hidden");
  tooltipbg = svgDocument.getElementById('tooltipbg' + i);
  if( tooltipbg != null ) {
    tooltipbg.setAttributeNS(null,"visibility","hidden");
  }
}
]]></script>
      <line x1="240.6993577517944" y1="129.036330707169" x2="614.7580804438492" y2="351.24958952580727" stroke="rgb(0,0,0)" stroke-width="1"/><line x1="310.34825491028624" y1="437.41396628878215" x2="543.1911423532615" y2="637.7951455322458" stroke="rgb(0,0,0)" stroke-width="1"/><line x1="624.3885024229854" y1="328.82008334789066" x2="251.19078228755822" y2="477.40057594423814" stroke="rgb(0,0,0)" stroke-width="1"/><line x1="240.6993577517944" y1="129.036330707169" x2="310.34825491028624" y2="437.41396628878215" stroke="rgb(0,0,0)" stroke-width="1"/><line x1="250.40151929345592" y1="300.0346127821781" x2="324.97270383808666" y2="302.9681131719199" stroke="rgb(0,0,0)" stroke-width="1"/><line x1="240.6993577517944" y1="129.036330707169" x2="324.97270383808666" y2="302.9681131719199" stroke="rgb(0,0,0)" stroke-width="1"/><line x1="240.6993577517944" y1="129.036330707169" x2="69.3341185086255" y2="679.8052190174412" stroke="rgb(0,0,0)" stroke-width="1"/><line x1="310.34825491028624" y1="437.41396628878215" x2="240.6993577517944" y2="129.036330707169" stroke="rgb(0,0,0)" stroke-width="1"/><line x1="543.1911423532615" y1="637.7951455322458" x2="348.876594305369" y2="113.1295903634578" stroke="rgb(0,0,0)" stroke-width="1"/><line x1="348.876594305369" y1="113.1295903634578" x2="543.1911423532615" y2="637.7951455322458" stroke="rgb(0,0,0)" stroke-width="1"/><line x1="614.7580804438492" y1="351.24958952580727" x2="240.6993577517944" y2="129.036330707169" stroke="rgb(0,0,0)" stroke-width="1"/><line x1="3.7333640519640388" y1="114.00024060723396" x2="310.34825491028624" y2="437.41396628878215" stroke="rgb(0,0,0)" stroke-width="1"/><line x1="624.3885024229854" y1="328.82008334789066" x2="400.6413012948374" y2="353.8629358877127" stroke="rgb(0,0,0)" stroke-width="1"/><line x1="87.88251041511323" y1="313.1375393529897" x2="240.6993577517944" y2="129.036330707169" stroke="rgb(0,0,0)" stroke-width="1"/><line x1="251.19078228755822" y1="477.40057594423814" x2="624.3885024229854" y2="328.82008334789066" stroke="rgb(0,0,0)" stroke-width="1"/><line x1="69.3341185086255" y1="679.8052190174412" x2="240.6993577517944" y2="129.036330707169" stroke="rgb(0,0,0)" stroke-width="1"/><line x1="400.6413012948374" y1="353.8629358877127" x2="624.3885024229854" y2="328.82008334789066" stroke="rgb(0,0,0)" stroke-width="1"/><line x1="240.6993577517944" y1="129.036330707169" x2="624.3885024229854" y2="328.82008334789066" stroke="rgb(0,0,0)" stroke-width="1"/><line x1="324.97270383808666" y1="302.9681131719199" x2="240.6993577517944" y2="129.036330707169" stroke="rgb(0,0,0)" stroke-width="1"/><line x1="324.97270383808666" y1="302.9681131719199" x2="250.40151929345592" y2="300.0346127821781" stroke="rgb(0,0,0)" stroke-width="1"/><line x1="624.3885024229854" y1="328.82008334789066" x2="240.6993577517944" y2="129.036330707169" stroke="rgb(0,0,0)" stroke-width="1"/><line x1="240.6993577517944" y1="129.036330707169" x2="87.88251041511323" y2="313.1375393529897" stroke="rgb(0,0,0)" stroke-width="1"/><line x1="310.34825491028624" y1="437.41396628878215" x2="3.7333640519640388" y2="114.00024060723396" stroke="rgb(0,0,0)" stroke-width="1"/><line x1="543.1911423532615" y1="637.7951455322458" x2="310.34825491028624" y2="437.41396628878215" stroke="rgb(0,0,0)" stroke-width="1"/><polygon points="10,0 20,3 20,-3" fill="black" transform="translate(614.7580804438492,351.24958952580727) rotate(210.7128454031064)"/><polygon points="10,0 20,3 20,-3" fill="black" transform="translate(543.1911423532615,637.7951455322458) rotate(220.71480486080884)"/><polygon points="10,0 20,3 20,-3" fill="black" transform="translate(251.19078228755822,477.40057594423814) rotate(338.2911096274268)"/><polygon points="10,0 20,3 20,-3" fill="black" transform="translate(310.34825491028624,437.41396628878215) rotate(257.27295060237157)"/><polygon points="10,0 20,3 20,-3" fill="black" transform="translate(324.97270383808666,302.9681131719199) rotate(182.25275450886022)"/><polygon points="10,0 20,3 20,-3" fill="black" transform="translate(324.97270383808666,302.9681131719199) rotate(244.14890536877243)"/><polygon points="10,0 20,3 20,-3" fill="black" transform="translate(69.3341185086255,679.8052190174412) rotate(287.28291334968253)"/><polygon points="10,0 20,3 20,-3" fill="black" transform="translate(240.6993577517944,129.036330707169) rotate(77.27295060237158)"/><polygon points="10,0 20,3 20,-3" fill="black" transform="translate(348.876594305369,113.1295903634578) rotate(69.67744204382859)"/><polygon points="10,0 20,3 20,-3" fill="black" transform="translate(543.1911423532615,637.7951455322458) rotate(249.6774420438286)"/><polygon points="10,0 20,3 20,-3" fill="black" transform="translate(240.6993577517944,129.036330707169) rotate(30.7128454031064)"/><polygon points="10,0 20,3 20,-3" fill="black" transform="translate(310.34825491028624,437.41396628878215) rotate(226.5273502056279)"/><polygon points="10,0 20,3 20,-3" fill="black" transform="translate(400.6413012948374,353.8629358877127) rotate(353.6137620583897)"/><polygon points="10,0 20,3 20,-3" fill="black" transform="translate(240.6993577517944,129.036330707169) rotate(129.69503990344654)"/><polygon points="10,0 20,3 20,-3" fill="black" transform="translate(624.3885024229854,328.82008334789066) rotate(158.2911096274268)"/><polygon points="10,0 20,3 20,-3" fill="black" transform="translate(240.6993577517944,129.036330707169) rotate(107.28291334968252)"/><polygon points="10,0 20,3 20,-3" fill="black" transform="translate(624.3885024229854,328.82008334789066) rotate(173.61376205838965)"/><polygon points="10,0 20,3 20,-3" fill="black" transform="translate(624.3885024229854,328.82008334789066) rotate(207.5056188224779)"/><polygon points="10,0 20,3 20,-3" fill="black" transform="translate(240.6993577517944,129.036330707169) rotate(64.1489053687724)"/><polygon points="10,0 20,3 20,-3" fill="black" transform="translate(250.40151929345592,300.0346127821781) rotate(2.252754508860221)"/><polygon points="10,0 20,3 20,-3" fill="black" transform="translate(240.6993577517944,129.036330707169) rotate(27.505618822477885)"/><polygon points="10,0 20,3 20,-3" fill="black" transform="translate(87.88251041511323,313.1375393529897) rotate(309.6950399034465)"/><polygon points="10,0 20,3 20,-3" fill="black" transform="translate(3.7333640519640388,114.00024060723396) rotate(46.527350205627926)"/><polygon points="10,0 20,3 20,-3" fill="black" transform="translate(310.34825491028624,437.41396628878215) rotate(40.71480486080887)"/><circle cx="400.6413012948374" cy="353.8629358877127" r="10" fill="rgb(255,255,0)" stroke="rgb(0,0,0)" stroke-width="1"/><circle cx="240.6993577517944" cy="129.036330707169" r="10" fill="rgb(255,255,0)" stroke="rgb(0,0,0)" stroke-width="1"/><circle cx="624.3885024229854" cy="328.82008334789066" r="10" fill="rgb(255,255,0)" stroke="rgb(0,0,0)" stroke-width="1"/><circle cx="69.3341185086255" cy="679.8052190174412" r="10" fill="rgb(255,255,0)" stroke="rgb(0,0,0)" stroke-width="1"/><circle cx="324.97270383808666" cy="302.9681131719199" r="10" fill="rgb(255,255,0)" stroke="rgb(0,0,0)" stroke-width="1"/><circle cx="3.7333640519640388" cy="114.00024060723396" r="10" fill="rgb(255,255,0)" stroke="rgb(0,0,0)" stroke-width="1"/><circle cx="614.7580804438492" cy="351.24958952580727" r="10" fill="rgb(255,255,0)" stroke="rgb(0,0,0)" stroke-width="1"/><circle cx="250.40151929345592" cy="300.0346127821781" r="10" fill="rgb(255,255,0)" stroke="rgb(0,0,0)" stroke-width="1"/><circle cx="310.34825491028624" cy="437.41396628878215" r="10" fill="rgb(255,255,0)" stroke="rgb(0,0,0)" stroke-width="1"/><circle cx="251.19078228755822" cy="477.40057594423814" r="10" fill="rgb(255,255,0)" stroke="rgb(0,0,0)" stroke-width="1"/><circle cx="87.88251041511323" cy="313.1375393529897" r="10" fill="rgb(255,255,0)" stroke="rgb(0,0,0)" stroke-width="1"/><circle cx="348.876594305369" cy="113.1295903634578" r="10" fill="rgb(255,255,0)" stroke="rgb(0,0,0)" stroke-width="1"/><circle cx="543.1911423532615" cy="637.7951455322458" r="10" fill="rgb(255,255,0)" stroke="rgb(0,0,0)" stroke-width="1"/><text text-anchor="middle" alignment-baseline="middle" x="400.6413012948374" y="353.8629358877127" fill="rgb(0,0,0)" font-size="12">inch (in)</text><text text-anchor="middle" alignment-baseline="middle" x="240.6993577517944" y="129.036330707169" fill="rgb(0,0,0)" font-size="12">meter (m)</text><text text-anchor="middle" alignment-baseline="middle" x="624.3885024229854" y="328.82008334789066" fill="rgb(0,0,0)" font-size="12">foot (ft)</text><text text-anchor="middle" alignment-baseline="middle" x="69.3341185086255" y="679.8052190174412" fill="rgb(0,0,0)" font-size="12">micrometer (μm)</text><text text-anchor="middle" alignment-baseline="middle" x="324.97270383808666" y="302.9681131719199" fill="rgb(0,0,0)" font-size="12">nanometer (nm)</text><text text-anchor="middle" alignment-baseline="middle" x="3.7333640519640388" y="114.00024060723396" fill="rgb(0,0,0)" font-size="12">Astronomical Unit (AU)</text><text text-anchor="middle" alignment-baseline="middle" x="614.7580804438492" y="351.24958952580727" fill="rgb(0,0,0)" font-size="12">millimeter (mm)</text><text text-anchor="middle" alignment-baseline="middle" x="250.40151929345592" y="300.0346127821781" fill="rgb(0,0,0)" font-size="12">Planck length (ℓP)</text><text text-anchor="middle" alignment-baseline="middle" x="310.34825491028624" y="437.41396628878215" fill="rgb(0,0,0)" font-size="12">kilometer (km)</text><text text-anchor="middle" alignment-baseline="middle" x="251.19078228755822" y="477.40057594423814" fill="rgb(0,0,0)" font-size="12">mile (m)</text><text text-anchor="middle" alignment-baseline="middle" x="87.88251041511323" y="313.1375393529897" fill="rgb(0,0,0)" font-size="12">centimeter (cm)</text><text text-anchor="middle" alignment-baseline="middle" x="348.876594305369" y="113.1295903634578" fill="rgb(0,0,0)" font-size="12">parsec (pc)</text><text text-anchor="middle" alignment-baseline="middle" x="543.1911423532615" y="637.7951455322458" fill="rgb(0,0,0)" font-size="12">lightyear (ly)</text><text text-anchor="middle" alignment-baseline="middle" x="465.13459136702727" y="262.364285998352" fill="rgb(0,0,0)" font-size="12">0.0010000000000000002</text><text text-anchor="middle" alignment-baseline="middle" x="450.0539873760714" y="557.6426738348603" fill="rgb(0,0,0)" font-size="12">9.4607304725808E12</text><text text-anchor="middle" alignment-baseline="middle" x="400.4698703417291" y="417.9683789056991" fill="rgb(0,0,0)" font-size="12">5280.0</text><text text-anchor="middle" alignment-baseline="middle" x="282.4886960468895" y="314.06291205613684" fill="rgb(0,0,0)" font-size="12">1000.0</text><text text-anchor="middle" alignment-baseline="middle" x="295.1442300202344" y="301.7947130160232" fill="rgb(0,0,0)" font-size="12">1.6162E-26</text><text text-anchor="middle" alignment-baseline="middle" x="291.26336540356976" y="233.39540018601954" fill="rgb(0,0,0)" font-size="12">1.0000000000000009E-9</text><text text-anchor="middle" alignment-baseline="middle" x="137.88021420589305" y="459.4976636933323" fill="rgb(0,0,0)" font-size="12">1.0000000000000006E-6</text><text text-anchor="middle" alignment-baseline="middle" x="268.55891661519115" y="252.38738493981427" fill="rgb(0,0,0)" font-size="12">0.0010000000000000002</text><text text-anchor="middle" alignment-baseline="middle" x="426.602413524526" y="322.99581243097305" fill="rgb(0,0,0)" font-size="12">3.26</text><text text-anchor="middle" alignment-baseline="middle" x="465.4653231341045" y="427.92892346473053" fill="rgb(0,0,0)" font-size="12">0.3067484662576687</text><text text-anchor="middle" alignment-baseline="middle" x="390.3228468286163" y="217.9216342346243" fill="rgb(0,0,0)" font-size="12">1000.0</text><text text-anchor="middle" alignment-baseline="middle" x="187.70229856695735" y="308.04847601616285" fill="rgb(0,0,0)" font-size="12">6.6845871222684464E-9</text><text text-anchor="middle" alignment-baseline="middle" x="490.1401817460966" y="343.8457948717839" fill="rgb(0,0,0)" font-size="12">0.08333333333333333</text><text text-anchor="middle" alignment-baseline="middle" x="179.57261881712193" y="202.67681416549726" fill="rgb(0,0,0)" font-size="12">100.0</text><text text-anchor="middle" alignment-baseline="middle" x="475.10941436881456" y="388.2522803864297" fill="rgb(0,0,0)" font-size="12">1.893939393939394E-4</text><text text-anchor="middle" alignment-baseline="middle" x="172.15326205452683" y="349.3438860312779" fill="rgb(0,0,0)" font-size="12">1000000.0</text><text text-anchor="middle" alignment-baseline="middle" x="534.8896219717262" y="338.8372243638195" fill="rgb(0,0,0)" font-size="12">12.0</text><text text-anchor="middle" alignment-baseline="middle" x="470.912844554509" y="248.90658229160198" fill="rgb(0,0,0)" font-size="12">0.3048</text><text text-anchor="middle" alignment-baseline="middle" x="274.4086961863113" y="198.60904369306937" fill="rgb(0,0,0)" font-size="12">1.0E9</text><text text-anchor="middle" alignment-baseline="middle" x="280.2299931113082" y="301.20801293807483" fill="rgb(0,0,0)" font-size="12">6.187353050365054E25</text><text text-anchor="middle" alignment-baseline="middle" x="394.17501562027087" y="208.94983176345767" fill="rgb(0,0,0)" font-size="12">3.2808398950131235</text><text text-anchor="middle" alignment-baseline="middle" x="149.0092493497857" y="239.4970558946614" fill="rgb(0,0,0)" font-size="12">0.010000000000000002</text><text text-anchor="middle" alignment-baseline="middle" x="126.37932039529292" y="243.36573087985326" fill="rgb(0,0,0)" font-size="12">1.495978707E8</text><text text-anchor="middle" alignment-baseline="middle" x="403.48540988747635" y="517.5664379861676" fill="rgb(0,0,0)" font-size="12">1.0570008340246153E-13</text>
      Sorry, your browser does not support inline SVG.
    </svg>