<?xml version='1.0' encoding='UTF-8'?>
<svg version="1.1" width="700.0" height="700.0" onload="init(evt)" xmlns="http://www.w3.org/2000/svg">
      <style>.caption {
  font-size: 14px;
  font-family: Georgia, serif;
}
</style>
      <script type="text/ecmascript"><![CDATA[
function init(evt) {
  if ( window.svgDocument == null ) {
    svgDocument = evt.target.ownerDocument;
  }
}

function RectHover(evt, i, c) {
  rect = svgDocument.getElementById('rect' + i);
  if( c != null ) {
    rect.setAttributeNS(null, "fill", c)  
  }
  tooltiptext = svgDocument.getElementById('tooltiptext' + i);
  tooltipbg = svgDocument.getElementById('tooltipbg' + i);
  if( tooltipbg != null) {
    tbb = tooltiptext.getBBox();
    tooltipbg.setAttributeNS(null, "width", tbb.width);
    tooltipbg.setAttributeNS(null, "height", tbb.height);
    tooltipbg.setAttributeNS(null, "x", tbb.x);
    tooltipbg.setAttributeNS(null, "y", tbb.y);
    tooltipbg.setAttributeNS(null, "visibility", "visible");
  }
  tooltiptext.setAttributeNS(null,"visibility","visible");
}

function RectUnhover(evt, i, c) {
  rect = svgDocument.getElementById('rect' + i);
  if( c != null ) {
    rect.setAttributeNS(null, "fill", c)  
  }
  tooltiptext = svgDocument.getElementById('tooltiptext' + i);
  tooltiptext.setAttributeNS(null,"visibility","hidden");
  tooltipbg = svgDocument.getElementById('tooltipbg' + i);
  if( tooltipbg != null ) {
    tooltipbg.setAttributeNS(null,"visibility","hidden");
  }
}
]]></script>
      <line x1="89.33995263870617" y1="544.219125279645" x2="526.5538231988803" y2="597.5831304705939" stroke="rgb(0,0,0)" stroke-width="1"/><line x1="343.83840865774545" y1="431.0198988712673" x2="462.2442228843606" y2="94.74629906514771" stroke="rgb(0,0,0)" stroke-width="1"/><line x1="432.67923831741996" y1="684.7650012436551" x2="629.3239080161226" y2="230.8064235498378" stroke="rgb(0,0,0)" stroke-width="1"/><line x1="526.5538231988803" y1="597.5831304705939" x2="206.13264033625575" y2="538.0167314571131" stroke="rgb(0,0,0)" stroke-width="1"/><line x1="89.33995263870617" y1="544.219125279645" x2="64.76188643879779" y2="198.84810099228588" stroke="rgb(0,0,0)" stroke-width="1"/><line x1="462.2442228843606" y1="94.74629906514771" x2="451.7192241106743" y2="466.5257712803096" stroke="rgb(0,0,0)" stroke-width="1"/><line x1="526.5538231988803" y1="597.5831304705939" x2="113.39709865812883" y2="54.297981021654806" stroke="rgb(0,0,0)" stroke-width="1"/><line x1="64.76188643879779" y1="198.84810099228588" x2="89.33995263870617" y2="544.219125279645" stroke="rgb(0,0,0)" stroke-width="1"/><line x1="462.2442228843606" y1="94.74629906514771" x2="343.83840865774545" y2="431.0198988712673" stroke="rgb(0,0,0)" stroke-width="1"/><line x1="206.13264033625575" y1="538.0167314571131" x2="526.5538231988803" y2="597.5831304705939" stroke="rgb(0,0,0)" stroke-width="1"/><line x1="74.55133392725534" y1="52.40216201704616" x2="629.3239080161226" y2="230.8064235498378" stroke="rgb(0,0,0)" stroke-width="1"/><line x1="526.5538231988803" y1="597.5831304705939" x2="629.3239080161226" y2="230.8064235498378" stroke="rgb(0,0,0)" stroke-width="1"/><line x1="308.932799924085" y1="323.9597298378334" x2="451.7192241106743" y2="466.5257712803096" stroke="rgb(0,0,0)" stroke-width="1"/><line x1="629.3239080161226" y1="230.8064235498378" x2="526.5538231988803" y2="597.5831304705939" stroke="rgb(0,0,0)" stroke-width="1"/><line x1="526.5538231988803" y1="597.5831304705939" x2="481.4815804265061" y2="268.36861563004624" stroke="rgb(0,0,0)" stroke-width="1"/><line x1="113.39709865812883" y1="54.297981021654806" x2="526.5538231988803" y2="597.5831304705939" stroke="rgb(0,0,0)" stroke-width="1"/><line x1="481.4815804265061" y1="268.36861563004624" x2="526.5538231988803" y2="597.5831304705939" stroke="rgb(0,0,0)" stroke-width="1"/><line x1="629.3239080161226" y1="230.8064235498378" x2="74.55133392725534" y2="52.40216201704616" stroke="rgb(0,0,0)" stroke-width="1"/><line x1="629.3239080161226" y1="230.8064235498378" x2="432.67923831741996" y2="684.7650012436551" stroke="rgb(0,0,0)" stroke-width="1"/><line x1="526.5538231988803" y1="597.5831304705939" x2="89.33995263870617" y2="544.219125279645" stroke="rgb(0,0,0)" stroke-width="1"/><line x1="526.5538231988803" y1="597.5831304705939" x2="451.7192241106743" y2="466.5257712803096" stroke="rgb(0,0,0)" stroke-width="1"/><line x1="451.7192241106743" y1="466.5257712803096" x2="462.2442228843606" y2="94.74629906514771" stroke="rgb(0,0,0)" stroke-width="1"/><line x1="451.7192241106743" y1="466.5257712803096" x2="526.5538231988803" y2="597.5831304705939" stroke="rgb(0,0,0)" stroke-width="1"/><line x1="451.7192241106743" y1="466.5257712803096" x2="308.932799924085" y2="323.9597298378334" stroke="rgb(0,0,0)" stroke-width="1"/><polygon points="10,0 20,3 20,-3" fill="black" transform="translate(526.5538231988803,597.5831304705939) rotate(186.9587991684656)"/><polygon points="10,0 20,3 20,-3" fill="black" transform="translate(462.2442228843606,94.74629906514771) rotate(109.39775440658859)"/><polygon points="10,0 20,3 20,-3" fill="black" transform="translate(629.3239080161226,230.8064235498378) rotate(113.42117829123964)"/><polygon points="10,0 20,3 20,-3" fill="black" transform="translate(206.13264033625575,538.0167314571131) rotate(10.531087335022022)"/><polygon points="10,0 20,3 20,-3" fill="black" transform="translate(64.76188643879779,198.84810099228588) rotate(85.92945174260105)"/><polygon points="10,0 20,3 20,-3" fill="black" transform="translate(451.7192241106743,466.5257712803096) rotate(271.6215983698726)"/><polygon points="10,0 20,3 20,-3" fill="black" transform="translate(113.39709865812883,54.297981021654806) rotate(52.74778843336239)"/><polygon points="10,0 20,3 20,-3" fill="black" transform="translate(89.33995263870617,544.219125279645) rotate(265.92945174260103)"/><polygon points="10,0 20,3 20,-3" fill="black" transform="translate(343.83840865774545,431.0198988712673) rotate(289.3977544065886)"/><polygon points="10,0 20,3 20,-3" fill="black" transform="translate(526.5538231988803,597.5831304705939) rotate(190.53108733502205)"/><polygon points="10,0 20,3 20,-3" fill="black" transform="translate(629.3239080161226,230.8064235498378) rotate(197.82679886372145)"/><polygon points="10,0 20,3 20,-3" fill="black" transform="translate(629.3239080161226,230.8064235498378) rotate(105.65276356805781)"/><polygon points="10,0 20,3 20,-3" fill="black" transform="translate(451.7192241106743,466.5257712803096) rotate(224.95574946732353)"/><polygon points="10,0 20,3 20,-3" fill="black" transform="translate(526.5538231988803,597.5831304705939) rotate(285.6527635680578)"/><polygon points="10,0 20,3 20,-3" fill="black" transform="translate(481.4815804265061,268.36861563004624) rotate(82.20419160932468)"/><polygon points="10,0 20,3 20,-3" fill="black" transform="translate(526.5538231988803,597.5831304705939) rotate(232.74778843336242)"/><polygon points="10,0 20,3 20,-3" fill="black" transform="translate(526.5538231988803,597.5831304705939) rotate(262.2041916093247)"/><polygon points="10,0 20,3 20,-3" fill="black" transform="translate(74.55133392725534,52.40216201704616) rotate(17.82679886372142)"/><polygon points="10,0 20,3 20,-3" fill="black" transform="translate(432.67923831741996,684.7650012436551) rotate(293.42117829123964)"/><polygon points="10,0 20,3 20,-3" fill="black" transform="translate(89.33995263870617,544.219125279645) rotate(6.958799168465561)"/><polygon points="10,0 20,3 20,-3" fill="black" transform="translate(451.7192241106743,466.5257712803096) rotate(60.273353822030316)"/><polygon points="10,0 20,3 20,-3" fill="black" transform="translate(462.2442228843606,94.74629906514771) rotate(91.62159836987254)"/><polygon points="10,0 20,3 20,-3" fill="black" transform="translate(526.5538231988803,597.5831304705939) rotate(240.27335382203034)"/><polygon points="10,0 20,3 20,-3" fill="black" transform="translate(308.932799924085,323.9597298378334) rotate(44.9557494673235)"/><circle cx="74.55133392725534" cy="52.40216201704616" r="10" fill="rgb(255,255,0)" stroke="rgb(0,0,0)" stroke-width="1"/><circle cx="526.5538231988803" cy="597.5831304705939" r="10" fill="rgb(255,255,0)" stroke="rgb(0,0,0)" stroke-width="1"/><circle cx="629.3239080161226" cy="230.8064235498378" r="10" fill="rgb(255,255,0)" stroke="rgb(0,0,0)" stroke-width="1"/><circle cx="206.13264033625575" cy="538.0167314571131" r="10" fill="rgb(255,255,0)" stroke="rgb(0,0,0)" stroke-width="1"/><circle cx="89.33995263870617" cy="544.219125279645" r="10" fill="rgb(255,255,0)" stroke="rgb(0,0,0)" stroke-width="1"/><circle cx="308.932799924085" cy="323.9597298378334" r="10" fill="rgb(255,255,0)" stroke="rgb(0,0,0)" stroke-width="1"/><circle cx="481.4815804265061" cy="268.36861563004624" r="10" fill="rgb(255,255,0)" stroke="rgb(0,0,0)" stroke-width="1"/><circle cx="64.76188643879779" cy="198.84810099228588" r="10" fill="rgb(255,255,0)" stroke="rgb(0,0,0)" stroke-width="1"/><circle cx="451.7192241106743" cy="466.5257712803096" r="10" fill="rgb(255,255,0)" stroke="rgb(0,0,0)" stroke-width="1"/><circle cx="432.67923831741996" cy="684.7650012436551" r="10" fill="rgb(255,255,0)" stroke="rgb(0,0,0)" stroke-width="1"/><circle cx="113.39709865812883" cy="54.297981021654806" r="10" fill="rgb(255,255,0)" stroke="rgb(0,0,0)" stroke-width="1"/><circle cx="343.83840865774545" cy="431.0198988712673" r="10" fill="rgb(255,255,0)" stroke="rgb(0,0,0)" stroke-width="1"/><circle cx="462.2442228843606" cy="94.74629906514771" r="10" fill="rgb(255,255,0)" stroke="rgb(0,0,0)" stroke-width="1"/><text text-anchor="middle" alignment-baseline="middle" x="74.55133392725534" y="52.40216201704616" fill="rgb(0,0,0)" font-size="12">inch (in)</text><text text-anchor="middle" alignment-baseline="middle" x="526.5538231988803" y="597.5831304705939" fill="rgb(0,0,0)" font-size="12">meter (m)</text><text text-anchor="middle" alignment-baseline="middle" x="629.3239080161226" y="230.8064235498378" fill="rgb(0,0,0)" font-size="12">foot (ft)</text><text text-anchor="middle" alignment-baseline="middle" x="206.13264033625575" y="538.0167314571131" fill="rgb(0,0,0)" font-size="12">micrometer (μm)</text><text text-anchor="middle" alignment-baseline="middle" x="89.33995263870617" y="544.219125279645" fill="rgb(0,0,0)" font-size="12">nanometer (nm)</text><text text-anchor="middle" alignment-baseline="middle" x="308.932799924085" y="323.9597298378334" fill="rgb(0,0,0)" font-size="12">Astronomical Unit (AU)</text><text text-anchor="middle" alignment-baseline="middle" x="481.4815804265061" y="268.36861563004624" fill="rgb(0,0,0)" font-size="12">millimeter (mm)</text><text text-anchor="middle" alignment-baseline="middle" x="64.76188643879779" y="198.84810099228588" fill="rgb(0,0,0)" font-size="12">Planck length (ℓP)</text><text text-anchor="middle" alignment-baseline="middle" x="451.7192241106743" y="466.5257712803096" fill="rgb(0,0,0)" font-size="12">kilometer (km)</text><text text-anchor="middle" alignment-baseline="middle" x="432.67923831741996" y="684.7650012436551" fill="rgb(0,0,0)" font-size="12">mile (m)</text><text text-anchor="middle" alignment-baseline="middle" x="113.39709865812883" y="54.297981021654806" fill="rgb(0,0,0)" font-size="12">centimeter (cm)</text><text text-anchor="middle" alignment-baseline="middle" x="343.83840865774545" y="431.0198988712673" fill="rgb(0,0,0)" font-size="12">parsec (pc)</text><text text-anchor="middle" alignment-baseline="middle" x="462.2442228843606" y="94.74629906514771" fill="rgb(0,0,0)" font-size="12">lightyear (ly)</text><text text-anchor="middle" alignment-baseline="middle" x="351.66827497481063" y="576.2375283942143" fill="rgb(0,0,0)" font-size="12">1.0E9</text><text text-anchor="middle" alignment-baseline="middle" x="414.88189719371456" y="229.25573898759555" fill="rgb(0,0,0)" font-size="12">0.3067484662576687</text><text text-anchor="middle" alignment-baseline="middle" x="550.6660401366415" y="412.38985462736474" fill="rgb(0,0,0)" font-size="12">1.893939393939394E-4</text><text text-anchor="middle" alignment-baseline="middle" x="334.3011134813056" y="561.8432910625054" fill="rgb(0,0,0)" font-size="12">1.0000000000000006E-6</text><text text-anchor="middle" alignment-baseline="middle" x="74.59311291876114" y="336.9965107072295" fill="rgb(0,0,0)" font-size="12">6.187353050365054E25</text><text text-anchor="middle" alignment-baseline="middle" x="455.92922362014883" y="317.8139823942448" fill="rgb(0,0,0)" font-size="12">1.0570008340246153E-13</text><text text-anchor="middle" alignment-baseline="middle" x="278.65978847442943" y="271.6120408012304" fill="rgb(0,0,0)" font-size="12">0.010000000000000002</text><text text-anchor="middle" alignment-baseline="middle" x="79.50872615874282" y="406.07071556470135" fill="rgb(0,0,0)" font-size="12">1.6162E-26</text><text text-anchor="middle" alignment-baseline="middle" x="391.2007343483915" y="296.51045894881946" fill="rgb(0,0,0)" font-size="12">3.26</text><text text-anchor="middle" alignment-baseline="middle" x="398.3853500538305" y="573.7565708652016" fill="rgb(0,0,0)" font-size="12">1000000.0</text><text text-anchor="middle" alignment-baseline="middle" x="407.4148783805757" y="159.44471893672116" fill="rgb(0,0,0)" font-size="12">12.0</text><text text-anchor="middle" alignment-baseline="middle" x="588.2158740892256" y="377.51710631814024" fill="rgb(0,0,0)" font-size="12">0.3048</text><text text-anchor="middle" alignment-baseline="middle" x="394.6046544360386" y="409.4993547033191" fill="rgb(0,0,0)" font-size="12">6.6845871222684464E-9</text><text text-anchor="middle" alignment-baseline="middle" x="567.6618571257773" y="450.8724477022914" fill="rgb(0,0,0)" font-size="12">3.2808398950131235</text><text text-anchor="middle" alignment-baseline="middle" x="499.5104775354558" y="400.0544215662653" fill="rgb(0,0,0)" font-size="12">0.0010000000000000002</text><text text-anchor="middle" alignment-baseline="middle" x="361.2911333825797" y="380.2690706910183" fill="rgb(0,0,0)" font-size="12">100.0</text><text text-anchor="middle" alignment-baseline="middle" x="508.52492608993066" y="465.89732453437483" fill="rgb(0,0,0)" font-size="12">1000.0</text><text text-anchor="middle" alignment-baseline="middle" x="296.46036356280223" y="123.76386663016281" fill="rgb(0,0,0)" font-size="12">0.08333333333333333</text><text text-anchor="middle" alignment-baseline="middle" x="511.337106196901" y="503.18157016612815" fill="rgb(0,0,0)" font-size="12">5280.0</text><text text-anchor="middle" alignment-baseline="middle" x="264.22550086277585" y="565.5647273560246" fill="rgb(0,0,0)" font-size="12">1.0000000000000009E-9</text><text text-anchor="middle" alignment-baseline="middle" x="481.65306374595673" y="518.9487149564234" fill="rgb(0,0,0)" font-size="12">1000.0</text><text text-anchor="middle" alignment-baseline="middle" x="458.0342233748861" y="243.45808795121246" fill="rgb(0,0,0)" font-size="12">9.4607304725808E12</text><text text-anchor="middle" alignment-baseline="middle" x="496.6199835635979" y="545.1601867944802" fill="rgb(0,0,0)" font-size="12">0.0010000000000000002</text><text text-anchor="middle" alignment-baseline="middle" x="366.0473695987207" y="380.98614641482385" fill="rgb(0,0,0)" font-size="12">1.495978707E8</text>
      Sorry, your browser does not support inline SVG.
    </svg>