<?xml version='1.0' encoding='UTF-8'?>
<svg version="1.1" width="700.0" height="700.0" onload="init(evt)" xmlns="http://www.w3.org/2000/svg">
      <style>.caption {
  font-size: 14px;
  font-family: Georgia, serif;
}
</style>
      <script type="text/ecmascript"><![CDATA[
function init(evt) {
  if ( window.svgDocument == null ) {
    svgDocument = evt.target.ownerDocument;
  }
}

function RectHover(evt, i, c) {
  rect = svgDocument.getElementById('rect' + i);
  if( c != null ) {
    rect.setAttributeNS(null, "fill", c)  
  }
  tooltiptext = svgDocument.getElementById('tooltiptext' + i);
  tooltipbg = svgDocument.getElementById('tooltipbg' + i);
  if( tooltipbg != null) {
    tbb = tooltiptext.getBBox();
    tooltipbg.setAttributeNS(null, "width", tbb.width);
    tooltipbg.setAttributeNS(null, "height", tbb.height);
    tooltipbg.setAttributeNS(null, "x", tbb.x);
    tooltipbg.setAttributeNS(null, "y", tbb.y);
    tooltipbg.setAttributeNS(null, "visibility", "visible");
  }
  tooltiptext.setAttributeNS(null,"visibility","visible");
}

function RectUnhover(evt, i, c) {
  rect = svgDocument.getElementById('rect' + i);
  if( c != null ) {
    rect.setAttributeNS(null, "fill", c)  
  }
  tooltiptext = svgDocument.getElementById('tooltiptext' + i);
  tooltiptext.setAttributeNS(null,"visibility","hidden");
  tooltipbg = svgDocument.getElementById('tooltipbg' + i);
  if( tooltipbg != null ) {
    tooltipbg.setAttributeNS(null,"visibility","hidden");
  }
}
]]></script>
      <line x1="86.55712400900475" y1="673.5584939673985" x2="648.786571660174" y2="665.314842907524" stroke="rgb(0,0,0)" stroke-width="1"/><line x1="648.786571660174" y1="665.314842907524" x2="208.06371050170506" y2="390.85672231057816" stroke="rgb(0,0,0)" stroke-width="1"/><line x1="648.786571660174" y1="665.314842907524" x2="86.55712400900475" y2="673.5584939673985" stroke="rgb(0,0,0)" stroke-width="1"/><line x1="255.00334993907512" y1="334.3970947790687" x2="562.9038496747966" y2="284.0694299620609" stroke="rgb(0,0,0)" stroke-width="1"/><line x1="90.88881073164447" y1="582.078482821615" x2="214.6862494911177" y2="69.34366047606953" stroke="rgb(0,0,0)" stroke-width="1"/><line x1="562.9038496747966" y1="284.0694299620609" x2="589.8611521797911" y2="93.40392434825894" stroke="rgb(0,0,0)" stroke-width="1"/><line x1="648.786571660174" y1="665.314842907524" x2="36.3501577588926" y2="629.2979177247522" stroke="rgb(0,0,0)" stroke-width="1"/><line x1="648.786571660174" y1="665.314842907524" x2="69.98620861842565" y2="169.91793474197272" stroke="rgb(0,0,0)" stroke-width="1"/><line x1="69.98620861842565" y1="169.91793474197272" x2="214.6862494911177" y2="69.34366047606953" stroke="rgb(0,0,0)" stroke-width="1"/><line x1="648.786571660174" y1="665.314842907524" x2="562.9038496747966" y2="284.0694299620609" stroke="rgb(0,0,0)" stroke-width="1"/><line x1="36.3501577588926" y1="629.2979177247522" x2="648.786571660174" y2="665.314842907524" stroke="rgb(0,0,0)" stroke-width="1"/><line x1="589.8611521797911" y1="93.40392434825894" x2="562.9038496747966" y2="284.0694299620609" stroke="rgb(0,0,0)" stroke-width="1"/><line x1="664.4785995697996" y1="286.8182952923982" x2="69.98620861842565" y2="169.91793474197272" stroke="rgb(0,0,0)" stroke-width="1"/><line x1="214.6862494911177" y1="69.34366047606953" x2="69.98620861842565" y2="169.91793474197272" stroke="rgb(0,0,0)" stroke-width="1"/><line x1="562.9038496747966" y1="284.0694299620609" x2="648.786571660174" y2="665.314842907524" stroke="rgb(0,0,0)" stroke-width="1"/><line x1="208.06371050170506" y1="390.85672231057816" x2="648.786571660174" y2="665.314842907524" stroke="rgb(0,0,0)" stroke-width="1"/><line x1="263.5212940809936" y1="666.4266576506278" x2="36.3501577588926" y2="629.2979177247522" stroke="rgb(0,0,0)" stroke-width="1"/><line x1="562.9038496747966" y1="284.0694299620609" x2="255.00334993907512" y2="334.3970947790687" stroke="rgb(0,0,0)" stroke-width="1"/><line x1="36.3501577588926" y1="629.2979177247522" x2="263.5212940809936" y2="666.4266576506278" stroke="rgb(0,0,0)" stroke-width="1"/><line x1="69.98620861842565" y1="169.91793474197272" x2="664.4785995697996" y2="286.8182952923982" stroke="rgb(0,0,0)" stroke-width="1"/><line x1="648.786571660174" y1="665.314842907524" x2="175.47175769898286" y2="266.71571061174694" stroke="rgb(0,0,0)" stroke-width="1"/><line x1="175.47175769898286" y1="266.71571061174694" x2="648.786571660174" y2="665.314842907524" stroke="rgb(0,0,0)" stroke-width="1"/><line x1="69.98620861842565" y1="169.91793474197272" x2="648.786571660174" y2="665.314842907524" stroke="rgb(0,0,0)" stroke-width="1"/><line x1="214.6862494911177" y1="69.34366047606953" x2="90.88881073164447" y2="582.078482821615" stroke="rgb(0,0,0)" stroke-width="1"/><polygon points="10,0 20,3 20,-3" fill="black" transform="translate(648.786571660174,665.314842907524) rotate(179.15996472285696)"/><polygon points="10,0 20,3 20,-3" fill="black" transform="translate(208.06371050170506,390.85672231057816) rotate(31.91239495647818)"/><polygon points="10,0 20,3 20,-3" fill="black" transform="translate(86.55712400900475,673.5584939673985) rotate(359.159964722857)"/><polygon points="10,0 20,3 20,-3" fill="black" transform="translate(562.9038496747966,284.0694299620609) rotate(170.71685038082637)"/><polygon points="10,0 20,3 20,-3" fill="black" transform="translate(214.6862494911177,69.34366047606953) rotate(103.57400981638918)"/><polygon points="10,0 20,3 20,-3" fill="black" transform="translate(589.8611521797911,93.40392434825894) rotate(98.04744242563432)"/><polygon points="10,0 20,3 20,-3" fill="black" transform="translate(36.3501577588926,629.2979177247522) rotate(3.3656452414918476)"/><polygon points="10,0 20,3 20,-3" fill="black" transform="translate(69.98620861842565,169.91793474197272) rotate(40.56031452647147)"/><polygon points="10,0 20,3 20,-3" fill="black" transform="translate(214.6862494911177,69.34366047606953) rotate(145.19863142492397)"/><polygon points="10,0 20,3 20,-3" fill="black" transform="translate(562.9038496747966,284.0694299620609) rotate(77.30495473893401)"/><polygon points="10,0 20,3 20,-3" fill="black" transform="translate(648.786571660174,665.314842907524) rotate(183.36564524149185)"/><polygon points="10,0 20,3 20,-3" fill="black" transform="translate(562.9038496747966,284.0694299620609) rotate(278.04744242563436)"/><polygon points="10,0 20,3 20,-3" fill="black" transform="translate(69.98620861842565,169.91793474197272) rotate(11.124646164151443)"/><polygon points="10,0 20,3 20,-3" fill="black" transform="translate(69.98620861842565,169.91793474197272) rotate(325.198631424924)"/><polygon points="10,0 20,3 20,-3" fill="black" transform="translate(648.786571660174,665.314842907524) rotate(257.30495473893404)"/><polygon points="10,0 20,3 20,-3" fill="black" transform="translate(648.786571660174,665.314842907524) rotate(211.91239495647818)"/><polygon points="10,0 20,3 20,-3" fill="black" transform="translate(36.3501577588926,629.2979177247522) rotate(9.282323686031418)"/><polygon points="10,0 20,3 20,-3" fill="black" transform="translate(255.00334993907512,334.3970947790687) rotate(350.7168503808264)"/><polygon points="10,0 20,3 20,-3" fill="black" transform="translate(263.5212940809936,666.4266576506278) rotate(189.28232368603145)"/><polygon points="10,0 20,3 20,-3" fill="black" transform="translate(664.4785995697996,286.8182952923982) rotate(191.12464616415147)"/><polygon points="10,0 20,3 20,-3" fill="black" transform="translate(175.47175769898286,266.71571061174694) rotate(40.10219913341783)"/><polygon points="10,0 20,3 20,-3" fill="black" transform="translate(648.786571660174,665.314842907524) rotate(220.10219913341783)"/><polygon points="10,0 20,3 20,-3" fill="black" transform="translate(648.786571660174,665.314842907524) rotate(220.5603145264715)"/><polygon points="10,0 20,3 20,-3" fill="black" transform="translate(90.88881073164447,582.078482821615) rotate(283.5740098163892)"/><circle cx="255.00334993907512" cy="334.3970947790687" r="10" fill="rgb(255,255,0)" stroke="rgb(0,0,0)" stroke-width="1"/><circle cx="648.786571660174" cy="665.314842907524" r="10" fill="rgb(255,255,0)" stroke="rgb(0,0,0)" stroke-width="1"/><circle cx="562.9038496747966" cy="284.0694299620609" r="10" fill="rgb(255,255,0)" stroke="rgb(0,0,0)" stroke-width="1"/><circle cx="175.47175769898286" cy="266.71571061174694" r="10" fill="rgb(255,255,0)" stroke="rgb(0,0,0)" stroke-width="1"/><circle cx="36.3501577588926" cy="629.2979177247522" r="10" fill="rgb(255,255,0)" stroke="rgb(0,0,0)" stroke-width="1"/><circle cx="664.4785995697996" cy="286.8182952923982" r="10" fill="rgb(255,255,0)" stroke="rgb(0,0,0)" stroke-width="1"/><circle cx="86.55712400900475" cy="673.5584939673985" r="10" fill="rgb(255,255,0)" stroke="rgb(0,0,0)" stroke-width="1"/><circle cx="263.5212940809936" cy="666.4266576506278" r="10" fill="rgb(255,255,0)" stroke="rgb(0,0,0)" stroke-width="1"/><circle cx="69.98620861842565" cy="169.91793474197272" r="10" fill="rgb(255,255,0)" stroke="rgb(0,0,0)" stroke-width="1"/><circle cx="589.8611521797911" cy="93.40392434825894" r="10" fill="rgb(255,255,0)" stroke="rgb(0,0,0)" stroke-width="1"/><circle cx="208.06371050170506" cy="390.85672231057816" r="10" fill="rgb(255,255,0)" stroke="rgb(0,0,0)" stroke-width="1"/><circle cx="90.88881073164447" cy="582.078482821615" r="10" fill="rgb(255,255,0)" stroke="rgb(0,0,0)" stroke-width="1"/><circle cx="214.6862494911177" cy="69.34366047606953" r="10" fill="rgb(255,255,0)" stroke="rgb(0,0,0)" stroke-width="1"/><text text-anchor="middle" alignment-baseline="middle" x="255.00334993907512" y="334.3970947790687" fill="rgb(0,0,0)" font-size="12">inch (in)</text><text text-anchor="middle" alignment-baseline="middle" x="648.786571660174" y="665.314842907524" fill="rgb(0,0,0)" font-size="12">meter (m)</text><text text-anchor="middle" alignment-baseline="middle" x="562.9038496747966" y="284.0694299620609" fill="rgb(0,0,0)" font-size="12">foot (ft)</text><text text-anchor="middle" alignment-baseline="middle" x="175.47175769898286" y="266.71571061174694" fill="rgb(0,0,0)" font-size="12">micrometer (μm)</text><text text-anchor="middle" alignment-baseline="middle" x="36.3501577588926" y="629.2979177247522" fill="rgb(0,0,0)" font-size="12">nanometer (nm)</text><text text-anchor="middle" alignment-baseline="middle" x="664.4785995697996" y="286.8182952923982" fill="rgb(0,0,0)" font-size="12">Astronomical Unit (AU)</text><text text-anchor="middle" alignment-baseline="middle" x="86.55712400900475" y="673.5584939673985" fill="rgb(0,0,0)" font-size="12">millimeter (mm)</text><text text-anchor="middle" alignment-baseline="middle" x="263.5212940809936" y="666.4266576506278" fill="rgb(0,0,0)" font-size="12">Planck length (ℓP)</text><text text-anchor="middle" alignment-baseline="middle" x="69.98620861842565" y="169.91793474197272" fill="rgb(0,0,0)" font-size="12">kilometer (km)</text><text text-anchor="middle" alignment-baseline="middle" x="589.8611521797911" y="93.40392434825894" fill="rgb(0,0,0)" font-size="12">mile (m)</text><text text-anchor="middle" alignment-baseline="middle" x="208.06371050170506" y="390.85672231057816" fill="rgb(0,0,0)" font-size="12">centimeter (cm)</text><text text-anchor="middle" alignment-baseline="middle" x="90.88881073164447" y="582.078482821615" fill="rgb(0,0,0)" font-size="12">parsec (pc)</text><text text-anchor="middle" alignment-baseline="middle" x="214.6862494911177" y="69.34366047606953" fill="rgb(0,0,0)" font-size="12">lightyear (ly)</text><text text-anchor="middle" alignment-baseline="middle" x="423.8947925997063" y="668.6123033314739" fill="rgb(0,0,0)" font-size="12">1000.0</text><text text-anchor="middle" alignment-baseline="middle" x="384.3528549650926" y="500.6399705493565" fill="rgb(0,0,0)" font-size="12">0.010000000000000002</text><text text-anchor="middle" alignment-baseline="middle" x="311.44890306947246" y="670.2610335434487" fill="rgb(0,0,0)" font-size="12">0.0010000000000000002</text><text text-anchor="middle" alignment-baseline="middle" x="439.743649780508" y="304.200495888864" fill="rgb(0,0,0)" font-size="12">12.0</text><text text-anchor="middle" alignment-baseline="middle" x="165.16727398732843" y="274.43758941428774" fill="rgb(0,0,0)" font-size="12">0.3067484662576687</text><text text-anchor="middle" alignment-baseline="middle" x="579.0782311777933" y="169.67012659377974" fill="rgb(0,0,0)" font-size="12">5280.0</text><text text-anchor="middle" alignment-baseline="middle" x="281.32472331940517" y="643.704687797861" fill="rgb(0,0,0)" font-size="12">1.0000000000000009E-9</text><text text-anchor="middle" alignment-baseline="middle" x="301.50635383512497" y="368.07669800819326" fill="rgb(0,0,0)" font-size="12">1000.0</text><text text-anchor="middle" alignment-baseline="middle" x="156.80623314204087" y="109.5733701824308" fill="rgb(0,0,0)" font-size="12">9.4607304725808E12</text><text text-anchor="middle" alignment-baseline="middle" x="597.2569384689475" y="436.56759514024617" fill="rgb(0,0,0)" font-size="12">0.3048</text><text text-anchor="middle" alignment-baseline="middle" x="403.8120060996614" y="650.9080728344153" fill="rgb(0,0,0)" font-size="12">1.0E9</text><text text-anchor="middle" alignment-baseline="middle" x="573.6867706767944" y="207.8032277165401" fill="rgb(0,0,0)" font-size="12">1.893939393939394E-4</text><text text-anchor="middle" alignment-baseline="middle" x="307.7831649989752" y="216.67807896214293" fill="rgb(0,0,0)" font-size="12">6.6845871222684464E-9</text><text text-anchor="middle" alignment-baseline="middle" x="127.86622496750248" y="129.68822503561142" fill="rgb(0,0,0)" font-size="12">1.0570008340246153E-13</text><text text-anchor="middle" alignment-baseline="middle" x="614.433482866023" y="512.8166777293388" fill="rgb(0,0,0)" font-size="12">3.2808398950131235</text><text text-anchor="middle" alignment-baseline="middle" x="472.4974271967865" y="555.5315946687457" fill="rgb(0,0,0)" font-size="12">100.0</text><text text-anchor="middle" alignment-baseline="middle" x="127.21861228773301" y="644.1494136951025" fill="rgb(0,0,0)" font-size="12">1.6162E-26</text><text text-anchor="middle" alignment-baseline="middle" x="378.16354983336373" y="314.2660288522656" fill="rgb(0,0,0)" font-size="12">0.08333333333333333</text><text text-anchor="middle" alignment-baseline="middle" x="172.65283955215318" y="651.5751616802776" fill="rgb(0,0,0)" font-size="12">6.187353050365054E25</text><text text-anchor="middle" alignment-baseline="middle" x="426.68164318925005" y="240.058151072228" fill="rgb(0,0,0)" font-size="12">1.495978707E8</text><text text-anchor="middle" alignment-baseline="middle" x="364.7976832834593" y="426.1553635300578" fill="rgb(0,0,0)" font-size="12">1.0000000000000006E-6</text><text text-anchor="middle" alignment-baseline="middle" x="459.4606460756975" y="505.8751899892132" fill="rgb(0,0,0)" font-size="12">1000000.0</text><text text-anchor="middle" alignment-baseline="middle" x="417.26642644347464" y="467.1560796413035" fill="rgb(0,0,0)" font-size="12">0.0010000000000000002</text><text text-anchor="middle" alignment-baseline="middle" x="140.40778623543378" y="376.9845538833968" fill="rgb(0,0,0)" font-size="12">3.26</text>
      Sorry, your browser does not support inline SVG.
    </svg>