<?xml version='1.0' encoding='UTF-8'?>
<svg version="1.1" width="700.0" height="700.0" onload="init(evt)" xmlns="http://www.w3.org/2000/svg">
      <style>.caption {
  font-size: 14px;
  font-family: Georgia, serif;
}
</style>
      <script type="text/ecmascript"><![CDATA[
function init(evt) {
  if ( window.svgDocument == null ) {
    svgDocument = evt.target.ownerDocument;
  }
}

function RectHover(evt, i, c) {
  rect = svgDocument.getElementById('rect' + i);
  if( c != null ) {
    rect.setAttributeNS(null, "fill", c)  
  }
  tooltiptext = svgDocument.getElementById('tooltiptext' + i);
  tooltipbg = svgDocument.getElementById('tooltipbg' + i);
  if( tooltipbg != null) {
    tbb = tooltiptext.getBBox();
    tooltipbg.setAttributeNS(null, "width", tbb.width);
    tooltipbg.setAttributeNS(null, "height", tbb.height);
    tooltipbg.setAttributeNS(null, "x", tbb.x);
    tooltipbg.setAttributeNS(null, "y", tbb.y);
    tooltipbg.setAttributeNS(null, "visibility", "visible");
  }
  tooltiptext.setAttributeNS(null,"visibility","visible");
}

function RectUnhover(evt, i, c) {
  rect = svgDocument.getElementById('rect' + i);
  if( c != null ) {
    rect.setAttributeNS(null, "fill", c)  
  }
  tooltiptext = svgDocument.getElementById('tooltiptext' + i);
  tooltiptext.setAttributeNS(null,"visibility","hidden");
  tooltipbg = svgDocument.getElementById('tooltipbg' + i);
  if( tooltipbg != null ) {
    tooltipbg.setAttributeNS(null,"visibility","hidden");
  }
}
]]></script>
      <line x1="537.3977162842871" y1="202.60414546837114" x2="331.34602728975597" y2="443.74029007567094" stroke="rgb(0,0,0)" stroke-width="1"/><line x1="201.5047643045773" y1="537.5608323959298" x2="156.83021262625908" y2="158.65145529088352" stroke="rgb(0,0,0)" stroke-width="1"/><line x1="122.28149965160847" y1="194.97382441400362" x2="201.5047643045773" y2="537.5608323959298" stroke="rgb(0,0,0)" stroke-width="1"/><line x1="95.1731147503364" y1="696.6138233240551" x2="28.145038776957165" y2="298.8498272928222" stroke="rgb(0,0,0)" stroke-width="1"/><line x1="331.34602728975597" y1="443.74029007567094" x2="537.3977162842871" y2="202.60414546837114" stroke="rgb(0,0,0)" stroke-width="1"/><line x1="156.83021262625908" y1="158.65145529088352" x2="201.5047643045773" y2="537.5608323959298" stroke="rgb(0,0,0)" stroke-width="1"/><line x1="28.145038776957165" y1="298.8498272928222" x2="201.5047643045773" y2="537.5608323959298" stroke="rgb(0,0,0)" stroke-width="1"/><line x1="201.5047643045773" y1="537.5608323959298" x2="28.145038776957165" y2="298.8498272928222" stroke="rgb(0,0,0)" stroke-width="1"/><line x1="318.89749286369295" y1="279.10906383580976" x2="626.2760102678471" y2="689.8012024467184" stroke="rgb(0,0,0)" stroke-width="1"/><line x1="626.2760102678471" y1="689.8012024467184" x2="318.89749286369295" y2="279.10906383580976" stroke="rgb(0,0,0)" stroke-width="1"/><line x1="28.145038776957165" y1="298.8498272928222" x2="318.89749286369295" y2="279.10906383580976" stroke="rgb(0,0,0)" stroke-width="1"/><line x1="571.5220714947042" y1="370.30797397766656" x2="44.19769903516416" y2="511.89300460434475" stroke="rgb(0,0,0)" stroke-width="1"/><line x1="87.27250000102234" y1="644.2741644293443" x2="201.5047643045773" y2="537.5608323959298" stroke="rgb(0,0,0)" stroke-width="1"/><line x1="201.5047643045773" y1="537.5608323959298" x2="122.28149965160847" y2="194.97382441400362" stroke="rgb(0,0,0)" stroke-width="1"/><line x1="571.5220714947042" y1="370.30797397766656" x2="201.5047643045773" y2="537.5608323959298" stroke="rgb(0,0,0)" stroke-width="1"/><line x1="331.34602728975597" y1="443.74029007567094" x2="600.8982086582968" y2="631.7352866145746" stroke="rgb(0,0,0)" stroke-width="1"/><line x1="331.34602728975597" y1="443.74029007567094" x2="201.5047643045773" y2="537.5608323959298" stroke="rgb(0,0,0)" stroke-width="1"/><line x1="201.5047643045773" y1="537.5608323959298" x2="87.27250000102234" y2="644.2741644293443" stroke="rgb(0,0,0)" stroke-width="1"/><line x1="318.89749286369295" y1="279.10906383580976" x2="28.145038776957165" y2="298.8498272928222" stroke="rgb(0,0,0)" stroke-width="1"/><line x1="44.19769903516416" y1="511.89300460434475" x2="571.5220714947042" y2="370.30797397766656" stroke="rgb(0,0,0)" stroke-width="1"/><line x1="28.145038776957165" y1="298.8498272928222" x2="95.1731147503364" y2="696.6138233240551" stroke="rgb(0,0,0)" stroke-width="1"/><line x1="201.5047643045773" y1="537.5608323959298" x2="331.34602728975597" y2="443.74029007567094" stroke="rgb(0,0,0)" stroke-width="1"/><line x1="600.8982086582968" y1="631.7352866145746" x2="331.34602728975597" y2="443.74029007567094" stroke="rgb(0,0,0)" stroke-width="1"/><line x1="201.5047643045773" y1="537.5608323959298" x2="571.5220714947042" y2="370.30797397766656" stroke="rgb(0,0,0)" stroke-width="1"/><polygon points="10,0 20,3 20,-3" fill="black" transform="translate(331.34602728975597,443.74029007567094) rotate(310.5140059683082)"/><polygon points="10,0 20,3 20,-3" fill="black" transform="translate(156.83021262625908,158.65145529088352) rotate(83.27569955984546)"/><polygon points="10,0 20,3 20,-3" fill="black" transform="translate(201.5047643045773,537.5608323959298) rotate(256.9792296689616)"/><polygon points="10,0 20,3 20,-3" fill="black" transform="translate(28.145038776957165,298.8498272928222) rotate(80.43482669666365)"/><polygon points="10,0 20,3 20,-3" fill="black" transform="translate(537.3977162842871,202.60414546837114) rotate(130.51400596830823)"/><polygon points="10,0 20,3 20,-3" fill="black" transform="translate(201.5047643045773,537.5608323959298) rotate(263.27569955984546)"/><polygon points="10,0 20,3 20,-3" fill="black" transform="translate(201.5047643045773,537.5608323959298) rotate(234.01162236167096)"/><polygon points="10,0 20,3 20,-3" fill="black" transform="translate(28.145038776957165,298.8498272928222) rotate(54.01162236167097)"/><polygon points="10,0 20,3 20,-3" fill="black" transform="translate(626.2760102678471,689.8012024467184) rotate(233.18734097551956)"/><polygon points="10,0 20,3 20,-3" fill="black" transform="translate(318.89749286369295,279.10906383580976) rotate(53.18734097551953)"/><polygon points="10,0 20,3 20,-3" fill="black" transform="translate(318.89749286369295,279.10906383580976) rotate(176.1158393705009)"/><polygon points="10,0 20,3 20,-3" fill="black" transform="translate(44.19769903516416,511.89300460434475) rotate(344.97071760084896)"/><polygon points="10,0 20,3 20,-3" fill="black" transform="translate(201.5047643045773,537.5608323959298) rotate(136.94906305200743)"/><polygon points="10,0 20,3 20,-3" fill="black" transform="translate(122.28149965160847,194.97382441400362) rotate(76.97922966896155)"/><polygon points="10,0 20,3 20,-3" fill="black" transform="translate(201.5047643045773,537.5608323959298) rotate(335.67638414611935)"/><polygon points="10,0 20,3 20,-3" fill="black" transform="translate(600.8982086582968,631.7352866145746) rotate(214.8932495001895)"/><polygon points="10,0 20,3 20,-3" fill="black" transform="translate(201.5047643045773,537.5608323959298) rotate(324.1489229279393)"/><polygon points="10,0 20,3 20,-3" fill="black" transform="translate(87.27250000102234,644.2741644293443) rotate(316.94906305200743)"/><polygon points="10,0 20,3 20,-3" fill="black" transform="translate(28.145038776957165,298.8498272928222) rotate(356.1158393705009)"/><polygon points="10,0 20,3 20,-3" fill="black" transform="translate(571.5220714947042,370.30797397766656) rotate(164.97071760084896)"/><polygon points="10,0 20,3 20,-3" fill="black" transform="translate(95.1731147503364,696.6138233240551) rotate(260.43482669666366)"/><polygon points="10,0 20,3 20,-3" fill="black" transform="translate(331.34602728975597,443.74029007567094) rotate(144.1489229279393)"/><polygon points="10,0 20,3 20,-3" fill="black" transform="translate(331.34602728975597,443.74029007567094) rotate(34.893249500189484)"/><polygon points="10,0 20,3 20,-3" fill="black" transform="translate(571.5220714947042,370.30797397766656) rotate(155.67638414611935)"/><circle cx="600.8982086582968" cy="631.7352866145746" r="10" fill="rgb(255,255,0)" stroke="rgb(0,0,0)" stroke-width="1"/><circle cx="201.5047643045773" cy="537.5608323959298" r="10" fill="rgb(255,255,0)" stroke="rgb(0,0,0)" stroke-width="1"/><circle cx="331.34602728975597" cy="443.74029007567094" r="10" fill="rgb(255,255,0)" stroke="rgb(0,0,0)" stroke-width="1"/><circle cx="156.83021262625908" cy="158.65145529088352" r="10" fill="rgb(255,255,0)" stroke="rgb(0,0,0)" stroke-width="1"/><circle cx="571.5220714947042" cy="370.30797397766656" r="10" fill="rgb(255,255,0)" stroke="rgb(0,0,0)" stroke-width="1"/><circle cx="95.1731147503364" cy="696.6138233240551" r="10" fill="rgb(255,255,0)" stroke="rgb(0,0,0)" stroke-width="1"/><circle cx="87.27250000102234" cy="644.2741644293443" r="10" fill="rgb(255,255,0)" stroke="rgb(0,0,0)" stroke-width="1"/><circle cx="44.19769903516416" cy="511.89300460434475" r="10" fill="rgb(255,255,0)" stroke="rgb(0,0,0)" stroke-width="1"/><circle cx="28.145038776957165" cy="298.8498272928222" r="10" fill="rgb(255,255,0)" stroke="rgb(0,0,0)" stroke-width="1"/><circle cx="537.3977162842871" cy="202.60414546837114" r="10" fill="rgb(255,255,0)" stroke="rgb(0,0,0)" stroke-width="1"/><circle cx="122.28149965160847" cy="194.97382441400362" r="10" fill="rgb(255,255,0)" stroke="rgb(0,0,0)" stroke-width="1"/><circle cx="626.2760102678471" cy="689.8012024467184" r="10" fill="rgb(255,255,0)" stroke="rgb(0,0,0)" stroke-width="1"/><circle cx="318.89749286369295" cy="279.10906383580976" r="10" fill="rgb(255,255,0)" stroke="rgb(0,0,0)" stroke-width="1"/><text text-anchor="middle" alignment-baseline="middle" x="600.8982086582968" y="631.7352866145746" fill="rgb(0,0,0)" font-size="12">inch (in)</text><text text-anchor="middle" alignment-baseline="middle" x="201.5047643045773" y="537.5608323959298" fill="rgb(0,0,0)" font-size="12">meter (m)</text><text text-anchor="middle" alignment-baseline="middle" x="331.34602728975597" y="443.74029007567094" fill="rgb(0,0,0)" font-size="12">foot (ft)</text><text text-anchor="middle" alignment-baseline="middle" x="156.83021262625908" y="158.65145529088352" fill="rgb(0,0,0)" font-size="12">micrometer (μm)</text><text text-anchor="middle" alignment-baseline="middle" x="571.5220714947042" y="370.30797397766656" fill="rgb(0,0,0)" font-size="12">nanometer (nm)</text><text text-anchor="middle" alignment-baseline="middle" x="95.1731147503364" y="696.6138233240551" fill="rgb(0,0,0)" font-size="12">Astronomical Unit (AU)</text><text text-anchor="middle" alignment-baseline="middle" x="87.27250000102234" y="644.2741644293443" fill="rgb(0,0,0)" font-size="12">millimeter (mm)</text><text text-anchor="middle" alignment-baseline="middle" x="44.19769903516416" y="511.89300460434475" fill="rgb(0,0,0)" font-size="12">Planck length (ℓP)</text><text text-anchor="middle" alignment-baseline="middle" x="28.145038776957165" y="298.8498272928222" fill="rgb(0,0,0)" font-size="12">kilometer (km)</text><text text-anchor="middle" alignment-baseline="middle" x="537.3977162842871" y="202.60414546837114" fill="rgb(0,0,0)" font-size="12">mile (m)</text><text text-anchor="middle" alignment-baseline="middle" x="122.28149965160847" y="194.97382441400362" fill="rgb(0,0,0)" font-size="12">centimeter (cm)</text><text text-anchor="middle" alignment-baseline="middle" x="626.2760102678471" y="689.8012024467184" fill="rgb(0,0,0)" font-size="12">parsec (pc)</text><text text-anchor="middle" alignment-baseline="middle" x="318.89749286369295" y="279.10906383580976" fill="rgb(0,0,0)" font-size="12">lightyear (ly)</text><text text-anchor="middle" alignment-baseline="middle" x="413.7667028875684" y="347.285832232751" fill="rgb(0,0,0)" font-size="12">1.893939393939394E-4</text><text text-anchor="middle" alignment-baseline="middle" x="174.70003329758637" y="310.21520613290204" fill="rgb(0,0,0)" font-size="12">1.0000000000000006E-6</text><text text-anchor="middle" alignment-baseline="middle" x="169.81545844338976" y="400.5260292031593" fill="rgb(0,0,0)" font-size="12">100.0</text><text text-anchor="middle" alignment-baseline="middle" x="54.95626916630886" y="457.9554257053154" fill="rgb(0,0,0)" font-size="12">6.6845871222684464E-9</text><text text-anchor="middle" alignment-baseline="middle" x="454.97704068647465" y="299.0586033112911" fill="rgb(0,0,0)" font-size="12">5280.0</text><text text-anchor="middle" alignment-baseline="middle" x="183.63494363325" y="385.99708155391124" fill="rgb(0,0,0)" font-size="12">1000000.0</text><text text-anchor="middle" alignment-baseline="middle" x="132.16087409352923" y="442.07643035468675" fill="rgb(0,0,0)" font-size="12">0.0010000000000000002</text><text text-anchor="middle" alignment-baseline="middle" x="97.48892898800521" y="394.33422933406524" fill="rgb(0,0,0)" font-size="12">1000.0</text><text text-anchor="middle" alignment-baseline="middle" x="503.32460330618545" y="525.524347002355" fill="rgb(0,0,0)" font-size="12">3.26</text><text text-anchor="middle" alignment-baseline="middle" x="441.84889982535464" y="443.38591928017325" fill="rgb(0,0,0)" font-size="12">0.3067484662576687</text><text text-anchor="middle" alignment-baseline="middle" x="202.59651122899862" y="287.00536921861476" fill="rgb(0,0,0)" font-size="12">9.4607304725808E12</text><text text-anchor="middle" alignment-baseline="middle" x="255.1274480189802" y="455.2589923536735" fill="rgb(0,0,0)" font-size="12">6.187353050365054E25</text><text text-anchor="middle" alignment-baseline="middle" x="155.8118585831553" y="580.2461652092956" fill="rgb(0,0,0)" font-size="12">1000.0</text><text text-anchor="middle" alignment-baseline="middle" x="153.970805512796" y="332.0086276067741" fill="rgb(0,0,0)" font-size="12">0.010000000000000002</text><text text-anchor="middle" alignment-baseline="middle" x="349.5116871806281" y="470.6596890286245" fill="rgb(0,0,0)" font-size="12">1.0E9</text><text text-anchor="middle" alignment-baseline="middle" x="493.0773361108804" y="556.5372879990132" fill="rgb(0,0,0)" font-size="12">0.08333333333333333</text><text text-anchor="middle" alignment-baseline="middle" x="253.44126949864875" y="500.03261546782625" fill="rgb(0,0,0)" font-size="12">3.2808398950131235</text><text text-anchor="middle" alignment-baseline="middle" x="132.9654057224443" y="601.5888316159785" fill="rgb(0,0,0)" font-size="12">0.0010000000000000002</text><text text-anchor="middle" alignment-baseline="middle" x="144.4460204116515" y="290.95352191001723" fill="rgb(0,0,0)" font-size="12">1.0570008340246153E-13</text><text text-anchor="middle" alignment-baseline="middle" x="360.59232251088815" y="426.94198622833784" fill="rgb(0,0,0)" font-size="12">1.6162E-26</text><text text-anchor="middle" alignment-baseline="middle" x="68.3618843609847" y="537.5082249115619" fill="rgb(0,0,0)" font-size="12">1.495978707E8</text><text text-anchor="middle" alignment-baseline="middle" x="279.4095220956845" y="481.26850700377446" fill="rgb(0,0,0)" font-size="12">0.3048</text><text text-anchor="middle" alignment-baseline="middle" x="439.1668998371723" y="518.9382886912324" fill="rgb(0,0,0)" font-size="12">12.0</text><text text-anchor="middle" alignment-baseline="middle" x="423.51514861865337" y="437.20911734497184" fill="rgb(0,0,0)" font-size="12">1.0000000000000009E-9</text>
      Sorry, your browser does not support inline SVG.
    </svg>