<?xml version='1.0' encoding='UTF-8'?>
<svg version="1.1" width="700.0" height="700.0" onload="init(evt)" xmlns="http://www.w3.org/2000/svg">
      <style>.caption {
  font-size: 14px;
  font-family: Georgia, serif;
}
</style>
      <script type="text/ecmascript"><![CDATA[
function init(evt) {
  if ( window.svgDocument == null ) {
    svgDocument = evt.target.ownerDocument;
  }
}

function RectHover(evt, i, c) {
  rect = svgDocument.getElementById('rect' + i);
  if( c != null ) {
    rect.setAttributeNS(null, "fill", c)  
  }
  tooltiptext = svgDocument.getElementById('tooltiptext' + i);
  tooltipbg = svgDocument.getElementById('tooltipbg' + i);
  if( tooltipbg != null) {
    tbb = tooltiptext.getBBox();
    tooltipbg.setAttributeNS(null, "width", tbb.width);
    tooltipbg.setAttributeNS(null, "height", tbb.height);
    tooltipbg.setAttributeNS(null, "x", tbb.x);
    tooltipbg.setAttributeNS(null, "y", tbb.y);
    tooltipbg.setAttributeNS(null, "visibility", "visible");
  }
  tooltiptext.setAttributeNS(null,"visibility","visible");
}

function RectUnhover(evt, i, c) {
  rect = svgDocument.getElementById('rect' + i);
  if( c != null ) {
    rect.setAttributeNS(null, "fill", c)  
  }
  tooltiptext = svgDocument.getElementById('tooltiptext' + i);
  tooltiptext.setAttributeNS(null,"visibility","hidden");
  tooltipbg = svgDocument.getElementById('tooltipbg' + i);
  if( tooltipbg != null ) {
    tooltipbg.setAttributeNS(null,"visibility","hidden");
  }
}
]]></script>
      <line x1="328.56537390009885" y1="437.3594199201455" x2="583.0993177889079" y2="290.50174585804376" stroke="rgb(0,0,0)" stroke-width="1"/><line x1="173.90703811894588" y1="290.11176989529076" x2="328.56537390009885" y2="437.3594199201455" stroke="rgb(0,0,0)" stroke-width="1"/><line x1="2.8826242902372234" y1="531.487160574192" x2="93.26323576995794" y2="525.0552952657664" stroke="rgb(0,0,0)" stroke-width="1"/><line x1="683.9066796831426" y1="687.4849345708352" x2="328.56537390009885" y2="437.3594199201455" stroke="rgb(0,0,0)" stroke-width="1"/><line x1="46.91569935228671" y1="356.70311380092545" x2="308.187807628248" y2="414.5108570133546" stroke="rgb(0,0,0)" stroke-width="1"/><line x1="583.0993177889079" y1="290.50174585804376" x2="136.2706438114247" y2="627.7597106307753" stroke="rgb(0,0,0)" stroke-width="1"/><line x1="328.56537390009885" y1="437.3594199201455" x2="173.90703811894588" y2="290.11176989529076" stroke="rgb(0,0,0)" stroke-width="1"/><line x1="2.8826242902372234" y1="531.487160574192" x2="46.91569935228671" y2="356.70311380092545" stroke="rgb(0,0,0)" stroke-width="1"/><line x1="328.56537390009885" y1="437.3594199201455" x2="683.9066796831426" y2="687.4849345708352" stroke="rgb(0,0,0)" stroke-width="1"/><line x1="2.8826242902372234" y1="531.487160574192" x2="328.56537390009885" y2="437.3594199201455" stroke="rgb(0,0,0)" stroke-width="1"/><line x1="46.91569935228671" y1="356.70311380092545" x2="2.8826242902372234" y2="531.487160574192" stroke="rgb(0,0,0)" stroke-width="1"/><line x1="136.2706438114247" y1="627.7597106307753" x2="583.0993177889079" y2="290.50174585804376" stroke="rgb(0,0,0)" stroke-width="1"/><line x1="328.56537390009885" y1="437.3594199201455" x2="392.4925339395053" y2="390.7956829975257" stroke="rgb(0,0,0)" stroke-width="1"/><line x1="93.26323576995794" y1="525.0552952657664" x2="2.8826242902372234" y2="531.487160574192" stroke="rgb(0,0,0)" stroke-width="1"/><line x1="188.10905683622218" y1="448.8674508734739" x2="666.8001137564829" y2="130.46014334517528" stroke="rgb(0,0,0)" stroke-width="1"/><line x1="666.8001137564829" y1="130.46014334517528" x2="188.10905683622218" y2="448.8674508734739" stroke="rgb(0,0,0)" stroke-width="1"/><line x1="308.187807628248" y1="414.5108570133546" x2="46.91569935228671" y2="356.70311380092545" stroke="rgb(0,0,0)" stroke-width="1"/><line x1="236.50345219900285" y1="510.3999192004987" x2="583.0993177889079" y2="290.50174585804376" stroke="rgb(0,0,0)" stroke-width="1"/><line x1="583.0993177889079" y1="290.50174585804376" x2="236.50345219900285" y2="510.3999192004987" stroke="rgb(0,0,0)" stroke-width="1"/><line x1="666.8001137564829" y1="130.46014334517528" x2="328.56537390009885" y2="437.3594199201455" stroke="rgb(0,0,0)" stroke-width="1"/><line x1="392.4925339395053" y1="390.7956829975257" x2="328.56537390009885" y2="437.3594199201455" stroke="rgb(0,0,0)" stroke-width="1"/><line x1="328.56537390009885" y1="437.3594199201455" x2="2.8826242902372234" y2="531.487160574192" stroke="rgb(0,0,0)" stroke-width="1"/><line x1="328.56537390009885" y1="437.3594199201455" x2="666.8001137564829" y2="130.46014334517528" stroke="rgb(0,0,0)" stroke-width="1"/><line x1="583.0993177889079" y1="290.50174585804376" x2="328.56537390009885" y2="437.3594199201455" stroke="rgb(0,0,0)" stroke-width="1"/><polygon points="10,0 20,3 20,-3" fill="black" transform="translate(583.0993177889079,290.50174585804376) rotate(150.01647453028409)"/><polygon points="10,0 20,3 20,-3" fill="black" transform="translate(328.56537390009885,437.3594199201455) rotate(223.5938809077325)"/><polygon points="10,0 20,3 20,-3" fill="black" transform="translate(93.26323576995794,525.0552952657664) rotate(175.92945309859184)"/><polygon points="10,0 20,3 20,-3" fill="black" transform="translate(328.56537390009885,437.3594199201455) rotate(35.14179737243364)"/><polygon points="10,0 20,3 20,-3" fill="black" transform="translate(308.187807628248,414.5108570133546) rotate(192.4759834723706)"/><polygon points="10,0 20,3 20,-3" fill="black" transform="translate(136.2706438114247,627.7597106307753) rotate(322.95517438583624)"/><polygon points="10,0 20,3 20,-3" fill="black" transform="translate(173.90703811894588,290.11176989529076) rotate(43.59388090773251)"/><polygon points="10,0 20,3 20,-3" fill="black" transform="translate(46.91569935228671,356.70311380092545) rotate(104.14018903323874)"/><polygon points="10,0 20,3 20,-3" fill="black" transform="translate(683.9066796831426,687.4849345708352) rotate(215.14179737243364)"/><polygon points="10,0 20,3 20,-3" fill="black" transform="translate(328.56537390009885,437.3594199201455) rotate(163.87982513290535)"/><polygon points="10,0 20,3 20,-3" fill="black" transform="translate(2.8826242902372234,531.487160574192) rotate(284.14018903323876)"/><polygon points="10,0 20,3 20,-3" fill="black" transform="translate(583.0993177889079,290.50174585804376) rotate(142.95517438583624)"/><polygon points="10,0 20,3 20,-3" fill="black" transform="translate(392.4925339395053,390.7956829975257) rotate(143.9308774814803)"/><polygon points="10,0 20,3 20,-3" fill="black" transform="translate(2.8826242902372234,531.487160574192) rotate(355.9294530985918)"/><polygon points="10,0 20,3 20,-3" fill="black" transform="translate(666.8001137564829,130.46014334517528) rotate(146.36964134872645)"/><polygon points="10,0 20,3 20,-3" fill="black" transform="translate(188.10905683622218,448.8674508734739) rotate(326.3696413487265)"/><polygon points="10,0 20,3 20,-3" fill="black" transform="translate(46.91569935228671,356.70311380092545) rotate(12.475983472370558)"/><polygon points="10,0 20,3 20,-3" fill="black" transform="translate(583.0993177889079,290.50174585804376) rotate(147.60686532378006)"/><polygon points="10,0 20,3 20,-3" fill="black" transform="translate(236.50345219900285,510.3999192004987) rotate(327.6068653237801)"/><polygon points="10,0 20,3 20,-3" fill="black" transform="translate(328.56537390009885,437.3594199201455) rotate(317.78078635672784)"/><polygon points="10,0 20,3 20,-3" fill="black" transform="translate(328.56537390009885,437.3594199201455) rotate(323.9308774814803)"/><polygon points="10,0 20,3 20,-3" fill="black" transform="translate(2.8826242902372234,531.487160574192) rotate(343.87982513290535)"/><polygon points="10,0 20,3 20,-3" fill="black" transform="translate(666.8001137564829,130.46014334517528) rotate(137.7807863567278)"/><polygon points="10,0 20,3 20,-3" fill="black" transform="translate(328.56537390009885,437.3594199201455) rotate(330.0164745302841)"/><circle cx="236.50345219900285" cy="510.3999192004987" r="10" fill="rgb(255,255,0)" stroke="rgb(0,0,0)" stroke-width="1"/><circle cx="328.56537390009885" cy="437.3594199201455" r="10" fill="rgb(255,255,0)" stroke="rgb(0,0,0)" stroke-width="1"/><circle cx="583.0993177889079" cy="290.50174585804376" r="10" fill="rgb(255,255,0)" stroke="rgb(0,0,0)" stroke-width="1"/><circle cx="392.4925339395053" cy="390.7956829975257" r="10" fill="rgb(255,255,0)" stroke="rgb(0,0,0)" stroke-width="1"/><circle cx="666.8001137564829" cy="130.46014334517528" r="10" fill="rgb(255,255,0)" stroke="rgb(0,0,0)" stroke-width="1"/><circle cx="93.26323576995794" cy="525.0552952657664" r="10" fill="rgb(255,255,0)" stroke="rgb(0,0,0)" stroke-width="1"/><circle cx="173.90703811894588" cy="290.11176989529076" r="10" fill="rgb(255,255,0)" stroke="rgb(0,0,0)" stroke-width="1"/><circle cx="188.10905683622218" cy="448.8674508734739" r="10" fill="rgb(255,255,0)" stroke="rgb(0,0,0)" stroke-width="1"/><circle cx="2.8826242902372234" cy="531.487160574192" r="10" fill="rgb(255,255,0)" stroke="rgb(0,0,0)" stroke-width="1"/><circle cx="136.2706438114247" cy="627.7597106307753" r="10" fill="rgb(255,255,0)" stroke="rgb(0,0,0)" stroke-width="1"/><circle cx="683.9066796831426" cy="687.4849345708352" r="10" fill="rgb(255,255,0)" stroke="rgb(0,0,0)" stroke-width="1"/><circle cx="308.187807628248" cy="414.5108570133546" r="10" fill="rgb(255,255,0)" stroke="rgb(0,0,0)" stroke-width="1"/><circle cx="46.91569935228671" cy="356.70311380092545" r="10" fill="rgb(255,255,0)" stroke="rgb(0,0,0)" stroke-width="1"/><text text-anchor="middle" alignment-baseline="middle" x="236.50345219900285" y="510.3999192004987" fill="rgb(0,0,0)" font-size="12">inch (in)</text><text text-anchor="middle" alignment-baseline="middle" x="328.56537390009885" y="437.3594199201455" fill="rgb(0,0,0)" font-size="12">meter (m)</text><text text-anchor="middle" alignment-baseline="middle" x="583.0993177889079" y="290.50174585804376" fill="rgb(0,0,0)" font-size="12">foot (ft)</text><text text-anchor="middle" alignment-baseline="middle" x="392.4925339395053" y="390.7956829975257" fill="rgb(0,0,0)" font-size="12">micrometer (μm)</text><text text-anchor="middle" alignment-baseline="middle" x="666.8001137564829" y="130.46014334517528" fill="rgb(0,0,0)" font-size="12">nanometer (nm)</text><text text-anchor="middle" alignment-baseline="middle" x="93.26323576995794" y="525.0552952657664" fill="rgb(0,0,0)" font-size="12">Astronomical Unit (AU)</text><text text-anchor="middle" alignment-baseline="middle" x="173.90703811894588" y="290.11176989529076" fill="rgb(0,0,0)" font-size="12">millimeter (mm)</text><text text-anchor="middle" alignment-baseline="middle" x="188.10905683622218" y="448.8674508734739" fill="rgb(0,0,0)" font-size="12">Planck length (ℓP)</text><text text-anchor="middle" alignment-baseline="middle" x="2.8826242902372234" y="531.487160574192" fill="rgb(0,0,0)" font-size="12">kilometer (km)</text><text text-anchor="middle" alignment-baseline="middle" x="136.2706438114247" y="627.7597106307753" fill="rgb(0,0,0)" font-size="12">mile (m)</text><text text-anchor="middle" alignment-baseline="middle" x="683.9066796831426" y="687.4849345708352" fill="rgb(0,0,0)" font-size="12">centimeter (cm)</text><text text-anchor="middle" alignment-baseline="middle" x="308.187807628248" y="414.5108570133546" fill="rgb(0,0,0)" font-size="12">parsec (pc)</text><text text-anchor="middle" alignment-baseline="middle" x="46.91569935228671" y="356.70311380092545" fill="rgb(0,0,0)" font-size="12">lightyear (ly)</text><text text-anchor="middle" alignment-baseline="middle" x="481.2857402333843" y="349.24481548288446" fill="rgb(0,0,0)" font-size="12">0.3048</text><text text-anchor="middle" alignment-baseline="middle" x="266.70203958763767" y="378.4603599102036" fill="rgb(0,0,0)" font-size="12">1000.0</text><text text-anchor="middle" alignment-baseline="middle" x="57.11099117806966" y="527.6280413891367" fill="rgb(0,0,0)" font-size="12">1.495978707E8</text><text text-anchor="middle" alignment-baseline="middle" x="470.70189621331633" y="537.4096257804214" fill="rgb(0,0,0)" font-size="12">100.0</text><text text-anchor="middle" alignment-baseline="middle" x="203.67896431786346" y="391.38775972838295" fill="rgb(0,0,0)" font-size="12">3.26</text><text text-anchor="middle" alignment-baseline="middle" x="315.002113402418" y="492.8565247216827" fill="rgb(0,0,0)" font-size="12">5280.0</text><text text-anchor="middle" alignment-baseline="middle" x="235.77037243140705" y="349.01082990523264" fill="rgb(0,0,0)" font-size="12">0.0010000000000000002</text><text text-anchor="middle" alignment-baseline="middle" x="29.302469327466913" y="426.61673251023205" fill="rgb(0,0,0)" font-size="12">9.4607304725808E12</text><text text-anchor="middle" alignment-baseline="middle" x="541.7701573699251" y="587.4347287105593" fill="rgb(0,0,0)" font-size="12">0.010000000000000002</text><text text-anchor="middle" alignment-baseline="middle" x="198.29227405615418" y="475.0105161817641" fill="rgb(0,0,0)" font-size="12">0.0010000000000000002</text><text text-anchor="middle" alignment-baseline="middle" x="20.49585431505702" y="461.5735418648854" fill="rgb(0,0,0)" font-size="12">1.0570008340246153E-13</text><text text-anchor="middle" alignment-baseline="middle" x="404.3678481979146" y="425.4049317671364" fill="rgb(0,0,0)" font-size="12">1.893939393939394E-4</text><text text-anchor="middle" alignment-baseline="middle" x="366.9216699237427" y="409.42117776657363" fill="rgb(0,0,0)" font-size="12">1.0000000000000006E-6</text><text text-anchor="middle" alignment-baseline="middle" x="39.03486888212551" y="528.9144144508217" fill="rgb(0,0,0)" font-size="12">6.6845871222684464E-9</text><text text-anchor="middle" alignment-baseline="middle" x="475.3236909883786" y="257.8230663564948" fill="rgb(0,0,0)" font-size="12">1.6162E-26</text><text text-anchor="middle" alignment-baseline="middle" x="379.5854796043265" y="321.5045278621544" fill="rgb(0,0,0)" font-size="12">6.187353050365054E25</text><text text-anchor="middle" alignment-baseline="middle" x="151.42454266267123" y="379.8262110858971" fill="rgb(0,0,0)" font-size="12">0.3067484662576687</text><text text-anchor="middle" alignment-baseline="middle" x="444.4609715529459" y="378.46101519502577" fill="rgb(0,0,0)" font-size="12">12.0</text><text text-anchor="middle" alignment-baseline="middle" x="375.14179843496487" y="422.4406498635167" fill="rgb(0,0,0)" font-size="12">0.08333333333333333</text><text text-anchor="middle" alignment-baseline="middle" x="463.85926984265245" y="314.5997092901574" fill="rgb(0,0,0)" font-size="12">1.0E9</text><text text-anchor="middle" alignment-baseline="middle" x="354.13623791586144" y="418.7339251510976" fill="rgb(0,0,0)" font-size="12">1000000.0</text><text text-anchor="middle" alignment-baseline="middle" x="133.1557241341819" y="493.8360643125734" fill="rgb(0,0,0)" font-size="12">1000.0</text><text text-anchor="middle" alignment-baseline="middle" x="531.5062178139293" y="253.21985397516337" fill="rgb(0,0,0)" font-size="12">1.0000000000000009E-9</text><text text-anchor="middle" alignment-baseline="middle" x="430.3789514556225" y="378.6163502953048" fill="rgb(0,0,0)" font-size="12">3.2808398950131235</text>
      Sorry, your browser does not support inline SVG.
    </svg>