<?xml version='1.0' encoding='UTF-8'?>
<svg version="1.1" width="700.0" height="700.0" onload="init(evt)" xmlns="http://www.w3.org/2000/svg">
      <style>.caption {
  font-size: 14px;
  font-family: Georgia, serif;
}
</style>
      <script type="text/ecmascript"><![CDATA[
function init(evt) {
  if ( window.svgDocument == null ) {
    svgDocument = evt.target.ownerDocument;
  }
}

function RectHover(evt, i, c) {
  rect = svgDocument.getElementById('rect' + i);
  if( c != null ) {
    rect.setAttributeNS(null, "fill", c)  
  }
  tooltiptext = svgDocument.getElementById('tooltiptext' + i);
  tooltipbg = svgDocument.getElementById('tooltipbg' + i);
  if( tooltipbg != null) {
    tbb = tooltiptext.getBBox();
    tooltipbg.setAttributeNS(null, "width", tbb.width);
    tooltipbg.setAttributeNS(null, "height", tbb.height);
    tooltipbg.setAttributeNS(null, "x", tbb.x);
    tooltipbg.setAttributeNS(null, "y", tbb.y);
    tooltipbg.setAttributeNS(null, "visibility", "visible");
  }
  tooltiptext.setAttributeNS(null,"visibility","visible");
}

function RectUnhover(evt, i, c) {
  rect = svgDocument.getElementById('rect' + i);
  if( c != null ) {
    rect.setAttributeNS(null, "fill", c)  
  }
  tooltiptext = svgDocument.getElementById('tooltiptext' + i);
  tooltiptext.setAttributeNS(null,"visibility","hidden");
  tooltipbg = svgDocument.getElementById('tooltipbg' + i);
  if( tooltipbg != null ) {
    tooltipbg.setAttributeNS(null,"visibility","hidden");
  }
}
]]></script>
      <line x1="405.1753069534141" y1="470.5374693278582" x2="473.09512402787783" y2="615.5517319068083" stroke="rgb(0,0,0)" stroke-width="1"/><line x1="293.2645971826047" y1="126.1210765245724" x2="80.7999121933952" y2="694.7395058516177" stroke="rgb(0,0,0)" stroke-width="1"/><line x1="473.09512402787783" y1="615.5517319068083" x2="170.90978114579767" y2="462.80440773878826" stroke="rgb(0,0,0)" stroke-width="1"/><line x1="80.7999121933952" y1="694.7395058516177" x2="669.6590373328993" y2="354.73272146492485" stroke="rgb(0,0,0)" stroke-width="1"/><line x1="669.6590373328993" y1="354.73272146492485" x2="80.7999121933952" y2="694.7395058516177" stroke="rgb(0,0,0)" stroke-width="1"/><line x1="669.6590373328993" y1="354.73272146492485" x2="111.95746249659494" y2="329.3386221944143" stroke="rgb(0,0,0)" stroke-width="1"/><line x1="455.5665714877398" y1="412.7709674498523" x2="669.6590373328993" y2="354.73272146492485" stroke="rgb(0,0,0)" stroke-width="1"/><line x1="25.020952093251424" y1="51.68058820866038" x2="379.12160039330587" y2="201.49862898965475" stroke="rgb(0,0,0)" stroke-width="1"/><line x1="379.12160039330587" y1="201.49862898965475" x2="25.020952093251424" y2="51.68058820866038" stroke="rgb(0,0,0)" stroke-width="1"/><line x1="231.30468117143516" y1="141.27069842509076" x2="642.8241514884119" y2="502.26794439640685" stroke="rgb(0,0,0)" stroke-width="1"/><line x1="170.90978114579767" y1="462.80440773878826" x2="473.09512402787783" y2="615.5517319068083" stroke="rgb(0,0,0)" stroke-width="1"/><line x1="473.09512402787783" y1="615.5517319068083" x2="669.6590373328993" y2="354.73272146492485" stroke="rgb(0,0,0)" stroke-width="1"/><line x1="111.95746249659494" y1="329.3386221944143" x2="669.6590373328993" y2="354.73272146492485" stroke="rgb(0,0,0)" stroke-width="1"/><line x1="473.09512402787783" y1="615.5517319068083" x2="405.1753069534141" y2="470.5374693278582" stroke="rgb(0,0,0)" stroke-width="1"/><line x1="669.6590373328993" y1="354.73272146492485" x2="473.09512402787783" y2="615.5517319068083" stroke="rgb(0,0,0)" stroke-width="1"/><line x1="669.6590373328993" y1="354.73272146492485" x2="455.5665714877398" y2="412.7709674498523" stroke="rgb(0,0,0)" stroke-width="1"/><line x1="80.7999121933952" y1="694.7395058516177" x2="379.12160039330587" y2="201.49862898965475" stroke="rgb(0,0,0)" stroke-width="1"/><line x1="669.6590373328993" y1="354.73272146492485" x2="231.30468117143516" y2="141.27069842509076" stroke="rgb(0,0,0)" stroke-width="1"/><line x1="669.6590373328993" y1="354.73272146492485" x2="467.74066077817923" y2="539.0550634053798" stroke="rgb(0,0,0)" stroke-width="1"/><line x1="231.30468117143516" y1="141.27069842509076" x2="669.6590373328993" y2="354.73272146492485" stroke="rgb(0,0,0)" stroke-width="1"/><line x1="642.8241514884119" y1="502.26794439640685" x2="231.30468117143516" y2="141.27069842509076" stroke="rgb(0,0,0)" stroke-width="1"/><line x1="467.74066077817923" y1="539.0550634053798" x2="669.6590373328993" y2="354.73272146492485" stroke="rgb(0,0,0)" stroke-width="1"/><line x1="379.12160039330587" y1="201.49862898965475" x2="80.7999121933952" y2="694.7395058516177" stroke="rgb(0,0,0)" stroke-width="1"/><line x1="80.7999121933952" y1="694.7395058516177" x2="293.2645971826047" y2="126.1210765245724" stroke="rgb(0,0,0)" stroke-width="1"/><polygon points="10,0 20,3 20,-3" fill="black" transform="translate(473.09512402787783,615.5517319068083) rotate(244.90318420083577)"/><polygon points="10,0 20,3 20,-3" fill="black" transform="translate(80.7999121933952,694.7395058516177) rotate(290.48823820489815)"/><polygon points="10,0 20,3 20,-3" fill="black" transform="translate(170.90978114579767,462.80440773878826) rotate(26.815485093144616)"/><polygon points="10,0 20,3 20,-3" fill="black" transform="translate(669.6590373328993,354.73272146492485) rotate(149.99789764461596)"/><polygon points="10,0 20,3 20,-3" fill="black" transform="translate(80.7999121933952,694.7395058516177) rotate(329.99789764461593)"/><polygon points="10,0 20,3 20,-3" fill="black" transform="translate(111.95746249659494,329.3386221944143) rotate(2.6070760688834866)"/><polygon points="10,0 20,3 20,-3" fill="black" transform="translate(669.6590373328993,354.73272146492485) rotate(164.83225198306025)"/><polygon points="10,0 20,3 20,-3" fill="black" transform="translate(379.12160039330587,201.49862898965475) rotate(202.9329551752586)"/><polygon points="10,0 20,3 20,-3" fill="black" transform="translate(25.020952093251424,51.68058820866038) rotate(22.9329551752586)"/><polygon points="10,0 20,3 20,-3" fill="black" transform="translate(642.8241514884119,502.26794439640685) rotate(221.258211973488)"/><polygon points="10,0 20,3 20,-3" fill="black" transform="translate(473.09512402787783,615.5517319068083) rotate(206.81548509314464)"/><polygon points="10,0 20,3 20,-3" fill="black" transform="translate(669.6590373328993,354.73272146492485) rotate(127.00317927722907)"/><polygon points="10,0 20,3 20,-3" fill="black" transform="translate(669.6590373328993,354.73272146492485) rotate(182.60707606888352)"/><polygon points="10,0 20,3 20,-3" fill="black" transform="translate(405.1753069534141,470.5374693278582) rotate(64.90318420083574)"/><polygon points="10,0 20,3 20,-3" fill="black" transform="translate(473.09512402787783,615.5517319068083) rotate(307.00317927722904)"/><polygon points="10,0 20,3 20,-3" fill="black" transform="translate(455.5665714877398,412.7709674498523) rotate(344.83225198306025)"/><polygon points="10,0 20,3 20,-3" fill="black" transform="translate(379.12160039330587,201.49862898965475) rotate(121.16636575619931)"/><polygon points="10,0 20,3 20,-3" fill="black" transform="translate(231.30468117143516,141.27069842509076) rotate(25.96433377756736)"/><polygon points="10,0 20,3 20,-3" fill="black" transform="translate(467.74066077817923,539.0550634053798) rotate(317.6084300849437)"/><polygon points="10,0 20,3 20,-3" fill="black" transform="translate(669.6590373328993,354.73272146492485) rotate(205.96433377756736)"/><polygon points="10,0 20,3 20,-3" fill="black" transform="translate(231.30468117143516,141.27069842509076) rotate(41.25821197348796)"/><polygon points="10,0 20,3 20,-3" fill="black" transform="translate(669.6590373328993,354.73272146492485) rotate(137.60843008494368)"/><polygon points="10,0 20,3 20,-3" fill="black" transform="translate(80.7999121933952,694.7395058516177) rotate(301.1663657561993)"/><polygon points="10,0 20,3 20,-3" fill="black" transform="translate(293.2645971826047,126.1210765245724) rotate(110.48823820489812)"/><circle cx="170.90978114579767" cy="462.80440773878826" r="10" fill="rgb(255,255,0)" stroke="rgb(0,0,0)" stroke-width="1"/><circle cx="669.6590373328993" cy="354.73272146492485" r="10" fill="rgb(255,255,0)" stroke="rgb(0,0,0)" stroke-width="1"/><circle cx="473.09512402787783" cy="615.5517319068083" r="10" fill="rgb(255,255,0)" stroke="rgb(0,0,0)" stroke-width="1"/><circle cx="467.74066077817923" cy="539.0550634053798" r="10" fill="rgb(255,255,0)" stroke="rgb(0,0,0)" stroke-width="1"/><circle cx="231.30468117143516" cy="141.27069842509076" r="10" fill="rgb(255,255,0)" stroke="rgb(0,0,0)" stroke-width="1"/><circle cx="293.2645971826047" cy="126.1210765245724" r="10" fill="rgb(255,255,0)" stroke="rgb(0,0,0)" stroke-width="1"/><circle cx="111.95746249659494" cy="329.3386221944143" r="10" fill="rgb(255,255,0)" stroke="rgb(0,0,0)" stroke-width="1"/><circle cx="642.8241514884119" cy="502.26794439640685" r="10" fill="rgb(255,255,0)" stroke="rgb(0,0,0)" stroke-width="1"/><circle cx="80.7999121933952" cy="694.7395058516177" r="10" fill="rgb(255,255,0)" stroke="rgb(0,0,0)" stroke-width="1"/><circle cx="405.1753069534141" cy="470.5374693278582" r="10" fill="rgb(255,255,0)" stroke="rgb(0,0,0)" stroke-width="1"/><circle cx="455.5665714877398" cy="412.7709674498523" r="10" fill="rgb(255,255,0)" stroke="rgb(0,0,0)" stroke-width="1"/><circle cx="25.020952093251424" cy="51.68058820866038" r="10" fill="rgb(255,255,0)" stroke="rgb(0,0,0)" stroke-width="1"/><circle cx="379.12160039330587" cy="201.49862898965475" r="10" fill="rgb(255,255,0)" stroke="rgb(0,0,0)" stroke-width="1"/><text text-anchor="middle" alignment-baseline="middle" x="170.90978114579767" y="462.80440773878826" fill="rgb(0,0,0)" font-size="12">inch (in)</text><text text-anchor="middle" alignment-baseline="middle" x="669.6590373328993" y="354.73272146492485" fill="rgb(0,0,0)" font-size="12">meter (m)</text><text text-anchor="middle" alignment-baseline="middle" x="473.09512402787783" y="615.5517319068083" fill="rgb(0,0,0)" font-size="12">foot (ft)</text><text text-anchor="middle" alignment-baseline="middle" x="467.74066077817923" y="539.0550634053798" fill="rgb(0,0,0)" font-size="12">micrometer (μm)</text><text text-anchor="middle" alignment-baseline="middle" x="231.30468117143516" y="141.27069842509076" fill="rgb(0,0,0)" font-size="12">nanometer (nm)</text><text text-anchor="middle" alignment-baseline="middle" x="293.2645971826047" y="126.1210765245724" fill="rgb(0,0,0)" font-size="12">Astronomical Unit (AU)</text><text text-anchor="middle" alignment-baseline="middle" x="111.95746249659494" y="329.3386221944143" fill="rgb(0,0,0)" font-size="12">millimeter (mm)</text><text text-anchor="middle" alignment-baseline="middle" x="642.8241514884119" y="502.26794439640685" fill="rgb(0,0,0)" font-size="12">Planck length (ℓP)</text><text text-anchor="middle" alignment-baseline="middle" x="80.7999121933952" y="694.7395058516177" fill="rgb(0,0,0)" font-size="12">kilometer (km)</text><text text-anchor="middle" alignment-baseline="middle" x="405.1753069534141" y="470.5374693278582" fill="rgb(0,0,0)" font-size="12">mile (m)</text><text text-anchor="middle" alignment-baseline="middle" x="455.5665714877398" y="412.7709674498523" fill="rgb(0,0,0)" font-size="12">centimeter (cm)</text><text text-anchor="middle" alignment-baseline="middle" x="25.020952093251424" y="51.68058820866038" fill="rgb(0,0,0)" font-size="12">parsec (pc)</text><text text-anchor="middle" alignment-baseline="middle" x="379.12160039330587" y="201.49862898965475" fill="rgb(0,0,0)" font-size="12">lightyear (ly)</text><text text-anchor="middle" alignment-baseline="middle" x="445.92719719809236" y="557.5460268752282" fill="rgb(0,0,0)" font-size="12">1.893939393939394E-4</text><text text-anchor="middle" alignment-baseline="middle" x="165.78578618907898" y="467.2921341207996" fill="rgb(0,0,0)" font-size="12">6.6845871222684464E-9</text><text text-anchor="middle" alignment-baseline="middle" x="291.7839182986297" y="523.9033374059962" fill="rgb(0,0,0)" font-size="12">0.08333333333333333</text><text text-anchor="middle" alignment-baseline="middle" x="434.1153872770976" y="490.735435219602" fill="rgb(0,0,0)" font-size="12">0.0010000000000000002</text><text text-anchor="middle" alignment-baseline="middle" x="316.34356224919685" y="558.7367920969405" fill="rgb(0,0,0)" font-size="12">1000.0</text><text text-anchor="middle" alignment-baseline="middle" x="335.0380924311167" y="339.4962619026185" fill="rgb(0,0,0)" font-size="12">0.0010000000000000002</text><text text-anchor="middle" alignment-baseline="middle" x="584.0220509948355" y="377.94801985889586" fill="rgb(0,0,0)" font-size="12">100.0</text><text text-anchor="middle" alignment-baseline="middle" x="237.48134107328409" y="141.571412677257" fill="rgb(0,0,0)" font-size="12">0.3067484662576687</text><text text-anchor="middle" alignment-baseline="middle" x="166.6612114132732" y="111.60780452105814" fill="rgb(0,0,0)" font-size="12">3.26</text><text text-anchor="middle" alignment-baseline="middle" x="478.2163633616212" y="357.8690460078804" fill="rgb(0,0,0)" font-size="12">6.187353050365054E25</text><text text-anchor="middle" alignment-baseline="middle" x="352.22098687504575" y="554.4528022396003" fill="rgb(0,0,0)" font-size="12">12.0</text><text text-anchor="middle" alignment-baseline="middle" x="591.0334720108907" y="459.0603256416782" fill="rgb(0,0,0)" font-size="12">3.2808398950131235</text><text text-anchor="middle" alignment-baseline="middle" x="446.5784073983775" y="344.57508175672064" fill="rgb(0,0,0)" font-size="12">1000.0</text><text text-anchor="middle" alignment-baseline="middle" x="432.3432337831996" y="528.5431743594382" fill="rgb(0,0,0)" font-size="12">5280.0</text><text text-anchor="middle" alignment-baseline="middle" x="551.7206893498865" y="511.2241277300549" fill="rgb(0,0,0)" font-size="12">0.3048</text><text text-anchor="middle" alignment-baseline="middle" x="541.2035578258036" y="389.5556690558813" fill="rgb(0,0,0)" font-size="12">0.010000000000000002</text><text text-anchor="middle" alignment-baseline="middle" x="259.7929251133416" y="398.79497973443995" fill="rgb(0,0,0)" font-size="12">9.4607304725808E12</text><text text-anchor="middle" alignment-baseline="middle" x="406.6464236360208" y="226.6555076410244" fill="rgb(0,0,0)" font-size="12">1.0000000000000009E-9</text><text text-anchor="middle" alignment-baseline="middle" x="548.5080114000673" y="465.3261266291978" fill="rgb(0,0,0)" font-size="12">1.0000000000000006E-6</text><text text-anchor="middle" alignment-baseline="middle" x="494.31729486831364" y="269.3479122489912" fill="rgb(0,0,0)" font-size="12">1.0E9</text><text text-anchor="middle" alignment-baseline="middle" x="395.91246929822586" y="285.6695968136172" fill="rgb(0,0,0)" font-size="12">1.6162E-26</text><text text-anchor="middle" alignment-baseline="middle" x="588.8916867110113" y="428.4616582411068" fill="rgb(0,0,0)" font-size="12">1000000.0</text><text text-anchor="middle" alignment-baseline="middle" x="200.12858747335946" y="497.4431551068325" fill="rgb(0,0,0)" font-size="12">1.0570008340246153E-13</text><text text-anchor="middle" alignment-baseline="middle" x="208.2787231869209" y="353.5684482553905" fill="rgb(0,0,0)" font-size="12">1.495978707E8</text>
      Sorry, your browser does not support inline SVG.
    </svg>