<?xml version='1.0' encoding='UTF-8'?>
<svg version="1.1" width="700.0" height="700.0" onload="init(evt)" xmlns="http://www.w3.org/2000/svg">
      <style>.caption {
  font-size: 14px;
  font-family: Georgia, serif;
}
</style>
      <script type="text/ecmascript"><![CDATA[
function init(evt) {
  if ( window.svgDocument == null ) {
    svgDocument = evt.target.ownerDocument;
  }
}

function RectHover(evt, i, c) {
  rect = svgDocument.getElementById('rect' + i);
  if( c != null ) {
    rect.setAttributeNS(null, "fill", c)  
  }
  tooltiptext = svgDocument.getElementById('tooltiptext' + i);
  tooltipbg = svgDocument.getElementById('tooltipbg' + i);
  if( tooltipbg != null) {
    tbb = tooltiptext.getBBox();
    tooltipbg.setAttributeNS(null, "width", tbb.width);
    tooltipbg.setAttributeNS(null, "height", tbb.height);
    tooltipbg.setAttributeNS(null, "x", tbb.x);
    tooltipbg.setAttributeNS(null, "y", tbb.y);
    tooltipbg.setAttributeNS(null, "visibility", "visible");
  }
  tooltiptext.setAttributeNS(null,"visibility","visible");
}

function RectUnhover(evt, i, c) {
  rect = svgDocument.getElementById('rect' + i);
  if( c != null ) {
    rect.setAttributeNS(null, "fill", c)  
  }
  tooltiptext = svgDocument.getElementById('tooltiptext' + i);
  tooltiptext.setAttributeNS(null,"visibility","hidden");
  tooltipbg = svgDocument.getElementById('tooltipbg' + i);
  if( tooltipbg != null ) {
    tooltipbg.setAttributeNS(null,"visibility","hidden");
  }
}
]]></script>
      <line x1="488.3998177074051" y1="364.18199983271137" x2="358.4774618669493" y2="621.2129898360757" stroke="rgb(0,0,0)" stroke-width="1"/><line x1="204.75379789522367" y1="256.3282373589053" x2="358.4774618669493" y2="621.2129898360757" stroke="rgb(0,0,0)" stroke-width="1"/><line x1="166.20842735706987" y1="48.2121156326013" x2="204.75379789522367" y2="256.3282373589053" stroke="rgb(0,0,0)" stroke-width="1"/><line x1="582.7696521203488" y1="367.4407268038398" x2="358.4774618669493" y2="621.2129898360757" stroke="rgb(0,0,0)" stroke-width="1"/><line x1="358.4774618669493" y1="621.2129898360757" x2="582.7696521203488" y2="367.4407268038398" stroke="rgb(0,0,0)" stroke-width="1"/><line x1="204.75379789522367" y1="256.3282373589053" x2="683.0364854515674" y2="66.58849304611131" stroke="rgb(0,0,0)" stroke-width="1"/><line x1="683.0364854515674" y1="66.58849304611131" x2="204.75379789522367" y2="256.3282373589053" stroke="rgb(0,0,0)" stroke-width="1"/><line x1="609.6079970378797" y1="508.83483113741727" x2="204.75379789522367" y2="256.3282373589053" stroke="rgb(0,0,0)" stroke-width="1"/><line x1="358.4774618669493" y1="621.2129898360757" x2="204.75379789522367" y2="256.3282373589053" stroke="rgb(0,0,0)" stroke-width="1"/><line x1="609.6079970378797" y1="508.83483113741727" x2="671.2569044497876" y2="2.2581873951524223" stroke="rgb(0,0,0)" stroke-width="1"/><line x1="358.4774618669493" y1="621.2129898360757" x2="488.3998177074051" y2="364.18199983271137" stroke="rgb(0,0,0)" stroke-width="1"/><line x1="609.6079970378797" y1="508.83483113741727" x2="154.31031392957723" y2="436.52850827595245" stroke="rgb(0,0,0)" stroke-width="1"/><line x1="154.31031392957723" y1="436.52850827595245" x2="67.20140982203057" y2="86.31211892459703" stroke="rgb(0,0,0)" stroke-width="1"/><line x1="204.75379789522367" y1="256.3282373589053" x2="609.6079970378797" y2="508.83483113741727" stroke="rgb(0,0,0)" stroke-width="1"/><line x1="154.31031392957723" y1="436.52850827595245" x2="609.6079970378797" y2="508.83483113741727" stroke="rgb(0,0,0)" stroke-width="1"/><line x1="663.6253638535882" y1="409.8801627987462" x2="683.0364854515674" y2="66.58849304611131" stroke="rgb(0,0,0)" stroke-width="1"/><line x1="204.75379789522367" y1="256.3282373589053" x2="166.20842735706987" y2="48.2121156326013" stroke="rgb(0,0,0)" stroke-width="1"/><line x1="204.75379789522367" y1="256.3282373589053" x2="424.32915727180153" y2="473.47514269820994" stroke="rgb(0,0,0)" stroke-width="1"/><line x1="204.75379789522367" y1="256.3282373589053" x2="174.413239169549" y2="629.6514285957635" stroke="rgb(0,0,0)" stroke-width="1"/><line x1="174.413239169549" y1="629.6514285957635" x2="204.75379789522367" y2="256.3282373589053" stroke="rgb(0,0,0)" stroke-width="1"/><line x1="671.2569044497876" y1="2.2581873951524223" x2="609.6079970378797" y2="508.83483113741727" stroke="rgb(0,0,0)" stroke-width="1"/><line x1="67.20140982203057" y1="86.31211892459703" x2="154.31031392957723" y2="436.52850827595245" stroke="rgb(0,0,0)" stroke-width="1"/><line x1="683.0364854515674" y1="66.58849304611131" x2="663.6253638535882" y2="409.8801627987462" stroke="rgb(0,0,0)" stroke-width="1"/><line x1="424.32915727180153" y1="473.47514269820994" x2="204.75379789522367" y2="256.3282373589053" stroke="rgb(0,0,0)" stroke-width="1"/><polygon points="10,0 20,3 20,-3" fill="black" transform="translate(358.4774618669493,621.2129898360757) rotate(296.8153885564387)"/><polygon points="10,0 20,3 20,-3" fill="black" transform="translate(358.4774618669493,621.2129898360757) rotate(247.1546123819058)"/><polygon points="10,0 20,3 20,-3" fill="black" transform="translate(204.75379789522367,256.3282373589053) rotate(259.5070994722149)"/><polygon points="10,0 20,3 20,-3" fill="black" transform="translate(358.4774618669493,621.2129898360757) rotate(311.4712966578023)"/><polygon points="10,0 20,3 20,-3" fill="black" transform="translate(582.7696521203488,367.4407268038398) rotate(131.47129665780236)"/><polygon points="10,0 20,3 20,-3" fill="black" transform="translate(683.0364854515674,66.58849304611131) rotate(158.3612546252699)"/><polygon points="10,0 20,3 20,-3" fill="black" transform="translate(204.75379789522367,256.3282373589053) rotate(338.3612546252699)"/><polygon points="10,0 20,3 20,-3" fill="black" transform="translate(204.75379789522367,256.3282373589053) rotate(31.951691159419255)"/><polygon points="10,0 20,3 20,-3" fill="black" transform="translate(204.75379789522367,256.3282373589053) rotate(67.15461238190579)"/><polygon points="10,0 20,3 20,-3" fill="black" transform="translate(671.2569044497876,2.2581873951524223) rotate(96.93861030101016)"/><polygon points="10,0 20,3 20,-3" fill="black" transform="translate(488.3998177074051,364.18199983271137) rotate(116.81538855643865)"/><polygon points="10,0 20,3 20,-3" fill="black" transform="translate(154.31031392957723,436.52850827595245) rotate(9.023845623305931)"/><polygon points="10,0 20,3 20,-3" fill="black" transform="translate(67.20140982203057,86.31211892459703) rotate(76.0323267438488)"/><polygon points="10,0 20,3 20,-3" fill="black" transform="translate(609.6079970378797,508.83483113741727) rotate(211.95169115941928)"/><polygon points="10,0 20,3 20,-3" fill="black" transform="translate(609.6079970378797,508.83483113741727) rotate(189.02384562330596)"/><polygon points="10,0 20,3 20,-3" fill="black" transform="translate(683.0364854515674,66.58849304611131) rotate(93.23629267445587)"/><polygon points="10,0 20,3 20,-3" fill="black" transform="translate(166.20842735706987,48.2121156326013) rotate(79.50709947221489)"/><polygon points="10,0 20,3 20,-3" fill="black" transform="translate(424.32915727180153,473.47514269820994) rotate(224.68140224522034)"/><polygon points="10,0 20,3 20,-3" fill="black" transform="translate(174.413239169549,629.6514285957635) rotate(274.64630570926045)"/><polygon points="10,0 20,3 20,-3" fill="black" transform="translate(204.75379789522367,256.3282373589053) rotate(94.64630570926046)"/><polygon points="10,0 20,3 20,-3" fill="black" transform="translate(609.6079970378797,508.83483113741727) rotate(276.93861030101016)"/><polygon points="10,0 20,3 20,-3" fill="black" transform="translate(154.31031392957723,436.52850827595245) rotate(256.0323267438488)"/><polygon points="10,0 20,3 20,-3" fill="black" transform="translate(663.6253638535882,409.8801627987462) rotate(273.23629267445585)"/><polygon points="10,0 20,3 20,-3" fill="black" transform="translate(204.75379789522367,256.3282373589053) rotate(44.68140224522034)"/><circle cx="488.3998177074051" cy="364.18199983271137" r="10" fill="rgb(255,255,0)" stroke="rgb(0,0,0)" stroke-width="1"/><circle cx="204.75379789522367" cy="256.3282373589053" r="10" fill="rgb(255,255,0)" stroke="rgb(0,0,0)" stroke-width="1"/><circle cx="358.4774618669493" cy="621.2129898360757" r="10" fill="rgb(255,255,0)" stroke="rgb(0,0,0)" stroke-width="1"/><circle cx="166.20842735706987" cy="48.2121156326013" r="10" fill="rgb(255,255,0)" stroke="rgb(0,0,0)" stroke-width="1"/><circle cx="683.0364854515674" cy="66.58849304611131" r="10" fill="rgb(255,255,0)" stroke="rgb(0,0,0)" stroke-width="1"/><circle cx="671.2569044497876" cy="2.2581873951524223" r="10" fill="rgb(255,255,0)" stroke="rgb(0,0,0)" stroke-width="1"/><circle cx="424.32915727180153" cy="473.47514269820994" r="10" fill="rgb(255,255,0)" stroke="rgb(0,0,0)" stroke-width="1"/><circle cx="663.6253638535882" cy="409.8801627987462" r="10" fill="rgb(255,255,0)" stroke="rgb(0,0,0)" stroke-width="1"/><circle cx="609.6079970378797" cy="508.83483113741727" r="10" fill="rgb(255,255,0)" stroke="rgb(0,0,0)" stroke-width="1"/><circle cx="582.7696521203488" cy="367.4407268038398" r="10" fill="rgb(255,255,0)" stroke="rgb(0,0,0)" stroke-width="1"/><circle cx="174.413239169549" cy="629.6514285957635" r="10" fill="rgb(255,255,0)" stroke="rgb(0,0,0)" stroke-width="1"/><circle cx="67.20140982203057" cy="86.31211892459703" r="10" fill="rgb(255,255,0)" stroke="rgb(0,0,0)" stroke-width="1"/><circle cx="154.31031392957723" cy="436.52850827595245" r="10" fill="rgb(255,255,0)" stroke="rgb(0,0,0)" stroke-width="1"/><text text-anchor="middle" alignment-baseline="middle" x="488.3998177074051" y="364.18199983271137" fill="rgb(0,0,0)" font-size="12">inch (in)</text><text text-anchor="middle" alignment-baseline="middle" x="204.75379789522367" y="256.3282373589053" fill="rgb(0,0,0)" font-size="12">meter (m)</text><text text-anchor="middle" alignment-baseline="middle" x="358.4774618669493" y="621.2129898360757" fill="rgb(0,0,0)" font-size="12">foot (ft)</text><text text-anchor="middle" alignment-baseline="middle" x="166.20842735706987" y="48.2121156326013" fill="rgb(0,0,0)" font-size="12">micrometer (μm)</text><text text-anchor="middle" alignment-baseline="middle" x="683.0364854515674" y="66.58849304611131" fill="rgb(0,0,0)" font-size="12">nanometer (nm)</text><text text-anchor="middle" alignment-baseline="middle" x="671.2569044497876" y="2.2581873951524223" fill="rgb(0,0,0)" font-size="12">Astronomical Unit (AU)</text><text text-anchor="middle" alignment-baseline="middle" x="424.32915727180153" y="473.47514269820994" fill="rgb(0,0,0)" font-size="12">millimeter (mm)</text><text text-anchor="middle" alignment-baseline="middle" x="663.6253638535882" y="409.8801627987462" fill="rgb(0,0,0)" font-size="12">Planck length (ℓP)</text><text text-anchor="middle" alignment-baseline="middle" x="609.6079970378797" y="508.83483113741727" fill="rgb(0,0,0)" font-size="12">kilometer (km)</text><text text-anchor="middle" alignment-baseline="middle" x="582.7696521203488" y="367.4407268038398" fill="rgb(0,0,0)" font-size="12">mile (m)</text><text text-anchor="middle" alignment-baseline="middle" x="174.413239169549" y="629.6514285957635" fill="rgb(0,0,0)" font-size="12">centimeter (cm)</text><text text-anchor="middle" alignment-baseline="middle" x="67.20140982203057" y="86.31211892459703" fill="rgb(0,0,0)" font-size="12">parsec (pc)</text><text text-anchor="middle" alignment-baseline="middle" x="154.31031392957723" y="436.52850827595245" fill="rgb(0,0,0)" font-size="12">lightyear (ly)</text><text text-anchor="middle" alignment-baseline="middle" x="410.4464042031316" y="518.40059383473" fill="rgb(0,0,0)" font-size="12">12.0</text><text text-anchor="middle" alignment-baseline="middle" x="296.98799627825906" y="475.25908884520754" fill="rgb(0,0,0)" font-size="12">0.3048</text><text text-anchor="middle" alignment-baseline="middle" x="189.33564967996216" y="173.0817886683837" fill="rgb(0,0,0)" font-size="12">1000000.0</text><text text-anchor="middle" alignment-baseline="middle" x="448.1943379683091" y="519.7040846231814" fill="rgb(0,0,0)" font-size="12">1.893939393939394E-4</text><text text-anchor="middle" alignment-baseline="middle" x="493.052776018989" y="468.9496320167342" fill="rgb(0,0,0)" font-size="12">5280.0</text><text text-anchor="middle" alignment-baseline="middle" x="491.7234104290299" y="142.4843907712289" fill="rgb(0,0,0)" font-size="12">1.0000000000000009E-9</text><text text-anchor="middle" alignment-baseline="middle" x="396.06687291776115" y="180.4323396337877" fill="rgb(0,0,0)" font-size="12">1.0E9</text><text text-anchor="middle" alignment-baseline="middle" x="366.6954775522861" y="357.33087487031014" fill="rgb(0,0,0)" font-size="12">0.0010000000000000002</text><text text-anchor="middle" alignment-baseline="middle" x="266.2432634839139" y="402.2821383497735" fill="rgb(0,0,0)" font-size="12">3.2808398950131235</text><text text-anchor="middle" alignment-baseline="middle" x="646.5973414850245" y="204.8888448920584" fill="rgb(0,0,0)" font-size="12">1.495978707E8</text><text text-anchor="middle" alignment-baseline="middle" x="436.4308753712228" y="466.9943958340571" fill="rgb(0,0,0)" font-size="12">0.08333333333333333</text><text text-anchor="middle" alignment-baseline="middle" x="336.4293871728982" y="465.4510374205384" fill="rgb(0,0,0)" font-size="12">9.4607304725808E12</text><text text-anchor="middle" alignment-baseline="middle" x="102.04497146504923" y="226.3986746651392" fill="rgb(0,0,0)" font-size="12">3.26</text><text text-anchor="middle" alignment-baseline="middle" x="447.6663173808173" y="407.83219362601244" fill="rgb(0,0,0)" font-size="12">1000.0</text><text text-anchor="middle" alignment-baseline="middle" x="427.4889237945588" y="479.9123019928313" fill="rgb(0,0,0)" font-size="12">1.0570008340246153E-13</text><text text-anchor="middle" alignment-baseline="middle" x="675.2720368123757" y="203.90516094716526" fill="rgb(0,0,0)" font-size="12">1.6162E-26</text><text text-anchor="middle" alignment-baseline="middle" x="181.62657557233138" y="131.4585643231229" fill="rgb(0,0,0)" font-size="12">1.0000000000000006E-6</text><text text-anchor="middle" alignment-baseline="middle" x="336.49901352117035" y="386.6163805624881" fill="rgb(0,0,0)" font-size="12">0.0010000000000000002</text><text text-anchor="middle" alignment-baseline="middle" x="186.54946265981886" y="480.3221521010202" fill="rgb(0,0,0)" font-size="12">0.010000000000000002</text><text text-anchor="middle" alignment-baseline="middle" x="192.6175744049538" y="405.6575138536486" fill="rgb(0,0,0)" font-size="12">100.0</text><text text-anchor="middle" alignment-baseline="middle" x="634.2675600026429" y="306.2041736405113" fill="rgb(0,0,0)" font-size="12">6.6845871222684464E-9</text><text text-anchor="middle" alignment-baseline="middle" x="119.46675228655857" y="296.4419525354103" fill="rgb(0,0,0)" font-size="12">0.3067484662576687</text><text text-anchor="middle" alignment-baseline="middle" x="671.3898124927798" y="272.56349489769224" fill="rgb(0,0,0)" font-size="12">6.187353050365054E25</text><text text-anchor="middle" alignment-baseline="middle" x="292.5839416458548" y="343.1869994946272" fill="rgb(0,0,0)" font-size="12">1000.0</text>
      Sorry, your browser does not support inline SVG.
    </svg>