<?xml version='1.0' encoding='UTF-8'?>
<svg version="1.1" width="700.0" height="700.0" onload="init(evt)" xmlns="http://www.w3.org/2000/svg">
      <style>.caption {
  font-size: 14px;
  font-family: Georgia, serif;
}
</style>
      <script type="text/ecmascript"><![CDATA[
function init(evt) {
  if ( window.svgDocument == null ) {
    svgDocument = evt.target.ownerDocument;
  }
}

function RectHover(evt, i, c) {
  rect = svgDocument.getElementById('rect' + i);
  if( c != null ) {
    rect.setAttributeNS(null, "fill", c)  
  }
  tooltiptext = svgDocument.getElementById('tooltiptext' + i);
  tooltipbg = svgDocument.getElementById('tooltipbg' + i);
  if( tooltipbg != null) {
    tbb = tooltiptext.getBBox();
    tooltipbg.setAttributeNS(null, "width", tbb.width);
    tooltipbg.setAttributeNS(null, "height", tbb.height);
    tooltipbg.setAttributeNS(null, "x", tbb.x);
    tooltipbg.setAttributeNS(null, "y", tbb.y);
    tooltipbg.setAttributeNS(null, "visibility", "visible");
  }
  tooltiptext.setAttributeNS(null,"visibility","visible");
}

function RectUnhover(evt, i, c) {
  rect = svgDocument.getElementById('rect' + i);
  if( c != null ) {
    rect.setAttributeNS(null, "fill", c)  
  }
  tooltiptext = svgDocument.getElementById('tooltiptext' + i);
  tooltiptext.setAttributeNS(null,"visibility","hidden");
  tooltipbg = svgDocument.getElementById('tooltipbg' + i);
  if( tooltipbg != null ) {
    tooltipbg.setAttributeNS(null,"visibility","hidden");
  }
}
]]></script>
      <line x1="297.02421265134626" y1="235.20503001009857" x2="514.9683237299599" y2="464.2780205601498" stroke="rgb(0,0,0)" stroke-width="1"/><line x1="514.9683237299599" y1="464.2780205601498" x2="526.1890126233893" y2="224.8710249042361" stroke="rgb(0,0,0)" stroke-width="1"/><line x1="514.9683237299599" y1="464.2780205601498" x2="434.9338548301986" y2="661.4800514386792" stroke="rgb(0,0,0)" stroke-width="1"/><line x1="526.1890126233893" y1="224.8710249042361" x2="514.9683237299599" y2="464.2780205601498" stroke="rgb(0,0,0)" stroke-width="1"/><line x1="184.23333116746505" y1="544.9965307607275" x2="21.22151693231603" y2="239.27319760624533" stroke="rgb(0,0,0)" stroke-width="1"/><line x1="21.22151693231603" y1="239.27319760624533" x2="184.23333116746505" y2="544.9965307607275" stroke="rgb(0,0,0)" stroke-width="1"/><line x1="566.8333394102443" y1="88.06671517331236" x2="158.59425443532163" y2="660.0221081173212" stroke="rgb(0,0,0)" stroke-width="1"/><line x1="21.22151693231603" y1="239.27319760624533" x2="514.9683237299599" y2="464.2780205601498" stroke="rgb(0,0,0)" stroke-width="1"/><line x1="434.9338548301986" y1="661.4800514386792" x2="514.9683237299599" y2="464.2780205601498" stroke="rgb(0,0,0)" stroke-width="1"/><line x1="514.9683237299599" y1="464.2780205601498" x2="143.369166160714" y2="674.9860792430505" stroke="rgb(0,0,0)" stroke-width="1"/><line x1="143.369166160714" y1="674.9860792430505" x2="514.9683237299599" y2="464.2780205601498" stroke="rgb(0,0,0)" stroke-width="1"/><line x1="442.466098023253" y1="538.9754984909283" x2="158.59425443532163" y2="660.0221081173212" stroke="rgb(0,0,0)" stroke-width="1"/><line x1="507.6531916049457" y1="47.86104559430683" x2="532.3483964778779" y2="489.6315959553044" stroke="rgb(0,0,0)" stroke-width="1"/><line x1="526.1890126233893" y1="224.8710249042361" x2="212.00477494827527" y2="617.8839655157158" stroke="rgb(0,0,0)" stroke-width="1"/><line x1="158.59425443532163" y1="660.0221081173212" x2="514.9683237299599" y2="464.2780205601498" stroke="rgb(0,0,0)" stroke-width="1"/><line x1="514.9683237299599" y1="464.2780205601498" x2="21.22151693231603" y2="239.27319760624533" stroke="rgb(0,0,0)" stroke-width="1"/><line x1="532.3483964778779" y1="489.6315959553044" x2="507.6531916049457" y2="47.86104559430683" stroke="rgb(0,0,0)" stroke-width="1"/><line x1="514.9683237299599" y1="464.2780205601498" x2="297.02421265134626" y2="235.20503001009857" stroke="rgb(0,0,0)" stroke-width="1"/><line x1="526.1890126233893" y1="224.8710249042361" x2="507.6531916049457" y2="47.86104559430683" stroke="rgb(0,0,0)" stroke-width="1"/><line x1="212.00477494827527" y1="617.8839655157158" x2="526.1890126233893" y2="224.8710249042361" stroke="rgb(0,0,0)" stroke-width="1"/><line x1="158.59425443532163" y1="660.0221081173212" x2="566.8333394102443" y2="88.06671517331236" stroke="rgb(0,0,0)" stroke-width="1"/><line x1="507.6531916049457" y1="47.86104559430683" x2="526.1890126233893" y2="224.8710249042361" stroke="rgb(0,0,0)" stroke-width="1"/><line x1="158.59425443532163" y1="660.0221081173212" x2="442.466098023253" y2="538.9754984909283" stroke="rgb(0,0,0)" stroke-width="1"/><line x1="514.9683237299599" y1="464.2780205601498" x2="158.59425443532163" y2="660.0221081173212" stroke="rgb(0,0,0)" stroke-width="1"/><polygon points="10,0 20,3 20,-3" fill="black" transform="translate(514.9683237299599,464.2780205601498) rotate(226.4261336628421)"/><polygon points="10,0 20,3 20,-3" fill="black" transform="translate(526.1890126233893,224.8710249042361) rotate(92.68341361093832)"/><polygon points="10,0 20,3 20,-3" fill="black" transform="translate(434.9338548301986,661.4800514386792) rotate(292.08978004274957)"/><polygon points="10,0 20,3 20,-3" fill="black" transform="translate(514.9683237299599,464.2780205601498) rotate(272.6834136109383)"/><polygon points="10,0 20,3 20,-3" fill="black" transform="translate(21.22151693231603,239.27319760624533) rotate(61.93344164471854)"/><polygon points="10,0 20,3 20,-3" fill="black" transform="translate(184.23333116746505,544.9965307607275) rotate(241.93344164471858)"/><polygon points="10,0 20,3 20,-3" fill="black" transform="translate(158.59425443532163,660.0221081173212) rotate(305.5177412258887)"/><polygon points="10,0 20,3 20,-3" fill="black" transform="translate(514.9683237299599,464.2780205601498) rotate(204.49917744381463)"/><polygon points="10,0 20,3 20,-3" fill="black" transform="translate(514.9683237299599,464.2780205601498) rotate(112.08978004274958)"/><polygon points="10,0 20,3 20,-3" fill="black" transform="translate(143.369166160714,674.9860792430505) rotate(330.44544067471156)"/><polygon points="10,0 20,3 20,-3" fill="black" transform="translate(514.9683237299599,464.2780205601498) rotate(150.4454406747115)"/><polygon points="10,0 20,3 20,-3" fill="black" transform="translate(158.59425443532163,660.0221081173212) rotate(336.9059758838711)"/><polygon points="10,0 20,3 20,-3" fill="black" transform="translate(532.3483964778779,489.6315959553044) rotate(266.8004658866885)"/><polygon points="10,0 20,3 20,-3" fill="black" transform="translate(212.00477494827527,617.8839655157158) rotate(308.6397023857095)"/><polygon points="10,0 20,3 20,-3" fill="black" transform="translate(514.9683237299599,464.2780205601498) rotate(151.2215131417899)"/><polygon points="10,0 20,3 20,-3" fill="black" transform="translate(21.22151693231603,239.27319760624533) rotate(24.49917744381463)"/><polygon points="10,0 20,3 20,-3" fill="black" transform="translate(507.6531916049457,47.86104559430683) rotate(86.80046588668851)"/><polygon points="10,0 20,3 20,-3" fill="black" transform="translate(297.02421265134626,235.20503001009857) rotate(46.42613366284206)"/><polygon points="10,0 20,3 20,-3" fill="black" transform="translate(507.6531916049457,47.86104559430683) rotate(84.02198798830896)"/><polygon points="10,0 20,3 20,-3" fill="black" transform="translate(526.1890126233893,224.8710249042361) rotate(128.63970238570943)"/><polygon points="10,0 20,3 20,-3" fill="black" transform="translate(566.8333394102443,88.06671517331236) rotate(125.51774122588871)"/><polygon points="10,0 20,3 20,-3" fill="black" transform="translate(526.1890126233893,224.8710249042361) rotate(264.021987988309)"/><polygon points="10,0 20,3 20,-3" fill="black" transform="translate(442.466098023253,538.9754984909283) rotate(156.9059758838711)"/><polygon points="10,0 20,3 20,-3" fill="black" transform="translate(158.59425443532163,660.0221081173212) rotate(331.2215131417899)"/><circle cx="442.466098023253" cy="538.9754984909283" r="10" fill="rgb(255,255,0)" stroke="rgb(0,0,0)" stroke-width="1"/><circle cx="514.9683237299599" cy="464.2780205601498" r="10" fill="rgb(255,255,0)" stroke="rgb(0,0,0)" stroke-width="1"/><circle cx="158.59425443532163" cy="660.0221081173212" r="10" fill="rgb(255,255,0)" stroke="rgb(0,0,0)" stroke-width="1"/><circle cx="297.02421265134626" cy="235.20503001009857" r="10" fill="rgb(255,255,0)" stroke="rgb(0,0,0)" stroke-width="1"/><circle cx="21.22151693231603" cy="239.27319760624533" r="10" fill="rgb(255,255,0)" stroke="rgb(0,0,0)" stroke-width="1"/><circle cx="212.00477494827527" cy="617.8839655157158" r="10" fill="rgb(255,255,0)" stroke="rgb(0,0,0)" stroke-width="1"/><circle cx="434.9338548301986" cy="661.4800514386792" r="10" fill="rgb(255,255,0)" stroke="rgb(0,0,0)" stroke-width="1"/><circle cx="184.23333116746505" cy="544.9965307607275" r="10" fill="rgb(255,255,0)" stroke="rgb(0,0,0)" stroke-width="1"/><circle cx="526.1890126233893" cy="224.8710249042361" r="10" fill="rgb(255,255,0)" stroke="rgb(0,0,0)" stroke-width="1"/><circle cx="566.8333394102443" cy="88.06671517331236" r="10" fill="rgb(255,255,0)" stroke="rgb(0,0,0)" stroke-width="1"/><circle cx="143.369166160714" cy="674.9860792430505" r="10" fill="rgb(255,255,0)" stroke="rgb(0,0,0)" stroke-width="1"/><circle cx="532.3483964778779" cy="489.6315959553044" r="10" fill="rgb(255,255,0)" stroke="rgb(0,0,0)" stroke-width="1"/><circle cx="507.6531916049457" cy="47.86104559430683" r="10" fill="rgb(255,255,0)" stroke="rgb(0,0,0)" stroke-width="1"/><text text-anchor="middle" alignment-baseline="middle" x="442.466098023253" y="538.9754984909283" fill="rgb(0,0,0)" font-size="12">inch (in)</text><text text-anchor="middle" alignment-baseline="middle" x="514.9683237299599" y="464.2780205601498" fill="rgb(0,0,0)" font-size="12">meter (m)</text><text text-anchor="middle" alignment-baseline="middle" x="158.59425443532163" y="660.0221081173212" fill="rgb(0,0,0)" font-size="12">foot (ft)</text><text text-anchor="middle" alignment-baseline="middle" x="297.02421265134626" y="235.20503001009857" fill="rgb(0,0,0)" font-size="12">micrometer (μm)</text><text text-anchor="middle" alignment-baseline="middle" x="21.22151693231603" y="239.27319760624533" fill="rgb(0,0,0)" font-size="12">nanometer (nm)</text><text text-anchor="middle" alignment-baseline="middle" x="212.00477494827527" y="617.8839655157158" fill="rgb(0,0,0)" font-size="12">Astronomical Unit (AU)</text><text text-anchor="middle" alignment-baseline="middle" x="434.9338548301986" y="661.4800514386792" fill="rgb(0,0,0)" font-size="12">millimeter (mm)</text><text text-anchor="middle" alignment-baseline="middle" x="184.23333116746505" y="544.9965307607275" fill="rgb(0,0,0)" font-size="12">Planck length (ℓP)</text><text text-anchor="middle" alignment-baseline="middle" x="526.1890126233893" y="224.8710249042361" fill="rgb(0,0,0)" font-size="12">kilometer (km)</text><text text-anchor="middle" alignment-baseline="middle" x="566.8333394102443" y="88.06671517331236" fill="rgb(0,0,0)" font-size="12">mile (m)</text><text text-anchor="middle" alignment-baseline="middle" x="143.369166160714" y="674.9860792430505" fill="rgb(0,0,0)" font-size="12">centimeter (cm)</text><text text-anchor="middle" alignment-baseline="middle" x="532.3483964778779" y="489.6315959553044" fill="rgb(0,0,0)" font-size="12">parsec (pc)</text><text text-anchor="middle" alignment-baseline="middle" x="507.6531916049457" y="47.86104559430683" fill="rgb(0,0,0)" font-size="12">lightyear (ly)</text><text text-anchor="middle" alignment-baseline="middle" x="427.7906792985144" y="372.6488243401293" fill="rgb(0,0,0)" font-size="12">1000000.0</text><text text-anchor="middle" alignment-baseline="middle" x="521.7007370660176" y="320.6338231666016" fill="rgb(0,0,0)" font-size="12">1000.0</text><text text-anchor="middle" alignment-baseline="middle" x="466.9476423901031" y="582.5992390872674" fill="rgb(0,0,0)" font-size="12">0.0010000000000000002</text><text text-anchor="middle" alignment-baseline="middle" x="519.4565992873316" y="368.5152222977843" fill="rgb(0,0,0)" font-size="12">0.0010000000000000002</text><text text-anchor="middle" alignment-baseline="middle" x="86.42624262637564" y="361.5625308680382" fill="rgb(0,0,0)" font-size="12">1.6162E-26</text><text text-anchor="middle" alignment-baseline="middle" x="119.02860547340545" y="422.70719749893465" fill="rgb(0,0,0)" font-size="12">6.187353050365054E25</text><text text-anchor="middle" alignment-baseline="middle" x="321.88988842529074" y="431.2399509397177" fill="rgb(0,0,0)" font-size="12">1.893939393939394E-4</text><text text-anchor="middle" alignment-baseline="middle" x="317.46960101090235" y="374.27609137858803" fill="rgb(0,0,0)" font-size="12">1.0E9</text><text text-anchor="middle" alignment-baseline="middle" x="482.9545361700554" y="543.1588329115616" fill="rgb(0,0,0)" font-size="12">1000.0</text><text text-anchor="middle" alignment-baseline="middle" x="292.0088291884124" y="590.7028557698902" fill="rgb(0,0,0)" font-size="12">0.010000000000000002</text><text text-anchor="middle" alignment-baseline="middle" x="366.3286607022616" y="548.5612440333101" fill="rgb(0,0,0)" font-size="12">100.0</text><text text-anchor="middle" alignment-baseline="middle" x="272.14299187049414" y="611.603464266764" fill="rgb(0,0,0)" font-size="12">12.0</text><text text-anchor="middle" alignment-baseline="middle" x="522.470314528705" y="312.92337581090544" fill="rgb(0,0,0)" font-size="12">3.26</text><text text-anchor="middle" alignment-baseline="middle" x="337.6784700183209" y="460.6787892711239" fill="rgb(0,0,0)" font-size="12">1.495978707E8</text><text text-anchor="middle" alignment-baseline="middle" x="372.4186960121046" y="542.5756555830184" fill="rgb(0,0,0)" font-size="12">3.2808398950131235</text><text text-anchor="middle" alignment-baseline="middle" x="218.72023965137362" y="329.27512678780715" fill="rgb(0,0,0)" font-size="12">1.0000000000000009E-9</text><text text-anchor="middle" alignment-baseline="middle" x="517.5312735541186" y="224.56926573870584" fill="rgb(0,0,0)" font-size="12">0.3067484662576687</text><text text-anchor="middle" alignment-baseline="middle" x="384.2018570827918" y="326.83422623011904" fill="rgb(0,0,0)" font-size="12">1.0000000000000006E-6</text><text text-anchor="middle" alignment-baseline="middle" x="515.0675200123231" y="118.66503731827854" fill="rgb(0,0,0)" font-size="12">9.4607304725808E12</text><text text-anchor="middle" alignment-baseline="middle" x="400.5153175533437" y="382.076201148828" fill="rgb(0,0,0)" font-size="12">6.6845871222684464E-9</text><text text-anchor="middle" alignment-baseline="middle" x="403.5377054202752" y="316.8488723509159" fill="rgb(0,0,0)" font-size="12">5280.0</text><text text-anchor="middle" alignment-baseline="middle" x="518.7746842160119" y="154.0670331802644" fill="rgb(0,0,0)" font-size="12">1.0570008340246153E-13</text><text text-anchor="middle" alignment-baseline="middle" x="328.91736058808044" y="587.3941423414855" fill="rgb(0,0,0)" font-size="12">0.08333333333333333</text><text text-anchor="middle" alignment-baseline="middle" x="301.14388215317695" y="581.7244730944526" fill="rgb(0,0,0)" font-size="12">0.3048</text>
      Sorry, your browser does not support inline SVG.
    </svg>