<?xml version='1.0' encoding='UTF-8'?>
<svg version="1.1" width="700.0" height="700.0" onload="init(evt)" xmlns="http://www.w3.org/2000/svg">
      <style>.caption {
  font-size: 14px;
  font-family: Georgia, serif;
}
</style>
      <script type="text/ecmascript"><![CDATA[
function init(evt) {
  if ( window.svgDocument == null ) {
    svgDocument = evt.target.ownerDocument;
  }
}

function RectHover(evt, i, c) {
  rect = svgDocument.getElementById('rect' + i);
  if( c != null ) {
    rect.setAttributeNS(null, "fill", c)  
  }
  tooltiptext = svgDocument.getElementById('tooltiptext' + i);
  tooltipbg = svgDocument.getElementById('tooltipbg' + i);
  if( tooltipbg != null) {
    tbb = tooltiptext.getBBox();
    tooltipbg.setAttributeNS(null, "width", tbb.width);
    tooltipbg.setAttributeNS(null, "height", tbb.height);
    tooltipbg.setAttributeNS(null, "x", tbb.x);
    tooltipbg.setAttributeNS(null, "y", tbb.y);
    tooltipbg.setAttributeNS(null, "visibility", "visible");
  }
  tooltiptext.setAttributeNS(null,"visibility","visible");
}

function RectUnhover(evt, i, c) {
  rect = svgDocument.getElementById('rect' + i);
  if( c != null ) {
    rect.setAttributeNS(null, "fill", c)  
  }
  tooltiptext = svgDocument.getElementById('tooltiptext' + i);
  tooltiptext.setAttributeNS(null,"visibility","hidden");
  tooltipbg = svgDocument.getElementById('tooltipbg' + i);
  if( tooltipbg != null ) {
    tooltipbg.setAttributeNS(null,"visibility","hidden");
  }
}
]]></script>
      <line x1="479.04640478696643" y1="328.47695557286846" x2="510.6056303814539" y2="55.74056272515557" stroke="rgb(0,0,0)" stroke-width="1"/><line x1="75.08651869372697" y1="59.41748198076613" x2="207.46625628695332" y2="450.37706518412347" stroke="rgb(0,0,0)" stroke-width="1"/><line x1="474.62302091224234" y1="356.65714284972216" x2="207.46625628695332" y2="450.37706518412347" stroke="rgb(0,0,0)" stroke-width="1"/><line x1="106.0564347150699" y1="177.640590700531" x2="207.46625628695332" y2="450.37706518412347" stroke="rgb(0,0,0)" stroke-width="1"/><line x1="397.71004590236095" y1="466.4532510865991" x2="510.6056303814539" y2="55.74056272515557" stroke="rgb(0,0,0)" stroke-width="1"/><line x1="207.46625628695332" y1="450.37706518412347" x2="474.62302091224234" y2="356.65714284972216" stroke="rgb(0,0,0)" stroke-width="1"/><line x1="207.46625628695332" y1="450.37706518412347" x2="75.08651869372697" y2="59.41748198076613" stroke="rgb(0,0,0)" stroke-width="1"/><line x1="75.08651869372697" y1="59.41748198076613" x2="348.2069547824668" y2="271.6094245577945" stroke="rgb(0,0,0)" stroke-width="1"/><line x1="570.9234488355248" y1="444.51432994242833" x2="555.4994722125646" y2="417.31417840370204" stroke="rgb(0,0,0)" stroke-width="1"/><line x1="555.4994722125646" y1="417.31417840370204" x2="570.9234488355248" y2="444.51432994242833" stroke="rgb(0,0,0)" stroke-width="1"/><line x1="207.46625628695332" y1="450.37706518412347" x2="343.673165683369" y2="650.5503406755745" stroke="rgb(0,0,0)" stroke-width="1"/><line x1="510.6056303814539" y1="55.74056272515557" x2="397.71004590236095" y2="466.4532510865991" stroke="rgb(0,0,0)" stroke-width="1"/><line x1="490.44733299496346" y1="88.3426895467654" x2="397.71004590236095" y2="466.4532510865991" stroke="rgb(0,0,0)" stroke-width="1"/><line x1="348.2069547824668" y1="271.6094245577945" x2="75.08651869372697" y2="59.41748198076613" stroke="rgb(0,0,0)" stroke-width="1"/><line x1="527.2035232061555" y1="112.27672772974093" x2="570.9234488355248" y2="444.51432994242833" stroke="rgb(0,0,0)" stroke-width="1"/><line x1="570.9234488355248" y1="444.51432994242833" x2="207.46625628695332" y2="450.37706518412347" stroke="rgb(0,0,0)" stroke-width="1"/><line x1="207.46625628695332" y1="450.37706518412347" x2="570.9234488355248" y2="444.51432994242833" stroke="rgb(0,0,0)" stroke-width="1"/><line x1="207.46625628695332" y1="450.37706518412347" x2="397.71004590236095" y2="466.4532510865991" stroke="rgb(0,0,0)" stroke-width="1"/><line x1="343.673165683369" y1="650.5503406755745" x2="207.46625628695332" y2="450.37706518412347" stroke="rgb(0,0,0)" stroke-width="1"/><line x1="510.6056303814539" y1="55.74056272515557" x2="479.04640478696643" y2="328.47695557286846" stroke="rgb(0,0,0)" stroke-width="1"/><line x1="207.46625628695332" y1="450.37706518412347" x2="106.0564347150699" y2="177.640590700531" stroke="rgb(0,0,0)" stroke-width="1"/><line x1="570.9234488355248" y1="444.51432994242833" x2="527.2035232061555" y2="112.27672772974093" stroke="rgb(0,0,0)" stroke-width="1"/><line x1="397.71004590236095" y1="466.4532510865991" x2="207.46625628695332" y2="450.37706518412347" stroke="rgb(0,0,0)" stroke-width="1"/><line x1="397.71004590236095" y1="466.4532510865991" x2="490.44733299496346" y2="88.3426895467654" stroke="rgb(0,0,0)" stroke-width="1"/><polygon points="10,0 20,3 20,-3" fill="black" transform="translate(510.6056303814539,55.74056272515557) rotate(96.60052826101891)"/><polygon points="10,0 20,3 20,-3" fill="black" transform="translate(207.46625628695332,450.37706518412347) rotate(251.29379145974383)"/><polygon points="10,0 20,3 20,-3" fill="black" transform="translate(207.46625628695332,450.37706518412347) rotate(340.66887571267665)"/><polygon points="10,0 20,3 20,-3" fill="black" transform="translate(207.46625628695332,450.37706518412347) rotate(249.6036845092708)"/><polygon points="10,0 20,3 20,-3" fill="black" transform="translate(510.6056303814539,55.74056272515557) rotate(105.36971378467182)"/><polygon points="10,0 20,3 20,-3" fill="black" transform="translate(474.62302091224234,356.65714284972216) rotate(160.66887571267665)"/><polygon points="10,0 20,3 20,-3" fill="black" transform="translate(75.08651869372697,59.41748198076613) rotate(71.2937914597438)"/><polygon points="10,0 20,3 20,-3" fill="black" transform="translate(348.2069547824668,271.6094245577945) rotate(217.84424562252886)"/><polygon points="10,0 20,3 20,-3" fill="black" transform="translate(555.4994722125646,417.31417840370204) rotate(60.44438722728994)"/><polygon points="10,0 20,3 20,-3" fill="black" transform="translate(570.9234488355248,444.51432994242833) rotate(240.44438722728995)"/><polygon points="10,0 20,3 20,-3" fill="black" transform="translate(343.673165683369,650.5503406755745) rotate(235.766865725873)"/><polygon points="10,0 20,3 20,-3" fill="black" transform="translate(397.71004590236095,466.4532510865991) rotate(285.36971378467183)"/><polygon points="10,0 20,3 20,-3" fill="black" transform="translate(397.71004590236095,466.4532510865991) rotate(283.78062344592894)"/><polygon points="10,0 20,3 20,-3" fill="black" transform="translate(75.08651869372697,59.41748198076613) rotate(37.84424562252883)"/><polygon points="10,0 20,3 20,-3" fill="black" transform="translate(570.9234488355248,444.51432994242833) rotate(262.50338772013913)"/><polygon points="10,0 20,3 20,-3" fill="black" transform="translate(207.46625628695332,450.37706518412347) rotate(359.07587230771003)"/><polygon points="10,0 20,3 20,-3" fill="black" transform="translate(570.9234488355248,444.51432994242833) rotate(179.07587230771003)"/><polygon points="10,0 20,3 20,-3" fill="black" transform="translate(397.71004590236095,466.4532510865991) rotate(184.83019446655948)"/><polygon points="10,0 20,3 20,-3" fill="black" transform="translate(207.46625628695332,450.37706518412347) rotate(55.76686572587299)"/><polygon points="10,0 20,3 20,-3" fill="black" transform="translate(479.04640478696643,328.47695557286846) rotate(276.6005282610189)"/><polygon points="10,0 20,3 20,-3" fill="black" transform="translate(106.0564347150699,177.640590700531) rotate(69.60368450927078)"/><polygon points="10,0 20,3 20,-3" fill="black" transform="translate(527.2035232061555,112.27672772974093) rotate(82.50338772013907)"/><polygon points="10,0 20,3 20,-3" fill="black" transform="translate(207.46625628695332,450.37706518412347) rotate(4.830194466559448)"/><polygon points="10,0 20,3 20,-3" fill="black" transform="translate(490.44733299496346,88.3426895467654) rotate(103.78062344592892)"/><circle cx="527.2035232061555" cy="112.27672772974093" r="10" fill="rgb(255,255,0)" stroke="rgb(0,0,0)" stroke-width="1"/><circle cx="207.46625628695332" cy="450.37706518412347" r="10" fill="rgb(255,255,0)" stroke="rgb(0,0,0)" stroke-width="1"/><circle cx="570.9234488355248" cy="444.51432994242833" r="10" fill="rgb(255,255,0)" stroke="rgb(0,0,0)" stroke-width="1"/><circle cx="474.62302091224234" cy="356.65714284972216" r="10" fill="rgb(255,255,0)" stroke="rgb(0,0,0)" stroke-width="1"/><circle cx="75.08651869372697" cy="59.41748198076613" r="10" fill="rgb(255,255,0)" stroke="rgb(0,0,0)" stroke-width="1"/><circle cx="490.44733299496346" cy="88.3426895467654" r="10" fill="rgb(255,255,0)" stroke="rgb(0,0,0)" stroke-width="1"/><circle cx="343.673165683369" cy="650.5503406755745" r="10" fill="rgb(255,255,0)" stroke="rgb(0,0,0)" stroke-width="1"/><circle cx="348.2069547824668" cy="271.6094245577945" r="10" fill="rgb(255,255,0)" stroke="rgb(0,0,0)" stroke-width="1"/><circle cx="397.71004590236095" cy="466.4532510865991" r="10" fill="rgb(255,255,0)" stroke="rgb(0,0,0)" stroke-width="1"/><circle cx="555.4994722125646" cy="417.31417840370204" r="10" fill="rgb(255,255,0)" stroke="rgb(0,0,0)" stroke-width="1"/><circle cx="106.0564347150699" cy="177.640590700531" r="10" fill="rgb(255,255,0)" stroke="rgb(0,0,0)" stroke-width="1"/><circle cx="479.04640478696643" cy="328.47695557286846" r="10" fill="rgb(255,255,0)" stroke="rgb(0,0,0)" stroke-width="1"/><circle cx="510.6056303814539" cy="55.74056272515557" r="10" fill="rgb(255,255,0)" stroke="rgb(0,0,0)" stroke-width="1"/><text text-anchor="middle" alignment-baseline="middle" x="527.2035232061555" y="112.27672772974093" fill="rgb(0,0,0)" font-size="12">inch (in)</text><text text-anchor="middle" alignment-baseline="middle" x="207.46625628695332" y="450.37706518412347" fill="rgb(0,0,0)" font-size="12">meter (m)</text><text text-anchor="middle" alignment-baseline="middle" x="570.9234488355248" y="444.51432994242833" fill="rgb(0,0,0)" font-size="12">foot (ft)</text><text text-anchor="middle" alignment-baseline="middle" x="474.62302091224234" y="356.65714284972216" fill="rgb(0,0,0)" font-size="12">micrometer (μm)</text><text text-anchor="middle" alignment-baseline="middle" x="75.08651869372697" y="59.41748198076613" fill="rgb(0,0,0)" font-size="12">nanometer (nm)</text><text text-anchor="middle" alignment-baseline="middle" x="490.44733299496346" y="88.3426895467654" fill="rgb(0,0,0)" font-size="12">Astronomical Unit (AU)</text><text text-anchor="middle" alignment-baseline="middle" x="343.673165683369" y="650.5503406755745" fill="rgb(0,0,0)" font-size="12">millimeter (mm)</text><text text-anchor="middle" alignment-baseline="middle" x="348.2069547824668" y="271.6094245577945" fill="rgb(0,0,0)" font-size="12">Planck length (ℓP)</text><text text-anchor="middle" alignment-baseline="middle" x="397.71004590236095" y="466.4532510865991" fill="rgb(0,0,0)" font-size="12">kilometer (km)</text><text text-anchor="middle" alignment-baseline="middle" x="555.4994722125646" y="417.31417840370204" fill="rgb(0,0,0)" font-size="12">mile (m)</text><text text-anchor="middle" alignment-baseline="middle" x="106.0564347150699" y="177.640590700531" fill="rgb(0,0,0)" font-size="12">centimeter (cm)</text><text text-anchor="middle" alignment-baseline="middle" x="479.04640478696643" y="328.47695557286846" fill="rgb(0,0,0)" font-size="12">parsec (pc)</text><text text-anchor="middle" alignment-baseline="middle" x="510.6056303814539" y="55.74056272515557" fill="rgb(0,0,0)" font-size="12">lightyear (ly)</text><text text-anchor="middle" alignment-baseline="middle" x="497.9819401436589" y="164.83511986424074" fill="rgb(0,0,0)" font-size="12">0.3067484662576687</text><text text-anchor="middle" alignment-baseline="middle" x="154.51436124966278" y="293.9932319027805" fill="rgb(0,0,0)" font-size="12">1.0E9</text><text text-anchor="middle" alignment-baseline="middle" x="314.3289621370689" y="412.88909625036297" fill="rgb(0,0,0)" font-size="12">1000000.0</text><text text-anchor="middle" alignment-baseline="middle" x="166.90232765819997" y="341.2824753906865" fill="rgb(0,0,0)" font-size="12">100.0</text><text text-anchor="middle" alignment-baseline="middle" x="465.4473965898167" y="220.02563806973302" fill="rgb(0,0,0)" font-size="12">9.4607304725808E12</text><text text-anchor="middle" alignment-baseline="middle" x="367.7603150621268" y="394.14511178348266" fill="rgb(0,0,0)" font-size="12">1.0000000000000006E-6</text><text text-anchor="middle" alignment-baseline="middle" x="128.0384137310175" y="215.80131526210909" fill="rgb(0,0,0)" font-size="12">1.0000000000000009E-9</text><text text-anchor="middle" alignment-baseline="middle" x="238.95878034697085" y="186.73264752698316" fill="rgb(0,0,0)" font-size="12">6.187353050365054E25</text><text text-anchor="middle" alignment-baseline="middle" x="561.6690628617487" y="428.19423901919254" fill="rgb(0,0,0)" font-size="12">5280.0</text><text text-anchor="middle" alignment-baseline="middle" x="564.7538581863407" y="433.63426932693784" fill="rgb(0,0,0)" font-size="12">1.893939393939394E-4</text><text text-anchor="middle" alignment-baseline="middle" x="289.1904019248027" y="570.4810304789941" fill="rgb(0,0,0)" font-size="12">0.0010000000000000002</text><text text-anchor="middle" alignment-baseline="middle" x="442.86827969399815" y="302.1681757420216" fill="rgb(0,0,0)" font-size="12">1.0570008340246153E-13</text><text text-anchor="middle" alignment-baseline="middle" x="434.80496073940196" y="315.20902647066566" fill="rgb(0,0,0)" font-size="12">6.6845871222684464E-9</text><text text-anchor="middle" alignment-baseline="middle" x="184.33469312922293" y="144.29425901157748" fill="rgb(0,0,0)" font-size="12">1.6162E-26</text><text text-anchor="middle" alignment-baseline="middle" x="553.4354785837771" y="311.6192890573534" fill="rgb(0,0,0)" font-size="12">12.0</text><text text-anchor="middle" alignment-baseline="middle" x="352.849133306382" y="448.0319710874454" fill="rgb(0,0,0)" font-size="12">3.2808398950131235</text><text text-anchor="middle" alignment-baseline="middle" x="425.5405718160962" y="446.8594240391064" fill="rgb(0,0,0)" font-size="12">0.3048</text><text text-anchor="middle" alignment-baseline="middle" x="321.6125300561979" y="460.0227767256088" fill="rgb(0,0,0)" font-size="12">1000.0</text><text text-anchor="middle" alignment-baseline="middle" x="261.9490200455196" y="530.4463753807039" fill="rgb(0,0,0)" font-size="12">1000.0</text><text text-anchor="middle" alignment-baseline="middle" x="491.67009502476145" y="219.3823984337833" fill="rgb(0,0,0)" font-size="12">3.26</text><text text-anchor="middle" alignment-baseline="middle" x="146.62036334382327" y="286.73518049396796" fill="rgb(0,0,0)" font-size="12">0.010000000000000002</text><text text-anchor="middle" alignment-baseline="middle" x="544.6914934579032" y="245.17176861481587" fill="rgb(0,0,0)" font-size="12">0.08333333333333333</text><text text-anchor="middle" alignment-baseline="middle" x="283.56377213311634" y="456.80753954511374" fill="rgb(0,0,0)" font-size="12">0.0010000000000000002</text><text text-anchor="middle" alignment-baseline="middle" x="453.35241815792244" y="239.58691416269886" fill="rgb(0,0,0)" font-size="12">1.495978707E8</text>
      Sorry, your browser does not support inline SVG.
    </svg>