<?xml version='1.0' encoding='UTF-8'?>
<svg version="1.1" width="700.0" height="700.0" onload="init(evt)" xmlns="http://www.w3.org/2000/svg">
      <style>.caption {
  font-size: 14px;
  font-family: Georgia, serif;
}
</style>
      <script type="text/ecmascript"><![CDATA[
function init(evt) {
  if ( window.svgDocument == null ) {
    svgDocument = evt.target.ownerDocument;
  }
}

function RectHover(evt, i, c) {
  rect = svgDocument.getElementById('rect' + i);
  if( c != null ) {
    rect.setAttributeNS(null, "fill", c)  
  }
  tooltiptext = svgDocument.getElementById('tooltiptext' + i);
  tooltipbg = svgDocument.getElementById('tooltipbg' + i);
  if( tooltipbg != null) {
    tbb = tooltiptext.getBBox();
    tooltipbg.setAttributeNS(null, "width", tbb.width);
    tooltipbg.setAttributeNS(null, "height", tbb.height);
    tooltipbg.setAttributeNS(null, "x", tbb.x);
    tooltipbg.setAttributeNS(null, "y", tbb.y);
    tooltipbg.setAttributeNS(null, "visibility", "visible");
  }
  tooltiptext.setAttributeNS(null,"visibility","visible");
}

function RectUnhover(evt, i, c) {
  rect = svgDocument.getElementById('rect' + i);
  if( c != null ) {
    rect.setAttributeNS(null, "fill", c)  
  }
  tooltiptext = svgDocument.getElementById('tooltiptext' + i);
  tooltiptext.setAttributeNS(null,"visibility","hidden");
  tooltipbg = svgDocument.getElementById('tooltipbg' + i);
  if( tooltipbg != null ) {
    tooltipbg.setAttributeNS(null,"visibility","hidden");
  }
}
]]></script>
      <line x1="662.0937816961805" y1="511.8599446739837" x2="93.67720104753727" y2="546.2258332907767" stroke="rgb(0,0,0)" stroke-width="1"/><line x1="627.0920752866617" y1="217.0499026683826" x2="637.4817002901857" y2="679.2195476347479" stroke="rgb(0,0,0)" stroke-width="1"/><line x1="93.67720104753727" y1="546.2258332907767" x2="560.2315237986983" y2="91.89463447288666" stroke="rgb(0,0,0)" stroke-width="1"/><line x1="637.4817002901857" y1="679.2195476347479" x2="627.0920752866617" y2="217.0499026683826" stroke="rgb(0,0,0)" stroke-width="1"/><line x1="93.67720104753727" y1="546.2258332907767" x2="653.503173818047" y2="139.65492494856238" stroke="rgb(0,0,0)" stroke-width="1"/><line x1="93.67720104753727" y1="546.2258332907767" x2="637.4817002901857" y2="679.2195476347479" stroke="rgb(0,0,0)" stroke-width="1"/><line x1="446.3802980305588" y1="388.922649586182" x2="93.67720104753727" y2="546.2258332907767" stroke="rgb(0,0,0)" stroke-width="1"/><line x1="519.5206814013172" y1="506.5819771999776" x2="255.4950948236739" y2="626.0772135711845" stroke="rgb(0,0,0)" stroke-width="1"/><line x1="560.2315237986983" y1="91.89463447288666" x2="306.8195118091851" y2="104.79458767258276" stroke="rgb(0,0,0)" stroke-width="1"/><line x1="252.99920212162985" y1="382.3794536818877" x2="519.5206814013172" y2="506.5819771999776" stroke="rgb(0,0,0)" stroke-width="1"/><line x1="93.67720104753727" y1="546.2258332907767" x2="662.0937816961805" y2="511.8599446739837" stroke="rgb(0,0,0)" stroke-width="1"/><line x1="255.4950948236739" y1="626.0772135711845" x2="519.5206814013172" y2="506.5819771999776" stroke="rgb(0,0,0)" stroke-width="1"/><line x1="637.4817002901857" y1="679.2195476347479" x2="93.67720104753727" y2="546.2258332907767" stroke="rgb(0,0,0)" stroke-width="1"/><line x1="560.2315237986983" y1="91.89463447288666" x2="93.67720104753727" y2="546.2258332907767" stroke="rgb(0,0,0)" stroke-width="1"/><line x1="306.8195118091851" y1="104.79458767258276" x2="560.2315237986983" y2="91.89463447288666" stroke="rgb(0,0,0)" stroke-width="1"/><line x1="653.503173818047" y1="139.65492494856238" x2="93.67720104753727" y2="546.2258332907767" stroke="rgb(0,0,0)" stroke-width="1"/><line x1="637.4817002901857" y1="679.2195476347479" x2="213.96386998826586" y2="317.9836478483477" stroke="rgb(0,0,0)" stroke-width="1"/><line x1="93.67720104753727" y1="546.2258332907767" x2="519.5206814013172" y2="506.5819771999776" stroke="rgb(0,0,0)" stroke-width="1"/><line x1="519.5206814013172" y1="506.5819771999776" x2="252.99920212162985" y2="382.3794536818877" stroke="rgb(0,0,0)" stroke-width="1"/><line x1="519.5206814013172" y1="506.5819771999776" x2="93.67720104753727" y2="546.2258332907767" stroke="rgb(0,0,0)" stroke-width="1"/><line x1="93.67720104753727" y1="546.2258332907767" x2="446.3802980305588" y2="388.922649586182" stroke="rgb(0,0,0)" stroke-width="1"/><line x1="213.96386998826586" y1="317.9836478483477" x2="276.72307447760403" y2="376.54890844936" stroke="rgb(0,0,0)" stroke-width="1"/><line x1="213.96386998826586" y1="317.9836478483477" x2="637.4817002901857" y2="679.2195476347479" stroke="rgb(0,0,0)" stroke-width="1"/><line x1="276.72307447760403" y1="376.54890844936" x2="213.96386998826586" y2="317.9836478483477" stroke="rgb(0,0,0)" stroke-width="1"/><polygon points="10,0 20,3 20,-3" fill="black" transform="translate(93.67720104753727,546.2258332907767) rotate(356.5401668789156)"/><polygon points="10,0 20,3 20,-3" fill="black" transform="translate(637.4817002901857,679.2195476347479) rotate(268.71220140908326)"/><polygon points="10,0 20,3 20,-3" fill="black" transform="translate(560.2315237986983,91.89463447288666) rotate(135.76045531596233)"/><polygon points="10,0 20,3 20,-3" fill="black" transform="translate(627.0920752866617,217.0499026683826) rotate(88.71220140908325)"/><polygon points="10,0 20,3 20,-3" fill="black" transform="translate(653.503173818047,139.65492494856238) rotate(144.01115270125507)"/><polygon points="10,0 20,3 20,-3" fill="black" transform="translate(637.4817002901857,679.2195476347479) rotate(193.74260375773397)"/><polygon points="10,0 20,3 20,-3" fill="black" transform="translate(93.67720104753727,546.2258332907767) rotate(335.96345342196605)"/><polygon points="10,0 20,3 20,-3" fill="black" transform="translate(255.4950948236739,626.0772135711845) rotate(335.6489867776486)"/><polygon points="10,0 20,3 20,-3" fill="black" transform="translate(306.8195118091851,104.79458767258276) rotate(357.0858704287846)"/><polygon points="10,0 20,3 20,-3" fill="black" transform="translate(519.5206814013172,506.5819771999776) rotate(204.98613983961627)"/><polygon points="10,0 20,3 20,-3" fill="black" transform="translate(662.0937816961805,511.8599446739837) rotate(176.54016687891558)"/><polygon points="10,0 20,3 20,-3" fill="black" transform="translate(519.5206814013172,506.5819771999776) rotate(155.64898677764853)"/><polygon points="10,0 20,3 20,-3" fill="black" transform="translate(93.67720104753727,546.2258332907767) rotate(13.742603757733974)"/><polygon points="10,0 20,3 20,-3" fill="black" transform="translate(93.67720104753727,546.2258332907767) rotate(315.76045531596236)"/><polygon points="10,0 20,3 20,-3" fill="black" transform="translate(560.2315237986983,91.89463447288666) rotate(177.08587042878452)"/><polygon points="10,0 20,3 20,-3" fill="black" transform="translate(93.67720104753727,546.2258332907767) rotate(324.01115270125507)"/><polygon points="10,0 20,3 20,-3" fill="black" transform="translate(213.96386998826586,317.9836478483477) rotate(40.46223558587076)"/><polygon points="10,0 20,3 20,-3" fill="black" transform="translate(519.5206814013172,506.5819771999776) rotate(174.6813846809723)"/><polygon points="10,0 20,3 20,-3" fill="black" transform="translate(252.99920212162985,382.3794536818877) rotate(24.98613983961627)"/><polygon points="10,0 20,3 20,-3" fill="black" transform="translate(93.67720104753727,546.2258332907767) rotate(354.6813846809723)"/><polygon points="10,0 20,3 20,-3" fill="black" transform="translate(446.3802980305588,388.922649586182) rotate(155.96345342196605)"/><polygon points="10,0 20,3 20,-3" fill="black" transform="translate(276.72307447760403,376.54890844936) rotate(223.02018793682228)"/><polygon points="10,0 20,3 20,-3" fill="black" transform="translate(637.4817002901857,679.2195476347479) rotate(220.46223558587076)"/><polygon points="10,0 20,3 20,-3" fill="black" transform="translate(213.96386998826586,317.9836478483477) rotate(43.02018793682225)"/><circle cx="255.4950948236739" cy="626.0772135711845" r="10" fill="rgb(255,255,0)" stroke="rgb(0,0,0)" stroke-width="1"/><circle cx="93.67720104753727" cy="546.2258332907767" r="10" fill="rgb(255,255,0)" stroke="rgb(0,0,0)" stroke-width="1"/><circle cx="519.5206814013172" cy="506.5819771999776" r="10" fill="rgb(255,255,0)" stroke="rgb(0,0,0)" stroke-width="1"/><circle cx="662.0937816961805" cy="511.8599446739837" r="10" fill="rgb(255,255,0)" stroke="rgb(0,0,0)" stroke-width="1"/><circle cx="560.2315237986983" cy="91.89463447288666" r="10" fill="rgb(255,255,0)" stroke="rgb(0,0,0)" stroke-width="1"/><circle cx="627.0920752866617" cy="217.0499026683826" r="10" fill="rgb(255,255,0)" stroke="rgb(0,0,0)" stroke-width="1"/><circle cx="653.503173818047" cy="139.65492494856238" r="10" fill="rgb(255,255,0)" stroke="rgb(0,0,0)" stroke-width="1"/><circle cx="306.8195118091851" cy="104.79458767258276" r="10" fill="rgb(255,255,0)" stroke="rgb(0,0,0)" stroke-width="1"/><circle cx="637.4817002901857" cy="679.2195476347479" r="10" fill="rgb(255,255,0)" stroke="rgb(0,0,0)" stroke-width="1"/><circle cx="252.99920212162985" cy="382.3794536818877" r="10" fill="rgb(255,255,0)" stroke="rgb(0,0,0)" stroke-width="1"/><circle cx="446.3802980305588" cy="388.922649586182" r="10" fill="rgb(255,255,0)" stroke="rgb(0,0,0)" stroke-width="1"/><circle cx="276.72307447760403" cy="376.54890844936" r="10" fill="rgb(255,255,0)" stroke="rgb(0,0,0)" stroke-width="1"/><circle cx="213.96386998826586" cy="317.9836478483477" r="10" fill="rgb(255,255,0)" stroke="rgb(0,0,0)" stroke-width="1"/><text text-anchor="middle" alignment-baseline="middle" x="255.4950948236739" y="626.0772135711845" fill="rgb(0,0,0)" font-size="12">inch (in)</text><text text-anchor="middle" alignment-baseline="middle" x="93.67720104753727" y="546.2258332907767" fill="rgb(0,0,0)" font-size="12">meter (m)</text><text text-anchor="middle" alignment-baseline="middle" x="519.5206814013172" y="506.5819771999776" fill="rgb(0,0,0)" font-size="12">foot (ft)</text><text text-anchor="middle" alignment-baseline="middle" x="662.0937816961805" y="511.8599446739837" fill="rgb(0,0,0)" font-size="12">micrometer (μm)</text><text text-anchor="middle" alignment-baseline="middle" x="560.2315237986983" y="91.89463447288666" fill="rgb(0,0,0)" font-size="12">nanometer (nm)</text><text text-anchor="middle" alignment-baseline="middle" x="627.0920752866617" y="217.0499026683826" fill="rgb(0,0,0)" font-size="12">Astronomical Unit (AU)</text><text text-anchor="middle" alignment-baseline="middle" x="653.503173818047" y="139.65492494856238" fill="rgb(0,0,0)" font-size="12">millimeter (mm)</text><text text-anchor="middle" alignment-baseline="middle" x="306.8195118091851" y="104.79458767258276" fill="rgb(0,0,0)" font-size="12">Planck length (ℓP)</text><text text-anchor="middle" alignment-baseline="middle" x="637.4817002901857" y="679.2195476347479" fill="rgb(0,0,0)" font-size="12">kilometer (km)</text><text text-anchor="middle" alignment-baseline="middle" x="252.99920212162985" y="382.3794536818877" fill="rgb(0,0,0)" font-size="12">mile (m)</text><text text-anchor="middle" alignment-baseline="middle" x="446.3802980305588" y="388.922649586182" fill="rgb(0,0,0)" font-size="12">centimeter (cm)</text><text text-anchor="middle" alignment-baseline="middle" x="276.72307447760403" y="376.54890844936" fill="rgb(0,0,0)" font-size="12">parsec (pc)</text><text text-anchor="middle" alignment-baseline="middle" x="213.96386998826586" y="317.9836478483477" fill="rgb(0,0,0)" font-size="12">lightyear (ly)</text><text text-anchor="middle" alignment-baseline="middle" x="321.04383330699454" y="532.4794778440595" fill="rgb(0,0,0)" font-size="12">1000000.0</text><text text-anchor="middle" alignment-baseline="middle" x="633.3258502887761" y="494.3516896482017" fill="rgb(0,0,0)" font-size="12">6.6845871222684464E-9</text><text text-anchor="middle" alignment-baseline="middle" x="373.6097946982339" y="273.6271140000427" fill="rgb(0,0,0)" font-size="12">1.0000000000000009E-9</text><text text-anchor="middle" alignment-baseline="middle" x="631.2479252880713" y="401.9177606549287" fill="rgb(0,0,0)" font-size="12">1.495978707E8</text><text text-anchor="middle" alignment-baseline="middle" x="429.57278470984306" y="302.2832882854481" fill="rgb(0,0,0)" font-size="12">0.0010000000000000002</text><text text-anchor="middle" alignment-baseline="middle" x="419.95990059312635" y="626.0220618971593" fill="rgb(0,0,0)" font-size="12">1000.0</text><text text-anchor="middle" alignment-baseline="middle" x="234.75843984074587" y="483.3045598089388" fill="rgb(0,0,0)" font-size="12">100.0</text><text text-anchor="middle" alignment-baseline="middle" x="361.1053294547312" y="578.2791190227017" fill="rgb(0,0,0)" font-size="12">0.08333333333333333</text><text text-anchor="middle" alignment-baseline="middle" x="408.1843166049904" y="99.63460639270433" fill="rgb(0,0,0)" font-size="12">6.187353050365054E25</text><text text-anchor="middle" alignment-baseline="middle" x="412.91208968944227" y="456.90096779274165" fill="rgb(0,0,0)" font-size="12">1.893939393939394E-4</text><text text-anchor="middle" alignment-baseline="middle" x="434.7271494367232" y="525.6063001207009" fill="rgb(0,0,0)" font-size="12">1.0000000000000006E-6</text><text text-anchor="middle" alignment-baseline="middle" x="413.9104467702599" y="554.3800717484604" fill="rgb(0,0,0)" font-size="12">12.0</text><text text-anchor="middle" alignment-baseline="middle" x="311.1990007445966" y="599.4233190283652" fill="rgb(0,0,0)" font-size="12">0.0010000000000000002</text><text text-anchor="middle" alignment-baseline="middle" x="280.29893014800166" y="364.49335376362063" fill="rgb(0,0,0)" font-size="12">1.0E9</text><text text-anchor="middle" alignment-baseline="middle" x="458.866719002893" y="97.0546157527651" fill="rgb(0,0,0)" font-size="12">1.6162E-26</text><text text-anchor="middle" alignment-baseline="middle" x="317.6075901557412" y="383.59746995389094" fill="rgb(0,0,0)" font-size="12">1000.0</text><text text-anchor="middle" alignment-baseline="middle" x="383.37100210903384" y="462.47800776290774" fill="rgb(0,0,0)" font-size="12">9.4607304725808E12</text><text text-anchor="middle" alignment-baseline="middle" x="349.18328925980524" y="522.4395196362972" fill="rgb(0,0,0)" font-size="12">0.3048</text><text text-anchor="middle" alignment-baseline="middle" x="359.60779383350484" y="432.0604630891237" fill="rgb(0,0,0)" font-size="12">5280.0</text><text text-anchor="middle" alignment-baseline="middle" x="264.01459318904926" y="530.3682908544571" fill="rgb(0,0,0)" font-size="12">3.2808398950131235</text><text text-anchor="middle" alignment-baseline="middle" x="305.2990592373502" y="451.8439230680199" fill="rgb(0,0,0)" font-size="12">0.010000000000000002</text><text text-anchor="middle" alignment-baseline="middle" x="251.61939268186876" y="353.1228042089551" fill="rgb(0,0,0)" font-size="12">3.26</text><text text-anchor="middle" alignment-baseline="middle" x="468.0745681694177" y="534.7251877201878" fill="rgb(0,0,0)" font-size="12">1.0570008340246153E-13</text><text text-anchor="middle" alignment-baseline="middle" x="239.06755178400113" y="341.4097520887526" fill="rgb(0,0,0)" font-size="12">0.3067484662576687</text>
      Sorry, your browser does not support inline SVG.
    </svg>