<?xml version='1.0' encoding='UTF-8'?>
<svg version="1.1" width="700.0" height="700.0" onload="init(evt)" xmlns="http://www.w3.org/2000/svg">
      <style>.caption {
  font-size: 14px;
  font-family: Georgia, serif;
}
</style>
      <script type="text/ecmascript"><![CDATA[
function init(evt) {
  if ( window.svgDocument == null ) {
    svgDocument = evt.target.ownerDocument;
  }
}

function RectHover(evt, i, c) {
  rect = svgDocument.getElementById('rect' + i);
  if( c != null ) {
    rect.setAttributeNS(null, "fill", c)  
  }
  tooltiptext = svgDocument.getElementById('tooltiptext' + i);
  tooltipbg = svgDocument.getElementById('tooltipbg' + i);
  if( tooltipbg != null) {
    tbb = tooltiptext.getBBox();
    tooltipbg.setAttributeNS(null, "width", tbb.width);
    tooltipbg.setAttributeNS(null, "height", tbb.height);
    tooltipbg.setAttributeNS(null, "x", tbb.x);
    tooltipbg.setAttributeNS(null, "y", tbb.y);
    tooltipbg.setAttributeNS(null, "visibility", "visible");
  }
  tooltiptext.setAttributeNS(null,"visibility","visible");
}

function RectUnhover(evt, i, c) {
  rect = svgDocument.getElementById('rect' + i);
  if( c != null ) {
    rect.setAttributeNS(null, "fill", c)  
  }
  tooltiptext = svgDocument.getElementById('tooltiptext' + i);
  tooltiptext.setAttributeNS(null,"visibility","hidden");
  tooltipbg = svgDocument.getElementById('tooltipbg' + i);
  if( tooltipbg != null ) {
    tooltipbg.setAttributeNS(null,"visibility","hidden");
  }
}
]]></script>
      <line x1="358.46739908770485" y1="28.46798007243917" x2="255.11426715698335" y2="657.1429238000882" stroke="rgb(0,0,0)" stroke-width="1"/><line x1="255.11426715698335" y1="657.1429238000882" x2="596.1887307614489" y2="573.2414998413295" stroke="rgb(0,0,0)" stroke-width="1"/><line x1="604.1895319505165" y1="342.3424191132276" x2="441.91082072971955" y2="523.1006683337142" stroke="rgb(0,0,0)" stroke-width="1"/><line x1="255.11426715698335" y1="657.1429238000882" x2="423.75477358480094" y2="315.24203917029485" stroke="rgb(0,0,0)" stroke-width="1"/><line x1="423.75477358480094" y1="315.24203917029485" x2="474.25720399448653" y2="528.7380250035301" stroke="rgb(0,0,0)" stroke-width="1"/><line x1="417.97473554768436" y1="450.4164248724237" x2="596.1887307614489" y2="573.2414998413295" stroke="rgb(0,0,0)" stroke-width="1"/><line x1="596.1887307614489" y1="573.2414998413295" x2="687.236110121486" y2="621.1893666268323" stroke="rgb(0,0,0)" stroke-width="1"/><line x1="423.75477358480094" y1="315.24203917029485" x2="255.11426715698335" y2="657.1429238000882" stroke="rgb(0,0,0)" stroke-width="1"/><line x1="474.25720399448653" y1="528.7380250035301" x2="423.75477358480094" y2="315.24203917029485" stroke="rgb(0,0,0)" stroke-width="1"/><line x1="596.1887307614489" y1="573.2414998413295" x2="429.0932228341228" y2="233.7209201156099" stroke="rgb(0,0,0)" stroke-width="1"/><line x1="687.236110121486" y1="621.1893666268323" x2="596.1887307614489" y2="573.2414998413295" stroke="rgb(0,0,0)" stroke-width="1"/><line x1="441.91082072971955" y1="523.1006683337142" x2="596.1887307614489" y2="573.2414998413295" stroke="rgb(0,0,0)" stroke-width="1"/><line x1="429.0932228341228" y1="233.7209201156099" x2="596.1887307614489" y2="573.2414998413295" stroke="rgb(0,0,0)" stroke-width="1"/><line x1="596.1887307614489" y1="573.2414998413295" x2="255.11426715698335" y2="657.1429238000882" stroke="rgb(0,0,0)" stroke-width="1"/><line x1="188.6705762957094" y1="684.2029671101928" x2="120.00669604926215" y2="574.4572512758019" stroke="rgb(0,0,0)" stroke-width="1"/><line x1="596.1887307614489" y1="573.2414998413295" x2="417.97473554768436" y2="450.4164248724237" stroke="rgb(0,0,0)" stroke-width="1"/><line x1="120.00669604926215" y1="574.4572512758019" x2="596.1887307614489" y2="573.2414998413295" stroke="rgb(0,0,0)" stroke-width="1"/><line x1="255.11426715698335" y1="657.1429238000882" x2="358.46739908770485" y2="28.46798007243917" stroke="rgb(0,0,0)" stroke-width="1"/><line x1="417.9456544410937" y1="121.87774885073134" x2="120.00669604926215" y2="574.4572512758019" stroke="rgb(0,0,0)" stroke-width="1"/><line x1="120.00669604926215" y1="574.4572512758019" x2="188.6705762957094" y2="684.2029671101928" stroke="rgb(0,0,0)" stroke-width="1"/><line x1="596.1887307614489" y1="573.2414998413295" x2="441.91082072971955" y2="523.1006683337142" stroke="rgb(0,0,0)" stroke-width="1"/><line x1="596.1887307614489" y1="573.2414998413295" x2="120.00669604926215" y2="574.4572512758019" stroke="rgb(0,0,0)" stroke-width="1"/><line x1="441.91082072971955" y1="523.1006683337142" x2="604.1895319505165" y2="342.3424191132276" stroke="rgb(0,0,0)" stroke-width="1"/><line x1="120.00669604926215" y1="574.4572512758019" x2="417.9456544410937" y2="121.87774885073134" stroke="rgb(0,0,0)" stroke-width="1"/><polygon points="10,0 20,3 20,-3" fill="black" transform="translate(255.11426715698335,657.1429238000882) rotate(279.33582423189887)"/><polygon points="10,0 20,3 20,-3" fill="black" transform="translate(596.1887307614489,573.2414998413295) rotate(166.1801188985037)"/><polygon points="10,0 20,3 20,-3" fill="black" transform="translate(441.91082072971955,523.1006683337142) rotate(311.916434036854)"/><polygon points="10,0 20,3 20,-3" fill="black" transform="translate(423.75477358480094,315.24203917029485) rotate(116.25453564941532)"/><polygon points="10,0 20,3 20,-3" fill="black" transform="translate(474.25720399448653,528.7380250035301) rotate(256.69132867158527)"/><polygon points="10,0 20,3 20,-3" fill="black" transform="translate(596.1887307614489,573.2414998413295) rotate(214.57460912305936)"/><polygon points="10,0 20,3 20,-3" fill="black" transform="translate(687.236110121486,621.1893666268323) rotate(207.77243225857572)"/><polygon points="10,0 20,3 20,-3" fill="black" transform="translate(255.11426715698335,657.1429238000882) rotate(296.2545356494153)"/><polygon points="10,0 20,3 20,-3" fill="black" transform="translate(423.75477358480094,315.24203917029485) rotate(76.69132867158524)"/><polygon points="10,0 20,3 20,-3" fill="black" transform="translate(429.0932228341228,233.7209201156099) rotate(63.79583316945384)"/><polygon points="10,0 20,3 20,-3" fill="black" transform="translate(596.1887307614489,573.2414998413295) rotate(27.77243225857569)"/><polygon points="10,0 20,3 20,-3" fill="black" transform="translate(596.1887307614489,573.2414998413295) rotate(198.004333166173)"/><polygon points="10,0 20,3 20,-3" fill="black" transform="translate(596.1887307614489,573.2414998413295) rotate(243.79583316945386)"/><polygon points="10,0 20,3 20,-3" fill="black" transform="translate(255.11426715698335,657.1429238000882) rotate(346.18011889850374)"/><polygon points="10,0 20,3 20,-3" fill="black" transform="translate(120.00669604926215,574.4572512758019) rotate(57.96729093913329)"/><polygon points="10,0 20,3 20,-3" fill="black" transform="translate(417.97473554768436,450.4164248724237) rotate(34.57460912305933)"/><polygon points="10,0 20,3 20,-3" fill="black" transform="translate(596.1887307614489,573.2414998413295) rotate(179.8537171297897)"/><polygon points="10,0 20,3 20,-3" fill="black" transform="translate(358.46739908770485,28.46798007243917) rotate(99.33582423189887)"/><polygon points="10,0 20,3 20,-3" fill="black" transform="translate(120.00669604926215,574.4572512758019) rotate(303.3574286047544)"/><polygon points="10,0 20,3 20,-3" fill="black" transform="translate(188.6705762957094,684.2029671101928) rotate(237.9672909391333)"/><polygon points="10,0 20,3 20,-3" fill="black" transform="translate(441.91082072971955,523.1006683337142) rotate(18.004333166173012)"/><polygon points="10,0 20,3 20,-3" fill="black" transform="translate(120.00669604926215,574.4572512758019) rotate(359.8537171297897)"/><polygon points="10,0 20,3 20,-3" fill="black" transform="translate(604.1895319505165,342.3424191132276) rotate(131.916434036854)"/><polygon points="10,0 20,3 20,-3" fill="black" transform="translate(417.9456544410937,121.87774885073134) rotate(123.35742860475439)"/><circle cx="417.9456544410937" cy="121.87774885073134" r="10" fill="rgb(255,255,0)" stroke="rgb(0,0,0)" stroke-width="1"/><circle cx="596.1887307614489" cy="573.2414998413295" r="10" fill="rgb(255,255,0)" stroke="rgb(0,0,0)" stroke-width="1"/><circle cx="120.00669604926215" cy="574.4572512758019" r="10" fill="rgb(255,255,0)" stroke="rgb(0,0,0)" stroke-width="1"/><circle cx="687.236110121486" cy="621.1893666268323" r="10" fill="rgb(255,255,0)" stroke="rgb(0,0,0)" stroke-width="1"/><circle cx="441.91082072971955" cy="523.1006683337142" r="10" fill="rgb(255,255,0)" stroke="rgb(0,0,0)" stroke-width="1"/><circle cx="358.46739908770485" cy="28.46798007243917" r="10" fill="rgb(255,255,0)" stroke="rgb(0,0,0)" stroke-width="1"/><circle cx="417.97473554768436" cy="450.4164248724237" r="10" fill="rgb(255,255,0)" stroke="rgb(0,0,0)" stroke-width="1"/><circle cx="604.1895319505165" cy="342.3424191132276" r="10" fill="rgb(255,255,0)" stroke="rgb(0,0,0)" stroke-width="1"/><circle cx="255.11426715698335" cy="657.1429238000882" r="10" fill="rgb(255,255,0)" stroke="rgb(0,0,0)" stroke-width="1"/><circle cx="188.6705762957094" cy="684.2029671101928" r="10" fill="rgb(255,255,0)" stroke="rgb(0,0,0)" stroke-width="1"/><circle cx="429.0932228341228" cy="233.7209201156099" r="10" fill="rgb(255,255,0)" stroke="rgb(0,0,0)" stroke-width="1"/><circle cx="474.25720399448653" cy="528.7380250035301" r="10" fill="rgb(255,255,0)" stroke="rgb(0,0,0)" stroke-width="1"/><circle cx="423.75477358480094" cy="315.24203917029485" r="10" fill="rgb(255,255,0)" stroke="rgb(0,0,0)" stroke-width="1"/><text text-anchor="middle" alignment-baseline="middle" x="417.9456544410937" y="121.87774885073134" fill="rgb(0,0,0)" font-size="12">inch (in)</text><text text-anchor="middle" alignment-baseline="middle" x="596.1887307614489" y="573.2414998413295" fill="rgb(0,0,0)" font-size="12">meter (m)</text><text text-anchor="middle" alignment-baseline="middle" x="120.00669604926215" y="574.4572512758019" fill="rgb(0,0,0)" font-size="12">foot (ft)</text><text text-anchor="middle" alignment-baseline="middle" x="687.236110121486" y="621.1893666268323" fill="rgb(0,0,0)" font-size="12">micrometer (μm)</text><text text-anchor="middle" alignment-baseline="middle" x="441.91082072971955" y="523.1006683337142" fill="rgb(0,0,0)" font-size="12">nanometer (nm)</text><text text-anchor="middle" alignment-baseline="middle" x="358.46739908770485" y="28.46798007243917" fill="rgb(0,0,0)" font-size="12">Astronomical Unit (AU)</text><text text-anchor="middle" alignment-baseline="middle" x="417.97473554768436" y="450.4164248724237" fill="rgb(0,0,0)" font-size="12">millimeter (mm)</text><text text-anchor="middle" alignment-baseline="middle" x="604.1895319505165" y="342.3424191132276" fill="rgb(0,0,0)" font-size="12">Planck length (ℓP)</text><text text-anchor="middle" alignment-baseline="middle" x="255.11426715698335" y="657.1429238000882" fill="rgb(0,0,0)" font-size="12">kilometer (km)</text><text text-anchor="middle" alignment-baseline="middle" x="188.6705762957094" y="684.2029671101928" fill="rgb(0,0,0)" font-size="12">mile (m)</text><text text-anchor="middle" alignment-baseline="middle" x="429.0932228341228" y="233.7209201156099" fill="rgb(0,0,0)" font-size="12">centimeter (cm)</text><text text-anchor="middle" alignment-baseline="middle" x="474.25720399448653" y="528.7380250035301" fill="rgb(0,0,0)" font-size="12">parsec (pc)</text><text text-anchor="middle" alignment-baseline="middle" x="423.75477358480094" y="315.24203917029485" fill="rgb(0,0,0)" font-size="12">lightyear (ly)</text><text text-anchor="middle" alignment-baseline="middle" x="296.45551992927193" y="405.67294630902853" fill="rgb(0,0,0)" font-size="12">6.6845871222684464E-9</text><text text-anchor="middle" alignment-baseline="middle" x="459.75894531966264" y="606.802069424833" fill="rgb(0,0,0)" font-size="12">0.0010000000000000002</text><text text-anchor="middle" alignment-baseline="middle" x="506.82230521803837" y="450.79736864551955" fill="rgb(0,0,0)" font-size="12">1.6162E-26</text><text text-anchor="middle" alignment-baseline="middle" x="356.2985710136739" y="452.0023930222122" fill="rgb(0,0,0)" font-size="12">9.4607304725808E12</text><text text-anchor="middle" alignment-baseline="middle" x="454.0562318306123" y="443.339630670236" fill="rgb(0,0,0)" font-size="12">3.26</text><text text-anchor="middle" alignment-baseline="middle" x="524.9031326759431" y="524.1114698537672" fill="rgb(0,0,0)" font-size="12">1000.0</text><text text-anchor="middle" alignment-baseline="middle" x="650.8171583774712" y="602.0102199126312" fill="rgb(0,0,0)" font-size="12">1.0000000000000006E-6</text><text text-anchor="middle" alignment-baseline="middle" x="322.57046972811037" y="520.3825699481708" fill="rgb(0,0,0)" font-size="12">1.0570008340246153E-13</text><text text-anchor="middle" alignment-baseline="middle" x="443.95574574867516" y="400.64043350358895" fill="rgb(0,0,0)" font-size="12">0.3067484662576687</text><text text-anchor="middle" alignment-baseline="middle" x="495.93142600505325" y="369.5291520058978" fill="rgb(0,0,0)" font-size="12">0.010000000000000002</text><text text-anchor="middle" alignment-baseline="middle" x="632.6076825054638" y="592.4206465555307" fill="rgb(0,0,0)" font-size="12">1000000.0</text><text text-anchor="middle" alignment-baseline="middle" x="534.4775667487572" y="553.1851672382834" fill="rgb(0,0,0)" font-size="12">1.0E9</text><text text-anchor="middle" alignment-baseline="middle" x="529.3505275905185" y="437.43326795104167" fill="rgb(0,0,0)" font-size="12">100.0</text><text text-anchor="middle" alignment-baseline="middle" x="391.5440525987696" y="623.5823542165847" fill="rgb(0,0,0)" font-size="12">1000.0</text><text text-anchor="middle" alignment-baseline="middle" x="147.47224814784104" y="618.3555376095583" fill="rgb(0,0,0)" font-size="12">1.893939393939394E-4</text><text text-anchor="middle" alignment-baseline="middle" x="489.2603336331902" y="499.54645485998606" fill="rgb(0,0,0)" font-size="12">0.0010000000000000002</text><text text-anchor="middle" alignment-baseline="middle" x="405.7159168765742" y="573.7278004151185" fill="rgb(0,0,0)" font-size="12">3.2808398950131235</text><text text-anchor="middle" alignment-baseline="middle" x="317.12614631541624" y="279.9379575634988" fill="rgb(0,0,0)" font-size="12">1.495978707E8</text><text text-anchor="middle" alignment-baseline="middle" x="239.18227940599476" y="393.42545030577367" fill="rgb(0,0,0)" font-size="12">12.0</text><text text-anchor="middle" alignment-baseline="middle" x="161.20502419713048" y="640.3046807764365" fill="rgb(0,0,0)" font-size="12">5280.0</text><text text-anchor="middle" alignment-baseline="middle" x="503.6219847424113" y="543.1570009367604" fill="rgb(0,0,0)" font-size="12">1.0000000000000009E-9</text><text text-anchor="middle" alignment-baseline="middle" x="310.47950993413684" y="573.9709507020129" fill="rgb(0,0,0)" font-size="12">0.3048</text><text text-anchor="middle" alignment-baseline="middle" x="539.2780474621977" y="414.6457188014223" fill="rgb(0,0,0)" font-size="12">6.187353050365054E25</text><text text-anchor="middle" alignment-baseline="middle" x="298.7700710843611" y="302.9095498207596" fill="rgb(0,0,0)" font-size="12">0.08333333333333333</text>
      Sorry, your browser does not support inline SVG.
    </svg>