<?xml version='1.0' encoding='UTF-8'?>
<svg version="1.1" width="700.0" height="700.0" onload="init(evt)" xmlns="http://www.w3.org/2000/svg">
      <style>.caption {
  font-size: 14px;
  font-family: Georgia, serif;
}
</style>
      <script type="text/ecmascript"><![CDATA[
function init(evt) {
  if ( window.svgDocument == null ) {
    svgDocument = evt.target.ownerDocument;
  }
}

function RectHover(evt, i, c) {
  rect = svgDocument.getElementById('rect' + i);
  if( c != null ) {
    rect.setAttributeNS(null, "fill", c)  
  }
  tooltiptext = svgDocument.getElementById('tooltiptext' + i);
  tooltipbg = svgDocument.getElementById('tooltipbg' + i);
  if( tooltipbg != null) {
    tbb = tooltiptext.getBBox();
    tooltipbg.setAttributeNS(null, "width", tbb.width);
    tooltipbg.setAttributeNS(null, "height", tbb.height);
    tooltipbg.setAttributeNS(null, "x", tbb.x);
    tooltipbg.setAttributeNS(null, "y", tbb.y);
    tooltipbg.setAttributeNS(null, "visibility", "visible");
  }
  tooltiptext.setAttributeNS(null,"visibility","visible");
}

function RectUnhover(evt, i, c) {
  rect = svgDocument.getElementById('rect' + i);
  if( c != null ) {
    rect.setAttributeNS(null, "fill", c)  
  }
  tooltiptext = svgDocument.getElementById('tooltiptext' + i);
  tooltiptext.setAttributeNS(null,"visibility","hidden");
  tooltipbg = svgDocument.getElementById('tooltipbg' + i);
  if( tooltipbg != null ) {
    tooltipbg.setAttributeNS(null,"visibility","hidden");
  }
}
]]></script>
      <line x1="137.10105169832576" y1="28.01723331689886" x2="392.79355310802504" y2="132.34587585594198" stroke="rgb(0,0,0)" stroke-width="1"/><line x1="142.13294300978407" y1="344.76261743742646" x2="551.8735223188907" y2="538.7490938673277" stroke="rgb(0,0,0)" stroke-width="1"/><line x1="551.8735223188907" y1="538.7490938673277" x2="404.2659072446831" y2="291.6015972035527" stroke="rgb(0,0,0)" stroke-width="1"/><line x1="355.1657432821792" y1="359.6919896776519" x2="156.38252619965058" y2="626.4848347835122" stroke="rgb(0,0,0)" stroke-width="1"/><line x1="551.8735223188907" y1="538.7490938673277" x2="179.90678049878633" y2="55.27919375684927" stroke="rgb(0,0,0)" stroke-width="1"/><line x1="263.9277155638977" y1="335.4239582199891" x2="583.5644254979057" y2="68.23629052366023" stroke="rgb(0,0,0)" stroke-width="1"/><line x1="551.8735223188907" y1="538.7490938673277" x2="161.22209313583812" y2="66.65289056519535" stroke="rgb(0,0,0)" stroke-width="1"/><line x1="287.3835689488638" y1="608.6629479529842" x2="161.22209313583812" y2="66.65289056519535" stroke="rgb(0,0,0)" stroke-width="1"/><line x1="156.38252619965058" y1="626.4848347835122" x2="355.1657432821792" y2="359.6919896776519" stroke="rgb(0,0,0)" stroke-width="1"/><line x1="551.8735223188907" y1="538.7490938673277" x2="142.13294300978407" y2="344.76261743742646" stroke="rgb(0,0,0)" stroke-width="1"/><line x1="392.79355310802504" y1="132.34587585594198" x2="161.22209313583812" y2="66.65289056519535" stroke="rgb(0,0,0)" stroke-width="1"/><line x1="337.0257352039245" y1="549.2897013515583" x2="355.1657432821792" y2="359.6919896776519" stroke="rgb(0,0,0)" stroke-width="1"/><line x1="583.5644254979057" y1="68.23629052366023" x2="551.8735223188907" y2="538.7490938673277" stroke="rgb(0,0,0)" stroke-width="1"/><line x1="179.90678049878633" y1="55.27919375684927" x2="551.8735223188907" y2="538.7490938673277" stroke="rgb(0,0,0)" stroke-width="1"/><line x1="583.5644254979057" y1="68.23629052366023" x2="263.9277155638977" y2="335.4239582199891" stroke="rgb(0,0,0)" stroke-width="1"/><line x1="355.1657432821792" y1="359.6919896776519" x2="337.0257352039245" y2="549.2897013515583" stroke="rgb(0,0,0)" stroke-width="1"/><line x1="551.8735223188907" y1="538.7490938673277" x2="355.1657432821792" y2="359.6919896776519" stroke="rgb(0,0,0)" stroke-width="1"/><line x1="161.22209313583812" y1="66.65289056519535" x2="392.79355310802504" y2="132.34587585594198" stroke="rgb(0,0,0)" stroke-width="1"/><line x1="551.8735223188907" y1="538.7490938673277" x2="583.5644254979057" y2="68.23629052366023" stroke="rgb(0,0,0)" stroke-width="1"/><line x1="404.2659072446831" y1="291.6015972035527" x2="551.8735223188907" y2="538.7490938673277" stroke="rgb(0,0,0)" stroke-width="1"/><line x1="161.22209313583812" y1="66.65289056519535" x2="287.3835689488638" y2="608.6629479529842" stroke="rgb(0,0,0)" stroke-width="1"/><line x1="392.79355310802504" y1="132.34587585594198" x2="137.10105169832576" y2="28.01723331689886" stroke="rgb(0,0,0)" stroke-width="1"/><line x1="355.1657432821792" y1="359.6919896776519" x2="551.8735223188907" y2="538.7490938673277" stroke="rgb(0,0,0)" stroke-width="1"/><line x1="161.22209313583812" y1="66.65289056519535" x2="551.8735223188907" y2="538.7490938673277" stroke="rgb(0,0,0)" stroke-width="1"/><polygon points="10,0 20,3 20,-3" fill="black" transform="translate(392.79355310802504,132.34587585594198) rotate(202.1966317221779)"/><polygon points="10,0 20,3 20,-3" fill="black" transform="translate(551.8735223188907,538.7490938673277) rotate(205.3346207711955)"/><polygon points="10,0 20,3 20,-3" fill="black" transform="translate(404.2659072446831,291.6015972035527) rotate(59.15244919415599)"/><polygon points="10,0 20,3 20,-3" fill="black" transform="translate(156.38252619965058,626.4848347835122) rotate(306.6892244970254)"/><polygon points="10,0 20,3 20,-3" fill="black" transform="translate(179.90678049878633,55.27919375684927) rotate(52.426433391863895)"/><polygon points="10,0 20,3 20,-3" fill="black" transform="translate(583.5644254979057,68.23629052366023) rotate(140.10739673494308)"/><polygon points="10,0 20,3 20,-3" fill="black" transform="translate(161.22209313583812,66.65289056519535) rotate(50.39283258854067)"/><polygon points="10,0 20,3 20,-3" fill="black" transform="translate(161.22209313583812,66.65289056519535) rotate(76.89681271568404)"/><polygon points="10,0 20,3 20,-3" fill="black" transform="translate(355.1657432821792,359.6919896776519) rotate(126.68922449702544)"/><polygon points="10,0 20,3 20,-3" fill="black" transform="translate(142.13294300978407,344.76261743742646) rotate(25.334620771195517)"/><polygon points="10,0 20,3 20,-3" fill="black" transform="translate(161.22209313583812,66.65289056519535) rotate(15.837760496179584)"/><polygon points="10,0 20,3 20,-3" fill="black" transform="translate(355.1657432821792,359.6919896776519) rotate(95.46521276114412)"/><polygon points="10,0 20,3 20,-3" fill="black" transform="translate(551.8735223188907,538.7490938673277) rotate(273.85327812415716)"/><polygon points="10,0 20,3 20,-3" fill="black" transform="translate(551.8735223188907,538.7490938673277) rotate(232.4264333918639)"/><polygon points="10,0 20,3 20,-3" fill="black" transform="translate(263.9277155638977,335.4239582199891) rotate(320.1073967349431)"/><polygon points="10,0 20,3 20,-3" fill="black" transform="translate(337.0257352039245,549.2897013515583) rotate(275.46521276114413)"/><polygon points="10,0 20,3 20,-3" fill="black" transform="translate(355.1657432821792,359.6919896776519) rotate(42.3106418186691)"/><polygon points="10,0 20,3 20,-3" fill="black" transform="translate(392.79355310802504,132.34587585594198) rotate(195.83776049617958)"/><polygon points="10,0 20,3 20,-3" fill="black" transform="translate(583.5644254979057,68.23629052366023) rotate(93.85327812415716)"/><polygon points="10,0 20,3 20,-3" fill="black" transform="translate(551.8735223188907,538.7490938673277) rotate(239.15244919415602)"/><polygon points="10,0 20,3 20,-3" fill="black" transform="translate(287.3835689488638,608.6629479529842) rotate(256.89681271568406)"/><polygon points="10,0 20,3 20,-3" fill="black" transform="translate(137.10105169832576,28.01723331689886) rotate(22.196631722177898)"/><polygon points="10,0 20,3 20,-3" fill="black" transform="translate(551.8735223188907,538.7490938673277) rotate(222.31064181866907)"/><polygon points="10,0 20,3 20,-3" fill="black" transform="translate(551.8735223188907,538.7490938673277) rotate(230.39283258854067)"/><circle cx="156.38252619965058" cy="626.4848347835122" r="10" fill="rgb(255,255,0)" stroke="rgb(0,0,0)" stroke-width="1"/><circle cx="551.8735223188907" cy="538.7490938673277" r="10" fill="rgb(255,255,0)" stroke="rgb(0,0,0)" stroke-width="1"/><circle cx="355.1657432821792" cy="359.6919896776519" r="10" fill="rgb(255,255,0)" stroke="rgb(0,0,0)" stroke-width="1"/><circle cx="142.13294300978407" cy="344.76261743742646" r="10" fill="rgb(255,255,0)" stroke="rgb(0,0,0)" stroke-width="1"/><circle cx="583.5644254979057" cy="68.23629052366023" r="10" fill="rgb(255,255,0)" stroke="rgb(0,0,0)" stroke-width="1"/><circle cx="287.3835689488638" cy="608.6629479529842" r="10" fill="rgb(255,255,0)" stroke="rgb(0,0,0)" stroke-width="1"/><circle cx="179.90678049878633" cy="55.27919375684927" r="10" fill="rgb(255,255,0)" stroke="rgb(0,0,0)" stroke-width="1"/><circle cx="263.9277155638977" cy="335.4239582199891" r="10" fill="rgb(255,255,0)" stroke="rgb(0,0,0)" stroke-width="1"/><circle cx="161.22209313583812" cy="66.65289056519535" r="10" fill="rgb(255,255,0)" stroke="rgb(0,0,0)" stroke-width="1"/><circle cx="337.0257352039245" cy="549.2897013515583" r="10" fill="rgb(255,255,0)" stroke="rgb(0,0,0)" stroke-width="1"/><circle cx="404.2659072446831" cy="291.6015972035527" r="10" fill="rgb(255,255,0)" stroke="rgb(0,0,0)" stroke-width="1"/><circle cx="137.10105169832576" cy="28.01723331689886" r="10" fill="rgb(255,255,0)" stroke="rgb(0,0,0)" stroke-width="1"/><circle cx="392.79355310802504" cy="132.34587585594198" r="10" fill="rgb(255,255,0)" stroke="rgb(0,0,0)" stroke-width="1"/><text text-anchor="middle" alignment-baseline="middle" x="156.38252619965058" y="626.4848347835122" fill="rgb(0,0,0)" font-size="12">inch (in)</text><text text-anchor="middle" alignment-baseline="middle" x="551.8735223188907" y="538.7490938673277" fill="rgb(0,0,0)" font-size="12">meter (m)</text><text text-anchor="middle" alignment-baseline="middle" x="355.1657432821792" y="359.6919896776519" fill="rgb(0,0,0)" font-size="12">foot (ft)</text><text text-anchor="middle" alignment-baseline="middle" x="142.13294300978407" y="344.76261743742646" fill="rgb(0,0,0)" font-size="12">micrometer (μm)</text><text text-anchor="middle" alignment-baseline="middle" x="583.5644254979057" y="68.23629052366023" fill="rgb(0,0,0)" font-size="12">nanometer (nm)</text><text text-anchor="middle" alignment-baseline="middle" x="287.3835689488638" y="608.6629479529842" fill="rgb(0,0,0)" font-size="12">Astronomical Unit (AU)</text><text text-anchor="middle" alignment-baseline="middle" x="179.90678049878633" y="55.27919375684927" fill="rgb(0,0,0)" font-size="12">millimeter (mm)</text><text text-anchor="middle" alignment-baseline="middle" x="263.9277155638977" y="335.4239582199891" fill="rgb(0,0,0)" font-size="12">Planck length (ℓP)</text><text text-anchor="middle" alignment-baseline="middle" x="161.22209313583812" y="66.65289056519535" fill="rgb(0,0,0)" font-size="12">kilometer (km)</text><text text-anchor="middle" alignment-baseline="middle" x="337.0257352039245" y="549.2897013515583" fill="rgb(0,0,0)" font-size="12">mile (m)</text><text text-anchor="middle" alignment-baseline="middle" x="404.2659072446831" y="291.6015972035527" fill="rgb(0,0,0)" font-size="12">centimeter (cm)</text><text text-anchor="middle" alignment-baseline="middle" x="137.10105169832576" y="28.01723331689886" fill="rgb(0,0,0)" font-size="12">parsec (pc)</text><text text-anchor="middle" alignment-baseline="middle" x="392.79355310802504" y="132.34587585594198" fill="rgb(0,0,0)" font-size="12">lightyear (ly)</text><text text-anchor="middle" alignment-baseline="middle" x="290.5165525441453" y="90.61441884032473" fill="rgb(0,0,0)" font-size="12">0.3067484662576687</text><text text-anchor="middle" alignment-baseline="middle" x="387.977290595248" y="461.1545032953672" fill="rgb(0,0,0)" font-size="12">1000000.0</text><text text-anchor="middle" alignment-baseline="middle" x="463.3089532743661" y="390.46059586906273" fill="rgb(0,0,0)" font-size="12">0.010000000000000002</text><text text-anchor="middle" alignment-baseline="middle" x="235.89581303266203" y="519.767696741168" fill="rgb(0,0,0)" font-size="12">0.08333333333333333</text><text text-anchor="middle" alignment-baseline="middle" x="328.6934772268281" y="248.66715380104068" fill="rgb(0,0,0)" font-size="12">0.0010000000000000002</text><text text-anchor="middle" alignment-baseline="middle" x="455.70974152430256" y="175.1113576021918" fill="rgb(0,0,0)" font-size="12">1.6162E-26</text><text text-anchor="middle" alignment-baseline="middle" x="317.48266480905914" y="255.49137188604828" fill="rgb(0,0,0)" font-size="12">1000.0</text><text text-anchor="middle" alignment-baseline="middle" x="211.6866834610484" y="283.4569135203109" fill="rgb(0,0,0)" font-size="12">6.6845871222684464E-9</text><text text-anchor="middle" alignment-baseline="middle" x="275.65245644916774" y="466.40912771999604" fill="rgb(0,0,0)" font-size="12">12.0</text><text text-anchor="middle" alignment-baseline="middle" x="306.0291747334267" y="422.35720800938697" fill="rgb(0,0,0)" font-size="12">1.0000000000000006E-6</text><text text-anchor="middle" alignment-baseline="middle" x="253.8506771247129" y="92.93008468149401" fill="rgb(0,0,0)" font-size="12">1.0570008340246153E-13</text><text text-anchor="middle" alignment-baseline="middle" x="347.90974005087736" y="435.5310743472145" fill="rgb(0,0,0)" font-size="12">1.893939393939394E-4</text><text text-anchor="middle" alignment-baseline="middle" x="564.5498835904967" y="350.5439725298607" fill="rgb(0,0,0)" font-size="12">1.0E9</text><text text-anchor="middle" alignment-baseline="middle" x="403.0868255908489" y="345.3611338231363" fill="rgb(0,0,0)" font-size="12">1000.0</text><text text-anchor="middle" alignment-baseline="middle" x="391.78239953750096" y="228.54889114145755" fill="rgb(0,0,0)" font-size="12">6.187353050365054E25</text><text text-anchor="middle" alignment-baseline="middle" x="344.2817384352264" y="473.4506166819957" fill="rgb(0,0,0)" font-size="12">5280.0</text><text text-anchor="middle" alignment-baseline="middle" x="433.8488548968638" y="431.3148313535222" fill="rgb(0,0,0)" font-size="12">0.3048</text><text text-anchor="middle" alignment-baseline="middle" x="300.16496911915027" y="106.06868173964332" fill="rgb(0,0,0)" font-size="12">9.4607304725808E12</text><text text-anchor="middle" alignment-baseline="middle" x="570.8880642262997" y="256.4414118611272" fill="rgb(0,0,0)" font-size="12">1.0000000000000009E-9</text><text text-anchor="middle" alignment-baseline="middle" x="492.83047628920764" y="439.8900952018177" fill="rgb(0,0,0)" font-size="12">100.0</text><text text-anchor="middle" alignment-baseline="middle" x="236.91897862365352" y="391.8589249978686" fill="rgb(0,0,0)" font-size="12">1.495978707E8</text><text text-anchor="middle" alignment-baseline="middle" x="239.37805226220547" y="69.7486903325161" fill="rgb(0,0,0)" font-size="12">3.26</text><text text-anchor="middle" alignment-baseline="middle" x="473.1904107042061" y="467.1262521914574" fill="rgb(0,0,0)" font-size="12">3.2808398950131235</text><text text-anchor="middle" alignment-baseline="middle" x="395.6129506456696" y="349.9106125464748" fill="rgb(0,0,0)" font-size="12">0.0010000000000000002</text>
      Sorry, your browser does not support inline SVG.
    </svg>