<?xml version='1.0' encoding='UTF-8'?>
<svg version="1.1" width="700.0" height="700.0" onload="init(evt)" xmlns="http://www.w3.org/2000/svg">
      <style>.caption {
  font-size: 14px;
  font-family: Georgia, serif;
}
</style>
      <script type="text/ecmascript"><![CDATA[
function init(evt) {
  if ( window.svgDocument == null ) {
    svgDocument = evt.target.ownerDocument;
  }
}

function RectHover(evt, i, c) {
  rect = svgDocument.getElementById('rect' + i);
  if( c != null ) {
    rect.setAttributeNS(null, "fill", c)  
  }
  tooltiptext = svgDocument.getElementById('tooltiptext' + i);
  tooltipbg = svgDocument.getElementById('tooltipbg' + i);
  if( tooltipbg != null) {
    tbb = tooltiptext.getBBox();
    tooltipbg.setAttributeNS(null, "width", tbb.width);
    tooltipbg.setAttributeNS(null, "height", tbb.height);
    tooltipbg.setAttributeNS(null, "x", tbb.x);
    tooltipbg.setAttributeNS(null, "y", tbb.y);
    tooltipbg.setAttributeNS(null, "visibility", "visible");
  }
  tooltiptext.setAttributeNS(null,"visibility","visible");
}

function RectUnhover(evt, i, c) {
  rect = svgDocument.getElementById('rect' + i);
  if( c != null ) {
    rect.setAttributeNS(null, "fill", c)  
  }
  tooltiptext = svgDocument.getElementById('tooltiptext' + i);
  tooltiptext.setAttributeNS(null,"visibility","hidden");
  tooltipbg = svgDocument.getElementById('tooltipbg' + i);
  if( tooltipbg != null ) {
    tooltipbg.setAttributeNS(null,"visibility","hidden");
  }
}
]]></script>
      <line x1="389.78782152800267" y1="636.4759014741329" x2="269.9527387922078" y2="535.873112111773" stroke="rgb(0,0,0)" stroke-width="1"/><line x1="236.56318714045693" y1="467.6517821544282" x2="411.8000612149701" y2="385.5815778035257" stroke="rgb(0,0,0)" stroke-width="1"/><line x1="358.1793561844308" y1="228.92315035121402" x2="607.476881972596" y2="135.9398905154572" stroke="rgb(0,0,0)" stroke-width="1"/><line x1="431.27694800686123" y1="113.00853483953033" x2="105.45081688990227" y2="60.62749667911363" stroke="rgb(0,0,0)" stroke-width="1"/><line x1="431.27694800686123" y1="113.00853483953033" x2="358.1793561844308" y2="228.92315035121402" stroke="rgb(0,0,0)" stroke-width="1"/><line x1="236.56318714045693" y1="467.6517821544282" x2="660.3205405709276" y2="631.4919804035144" stroke="rgb(0,0,0)" stroke-width="1"/><line x1="269.9527387922078" y1="535.873112111773" x2="323.30169907758784" y2="557.8182263461068" stroke="rgb(0,0,0)" stroke-width="1"/><line x1="451.0534950039058" y1="453.1610720502495" x2="358.1793561844308" y2="228.92315035121402" stroke="rgb(0,0,0)" stroke-width="1"/><line x1="415.076049318597" y1="330.7229254831776" x2="358.1793561844308" y2="228.92315035121402" stroke="rgb(0,0,0)" stroke-width="1"/><line x1="358.1793561844308" y1="228.92315035121402" x2="411.8000612149701" y2="385.5815778035257" stroke="rgb(0,0,0)" stroke-width="1"/><line x1="323.30169907758784" y1="557.8182263461068" x2="269.9527387922078" y2="535.873112111773" stroke="rgb(0,0,0)" stroke-width="1"/><line x1="269.9527387922078" y1="535.873112111773" x2="358.1793561844308" y2="228.92315035121402" stroke="rgb(0,0,0)" stroke-width="1"/><line x1="358.1793561844308" y1="228.92315035121402" x2="431.27694800686123" y2="113.00853483953033" stroke="rgb(0,0,0)" stroke-width="1"/><line x1="411.8000612149701" y1="385.5815778035257" x2="358.1793561844308" y2="228.92315035121402" stroke="rgb(0,0,0)" stroke-width="1"/><line x1="411.8000612149701" y1="385.5815778035257" x2="538.4751751030152" y2="303.20518037289855" stroke="rgb(0,0,0)" stroke-width="1"/><line x1="105.45081688990227" y1="60.62749667911363" x2="431.27694800686123" y2="113.00853483953033" stroke="rgb(0,0,0)" stroke-width="1"/><line x1="358.1793561844308" y1="228.92315035121402" x2="415.076049318597" y2="330.7229254831776" stroke="rgb(0,0,0)" stroke-width="1"/><line x1="538.4751751030152" y1="303.20518037289855" x2="411.8000612149701" y2="385.5815778035257" stroke="rgb(0,0,0)" stroke-width="1"/><line x1="269.9527387922078" y1="535.873112111773" x2="389.78782152800267" y2="636.4759014741329" stroke="rgb(0,0,0)" stroke-width="1"/><line x1="358.1793561844308" y1="228.92315035121402" x2="269.9527387922078" y2="535.873112111773" stroke="rgb(0,0,0)" stroke-width="1"/><line x1="358.1793561844308" y1="228.92315035121402" x2="451.0534950039058" y2="453.1610720502495" stroke="rgb(0,0,0)" stroke-width="1"/><line x1="660.3205405709276" y1="631.4919804035144" x2="236.56318714045693" y2="467.6517821544282" stroke="rgb(0,0,0)" stroke-width="1"/><line x1="607.476881972596" y1="135.9398905154572" x2="358.1793561844308" y2="228.92315035121402" stroke="rgb(0,0,0)" stroke-width="1"/><line x1="411.8000612149701" y1="385.5815778035257" x2="236.56318714045693" y2="467.6517821544282" stroke="rgb(0,0,0)" stroke-width="1"/><polygon points="10,0 20,3 20,-3" fill="black" transform="translate(269.9527387922078,535.873112111773) rotate(40.01380580920227)"/><polygon points="10,0 20,3 20,-3" fill="black" transform="translate(411.8000612149701,385.5815778035257) rotate(154.90449014981985)"/><polygon points="10,0 20,3 20,-3" fill="black" transform="translate(607.476881972596,135.9398905154572) rotate(159.5454363694003)"/><polygon points="10,0 20,3 20,-3" fill="black" transform="translate(105.45081688990227,60.62749667911363) rotate(9.13294047792914)"/><polygon points="10,0 20,3 20,-3" fill="black" transform="translate(358.1793561844308,228.92315035121402) rotate(302.2361799497269)"/><polygon points="10,0 20,3 20,-3" fill="black" transform="translate(660.3205405709276,631.4919804035144) rotate(201.138337441933)"/><polygon points="10,0 20,3 20,-3" fill="black" transform="translate(323.30169907758784,557.8182263461068) rotate(202.35983365551326)"/><polygon points="10,0 20,3 20,-3" fill="black" transform="translate(358.1793561844308,228.92315035121402) rotate(67.50179920228774)"/><polygon points="10,0 20,3 20,-3" fill="black" transform="translate(358.1793561844308,228.92315035121402) rotate(60.79883268992201)"/><polygon points="10,0 20,3 20,-3" fill="black" transform="translate(411.8000612149701,385.5815778035257) rotate(251.10506219464145)"/><polygon points="10,0 20,3 20,-3" fill="black" transform="translate(269.9527387922078,535.873112111773) rotate(22.359833655513228)"/><polygon points="10,0 20,3 20,-3" fill="black" transform="translate(358.1793561844308,228.92315035121402) rotate(106.03623698876862)"/><polygon points="10,0 20,3 20,-3" fill="black" transform="translate(431.27694800686123,113.00853483953033) rotate(122.23617994972686)"/><polygon points="10,0 20,3 20,-3" fill="black" transform="translate(358.1793561844308,228.92315035121402) rotate(71.10506219464146)"/><polygon points="10,0 20,3 20,-3" fill="black" transform="translate(538.4751751030152,303.20518037289855) rotate(146.96418704343543)"/><polygon points="10,0 20,3 20,-3" fill="black" transform="translate(431.27694800686123,113.00853483953033) rotate(189.1329404779292)"/><polygon points="10,0 20,3 20,-3" fill="black" transform="translate(415.076049318597,330.7229254831776) rotate(240.79883268992205)"/><polygon points="10,0 20,3 20,-3" fill="black" transform="translate(411.8000612149701,385.5815778035257) rotate(326.96418704343546)"/><polygon points="10,0 20,3 20,-3" fill="black" transform="translate(389.78782152800267,636.4759014741329) rotate(220.0138058092023)"/><polygon points="10,0 20,3 20,-3" fill="black" transform="translate(269.9527387922078,535.873112111773) rotate(286.0362369887686)"/><polygon points="10,0 20,3 20,-3" fill="black" transform="translate(451.0534950039058,453.1610720502495) rotate(247.50179920228777)"/><polygon points="10,0 20,3 20,-3" fill="black" transform="translate(236.56318714045693,467.6517821544282) rotate(21.138337441932975)"/><polygon points="10,0 20,3 20,-3" fill="black" transform="translate(358.1793561844308,228.92315035121402) rotate(339.5454363694003)"/><polygon points="10,0 20,3 20,-3" fill="black" transform="translate(236.56318714045693,467.6517821544282) rotate(334.9044901498198)"/><circle cx="323.30169907758784" cy="557.8182263461068" r="10" fill="rgb(255,255,0)" stroke="rgb(0,0,0)" stroke-width="1"/><circle cx="358.1793561844308" cy="228.92315035121402" r="10" fill="rgb(255,255,0)" stroke="rgb(0,0,0)" stroke-width="1"/><circle cx="269.9527387922078" cy="535.873112111773" r="10" fill="rgb(255,255,0)" stroke="rgb(0,0,0)" stroke-width="1"/><circle cx="607.476881972596" cy="135.9398905154572" r="10" fill="rgb(255,255,0)" stroke="rgb(0,0,0)" stroke-width="1"/><circle cx="431.27694800686123" cy="113.00853483953033" r="10" fill="rgb(255,255,0)" stroke="rgb(0,0,0)" stroke-width="1"/><circle cx="538.4751751030152" cy="303.20518037289855" r="10" fill="rgb(255,255,0)" stroke="rgb(0,0,0)" stroke-width="1"/><circle cx="415.076049318597" cy="330.7229254831776" r="10" fill="rgb(255,255,0)" stroke="rgb(0,0,0)" stroke-width="1"/><circle cx="105.45081688990227" cy="60.62749667911363" r="10" fill="rgb(255,255,0)" stroke="rgb(0,0,0)" stroke-width="1"/><circle cx="411.8000612149701" cy="385.5815778035257" r="10" fill="rgb(255,255,0)" stroke="rgb(0,0,0)" stroke-width="1"/><circle cx="389.78782152800267" cy="636.4759014741329" r="10" fill="rgb(255,255,0)" stroke="rgb(0,0,0)" stroke-width="1"/><circle cx="451.0534950039058" cy="453.1610720502495" r="10" fill="rgb(255,255,0)" stroke="rgb(0,0,0)" stroke-width="1"/><circle cx="660.3205405709276" cy="631.4919804035144" r="10" fill="rgb(255,255,0)" stroke="rgb(0,0,0)" stroke-width="1"/><circle cx="236.56318714045693" cy="467.6517821544282" r="10" fill="rgb(255,255,0)" stroke="rgb(0,0,0)" stroke-width="1"/><text text-anchor="middle" alignment-baseline="middle" x="323.30169907758784" y="557.8182263461068" fill="rgb(0,0,0)" font-size="12">inch (in)</text><text text-anchor="middle" alignment-baseline="middle" x="358.1793561844308" y="228.92315035121402" fill="rgb(0,0,0)" font-size="12">meter (m)</text><text text-anchor="middle" alignment-baseline="middle" x="269.9527387922078" y="535.873112111773" fill="rgb(0,0,0)" font-size="12">foot (ft)</text><text text-anchor="middle" alignment-baseline="middle" x="607.476881972596" y="135.9398905154572" fill="rgb(0,0,0)" font-size="12">micrometer (μm)</text><text text-anchor="middle" alignment-baseline="middle" x="431.27694800686123" y="113.00853483953033" fill="rgb(0,0,0)" font-size="12">nanometer (nm)</text><text text-anchor="middle" alignment-baseline="middle" x="538.4751751030152" y="303.20518037289855" fill="rgb(0,0,0)" font-size="12">Astronomical Unit (AU)</text><text text-anchor="middle" alignment-baseline="middle" x="415.076049318597" y="330.7229254831776" fill="rgb(0,0,0)" font-size="12">millimeter (mm)</text><text text-anchor="middle" alignment-baseline="middle" x="105.45081688990227" y="60.62749667911363" fill="rgb(0,0,0)" font-size="12">Planck length (ℓP)</text><text text-anchor="middle" alignment-baseline="middle" x="411.8000612149701" y="385.5815778035257" fill="rgb(0,0,0)" font-size="12">kilometer (km)</text><text text-anchor="middle" alignment-baseline="middle" x="389.78782152800267" y="636.4759014741329" fill="rgb(0,0,0)" font-size="12">mile (m)</text><text text-anchor="middle" alignment-baseline="middle" x="451.0534950039058" y="453.1610720502495" fill="rgb(0,0,0)" font-size="12">centimeter (cm)</text><text text-anchor="middle" alignment-baseline="middle" x="660.3205405709276" y="631.4919804035144" fill="rgb(0,0,0)" font-size="12">parsec (pc)</text><text text-anchor="middle" alignment-baseline="middle" x="236.56318714045693" y="467.6517821544282" fill="rgb(0,0,0)" font-size="12">lightyear (ly)</text><text text-anchor="middle" alignment-baseline="middle" x="317.88677188652576" y="576.114227856717" fill="rgb(0,0,0)" font-size="12">1.893939393939394E-4</text><text text-anchor="middle" alignment-baseline="middle" x="341.70531158516485" y="418.4096595438867" fill="rgb(0,0,0)" font-size="12">1.0570008340246153E-13</text><text text-anchor="middle" alignment-baseline="middle" x="507.7578716573299" y="173.1331944497599" fill="rgb(0,0,0)" font-size="12">1.0000000000000006E-6</text><text text-anchor="middle" alignment-baseline="middle" x="235.78126933668588" y="81.57991194328031" fill="rgb(0,0,0)" font-size="12">6.187353050365054E25</text><text text-anchor="middle" alignment-baseline="middle" x="387.41839291340295" y="182.55730414654056" fill="rgb(0,0,0)" font-size="12">1.0E9</text><text text-anchor="middle" alignment-baseline="middle" x="490.81759919873934" y="565.9559011038799" fill="rgb(0,0,0)" font-size="12">3.26</text><text text-anchor="middle" alignment-baseline="middle" x="301.96211496343585" y="549.0401806523734" fill="rgb(0,0,0)" font-size="12">0.08333333333333333</text><text text-anchor="middle" alignment-baseline="middle" x="395.3290117122208" y="318.6183190308282" fill="rgb(0,0,0)" font-size="12">100.0</text><text text-anchor="middle" alignment-baseline="middle" x="380.93803343809725" y="269.64306040399947" fill="rgb(0,0,0)" font-size="12">1000.0</text><text text-anchor="middle" alignment-baseline="middle" x="390.3517792027544" y="322.918206822601" fill="rgb(0,0,0)" font-size="12">1000.0</text><text text-anchor="middle" alignment-baseline="middle" x="291.2923229063598" y="544.6511578055065" fill="rgb(0,0,0)" font-size="12">12.0</text><text text-anchor="middle" alignment-baseline="middle" x="322.8887092275416" y="351.70313505543766" fill="rgb(0,0,0)" font-size="12">3.2808398950131235</text><text text-anchor="middle" alignment-baseline="middle" x="402.03791127788907" y="159.3743810442038" fill="rgb(0,0,0)" font-size="12">1.0000000000000009E-9</text><text text-anchor="middle" alignment-baseline="middle" x="379.6276381966465" y="291.5865213321387" fill="rgb(0,0,0)" font-size="12">0.0010000000000000002</text><text text-anchor="middle" alignment-baseline="middle" x="487.80512954779715" y="336.1557393451494" fill="rgb(0,0,0)" font-size="12">1.495978707E8</text><text text-anchor="middle" alignment-baseline="middle" x="300.9464955600776" y="92.05611957536365" fill="rgb(0,0,0)" font-size="12">1.6162E-26</text><text text-anchor="middle" alignment-baseline="middle" x="392.3173720649305" y="290.00301543039217" fill="rgb(0,0,0)" font-size="12">0.0010000000000000002</text><text text-anchor="middle" alignment-baseline="middle" x="462.4701067701882" y="352.63101883127484" fill="rgb(0,0,0)" font-size="12">6.6845871222684464E-9</text><text text-anchor="middle" alignment-baseline="middle" x="341.8537884336847" y="596.234785729189" fill="rgb(0,0,0)" font-size="12">5280.0</text><text text-anchor="middle" alignment-baseline="middle" x="305.243385749097" y="413.09312740754945" fill="rgb(0,0,0)" font-size="12">0.3048</text><text text-anchor="middle" alignment-baseline="middle" x="413.9038394761158" y="363.4659033706353" fill="rgb(0,0,0)" font-size="12">0.010000000000000002</text><text text-anchor="middle" alignment-baseline="middle" x="406.0661285126452" y="533.1878614540626" fill="rgb(0,0,0)" font-size="12">0.3067484662576687</text><text text-anchor="middle" alignment-baseline="middle" x="457.89836649969686" y="191.7298464169113" fill="rgb(0,0,0)" font-size="12">1000000.0</text><text text-anchor="middle" alignment-baseline="middle" x="306.6579367702622" y="434.8237004140672" fill="rgb(0,0,0)" font-size="12">9.4607304725808E12</text>
      Sorry, your browser does not support inline SVG.
    </svg>