<?xml version='1.0' encoding='UTF-8'?>
<svg version="1.1" width="700.0" height="700.0" onload="init(evt)" xmlns="http://www.w3.org/2000/svg">
      <style>.caption {
  font-size: 14px;
  font-family: Georgia, serif;
}
</style>
      <script type="text/ecmascript"><![CDATA[
function init(evt) {
  if ( window.svgDocument == null ) {
    svgDocument = evt.target.ownerDocument;
  }
}

function RectHover(evt, i, c) {
  rect = svgDocument.getElementById('rect' + i);
  if( c != null ) {
    rect.setAttributeNS(null, "fill", c)  
  }
  tooltiptext = svgDocument.getElementById('tooltiptext' + i);
  tooltipbg = svgDocument.getElementById('tooltipbg' + i);
  if( tooltipbg != null) {
    tbb = tooltiptext.getBBox();
    tooltipbg.setAttributeNS(null, "width", tbb.width);
    tooltipbg.setAttributeNS(null, "height", tbb.height);
    tooltipbg.setAttributeNS(null, "x", tbb.x);
    tooltipbg.setAttributeNS(null, "y", tbb.y);
    tooltipbg.setAttributeNS(null, "visibility", "visible");
  }
  tooltiptext.setAttributeNS(null,"visibility","visible");
}

function RectUnhover(evt, i, c) {
  rect = svgDocument.getElementById('rect' + i);
  if( c != null ) {
    rect.setAttributeNS(null, "fill", c)  
  }
  tooltiptext = svgDocument.getElementById('tooltiptext' + i);
  tooltiptext.setAttributeNS(null,"visibility","hidden");
  tooltipbg = svgDocument.getElementById('tooltipbg' + i);
  if( tooltipbg != null ) {
    tooltipbg.setAttributeNS(null,"visibility","hidden");
  }
}
]]></script>
      <line x1="326.12717038909784" y1="470.4835716452875" x2="134.3871164885853" y2="625.8923627590218" stroke="rgb(0,0,0)" stroke-width="1"/><line x1="30.525334581649645" y1="525.8980329311282" x2="637.2987536244597" y2="689.5180681584202" stroke="rgb(0,0,0)" stroke-width="1"/><line x1="326.12717038909784" y1="470.4835716452875" x2="637.2987536244597" y2="689.5180681584202" stroke="rgb(0,0,0)" stroke-width="1"/><line x1="55.96936456758681" y1="6.369183446027227" x2="270.6020877757069" y2="206.46212558071105" stroke="rgb(0,0,0)" stroke-width="1"/><line x1="270.6020877757069" y1="206.46212558071105" x2="9.25920653955935" y2="196.4369480062518" stroke="rgb(0,0,0)" stroke-width="1"/><line x1="439.9045505817148" y1="607.8482310046624" x2="321.0612090574175" y2="623.1329349014668" stroke="rgb(0,0,0)" stroke-width="1"/><line x1="134.3871164885853" y1="625.8923627590218" x2="326.12717038909784" y2="470.4835716452875" stroke="rgb(0,0,0)" stroke-width="1"/><line x1="529.2772086163691" y1="303.0991628691377" x2="439.9045505817148" y2="607.8482310046624" stroke="rgb(0,0,0)" stroke-width="1"/><line x1="265.687154532686" y1="79.00262276591825" x2="321.0612090574175" y2="623.1329349014668" stroke="rgb(0,0,0)" stroke-width="1"/><line x1="9.25920653955935" y1="196.4369480062518" x2="270.6020877757069" y2="206.46212558071105" stroke="rgb(0,0,0)" stroke-width="1"/><line x1="321.0612090574175" y1="623.1329349014668" x2="393.88904804742145" y2="359.05038555237076" stroke="rgb(0,0,0)" stroke-width="1"/><line x1="321.0612090574175" y1="623.1329349014668" x2="265.687154532686" y2="79.00262276591825" stroke="rgb(0,0,0)" stroke-width="1"/><line x1="270.6020877757069" y1="206.46212558071105" x2="55.96936456758681" y2="6.369183446027227" stroke="rgb(0,0,0)" stroke-width="1"/><line x1="270.6020877757069" y1="206.46212558071105" x2="321.0612090574175" y2="623.1329349014668" stroke="rgb(0,0,0)" stroke-width="1"/><line x1="637.2987536244597" y1="689.5180681584202" x2="30.525334581649645" y2="525.8980329311282" stroke="rgb(0,0,0)" stroke-width="1"/><line x1="439.9045505817148" y1="607.8482310046624" x2="529.2772086163691" y2="303.0991628691377" stroke="rgb(0,0,0)" stroke-width="1"/><line x1="321.0612090574175" y1="623.1329349014668" x2="92.21464252188275" y2="534.8474844434721" stroke="rgb(0,0,0)" stroke-width="1"/><line x1="321.0612090574175" y1="623.1329349014668" x2="270.6020877757069" y2="206.46212558071105" stroke="rgb(0,0,0)" stroke-width="1"/><line x1="92.21464252188275" y1="534.8474844434721" x2="321.0612090574175" y2="623.1329349014668" stroke="rgb(0,0,0)" stroke-width="1"/><line x1="321.0612090574175" y1="623.1329349014668" x2="326.12717038909784" y2="470.4835716452875" stroke="rgb(0,0,0)" stroke-width="1"/><line x1="326.12717038909784" y1="470.4835716452875" x2="321.0612090574175" y2="623.1329349014668" stroke="rgb(0,0,0)" stroke-width="1"/><line x1="637.2987536244597" y1="689.5180681584202" x2="326.12717038909784" y2="470.4835716452875" stroke="rgb(0,0,0)" stroke-width="1"/><line x1="321.0612090574175" y1="623.1329349014668" x2="439.9045505817148" y2="607.8482310046624" stroke="rgb(0,0,0)" stroke-width="1"/><line x1="393.88904804742145" y1="359.05038555237076" x2="321.0612090574175" y2="623.1329349014668" stroke="rgb(0,0,0)" stroke-width="1"/><polygon points="10,0 20,3 20,-3" fill="black" transform="translate(134.3871164885853,625.8923627590218) rotate(320.97460613121126)"/><polygon points="10,0 20,3 20,-3" fill="black" transform="translate(637.2987536244597,689.5180681584202) rotate(195.09119790340802)"/><polygon points="10,0 20,3 20,-3" fill="black" transform="translate(637.2987536244597,689.5180681584202) rotate(215.1418152519478)"/><polygon points="10,0 20,3 20,-3" fill="black" transform="translate(270.6020877757069,206.46212558071105) rotate(222.9921015303052)"/><polygon points="10,0 20,3 20,-3" fill="black" transform="translate(9.25920653955935,196.4369480062518) rotate(2.1968031600557083)"/><polygon points="10,0 20,3 20,-3" fill="black" transform="translate(321.0612090574175,623.1329349014668) rotate(352.67129517235844)"/><polygon points="10,0 20,3 20,-3" fill="black" transform="translate(326.12717038909784,470.4835716452875) rotate(140.97460613121123)"/><polygon points="10,0 20,3 20,-3" fill="black" transform="translate(439.9045505817148,607.8482310046624) rotate(286.34463961630223)"/><polygon points="10,0 20,3 20,-3" fill="black" transform="translate(321.0612090574175,623.1329349014668) rotate(264.18923266292995)"/><polygon points="10,0 20,3 20,-3" fill="black" transform="translate(270.6020877757069,206.46212558071105) rotate(182.1968031600557)"/><polygon points="10,0 20,3 20,-3" fill="black" transform="translate(393.88904804742145,359.05038555237076) rotate(105.41762088189331)"/><polygon points="10,0 20,3 20,-3" fill="black" transform="translate(265.687154532686,79.00262276591825) rotate(84.18923266292995)"/><polygon points="10,0 20,3 20,-3" fill="black" transform="translate(55.96936456758681,6.369183446027227) rotate(42.992101530305206)"/><polygon points="10,0 20,3 20,-3" fill="black" transform="translate(321.0612090574175,623.1329349014668) rotate(263.095065223742)"/><polygon points="10,0 20,3 20,-3" fill="black" transform="translate(30.525334581649645,525.8980329311282) rotate(15.091197903407988)"/><polygon points="10,0 20,3 20,-3" fill="black" transform="translate(529.2772086163691,303.0991628691377) rotate(106.34463961630222)"/><polygon points="10,0 20,3 20,-3" fill="black" transform="translate(92.21464252188275,534.8474844434721) rotate(21.09583969987878)"/><polygon points="10,0 20,3 20,-3" fill="black" transform="translate(270.6020877757069,206.46212558071105) rotate(83.09506522374198)"/><polygon points="10,0 20,3 20,-3" fill="black" transform="translate(321.0612090574175,623.1329349014668) rotate(201.0958396998788)"/><polygon points="10,0 20,3 20,-3" fill="black" transform="translate(326.12717038909784,470.4835716452875) rotate(91.90077250878724)"/><polygon points="10,0 20,3 20,-3" fill="black" transform="translate(321.0612090574175,623.1329349014668) rotate(271.9007725087872)"/><polygon points="10,0 20,3 20,-3" fill="black" transform="translate(326.12717038909784,470.4835716452875) rotate(35.141815251947804)"/><polygon points="10,0 20,3 20,-3" fill="black" transform="translate(439.9045505817148,607.8482310046624) rotate(172.6712951723584)"/><polygon points="10,0 20,3 20,-3" fill="black" transform="translate(321.0612090574175,623.1329349014668) rotate(285.4176208818933)"/><circle cx="55.96936456758681" cy="6.369183446027227" r="10" fill="rgb(255,255,0)" stroke="rgb(0,0,0)" stroke-width="1"/><circle cx="321.0612090574175" cy="623.1329349014668" r="10" fill="rgb(255,255,0)" stroke="rgb(0,0,0)" stroke-width="1"/><circle cx="270.6020877757069" cy="206.46212558071105" r="10" fill="rgb(255,255,0)" stroke="rgb(0,0,0)" stroke-width="1"/><circle cx="92.21464252188275" cy="534.8474844434721" r="10" fill="rgb(255,255,0)" stroke="rgb(0,0,0)" stroke-width="1"/><circle cx="439.9045505817148" cy="607.8482310046624" r="10" fill="rgb(255,255,0)" stroke="rgb(0,0,0)" stroke-width="1"/><circle cx="134.3871164885853" cy="625.8923627590218" r="10" fill="rgb(255,255,0)" stroke="rgb(0,0,0)" stroke-width="1"/><circle cx="393.88904804742145" cy="359.05038555237076" r="10" fill="rgb(255,255,0)" stroke="rgb(0,0,0)" stroke-width="1"/><circle cx="529.2772086163691" cy="303.0991628691377" r="10" fill="rgb(255,255,0)" stroke="rgb(0,0,0)" stroke-width="1"/><circle cx="326.12717038909784" cy="470.4835716452875" r="10" fill="rgb(255,255,0)" stroke="rgb(0,0,0)" stroke-width="1"/><circle cx="9.25920653955935" cy="196.4369480062518" r="10" fill="rgb(255,255,0)" stroke="rgb(0,0,0)" stroke-width="1"/><circle cx="265.687154532686" cy="79.00262276591825" r="10" fill="rgb(255,255,0)" stroke="rgb(0,0,0)" stroke-width="1"/><circle cx="30.525334581649645" cy="525.8980329311282" r="10" fill="rgb(255,255,0)" stroke="rgb(0,0,0)" stroke-width="1"/><circle cx="637.2987536244597" cy="689.5180681584202" r="10" fill="rgb(255,255,0)" stroke="rgb(0,0,0)" stroke-width="1"/><text text-anchor="middle" alignment-baseline="middle" x="55.96936456758681" y="6.369183446027227" fill="rgb(0,0,0)" font-size="12">inch (in)</text><text text-anchor="middle" alignment-baseline="middle" x="321.0612090574175" y="623.1329349014668" fill="rgb(0,0,0)" font-size="12">meter (m)</text><text text-anchor="middle" alignment-baseline="middle" x="270.6020877757069" y="206.46212558071105" fill="rgb(0,0,0)" font-size="12">foot (ft)</text><text text-anchor="middle" alignment-baseline="middle" x="92.21464252188275" y="534.8474844434721" fill="rgb(0,0,0)" font-size="12">micrometer (μm)</text><text text-anchor="middle" alignment-baseline="middle" x="439.9045505817148" y="607.8482310046624" fill="rgb(0,0,0)" font-size="12">nanometer (nm)</text><text text-anchor="middle" alignment-baseline="middle" x="134.3871164885853" y="625.8923627590218" fill="rgb(0,0,0)" font-size="12">Astronomical Unit (AU)</text><text text-anchor="middle" alignment-baseline="middle" x="393.88904804742145" y="359.05038555237076" fill="rgb(0,0,0)" font-size="12">millimeter (mm)</text><text text-anchor="middle" alignment-baseline="middle" x="529.2772086163691" y="303.0991628691377" fill="rgb(0,0,0)" font-size="12">Planck length (ℓP)</text><text text-anchor="middle" alignment-baseline="middle" x="326.12717038909784" y="470.4835716452875" fill="rgb(0,0,0)" font-size="12">kilometer (km)</text><text text-anchor="middle" alignment-baseline="middle" x="9.25920653955935" y="196.4369480062518" fill="rgb(0,0,0)" font-size="12">mile (m)</text><text text-anchor="middle" alignment-baseline="middle" x="265.687154532686" y="79.00262276591825" fill="rgb(0,0,0)" font-size="12">centimeter (cm)</text><text text-anchor="middle" alignment-baseline="middle" x="30.525334581649645" y="525.8980329311282" fill="rgb(0,0,0)" font-size="12">parsec (pc)</text><text text-anchor="middle" alignment-baseline="middle" x="637.2987536244597" y="689.5180681584202" fill="rgb(0,0,0)" font-size="12">lightyear (ly)</text><text text-anchor="middle" alignment-baseline="middle" x="211.08313804879032" y="563.728846313528" fill="rgb(0,0,0)" font-size="12">1.495978707E8</text><text text-anchor="middle" alignment-baseline="middle" x="394.58938600733563" y="624.0700540675034" fill="rgb(0,0,0)" font-size="12">0.3067484662576687</text><text text-anchor="middle" alignment-baseline="middle" x="512.8301203303149" y="601.9042695531671" fill="rgb(0,0,0)" font-size="12">9.4607304725808E12</text><text text-anchor="middle" alignment-baseline="middle" x="184.74899849245884" y="126.42494872683751" fill="rgb(0,0,0)" font-size="12">12.0</text><text text-anchor="middle" alignment-baseline="middle" x="113.79635903401837" y="200.4470190360355" fill="rgb(0,0,0)" font-size="12">5280.0</text><text text-anchor="middle" alignment-baseline="middle" x="368.5985456671364" y="617.019053342745" fill="rgb(0,0,0)" font-size="12">1.0E9</text><text text-anchor="middle" alignment-baseline="middle" x="249.43114882889282" y="532.6470880907813" fill="rgb(0,0,0)" font-size="12">6.6845871222684464E-9</text><text text-anchor="middle" alignment-baseline="middle" x="475.6536137955765" y="485.94860375045243" fill="rgb(0,0,0)" font-size="12">1.6162E-26</text><text text-anchor="middle" alignment-baseline="middle" x="298.9115872475249" y="405.4808100472474" fill="rgb(0,0,0)" font-size="12">100.0</text><text text-anchor="middle" alignment-baseline="middle" x="166.06493528124787" y="202.45205455092736" fill="rgb(0,0,0)" font-size="12">1.893939393939394E-4</text><text text-anchor="middle" alignment-baseline="middle" x="364.7579124514199" y="464.6834052920092" fill="rgb(0,0,0)" font-size="12">0.0010000000000000002</text><text text-anchor="middle" alignment-baseline="middle" x="287.8367763425786" y="296.65474762013764" fill="rgb(0,0,0)" font-size="12">0.010000000000000002</text><text text-anchor="middle" alignment-baseline="middle" x="141.82245385083485" y="86.40636029990075" fill="rgb(0,0,0)" font-size="12">0.08333333333333333</text><text text-anchor="middle" alignment-baseline="middle" x="300.8775605447332" y="456.4646111731645" fill="rgb(0,0,0)" font-size="12">3.2808398950131235</text><text text-anchor="middle" alignment-baseline="middle" x="273.2347021987737" y="591.346047022045" fill="rgb(0,0,0)" font-size="12">3.26</text><text text-anchor="middle" alignment-baseline="middle" x="493.52814540250733" y="424.9987901233476" fill="rgb(0,0,0)" font-size="12">6.187353050365054E25</text><text text-anchor="middle" alignment-baseline="middle" x="183.75326913609666" y="570.16166462667" fill="rgb(0,0,0)" font-size="12">1.0000000000000006E-6</text><text text-anchor="middle" alignment-baseline="middle" x="290.78573628839115" y="373.13044930901333" fill="rgb(0,0,0)" font-size="12">0.3048</text><text text-anchor="middle" alignment-baseline="middle" x="229.5225824432036" y="587.8187547182689" fill="rgb(0,0,0)" font-size="12">1000000.0</text><text text-anchor="middle" alignment-baseline="middle" x="324.1007858564257" y="531.5433169477592" fill="rgb(0,0,0)" font-size="12">1000.0</text><text text-anchor="middle" alignment-baseline="middle" x="323.0875935900896" y="562.0731895989951" fill="rgb(0,0,0)" font-size="12">0.0010000000000000002</text><text text-anchor="middle" alignment-baseline="middle" x="450.5958036832426" y="558.0973702505406" fill="rgb(0,0,0)" font-size="12">1.0570008340246153E-13</text><text text-anchor="middle" alignment-baseline="middle" x="392.36721397199585" y="613.9621125633842" fill="rgb(0,0,0)" font-size="12">1.0000000000000009E-9</text><text text-anchor="middle" alignment-baseline="middle" x="350.19234465341907" y="517.4999151618283" fill="rgb(0,0,0)" font-size="12">1000.0</text>
      Sorry, your browser does not support inline SVG.
    </svg>