<?xml version='1.0' encoding='UTF-8'?>
<svg version="1.1" width="700.0" height="700.0" onload="init(evt)" xmlns="http://www.w3.org/2000/svg">
      <style>.caption {
  font-size: 14px;
  font-family: Georgia, serif;
}
</style>
      <script type="text/ecmascript"><![CDATA[
function init(evt) {
  if ( window.svgDocument == null ) {
    svgDocument = evt.target.ownerDocument;
  }
}

function RectHover(evt, i, c) {
  rect = svgDocument.getElementById('rect' + i);
  if( c != null ) {
    rect.setAttributeNS(null, "fill", c)  
  }
  tooltiptext = svgDocument.getElementById('tooltiptext' + i);
  tooltipbg = svgDocument.getElementById('tooltipbg' + i);
  if( tooltipbg != null) {
    tbb = tooltiptext.getBBox();
    tooltipbg.setAttributeNS(null, "width", tbb.width);
    tooltipbg.setAttributeNS(null, "height", tbb.height);
    tooltipbg.setAttributeNS(null, "x", tbb.x);
    tooltipbg.setAttributeNS(null, "y", tbb.y);
    tooltipbg.setAttributeNS(null, "visibility", "visible");
  }
  tooltiptext.setAttributeNS(null,"visibility","visible");
}

function RectUnhover(evt, i, c) {
  rect = svgDocument.getElementById('rect' + i);
  if( c != null ) {
    rect.setAttributeNS(null, "fill", c)  
  }
  tooltiptext = svgDocument.getElementById('tooltiptext' + i);
  tooltiptext.setAttributeNS(null,"visibility","hidden");
  tooltipbg = svgDocument.getElementById('tooltipbg' + i);
  if( tooltipbg != null ) {
    tooltipbg.setAttributeNS(null,"visibility","hidden");
  }
}
]]></script>
      <line x1="511.16804513887104" y1="660.4496937483409" x2="219.72193924290758" y2="592.3371606687775" stroke="rgb(0,0,0)" stroke-width="1"/><line x1="168.46898210119627" y1="333.525245877814" x2="219.72193924290758" y2="592.3371606687775" stroke="rgb(0,0,0)" stroke-width="1"/><line x1="67.38727164433368" y1="93.48247949642658" x2="324.14146283202035" y2="657.9978779405764" stroke="rgb(0,0,0)" stroke-width="1"/><line x1="360.4997302135659" y1="230.84642834812814" x2="219.72193924290758" y2="592.3371606687775" stroke="rgb(0,0,0)" stroke-width="1"/><line x1="324.14146283202035" y1="657.9978779405764" x2="67.38727164433368" y2="93.48247949642658" stroke="rgb(0,0,0)" stroke-width="1"/><line x1="219.72193924290758" y1="592.3371606687775" x2="360.4997302135659" y2="230.84642834812814" stroke="rgb(0,0,0)" stroke-width="1"/><line x1="67.38727164433368" y1="93.48247949642658" x2="345.8614570259757" y2="301.4611876312484" stroke="rgb(0,0,0)" stroke-width="1"/><line x1="5.353066068353096" y1="38.14906986067512" x2="138.61968418290752" y2="433.0376903271593" stroke="rgb(0,0,0)" stroke-width="1"/><line x1="219.72193924290758" y1="592.3371606687775" x2="511.16804513887104" y2="660.4496937483409" stroke="rgb(0,0,0)" stroke-width="1"/><line x1="360.4997302135659" y1="230.84642834812814" x2="445.34869977467866" y2="374.7973653954561" stroke="rgb(0,0,0)" stroke-width="1"/><line x1="219.72193924290758" y1="592.3371606687775" x2="5.353066068353096" y2="38.14906986067512" stroke="rgb(0,0,0)" stroke-width="1"/><line x1="219.72193924290758" y1="592.3371606687775" x2="168.46898210119627" y2="333.525245877814" stroke="rgb(0,0,0)" stroke-width="1"/><line x1="345.8614570259757" y1="301.4611876312484" x2="67.38727164433368" y2="93.48247949642658" stroke="rgb(0,0,0)" stroke-width="1"/><line x1="5.353066068353096" y1="38.14906986067512" x2="219.72193924290758" y2="592.3371606687775" stroke="rgb(0,0,0)" stroke-width="1"/><line x1="138.61968418290752" y1="433.0376903271593" x2="5.353066068353096" y2="38.14906986067512" stroke="rgb(0,0,0)" stroke-width="1"/><line x1="445.34869977467866" y1="374.7973653954561" x2="360.4997302135659" y2="230.84642834812814" stroke="rgb(0,0,0)" stroke-width="1"/><line x1="109.79999544816806" y1="631.5886237456879" x2="219.72193924290758" y2="592.3371606687775" stroke="rgb(0,0,0)" stroke-width="1"/><line x1="345.8614570259757" y1="301.4611876312484" x2="219.72193924290758" y2="592.3371606687775" stroke="rgb(0,0,0)" stroke-width="1"/><line x1="219.72193924290758" y1="592.3371606687775" x2="109.79999544816806" y2="631.5886237456879" stroke="rgb(0,0,0)" stroke-width="1"/><line x1="219.72193924290758" y1="592.3371606687775" x2="345.8614570259757" y2="301.4611876312484" stroke="rgb(0,0,0)" stroke-width="1"/><line x1="92.56013161088443" y1="324.08250195375626" x2="5.353066068353096" y2="38.14906986067512" stroke="rgb(0,0,0)" stroke-width="1"/><line x1="5.353066068353096" y1="38.14906986067512" x2="92.56013161088443" y2="324.08250195375626" stroke="rgb(0,0,0)" stroke-width="1"/><line x1="442.22606206548966" y1="2.957708078739585" x2="345.8614570259757" y2="301.4611876312484" stroke="rgb(0,0,0)" stroke-width="1"/><line x1="345.8614570259757" y1="301.4611876312484" x2="442.22606206548966" y2="2.957708078739585" stroke="rgb(0,0,0)" stroke-width="1"/><polygon points="10,0 20,3 20,-3" fill="black" transform="translate(219.72193924290758,592.3371606687775) rotate(13.154238585759288)"/><polygon points="10,0 20,3 20,-3" fill="black" transform="translate(219.72193924290758,592.3371606687775) rotate(258.7985475769267)"/><polygon points="10,0 20,3 20,-3" fill="black" transform="translate(324.14146283202035,657.9978779405764) rotate(245.54290068387178)"/><polygon points="10,0 20,3 20,-3" fill="black" transform="translate(219.72193924290758,592.3371606687775) rotate(291.2777690201897)"/><polygon points="10,0 20,3 20,-3" fill="black" transform="translate(67.38727164433368,93.48247949642658) rotate(65.54290068387175)"/><polygon points="10,0 20,3 20,-3" fill="black" transform="translate(360.4997302135659,230.84642834812814) rotate(111.27776902018967)"/><polygon points="10,0 20,3 20,-3" fill="black" transform="translate(345.8614570259757,301.4611876312484) rotate(216.7542493062909)"/><polygon points="10,0 20,3 20,-3" fill="black" transform="translate(138.61968418290752,433.0376903271593) rotate(251.35154124753203)"/><polygon points="10,0 20,3 20,-3" fill="black" transform="translate(511.16804513887104,660.4496937483409) rotate(193.15423858575932)"/><polygon points="10,0 20,3 20,-3" fill="black" transform="translate(445.34869977467866,374.7973653954561) rotate(239.48363607530365)"/><polygon points="10,0 20,3 20,-3" fill="black" transform="translate(5.353066068353096,38.14906986067512) rotate(68.85272751934416)"/><polygon points="10,0 20,3 20,-3" fill="black" transform="translate(168.46898210119627,333.525245877814) rotate(78.79854757692667)"/><polygon points="10,0 20,3 20,-3" fill="black" transform="translate(67.38727164433368,93.48247949642658) rotate(36.75424930629089)"/><polygon points="10,0 20,3 20,-3" fill="black" transform="translate(219.72193924290758,592.3371606687775) rotate(248.85272751934417)"/><polygon points="10,0 20,3 20,-3" fill="black" transform="translate(5.353066068353096,38.14906986067512) rotate(71.35154124753201)"/><polygon points="10,0 20,3 20,-3" fill="black" transform="translate(360.4997302135659,230.84642834812814) rotate(59.48363607530362)"/><polygon points="10,0 20,3 20,-3" fill="black" transform="translate(219.72193924290758,592.3371606687775) rotate(160.3491225445241)"/><polygon points="10,0 20,3 20,-3" fill="black" transform="translate(219.72193924290758,592.3371606687775) rotate(293.4441573567014)"/><polygon points="10,0 20,3 20,-3" fill="black" transform="translate(109.79999544816806,631.5886237456879) rotate(340.3491225445241)"/><polygon points="10,0 20,3 20,-3" fill="black" transform="translate(345.8614570259757,301.4611876312484) rotate(113.44415735670138)"/><polygon points="10,0 20,3 20,-3" fill="black" transform="translate(5.353066068353096,38.14906986067512) rotate(73.0387764944128)"/><polygon points="10,0 20,3 20,-3" fill="black" transform="translate(92.56013161088443,324.08250195375626) rotate(253.03877649441282)"/><polygon points="10,0 20,3 20,-3" fill="black" transform="translate(345.8614570259757,301.4611876312484) rotate(287.8914147464452)"/><polygon points="10,0 20,3 20,-3" fill="black" transform="translate(442.22606206548966,2.957708078739585) rotate(107.89141474644522)"/><circle cx="138.61968418290752" cy="433.0376903271593" r="10" fill="rgb(255,255,0)" stroke="rgb(0,0,0)" stroke-width="1"/><circle cx="219.72193924290758" cy="592.3371606687775" r="10" fill="rgb(255,255,0)" stroke="rgb(0,0,0)" stroke-width="1"/><circle cx="5.353066068353096" cy="38.14906986067512" r="10" fill="rgb(255,255,0)" stroke="rgb(0,0,0)" stroke-width="1"/><circle cx="511.16804513887104" cy="660.4496937483409" r="10" fill="rgb(255,255,0)" stroke="rgb(0,0,0)" stroke-width="1"/><circle cx="360.4997302135659" cy="230.84642834812814" r="10" fill="rgb(255,255,0)" stroke="rgb(0,0,0)" stroke-width="1"/><circle cx="442.22606206548966" cy="2.957708078739585" r="10" fill="rgb(255,255,0)" stroke="rgb(0,0,0)" stroke-width="1"/><circle cx="109.79999544816806" cy="631.5886237456879" r="10" fill="rgb(255,255,0)" stroke="rgb(0,0,0)" stroke-width="1"/><circle cx="445.34869977467866" cy="374.7973653954561" r="10" fill="rgb(255,255,0)" stroke="rgb(0,0,0)" stroke-width="1"/><circle cx="345.8614570259757" cy="301.4611876312484" r="10" fill="rgb(255,255,0)" stroke="rgb(0,0,0)" stroke-width="1"/><circle cx="92.56013161088443" cy="324.08250195375626" r="10" fill="rgb(255,255,0)" stroke="rgb(0,0,0)" stroke-width="1"/><circle cx="168.46898210119627" cy="333.525245877814" r="10" fill="rgb(255,255,0)" stroke="rgb(0,0,0)" stroke-width="1"/><circle cx="324.14146283202035" cy="657.9978779405764" r="10" fill="rgb(255,255,0)" stroke="rgb(0,0,0)" stroke-width="1"/><circle cx="67.38727164433368" cy="93.48247949642658" r="10" fill="rgb(255,255,0)" stroke="rgb(0,0,0)" stroke-width="1"/><text text-anchor="middle" alignment-baseline="middle" x="138.61968418290752" y="433.0376903271593" fill="rgb(0,0,0)" font-size="12">inch (in)</text><text text-anchor="middle" alignment-baseline="middle" x="219.72193924290758" y="592.3371606687775" fill="rgb(0,0,0)" font-size="12">meter (m)</text><text text-anchor="middle" alignment-baseline="middle" x="5.353066068353096" y="38.14906986067512" fill="rgb(0,0,0)" font-size="12">foot (ft)</text><text text-anchor="middle" alignment-baseline="middle" x="511.16804513887104" y="660.4496937483409" fill="rgb(0,0,0)" font-size="12">micrometer (μm)</text><text text-anchor="middle" alignment-baseline="middle" x="360.4997302135659" y="230.84642834812814" fill="rgb(0,0,0)" font-size="12">nanometer (nm)</text><text text-anchor="middle" alignment-baseline="middle" x="442.22606206548966" y="2.957708078739585" fill="rgb(0,0,0)" font-size="12">Astronomical Unit (AU)</text><text text-anchor="middle" alignment-baseline="middle" x="109.79999544816806" y="631.5886237456879" fill="rgb(0,0,0)" font-size="12">millimeter (mm)</text><text text-anchor="middle" alignment-baseline="middle" x="445.34869977467866" y="374.7973653954561" fill="rgb(0,0,0)" font-size="12">Planck length (ℓP)</text><text text-anchor="middle" alignment-baseline="middle" x="345.8614570259757" y="301.4611876312484" fill="rgb(0,0,0)" font-size="12">kilometer (km)</text><text text-anchor="middle" alignment-baseline="middle" x="92.56013161088443" y="324.08250195375626" fill="rgb(0,0,0)" font-size="12">mile (m)</text><text text-anchor="middle" alignment-baseline="middle" x="168.46898210119627" y="333.525245877814" fill="rgb(0,0,0)" font-size="12">centimeter (cm)</text><text text-anchor="middle" alignment-baseline="middle" x="324.14146283202035" y="657.9978779405764" fill="rgb(0,0,0)" font-size="12">parsec (pc)</text><text text-anchor="middle" alignment-baseline="middle" x="67.38727164433368" y="93.48247949642658" fill="rgb(0,0,0)" font-size="12">lightyear (ly)</text><text text-anchor="middle" alignment-baseline="middle" x="336.300381601293" y="619.5821739006029" fill="rgb(0,0,0)" font-size="12">1000000.0</text><text text-anchor="middle" alignment-baseline="middle" x="199.22075638622306" y="488.8123947523921" fill="rgb(0,0,0)" font-size="12">100.0</text><text text-anchor="middle" alignment-baseline="middle" x="221.4397863569457" y="432.19171856291644" fill="rgb(0,0,0)" font-size="12">3.26</text><text text-anchor="middle" alignment-baseline="middle" x="276.0330556311709" y="447.74086774051773" fill="rgb(0,0,0)" font-size="12">1.0E9</text><text text-anchor="middle" alignment-baseline="middle" x="170.08894811940834" y="319.2886388740865" fill="rgb(0,0,0)" font-size="12">0.3067484662576687</text><text text-anchor="middle" alignment-baseline="middle" x="304.1886138253026" y="375.44272127638794" fill="rgb(0,0,0)" font-size="12">1.0000000000000009E-9</text><text text-anchor="middle" alignment-baseline="middle" x="234.4717828733189" y="218.26970437731967" fill="rgb(0,0,0)" font-size="12">1.0570008340246153E-13</text><text text-anchor="middle" alignment-baseline="middle" x="85.31303693708576" y="275.0822421405656" fill="rgb(0,0,0)" font-size="12">0.08333333333333333</text><text text-anchor="middle" alignment-baseline="middle" x="394.5896027804856" y="633.2046805165155" fill="rgb(0,0,0)" font-size="12">1.0000000000000006E-6</text><text text-anchor="middle" alignment-baseline="middle" x="411.4091119502336" y="317.2169905765249" fill="rgb(0,0,0)" font-size="12">6.187353050365054E25</text><text text-anchor="middle" alignment-baseline="middle" x="91.10061533817489" y="259.8243061839161" fill="rgb(0,0,0)" font-size="12">0.3048</text><text text-anchor="middle" alignment-baseline="middle" x="188.9701649578808" y="437.0500117941994" fill="rgb(0,0,0)" font-size="12">0.010000000000000002</text><text text-anchor="middle" alignment-baseline="middle" x="178.7769457969905" y="176.67396275035532" fill="rgb(0,0,0)" font-size="12">9.4607304725808E12</text><text text-anchor="middle" alignment-baseline="middle" x="133.97438997308578" y="370.66192434553653" fill="rgb(0,0,0)" font-size="12">3.2808398950131235</text><text text-anchor="middle" alignment-baseline="middle" x="58.659713314174866" y="196.1045180472688" fill="rgb(0,0,0)" font-size="12">12.0</text><text text-anchor="middle" alignment-baseline="middle" x="394.439318038011" y="288.42680316705935" fill="rgb(0,0,0)" font-size="12">1.6162E-26</text><text text-anchor="middle" alignment-baseline="middle" x="175.75316172501175" y="608.0377458995416" fill="rgb(0,0,0)" font-size="12">1000.0</text><text text-anchor="middle" alignment-baseline="middle" x="270.17774635613483" y="475.98677145376587" fill="rgb(0,0,0)" font-size="12">0.0010000000000000002</text><text text-anchor="middle" alignment-baseline="middle" x="153.76877296606386" y="615.8880385149238" fill="rgb(0,0,0)" font-size="12">0.0010000000000000002</text><text text-anchor="middle" alignment-baseline="middle" x="295.40564991274846" y="417.81157684626004" fill="rgb(0,0,0)" font-size="12">1000.0</text><text text-anchor="middle" alignment-baseline="middle" x="40.23589228536563" y="152.5224426979076" fill="rgb(0,0,0)" font-size="12">1.893939393939394E-4</text><text text-anchor="middle" alignment-baseline="middle" x="57.67730539387189" y="209.7091291165238" fill="rgb(0,0,0)" font-size="12">5280.0</text><text text-anchor="middle" alignment-baseline="middle" x="384.4072990417813" y="182.05979581024485" fill="rgb(0,0,0)" font-size="12">6.6845871222684464E-9</text><text text-anchor="middle" alignment-baseline="middle" x="403.68022004968407" y="122.35909989974311" fill="rgb(0,0,0)" font-size="12">1.495978707E8</text>
      Sorry, your browser does not support inline SVG.
    </svg>