<?xml version='1.0' encoding='UTF-8'?>
<svg version="1.1" width="700.0" height="700.0" onload="init(evt)" xmlns="http://www.w3.org/2000/svg">
      <style>.caption {
  font-size: 14px;
  font-family: Georgia, serif;
}
</style>
      <script type="text/ecmascript"><![CDATA[
function init(evt) {
  if ( window.svgDocument == null ) {
    svgDocument = evt.target.ownerDocument;
  }
}

function RectHover(evt, i, c) {
  rect = svgDocument.getElementById('rect' + i);
  if( c != null ) {
    rect.setAttributeNS(null, "fill", c)  
  }
  tooltiptext = svgDocument.getElementById('tooltiptext' + i);
  tooltipbg = svgDocument.getElementById('tooltipbg' + i);
  if( tooltipbg != null) {
    tbb = tooltiptext.getBBox();
    tooltipbg.setAttributeNS(null, "width", tbb.width);
    tooltipbg.setAttributeNS(null, "height", tbb.height);
    tooltipbg.setAttributeNS(null, "x", tbb.x);
    tooltipbg.setAttributeNS(null, "y", tbb.y);
    tooltipbg.setAttributeNS(null, "visibility", "visible");
  }
  tooltiptext.setAttributeNS(null,"visibility","visible");
}

function RectUnhover(evt, i, c) {
  rect = svgDocument.getElementById('rect' + i);
  if( c != null ) {
    rect.setAttributeNS(null, "fill", c)  
  }
  tooltiptext = svgDocument.getElementById('tooltiptext' + i);
  tooltiptext.setAttributeNS(null,"visibility","hidden");
  tooltipbg = svgDocument.getElementById('tooltipbg' + i);
  if( tooltipbg != null ) {
    tooltipbg.setAttributeNS(null,"visibility","hidden");
  }
}
]]></script>
      <line x1="275.3574187490432" y1="248.80878100022545" x2="530.731450274476" y2="524.9160978317803" stroke="rgb(0,0,0)" stroke-width="1"/><line x1="675.4188161352668" y1="259.3894670876789" x2="84.97498935830177" y2="10.67449642294439" stroke="rgb(0,0,0)" stroke-width="1"/><line x1="479.39798993145524" y1="281.51927279477763" x2="530.731450274476" y2="524.9160978317803" stroke="rgb(0,0,0)" stroke-width="1"/><line x1="255.25577590761068" y1="48.987227065202745" x2="349.34152429567996" y2="621.4396237552041" stroke="rgb(0,0,0)" stroke-width="1"/><line x1="227.45469082209294" y1="438.484045377533" x2="15.894933267771982" y2="396.97252790664066" stroke="rgb(0,0,0)" stroke-width="1"/><line x1="84.97498935830177" y1="10.67449642294439" x2="255.25577590761068" y2="48.987227065202745" stroke="rgb(0,0,0)" stroke-width="1"/><line x1="530.731450274476" y1="524.9160978317803" x2="15.894933267771982" y2="396.97252790664066" stroke="rgb(0,0,0)" stroke-width="1"/><line x1="84.97498935830177" y1="10.67449642294439" x2="530.731450274476" y2="524.9160978317803" stroke="rgb(0,0,0)" stroke-width="1"/><line x1="402.36295208707094" y1="463.64426340671724" x2="530.731450274476" y2="524.9160978317803" stroke="rgb(0,0,0)" stroke-width="1"/><line x1="530.731450274476" y1="524.9160978317803" x2="84.97498935830177" y2="10.67449642294439" stroke="rgb(0,0,0)" stroke-width="1"/><line x1="402.36295208707094" y1="463.64426340671724" x2="562.4002292258349" y2="185.5240786795475" stroke="rgb(0,0,0)" stroke-width="1"/><line x1="402.36295208707094" y1="463.64426340671724" x2="204.612829907644" y2="629.4061392278796" stroke="rgb(0,0,0)" stroke-width="1"/><line x1="562.4002292258349" y1="185.5240786795475" x2="402.36295208707094" y2="463.64426340671724" stroke="rgb(0,0,0)" stroke-width="1"/><line x1="530.731450274476" y1="524.9160978317803" x2="275.3574187490432" y2="248.80878100022545" stroke="rgb(0,0,0)" stroke-width="1"/><line x1="349.34152429567996" y1="621.4396237552041" x2="255.25577590761068" y2="48.987227065202745" stroke="rgb(0,0,0)" stroke-width="1"/><line x1="607.9993822170425" y1="523.5676350429453" x2="530.731450274476" y2="524.9160978317803" stroke="rgb(0,0,0)" stroke-width="1"/><line x1="15.894933267771982" y1="396.97252790664066" x2="227.45469082209294" y2="438.484045377533" stroke="rgb(0,0,0)" stroke-width="1"/><line x1="15.894933267771982" y1="396.97252790664066" x2="530.731450274476" y2="524.9160978317803" stroke="rgb(0,0,0)" stroke-width="1"/><line x1="530.731450274476" y1="524.9160978317803" x2="402.36295208707094" y2="463.64426340671724" stroke="rgb(0,0,0)" stroke-width="1"/><line x1="530.731450274476" y1="524.9160978317803" x2="607.9993822170425" y2="523.5676350429453" stroke="rgb(0,0,0)" stroke-width="1"/><line x1="255.25577590761068" y1="48.987227065202745" x2="84.97498935830177" y2="10.67449642294439" stroke="rgb(0,0,0)" stroke-width="1"/><line x1="84.97498935830177" y1="10.67449642294439" x2="675.4188161352668" y2="259.3894670876789" stroke="rgb(0,0,0)" stroke-width="1"/><line x1="204.612829907644" y1="629.4061392278796" x2="402.36295208707094" y2="463.64426340671724" stroke="rgb(0,0,0)" stroke-width="1"/><line x1="530.731450274476" y1="524.9160978317803" x2="479.39798993145524" y2="281.51927279477763" stroke="rgb(0,0,0)" stroke-width="1"/><polygon points="10,0 20,3 20,-3" fill="black" transform="translate(530.731450274476,524.9160978317803) rotate(227.23399691446411)"/><polygon points="10,0 20,3 20,-3" fill="black" transform="translate(84.97498935830177,10.67449642294439) rotate(22.84247674289753)"/><polygon points="10,0 20,3 20,-3" fill="black" transform="translate(530.731450274476,524.9160978317803) rotate(258.0906005076321)"/><polygon points="10,0 20,3 20,-3" fill="black" transform="translate(349.34152429567996,621.4396237552041) rotate(260.6665623275113)"/><polygon points="10,0 20,3 20,-3" fill="black" transform="translate(15.894933267771982,396.97252790664066) rotate(11.101341280823107)"/><polygon points="10,0 20,3 20,-3" fill="black" transform="translate(255.25577590761068,48.987227065202745) rotate(192.68024054750845)"/><polygon points="10,0 20,3 20,-3" fill="black" transform="translate(15.894933267771982,396.97252790664066) rotate(13.95602859567839)"/><polygon points="10,0 20,3 20,-3" fill="black" transform="translate(530.731450274476,524.9160978317803) rotate(229.08050115704816)"/><polygon points="10,0 20,3 20,-3" fill="black" transform="translate(530.731450274476,524.9160978317803) rotate(205.51570666227946)"/><polygon points="10,0 20,3 20,-3" fill="black" transform="translate(84.97498935830177,10.67449642294439) rotate(49.08050115704816)"/><polygon points="10,0 20,3 20,-3" fill="black" transform="translate(562.4002292258349,185.5240786795475) rotate(119.91719401229847)"/><polygon points="10,0 20,3 20,-3" fill="black" transform="translate(204.612829907644,629.4061392278796) rotate(320.02894697638135)"/><polygon points="10,0 20,3 20,-3" fill="black" transform="translate(402.36295208707094,463.64426340671724) rotate(299.9171940122985)"/><polygon points="10,0 20,3 20,-3" fill="black" transform="translate(275.3574187490432,248.80878100022545) rotate(47.233996914464115)"/><polygon points="10,0 20,3 20,-3" fill="black" transform="translate(255.25577590761068,48.987227065202745) rotate(80.66656232751127)"/><polygon points="10,0 20,3 20,-3" fill="black" transform="translate(530.731450274476,524.9160978317803) rotate(359.0001882741709)"/><polygon points="10,0 20,3 20,-3" fill="black" transform="translate(227.45469082209294,438.484045377533) rotate(191.10134128082314)"/><polygon points="10,0 20,3 20,-3" fill="black" transform="translate(530.731450274476,524.9160978317803) rotate(193.9560285956784)"/><polygon points="10,0 20,3 20,-3" fill="black" transform="translate(402.36295208707094,463.64426340671724) rotate(25.515706662279428)"/><polygon points="10,0 20,3 20,-3" fill="black" transform="translate(607.9993822170425,523.5676350429453) rotate(179.00018827417088)"/><polygon points="10,0 20,3 20,-3" fill="black" transform="translate(84.97498935830177,10.67449642294439) rotate(12.680240547508447)"/><polygon points="10,0 20,3 20,-3" fill="black" transform="translate(675.4188161352668,259.3894670876789) rotate(202.84247674289756)"/><polygon points="10,0 20,3 20,-3" fill="black" transform="translate(402.36295208707094,463.64426340671724) rotate(140.02894697638135)"/><polygon points="10,0 20,3 20,-3" fill="black" transform="translate(479.39798993145524,281.51927279477763) rotate(78.09060050763203)"/><circle cx="204.612829907644" cy="629.4061392278796" r="10" fill="rgb(255,255,0)" stroke="rgb(0,0,0)" stroke-width="1"/><circle cx="530.731450274476" cy="524.9160978317803" r="10" fill="rgb(255,255,0)" stroke="rgb(0,0,0)" stroke-width="1"/><circle cx="402.36295208707094" cy="463.64426340671724" r="10" fill="rgb(255,255,0)" stroke="rgb(0,0,0)" stroke-width="1"/><circle cx="607.9993822170425" cy="523.5676350429453" r="10" fill="rgb(255,255,0)" stroke="rgb(0,0,0)" stroke-width="1"/><circle cx="15.894933267771982" cy="396.97252790664066" r="10" fill="rgb(255,255,0)" stroke="rgb(0,0,0)" stroke-width="1"/><circle cx="675.4188161352668" cy="259.3894670876789" r="10" fill="rgb(255,255,0)" stroke="rgb(0,0,0)" stroke-width="1"/><circle cx="275.3574187490432" cy="248.80878100022545" r="10" fill="rgb(255,255,0)" stroke="rgb(0,0,0)" stroke-width="1"/><circle cx="227.45469082209294" cy="438.484045377533" r="10" fill="rgb(255,255,0)" stroke="rgb(0,0,0)" stroke-width="1"/><circle cx="84.97498935830177" cy="10.67449642294439" r="10" fill="rgb(255,255,0)" stroke="rgb(0,0,0)" stroke-width="1"/><circle cx="562.4002292258349" cy="185.5240786795475" r="10" fill="rgb(255,255,0)" stroke="rgb(0,0,0)" stroke-width="1"/><circle cx="479.39798993145524" cy="281.51927279477763" r="10" fill="rgb(255,255,0)" stroke="rgb(0,0,0)" stroke-width="1"/><circle cx="349.34152429567996" cy="621.4396237552041" r="10" fill="rgb(255,255,0)" stroke="rgb(0,0,0)" stroke-width="1"/><circle cx="255.25577590761068" cy="48.987227065202745" r="10" fill="rgb(255,255,0)" stroke="rgb(0,0,0)" stroke-width="1"/><text text-anchor="middle" alignment-baseline="middle" x="204.612829907644" y="629.4061392278796" fill="rgb(0,0,0)" font-size="12">inch (in)</text><text text-anchor="middle" alignment-baseline="middle" x="530.731450274476" y="524.9160978317803" fill="rgb(0,0,0)" font-size="12">meter (m)</text><text text-anchor="middle" alignment-baseline="middle" x="402.36295208707094" y="463.64426340671724" fill="rgb(0,0,0)" font-size="12">foot (ft)</text><text text-anchor="middle" alignment-baseline="middle" x="607.9993822170425" y="523.5676350429453" fill="rgb(0,0,0)" font-size="12">micrometer (μm)</text><text text-anchor="middle" alignment-baseline="middle" x="15.894933267771982" y="396.97252790664066" fill="rgb(0,0,0)" font-size="12">nanometer (nm)</text><text text-anchor="middle" alignment-baseline="middle" x="675.4188161352668" y="259.3894670876789" fill="rgb(0,0,0)" font-size="12">Astronomical Unit (AU)</text><text text-anchor="middle" alignment-baseline="middle" x="275.3574187490432" y="248.80878100022545" fill="rgb(0,0,0)" font-size="12">millimeter (mm)</text><text text-anchor="middle" alignment-baseline="middle" x="227.45469082209294" y="438.484045377533" fill="rgb(0,0,0)" font-size="12">Planck length (ℓP)</text><text text-anchor="middle" alignment-baseline="middle" x="84.97498935830177" y="10.67449642294439" fill="rgb(0,0,0)" font-size="12">kilometer (km)</text><text text-anchor="middle" alignment-baseline="middle" x="562.4002292258349" y="185.5240786795475" fill="rgb(0,0,0)" font-size="12">mile (m)</text><text text-anchor="middle" alignment-baseline="middle" x="479.39798993145524" y="281.51927279477763" fill="rgb(0,0,0)" font-size="12">centimeter (cm)</text><text text-anchor="middle" alignment-baseline="middle" x="349.34152429567996" y="621.4396237552041" fill="rgb(0,0,0)" font-size="12">parsec (pc)</text><text text-anchor="middle" alignment-baseline="middle" x="255.25577590761068" y="48.987227065202745" fill="rgb(0,0,0)" font-size="12">lightyear (ly)</text><text text-anchor="middle" alignment-baseline="middle" x="428.58183766430284" y="414.4731710991584" fill="rgb(0,0,0)" font-size="12">1000.0</text><text text-anchor="middle" alignment-baseline="middle" x="321.15252006908776" y="110.16048468883821" fill="rgb(0,0,0)" font-size="12">6.6845871222684464E-9</text><text text-anchor="middle" alignment-baseline="middle" x="510.1980661372677" y="427.55736781697925" fill="rgb(0,0,0)" font-size="12">100.0</text><text text-anchor="middle" alignment-baseline="middle" x="311.70722494045225" y="392.45866507920357" fill="rgb(0,0,0)" font-size="12">3.26</text><text text-anchor="middle" alignment-baseline="middle" x="100.51883628950037" y="413.5771348949976" fill="rgb(0,0,0)" font-size="12">1.6162E-26</text><text text-anchor="middle" alignment-baseline="middle" x="187.14346128788713" y="33.662134808299406" fill="rgb(0,0,0)" font-size="12">9.4607304725808E12</text><text text-anchor="middle" alignment-baseline="middle" x="221.82954007045356" y="448.14995587669654" fill="rgb(0,0,0)" font-size="12">1.0000000000000009E-9</text><text text-anchor="middle" alignment-baseline="middle" x="352.4288659080063" y="319.219457268246" fill="rgb(0,0,0)" font-size="12">0.0010000000000000002</text><text text-anchor="middle" alignment-baseline="middle" x="479.38405099951393" y="500.4073640617551" fill="rgb(0,0,0)" font-size="12">3.2808398950131235</text><text text-anchor="middle" alignment-baseline="middle" x="263.27757372477146" y="216.37113698647875" fill="rgb(0,0,0)" font-size="12">1000.0</text><text text-anchor="middle" alignment-baseline="middle" x="498.3853183703293" y="296.7721525704154" fill="rgb(0,0,0)" font-size="12">5280.0</text><text text-anchor="middle" alignment-baseline="middle" x="283.7128787794148" y="563.1013888994147" fill="rgb(0,0,0)" font-size="12">0.08333333333333333</text><text text-anchor="middle" alignment-baseline="middle" x="466.37786294257654" y="352.39618951584936" fill="rgb(0,0,0)" font-size="12">1.893939393939394E-4</text><text text-anchor="middle" alignment-baseline="middle" x="377.5070313592163" y="359.2517077328474" fill="rgb(0,0,0)" font-size="12">0.0010000000000000002</text><text text-anchor="middle" alignment-baseline="middle" x="292.8900752628384" y="277.96818574120334" fill="rgb(0,0,0)" font-size="12">0.3067484662576687</text><text text-anchor="middle" alignment-baseline="middle" x="561.6386230515026" y="524.3767127162463" fill="rgb(0,0,0)" font-size="12">1000000.0</text><text text-anchor="middle" alignment-baseline="middle" x="142.83078780036456" y="421.8794383891761" fill="rgb(0,0,0)" font-size="12">6.187353050365054E25</text><text text-anchor="middle" alignment-baseline="middle" x="324.7968434717944" y="473.7386698617245" fill="rgb(0,0,0)" font-size="12">1.0E9</text><text text-anchor="middle" alignment-baseline="middle" x="453.71035136203295" y="488.1529971767425" fill="rgb(0,0,0)" font-size="12">0.3048</text><text text-anchor="middle" alignment-baseline="middle" x="577.0922094400158" y="524.1070201584794" fill="rgb(0,0,0)" font-size="12">1.0000000000000006E-6</text><text text-anchor="middle" alignment-baseline="middle" x="153.08730397802532" y="25.99958867984773" fill="rgb(0,0,0)" font-size="12">1.0570008340246153E-13</text><text text-anchor="middle" alignment-baseline="middle" x="439.2412854244808" y="159.9034788217851" fill="rgb(0,0,0)" font-size="12">1.495978707E8</text><text text-anchor="middle" alignment-baseline="middle" x="323.2629032153002" y="529.9490137351822" fill="rgb(0,0,0)" font-size="12">12.0</text><text text-anchor="middle" alignment-baseline="middle" x="499.9313740686635" y="378.87800280957873" fill="rgb(0,0,0)" font-size="12">0.010000000000000002</text>
      Sorry, your browser does not support inline SVG.
    </svg>