<?xml version='1.0' encoding='UTF-8'?>
<svg version="1.1" width="700.0" height="700.0" onload="init(evt)" xmlns="http://www.w3.org/2000/svg">
      <style>.caption {
  font-size: 14px;
  font-family: Georgia, serif;
}
</style>
      <script type="text/ecmascript"><![CDATA[
function init(evt) {
  if ( window.svgDocument == null ) {
    svgDocument = evt.target.ownerDocument;
  }
}

function RectHover(evt, i, c) {
  rect = svgDocument.getElementById('rect' + i);
  if( c != null ) {
    rect.setAttributeNS(null, "fill", c)  
  }
  tooltiptext = svgDocument.getElementById('tooltiptext' + i);
  tooltipbg = svgDocument.getElementById('tooltipbg' + i);
  if( tooltipbg != null) {
    tbb = tooltiptext.getBBox();
    tooltipbg.setAttributeNS(null, "width", tbb.width);
    tooltipbg.setAttributeNS(null, "height", tbb.height);
    tooltipbg.setAttributeNS(null, "x", tbb.x);
    tooltipbg.setAttributeNS(null, "y", tbb.y);
    tooltipbg.setAttributeNS(null, "visibility", "visible");
  }
  tooltiptext.setAttributeNS(null,"visibility","visible");
}

function RectUnhover(evt, i, c) {
  rect = svgDocument.getElementById('rect' + i);
  if( c != null ) {
    rect.setAttributeNS(null, "fill", c)  
  }
  tooltiptext = svgDocument.getElementById('tooltiptext' + i);
  tooltiptext.setAttributeNS(null,"visibility","hidden");
  tooltipbg = svgDocument.getElementById('tooltipbg' + i);
  if( tooltipbg != null ) {
    tooltipbg.setAttributeNS(null,"visibility","hidden");
  }
}
]]></script>
      <line x1="4.3312571663395865" y1="524.9349029459165" x2="409.8038717778916" y2="672.5690863063055" stroke="rgb(0,0,0)" stroke-width="1"/><line x1="25.48167001118643" y1="466.2075944268685" x2="22.894867614675864" y2="586.3366007994132" stroke="rgb(0,0,0)" stroke-width="1"/><line x1="569.8581040616763" y1="348.82297740553304" x2="94.58991795912036" y2="156.91552235046612" stroke="rgb(0,0,0)" stroke-width="1"/><line x1="4.3312571663395865" y1="524.9349029459165" x2="25.48167001118643" y2="466.2075944268685" stroke="rgb(0,0,0)" stroke-width="1"/><line x1="520.6431930174763" y1="97.10848709917389" x2="540.2849391075373" y2="341.61206876646264" stroke="rgb(0,0,0)" stroke-width="1"/><line x1="167.90016503071777" y1="388.6886231214089" x2="314.4792113127783" y2="359.25382069592484" stroke="rgb(0,0,0)" stroke-width="1"/><line x1="25.48167001118643" y1="466.2075944268685" x2="520.6431930174763" y2="97.10848709917389" stroke="rgb(0,0,0)" stroke-width="1"/><line x1="22.894867614675864" y1="586.3366007994132" x2="25.48167001118643" y2="466.2075944268685" stroke="rgb(0,0,0)" stroke-width="1"/><line x1="51.55033252722897" y1="136.5871379288158" x2="4.3312571663395865" y2="524.9349029459165" stroke="rgb(0,0,0)" stroke-width="1"/><line x1="540.2849391075373" y1="341.61206876646264" x2="520.6431930174763" y2="97.10848709917389" stroke="rgb(0,0,0)" stroke-width="1"/><line x1="569.8581040616763" y1="348.82297740553304" x2="4.3312571663395865" y2="524.9349029459165" stroke="rgb(0,0,0)" stroke-width="1"/><line x1="4.3312571663395865" y1="524.9349029459165" x2="167.90016503071777" y2="388.6886231214089" stroke="rgb(0,0,0)" stroke-width="1"/><line x1="489.0762145443349" y1="177.33081790831577" x2="4.3312571663395865" y2="524.9349029459165" stroke="rgb(0,0,0)" stroke-width="1"/><line x1="520.6431930174763" y1="97.10848709917389" x2="25.48167001118643" y2="466.2075944268685" stroke="rgb(0,0,0)" stroke-width="1"/><line x1="409.8038717778916" y1="672.5690863063055" x2="4.3312571663395865" y2="524.9349029459165" stroke="rgb(0,0,0)" stroke-width="1"/><line x1="4.3312571663395865" y1="524.9349029459165" x2="569.8581040616763" y2="348.82297740553304" stroke="rgb(0,0,0)" stroke-width="1"/><line x1="181.22462575034106" y1="318.1602991081971" x2="569.8581040616763" y2="348.82297740553304" stroke="rgb(0,0,0)" stroke-width="1"/><line x1="4.3312571663395865" y1="524.9349029459165" x2="51.55033252722897" y2="136.5871379288158" stroke="rgb(0,0,0)" stroke-width="1"/><line x1="94.58991795912036" y1="156.91552235046612" x2="569.8581040616763" y2="348.82297740553304" stroke="rgb(0,0,0)" stroke-width="1"/><line x1="167.90016503071777" y1="388.6886231214089" x2="4.3312571663395865" y2="524.9349029459165" stroke="rgb(0,0,0)" stroke-width="1"/><line x1="314.4792113127783" y1="359.25382069592484" x2="167.90016503071777" y2="388.6886231214089" stroke="rgb(0,0,0)" stroke-width="1"/><line x1="4.3312571663395865" y1="524.9349029459165" x2="489.0762145443349" y2="177.33081790831577" stroke="rgb(0,0,0)" stroke-width="1"/><line x1="25.48167001118643" y1="466.2075944268685" x2="4.3312571663395865" y2="524.9349029459165" stroke="rgb(0,0,0)" stroke-width="1"/><line x1="569.8581040616763" y1="348.82297740553304" x2="181.22462575034106" y2="318.1602991081971" stroke="rgb(0,0,0)" stroke-width="1"/><polygon points="10,0 20,3 20,-3" fill="black" transform="translate(409.8038717778916,672.5690863063055) rotate(200.00676519386164)"/><polygon points="10,0 20,3 20,-3" fill="black" transform="translate(22.894867614675864,586.3366007994132) rotate(271.23359013920253)"/><polygon points="10,0 20,3 20,-3" fill="black" transform="translate(94.58991795912036,156.91552235046612) rotate(21.988251084961348)"/><polygon points="10,0 20,3 20,-3" fill="black" transform="translate(25.48167001118643,466.2075944268685) rotate(109.80628800446375)"/><polygon points="10,0 20,3 20,-3" fill="black" transform="translate(540.2849391075373,341.61206876646264) rotate(265.4071117986389)"/><polygon points="10,0 20,3 20,-3" fill="black" transform="translate(314.4792113127783,359.25382069592484) rotate(168.64535064030144)"/><polygon points="10,0 20,3 20,-3" fill="black" transform="translate(520.6431930174763,97.10848709917389) rotate(143.2987293254596)"/><polygon points="10,0 20,3 20,-3" fill="black" transform="translate(25.48167001118643,466.2075944268685) rotate(91.23359013920252)"/><polygon points="10,0 20,3 20,-3" fill="black" transform="translate(4.3312571663395865,524.9349029459165) rotate(276.93254470663044)"/><polygon points="10,0 20,3 20,-3" fill="black" transform="translate(520.6431930174763,97.10848709917389) rotate(85.4071117986389)"/><polygon points="10,0 20,3 20,-3" fill="black" transform="translate(4.3312571663395865,524.9349029459165) rotate(342.7027773766283)"/><polygon points="10,0 20,3 20,-3" fill="black" transform="translate(167.90016503071777,388.6886231214089) rotate(140.20707114510424)"/><polygon points="10,0 20,3 20,-3" fill="black" transform="translate(4.3312571663395865,524.9349029459165) rotate(324.3562020492394)"/><polygon points="10,0 20,3 20,-3" fill="black" transform="translate(25.48167001118643,466.2075944268685) rotate(323.2987293254596)"/><polygon points="10,0 20,3 20,-3" fill="black" transform="translate(4.3312571663395865,524.9349029459165) rotate(20.00676519386164)"/><polygon points="10,0 20,3 20,-3" fill="black" transform="translate(569.8581040616763,348.82297740553304) rotate(162.7027773766283)"/><polygon points="10,0 20,3 20,-3" fill="black" transform="translate(569.8581040616763,348.82297740553304) rotate(184.51121752952656)"/><polygon points="10,0 20,3 20,-3" fill="black" transform="translate(51.55033252722897,136.5871379288158) rotate(96.93254470663044)"/><polygon points="10,0 20,3 20,-3" fill="black" transform="translate(569.8581040616763,348.82297740553304) rotate(201.98825108496135)"/><polygon points="10,0 20,3 20,-3" fill="black" transform="translate(4.3312571663395865,524.9349029459165) rotate(320.20707114510424)"/><polygon points="10,0 20,3 20,-3" fill="black" transform="translate(167.90016503071777,388.6886231214089) rotate(348.64535064030144)"/><polygon points="10,0 20,3 20,-3" fill="black" transform="translate(489.0762145443349,177.33081790831577) rotate(144.3562020492394)"/><polygon points="10,0 20,3 20,-3" fill="black" transform="translate(4.3312571663395865,524.9349029459165) rotate(289.8062880044638)"/><polygon points="10,0 20,3 20,-3" fill="black" transform="translate(181.22462575034106,318.1602991081971) rotate(4.5112175295265615)"/><circle cx="94.58991795912036" cy="156.91552235046612" r="10" fill="rgb(255,255,0)" stroke="rgb(0,0,0)" stroke-width="1"/><circle cx="4.3312571663395865" cy="524.9349029459165" r="10" fill="rgb(255,255,0)" stroke="rgb(0,0,0)" stroke-width="1"/><circle cx="569.8581040616763" cy="348.82297740553304" r="10" fill="rgb(255,255,0)" stroke="rgb(0,0,0)" stroke-width="1"/><circle cx="409.8038717778916" cy="672.5690863063055" r="10" fill="rgb(255,255,0)" stroke="rgb(0,0,0)" stroke-width="1"/><circle cx="167.90016503071777" cy="388.6886231214089" r="10" fill="rgb(255,255,0)" stroke="rgb(0,0,0)" stroke-width="1"/><circle cx="22.894867614675864" cy="586.3366007994132" r="10" fill="rgb(255,255,0)" stroke="rgb(0,0,0)" stroke-width="1"/><circle cx="489.0762145443349" cy="177.33081790831577" r="10" fill="rgb(255,255,0)" stroke="rgb(0,0,0)" stroke-width="1"/><circle cx="314.4792113127783" cy="359.25382069592484" r="10" fill="rgb(255,255,0)" stroke="rgb(0,0,0)" stroke-width="1"/><circle cx="25.48167001118643" cy="466.2075944268685" r="10" fill="rgb(255,255,0)" stroke="rgb(0,0,0)" stroke-width="1"/><circle cx="181.22462575034106" cy="318.1602991081971" r="10" fill="rgb(255,255,0)" stroke="rgb(0,0,0)" stroke-width="1"/><circle cx="51.55033252722897" cy="136.5871379288158" r="10" fill="rgb(255,255,0)" stroke="rgb(0,0,0)" stroke-width="1"/><circle cx="540.2849391075373" cy="341.61206876646264" r="10" fill="rgb(255,255,0)" stroke="rgb(0,0,0)" stroke-width="1"/><circle cx="520.6431930174763" cy="97.10848709917389" r="10" fill="rgb(255,255,0)" stroke="rgb(0,0,0)" stroke-width="1"/><text text-anchor="middle" alignment-baseline="middle" x="94.58991795912036" y="156.91552235046612" fill="rgb(0,0,0)" font-size="12">inch (in)</text><text text-anchor="middle" alignment-baseline="middle" x="4.3312571663395865" y="524.9349029459165" fill="rgb(0,0,0)" font-size="12">meter (m)</text><text text-anchor="middle" alignment-baseline="middle" x="569.8581040616763" y="348.82297740553304" fill="rgb(0,0,0)" font-size="12">foot (ft)</text><text text-anchor="middle" alignment-baseline="middle" x="409.8038717778916" y="672.5690863063055" fill="rgb(0,0,0)" font-size="12">micrometer (μm)</text><text text-anchor="middle" alignment-baseline="middle" x="167.90016503071777" y="388.6886231214089" fill="rgb(0,0,0)" font-size="12">nanometer (nm)</text><text text-anchor="middle" alignment-baseline="middle" x="22.894867614675864" y="586.3366007994132" fill="rgb(0,0,0)" font-size="12">Astronomical Unit (AU)</text><text text-anchor="middle" alignment-baseline="middle" x="489.0762145443349" y="177.33081790831577" fill="rgb(0,0,0)" font-size="12">millimeter (mm)</text><text text-anchor="middle" alignment-baseline="middle" x="314.4792113127783" y="359.25382069592484" fill="rgb(0,0,0)" font-size="12">Planck length (ℓP)</text><text text-anchor="middle" alignment-baseline="middle" x="25.48167001118643" y="466.2075944268685" fill="rgb(0,0,0)" font-size="12">kilometer (km)</text><text text-anchor="middle" alignment-baseline="middle" x="181.22462575034106" y="318.1602991081971" fill="rgb(0,0,0)" font-size="12">mile (m)</text><text text-anchor="middle" alignment-baseline="middle" x="51.55033252722897" y="136.5871379288158" fill="rgb(0,0,0)" font-size="12">centimeter (cm)</text><text text-anchor="middle" alignment-baseline="middle" x="540.2849391075373" y="341.61206876646264" fill="rgb(0,0,0)" font-size="12">parsec (pc)</text><text text-anchor="middle" alignment-baseline="middle" x="520.6431930174763" y="97.10848709917389" fill="rgb(0,0,0)" font-size="12">lightyear (ly)</text><text text-anchor="middle" alignment-baseline="middle" x="247.61482593327077" y="613.5154129621499" fill="rgb(0,0,0)" font-size="12">1.0000000000000006E-6</text><text text-anchor="middle" alignment-baseline="middle" x="23.92958857328009" y="538.2849982503953" fill="rgb(0,0,0)" font-size="12">1.495978707E8</text><text text-anchor="middle" alignment-baseline="middle" x="284.69719240014274" y="233.6785043724929" fill="rgb(0,0,0)" font-size="12">0.08333333333333333</text><text text-anchor="middle" alignment-baseline="middle" x="17.021504873247693" y="489.69851783448775" fill="rgb(0,0,0)" font-size="12">1000.0</text><text text-anchor="middle" alignment-baseline="middle" x="532.4282406715129" y="243.81063609954714" fill="rgb(0,0,0)" font-size="12">3.26</text><text text-anchor="middle" alignment-baseline="middle" x="255.8475927999541" y="371.02774166611846" fill="rgb(0,0,0)" font-size="12">6.187353050365054E25</text><text text-anchor="middle" alignment-baseline="middle" x="322.5785838149603" y="244.74813003025176" fill="rgb(0,0,0)" font-size="12">9.4607304725808E12</text><text text-anchor="middle" alignment-baseline="middle" x="24.446949052582205" y="514.2591969758864" fill="rgb(0,0,0)" font-size="12">6.6845871222684464E-9</text><text text-anchor="middle" alignment-baseline="middle" x="23.21888731069534" y="369.5957969390762" fill="rgb(0,0,0)" font-size="12">100.0</text><text text-anchor="middle" alignment-baseline="middle" x="528.4998914535007" y="194.9099197660894" fill="rgb(0,0,0)" font-size="12">0.3067484662576687</text><text text-anchor="middle" alignment-baseline="middle" x="230.5419959244743" y="454.4901327297631" fill="rgb(0,0,0)" font-size="12">3.2808398950131235</text><text text-anchor="middle" alignment-baseline="middle" x="102.4726018849665" y="443.18713505121195" fill="rgb(0,0,0)" font-size="12">1.0000000000000009E-9</text><text text-anchor="middle" alignment-baseline="middle" x="198.2292401175377" y="385.89326893087616" fill="rgb(0,0,0)" font-size="12">1000.0</text><text text-anchor="middle" alignment-baseline="middle" x="223.5462792137024" y="318.5679514957907" fill="rgb(0,0,0)" font-size="12">1.0570008340246153E-13</text><text text-anchor="middle" alignment-baseline="middle" x="166.5203030109604" y="583.9885762900722" fill="rgb(0,0,0)" font-size="12">1000000.0</text><text text-anchor="middle" alignment-baseline="middle" x="343.64736530354156" y="419.26774762168645" fill="rgb(0,0,0)" font-size="12">0.3048</text><text text-anchor="middle" alignment-baseline="middle" x="414.4047127371422" y="336.5579060865987" fill="rgb(0,0,0)" font-size="12">1.893939393939394E-4</text><text text-anchor="middle" alignment-baseline="middle" x="32.66270238287321" y="291.9262439356561" fill="rgb(0,0,0)" font-size="12">0.010000000000000002</text><text text-anchor="middle" alignment-baseline="middle" x="379.7508296206539" y="272.05999538350625" fill="rgb(0,0,0)" font-size="12">12.0</text><text text-anchor="middle" alignment-baseline="middle" x="69.75882031209086" y="470.4363910161135" fill="rgb(0,0,0)" font-size="12">1.0E9</text><text text-anchor="middle" alignment-baseline="middle" x="226.531783543542" y="376.9147021512153" fill="rgb(0,0,0)" font-size="12">1.6162E-26</text><text text-anchor="middle" alignment-baseline="middle" x="295.1782315931368" y="316.3724519233561" fill="rgb(0,0,0)" font-size="12">0.0010000000000000002</text><text text-anchor="middle" alignment-baseline="middle" x="12.791422304278324" y="501.4439795382973" fill="rgb(0,0,0)" font-size="12">0.0010000000000000002</text><text text-anchor="middle" alignment-baseline="middle" x="336.67801707487513" y="330.42537042713144" fill="rgb(0,0,0)" font-size="12">5280.0</text>
      Sorry, your browser does not support inline SVG.
    </svg>