<?xml version='1.0' encoding='UTF-8'?>
<svg version="1.1" width="700.0" height="700.0" onload="init(evt)" xmlns="http://www.w3.org/2000/svg">
      <style>.caption {
  font-size: 14px;
  font-family: Georgia, serif;
}
</style>
      <script type="text/ecmascript"><![CDATA[
function init(evt) {
  if ( window.svgDocument == null ) {
    svgDocument = evt.target.ownerDocument;
  }
}

function RectHover(evt, i, c) {
  rect = svgDocument.getElementById('rect' + i);
  if( c != null ) {
    rect.setAttributeNS(null, "fill", c)  
  }
  tooltiptext = svgDocument.getElementById('tooltiptext' + i);
  tooltipbg = svgDocument.getElementById('tooltipbg' + i);
  if( tooltipbg != null) {
    tbb = tooltiptext.getBBox();
    tooltipbg.setAttributeNS(null, "width", tbb.width);
    tooltipbg.setAttributeNS(null, "height", tbb.height);
    tooltipbg.setAttributeNS(null, "x", tbb.x);
    tooltipbg.setAttributeNS(null, "y", tbb.y);
    tooltipbg.setAttributeNS(null, "visibility", "visible");
  }
  tooltiptext.setAttributeNS(null,"visibility","visible");
}

function RectUnhover(evt, i, c) {
  rect = svgDocument.getElementById('rect' + i);
  if( c != null ) {
    rect.setAttributeNS(null, "fill", c)  
  }
  tooltiptext = svgDocument.getElementById('tooltiptext' + i);
  tooltiptext.setAttributeNS(null,"visibility","hidden");
  tooltipbg = svgDocument.getElementById('tooltipbg' + i);
  if( tooltipbg != null ) {
    tooltipbg.setAttributeNS(null,"visibility","hidden");
  }
}
]]></script>
      <line x1="548.9839268728118" y1="362.0272892654569" x2="471.73408526614656" y2="113.36513407363013" stroke="rgb(0,0,0)" stroke-width="1"/><line x1="12.312063199456713" y1="350.0170037789827" x2="68.04931605723674" y2="429.87790020920227" stroke="rgb(0,0,0)" stroke-width="1"/><line x1="548.9839268728118" y1="362.0272892654569" x2="452.0063937533149" y2="670.6311762279712" stroke="rgb(0,0,0)" stroke-width="1"/><line x1="68.04931605723674" y1="429.87790020920227" x2="24.287693962744548" y2="326.6049971827165" stroke="rgb(0,0,0)" stroke-width="1"/><line x1="537.5937872194702" y1="426.20067697523353" x2="267.90628926549476" y2="299.38365780091783" stroke="rgb(0,0,0)" stroke-width="1"/><line x1="617.229425237066" y1="23.690726427950914" x2="68.04931605723674" y2="429.87790020920227" stroke="rgb(0,0,0)" stroke-width="1"/><line x1="359.9935820917897" y1="548.0299941747402" x2="24.287693962744548" y2="326.6049971827165" stroke="rgb(0,0,0)" stroke-width="1"/><line x1="514.9682997910382" y1="602.1127984286888" x2="68.04931605723674" y2="429.87790020920227" stroke="rgb(0,0,0)" stroke-width="1"/><line x1="695.8817230252586" y1="271.34810199413386" x2="68.04931605723674" y2="429.87790020920227" stroke="rgb(0,0,0)" stroke-width="1"/><line x1="617.229425237066" y1="23.690726427950914" x2="662.7221959092808" y2="323.34595001381473" stroke="rgb(0,0,0)" stroke-width="1"/><line x1="452.0063937533149" y1="670.6311762279712" x2="548.9839268728118" y2="362.0272892654569" stroke="rgb(0,0,0)" stroke-width="1"/><line x1="68.04931605723674" y1="429.87790020920227" x2="548.9839268728118" y2="362.0272892654569" stroke="rgb(0,0,0)" stroke-width="1"/><line x1="617.229425237066" y1="23.690726427950914" x2="267.90628926549476" y2="299.38365780091783" stroke="rgb(0,0,0)" stroke-width="1"/><line x1="662.7221959092808" y1="323.34595001381473" x2="617.229425237066" y2="23.690726427950914" stroke="rgb(0,0,0)" stroke-width="1"/><line x1="548.9839268728118" y1="362.0272892654569" x2="68.04931605723674" y2="429.87790020920227" stroke="rgb(0,0,0)" stroke-width="1"/><line x1="68.04931605723674" y1="429.87790020920227" x2="695.8817230252586" y2="271.34810199413386" stroke="rgb(0,0,0)" stroke-width="1"/><line x1="68.04931605723674" y1="429.87790020920227" x2="514.9682997910382" y2="602.1127984286888" stroke="rgb(0,0,0)" stroke-width="1"/><line x1="68.04931605723674" y1="429.87790020920227" x2="617.229425237066" y2="23.690726427950914" stroke="rgb(0,0,0)" stroke-width="1"/><line x1="24.287693962744548" y1="326.6049971827165" x2="68.04931605723674" y2="429.87790020920227" stroke="rgb(0,0,0)" stroke-width="1"/><line x1="24.287693962744548" y1="326.6049971827165" x2="359.9935820917897" y2="548.0299941747402" stroke="rgb(0,0,0)" stroke-width="1"/><line x1="471.73408526614656" y1="113.36513407363013" x2="548.9839268728118" y2="362.0272892654569" stroke="rgb(0,0,0)" stroke-width="1"/><line x1="267.90628926549476" y1="299.38365780091783" x2="537.5937872194702" y2="426.20067697523353" stroke="rgb(0,0,0)" stroke-width="1"/><line x1="68.04931605723674" y1="429.87790020920227" x2="12.312063199456713" y2="350.0170037789827" stroke="rgb(0,0,0)" stroke-width="1"/><line x1="267.90628926549476" y1="299.38365780091783" x2="617.229425237066" y2="23.690726427950914" stroke="rgb(0,0,0)" stroke-width="1"/><polygon points="10,0 20,3 20,-3" fill="black" transform="translate(471.73408526614656,113.36513407363013) rotate(72.74197454475951)"/><polygon points="10,0 20,3 20,-3" fill="black" transform="translate(68.04931605723674,429.87790020920227) rotate(235.08768626365972)"/><polygon points="10,0 20,3 20,-3" fill="black" transform="translate(452.0063937533149,670.6311762279712) rotate(287.4451168273563)"/><polygon points="10,0 20,3 20,-3" fill="black" transform="translate(24.287693962744548,326.6049971827165) rotate(67.03532508623661)"/><polygon points="10,0 20,3 20,-3" fill="black" transform="translate(267.90628926549476,299.38365780091783) rotate(25.18464209546346)"/><polygon points="10,0 20,3 20,-3" fill="black" transform="translate(68.04931605723674,429.87790020920227) rotate(323.51245583967375)"/><polygon points="10,0 20,3 20,-3" fill="black" transform="translate(24.287693962744548,326.6049971827165) rotate(33.40805821941376)"/><polygon points="10,0 20,3 20,-3" fill="black" transform="translate(68.04931605723674,429.87790020920227) rotate(21.075805635440418)"/><polygon points="10,0 20,3 20,-3" fill="black" transform="translate(68.04931605723674,429.87790020920227) rotate(345.82884095222613)"/><polygon points="10,0 20,3 20,-3" fill="black" transform="translate(662.7221959092808,323.34595001381473) rotate(261.3674435077829)"/><polygon points="10,0 20,3 20,-3" fill="black" transform="translate(548.9839268728118,362.0272892654569) rotate(107.44511682735629)"/><polygon points="10,0 20,3 20,-3" fill="black" transform="translate(548.9839268728118,362.0272892654569) rotate(171.96966711755647)"/><polygon points="10,0 20,3 20,-3" fill="black" transform="translate(267.90628926549476,299.38365780091783) rotate(321.7187793545091)"/><polygon points="10,0 20,3 20,-3" fill="black" transform="translate(617.229425237066,23.690726427950914) rotate(81.36744350778292)"/><polygon points="10,0 20,3 20,-3" fill="black" transform="translate(68.04931605723674,429.87790020920227) rotate(351.96966711755647)"/><polygon points="10,0 20,3 20,-3" fill="black" transform="translate(695.8817230252586,271.34810199413386) rotate(165.82884095222616)"/><polygon points="10,0 20,3 20,-3" fill="black" transform="translate(514.9682997910382,602.1127984286888) rotate(201.07580563544042)"/><polygon points="10,0 20,3 20,-3" fill="black" transform="translate(617.229425237066,23.690726427950914) rotate(143.5124558396737)"/><polygon points="10,0 20,3 20,-3" fill="black" transform="translate(68.04931605723674,429.87790020920227) rotate(247.03532508623664)"/><polygon points="10,0 20,3 20,-3" fill="black" transform="translate(359.9935820917897,548.0299941747402) rotate(213.40805821941376)"/><polygon points="10,0 20,3 20,-3" fill="black" transform="translate(548.9839268728118,362.0272892654569) rotate(252.74197454475953)"/><polygon points="10,0 20,3 20,-3" fill="black" transform="translate(537.5937872194702,426.20067697523353) rotate(205.18464209546346)"/><polygon points="10,0 20,3 20,-3" fill="black" transform="translate(12.312063199456713,350.0170037789827) rotate(55.087686263659705)"/><polygon points="10,0 20,3 20,-3" fill="black" transform="translate(617.229425237066,23.690726427950914) rotate(141.71877935450905)"/><circle cx="452.0063937533149" cy="670.6311762279712" r="10" fill="rgb(255,255,0)" stroke="rgb(0,0,0)" stroke-width="1"/><circle cx="68.04931605723674" cy="429.87790020920227" r="10" fill="rgb(255,255,0)" stroke="rgb(0,0,0)" stroke-width="1"/><circle cx="548.9839268728118" cy="362.0272892654569" r="10" fill="rgb(255,255,0)" stroke="rgb(0,0,0)" stroke-width="1"/><circle cx="12.312063199456713" cy="350.0170037789827" r="10" fill="rgb(255,255,0)" stroke="rgb(0,0,0)" stroke-width="1"/><circle cx="24.287693962744548" cy="326.6049971827165" r="10" fill="rgb(255,255,0)" stroke="rgb(0,0,0)" stroke-width="1"/><circle cx="662.7221959092808" cy="323.34595001381473" r="10" fill="rgb(255,255,0)" stroke="rgb(0,0,0)" stroke-width="1"/><circle cx="514.9682997910382" cy="602.1127984286888" r="10" fill="rgb(255,255,0)" stroke="rgb(0,0,0)" stroke-width="1"/><circle cx="359.9935820917897" cy="548.0299941747402" r="10" fill="rgb(255,255,0)" stroke="rgb(0,0,0)" stroke-width="1"/><circle cx="617.229425237066" cy="23.690726427950914" r="10" fill="rgb(255,255,0)" stroke="rgb(0,0,0)" stroke-width="1"/><circle cx="471.73408526614656" cy="113.36513407363013" r="10" fill="rgb(255,255,0)" stroke="rgb(0,0,0)" stroke-width="1"/><circle cx="695.8817230252586" cy="271.34810199413386" r="10" fill="rgb(255,255,0)" stroke="rgb(0,0,0)" stroke-width="1"/><circle cx="537.5937872194702" cy="426.20067697523353" r="10" fill="rgb(255,255,0)" stroke="rgb(0,0,0)" stroke-width="1"/><circle cx="267.90628926549476" cy="299.38365780091783" r="10" fill="rgb(255,255,0)" stroke="rgb(0,0,0)" stroke-width="1"/><text text-anchor="middle" alignment-baseline="middle" x="452.0063937533149" y="670.6311762279712" fill="rgb(0,0,0)" font-size="12">inch (in)</text><text text-anchor="middle" alignment-baseline="middle" x="68.04931605723674" y="429.87790020920227" fill="rgb(0,0,0)" font-size="12">meter (m)</text><text text-anchor="middle" alignment-baseline="middle" x="548.9839268728118" y="362.0272892654569" fill="rgb(0,0,0)" font-size="12">foot (ft)</text><text text-anchor="middle" alignment-baseline="middle" x="12.312063199456713" y="350.0170037789827" fill="rgb(0,0,0)" font-size="12">micrometer (μm)</text><text text-anchor="middle" alignment-baseline="middle" x="24.287693962744548" y="326.6049971827165" fill="rgb(0,0,0)" font-size="12">nanometer (nm)</text><text text-anchor="middle" alignment-baseline="middle" x="662.7221959092808" y="323.34595001381473" fill="rgb(0,0,0)" font-size="12">Astronomical Unit (AU)</text><text text-anchor="middle" alignment-baseline="middle" x="514.9682997910382" y="602.1127984286888" fill="rgb(0,0,0)" font-size="12">millimeter (mm)</text><text text-anchor="middle" alignment-baseline="middle" x="359.9935820917897" y="548.0299941747402" fill="rgb(0,0,0)" font-size="12">Planck length (ℓP)</text><text text-anchor="middle" alignment-baseline="middle" x="617.229425237066" y="23.690726427950914" fill="rgb(0,0,0)" font-size="12">kilometer (km)</text><text text-anchor="middle" alignment-baseline="middle" x="471.73408526614656" y="113.36513407363013" fill="rgb(0,0,0)" font-size="12">mile (m)</text><text text-anchor="middle" alignment-baseline="middle" x="695.8817230252586" y="271.34810199413386" fill="rgb(0,0,0)" font-size="12">centimeter (cm)</text><text text-anchor="middle" alignment-baseline="middle" x="537.5937872194702" y="426.20067697523353" fill="rgb(0,0,0)" font-size="12">parsec (pc)</text><text text-anchor="middle" alignment-baseline="middle" x="267.90628926549476" y="299.38365780091783" fill="rgb(0,0,0)" font-size="12">lightyear (ly)</text><text text-anchor="middle" alignment-baseline="middle" x="502.63402190881266" y="212.82999615036084" fill="rgb(0,0,0)" font-size="12">5280.0</text><text text-anchor="middle" alignment-baseline="middle" x="45.75441491412472" y="397.93354163711444" fill="rgb(0,0,0)" font-size="12">1000000.0</text><text text-anchor="middle" alignment-baseline="middle" x="490.7974070011137" y="547.1896214429655" fill="rgb(0,0,0)" font-size="12">0.08333333333333333</text><text text-anchor="middle" alignment-baseline="middle" x="41.79234280054142" y="367.9141583933108" fill="rgb(0,0,0)" font-size="12">1.0000000000000009E-9</text><text text-anchor="middle" alignment-baseline="middle" x="375.78128844708493" y="350.1104654706441" fill="rgb(0,0,0)" font-size="12">0.3067484662576687</text><text text-anchor="middle" alignment-baseline="middle" x="287.72135972916846" y="267.4030306967017" fill="rgb(0,0,0)" font-size="12">0.0010000000000000002</text><text text-anchor="middle" alignment-baseline="middle" x="158.5700492143626" y="415.174995979526" fill="rgb(0,0,0)" font-size="12">1.6162E-26</text><text text-anchor="middle" alignment-baseline="middle" x="246.81690955075737" y="498.7718594969969" fill="rgb(0,0,0)" font-size="12">1000.0</text><text text-anchor="middle" alignment-baseline="middle" x="319.1822788444455" y="366.4659809231749" fill="rgb(0,0,0)" font-size="12">100.0</text><text text-anchor="middle" alignment-baseline="middle" x="644.5250876403949" y="203.48386057946922" fill="rgb(0,0,0)" font-size="12">1.495978707E8</text><text text-anchor="middle" alignment-baseline="middle" x="510.19291362501303" y="485.4688440504626" fill="rgb(0,0,0)" font-size="12">12.0</text><text text-anchor="middle" alignment-baseline="middle" x="356.6100825465818" y="389.16753364295505" fill="rgb(0,0,0)" font-size="12">0.3048</text><text text-anchor="middle" alignment-baseline="middle" x="407.63554365412324" y="189.10648525173107" fill="rgb(0,0,0)" font-size="12">9.4607304725808E12</text><text text-anchor="middle" alignment-baseline="middle" x="635.426533505952" y="143.55281586229643" fill="rgb(0,0,0)" font-size="12">6.6845871222684464E-9</text><text text-anchor="middle" alignment-baseline="middle" x="260.4231603834668" y="402.7376558317041" fill="rgb(0,0,0)" font-size="12">3.2808398950131235</text><text text-anchor="middle" alignment-baseline="middle" x="444.74876023804984" y="334.76002128016125" fill="rgb(0,0,0)" font-size="12">0.010000000000000002</text><text text-anchor="middle" alignment-baseline="middle" x="336.2007062975176" y="533.2188391408943" fill="rgb(0,0,0)" font-size="12">0.0010000000000000002</text><text text-anchor="middle" alignment-baseline="middle" x="397.55738156513434" y="186.16559594045145" fill="rgb(0,0,0)" font-size="12">1000.0</text><text text-anchor="middle" alignment-baseline="middle" x="50.54466721943986" y="388.56873899860796" fill="rgb(0,0,0)" font-size="12">1.0E9</text><text text-anchor="middle" alignment-baseline="middle" x="225.71122684017163" y="459.4599953779307" fill="rgb(0,0,0)" font-size="12">6.187353050365054E25</text><text text-anchor="middle" alignment-baseline="middle" x="518.0839902301457" y="262.5624271887262" fill="rgb(0,0,0)" font-size="12">1.893939393939394E-4</text><text text-anchor="middle" alignment-baseline="middle" x="429.71878803788" y="375.47386930550726" fill="rgb(0,0,0)" font-size="12">3.26</text><text text-anchor="middle" alignment-baseline="middle" x="34.60696434256872" y="381.96136235107053" fill="rgb(0,0,0)" font-size="12">1.0000000000000006E-6</text><text text-anchor="middle" alignment-baseline="middle" x="477.5001708484375" y="133.96789897713768" fill="rgb(0,0,0)" font-size="12">1.0570008340246153E-13</text>
      Sorry, your browser does not support inline SVG.
    </svg>