<?xml version='1.0' encoding='UTF-8'?>
<svg version="1.1" width="700.0" height="700.0" onload="init(evt)" xmlns="http://www.w3.org/2000/svg">
      <style>.caption {
  font-size: 14px;
  font-family: Georgia, serif;
}
</style>
      <script type="text/ecmascript"><![CDATA[
function init(evt) {
  if ( window.svgDocument == null ) {
    svgDocument = evt.target.ownerDocument;
  }
}

function RectHover(evt, i, c) {
  rect = svgDocument.getElementById('rect' + i);
  if( c != null ) {
    rect.setAttributeNS(null, "fill", c)  
  }
  tooltiptext = svgDocument.getElementById('tooltiptext' + i);
  tooltipbg = svgDocument.getElementById('tooltipbg' + i);
  if( tooltipbg != null) {
    tbb = tooltiptext.getBBox();
    tooltipbg.setAttributeNS(null, "width", tbb.width);
    tooltipbg.setAttributeNS(null, "height", tbb.height);
    tooltipbg.setAttributeNS(null, "x", tbb.x);
    tooltipbg.setAttributeNS(null, "y", tbb.y);
    tooltipbg.setAttributeNS(null, "visibility", "visible");
  }
  tooltiptext.setAttributeNS(null,"visibility","visible");
}

function RectUnhover(evt, i, c) {
  rect = svgDocument.getElementById('rect' + i);
  if( c != null ) {
    rect.setAttributeNS(null, "fill", c)  
  }
  tooltiptext = svgDocument.getElementById('tooltiptext' + i);
  tooltiptext.setAttributeNS(null,"visibility","hidden");
  tooltipbg = svgDocument.getElementById('tooltipbg' + i);
  if( tooltipbg != null ) {
    tooltipbg.setAttributeNS(null,"visibility","hidden");
  }
}
]]></script>
      <line x1="447.8952330364074" y1="93.27769133887271" x2="476.4667471706225" y2="456.4349630771686" stroke="rgb(0,0,0)" stroke-width="1"/><line x1="296.77227363273494" y1="70.63458180819576" x2="115.62777213522749" y2="306.52563029142215" stroke="rgb(0,0,0)" stroke-width="1"/><line x1="554.4669419411312" y1="273.855679836198" x2="497.889883204727" y2="39.040656144874156" stroke="rgb(0,0,0)" stroke-width="1"/><line x1="340.61448334677425" y1="307.02166229927707" x2="44.965093742412485" y2="666.9958463537587" stroke="rgb(0,0,0)" stroke-width="1"/><line x1="497.889883204727" y1="39.040656144874156" x2="554.4669419411312" y2="273.855679836198" stroke="rgb(0,0,0)" stroke-width="1"/><line x1="447.8952330364074" y1="93.27769133887271" x2="554.4669419411312" y2="273.855679836198" stroke="rgb(0,0,0)" stroke-width="1"/><line x1="447.8952330364074" y1="93.27769133887271" x2="190.71901017016202" y2="426.57195531047984" stroke="rgb(0,0,0)" stroke-width="1"/><line x1="476.4667471706225" y1="456.4349630771686" x2="447.8952330364074" y2="93.27769133887271" stroke="rgb(0,0,0)" stroke-width="1"/><line x1="554.4669419411312" y1="273.855679836198" x2="447.8952330364074" y2="93.27769133887271" stroke="rgb(0,0,0)" stroke-width="1"/><line x1="447.8952330364074" y1="93.27769133887271" x2="115.62777213522749" y2="306.52563029142215" stroke="rgb(0,0,0)" stroke-width="1"/><line x1="554.4669419411312" y1="273.855679836198" x2="357.427170638989" y2="666.1389224172995" stroke="rgb(0,0,0)" stroke-width="1"/><line x1="447.8952330364074" y1="93.27769133887271" x2="514.5257932253721" y2="499.23490683844216" stroke="rgb(0,0,0)" stroke-width="1"/><line x1="447.8952330364074" y1="93.27769133887271" x2="44.965093742412485" y2="666.9958463537587" stroke="rgb(0,0,0)" stroke-width="1"/><line x1="44.965093742412485" y1="666.9958463537587" x2="447.8952330364074" y2="93.27769133887271" stroke="rgb(0,0,0)" stroke-width="1"/><line x1="115.62777213522749" y1="306.52563029142215" x2="447.8952330364074" y2="93.27769133887271" stroke="rgb(0,0,0)" stroke-width="1"/><line x1="357.427170638989" y1="666.1389224172995" x2="554.4669419411312" y2="273.855679836198" stroke="rgb(0,0,0)" stroke-width="1"/><line x1="44.965093742412485" y1="666.9958463537587" x2="340.61448334677425" y2="307.02166229927707" stroke="rgb(0,0,0)" stroke-width="1"/><line x1="521.1145797014542" y1="405.8687352240951" x2="340.61448334677425" y2="307.02166229927707" stroke="rgb(0,0,0)" stroke-width="1"/><line x1="555.7325684062689" y1="190.73674637736195" x2="44.965093742412485" y2="666.9958463537587" stroke="rgb(0,0,0)" stroke-width="1"/><line x1="44.965093742412485" y1="666.9958463537587" x2="555.7325684062689" y2="190.73674637736195" stroke="rgb(0,0,0)" stroke-width="1"/><line x1="340.61448334677425" y1="307.02166229927707" x2="521.1145797014542" y2="405.8687352240951" stroke="rgb(0,0,0)" stroke-width="1"/><line x1="190.71901017016202" y1="426.57195531047984" x2="447.8952330364074" y2="93.27769133887271" stroke="rgb(0,0,0)" stroke-width="1"/><line x1="115.62777213522749" y1="306.52563029142215" x2="296.77227363273494" y2="70.63458180819576" stroke="rgb(0,0,0)" stroke-width="1"/><line x1="514.5257932253721" y1="499.23490683844216" x2="447.8952330364074" y2="93.27769133887271" stroke="rgb(0,0,0)" stroke-width="1"/><polygon points="10,0 20,3 20,-3" fill="black" transform="translate(476.4667471706225,456.4349630771686) rotate(265.5015026175158)"/><polygon points="10,0 20,3 20,-3" fill="black" transform="translate(115.62777213522749,306.52563029142215) rotate(307.5212338514306)"/><polygon points="10,0 20,3 20,-3" fill="black" transform="translate(497.889883204727,39.040656144874156) rotate(76.45318518573904)"/><polygon points="10,0 20,3 20,-3" fill="black" transform="translate(44.965093742412485,666.9958463537587) rotate(309.39650814045945)"/><polygon points="10,0 20,3 20,-3" fill="black" transform="translate(554.4669419411312,273.855679836198) rotate(256.453185185739)"/><polygon points="10,0 20,3 20,-3" fill="black" transform="translate(554.4669419411312,273.855679836198) rotate(239.45217109902455)"/><polygon points="10,0 20,3 20,-3" fill="black" transform="translate(190.71901017016202,426.57195531047984) rotate(307.6544640704147)"/><polygon points="10,0 20,3 20,-3" fill="black" transform="translate(447.8952330364074,93.27769133887271) rotate(85.5015026175158)"/><polygon points="10,0 20,3 20,-3" fill="black" transform="translate(447.8952330364074,93.27769133887271) rotate(59.452171099024525)"/><polygon points="10,0 20,3 20,-3" fill="black" transform="translate(115.62777213522749,306.52563029142215) rotate(327.30781331252035)"/><polygon points="10,0 20,3 20,-3" fill="black" transform="translate(357.427170638989,666.1389224172995) rotate(296.6699000352684)"/><polygon points="10,0 20,3 20,-3" fill="black" transform="translate(514.5257932253721,499.23490683844216) rotate(260.67903759730547)"/><polygon points="10,0 20,3 20,-3" fill="black" transform="translate(44.965093742412485,666.9958463537587) rotate(305.08089476406974)"/><polygon points="10,0 20,3 20,-3" fill="black" transform="translate(447.8952330364074,93.27769133887271) rotate(125.08089476406975)"/><polygon points="10,0 20,3 20,-3" fill="black" transform="translate(447.8952330364074,93.27769133887271) rotate(147.30781331252035)"/><polygon points="10,0 20,3 20,-3" fill="black" transform="translate(554.4669419411312,273.855679836198) rotate(116.6699000352684)"/><polygon points="10,0 20,3 20,-3" fill="black" transform="translate(340.61448334677425,307.02166229927707) rotate(129.39650814045947)"/><polygon points="10,0 20,3 20,-3" fill="black" transform="translate(340.61448334677425,307.02166229927707) rotate(28.706387715649498)"/><polygon points="10,0 20,3 20,-3" fill="black" transform="translate(44.965093742412485,666.9958463537587) rotate(317.00235664644055)"/><polygon points="10,0 20,3 20,-3" fill="black" transform="translate(555.7325684062689,190.73674637736195) rotate(137.00235664644055)"/><polygon points="10,0 20,3 20,-3" fill="black" transform="translate(521.1145797014542,405.8687352240951) rotate(208.7063877156495)"/><polygon points="10,0 20,3 20,-3" fill="black" transform="translate(447.8952330364074,93.27769133887271) rotate(127.65446407041465)"/><polygon points="10,0 20,3 20,-3" fill="black" transform="translate(296.77227363273494,70.63458180819576) rotate(127.52123385143065)"/><polygon points="10,0 20,3 20,-3" fill="black" transform="translate(447.8952330364074,93.27769133887271) rotate(80.67903759730544)"/><circle cx="497.889883204727" cy="39.040656144874156" r="10" fill="rgb(255,255,0)" stroke="rgb(0,0,0)" stroke-width="1"/><circle cx="447.8952330364074" cy="93.27769133887271" r="10" fill="rgb(255,255,0)" stroke="rgb(0,0,0)" stroke-width="1"/><circle cx="554.4669419411312" cy="273.855679836198" r="10" fill="rgb(255,255,0)" stroke="rgb(0,0,0)" stroke-width="1"/><circle cx="514.5257932253721" cy="499.23490683844216" r="10" fill="rgb(255,255,0)" stroke="rgb(0,0,0)" stroke-width="1"/><circle cx="115.62777213522749" cy="306.52563029142215" r="10" fill="rgb(255,255,0)" stroke="rgb(0,0,0)" stroke-width="1"/><circle cx="555.7325684062689" cy="190.73674637736195" r="10" fill="rgb(255,255,0)" stroke="rgb(0,0,0)" stroke-width="1"/><circle cx="190.71901017016202" cy="426.57195531047984" r="10" fill="rgb(255,255,0)" stroke="rgb(0,0,0)" stroke-width="1"/><circle cx="296.77227363273494" cy="70.63458180819576" r="10" fill="rgb(255,255,0)" stroke="rgb(0,0,0)" stroke-width="1"/><circle cx="44.965093742412485" cy="666.9958463537587" r="10" fill="rgb(255,255,0)" stroke="rgb(0,0,0)" stroke-width="1"/><circle cx="357.427170638989" cy="666.1389224172995" r="10" fill="rgb(255,255,0)" stroke="rgb(0,0,0)" stroke-width="1"/><circle cx="476.4667471706225" cy="456.4349630771686" r="10" fill="rgb(255,255,0)" stroke="rgb(0,0,0)" stroke-width="1"/><circle cx="521.1145797014542" cy="405.8687352240951" r="10" fill="rgb(255,255,0)" stroke="rgb(0,0,0)" stroke-width="1"/><circle cx="340.61448334677425" cy="307.02166229927707" r="10" fill="rgb(255,255,0)" stroke="rgb(0,0,0)" stroke-width="1"/><text text-anchor="middle" alignment-baseline="middle" x="497.889883204727" y="39.040656144874156" fill="rgb(0,0,0)" font-size="12">inch (in)</text><text text-anchor="middle" alignment-baseline="middle" x="447.8952330364074" y="93.27769133887271" fill="rgb(0,0,0)" font-size="12">meter (m)</text><text text-anchor="middle" alignment-baseline="middle" x="554.4669419411312" y="273.855679836198" fill="rgb(0,0,0)" font-size="12">foot (ft)</text><text text-anchor="middle" alignment-baseline="middle" x="514.5257932253721" y="499.23490683844216" fill="rgb(0,0,0)" font-size="12">micrometer (μm)</text><text text-anchor="middle" alignment-baseline="middle" x="115.62777213522749" y="306.52563029142215" fill="rgb(0,0,0)" font-size="12">nanometer (nm)</text><text text-anchor="middle" alignment-baseline="middle" x="555.7325684062689" y="190.73674637736195" fill="rgb(0,0,0)" font-size="12">Astronomical Unit (AU)</text><text text-anchor="middle" alignment-baseline="middle" x="190.71901017016202" y="426.57195531047984" fill="rgb(0,0,0)" font-size="12">millimeter (mm)</text><text text-anchor="middle" alignment-baseline="middle" x="296.77227363273494" y="70.63458180819576" fill="rgb(0,0,0)" font-size="12">Planck length (ℓP)</text><text text-anchor="middle" alignment-baseline="middle" x="44.965093742412485" y="666.9958463537587" fill="rgb(0,0,0)" font-size="12">kilometer (km)</text><text text-anchor="middle" alignment-baseline="middle" x="357.427170638989" y="666.1389224172995" fill="rgb(0,0,0)" font-size="12">mile (m)</text><text text-anchor="middle" alignment-baseline="middle" x="476.4667471706225" y="456.4349630771686" fill="rgb(0,0,0)" font-size="12">centimeter (cm)</text><text text-anchor="middle" alignment-baseline="middle" x="521.1145797014542" y="405.8687352240951" fill="rgb(0,0,0)" font-size="12">parsec (pc)</text><text text-anchor="middle" alignment-baseline="middle" x="340.61448334677425" y="307.02166229927707" fill="rgb(0,0,0)" font-size="12">lightyear (ly)</text><text text-anchor="middle" alignment-baseline="middle" x="465.03814151693643" y="311.1720543818502" fill="rgb(0,0,0)" font-size="12">0.010000000000000002</text><text text-anchor="middle" alignment-baseline="middle" x="188.08557273423048" y="212.16921089813155" fill="rgb(0,0,0)" font-size="12">1.6162E-26</text><text text-anchor="middle" alignment-baseline="middle" x="520.5207066992887" y="132.9666656214037" fill="rgb(0,0,0)" font-size="12">0.08333333333333333</text><text text-anchor="middle" alignment-baseline="middle" x="163.2248495841572" y="523.006172731966" fill="rgb(0,0,0)" font-size="12">1.0570008340246153E-13</text><text text-anchor="middle" alignment-baseline="middle" x="531.8361184465695" y="179.92967035966848" fill="rgb(0,0,0)" font-size="12">12.0</text><text text-anchor="middle" alignment-baseline="middle" x="511.83825837924167" y="201.62448443726788" fill="rgb(0,0,0)" font-size="12">0.3048</text><text text-anchor="middle" alignment-baseline="middle" x="293.5894993166602" y="293.25424972183697" fill="rgb(0,0,0)" font-size="12">0.0010000000000000002</text><text text-anchor="middle" alignment-baseline="middle" x="459.32383869009345" y="238.5406000341911" fill="rgb(0,0,0)" font-size="12">100.0</text><text text-anchor="middle" alignment-baseline="middle" x="490.52391659829686" y="165.50888673780287" fill="rgb(0,0,0)" font-size="12">3.2808398950131235</text><text text-anchor="middle" alignment-baseline="middle" x="248.53475649569944" y="221.22645471040238" fill="rgb(0,0,0)" font-size="12">1.0000000000000009E-9</text><text text-anchor="middle" alignment-baseline="middle" x="436.2430791598459" y="509.22562538485886" fill="rgb(0,0,0)" font-size="12">5280.0</text><text text-anchor="middle" alignment-baseline="middle" x="487.87356914978625" y="336.85202063861436" fill="rgb(0,0,0)" font-size="12">1.0000000000000006E-6</text><text text-anchor="middle" alignment-baseline="middle" x="206.13714946001045" y="437.5085843478043" fill="rgb(0,0,0)" font-size="12">1000.0</text><text text-anchor="middle" alignment-baseline="middle" x="286.7231773188094" y="322.7649533448271" fill="rgb(0,0,0)" font-size="12">0.0010000000000000002</text><text text-anchor="middle" alignment-baseline="middle" x="314.98824867593544" y="178.5768669198925" fill="rgb(0,0,0)" font-size="12">1.0E9</text><text text-anchor="middle" alignment-baseline="middle" x="475.6510334202743" y="430.7689768686386" fill="rgb(0,0,0)" font-size="12">1.893939393939394E-4</text><text text-anchor="middle" alignment-baseline="middle" x="222.35472750502953" y="451.01133592106976" fill="rgb(0,0,0)" font-size="12">9.4607304725808E12</text><text text-anchor="middle" alignment-baseline="middle" x="412.81452188864625" y="346.5604914692043" fill="rgb(0,0,0)" font-size="12">0.3067484662576687</text><text text-anchor="middle" alignment-baseline="middle" x="249.27208360795504" y="476.49220636319995" fill="rgb(0,0,0)" font-size="12">6.6845871222684464E-9</text><text text-anchor="middle" alignment-baseline="middle" x="351.42557854072635" y="381.2403863679207" fill="rgb(0,0,0)" font-size="12">1.495978707E8</text><text text-anchor="middle" alignment-baseline="middle" x="448.9145411595822" y="366.32990605416785" fill="rgb(0,0,0)" font-size="12">3.26</text><text text-anchor="middle" alignment-baseline="middle" x="345.02474388990925" y="226.59539692751557" fill="rgb(0,0,0)" font-size="12">1000.0</text><text text-anchor="middle" alignment-baseline="middle" x="224.31447303373196" y="164.99100120148634" fill="rgb(0,0,0)" font-size="12">6.187353050365054E25</text><text text-anchor="middle" alignment-baseline="middle" x="474.54745711199325" y="255.66057753870052" fill="rgb(0,0,0)" font-size="12">1000000.0</text>
      Sorry, your browser does not support inline SVG.
    </svg>