<?xml version='1.0' encoding='UTF-8'?>
<svg version="1.1" width="700.0" height="700.0" onload="init(evt)" xmlns="http://www.w3.org/2000/svg">
      <style>.caption {
  font-size: 14px;
  font-family: Georgia, serif;
}
</style>
      <script type="text/ecmascript"><![CDATA[
function init(evt) {
  if ( window.svgDocument == null ) {
    svgDocument = evt.target.ownerDocument;
  }
}

function RectHover(evt, i, c) {
  rect = svgDocument.getElementById('rect' + i);
  if( c != null ) {
    rect.setAttributeNS(null, "fill", c)  
  }
  tooltiptext = svgDocument.getElementById('tooltiptext' + i);
  tooltipbg = svgDocument.getElementById('tooltipbg' + i);
  if( tooltipbg != null) {
    tbb = tooltiptext.getBBox();
    tooltipbg.setAttributeNS(null, "width", tbb.width);
    tooltipbg.setAttributeNS(null, "height", tbb.height);
    tooltipbg.setAttributeNS(null, "x", tbb.x);
    tooltipbg.setAttributeNS(null, "y", tbb.y);
    tooltipbg.setAttributeNS(null, "visibility", "visible");
  }
  tooltiptext.setAttributeNS(null,"visibility","visible");
}

function RectUnhover(evt, i, c) {
  rect = svgDocument.getElementById('rect' + i);
  if( c != null ) {
    rect.setAttributeNS(null, "fill", c)  
  }
  tooltiptext = svgDocument.getElementById('tooltiptext' + i);
  tooltiptext.setAttributeNS(null,"visibility","hidden");
  tooltipbg = svgDocument.getElementById('tooltipbg' + i);
  if( tooltipbg != null ) {
    tooltipbg.setAttributeNS(null,"visibility","hidden");
  }
}
]]></script>
      <line x1="470.6146340959488" y1="681.2324518626864" x2="196.56728540707317" y2="589.6715804542953" stroke="rgb(0,0,0)" stroke-width="1"/><line x1="23.41371180836982" y1="80.86436556336821" x2="667.2324269239069" y2="68.43079536043439" stroke="rgb(0,0,0)" stroke-width="1"/><line x1="196.56728540707317" y1="589.6715804542953" x2="470.6146340959488" y2="681.2324518626864" stroke="rgb(0,0,0)" stroke-width="1"/><line x1="284.8083810494778" y1="315.9965209514309" x2="518.8691005272085" y2="652.5952658871382" stroke="rgb(0,0,0)" stroke-width="1"/><line x1="41.278407894911915" y1="600.9235722524905" x2="23.41371180836982" y2="80.86436556336821" stroke="rgb(0,0,0)" stroke-width="1"/><line x1="470.6146340959488" y1="681.2324518626864" x2="23.41371180836982" y2="80.86436556336821" stroke="rgb(0,0,0)" stroke-width="1"/><line x1="518.8691005272085" y1="652.5952658871382" x2="284.8083810494778" y2="315.9965209514309" stroke="rgb(0,0,0)" stroke-width="1"/><line x1="23.41371180836982" y1="80.86436556336821" x2="553.3377203606971" y2="387.52951966476206" stroke="rgb(0,0,0)" stroke-width="1"/><line x1="126.02867343012775" y1="356.8815335182283" x2="284.8083810494778" y2="315.9965209514309" stroke="rgb(0,0,0)" stroke-width="1"/><line x1="667.2324269239069" y1="68.43079536043439" x2="667.8340417199103" y2="206.24852149708585" stroke="rgb(0,0,0)" stroke-width="1"/><line x1="480.65460502269286" y1="545.8085547899864" x2="470.6146340959488" y2="681.2324518626864" stroke="rgb(0,0,0)" stroke-width="1"/><line x1="667.2324269239069" y1="68.43079536043439" x2="23.41371180836982" y2="80.86436556336821" stroke="rgb(0,0,0)" stroke-width="1"/><line x1="284.8083810494778" y1="315.9965209514309" x2="23.41371180836982" y2="80.86436556336821" stroke="rgb(0,0,0)" stroke-width="1"/><line x1="470.6146340959488" y1="681.2324518626864" x2="480.65460502269286" y2="545.8085547899864" stroke="rgb(0,0,0)" stroke-width="1"/><line x1="562.0764206086108" y1="200.55154878088223" x2="196.56728540707317" y2="589.6715804542953" stroke="rgb(0,0,0)" stroke-width="1"/><line x1="667.8340417199103" y1="206.24852149708585" x2="667.2324269239069" y2="68.43079536043439" stroke="rgb(0,0,0)" stroke-width="1"/><line x1="196.56728540707317" y1="589.6715804542953" x2="562.0764206086108" y2="200.55154878088223" stroke="rgb(0,0,0)" stroke-width="1"/><line x1="330.761898673555" y1="539.9936106181766" x2="23.41371180836982" y2="80.86436556336821" stroke="rgb(0,0,0)" stroke-width="1"/><line x1="284.8083810494778" y1="315.9965209514309" x2="126.02867343012775" y2="356.8815335182283" stroke="rgb(0,0,0)" stroke-width="1"/><line x1="553.3377203606971" y1="387.52951966476206" x2="23.41371180836982" y2="80.86436556336821" stroke="rgb(0,0,0)" stroke-width="1"/><line x1="23.41371180836982" y1="80.86436556336821" x2="330.761898673555" y2="539.9936106181766" stroke="rgb(0,0,0)" stroke-width="1"/><line x1="23.41371180836982" y1="80.86436556336821" x2="470.6146340959488" y2="681.2324518626864" stroke="rgb(0,0,0)" stroke-width="1"/><line x1="23.41371180836982" y1="80.86436556336821" x2="284.8083810494778" y2="315.9965209514309" stroke="rgb(0,0,0)" stroke-width="1"/><line x1="23.41371180836982" y1="80.86436556336821" x2="41.278407894911915" y2="600.9235722524905" stroke="rgb(0,0,0)" stroke-width="1"/><polygon points="10,0 20,3 20,-3" fill="black" transform="translate(196.56728540707317,589.6715804542953) rotate(18.474784558957197)"/><polygon points="10,0 20,3 20,-3" fill="black" transform="translate(667.2324269239069,68.43079536043439) rotate(178.89362869534924)"/><polygon points="10,0 20,3 20,-3" fill="black" transform="translate(470.6146340959488,681.2324518626864) rotate(198.4747845589572)"/><polygon points="10,0 20,3 20,-3" fill="black" transform="translate(518.8691005272085,652.5952658871382) rotate(235.18640147973844)"/><polygon points="10,0 20,3 20,-3" fill="black" transform="translate(23.41371180836982,80.86436556336821) rotate(88.0325906138823)"/><polygon points="10,0 20,3 20,-3" fill="black" transform="translate(23.41371180836982,80.86436556336821) rotate(53.31838823516716)"/><polygon points="10,0 20,3 20,-3" fill="black" transform="translate(284.8083810494778,315.9965209514309) rotate(55.18640147973842)"/><polygon points="10,0 20,3 20,-3" fill="black" transform="translate(553.3377203606971,387.52951966476206) rotate(210.05781507703088)"/><polygon points="10,0 20,3 20,-3" fill="black" transform="translate(284.8083810494778,315.9965209514309) rotate(165.56029279832822)"/><polygon points="10,0 20,3 20,-3" fill="black" transform="translate(667.8340417199103,206.24852149708585) rotate(269.7498887064714)"/><polygon points="10,0 20,3 20,-3" fill="black" transform="translate(470.6146340959488,681.2324518626864) rotate(274.2400013130689)"/><polygon points="10,0 20,3 20,-3" fill="black" transform="translate(23.41371180836982,80.86436556336821) rotate(358.8936286953493)"/><polygon points="10,0 20,3 20,-3" fill="black" transform="translate(23.41371180836982,80.86436556336821) rotate(41.9723079150277)"/><polygon points="10,0 20,3 20,-3" fill="black" transform="translate(480.65460502269286,545.8085547899864) rotate(94.24000131306889)"/><polygon points="10,0 20,3 20,-3" fill="black" transform="translate(196.56728540707317,589.6715804542953) rotate(313.2079097961264)"/><polygon points="10,0 20,3 20,-3" fill="black" transform="translate(667.2324269239069,68.43079536043439) rotate(89.74988870647134)"/><polygon points="10,0 20,3 20,-3" fill="black" transform="translate(562.0764206086108,200.55154878088223) rotate(133.2079097961264)"/><polygon points="10,0 20,3 20,-3" fill="black" transform="translate(23.41371180836982,80.86436556336821) rotate(56.20103867901025)"/><polygon points="10,0 20,3 20,-3" fill="black" transform="translate(126.02867343012775,356.8815335182283) rotate(345.5602927983282)"/><polygon points="10,0 20,3 20,-3" fill="black" transform="translate(23.41371180836982,80.86436556336821) rotate(30.057815077030853)"/><polygon points="10,0 20,3 20,-3" fill="black" transform="translate(330.761898673555,539.9936106181766) rotate(236.20103867901028)"/><polygon points="10,0 20,3 20,-3" fill="black" transform="translate(470.6146340959488,681.2324518626864) rotate(233.31838823516716)"/><polygon points="10,0 20,3 20,-3" fill="black" transform="translate(284.8083810494778,315.9965209514309) rotate(221.9723079150277)"/><polygon points="10,0 20,3 20,-3" fill="black" transform="translate(41.278407894911915,600.9235722524905) rotate(268.03259061388235)"/><circle cx="126.02867343012775" cy="356.8815335182283" r="10" fill="rgb(255,255,0)" stroke="rgb(0,0,0)" stroke-width="1"/><circle cx="23.41371180836982" cy="80.86436556336821" r="10" fill="rgb(255,255,0)" stroke="rgb(0,0,0)" stroke-width="1"/><circle cx="284.8083810494778" cy="315.9965209514309" r="10" fill="rgb(255,255,0)" stroke="rgb(0,0,0)" stroke-width="1"/><circle cx="330.761898673555" cy="539.9936106181766" r="10" fill="rgb(255,255,0)" stroke="rgb(0,0,0)" stroke-width="1"/><circle cx="667.2324269239069" cy="68.43079536043439" r="10" fill="rgb(255,255,0)" stroke="rgb(0,0,0)" stroke-width="1"/><circle cx="480.65460502269286" cy="545.8085547899864" r="10" fill="rgb(255,255,0)" stroke="rgb(0,0,0)" stroke-width="1"/><circle cx="553.3377203606971" cy="387.52951966476206" r="10" fill="rgb(255,255,0)" stroke="rgb(0,0,0)" stroke-width="1"/><circle cx="667.8340417199103" cy="206.24852149708585" r="10" fill="rgb(255,255,0)" stroke="rgb(0,0,0)" stroke-width="1"/><circle cx="470.6146340959488" cy="681.2324518626864" r="10" fill="rgb(255,255,0)" stroke="rgb(0,0,0)" stroke-width="1"/><circle cx="518.8691005272085" cy="652.5952658871382" r="10" fill="rgb(255,255,0)" stroke="rgb(0,0,0)" stroke-width="1"/><circle cx="41.278407894911915" cy="600.9235722524905" r="10" fill="rgb(255,255,0)" stroke="rgb(0,0,0)" stroke-width="1"/><circle cx="562.0764206086108" cy="200.55154878088223" r="10" fill="rgb(255,255,0)" stroke="rgb(0,0,0)" stroke-width="1"/><circle cx="196.56728540707317" cy="589.6715804542953" r="10" fill="rgb(255,255,0)" stroke="rgb(0,0,0)" stroke-width="1"/><text text-anchor="middle" alignment-baseline="middle" x="126.02867343012775" y="356.8815335182283" fill="rgb(0,0,0)" font-size="12">inch (in)</text><text text-anchor="middle" alignment-baseline="middle" x="23.41371180836982" y="80.86436556336821" fill="rgb(0,0,0)" font-size="12">meter (m)</text><text text-anchor="middle" alignment-baseline="middle" x="284.8083810494778" y="315.9965209514309" fill="rgb(0,0,0)" font-size="12">foot (ft)</text><text text-anchor="middle" alignment-baseline="middle" x="330.761898673555" y="539.9936106181766" fill="rgb(0,0,0)" font-size="12">micrometer (μm)</text><text text-anchor="middle" alignment-baseline="middle" x="667.2324269239069" y="68.43079536043439" fill="rgb(0,0,0)" font-size="12">nanometer (nm)</text><text text-anchor="middle" alignment-baseline="middle" x="480.65460502269286" y="545.8085547899864" fill="rgb(0,0,0)" font-size="12">Astronomical Unit (AU)</text><text text-anchor="middle" alignment-baseline="middle" x="553.3377203606971" y="387.52951966476206" fill="rgb(0,0,0)" font-size="12">millimeter (mm)</text><text text-anchor="middle" alignment-baseline="middle" x="667.8340417199103" y="206.24852149708585" fill="rgb(0,0,0)" font-size="12">Planck length (ℓP)</text><text text-anchor="middle" alignment-baseline="middle" x="470.6146340959488" y="681.2324518626864" fill="rgb(0,0,0)" font-size="12">kilometer (km)</text><text text-anchor="middle" alignment-baseline="middle" x="518.8691005272085" y="652.5952658871382" fill="rgb(0,0,0)" font-size="12">mile (m)</text><text text-anchor="middle" alignment-baseline="middle" x="41.278407894911915" y="600.9235722524905" fill="rgb(0,0,0)" font-size="12">centimeter (cm)</text><text text-anchor="middle" alignment-baseline="middle" x="562.0764206086108" y="200.55154878088223" fill="rgb(0,0,0)" font-size="12">parsec (pc)</text><text text-anchor="middle" alignment-baseline="middle" x="196.56728540707317" y="589.6715804542953" fill="rgb(0,0,0)" font-size="12">lightyear (ly)</text><text text-anchor="middle" alignment-baseline="middle" x="306.1862248826234" y="626.2959290176517" fill="rgb(0,0,0)" font-size="12">9.4607304725808E12</text><text text-anchor="middle" alignment-baseline="middle" x="409.7049408776921" y="73.40422344160791" fill="rgb(0,0,0)" font-size="12">1.0000000000000009E-9</text><text text-anchor="middle" alignment-baseline="middle" x="360.9956946203986" y="644.60810329933" fill="rgb(0,0,0)" font-size="12">1.0570008340246153E-13</text><text text-anchor="middle" alignment-baseline="middle" x="425.2448127361162" y="517.9557679128553" fill="rgb(0,0,0)" font-size="12">5280.0</text><text text-anchor="middle" alignment-baseline="middle" x="30.55959024298666" y="288.88804823901717" fill="rgb(0,0,0)" font-size="12">100.0</text><text text-anchor="middle" alignment-baseline="middle" x="202.29408072340146" y="321.0116000830955" fill="rgb(0,0,0)" font-size="12">0.0010000000000000002</text><text text-anchor="middle" alignment-baseline="middle" x="378.4326688405701" y="450.63601892571387" fill="rgb(0,0,0)" font-size="12">1.893939393939394E-4</text><text text-anchor="middle" alignment-baseline="middle" x="341.36811693976614" y="264.86345802420453" fill="rgb(0,0,0)" font-size="12">0.0010000000000000002</text><text text-anchor="middle" alignment-baseline="middle" x="221.2964980017378" y="332.35052597814985" fill="rgb(0,0,0)" font-size="12">12.0</text><text text-anchor="middle" alignment-baseline="middle" x="667.5933958015089" y="151.12143104242526" fill="rgb(0,0,0)" font-size="12">6.187353050365054E25</text><text text-anchor="middle" alignment-baseline="middle" x="474.63062246664646" y="627.0628930336064" fill="rgb(0,0,0)" font-size="12">6.6845871222684464E-9</text><text text-anchor="middle" alignment-baseline="middle" x="280.9411978545847" y="75.89093748219469" fill="rgb(0,0,0)" font-size="12">1.0E9</text><text text-anchor="middle" alignment-baseline="middle" x="127.97157950481304" y="174.9172277185933" fill="rgb(0,0,0)" font-size="12">3.2808398950131235</text><text text-anchor="middle" alignment-baseline="middle" x="476.6386166519952" y="599.9781136190663" fill="rgb(0,0,0)" font-size="12">1.495978707E8</text><text text-anchor="middle" alignment-baseline="middle" x="342.7709394876882" y="434.02356778493004" fill="rgb(0,0,0)" font-size="12">0.3067484662576687</text><text text-anchor="middle" alignment-baseline="middle" x="667.4730728423083" y="123.55788581509498" fill="rgb(0,0,0)" font-size="12">1.6162E-26</text><text text-anchor="middle" alignment-baseline="middle" x="415.87276652799574" y="356.1995614502475" fill="rgb(0,0,0)" font-size="12">3.26</text><text text-anchor="middle" alignment-baseline="middle" x="146.3529865544439" y="264.5160635852916" fill="rgb(0,0,0)" font-size="12">1000000.0</text><text text-anchor="middle" alignment-baseline="middle" x="189.54055647786777" y="340.5275284915094" fill="rgb(0,0,0)" font-size="12">0.08333333333333333</text><text text-anchor="middle" alignment-baseline="middle" x="235.38331522930076" y="203.53042720392577" fill="rgb(0,0,0)" font-size="12">1000.0</text><text text-anchor="middle" alignment-baseline="middle" x="207.8226239274809" y="356.3419125962532" fill="rgb(0,0,0)" font-size="12">1.0000000000000006E-6</text><text text-anchor="middle" alignment-baseline="middle" x="291.7342651809172" y="441.0852173429591" fill="rgb(0,0,0)" font-size="12">1000.0</text><text text-anchor="middle" alignment-baseline="middle" x="180.2505133530346" y="221.94365879620582" fill="rgb(0,0,0)" font-size="12">0.3048</text><text text-anchor="middle" alignment-baseline="middle" x="34.132529460295075" y="392.8998895768416" fill="rgb(0,0,0)" font-size="12">0.010000000000000002</text>
      Sorry, your browser does not support inline SVG.
    </svg>