<?xml version='1.0' encoding='UTF-8'?>
<svg version="1.1" width="700.0" height="700.0" onload="init(evt)" xmlns="http://www.w3.org/2000/svg">
      <style>.caption {
  font-size: 14px;
  font-family: Georgia, serif;
}
</style>
      <script type="text/ecmascript"><![CDATA[
function init(evt) {
  if ( window.svgDocument == null ) {
    svgDocument = evt.target.ownerDocument;
  }
}

function RectHover(evt, i, c) {
  rect = svgDocument.getElementById('rect' + i);
  if( c != null ) {
    rect.setAttributeNS(null, "fill", c)  
  }
  tooltiptext = svgDocument.getElementById('tooltiptext' + i);
  tooltipbg = svgDocument.getElementById('tooltipbg' + i);
  if( tooltipbg != null) {
    tbb = tooltiptext.getBBox();
    tooltipbg.setAttributeNS(null, "width", tbb.width);
    tooltipbg.setAttributeNS(null, "height", tbb.height);
    tooltipbg.setAttributeNS(null, "x", tbb.x);
    tooltipbg.setAttributeNS(null, "y", tbb.y);
    tooltipbg.setAttributeNS(null, "visibility", "visible");
  }
  tooltiptext.setAttributeNS(null,"visibility","visible");
}

function RectUnhover(evt, i, c) {
  rect = svgDocument.getElementById('rect' + i);
  if( c != null ) {
    rect.setAttributeNS(null, "fill", c)  
  }
  tooltiptext = svgDocument.getElementById('tooltiptext' + i);
  tooltiptext.setAttributeNS(null,"visibility","hidden");
  tooltipbg = svgDocument.getElementById('tooltipbg' + i);
  if( tooltipbg != null ) {
    tooltipbg.setAttributeNS(null,"visibility","hidden");
  }
}
]]></script>
      <line x1="22.12469363906553" y1="106.07360359378724" x2="434.86502173968853" y2="250.59885559361905" stroke="rgb(0,0,0)" stroke-width="1"/><line x1="136.5480769519149" y1="631.003979685536" x2="22.12469363906553" y2="106.07360359378724" stroke="rgb(0,0,0)" stroke-width="1"/><line x1="78.47690233885429" y1="256.7052989348554" x2="55.287808592617694" y2="618.6369957995621" stroke="rgb(0,0,0)" stroke-width="1"/><line x1="307.7262451451349" y1="586.7528671720412" x2="22.12469363906553" y2="106.07360359378724" stroke="rgb(0,0,0)" stroke-width="1"/><line x1="115.14763886688336" y1="210.9273027833153" x2="14.0334676126317" y2="210.37196609664156" stroke="rgb(0,0,0)" stroke-width="1"/><line x1="666.4824702032907" y1="647.4770736805943" x2="22.12469363906553" y2="106.07360359378724" stroke="rgb(0,0,0)" stroke-width="1"/><line x1="666.4824702032907" y1="647.4770736805943" x2="14.0334676126317" y2="210.37196609664156" stroke="rgb(0,0,0)" stroke-width="1"/><line x1="447.80422836840916" y1="204.1084025465094" x2="22.12469363906553" y2="106.07360359378724" stroke="rgb(0,0,0)" stroke-width="1"/><line x1="22.12469363906553" y1="106.07360359378724" x2="666.4824702032907" y2="647.4770736805943" stroke="rgb(0,0,0)" stroke-width="1"/><line x1="434.86502173968853" y1="250.59885559361905" x2="22.12469363906553" y2="106.07360359378724" stroke="rgb(0,0,0)" stroke-width="1"/><line x1="369.5738612458193" y1="83.31148346994061" x2="78.47690233885429" y2="256.7052989348554" stroke="rgb(0,0,0)" stroke-width="1"/><line x1="78.47690233885429" y1="256.7052989348554" x2="369.5738612458193" y2="83.31148346994061" stroke="rgb(0,0,0)" stroke-width="1"/><line x1="22.12469363906553" y1="106.07360359378724" x2="78.47690233885429" y2="256.7052989348554" stroke="rgb(0,0,0)" stroke-width="1"/><line x1="666.4824702032907" y1="647.4770736805943" x2="233.3662022133137" y2="630.2895412706823" stroke="rgb(0,0,0)" stroke-width="1"/><line x1="376.53139201482253" y1="128.64089712426568" x2="447.80422836840916" y2="204.1084025465094" stroke="rgb(0,0,0)" stroke-width="1"/><line x1="233.3662022133137" y1="630.2895412706823" x2="666.4824702032907" y2="647.4770736805943" stroke="rgb(0,0,0)" stroke-width="1"/><line x1="14.0334676126317" y1="210.37196609664156" x2="666.4824702032907" y2="647.4770736805943" stroke="rgb(0,0,0)" stroke-width="1"/><line x1="22.12469363906553" y1="106.07360359378724" x2="447.80422836840916" y2="204.1084025465094" stroke="rgb(0,0,0)" stroke-width="1"/><line x1="78.47690233885429" y1="256.7052989348554" x2="22.12469363906553" y2="106.07360359378724" stroke="rgb(0,0,0)" stroke-width="1"/><line x1="22.12469363906553" y1="106.07360359378724" x2="136.5480769519149" y2="631.003979685536" stroke="rgb(0,0,0)" stroke-width="1"/><line x1="22.12469363906553" y1="106.07360359378724" x2="307.7262451451349" y2="586.7528671720412" stroke="rgb(0,0,0)" stroke-width="1"/><line x1="55.287808592617694" y1="618.6369957995621" x2="78.47690233885429" y2="256.7052989348554" stroke="rgb(0,0,0)" stroke-width="1"/><line x1="14.0334676126317" y1="210.37196609664156" x2="115.14763886688336" y2="210.9273027833153" stroke="rgb(0,0,0)" stroke-width="1"/><line x1="447.80422836840916" y1="204.1084025465094" x2="376.53139201482253" y2="128.64089712426568" stroke="rgb(0,0,0)" stroke-width="1"/><polygon points="10,0 20,3 20,-3" fill="black" transform="translate(434.86502173968853,250.59885559361905) rotate(199.29822489979986)"/><polygon points="10,0 20,3 20,-3" fill="black" transform="translate(22.12469363906553,106.07360359378724) rotate(77.70312048986523)"/><polygon points="10,0 20,3 20,-3" fill="black" transform="translate(55.287808592617694,618.6369957995621) rotate(273.6659503856738)"/><polygon points="10,0 20,3 20,-3" fill="black" transform="translate(22.12469363906553,106.07360359378724) rotate(59.28281008560866)"/><polygon points="10,0 20,3 20,-3" fill="black" transform="translate(14.0334676126317,210.37196609664156) rotate(0.314675263047576)"/><polygon points="10,0 20,3 20,-3" fill="black" transform="translate(22.12469363906553,106.07360359378724) rotate(40.037710329738445)"/><polygon points="10,0 20,3 20,-3" fill="black" transform="translate(14.0334676126317,210.37196609664156) rotate(33.81991995491455)"/><polygon points="10,0 20,3 20,-3" fill="black" transform="translate(22.12469363906553,106.07360359378724) rotate(12.969191101662148)"/><polygon points="10,0 20,3 20,-3" fill="black" transform="translate(666.4824702032907,647.4770736805943) rotate(220.03771032973845)"/><polygon points="10,0 20,3 20,-3" fill="black" transform="translate(22.12469363906553,106.07360359378724) rotate(19.298224899799862)"/><polygon points="10,0 20,3 20,-3" fill="black" transform="translate(78.47690233885429,256.7052989348554) rotate(329.21957969173775)"/><polygon points="10,0 20,3 20,-3" fill="black" transform="translate(369.5738612458193,83.31148346994061) rotate(149.21957969173775)"/><polygon points="10,0 20,3 20,-3" fill="black" transform="translate(78.47690233885429,256.7052989348554) rotate(249.4888794173022)"/><polygon points="10,0 20,3 20,-3" fill="black" transform="translate(233.3662022133137,630.2895412706823) rotate(2.272499780041386)"/><polygon points="10,0 20,3 20,-3" fill="black" transform="translate(447.80422836840916,204.1084025465094) rotate(226.63739160157084)"/><polygon points="10,0 20,3 20,-3" fill="black" transform="translate(666.4824702032907,647.4770736805943) rotate(182.27249978004141)"/><polygon points="10,0 20,3 20,-3" fill="black" transform="translate(666.4824702032907,647.4770736805943) rotate(213.81991995491455)"/><polygon points="10,0 20,3 20,-3" fill="black" transform="translate(447.80422836840916,204.1084025465094) rotate(192.96919110166215)"/><polygon points="10,0 20,3 20,-3" fill="black" transform="translate(22.12469363906553,106.07360359378724) rotate(69.48887941730219)"/><polygon points="10,0 20,3 20,-3" fill="black" transform="translate(136.5480769519149,631.003979685536) rotate(257.7031204898652)"/><polygon points="10,0 20,3 20,-3" fill="black" transform="translate(307.7262451451349,586.7528671720412) rotate(239.2828100856087)"/><polygon points="10,0 20,3 20,-3" fill="black" transform="translate(78.47690233885429,256.7052989348554) rotate(93.66595038567377)"/><polygon points="10,0 20,3 20,-3" fill="black" transform="translate(115.14763886688336,210.9273027833153) rotate(180.31467526304758)"/><polygon points="10,0 20,3 20,-3" fill="black" transform="translate(376.53139201482253,128.64089712426568) rotate(46.63739160157084)"/><circle cx="369.5738612458193" cy="83.31148346994061" r="10" fill="rgb(255,255,0)" stroke="rgb(0,0,0)" stroke-width="1"/><circle cx="22.12469363906553" cy="106.07360359378724" r="10" fill="rgb(255,255,0)" stroke="rgb(0,0,0)" stroke-width="1"/><circle cx="78.47690233885429" cy="256.7052989348554" r="10" fill="rgb(255,255,0)" stroke="rgb(0,0,0)" stroke-width="1"/><circle cx="434.86502173968853" cy="250.59885559361905" r="10" fill="rgb(255,255,0)" stroke="rgb(0,0,0)" stroke-width="1"/><circle cx="447.80422836840916" cy="204.1084025465094" r="10" fill="rgb(255,255,0)" stroke="rgb(0,0,0)" stroke-width="1"/><circle cx="233.3662022133137" cy="630.2895412706823" r="10" fill="rgb(255,255,0)" stroke="rgb(0,0,0)" stroke-width="1"/><circle cx="307.7262451451349" cy="586.7528671720412" r="10" fill="rgb(255,255,0)" stroke="rgb(0,0,0)" stroke-width="1"/><circle cx="376.53139201482253" cy="128.64089712426568" r="10" fill="rgb(255,255,0)" stroke="rgb(0,0,0)" stroke-width="1"/><circle cx="666.4824702032907" cy="647.4770736805943" r="10" fill="rgb(255,255,0)" stroke="rgb(0,0,0)" stroke-width="1"/><circle cx="55.287808592617694" cy="618.6369957995621" r="10" fill="rgb(255,255,0)" stroke="rgb(0,0,0)" stroke-width="1"/><circle cx="136.5480769519149" cy="631.003979685536" r="10" fill="rgb(255,255,0)" stroke="rgb(0,0,0)" stroke-width="1"/><circle cx="115.14763886688336" cy="210.9273027833153" r="10" fill="rgb(255,255,0)" stroke="rgb(0,0,0)" stroke-width="1"/><circle cx="14.0334676126317" cy="210.37196609664156" r="10" fill="rgb(255,255,0)" stroke="rgb(0,0,0)" stroke-width="1"/><text text-anchor="middle" alignment-baseline="middle" x="369.5738612458193" y="83.31148346994061" fill="rgb(0,0,0)" font-size="12">inch (in)</text><text text-anchor="middle" alignment-baseline="middle" x="22.12469363906553" y="106.07360359378724" fill="rgb(0,0,0)" font-size="12">meter (m)</text><text text-anchor="middle" alignment-baseline="middle" x="78.47690233885429" y="256.7052989348554" fill="rgb(0,0,0)" font-size="12">foot (ft)</text><text text-anchor="middle" alignment-baseline="middle" x="434.86502173968853" y="250.59885559361905" fill="rgb(0,0,0)" font-size="12">micrometer (μm)</text><text text-anchor="middle" alignment-baseline="middle" x="447.80422836840916" y="204.1084025465094" fill="rgb(0,0,0)" font-size="12">nanometer (nm)</text><text text-anchor="middle" alignment-baseline="middle" x="233.3662022133137" y="630.2895412706823" fill="rgb(0,0,0)" font-size="12">Astronomical Unit (AU)</text><text text-anchor="middle" alignment-baseline="middle" x="307.7262451451349" y="586.7528671720412" fill="rgb(0,0,0)" font-size="12">millimeter (mm)</text><text text-anchor="middle" alignment-baseline="middle" x="376.53139201482253" y="128.64089712426568" fill="rgb(0,0,0)" font-size="12">Planck length (ℓP)</text><text text-anchor="middle" alignment-baseline="middle" x="666.4824702032907" y="647.4770736805943" fill="rgb(0,0,0)" font-size="12">kilometer (km)</text><text text-anchor="middle" alignment-baseline="middle" x="55.287808592617694" y="618.6369957995621" fill="rgb(0,0,0)" font-size="12">mile (m)</text><text text-anchor="middle" alignment-baseline="middle" x="136.5480769519149" y="631.003979685536" fill="rgb(0,0,0)" font-size="12">centimeter (cm)</text><text text-anchor="middle" alignment-baseline="middle" x="115.14763886688336" y="210.9273027833153" fill="rgb(0,0,0)" font-size="12">parsec (pc)</text><text text-anchor="middle" alignment-baseline="middle" x="14.0334676126317" y="210.37196609664156" fill="rgb(0,0,0)" font-size="12">lightyear (ly)</text><text text-anchor="middle" alignment-baseline="middle" x="269.76889049943935" y="192.78875479368634" fill="rgb(0,0,0)" font-size="12">1.0000000000000006E-6</text><text text-anchor="middle" alignment-baseline="middle" x="67.89404696420529" y="316.04575403048676" fill="rgb(0,0,0)" font-size="12">100.0</text><text text-anchor="middle" alignment-baseline="middle" x="64.56344609111233" y="473.86431705367943" fill="rgb(0,0,0)" font-size="12">5280.0</text><text text-anchor="middle" alignment-baseline="middle" x="136.36531424149328" y="298.34530902508885" fill="rgb(0,0,0)" font-size="12">1000.0</text><text text-anchor="middle" alignment-baseline="middle" x="54.47913611433236" y="210.59410077131105" fill="rgb(0,0,0)" font-size="12">0.3067484662576687</text><text text-anchor="middle" alignment-baseline="middle" x="279.86780426475565" y="322.6349916285101" fill="rgb(0,0,0)" font-size="12">0.0010000000000000002</text><text text-anchor="middle" alignment-baseline="middle" x="275.01306864889534" y="385.2140091302227" fill="rgb(0,0,0)" font-size="12">9.4607304725808E12</text><text text-anchor="middle" alignment-baseline="middle" x="192.39650753080298" y="145.28752317487613" fill="rgb(0,0,0)" font-size="12">1.0E9</text><text text-anchor="middle" alignment-baseline="middle" x="408.7393595776006" y="430.9156856458715" fill="rgb(0,0,0)" font-size="12">1000.0</text><text text-anchor="middle" alignment-baseline="middle" x="187.22082487931473" y="163.88370439371994" fill="rgb(0,0,0)" font-size="12">1000000.0</text><text text-anchor="middle" alignment-baseline="middle" x="194.9156859016403" y="187.3477727488895" fill="rgb(0,0,0)" font-size="12">12.0</text><text text-anchor="middle" alignment-baseline="middle" x="253.13507768303327" y="152.66900965590654" fill="rgb(0,0,0)" font-size="12">0.08333333333333333</text><text text-anchor="middle" alignment-baseline="middle" x="55.93601885893878" y="196.45262079842814" fill="rgb(0,0,0)" font-size="12">0.3048</text><text text-anchor="middle" alignment-baseline="middle" x="406.61270940930456" y="637.1645542346471" fill="rgb(0,0,0)" font-size="12">1.495978707E8</text><text text-anchor="middle" alignment-baseline="middle" x="419.2950938269745" y="173.92140037761192" fill="rgb(0,0,0)" font-size="12">1.6162E-26</text><text text-anchor="middle" alignment-baseline="middle" x="493.2359630072999" y="640.6020607166296" fill="rgb(0,0,0)" font-size="12">6.6845871222684464E-9</text><text text-anchor="middle" alignment-baseline="middle" x="405.5028691670271" y="472.6350306470132" fill="rgb(0,0,0)" font-size="12">1.0570008340246153E-13</text><text text-anchor="middle" alignment-baseline="middle" x="277.5324144766717" y="164.89448296542054" fill="rgb(0,0,0)" font-size="12">1.0000000000000009E-9</text><text text-anchor="middle" alignment-baseline="middle" x="44.665577118981034" y="166.32628173021453" fill="rgb(0,0,0)" font-size="12">3.2808398950131235</text><text text-anchor="middle" alignment-baseline="middle" x="90.77872362677515" y="421.0318292488365" fill="rgb(0,0,0)" font-size="12">0.010000000000000002</text><text text-anchor="middle" alignment-baseline="middle" x="193.48562454270714" y="394.4811617407396" fill="rgb(0,0,0)" font-size="12">0.0010000000000000002</text><text text-anchor="middle" alignment-baseline="middle" x="69.20126484035966" y="401.4779776807381" fill="rgb(0,0,0)" font-size="12">1.893939393939394E-4</text><text text-anchor="middle" alignment-baseline="middle" x="74.70197036518269" y="210.7051681086458" fill="rgb(0,0,0)" font-size="12">3.26</text><text text-anchor="middle" alignment-baseline="middle" x="405.0405265562572" y="158.82789929316317" fill="rgb(0,0,0)" font-size="12">6.187353050365054E25</text>
      Sorry, your browser does not support inline SVG.
    </svg>