<?xml version='1.0' encoding='UTF-8'?>
<svg version="1.1" width="700.0" height="700.0" onload="init(evt)" xmlns="http://www.w3.org/2000/svg">
      <style>.caption {
  font-size: 14px;
  font-family: Georgia, serif;
}
</style>
      <script type="text/ecmascript"><![CDATA[
function init(evt) {
  if ( window.svgDocument == null ) {
    svgDocument = evt.target.ownerDocument;
  }
}

function RectHover(evt, i, c) {
  rect = svgDocument.getElementById('rect' + i);
  if( c != null ) {
    rect.setAttributeNS(null, "fill", c)  
  }
  tooltiptext = svgDocument.getElementById('tooltiptext' + i);
  tooltipbg = svgDocument.getElementById('tooltipbg' + i);
  if( tooltipbg != null) {
    tbb = tooltiptext.getBBox();
    tooltipbg.setAttributeNS(null, "width", tbb.width);
    tooltipbg.setAttributeNS(null, "height", tbb.height);
    tooltipbg.setAttributeNS(null, "x", tbb.x);
    tooltipbg.setAttributeNS(null, "y", tbb.y);
    tooltipbg.setAttributeNS(null, "visibility", "visible");
  }
  tooltiptext.setAttributeNS(null,"visibility","visible");
}

function RectUnhover(evt, i, c) {
  rect = svgDocument.getElementById('rect' + i);
  if( c != null ) {
    rect.setAttributeNS(null, "fill", c)  
  }
  tooltiptext = svgDocument.getElementById('tooltiptext' + i);
  tooltiptext.setAttributeNS(null,"visibility","hidden");
  tooltipbg = svgDocument.getElementById('tooltipbg' + i);
  if( tooltipbg != null ) {
    tooltipbg.setAttributeNS(null,"visibility","hidden");
  }
}
]]></script>
      <line x1="251.18466622045315" y1="287.4632920570329" x2="150.63065611471328" y2="467.408696779491" stroke="rgb(0,0,0)" stroke-width="1"/><line x1="196.7028201330378" y1="240.9323761421756" x2="150.63065611471328" y2="467.408696779491" stroke="rgb(0,0,0)" stroke-width="1"/><line x1="426.4136507937911" y1="34.50717805170359" x2="196.7028201330378" y2="240.9323761421756" stroke="rgb(0,0,0)" stroke-width="1"/><line x1="251.18466622045315" y1="287.4632920570329" x2="248.42835541172593" y2="396.63498545164987" stroke="rgb(0,0,0)" stroke-width="1"/><line x1="432.01757689461414" y1="109.42501086394155" x2="251.18466622045315" y2="287.4632920570329" stroke="rgb(0,0,0)" stroke-width="1"/><line x1="150.63065611471328" y1="467.408696779491" x2="251.18466622045315" y2="287.4632920570329" stroke="rgb(0,0,0)" stroke-width="1"/><line x1="150.63065611471328" y1="467.408696779491" x2="533.8362702276062" y2="290.40842821904295" stroke="rgb(0,0,0)" stroke-width="1"/><line x1="388.5884779750285" y1="334.55895346255716" x2="150.63065611471328" y2="467.408696779491" stroke="rgb(0,0,0)" stroke-width="1"/><line x1="196.7028201330378" y1="240.9323761421756" x2="426.4136507937911" y2="34.50717805170359" stroke="rgb(0,0,0)" stroke-width="1"/><line x1="647.1210289303513" y1="432.7705357918054" x2="150.63065611471328" y2="467.408696779491" stroke="rgb(0,0,0)" stroke-width="1"/><line x1="676.1623160586761" y1="502.2255907614697" x2="196.7028201330378" y2="240.9323761421756" stroke="rgb(0,0,0)" stroke-width="1"/><line x1="248.42835541172593" y1="396.63498545164987" x2="251.18466622045315" y2="287.4632920570329" stroke="rgb(0,0,0)" stroke-width="1"/><line x1="498.8581957835111" y1="419.71795826616045" x2="676.1623160586761" y2="502.2255907614697" stroke="rgb(0,0,0)" stroke-width="1"/><line x1="150.63065611471328" y1="467.408696779491" x2="647.1210289303513" y2="432.7705357918054" stroke="rgb(0,0,0)" stroke-width="1"/><line x1="676.1623160586761" y1="502.2255907614697" x2="498.8581957835111" y2="419.71795826616045" stroke="rgb(0,0,0)" stroke-width="1"/><line x1="150.63065611471328" y1="467.408696779491" x2="388.5884779750285" y2="334.55895346255716" stroke="rgb(0,0,0)" stroke-width="1"/><line x1="519.461304484279" y1="351.51811896755515" x2="113.57188360096082" y2="356.1595324362647" stroke="rgb(0,0,0)" stroke-width="1"/><line x1="113.57188360096082" y1="356.1595324362647" x2="519.461304484279" y2="351.51811896755515" stroke="rgb(0,0,0)" stroke-width="1"/><line x1="251.18466622045315" y1="287.4632920570329" x2="432.01757689461414" y2="109.42501086394155" stroke="rgb(0,0,0)" stroke-width="1"/><line x1="150.63065611471328" y1="467.408696779491" x2="113.57188360096082" y2="356.1595324362647" stroke="rgb(0,0,0)" stroke-width="1"/><line x1="150.63065611471328" y1="467.408696779491" x2="196.7028201330378" y2="240.9323761421756" stroke="rgb(0,0,0)" stroke-width="1"/><line x1="113.57188360096082" y1="356.1595324362647" x2="150.63065611471328" y2="467.408696779491" stroke="rgb(0,0,0)" stroke-width="1"/><line x1="533.8362702276062" y1="290.40842821904295" x2="150.63065611471328" y2="467.408696779491" stroke="rgb(0,0,0)" stroke-width="1"/><line x1="196.7028201330378" y1="240.9323761421756" x2="676.1623160586761" y2="502.2255907614697" stroke="rgb(0,0,0)" stroke-width="1"/><polygon points="10,0 20,3 20,-3" fill="black" transform="translate(150.63065611471328,467.408696779491) rotate(299.1965843898577)"/><polygon points="10,0 20,3 20,-3" fill="black" transform="translate(150.63065611471328,467.408696779491) rotate(281.4987940351315)"/><polygon points="10,0 20,3 20,-3" fill="black" transform="translate(196.7028201330378,240.9323761421756) rotate(318.05616328553265)"/><polygon points="10,0 20,3 20,-3" fill="black" transform="translate(248.42835541172593,396.63498545164987) rotate(271.44626714691196)"/><polygon points="10,0 20,3 20,-3" fill="black" transform="translate(251.18466622045315,287.4632920570329) rotate(315.4461691037227)"/><polygon points="10,0 20,3 20,-3" fill="black" transform="translate(251.18466622045315,287.4632920570329) rotate(119.19658438985769)"/><polygon points="10,0 20,3 20,-3" fill="black" transform="translate(533.8362702276062,290.40842821904295) rotate(155.20808115418941)"/><polygon points="10,0 20,3 20,-3" fill="black" transform="translate(150.63065611471328,467.408696779491) rotate(330.82576400145024)"/><polygon points="10,0 20,3 20,-3" fill="black" transform="translate(426.4136507937911,34.50717805170359) rotate(138.0561632855326)"/><polygon points="10,0 20,3 20,-3" fill="black" transform="translate(150.63065611471328,467.408696779491) rotate(356.0091675477254)"/><polygon points="10,0 20,3 20,-3" fill="black" transform="translate(196.7028201330378,240.9323761421756) rotate(28.589259025480487)"/><polygon points="10,0 20,3 20,-3" fill="black" transform="translate(251.18466622045315,287.4632920570329) rotate(91.44626714691194)"/><polygon points="10,0 20,3 20,-3" fill="black" transform="translate(676.1623160586761,502.2255907614697) rotate(204.95469068739004)"/><polygon points="10,0 20,3 20,-3" fill="black" transform="translate(647.1210289303513,432.7705357918054) rotate(176.00916754772538)"/><polygon points="10,0 20,3 20,-3" fill="black" transform="translate(498.8581957835111,419.71795826616045) rotate(24.954690687390013)"/><polygon points="10,0 20,3 20,-3" fill="black" transform="translate(388.5884779750285,334.55895346255716) rotate(150.82576400145024)"/><polygon points="10,0 20,3 20,-3" fill="black" transform="translate(113.57188360096082,356.1595324362647) rotate(359.34484172649377)"/><polygon points="10,0 20,3 20,-3" fill="black" transform="translate(519.461304484279,351.51811896755515) rotate(179.34484172649377)"/><polygon points="10,0 20,3 20,-3" fill="black" transform="translate(432.01757689461414,109.42501086394155) rotate(135.44616910372264)"/><polygon points="10,0 20,3 20,-3" fill="black" transform="translate(113.57188360096082,356.1595324362647) rotate(71.57630722811592)"/><polygon points="10,0 20,3 20,-3" fill="black" transform="translate(196.7028201330378,240.9323761421756) rotate(101.49879403513147)"/><polygon points="10,0 20,3 20,-3" fill="black" transform="translate(150.63065611471328,467.408696779491) rotate(251.57630722811592)"/><polygon points="10,0 20,3 20,-3" fill="black" transform="translate(150.63065611471328,467.408696779491) rotate(335.2080811541894)"/><polygon points="10,0 20,3 20,-3" fill="black" transform="translate(676.1623160586761,502.2255907614697) rotate(208.5892590254805)"/><circle cx="432.01757689461414" cy="109.42501086394155" r="10" fill="rgb(255,255,0)" stroke="rgb(0,0,0)" stroke-width="1"/><circle cx="150.63065611471328" cy="467.408696779491" r="10" fill="rgb(255,255,0)" stroke="rgb(0,0,0)" stroke-width="1"/><circle cx="251.18466622045315" cy="287.4632920570329" r="10" fill="rgb(255,255,0)" stroke="rgb(0,0,0)" stroke-width="1"/><circle cx="533.8362702276062" cy="290.40842821904295" r="10" fill="rgb(255,255,0)" stroke="rgb(0,0,0)" stroke-width="1"/><circle cx="113.57188360096082" cy="356.1595324362647" r="10" fill="rgb(255,255,0)" stroke="rgb(0,0,0)" stroke-width="1"/><circle cx="426.4136507937911" cy="34.50717805170359" r="10" fill="rgb(255,255,0)" stroke="rgb(0,0,0)" stroke-width="1"/><circle cx="647.1210289303513" cy="432.7705357918054" r="10" fill="rgb(255,255,0)" stroke="rgb(0,0,0)" stroke-width="1"/><circle cx="519.461304484279" cy="351.51811896755515" r="10" fill="rgb(255,255,0)" stroke="rgb(0,0,0)" stroke-width="1"/><circle cx="196.7028201330378" cy="240.9323761421756" r="10" fill="rgb(255,255,0)" stroke="rgb(0,0,0)" stroke-width="1"/><circle cx="248.42835541172593" cy="396.63498545164987" r="10" fill="rgb(255,255,0)" stroke="rgb(0,0,0)" stroke-width="1"/><circle cx="388.5884779750285" cy="334.55895346255716" r="10" fill="rgb(255,255,0)" stroke="rgb(0,0,0)" stroke-width="1"/><circle cx="498.8581957835111" cy="419.71795826616045" r="10" fill="rgb(255,255,0)" stroke="rgb(0,0,0)" stroke-width="1"/><circle cx="676.1623160586761" cy="502.2255907614697" r="10" fill="rgb(255,255,0)" stroke="rgb(0,0,0)" stroke-width="1"/><text text-anchor="middle" alignment-baseline="middle" x="432.01757689461414" y="109.42501086394155" fill="rgb(0,0,0)" font-size="12">inch (in)</text><text text-anchor="middle" alignment-baseline="middle" x="150.63065611471328" y="467.408696779491" fill="rgb(0,0,0)" font-size="12">meter (m)</text><text text-anchor="middle" alignment-baseline="middle" x="251.18466622045315" y="287.4632920570329" fill="rgb(0,0,0)" font-size="12">foot (ft)</text><text text-anchor="middle" alignment-baseline="middle" x="533.8362702276062" y="290.40842821904295" fill="rgb(0,0,0)" font-size="12">micrometer (μm)</text><text text-anchor="middle" alignment-baseline="middle" x="113.57188360096082" y="356.1595324362647" fill="rgb(0,0,0)" font-size="12">nanometer (nm)</text><text text-anchor="middle" alignment-baseline="middle" x="426.4136507937911" y="34.50717805170359" fill="rgb(0,0,0)" font-size="12">Astronomical Unit (AU)</text><text text-anchor="middle" alignment-baseline="middle" x="647.1210289303513" y="432.7705357918054" fill="rgb(0,0,0)" font-size="12">millimeter (mm)</text><text text-anchor="middle" alignment-baseline="middle" x="519.461304484279" y="351.51811896755515" fill="rgb(0,0,0)" font-size="12">Planck length (ℓP)</text><text text-anchor="middle" alignment-baseline="middle" x="196.7028201330378" y="240.9323761421756" fill="rgb(0,0,0)" font-size="12">kilometer (km)</text><text text-anchor="middle" alignment-baseline="middle" x="248.42835541172593" y="396.63498545164987" fill="rgb(0,0,0)" font-size="12">mile (m)</text><text text-anchor="middle" alignment-baseline="middle" x="388.5884779750285" y="334.55895346255716" fill="rgb(0,0,0)" font-size="12">centimeter (cm)</text><text text-anchor="middle" alignment-baseline="middle" x="498.8581957835111" y="419.71795826616045" fill="rgb(0,0,0)" font-size="12">parsec (pc)</text><text text-anchor="middle" alignment-baseline="middle" x="676.1623160586761" y="502.2255907614697" fill="rgb(0,0,0)" font-size="12">lightyear (ly)</text><text text-anchor="middle" alignment-baseline="middle" x="190.85226015700923" y="395.4305348905077" fill="rgb(0,0,0)" font-size="12">3.2808398950131235</text><text text-anchor="middle" alignment-baseline="middle" x="169.0595217220431" y="376.81816852456484" fill="rgb(0,0,0)" font-size="12">0.0010000000000000002</text><text text-anchor="middle" alignment-baseline="middle" x="288.5871523973391" y="158.3622969059868" fill="rgb(0,0,0)" font-size="12">6.6845871222684464E-9</text><text text-anchor="middle" alignment-baseline="middle" x="249.5308797352168" y="352.9663080938031" fill="rgb(0,0,0)" font-size="12">5280.0</text><text text-anchor="middle" alignment-baseline="middle" x="323.51783049011755" y="216.24797957979635" fill="rgb(0,0,0)" font-size="12">12.0</text><text text-anchor="middle" alignment-baseline="middle" x="210.9630621781572" y="359.44145394601617" fill="rgb(0,0,0)" font-size="12">0.3048</text><text text-anchor="middle" alignment-baseline="middle" x="380.554024582449" y="361.20853564322215" fill="rgb(0,0,0)" font-size="12">1.0000000000000006E-6</text><text text-anchor="middle" alignment-baseline="middle" x="245.81378485883937" y="414.2687994527174" fill="rgb(0,0,0)" font-size="12">100.0</text><text text-anchor="middle" alignment-baseline="middle" x="334.52931852948973" y="117.0772572878924" fill="rgb(0,0,0)" font-size="12">1.495978707E8</text><text text-anchor="middle" alignment-baseline="middle" x="349.2268052409685" y="453.55343238441674" fill="rgb(0,0,0)" font-size="12">1000.0</text><text text-anchor="middle" alignment-baseline="middle" x="388.48661850329313" y="345.44966198989323" fill="rgb(0,0,0)" font-size="12">1.0570008340246153E-13</text><text text-anchor="middle" alignment-baseline="middle" x="250.08214189696227" y="331.1319694148797" fill="rgb(0,0,0)" font-size="12">1.893939393939394E-4</text><text text-anchor="middle" alignment-baseline="middle" x="605.24066794861" y="469.222537763346" fill="rgb(0,0,0)" font-size="12">0.3067484662576687</text><text text-anchor="middle" alignment-baseline="middle" x="448.52487980409603" y="446.62580018687964" fill="rgb(0,0,0)" font-size="12">0.0010000000000000002</text><text text-anchor="middle" alignment-baseline="middle" x="569.7798438935771" y="452.72101126428413" fill="rgb(0,0,0)" font-size="12">3.26</text><text text-anchor="middle" alignment-baseline="middle" x="293.4053492309024" y="387.69885078933066" fill="rgb(0,0,0)" font-size="12">0.010000000000000002</text><text text-anchor="middle" alignment-baseline="middle" x="275.9276519542881" y="354.3029670487809" fill="rgb(0,0,0)" font-size="12">1.6162E-26</text><text text-anchor="middle" alignment-baseline="middle" x="357.10553613095175" y="353.374684355039" fill="rgb(0,0,0)" font-size="12">6.187353050365054E25</text><text text-anchor="middle" alignment-baseline="middle" x="359.68441262494974" y="180.6403233411781" fill="rgb(0,0,0)" font-size="12">0.08333333333333333</text><text text-anchor="middle" alignment-baseline="middle" x="128.3953926064618" y="400.65919817355524" fill="rgb(0,0,0)" font-size="12">1.0000000000000009E-9</text><text text-anchor="middle" alignment-baseline="middle" x="178.27395452570798" y="331.5229043971018" fill="rgb(0,0,0)" font-size="12">1000.0</text><text text-anchor="middle" alignment-baseline="middle" x="135.80714710921228" y="422.90903104220047" fill="rgb(0,0,0)" font-size="12">1.0E9</text><text text-anchor="middle" alignment-baseline="middle" x="303.91290175987046" y="396.6085893553118" fill="rgb(0,0,0)" font-size="12">1000000.0</text><text text-anchor="middle" alignment-baseline="middle" x="484.37851768842074" y="397.70830491375204" fill="rgb(0,0,0)" font-size="12">9.4607304725808E12</text>
      Sorry, your browser does not support inline SVG.
    </svg>