<?xml version='1.0' encoding='UTF-8'?>
<svg version="1.1" width="700.0" height="700.0" onload="init(evt)" xmlns="http://www.w3.org/2000/svg">
      <style>.caption {
  font-size: 14px;
  font-family: Georgia, serif;
}
</style>
      <script type="text/ecmascript"><![CDATA[
function init(evt) {
  if ( window.svgDocument == null ) {
    svgDocument = evt.target.ownerDocument;
  }
}

function RectHover(evt, i, c) {
  rect = svgDocument.getElementById('rect' + i);
  if( c != null ) {
    rect.setAttributeNS(null, "fill", c)  
  }
  tooltiptext = svgDocument.getElementById('tooltiptext' + i);
  tooltipbg = svgDocument.getElementById('tooltipbg' + i);
  if( tooltipbg != null) {
    tbb = tooltiptext.getBBox();
    tooltipbg.setAttributeNS(null, "width", tbb.width);
    tooltipbg.setAttributeNS(null, "height", tbb.height);
    tooltipbg.setAttributeNS(null, "x", tbb.x);
    tooltipbg.setAttributeNS(null, "y", tbb.y);
    tooltipbg.setAttributeNS(null, "visibility", "visible");
  }
  tooltiptext.setAttributeNS(null,"visibility","visible");
}

function RectUnhover(evt, i, c) {
  rect = svgDocument.getElementById('rect' + i);
  if( c != null ) {
    rect.setAttributeNS(null, "fill", c)  
  }
  tooltiptext = svgDocument.getElementById('tooltiptext' + i);
  tooltiptext.setAttributeNS(null,"visibility","hidden");
  tooltipbg = svgDocument.getElementById('tooltipbg' + i);
  if( tooltipbg != null ) {
    tooltipbg.setAttributeNS(null,"visibility","hidden");
  }
}
]]></script>
      <line x1="629.8952868734712" y1="596.5825813253475" x2="445.7492492533162" y2="68.69362452358723" stroke="rgb(0,0,0)" stroke-width="1"/><line x1="308.2744660236261" y1="370.6098124194133" x2="629.8952868734712" y2="596.5825813253475" stroke="rgb(0,0,0)" stroke-width="1"/><line x1="445.7492492533162" y1="68.69362452358723" x2="629.8952868734712" y2="596.5825813253475" stroke="rgb(0,0,0)" stroke-width="1"/><line x1="308.2744660236261" y1="370.6098124194133" x2="294.0788484970644" y2="21.15008721486278" stroke="rgb(0,0,0)" stroke-width="1"/><line x1="41.809183424854645" y1="633.4444482610768" x2="629.8952868734712" y2="596.5825813253475" stroke="rgb(0,0,0)" stroke-width="1"/><line x1="605.6853642236727" y1="607.2049196082094" x2="411.884340731959" y2="3.7983067136969417" stroke="rgb(0,0,0)" stroke-width="1"/><line x1="294.0788484970644" y1="21.15008721486278" x2="308.2744660236261" y2="370.6098124194133" stroke="rgb(0,0,0)" stroke-width="1"/><line x1="629.8952868734712" y1="596.5825813253475" x2="378.06227751001165" y2="256.2254741404198" stroke="rgb(0,0,0)" stroke-width="1"/><line x1="225.91298038909855" y1="495.23911466191805" x2="308.2744660236261" y2="370.6098124194133" stroke="rgb(0,0,0)" stroke-width="1"/><line x1="566.6273330552364" y1="638.576753410948" x2="605.6853642236727" y2="607.2049196082094" stroke="rgb(0,0,0)" stroke-width="1"/><line x1="378.06227751001165" y1="256.2254741404198" x2="629.8952868734712" y2="596.5825813253475" stroke="rgb(0,0,0)" stroke-width="1"/><line x1="344.42475480257156" y1="647.7350366348372" x2="411.884340731959" y2="3.7983067136969417" stroke="rgb(0,0,0)" stroke-width="1"/><line x1="589.6217141017112" y1="221.83301242046068" x2="613.5367002260978" y2="353.68974513240374" stroke="rgb(0,0,0)" stroke-width="1"/><line x1="411.884340731959" y1="3.7983067136969417" x2="629.8952868734712" y2="596.5825813253475" stroke="rgb(0,0,0)" stroke-width="1"/><line x1="613.5367002260978" y1="353.68974513240374" x2="629.8952868734712" y2="596.5825813253475" stroke="rgb(0,0,0)" stroke-width="1"/><line x1="629.8952868734712" y1="596.5825813253475" x2="613.5367002260978" y2="353.68974513240374" stroke="rgb(0,0,0)" stroke-width="1"/><line x1="411.884340731959" y1="3.7983067136969417" x2="605.6853642236727" y2="607.2049196082094" stroke="rgb(0,0,0)" stroke-width="1"/><line x1="605.6853642236727" y1="607.2049196082094" x2="566.6273330552364" y2="638.576753410948" stroke="rgb(0,0,0)" stroke-width="1"/><line x1="308.2744660236261" y1="370.6098124194133" x2="225.91298038909855" y2="495.23911466191805" stroke="rgb(0,0,0)" stroke-width="1"/><line x1="629.8952868734712" y1="596.5825813253475" x2="411.884340731959" y2="3.7983067136969417" stroke="rgb(0,0,0)" stroke-width="1"/><line x1="613.5367002260978" y1="353.68974513240374" x2="589.6217141017112" y2="221.83301242046068" stroke="rgb(0,0,0)" stroke-width="1"/><line x1="629.8952868734712" y1="596.5825813253475" x2="41.809183424854645" y2="633.4444482610768" stroke="rgb(0,0,0)" stroke-width="1"/><line x1="411.884340731959" y1="3.7983067136969417" x2="344.42475480257156" y2="647.7350366348372" stroke="rgb(0,0,0)" stroke-width="1"/><line x1="629.8952868734712" y1="596.5825813253475" x2="308.2744660236261" y2="370.6098124194133" stroke="rgb(0,0,0)" stroke-width="1"/><polygon points="10,0 20,3 20,-3" fill="black" transform="translate(445.7492492533162,68.69362452358723) rotate(70.7694507929733)"/><polygon points="10,0 20,3 20,-3" fill="black" transform="translate(629.8952868734712,596.5825813253475) rotate(215.0921135114116)"/><polygon points="10,0 20,3 20,-3" fill="black" transform="translate(629.8952868734712,596.5825813253475) rotate(250.76945079297332)"/><polygon points="10,0 20,3 20,-3" fill="black" transform="translate(294.0788484970644,21.15008721486278) rotate(87.67383196857315)"/><polygon points="10,0 20,3 20,-3" fill="black" transform="translate(629.8952868734712,596.5825813253475) rotate(176.41333149288)"/><polygon points="10,0 20,3 20,-3" fill="black" transform="translate(411.884340731959,3.7983067136969417) rotate(72.1941162139315)"/><polygon points="10,0 20,3 20,-3" fill="black" transform="translate(308.2744660236261,370.6098124194133) rotate(267.67383196857315)"/><polygon points="10,0 20,3 20,-3" fill="black" transform="translate(378.06227751001165,256.2254741404198) rotate(53.501958242375)"/><polygon points="10,0 20,3 20,-3" fill="black" transform="translate(308.2744660236261,370.6098124194133) rotate(123.45878960536706)"/><polygon points="10,0 20,3 20,-3" fill="black" transform="translate(605.6853642236727,607.2049196082094) rotate(141.22819215276985)"/><polygon points="10,0 20,3 20,-3" fill="black" transform="translate(629.8952868734712,596.5825813253475) rotate(233.501958242375)"/><polygon points="10,0 20,3 20,-3" fill="black" transform="translate(411.884340731959,3.7983067136969417) rotate(95.98055970458606)"/><polygon points="10,0 20,3 20,-3" fill="black" transform="translate(613.5367002260978,353.68974513240374) rotate(259.7199577860442)"/><polygon points="10,0 20,3 20,-3" fill="black" transform="translate(629.8952868734712,596.5825813253475) rotate(249.80776434136664)"/><polygon points="10,0 20,3 20,-3" fill="black" transform="translate(629.8952868734712,596.5825813253475) rotate(266.14700579916354)"/><polygon points="10,0 20,3 20,-3" fill="black" transform="translate(613.5367002260978,353.68974513240374) rotate(86.1470057991635)"/><polygon points="10,0 20,3 20,-3" fill="black" transform="translate(605.6853642236727,607.2049196082094) rotate(252.19411621393152)"/><polygon points="10,0 20,3 20,-3" fill="black" transform="translate(566.6273330552364,638.576753410948) rotate(321.2281921527699)"/><polygon points="10,0 20,3 20,-3" fill="black" transform="translate(225.91298038909855,495.23911466191805) rotate(303.4587896053671)"/><polygon points="10,0 20,3 20,-3" fill="black" transform="translate(411.884340731959,3.7983067136969417) rotate(69.80776434136664)"/><polygon points="10,0 20,3 20,-3" fill="black" transform="translate(589.6217141017112,221.83301242046068) rotate(79.71995778604416)"/><polygon points="10,0 20,3 20,-3" fill="black" transform="translate(41.809183424854645,633.4444482610768) rotate(356.41333149288005)"/><polygon points="10,0 20,3 20,-3" fill="black" transform="translate(344.42475480257156,647.7350366348372) rotate(275.9805597045861)"/><polygon points="10,0 20,3 20,-3" fill="black" transform="translate(308.2744660236261,370.6098124194133) rotate(35.09211351141161)"/><circle cx="225.91298038909855" cy="495.23911466191805" r="10" fill="rgb(255,255,0)" stroke="rgb(0,0,0)" stroke-width="1"/><circle cx="629.8952868734712" cy="596.5825813253475" r="10" fill="rgb(255,255,0)" stroke="rgb(0,0,0)" stroke-width="1"/><circle cx="308.2744660236261" cy="370.6098124194133" r="10" fill="rgb(255,255,0)" stroke="rgb(0,0,0)" stroke-width="1"/><circle cx="41.809183424854645" cy="633.4444482610768" r="10" fill="rgb(255,255,0)" stroke="rgb(0,0,0)" stroke-width="1"/><circle cx="613.5367002260978" cy="353.68974513240374" r="10" fill="rgb(255,255,0)" stroke="rgb(0,0,0)" stroke-width="1"/><circle cx="344.42475480257156" cy="647.7350366348372" r="10" fill="rgb(255,255,0)" stroke="rgb(0,0,0)" stroke-width="1"/><circle cx="378.06227751001165" cy="256.2254741404198" r="10" fill="rgb(255,255,0)" stroke="rgb(0,0,0)" stroke-width="1"/><circle cx="589.6217141017112" cy="221.83301242046068" r="10" fill="rgb(255,255,0)" stroke="rgb(0,0,0)" stroke-width="1"/><circle cx="411.884340731959" cy="3.7983067136969417" r="10" fill="rgb(255,255,0)" stroke="rgb(0,0,0)" stroke-width="1"/><circle cx="294.0788484970644" cy="21.15008721486278" r="10" fill="rgb(255,255,0)" stroke="rgb(0,0,0)" stroke-width="1"/><circle cx="445.7492492533162" cy="68.69362452358723" r="10" fill="rgb(255,255,0)" stroke="rgb(0,0,0)" stroke-width="1"/><circle cx="566.6273330552364" cy="638.576753410948" r="10" fill="rgb(255,255,0)" stroke="rgb(0,0,0)" stroke-width="1"/><circle cx="605.6853642236727" cy="607.2049196082094" r="10" fill="rgb(255,255,0)" stroke="rgb(0,0,0)" stroke-width="1"/><text text-anchor="middle" alignment-baseline="middle" x="225.91298038909855" y="495.23911466191805" fill="rgb(0,0,0)" font-size="12">inch (in)</text><text text-anchor="middle" alignment-baseline="middle" x="629.8952868734712" y="596.5825813253475" fill="rgb(0,0,0)" font-size="12">meter (m)</text><text text-anchor="middle" alignment-baseline="middle" x="308.2744660236261" y="370.6098124194133" fill="rgb(0,0,0)" font-size="12">foot (ft)</text><text text-anchor="middle" alignment-baseline="middle" x="41.809183424854645" y="633.4444482610768" fill="rgb(0,0,0)" font-size="12">micrometer (μm)</text><text text-anchor="middle" alignment-baseline="middle" x="613.5367002260978" y="353.68974513240374" fill="rgb(0,0,0)" font-size="12">nanometer (nm)</text><text text-anchor="middle" alignment-baseline="middle" x="344.42475480257156" y="647.7350366348372" fill="rgb(0,0,0)" font-size="12">Astronomical Unit (AU)</text><text text-anchor="middle" alignment-baseline="middle" x="378.06227751001165" y="256.2254741404198" fill="rgb(0,0,0)" font-size="12">millimeter (mm)</text><text text-anchor="middle" alignment-baseline="middle" x="589.6217141017112" y="221.83301242046068" fill="rgb(0,0,0)" font-size="12">Planck length (ℓP)</text><text text-anchor="middle" alignment-baseline="middle" x="411.884340731959" y="3.7983067136969417" fill="rgb(0,0,0)" font-size="12">kilometer (km)</text><text text-anchor="middle" alignment-baseline="middle" x="294.0788484970644" y="21.15008721486278" fill="rgb(0,0,0)" font-size="12">mile (m)</text><text text-anchor="middle" alignment-baseline="middle" x="445.7492492533162" y="68.69362452358723" fill="rgb(0,0,0)" font-size="12">centimeter (cm)</text><text text-anchor="middle" alignment-baseline="middle" x="566.6273330552364" y="638.576753410948" fill="rgb(0,0,0)" font-size="12">parsec (pc)</text><text text-anchor="middle" alignment-baseline="middle" x="605.6853642236727" y="607.2049196082094" fill="rgb(0,0,0)" font-size="12">lightyear (ly)</text><text text-anchor="middle" alignment-baseline="middle" x="519.4076643013782" y="279.84920724429134" fill="rgb(0,0,0)" font-size="12">0.010000000000000002</text><text text-anchor="middle" alignment-baseline="middle" x="501.2469585335331" y="506.1934737629738" fill="rgb(0,0,0)" font-size="12">3.2808398950131235</text><text text-anchor="middle" alignment-baseline="middle" x="556.2368718254091" y="385.4269986046434" fill="rgb(0,0,0)" font-size="12">100.0</text><text text-anchor="middle" alignment-baseline="middle" x="299.7570955076891" y="160.93397729668297" fill="rgb(0,0,0)" font-size="12">5280.0</text><text text-anchor="middle" alignment-baseline="middle" x="394.66084549402456" y="611.3273280996392" fill="rgb(0,0,0)" font-size="12">1000000.0</text><text text-anchor="middle" alignment-baseline="middle" x="489.4047501286445" y="245.16095187150188" fill="rgb(0,0,0)" font-size="12">1.0570008340246153E-13</text><text text-anchor="middle" alignment-baseline="middle" x="302.5962190130014" y="230.8259223375931" fill="rgb(0,0,0)" font-size="12">1.893939393939394E-4</text><text text-anchor="middle" alignment-baseline="middle" x="478.79548125539543" y="392.36831701439087" fill="rgb(0,0,0)" font-size="12">0.0010000000000000002</text><text text-anchor="middle" alignment-baseline="middle" x="275.32987176981504" y="420.46153331641517" fill="rgb(0,0,0)" font-size="12">12.0</text><text text-anchor="middle" alignment-baseline="middle" x="590.0621517562981" y="619.7536531293048" fill="rgb(0,0,0)" font-size="12">0.3067484662576687</text><text text-anchor="middle" alignment-baseline="middle" x="529.1620831280874" y="460.43973845137646" fill="rgb(0,0,0)" font-size="12">1000.0</text><text text-anchor="middle" alignment-baseline="middle" x="384.900506360204" y="261.372998682153" fill="rgb(0,0,0)" font-size="12">6.6845871222684464E-9</text><text text-anchor="middle" alignment-baseline="middle" x="603.9707057763432" y="300.9470520476265" fill="rgb(0,0,0)" font-size="12">1.6162E-26</text><text text-anchor="middle" alignment-baseline="middle" x="542.6909084168663" y="359.4688714806873" fill="rgb(0,0,0)" font-size="12">0.0010000000000000002</text><text text-anchor="middle" alignment-baseline="middle" x="623.3518522145218" y="499.42544684817" fill="rgb(0,0,0)" font-size="12">1.0E9</text><text text-anchor="middle" alignment-baseline="middle" x="620.0801348850471" y="450.84687960958126" fill="rgb(0,0,0)" font-size="12">1.0000000000000009E-9</text><text text-anchor="middle" alignment-baseline="middle" x="528.1649548269872" y="365.84227445040443" fill="rgb(0,0,0)" font-size="12">9.4607304725808E12</text><text text-anchor="middle" alignment-baseline="middle" x="582.2505455226109" y="626.0280198898525" fill="rgb(0,0,0)" font-size="12">3.26</text><text text-anchor="middle" alignment-baseline="middle" x="258.8575746429096" y="445.38739376491617" fill="rgb(0,0,0)" font-size="12">0.08333333333333333</text><text text-anchor="middle" alignment-baseline="middle" x="499.0887191885639" y="240.91201655835715" fill="rgb(0,0,0)" font-size="12">1000.0</text><text text-anchor="middle" alignment-baseline="middle" x="599.1877085514658" y="274.5757055052379" fill="rgb(0,0,0)" font-size="12">6.187353050365054E25</text><text text-anchor="middle" alignment-baseline="middle" x="277.04362480430126" y="618.6997014867851" fill="rgb(0,0,0)" font-size="12">1.0000000000000006E-6</text><text text-anchor="middle" alignment-baseline="middle" x="371.40858917432655" y="390.16034466638115" fill="rgb(0,0,0)" font-size="12">1.495978707E8</text><text text-anchor="middle" alignment-baseline="middle" x="436.9227943635641" y="460.998919981787" fill="rgb(0,0,0)" font-size="12">0.3048</text>
      Sorry, your browser does not support inline SVG.
    </svg>