<?xml version='1.0' encoding='UTF-8'?>
<svg version="1.1" width="700.0" height="700.0" onload="init(evt)" xmlns="http://www.w3.org/2000/svg">
      <style>.caption {
  font-size: 14px;
  font-family: Georgia, serif;
}
</style>
      <script type="text/ecmascript"><![CDATA[
function init(evt) {
  if ( window.svgDocument == null ) {
    svgDocument = evt.target.ownerDocument;
  }
}

function RectHover(evt, i, c) {
  rect = svgDocument.getElementById('rect' + i);
  if( c != null ) {
    rect.setAttributeNS(null, "fill", c)  
  }
  tooltiptext = svgDocument.getElementById('tooltiptext' + i);
  tooltipbg = svgDocument.getElementById('tooltipbg' + i);
  if( tooltipbg != null) {
    tbb = tooltiptext.getBBox();
    tooltipbg.setAttributeNS(null, "width", tbb.width);
    tooltipbg.setAttributeNS(null, "height", tbb.height);
    tooltipbg.setAttributeNS(null, "x", tbb.x);
    tooltipbg.setAttributeNS(null, "y", tbb.y);
    tooltipbg.setAttributeNS(null, "visibility", "visible");
  }
  tooltiptext.setAttributeNS(null,"visibility","visible");
}

function RectUnhover(evt, i, c) {
  rect = svgDocument.getElementById('rect' + i);
  if( c != null ) {
    rect.setAttributeNS(null, "fill", c)  
  }
  tooltiptext = svgDocument.getElementById('tooltiptext' + i);
  tooltiptext.setAttributeNS(null,"visibility","hidden");
  tooltipbg = svgDocument.getElementById('tooltipbg' + i);
  if( tooltipbg != null ) {
    tooltipbg.setAttributeNS(null,"visibility","hidden");
  }
}
]]></script>
      <line x1="571.952138563525" y1="657.9747021029408" x2="601.2041112533052" y2="501.5891236751252" stroke="rgb(0,0,0)" stroke-width="1"/><line x1="272.600037656126" y1="431.946530987507" x2="463.8039264587344" y2="657.9142322775788" stroke="rgb(0,0,0)" stroke-width="1"/><line x1="647.0862379972376" y1="289.81471935909997" x2="272.600037656126" y2="431.946530987507" stroke="rgb(0,0,0)" stroke-width="1"/><line x1="633.7380553137004" y1="75.84586469564391" x2="583.5787478348523" y2="276.0603080739007" stroke="rgb(0,0,0)" stroke-width="1"/><line x1="611.8537534663737" y1="283.1276301122425" x2="272.600037656126" y2="431.946530987507" stroke="rgb(0,0,0)" stroke-width="1"/><line x1="647.0862379972376" y1="289.81471935909997" x2="455.5929265267672" y2="364.78980860621834" stroke="rgb(0,0,0)" stroke-width="1"/><line x1="665.2732519933545" y1="458.8441405839211" x2="601.2041112533052" y2="501.5891236751252" stroke="rgb(0,0,0)" stroke-width="1"/><line x1="633.7380553137004" y1="75.84586469564391" x2="647.0862379972376" y2="289.81471935909997" stroke="rgb(0,0,0)" stroke-width="1"/><line x1="601.2041112533052" y1="501.5891236751252" x2="665.2732519933545" y2="458.8441405839211" stroke="rgb(0,0,0)" stroke-width="1"/><line x1="272.600037656126" y1="431.946530987507" x2="601.2041112533052" y2="501.5891236751252" stroke="rgb(0,0,0)" stroke-width="1"/><line x1="647.0862379972376" y1="289.81471935909997" x2="633.7380553137004" y2="75.84586469564391" stroke="rgb(0,0,0)" stroke-width="1"/><line x1="601.2041112533052" y1="501.5891236751252" x2="571.952138563525" y2="657.9747021029408" stroke="rgb(0,0,0)" stroke-width="1"/><line x1="675.238240760318" y1="418.6631539351584" x2="417.38513677338784" y2="461.88124192155396" stroke="rgb(0,0,0)" stroke-width="1"/><line x1="272.600037656126" y1="431.946530987507" x2="647.0862379972376" y2="289.81471935909997" stroke="rgb(0,0,0)" stroke-width="1"/><line x1="272.600037656126" y1="431.946530987507" x2="611.8537534663737" y2="283.1276301122425" stroke="rgb(0,0,0)" stroke-width="1"/><line x1="601.2041112533052" y1="501.5891236751252" x2="272.600037656126" y2="431.946530987507" stroke="rgb(0,0,0)" stroke-width="1"/><line x1="272.600037656126" y1="431.946530987507" x2="496.1179956761965" y2="26.531958983267025" stroke="rgb(0,0,0)" stroke-width="1"/><line x1="272.600037656126" y1="431.946530987507" x2="417.38513677338784" y2="461.88124192155396" stroke="rgb(0,0,0)" stroke-width="1"/><line x1="496.1179956761965" y1="26.531958983267025" x2="272.600037656126" y2="431.946530987507" stroke="rgb(0,0,0)" stroke-width="1"/><line x1="455.5929265267672" y1="364.78980860621834" x2="647.0862379972376" y2="289.81471935909997" stroke="rgb(0,0,0)" stroke-width="1"/><line x1="583.5787478348523" y1="276.0603080739007" x2="633.7380553137004" y2="75.84586469564391" stroke="rgb(0,0,0)" stroke-width="1"/><line x1="417.38513677338784" y1="461.88124192155396" x2="272.600037656126" y2="431.946530987507" stroke="rgb(0,0,0)" stroke-width="1"/><line x1="463.8039264587344" y1="657.9142322775788" x2="272.600037656126" y2="431.946530987507" stroke="rgb(0,0,0)" stroke-width="1"/><line x1="417.38513677338784" y1="461.88124192155396" x2="675.238240760318" y2="418.6631539351584" stroke="rgb(0,0,0)" stroke-width="1"/><polygon points="10,0 20,3 20,-3" fill="black" transform="translate(601.2041112533052,501.5891236751252) rotate(100.59476358523118)"/><polygon points="10,0 20,3 20,-3" fill="black" transform="translate(463.8039264587344,657.9142322775788) rotate(229.76357530845306)"/><polygon points="10,0 20,3 20,-3" fill="black" transform="translate(272.600037656126,431.946530987507) rotate(339.21633401714666)"/><polygon points="10,0 20,3 20,-3" fill="black" transform="translate(583.5787478348523,276.0603080739007) rotate(284.06470809309207)"/><polygon points="10,0 20,3 20,-3" fill="black" transform="translate(272.600037656126,431.946530987507) rotate(336.3145963401606)"/><polygon points="10,0 20,3 20,-3" fill="black" transform="translate(455.5929265267672,364.78980860621834) rotate(338.618240918736)"/><polygon points="10,0 20,3 20,-3" fill="black" transform="translate(601.2041112533052,501.5891236751252) rotate(326.28998753902704)"/><polygon points="10,0 20,3 20,-3" fill="black" transform="translate(647.0862379972376,289.81471935909997) rotate(266.4302995512224)"/><polygon points="10,0 20,3 20,-3" fill="black" transform="translate(665.2732519933545,458.8441405839211) rotate(146.28998753902704)"/><polygon points="10,0 20,3 20,-3" fill="black" transform="translate(601.2041112533052,501.5891236751252) rotate(191.9659036521309)"/><polygon points="10,0 20,3 20,-3" fill="black" transform="translate(633.7380553137004,75.84586469564391) rotate(86.43029955122236)"/><polygon points="10,0 20,3 20,-3" fill="black" transform="translate(571.952138563525,657.9747021029408) rotate(280.5947635852312)"/><polygon points="10,0 20,3 20,-3" fill="black" transform="translate(417.38513677338784,461.88124192155396) rotate(350.4852425908191)"/><polygon points="10,0 20,3 20,-3" fill="black" transform="translate(647.0862379972376,289.81471935909997) rotate(159.2163340171467)"/><polygon points="10,0 20,3 20,-3" fill="black" transform="translate(611.8537534663737,283.1276301122425) rotate(156.31459634016065)"/><polygon points="10,0 20,3 20,-3" fill="black" transform="translate(272.600037656126,431.946530987507) rotate(11.96590365213089)"/><polygon points="10,0 20,3 20,-3" fill="black" transform="translate(496.1179956761965,26.531958983267025) rotate(118.86934678642965)"/><polygon points="10,0 20,3 20,-3" fill="black" transform="translate(417.38513677338784,461.88124192155396) rotate(191.68146547621302)"/><polygon points="10,0 20,3 20,-3" fill="black" transform="translate(272.600037656126,431.946530987507) rotate(298.8693467864297)"/><polygon points="10,0 20,3 20,-3" fill="black" transform="translate(647.0862379972376,289.81471935909997) rotate(158.61824091873598)"/><polygon points="10,0 20,3 20,-3" fill="black" transform="translate(633.7380553137004,75.84586469564391) rotate(104.06470809309204)"/><polygon points="10,0 20,3 20,-3" fill="black" transform="translate(272.600037656126,431.946530987507) rotate(11.681465476212992)"/><polygon points="10,0 20,3 20,-3" fill="black" transform="translate(272.600037656126,431.946530987507) rotate(49.76357530845303)"/><polygon points="10,0 20,3 20,-3" fill="black" transform="translate(675.238240760318,418.6631539351584) rotate(170.48524259081907)"/><circle cx="665.2732519933545" cy="458.8441405839211" r="10" fill="rgb(255,255,0)" stroke="rgb(0,0,0)" stroke-width="1"/><circle cx="272.600037656126" cy="431.946530987507" r="10" fill="rgb(255,255,0)" stroke="rgb(0,0,0)" stroke-width="1"/><circle cx="601.2041112533052" cy="501.5891236751252" r="10" fill="rgb(255,255,0)" stroke="rgb(0,0,0)" stroke-width="1"/><circle cx="611.8537534663737" cy="283.1276301122425" r="10" fill="rgb(255,255,0)" stroke="rgb(0,0,0)" stroke-width="1"/><circle cx="417.38513677338784" cy="461.88124192155396" r="10" fill="rgb(255,255,0)" stroke="rgb(0,0,0)" stroke-width="1"/><circle cx="455.5929265267672" cy="364.78980860621834" r="10" fill="rgb(255,255,0)" stroke="rgb(0,0,0)" stroke-width="1"/><circle cx="496.1179956761965" cy="26.531958983267025" r="10" fill="rgb(255,255,0)" stroke="rgb(0,0,0)" stroke-width="1"/><circle cx="675.238240760318" cy="418.6631539351584" r="10" fill="rgb(255,255,0)" stroke="rgb(0,0,0)" stroke-width="1"/><circle cx="647.0862379972376" cy="289.81471935909997" r="10" fill="rgb(255,255,0)" stroke="rgb(0,0,0)" stroke-width="1"/><circle cx="571.952138563525" cy="657.9747021029408" r="10" fill="rgb(255,255,0)" stroke="rgb(0,0,0)" stroke-width="1"/><circle cx="463.8039264587344" cy="657.9142322775788" r="10" fill="rgb(255,255,0)" stroke="rgb(0,0,0)" stroke-width="1"/><circle cx="583.5787478348523" cy="276.0603080739007" r="10" fill="rgb(255,255,0)" stroke="rgb(0,0,0)" stroke-width="1"/><circle cx="633.7380553137004" cy="75.84586469564391" r="10" fill="rgb(255,255,0)" stroke="rgb(0,0,0)" stroke-width="1"/><text text-anchor="middle" alignment-baseline="middle" x="665.2732519933545" y="458.8441405839211" fill="rgb(0,0,0)" font-size="12">inch (in)</text><text text-anchor="middle" alignment-baseline="middle" x="272.600037656126" y="431.946530987507" fill="rgb(0,0,0)" font-size="12">meter (m)</text><text text-anchor="middle" alignment-baseline="middle" x="601.2041112533052" y="501.5891236751252" fill="rgb(0,0,0)" font-size="12">foot (ft)</text><text text-anchor="middle" alignment-baseline="middle" x="611.8537534663737" y="283.1276301122425" fill="rgb(0,0,0)" font-size="12">micrometer (μm)</text><text text-anchor="middle" alignment-baseline="middle" x="417.38513677338784" y="461.88124192155396" fill="rgb(0,0,0)" font-size="12">nanometer (nm)</text><text text-anchor="middle" alignment-baseline="middle" x="455.5929265267672" y="364.78980860621834" fill="rgb(0,0,0)" font-size="12">Astronomical Unit (AU)</text><text text-anchor="middle" alignment-baseline="middle" x="496.1179956761965" y="26.531958983267025" fill="rgb(0,0,0)" font-size="12">millimeter (mm)</text><text text-anchor="middle" alignment-baseline="middle" x="675.238240760318" y="418.6631539351584" fill="rgb(0,0,0)" font-size="12">Planck length (ℓP)</text><text text-anchor="middle" alignment-baseline="middle" x="647.0862379972376" y="289.81471935909997" fill="rgb(0,0,0)" font-size="12">kilometer (km)</text><text text-anchor="middle" alignment-baseline="middle" x="571.952138563525" y="657.9747021029408" fill="rgb(0,0,0)" font-size="12">mile (m)</text><text text-anchor="middle" alignment-baseline="middle" x="463.8039264587344" y="657.9142322775788" fill="rgb(0,0,0)" font-size="12">centimeter (cm)</text><text text-anchor="middle" alignment-baseline="middle" x="583.5787478348523" y="276.0603080739007" fill="rgb(0,0,0)" font-size="12">parsec (pc)</text><text text-anchor="middle" alignment-baseline="middle" x="633.7380553137004" y="75.84586469564391" fill="rgb(0,0,0)" font-size="12">lightyear (ly)</text><text text-anchor="middle" alignment-baseline="middle" x="589.5033221773931" y="564.1433550462515" fill="rgb(0,0,0)" font-size="12">1.893939393939394E-4</text><text text-anchor="middle" alignment-baseline="middle" x="387.32237093769106" y="567.52715176155" fill="rgb(0,0,0)" font-size="12">0.010000000000000002</text><text text-anchor="middle" alignment-baseline="middle" x="422.3945177925707" y="375.0938063361442" fill="rgb(0,0,0)" font-size="12">0.0010000000000000002</text><text text-anchor="middle" alignment-baseline="middle" x="603.6424708263916" y="195.974530722598" fill="rgb(0,0,0)" font-size="12">3.26</text><text text-anchor="middle" alignment-baseline="middle" x="408.3015239802251" y="372.41897063740123" fill="rgb(0,0,0)" font-size="12">1000000.0</text><text text-anchor="middle" alignment-baseline="middle" x="532.1902511149553" y="334.799772907371" fill="rgb(0,0,0)" font-size="12">1.495978707E8</text><text text-anchor="middle" alignment-baseline="middle" x="626.8317675493249" y="484.49113043864355" fill="rgb(0,0,0)" font-size="12">12.0</text><text text-anchor="middle" alignment-baseline="middle" x="641.7469649238227" y="204.22717749371753" fill="rgb(0,0,0)" font-size="12">1.0570008340246153E-13</text><text text-anchor="middle" alignment-baseline="middle" x="639.6455956973348" y="475.9421338204028" fill="rgb(0,0,0)" font-size="12">0.08333333333333333</text><text text-anchor="middle" alignment-baseline="middle" x="469.7624818144335" y="473.73208660007793" fill="rgb(0,0,0)" font-size="12">0.3048</text><text text-anchor="middle" alignment-baseline="middle" x="639.0773283871154" y="161.43340656102635" fill="rgb(0,0,0)" font-size="12">9.4607304725808E12</text><text text-anchor="middle" alignment-baseline="middle" x="583.652927639437" y="595.4204707318146" fill="rgb(0,0,0)" font-size="12">5280.0</text><text text-anchor="middle" alignment-baseline="middle" x="520.52637836816" y="444.59400672699576" fill="rgb(0,0,0)" font-size="12">1.6162E-26</text><text text-anchor="middle" alignment-baseline="middle" x="497.2917578607929" y="346.66744401046276" fill="rgb(0,0,0)" font-size="12">1000.0</text><text text-anchor="middle" alignment-baseline="middle" x="476.15226714227464" y="342.6551904623483" fill="rgb(0,0,0)" font-size="12">1.0000000000000006E-6</text><text text-anchor="middle" alignment-baseline="middle" x="404.0416670949977" y="459.8035680625543" fill="rgb(0,0,0)" font-size="12">3.2808398950131235</text><text text-anchor="middle" alignment-baseline="middle" x="406.7108124681683" y="188.69778778496303" fill="rgb(0,0,0)" font-size="12">0.0010000000000000002</text><text text-anchor="middle" alignment-baseline="middle" x="359.4710971264831" y="449.9073575479352" fill="rgb(0,0,0)" font-size="12">1.0000000000000009E-9</text><text text-anchor="middle" alignment-baseline="middle" x="362.0072208641542" y="269.780702185811" fill="rgb(0,0,0)" font-size="12">1000.0</text><text text-anchor="middle" alignment-baseline="middle" x="570.4889134090495" y="319.8047550579473" fill="rgb(0,0,0)" font-size="12">6.6845871222684464E-9</text><text text-anchor="middle" alignment-baseline="middle" x="613.6743323221611" y="155.93164204694665" fill="rgb(0,0,0)" font-size="12">0.3067484662576687</text><text text-anchor="middle" alignment-baseline="middle" x="330.5140773030307" y="443.9204153611258" fill="rgb(0,0,0)" font-size="12">1.0E9</text><text text-anchor="middle" alignment-baseline="middle" x="349.08159317716934" y="522.3336115035357" fill="rgb(0,0,0)" font-size="12">100.0</text><text text-anchor="middle" alignment-baseline="middle" x="572.096999165546" y="435.9503891297166" fill="rgb(0,0,0)" font-size="12">6.187353050365054E25</text>
      Sorry, your browser does not support inline SVG.
    </svg>