<?xml version='1.0' encoding='UTF-8'?>
<svg version="1.1" width="700.0" height="700.0" onload="init(evt)" xmlns="http://www.w3.org/2000/svg">
      <style>.caption {
  font-size: 14px;
  font-family: Georgia, serif;
}
</style>
      <script type="text/ecmascript"><![CDATA[
function init(evt) {
  if ( window.svgDocument == null ) {
    svgDocument = evt.target.ownerDocument;
  }
}

function RectHover(evt, i, c) {
  rect = svgDocument.getElementById('rect' + i);
  if( c != null ) {
    rect.setAttributeNS(null, "fill", c)  
  }
  tooltiptext = svgDocument.getElementById('tooltiptext' + i);
  tooltipbg = svgDocument.getElementById('tooltipbg' + i);
  if( tooltipbg != null) {
    tbb = tooltiptext.getBBox();
    tooltipbg.setAttributeNS(null, "width", tbb.width);
    tooltipbg.setAttributeNS(null, "height", tbb.height);
    tooltipbg.setAttributeNS(null, "x", tbb.x);
    tooltipbg.setAttributeNS(null, "y", tbb.y);
    tooltipbg.setAttributeNS(null, "visibility", "visible");
  }
  tooltiptext.setAttributeNS(null,"visibility","visible");
}

function RectUnhover(evt, i, c) {
  rect = svgDocument.getElementById('rect' + i);
  if( c != null ) {
    rect.setAttributeNS(null, "fill", c)  
  }
  tooltiptext = svgDocument.getElementById('tooltiptext' + i);
  tooltiptext.setAttributeNS(null,"visibility","hidden");
  tooltipbg = svgDocument.getElementById('tooltipbg' + i);
  if( tooltipbg != null ) {
    tooltipbg.setAttributeNS(null,"visibility","hidden");
  }
}
]]></script>
      <line x1="100.42402264650052" y1="148.63097123296419" x2="697.7916097619961" y2="8.123979589037633" stroke="rgb(0,0,0)" stroke-width="1"/><line x1="629.3056270724054" y1="203.32391418449123" x2="557.37839734852" y2="622.3040252720212" stroke="rgb(0,0,0)" stroke-width="1"/><line x1="557.37839734852" y1="622.3040252720212" x2="129.2227430452171" y2="596.5333718826985" stroke="rgb(0,0,0)" stroke-width="1"/><line x1="280.8957565474431" y1="324.3370945989705" x2="531.2914052181019" y2="352.61769362302266" stroke="rgb(0,0,0)" stroke-width="1"/><line x1="10.091693131074065" y1="465.3690728539106" x2="697.7916097619961" y2="8.123979589037633" stroke="rgb(0,0,0)" stroke-width="1"/><line x1="557.37839734852" y1="622.3040252720212" x2="697.7916097619961" y2="8.123979589037633" stroke="rgb(0,0,0)" stroke-width="1"/><line x1="523.7730694273131" y1="527.7468812695158" x2="262.005918127041" y2="458.83374658193424" stroke="rgb(0,0,0)" stroke-width="1"/><line x1="249.4666017484781" y1="256.7973784775881" x2="697.7916097619961" y2="8.123979589037633" stroke="rgb(0,0,0)" stroke-width="1"/><line x1="557.37839734852" y1="622.3040252720212" x2="629.3056270724054" y2="203.32391418449123" stroke="rgb(0,0,0)" stroke-width="1"/><line x1="531.2914052181019" y1="352.61769362302266" x2="280.8957565474431" y2="324.3370945989705" stroke="rgb(0,0,0)" stroke-width="1"/><line x1="697.7916097619961" y1="8.123979589037633" x2="531.2914052181019" y2="352.61769362302266" stroke="rgb(0,0,0)" stroke-width="1"/><line x1="531.2914052181019" y1="352.61769362302266" x2="697.7916097619961" y2="8.123979589037633" stroke="rgb(0,0,0)" stroke-width="1"/><line x1="129.2227430452171" y1="596.5333718826985" x2="266.2476151142713" y2="518.4921713554623" stroke="rgb(0,0,0)" stroke-width="1"/><line x1="266.2476151142713" y1="518.4921713554623" x2="129.2227430452171" y2="596.5333718826985" stroke="rgb(0,0,0)" stroke-width="1"/><line x1="697.7916097619961" y1="8.123979589037633" x2="262.005918127041" y2="458.83374658193424" stroke="rgb(0,0,0)" stroke-width="1"/><line x1="262.005918127041" y1="458.83374658193424" x2="523.7730694273131" y2="527.7468812695158" stroke="rgb(0,0,0)" stroke-width="1"/><line x1="697.7916097619961" y1="8.123979589037633" x2="557.37839734852" y2="622.3040252720212" stroke="rgb(0,0,0)" stroke-width="1"/><line x1="262.005918127041" y1="458.83374658193424" x2="697.7916097619961" y2="8.123979589037633" stroke="rgb(0,0,0)" stroke-width="1"/><line x1="129.2227430452171" y1="596.5333718826985" x2="557.37839734852" y2="622.3040252720212" stroke="rgb(0,0,0)" stroke-width="1"/><line x1="262.005918127041" y1="458.83374658193424" x2="672.3567283442105" y2="438.5485244369744" stroke="rgb(0,0,0)" stroke-width="1"/><line x1="697.7916097619961" y1="8.123979589037633" x2="10.091693131074065" y2="465.3690728539106" stroke="rgb(0,0,0)" stroke-width="1"/><line x1="697.7916097619961" y1="8.123979589037633" x2="249.4666017484781" y2="256.7973784775881" stroke="rgb(0,0,0)" stroke-width="1"/><line x1="672.3567283442105" y1="438.5485244369744" x2="262.005918127041" y2="458.83374658193424" stroke="rgb(0,0,0)" stroke-width="1"/><line x1="697.7916097619961" y1="8.123979589037633" x2="100.42402264650052" y2="148.63097123296419" stroke="rgb(0,0,0)" stroke-width="1"/><polygon points="10,0 20,3 20,-3" fill="black" transform="translate(697.7916097619961,8.123979589037633) rotate(166.76403224978478)"/><polygon points="10,0 20,3 20,-3" fill="black" transform="translate(557.37839734852,622.3040252720212) rotate(279.74113735758147)"/><polygon points="10,0 20,3 20,-3" fill="black" transform="translate(129.2227430452171,596.5333718826985) rotate(3.4444726615955688)"/><polygon points="10,0 20,3 20,-3" fill="black" transform="translate(531.2914052181019,352.61769362302266) rotate(186.44388718949486)"/><polygon points="10,0 20,3 20,-3" fill="black" transform="translate(697.7916097619961,8.123979589037633) rotate(146.38044699950834)"/><polygon points="10,0 20,3 20,-3" fill="black" transform="translate(697.7916097619961,8.123979589037633) rotate(102.87759047460581)"/><polygon points="10,0 20,3 20,-3" fill="black" transform="translate(262.005918127041,458.83374658193424) rotate(14.749098363870104)"/><polygon points="10,0 20,3 20,-3" fill="black" transform="translate(697.7916097619961,8.123979589037633) rotate(150.9840879459465)"/><polygon points="10,0 20,3 20,-3" fill="black" transform="translate(629.3056270724054,203.32391418449123) rotate(99.74113735758142)"/><polygon points="10,0 20,3 20,-3" fill="black" transform="translate(280.8957565474431,324.3370945989705) rotate(6.443887189494859)"/><polygon points="10,0 20,3 20,-3" fill="black" transform="translate(531.2914052181019,352.61769362302266) rotate(295.79534016573297)"/><polygon points="10,0 20,3 20,-3" fill="black" transform="translate(697.7916097619961,8.123979589037633) rotate(115.79534016573295)"/><polygon points="10,0 20,3 20,-3" fill="black" transform="translate(266.2476151142713,518.4921713554623) rotate(150.33673929404483)"/><polygon points="10,0 20,3 20,-3" fill="black" transform="translate(129.2227430452171,596.5333718826985) rotate(330.33673929404483)"/><polygon points="10,0 20,3 20,-3" fill="black" transform="translate(262.005918127041,458.83374658193424) rotate(314.0355215525435)"/><polygon points="10,0 20,3 20,-3" fill="black" transform="translate(523.7730694273131,527.7468812695158) rotate(194.74909836387013)"/><polygon points="10,0 20,3 20,-3" fill="black" transform="translate(557.37839734852,622.3040252720212) rotate(282.8775904746058)"/><polygon points="10,0 20,3 20,-3" fill="black" transform="translate(697.7916097619961,8.123979589037633) rotate(134.03552155254349)"/><polygon points="10,0 20,3 20,-3" fill="black" transform="translate(557.37839734852,622.3040252720212) rotate(183.4444726615956)"/><polygon points="10,0 20,3 20,-3" fill="black" transform="translate(672.3567283442105,438.5485244369744) rotate(177.16995255383145)"/><polygon points="10,0 20,3 20,-3" fill="black" transform="translate(10.091693131074065,465.3690728539106) rotate(326.3804469995083)"/><polygon points="10,0 20,3 20,-3" fill="black" transform="translate(249.4666017484781,256.7973784775881) rotate(330.9840879459465)"/><polygon points="10,0 20,3 20,-3" fill="black" transform="translate(262.005918127041,458.83374658193424) rotate(357.1699525538314)"/><polygon points="10,0 20,3 20,-3" fill="black" transform="translate(100.42402264650052,148.63097123296419) rotate(346.7640322497848)"/><circle cx="523.7730694273131" cy="527.7468812695158" r="10" fill="rgb(255,255,0)" stroke="rgb(0,0,0)" stroke-width="1"/><circle cx="697.7916097619961" cy="8.123979589037633" r="10" fill="rgb(255,255,0)" stroke="rgb(0,0,0)" stroke-width="1"/><circle cx="262.005918127041" cy="458.83374658193424" r="10" fill="rgb(255,255,0)" stroke="rgb(0,0,0)" stroke-width="1"/><circle cx="100.42402264650052" cy="148.63097123296419" r="10" fill="rgb(255,255,0)" stroke="rgb(0,0,0)" stroke-width="1"/><circle cx="531.2914052181019" cy="352.61769362302266" r="10" fill="rgb(255,255,0)" stroke="rgb(0,0,0)" stroke-width="1"/><circle cx="629.3056270724054" cy="203.32391418449123" r="10" fill="rgb(255,255,0)" stroke="rgb(0,0,0)" stroke-width="1"/><circle cx="10.091693131074065" cy="465.3690728539106" r="10" fill="rgb(255,255,0)" stroke="rgb(0,0,0)" stroke-width="1"/><circle cx="280.8957565474431" cy="324.3370945989705" r="10" fill="rgb(255,255,0)" stroke="rgb(0,0,0)" stroke-width="1"/><circle cx="557.37839734852" cy="622.3040252720212" r="10" fill="rgb(255,255,0)" stroke="rgb(0,0,0)" stroke-width="1"/><circle cx="672.3567283442105" cy="438.5485244369744" r="10" fill="rgb(255,255,0)" stroke="rgb(0,0,0)" stroke-width="1"/><circle cx="249.4666017484781" cy="256.7973784775881" r="10" fill="rgb(255,255,0)" stroke="rgb(0,0,0)" stroke-width="1"/><circle cx="266.2476151142713" cy="518.4921713554623" r="10" fill="rgb(255,255,0)" stroke="rgb(0,0,0)" stroke-width="1"/><circle cx="129.2227430452171" cy="596.5333718826985" r="10" fill="rgb(255,255,0)" stroke="rgb(0,0,0)" stroke-width="1"/><text text-anchor="middle" alignment-baseline="middle" x="523.7730694273131" y="527.7468812695158" fill="rgb(0,0,0)" font-size="12">inch (in)</text><text text-anchor="middle" alignment-baseline="middle" x="697.7916097619961" y="8.123979589037633" fill="rgb(0,0,0)" font-size="12">meter (m)</text><text text-anchor="middle" alignment-baseline="middle" x="262.005918127041" y="458.83374658193424" fill="rgb(0,0,0)" font-size="12">foot (ft)</text><text text-anchor="middle" alignment-baseline="middle" x="100.42402264650052" y="148.63097123296419" fill="rgb(0,0,0)" font-size="12">micrometer (μm)</text><text text-anchor="middle" alignment-baseline="middle" x="531.2914052181019" y="352.61769362302266" fill="rgb(0,0,0)" font-size="12">nanometer (nm)</text><text text-anchor="middle" alignment-baseline="middle" x="629.3056270724054" y="203.32391418449123" fill="rgb(0,0,0)" font-size="12">Astronomical Unit (AU)</text><text text-anchor="middle" alignment-baseline="middle" x="10.091693131074065" y="465.3690728539106" fill="rgb(0,0,0)" font-size="12">millimeter (mm)</text><text text-anchor="middle" alignment-baseline="middle" x="280.8957565474431" y="324.3370945989705" fill="rgb(0,0,0)" font-size="12">Planck length (ℓP)</text><text text-anchor="middle" alignment-baseline="middle" x="557.37839734852" y="622.3040252720212" fill="rgb(0,0,0)" font-size="12">kilometer (km)</text><text text-anchor="middle" alignment-baseline="middle" x="672.3567283442105" y="438.5485244369744" fill="rgb(0,0,0)" font-size="12">mile (m)</text><text text-anchor="middle" alignment-baseline="middle" x="249.4666017484781" y="256.7973784775881" fill="rgb(0,0,0)" font-size="12">centimeter (cm)</text><text text-anchor="middle" alignment-baseline="middle" x="266.2476151142713" y="518.4921713554623" fill="rgb(0,0,0)" font-size="12">parsec (pc)</text><text text-anchor="middle" alignment-baseline="middle" x="129.2227430452171" y="596.5333718826985" fill="rgb(0,0,0)" font-size="12">lightyear (ly)</text><text text-anchor="middle" alignment-baseline="middle" x="458.8445749157979" y="64.32677624660826" fill="rgb(0,0,0)" font-size="12">1000000.0</text><text text-anchor="middle" alignment-baseline="middle" x="586.1492892380742" y="454.71198083700926" fill="rgb(0,0,0)" font-size="12">6.6845871222684464E-9</text><text text-anchor="middle" alignment-baseline="middle" x="300.4850047665383" y="606.8416332384276" fill="rgb(0,0,0)" font-size="12">9.4607304725808E12</text><text text-anchor="middle" alignment-baseline="middle" x="431.1331457498384" y="341.3054540134018" fill="rgb(0,0,0)" font-size="12">1.6162E-26</text><text text-anchor="middle" alignment-baseline="middle" x="422.7116431096273" y="191.02201689498685" fill="rgb(0,0,0)" font-size="12">1000.0</text><text text-anchor="middle" alignment-baseline="middle" x="641.6263247966057" y="253.7959978622311" fill="rgb(0,0,0)" font-size="12">0.0010000000000000002</text><text text-anchor="middle" alignment-baseline="middle" x="366.7127786471499" y="486.39900045696686" fill="rgb(0,0,0)" font-size="12">12.0</text><text text-anchor="middle" alignment-baseline="middle" x="518.4616065565889" y="107.59333914445784" fill="rgb(0,0,0)" font-size="12">100.0</text><text text-anchor="middle" alignment-baseline="middle" x="600.5347351828513" y="370.9159586195033" fill="rgb(0,0,0)" font-size="12">1.495978707E8</text><text text-anchor="middle" alignment-baseline="middle" x="381.0540160157066" y="335.64933420859137" fill="rgb(0,0,0)" font-size="12">6.187353050365054E25</text><text text-anchor="middle" alignment-baseline="middle" x="597.8914870356596" y="214.82020800942865" fill="rgb(0,0,0)" font-size="12">1.0000000000000009E-9</text><text text-anchor="middle" alignment-baseline="middle" x="631.1915279444385" y="145.92146520263165" fill="rgb(0,0,0)" font-size="12">1.0E9</text><text text-anchor="middle" alignment-baseline="middle" x="211.43766628664963" y="549.7086515663568" fill="rgb(0,0,0)" font-size="12">3.26</text><text text-anchor="middle" alignment-baseline="middle" x="184.03269187283877" y="565.316891671804" fill="rgb(0,0,0)" font-size="12">0.3067484662576687</text><text text-anchor="middle" alignment-baseline="middle" x="436.3201947810231" y="278.5498397847756" fill="rgb(0,0,0)" font-size="12">0.3048</text><text text-anchor="middle" alignment-baseline="middle" x="419.0662089072042" y="500.1816273944832" fill="rgb(0,0,0)" font-size="12">0.08333333333333333</text><text text-anchor="middle" alignment-baseline="middle" x="613.5436823139105" y="376.63200699882776" fill="rgb(0,0,0)" font-size="12">1000.0</text><text text-anchor="middle" alignment-baseline="middle" x="523.4773331080141" y="188.40788638619625" fill="rgb(0,0,0)" font-size="12">3.2808398950131235</text><text text-anchor="middle" alignment-baseline="middle" x="386.11613562719884" y="611.9957639162922" fill="rgb(0,0,0)" font-size="12">1.0570008340246153E-13</text><text text-anchor="middle" alignment-baseline="middle" x="508.2164042573427" y="446.6626132949583" fill="rgb(0,0,0)" font-size="12">5280.0</text><text text-anchor="middle" alignment-baseline="middle" x="285.1716597834429" y="282.4710355479614" fill="rgb(0,0,0)" font-size="12">0.0010000000000000002</text><text text-anchor="middle" alignment-baseline="middle" x="428.7966049538853" y="157.3280189221679" fill="rgb(0,0,0)" font-size="12">0.010000000000000002</text><text text-anchor="middle" alignment-baseline="middle" x="426.14624221390886" y="450.7196577239503" fill="rgb(0,0,0)" font-size="12">1.893939393939394E-4</text><text text-anchor="middle" alignment-baseline="middle" x="339.37105749269875" y="92.42817457539356" fill="rgb(0,0,0)" font-size="12">1.0000000000000006E-6</text>
      Sorry, your browser does not support inline SVG.
    </svg>