<?xml version='1.0' encoding='UTF-8'?>
<svg version="1.1" width="700.0" height="700.0" onload="init(evt)" xmlns="http://www.w3.org/2000/svg">
      <style>.caption {
  font-size: 14px;
  font-family: Georgia, serif;
}
</style>
      <script type="text/ecmascript"><![CDATA[
function init(evt) {
  if ( window.svgDocument == null ) {
    svgDocument = evt.target.ownerDocument;
  }
}

function RectHover(evt, i, c) {
  rect = svgDocument.getElementById('rect' + i);
  if( c != null ) {
    rect.setAttributeNS(null, "fill", c)  
  }
  tooltiptext = svgDocument.getElementById('tooltiptext' + i);
  tooltipbg = svgDocument.getElementById('tooltipbg' + i);
  if( tooltipbg != null) {
    tbb = tooltiptext.getBBox();
    tooltipbg.setAttributeNS(null, "width", tbb.width);
    tooltipbg.setAttributeNS(null, "height", tbb.height);
    tooltipbg.setAttributeNS(null, "x", tbb.x);
    tooltipbg.setAttributeNS(null, "y", tbb.y);
    tooltipbg.setAttributeNS(null, "visibility", "visible");
  }
  tooltiptext.setAttributeNS(null,"visibility","visible");
}

function RectUnhover(evt, i, c) {
  rect = svgDocument.getElementById('rect' + i);
  if( c != null ) {
    rect.setAttributeNS(null, "fill", c)  
  }
  tooltiptext = svgDocument.getElementById('tooltiptext' + i);
  tooltiptext.setAttributeNS(null,"visibility","hidden");
  tooltipbg = svgDocument.getElementById('tooltipbg' + i);
  if( tooltipbg != null ) {
    tooltipbg.setAttributeNS(null,"visibility","hidden");
  }
}
]]></script>
      <line x1="302.18377503280004" y1="406.0353328601389" x2="260.5470464557626" y2="96.81104827181134" stroke="rgb(0,0,0)" stroke-width="1"/><line x1="674.536845513695" y1="555.3378526361104" x2="536.1322436489459" y2="264.74030673840514" stroke="rgb(0,0,0)" stroke-width="1"/><line x1="133.54847458781197" y1="308.70063853998505" x2="260.5470464557626" y2="96.81104827181134" stroke="rgb(0,0,0)" stroke-width="1"/><line x1="104.63977107230174" y1="282.1957268206049" x2="302.18377503280004" y2="406.0353328601389" stroke="rgb(0,0,0)" stroke-width="1"/><line x1="302.18377503280004" y1="406.0353328601389" x2="413.91045080170403" y2="46.77903613263085" stroke="rgb(0,0,0)" stroke-width="1"/><line x1="24.341837490021256" y1="555.5778835262291" x2="168.63280644582207" y2="434.9264356871191" stroke="rgb(0,0,0)" stroke-width="1"/><line x1="413.91045080170403" y1="46.77903613263085" x2="302.18377503280004" y2="406.0353328601389" stroke="rgb(0,0,0)" stroke-width="1"/><line x1="260.5470464557626" y1="96.81104827181134" x2="133.54847458781197" y2="308.70063853998505" stroke="rgb(0,0,0)" stroke-width="1"/><line x1="536.1322436489459" y1="264.74030673840514" x2="674.536845513695" y2="555.3378526361104" stroke="rgb(0,0,0)" stroke-width="1"/><line x1="260.5470464557626" y1="96.81104827181134" x2="382.4494620356204" y2="421.23568647932353" stroke="rgb(0,0,0)" stroke-width="1"/><line x1="168.63280644582207" y1="434.9264356871191" x2="24.341837490021256" y2="555.5778835262291" stroke="rgb(0,0,0)" stroke-width="1"/><line x1="260.5470464557626" y1="96.81104827181134" x2="168.63280644582207" y2="434.9264356871191" stroke="rgb(0,0,0)" stroke-width="1"/><line x1="228.259252566555" y1="59.43149680731534" x2="368.65402556693016" y2="210.47576569179566" stroke="rgb(0,0,0)" stroke-width="1"/><line x1="23.78057178537045" y1="464.7554961040616" x2="260.5470464557626" y2="96.81104827181134" stroke="rgb(0,0,0)" stroke-width="1"/><line x1="260.5470464557626" y1="96.81104827181134" x2="536.1322436489459" y2="264.74030673840514" stroke="rgb(0,0,0)" stroke-width="1"/><line x1="302.18377503280004" y1="406.0353328601389" x2="104.63977107230174" y2="282.1957268206049" stroke="rgb(0,0,0)" stroke-width="1"/><line x1="228.259252566555" y1="59.43149680731534" x2="168.63280644582207" y2="434.9264356871191" stroke="rgb(0,0,0)" stroke-width="1"/><line x1="260.5470464557626" y1="96.81104827181134" x2="302.18377503280004" y2="406.0353328601389" stroke="rgb(0,0,0)" stroke-width="1"/><line x1="536.1322436489459" y1="264.74030673840514" x2="260.5470464557626" y2="96.81104827181134" stroke="rgb(0,0,0)" stroke-width="1"/><line x1="260.5470464557626" y1="96.81104827181134" x2="23.78057178537045" y2="464.7554961040616" stroke="rgb(0,0,0)" stroke-width="1"/><line x1="382.4494620356204" y1="421.23568647932353" x2="260.5470464557626" y2="96.81104827181134" stroke="rgb(0,0,0)" stroke-width="1"/><line x1="168.63280644582207" y1="434.9264356871191" x2="228.259252566555" y2="59.43149680731534" stroke="rgb(0,0,0)" stroke-width="1"/><line x1="368.65402556693016" y1="210.47576569179566" x2="228.259252566555" y2="59.43149680731534" stroke="rgb(0,0,0)" stroke-width="1"/><line x1="168.63280644582207" y1="434.9264356871191" x2="260.5470464557626" y2="96.81104827181134" stroke="rgb(0,0,0)" stroke-width="1"/><polygon points="10,0 20,3 20,-3" fill="black" transform="translate(260.5470464557626,96.81104827181134) rotate(82.33130621313634)"/><polygon points="10,0 20,3 20,-3" fill="black" transform="translate(536.1322436489459,264.74030673840514) rotate(64.53266628549669)"/><polygon points="10,0 20,3 20,-3" fill="black" transform="translate(260.5470464557626,96.81104827181134) rotate(120.9368711548095)"/><polygon points="10,0 20,3 20,-3" fill="black" transform="translate(302.18377503280004,406.0353328601389) rotate(212.08344713692614)"/><polygon points="10,0 20,3 20,-3" fill="black" transform="translate(413.91045080170403,46.77903613263085) rotate(107.27539823163522)"/><polygon points="10,0 20,3 20,-3" fill="black" transform="translate(168.63280644582207,434.9264356871191) rotate(140.0987213639054)"/><polygon points="10,0 20,3 20,-3" fill="black" transform="translate(302.18377503280004,406.0353328601389) rotate(287.2753982316352)"/><polygon points="10,0 20,3 20,-3" fill="black" transform="translate(133.54847458781197,308.70063853998505) rotate(300.9368711548095)"/><polygon points="10,0 20,3 20,-3" fill="black" transform="translate(674.536845513695,555.3378526361104) rotate(244.5326662854967)"/><polygon points="10,0 20,3 20,-3" fill="black" transform="translate(382.4494620356204,421.23568647932353) rotate(249.40631214643423)"/><polygon points="10,0 20,3 20,-3" fill="black" transform="translate(24.341837490021256,555.5778835262291) rotate(320.0987213639054)"/><polygon points="10,0 20,3 20,-3" fill="black" transform="translate(168.63280644582207,434.9264356871191) rotate(285.20794094907023)"/><polygon points="10,0 20,3 20,-3" fill="black" transform="translate(368.65402556693016,210.47576569179566) rotate(227.09271827299858)"/><polygon points="10,0 20,3 20,-3" fill="black" transform="translate(260.5470464557626,96.81104827181134) rotate(122.76064477287619)"/><polygon points="10,0 20,3 20,-3" fill="black" transform="translate(536.1322436489459,264.74030673840514) rotate(211.35625575796703)"/><polygon points="10,0 20,3 20,-3" fill="black" transform="translate(104.63977107230174,282.1957268206049) rotate(32.08344713692614)"/><polygon points="10,0 20,3 20,-3" fill="black" transform="translate(168.63280644582207,434.9264356871191) rotate(279.0229056358595)"/><polygon points="10,0 20,3 20,-3" fill="black" transform="translate(302.18377503280004,406.0353328601389) rotate(262.3313062131364)"/><polygon points="10,0 20,3 20,-3" fill="black" transform="translate(260.5470464557626,96.81104827181134) rotate(31.356255757967034)"/><polygon points="10,0 20,3 20,-3" fill="black" transform="translate(23.78057178537045,464.7554961040616) rotate(302.76064477287616)"/><polygon points="10,0 20,3 20,-3" fill="black" transform="translate(260.5470464557626,96.81104827181134) rotate(69.40631214643422)"/><polygon points="10,0 20,3 20,-3" fill="black" transform="translate(228.259252566555,59.43149680731534) rotate(99.02290563585947)"/><polygon points="10,0 20,3 20,-3" fill="black" transform="translate(228.259252566555,59.43149680731534) rotate(47.09271827299858)"/><polygon points="10,0 20,3 20,-3" fill="black" transform="translate(260.5470464557626,96.81104827181134) rotate(105.20794094907019)"/><circle cx="104.63977107230174" cy="282.1957268206049" r="10" fill="rgb(255,255,0)" stroke="rgb(0,0,0)" stroke-width="1"/><circle cx="260.5470464557626" cy="96.81104827181134" r="10" fill="rgb(255,255,0)" stroke="rgb(0,0,0)" stroke-width="1"/><circle cx="302.18377503280004" cy="406.0353328601389" r="10" fill="rgb(255,255,0)" stroke="rgb(0,0,0)" stroke-width="1"/><circle cx="23.78057178537045" cy="464.7554961040616" r="10" fill="rgb(255,255,0)" stroke="rgb(0,0,0)" stroke-width="1"/><circle cx="536.1322436489459" cy="264.74030673840514" r="10" fill="rgb(255,255,0)" stroke="rgb(0,0,0)" stroke-width="1"/><circle cx="24.341837490021256" cy="555.5778835262291" r="10" fill="rgb(255,255,0)" stroke="rgb(0,0,0)" stroke-width="1"/><circle cx="133.54847458781197" cy="308.70063853998505" r="10" fill="rgb(255,255,0)" stroke="rgb(0,0,0)" stroke-width="1"/><circle cx="674.536845513695" cy="555.3378526361104" r="10" fill="rgb(255,255,0)" stroke="rgb(0,0,0)" stroke-width="1"/><circle cx="168.63280644582207" cy="434.9264356871191" r="10" fill="rgb(255,255,0)" stroke="rgb(0,0,0)" stroke-width="1"/><circle cx="413.91045080170403" cy="46.77903613263085" r="10" fill="rgb(255,255,0)" stroke="rgb(0,0,0)" stroke-width="1"/><circle cx="382.4494620356204" cy="421.23568647932353" r="10" fill="rgb(255,255,0)" stroke="rgb(0,0,0)" stroke-width="1"/><circle cx="368.65402556693016" cy="210.47576569179566" r="10" fill="rgb(255,255,0)" stroke="rgb(0,0,0)" stroke-width="1"/><circle cx="228.259252566555" cy="59.43149680731534" r="10" fill="rgb(255,255,0)" stroke="rgb(0,0,0)" stroke-width="1"/><text text-anchor="middle" alignment-baseline="middle" x="104.63977107230174" y="282.1957268206049" fill="rgb(0,0,0)" font-size="12">inch (in)</text><text text-anchor="middle" alignment-baseline="middle" x="260.5470464557626" y="96.81104827181134" fill="rgb(0,0,0)" font-size="12">meter (m)</text><text text-anchor="middle" alignment-baseline="middle" x="302.18377503280004" y="406.0353328601389" fill="rgb(0,0,0)" font-size="12">foot (ft)</text><text text-anchor="middle" alignment-baseline="middle" x="23.78057178537045" y="464.7554961040616" fill="rgb(0,0,0)" font-size="12">micrometer (μm)</text><text text-anchor="middle" alignment-baseline="middle" x="536.1322436489459" y="264.74030673840514" fill="rgb(0,0,0)" font-size="12">nanometer (nm)</text><text text-anchor="middle" alignment-baseline="middle" x="24.341837490021256" y="555.5778835262291" fill="rgb(0,0,0)" font-size="12">Astronomical Unit (AU)</text><text text-anchor="middle" alignment-baseline="middle" x="133.54847458781197" y="308.70063853998505" fill="rgb(0,0,0)" font-size="12">millimeter (mm)</text><text text-anchor="middle" alignment-baseline="middle" x="674.536845513695" y="555.3378526361104" fill="rgb(0,0,0)" font-size="12">Planck length (ℓP)</text><text text-anchor="middle" alignment-baseline="middle" x="168.63280644582207" y="434.9264356871191" fill="rgb(0,0,0)" font-size="12">kilometer (km)</text><text text-anchor="middle" alignment-baseline="middle" x="413.91045080170403" y="46.77903613263085" fill="rgb(0,0,0)" font-size="12">mile (m)</text><text text-anchor="middle" alignment-baseline="middle" x="382.4494620356204" y="421.23568647932353" fill="rgb(0,0,0)" font-size="12">centimeter (cm)</text><text text-anchor="middle" alignment-baseline="middle" x="368.65402556693016" y="210.47576569179566" fill="rgb(0,0,0)" font-size="12">parsec (pc)</text><text text-anchor="middle" alignment-baseline="middle" x="228.259252566555" y="59.43149680731534" fill="rgb(0,0,0)" font-size="12">lightyear (ly)</text><text text-anchor="middle" alignment-baseline="middle" x="277.2017378865776" y="220.50076210714238" fill="rgb(0,0,0)" font-size="12">3.2808398950131235</text><text text-anchor="middle" alignment-baseline="middle" x="591.4940843948455" y="380.9793250974873" fill="rgb(0,0,0)" font-size="12">1.6162E-26</text><text text-anchor="middle" alignment-baseline="middle" x="209.74761770858234" y="181.56688437908082" fill="rgb(0,0,0)" font-size="12">1000.0</text><text text-anchor="middle" alignment-baseline="middle" x="223.16617344860072" y="356.49949044432526" fill="rgb(0,0,0)" font-size="12">12.0</text><text text-anchor="middle" alignment-baseline="middle" x="369.2197804941424" y="190.48155482363407" fill="rgb(0,0,0)" font-size="12">5280.0</text><text text-anchor="middle" alignment-baseline="middle" x="110.91641886350175" y="483.1870148227631" fill="rgb(0,0,0)" font-size="12">6.6845871222684464E-9</text><text text-anchor="middle" alignment-baseline="middle" x="346.87444534036166" y="262.3328141691357" fill="rgb(0,0,0)" font-size="12">1.893939393939394E-4</text><text text-anchor="middle" alignment-baseline="middle" x="184.34790333499222" y="223.94480243271556" fill="rgb(0,0,0)" font-size="12">0.0010000000000000002</text><text text-anchor="middle" alignment-baseline="middle" x="619.1750047677954" y="439.09883427702823" fill="rgb(0,0,0)" font-size="12">6.187353050365054E25</text><text text-anchor="middle" alignment-baseline="middle" x="333.68849580367726" y="291.4658311963187" fill="rgb(0,0,0)" font-size="12">0.010000000000000002</text><text text-anchor="middle" alignment-baseline="middle" x="82.05822507234159" y="507.31730439058515" fill="rgb(0,0,0)" font-size="12">1.495978707E8</text><text text-anchor="middle" alignment-baseline="middle" x="205.3985024497983" y="299.680280720996" fill="rgb(0,0,0)" font-size="12">1000.0</text><text text-anchor="middle" alignment-baseline="middle" x="312.4961163667801" y="150.05805813800353" fill="rgb(0,0,0)" font-size="12">3.26</text><text text-anchor="middle" alignment-baseline="middle" x="165.84045658760573" y="243.98882740471143" fill="rgb(0,0,0)" font-size="12">1000000.0</text><text text-anchor="middle" alignment-baseline="middle" x="425.89816477167255" y="197.56860335176762" fill="rgb(0,0,0)" font-size="12">1.0000000000000009E-9</text><text text-anchor="middle" alignment-baseline="middle" x="183.65737265650108" y="331.7315692364185" fill="rgb(0,0,0)" font-size="12">0.08333333333333333</text><text text-anchor="middle" alignment-baseline="middle" x="192.48338489411526" y="284.72846013519757" fill="rgb(0,0,0)" font-size="12">1.0570008340246153E-13</text><text text-anchor="middle" alignment-baseline="middle" x="285.52908360198506" y="282.3456190248079" fill="rgb(0,0,0)" font-size="12">0.3048</text><text text-anchor="middle" alignment-baseline="middle" x="370.7811253330359" y="163.98275165844888" fill="rgb(0,0,0)" font-size="12">1.0E9</text><text text-anchor="middle" alignment-baseline="middle" x="118.48716165352732" y="317.5777169711615" fill="rgb(0,0,0)" font-size="12">1.0000000000000006E-6</text><text text-anchor="middle" alignment-baseline="middle" x="309.30801268770574" y="226.58090355481622" fill="rgb(0,0,0)" font-size="12">100.0</text><text text-anchor="middle" alignment-baseline="middle" x="204.40867411826184" y="209.62947235923687" fill="rgb(0,0,0)" font-size="12">9.4607304725808E12</text><text text-anchor="middle" alignment-baseline="middle" x="284.4171617667051" y="119.84920436110747" fill="rgb(0,0,0)" font-size="12">0.3067484662576687</text><text text-anchor="middle" alignment-baseline="middle" x="223.78135045178638" y="232.05720323793446" fill="rgb(0,0,0)" font-size="12">0.0010000000000000002</text>
      Sorry, your browser does not support inline SVG.
    </svg>