<?xml version='1.0' encoding='UTF-8'?>
<svg version="1.1" width="700.0" height="700.0" onload="init(evt)" xmlns="http://www.w3.org/2000/svg">
      <style>.caption {
  font-size: 14px;
  font-family: Georgia, serif;
}
</style>
      <script type="text/ecmascript"><![CDATA[
function init(evt) {
  if ( window.svgDocument == null ) {
    svgDocument = evt.target.ownerDocument;
  }
}

function RectHover(evt, i, c) {
  rect = svgDocument.getElementById('rect' + i);
  if( c != null ) {
    rect.setAttributeNS(null, "fill", c)  
  }
  tooltiptext = svgDocument.getElementById('tooltiptext' + i);
  tooltipbg = svgDocument.getElementById('tooltipbg' + i);
  if( tooltipbg != null) {
    tbb = tooltiptext.getBBox();
    tooltipbg.setAttributeNS(null, "width", tbb.width);
    tooltipbg.setAttributeNS(null, "height", tbb.height);
    tooltipbg.setAttributeNS(null, "x", tbb.x);
    tooltipbg.setAttributeNS(null, "y", tbb.y);
    tooltipbg.setAttributeNS(null, "visibility", "visible");
  }
  tooltiptext.setAttributeNS(null,"visibility","visible");
}

function RectUnhover(evt, i, c) {
  rect = svgDocument.getElementById('rect' + i);
  if( c != null ) {
    rect.setAttributeNS(null, "fill", c)  
  }
  tooltiptext = svgDocument.getElementById('tooltiptext' + i);
  tooltiptext.setAttributeNS(null,"visibility","hidden");
  tooltipbg = svgDocument.getElementById('tooltipbg' + i);
  if( tooltipbg != null ) {
    tooltipbg.setAttributeNS(null,"visibility","hidden");
  }
}
]]></script>
      <line x1="677.7456936748031" y1="662.4225615824256" x2="297.3254528577636" y2="560.9135298510441" stroke="rgb(0,0,0)" stroke-width="1"/><line x1="583.9549229852356" y1="271.9611058548999" x2="297.3254528577636" y2="560.9135298510441" stroke="rgb(0,0,0)" stroke-width="1"/><line x1="466.98506865810265" y1="653.4179302942406" x2="392.1354665257414" y2="394.9778603626735" stroke="rgb(0,0,0)" stroke-width="1"/><line x1="68.06839723251366" y1="25.138618514767852" x2="677.7456936748031" y2="662.4225615824256" stroke="rgb(0,0,0)" stroke-width="1"/><line x1="677.7456936748031" y1="662.4225615824256" x2="125.85474354975726" y2="150.0850507484559" stroke="rgb(0,0,0)" stroke-width="1"/><line x1="125.85474354975726" y1="150.0850507484559" x2="411.01607421783075" y2="278.81101751210707" stroke="rgb(0,0,0)" stroke-width="1"/><line x1="125.85474354975726" y1="150.0850507484559" x2="681.6665985286203" y2="487.7289710215811" stroke="rgb(0,0,0)" stroke-width="1"/><line x1="15.092061237022303" y1="446.2993001646117" x2="141.89792216497386" y2="400.6963845761995" stroke="rgb(0,0,0)" stroke-width="1"/><line x1="411.01607421783075" y1="278.81101751210707" x2="125.85474354975726" y2="150.0850507484559" stroke="rgb(0,0,0)" stroke-width="1"/><line x1="466.98506865810265" y1="653.4179302942406" x2="125.85474354975726" y2="150.0850507484559" stroke="rgb(0,0,0)" stroke-width="1"/><line x1="125.85474354975726" y1="150.0850507484559" x2="466.98506865810265" y2="653.4179302942406" stroke="rgb(0,0,0)" stroke-width="1"/><line x1="328.1494664470091" y1="207.26998696083086" x2="125.85474354975726" y2="150.0850507484559" stroke="rgb(0,0,0)" stroke-width="1"/><line x1="125.85474354975726" y1="150.0850507484559" x2="141.89792216497386" y2="400.6963845761995" stroke="rgb(0,0,0)" stroke-width="1"/><line x1="125.85474354975726" y1="150.0850507484559" x2="328.1494664470091" y2="207.26998696083086" stroke="rgb(0,0,0)" stroke-width="1"/><line x1="141.89792216497386" y1="400.6963845761995" x2="125.85474354975726" y2="150.0850507484559" stroke="rgb(0,0,0)" stroke-width="1"/><line x1="141.89792216497386" y1="400.6963845761995" x2="15.092061237022303" y2="446.2993001646117" stroke="rgb(0,0,0)" stroke-width="1"/><line x1="61.21532889301626" y1="375.35541133078806" x2="141.89792216497386" y2="400.6963845761995" stroke="rgb(0,0,0)" stroke-width="1"/><line x1="677.7456936748031" y1="662.4225615824256" x2="68.06839723251366" y2="25.138618514767852" stroke="rgb(0,0,0)" stroke-width="1"/><line x1="392.1354665257414" y1="394.9778603626735" x2="466.98506865810265" y2="653.4179302942406" stroke="rgb(0,0,0)" stroke-width="1"/><line x1="141.89792216497386" y1="400.6963845761995" x2="61.21532889301626" y2="375.35541133078806" stroke="rgb(0,0,0)" stroke-width="1"/><line x1="125.85474354975726" y1="150.0850507484559" x2="677.7456936748031" y2="662.4225615824256" stroke="rgb(0,0,0)" stroke-width="1"/><line x1="297.3254528577636" y1="560.9135298510441" x2="583.9549229852356" y2="271.9611058548999" stroke="rgb(0,0,0)" stroke-width="1"/><line x1="297.3254528577636" y1="560.9135298510441" x2="677.7456936748031" y2="662.4225615824256" stroke="rgb(0,0,0)" stroke-width="1"/><line x1="681.6665985286203" y1="487.7289710215811" x2="125.85474354975726" y2="150.0850507484559" stroke="rgb(0,0,0)" stroke-width="1"/><polygon points="10,0 20,3 20,-3" fill="black" transform="translate(297.3254528577636,560.9135298510441) rotate(14.940364578190156)"/><polygon points="10,0 20,3 20,-3" fill="black" transform="translate(297.3254528577636,560.9135298510441) rotate(314.76876491177677)"/><polygon points="10,0 20,3 20,-3" fill="black" transform="translate(392.1354665257414,394.9778603626735) rotate(73.84788773427928)"/><polygon points="10,0 20,3 20,-3" fill="black" transform="translate(677.7456936748031,662.4225615824256) rotate(226.26827197018446)"/><polygon points="10,0 20,3 20,-3" fill="black" transform="translate(125.85474354975726,150.0850507484559) rotate(42.87150729091974)"/><polygon points="10,0 20,3 20,-3" fill="black" transform="translate(411.01607421783075,278.81101751210707) rotate(204.29510783184188)"/><polygon points="10,0 20,3 20,-3" fill="black" transform="translate(681.6665985286203,487.7289710215811) rotate(211.27779357295321)"/><polygon points="10,0 20,3 20,-3" fill="black" transform="translate(141.89792216497386,400.6963845761995) rotate(160.220003562903)"/><polygon points="10,0 20,3 20,-3" fill="black" transform="translate(125.85474354975726,150.0850507484559) rotate(24.295107831841875)"/><polygon points="10,0 20,3 20,-3" fill="black" transform="translate(125.85474354975726,150.0850507484559) rotate(55.87281916591023)"/><polygon points="10,0 20,3 20,-3" fill="black" transform="translate(466.98506865810265,653.4179302942406) rotate(235.87281916591024)"/><polygon points="10,0 20,3 20,-3" fill="black" transform="translate(125.85474354975726,150.0850507484559) rotate(15.78460574053534)"/><polygon points="10,0 20,3 20,-3" fill="black" transform="translate(141.89792216497386,400.6963845761995) rotate(266.3371415350822)"/><polygon points="10,0 20,3 20,-3" fill="black" transform="translate(328.1494664470091,207.26998696083086) rotate(195.78460574053534)"/><polygon points="10,0 20,3 20,-3" fill="black" transform="translate(125.85474354975726,150.0850507484559) rotate(86.33714153508215)"/><polygon points="10,0 20,3 20,-3" fill="black" transform="translate(15.092061237022303,446.2993001646117) rotate(340.220003562903)"/><polygon points="10,0 20,3 20,-3" fill="black" transform="translate(141.89792216497386,400.6963845761995) rotate(197.4365799559259)"/><polygon points="10,0 20,3 20,-3" fill="black" transform="translate(68.06839723251366,25.138618514767852) rotate(46.26827197018446)"/><polygon points="10,0 20,3 20,-3" fill="black" transform="translate(466.98506865810265,653.4179302942406) rotate(253.8478877342793)"/><polygon points="10,0 20,3 20,-3" fill="black" transform="translate(61.21532889301626,375.35541133078806) rotate(17.436579955925907)"/><polygon points="10,0 20,3 20,-3" fill="black" transform="translate(677.7456936748031,662.4225615824256) rotate(222.87150729091977)"/><polygon points="10,0 20,3 20,-3" fill="black" transform="translate(583.9549229852356,271.9611058548999) rotate(134.76876491177674)"/><polygon points="10,0 20,3 20,-3" fill="black" transform="translate(677.7456936748031,662.4225615824256) rotate(194.94036457819018)"/><polygon points="10,0 20,3 20,-3" fill="black" transform="translate(125.85474354975726,150.0850507484559) rotate(31.277793572953243)"/><circle cx="15.092061237022303" cy="446.2993001646117" r="10" fill="rgb(255,255,0)" stroke="rgb(0,0,0)" stroke-width="1"/><circle cx="125.85474354975726" cy="150.0850507484559" r="10" fill="rgb(255,255,0)" stroke="rgb(0,0,0)" stroke-width="1"/><circle cx="141.89792216497386" cy="400.6963845761995" r="10" fill="rgb(255,255,0)" stroke="rgb(0,0,0)" stroke-width="1"/><circle cx="681.6665985286203" cy="487.7289710215811" r="10" fill="rgb(255,255,0)" stroke="rgb(0,0,0)" stroke-width="1"/><circle cx="466.98506865810265" cy="653.4179302942406" r="10" fill="rgb(255,255,0)" stroke="rgb(0,0,0)" stroke-width="1"/><circle cx="68.06839723251366" cy="25.138618514767852" r="10" fill="rgb(255,255,0)" stroke="rgb(0,0,0)" stroke-width="1"/><circle cx="411.01607421783075" cy="278.81101751210707" r="10" fill="rgb(255,255,0)" stroke="rgb(0,0,0)" stroke-width="1"/><circle cx="392.1354665257414" cy="394.9778603626735" r="10" fill="rgb(255,255,0)" stroke="rgb(0,0,0)" stroke-width="1"/><circle cx="677.7456936748031" cy="662.4225615824256" r="10" fill="rgb(255,255,0)" stroke="rgb(0,0,0)" stroke-width="1"/><circle cx="61.21532889301626" cy="375.35541133078806" r="10" fill="rgb(255,255,0)" stroke="rgb(0,0,0)" stroke-width="1"/><circle cx="328.1494664470091" cy="207.26998696083086" r="10" fill="rgb(255,255,0)" stroke="rgb(0,0,0)" stroke-width="1"/><circle cx="583.9549229852356" cy="271.9611058548999" r="10" fill="rgb(255,255,0)" stroke="rgb(0,0,0)" stroke-width="1"/><circle cx="297.3254528577636" cy="560.9135298510441" r="10" fill="rgb(255,255,0)" stroke="rgb(0,0,0)" stroke-width="1"/><text text-anchor="middle" alignment-baseline="middle" x="15.092061237022303" y="446.2993001646117" fill="rgb(0,0,0)" font-size="12">inch (in)</text><text text-anchor="middle" alignment-baseline="middle" x="125.85474354975726" y="150.0850507484559" fill="rgb(0,0,0)" font-size="12">meter (m)</text><text text-anchor="middle" alignment-baseline="middle" x="141.89792216497386" y="400.6963845761995" fill="rgb(0,0,0)" font-size="12">foot (ft)</text><text text-anchor="middle" alignment-baseline="middle" x="681.6665985286203" y="487.7289710215811" fill="rgb(0,0,0)" font-size="12">micrometer (μm)</text><text text-anchor="middle" alignment-baseline="middle" x="466.98506865810265" y="653.4179302942406" fill="rgb(0,0,0)" font-size="12">nanometer (nm)</text><text text-anchor="middle" alignment-baseline="middle" x="68.06839723251366" y="25.138618514767852" fill="rgb(0,0,0)" font-size="12">Astronomical Unit (AU)</text><text text-anchor="middle" alignment-baseline="middle" x="411.01607421783075" y="278.81101751210707" fill="rgb(0,0,0)" font-size="12">millimeter (mm)</text><text text-anchor="middle" alignment-baseline="middle" x="392.1354665257414" y="394.9778603626735" fill="rgb(0,0,0)" font-size="12">Planck length (ℓP)</text><text text-anchor="middle" alignment-baseline="middle" x="677.7456936748031" y="662.4225615824256" fill="rgb(0,0,0)" font-size="12">kilometer (km)</text><text text-anchor="middle" alignment-baseline="middle" x="61.21532889301626" y="375.35541133078806" fill="rgb(0,0,0)" font-size="12">mile (m)</text><text text-anchor="middle" alignment-baseline="middle" x="328.1494664470091" y="207.26998696083086" fill="rgb(0,0,0)" font-size="12">centimeter (cm)</text><text text-anchor="middle" alignment-baseline="middle" x="583.9549229852356" y="271.9611058548999" fill="rgb(0,0,0)" font-size="12">parsec (pc)</text><text text-anchor="middle" alignment-baseline="middle" x="297.3254528577636" y="560.9135298510441" fill="rgb(0,0,0)" font-size="12">lightyear (ly)</text><text text-anchor="middle" alignment-baseline="middle" x="449.49354918457936" y="601.5171425435967" fill="rgb(0,0,0)" font-size="12">9.4607304725808E12</text><text text-anchor="middle" alignment-baseline="middle" x="411.9772409087524" y="445.3325602525864" fill="rgb(0,0,0)" font-size="12">0.3067484662576687</text><text text-anchor="middle" alignment-baseline="middle" x="422.07530737868586" y="498.3538883353003" fill="rgb(0,0,0)" font-size="12">6.187353050365054E25</text><text text-anchor="middle" alignment-baseline="middle" x="433.8747750978873" y="407.50898435536254" fill="rgb(0,0,0)" font-size="12">6.6845871222684464E-9</text><text text-anchor="middle" alignment-baseline="middle" x="346.61112359977557" y="355.0200550820438" fill="rgb(0,0,0)" font-size="12">0.0010000000000000002</text><text text-anchor="middle" alignment-baseline="middle" x="296.9515419506014" y="227.3206308066466" fill="rgb(0,0,0)" font-size="12">0.0010000000000000002</text><text text-anchor="middle" alignment-baseline="middle" x="459.34185653707505" y="352.671402912331" fill="rgb(0,0,0)" font-size="12">1.0000000000000006E-6</text><text text-anchor="middle" alignment-baseline="middle" x="91.17557779379324" y="418.93755081156434" fill="rgb(0,0,0)" font-size="12">12.0</text><text text-anchor="middle" alignment-baseline="middle" x="239.91927581698664" y="201.57543745391638" fill="rgb(0,0,0)" font-size="12">1000.0</text><text text-anchor="middle" alignment-baseline="middle" x="262.3068735930954" y="351.41820256676976" fill="rgb(0,0,0)" font-size="12">1.0E9</text><text text-anchor="middle" alignment-baseline="middle" x="330.5329386147645" y="452.0847784759267" fill="rgb(0,0,0)" font-size="12">1.0000000000000009E-9</text><text text-anchor="middle" alignment-baseline="middle" x="206.772632708658" y="172.9590252334059" fill="rgb(0,0,0)" font-size="12">100.0</text><text text-anchor="middle" alignment-baseline="middle" x="135.48065071888723" y="300.45185104510205" fill="rgb(0,0,0)" font-size="12">0.3048</text><text text-anchor="middle" alignment-baseline="middle" x="247.23157728810838" y="184.39601247588087" fill="rgb(0,0,0)" font-size="12">0.010000000000000002</text><text text-anchor="middle" alignment-baseline="middle" x="132.2720149958439" y="250.32958427955333" fill="rgb(0,0,0)" font-size="12">3.2808398950131235</text><text text-anchor="middle" alignment-baseline="middle" x="65.81440560820293" y="428.0581339292468" fill="rgb(0,0,0)" font-size="12">0.08333333333333333</text><text text-anchor="middle" alignment-baseline="middle" x="109.62488485619082" y="390.55999527803493" fill="rgb(0,0,0)" font-size="12">1.893939393939394E-4</text><text text-anchor="middle" alignment-baseline="middle" x="311.93931580942944" y="280.05219574183093" fill="rgb(0,0,0)" font-size="12">1.495978707E8</text><text text-anchor="middle" alignment-baseline="middle" x="437.04522780515816" y="550.0419023216137" fill="rgb(0,0,0)" font-size="12">1.6162E-26</text><text text-anchor="middle" alignment-baseline="middle" x="93.4883662017993" y="385.4918006289526" fill="rgb(0,0,0)" font-size="12">5280.0</text><text text-anchor="middle" alignment-baseline="middle" x="456.98931362478476" y="457.4875572488377" fill="rgb(0,0,0)" font-size="12">1000.0</text><text text-anchor="middle" alignment-baseline="middle" x="469.3031349342468" y="387.5420754533576" fill="rgb(0,0,0)" font-size="12">3.26</text><text text-anchor="middle" alignment-baseline="middle" x="525.5775973479873" y="621.818948889873" fill="rgb(0,0,0)" font-size="12">1.0570008340246153E-13</text><text text-anchor="middle" alignment-baseline="middle" x="348.1794855413025" y="285.142618857706" fill="rgb(0,0,0)" font-size="12">1000000.0</text>
      Sorry, your browser does not support inline SVG.
    </svg>