<?xml version='1.0' encoding='UTF-8'?>
<svg version="1.1" width="700.0" height="700.0" onload="init(evt)" xmlns="http://www.w3.org/2000/svg">
      <style>.caption {
  font-size: 14px;
  font-family: Georgia, serif;
}
</style>
      <script type="text/ecmascript"><![CDATA[
function init(evt) {
  if ( window.svgDocument == null ) {
    svgDocument = evt.target.ownerDocument;
  }
}

function RectHover(evt, i, c) {
  rect = svgDocument.getElementById('rect' + i);
  if( c != null ) {
    rect.setAttributeNS(null, "fill", c)  
  }
  tooltiptext = svgDocument.getElementById('tooltiptext' + i);
  tooltipbg = svgDocument.getElementById('tooltipbg' + i);
  if( tooltipbg != null) {
    tbb = tooltiptext.getBBox();
    tooltipbg.setAttributeNS(null, "width", tbb.width);
    tooltipbg.setAttributeNS(null, "height", tbb.height);
    tooltipbg.setAttributeNS(null, "x", tbb.x);
    tooltipbg.setAttributeNS(null, "y", tbb.y);
    tooltipbg.setAttributeNS(null, "visibility", "visible");
  }
  tooltiptext.setAttributeNS(null,"visibility","visible");
}

function RectUnhover(evt, i, c) {
  rect = svgDocument.getElementById('rect' + i);
  if( c != null ) {
    rect.setAttributeNS(null, "fill", c)  
  }
  tooltiptext = svgDocument.getElementById('tooltiptext' + i);
  tooltiptext.setAttributeNS(null,"visibility","hidden");
  tooltipbg = svgDocument.getElementById('tooltipbg' + i);
  if( tooltipbg != null ) {
    tooltipbg.setAttributeNS(null,"visibility","hidden");
  }
}
]]></script>
      <line x1="687.1783019154657" y1="394.4350255755162" x2="463.13867690536904" y2="82.13286415857519" stroke="rgb(0,0,0)" stroke-width="1"/><line x1="687.1783019154657" y1="394.4350255755162" x2="74.65722902156993" y2="376.8806345230286" stroke="rgb(0,0,0)" stroke-width="1"/><line x1="275.11148560549327" y1="58.19745282447114" x2="687.1783019154657" y2="394.4350255755162" stroke="rgb(0,0,0)" stroke-width="1"/><line x1="553.1712858653801" y1="693.0892624465764" x2="182.1690920081888" y2="131.80245510682002" stroke="rgb(0,0,0)" stroke-width="1"/><line x1="687.1783019154657" y1="394.4350255755162" x2="322.50253571020426" y2="314.4750029809286" stroke="rgb(0,0,0)" stroke-width="1"/><line x1="171.98421552356845" y1="647.6106230425921" x2="74.65722902156993" y2="376.8806345230286" stroke="rgb(0,0,0)" stroke-width="1"/><line x1="269.95674159147217" y1="583.8345383631179" x2="687.1783019154657" y2="394.4350255755162" stroke="rgb(0,0,0)" stroke-width="1"/><line x1="687.1783019154657" y1="394.4350255755162" x2="275.11148560549327" y2="58.19745282447114" stroke="rgb(0,0,0)" stroke-width="1"/><line x1="182.1690920081888" y1="131.80245510682002" x2="257.0798674068564" y2="71.52277873554083" stroke="rgb(0,0,0)" stroke-width="1"/><line x1="269.95674159147217" y1="583.8345383631179" x2="39.36771116458924" y2="417.12710195828737" stroke="rgb(0,0,0)" stroke-width="1"/><line x1="553.1712858653801" y1="693.0892624465764" x2="687.1783019154657" y2="394.4350255755162" stroke="rgb(0,0,0)" stroke-width="1"/><line x1="553.1712858653801" y1="693.0892624465764" x2="137.68173447078144" y2="99.75145204182971" stroke="rgb(0,0,0)" stroke-width="1"/><line x1="322.50253571020426" y1="314.4750029809286" x2="687.1783019154657" y2="394.4350255755162" stroke="rgb(0,0,0)" stroke-width="1"/><line x1="137.68173447078144" y1="99.75145204182971" x2="553.1712858653801" y2="693.0892624465764" stroke="rgb(0,0,0)" stroke-width="1"/><line x1="74.65722902156993" y1="376.8806345230286" x2="171.98421552356845" y2="647.6106230425921" stroke="rgb(0,0,0)" stroke-width="1"/><line x1="182.1690920081888" y1="131.80245510682002" x2="553.1712858653801" y2="693.0892624465764" stroke="rgb(0,0,0)" stroke-width="1"/><line x1="74.65722902156993" y1="376.8806345230286" x2="687.1783019154657" y2="394.4350255755162" stroke="rgb(0,0,0)" stroke-width="1"/><line x1="687.1783019154657" y1="394.4350255755162" x2="269.95674159147217" y2="583.8345383631179" stroke="rgb(0,0,0)" stroke-width="1"/><line x1="195.15514045751587" y1="176.13988640913973" x2="74.65722902156993" y2="376.8806345230286" stroke="rgb(0,0,0)" stroke-width="1"/><line x1="74.65722902156993" y1="376.8806345230286" x2="195.15514045751587" y2="176.13988640913973" stroke="rgb(0,0,0)" stroke-width="1"/><line x1="39.36771116458924" y1="417.12710195828737" x2="269.95674159147217" y2="583.8345383631179" stroke="rgb(0,0,0)" stroke-width="1"/><line x1="687.1783019154657" y1="394.4350255755162" x2="553.1712858653801" y2="693.0892624465764" stroke="rgb(0,0,0)" stroke-width="1"/><line x1="463.13867690536904" y1="82.13286415857519" x2="687.1783019154657" y2="394.4350255755162" stroke="rgb(0,0,0)" stroke-width="1"/><line x1="257.0798674068564" y1="71.52277873554083" x2="182.1690920081888" y2="131.80245510682002" stroke="rgb(0,0,0)" stroke-width="1"/><polygon points="10,0 20,3 20,-3" fill="black" transform="translate(463.13867690536904,82.13286415857519) rotate(54.34506312934417)"/><polygon points="10,0 20,3 20,-3" fill="black" transform="translate(74.65722902156993,376.8806345230286) rotate(1.641604394296536)"/><polygon points="10,0 20,3 20,-3" fill="black" transform="translate(687.1783019154657,394.4350255755162) rotate(219.21369814660753)"/><polygon points="10,0 20,3 20,-3" fill="black" transform="translate(182.1690920081888,131.80245510682002) rotate(56.535892212391175)"/><polygon points="10,0 20,3 20,-3" fill="black" transform="translate(322.50253571020426,314.4750029809286) rotate(12.367152747400212)"/><polygon points="10,0 20,3 20,-3" fill="black" transform="translate(74.65722902156993,376.8806345230286) rotate(70.22657205886391)"/><polygon points="10,0 20,3 20,-3" fill="black" transform="translate(687.1783019154657,394.4350255755162) rotate(155.58412333612335)"/><polygon points="10,0 20,3 20,-3" fill="black" transform="translate(275.11148560549327,58.19745282447114) rotate(39.2136981466075)"/><polygon points="10,0 20,3 20,-3" fill="black" transform="translate(257.0798674068564,71.52277873554083) rotate(141.1768421324321)"/><polygon points="10,0 20,3 20,-3" fill="black" transform="translate(39.36771116458924,417.12710195828737) rotate(35.8655531990791)"/><polygon points="10,0 20,3 20,-3" fill="black" transform="translate(687.1783019154657,394.4350255755162) rotate(114.1659111425847)"/><polygon points="10,0 20,3 20,-3" fill="black" transform="translate(137.68173447078144,99.75145204182971) rotate(54.99805979818986)"/><polygon points="10,0 20,3 20,-3" fill="black" transform="translate(687.1783019154657,394.4350255755162) rotate(192.36715274740024)"/><polygon points="10,0 20,3 20,-3" fill="black" transform="translate(553.1712858653801,693.0892624465764) rotate(234.99805979818987)"/><polygon points="10,0 20,3 20,-3" fill="black" transform="translate(171.98421552356845,647.6106230425921) rotate(250.2265720588639)"/><polygon points="10,0 20,3 20,-3" fill="black" transform="translate(553.1712858653801,693.0892624465764) rotate(236.5358922123912)"/><polygon points="10,0 20,3 20,-3" fill="black" transform="translate(687.1783019154657,394.4350255755162) rotate(181.64160439429656)"/><polygon points="10,0 20,3 20,-3" fill="black" transform="translate(269.95674159147217,583.8345383631179) rotate(335.58412333612335)"/><polygon points="10,0 20,3 20,-3" fill="black" transform="translate(74.65722902156993,376.8806345230286) rotate(300.9749753465797)"/><polygon points="10,0 20,3 20,-3" fill="black" transform="translate(195.15514045751587,176.13988640913973) rotate(120.97497534657968)"/><polygon points="10,0 20,3 20,-3" fill="black" transform="translate(269.95674159147217,583.8345383631179) rotate(215.8655531990791)"/><polygon points="10,0 20,3 20,-3" fill="black" transform="translate(553.1712858653801,693.0892624465764) rotate(294.1659111425847)"/><polygon points="10,0 20,3 20,-3" fill="black" transform="translate(687.1783019154657,394.4350255755162) rotate(234.34506312934417)"/><polygon points="10,0 20,3 20,-3" fill="black" transform="translate(182.1690920081888,131.80245510682002) rotate(321.1768421324321)"/><circle cx="195.15514045751587" cy="176.13988640913973" r="10" fill="rgb(255,255,0)" stroke="rgb(0,0,0)" stroke-width="1"/><circle cx="687.1783019154657" cy="394.4350255755162" r="10" fill="rgb(255,255,0)" stroke="rgb(0,0,0)" stroke-width="1"/><circle cx="74.65722902156993" cy="376.8806345230286" r="10" fill="rgb(255,255,0)" stroke="rgb(0,0,0)" stroke-width="1"/><circle cx="322.50253571020426" cy="314.4750029809286" r="10" fill="rgb(255,255,0)" stroke="rgb(0,0,0)" stroke-width="1"/><circle cx="269.95674159147217" cy="583.8345383631179" r="10" fill="rgb(255,255,0)" stroke="rgb(0,0,0)" stroke-width="1"/><circle cx="137.68173447078144" cy="99.75145204182971" r="10" fill="rgb(255,255,0)" stroke="rgb(0,0,0)" stroke-width="1"/><circle cx="275.11148560549327" cy="58.19745282447114" r="10" fill="rgb(255,255,0)" stroke="rgb(0,0,0)" stroke-width="1"/><circle cx="39.36771116458924" cy="417.12710195828737" r="10" fill="rgb(255,255,0)" stroke="rgb(0,0,0)" stroke-width="1"/><circle cx="553.1712858653801" cy="693.0892624465764" r="10" fill="rgb(255,255,0)" stroke="rgb(0,0,0)" stroke-width="1"/><circle cx="171.98421552356845" cy="647.6106230425921" r="10" fill="rgb(255,255,0)" stroke="rgb(0,0,0)" stroke-width="1"/><circle cx="463.13867690536904" cy="82.13286415857519" r="10" fill="rgb(255,255,0)" stroke="rgb(0,0,0)" stroke-width="1"/><circle cx="257.0798674068564" cy="71.52277873554083" r="10" fill="rgb(255,255,0)" stroke="rgb(0,0,0)" stroke-width="1"/><circle cx="182.1690920081888" cy="131.80245510682002" r="10" fill="rgb(255,255,0)" stroke="rgb(0,0,0)" stroke-width="1"/><text text-anchor="middle" alignment-baseline="middle" x="195.15514045751587" y="176.13988640913973" fill="rgb(0,0,0)" font-size="12">inch (in)</text><text text-anchor="middle" alignment-baseline="middle" x="687.1783019154657" y="394.4350255755162" fill="rgb(0,0,0)" font-size="12">meter (m)</text><text text-anchor="middle" alignment-baseline="middle" x="74.65722902156993" y="376.8806345230286" fill="rgb(0,0,0)" font-size="12">foot (ft)</text><text text-anchor="middle" alignment-baseline="middle" x="322.50253571020426" y="314.4750029809286" fill="rgb(0,0,0)" font-size="12">micrometer (μm)</text><text text-anchor="middle" alignment-baseline="middle" x="269.95674159147217" y="583.8345383631179" fill="rgb(0,0,0)" font-size="12">nanometer (nm)</text><text text-anchor="middle" alignment-baseline="middle" x="137.68173447078144" y="99.75145204182971" fill="rgb(0,0,0)" font-size="12">Astronomical Unit (AU)</text><text text-anchor="middle" alignment-baseline="middle" x="275.11148560549327" y="58.19745282447114" fill="rgb(0,0,0)" font-size="12">millimeter (mm)</text><text text-anchor="middle" alignment-baseline="middle" x="39.36771116458924" y="417.12710195828737" fill="rgb(0,0,0)" font-size="12">Planck length (ℓP)</text><text text-anchor="middle" alignment-baseline="middle" x="553.1712858653801" y="693.0892624465764" fill="rgb(0,0,0)" font-size="12">kilometer (km)</text><text text-anchor="middle" alignment-baseline="middle" x="171.98421552356845" y="647.6106230425921" fill="rgb(0,0,0)" font-size="12">mile (m)</text><text text-anchor="middle" alignment-baseline="middle" x="463.13867690536904" y="82.13286415857519" fill="rgb(0,0,0)" font-size="12">centimeter (cm)</text><text text-anchor="middle" alignment-baseline="middle" x="257.0798674068564" y="71.52277873554083" fill="rgb(0,0,0)" font-size="12">parsec (pc)</text><text text-anchor="middle" alignment-baseline="middle" x="182.1690920081888" y="131.80245510682002" fill="rgb(0,0,0)" font-size="12">lightyear (ly)</text><text text-anchor="middle" alignment-baseline="middle" x="552.7545269094077" y="207.05372872535162" fill="rgb(0,0,0)" font-size="12">0.010000000000000002</text><text text-anchor="middle" alignment-baseline="middle" x="319.66565817912823" y="383.90239094402364" fill="rgb(0,0,0)" font-size="12">0.3048</text><text text-anchor="middle" alignment-baseline="middle" x="522.3515753914767" y="259.93999647509816" fill="rgb(0,0,0)" font-size="12">1000.0</text><text text-anchor="middle" alignment-baseline="middle" x="330.56996955106536" y="356.3171780427226" fill="rgb(0,0,0)" font-size="12">9.4607304725808E12</text><text text-anchor="middle" alignment-baseline="middle" x="468.37284219230884" y="346.45901201876364" fill="rgb(0,0,0)" font-size="12">1.0000000000000006E-6</text><text text-anchor="middle" alignment-baseline="middle" x="113.58802362236935" y="485.172629930854" fill="rgb(0,0,0)" font-size="12">1.893939393939394E-4</text><text text-anchor="middle" alignment-baseline="middle" x="520.2896777858682" y="470.19483069055684" fill="rgb(0,0,0)" font-size="12">1.0E9</text><text text-anchor="middle" alignment-baseline="middle" x="439.9382121294823" y="192.69248192488917" fill="rgb(0,0,0)" font-size="12">0.0010000000000000002</text><text text-anchor="middle" alignment-baseline="middle" x="227.11555724738938" y="95.6346492840525" fill="rgb(0,0,0)" font-size="12">3.26</text><text text-anchor="middle" alignment-baseline="middle" x="131.60332333534242" y="483.8100765202196" fill="rgb(0,0,0)" font-size="12">6.187353050365054E25</text><text text-anchor="middle" alignment-baseline="middle" x="633.5754954954315" y="513.8967203239403" fill="rgb(0,0,0)" font-size="12">0.0010000000000000002</text><text text-anchor="middle" alignment-baseline="middle" x="303.8775550286209" y="337.0865762037284" fill="rgb(0,0,0)" font-size="12">1.495978707E8</text><text text-anchor="middle" alignment-baseline="middle" x="541.3079954333612" y="362.45101653768114" fill="rgb(0,0,0)" font-size="12">1000000.0</text><text text-anchor="middle" alignment-baseline="middle" x="386.9754653075406" y="455.75413828467777" fill="rgb(0,0,0)" font-size="12">6.6845871222684464E-9</text><text text-anchor="middle" alignment-baseline="middle" x="133.05342092276905" y="539.3186276347667" fill="rgb(0,0,0)" font-size="12">5280.0</text><text text-anchor="middle" alignment-baseline="middle" x="404.7704083225036" y="468.57453951067384" fill="rgb(0,0,0)" font-size="12">1.0570008340246153E-13</text><text text-anchor="middle" alignment-baseline="middle" x="442.1698727579074" y="387.4132691545212" fill="rgb(0,0,0)" font-size="12">3.2808398950131235</text><text text-anchor="middle" alignment-baseline="middle" x="436.8453657210696" y="508.0747332480772" fill="rgb(0,0,0)" font-size="12">1.0000000000000009E-9</text><text text-anchor="middle" alignment-baseline="middle" x="122.8563935959483" y="296.5843352774731" fill="rgb(0,0,0)" font-size="12">12.0</text><text text-anchor="middle" alignment-baseline="middle" x="146.9559758831375" y="256.4361856546953" fill="rgb(0,0,0)" font-size="12">0.08333333333333333</text><text text-anchor="middle" alignment-baseline="middle" x="177.72112942071897" y="517.1515638011857" fill="rgb(0,0,0)" font-size="12">1.6162E-26</text><text text-anchor="middle" alignment-baseline="middle" x="606.7740922854143" y="573.6275676981523" fill="rgb(0,0,0)" font-size="12">1000.0</text><text text-anchor="middle" alignment-baseline="middle" x="597.562451911427" y="269.51416100873973" fill="rgb(0,0,0)" font-size="12">100.0</text><text text-anchor="middle" alignment-baseline="middle" x="212.13340216765585" y="107.69058455830833" fill="rgb(0,0,0)" font-size="12">0.3067484662576687</text>
      Sorry, your browser does not support inline SVG.
    </svg>