<?xml version='1.0' encoding='UTF-8'?>
<svg version="1.1" width="700.0" height="700.0" onload="init(evt)" xmlns="http://www.w3.org/2000/svg">
      <style>.caption {
  font-size: 14px;
  font-family: Georgia, serif;
}
</style>
      <script type="text/ecmascript"><![CDATA[
function init(evt) {
  if ( window.svgDocument == null ) {
    svgDocument = evt.target.ownerDocument;
  }
}

function RectHover(evt, i, c) {
  rect = svgDocument.getElementById('rect' + i);
  if( c != null ) {
    rect.setAttributeNS(null, "fill", c)  
  }
  tooltiptext = svgDocument.getElementById('tooltiptext' + i);
  tooltipbg = svgDocument.getElementById('tooltipbg' + i);
  if( tooltipbg != null) {
    tbb = tooltiptext.getBBox();
    tooltipbg.setAttributeNS(null, "width", tbb.width);
    tooltipbg.setAttributeNS(null, "height", tbb.height);
    tooltipbg.setAttributeNS(null, "x", tbb.x);
    tooltipbg.setAttributeNS(null, "y", tbb.y);
    tooltipbg.setAttributeNS(null, "visibility", "visible");
  }
  tooltiptext.setAttributeNS(null,"visibility","visible");
}

function RectUnhover(evt, i, c) {
  rect = svgDocument.getElementById('rect' + i);
  if( c != null ) {
    rect.setAttributeNS(null, "fill", c)  
  }
  tooltiptext = svgDocument.getElementById('tooltiptext' + i);
  tooltiptext.setAttributeNS(null,"visibility","hidden");
  tooltipbg = svgDocument.getElementById('tooltipbg' + i);
  if( tooltipbg != null ) {
    tooltipbg.setAttributeNS(null,"visibility","hidden");
  }
}
]]></script>
      <line x1="684.9896105953899" y1="460.2229086217041" x2="587.4591856204604" y2="208.30568098677423" stroke="rgb(0,0,0)" stroke-width="1"/><line x1="94.69579876080894" y1="305.6885819723467" x2="344.6269825246736" y2="637.3518423860106" stroke="rgb(0,0,0)" stroke-width="1"/><line x1="58.612093714056776" y1="51.86824854792626" x2="94.69579876080894" y2="305.6885819723467" stroke="rgb(0,0,0)" stroke-width="1"/><line x1="617.1122610425689" y1="313.25142819956733" x2="289.53400550174683" y2="437.0336018236892" stroke="rgb(0,0,0)" stroke-width="1"/><line x1="627.1582496451638" y1="237.7154816723177" x2="124.62970913317058" y2="691.5650187484393" stroke="rgb(0,0,0)" stroke-width="1"/><line x1="94.69579876080894" y1="305.6885819723467" x2="58.612093714056776" y2="51.86824854792626" stroke="rgb(0,0,0)" stroke-width="1"/><line x1="127.6517684133085" y1="332.52608539247075" x2="587.4591856204604" y2="208.30568098677423" stroke="rgb(0,0,0)" stroke-width="1"/><line x1="627.1582496451638" y1="237.7154816723177" x2="190.37740622637324" y2="254.7621777802636" stroke="rgb(0,0,0)" stroke-width="1"/><line x1="344.6269825246736" y1="637.3518423860106" x2="94.69579876080894" y2="305.6885819723467" stroke="rgb(0,0,0)" stroke-width="1"/><line x1="627.1582496451638" y1="237.7154816723177" x2="152.95082090197374" y2="609.2331536314205" stroke="rgb(0,0,0)" stroke-width="1"/><line x1="627.1582496451638" y1="237.7154816723177" x2="289.53400550174683" y2="437.0336018236892" stroke="rgb(0,0,0)" stroke-width="1"/><line x1="152.95082090197374" y1="609.2331536314205" x2="627.1582496451638" y2="237.7154816723177" stroke="rgb(0,0,0)" stroke-width="1"/><line x1="289.53400550174683" y1="437.0336018236892" x2="627.1582496451638" y2="237.7154816723177" stroke="rgb(0,0,0)" stroke-width="1"/><line x1="124.62970913317058" y1="691.5650187484393" x2="627.1582496451638" y2="237.7154816723177" stroke="rgb(0,0,0)" stroke-width="1"/><line x1="289.53400550174683" y1="437.0336018236892" x2="617.1122610425689" y2="313.25142819956733" stroke="rgb(0,0,0)" stroke-width="1"/><line x1="94.69579876080894" y1="305.6885819723467" x2="627.1582496451638" y2="237.7154816723177" stroke="rgb(0,0,0)" stroke-width="1"/><line x1="627.1582496451638" y1="237.7154816723177" x2="94.69579876080894" y2="305.6885819723467" stroke="rgb(0,0,0)" stroke-width="1"/><line x1="587.4591856204604" y1="208.30568098677423" x2="127.6517684133085" y2="332.52608539247075" stroke="rgb(0,0,0)" stroke-width="1"/><line x1="587.4591856204604" y1="208.30568098677423" x2="684.9896105953899" y2="460.2229086217041" stroke="rgb(0,0,0)" stroke-width="1"/><line x1="190.37740622637324" y1="254.7621777802636" x2="627.1582496451638" y2="237.7154816723177" stroke="rgb(0,0,0)" stroke-width="1"/><line x1="344.6269825246736" y1="637.3518423860106" x2="198.60383294147962" y2="289.70492885883493" stroke="rgb(0,0,0)" stroke-width="1"/><line x1="627.1582496451638" y1="237.7154816723177" x2="587.4591856204604" y2="208.30568098677423" stroke="rgb(0,0,0)" stroke-width="1"/><line x1="587.4591856204604" y1="208.30568098677423" x2="627.1582496451638" y2="237.7154816723177" stroke="rgb(0,0,0)" stroke-width="1"/><line x1="198.60383294147962" y1="289.70492885883493" x2="344.6269825246736" y2="637.3518423860106" stroke="rgb(0,0,0)" stroke-width="1"/><polygon points="10,0 20,3 20,-3" fill="black" transform="translate(587.4591856204604,208.30568098677423) rotate(68.8359554528304)"/><polygon points="10,0 20,3 20,-3" fill="black" transform="translate(344.6269825246736,637.3518423860106) rotate(232.99945011371074)"/><polygon points="10,0 20,3 20,-3" fill="black" transform="translate(94.69579876080894,305.6885819723467) rotate(261.9089117535151)"/><polygon points="10,0 20,3 20,-3" fill="black" transform="translate(289.53400550174683,437.0336018236892) rotate(339.2998981104151)"/><polygon points="10,0 20,3 20,-3" fill="black" transform="translate(124.62970913317058,691.5650187484393) rotate(317.91380222562924)"/><polygon points="10,0 20,3 20,-3" fill="black" transform="translate(58.612093714056776,51.86824854792626) rotate(81.90891175351506)"/><polygon points="10,0 20,3 20,-3" fill="black" transform="translate(587.4591856204604,208.30568098677423) rotate(164.88201636224747)"/><polygon points="10,0 20,3 20,-3" fill="black" transform="translate(190.37740622637324,254.7621777802636) rotate(357.76499288330865)"/><polygon points="10,0 20,3 20,-3" fill="black" transform="translate(94.69579876080894,305.6885819723467) rotate(52.99945011371072)"/><polygon points="10,0 20,3 20,-3" fill="black" transform="translate(152.95082090197374,609.2331536314205) rotate(321.92308612277816)"/><polygon points="10,0 20,3 20,-3" fill="black" transform="translate(289.53400550174683,437.0336018236892) rotate(329.4443146883549)"/><polygon points="10,0 20,3 20,-3" fill="black" transform="translate(627.1582496451638,237.7154816723177) rotate(141.9230861227782)"/><polygon points="10,0 20,3 20,-3" fill="black" transform="translate(627.1582496451638,237.7154816723177) rotate(149.44431468835492)"/><polygon points="10,0 20,3 20,-3" fill="black" transform="translate(627.1582496451638,237.7154816723177) rotate(137.9138022256292)"/><polygon points="10,0 20,3 20,-3" fill="black" transform="translate(617.1122610425689,313.25142819956733) rotate(159.29989811041509)"/><polygon points="10,0 20,3 20,-3" fill="black" transform="translate(627.1582496451638,237.7154816723177) rotate(172.7250828800013)"/><polygon points="10,0 20,3 20,-3" fill="black" transform="translate(94.69579876080894,305.6885819723467) rotate(352.7250828800013)"/><polygon points="10,0 20,3 20,-3" fill="black" transform="translate(127.6517684133085,332.52608539247075) rotate(344.88201636224744)"/><polygon points="10,0 20,3 20,-3" fill="black" transform="translate(684.9896105953899,460.2229086217041) rotate(248.83595545283043)"/><polygon points="10,0 20,3 20,-3" fill="black" transform="translate(627.1582496451638,237.7154816723177) rotate(177.76499288330868)"/><polygon points="10,0 20,3 20,-3" fill="black" transform="translate(198.60383294147962,289.70492885883493) rotate(67.21599075037743)"/><polygon points="10,0 20,3 20,-3" fill="black" transform="translate(587.4591856204604,208.30568098677423) rotate(36.53173170016865)"/><polygon points="10,0 20,3 20,-3" fill="black" transform="translate(627.1582496451638,237.7154816723177) rotate(216.53173170016865)"/><polygon points="10,0 20,3 20,-3" fill="black" transform="translate(344.6269825246736,637.3518423860106) rotate(247.21599075037744)"/><circle cx="684.9896105953899" cy="460.2229086217041" r="10" fill="rgb(255,255,0)" stroke="rgb(0,0,0)" stroke-width="1"/><circle cx="627.1582496451638" cy="237.7154816723177" r="10" fill="rgb(255,255,0)" stroke="rgb(0,0,0)" stroke-width="1"/><circle cx="587.4591856204604" cy="208.30568098677423" r="10" fill="rgb(255,255,0)" stroke="rgb(0,0,0)" stroke-width="1"/><circle cx="124.62970913317058" cy="691.5650187484393" r="10" fill="rgb(255,255,0)" stroke="rgb(0,0,0)" stroke-width="1"/><circle cx="289.53400550174683" cy="437.0336018236892" r="10" fill="rgb(255,255,0)" stroke="rgb(0,0,0)" stroke-width="1"/><circle cx="58.612093714056776" cy="51.86824854792626" r="10" fill="rgb(255,255,0)" stroke="rgb(0,0,0)" stroke-width="1"/><circle cx="190.37740622637324" cy="254.7621777802636" r="10" fill="rgb(255,255,0)" stroke="rgb(0,0,0)" stroke-width="1"/><circle cx="617.1122610425689" cy="313.25142819956733" r="10" fill="rgb(255,255,0)" stroke="rgb(0,0,0)" stroke-width="1"/><circle cx="94.69579876080894" cy="305.6885819723467" r="10" fill="rgb(255,255,0)" stroke="rgb(0,0,0)" stroke-width="1"/><circle cx="127.6517684133085" cy="332.52608539247075" r="10" fill="rgb(255,255,0)" stroke="rgb(0,0,0)" stroke-width="1"/><circle cx="152.95082090197374" cy="609.2331536314205" r="10" fill="rgb(255,255,0)" stroke="rgb(0,0,0)" stroke-width="1"/><circle cx="198.60383294147962" cy="289.70492885883493" r="10" fill="rgb(255,255,0)" stroke="rgb(0,0,0)" stroke-width="1"/><circle cx="344.6269825246736" cy="637.3518423860106" r="10" fill="rgb(255,255,0)" stroke="rgb(0,0,0)" stroke-width="1"/><text text-anchor="middle" alignment-baseline="middle" x="684.9896105953899" y="460.2229086217041" fill="rgb(0,0,0)" font-size="12">inch (in)</text><text text-anchor="middle" alignment-baseline="middle" x="627.1582496451638" y="237.7154816723177" fill="rgb(0,0,0)" font-size="12">meter (m)</text><text text-anchor="middle" alignment-baseline="middle" x="587.4591856204604" y="208.30568098677423" fill="rgb(0,0,0)" font-size="12">foot (ft)</text><text text-anchor="middle" alignment-baseline="middle" x="124.62970913317058" y="691.5650187484393" fill="rgb(0,0,0)" font-size="12">micrometer (μm)</text><text text-anchor="middle" alignment-baseline="middle" x="289.53400550174683" y="437.0336018236892" fill="rgb(0,0,0)" font-size="12">nanometer (nm)</text><text text-anchor="middle" alignment-baseline="middle" x="58.612093714056776" y="51.86824854792626" fill="rgb(0,0,0)" font-size="12">Astronomical Unit (AU)</text><text text-anchor="middle" alignment-baseline="middle" x="190.37740622637324" y="254.7621777802636" fill="rgb(0,0,0)" font-size="12">millimeter (mm)</text><text text-anchor="middle" alignment-baseline="middle" x="617.1122610425689" y="313.25142819956733" fill="rgb(0,0,0)" font-size="12">Planck length (ℓP)</text><text text-anchor="middle" alignment-baseline="middle" x="94.69579876080894" y="305.6885819723467" fill="rgb(0,0,0)" font-size="12">kilometer (km)</text><text text-anchor="middle" alignment-baseline="middle" x="127.6517684133085" y="332.52608539247075" fill="rgb(0,0,0)" font-size="12">mile (m)</text><text text-anchor="middle" alignment-baseline="middle" x="152.95082090197374" y="609.2331536314205" fill="rgb(0,0,0)" font-size="12">centimeter (cm)</text><text text-anchor="middle" alignment-baseline="middle" x="198.60383294147962" y="289.70492885883493" fill="rgb(0,0,0)" font-size="12">parsec (pc)</text><text text-anchor="middle" alignment-baseline="middle" x="344.6269825246736" y="637.3518423860106" fill="rgb(0,0,0)" font-size="12">lightyear (ly)</text><text text-anchor="middle" alignment-baseline="middle" x="626.4713556104322" y="309.0725720407462" fill="rgb(0,0,0)" font-size="12">12.0</text><text text-anchor="middle" alignment-baseline="middle" x="244.65450901912774" y="504.686538220545" fill="rgb(0,0,0)" font-size="12">9.4607304725808E12</text><text text-anchor="middle" alignment-baseline="middle" x="80.26231674210807" y="204.16044860257853" fill="rgb(0,0,0)" font-size="12">6.6845871222684464E-9</text><text text-anchor="middle" alignment-baseline="middle" x="420.5653077180757" y="387.52073237404045" fill="rgb(0,0,0)" font-size="12">1.6162E-26</text><text text-anchor="middle" alignment-baseline="middle" x="325.6411253379679" y="510.02520391799067" fill="rgb(0,0,0)" font-size="12">1.0000000000000006E-6</text><text text-anchor="middle" alignment-baseline="middle" x="73.04557573275764" y="153.39638191769444" fill="rgb(0,0,0)" font-size="12">1.495978707E8</text><text text-anchor="middle" alignment-baseline="middle" x="403.53621873759965" y="257.9938427490529" fill="rgb(0,0,0)" font-size="12">1.893939393939394E-4</text><text text-anchor="middle" alignment-baseline="middle" x="365.08974359388947" y="247.94349933708526" fill="rgb(0,0,0)" font-size="12">0.0010000000000000002</text><text text-anchor="middle" alignment-baseline="middle" x="194.66827226635482" y="438.3538861378123" fill="rgb(0,0,0)" font-size="12">1.0570008340246153E-13</text><text text-anchor="middle" alignment-baseline="middle" x="342.6337923992498" y="460.62608484777934" fill="rgb(0,0,0)" font-size="12">0.010000000000000002</text><text text-anchor="middle" alignment-baseline="middle" x="424.5837031591136" y="357.3063537631406" fill="rgb(0,0,0)" font-size="12">1.0000000000000009E-9</text><text text-anchor="middle" alignment-baseline="middle" x="437.4752781478877" y="386.3225504559588" fill="rgb(0,0,0)" font-size="12">100.0</text><text text-anchor="middle" alignment-baseline="middle" x="492.108551987797" y="317.4427297328663" fill="rgb(0,0,0)" font-size="12">1.0E9</text><text text-anchor="middle" alignment-baseline="middle" x="426.1468334403665" y="419.2552965027664" fill="rgb(0,0,0)" font-size="12">1000000.0</text><text text-anchor="middle" alignment-baseline="middle" x="486.08095882624" y="362.7642976492161" fill="rgb(0,0,0)" font-size="12">6.187353050365054E25</text><text text-anchor="middle" alignment-baseline="middle" x="414.1732692914219" y="264.9047217923293" fill="rgb(0,0,0)" font-size="12">0.0010000000000000002</text><text text-anchor="middle" alignment-baseline="middle" x="307.68077911455083" y="278.4993418523351" fill="rgb(0,0,0)" font-size="12">1000.0</text><text text-anchor="middle" alignment-baseline="middle" x="311.57473529616925" y="282.8379236301921" fill="rgb(0,0,0)" font-size="12">5280.0</text><text text-anchor="middle" alignment-baseline="middle" x="645.9774406054181" y="359.45601756773215" fill="rgb(0,0,0)" font-size="12">0.08333333333333333</text><text text-anchor="middle" alignment-baseline="middle" x="452.44591227764755" y="244.53416011549606" fill="rgb(0,0,0)" font-size="12">1000.0</text><text text-anchor="middle" alignment-baseline="middle" x="257.01309277475724" y="428.7636942697052" fill="rgb(0,0,0)" font-size="12">3.26</text><text text-anchor="middle" alignment-baseline="middle" x="603.3388112303418" y="220.06960126099162" fill="rgb(0,0,0)" font-size="12">0.3048</text><text text-anchor="middle" alignment-baseline="middle" x="611.2786240352824" y="225.95156139810032" fill="rgb(0,0,0)" font-size="12">3.2808398950131235</text><text text-anchor="middle" alignment-baseline="middle" x="286.21772269139603" y="498.29307697514037" fill="rgb(0,0,0)" font-size="12">0.3067484662576687</text>
      Sorry, your browser does not support inline SVG.
    </svg>