<?xml version='1.0' encoding='UTF-8'?>
<svg version="1.1" width="700.0" height="700.0" onload="init(evt)" xmlns="http://www.w3.org/2000/svg">
      <style>.caption {
  font-size: 14px;
  font-family: Georgia, serif;
}
</style>
      <script type="text/ecmascript"><![CDATA[
function init(evt) {
  if ( window.svgDocument == null ) {
    svgDocument = evt.target.ownerDocument;
  }
}

function RectHover(evt, i, c) {
  rect = svgDocument.getElementById('rect' + i);
  if( c != null ) {
    rect.setAttributeNS(null, "fill", c)  
  }
  tooltiptext = svgDocument.getElementById('tooltiptext' + i);
  tooltipbg = svgDocument.getElementById('tooltipbg' + i);
  if( tooltipbg != null) {
    tbb = tooltiptext.getBBox();
    tooltipbg.setAttributeNS(null, "width", tbb.width);
    tooltipbg.setAttributeNS(null, "height", tbb.height);
    tooltipbg.setAttributeNS(null, "x", tbb.x);
    tooltipbg.setAttributeNS(null, "y", tbb.y);
    tooltipbg.setAttributeNS(null, "visibility", "visible");
  }
  tooltiptext.setAttributeNS(null,"visibility","visible");
}

function RectUnhover(evt, i, c) {
  rect = svgDocument.getElementById('rect' + i);
  if( c != null ) {
    rect.setAttributeNS(null, "fill", c)  
  }
  tooltiptext = svgDocument.getElementById('tooltiptext' + i);
  tooltiptext.setAttributeNS(null,"visibility","hidden");
  tooltipbg = svgDocument.getElementById('tooltipbg' + i);
  if( tooltipbg != null ) {
    tooltipbg.setAttributeNS(null,"visibility","hidden");
  }
}
]]></script>
      <line x1="496.36272659091554" y1="652.1275618269574" x2="594.8629816170225" y2="327.951447937572" stroke="rgb(0,0,0)" stroke-width="1"/><line x1="244.04073042123926" y1="544.1075276844626" x2="113.22227184467899" y2="459.63341582881907" stroke="rgb(0,0,0)" stroke-width="1"/><line x1="603.1449889142267" y1="458.061593276054" x2="626.903618551067" y2="208.8907165761595" stroke="rgb(0,0,0)" stroke-width="1"/><line x1="593.4339507521831" y1="290.41454396884336" x2="155.85204402553254" y2="567.25781500976" stroke="rgb(0,0,0)" stroke-width="1"/><line x1="217.76459055887557" y1="247.4268898826104" x2="626.903618551067" y2="208.8907165761595" stroke="rgb(0,0,0)" stroke-width="1"/><line x1="626.903618551067" y1="208.8907165761595" x2="217.76459055887557" y2="247.4268898826104" stroke="rgb(0,0,0)" stroke-width="1"/><line x1="570.846891239909" y1="412.01409306189123" x2="626.903618551067" y2="208.8907165761595" stroke="rgb(0,0,0)" stroke-width="1"/><line x1="626.903618551067" y1="208.8907165761595" x2="244.04073042123926" y2="544.1075276844626" stroke="rgb(0,0,0)" stroke-width="1"/><line x1="113.22227184467899" y1="459.63341582881907" x2="244.04073042123926" y2="544.1075276844626" stroke="rgb(0,0,0)" stroke-width="1"/><line x1="244.04073042123926" y1="544.1075276844626" x2="496.36272659091554" y2="652.1275618269574" stroke="rgb(0,0,0)" stroke-width="1"/><line x1="284.15777014800415" y1="334.0980518364013" x2="155.85204402553254" y2="567.25781500976" stroke="rgb(0,0,0)" stroke-width="1"/><line x1="626.903618551067" y1="208.8907165761595" x2="155.85204402553254" y2="567.25781500976" stroke="rgb(0,0,0)" stroke-width="1"/><line x1="626.903618551067" y1="208.8907165761595" x2="570.846891239909" y2="412.01409306189123" stroke="rgb(0,0,0)" stroke-width="1"/><line x1="155.85204402553254" y1="567.25781500976" x2="626.903618551067" y2="208.8907165761595" stroke="rgb(0,0,0)" stroke-width="1"/><line x1="224.78485370542953" y1="653.1189672921488" x2="603.1449889142267" y2="458.061593276054" stroke="rgb(0,0,0)" stroke-width="1"/><line x1="603.1449889142267" y1="458.061593276054" x2="224.78485370542953" y2="653.1189672921488" stroke="rgb(0,0,0)" stroke-width="1"/><line x1="154.56076356516544" y1="140.14043653622764" x2="626.903618551067" y2="208.8907165761595" stroke="rgb(0,0,0)" stroke-width="1"/><line x1="244.04073042123926" y1="544.1075276844626" x2="626.903618551067" y2="208.8907165761595" stroke="rgb(0,0,0)" stroke-width="1"/><line x1="626.903618551067" y1="208.8907165761595" x2="154.56076356516544" y2="140.14043653622764" stroke="rgb(0,0,0)" stroke-width="1"/><line x1="155.85204402553254" y1="567.25781500976" x2="593.4339507521831" y2="290.41454396884336" stroke="rgb(0,0,0)" stroke-width="1"/><line x1="594.8629816170225" y1="327.951447937572" x2="496.36272659091554" y2="652.1275618269574" stroke="rgb(0,0,0)" stroke-width="1"/><line x1="155.85204402553254" y1="567.25781500976" x2="284.15777014800415" y2="334.0980518364013" stroke="rgb(0,0,0)" stroke-width="1"/><line x1="496.36272659091554" y1="652.1275618269574" x2="244.04073042123926" y2="544.1075276844626" stroke="rgb(0,0,0)" stroke-width="1"/><line x1="626.903618551067" y1="208.8907165761595" x2="603.1449889142267" y2="458.061593276054" stroke="rgb(0,0,0)" stroke-width="1"/><polygon points="10,0 20,3 20,-3" fill="black" transform="translate(594.8629816170225,327.951447937572) rotate(106.90129784544224)"/><polygon points="10,0 20,3 20,-3" fill="black" transform="translate(113.22227184467899,459.63341582881907) rotate(32.851762836904015)"/><polygon points="10,0 20,3 20,-3" fill="black" transform="translate(626.903618551067,208.8907165761595) rotate(95.44672850985016)"/><polygon points="10,0 20,3 20,-3" fill="black" transform="translate(155.85204402553254,567.25781500976) rotate(327.6798469150294)"/><polygon points="10,0 20,3 20,-3" fill="black" transform="translate(626.903618551067,208.8907165761595) rotate(174.61927317149636)"/><polygon points="10,0 20,3 20,-3" fill="black" transform="translate(217.76459055887557,247.4268898826104) rotate(354.6192731714964)"/><polygon points="10,0 20,3 20,-3" fill="black" transform="translate(626.903618551067,208.8907165761595) rotate(105.42810942184093)"/><polygon points="10,0 20,3 20,-3" fill="black" transform="translate(244.04073042123926,544.1075276844626) rotate(318.7961293585651)"/><polygon points="10,0 20,3 20,-3" fill="black" transform="translate(244.04073042123926,544.1075276844626) rotate(212.85176283690404)"/><polygon points="10,0 20,3 20,-3" fill="black" transform="translate(496.36272659091554,652.1275618269574) rotate(203.1759566137771)"/><polygon points="10,0 20,3 20,-3" fill="black" transform="translate(155.85204402553254,567.25781500976) rotate(298.82359429174403)"/><polygon points="10,0 20,3 20,-3" fill="black" transform="translate(155.85204402553254,567.25781500976) rotate(322.7368112717601)"/><polygon points="10,0 20,3 20,-3" fill="black" transform="translate(570.846891239909,412.01409306189123) rotate(285.428109421841)"/><polygon points="10,0 20,3 20,-3" fill="black" transform="translate(626.903618551067,208.8907165761595) rotate(142.73681127176005)"/><polygon points="10,0 20,3 20,-3" fill="black" transform="translate(603.1449889142267,458.061593276054) rotate(152.72737235276747)"/><polygon points="10,0 20,3 20,-3" fill="black" transform="translate(224.78485370542953,653.1189672921488) rotate(332.7273723527675)"/><polygon points="10,0 20,3 20,-3" fill="black" transform="translate(626.903618551067,208.8907165761595) rotate(188.28134093820543)"/><polygon points="10,0 20,3 20,-3" fill="black" transform="translate(626.903618551067,208.8907165761595) rotate(138.7961293585651)"/><polygon points="10,0 20,3 20,-3" fill="black" transform="translate(154.56076356516544,140.14043653622764) rotate(8.281340938205403)"/><polygon points="10,0 20,3 20,-3" fill="black" transform="translate(593.4339507521831,290.41454396884336) rotate(147.67984691502937)"/><polygon points="10,0 20,3 20,-3" fill="black" transform="translate(496.36272659091554,652.1275618269574) rotate(286.90129784544223)"/><polygon points="10,0 20,3 20,-3" fill="black" transform="translate(284.15777014800415,334.0980518364013) rotate(118.82359429174406)"/><polygon points="10,0 20,3 20,-3" fill="black" transform="translate(244.04073042123926,544.1075276844626) rotate(23.17595661377706)"/><polygon points="10,0 20,3 20,-3" fill="black" transform="translate(603.1449889142267,458.061593276054) rotate(275.4467285098502)"/><circle cx="284.15777014800415" cy="334.0980518364013" r="10" fill="rgb(255,255,0)" stroke="rgb(0,0,0)" stroke-width="1"/><circle cx="626.903618551067" cy="208.8907165761595" r="10" fill="rgb(255,255,0)" stroke="rgb(0,0,0)" stroke-width="1"/><circle cx="155.85204402553254" cy="567.25781500976" r="10" fill="rgb(255,255,0)" stroke="rgb(0,0,0)" stroke-width="1"/><circle cx="217.76459055887557" cy="247.4268898826104" r="10" fill="rgb(255,255,0)" stroke="rgb(0,0,0)" stroke-width="1"/><circle cx="603.1449889142267" cy="458.061593276054" r="10" fill="rgb(255,255,0)" stroke="rgb(0,0,0)" stroke-width="1"/><circle cx="113.22227184467899" cy="459.63341582881907" r="10" fill="rgb(255,255,0)" stroke="rgb(0,0,0)" stroke-width="1"/><circle cx="154.56076356516544" cy="140.14043653622764" r="10" fill="rgb(255,255,0)" stroke="rgb(0,0,0)" stroke-width="1"/><circle cx="224.78485370542953" cy="653.1189672921488" r="10" fill="rgb(255,255,0)" stroke="rgb(0,0,0)" stroke-width="1"/><circle cx="244.04073042123926" cy="544.1075276844626" r="10" fill="rgb(255,255,0)" stroke="rgb(0,0,0)" stroke-width="1"/><circle cx="593.4339507521831" cy="290.41454396884336" r="10" fill="rgb(255,255,0)" stroke="rgb(0,0,0)" stroke-width="1"/><circle cx="570.846891239909" cy="412.01409306189123" r="10" fill="rgb(255,255,0)" stroke="rgb(0,0,0)" stroke-width="1"/><circle cx="594.8629816170225" cy="327.951447937572" r="10" fill="rgb(255,255,0)" stroke="rgb(0,0,0)" stroke-width="1"/><circle cx="496.36272659091554" cy="652.1275618269574" r="10" fill="rgb(255,255,0)" stroke="rgb(0,0,0)" stroke-width="1"/><text text-anchor="middle" alignment-baseline="middle" x="284.15777014800415" y="334.0980518364013" fill="rgb(0,0,0)" font-size="12">inch (in)</text><text text-anchor="middle" alignment-baseline="middle" x="626.903618551067" y="208.8907165761595" fill="rgb(0,0,0)" font-size="12">meter (m)</text><text text-anchor="middle" alignment-baseline="middle" x="155.85204402553254" y="567.25781500976" fill="rgb(0,0,0)" font-size="12">foot (ft)</text><text text-anchor="middle" alignment-baseline="middle" x="217.76459055887557" y="247.4268898826104" fill="rgb(0,0,0)" font-size="12">micrometer (μm)</text><text text-anchor="middle" alignment-baseline="middle" x="603.1449889142267" y="458.061593276054" fill="rgb(0,0,0)" font-size="12">nanometer (nm)</text><text text-anchor="middle" alignment-baseline="middle" x="113.22227184467899" y="459.63341582881907" fill="rgb(0,0,0)" font-size="12">Astronomical Unit (AU)</text><text text-anchor="middle" alignment-baseline="middle" x="154.56076356516544" y="140.14043653622764" fill="rgb(0,0,0)" font-size="12">millimeter (mm)</text><text text-anchor="middle" alignment-baseline="middle" x="224.78485370542953" y="653.1189672921488" fill="rgb(0,0,0)" font-size="12">Planck length (ℓP)</text><text text-anchor="middle" alignment-baseline="middle" x="244.04073042123926" y="544.1075276844626" fill="rgb(0,0,0)" font-size="12">kilometer (km)</text><text text-anchor="middle" alignment-baseline="middle" x="593.4339507521831" y="290.41454396884336" fill="rgb(0,0,0)" font-size="12">mile (m)</text><text text-anchor="middle" alignment-baseline="middle" x="570.846891239909" y="412.01409306189123" fill="rgb(0,0,0)" font-size="12">centimeter (cm)</text><text text-anchor="middle" alignment-baseline="middle" x="594.8629816170225" y="327.951447937572" fill="rgb(0,0,0)" font-size="12">parsec (pc)</text><text text-anchor="middle" alignment-baseline="middle" x="496.36272659091554" y="652.1275618269574" fill="rgb(0,0,0)" font-size="12">lightyear (ly)</text><text text-anchor="middle" alignment-baseline="middle" x="555.4628796065797" y="457.6218934933262" fill="rgb(0,0,0)" font-size="12">3.26</text><text text-anchor="middle" alignment-baseline="middle" x="165.5496552753031" y="493.4230605710765" fill="rgb(0,0,0)" font-size="12">1.495978707E8</text><text text-anchor="middle" alignment-baseline="middle" x="617.4001666963309" y="308.55906725611726" fill="rgb(0,0,0)" font-size="12">1.0E9</text><text text-anchor="middle" alignment-baseline="middle" x="330.8848067161928" y="456.5205065933933" fill="rgb(0,0,0)" font-size="12">1.893939393939394E-4</text><text text-anchor="middle" alignment-baseline="middle" x="463.2480073541904" y="224.30518589873986" fill="rgb(0,0,0)" font-size="12">1000000.0</text><text text-anchor="middle" alignment-baseline="middle" x="381.42020175575215" y="232.01242056003002" fill="rgb(0,0,0)" font-size="12">1.0000000000000006E-6</text><text text-anchor="middle" alignment-baseline="middle" x="604.4809276266038" y="290.1400671704522" fill="rgb(0,0,0)" font-size="12">100.0</text><text text-anchor="middle" alignment-baseline="middle" x="397.18588567317033" y="410.0208032411414" fill="rgb(0,0,0)" font-size="12">1000.0</text><text text-anchor="middle" alignment-baseline="middle" x="191.71334699061515" y="510.3178829422052" fill="rgb(0,0,0)" font-size="12">6.6845871222684464E-9</text><text text-anchor="middle" alignment-baseline="middle" x="395.433928123045" y="608.9195481699595" fill="rgb(0,0,0)" font-size="12">9.4607304725808E12</text><text text-anchor="middle" alignment-baseline="middle" x="207.17433447452117" y="473.9939097404165" fill="rgb(0,0,0)" font-size="12">12.0</text><text text-anchor="middle" alignment-baseline="middle" x="344.27267383574633" y="423.9109756363198" fill="rgb(0,0,0)" font-size="12">0.3048</text><text text-anchor="middle" alignment-baseline="middle" x="593.2695821643722" y="330.7647424675985" fill="rgb(0,0,0)" font-size="12">0.010000000000000002</text><text text-anchor="middle" alignment-baseline="middle" x="438.4829887408532" y="352.2375559495997" fill="rgb(0,0,0)" font-size="12">3.2808398950131235</text><text text-anchor="middle" alignment-baseline="middle" x="451.8009348307078" y="536.0845428824919" fill="rgb(0,0,0)" font-size="12">1.6162E-26</text><text text-anchor="middle" alignment-baseline="middle" x="376.1289077889484" y="575.0960176857109" fill="rgb(0,0,0)" font-size="12">6.187353050365054E25</text><text text-anchor="middle" alignment-baseline="middle" x="437.9664765567064" y="181.39060456018674" fill="rgb(0,0,0)" font-size="12">1000.0</text><text text-anchor="middle" alignment-baseline="middle" x="473.7584632991359" y="342.97744101948075" fill="rgb(0,0,0)" font-size="12">0.0010000000000000002</text><text text-anchor="middle" alignment-baseline="middle" x="343.49790555952603" y="167.64054855220039" fill="rgb(0,0,0)" font-size="12">0.0010000000000000002</text><text text-anchor="middle" alignment-baseline="middle" x="418.4011880615228" y="401.15185238520996" fill="rgb(0,0,0)" font-size="12">5280.0</text><text text-anchor="middle" alignment-baseline="middle" x="535.7628286013583" y="522.4571162712032" fill="rgb(0,0,0)" font-size="12">0.3067484662576687</text><text text-anchor="middle" alignment-baseline="middle" x="232.83547969901548" y="427.36195710574475" fill="rgb(0,0,0)" font-size="12">0.08333333333333333</text><text text-anchor="middle" alignment-baseline="middle" x="344.96952888910977" y="587.3155413414605" fill="rgb(0,0,0)" font-size="12">1.0570008340246153E-13</text><text text-anchor="middle" alignment-baseline="middle" x="612.6484407689628" y="358.39324259609623" fill="rgb(0,0,0)" font-size="12">1.0000000000000009E-9</text>
      Sorry, your browser does not support inline SVG.
    </svg>