<?xml version='1.0' encoding='UTF-8'?>
<svg version="1.1" width="700.0" height="700.0" onload="init(evt)" xmlns="http://www.w3.org/2000/svg">
      <style>.caption {
  font-size: 14px;
  font-family: Georgia, serif;
}
</style>
      <script type="text/ecmascript"><![CDATA[
function init(evt) {
  if ( window.svgDocument == null ) {
    svgDocument = evt.target.ownerDocument;
  }
}

function RectHover(evt, i, c) {
  rect = svgDocument.getElementById('rect' + i);
  if( c != null ) {
    rect.setAttributeNS(null, "fill", c)  
  }
  tooltiptext = svgDocument.getElementById('tooltiptext' + i);
  tooltipbg = svgDocument.getElementById('tooltipbg' + i);
  if( tooltipbg != null) {
    tbb = tooltiptext.getBBox();
    tooltipbg.setAttributeNS(null, "width", tbb.width);
    tooltipbg.setAttributeNS(null, "height", tbb.height);
    tooltipbg.setAttributeNS(null, "x", tbb.x);
    tooltipbg.setAttributeNS(null, "y", tbb.y);
    tooltipbg.setAttributeNS(null, "visibility", "visible");
  }
  tooltiptext.setAttributeNS(null,"visibility","visible");
}

function RectUnhover(evt, i, c) {
  rect = svgDocument.getElementById('rect' + i);
  if( c != null ) {
    rect.setAttributeNS(null, "fill", c)  
  }
  tooltiptext = svgDocument.getElementById('tooltiptext' + i);
  tooltiptext.setAttributeNS(null,"visibility","hidden");
  tooltipbg = svgDocument.getElementById('tooltipbg' + i);
  if( tooltipbg != null ) {
    tooltipbg.setAttributeNS(null,"visibility","hidden");
  }
}
]]></script>
      <line x1="215.07123063142066" y1="133.37496380164526" x2="43.0872676843999" y2="196.37707493119004" stroke="rgb(0,0,0)" stroke-width="1"/><line x1="241.74987579817454" y1="613.1656000152101" x2="215.07123063142066" y2="133.37496380164526" stroke="rgb(0,0,0)" stroke-width="1"/><line x1="315.4783594818672" y1="146.58226847341592" x2="215.07123063142066" y2="133.37496380164526" stroke="rgb(0,0,0)" stroke-width="1"/><line x1="215.07123063142066" y1="133.37496380164526" x2="241.74987579817454" y2="613.1656000152101" stroke="rgb(0,0,0)" stroke-width="1"/><line x1="325.64579322998696" y1="227.35088785488495" x2="173.22254902024383" y2="618.1158031392034" stroke="rgb(0,0,0)" stroke-width="1"/><line x1="43.0872676843999" y1="196.37707493119004" x2="215.07123063142066" y2="133.37496380164526" stroke="rgb(0,0,0)" stroke-width="1"/><line x1="215.07123063142066" y1="133.37496380164526" x2="530.7134894856824" y2="223.5803429163342" stroke="rgb(0,0,0)" stroke-width="1"/><line x1="325.64579322998696" y1="227.35088785488495" x2="215.07123063142066" y2="133.37496380164526" stroke="rgb(0,0,0)" stroke-width="1"/><line x1="241.74987579817454" y1="613.1656000152101" x2="64.0688505306319" y2="638.4348625018822" stroke="rgb(0,0,0)" stroke-width="1"/><line x1="241.74987579817454" y1="613.1656000152101" x2="329.10467254088695" y2="62.035029048422174" stroke="rgb(0,0,0)" stroke-width="1"/><line x1="215.07123063142066" y1="133.37496380164526" x2="325.64579322998696" y2="227.35088785488495" stroke="rgb(0,0,0)" stroke-width="1"/><line x1="215.07123063142066" y1="133.37496380164526" x2="632.192636316471" y2="666.4379127360422" stroke="rgb(0,0,0)" stroke-width="1"/><line x1="325.64579322998696" y1="227.35088785488495" x2="25.5674211797853" y2="382.86709488492494" stroke="rgb(0,0,0)" stroke-width="1"/><line x1="632.192636316471" y1="666.4379127360422" x2="215.07123063142066" y2="133.37496380164526" stroke="rgb(0,0,0)" stroke-width="1"/><line x1="530.7134894856824" y1="223.5803429163342" x2="215.07123063142066" y2="133.37496380164526" stroke="rgb(0,0,0)" stroke-width="1"/><line x1="261.7253171838426" y1="67.92784506577085" x2="329.10467254088695" y2="62.035029048422174" stroke="rgb(0,0,0)" stroke-width="1"/><line x1="64.0688505306319" y1="638.4348625018822" x2="241.74987579817454" y2="613.1656000152101" stroke="rgb(0,0,0)" stroke-width="1"/><line x1="120.89492779131581" y1="359.9458601150217" x2="43.0872676843999" y2="196.37707493119004" stroke="rgb(0,0,0)" stroke-width="1"/><line x1="25.5674211797853" y1="382.86709488492494" x2="325.64579322998696" y2="227.35088785488495" stroke="rgb(0,0,0)" stroke-width="1"/><line x1="329.10467254088695" y1="62.035029048422174" x2="261.7253171838426" y2="67.92784506577085" stroke="rgb(0,0,0)" stroke-width="1"/><line x1="329.10467254088695" y1="62.035029048422174" x2="241.74987579817454" y2="613.1656000152101" stroke="rgb(0,0,0)" stroke-width="1"/><line x1="43.0872676843999" y1="196.37707493119004" x2="120.89492779131581" y2="359.9458601150217" stroke="rgb(0,0,0)" stroke-width="1"/><line x1="173.22254902024383" y1="618.1158031392034" x2="325.64579322998696" y2="227.35088785488495" stroke="rgb(0,0,0)" stroke-width="1"/><line x1="215.07123063142066" y1="133.37496380164526" x2="315.4783594818672" y2="146.58226847341592" stroke="rgb(0,0,0)" stroke-width="1"/><polygon points="10,0 20,3 20,-3" fill="black" transform="translate(43.0872676843999,196.37707493119004) rotate(339.88092931945715)"/><polygon points="10,0 20,3 20,-3" fill="black" transform="translate(215.07123063142066,133.37496380164526) rotate(86.81735911838808)"/><polygon points="10,0 20,3 20,-3" fill="black" transform="translate(215.07123063142066,133.37496380164526) rotate(7.493524382251053)"/><polygon points="10,0 20,3 20,-3" fill="black" transform="translate(241.74987579817454,613.1656000152101) rotate(266.81735911838814)"/><polygon points="10,0 20,3 20,-3" fill="black" transform="translate(173.22254902024383,618.1158031392034) rotate(291.3089559734291)"/><polygon points="10,0 20,3 20,-3" fill="black" transform="translate(215.07123063142066,133.37496380164526) rotate(159.88092931945712)"/><polygon points="10,0 20,3 20,-3" fill="black" transform="translate(530.7134894856824,223.5803429163342) rotate(195.94906719585623)"/><polygon points="10,0 20,3 20,-3" fill="black" transform="translate(215.07123063142066,133.37496380164526) rotate(40.36078989315581)"/><polygon points="10,0 20,3 20,-3" fill="black" transform="translate(64.0688505306319,638.4348625018822) rotate(351.90584476030443)"/><polygon points="10,0 20,3 20,-3" fill="black" transform="translate(329.10467254088695,62.035029048422174) rotate(99.00651991076583)"/><polygon points="10,0 20,3 20,-3" fill="black" transform="translate(325.64579322998696,227.35088785488495) rotate(220.36078989315584)"/><polygon points="10,0 20,3 20,-3" fill="black" transform="translate(632.192636316471,666.4379127360422) rotate(231.9568433878213)"/><polygon points="10,0 20,3 20,-3" fill="black" transform="translate(25.5674211797853,382.86709488492494) rotate(332.6044620091965)"/><polygon points="10,0 20,3 20,-3" fill="black" transform="translate(215.07123063142066,133.37496380164526) rotate(51.956843387821294)"/><polygon points="10,0 20,3 20,-3" fill="black" transform="translate(215.07123063142066,133.37496380164526) rotate(15.949067195856202)"/><polygon points="10,0 20,3 20,-3" fill="black" transform="translate(329.10467254088695,62.035029048422174) rotate(175.0017837556173)"/><polygon points="10,0 20,3 20,-3" fill="black" transform="translate(241.74987579817454,613.1656000152101) rotate(171.9058447603044)"/><polygon points="10,0 20,3 20,-3" fill="black" transform="translate(43.0872676843999,196.37707493119004) rotate(64.56014145939002)"/><polygon points="10,0 20,3 20,-3" fill="black" transform="translate(325.64579322998696,227.35088785488495) rotate(152.60446200919642)"/><polygon points="10,0 20,3 20,-3" fill="black" transform="translate(261.7253171838426,67.92784506577085) rotate(355.00178375561734)"/><polygon points="10,0 20,3 20,-3" fill="black" transform="translate(241.74987579817454,613.1656000152101) rotate(279.00651991076586)"/><polygon points="10,0 20,3 20,-3" fill="black" transform="translate(120.89492779131581,359.9458601150217) rotate(244.56014145939002)"/><polygon points="10,0 20,3 20,-3" fill="black" transform="translate(325.64579322998696,227.35088785488495) rotate(111.30895597342905)"/><polygon points="10,0 20,3 20,-3" fill="black" transform="translate(315.4783594818672,146.58226847341592) rotate(187.49352438225105)"/><circle cx="173.22254902024383" cy="618.1158031392034" r="10" fill="rgb(255,255,0)" stroke="rgb(0,0,0)" stroke-width="1"/><circle cx="215.07123063142066" cy="133.37496380164526" r="10" fill="rgb(255,255,0)" stroke="rgb(0,0,0)" stroke-width="1"/><circle cx="325.64579322998696" cy="227.35088785488495" r="10" fill="rgb(255,255,0)" stroke="rgb(0,0,0)" stroke-width="1"/><circle cx="632.192636316471" cy="666.4379127360422" r="10" fill="rgb(255,255,0)" stroke="rgb(0,0,0)" stroke-width="1"/><circle cx="43.0872676843999" cy="196.37707493119004" r="10" fill="rgb(255,255,0)" stroke="rgb(0,0,0)" stroke-width="1"/><circle cx="64.0688505306319" cy="638.4348625018822" r="10" fill="rgb(255,255,0)" stroke="rgb(0,0,0)" stroke-width="1"/><circle cx="315.4783594818672" cy="146.58226847341592" r="10" fill="rgb(255,255,0)" stroke="rgb(0,0,0)" stroke-width="1"/><circle cx="120.89492779131581" cy="359.9458601150217" r="10" fill="rgb(255,255,0)" stroke="rgb(0,0,0)" stroke-width="1"/><circle cx="241.74987579817454" cy="613.1656000152101" r="10" fill="rgb(255,255,0)" stroke="rgb(0,0,0)" stroke-width="1"/><circle cx="25.5674211797853" cy="382.86709488492494" r="10" fill="rgb(255,255,0)" stroke="rgb(0,0,0)" stroke-width="1"/><circle cx="530.7134894856824" cy="223.5803429163342" r="10" fill="rgb(255,255,0)" stroke="rgb(0,0,0)" stroke-width="1"/><circle cx="261.7253171838426" cy="67.92784506577085" r="10" fill="rgb(255,255,0)" stroke="rgb(0,0,0)" stroke-width="1"/><circle cx="329.10467254088695" cy="62.035029048422174" r="10" fill="rgb(255,255,0)" stroke="rgb(0,0,0)" stroke-width="1"/><text text-anchor="middle" alignment-baseline="middle" x="173.22254902024383" y="618.1158031392034" fill="rgb(0,0,0)" font-size="12">inch (in)</text><text text-anchor="middle" alignment-baseline="middle" x="215.07123063142066" y="133.37496380164526" fill="rgb(0,0,0)" font-size="12">meter (m)</text><text text-anchor="middle" alignment-baseline="middle" x="325.64579322998696" y="227.35088785488495" fill="rgb(0,0,0)" font-size="12">foot (ft)</text><text text-anchor="middle" alignment-baseline="middle" x="632.192636316471" y="666.4379127360422" fill="rgb(0,0,0)" font-size="12">micrometer (μm)</text><text text-anchor="middle" alignment-baseline="middle" x="43.0872676843999" y="196.37707493119004" fill="rgb(0,0,0)" font-size="12">nanometer (nm)</text><text text-anchor="middle" alignment-baseline="middle" x="64.0688505306319" y="638.4348625018822" fill="rgb(0,0,0)" font-size="12">Astronomical Unit (AU)</text><text text-anchor="middle" alignment-baseline="middle" x="315.4783594818672" y="146.58226847341592" fill="rgb(0,0,0)" font-size="12">millimeter (mm)</text><text text-anchor="middle" alignment-baseline="middle" x="120.89492779131581" y="359.9458601150217" fill="rgb(0,0,0)" font-size="12">Planck length (ℓP)</text><text text-anchor="middle" alignment-baseline="middle" x="241.74987579817454" y="613.1656000152101" fill="rgb(0,0,0)" font-size="12">kilometer (km)</text><text text-anchor="middle" alignment-baseline="middle" x="25.5674211797853" y="382.86709488492494" fill="rgb(0,0,0)" font-size="12">mile (m)</text><text text-anchor="middle" alignment-baseline="middle" x="530.7134894856824" y="223.5803429163342" fill="rgb(0,0,0)" font-size="12">centimeter (cm)</text><text text-anchor="middle" alignment-baseline="middle" x="261.7253171838426" y="67.92784506577085" fill="rgb(0,0,0)" font-size="12">parsec (pc)</text><text text-anchor="middle" alignment-baseline="middle" x="329.10467254088695" y="62.035029048422174" fill="rgb(0,0,0)" font-size="12">lightyear (ly)</text><text text-anchor="middle" alignment-baseline="middle" x="111.8808528632082" y="171.17623047937212" fill="rgb(0,0,0)" font-size="12">1.0000000000000009E-9</text><text text-anchor="middle" alignment-baseline="middle" x="225.7426886981222" y="325.2912182870712" fill="rgb(0,0,0)" font-size="12">0.0010000000000000002</text><text text-anchor="middle" alignment-baseline="middle" x="255.23408217159928" y="138.65788567035352" fill="rgb(0,0,0)" font-size="12">1000.0</text><text text-anchor="middle" alignment-baseline="middle" x="231.078417731473" y="421.24934552978414" fill="rgb(0,0,0)" font-size="12">1000.0</text><text text-anchor="middle" alignment-baseline="middle" x="234.19184670414108" y="461.809837025476" fill="rgb(0,0,0)" font-size="12">0.08333333333333333</text><text text-anchor="middle" alignment-baseline="middle" x="146.27764545261235" y="158.57580825346318" fill="rgb(0,0,0)" font-size="12">1.0E9</text><text text-anchor="middle" alignment-baseline="middle" x="404.4565859439777" y="187.49819127045862" fill="rgb(0,0,0)" font-size="12">0.010000000000000002</text><text text-anchor="middle" alignment-baseline="middle" x="259.3010556708472" y="170.96533342294114" fill="rgb(0,0,0)" font-size="12">3.2808398950131235</text><text text-anchor="middle" alignment-baseline="middle" x="135.14126063764897" y="628.3271575072133" fill="rgb(0,0,0)" font-size="12">1.495978707E8</text><text text-anchor="middle" alignment-baseline="middle" x="294.16275384380197" y="282.48725743513734" fill="rgb(0,0,0)" font-size="12">9.4607304725808E12</text><text text-anchor="middle" alignment-baseline="middle" x="281.4159681905604" y="189.76051823358907" fill="rgb(0,0,0)" font-size="12">0.3048</text><text text-anchor="middle" alignment-baseline="middle" x="465.3440740424508" y="453.21273316228337" fill="rgb(0,0,0)" font-size="12">1.0000000000000006E-6</text><text text-anchor="middle" alignment-baseline="middle" x="145.59876999986597" y="320.6606120729089" fill="rgb(0,0,0)" font-size="12">5280.0</text><text text-anchor="middle" alignment-baseline="middle" x="381.9197929054408" y="346.6001433754041" fill="rgb(0,0,0)" font-size="12">1000000.0</text><text text-anchor="middle" alignment-baseline="middle" x="341.32813417312536" y="169.45711544752083" fill="rgb(0,0,0)" font-size="12">100.0</text><text text-anchor="middle" alignment-baseline="middle" x="302.1529303980692" y="64.39215545536165" fill="rgb(0,0,0)" font-size="12">0.3067484662576687</text><text text-anchor="middle" alignment-baseline="middle" x="170.67746569115747" y="623.273305009879" fill="rgb(0,0,0)" font-size="12">6.6845871222684464E-9</text><text text-anchor="middle" alignment-baseline="middle" x="74.21033172716628" y="261.8045890047227" fill="rgb(0,0,0)" font-size="12">1.6162E-26</text><text text-anchor="middle" alignment-baseline="middle" x="205.6144444099063" y="289.55737066690097" fill="rgb(0,0,0)" font-size="12">1.893939393939394E-4</text><text text-anchor="middle" alignment-baseline="middle" x="288.67705932666036" y="65.57071865883138" fill="rgb(0,0,0)" font-size="12">3.26</text><text text-anchor="middle" alignment-baseline="middle" x="276.6917944952595" y="392.71337162849494" fill="rgb(0,0,0)" font-size="12">1.0570008340246153E-13</text><text text-anchor="middle" alignment-baseline="middle" x="89.77186374854944" y="294.518346041489" fill="rgb(0,0,0)" font-size="12">6.187353050365054E25</text><text text-anchor="middle" alignment-baseline="middle" x="264.6764955460897" y="383.6568539686124" fill="rgb(0,0,0)" font-size="12">12.0</text><text text-anchor="middle" alignment-baseline="middle" x="275.31550794168857" y="141.29934660470767" fill="rgb(0,0,0)" font-size="12">0.0010000000000000002</text>
      Sorry, your browser does not support inline SVG.
    </svg>