<?xml version='1.0' encoding='UTF-8'?>
<svg version="1.1" width="700.0" height="700.0" onload="init(evt)" xmlns="http://www.w3.org/2000/svg">
      <style>.caption {
  font-size: 14px;
  font-family: Georgia, serif;
}
</style>
      <script type="text/ecmascript"><![CDATA[
function init(evt) {
  if ( window.svgDocument == null ) {
    svgDocument = evt.target.ownerDocument;
  }
}

function RectHover(evt, i, c) {
  rect = svgDocument.getElementById('rect' + i);
  if( c != null ) {
    rect.setAttributeNS(null, "fill", c)  
  }
  tooltiptext = svgDocument.getElementById('tooltiptext' + i);
  tooltipbg = svgDocument.getElementById('tooltipbg' + i);
  if( tooltipbg != null) {
    tbb = tooltiptext.getBBox();
    tooltipbg.setAttributeNS(null, "width", tbb.width);
    tooltipbg.setAttributeNS(null, "height", tbb.height);
    tooltipbg.setAttributeNS(null, "x", tbb.x);
    tooltipbg.setAttributeNS(null, "y", tbb.y);
    tooltipbg.setAttributeNS(null, "visibility", "visible");
  }
  tooltiptext.setAttributeNS(null,"visibility","visible");
}

function RectUnhover(evt, i, c) {
  rect = svgDocument.getElementById('rect' + i);
  if( c != null ) {
    rect.setAttributeNS(null, "fill", c)  
  }
  tooltiptext = svgDocument.getElementById('tooltiptext' + i);
  tooltiptext.setAttributeNS(null,"visibility","hidden");
  tooltipbg = svgDocument.getElementById('tooltipbg' + i);
  if( tooltipbg != null ) {
    tooltipbg.setAttributeNS(null,"visibility","hidden");
  }
}
]]></script>
      <line x1="450.9720207295181" y1="34.729225282996026" x2="607.8270448883048" y2="167.0620159935097" stroke="rgb(0,0,0)" stroke-width="1"/><line x1="501.7013080063525" y1="254.13321909312634" x2="512.8547998571371" y2="681.1254637487476" stroke="rgb(0,0,0)" stroke-width="1"/><line x1="507.20788026280235" y1="526.2277816108929" x2="287.991685196692" y2="151.4034655913922" stroke="rgb(0,0,0)" stroke-width="1"/><line x1="370.8978323703723" y1="470.5570240960348" x2="307.0732490684327" y2="355.60965798696884" stroke="rgb(0,0,0)" stroke-width="1"/><line x1="307.0732490684327" y1="355.60965798696884" x2="370.8978323703723" y2="470.5570240960348" stroke="rgb(0,0,0)" stroke-width="1"/><line x1="347.2916447232461" y1="197.7259339559671" x2="126.43797404130905" y2="472.37001603043115" stroke="rgb(0,0,0)" stroke-width="1"/><line x1="501.7013080063525" y1="254.13321909312634" x2="607.8270448883048" y2="167.0620159935097" stroke="rgb(0,0,0)" stroke-width="1"/><line x1="126.43797404130905" y1="472.37001603043115" x2="164.9350648958839" y2="33.16577248706009" stroke="rgb(0,0,0)" stroke-width="1"/><line x1="607.8270448883048" y1="167.0620159935097" x2="450.9720207295181" y2="34.729225282996026" stroke="rgb(0,0,0)" stroke-width="1"/><line x1="126.43797404130905" y1="472.37001603043115" x2="347.2916447232461" y2="197.7259339559671" stroke="rgb(0,0,0)" stroke-width="1"/><line x1="451.14977579866303" y1="60.59470131680139" x2="507.20788026280235" y2="526.2277816108929" stroke="rgb(0,0,0)" stroke-width="1"/><line x1="607.8270448883048" y1="167.0620159935097" x2="501.7013080063525" y2="254.13321909312634" stroke="rgb(0,0,0)" stroke-width="1"/><line x1="126.43797404130905" y1="472.37001603043115" x2="507.20788026280235" y2="526.2277816108929" stroke="rgb(0,0,0)" stroke-width="1"/><line x1="287.991685196692" y1="151.4034655913922" x2="507.20788026280235" y2="526.2277816108929" stroke="rgb(0,0,0)" stroke-width="1"/><line x1="126.43797404130905" y1="472.37001603043115" x2="501.7013080063525" y2="254.13321909312634" stroke="rgb(0,0,0)" stroke-width="1"/><line x1="307.0732490684327" y1="355.60965798696884" x2="126.43797404130905" y2="472.37001603043115" stroke="rgb(0,0,0)" stroke-width="1"/><line x1="507.20788026280235" y1="526.2277816108929" x2="126.43797404130905" y2="472.37001603043115" stroke="rgb(0,0,0)" stroke-width="1"/><line x1="164.9350648958839" y1="33.16577248706009" x2="126.43797404130905" y2="472.37001603043115" stroke="rgb(0,0,0)" stroke-width="1"/><line x1="126.43797404130905" y1="472.37001603043115" x2="618.3207246070108" y2="419.9954142136741" stroke="rgb(0,0,0)" stroke-width="1"/><line x1="501.7013080063525" y1="254.13321909312634" x2="126.43797404130905" y2="472.37001603043115" stroke="rgb(0,0,0)" stroke-width="1"/><line x1="507.20788026280235" y1="526.2277816108929" x2="451.14977579866303" y2="60.59470131680139" stroke="rgb(0,0,0)" stroke-width="1"/><line x1="618.3207246070108" y1="419.9954142136741" x2="126.43797404130905" y2="472.37001603043115" stroke="rgb(0,0,0)" stroke-width="1"/><line x1="126.43797404130905" y1="472.37001603043115" x2="307.0732490684327" y2="355.60965798696884" stroke="rgb(0,0,0)" stroke-width="1"/><line x1="512.8547998571371" y1="681.1254637487476" x2="501.7013080063525" y2="254.13321909312634" stroke="rgb(0,0,0)" stroke-width="1"/><polygon points="10,0 20,3 20,-3" fill="black" transform="translate(607.8270448883048,167.0620159935097) rotate(220.15308994375934)"/><polygon points="10,0 20,3 20,-3" fill="black" transform="translate(512.8547998571371,681.1254637487476) rotate(268.5037135114183)"/><polygon points="10,0 20,3 20,-3" fill="black" transform="translate(287.991685196692,151.4034655913922) rotate(59.678747295425)"/><polygon points="10,0 20,3 20,-3" fill="black" transform="translate(307.0732490684327,355.60965798696884) rotate(60.958753459920615)"/><polygon points="10,0 20,3 20,-3" fill="black" transform="translate(370.8978323703723,470.5570240960348) rotate(240.95875345992062)"/><polygon points="10,0 20,3 20,-3" fill="black" transform="translate(126.43797404130905,472.37001603043115) rotate(308.8043279972917)"/><polygon points="10,0 20,3 20,-3" fill="black" transform="translate(607.8270448883048,167.0620159935097) rotate(140.63272350378764)"/><polygon points="10,0 20,3 20,-3" fill="black" transform="translate(164.9350648958839,33.16577248706009) rotate(95.00928215687202)"/><polygon points="10,0 20,3 20,-3" fill="black" transform="translate(450.9720207295181,34.729225282996026) rotate(40.15308994375931)"/><polygon points="10,0 20,3 20,-3" fill="black" transform="translate(347.2916447232461,197.7259339559671) rotate(128.80432799729167)"/><polygon points="10,0 20,3 20,-3" fill="black" transform="translate(507.20788026280235,526.2277816108929) rotate(263.1351342101334)"/><polygon points="10,0 20,3 20,-3" fill="black" transform="translate(501.7013080063525,254.13321909312634) rotate(320.6327235037877)"/><polygon points="10,0 20,3 20,-3" fill="black" transform="translate(507.20788026280235,526.2277816108929) rotate(188.05076060507628)"/><polygon points="10,0 20,3 20,-3" fill="black" transform="translate(507.20788026280235,526.2277816108929) rotate(239.67874729542498)"/><polygon points="10,0 20,3 20,-3" fill="black" transform="translate(501.7013080063525,254.13321909312634) rotate(149.81958364663797)"/><polygon points="10,0 20,3 20,-3" fill="black" transform="translate(126.43797404130905,472.37001603043115) rotate(327.1218835821724)"/><polygon points="10,0 20,3 20,-3" fill="black" transform="translate(126.43797404130905,472.37001603043115) rotate(8.050760605076249)"/><polygon points="10,0 20,3 20,-3" fill="black" transform="translate(126.43797404130905,472.37001603043115) rotate(275.009282156872)"/><polygon points="10,0 20,3 20,-3" fill="black" transform="translate(618.3207246070108,419.9954142136741) rotate(173.92217058530093)"/><polygon points="10,0 20,3 20,-3" fill="black" transform="translate(126.43797404130905,472.37001603043115) rotate(329.81958364663797)"/><polygon points="10,0 20,3 20,-3" fill="black" transform="translate(451.14977579866303,60.59470131680139) rotate(83.13513421013339)"/><polygon points="10,0 20,3 20,-3" fill="black" transform="translate(126.43797404130905,472.37001603043115) rotate(353.92217058530093)"/><polygon points="10,0 20,3 20,-3" fill="black" transform="translate(307.0732490684327,355.60965798696884) rotate(147.12188358217242)"/><polygon points="10,0 20,3 20,-3" fill="black" transform="translate(501.7013080063525,254.13321909312634) rotate(88.50371351141831)"/><circle cx="287.991685196692" cy="151.4034655913922" r="10" fill="rgb(255,255,0)" stroke="rgb(0,0,0)" stroke-width="1"/><circle cx="126.43797404130905" cy="472.37001603043115" r="10" fill="rgb(255,255,0)" stroke="rgb(0,0,0)" stroke-width="1"/><circle cx="507.20788026280235" cy="526.2277816108929" r="10" fill="rgb(255,255,0)" stroke="rgb(0,0,0)" stroke-width="1"/><circle cx="347.2916447232461" cy="197.7259339559671" r="10" fill="rgb(255,255,0)" stroke="rgb(0,0,0)" stroke-width="1"/><circle cx="307.0732490684327" cy="355.60965798696884" r="10" fill="rgb(255,255,0)" stroke="rgb(0,0,0)" stroke-width="1"/><circle cx="512.8547998571371" cy="681.1254637487476" r="10" fill="rgb(255,255,0)" stroke="rgb(0,0,0)" stroke-width="1"/><circle cx="618.3207246070108" cy="419.9954142136741" r="10" fill="rgb(255,255,0)" stroke="rgb(0,0,0)" stroke-width="1"/><circle cx="370.8978323703723" cy="470.5570240960348" r="10" fill="rgb(255,255,0)" stroke="rgb(0,0,0)" stroke-width="1"/><circle cx="501.7013080063525" cy="254.13321909312634" r="10" fill="rgb(255,255,0)" stroke="rgb(0,0,0)" stroke-width="1"/><circle cx="451.14977579866303" cy="60.59470131680139" r="10" fill="rgb(255,255,0)" stroke="rgb(0,0,0)" stroke-width="1"/><circle cx="164.9350648958839" cy="33.16577248706009" r="10" fill="rgb(255,255,0)" stroke="rgb(0,0,0)" stroke-width="1"/><circle cx="450.9720207295181" cy="34.729225282996026" r="10" fill="rgb(255,255,0)" stroke="rgb(0,0,0)" stroke-width="1"/><circle cx="607.8270448883048" cy="167.0620159935097" r="10" fill="rgb(255,255,0)" stroke="rgb(0,0,0)" stroke-width="1"/><text text-anchor="middle" alignment-baseline="middle" x="287.991685196692" y="151.4034655913922" fill="rgb(0,0,0)" font-size="12">inch (in)</text><text text-anchor="middle" alignment-baseline="middle" x="126.43797404130905" y="472.37001603043115" fill="rgb(0,0,0)" font-size="12">meter (m)</text><text text-anchor="middle" alignment-baseline="middle" x="507.20788026280235" y="526.2277816108929" fill="rgb(0,0,0)" font-size="12">foot (ft)</text><text text-anchor="middle" alignment-baseline="middle" x="347.2916447232461" y="197.7259339559671" fill="rgb(0,0,0)" font-size="12">micrometer (μm)</text><text text-anchor="middle" alignment-baseline="middle" x="307.0732490684327" y="355.60965798696884" fill="rgb(0,0,0)" font-size="12">nanometer (nm)</text><text text-anchor="middle" alignment-baseline="middle" x="512.8547998571371" y="681.1254637487476" fill="rgb(0,0,0)" font-size="12">Astronomical Unit (AU)</text><text text-anchor="middle" alignment-baseline="middle" x="618.3207246070108" y="419.9954142136741" fill="rgb(0,0,0)" font-size="12">millimeter (mm)</text><text text-anchor="middle" alignment-baseline="middle" x="370.8978323703723" y="470.5570240960348" fill="rgb(0,0,0)" font-size="12">Planck length (ℓP)</text><text text-anchor="middle" alignment-baseline="middle" x="501.7013080063525" y="254.13321909312634" fill="rgb(0,0,0)" font-size="12">kilometer (km)</text><text text-anchor="middle" alignment-baseline="middle" x="451.14977579866303" y="60.59470131680139" fill="rgb(0,0,0)" font-size="12">mile (m)</text><text text-anchor="middle" alignment-baseline="middle" x="164.9350648958839" y="33.16577248706009" fill="rgb(0,0,0)" font-size="12">centimeter (cm)</text><text text-anchor="middle" alignment-baseline="middle" x="450.9720207295181" y="34.729225282996026" fill="rgb(0,0,0)" font-size="12">parsec (pc)</text><text text-anchor="middle" alignment-baseline="middle" x="607.8270448883048" y="167.0620159935097" fill="rgb(0,0,0)" font-size="12">lightyear (ly)</text><text text-anchor="middle" alignment-baseline="middle" x="545.0850352247901" y="114.12889970930424" fill="rgb(0,0,0)" font-size="12">0.3067484662576687</text><text text-anchor="middle" alignment-baseline="middle" x="508.39340311682327" y="510.3285658864991" fill="rgb(0,0,0)" font-size="12">1.495978707E8</text><text text-anchor="middle" alignment-baseline="middle" x="375.67816322313615" y="301.3331919991925" fill="rgb(0,0,0)" font-size="12">0.08333333333333333</text><text text-anchor="middle" alignment-baseline="middle" x="332.60308238920857" y="401.58860443059524" fill="rgb(0,0,0)" font-size="12">1.6162E-26</text><text text-anchor="middle" alignment-baseline="middle" x="345.36799904959645" y="424.5780776524084" fill="rgb(0,0,0)" font-size="12">6.187353050365054E25</text><text text-anchor="middle" alignment-baseline="middle" x="214.7794423140839" y="362.51238320064556" fill="rgb(0,0,0)" font-size="12">1000000.0</text><text text-anchor="middle" alignment-baseline="middle" x="565.3767501355239" y="201.89049723335637" fill="rgb(0,0,0)" font-size="12">9.4607304725808E12</text><text text-anchor="middle" alignment-baseline="middle" x="149.53622855405396" y="208.8474699044085" fill="rgb(0,0,0)" font-size="12">0.010000000000000002</text><text text-anchor="middle" alignment-baseline="middle" x="513.7140303930328" y="87.6623415672015" fill="rgb(0,0,0)" font-size="12">3.26</text><text text-anchor="middle" alignment-baseline="middle" x="258.9501764504713" y="307.58356678575274" fill="rgb(0,0,0)" font-size="12">1.0000000000000006E-6</text><text text-anchor="middle" alignment-baseline="middle" x="484.78463847714664" y="339.97454949325623" fill="rgb(0,0,0)" font-size="12">1.893939393939394E-4</text><text text-anchor="middle" alignment-baseline="middle" x="544.1516027591334" y="219.30473785327968" fill="rgb(0,0,0)" font-size="12">1.0570008340246153E-13</text><text text-anchor="middle" alignment-baseline="middle" x="354.89991777420505" y="504.68467537870816" fill="rgb(0,0,0)" font-size="12">0.3048</text><text text-anchor="middle" alignment-baseline="middle" x="419.5214022363582" y="376.2980552030926" fill="rgb(0,0,0)" font-size="12">12.0</text><text text-anchor="middle" alignment-baseline="middle" x="351.5959744203351" y="341.4279378680483" fill="rgb(0,0,0)" font-size="12">1000.0</text><text text-anchor="middle" alignment-baseline="middle" x="198.69208405215852" y="425.66587281304624" fill="rgb(0,0,0)" font-size="12">1.0E9</text><text text-anchor="middle" alignment-baseline="middle" x="278.7459365299063" y="493.91312226261584" fill="rgb(0,0,0)" font-size="12">3.2808398950131235</text><text text-anchor="middle" alignment-baseline="middle" x="141.83681038313898" y="296.68831861308274" fill="rgb(0,0,0)" font-size="12">100.0</text><text text-anchor="middle" alignment-baseline="middle" x="421.5676243807301" y="440.9452549403769" fill="rgb(0,0,0)" font-size="12">0.0010000000000000002</text><text text-anchor="middle" alignment-baseline="middle" x="276.5433076273265" y="385.0752972555092" fill="rgb(0,0,0)" font-size="12">0.0010000000000000002</text><text text-anchor="middle" alignment-baseline="middle" x="473.57301758431873" y="246.847933434438" fill="rgb(0,0,0)" font-size="12">5280.0</text><text text-anchor="middle" alignment-baseline="middle" x="323.1910742675898" y="451.42017530372834" fill="rgb(0,0,0)" font-size="12">1000.0</text><text text-anchor="middle" alignment-baseline="middle" x="234.81913905758324" y="402.31380120435375" fill="rgb(0,0,0)" font-size="12">1.0000000000000009E-9</text><text text-anchor="middle" alignment-baseline="middle" x="506.16270474666635" y="424.93011695537484" fill="rgb(0,0,0)" font-size="12">6.6845871222684464E-9</text>
      Sorry, your browser does not support inline SVG.
    </svg>