<?xml version='1.0' encoding='UTF-8'?>
<svg version="1.1" width="700.0" height="700.0" onload="init(evt)" xmlns="http://www.w3.org/2000/svg">
      <style>.caption {
  font-size: 14px;
  font-family: Georgia, serif;
}
</style>
      <script type="text/ecmascript"><![CDATA[
function init(evt) {
  if ( window.svgDocument == null ) {
    svgDocument = evt.target.ownerDocument;
  }
}

function RectHover(evt, i, c) {
  rect = svgDocument.getElementById('rect' + i);
  if( c != null ) {
    rect.setAttributeNS(null, "fill", c)  
  }
  tooltiptext = svgDocument.getElementById('tooltiptext' + i);
  tooltipbg = svgDocument.getElementById('tooltipbg' + i);
  if( tooltipbg != null) {
    tbb = tooltiptext.getBBox();
    tooltipbg.setAttributeNS(null, "width", tbb.width);
    tooltipbg.setAttributeNS(null, "height", tbb.height);
    tooltipbg.setAttributeNS(null, "x", tbb.x);
    tooltipbg.setAttributeNS(null, "y", tbb.y);
    tooltipbg.setAttributeNS(null, "visibility", "visible");
  }
  tooltiptext.setAttributeNS(null,"visibility","visible");
}

function RectUnhover(evt, i, c) {
  rect = svgDocument.getElementById('rect' + i);
  if( c != null ) {
    rect.setAttributeNS(null, "fill", c)  
  }
  tooltiptext = svgDocument.getElementById('tooltiptext' + i);
  tooltiptext.setAttributeNS(null,"visibility","hidden");
  tooltipbg = svgDocument.getElementById('tooltipbg' + i);
  if( tooltipbg != null ) {
    tooltipbg.setAttributeNS(null,"visibility","hidden");
  }
}
]]></script>
      <line x1="362.9470476387941" y1="571.6346031827338" x2="101.47159634551961" y2="63.81275346364742" stroke="rgb(0,0,0)" stroke-width="1"/><line x1="181.06928079122727" y1="556.0263956208397" x2="418.57298450081083" y2="602.3538577770966" stroke="rgb(0,0,0)" stroke-width="1"/><line x1="418.57298450081083" y1="602.3538577770966" x2="362.9470476387941" y2="571.6346031827338" stroke="rgb(0,0,0)" stroke-width="1"/><line x1="362.9470476387941" y1="571.6346031827338" x2="133.78635289706236" y2="657.6261754806691" stroke="rgb(0,0,0)" stroke-width="1"/><line x1="362.9470476387941" y1="571.6346031827338" x2="434.74042026809076" y2="455.5343569604412" stroke="rgb(0,0,0)" stroke-width="1"/><line x1="418.57298450081083" y1="602.3538577770966" x2="181.06928079122727" y2="556.0263956208397" stroke="rgb(0,0,0)" stroke-width="1"/><line x1="362.9470476387941" y1="571.6346031827338" x2="486.41265486150763" y2="646.736027764389" stroke="rgb(0,0,0)" stroke-width="1"/><line x1="16.049416244874337" y1="93.78885626021189" x2="571.8004407212296" y2="79.42208105659306" stroke="rgb(0,0,0)" stroke-width="1"/><line x1="16.049416244874337" y1="93.78885626021189" x2="362.9470476387941" y2="571.6346031827338" stroke="rgb(0,0,0)" stroke-width="1"/><line x1="434.74042026809076" y1="455.5343569604412" x2="362.9470476387941" y2="571.6346031827338" stroke="rgb(0,0,0)" stroke-width="1"/><line x1="600.717491263269" y1="218.80552049618925" x2="535.7256019629596" y2="239.78794555899657" stroke="rgb(0,0,0)" stroke-width="1"/><line x1="535.7256019629596" y1="239.78794555899657" x2="418.57298450081083" y2="602.3538577770966" stroke="rgb(0,0,0)" stroke-width="1"/><line x1="133.78635289706236" y1="657.6261754806691" x2="362.9470476387941" y2="571.6346031827338" stroke="rgb(0,0,0)" stroke-width="1"/><line x1="459.1322292972443" y1="520.5851255588793" x2="133.78635289706236" y2="657.6261754806691" stroke="rgb(0,0,0)" stroke-width="1"/><line x1="362.9470476387941" y1="571.6346031827338" x2="16.049416244874337" y2="93.78885626021189" stroke="rgb(0,0,0)" stroke-width="1"/><line x1="535.7256019629596" y1="239.78794555899657" x2="600.717491263269" y2="218.80552049618925" stroke="rgb(0,0,0)" stroke-width="1"/><line x1="571.8004407212296" y1="79.42208105659306" x2="16.049416244874337" y2="93.78885626021189" stroke="rgb(0,0,0)" stroke-width="1"/><line x1="101.47159634551961" y1="63.81275346364742" x2="362.9470476387941" y2="571.6346031827338" stroke="rgb(0,0,0)" stroke-width="1"/><line x1="486.41265486150763" y1="646.736027764389" x2="362.9470476387941" y2="571.6346031827338" stroke="rgb(0,0,0)" stroke-width="1"/><line x1="418.57298450081083" y1="602.3538577770966" x2="535.7256019629596" y2="239.78794555899657" stroke="rgb(0,0,0)" stroke-width="1"/><line x1="16.049416244874337" y1="93.78885626021189" x2="126.55420579543572" y2="551.4265865908742" stroke="rgb(0,0,0)" stroke-width="1"/><line x1="362.9470476387941" y1="571.6346031827338" x2="418.57298450081083" y2="602.3538577770966" stroke="rgb(0,0,0)" stroke-width="1"/><line x1="133.78635289706236" y1="657.6261754806691" x2="459.1322292972443" y2="520.5851255588793" stroke="rgb(0,0,0)" stroke-width="1"/><line x1="126.55420579543572" y1="551.4265865908742" x2="16.049416244874337" y2="93.78885626021189" stroke="rgb(0,0,0)" stroke-width="1"/><polygon points="10,0 20,3 20,-3" fill="black" transform="translate(101.47159634551961,63.81275346364742) rotate(62.75624133360958)"/><polygon points="10,0 20,3 20,-3" fill="black" transform="translate(418.57298450081083,602.3538577770966) rotate(191.03751838969018)"/><polygon points="10,0 20,3 20,-3" fill="black" transform="translate(362.9470476387941,571.6346031827338) rotate(28.909541711353057)"/><polygon points="10,0 20,3 20,-3" fill="black" transform="translate(133.78635289706236,657.6261754806691) rotate(339.4316122643383)"/><polygon points="10,0 20,3 20,-3" fill="black" transform="translate(434.74042026809076,455.5343569604412) rotate(121.73156863664516)"/><polygon points="10,0 20,3 20,-3" fill="black" transform="translate(181.06928079122727,556.0263956208397) rotate(11.037518389690177)"/><polygon points="10,0 20,3 20,-3" fill="black" transform="translate(486.41265486150763,646.736027764389) rotate(211.31123324285235)"/><polygon points="10,0 20,3 20,-3" fill="black" transform="translate(571.8004407212296,79.42208105659306) rotate(178.51917089548874)"/><polygon points="10,0 20,3 20,-3" fill="black" transform="translate(362.9470476387941,571.6346031827338) rotate(234.02179363358223)"/><polygon points="10,0 20,3 20,-3" fill="black" transform="translate(362.9470476387941,571.6346031827338) rotate(301.7315686366452)"/><polygon points="10,0 20,3 20,-3" fill="black" transform="translate(535.7256019629596,239.78794555899657) rotate(342.10749095183024)"/><polygon points="10,0 20,3 20,-3" fill="black" transform="translate(418.57298450081083,602.3538577770966) rotate(287.90672810784883)"/><polygon points="10,0 20,3 20,-3" fill="black" transform="translate(362.9470476387941,571.6346031827338) rotate(159.43161226433827)"/><polygon points="10,0 20,3 20,-3" fill="black" transform="translate(133.78635289706236,657.6261754806691) rotate(337.15837140196965)"/><polygon points="10,0 20,3 20,-3" fill="black" transform="translate(16.049416244874337,93.78885626021189) rotate(54.021793633582234)"/><polygon points="10,0 20,3 20,-3" fill="black" transform="translate(600.717491263269,218.80552049618925) rotate(162.10749095183021)"/><polygon points="10,0 20,3 20,-3" fill="black" transform="translate(16.049416244874337,93.78885626021189) rotate(358.51917089548874)"/><polygon points="10,0 20,3 20,-3" fill="black" transform="translate(362.9470476387941,571.6346031827338) rotate(242.75624133360958)"/><polygon points="10,0 20,3 20,-3" fill="black" transform="translate(362.9470476387941,571.6346031827338) rotate(31.311233242852353)"/><polygon points="10,0 20,3 20,-3" fill="black" transform="translate(535.7256019629596,239.78794555899657) rotate(107.90672810784883)"/><polygon points="10,0 20,3 20,-3" fill="black" transform="translate(126.55420579543572,551.4265865908742) rotate(256.42477315706446)"/><polygon points="10,0 20,3 20,-3" fill="black" transform="translate(418.57298450081083,602.3538577770966) rotate(208.90954171135306)"/><polygon points="10,0 20,3 20,-3" fill="black" transform="translate(459.1322292972443,520.5851255588793) rotate(157.15837140196965)"/><polygon points="10,0 20,3 20,-3" fill="black" transform="translate(16.049416244874337,93.78885626021189) rotate(76.42477315706442)"/><circle cx="126.55420579543572" cy="551.4265865908742" r="10" fill="rgb(255,255,0)" stroke="rgb(0,0,0)" stroke-width="1"/><circle cx="362.9470476387941" cy="571.6346031827338" r="10" fill="rgb(255,255,0)" stroke="rgb(0,0,0)" stroke-width="1"/><circle cx="16.049416244874337" cy="93.78885626021189" r="10" fill="rgb(255,255,0)" stroke="rgb(0,0,0)" stroke-width="1"/><circle cx="434.74042026809076" cy="455.5343569604412" r="10" fill="rgb(255,255,0)" stroke="rgb(0,0,0)" stroke-width="1"/><circle cx="133.78635289706236" cy="657.6261754806691" r="10" fill="rgb(255,255,0)" stroke="rgb(0,0,0)" stroke-width="1"/><circle cx="181.06928079122727" cy="556.0263956208397" r="10" fill="rgb(255,255,0)" stroke="rgb(0,0,0)" stroke-width="1"/><circle cx="486.41265486150763" cy="646.736027764389" r="10" fill="rgb(255,255,0)" stroke="rgb(0,0,0)" stroke-width="1"/><circle cx="459.1322292972443" cy="520.5851255588793" r="10" fill="rgb(255,255,0)" stroke="rgb(0,0,0)" stroke-width="1"/><circle cx="418.57298450081083" cy="602.3538577770966" r="10" fill="rgb(255,255,0)" stroke="rgb(0,0,0)" stroke-width="1"/><circle cx="571.8004407212296" cy="79.42208105659306" r="10" fill="rgb(255,255,0)" stroke="rgb(0,0,0)" stroke-width="1"/><circle cx="101.47159634551961" cy="63.81275346364742" r="10" fill="rgb(255,255,0)" stroke="rgb(0,0,0)" stroke-width="1"/><circle cx="600.717491263269" cy="218.80552049618925" r="10" fill="rgb(255,255,0)" stroke="rgb(0,0,0)" stroke-width="1"/><circle cx="535.7256019629596" cy="239.78794555899657" r="10" fill="rgb(255,255,0)" stroke="rgb(0,0,0)" stroke-width="1"/><text text-anchor="middle" alignment-baseline="middle" x="126.55420579543572" y="551.4265865908742" fill="rgb(0,0,0)" font-size="12">inch (in)</text><text text-anchor="middle" alignment-baseline="middle" x="362.9470476387941" y="571.6346031827338" fill="rgb(0,0,0)" font-size="12">meter (m)</text><text text-anchor="middle" alignment-baseline="middle" x="16.049416244874337" y="93.78885626021189" fill="rgb(0,0,0)" font-size="12">foot (ft)</text><text text-anchor="middle" alignment-baseline="middle" x="434.74042026809076" y="455.5343569604412" fill="rgb(0,0,0)" font-size="12">micrometer (μm)</text><text text-anchor="middle" alignment-baseline="middle" x="133.78635289706236" y="657.6261754806691" fill="rgb(0,0,0)" font-size="12">nanometer (nm)</text><text text-anchor="middle" alignment-baseline="middle" x="181.06928079122727" y="556.0263956208397" fill="rgb(0,0,0)" font-size="12">Astronomical Unit (AU)</text><text text-anchor="middle" alignment-baseline="middle" x="486.41265486150763" y="646.736027764389" fill="rgb(0,0,0)" font-size="12">millimeter (mm)</text><text text-anchor="middle" alignment-baseline="middle" x="459.1322292972443" y="520.5851255588793" fill="rgb(0,0,0)" font-size="12">Planck length (ℓP)</text><text text-anchor="middle" alignment-baseline="middle" x="418.57298450081083" y="602.3538577770966" fill="rgb(0,0,0)" font-size="12">kilometer (km)</text><text text-anchor="middle" alignment-baseline="middle" x="571.8004407212296" y="79.42208105659306" fill="rgb(0,0,0)" font-size="12">mile (m)</text><text text-anchor="middle" alignment-baseline="middle" x="101.47159634551961" y="63.81275346364742" fill="rgb(0,0,0)" font-size="12">centimeter (cm)</text><text text-anchor="middle" alignment-baseline="middle" x="600.717491263269" y="218.80552049618925" fill="rgb(0,0,0)" font-size="12">parsec (pc)</text><text text-anchor="middle" alignment-baseline="middle" x="535.7256019629596" y="239.78794555899657" fill="rgb(0,0,0)" font-size="12">lightyear (ly)</text><text text-anchor="middle" alignment-baseline="middle" x="206.06177686282942" y="266.941493351282" fill="rgb(0,0,0)" font-size="12">0.010000000000000002</text><text text-anchor="middle" alignment-baseline="middle" x="323.57150301697743" y="583.8228729145939" fill="rgb(0,0,0)" font-size="12">6.6845871222684464E-9</text><text text-anchor="middle" alignment-baseline="middle" x="385.1974223836008" y="583.9223050204789" fill="rgb(0,0,0)" font-size="12">0.0010000000000000002</text><text text-anchor="middle" alignment-baseline="middle" x="225.45063079375507" y="623.229546561495" fill="rgb(0,0,0)" font-size="12">1.0000000000000009E-9</text><text text-anchor="middle" alignment-baseline="middle" x="406.0230712163721" y="501.97445544935823" fill="rgb(0,0,0)" font-size="12">1.0000000000000006E-6</text><text text-anchor="middle" alignment-baseline="middle" x="276.0707622750607" y="574.5573804833424" fill="rgb(0,0,0)" font-size="12">1.495978707E8</text><text text-anchor="middle" alignment-baseline="middle" x="437.02641197242224" y="616.6954579317269" fill="rgb(0,0,0)" font-size="12">0.0010000000000000002</text><text text-anchor="middle" alignment-baseline="middle" x="349.5000309306875" y="85.16879113804059" fill="rgb(0,0,0)" font-size="12">5280.0</text><text text-anchor="middle" alignment-baseline="middle" x="224.18799508122618" y="380.49630441372506" fill="rgb(0,0,0)" font-size="12">3.2808398950131235</text><text text-anchor="middle" alignment-baseline="middle" x="391.6643966905128" y="525.1945046938167" fill="rgb(0,0,0)" font-size="12">1000000.0</text><text text-anchor="middle" alignment-baseline="middle" x="561.7223576830834" y="231.39497553387363" fill="rgb(0,0,0)" font-size="12">0.3067484662576687</text><text text-anchor="middle" alignment-baseline="middle" x="465.43403148567035" y="457.32749288985656" fill="rgb(0,0,0)" font-size="12">1.0570008340246153E-13</text><text text-anchor="middle" alignment-baseline="middle" x="271.28276974210144" y="606.0312321019079" fill="rgb(0,0,0)" font-size="12">1.0E9</text><text text-anchor="middle" alignment-baseline="middle" x="263.92470345713514" y="602.8097555119532" fill="rgb(0,0,0)" font-size="12">1.6162E-26</text><text text-anchor="middle" alignment-baseline="middle" x="154.80846880244226" y="284.92715502922067" fill="rgb(0,0,0)" font-size="12">0.3048</text><text text-anchor="middle" alignment-baseline="middle" x="574.7207355431452" y="227.19849052131218" fill="rgb(0,0,0)" font-size="12">3.26</text><text text-anchor="middle" alignment-baseline="middle" x="238.34982603541647" y="88.04214617876436" fill="rgb(0,0,0)" font-size="12">1.893939393939394E-4</text><text text-anchor="middle" alignment-baseline="middle" x="258.3568671214843" y="368.50586329509923" fill="rgb(0,0,0)" font-size="12">100.0</text><text text-anchor="middle" alignment-baseline="middle" x="412.3332905278795" y="601.6751730153959" fill="rgb(0,0,0)" font-size="12">1000.0</text><text text-anchor="middle" alignment-baseline="middle" x="488.86455497810005" y="384.81431044623656" fill="rgb(0,0,0)" font-size="12">9.4607304725808E12</text><text text-anchor="middle" alignment-baseline="middle" x="82.35228997521116" y="368.3714944586093" fill="rgb(0,0,0)" font-size="12">0.08333333333333333</text><text text-anchor="middle" alignment-baseline="middle" x="396.32260975600417" y="590.0661559393515" fill="rgb(0,0,0)" font-size="12">1000.0</text><text text-anchor="middle" alignment-baseline="middle" x="328.99387873717154" y="575.4015455275952" fill="rgb(0,0,0)" font-size="12">6.187353050365054E25</text><text text-anchor="middle" alignment-baseline="middle" x="60.25133206509889" y="276.8439483924768" fill="rgb(0,0,0)" font-size="12">12.0</text>
      Sorry, your browser does not support inline SVG.
    </svg>