<?xml version='1.0' encoding='UTF-8'?>
<svg version="1.1" width="700.0" height="700.0" onload="init(evt)" xmlns="http://www.w3.org/2000/svg">
      <style>.caption {
  font-size: 14px;
  font-family: Georgia, serif;
}
</style>
      <script type="text/ecmascript"><![CDATA[
function init(evt) {
  if ( window.svgDocument == null ) {
    svgDocument = evt.target.ownerDocument;
  }
}

function RectHover(evt, i, c) {
  rect = svgDocument.getElementById('rect' + i);
  if( c != null ) {
    rect.setAttributeNS(null, "fill", c)  
  }
  tooltiptext = svgDocument.getElementById('tooltiptext' + i);
  tooltipbg = svgDocument.getElementById('tooltipbg' + i);
  if( tooltipbg != null) {
    tbb = tooltiptext.getBBox();
    tooltipbg.setAttributeNS(null, "width", tbb.width);
    tooltipbg.setAttributeNS(null, "height", tbb.height);
    tooltipbg.setAttributeNS(null, "x", tbb.x);
    tooltipbg.setAttributeNS(null, "y", tbb.y);
    tooltipbg.setAttributeNS(null, "visibility", "visible");
  }
  tooltiptext.setAttributeNS(null,"visibility","visible");
}

function RectUnhover(evt, i, c) {
  rect = svgDocument.getElementById('rect' + i);
  if( c != null ) {
    rect.setAttributeNS(null, "fill", c)  
  }
  tooltiptext = svgDocument.getElementById('tooltiptext' + i);
  tooltiptext.setAttributeNS(null,"visibility","hidden");
  tooltipbg = svgDocument.getElementById('tooltipbg' + i);
  if( tooltipbg != null ) {
    tooltipbg.setAttributeNS(null,"visibility","hidden");
  }
}
]]></script>
      <line x1="505.82732037993713" y1="332.19143238228395" x2="94.04527086847965" y2="223.05273493010964" stroke="rgb(0,0,0)" stroke-width="1"/><line x1="436.43874486856146" y1="530.4131773156305" x2="505.82732037993713" y2="332.19143238228395" stroke="rgb(0,0,0)" stroke-width="1"/><line x1="94.04527086847965" y1="223.05273493010964" x2="177.64892796247355" y2="155.14143955524955" stroke="rgb(0,0,0)" stroke-width="1"/><line x1="505.82732037993713" y1="332.19143238228395" x2="539.6776588278774" y2="62.05296910888302" stroke="rgb(0,0,0)" stroke-width="1"/><line x1="470.9388675223617" y1="494.7215845699955" x2="655.1489189856081" y2="28.03491307043672" stroke="rgb(0,0,0)" stroke-width="1"/><line x1="177.64892796247355" y1="155.14143955524955" x2="213.062295000059" y2="213.2011174667763" stroke="rgb(0,0,0)" stroke-width="1"/><line x1="539.6776588278774" y1="62.05296910888302" x2="505.82732037993713" y2="332.19143238228395" stroke="rgb(0,0,0)" stroke-width="1"/><line x1="634.1230323369953" y1="293.5200127325707" x2="647.0880941100828" y2="476.2519652913425" stroke="rgb(0,0,0)" stroke-width="1"/><line x1="647.0880941100828" y1="476.2519652913425" x2="634.1230323369953" y2="293.5200127325707" stroke="rgb(0,0,0)" stroke-width="1"/><line x1="647.0880941100828" y1="476.2519652913425" x2="655.1489189856081" y2="28.03491307043672" stroke="rgb(0,0,0)" stroke-width="1"/><line x1="177.64892796247355" y1="155.14143955524955" x2="94.04527086847965" y2="223.05273493010964" stroke="rgb(0,0,0)" stroke-width="1"/><line x1="94.04527086847965" y1="223.05273493010964" x2="655.1489189856081" y2="28.03491307043672" stroke="rgb(0,0,0)" stroke-width="1"/><line x1="94.04527086847965" y1="223.05273493010964" x2="505.82732037993713" y2="332.19143238228395" stroke="rgb(0,0,0)" stroke-width="1"/><line x1="655.1489189856081" y1="28.03491307043672" x2="94.04527086847965" y2="223.05273493010964" stroke="rgb(0,0,0)" stroke-width="1"/><line x1="601.2309527574437" y1="540.1696425820303" x2="94.04527086847965" y2="223.05273493010964" stroke="rgb(0,0,0)" stroke-width="1"/><line x1="94.04527086847965" y1="223.05273493010964" x2="248.52168682332285" y2="683.219447363908" stroke="rgb(0,0,0)" stroke-width="1"/><line x1="94.04527086847965" y1="223.05273493010964" x2="601.2309527574437" y2="540.1696425820303" stroke="rgb(0,0,0)" stroke-width="1"/><line x1="248.52168682332285" y1="683.219447363908" x2="94.04527086847965" y2="223.05273493010964" stroke="rgb(0,0,0)" stroke-width="1"/><line x1="655.1489189856081" y1="28.03491307043672" x2="470.9388675223617" y2="494.7215845699955" stroke="rgb(0,0,0)" stroke-width="1"/><line x1="94.04527086847965" y1="223.05273493010964" x2="563.4998759415861" y2="459.17077839659123" stroke="rgb(0,0,0)" stroke-width="1"/><line x1="563.4998759415861" y1="459.17077839659123" x2="94.04527086847965" y2="223.05273493010964" stroke="rgb(0,0,0)" stroke-width="1"/><line x1="655.1489189856081" y1="28.03491307043672" x2="647.0880941100828" y2="476.2519652913425" stroke="rgb(0,0,0)" stroke-width="1"/><line x1="505.82732037993713" y1="332.19143238228395" x2="436.43874486856146" y2="530.4131773156305" stroke="rgb(0,0,0)" stroke-width="1"/><line x1="213.062295000059" y1="213.2011174667763" x2="177.64892796247355" y2="155.14143955524955" stroke="rgb(0,0,0)" stroke-width="1"/><polygon points="10,0 20,3 20,-3" fill="black" transform="translate(94.04527086847965,223.05273493010964) rotate(14.844366281008007)"/><polygon points="10,0 20,3 20,-3" fill="black" transform="translate(505.82732037993713,332.19143238228395) rotate(109.29286965296392)"/><polygon points="10,0 20,3 20,-3" fill="black" transform="translate(177.64892796247355,155.14143955524955) rotate(140.91302578236773)"/><polygon points="10,0 20,3 20,-3" fill="black" transform="translate(539.6776588278774,62.05296910888302) rotate(97.14235535657292)"/><polygon points="10,0 20,3 20,-3" fill="black" transform="translate(655.1489189856081,28.03491307043672) rotate(111.54008668899463)"/><polygon points="10,0 20,3 20,-3" fill="black" transform="translate(213.062295000059,213.2011174667763) rotate(238.6189929001037)"/><polygon points="10,0 20,3 20,-3" fill="black" transform="translate(505.82732037993713,332.19143238228395) rotate(277.1423553565729)"/><polygon points="10,0 20,3 20,-3" fill="black" transform="translate(647.0880941100828,476.2519652913425) rotate(265.9415934063433)"/><polygon points="10,0 20,3 20,-3" fill="black" transform="translate(634.1230323369953,293.5200127325707) rotate(85.9415934063433)"/><polygon points="10,0 20,3 20,-3" fill="black" transform="translate(655.1489189856081,28.03491307043672) rotate(91.03030765949423)"/><polygon points="10,0 20,3 20,-3" fill="black" transform="translate(94.04527086847965,223.05273493010964) rotate(320.91302578236775)"/><polygon points="10,0 20,3 20,-3" fill="black" transform="translate(655.1489189856081,28.03491307043672) rotate(160.83453523744998)"/><polygon points="10,0 20,3 20,-3" fill="black" transform="translate(505.82732037993713,332.19143238228395) rotate(194.844366281008)"/><polygon points="10,0 20,3 20,-3" fill="black" transform="translate(94.04527086847965,223.05273493010964) rotate(340.83453523745)"/><polygon points="10,0 20,3 20,-3" fill="black" transform="translate(94.04527086847965,223.05273493010964) rotate(32.01560607551261)"/><polygon points="10,0 20,3 20,-3" fill="black" transform="translate(248.52168682332285,683.219447363908) rotate(251.44327131744)"/><polygon points="10,0 20,3 20,-3" fill="black" transform="translate(601.2309527574437,540.1696425820303) rotate(212.0156060755126)"/><polygon points="10,0 20,3 20,-3" fill="black" transform="translate(94.04527086847965,223.05273493010964) rotate(71.44327131743998)"/><polygon points="10,0 20,3 20,-3" fill="black" transform="translate(470.9388675223617,494.7215845699955) rotate(291.5400866889946)"/><polygon points="10,0 20,3 20,-3" fill="black" transform="translate(563.4998759415861,459.17077839659123) rotate(206.70067941310708)"/><polygon points="10,0 20,3 20,-3" fill="black" transform="translate(94.04527086847965,223.05273493010964) rotate(26.700679413107054)"/><polygon points="10,0 20,3 20,-3" fill="black" transform="translate(647.0880941100828,476.2519652913425) rotate(271.03030765949427)"/><polygon points="10,0 20,3 20,-3" fill="black" transform="translate(436.43874486856146,530.4131773156305) rotate(289.29286965296393)"/><polygon points="10,0 20,3 20,-3" fill="black" transform="translate(177.64892796247355,155.14143955524955) rotate(58.61899290010369)"/><circle cx="436.43874486856146" cy="530.4131773156305" r="10" fill="rgb(255,255,0)" stroke="rgb(0,0,0)" stroke-width="1"/><circle cx="94.04527086847965" cy="223.05273493010964" r="10" fill="rgb(255,255,0)" stroke="rgb(0,0,0)" stroke-width="1"/><circle cx="505.82732037993713" cy="332.19143238228395" r="10" fill="rgb(255,255,0)" stroke="rgb(0,0,0)" stroke-width="1"/><circle cx="601.2309527574437" cy="540.1696425820303" r="10" fill="rgb(255,255,0)" stroke="rgb(0,0,0)" stroke-width="1"/><circle cx="177.64892796247355" cy="155.14143955524955" r="10" fill="rgb(255,255,0)" stroke="rgb(0,0,0)" stroke-width="1"/><circle cx="470.9388675223617" cy="494.7215845699955" r="10" fill="rgb(255,255,0)" stroke="rgb(0,0,0)" stroke-width="1"/><circle cx="563.4998759415861" cy="459.17077839659123" r="10" fill="rgb(255,255,0)" stroke="rgb(0,0,0)" stroke-width="1"/><circle cx="213.062295000059" cy="213.2011174667763" r="10" fill="rgb(255,255,0)" stroke="rgb(0,0,0)" stroke-width="1"/><circle cx="655.1489189856081" cy="28.03491307043672" r="10" fill="rgb(255,255,0)" stroke="rgb(0,0,0)" stroke-width="1"/><circle cx="539.6776588278774" cy="62.05296910888302" r="10" fill="rgb(255,255,0)" stroke="rgb(0,0,0)" stroke-width="1"/><circle cx="248.52168682332285" cy="683.219447363908" r="10" fill="rgb(255,255,0)" stroke="rgb(0,0,0)" stroke-width="1"/><circle cx="634.1230323369953" cy="293.5200127325707" r="10" fill="rgb(255,255,0)" stroke="rgb(0,0,0)" stroke-width="1"/><circle cx="647.0880941100828" cy="476.2519652913425" r="10" fill="rgb(255,255,0)" stroke="rgb(0,0,0)" stroke-width="1"/><text text-anchor="middle" alignment-baseline="middle" x="436.43874486856146" y="530.4131773156305" fill="rgb(0,0,0)" font-size="12">inch (in)</text><text text-anchor="middle" alignment-baseline="middle" x="94.04527086847965" y="223.05273493010964" fill="rgb(0,0,0)" font-size="12">meter (m)</text><text text-anchor="middle" alignment-baseline="middle" x="505.82732037993713" y="332.19143238228395" fill="rgb(0,0,0)" font-size="12">foot (ft)</text><text text-anchor="middle" alignment-baseline="middle" x="601.2309527574437" y="540.1696425820303" fill="rgb(0,0,0)" font-size="12">micrometer (μm)</text><text text-anchor="middle" alignment-baseline="middle" x="177.64892796247355" y="155.14143955524955" fill="rgb(0,0,0)" font-size="12">nanometer (nm)</text><text text-anchor="middle" alignment-baseline="middle" x="470.9388675223617" y="494.7215845699955" fill="rgb(0,0,0)" font-size="12">Astronomical Unit (AU)</text><text text-anchor="middle" alignment-baseline="middle" x="563.4998759415861" y="459.17077839659123" fill="rgb(0,0,0)" font-size="12">millimeter (mm)</text><text text-anchor="middle" alignment-baseline="middle" x="213.062295000059" y="213.2011174667763" fill="rgb(0,0,0)" font-size="12">Planck length (ℓP)</text><text text-anchor="middle" alignment-baseline="middle" x="655.1489189856081" y="28.03491307043672" fill="rgb(0,0,0)" font-size="12">kilometer (km)</text><text text-anchor="middle" alignment-baseline="middle" x="539.6776588278774" y="62.05296910888302" fill="rgb(0,0,0)" font-size="12">mile (m)</text><text text-anchor="middle" alignment-baseline="middle" x="248.52168682332285" y="683.219447363908" fill="rgb(0,0,0)" font-size="12">centimeter (cm)</text><text text-anchor="middle" alignment-baseline="middle" x="634.1230323369953" y="293.5200127325707" fill="rgb(0,0,0)" font-size="12">parsec (pc)</text><text text-anchor="middle" alignment-baseline="middle" x="647.0880941100828" y="476.2519652913425" fill="rgb(0,0,0)" font-size="12">lightyear (ly)</text><text text-anchor="middle" alignment-baseline="middle" x="258.7580906730626" y="266.70821391097934" fill="rgb(0,0,0)" font-size="12">3.2808398950131235</text><text text-anchor="middle" alignment-baseline="middle" x="478.07189017538684" y="411.4801303556226" fill="rgb(0,0,0)" font-size="12">12.0</text><text text-anchor="middle" alignment-baseline="middle" x="144.207465124876" y="182.30595770519358" fill="rgb(0,0,0)" font-size="12">1.0000000000000009E-9</text><text text-anchor="middle" alignment-baseline="middle" x="526.1375234487012" y="170.1083544182434" fill="rgb(0,0,0)" font-size="12">5280.0</text><text text-anchor="middle" alignment-baseline="middle" x="581.4648984003096" y="214.70958167026026" fill="rgb(0,0,0)" font-size="12">6.6845871222684464E-9</text><text text-anchor="middle" alignment-baseline="middle" x="198.89694818502483" y="189.9772463021656" fill="rgb(0,0,0)" font-size="12">6.187353050365054E25</text><text text-anchor="middle" alignment-baseline="middle" x="519.3674557591132" y="224.13604707292356" fill="rgb(0,0,0)" font-size="12">1.893939393939394E-4</text><text text-anchor="middle" alignment-baseline="middle" x="641.9020694008478" y="403.1591842678338" fill="rgb(0,0,0)" font-size="12">0.3067484662576687</text><text text-anchor="middle" alignment-baseline="middle" x="639.3090570462302" y="366.61279375607944" fill="rgb(0,0,0)" font-size="12">3.26</text><text text-anchor="middle" alignment-baseline="middle" x="651.924589035398" y="207.3217339587991" fill="rgb(0,0,0)" font-size="12">1.0570008340246153E-13</text><text text-anchor="middle" alignment-baseline="middle" x="127.48673370607722" y="195.8882167801656" fill="rgb(0,0,0)" font-size="12">1.0E9</text><text text-anchor="middle" alignment-baseline="middle" x="430.7074597387567" y="106.04204181430589" fill="rgb(0,0,0)" font-size="12">1000.0</text><text text-anchor="middle" alignment-baseline="middle" x="341.11450057535416" y="288.5359534014142" fill="rgb(0,0,0)" font-size="12">0.3048</text><text text-anchor="middle" alignment-baseline="middle" x="318.48673011533106" y="145.04560618624046" fill="rgb(0,0,0)" font-size="12">0.0010000000000000002</text><text text-anchor="middle" alignment-baseline="middle" x="296.9195436240653" y="349.8994979908779" fill="rgb(0,0,0)" font-size="12">1000000.0</text><text text-anchor="middle" alignment-baseline="middle" x="186.73112044138557" y="499.15276239038866" fill="rgb(0,0,0)" font-size="12">0.010000000000000002</text><text text-anchor="middle" alignment-baseline="middle" x="398.356680001858" y="413.32287952126205" fill="rgb(0,0,0)" font-size="12">1.0000000000000006E-6</text><text text-anchor="middle" alignment-baseline="middle" x="155.83583725041694" y="407.11941990362897" fill="rgb(0,0,0)" font-size="12">100.0</text><text text-anchor="middle" alignment-baseline="middle" x="544.6228881076603" y="308.046915970172" fill="rgb(0,0,0)" font-size="12">1.495978707E8</text><text text-anchor="middle" alignment-baseline="middle" x="375.7180339123435" y="364.72356100999855" fill="rgb(0,0,0)" font-size="12">0.0010000000000000002</text><text text-anchor="middle" alignment-baseline="middle" x="281.8271128977222" y="317.4999523167023" fill="rgb(0,0,0)" font-size="12">1000.0</text><text text-anchor="middle" alignment-baseline="middle" x="650.312424060293" y="296.9651444029802" fill="rgb(0,0,0)" font-size="12">9.4607304725808E12</text><text text-anchor="middle" alignment-baseline="middle" x="464.19417507311175" y="451.12447934229186" fill="rgb(0,0,0)" font-size="12">0.08333333333333333</text><text text-anchor="middle" alignment-baseline="middle" x="191.81427477750773" y="178.36531071986025" fill="rgb(0,0,0)" font-size="12">1.6162E-26</text>
      Sorry, your browser does not support inline SVG.
    </svg>