<?xml version='1.0' encoding='UTF-8'?>
<svg version="1.1" width="700.0" height="700.0" onload="init(evt)" xmlns="http://www.w3.org/2000/svg">
      <style>.caption {
  font-size: 14px;
  font-family: Georgia, serif;
}
</style>
      <script type="text/ecmascript"><![CDATA[
function init(evt) {
  if ( window.svgDocument == null ) {
    svgDocument = evt.target.ownerDocument;
  }
}

function RectHover(evt, i, c) {
  rect = svgDocument.getElementById('rect' + i);
  if( c != null ) {
    rect.setAttributeNS(null, "fill", c)  
  }
  tooltiptext = svgDocument.getElementById('tooltiptext' + i);
  tooltipbg = svgDocument.getElementById('tooltipbg' + i);
  if( tooltipbg != null) {
    tbb = tooltiptext.getBBox();
    tooltipbg.setAttributeNS(null, "width", tbb.width);
    tooltipbg.setAttributeNS(null, "height", tbb.height);
    tooltipbg.setAttributeNS(null, "x", tbb.x);
    tooltipbg.setAttributeNS(null, "y", tbb.y);
    tooltipbg.setAttributeNS(null, "visibility", "visible");
  }
  tooltiptext.setAttributeNS(null,"visibility","visible");
}

function RectUnhover(evt, i, c) {
  rect = svgDocument.getElementById('rect' + i);
  if( c != null ) {
    rect.setAttributeNS(null, "fill", c)  
  }
  tooltiptext = svgDocument.getElementById('tooltiptext' + i);
  tooltiptext.setAttributeNS(null,"visibility","hidden");
  tooltipbg = svgDocument.getElementById('tooltipbg' + i);
  if( tooltipbg != null ) {
    tooltipbg.setAttributeNS(null,"visibility","hidden");
  }
}
]]></script>
      <line x1="96.9186409818173" y1="91.30033318727476" x2="676.1358780924983" y2="447.71772983098447" stroke="rgb(0,0,0)" stroke-width="1"/><line x1="676.1358780924983" y1="447.71772983098447" x2="39.216599778314745" y2="639.3901026159828" stroke="rgb(0,0,0)" stroke-width="1"/><line x1="676.1358780924983" y1="447.71772983098447" x2="329.2917421593934" y2="650.2431403403446" stroke="rgb(0,0,0)" stroke-width="1"/><line x1="676.1358780924983" y1="447.71772983098447" x2="250.62031369777108" y2="103.45516725391948" stroke="rgb(0,0,0)" stroke-width="1"/><line x1="137.3701477488307" y1="504.1969449110359" x2="96.9186409818173" y2="91.30033318727476" stroke="rgb(0,0,0)" stroke-width="1"/><line x1="676.1358780924983" y1="447.71772983098447" x2="96.9186409818173" y2="91.30033318727476" stroke="rgb(0,0,0)" stroke-width="1"/><line x1="676.1358780924983" y1="447.71772983098447" x2="587.9828206487492" y2="607.0178305989864" stroke="rgb(0,0,0)" stroke-width="1"/><line x1="39.216599778314745" y1="639.3901026159828" x2="676.1358780924983" y2="447.71772983098447" stroke="rgb(0,0,0)" stroke-width="1"/><line x1="393.03911573079256" y1="495.58091136395973" x2="96.9186409818173" y2="91.30033318727476" stroke="rgb(0,0,0)" stroke-width="1"/><line x1="587.9828206487492" y1="607.0178305989864" x2="676.1358780924983" y2="447.71772983098447" stroke="rgb(0,0,0)" stroke-width="1"/><line x1="329.2917421593934" y1="650.2431403403446" x2="636.8512167736195" y2="484.61589818103" stroke="rgb(0,0,0)" stroke-width="1"/><line x1="74.63169448950461" y1="524.6176245493826" x2="676.1358780924983" y2="447.71772983098447" stroke="rgb(0,0,0)" stroke-width="1"/><line x1="42.47835822812949" y1="401.5640661909268" x2="250.62031369777108" y2="103.45516725391948" stroke="rgb(0,0,0)" stroke-width="1"/><line x1="243.5323441109999" y1="321.27356622941295" x2="160.06264354854795" y2="182.29841888166922" stroke="rgb(0,0,0)" stroke-width="1"/><line x1="250.62031369777108" y1="103.45516725391948" x2="42.47835822812949" y2="401.5640661909268" stroke="rgb(0,0,0)" stroke-width="1"/><line x1="250.62031369777108" y1="103.45516725391948" x2="676.1358780924983" y2="447.71772983098447" stroke="rgb(0,0,0)" stroke-width="1"/><line x1="329.2917421593934" y1="650.2431403403446" x2="676.1358780924983" y2="447.71772983098447" stroke="rgb(0,0,0)" stroke-width="1"/><line x1="160.06264354854795" y1="182.29841888166922" x2="243.5323441109999" y2="321.27356622941295" stroke="rgb(0,0,0)" stroke-width="1"/><line x1="250.62031369777108" y1="103.45516725391948" x2="243.5323441109999" y2="321.27356622941295" stroke="rgb(0,0,0)" stroke-width="1"/><line x1="243.5323441109999" y1="321.27356622941295" x2="250.62031369777108" y2="103.45516725391948" stroke="rgb(0,0,0)" stroke-width="1"/><line x1="676.1358780924983" y1="447.71772983098447" x2="74.63169448950461" y2="524.6176245493826" stroke="rgb(0,0,0)" stroke-width="1"/><line x1="96.9186409818173" y1="91.30033318727476" x2="137.3701477488307" y2="504.1969449110359" stroke="rgb(0,0,0)" stroke-width="1"/><line x1="96.9186409818173" y1="91.30033318727476" x2="393.03911573079256" y2="495.58091136395973" stroke="rgb(0,0,0)" stroke-width="1"/><line x1="636.8512167736195" y1="484.61589818103" x2="329.2917421593934" y2="650.2431403403446" stroke="rgb(0,0,0)" stroke-width="1"/><polygon points="10,0 20,3 20,-3" fill="black" transform="translate(676.1358780924983,447.71772983098447) rotate(211.60578168608671)"/><polygon points="10,0 20,3 20,-3" fill="black" transform="translate(39.216599778314745,639.3901026159828) rotate(343.251531965837)"/><polygon points="10,0 20,3 20,-3" fill="black" transform="translate(329.2917421593934,650.2431403403446) rotate(329.71895997647357)"/><polygon points="10,0 20,3 20,-3" fill="black" transform="translate(250.62031369777108,103.45516725391948) rotate(38.974524810836556)"/><polygon points="10,0 20,3 20,-3" fill="black" transform="translate(96.9186409818173,91.30033318727476) rotate(84.40458516712356)"/><polygon points="10,0 20,3 20,-3" fill="black" transform="translate(96.9186409818173,91.30033318727476) rotate(31.605781686086715)"/><polygon points="10,0 20,3 20,-3" fill="black" transform="translate(587.9828206487492,607.0178305989864) rotate(298.95914556225955)"/><polygon points="10,0 20,3 20,-3" fill="black" transform="translate(676.1358780924983,447.71772983098447) rotate(163.251531965837)"/><polygon points="10,0 20,3 20,-3" fill="black" transform="translate(96.9186409818173,91.30033318727476) rotate(53.77861164997718)"/><polygon points="10,0 20,3 20,-3" fill="black" transform="translate(676.1358780924983,447.71772983098447) rotate(118.9591455622595)"/><polygon points="10,0 20,3 20,-3" fill="black" transform="translate(636.8512167736195,484.61589818103) rotate(151.69660226016333)"/><polygon points="10,0 20,3 20,-3" fill="black" transform="translate(676.1358780924983,447.71772983098447) rotate(172.71448603161977)"/><polygon points="10,0 20,3 20,-3" fill="black" transform="translate(250.62031369777108,103.45516725391948) rotate(124.92304532699139)"/><polygon points="10,0 20,3 20,-3" fill="black" transform="translate(160.06264354854795,182.29841888166922) rotate(59.01060083203603)"/><polygon points="10,0 20,3 20,-3" fill="black" transform="translate(42.47835822812949,401.5640661909268) rotate(304.9230453269914)"/><polygon points="10,0 20,3 20,-3" fill="black" transform="translate(676.1358780924983,447.71772983098447) rotate(218.97452481083656)"/><polygon points="10,0 20,3 20,-3" fill="black" transform="translate(676.1358780924983,447.71772983098447) rotate(149.71895997647357)"/><polygon points="10,0 20,3 20,-3" fill="black" transform="translate(243.5323441109999,321.27356622941295) rotate(239.01060083203606)"/><polygon points="10,0 20,3 20,-3" fill="black" transform="translate(243.5323441109999,321.27356622941295) rotate(271.863788789753)"/><polygon points="10,0 20,3 20,-3" fill="black" transform="translate(250.62031369777108,103.45516725391948) rotate(91.86378878975299)"/><polygon points="10,0 20,3 20,-3" fill="black" transform="translate(74.63169448950461,524.6176245493826) rotate(352.7144860316198)"/><polygon points="10,0 20,3 20,-3" fill="black" transform="translate(137.3701477488307,504.1969449110359) rotate(264.40458516712357)"/><polygon points="10,0 20,3 20,-3" fill="black" transform="translate(393.03911573079256,495.58091136395973) rotate(233.7786116499772)"/><polygon points="10,0 20,3 20,-3" fill="black" transform="translate(329.2917421593934,650.2431403403446) rotate(331.69660226016333)"/><circle cx="137.3701477488307" cy="504.1969449110359" r="10" fill="rgb(255,255,0)" stroke="rgb(0,0,0)" stroke-width="1"/><circle cx="676.1358780924983" cy="447.71772983098447" r="10" fill="rgb(255,255,0)" stroke="rgb(0,0,0)" stroke-width="1"/><circle cx="96.9186409818173" cy="91.30033318727476" r="10" fill="rgb(255,255,0)" stroke="rgb(0,0,0)" stroke-width="1"/><circle cx="74.63169448950461" cy="524.6176245493826" r="10" fill="rgb(255,255,0)" stroke="rgb(0,0,0)" stroke-width="1"/><circle cx="329.2917421593934" cy="650.2431403403446" r="10" fill="rgb(255,255,0)" stroke="rgb(0,0,0)" stroke-width="1"/><circle cx="42.47835822812949" cy="401.5640661909268" r="10" fill="rgb(255,255,0)" stroke="rgb(0,0,0)" stroke-width="1"/><circle cx="587.9828206487492" cy="607.0178305989864" r="10" fill="rgb(255,255,0)" stroke="rgb(0,0,0)" stroke-width="1"/><circle cx="636.8512167736195" cy="484.61589818103" r="10" fill="rgb(255,255,0)" stroke="rgb(0,0,0)" stroke-width="1"/><circle cx="250.62031369777108" cy="103.45516725391948" r="10" fill="rgb(255,255,0)" stroke="rgb(0,0,0)" stroke-width="1"/><circle cx="393.03911573079256" cy="495.58091136395973" r="10" fill="rgb(255,255,0)" stroke="rgb(0,0,0)" stroke-width="1"/><circle cx="39.216599778314745" cy="639.3901026159828" r="10" fill="rgb(255,255,0)" stroke="rgb(0,0,0)" stroke-width="1"/><circle cx="160.06264354854795" cy="182.29841888166922" r="10" fill="rgb(255,255,0)" stroke="rgb(0,0,0)" stroke-width="1"/><circle cx="243.5323441109999" cy="321.27356622941295" r="10" fill="rgb(255,255,0)" stroke="rgb(0,0,0)" stroke-width="1"/><text text-anchor="middle" alignment-baseline="middle" x="137.3701477488307" y="504.1969449110359" fill="rgb(0,0,0)" font-size="12">inch (in)</text><text text-anchor="middle" alignment-baseline="middle" x="676.1358780924983" y="447.71772983098447" fill="rgb(0,0,0)" font-size="12">meter (m)</text><text text-anchor="middle" alignment-baseline="middle" x="96.9186409818173" y="91.30033318727476" fill="rgb(0,0,0)" font-size="12">foot (ft)</text><text text-anchor="middle" alignment-baseline="middle" x="74.63169448950461" y="524.6176245493826" fill="rgb(0,0,0)" font-size="12">micrometer (μm)</text><text text-anchor="middle" alignment-baseline="middle" x="329.2917421593934" y="650.2431403403446" fill="rgb(0,0,0)" font-size="12">nanometer (nm)</text><text text-anchor="middle" alignment-baseline="middle" x="42.47835822812949" y="401.5640661909268" fill="rgb(0,0,0)" font-size="12">Astronomical Unit (AU)</text><text text-anchor="middle" alignment-baseline="middle" x="587.9828206487492" y="607.0178305989864" fill="rgb(0,0,0)" font-size="12">millimeter (mm)</text><text text-anchor="middle" alignment-baseline="middle" x="636.8512167736195" y="484.61589818103" fill="rgb(0,0,0)" font-size="12">Planck length (ℓP)</text><text text-anchor="middle" alignment-baseline="middle" x="250.62031369777108" y="103.45516725391948" fill="rgb(0,0,0)" font-size="12">kilometer (km)</text><text text-anchor="middle" alignment-baseline="middle" x="393.03911573079256" y="495.58091136395973" fill="rgb(0,0,0)" font-size="12">mile (m)</text><text text-anchor="middle" alignment-baseline="middle" x="39.216599778314745" y="639.3901026159828" fill="rgb(0,0,0)" font-size="12">centimeter (cm)</text><text text-anchor="middle" alignment-baseline="middle" x="160.06264354854795" y="182.29841888166922" fill="rgb(0,0,0)" font-size="12">parsec (pc)</text><text text-anchor="middle" alignment-baseline="middle" x="243.5323441109999" y="321.27356622941295" fill="rgb(0,0,0)" font-size="12">lightyear (ly)</text><text text-anchor="middle" alignment-baseline="middle" x="444.4489832482259" y="305.1507711735006" fill="rgb(0,0,0)" font-size="12">3.2808398950131235</text><text text-anchor="middle" alignment-baseline="middle" x="293.98431110398815" y="562.7211535019834" fill="rgb(0,0,0)" font-size="12">0.010000000000000002</text><text text-anchor="middle" alignment-baseline="middle" x="468.02939653263536" y="569.2329761366005" fill="rgb(0,0,0)" font-size="12">1.0000000000000009E-9</text><text text-anchor="middle" alignment-baseline="middle" x="420.826539455662" y="241.1601922847455" fill="rgb(0,0,0)" font-size="12">1000.0</text><text text-anchor="middle" alignment-baseline="middle" x="113.09924368862266" y="256.4589778767793" fill="rgb(0,0,0)" font-size="12">12.0</text><text text-anchor="middle" alignment-baseline="middle" x="328.6055358260897" y="233.86729184475865" fill="rgb(0,0,0)" font-size="12">0.3048</text><text text-anchor="middle" alignment-baseline="middle" x="623.2440436262489" y="543.2977902917856" fill="rgb(0,0,0)" font-size="12">0.0010000000000000002</text><text text-anchor="middle" alignment-baseline="middle" x="421.36816676682486" y="524.3866789449838" fill="rgb(0,0,0)" font-size="12">100.0</text><text text-anchor="middle" alignment-baseline="middle" x="215.36683088140742" y="253.01256445794877" fill="rgb(0,0,0)" font-size="12">1.893939393939394E-4</text><text text-anchor="middle" alignment-baseline="middle" x="640.8746551149986" y="511.4377701381852" fill="rgb(0,0,0)" font-size="12">1000.0</text><text text-anchor="middle" alignment-baseline="middle" x="513.8274269279291" y="550.8667950447558" fill="rgb(0,0,0)" font-size="12">6.187353050365054E25</text><text text-anchor="middle" alignment-baseline="middle" x="435.5342046513008" y="478.47768771834376" fill="rgb(0,0,0)" font-size="12">1000000.0</text><text text-anchor="middle" alignment-baseline="middle" x="167.36353150991445" y="222.69872682872239" fill="rgb(0,0,0)" font-size="12">6.6845871222684464E-9</text><text text-anchor="middle" alignment-baseline="middle" x="193.45052377352874" y="237.8884778207667" fill="rgb(0,0,0)" font-size="12">3.26</text><text text-anchor="middle" alignment-baseline="middle" x="125.73514041598612" y="282.3205066161239" fill="rgb(0,0,0)" font-size="12">1.495978707E8</text><text text-anchor="middle" alignment-baseline="middle" x="505.9296523346074" y="310.0127048001584" fill="rgb(0,0,0)" font-size="12">0.0010000000000000002</text><text text-anchor="middle" alignment-baseline="middle" x="537.3982237192563" y="528.7278940347285" fill="rgb(0,0,0)" font-size="12">1.0E9</text><text text-anchor="middle" alignment-baseline="middle" x="210.1444638860191" y="265.68350729031545" fill="rgb(0,0,0)" font-size="12">0.3067484662576687</text><text text-anchor="middle" alignment-baseline="middle" x="246.36753194570838" y="234.14620663921556" fill="rgb(0,0,0)" font-size="12">9.4607304725808E12</text><text text-anchor="middle" alignment-baseline="middle" x="247.7851258630626" y="190.58252684411687" fill="rgb(0,0,0)" font-size="12">1.0570008340246153E-13</text><text text-anchor="middle" alignment-baseline="middle" x="315.2333679307021" y="493.85766666202335" fill="rgb(0,0,0)" font-size="12">1.0000000000000006E-6</text><text text-anchor="middle" alignment-baseline="middle" x="121.18954504202534" y="339.0383002215315" fill="rgb(0,0,0)" font-size="12">0.08333333333333333</text><text text-anchor="middle" alignment-baseline="middle" x="274.5909258312024" y="333.8686800932857" fill="rgb(0,0,0)" font-size="12">5280.0</text><text text-anchor="middle" alignment-baseline="middle" x="452.3155320050838" y="583.9922434766187" fill="rgb(0,0,0)" font-size="12">1.6162E-26</text>
      Sorry, your browser does not support inline SVG.
    </svg>