<?xml version='1.0' encoding='UTF-8'?>
<svg version="1.1" width="700.0" height="700.0" onload="init(evt)" xmlns="http://www.w3.org/2000/svg">
      <style>.caption {
  font-size: 14px;
  font-family: Georgia, serif;
}
</style>
      <script type="text/ecmascript"><![CDATA[
function init(evt) {
  if ( window.svgDocument == null ) {
    svgDocument = evt.target.ownerDocument;
  }
}

function RectHover(evt, i, c) {
  rect = svgDocument.getElementById('rect' + i);
  if( c != null ) {
    rect.setAttributeNS(null, "fill", c)  
  }
  tooltiptext = svgDocument.getElementById('tooltiptext' + i);
  tooltipbg = svgDocument.getElementById('tooltipbg' + i);
  if( tooltipbg != null) {
    tbb = tooltiptext.getBBox();
    tooltipbg.setAttributeNS(null, "width", tbb.width);
    tooltipbg.setAttributeNS(null, "height", tbb.height);
    tooltipbg.setAttributeNS(null, "x", tbb.x);
    tooltipbg.setAttributeNS(null, "y", tbb.y);
    tooltipbg.setAttributeNS(null, "visibility", "visible");
  }
  tooltiptext.setAttributeNS(null,"visibility","visible");
}

function RectUnhover(evt, i, c) {
  rect = svgDocument.getElementById('rect' + i);
  if( c != null ) {
    rect.setAttributeNS(null, "fill", c)  
  }
  tooltiptext = svgDocument.getElementById('tooltiptext' + i);
  tooltiptext.setAttributeNS(null,"visibility","hidden");
  tooltipbg = svgDocument.getElementById('tooltipbg' + i);
  if( tooltipbg != null ) {
    tooltipbg.setAttributeNS(null,"visibility","hidden");
  }
}
]]></script>
      <line x1="6.24738996457811" y1="155.24692612860431" x2="269.34598388512904" y2="274.40572384841147" stroke="rgb(0,0,0)" stroke-width="1"/><line x1="660.8719073126379" y1="144.39284527480024" x2="199.64946110299235" y2="371.1823489914731" stroke="rgb(0,0,0)" stroke-width="1"/><line x1="199.64946110299235" y1="371.1823489914731" x2="331.11941321497085" y2="68.34910945173984" stroke="rgb(0,0,0)" stroke-width="1"/><line x1="269.34598388512904" y1="274.40572384841147" x2="6.24738996457811" y2="155.24692612860431" stroke="rgb(0,0,0)" stroke-width="1"/><line x1="199.64946110299235" y1="371.1823489914731" x2="643.905158078415" y2="383.97871687010536" stroke="rgb(0,0,0)" stroke-width="1"/><line x1="660.8719073126379" y1="144.39284527480024" x2="435.42925597620604" y2="183.50606614428509" stroke="rgb(0,0,0)" stroke-width="1"/><line x1="656.3691795125422" y1="355.75413264084693" x2="660.8719073126379" y2="144.39284527480024" stroke="rgb(0,0,0)" stroke-width="1"/><line x1="663.2922848786321" y1="173.09487653623805" x2="682.4129688699998" y2="8.814057650932927" stroke="rgb(0,0,0)" stroke-width="1"/><line x1="663.2922848786321" y1="173.09487653623805" x2="199.64946110299235" y2="371.1823489914731" stroke="rgb(0,0,0)" stroke-width="1"/><line x1="663.2922848786321" y1="173.09487653623805" x2="488.22081296564096" y2="252.49801234577183" stroke="rgb(0,0,0)" stroke-width="1"/><line x1="643.905158078415" y1="383.97871687010536" x2="199.64946110299235" y2="371.1823489914731" stroke="rgb(0,0,0)" stroke-width="1"/><line x1="356.36813729338974" y1="473.6423145475351" x2="199.64946110299235" y2="371.1823489914731" stroke="rgb(0,0,0)" stroke-width="1"/><line x1="199.64946110299235" y1="371.1823489914731" x2="356.36813729338974" y2="473.6423145475351" stroke="rgb(0,0,0)" stroke-width="1"/><line x1="682.4129688699998" y1="8.814057650932927" x2="663.2922848786321" y2="173.09487653623805" stroke="rgb(0,0,0)" stroke-width="1"/><line x1="488.22081296564096" y1="252.49801234577183" x2="663.2922848786321" y2="173.09487653623805" stroke="rgb(0,0,0)" stroke-width="1"/><line x1="6.24738996457811" y1="155.24692612860431" x2="199.64946110299235" y2="371.1823489914731" stroke="rgb(0,0,0)" stroke-width="1"/><line x1="199.64946110299235" y1="371.1823489914731" x2="6.24738996457811" y2="155.24692612860431" stroke="rgb(0,0,0)" stroke-width="1"/><line x1="199.64946110299235" y1="371.1823489914731" x2="660.8719073126379" y2="144.39284527480024" stroke="rgb(0,0,0)" stroke-width="1"/><line x1="656.3691795125422" y1="355.75413264084693" x2="55.84465141937608" y2="544.7099169685584" stroke="rgb(0,0,0)" stroke-width="1"/><line x1="55.84465141937608" y1="544.7099169685584" x2="656.3691795125422" y2="355.75413264084693" stroke="rgb(0,0,0)" stroke-width="1"/><line x1="331.11941321497085" y1="68.34910945173984" x2="199.64946110299235" y2="371.1823489914731" stroke="rgb(0,0,0)" stroke-width="1"/><line x1="435.42925597620604" y1="183.50606614428509" x2="660.8719073126379" y2="144.39284527480024" stroke="rgb(0,0,0)" stroke-width="1"/><line x1="199.64946110299235" y1="371.1823489914731" x2="663.2922848786321" y2="173.09487653623805" stroke="rgb(0,0,0)" stroke-width="1"/><line x1="660.8719073126379" y1="144.39284527480024" x2="656.3691795125422" y2="355.75413264084693" stroke="rgb(0,0,0)" stroke-width="1"/><polygon points="10,0 20,3 20,-3" fill="black" transform="translate(269.34598388512904,274.40572384841147) rotate(204.3660332267456)"/><polygon points="10,0 20,3 20,-3" fill="black" transform="translate(199.64946110299235,371.1823489914731) rotate(333.81601149142466)"/><polygon points="10,0 20,3 20,-3" fill="black" transform="translate(331.11941321497085,68.34910945173984) rotate(113.46726356159489)"/><polygon points="10,0 20,3 20,-3" fill="black" transform="translate(6.24738996457811,155.24692612860431) rotate(24.36603322674557)"/><polygon points="10,0 20,3 20,-3" fill="black" transform="translate(643.905158078415,383.97871687010536) rotate(181.64989489663674)"/><polygon points="10,0 20,3 20,-3" fill="black" transform="translate(435.42925597620604,183.50606614428509) rotate(350.15743178030493)"/><polygon points="10,0 20,3 20,-3" fill="black" transform="translate(660.8719073126379,144.39284527480024) rotate(91.2204140359191)"/><polygon points="10,0 20,3 20,-3" fill="black" transform="translate(682.4129688699998,8.814057650932927) rotate(96.63879916552149)"/><polygon points="10,0 20,3 20,-3" fill="black" transform="translate(199.64946110299235,371.1823489914731) rotate(336.86581396582994)"/><polygon points="10,0 20,3 20,-3" fill="black" transform="translate(488.22081296564096,252.49801234577183) rotate(335.6034758950731)"/><polygon points="10,0 20,3 20,-3" fill="black" transform="translate(199.64946110299235,371.1823489914731) rotate(1.6498948966367664)"/><polygon points="10,0 20,3 20,-3" fill="black" transform="translate(199.64946110299235,371.1823489914731) rotate(33.175966367828124)"/><polygon points="10,0 20,3 20,-3" fill="black" transform="translate(356.36813729338974,473.6423145475351) rotate(213.17596636782815)"/><polygon points="10,0 20,3 20,-3" fill="black" transform="translate(663.2922848786321,173.09487653623805) rotate(276.6387991655215)"/><polygon points="10,0 20,3 20,-3" fill="black" transform="translate(663.2922848786321,173.09487653623805) rotate(155.60347589507307)"/><polygon points="10,0 20,3 20,-3" fill="black" transform="translate(199.64946110299235,371.1823489914731) rotate(228.1508577214213)"/><polygon points="10,0 20,3 20,-3" fill="black" transform="translate(6.24738996457811,155.24692612860431) rotate(48.15085772142129)"/><polygon points="10,0 20,3 20,-3" fill="black" transform="translate(660.8719073126379,144.39284527480024) rotate(153.81601149142466)"/><polygon points="10,0 20,3 20,-3" fill="black" transform="translate(55.84465141937608,544.7099169685584) rotate(342.5337534562388)"/><polygon points="10,0 20,3 20,-3" fill="black" transform="translate(656.3691795125422,355.75413264084693) rotate(162.5337534562388)"/><polygon points="10,0 20,3 20,-3" fill="black" transform="translate(199.64946110299235,371.1823489914731) rotate(293.4672635615949)"/><polygon points="10,0 20,3 20,-3" fill="black" transform="translate(660.8719073126379,144.39284527480024) rotate(170.15743178030493)"/><polygon points="10,0 20,3 20,-3" fill="black" transform="translate(663.2922848786321,173.09487653623805) rotate(156.8658139658299)"/><polygon points="10,0 20,3 20,-3" fill="black" transform="translate(656.3691795125422,355.75413264084693) rotate(271.22041403591913)"/><circle cx="682.4129688699998" cy="8.814057650932927" r="10" fill="rgb(255,255,0)" stroke="rgb(0,0,0)" stroke-width="1"/><circle cx="199.64946110299235" cy="371.1823489914731" r="10" fill="rgb(255,255,0)" stroke="rgb(0,0,0)" stroke-width="1"/><circle cx="663.2922848786321" cy="173.09487653623805" r="10" fill="rgb(255,255,0)" stroke="rgb(0,0,0)" stroke-width="1"/><circle cx="356.36813729338974" cy="473.6423145475351" r="10" fill="rgb(255,255,0)" stroke="rgb(0,0,0)" stroke-width="1"/><circle cx="6.24738996457811" cy="155.24692612860431" r="10" fill="rgb(255,255,0)" stroke="rgb(0,0,0)" stroke-width="1"/><circle cx="435.42925597620604" cy="183.50606614428509" r="10" fill="rgb(255,255,0)" stroke="rgb(0,0,0)" stroke-width="1"/><circle cx="331.11941321497085" cy="68.34910945173984" r="10" fill="rgb(255,255,0)" stroke="rgb(0,0,0)" stroke-width="1"/><circle cx="269.34598388512904" cy="274.40572384841147" r="10" fill="rgb(255,255,0)" stroke="rgb(0,0,0)" stroke-width="1"/><circle cx="660.8719073126379" cy="144.39284527480024" r="10" fill="rgb(255,255,0)" stroke="rgb(0,0,0)" stroke-width="1"/><circle cx="488.22081296564096" cy="252.49801234577183" r="10" fill="rgb(255,255,0)" stroke="rgb(0,0,0)" stroke-width="1"/><circle cx="643.905158078415" cy="383.97871687010536" r="10" fill="rgb(255,255,0)" stroke="rgb(0,0,0)" stroke-width="1"/><circle cx="55.84465141937608" cy="544.7099169685584" r="10" fill="rgb(255,255,0)" stroke="rgb(0,0,0)" stroke-width="1"/><circle cx="656.3691795125422" cy="355.75413264084693" r="10" fill="rgb(255,255,0)" stroke="rgb(0,0,0)" stroke-width="1"/><text text-anchor="middle" alignment-baseline="middle" x="682.4129688699998" y="8.814057650932927" fill="rgb(0,0,0)" font-size="12">inch (in)</text><text text-anchor="middle" alignment-baseline="middle" x="199.64946110299235" y="371.1823489914731" fill="rgb(0,0,0)" font-size="12">meter (m)</text><text text-anchor="middle" alignment-baseline="middle" x="663.2922848786321" y="173.09487653623805" fill="rgb(0,0,0)" font-size="12">foot (ft)</text><text text-anchor="middle" alignment-baseline="middle" x="356.36813729338974" y="473.6423145475351" fill="rgb(0,0,0)" font-size="12">micrometer (μm)</text><text text-anchor="middle" alignment-baseline="middle" x="6.24738996457811" y="155.24692612860431" fill="rgb(0,0,0)" font-size="12">nanometer (nm)</text><text text-anchor="middle" alignment-baseline="middle" x="435.42925597620604" y="183.50606614428509" fill="rgb(0,0,0)" font-size="12">Astronomical Unit (AU)</text><text text-anchor="middle" alignment-baseline="middle" x="331.11941321497085" y="68.34910945173984" fill="rgb(0,0,0)" font-size="12">millimeter (mm)</text><text text-anchor="middle" alignment-baseline="middle" x="269.34598388512904" y="274.40572384841147" fill="rgb(0,0,0)" font-size="12">Planck length (ℓP)</text><text text-anchor="middle" alignment-baseline="middle" x="660.8719073126379" y="144.39284527480024" fill="rgb(0,0,0)" font-size="12">kilometer (km)</text><text text-anchor="middle" alignment-baseline="middle" x="488.22081296564096" y="252.49801234577183" fill="rgb(0,0,0)" font-size="12">mile (m)</text><text text-anchor="middle" alignment-baseline="middle" x="643.905158078415" y="383.97871687010536" fill="rgb(0,0,0)" font-size="12">centimeter (cm)</text><text text-anchor="middle" alignment-baseline="middle" x="55.84465141937608" y="544.7099169685584" fill="rgb(0,0,0)" font-size="12">parsec (pc)</text><text text-anchor="middle" alignment-baseline="middle" x="656.3691795125422" y="355.75413264084693" fill="rgb(0,0,0)" font-size="12">lightyear (ly)</text><text text-anchor="middle" alignment-baseline="middle" x="164.10654631690863" y="226.74220476048862" fill="rgb(0,0,0)" font-size="12">6.187353050365054E25</text><text text-anchor="middle" alignment-baseline="middle" x="384.13843958685055" y="280.46654750480394" fill="rgb(0,0,0)" font-size="12">0.0010000000000000002</text><text text-anchor="middle" alignment-baseline="middle" x="278.53143237017946" y="189.48240526763314" fill="rgb(0,0,0)" font-size="12">0.0010000000000000002</text><text text-anchor="middle" alignment-baseline="middle" x="111.48682753279851" y="202.9104452165272" fill="rgb(0,0,0)" font-size="12">1.6162E-26</text><text text-anchor="middle" alignment-baseline="middle" x="466.2028792882459" y="378.86016971865246" fill="rgb(0,0,0)" font-size="12">0.010000000000000002</text><text text-anchor="middle" alignment-baseline="middle" x="525.6063165107788" y="167.86077779649113" fill="rgb(0,0,0)" font-size="12">1.495978707E8</text><text text-anchor="middle" alignment-baseline="middle" x="659.0708161925996" y="228.9373602212189" fill="rgb(0,0,0)" font-size="12">1.0570008340246153E-13</text><text text-anchor="middle" alignment-baseline="middle" x="674.7646952734527" y="74.52638520505498" fill="rgb(0,0,0)" font-size="12">0.08333333333333333</text><text text-anchor="middle" alignment-baseline="middle" x="385.1065906132483" y="291.94736000937905" fill="rgb(0,0,0)" font-size="12">3.2808398950131235</text><text text-anchor="middle" alignment-baseline="middle" x="558.2494017308375" y="220.7367580219583" fill="rgb(0,0,0)" font-size="12">5280.0</text><text text-anchor="middle" alignment-baseline="middle" x="377.3517398931614" y="376.300896142926" fill="rgb(0,0,0)" font-size="12">100.0</text><text text-anchor="middle" alignment-baseline="middle" x="262.3369315791513" y="412.16633521389787" fill="rgb(0,0,0)" font-size="12">1000000.0</text><text text-anchor="middle" alignment-baseline="middle" x="293.68066681723076" y="432.6583283251103" fill="rgb(0,0,0)" font-size="12">1.0000000000000006E-6</text><text text-anchor="middle" alignment-baseline="middle" x="670.9405584751792" y="107.38254898211599" fill="rgb(0,0,0)" font-size="12">12.0</text><text text-anchor="middle" alignment-baseline="middle" x="593.2636961134357" y="204.85613086005156" fill="rgb(0,0,0)" font-size="12">1.893939393939394E-4</text><text text-anchor="middle" alignment-baseline="middle" x="122.28863264762664" y="284.8081798463256" fill="rgb(0,0,0)" font-size="12">1.0E9</text><text text-anchor="middle" alignment-baseline="middle" x="83.60821841994381" y="241.62109527375182" fill="rgb(0,0,0)" font-size="12">1.0000000000000009E-9</text><text text-anchor="middle" alignment-baseline="middle" x="476.38292882877965" y="235.10864676146937" fill="rgb(0,0,0)" font-size="12">1000.0</text><text text-anchor="middle" alignment-baseline="middle" x="296.05446265664256" y="469.12760323747386" fill="rgb(0,0,0)" font-size="12">3.26</text><text text-anchor="middle" alignment-baseline="middle" x="416.15936827527577" y="431.3364463719315" fill="rgb(0,0,0)" font-size="12">0.3067484662576687</text><text text-anchor="middle" alignment-baseline="middle" x="252.23744194778374" y="250.0490531755798" fill="rgb(0,0,0)" font-size="12">1000.0</text><text text-anchor="middle" alignment-baseline="middle" x="570.6948467780651" y="160.0381336225942" fill="rgb(0,0,0)" font-size="12">6.6845871222684464E-9</text><text text-anchor="middle" alignment-baseline="middle" x="477.8351553683762" y="252.32986551833207" fill="rgb(0,0,0)" font-size="12">0.3048</text><text text-anchor="middle" alignment-baseline="middle" x="658.1702706325805" y="271.20961769442823" fill="rgb(0,0,0)" font-size="12">9.4607304725808E12</text>
      Sorry, your browser does not support inline SVG.
    </svg>