<?xml version='1.0' encoding='UTF-8'?>
<svg version="1.1" width="700.0" height="700.0" onload="init(evt)" xmlns="http://www.w3.org/2000/svg">
      <style>.caption {
  font-size: 14px;
  font-family: Georgia, serif;
}
</style>
      <script type="text/ecmascript"><![CDATA[
function init(evt) {
  if ( window.svgDocument == null ) {
    svgDocument = evt.target.ownerDocument;
  }
}

function RectHover(evt, i, c) {
  rect = svgDocument.getElementById('rect' + i);
  if( c != null ) {
    rect.setAttributeNS(null, "fill", c)  
  }
  tooltiptext = svgDocument.getElementById('tooltiptext' + i);
  tooltipbg = svgDocument.getElementById('tooltipbg' + i);
  if( tooltipbg != null) {
    tbb = tooltiptext.getBBox();
    tooltipbg.setAttributeNS(null, "width", tbb.width);
    tooltipbg.setAttributeNS(null, "height", tbb.height);
    tooltipbg.setAttributeNS(null, "x", tbb.x);
    tooltipbg.setAttributeNS(null, "y", tbb.y);
    tooltipbg.setAttributeNS(null, "visibility", "visible");
  }
  tooltiptext.setAttributeNS(null,"visibility","visible");
}

function RectUnhover(evt, i, c) {
  rect = svgDocument.getElementById('rect' + i);
  if( c != null ) {
    rect.setAttributeNS(null, "fill", c)  
  }
  tooltiptext = svgDocument.getElementById('tooltiptext' + i);
  tooltiptext.setAttributeNS(null,"visibility","hidden");
  tooltipbg = svgDocument.getElementById('tooltipbg' + i);
  if( tooltipbg != null ) {
    tooltipbg.setAttributeNS(null,"visibility","hidden");
  }
}
]]></script>
      <line x1="389.07296887176943" y1="399.40047422823136" x2="408.469165844819" y2="601.8241756316563" stroke="rgb(0,0,0)" stroke-width="1"/><line x1="408.469165844819" y1="601.8241756316563" x2="372.86477391400484" y2="428.29871557143997" stroke="rgb(0,0,0)" stroke-width="1"/><line x1="226.82183090533394" y1="188.143118952167" x2="389.07296887176943" y2="399.40047422823136" stroke="rgb(0,0,0)" stroke-width="1"/><line x1="372.86477391400484" y1="428.29871557143997" x2="356.4112312492116" y2="361.38720803148954" stroke="rgb(0,0,0)" stroke-width="1"/><line x1="458.76430889913723" y1="362.13477520129624" x2="389.07296887176943" y2="399.40047422823136" stroke="rgb(0,0,0)" stroke-width="1"/><line x1="152.69276278982215" y1="346.76860080759855" x2="389.07296887176943" y2="399.40047422823136" stroke="rgb(0,0,0)" stroke-width="1"/><line x1="629.3411666935108" y1="548.2550479299289" x2="389.07296887176943" y2="399.40047422823136" stroke="rgb(0,0,0)" stroke-width="1"/><line x1="372.86477391400484" y1="428.29871557143997" x2="408.469165844819" y2="601.8241756316563" stroke="rgb(0,0,0)" stroke-width="1"/><line x1="52.140540621951374" y1="375.9527817062042" x2="389.07296887176943" y2="399.40047422823136" stroke="rgb(0,0,0)" stroke-width="1"/><line x1="389.07296887176943" y1="399.40047422823136" x2="629.3411666935108" y2="548.2550479299289" stroke="rgb(0,0,0)" stroke-width="1"/><line x1="52.140540621951374" y1="375.9527817062042" x2="128.79624931564564" y2="315.37945571798036" stroke="rgb(0,0,0)" stroke-width="1"/><line x1="389.07296887176943" y1="399.40047422823136" x2="52.140540621951374" y2="375.9527817062042" stroke="rgb(0,0,0)" stroke-width="1"/><line x1="458.76430889913723" y1="362.13477520129624" x2="123.79092650929101" y2="478.12854069016646" stroke="rgb(0,0,0)" stroke-width="1"/><line x1="389.07296887176943" y1="399.40047422823136" x2="226.82183090533394" y2="188.143118952167" stroke="rgb(0,0,0)" stroke-width="1"/><line x1="128.79624931564564" y1="315.37945571798036" x2="52.140540621951374" y2="375.9527817062042" stroke="rgb(0,0,0)" stroke-width="1"/><line x1="123.79092650929101" y1="478.12854069016646" x2="458.76430889913723" y2="362.13477520129624" stroke="rgb(0,0,0)" stroke-width="1"/><line x1="224.4759053523367" y1="493.6186730272196" x2="458.76430889913723" y2="362.13477520129624" stroke="rgb(0,0,0)" stroke-width="1"/><line x1="458.76430889913723" y1="362.13477520129624" x2="224.4759053523367" y2="493.6186730272196" stroke="rgb(0,0,0)" stroke-width="1"/><line x1="544.1203946756303" y1="271.422846586339" x2="408.469165844819" y2="601.8241756316563" stroke="rgb(0,0,0)" stroke-width="1"/><line x1="408.469165844819" y1="601.8241756316563" x2="389.07296887176943" y2="399.40047422823136" stroke="rgb(0,0,0)" stroke-width="1"/><line x1="389.07296887176943" y1="399.40047422823136" x2="458.76430889913723" y2="362.13477520129624" stroke="rgb(0,0,0)" stroke-width="1"/><line x1="389.07296887176943" y1="399.40047422823136" x2="152.69276278982215" y2="346.76860080759855" stroke="rgb(0,0,0)" stroke-width="1"/><line x1="356.4112312492116" y1="361.38720803148954" x2="372.86477391400484" y2="428.29871557143997" stroke="rgb(0,0,0)" stroke-width="1"/><line x1="408.469165844819" y1="601.8241756316563" x2="544.1203946756303" y2="271.422846586339" stroke="rgb(0,0,0)" stroke-width="1"/><polygon points="10,0 20,3 20,-3" fill="black" transform="translate(408.469165844819,601.8241756316563) rotate(264.52664059850156)"/><polygon points="10,0 20,3 20,-3" fill="black" transform="translate(372.86477391400484,428.29871557143997) rotate(78.4048380291768)"/><polygon points="10,0 20,3 20,-3" fill="black" transform="translate(389.07296887176943,399.40047422823136) rotate(232.47480099164488)"/><polygon points="10,0 20,3 20,-3" fill="black" transform="translate(356.4112312492116,361.38720803148954) rotate(76.18506083987192)"/><polygon points="10,0 20,3 20,-3" fill="black" transform="translate(389.07296887176943,399.40047422823136) rotate(331.86547202213353)"/><polygon points="10,0 20,3 20,-3" fill="black" transform="translate(389.07296887176943,399.40047422823136) rotate(192.55258248195463)"/><polygon points="10,0 20,3 20,-3" fill="black" transform="translate(389.07296887176943,399.40047422823136) rotate(31.779666706757126)"/><polygon points="10,0 20,3 20,-3" fill="black" transform="translate(408.469165844819,601.8241756316563) rotate(258.4048380291768)"/><polygon points="10,0 20,3 20,-3" fill="black" transform="translate(389.07296887176943,399.40047422823136) rotate(183.9808911395339)"/><polygon points="10,0 20,3 20,-3" fill="black" transform="translate(629.3411666935108,548.2550479299289) rotate(211.77966670675713)"/><polygon points="10,0 20,3 20,-3" fill="black" transform="translate(128.79624931564564,315.37945571798036) rotate(141.68421633477797)"/><polygon points="10,0 20,3 20,-3" fill="black" transform="translate(52.140540621951374,375.9527817062042) rotate(3.980891139533867)"/><polygon points="10,0 20,3 20,-3" fill="black" transform="translate(123.79092650929101,478.12854069016646) rotate(340.9001784203874)"/><polygon points="10,0 20,3 20,-3" fill="black" transform="translate(226.82183090533394,188.143118952167) rotate(52.474800991644884)"/><polygon points="10,0 20,3 20,-3" fill="black" transform="translate(52.140540621951374,375.9527817062042) rotate(321.68421633477794)"/><polygon points="10,0 20,3 20,-3" fill="black" transform="translate(458.76430889913723,362.13477520129624) rotate(160.9001784203874)"/><polygon points="10,0 20,3 20,-3" fill="black" transform="translate(458.76430889913723,362.13477520129624) rotate(150.69862791035388)"/><polygon points="10,0 20,3 20,-3" fill="black" transform="translate(224.4759053523367,493.6186730272196) rotate(330.6986279103539)"/><polygon points="10,0 20,3 20,-3" fill="black" transform="translate(408.469165844819,601.8241756316563) rotate(292.32133820639535)"/><polygon points="10,0 20,3 20,-3" fill="black" transform="translate(389.07296887176943,399.40047422823136) rotate(84.52664059850154)"/><polygon points="10,0 20,3 20,-3" fill="black" transform="translate(458.76430889913723,362.13477520129624) rotate(151.86547202213353)"/><polygon points="10,0 20,3 20,-3" fill="black" transform="translate(152.69276278982215,346.76860080759855) rotate(12.552582481954602)"/><polygon points="10,0 20,3 20,-3" fill="black" transform="translate(372.86477391400484,428.29871557143997) rotate(256.18506083987194)"/><polygon points="10,0 20,3 20,-3" fill="black" transform="translate(544.1203946756303,271.422846586339) rotate(112.32133820639531)"/><circle cx="123.79092650929101" cy="478.12854069016646" r="10" fill="rgb(255,255,0)" stroke="rgb(0,0,0)" stroke-width="1"/><circle cx="389.07296887176943" cy="399.40047422823136" r="10" fill="rgb(255,255,0)" stroke="rgb(0,0,0)" stroke-width="1"/><circle cx="458.76430889913723" cy="362.13477520129624" r="10" fill="rgb(255,255,0)" stroke="rgb(0,0,0)" stroke-width="1"/><circle cx="152.69276278982215" cy="346.76860080759855" r="10" fill="rgb(255,255,0)" stroke="rgb(0,0,0)" stroke-width="1"/><circle cx="52.140540621951374" cy="375.9527817062042" r="10" fill="rgb(255,255,0)" stroke="rgb(0,0,0)" stroke-width="1"/><circle cx="544.1203946756303" cy="271.422846586339" r="10" fill="rgb(255,255,0)" stroke="rgb(0,0,0)" stroke-width="1"/><circle cx="226.82183090533394" cy="188.143118952167" r="10" fill="rgb(255,255,0)" stroke="rgb(0,0,0)" stroke-width="1"/><circle cx="128.79624931564564" cy="315.37945571798036" r="10" fill="rgb(255,255,0)" stroke="rgb(0,0,0)" stroke-width="1"/><circle cx="408.469165844819" cy="601.8241756316563" r="10" fill="rgb(255,255,0)" stroke="rgb(0,0,0)" stroke-width="1"/><circle cx="224.4759053523367" cy="493.6186730272196" r="10" fill="rgb(255,255,0)" stroke="rgb(0,0,0)" stroke-width="1"/><circle cx="629.3411666935108" cy="548.2550479299289" r="10" fill="rgb(255,255,0)" stroke="rgb(0,0,0)" stroke-width="1"/><circle cx="356.4112312492116" cy="361.38720803148954" r="10" fill="rgb(255,255,0)" stroke="rgb(0,0,0)" stroke-width="1"/><circle cx="372.86477391400484" cy="428.29871557143997" r="10" fill="rgb(255,255,0)" stroke="rgb(0,0,0)" stroke-width="1"/><text text-anchor="middle" alignment-baseline="middle" x="123.79092650929101" y="478.12854069016646" fill="rgb(0,0,0)" font-size="12">inch (in)</text><text text-anchor="middle" alignment-baseline="middle" x="389.07296887176943" y="399.40047422823136" fill="rgb(0,0,0)" font-size="12">meter (m)</text><text text-anchor="middle" alignment-baseline="middle" x="458.76430889913723" y="362.13477520129624" fill="rgb(0,0,0)" font-size="12">foot (ft)</text><text text-anchor="middle" alignment-baseline="middle" x="152.69276278982215" y="346.76860080759855" fill="rgb(0,0,0)" font-size="12">micrometer (μm)</text><text text-anchor="middle" alignment-baseline="middle" x="52.140540621951374" y="375.9527817062042" fill="rgb(0,0,0)" font-size="12">nanometer (nm)</text><text text-anchor="middle" alignment-baseline="middle" x="544.1203946756303" y="271.422846586339" fill="rgb(0,0,0)" font-size="12">Astronomical Unit (AU)</text><text text-anchor="middle" alignment-baseline="middle" x="226.82183090533394" y="188.143118952167" fill="rgb(0,0,0)" font-size="12">millimeter (mm)</text><text text-anchor="middle" alignment-baseline="middle" x="128.79624931564564" y="315.37945571798036" fill="rgb(0,0,0)" font-size="12">Planck length (ℓP)</text><text text-anchor="middle" alignment-baseline="middle" x="408.469165844819" y="601.8241756316563" fill="rgb(0,0,0)" font-size="12">kilometer (km)</text><text text-anchor="middle" alignment-baseline="middle" x="224.4759053523367" y="493.6186730272196" fill="rgb(0,0,0)" font-size="12">mile (m)</text><text text-anchor="middle" alignment-baseline="middle" x="629.3411666935108" y="548.2550479299289" fill="rgb(0,0,0)" font-size="12">centimeter (cm)</text><text text-anchor="middle" alignment-baseline="middle" x="356.4112312492116" y="361.38720803148954" fill="rgb(0,0,0)" font-size="12">parsec (pc)</text><text text-anchor="middle" alignment-baseline="middle" x="372.86477391400484" y="428.29871557143997" fill="rgb(0,0,0)" font-size="12">lightyear (ly)</text><text text-anchor="middle" alignment-baseline="middle" x="400.7106870555992" y="520.8546950702863" fill="rgb(0,0,0)" font-size="12">1000.0</text><text text-anchor="middle" alignment-baseline="middle" x="387.1065306863305" y="497.70889959552653" fill="rgb(0,0,0)" font-size="12">9.4607304725808E12</text><text text-anchor="middle" alignment-baseline="middle" x="324.1725136851952" y="314.8975321178056" fill="rgb(0,0,0)" font-size="12">1000.0</text><text text-anchor="middle" alignment-baseline="middle" x="362.9926483151289" y="388.1518110474697" fill="rgb(0,0,0)" font-size="12">3.26</text><text text-anchor="middle" alignment-baseline="middle" x="416.94950488271655" y="384.4941946174573" fill="rgb(0,0,0)" font-size="12">3.2808398950131235</text><text text-anchor="middle" alignment-baseline="middle" x="294.5208864389905" y="378.34772485997826" fill="rgb(0,0,0)" font-size="12">1000000.0</text><text text-anchor="middle" alignment-baseline="middle" x="485.180248000466" y="458.94230370891034" fill="rgb(0,0,0)" font-size="12">100.0</text><text text-anchor="middle" alignment-baseline="middle" x="394.22740907249334" y="532.4139916075698" fill="rgb(0,0,0)" font-size="12">1.0570008340246153E-13</text><text text-anchor="middle" alignment-baseline="middle" x="254.2999975718422" y="390.02139721942046" fill="rgb(0,0,0)" font-size="12">1.0E9</text><text text-anchor="middle" alignment-baseline="middle" x="533.2338875648143" y="488.7132184492499" fill="rgb(0,0,0)" font-size="12">0.010000000000000002</text><text text-anchor="middle" alignment-baseline="middle" x="98.13396583816794" y="339.6087861132699" fill="rgb(0,0,0)" font-size="12">6.187353050365054E25</text><text text-anchor="middle" alignment-baseline="middle" x="186.9135119218786" y="385.3318587150151" fill="rgb(0,0,0)" font-size="12">1.0000000000000009E-9</text><text text-anchor="middle" alignment-baseline="middle" x="257.7802794652295" y="431.73103449461837" fill="rgb(0,0,0)" font-size="12">0.08333333333333333</text><text text-anchor="middle" alignment-baseline="middle" x="291.72228609190813" y="272.6460610625927" fill="rgb(0,0,0)" font-size="12">0.0010000000000000002</text><text text-anchor="middle" alignment-baseline="middle" x="82.80282409942907" y="351.72345131091464" fill="rgb(0,0,0)" font-size="12">1.6162E-26</text><text text-anchor="middle" alignment-baseline="middle" x="324.77495594319873" y="408.5322813968443" fill="rgb(0,0,0)" font-size="12">12.0</text><text text-anchor="middle" alignment-baseline="middle" x="365.04894748041704" y="414.72833433166556" fill="rgb(0,0,0)" font-size="12">1.893939393939394E-4</text><text text-anchor="middle" alignment-baseline="middle" x="318.1912667710569" y="441.02511389685026" fill="rgb(0,0,0)" font-size="12">5280.0</text><text text-anchor="middle" alignment-baseline="middle" x="462.72965737714355" y="469.6636440135294" fill="rgb(0,0,0)" font-size="12">6.6845871222684464E-9</text><text text-anchor="middle" alignment-baseline="middle" x="396.8314476609892" y="480.36995478960137" fill="rgb(0,0,0)" font-size="12">0.0010000000000000002</text><text text-anchor="middle" alignment-baseline="middle" x="430.8877728881901" y="377.0410548120703" fill="rgb(0,0,0)" font-size="12">0.3048</text><text text-anchor="middle" alignment-baseline="middle" x="247.24484522260107" y="367.82135017585165" fill="rgb(0,0,0)" font-size="12">1.0000000000000006E-6</text><text text-anchor="middle" alignment-baseline="middle" x="366.2833568480875" y="401.5341125554598" fill="rgb(0,0,0)" font-size="12">0.3067484662576687</text><text text-anchor="middle" alignment-baseline="middle" x="489.8599031433058" y="403.58337820446593" fill="rgb(0,0,0)" font-size="12">1.495978707E8</text>
      Sorry, your browser does not support inline SVG.
    </svg>