<?xml version='1.0' encoding='UTF-8'?>
<svg version="1.1" width="700.0" height="700.0" onload="init(evt)" xmlns="http://www.w3.org/2000/svg">
      <style>.caption {
  font-size: 14px;
  font-family: Georgia, serif;
}
</style>
      <script type="text/ecmascript"><![CDATA[
function init(evt) {
  if ( window.svgDocument == null ) {
    svgDocument = evt.target.ownerDocument;
  }
}

function RectHover(evt, i, c) {
  rect = svgDocument.getElementById('rect' + i);
  if( c != null ) {
    rect.setAttributeNS(null, "fill", c)  
  }
  tooltiptext = svgDocument.getElementById('tooltiptext' + i);
  tooltipbg = svgDocument.getElementById('tooltipbg' + i);
  if( tooltipbg != null) {
    tbb = tooltiptext.getBBox();
    tooltipbg.setAttributeNS(null, "width", tbb.width);
    tooltipbg.setAttributeNS(null, "height", tbb.height);
    tooltipbg.setAttributeNS(null, "x", tbb.x);
    tooltipbg.setAttributeNS(null, "y", tbb.y);
    tooltipbg.setAttributeNS(null, "visibility", "visible");
  }
  tooltiptext.setAttributeNS(null,"visibility","visible");
}

function RectUnhover(evt, i, c) {
  rect = svgDocument.getElementById('rect' + i);
  if( c != null ) {
    rect.setAttributeNS(null, "fill", c)  
  }
  tooltiptext = svgDocument.getElementById('tooltiptext' + i);
  tooltiptext.setAttributeNS(null,"visibility","hidden");
  tooltipbg = svgDocument.getElementById('tooltipbg' + i);
  if( tooltipbg != null ) {
    tooltipbg.setAttributeNS(null,"visibility","hidden");
  }
}
]]></script>
      <line x1="595.6819664154941" y1="106.29307594153978" x2="374.4467472292322" y2="302.9930056600702" stroke="rgb(0,0,0)" stroke-width="1"/><line x1="81.88239062091122" y1="486.5172473239593" x2="622.4847959487719" y2="406.8203440636632" stroke="rgb(0,0,0)" stroke-width="1"/><line x1="658.6276420198403" y1="239.19829599913106" x2="374.1554516725533" y2="288.33234311076683" stroke="rgb(0,0,0)" stroke-width="1"/><line x1="658.6276420198403" y1="239.19829599913106" x2="54.10054444524769" y2="556.0679444385586" stroke="rgb(0,0,0)" stroke-width="1"/><line x1="467.37559681457736" y1="507.217680928324" x2="595.6819664154941" y2="106.29307594153978" stroke="rgb(0,0,0)" stroke-width="1"/><line x1="437.4851519327398" y1="291.3181099244976" x2="467.37559681457736" y2="507.217680928324" stroke="rgb(0,0,0)" stroke-width="1"/><line x1="374.4467472292322" y1="302.9930056600702" x2="595.6819664154941" y2="106.29307594153978" stroke="rgb(0,0,0)" stroke-width="1"/><line x1="81.88239062091122" y1="486.5172473239593" x2="658.6276420198403" y2="239.19829599913106" stroke="rgb(0,0,0)" stroke-width="1"/><line x1="658.6276420198403" y1="239.19829599913106" x2="595.6819664154941" y2="106.29307594153978" stroke="rgb(0,0,0)" stroke-width="1"/><line x1="658.6276420198403" y1="239.19829599913106" x2="307.306647367104" y2="595.4784381049292" stroke="rgb(0,0,0)" stroke-width="1"/><line x1="467.37559681457736" y1="507.217680928324" x2="437.4851519327398" y2="291.3181099244976" stroke="rgb(0,0,0)" stroke-width="1"/><line x1="374.1554516725533" y1="288.33234311076683" x2="388.9192583041271" y2="330.57634150068253" stroke="rgb(0,0,0)" stroke-width="1"/><line x1="54.10054444524769" y1="556.0679444385586" x2="658.6276420198403" y2="239.19829599913106" stroke="rgb(0,0,0)" stroke-width="1"/><line x1="595.6819664154941" y1="106.29307594153978" x2="467.37559681457736" y2="507.217680928324" stroke="rgb(0,0,0)" stroke-width="1"/><line x1="658.6276420198403" y1="239.19829599913106" x2="272.3313263464895" y2="452.35386262089384" stroke="rgb(0,0,0)" stroke-width="1"/><line x1="658.6276420198403" y1="239.19829599913106" x2="81.88239062091122" y2="486.5172473239593" stroke="rgb(0,0,0)" stroke-width="1"/><line x1="307.306647367104" y1="595.4784381049292" x2="658.6276420198403" y2="239.19829599913106" stroke="rgb(0,0,0)" stroke-width="1"/><line x1="622.4847959487719" y1="406.8203440636632" x2="81.88239062091122" y2="486.5172473239593" stroke="rgb(0,0,0)" stroke-width="1"/><line x1="129.19411715121356" y1="374.3506985471295" x2="81.88239062091122" y2="486.5172473239593" stroke="rgb(0,0,0)" stroke-width="1"/><line x1="374.1554516725533" y1="288.33234311076683" x2="658.6276420198403" y2="239.19829599913106" stroke="rgb(0,0,0)" stroke-width="1"/><line x1="595.6819664154941" y1="106.29307594153978" x2="658.6276420198403" y2="239.19829599913106" stroke="rgb(0,0,0)" stroke-width="1"/><line x1="388.9192583041271" y1="330.57634150068253" x2="374.1554516725533" y2="288.33234311076683" stroke="rgb(0,0,0)" stroke-width="1"/><line x1="81.88239062091122" y1="486.5172473239593" x2="129.19411715121356" y2="374.3506985471295" stroke="rgb(0,0,0)" stroke-width="1"/><line x1="272.3313263464895" y1="452.35386262089384" x2="658.6276420198403" y2="239.19829599913106" stroke="rgb(0,0,0)" stroke-width="1"/><polygon points="10,0 20,3 20,-3" fill="black" transform="translate(374.4467472292322,302.9930056600702) rotate(318.3597483431594)"/><polygon points="10,0 20,3 20,-3" fill="black" transform="translate(622.4847959487719,406.8203440636632) rotate(171.61372459687354)"/><polygon points="10,0 20,3 20,-3" fill="black" transform="translate(374.1554516725533,288.33234311076683) rotate(350.2005539233555)"/><polygon points="10,0 20,3 20,-3" fill="black" transform="translate(54.10054444524769,556.0679444385586) rotate(332.3382156452062)"/><polygon points="10,0 20,3 20,-3" fill="black" transform="translate(595.6819664154941,106.29307594153978) rotate(107.74603225947473)"/><polygon points="10,0 20,3 20,-3" fill="black" transform="translate(467.37559681457736,507.217680928324) rotate(262.11773087376605)"/><polygon points="10,0 20,3 20,-3" fill="black" transform="translate(595.6819664154941,106.29307594153978) rotate(138.35974834315942)"/><polygon points="10,0 20,3 20,-3" fill="black" transform="translate(658.6276420198403,239.19829599913106) rotate(156.78945795303758)"/><polygon points="10,0 20,3 20,-3" fill="black" transform="translate(595.6819664154941,106.29307594153978) rotate(64.65714396719525)"/><polygon points="10,0 20,3 20,-3" fill="black" transform="translate(307.306647367104,595.4784381049292) rotate(314.5984551856132)"/><polygon points="10,0 20,3 20,-3" fill="black" transform="translate(437.4851519327398,291.3181099244976) rotate(82.11773087376604)"/><polygon points="10,0 20,3 20,-3" fill="black" transform="translate(388.9192583041271,330.57634150068253) rotate(250.7360483131591)"/><polygon points="10,0 20,3 20,-3" fill="black" transform="translate(658.6276420198403,239.19829599913106) rotate(152.33821564520622)"/><polygon points="10,0 20,3 20,-3" fill="black" transform="translate(467.37559681457736,507.217680928324) rotate(287.74603225947476)"/><polygon points="10,0 20,3 20,-3" fill="black" transform="translate(272.3313263464895,452.35386262089384) rotate(331.11039767972727)"/><polygon points="10,0 20,3 20,-3" fill="black" transform="translate(81.88239062091122,486.5172473239593) rotate(336.78945795303764)"/><polygon points="10,0 20,3 20,-3" fill="black" transform="translate(658.6276420198403,239.19829599913106) rotate(134.59845518561318)"/><polygon points="10,0 20,3 20,-3" fill="black" transform="translate(81.88239062091122,486.5172473239593) rotate(351.61372459687357)"/><polygon points="10,0 20,3 20,-3" fill="black" transform="translate(81.88239062091122,486.5172473239593) rotate(292.8699635001615)"/><polygon points="10,0 20,3 20,-3" fill="black" transform="translate(658.6276420198403,239.19829599913106) rotate(170.20055392335547)"/><polygon points="10,0 20,3 20,-3" fill="black" transform="translate(658.6276420198403,239.19829599913106) rotate(244.65714396719528)"/><polygon points="10,0 20,3 20,-3" fill="black" transform="translate(374.1554516725533,288.33234311076683) rotate(70.73604831315907)"/><polygon points="10,0 20,3 20,-3" fill="black" transform="translate(129.19411715121356,374.3506985471295) rotate(112.86996350016149)"/><polygon points="10,0 20,3 20,-3" fill="black" transform="translate(658.6276420198403,239.19829599913106) rotate(151.1103976797273)"/><circle cx="129.19411715121356" cy="374.3506985471295" r="10" fill="rgb(255,255,0)" stroke="rgb(0,0,0)" stroke-width="1"/><circle cx="658.6276420198403" cy="239.19829599913106" r="10" fill="rgb(255,255,0)" stroke="rgb(0,0,0)" stroke-width="1"/><circle cx="81.88239062091122" cy="486.5172473239593" r="10" fill="rgb(255,255,0)" stroke="rgb(0,0,0)" stroke-width="1"/><circle cx="54.10054444524769" cy="556.0679444385586" r="10" fill="rgb(255,255,0)" stroke="rgb(0,0,0)" stroke-width="1"/><circle cx="374.1554516725533" cy="288.33234311076683" r="10" fill="rgb(255,255,0)" stroke="rgb(0,0,0)" stroke-width="1"/><circle cx="374.4467472292322" cy="302.9930056600702" r="10" fill="rgb(255,255,0)" stroke="rgb(0,0,0)" stroke-width="1"/><circle cx="307.306647367104" cy="595.4784381049292" r="10" fill="rgb(255,255,0)" stroke="rgb(0,0,0)" stroke-width="1"/><circle cx="388.9192583041271" cy="330.57634150068253" r="10" fill="rgb(255,255,0)" stroke="rgb(0,0,0)" stroke-width="1"/><circle cx="595.6819664154941" cy="106.29307594153978" r="10" fill="rgb(255,255,0)" stroke="rgb(0,0,0)" stroke-width="1"/><circle cx="622.4847959487719" cy="406.8203440636632" r="10" fill="rgb(255,255,0)" stroke="rgb(0,0,0)" stroke-width="1"/><circle cx="272.3313263464895" cy="452.35386262089384" r="10" fill="rgb(255,255,0)" stroke="rgb(0,0,0)" stroke-width="1"/><circle cx="437.4851519327398" cy="291.3181099244976" r="10" fill="rgb(255,255,0)" stroke="rgb(0,0,0)" stroke-width="1"/><circle cx="467.37559681457736" cy="507.217680928324" r="10" fill="rgb(255,255,0)" stroke="rgb(0,0,0)" stroke-width="1"/><text text-anchor="middle" alignment-baseline="middle" x="129.19411715121356" y="374.3506985471295" fill="rgb(0,0,0)" font-size="12">inch (in)</text><text text-anchor="middle" alignment-baseline="middle" x="658.6276420198403" y="239.19829599913106" fill="rgb(0,0,0)" font-size="12">meter (m)</text><text text-anchor="middle" alignment-baseline="middle" x="81.88239062091122" y="486.5172473239593" fill="rgb(0,0,0)" font-size="12">foot (ft)</text><text text-anchor="middle" alignment-baseline="middle" x="54.10054444524769" y="556.0679444385586" fill="rgb(0,0,0)" font-size="12">micrometer (μm)</text><text text-anchor="middle" alignment-baseline="middle" x="374.1554516725533" y="288.33234311076683" fill="rgb(0,0,0)" font-size="12">nanometer (nm)</text><text text-anchor="middle" alignment-baseline="middle" x="374.4467472292322" y="302.9930056600702" fill="rgb(0,0,0)" font-size="12">Astronomical Unit (AU)</text><text text-anchor="middle" alignment-baseline="middle" x="307.306647367104" y="595.4784381049292" fill="rgb(0,0,0)" font-size="12">millimeter (mm)</text><text text-anchor="middle" alignment-baseline="middle" x="388.9192583041271" y="330.57634150068253" fill="rgb(0,0,0)" font-size="12">Planck length (ℓP)</text><text text-anchor="middle" alignment-baseline="middle" x="595.6819664154941" y="106.29307594153978" fill="rgb(0,0,0)" font-size="12">kilometer (km)</text><text text-anchor="middle" alignment-baseline="middle" x="622.4847959487719" y="406.8203440636632" fill="rgb(0,0,0)" font-size="12">mile (m)</text><text text-anchor="middle" alignment-baseline="middle" x="272.3313263464895" y="452.35386262089384" fill="rgb(0,0,0)" font-size="12">centimeter (cm)</text><text text-anchor="middle" alignment-baseline="middle" x="437.4851519327398" y="291.3181099244976" fill="rgb(0,0,0)" font-size="12">parsec (pc)</text><text text-anchor="middle" alignment-baseline="middle" x="467.37559681457736" y="507.217680928324" fill="rgb(0,0,0)" font-size="12">lightyear (ly)</text><text text-anchor="middle" alignment-baseline="middle" x="462.94083490373697" y="224.31303377265803" fill="rgb(0,0,0)" font-size="12">1.495978707E8</text><text text-anchor="middle" alignment-baseline="middle" x="406.2438338176276" y="438.6991053677816" fill="rgb(0,0,0)" font-size="12">5280.0</text><text text-anchor="middle" alignment-baseline="middle" x="487.9443278114681" y="268.6787242661125" fill="rgb(0,0,0)" font-size="12">1.0000000000000009E-9</text><text text-anchor="middle" alignment-baseline="middle" x="295.91138347508473" y="429.3200850627876" fill="rgb(0,0,0)" font-size="12">1.0000000000000006E-6</text><text text-anchor="middle" alignment-baseline="middle" x="544.3594185751274" y="266.6629179362535" fill="rgb(0,0,0)" font-size="12">1.0570008340246153E-13</text><text text-anchor="middle" alignment-baseline="middle" x="455.41941886184236" y="420.8578525267934" fill="rgb(0,0,0)" font-size="12">0.3067484662576687</text><text text-anchor="middle" alignment-baseline="middle" x="507.18787874098933" y="184.97304782895196" fill="rgb(0,0,0)" font-size="12">6.6845871222684464E-9</text><text text-anchor="middle" alignment-baseline="middle" x="427.9295414602687" y="338.12587652906234" fill="rgb(0,0,0)" font-size="12">3.2808398950131235</text><text text-anchor="middle" alignment-baseline="middle" x="620.8602366572326" y="159.4551639645763" fill="rgb(0,0,0)" font-size="12">1000.0</text><text text-anchor="middle" alignment-baseline="middle" x="447.8350452281985" y="452.96638126260996" fill="rgb(0,0,0)" font-size="12">0.0010000000000000002</text><text text-anchor="middle" alignment-baseline="middle" x="449.44132988547483" y="377.6779383260282" fill="rgb(0,0,0)" font-size="12">3.26</text><text text-anchor="middle" alignment-baseline="middle" x="383.01373565149754" y="313.67874214471624" fill="rgb(0,0,0)" font-size="12">6.187353050365054E25</text><text text-anchor="middle" alignment-baseline="middle" x="416.8168029900033" y="365.9461553749021" fill="rgb(0,0,0)" font-size="12">1000000.0</text><text text-anchor="middle" alignment-baseline="middle" x="518.698144654944" y="346.8478389336103" fill="rgb(0,0,0)" font-size="12">9.4607304725808E12</text><text text-anchor="middle" alignment-baseline="middle" x="426.84985261582983" y="367.0916359721887" fill="rgb(0,0,0)" font-size="12">0.010000000000000002</text><text text-anchor="middle" alignment-baseline="middle" x="312.58049118048285" y="387.58966679402795" fill="rgb(0,0,0)" font-size="12">0.3048</text><text text-anchor="middle" alignment-baseline="middle" x="518.0992441587458" y="381.71035284145034" fill="rgb(0,0,0)" font-size="12">1000.0</text><text text-anchor="middle" alignment-baseline="middle" x="298.1233527520555" y="454.63848601984085" fill="rgb(0,0,0)" font-size="12">1.893939393939394E-4</text><text text-anchor="middle" alignment-baseline="middle" x="100.80708123303216" y="441.6506278132274" fill="rgb(0,0,0)" font-size="12">12.0</text><text text-anchor="middle" alignment-baseline="middle" x="544.8387658809255" y="258.8519148437854" fill="rgb(0,0,0)" font-size="12">1.0E9</text><text text-anchor="middle" alignment-baseline="middle" x="633.4493717781019" y="186.03620797609454" fill="rgb(0,0,0)" font-size="12">0.0010000000000000002</text><text text-anchor="middle" alignment-baseline="middle" x="380.0609743251828" y="305.2299424667331" fill="rgb(0,0,0)" font-size="12">1.6162E-26</text><text text-anchor="middle" alignment-baseline="middle" x="110.26942653909262" y="419.21731805786146" fill="rgb(0,0,0)" font-size="12">0.08333333333333333</text><text text-anchor="middle" alignment-baseline="middle" x="504.1091157505" y="324.46052264783617" fill="rgb(0,0,0)" font-size="12">100.0</text>
      Sorry, your browser does not support inline SVG.
    </svg>