<?xml version='1.0' encoding='UTF-8'?>
<svg version="1.1" width="700.0" height="700.0" onload="init(evt)" xmlns="http://www.w3.org/2000/svg">
      <style>.caption {
  font-size: 14px;
  font-family: Georgia, serif;
}
</style>
      <script type="text/ecmascript"><![CDATA[
function init(evt) {
  if ( window.svgDocument == null ) {
    svgDocument = evt.target.ownerDocument;
  }
}

function RectHover(evt, i, c) {
  rect = svgDocument.getElementById('rect' + i);
  if( c != null ) {
    rect.setAttributeNS(null, "fill", c)  
  }
  tooltiptext = svgDocument.getElementById('tooltiptext' + i);
  tooltipbg = svgDocument.getElementById('tooltipbg' + i);
  if( tooltipbg != null) {
    tbb = tooltiptext.getBBox();
    tooltipbg.setAttributeNS(null, "width", tbb.width);
    tooltipbg.setAttributeNS(null, "height", tbb.height);
    tooltipbg.setAttributeNS(null, "x", tbb.x);
    tooltipbg.setAttributeNS(null, "y", tbb.y);
    tooltipbg.setAttributeNS(null, "visibility", "visible");
  }
  tooltiptext.setAttributeNS(null,"visibility","visible");
}

function RectUnhover(evt, i, c) {
  rect = svgDocument.getElementById('rect' + i);
  if( c != null ) {
    rect.setAttributeNS(null, "fill", c)  
  }
  tooltiptext = svgDocument.getElementById('tooltiptext' + i);
  tooltiptext.setAttributeNS(null,"visibility","hidden");
  tooltipbg = svgDocument.getElementById('tooltipbg' + i);
  if( tooltipbg != null ) {
    tooltipbg.setAttributeNS(null,"visibility","hidden");
  }
}
]]></script>
      <line x1="462.34192062811906" y1="513.814826026805" x2="626.5843412367526" y2="259.0346902516008" stroke="rgb(0,0,0)" stroke-width="1"/><line x1="626.5843412367526" y1="259.0346902516008" x2="463.4293158658486" y2="494.6409413963083" stroke="rgb(0,0,0)" stroke-width="1"/><line x1="463.4293158658486" y1="494.6409413963083" x2="323.5207711115888" y2="299.73008026949304" stroke="rgb(0,0,0)" stroke-width="1"/><line x1="0.2633307281539765" y1="481.26514303076056" x2="463.4293158658486" y2="494.6409413963083" stroke="rgb(0,0,0)" stroke-width="1"/><line x1="251.8135351797072" y1="318.0622636907942" x2="305.5989802527876" y2="301.8382642780927" stroke="rgb(0,0,0)" stroke-width="1"/><line x1="99.99431952469558" y1="227.79695095718148" x2="341.0846185558363" y2="655.1593334624738" stroke="rgb(0,0,0)" stroke-width="1"/><line x1="463.4293158658486" y1="494.6409413963083" x2="251.8135351797072" y2="318.0622636907942" stroke="rgb(0,0,0)" stroke-width="1"/><line x1="403.5041354716504" y1="343.934696383437" x2="626.5843412367526" y2="259.0346902516008" stroke="rgb(0,0,0)" stroke-width="1"/><line x1="626.5843412367526" y1="259.0346902516008" x2="462.34192062811906" y2="513.814826026805" stroke="rgb(0,0,0)" stroke-width="1"/><line x1="323.5207711115888" y1="299.73008026949304" x2="463.4293158658486" y2="494.6409413963083" stroke="rgb(0,0,0)" stroke-width="1"/><line x1="305.5989802527876" y1="301.8382642780927" x2="251.8135351797072" y2="318.0622636907942" stroke="rgb(0,0,0)" stroke-width="1"/><line x1="0.2633307281539765" y1="481.26514303076056" x2="341.0846185558363" y2="655.1593334624738" stroke="rgb(0,0,0)" stroke-width="1"/><line x1="463.4293158658486" y1="494.6409413963083" x2="626.5843412367526" y2="259.0346902516008" stroke="rgb(0,0,0)" stroke-width="1"/><line x1="341.0846185558363" y1="655.1593334624738" x2="0.2633307281539765" y2="481.26514303076056" stroke="rgb(0,0,0)" stroke-width="1"/><line x1="626.5843412367526" y1="259.0346902516008" x2="403.5041354716504" y2="343.934696383437" stroke="rgb(0,0,0)" stroke-width="1"/><line x1="463.4293158658486" y1="494.6409413963083" x2="613.7586142845753" y2="542.0624515265973" stroke="rgb(0,0,0)" stroke-width="1"/><line x1="341.0846185558363" y1="655.1593334624738" x2="99.99431952469558" y2="227.79695095718148" stroke="rgb(0,0,0)" stroke-width="1"/><line x1="613.7586142845753" y1="542.0624515265973" x2="463.4293158658486" y2="494.6409413963083" stroke="rgb(0,0,0)" stroke-width="1"/><line x1="447.22053050188447" y1="398.47671225305606" x2="463.4293158658486" y2="494.6409413963083" stroke="rgb(0,0,0)" stroke-width="1"/><line x1="463.4293158658486" y1="494.6409413963083" x2="0.2633307281539765" y2="481.26514303076056" stroke="rgb(0,0,0)" stroke-width="1"/><line x1="0.2633307281539765" y1="481.26514303076056" x2="184.4194302758748" y2="414.12401709859245" stroke="rgb(0,0,0)" stroke-width="1"/><line x1="463.4293158658486" y1="494.6409413963083" x2="447.22053050188447" y2="398.47671225305606" stroke="rgb(0,0,0)" stroke-width="1"/><line x1="251.8135351797072" y1="318.0622636907942" x2="463.4293158658486" y2="494.6409413963083" stroke="rgb(0,0,0)" stroke-width="1"/><line x1="184.4194302758748" y1="414.12401709859245" x2="0.2633307281539765" y2="481.26514303076056" stroke="rgb(0,0,0)" stroke-width="1"/><polygon points="10,0 20,3 20,-3" fill="black" transform="translate(626.5843412367526,259.0346902516008) rotate(122.80759875951904)"/><polygon points="10,0 20,3 20,-3" fill="black" transform="translate(463.4293158658486,494.6409413963083) rotate(304.7022226923855)"/><polygon points="10,0 20,3 20,-3" fill="black" transform="translate(323.5207711115888,299.73008026949304) rotate(54.32891830888843)"/><polygon points="10,0 20,3 20,-3" fill="black" transform="translate(463.4293158658486,494.6409413963083) rotate(181.65418850329743)"/><polygon points="10,0 20,3 20,-3" fill="black" transform="translate(305.5989802527876,301.8382642780927) rotate(163.21443418967087)"/><polygon points="10,0 20,3 20,-3" fill="black" transform="translate(341.0846185558363,655.1593334624738) rotate(240.57111128287528)"/><polygon points="10,0 20,3 20,-3" fill="black" transform="translate(251.8135351797072,318.0622636907942) rotate(39.84265312324925)"/><polygon points="10,0 20,3 20,-3" fill="black" transform="translate(626.5843412367526,259.0346902516008) rotate(159.1641444476943)"/><polygon points="10,0 20,3 20,-3" fill="black" transform="translate(462.34192062811906,513.814826026805) rotate(302.80759875951907)"/><polygon points="10,0 20,3 20,-3" fill="black" transform="translate(463.4293158658486,494.6409413963083) rotate(234.32891830888843)"/><polygon points="10,0 20,3 20,-3" fill="black" transform="translate(251.8135351797072,318.0622636907942) rotate(343.2144341896709)"/><polygon points="10,0 20,3 20,-3" fill="black" transform="translate(341.0846185558363,655.1593334624738) rotate(207.03163101131307)"/><polygon points="10,0 20,3 20,-3" fill="black" transform="translate(626.5843412367526,259.0346902516008) rotate(124.70222269238548)"/><polygon points="10,0 20,3 20,-3" fill="black" transform="translate(0.2633307281539765,481.26514303076056) rotate(27.031631011313067)"/><polygon points="10,0 20,3 20,-3" fill="black" transform="translate(403.5041354716504,343.934696383437) rotate(339.1641444476943)"/><polygon points="10,0 20,3 20,-3" fill="black" transform="translate(613.7586142845753,542.0624515265973) rotate(197.50792608962993)"/><polygon points="10,0 20,3 20,-3" fill="black" transform="translate(99.99431952469558,227.79695095718148) rotate(60.571111282875265)"/><polygon points="10,0 20,3 20,-3" fill="black" transform="translate(463.4293158658486,494.6409413963083) rotate(17.507926089629905)"/><polygon points="10,0 20,3 20,-3" fill="black" transform="translate(463.4293158658486,494.6409413963083) rotate(260.4325428825632)"/><polygon points="10,0 20,3 20,-3" fill="black" transform="translate(0.2633307281539765,481.26514303076056) rotate(1.654188503297405)"/><polygon points="10,0 20,3 20,-3" fill="black" transform="translate(184.4194302758748,414.12401709859245) rotate(159.9687452927504)"/><polygon points="10,0 20,3 20,-3" fill="black" transform="translate(447.22053050188447,398.47671225305606) rotate(80.43254288256323)"/><polygon points="10,0 20,3 20,-3" fill="black" transform="translate(463.4293158658486,494.6409413963083) rotate(219.84265312324925)"/><polygon points="10,0 20,3 20,-3" fill="black" transform="translate(0.2633307281539765,481.26514303076056) rotate(339.96874529275044)"/><circle cx="403.5041354716504" cy="343.934696383437" r="10" fill="rgb(255,255,0)" stroke="rgb(0,0,0)" stroke-width="1"/><circle cx="463.4293158658486" cy="494.6409413963083" r="10" fill="rgb(255,255,0)" stroke="rgb(0,0,0)" stroke-width="1"/><circle cx="626.5843412367526" cy="259.0346902516008" r="10" fill="rgb(255,255,0)" stroke="rgb(0,0,0)" stroke-width="1"/><circle cx="613.7586142845753" cy="542.0624515265973" r="10" fill="rgb(255,255,0)" stroke="rgb(0,0,0)" stroke-width="1"/><circle cx="251.8135351797072" cy="318.0622636907942" r="10" fill="rgb(255,255,0)" stroke="rgb(0,0,0)" stroke-width="1"/><circle cx="184.4194302758748" cy="414.12401709859245" r="10" fill="rgb(255,255,0)" stroke="rgb(0,0,0)" stroke-width="1"/><circle cx="447.22053050188447" cy="398.47671225305606" r="10" fill="rgb(255,255,0)" stroke="rgb(0,0,0)" stroke-width="1"/><circle cx="305.5989802527876" cy="301.8382642780927" r="10" fill="rgb(255,255,0)" stroke="rgb(0,0,0)" stroke-width="1"/><circle cx="0.2633307281539765" cy="481.26514303076056" r="10" fill="rgb(255,255,0)" stroke="rgb(0,0,0)" stroke-width="1"/><circle cx="462.34192062811906" cy="513.814826026805" r="10" fill="rgb(255,255,0)" stroke="rgb(0,0,0)" stroke-width="1"/><circle cx="323.5207711115888" cy="299.73008026949304" r="10" fill="rgb(255,255,0)" stroke="rgb(0,0,0)" stroke-width="1"/><circle cx="99.99431952469558" cy="227.79695095718148" r="10" fill="rgb(255,255,0)" stroke="rgb(0,0,0)" stroke-width="1"/><circle cx="341.0846185558363" cy="655.1593334624738" r="10" fill="rgb(255,255,0)" stroke="rgb(0,0,0)" stroke-width="1"/><text text-anchor="middle" alignment-baseline="middle" x="403.5041354716504" y="343.934696383437" fill="rgb(0,0,0)" font-size="12">inch (in)</text><text text-anchor="middle" alignment-baseline="middle" x="463.4293158658486" y="494.6409413963083" fill="rgb(0,0,0)" font-size="12">meter (m)</text><text text-anchor="middle" alignment-baseline="middle" x="626.5843412367526" y="259.0346902516008" fill="rgb(0,0,0)" font-size="12">foot (ft)</text><text text-anchor="middle" alignment-baseline="middle" x="613.7586142845753" y="542.0624515265973" fill="rgb(0,0,0)" font-size="12">micrometer (μm)</text><text text-anchor="middle" alignment-baseline="middle" x="251.8135351797072" y="318.0622636907942" fill="rgb(0,0,0)" font-size="12">nanometer (nm)</text><text text-anchor="middle" alignment-baseline="middle" x="184.4194302758748" y="414.12401709859245" fill="rgb(0,0,0)" font-size="12">Astronomical Unit (AU)</text><text text-anchor="middle" alignment-baseline="middle" x="447.22053050188447" y="398.47671225305606" fill="rgb(0,0,0)" font-size="12">millimeter (mm)</text><text text-anchor="middle" alignment-baseline="middle" x="305.5989802527876" y="301.8382642780927" fill="rgb(0,0,0)" font-size="12">Planck length (ℓP)</text><text text-anchor="middle" alignment-baseline="middle" x="0.2633307281539765" y="481.26514303076056" fill="rgb(0,0,0)" font-size="12">kilometer (km)</text><text text-anchor="middle" alignment-baseline="middle" x="462.34192062811906" y="513.814826026805" fill="rgb(0,0,0)" font-size="12">mile (m)</text><text text-anchor="middle" alignment-baseline="middle" x="323.5207711115888" y="299.73008026949304" fill="rgb(0,0,0)" font-size="12">centimeter (cm)</text><text text-anchor="middle" alignment-baseline="middle" x="99.99431952469558" y="227.79695095718148" fill="rgb(0,0,0)" font-size="12">parsec (pc)</text><text text-anchor="middle" alignment-baseline="middle" x="341.0846185558363" y="655.1593334624738" fill="rgb(0,0,0)" font-size="12">lightyear (ly)</text><text text-anchor="middle" alignment-baseline="middle" x="560.8873729932992" y="360.9467445616825" fill="rgb(0,0,0)" font-size="12">1.893939393939394E-4</text><text text-anchor="middle" alignment-baseline="middle" x="528.6913260142102" y="400.3984409384253" fill="rgb(0,0,0)" font-size="12">3.2808398950131235</text><text text-anchor="middle" alignment-baseline="middle" x="379.48418901329273" y="377.69442472021916" fill="rgb(0,0,0)" font-size="12">0.010000000000000002</text><text text-anchor="middle" alignment-baseline="middle" x="278.16292181077074" y="489.2906220500892" fill="rgb(0,0,0)" font-size="12">0.0010000000000000002</text><text text-anchor="middle" alignment-baseline="middle" x="284.08480222355547" y="308.3278640431733" fill="rgb(0,0,0)" font-size="12">6.187353050365054E25</text><text text-anchor="middle" alignment-baseline="middle" x="244.64849894338002" y="484.21438046035684" fill="rgb(0,0,0)" font-size="12">0.3067484662576687</text><text text-anchor="middle" alignment-baseline="middle" x="336.45984745416376" y="388.69373477299985" fill="rgb(0,0,0)" font-size="12">1.0000000000000009E-9</text><text text-anchor="middle" alignment-baseline="middle" x="537.3522589307117" y="292.99469270433525" fill="rgb(0,0,0)" font-size="12">12.0</text><text text-anchor="middle" alignment-baseline="middle" x="528.0388888715725" y="411.90277171672335" fill="rgb(0,0,0)" font-size="12">5280.0</text><text text-anchor="middle" alignment-baseline="middle" x="407.4658979641447" y="416.67659694558216" fill="rgb(0,0,0)" font-size="12">100.0</text><text text-anchor="middle" alignment-baseline="middle" x="273.3277132089394" y="311.57266392571364" fill="rgb(0,0,0)" font-size="12">1.6162E-26</text><text text-anchor="middle" alignment-baseline="middle" x="204.75610342476338" y="585.6016572897885" fill="rgb(0,0,0)" font-size="12">9.4607304725808E12</text><text text-anchor="middle" alignment-baseline="middle" x="561.322331088391" y="353.27719070948376" fill="rgb(0,0,0)" font-size="12">0.3048</text><text text-anchor="middle" alignment-baseline="middle" x="136.5918458592269" y="550.8228192034459" fill="rgb(0,0,0)" font-size="12">1.0570008340246153E-13</text><text text-anchor="middle" alignment-baseline="middle" x="492.7362177776913" y="309.97469393070253" fill="rgb(0,0,0)" font-size="12">0.08333333333333333</text><text text-anchor="middle" alignment-baseline="middle" x="553.6268949170847" y="523.0938474744817" fill="rgb(0,0,0)" font-size="12">1.0000000000000006E-6</text><text text-anchor="middle" alignment-baseline="middle" x="196.43043913715186" y="398.74190395929844" fill="rgb(0,0,0)" font-size="12">3.26</text><text text-anchor="middle" alignment-baseline="middle" x="523.5610352333392" y="513.6095454484239" fill="rgb(0,0,0)" font-size="12">1000000.0</text><text text-anchor="middle" alignment-baseline="middle" x="456.9458017202629" y="456.17524973900737" fill="rgb(0,0,0)" font-size="12">1000.0</text><text text-anchor="middle" alignment-baseline="middle" x="185.5297247832318" y="486.6154623769796" fill="rgb(0,0,0)" font-size="12">1000.0</text><text text-anchor="middle" alignment-baseline="middle" x="110.75699045678645" y="440.9804674714597" fill="rgb(0,0,0)" font-size="12">1.495978707E8</text><text text-anchor="middle" alignment-baseline="middle" x="453.70404464747014" y="436.942403910357" fill="rgb(0,0,0)" font-size="12">0.0010000000000000002</text><text text-anchor="middle" alignment-baseline="middle" x="378.783003591392" y="424.00947031410266" fill="rgb(0,0,0)" font-size="12">1.0E9</text><text text-anchor="middle" alignment-baseline="middle" x="73.92577054724231" y="454.4086926578933" fill="rgb(0,0,0)" font-size="12">6.6845871222684464E-9</text>
      Sorry, your browser does not support inline SVG.
    </svg>