<?xml version='1.0' encoding='UTF-8'?>
<svg version="1.1" width="700.0" height="700.0" onload="init(evt)" xmlns="http://www.w3.org/2000/svg">
      <style>.caption {
  font-size: 14px;
  font-family: Georgia, serif;
}
</style>
      <script type="text/ecmascript"><![CDATA[
function init(evt) {
  if ( window.svgDocument == null ) {
    svgDocument = evt.target.ownerDocument;
  }
}

function RectHover(evt, i, c) {
  rect = svgDocument.getElementById('rect' + i);
  if( c != null ) {
    rect.setAttributeNS(null, "fill", c)  
  }
  tooltiptext = svgDocument.getElementById('tooltiptext' + i);
  tooltipbg = svgDocument.getElementById('tooltipbg' + i);
  if( tooltipbg != null) {
    tbb = tooltiptext.getBBox();
    tooltipbg.setAttributeNS(null, "width", tbb.width);
    tooltipbg.setAttributeNS(null, "height", tbb.height);
    tooltipbg.setAttributeNS(null, "x", tbb.x);
    tooltipbg.setAttributeNS(null, "y", tbb.y);
    tooltipbg.setAttributeNS(null, "visibility", "visible");
  }
  tooltiptext.setAttributeNS(null,"visibility","visible");
}

function RectUnhover(evt, i, c) {
  rect = svgDocument.getElementById('rect' + i);
  if( c != null ) {
    rect.setAttributeNS(null, "fill", c)  
  }
  tooltiptext = svgDocument.getElementById('tooltiptext' + i);
  tooltiptext.setAttributeNS(null,"visibility","hidden");
  tooltipbg = svgDocument.getElementById('tooltipbg' + i);
  if( tooltipbg != null ) {
    tooltipbg.setAttributeNS(null,"visibility","hidden");
  }
}
]]></script>
      <line x1="640.0675818174931" y1="262.6222454113118" x2="568.8334722665991" y2="70.96927048575219" stroke="rgb(0,0,0)" stroke-width="1"/><line x1="31.713995953674967" y1="312.9215561141596" x2="686.243013616947" y2="96.36321080794501" stroke="rgb(0,0,0)" stroke-width="1"/><line x1="568.8334722665991" y1="70.96927048575219" x2="640.0675818174931" y2="262.6222454113118" stroke="rgb(0,0,0)" stroke-width="1"/><line x1="698.9105246502046" y1="624.7824243002167" x2="253.3344083298601" y2="247.87539298207713" stroke="rgb(0,0,0)" stroke-width="1"/><line x1="686.243013616947" y1="96.36321080794501" x2="123.98689301288621" y2="21.74201718387414" stroke="rgb(0,0,0)" stroke-width="1"/><line x1="686.243013616947" y1="96.36321080794501" x2="563.4800269759415" y2="73.20857038876308" stroke="rgb(0,0,0)" stroke-width="1"/><line x1="138.98542613291065" y1="256.44348537576644" x2="568.8334722665991" y2="70.96927048575219" stroke="rgb(0,0,0)" stroke-width="1"/><line x1="698.9105246502046" y1="624.7824243002167" x2="123.98689301288621" y2="21.74201718387414" stroke="rgb(0,0,0)" stroke-width="1"/><line x1="267.9908443978117" y1="524.162271265782" x2="123.98689301288621" y2="21.74201718387414" stroke="rgb(0,0,0)" stroke-width="1"/><line x1="563.4800269759415" y1="73.20857038876308" x2="574.3557640128529" y2="126.92231464077646" stroke="rgb(0,0,0)" stroke-width="1"/><line x1="123.98689301288621" y1="21.74201718387414" x2="698.9105246502046" y2="624.7824243002167" stroke="rgb(0,0,0)" stroke-width="1"/><line x1="253.3344083298601" y1="247.87539298207713" x2="698.9105246502046" y2="624.7824243002167" stroke="rgb(0,0,0)" stroke-width="1"/><line x1="574.3557640128529" y1="126.92231464077646" x2="563.4800269759415" y2="73.20857038876308" stroke="rgb(0,0,0)" stroke-width="1"/><line x1="686.243013616947" y1="96.36321080794501" x2="31.713995953674967" y2="312.9215561141596" stroke="rgb(0,0,0)" stroke-width="1"/><line x1="123.98689301288621" y1="21.74201718387414" x2="686.243013616947" y2="96.36321080794501" stroke="rgb(0,0,0)" stroke-width="1"/><line x1="686.243013616947" y1="96.36321080794501" x2="568.8334722665991" y2="70.96927048575219" stroke="rgb(0,0,0)" stroke-width="1"/><line x1="197.82008667974776" y1="14.254757495768267" x2="686.243013616947" y2="96.36321080794501" stroke="rgb(0,0,0)" stroke-width="1"/><line x1="568.8334722665991" y1="70.96927048575219" x2="138.98542613291065" y2="256.44348537576644" stroke="rgb(0,0,0)" stroke-width="1"/><line x1="568.8334722665991" y1="70.96927048575219" x2="686.243013616947" y2="96.36321080794501" stroke="rgb(0,0,0)" stroke-width="1"/><line x1="123.98689301288621" y1="21.74201718387414" x2="267.9908443978117" y2="524.162271265782" stroke="rgb(0,0,0)" stroke-width="1"/><line x1="686.243013616947" y1="96.36321080794501" x2="247.48218780186875" y2="229.5632872070133" stroke="rgb(0,0,0)" stroke-width="1"/><line x1="563.4800269759415" y1="73.20857038876308" x2="686.243013616947" y2="96.36321080794501" stroke="rgb(0,0,0)" stroke-width="1"/><line x1="247.48218780186875" y1="229.5632872070133" x2="686.243013616947" y2="96.36321080794501" stroke="rgb(0,0,0)" stroke-width="1"/><line x1="686.243013616947" y1="96.36321080794501" x2="197.82008667974776" y2="14.254757495768267" stroke="rgb(0,0,0)" stroke-width="1"/><polygon points="10,0 20,3 20,-3" fill="black" transform="translate(568.8334722665991,70.96927048575219) rotate(69.6107668040789)"/><polygon points="10,0 20,3 20,-3" fill="black" transform="translate(686.243013616947,96.36321080794501) rotate(161.69261707634223)"/><polygon points="10,0 20,3 20,-3" fill="black" transform="translate(640.0675818174931,262.6222454113118) rotate(249.61076680407893)"/><polygon points="10,0 20,3 20,-3" fill="black" transform="translate(253.3344083298601,247.87539298207713) rotate(40.22744627444388)"/><polygon points="10,0 20,3 20,-3" fill="black" transform="translate(123.98689301288621,21.74201718387414) rotate(7.5599689397304815)"/><polygon points="10,0 20,3 20,-3" fill="black" transform="translate(563.4800269759415,73.20857038876308) rotate(10.681222568992723)"/><polygon points="10,0 20,3 20,-3" fill="black" transform="translate(568.8334722665991,70.96927048575219) rotate(156.6603885078282)"/><polygon points="10,0 20,3 20,-3" fill="black" transform="translate(123.98689301288621,21.74201718387414) rotate(46.36733098949742)"/><polygon points="10,0 20,3 20,-3" fill="black" transform="translate(123.98689301288621,21.74201718387414) rotate(74.00661127290053)"/><polygon points="10,0 20,3 20,-3" fill="black" transform="translate(574.3557640128529,126.92231464077646) rotate(258.5537318928183)"/><polygon points="10,0 20,3 20,-3" fill="black" transform="translate(698.9105246502046,624.7824243002167) rotate(226.36733098949745)"/><polygon points="10,0 20,3 20,-3" fill="black" transform="translate(698.9105246502046,624.7824243002167) rotate(220.2274462744439)"/><polygon points="10,0 20,3 20,-3" fill="black" transform="translate(563.4800269759415,73.20857038876308) rotate(78.55373189281828)"/><polygon points="10,0 20,3 20,-3" fill="black" transform="translate(31.713995953674967,312.9215561141596) rotate(341.69261707634223)"/><polygon points="10,0 20,3 20,-3" fill="black" transform="translate(686.243013616947,96.36321080794501) rotate(187.5599689397305)"/><polygon points="10,0 20,3 20,-3" fill="black" transform="translate(568.8334722665991,70.96927048575219) rotate(12.20424192048597)"/><polygon points="10,0 20,3 20,-3" fill="black" transform="translate(686.243013616947,96.36321080794501) rotate(189.54272811421617)"/><polygon points="10,0 20,3 20,-3" fill="black" transform="translate(138.98542613291065,256.44348537576644) rotate(336.6603885078282)"/><polygon points="10,0 20,3 20,-3" fill="black" transform="translate(686.243013616947,96.36321080794501) rotate(192.204241920486)"/><polygon points="10,0 20,3 20,-3" fill="black" transform="translate(267.9908443978117,524.162271265782) rotate(254.00661127290056)"/><polygon points="10,0 20,3 20,-3" fill="black" transform="translate(247.48218780186875,229.5632872070133) rotate(343.11263188414364)"/><polygon points="10,0 20,3 20,-3" fill="black" transform="translate(686.243013616947,96.36321080794501) rotate(190.68122256899272)"/><polygon points="10,0 20,3 20,-3" fill="black" transform="translate(686.243013616947,96.36321080794501) rotate(163.11263188414364)"/><polygon points="10,0 20,3 20,-3" fill="black" transform="translate(197.82008667974776,14.254757495768267) rotate(9.542728114216175)"/><circle cx="138.98542613291065" cy="256.44348537576644" r="10" fill="rgb(255,255,0)" stroke="rgb(0,0,0)" stroke-width="1"/><circle cx="686.243013616947" cy="96.36321080794501" r="10" fill="rgb(255,255,0)" stroke="rgb(0,0,0)" stroke-width="1"/><circle cx="568.8334722665991" cy="70.96927048575219" r="10" fill="rgb(255,255,0)" stroke="rgb(0,0,0)" stroke-width="1"/><circle cx="247.48218780186875" cy="229.5632872070133" r="10" fill="rgb(255,255,0)" stroke="rgb(0,0,0)" stroke-width="1"/><circle cx="563.4800269759415" cy="73.20857038876308" r="10" fill="rgb(255,255,0)" stroke="rgb(0,0,0)" stroke-width="1"/><circle cx="267.9908443978117" cy="524.162271265782" r="10" fill="rgb(255,255,0)" stroke="rgb(0,0,0)" stroke-width="1"/><circle cx="197.82008667974776" cy="14.254757495768267" r="10" fill="rgb(255,255,0)" stroke="rgb(0,0,0)" stroke-width="1"/><circle cx="574.3557640128529" cy="126.92231464077646" r="10" fill="rgb(255,255,0)" stroke="rgb(0,0,0)" stroke-width="1"/><circle cx="123.98689301288621" cy="21.74201718387414" r="10" fill="rgb(255,255,0)" stroke="rgb(0,0,0)" stroke-width="1"/><circle cx="640.0675818174931" cy="262.6222454113118" r="10" fill="rgb(255,255,0)" stroke="rgb(0,0,0)" stroke-width="1"/><circle cx="31.713995953674967" cy="312.9215561141596" r="10" fill="rgb(255,255,0)" stroke="rgb(0,0,0)" stroke-width="1"/><circle cx="253.3344083298601" cy="247.87539298207713" r="10" fill="rgb(255,255,0)" stroke="rgb(0,0,0)" stroke-width="1"/><circle cx="698.9105246502046" cy="624.7824243002167" r="10" fill="rgb(255,255,0)" stroke="rgb(0,0,0)" stroke-width="1"/><text text-anchor="middle" alignment-baseline="middle" x="138.98542613291065" y="256.44348537576644" fill="rgb(0,0,0)" font-size="12">inch (in)</text><text text-anchor="middle" alignment-baseline="middle" x="686.243013616947" y="96.36321080794501" fill="rgb(0,0,0)" font-size="12">meter (m)</text><text text-anchor="middle" alignment-baseline="middle" x="568.8334722665991" y="70.96927048575219" fill="rgb(0,0,0)" font-size="12">foot (ft)</text><text text-anchor="middle" alignment-baseline="middle" x="247.48218780186875" y="229.5632872070133" fill="rgb(0,0,0)" font-size="12">micrometer (μm)</text><text text-anchor="middle" alignment-baseline="middle" x="563.4800269759415" y="73.20857038876308" fill="rgb(0,0,0)" font-size="12">nanometer (nm)</text><text text-anchor="middle" alignment-baseline="middle" x="267.9908443978117" y="524.162271265782" fill="rgb(0,0,0)" font-size="12">Astronomical Unit (AU)</text><text text-anchor="middle" alignment-baseline="middle" x="197.82008667974776" y="14.254757495768267" fill="rgb(0,0,0)" font-size="12">millimeter (mm)</text><text text-anchor="middle" alignment-baseline="middle" x="574.3557640128529" y="126.92231464077646" fill="rgb(0,0,0)" font-size="12">Planck length (ℓP)</text><text text-anchor="middle" alignment-baseline="middle" x="123.98689301288621" y="21.74201718387414" fill="rgb(0,0,0)" font-size="12">kilometer (km)</text><text text-anchor="middle" alignment-baseline="middle" x="640.0675818174931" y="262.6222454113118" fill="rgb(0,0,0)" font-size="12">mile (m)</text><text text-anchor="middle" alignment-baseline="middle" x="31.713995953674967" y="312.9215561141596" fill="rgb(0,0,0)" font-size="12">centimeter (cm)</text><text text-anchor="middle" alignment-baseline="middle" x="253.3344083298601" y="247.87539298207713" fill="rgb(0,0,0)" font-size="12">parsec (pc)</text><text text-anchor="middle" alignment-baseline="middle" x="698.9105246502046" y="624.7824243002167" fill="rgb(0,0,0)" font-size="12">lightyear (ly)</text><text text-anchor="middle" alignment-baseline="middle" x="597.3271160869567" y="147.63046045597605" fill="rgb(0,0,0)" font-size="12">1.893939393939394E-4</text><text text-anchor="middle" alignment-baseline="middle" x="424.4314065516382" y="182.98654893043084" fill="rgb(0,0,0)" font-size="12">100.0</text><text text-anchor="middle" alignment-baseline="middle" x="611.5739379971354" y="185.96105544108792" fill="rgb(0,0,0)" font-size="12">5280.0</text><text text-anchor="middle" alignment-baseline="middle" x="431.56485485799794" y="398.6382055093329" fill="rgb(0,0,0)" font-size="12">3.26</text><text text-anchor="middle" alignment-baseline="middle" x="348.8893412545105" y="51.59049463350249" fill="rgb(0,0,0)" font-size="12">1000.0</text><text text-anchor="middle" alignment-baseline="middle" x="612.5852216323437" y="82.47042655643585" fill="rgb(0,0,0)" font-size="12">1.0000000000000009E-9</text><text text-anchor="middle" alignment-baseline="middle" x="396.89425381312367" y="145.15895644175788" fill="rgb(0,0,0)" font-size="12">12.0</text><text text-anchor="middle" alignment-baseline="middle" x="353.95634566781354" y="262.9581800304112" fill="rgb(0,0,0)" font-size="12">1.0570008340246153E-13</text><text text-anchor="middle" alignment-baseline="middle" x="181.5884735668564" y="222.7101188166373" fill="rgb(0,0,0)" font-size="12">6.6845871222684464E-9</text><text text-anchor="middle" alignment-baseline="middle" x="570.0054691980883" y="105.43681693997111" fill="rgb(0,0,0)" font-size="12">6.187353050365054E25</text><text text-anchor="middle" alignment-baseline="middle" x="468.9410719952773" y="383.56626145367966" fill="rgb(0,0,0)" font-size="12">9.4607304725808E12</text><text text-anchor="middle" alignment-baseline="middle" x="520.6800781220668" y="474.01961177296084" fill="rgb(0,0,0)" font-size="12">0.3067484662576687</text><text text-anchor="middle" alignment-baseline="middle" x="567.8303217907061" y="94.69406808956843" fill="rgb(0,0,0)" font-size="12">1.6162E-26</text><text text-anchor="middle" alignment-baseline="middle" x="293.52560301898376" y="226.29821799167377" fill="rgb(0,0,0)" font-size="12">0.010000000000000002</text><text text-anchor="middle" alignment-baseline="middle" x="461.34056537532274" y="66.51473335831666" fill="rgb(0,0,0)" font-size="12">0.0010000000000000002</text><text text-anchor="middle" alignment-baseline="middle" x="615.7972888067383" y="81.12684661462932" fill="rgb(0,0,0)" font-size="12">0.3048</text><text text-anchor="middle" alignment-baseline="middle" x="490.8738428420673" y="63.51982948307432" fill="rgb(0,0,0)" font-size="12">1000.0</text><text text-anchor="middle" alignment-baseline="middle" x="310.924644586386" y="182.25379941976075" fill="rgb(0,0,0)" font-size="12">0.08333333333333333</text><text text-anchor="middle" alignment-baseline="middle" x="639.2791970768078" y="86.20563467906788" fill="rgb(0,0,0)" font-size="12">3.2808398950131235</text><text text-anchor="middle" alignment-baseline="middle" x="210.3892638438415" y="323.1941696330189" fill="rgb(0,0,0)" font-size="12">1.495978707E8</text><text text-anchor="middle" alignment-baseline="middle" x="422.98651812790007" y="176.28325664738597" fill="rgb(0,0,0)" font-size="12">1.0000000000000006E-6</text><text text-anchor="middle" alignment-baseline="middle" x="637.1378189605448" y="87.10135464027223" fill="rgb(0,0,0)" font-size="12">1.0E9</text><text text-anchor="middle" alignment-baseline="middle" x="510.7386832909157" y="149.64324136757233" fill="rgb(0,0,0)" font-size="12">1000000.0</text><text text-anchor="middle" alignment-baseline="middle" x="393.18925745462747" y="47.09813882063896" fill="rgb(0,0,0)" font-size="12">0.0010000000000000002</text>
      Sorry, your browser does not support inline SVG.
    </svg>