<?xml version='1.0' encoding='UTF-8'?>
<svg version="1.1" width="700.0" height="700.0" onload="init(evt)" xmlns="http://www.w3.org/2000/svg">
      <style>.caption {
  font-size: 14px;
  font-family: Georgia, serif;
}
</style>
      <script type="text/ecmascript"><![CDATA[
function init(evt) {
  if ( window.svgDocument == null ) {
    svgDocument = evt.target.ownerDocument;
  }
}

function RectHover(evt, i, c) {
  rect = svgDocument.getElementById('rect' + i);
  if( c != null ) {
    rect.setAttributeNS(null, "fill", c)  
  }
  tooltiptext = svgDocument.getElementById('tooltiptext' + i);
  tooltipbg = svgDocument.getElementById('tooltipbg' + i);
  if( tooltipbg != null) {
    tbb = tooltiptext.getBBox();
    tooltipbg.setAttributeNS(null, "width", tbb.width);
    tooltipbg.setAttributeNS(null, "height", tbb.height);
    tooltipbg.setAttributeNS(null, "x", tbb.x);
    tooltipbg.setAttributeNS(null, "y", tbb.y);
    tooltipbg.setAttributeNS(null, "visibility", "visible");
  }
  tooltiptext.setAttributeNS(null,"visibility","visible");
}

function RectUnhover(evt, i, c) {
  rect = svgDocument.getElementById('rect' + i);
  if( c != null ) {
    rect.setAttributeNS(null, "fill", c)  
  }
  tooltiptext = svgDocument.getElementById('tooltiptext' + i);
  tooltiptext.setAttributeNS(null,"visibility","hidden");
  tooltipbg = svgDocument.getElementById('tooltipbg' + i);
  if( tooltipbg != null ) {
    tooltipbg.setAttributeNS(null,"visibility","hidden");
  }
}
]]></script>
      <line x1="201.16320638972115" y1="346.70138866547535" x2="649.3949508500621" y2="276.3023826260331" stroke="rgb(0,0,0)" stroke-width="1"/><line x1="572.9898764535981" y1="407.54795364730415" x2="334.32016068806456" y2="616.9457451900115" stroke="rgb(0,0,0)" stroke-width="1"/><line x1="334.32016068806456" y1="616.9457451900115" x2="572.9898764535981" y2="407.54795364730415" stroke="rgb(0,0,0)" stroke-width="1"/><line x1="599.8119156439325" y1="510.4722276074229" x2="473.922662326968" y2="688.9682316846844" stroke="rgb(0,0,0)" stroke-width="1"/><line x1="599.8119156439325" y1="510.4722276074229" x2="201.16320638972115" y2="346.70138866547535" stroke="rgb(0,0,0)" stroke-width="1"/><line x1="447.3377084001469" y1="553.4529971698864" x2="201.16320638972115" y2="346.70138866547535" stroke="rgb(0,0,0)" stroke-width="1"/><line x1="519.1769492848225" y1="14.635306783618818" x2="275.15939344718186" y2="477.2984252175411" stroke="rgb(0,0,0)" stroke-width="1"/><line x1="599.8119156439325" y1="510.4722276074229" x2="599.3009430496209" y2="664.8198278101006" stroke="rgb(0,0,0)" stroke-width="1"/><line x1="334.32016068806456" y1="616.9457451900115" x2="519.1769492848225" y2="14.635306783618818" stroke="rgb(0,0,0)" stroke-width="1"/><line x1="201.16320638972115" y1="346.70138866547535" x2="519.1769492848225" y2="14.635306783618818" stroke="rgb(0,0,0)" stroke-width="1"/><line x1="201.16320638972115" y1="346.70138866547535" x2="599.8119156439325" y2="510.4722276074229" stroke="rgb(0,0,0)" stroke-width="1"/><line x1="473.922662326968" y1="688.9682316846844" x2="599.8119156439325" y2="510.4722276074229" stroke="rgb(0,0,0)" stroke-width="1"/><line x1="649.3949508500621" y1="276.3023826260331" x2="201.16320638972115" y2="346.70138866547535" stroke="rgb(0,0,0)" stroke-width="1"/><line x1="201.16320638972115" y1="346.70138866547535" x2="406.1940838463693" y2="390.32261450979587" stroke="rgb(0,0,0)" stroke-width="1"/><line x1="205.14304542670558" y1="392.8103059684161" x2="649.3949508500621" y2="276.3023826260331" stroke="rgb(0,0,0)" stroke-width="1"/><line x1="599.3009430496209" y1="664.8198278101006" x2="599.8119156439325" y2="510.4722276074229" stroke="rgb(0,0,0)" stroke-width="1"/><line x1="649.3949508500621" y1="276.3023826260331" x2="205.14304542670558" y2="392.8103059684161" stroke="rgb(0,0,0)" stroke-width="1"/><line x1="84.24024847689951" y1="54.079368145524484" x2="201.16320638972115" y2="346.70138866547535" stroke="rgb(0,0,0)" stroke-width="1"/><line x1="275.15939344718186" y1="477.2984252175411" x2="519.1769492848225" y2="14.635306783618818" stroke="rgb(0,0,0)" stroke-width="1"/><line x1="201.16320638972115" y1="346.70138866547535" x2="447.3377084001469" y2="553.4529971698864" stroke="rgb(0,0,0)" stroke-width="1"/><line x1="519.1769492848225" y1="14.635306783618818" x2="334.32016068806456" y2="616.9457451900115" stroke="rgb(0,0,0)" stroke-width="1"/><line x1="201.16320638972115" y1="346.70138866547535" x2="84.24024847689951" y2="54.079368145524484" stroke="rgb(0,0,0)" stroke-width="1"/><line x1="406.1940838463693" y1="390.32261450979587" x2="201.16320638972115" y2="346.70138866547535" stroke="rgb(0,0,0)" stroke-width="1"/><line x1="519.1769492848225" y1="14.635306783618818" x2="201.16320638972115" y2="346.70138866547535" stroke="rgb(0,0,0)" stroke-width="1"/><polygon points="10,0 20,3 20,-3" fill="black" transform="translate(649.3949508500621,276.3023826260331) rotate(171.07407681728017)"/><polygon points="10,0 20,3 20,-3" fill="black" transform="translate(334.32016068806456,616.9457451900115) rotate(318.73778011577735)"/><polygon points="10,0 20,3 20,-3" fill="black" transform="translate(572.9898764535981,407.54795364730415) rotate(138.73778011577733)"/><polygon points="10,0 20,3 20,-3" fill="black" transform="translate(473.922662326968,688.9682316846844) rotate(305.1944641203472)"/><polygon points="10,0 20,3 20,-3" fill="black" transform="translate(201.16320638972115,346.70138866547535) rotate(22.333590045075113)"/><polygon points="10,0 20,3 20,-3" fill="black" transform="translate(201.16320638972115,346.70138866547535) rotate(40.02548653008574)"/><polygon points="10,0 20,3 20,-3" fill="black" transform="translate(275.15939344718186,477.2984252175411) rotate(297.80803897496776)"/><polygon points="10,0 20,3 20,-3" fill="black" transform="translate(599.3009430496209,664.8198278101006) rotate(270.1896787906635)"/><polygon points="10,0 20,3 20,-3" fill="black" transform="translate(519.1769492848225,14.635306783618818) rotate(107.06192071255967)"/><polygon points="10,0 20,3 20,-3" fill="black" transform="translate(519.1769492848225,14.635306783618818) rotate(133.76166846596254)"/><polygon points="10,0 20,3 20,-3" fill="black" transform="translate(599.8119156439325,510.4722276074229) rotate(202.33359004507514)"/><polygon points="10,0 20,3 20,-3" fill="black" transform="translate(599.8119156439325,510.4722276074229) rotate(125.19446412034719)"/><polygon points="10,0 20,3 20,-3" fill="black" transform="translate(201.16320638972115,346.70138866547535) rotate(351.07407681728023)"/><polygon points="10,0 20,3 20,-3" fill="black" transform="translate(406.1940838463693,390.32261450979587) rotate(192.01084608169535)"/><polygon points="10,0 20,3 20,-3" fill="black" transform="translate(649.3949508500621,276.3023826260331) rotate(165.30475222525894)"/><polygon points="10,0 20,3 20,-3" fill="black" transform="translate(599.8119156439325,510.4722276074229) rotate(90.18967879066344)"/><polygon points="10,0 20,3 20,-3" fill="black" transform="translate(205.14304542670558,392.8103059684161) rotate(345.30475222525894)"/><polygon points="10,0 20,3 20,-3" fill="black" transform="translate(201.16320638972115,346.70138866547535) rotate(248.219836469213)"/><polygon points="10,0 20,3 20,-3" fill="black" transform="translate(519.1769492848225,14.635306783618818) rotate(117.80803897496773)"/><polygon points="10,0 20,3 20,-3" fill="black" transform="translate(447.3377084001469,553.4529971698864) rotate(220.02548653008577)"/><polygon points="10,0 20,3 20,-3" fill="black" transform="translate(334.32016068806456,616.9457451900115) rotate(287.0619207125597)"/><polygon points="10,0 20,3 20,-3" fill="black" transform="translate(84.24024847689951,54.079368145524484) rotate(68.21983646921298)"/><polygon points="10,0 20,3 20,-3" fill="black" transform="translate(201.16320638972115,346.70138866547535) rotate(12.010846081695291)"/><polygon points="10,0 20,3 20,-3" fill="black" transform="translate(201.16320638972115,346.70138866547535) rotate(313.76166846596254)"/><circle cx="473.922662326968" cy="688.9682316846844" r="10" fill="rgb(255,255,0)" stroke="rgb(0,0,0)" stroke-width="1"/><circle cx="201.16320638972115" cy="346.70138866547535" r="10" fill="rgb(255,255,0)" stroke="rgb(0,0,0)" stroke-width="1"/><circle cx="599.8119156439325" cy="510.4722276074229" r="10" fill="rgb(255,255,0)" stroke="rgb(0,0,0)" stroke-width="1"/><circle cx="84.24024847689951" cy="54.079368145524484" r="10" fill="rgb(255,255,0)" stroke="rgb(0,0,0)" stroke-width="1"/><circle cx="649.3949508500621" cy="276.3023826260331" r="10" fill="rgb(255,255,0)" stroke="rgb(0,0,0)" stroke-width="1"/><circle cx="275.15939344718186" cy="477.2984252175411" r="10" fill="rgb(255,255,0)" stroke="rgb(0,0,0)" stroke-width="1"/><circle cx="406.1940838463693" cy="390.32261450979587" r="10" fill="rgb(255,255,0)" stroke="rgb(0,0,0)" stroke-width="1"/><circle cx="205.14304542670558" cy="392.8103059684161" r="10" fill="rgb(255,255,0)" stroke="rgb(0,0,0)" stroke-width="1"/><circle cx="519.1769492848225" cy="14.635306783618818" r="10" fill="rgb(255,255,0)" stroke="rgb(0,0,0)" stroke-width="1"/><circle cx="599.3009430496209" cy="664.8198278101006" r="10" fill="rgb(255,255,0)" stroke="rgb(0,0,0)" stroke-width="1"/><circle cx="447.3377084001469" cy="553.4529971698864" r="10" fill="rgb(255,255,0)" stroke="rgb(0,0,0)" stroke-width="1"/><circle cx="572.9898764535981" cy="407.54795364730415" r="10" fill="rgb(255,255,0)" stroke="rgb(0,0,0)" stroke-width="1"/><circle cx="334.32016068806456" cy="616.9457451900115" r="10" fill="rgb(255,255,0)" stroke="rgb(0,0,0)" stroke-width="1"/><text text-anchor="middle" alignment-baseline="middle" x="473.922662326968" y="688.9682316846844" fill="rgb(0,0,0)" font-size="12">inch (in)</text><text text-anchor="middle" alignment-baseline="middle" x="201.16320638972115" y="346.70138866547535" fill="rgb(0,0,0)" font-size="12">meter (m)</text><text text-anchor="middle" alignment-baseline="middle" x="599.8119156439325" y="510.4722276074229" fill="rgb(0,0,0)" font-size="12">foot (ft)</text><text text-anchor="middle" alignment-baseline="middle" x="84.24024847689951" y="54.079368145524484" fill="rgb(0,0,0)" font-size="12">micrometer (μm)</text><text text-anchor="middle" alignment-baseline="middle" x="649.3949508500621" y="276.3023826260331" fill="rgb(0,0,0)" font-size="12">nanometer (nm)</text><text text-anchor="middle" alignment-baseline="middle" x="275.15939344718186" y="477.2984252175411" fill="rgb(0,0,0)" font-size="12">Astronomical Unit (AU)</text><text text-anchor="middle" alignment-baseline="middle" x="406.1940838463693" y="390.32261450979587" fill="rgb(0,0,0)" font-size="12">millimeter (mm)</text><text text-anchor="middle" alignment-baseline="middle" x="205.14304542670558" y="392.8103059684161" fill="rgb(0,0,0)" font-size="12">Planck length (ℓP)</text><text text-anchor="middle" alignment-baseline="middle" x="519.1769492848225" y="14.635306783618818" fill="rgb(0,0,0)" font-size="12">kilometer (km)</text><text text-anchor="middle" alignment-baseline="middle" x="599.3009430496209" y="664.8198278101006" fill="rgb(0,0,0)" font-size="12">mile (m)</text><text text-anchor="middle" alignment-baseline="middle" x="447.3377084001469" y="553.4529971698864" fill="rgb(0,0,0)" font-size="12">centimeter (cm)</text><text text-anchor="middle" alignment-baseline="middle" x="572.9898764535981" y="407.54795364730415" fill="rgb(0,0,0)" font-size="12">parsec (pc)</text><text text-anchor="middle" alignment-baseline="middle" x="334.32016068806456" y="616.9457451900115" fill="rgb(0,0,0)" font-size="12">lightyear (ly)</text><text text-anchor="middle" alignment-baseline="middle" x="470.1022530659257" y="304.46198504181" fill="rgb(0,0,0)" font-size="12">1.0000000000000009E-9</text><text text-anchor="middle" alignment-baseline="middle" x="429.788046994278" y="533.1866285729286" fill="rgb(0,0,0)" font-size="12">0.3067484662576687</text><text text-anchor="middle" alignment-baseline="middle" x="477.52199014738466" y="491.3070702643871" fill="rgb(0,0,0)" font-size="12">3.26</text><text text-anchor="middle" alignment-baseline="middle" x="524.2783636537538" y="617.5698300537798" fill="rgb(0,0,0)" font-size="12">0.08333333333333333</text><text text-anchor="middle" alignment-baseline="middle" x="360.62269009140573" y="412.20972424225437" fill="rgb(0,0,0)" font-size="12">3.2808398950131235</text><text text-anchor="middle" alignment-baseline="middle" x="299.63300719389144" y="429.4020320672398" fill="rgb(0,0,0)" font-size="12">100.0</text><text text-anchor="middle" alignment-baseline="middle" x="372.76641578223814" y="292.23317784397216" fill="rgb(0,0,0)" font-size="12">1.495978707E8</text><text text-anchor="middle" alignment-baseline="middle" x="599.5053320873456" y="603.0807877290296" fill="rgb(0,0,0)" font-size="12">5280.0</text><text text-anchor="middle" alignment-baseline="middle" x="445.2342338461193" y="255.55948214617592" fill="rgb(0,0,0)" font-size="12">1.0570008340246153E-13</text><text text-anchor="middle" alignment-baseline="middle" x="391.97145212678197" y="147.46173953636145" fill="rgb(0,0,0)" font-size="12">1000.0</text><text text-anchor="middle" alignment-baseline="middle" x="440.3524319422479" y="444.9638920306439" fill="rgb(0,0,0)" font-size="12">0.3048</text><text text-anchor="middle" alignment-baseline="middle" x="549.4562143171466" y="581.8706292383275" fill="rgb(0,0,0)" font-size="12">12.0</text><text text-anchor="middle" alignment-baseline="middle" x="380.4559041738575" y="318.5417862496984" fill="rgb(0,0,0)" font-size="12">1.0E9</text><text text-anchor="middle" alignment-baseline="middle" x="324.18173286371007" y="372.87412417206764" fill="rgb(0,0,0)" font-size="12">0.0010000000000000002</text><text text-anchor="middle" alignment-baseline="middle" x="471.69418868071944" y="322.9055519629863" fill="rgb(0,0,0)" font-size="12">1.6162E-26</text><text text-anchor="middle" alignment-baseline="middle" x="599.6075266062078" y="572.211267688494" fill="rgb(0,0,0)" font-size="12">1.893939393939394E-4</text><text text-anchor="middle" alignment-baseline="middle" x="382.8438075960482" y="346.2071366314629" fill="rgb(0,0,0)" font-size="12">6.187353050365054E25</text><text text-anchor="middle" alignment-baseline="middle" x="154.3940232245925" y="229.652580457495" fill="rgb(0,0,0)" font-size="12">1000000.0</text><text text-anchor="middle" alignment-baseline="middle" x="421.5699269497662" y="199.70055415718775" fill="rgb(0,0,0)" font-size="12">6.6845871222684464E-9</text><text text-anchor="middle" alignment-baseline="middle" x="348.8679075959766" y="470.752353768122" fill="rgb(0,0,0)" font-size="12">0.010000000000000002</text><text text-anchor="middle" alignment-baseline="middle" x="408.26287612676776" y="376.0215698274544" fill="rgb(0,0,0)" font-size="12">9.4607304725808E12</text><text text-anchor="middle" alignment-baseline="middle" x="131.00943164202818" y="171.12817635350484" fill="rgb(0,0,0)" font-size="12">1.0000000000000006E-6</text><text text-anchor="middle" alignment-baseline="middle" x="283.1755573723804" y="364.1498790032036" fill="rgb(0,0,0)" font-size="12">1000.0</text><text text-anchor="middle" alignment-baseline="middle" x="328.3687035477617" y="213.87495591273273" fill="rgb(0,0,0)" font-size="12">0.0010000000000000002</text>
      Sorry, your browser does not support inline SVG.
    </svg>