<?xml version='1.0' encoding='UTF-8'?>
<svg version="1.1" width="700.0" height="700.0" onload="init(evt)" xmlns="http://www.w3.org/2000/svg">
      <style>.caption {
  font-size: 14px;
  font-family: Georgia, serif;
}
</style>
      <script type="text/ecmascript"><![CDATA[
function init(evt) {
  if ( window.svgDocument == null ) {
    svgDocument = evt.target.ownerDocument;
  }
}

function RectHover(evt, i, c) {
  rect = svgDocument.getElementById('rect' + i);
  if( c != null ) {
    rect.setAttributeNS(null, "fill", c)  
  }
  tooltiptext = svgDocument.getElementById('tooltiptext' + i);
  tooltipbg = svgDocument.getElementById('tooltipbg' + i);
  if( tooltipbg != null) {
    tbb = tooltiptext.getBBox();
    tooltipbg.setAttributeNS(null, "width", tbb.width);
    tooltipbg.setAttributeNS(null, "height", tbb.height);
    tooltipbg.setAttributeNS(null, "x", tbb.x);
    tooltipbg.setAttributeNS(null, "y", tbb.y);
    tooltipbg.setAttributeNS(null, "visibility", "visible");
  }
  tooltiptext.setAttributeNS(null,"visibility","visible");
}

function RectUnhover(evt, i, c) {
  rect = svgDocument.getElementById('rect' + i);
  if( c != null ) {
    rect.setAttributeNS(null, "fill", c)  
  }
  tooltiptext = svgDocument.getElementById('tooltiptext' + i);
  tooltiptext.setAttributeNS(null,"visibility","hidden");
  tooltipbg = svgDocument.getElementById('tooltipbg' + i);
  if( tooltipbg != null ) {
    tooltipbg.setAttributeNS(null,"visibility","hidden");
  }
}
]]></script>
      <line x1="673.0031404595773" y1="665.3091378693248" x2="590.7798565821505" y2="270.41043386294206" stroke="rgb(0,0,0)" stroke-width="1"/><line x1="366.20632217194174" y1="124.72146194300763" x2="590.7798565821505" y2="270.41043386294206" stroke="rgb(0,0,0)" stroke-width="1"/><line x1="590.7798565821505" y1="270.41043386294206" x2="366.20632217194174" y2="124.72146194300763" stroke="rgb(0,0,0)" stroke-width="1"/><line x1="655.002682717689" y1="320.0900507383572" x2="366.20632217194174" y2="124.72146194300763" stroke="rgb(0,0,0)" stroke-width="1"/><line x1="420.3896774451556" y1="519.2401023108558" x2="270.57647977587925" y2="195.3435764702155" stroke="rgb(0,0,0)" stroke-width="1"/><line x1="76.19819358271297" y1="635.2484209614471" x2="580.8264901439574" y2="157.39911768199318" stroke="rgb(0,0,0)" stroke-width="1"/><line x1="590.7798565821505" y1="270.41043386294206" x2="76.19819358271297" y2="635.2484209614471" stroke="rgb(0,0,0)" stroke-width="1"/><line x1="580.8264901439574" y1="157.39911768199318" x2="211.14628338547894" y2="697.995762505394" stroke="rgb(0,0,0)" stroke-width="1"/><line x1="211.14628338547894" y1="697.995762505394" x2="580.8264901439574" y2="157.39911768199318" stroke="rgb(0,0,0)" stroke-width="1"/><line x1="270.57647977587925" y1="195.3435764702155" x2="590.7798565821505" y2="270.41043386294206" stroke="rgb(0,0,0)" stroke-width="1"/><line x1="76.19819358271297" y1="635.2484209614471" x2="590.7798565821505" y2="270.41043386294206" stroke="rgb(0,0,0)" stroke-width="1"/><line x1="690.0402250566393" y1="52.02215042983821" x2="76.19819358271297" y2="635.2484209614471" stroke="rgb(0,0,0)" stroke-width="1"/><line x1="366.20632217194174" y1="124.72146194300763" x2="655.002682717689" y2="320.0900507383572" stroke="rgb(0,0,0)" stroke-width="1"/><line x1="590.7798565821505" y1="270.41043386294206" x2="290.1202347785125" y2="627.277404658292" stroke="rgb(0,0,0)" stroke-width="1"/><line x1="270.57647977587925" y1="195.3435764702155" x2="121.97456655288535" y2="626.775820798881" stroke="rgb(0,0,0)" stroke-width="1"/><line x1="590.7798565821505" y1="270.41043386294206" x2="270.57647977587925" y2="195.3435764702155" stroke="rgb(0,0,0)" stroke-width="1"/><line x1="76.19819358271297" y1="635.2484209614471" x2="690.0402250566393" y2="52.02215042983821" stroke="rgb(0,0,0)" stroke-width="1"/><line x1="276.9926895352151" y1="557.5084655265172" x2="590.7798565821505" y2="270.41043386294206" stroke="rgb(0,0,0)" stroke-width="1"/><line x1="270.57647977587925" y1="195.3435764702155" x2="420.3896774451556" y2="519.2401023108558" stroke="rgb(0,0,0)" stroke-width="1"/><line x1="590.7798565821505" y1="270.41043386294206" x2="276.9926895352151" y2="557.5084655265172" stroke="rgb(0,0,0)" stroke-width="1"/><line x1="121.97456655288535" y1="626.775820798881" x2="270.57647977587925" y2="195.3435764702155" stroke="rgb(0,0,0)" stroke-width="1"/><line x1="590.7798565821505" y1="270.41043386294206" x2="673.0031404595773" y2="665.3091378693248" stroke="rgb(0,0,0)" stroke-width="1"/><line x1="290.1202347785125" y1="627.277404658292" x2="590.7798565821505" y2="270.41043386294206" stroke="rgb(0,0,0)" stroke-width="1"/><line x1="580.8264901439574" y1="157.39911768199318" x2="76.19819358271297" y2="635.2484209614471" stroke="rgb(0,0,0)" stroke-width="1"/><polygon points="10,0 20,3 20,-3" fill="black" transform="translate(590.7798565821505,270.41043386294206) rotate(78.23828564470169)"/><polygon points="10,0 20,3 20,-3" fill="black" transform="translate(590.7798565821505,270.41043386294206) rotate(212.97293284114866)"/><polygon points="10,0 20,3 20,-3" fill="black" transform="translate(366.20632217194174,124.72146194300763) rotate(32.97293284114863)"/><polygon points="10,0 20,3 20,-3" fill="black" transform="translate(366.20632217194174,124.72146194300763) rotate(34.078058872859174)"/><polygon points="10,0 20,3 20,-3" fill="black" transform="translate(270.57647977587925,195.3435764702155) rotate(65.17784778375292)"/><polygon points="10,0 20,3 20,-3" fill="black" transform="translate(580.8264901439574,157.39911768199318) rotate(136.5613012483705)"/><polygon points="10,0 20,3 20,-3" fill="black" transform="translate(76.19819358271297,635.2484209614471) rotate(324.6633897315355)"/><polygon points="10,0 20,3 20,-3" fill="black" transform="translate(211.14628338547894,697.995762505394) rotate(304.36578076248816)"/><polygon points="10,0 20,3 20,-3" fill="black" transform="translate(580.8264901439574,157.39911768199318) rotate(124.36578076248814)"/><polygon points="10,0 20,3 20,-3" fill="black" transform="translate(590.7798565821505,270.41043386294206) rotate(193.19386580356536)"/><polygon points="10,0 20,3 20,-3" fill="black" transform="translate(590.7798565821505,270.41043386294206) rotate(144.66338973153546)"/><polygon points="10,0 20,3 20,-3" fill="black" transform="translate(76.19819358271297,635.2484209614471) rotate(316.4650555565777)"/><polygon points="10,0 20,3 20,-3" fill="black" transform="translate(655.002682717689,320.0900507383572) rotate(214.07805887285917)"/><polygon points="10,0 20,3 20,-3" fill="black" transform="translate(290.1202347785125,627.277404658292) rotate(310.1140625674052)"/><polygon points="10,0 20,3 20,-3" fill="black" transform="translate(121.97456655288535,626.775820798881) rotate(289.0056842540085)"/><polygon points="10,0 20,3 20,-3" fill="black" transform="translate(270.57647977587925,195.3435764702155) rotate(13.193865803565359)"/><polygon points="10,0 20,3 20,-3" fill="black" transform="translate(690.0402250566393,52.02215042983821) rotate(136.46505555657762)"/><polygon points="10,0 20,3 20,-3" fill="black" transform="translate(590.7798565821505,270.41043386294206) rotate(137.54319862774355)"/><polygon points="10,0 20,3 20,-3" fill="black" transform="translate(420.3896774451556,519.2401023108558) rotate(245.17784778375295)"/><polygon points="10,0 20,3 20,-3" fill="black" transform="translate(276.9926895352151,557.5084655265172) rotate(317.54319862774355)"/><polygon points="10,0 20,3 20,-3" fill="black" transform="translate(270.57647977587925,195.3435764702155) rotate(109.00568425400847)"/><polygon points="10,0 20,3 20,-3" fill="black" transform="translate(673.0031404595773,665.3091378693248) rotate(258.2382856447017)"/><polygon points="10,0 20,3 20,-3" fill="black" transform="translate(590.7798565821505,270.41043386294206) rotate(130.11406256740517)"/><polygon points="10,0 20,3 20,-3" fill="black" transform="translate(76.19819358271297,635.2484209614471) rotate(316.56130124837057)"/><circle cx="121.97456655288535" cy="626.775820798881" r="10" fill="rgb(255,255,0)" stroke="rgb(0,0,0)" stroke-width="1"/><circle cx="590.7798565821505" cy="270.41043386294206" r="10" fill="rgb(255,255,0)" stroke="rgb(0,0,0)" stroke-width="1"/><circle cx="270.57647977587925" cy="195.3435764702155" r="10" fill="rgb(255,255,0)" stroke="rgb(0,0,0)" stroke-width="1"/><circle cx="673.0031404595773" cy="665.3091378693248" r="10" fill="rgb(255,255,0)" stroke="rgb(0,0,0)" stroke-width="1"/><circle cx="366.20632217194174" cy="124.72146194300763" r="10" fill="rgb(255,255,0)" stroke="rgb(0,0,0)" stroke-width="1"/><circle cx="690.0402250566393" cy="52.02215042983821" r="10" fill="rgb(255,255,0)" stroke="rgb(0,0,0)" stroke-width="1"/><circle cx="276.9926895352151" cy="557.5084655265172" r="10" fill="rgb(255,255,0)" stroke="rgb(0,0,0)" stroke-width="1"/><circle cx="655.002682717689" cy="320.0900507383572" r="10" fill="rgb(255,255,0)" stroke="rgb(0,0,0)" stroke-width="1"/><circle cx="76.19819358271297" cy="635.2484209614471" r="10" fill="rgb(255,255,0)" stroke="rgb(0,0,0)" stroke-width="1"/><circle cx="420.3896774451556" cy="519.2401023108558" r="10" fill="rgb(255,255,0)" stroke="rgb(0,0,0)" stroke-width="1"/><circle cx="290.1202347785125" cy="627.277404658292" r="10" fill="rgb(255,255,0)" stroke="rgb(0,0,0)" stroke-width="1"/><circle cx="211.14628338547894" cy="697.995762505394" r="10" fill="rgb(255,255,0)" stroke="rgb(0,0,0)" stroke-width="1"/><circle cx="580.8264901439574" cy="157.39911768199318" r="10" fill="rgb(255,255,0)" stroke="rgb(0,0,0)" stroke-width="1"/><text text-anchor="middle" alignment-baseline="middle" x="121.97456655288535" y="626.775820798881" fill="rgb(0,0,0)" font-size="12">inch (in)</text><text text-anchor="middle" alignment-baseline="middle" x="590.7798565821505" y="270.41043386294206" fill="rgb(0,0,0)" font-size="12">meter (m)</text><text text-anchor="middle" alignment-baseline="middle" x="270.57647977587925" y="195.3435764702155" fill="rgb(0,0,0)" font-size="12">foot (ft)</text><text text-anchor="middle" alignment-baseline="middle" x="673.0031404595773" y="665.3091378693248" fill="rgb(0,0,0)" font-size="12">micrometer (μm)</text><text text-anchor="middle" alignment-baseline="middle" x="366.20632217194174" y="124.72146194300763" fill="rgb(0,0,0)" font-size="12">nanometer (nm)</text><text text-anchor="middle" alignment-baseline="middle" x="690.0402250566393" y="52.02215042983821" fill="rgb(0,0,0)" font-size="12">Astronomical Unit (AU)</text><text text-anchor="middle" alignment-baseline="middle" x="276.9926895352151" y="557.5084655265172" fill="rgb(0,0,0)" font-size="12">millimeter (mm)</text><text text-anchor="middle" alignment-baseline="middle" x="655.002682717689" y="320.0900507383572" fill="rgb(0,0,0)" font-size="12">Planck length (ℓP)</text><text text-anchor="middle" alignment-baseline="middle" x="76.19819358271297" y="635.2484209614471" fill="rgb(0,0,0)" font-size="12">kilometer (km)</text><text text-anchor="middle" alignment-baseline="middle" x="420.3896774451556" y="519.2401023108558" fill="rgb(0,0,0)" font-size="12">mile (m)</text><text text-anchor="middle" alignment-baseline="middle" x="290.1202347785125" y="627.277404658292" fill="rgb(0,0,0)" font-size="12">centimeter (cm)</text><text text-anchor="middle" alignment-baseline="middle" x="211.14628338547894" y="697.995762505394" fill="rgb(0,0,0)" font-size="12">parsec (pc)</text><text text-anchor="middle" alignment-baseline="middle" x="580.8264901439574" y="157.39911768199318" fill="rgb(0,0,0)" font-size="12">lightyear (ly)</text><text text-anchor="middle" alignment-baseline="middle" x="623.6691701331212" y="428.3699154654952" fill="rgb(0,0,0)" font-size="12">1000000.0</text><text text-anchor="middle" alignment-baseline="middle" x="500.950442818067" y="212.13484509496828" fill="rgb(0,0,0)" font-size="12">1.0E9</text><text text-anchor="middle" alignment-baseline="middle" x="456.0357359360253" y="182.9970507109814" fill="rgb(0,0,0)" font-size="12">1.0000000000000009E-9</text><text text-anchor="middle" alignment-baseline="middle" x="481.72486639024066" y="202.86889746114747" fill="rgb(0,0,0)" font-size="12">1.6162E-26</text><text text-anchor="middle" alignment-baseline="middle" x="330.5017588435898" y="324.9021868064716" fill="rgb(0,0,0)" font-size="12">1.893939393939394E-4</text><text text-anchor="middle" alignment-baseline="middle" x="378.9751715194596" y="348.53883899377473" fill="rgb(0,0,0)" font-size="12">9.4607304725808E12</text><text text-anchor="middle" alignment-baseline="middle" x="282.030858782488" y="489.3132261220451" fill="rgb(0,0,0)" font-size="12">1000.0</text><text text-anchor="middle" alignment-baseline="middle" x="359.01836608887027" y="481.75710457603367" fill="rgb(0,0,0)" font-size="12">3.26</text><text text-anchor="middle" alignment-baseline="middle" x="432.954407440566" y="373.63777561135356" fill="rgb(0,0,0)" font-size="12">0.3067484662576687</text><text text-anchor="middle" alignment-baseline="middle" x="462.69850585964195" y="240.38369090585144" fill="rgb(0,0,0)" font-size="12">3.2808398950131235</text><text text-anchor="middle" alignment-baseline="middle" x="384.9471913823755" y="416.3456287023441" fill="rgb(0,0,0)" font-size="12">0.0010000000000000002</text><text text-anchor="middle" alignment-baseline="middle" x="321.73500617228353" y="401.95791274880355" fill="rgb(0,0,0)" font-size="12">6.6845871222684464E-9</text><text text-anchor="middle" alignment-baseline="middle" x="539.4841384993902" y="241.94261522021736" fill="rgb(0,0,0)" font-size="12">6.187353050365054E25</text><text text-anchor="middle" alignment-baseline="middle" x="410.3840834999677" y="484.530616340152" fill="rgb(0,0,0)" font-size="12">0.010000000000000002</text><text text-anchor="middle" alignment-baseline="middle" x="181.4153318420829" y="454.2029230674148" fill="rgb(0,0,0)" font-size="12">0.08333333333333333</text><text text-anchor="middle" alignment-baseline="middle" x="398.65783049838774" y="225.37031942730613" fill="rgb(0,0,0)" font-size="12">0.3048</text><text text-anchor="middle" alignment-baseline="middle" x="444.50341246706876" y="285.3126586424818" fill="rgb(0,0,0)" font-size="12">1.495978707E8</text><text text-anchor="middle" alignment-baseline="middle" x="465.2649897633763" y="385.24964652837207" fill="rgb(0,0,0)" font-size="12">1000.0</text><text text-anchor="middle" alignment-baseline="middle" x="360.46439837744504" y="389.6814919745997" fill="rgb(0,0,0)" font-size="12">5280.0</text><text text-anchor="middle" alignment-baseline="middle" x="402.50755635398923" y="442.6692528610871" fill="rgb(0,0,0)" font-size="12">0.0010000000000000002</text><text text-anchor="middle" alignment-baseline="middle" x="211.1357144866817" y="367.9164742016817" fill="rgb(0,0,0)" font-size="12">12.0</text><text text-anchor="middle" alignment-baseline="middle" x="640.1138269086066" y="507.3496562667717" fill="rgb(0,0,0)" font-size="12">1.0000000000000006E-6</text><text text-anchor="middle" alignment-baseline="middle" x="470.51600786069525" y="413.15722218108203" fill="rgb(0,0,0)" font-size="12">100.0</text><text text-anchor="middle" alignment-baseline="middle" x="278.04951220721074" y="444.10869964966554" fill="rgb(0,0,0)" font-size="12">1.0570008340246153E-13</text>
      Sorry, your browser does not support inline SVG.
    </svg>