<?xml version='1.0' encoding='UTF-8'?>
<svg version="1.1" width="700.0" height="700.0" onload="init(evt)" xmlns="http://www.w3.org/2000/svg">
      <style>.caption {
  font-size: 14px;
  font-family: Georgia, serif;
}
</style>
      <script type="text/ecmascript"><![CDATA[
function init(evt) {
  if ( window.svgDocument == null ) {
    svgDocument = evt.target.ownerDocument;
  }
}

function RectHover(evt, i, c) {
  rect = svgDocument.getElementById('rect' + i);
  if( c != null ) {
    rect.setAttributeNS(null, "fill", c)  
  }
  tooltiptext = svgDocument.getElementById('tooltiptext' + i);
  tooltipbg = svgDocument.getElementById('tooltipbg' + i);
  if( tooltipbg != null) {
    tbb = tooltiptext.getBBox();
    tooltipbg.setAttributeNS(null, "width", tbb.width);
    tooltipbg.setAttributeNS(null, "height", tbb.height);
    tooltipbg.setAttributeNS(null, "x", tbb.x);
    tooltipbg.setAttributeNS(null, "y", tbb.y);
    tooltipbg.setAttributeNS(null, "visibility", "visible");
  }
  tooltiptext.setAttributeNS(null,"visibility","visible");
}

function RectUnhover(evt, i, c) {
  rect = svgDocument.getElementById('rect' + i);
  if( c != null ) {
    rect.setAttributeNS(null, "fill", c)  
  }
  tooltiptext = svgDocument.getElementById('tooltiptext' + i);
  tooltiptext.setAttributeNS(null,"visibility","hidden");
  tooltipbg = svgDocument.getElementById('tooltipbg' + i);
  if( tooltipbg != null ) {
    tooltipbg.setAttributeNS(null,"visibility","hidden");
  }
}
]]></script>
      <line x1="602.448963639981" y1="381.89040305766713" x2="620.9379703021997" y2="576.9354580339524" stroke="rgb(0,0,0)" stroke-width="1"/><line x1="522.4868970174437" y1="166.58622530282483" x2="624.1037369468878" y2="107.27198992920725" stroke="rgb(0,0,0)" stroke-width="1"/><line x1="174.4680438798692" y1="239.2262879108236" x2="395.5470878629027" y2="514.5756028995902" stroke="rgb(0,0,0)" stroke-width="1"/><line x1="367.8481710679415" y1="296.46590021180816" x2="522.4868970174437" y2="166.58622530282483" stroke="rgb(0,0,0)" stroke-width="1"/><line x1="620.9379703021997" y1="576.9354580339524" x2="602.448963639981" y2="381.89040305766713" stroke="rgb(0,0,0)" stroke-width="1"/><line x1="367.8481710679415" y1="296.46590021180816" x2="620.9379703021997" y2="576.9354580339524" stroke="rgb(0,0,0)" stroke-width="1"/><line x1="38.74741897753663" y1="455.07795572752013" x2="541.5024766989538" y2="669.4485097618104" stroke="rgb(0,0,0)" stroke-width="1"/><line x1="38.74741897753663" y1="455.07795572752013" x2="457.1001328564153" y2="585.6914928356589" stroke="rgb(0,0,0)" stroke-width="1"/><line x1="620.9379703021997" y1="576.9354580339524" x2="395.5470878629027" y2="514.5756028995902" stroke="rgb(0,0,0)" stroke-width="1"/><line x1="367.8481710679415" y1="296.46590021180816" x2="441.88524131778325" y2="49.91836045730156" stroke="rgb(0,0,0)" stroke-width="1"/><line x1="647.6959367657531" y1="35.89342707226727" x2="367.8481710679415" y2="296.46590021180816" stroke="rgb(0,0,0)" stroke-width="1"/><line x1="541.5024766989538" y1="669.4485097618104" x2="38.74741897753663" y2="455.07795572752013" stroke="rgb(0,0,0)" stroke-width="1"/><line x1="457.1001328564153" y1="585.6914928356589" x2="38.74741897753663" y2="455.07795572752013" stroke="rgb(0,0,0)" stroke-width="1"/><line x1="441.88524131778325" y1="49.91836045730156" x2="367.8481710679415" y2="296.46590021180816" stroke="rgb(0,0,0)" stroke-width="1"/><line x1="624.1037369468878" y1="107.27198992920725" x2="522.4868970174437" y2="166.58622530282483" stroke="rgb(0,0,0)" stroke-width="1"/><line x1="38.74741897753663" y1="455.07795572752013" x2="367.8481710679415" y2="296.46590021180816" stroke="rgb(0,0,0)" stroke-width="1"/><line x1="390.8420308425796" y1="195.42248338942494" x2="367.8481710679415" y2="296.46590021180816" stroke="rgb(0,0,0)" stroke-width="1"/><line x1="367.8481710679415" y1="296.46590021180816" x2="647.6959367657531" y2="35.89342707226727" stroke="rgb(0,0,0)" stroke-width="1"/><line x1="367.8481710679415" y1="296.46590021180816" x2="390.8420308425796" y2="195.42248338942494" stroke="rgb(0,0,0)" stroke-width="1"/><line x1="395.5470878629027" y1="514.5756028995902" x2="620.9379703021997" y2="576.9354580339524" stroke="rgb(0,0,0)" stroke-width="1"/><line x1="367.8481710679415" y1="296.46590021180816" x2="38.74741897753663" y2="455.07795572752013" stroke="rgb(0,0,0)" stroke-width="1"/><line x1="620.9379703021997" y1="576.9354580339524" x2="367.8481710679415" y2="296.46590021180816" stroke="rgb(0,0,0)" stroke-width="1"/><line x1="522.4868970174437" y1="166.58622530282483" x2="367.8481710679415" y2="296.46590021180816" stroke="rgb(0,0,0)" stroke-width="1"/><line x1="395.5470878629027" y1="514.5756028995902" x2="174.4680438798692" y2="239.2262879108236" stroke="rgb(0,0,0)" stroke-width="1"/><polygon points="10,0 20,3 20,-3" fill="black" transform="translate(620.9379703021997,576.9354580339524) rotate(264.5849125385211)"/><polygon points="10,0 20,3 20,-3" fill="black" transform="translate(624.1037369468878,107.27198992920725) rotate(149.72768628717935)"/><polygon points="10,0 20,3 20,-3" fill="black" transform="translate(395.5470878629027,514.5756028995902) rotate(231.23888275147075)"/><polygon points="10,0 20,3 20,-3" fill="black" transform="translate(522.4868970174437,166.58622530282483) rotate(139.97340237432965)"/><polygon points="10,0 20,3 20,-3" fill="black" transform="translate(602.448963639981,381.89040305766713) rotate(84.5849125385211)"/><polygon points="10,0 20,3 20,-3" fill="black" transform="translate(620.9379703021997,576.9354580339524) rotate(227.93757346972487)"/><polygon points="10,0 20,3 20,-3" fill="black" transform="translate(541.5024766989538,669.4485097618104) rotate(203.09299455105077)"/><polygon points="10,0 20,3 20,-3" fill="black" transform="translate(457.1001328564153,585.6914928356589) rotate(197.33884049683806)"/><polygon points="10,0 20,3 20,-3" fill="black" transform="translate(395.5470878629027,514.5756028995902) rotate(15.465396433509682)"/><polygon points="10,0 20,3 20,-3" fill="black" transform="translate(441.88524131778325,49.91836045730156) rotate(106.71476600186692)"/><polygon points="10,0 20,3 20,-3" fill="black" transform="translate(367.8481710679415,296.46590021180816) rotate(317.04271578301734)"/><polygon points="10,0 20,3 20,-3" fill="black" transform="translate(38.74741897753663,455.07795572752013) rotate(23.092994551050765)"/><polygon points="10,0 20,3 20,-3" fill="black" transform="translate(38.74741897753663,455.07795572752013) rotate(17.33884049683803)"/><polygon points="10,0 20,3 20,-3" fill="black" transform="translate(367.8481710679415,296.46590021180816) rotate(286.71476600186696)"/><polygon points="10,0 20,3 20,-3" fill="black" transform="translate(522.4868970174437,166.58622530282483) rotate(329.7276862871794)"/><polygon points="10,0 20,3 20,-3" fill="black" transform="translate(367.8481710679415,296.46590021180816) rotate(154.26798281238044)"/><polygon points="10,0 20,3 20,-3" fill="black" transform="translate(367.8481710679415,296.46590021180816) rotate(282.82014253079143)"/><polygon points="10,0 20,3 20,-3" fill="black" transform="translate(647.6959367657531,35.89342707226727) rotate(137.04271578301731)"/><polygon points="10,0 20,3 20,-3" fill="black" transform="translate(390.8420308425796,195.42248338942494) rotate(102.82014253079141)"/><polygon points="10,0 20,3 20,-3" fill="black" transform="translate(620.9379703021997,576.9354580339524) rotate(195.46539643350968)"/><polygon points="10,0 20,3 20,-3" fill="black" transform="translate(38.74741897753663,455.07795572752013) rotate(334.2679828123804)"/><polygon points="10,0 20,3 20,-3" fill="black" transform="translate(367.8481710679415,296.46590021180816) rotate(47.93757346972487)"/><polygon points="10,0 20,3 20,-3" fill="black" transform="translate(367.8481710679415,296.46590021180816) rotate(319.9734023743297)"/><polygon points="10,0 20,3 20,-3" fill="black" transform="translate(174.4680438798692,239.2262879108236) rotate(51.238882751470754)"/><circle cx="541.5024766989538" cy="669.4485097618104" r="10" fill="rgb(255,255,0)" stroke="rgb(0,0,0)" stroke-width="1"/><circle cx="367.8481710679415" cy="296.46590021180816" r="10" fill="rgb(255,255,0)" stroke="rgb(0,0,0)" stroke-width="1"/><circle cx="38.74741897753663" cy="455.07795572752013" r="10" fill="rgb(255,255,0)" stroke="rgb(0,0,0)" stroke-width="1"/><circle cx="441.88524131778325" cy="49.91836045730156" r="10" fill="rgb(255,255,0)" stroke="rgb(0,0,0)" stroke-width="1"/><circle cx="522.4868970174437" cy="166.58622530282483" r="10" fill="rgb(255,255,0)" stroke="rgb(0,0,0)" stroke-width="1"/><circle cx="602.448963639981" cy="381.89040305766713" r="10" fill="rgb(255,255,0)" stroke="rgb(0,0,0)" stroke-width="1"/><circle cx="390.8420308425796" cy="195.42248338942494" r="10" fill="rgb(255,255,0)" stroke="rgb(0,0,0)" stroke-width="1"/><circle cx="624.1037369468878" cy="107.27198992920725" r="10" fill="rgb(255,255,0)" stroke="rgb(0,0,0)" stroke-width="1"/><circle cx="620.9379703021997" cy="576.9354580339524" r="10" fill="rgb(255,255,0)" stroke="rgb(0,0,0)" stroke-width="1"/><circle cx="457.1001328564153" cy="585.6914928356589" r="10" fill="rgb(255,255,0)" stroke="rgb(0,0,0)" stroke-width="1"/><circle cx="647.6959367657531" cy="35.89342707226727" r="10" fill="rgb(255,255,0)" stroke="rgb(0,0,0)" stroke-width="1"/><circle cx="174.4680438798692" cy="239.2262879108236" r="10" fill="rgb(255,255,0)" stroke="rgb(0,0,0)" stroke-width="1"/><circle cx="395.5470878629027" cy="514.5756028995902" r="10" fill="rgb(255,255,0)" stroke="rgb(0,0,0)" stroke-width="1"/><text text-anchor="middle" alignment-baseline="middle" x="541.5024766989538" y="669.4485097618104" fill="rgb(0,0,0)" font-size="12">inch (in)</text><text text-anchor="middle" alignment-baseline="middle" x="367.8481710679415" y="296.46590021180816" fill="rgb(0,0,0)" font-size="12">meter (m)</text><text text-anchor="middle" alignment-baseline="middle" x="38.74741897753663" y="455.07795572752013" fill="rgb(0,0,0)" font-size="12">foot (ft)</text><text text-anchor="middle" alignment-baseline="middle" x="441.88524131778325" y="49.91836045730156" fill="rgb(0,0,0)" font-size="12">micrometer (μm)</text><text text-anchor="middle" alignment-baseline="middle" x="522.4868970174437" y="166.58622530282483" fill="rgb(0,0,0)" font-size="12">nanometer (nm)</text><text text-anchor="middle" alignment-baseline="middle" x="602.448963639981" y="381.89040305766713" fill="rgb(0,0,0)" font-size="12">Astronomical Unit (AU)</text><text text-anchor="middle" alignment-baseline="middle" x="390.8420308425796" y="195.42248338942494" fill="rgb(0,0,0)" font-size="12">millimeter (mm)</text><text text-anchor="middle" alignment-baseline="middle" x="624.1037369468878" y="107.27198992920725" fill="rgb(0,0,0)" font-size="12">Planck length (ℓP)</text><text text-anchor="middle" alignment-baseline="middle" x="620.9379703021997" y="576.9354580339524" fill="rgb(0,0,0)" font-size="12">kilometer (km)</text><text text-anchor="middle" alignment-baseline="middle" x="457.1001328564153" y="585.6914928356589" fill="rgb(0,0,0)" font-size="12">mile (m)</text><text text-anchor="middle" alignment-baseline="middle" x="647.6959367657531" y="35.89342707226727" fill="rgb(0,0,0)" font-size="12">centimeter (cm)</text><text text-anchor="middle" alignment-baseline="middle" x="174.4680438798692" y="239.2262879108236" fill="rgb(0,0,0)" font-size="12">parsec (pc)</text><text text-anchor="middle" alignment-baseline="middle" x="395.5470878629027" y="514.5756028995902" fill="rgb(0,0,0)" font-size="12">lightyear (ly)</text><text text-anchor="middle" alignment-baseline="middle" x="613.5423676373122" y="498.9174360434383" fill="rgb(0,0,0)" font-size="12">6.6845871222684464E-9</text><text text-anchor="middle" alignment-baseline="middle" x="583.4570009751102" y="130.9976840786543" fill="rgb(0,0,0)" font-size="12">6.187353050365054E25</text><text text-anchor="middle" alignment-baseline="middle" x="307.1154702696893" y="404.43587690408356" fill="rgb(0,0,0)" font-size="12">0.3067484662576687</text><text text-anchor="middle" alignment-baseline="middle" x="460.6314066376428" y="218.53809526641817" fill="rgb(0,0,0)" font-size="12">1.0000000000000009E-9</text><text text-anchor="middle" alignment-baseline="middle" x="609.8445663048685" y="459.90842504818124" fill="rgb(0,0,0)" font-size="12">1.495978707E8</text><text text-anchor="middle" alignment-baseline="middle" x="519.7020506084964" y="464.7476349050947" fill="rgb(0,0,0)" font-size="12">1000.0</text><text text-anchor="middle" alignment-baseline="middle" x="340.40045361038693" y="583.7002881480943" fill="rgb(0,0,0)" font-size="12">0.08333333333333333</text><text text-anchor="middle" alignment-baseline="middle" x="289.7590473048638" y="533.4460779924034" fill="rgb(0,0,0)" font-size="12">5280.0</text><text text-anchor="middle" alignment-baseline="middle" x="485.70344083862153" y="539.5195449533351" fill="rgb(0,0,0)" font-size="12">9.4607304725808E12</text><text text-anchor="middle" alignment-baseline="middle" x="412.27041321784657" y="148.5373763591042" fill="rgb(0,0,0)" font-size="12">1.0000000000000006E-6</text><text text-anchor="middle" alignment-baseline="middle" x="479.78727734706615" y="192.2369109559918" fill="rgb(0,0,0)" font-size="12">100.0</text><text text-anchor="middle" alignment-baseline="middle" x="239.84944206610356" y="540.8261773412363" fill="rgb(0,0,0)" font-size="12">12.0</text><text text-anchor="middle" alignment-baseline="middle" x="206.08850452908814" y="507.32337057077564" fill="rgb(0,0,0)" font-size="12">1.893939393939394E-4</text><text text-anchor="middle" alignment-baseline="middle" x="397.4629991678782" y="197.84688431000552" fill="rgb(0,0,0)" font-size="12">1000000.0</text><text text-anchor="middle" alignment-baseline="middle" x="563.1336329892213" y="142.8605311533778" fill="rgb(0,0,0)" font-size="12">1.6162E-26</text><text text-anchor="middle" alignment-baseline="middle" x="236.20787023177954" y="359.910722418093" fill="rgb(0,0,0)" font-size="12">3.2808398950131235</text><text text-anchor="middle" alignment-baseline="middle" x="377.04571497779676" y="256.04853348285485" fill="rgb(0,0,0)" font-size="12">1000.0</text><text text-anchor="middle" alignment-baseline="middle" x="535.7568304866285" y="140.12241632808363" fill="rgb(0,0,0)" font-size="12">0.010000000000000002</text><text text-anchor="middle" alignment-baseline="middle" x="381.64448693272436" y="235.83985011837822" fill="rgb(0,0,0)" font-size="12">0.0010000000000000002</text><text text-anchor="middle" alignment-baseline="middle" x="530.7816173264808" y="551.9915159802075" fill="rgb(0,0,0)" font-size="12">1.0570008340246153E-13</text><text text-anchor="middle" alignment-baseline="middle" x="170.3877198136986" y="391.6331335212353" fill="rgb(0,0,0)" font-size="12">0.3048</text><text text-anchor="middle" alignment-baseline="middle" x="469.0840907616448" y="408.65372334066586" fill="rgb(0,0,0)" font-size="12">0.0010000000000000002</text><text text-anchor="middle" alignment-baseline="middle" x="429.7036614477424" y="244.51403024821482" fill="rgb(0,0,0)" font-size="12">1.0E9</text><text text-anchor="middle" alignment-baseline="middle" x="262.8996614730826" y="349.36601390633024" fill="rgb(0,0,0)" font-size="12">3.26</text>
      Sorry, your browser does not support inline SVG.
    </svg>