<?xml version='1.0' encoding='UTF-8'?>
<svg version="1.1" width="700.0" height="700.0" onload="init(evt)" xmlns="http://www.w3.org/2000/svg">
      <style>.caption {
  font-size: 14px;
  font-family: Georgia, serif;
}
</style>
      <script type="text/ecmascript"><![CDATA[
function init(evt) {
  if ( window.svgDocument == null ) {
    svgDocument = evt.target.ownerDocument;
  }
}

function RectHover(evt, i, c) {
  rect = svgDocument.getElementById('rect' + i);
  if( c != null ) {
    rect.setAttributeNS(null, "fill", c)  
  }
  tooltiptext = svgDocument.getElementById('tooltiptext' + i);
  tooltipbg = svgDocument.getElementById('tooltipbg' + i);
  if( tooltipbg != null) {
    tbb = tooltiptext.getBBox();
    tooltipbg.setAttributeNS(null, "width", tbb.width);
    tooltipbg.setAttributeNS(null, "height", tbb.height);
    tooltipbg.setAttributeNS(null, "x", tbb.x);
    tooltipbg.setAttributeNS(null, "y", tbb.y);
    tooltipbg.setAttributeNS(null, "visibility", "visible");
  }
  tooltiptext.setAttributeNS(null,"visibility","visible");
}

function RectUnhover(evt, i, c) {
  rect = svgDocument.getElementById('rect' + i);
  if( c != null ) {
    rect.setAttributeNS(null, "fill", c)  
  }
  tooltiptext = svgDocument.getElementById('tooltiptext' + i);
  tooltiptext.setAttributeNS(null,"visibility","hidden");
  tooltipbg = svgDocument.getElementById('tooltipbg' + i);
  if( tooltipbg != null ) {
    tooltipbg.setAttributeNS(null,"visibility","hidden");
  }
}
]]></script>
      <line x1="313.8479410337381" y1="613.232206216015" x2="355.09172785950955" y2="289.75774536910484" stroke="rgb(0,0,0)" stroke-width="1"/><line x1="326.32190370480043" y1="380.49453207883846" x2="633.2006915284035" y2="117.6438660365778" stroke="rgb(0,0,0)" stroke-width="1"/><line x1="431.413077385848" y1="437.08857900158625" x2="326.32190370480043" y2="380.49453207883846" stroke="rgb(0,0,0)" stroke-width="1"/><line x1="633.2006915284035" y1="117.6438660365778" x2="253.42791800121577" y2="119.23092394904104" stroke="rgb(0,0,0)" stroke-width="1"/><line x1="670.104415081664" y1="235.0151726941914" x2="218.3775013607162" y2="341.7304109225255" stroke="rgb(0,0,0)" stroke-width="1"/><line x1="326.32190370480043" y1="380.49453207883846" x2="345.6842221942027" y2="634.3298175313646" stroke="rgb(0,0,0)" stroke-width="1"/><line x1="253.42791800121577" y1="119.23092394904104" x2="633.2006915284035" y2="117.6438660365778" stroke="rgb(0,0,0)" stroke-width="1"/><line x1="326.32190370480043" y1="380.49453207883846" x2="670.104415081664" y2="235.0151726941914" stroke="rgb(0,0,0)" stroke-width="1"/><line x1="355.09172785950955" y1="289.75774536910484" x2="282.4720238462091" y2="669.4318769541871" stroke="rgb(0,0,0)" stroke-width="1"/><line x1="345.7591230449345" y1="95.52387613753865" x2="633.2006915284035" y2="117.6438660365778" stroke="rgb(0,0,0)" stroke-width="1"/><line x1="218.3775013607162" y1="341.7304109225255" x2="670.104415081664" y2="235.0151726941914" stroke="rgb(0,0,0)" stroke-width="1"/><line x1="633.2006915284035" y1="117.6438660365778" x2="345.7591230449345" y2="95.52387613753865" stroke="rgb(0,0,0)" stroke-width="1"/><line x1="670.104415081664" y1="235.0151726941914" x2="326.32190370480043" y2="380.49453207883846" stroke="rgb(0,0,0)" stroke-width="1"/><line x1="313.8479410337381" y1="613.232206216015" x2="690.4698590418776" y2="6.877875540714973" stroke="rgb(0,0,0)" stroke-width="1"/><line x1="326.32190370480043" y1="380.49453207883846" x2="355.09172785950955" y2="289.75774536910484" stroke="rgb(0,0,0)" stroke-width="1"/><line x1="633.2006915284035" y1="117.6438660365778" x2="326.32190370480043" y2="380.49453207883846" stroke="rgb(0,0,0)" stroke-width="1"/><line x1="326.32190370480043" y1="380.49453207883846" x2="88.68472653773445" y2="293.19378193997545" stroke="rgb(0,0,0)" stroke-width="1"/><line x1="282.4720238462091" y1="669.4318769541871" x2="355.09172785950955" y2="289.75774536910484" stroke="rgb(0,0,0)" stroke-width="1"/><line x1="326.32190370480043" y1="380.49453207883846" x2="431.413077385848" y2="437.08857900158625" stroke="rgb(0,0,0)" stroke-width="1"/><line x1="88.68472653773445" y1="293.19378193997545" x2="326.32190370480043" y2="380.49453207883846" stroke="rgb(0,0,0)" stroke-width="1"/><line x1="355.09172785950955" y1="289.75774536910484" x2="326.32190370480043" y2="380.49453207883846" stroke="rgb(0,0,0)" stroke-width="1"/><line x1="355.09172785950955" y1="289.75774536910484" x2="313.8479410337381" y2="613.232206216015" stroke="rgb(0,0,0)" stroke-width="1"/><line x1="690.4698590418776" y1="6.877875540714973" x2="313.8479410337381" y2="613.232206216015" stroke="rgb(0,0,0)" stroke-width="1"/><line x1="345.6842221942027" y1="634.3298175313646" x2="326.32190370480043" y2="380.49453207883846" stroke="rgb(0,0,0)" stroke-width="1"/><polygon points="10,0 20,3 20,-3" fill="black" transform="translate(355.09172785950955,289.75774536910484) rotate(97.26614667294598)"/><polygon points="10,0 20,3 20,-3" fill="black" transform="translate(633.2006915284035,117.6438660365778) rotate(139.4189776659698)"/><polygon points="10,0 20,3 20,-3" fill="black" transform="translate(326.32190370480043,380.49453207883846) rotate(28.303499517642422)"/><polygon points="10,0 20,3 20,-3" fill="black" transform="translate(253.42791800121577,119.23092394904104) rotate(359.7605642183055)"/><polygon points="10,0 20,3 20,-3" fill="black" transform="translate(218.3775013607162,341.7304109225255) rotate(346.70822631971294)"/><polygon points="10,0 20,3 20,-3" fill="black" transform="translate(345.6842221942027,634.3298175313646) rotate(265.6379785014912)"/><polygon points="10,0 20,3 20,-3" fill="black" transform="translate(633.2006915284035,117.6438660365778) rotate(179.76056421830546)"/><polygon points="10,0 20,3 20,-3" fill="black" transform="translate(670.104415081664,235.0151726941914) rotate(157.06324723725777)"/><polygon points="10,0 20,3 20,-3" fill="black" transform="translate(282.4720238462091,669.4318769541871) rotate(280.82809846162496)"/><polygon points="10,0 20,3 20,-3" fill="black" transform="translate(633.2006915284035,117.6438660365778) rotate(184.400508588348)"/><polygon points="10,0 20,3 20,-3" fill="black" transform="translate(670.104415081664,235.0151726941914) rotate(166.7082263197129)"/><polygon points="10,0 20,3 20,-3" fill="black" transform="translate(345.7591230449345,95.52387613753865) rotate(4.400508588347975)"/><polygon points="10,0 20,3 20,-3" fill="black" transform="translate(326.32190370480043,380.49453207883846) rotate(337.06324723725777)"/><polygon points="10,0 20,3 20,-3" fill="black" transform="translate(690.4698590418776,6.877875540714973) rotate(121.8454551838226)"/><polygon points="10,0 20,3 20,-3" fill="black" transform="translate(355.09172785950955,289.75774536910484) rotate(107.59220853345279)"/><polygon points="10,0 20,3 20,-3" fill="black" transform="translate(326.32190370480043,380.49453207883846) rotate(319.4189776659698)"/><polygon points="10,0 20,3 20,-3" fill="black" transform="translate(88.68472653773445,293.19378193997545) rotate(20.171813439748576)"/><polygon points="10,0 20,3 20,-3" fill="black" transform="translate(355.09172785950955,289.75774536910484) rotate(100.82809846162496)"/><polygon points="10,0 20,3 20,-3" fill="black" transform="translate(431.413077385848,437.08857900158625) rotate(208.30349951764242)"/><polygon points="10,0 20,3 20,-3" fill="black" transform="translate(326.32190370480043,380.49453207883846) rotate(200.17181343974858)"/><polygon points="10,0 20,3 20,-3" fill="black" transform="translate(326.32190370480043,380.49453207883846) rotate(287.5922085334528)"/><polygon points="10,0 20,3 20,-3" fill="black" transform="translate(313.8479410337381,613.232206216015) rotate(277.266146672946)"/><polygon points="10,0 20,3 20,-3" fill="black" transform="translate(313.8479410337381,613.232206216015) rotate(301.8454551838226)"/><polygon points="10,0 20,3 20,-3" fill="black" transform="translate(326.32190370480043,380.49453207883846) rotate(85.63797850149119)"/><circle cx="253.42791800121577" cy="119.23092394904104" r="10" fill="rgb(255,255,0)" stroke="rgb(0,0,0)" stroke-width="1"/><circle cx="326.32190370480043" cy="380.49453207883846" r="10" fill="rgb(255,255,0)" stroke="rgb(0,0,0)" stroke-width="1"/><circle cx="633.2006915284035" cy="117.6438660365778" r="10" fill="rgb(255,255,0)" stroke="rgb(0,0,0)" stroke-width="1"/><circle cx="88.68472653773445" cy="293.19378193997545" r="10" fill="rgb(255,255,0)" stroke="rgb(0,0,0)" stroke-width="1"/><circle cx="670.104415081664" cy="235.0151726941914" r="10" fill="rgb(255,255,0)" stroke="rgb(0,0,0)" stroke-width="1"/><circle cx="282.4720238462091" cy="669.4318769541871" r="10" fill="rgb(255,255,0)" stroke="rgb(0,0,0)" stroke-width="1"/><circle cx="345.6842221942027" cy="634.3298175313646" r="10" fill="rgb(255,255,0)" stroke="rgb(0,0,0)" stroke-width="1"/><circle cx="218.3775013607162" cy="341.7304109225255" r="10" fill="rgb(255,255,0)" stroke="rgb(0,0,0)" stroke-width="1"/><circle cx="355.09172785950955" cy="289.75774536910484" r="10" fill="rgb(255,255,0)" stroke="rgb(0,0,0)" stroke-width="1"/><circle cx="345.7591230449345" cy="95.52387613753865" r="10" fill="rgb(255,255,0)" stroke="rgb(0,0,0)" stroke-width="1"/><circle cx="431.413077385848" cy="437.08857900158625" r="10" fill="rgb(255,255,0)" stroke="rgb(0,0,0)" stroke-width="1"/><circle cx="690.4698590418776" cy="6.877875540714973" r="10" fill="rgb(255,255,0)" stroke="rgb(0,0,0)" stroke-width="1"/><circle cx="313.8479410337381" cy="613.232206216015" r="10" fill="rgb(255,255,0)" stroke="rgb(0,0,0)" stroke-width="1"/><text text-anchor="middle" alignment-baseline="middle" x="253.42791800121577" y="119.23092394904104" fill="rgb(0,0,0)" font-size="12">inch (in)</text><text text-anchor="middle" alignment-baseline="middle" x="326.32190370480043" y="380.49453207883846" fill="rgb(0,0,0)" font-size="12">meter (m)</text><text text-anchor="middle" alignment-baseline="middle" x="633.2006915284035" y="117.6438660365778" fill="rgb(0,0,0)" font-size="12">foot (ft)</text><text text-anchor="middle" alignment-baseline="middle" x="88.68472653773445" y="293.19378193997545" fill="rgb(0,0,0)" font-size="12">micrometer (μm)</text><text text-anchor="middle" alignment-baseline="middle" x="670.104415081664" y="235.0151726941914" fill="rgb(0,0,0)" font-size="12">nanometer (nm)</text><text text-anchor="middle" alignment-baseline="middle" x="282.4720238462091" y="669.4318769541871" fill="rgb(0,0,0)" font-size="12">Astronomical Unit (AU)</text><text text-anchor="middle" alignment-baseline="middle" x="345.6842221942027" y="634.3298175313646" fill="rgb(0,0,0)" font-size="12">millimeter (mm)</text><text text-anchor="middle" alignment-baseline="middle" x="218.3775013607162" y="341.7304109225255" fill="rgb(0,0,0)" font-size="12">Planck length (ℓP)</text><text text-anchor="middle" alignment-baseline="middle" x="355.09172785950955" y="289.75774536910484" fill="rgb(0,0,0)" font-size="12">kilometer (km)</text><text text-anchor="middle" alignment-baseline="middle" x="345.7591230449345" y="95.52387613753865" fill="rgb(0,0,0)" font-size="12">mile (m)</text><text text-anchor="middle" alignment-baseline="middle" x="431.413077385848" y="437.08857900158625" fill="rgb(0,0,0)" font-size="12">centimeter (cm)</text><text text-anchor="middle" alignment-baseline="middle" x="690.4698590418776" y="6.877875540714973" fill="rgb(0,0,0)" font-size="12">parsec (pc)</text><text text-anchor="middle" alignment-baseline="middle" x="313.8479410337381" y="613.232206216015" fill="rgb(0,0,0)" font-size="12">lightyear (ly)</text><text text-anchor="middle" alignment-baseline="middle" x="338.59421312920097" y="419.1475297078689" fill="rgb(0,0,0)" font-size="12">1.0570008340246153E-13</text><text text-anchor="middle" alignment-baseline="middle" x="510.4491763989622" y="222.7841324534821" fill="rgb(0,0,0)" font-size="12">0.3048</text><text text-anchor="middle" alignment-baseline="middle" x="368.35837317721945" y="403.13215084793757" fill="rgb(0,0,0)" font-size="12">100.0</text><text text-anchor="middle" alignment-baseline="middle" x="405.33702741209083" y="118.59610078405575" fill="rgb(0,0,0)" font-size="12">0.08333333333333333</text><text text-anchor="middle" alignment-baseline="middle" x="399.0682668490953" y="299.04431563119186" fill="rgb(0,0,0)" font-size="12">6.187353050365054E25</text><text text-anchor="middle" alignment-baseline="middle" x="337.9392947984418" y="532.7957033503542" fill="rgb(0,0,0)" font-size="12">0.0010000000000000002</text><text text-anchor="middle" alignment-baseline="middle" x="481.2915821175284" y="118.2786892015631" fill="rgb(0,0,0)" font-size="12">12.0</text><text text-anchor="middle" alignment-baseline="middle" x="532.5914105309186" y="293.2069164480502" fill="rgb(0,0,0)" font-size="12">1.0000000000000009E-9</text><text text-anchor="middle" alignment-baseline="middle" x="311.51990545152927" y="517.5622243201542" fill="rgb(0,0,0)" font-size="12">1.495978707E8</text><text text-anchor="middle" alignment-baseline="middle" x="518.2240641350159" y="108.79587007696215" fill="rgb(0,0,0)" font-size="12">1.893939393939394E-4</text><text text-anchor="middle" alignment-baseline="middle" x="489.41364959328484" y="277.701267985525" fill="rgb(0,0,0)" font-size="12">1.6162E-26</text><text text-anchor="middle" alignment-baseline="middle" x="460.73575043832204" y="104.37187209715431" fill="rgb(0,0,0)" font-size="12">5280.0</text><text text-anchor="middle" alignment-baseline="middle" x="463.8349082555459" y="322.30278832497964" fill="rgb(0,0,0)" font-size="12">1.0E9</text><text text-anchor="middle" alignment-baseline="middle" x="539.8210918386218" y="249.41960781083498" fill="rgb(0,0,0)" font-size="12">3.26</text><text text-anchor="middle" alignment-baseline="middle" x="343.5837981976259" y="326.0524600529983" fill="rgb(0,0,0)" font-size="12">1000.0</text><text text-anchor="middle" alignment-baseline="middle" x="449.0734188342417" y="275.35426566193416" fill="rgb(0,0,0)" font-size="12">3.2808398950131235</text><text text-anchor="middle" alignment-baseline="middle" x="183.73959740456084" y="328.1140819955207" fill="rgb(0,0,0)" font-size="12">1.0000000000000006E-6</text><text text-anchor="middle" alignment-baseline="middle" x="326.04384625418936" y="441.6273980031377" fill="rgb(0,0,0)" font-size="12">6.6845871222684464E-9</text><text text-anchor="middle" alignment-baseline="middle" x="389.376607913429" y="414.45096023248715" fill="rgb(0,0,0)" font-size="12">0.010000000000000002</text><text text-anchor="middle" alignment-baseline="middle" x="231.26703283797406" y="345.57423202329323" fill="rgb(0,0,0)" font-size="12">1000000.0</text><text text-anchor="middle" alignment-baseline="middle" x="337.82983336668406" y="344.199817394945" fill="rgb(0,0,0)" font-size="12">0.0010000000000000002</text><text text-anchor="middle" alignment-baseline="middle" x="330.3454557640467" y="483.8424218772509" fill="rgb(0,0,0)" font-size="12">9.4607304725808E12</text><text text-anchor="middle" alignment-baseline="middle" x="464.49670823699387" y="370.690473945895" fill="rgb(0,0,0)" font-size="12">0.3067484662576687</text><text text-anchor="middle" alignment-baseline="middle" x="334.06683110056133" y="482.0286462598489" fill="rgb(0,0,0)" font-size="12">1000.0</text>
      Sorry, your browser does not support inline SVG.
    </svg>