<?xml version='1.0' encoding='UTF-8'?>
<svg version="1.1" width="700.0" height="700.0" onload="init(evt)" xmlns="http://www.w3.org/2000/svg">
      <style>.caption {
  font-size: 14px;
  font-family: Georgia, serif;
}
</style>
      <script type="text/ecmascript"><![CDATA[
function init(evt) {
  if ( window.svgDocument == null ) {
    svgDocument = evt.target.ownerDocument;
  }
}

function RectHover(evt, i, c) {
  rect = svgDocument.getElementById('rect' + i);
  if( c != null ) {
    rect.setAttributeNS(null, "fill", c)  
  }
  tooltiptext = svgDocument.getElementById('tooltiptext' + i);
  tooltipbg = svgDocument.getElementById('tooltipbg' + i);
  if( tooltipbg != null) {
    tbb = tooltiptext.getBBox();
    tooltipbg.setAttributeNS(null, "width", tbb.width);
    tooltipbg.setAttributeNS(null, "height", tbb.height);
    tooltipbg.setAttributeNS(null, "x", tbb.x);
    tooltipbg.setAttributeNS(null, "y", tbb.y);
    tooltipbg.setAttributeNS(null, "visibility", "visible");
  }
  tooltiptext.setAttributeNS(null,"visibility","visible");
}

function RectUnhover(evt, i, c) {
  rect = svgDocument.getElementById('rect' + i);
  if( c != null ) {
    rect.setAttributeNS(null, "fill", c)  
  }
  tooltiptext = svgDocument.getElementById('tooltiptext' + i);
  tooltiptext.setAttributeNS(null,"visibility","hidden");
  tooltipbg = svgDocument.getElementById('tooltipbg' + i);
  if( tooltipbg != null ) {
    tooltipbg.setAttributeNS(null,"visibility","hidden");
  }
}
]]></script>
      <line x1="515.5218346340189" y1="511.22794768483527" x2="181.71915778799502" y2="543.5561932807611" stroke="rgb(0,0,0)" stroke-width="1"/><line x1="180.379829379084" y1="209.45972414595252" x2="530.2353898376067" y2="545.9850913785867" stroke="rgb(0,0,0)" stroke-width="1"/><line x1="680.932615876811" y1="108.83547894493955" x2="623.0066262568243" y2="365.78196258077577" stroke="rgb(0,0,0)" stroke-width="1"/><line x1="301.78504727875765" y1="616.6648911225186" x2="181.71915778799502" y2="543.5561932807611" stroke="rgb(0,0,0)" stroke-width="1"/><line x1="691.9901306690074" y1="170.98121307889673" x2="530.2353898376067" y2="545.9850913785867" stroke="rgb(0,0,0)" stroke-width="1"/><line x1="503.09155856065297" y1="26.65690614173306" x2="515.5218346340189" y2="511.22794768483527" stroke="rgb(0,0,0)" stroke-width="1"/><line x1="181.71915778799502" y1="543.5561932807611" x2="680.932615876811" y2="108.83547894493955" stroke="rgb(0,0,0)" stroke-width="1"/><line x1="180.379829379084" y1="209.45972414595252" x2="181.71915778799502" y2="543.5561932807611" stroke="rgb(0,0,0)" stroke-width="1"/><line x1="515.5218346340189" y1="511.22794768483527" x2="455.70123168871703" y2="211.91737936393707" stroke="rgb(0,0,0)" stroke-width="1"/><line x1="181.71915778799502" y1="543.5561932807611" x2="180.379829379084" y2="209.45972414595252" stroke="rgb(0,0,0)" stroke-width="1"/><line x1="515.5218346340189" y1="511.22794768483527" x2="503.09155856065297" y2="26.65690614173306" stroke="rgb(0,0,0)" stroke-width="1"/><line x1="135.1149200034657" y1="405.6183690559329" x2="180.379829379084" y2="209.45972414595252" stroke="rgb(0,0,0)" stroke-width="1"/><line x1="181.71915778799502" y1="543.5561932807611" x2="236.7589278060426" y2="555.4822600330708" stroke="rgb(0,0,0)" stroke-width="1"/><line x1="181.71915778799502" y1="543.5561932807611" x2="532.2003125548356" y2="388.32028952558625" stroke="rgb(0,0,0)" stroke-width="1"/><line x1="532.2003125548356" y1="388.32028952558625" x2="181.71915778799502" y2="543.5561932807611" stroke="rgb(0,0,0)" stroke-width="1"/><line x1="181.71915778799502" y1="543.5561932807611" x2="515.5218346340189" y2="511.22794768483527" stroke="rgb(0,0,0)" stroke-width="1"/><line x1="181.71915778799502" y1="543.5561932807611" x2="301.78504727875765" y2="616.6648911225186" stroke="rgb(0,0,0)" stroke-width="1"/><line x1="180.379829379084" y1="209.45972414595252" x2="135.1149200034657" y2="405.6183690559329" stroke="rgb(0,0,0)" stroke-width="1"/><line x1="455.70123168871703" y1="211.91737936393707" x2="515.5218346340189" y2="511.22794768483527" stroke="rgb(0,0,0)" stroke-width="1"/><line x1="680.932615876811" y1="108.83547894493955" x2="181.71915778799502" y2="543.5561932807611" stroke="rgb(0,0,0)" stroke-width="1"/><line x1="530.2353898376067" y1="545.9850913785867" x2="691.9901306690074" y2="170.98121307889673" stroke="rgb(0,0,0)" stroke-width="1"/><line x1="623.0066262568243" y1="365.78196258077577" x2="680.932615876811" y2="108.83547894493955" stroke="rgb(0,0,0)" stroke-width="1"/><line x1="530.2353898376067" y1="545.9850913785867" x2="180.379829379084" y2="209.45972414595252" stroke="rgb(0,0,0)" stroke-width="1"/><line x1="236.7589278060426" y1="555.4822600330708" x2="181.71915778799502" y2="543.5561932807611" stroke="rgb(0,0,0)" stroke-width="1"/><polygon points="10,0 20,3 20,-3" fill="black" transform="translate(181.71915778799502,543.5561932807611) rotate(354.4682492385265)"/><polygon points="10,0 20,3 20,-3" fill="black" transform="translate(530.2353898376067,545.9850913785867) rotate(223.8873994326743)"/><polygon points="10,0 20,3 20,-3" fill="black" transform="translate(623.0066262568243,365.78196258077577) rotate(282.70437116340116)"/><polygon points="10,0 20,3 20,-3" fill="black" transform="translate(181.71915778799502,543.5561932807611) rotate(31.337436215932257)"/><polygon points="10,0 20,3 20,-3" fill="black" transform="translate(530.2353898376067,545.9850913785867) rotate(293.33254208588573)"/><polygon points="10,0 20,3 20,-3" fill="black" transform="translate(515.5218346340189,511.22794768483527) rotate(268.5305638583154)"/><polygon points="10,0 20,3 20,-3" fill="black" transform="translate(680.932615876811,108.83547894493955) rotate(138.95028399574687)"/><polygon points="10,0 20,3 20,-3" fill="black" transform="translate(181.71915778799502,543.5561932807611) rotate(269.7703134835805)"/><polygon points="10,0 20,3 20,-3" fill="black" transform="translate(455.70123168871703,211.91737936393707) rotate(78.69770833028186)"/><polygon points="10,0 20,3 20,-3" fill="black" transform="translate(180.379829379084,209.45972414595252) rotate(89.77031348358047)"/><polygon points="10,0 20,3 20,-3" fill="black" transform="translate(503.09155856065297,26.65690614173306) rotate(88.53056385831543)"/><polygon points="10,0 20,3 20,-3" fill="black" transform="translate(180.379829379084,209.45972414595252) rotate(102.99393174780622)"/><polygon points="10,0 20,3 20,-3" fill="black" transform="translate(236.7589278060426,555.4822600330708) rotate(192.2259014661945)"/><polygon points="10,0 20,3 20,-3" fill="black" transform="translate(532.2003125548356,388.32028952558625) rotate(156.1103811515378)"/><polygon points="10,0 20,3 20,-3" fill="black" transform="translate(181.71915778799502,543.5561932807611) rotate(336.1103811515378)"/><polygon points="10,0 20,3 20,-3" fill="black" transform="translate(515.5218346340189,511.22794768483527) rotate(174.46824923852648)"/><polygon points="10,0 20,3 20,-3" fill="black" transform="translate(301.78504727875765,616.6648911225186) rotate(211.33743621593226)"/><polygon points="10,0 20,3 20,-3" fill="black" transform="translate(135.1149200034657,405.6183690559329) rotate(282.99393174780624)"/><polygon points="10,0 20,3 20,-3" fill="black" transform="translate(515.5218346340189,511.22794768483527) rotate(258.6977083302819)"/><polygon points="10,0 20,3 20,-3" fill="black" transform="translate(181.71915778799502,543.5561932807611) rotate(318.9502839957469)"/><polygon points="10,0 20,3 20,-3" fill="black" transform="translate(691.9901306690074,170.98121307889673) rotate(113.3325420858857)"/><polygon points="10,0 20,3 20,-3" fill="black" transform="translate(680.932615876811,108.83547894493955) rotate(102.70437116340115)"/><polygon points="10,0 20,3 20,-3" fill="black" transform="translate(180.379829379084,209.45972414595252) rotate(43.8873994326743)"/><polygon points="10,0 20,3 20,-3" fill="black" transform="translate(181.71915778799502,543.5561932807611) rotate(12.225901466194529)"/><circle cx="503.09155856065297" cy="26.65690614173306" r="10" fill="rgb(255,255,0)" stroke="rgb(0,0,0)" stroke-width="1"/><circle cx="181.71915778799502" cy="543.5561932807611" r="10" fill="rgb(255,255,0)" stroke="rgb(0,0,0)" stroke-width="1"/><circle cx="515.5218346340189" cy="511.22794768483527" r="10" fill="rgb(255,255,0)" stroke="rgb(0,0,0)" stroke-width="1"/><circle cx="532.2003125548356" cy="388.32028952558625" r="10" fill="rgb(255,255,0)" stroke="rgb(0,0,0)" stroke-width="1"/><circle cx="680.932615876811" cy="108.83547894493955" r="10" fill="rgb(255,255,0)" stroke="rgb(0,0,0)" stroke-width="1"/><circle cx="135.1149200034657" cy="405.6183690559329" r="10" fill="rgb(255,255,0)" stroke="rgb(0,0,0)" stroke-width="1"/><circle cx="301.78504727875765" cy="616.6648911225186" r="10" fill="rgb(255,255,0)" stroke="rgb(0,0,0)" stroke-width="1"/><circle cx="623.0066262568243" cy="365.78196258077577" r="10" fill="rgb(255,255,0)" stroke="rgb(0,0,0)" stroke-width="1"/><circle cx="180.379829379084" cy="209.45972414595252" r="10" fill="rgb(255,255,0)" stroke="rgb(0,0,0)" stroke-width="1"/><circle cx="455.70123168871703" cy="211.91737936393707" r="10" fill="rgb(255,255,0)" stroke="rgb(0,0,0)" stroke-width="1"/><circle cx="236.7589278060426" cy="555.4822600330708" r="10" fill="rgb(255,255,0)" stroke="rgb(0,0,0)" stroke-width="1"/><circle cx="691.9901306690074" cy="170.98121307889673" r="10" fill="rgb(255,255,0)" stroke="rgb(0,0,0)" stroke-width="1"/><circle cx="530.2353898376067" cy="545.9850913785867" r="10" fill="rgb(255,255,0)" stroke="rgb(0,0,0)" stroke-width="1"/><text text-anchor="middle" alignment-baseline="middle" x="503.09155856065297" y="26.65690614173306" fill="rgb(0,0,0)" font-size="12">inch (in)</text><text text-anchor="middle" alignment-baseline="middle" x="181.71915778799502" y="543.5561932807611" fill="rgb(0,0,0)" font-size="12">meter (m)</text><text text-anchor="middle" alignment-baseline="middle" x="515.5218346340189" y="511.22794768483527" fill="rgb(0,0,0)" font-size="12">foot (ft)</text><text text-anchor="middle" alignment-baseline="middle" x="532.2003125548356" y="388.32028952558625" fill="rgb(0,0,0)" font-size="12">micrometer (μm)</text><text text-anchor="middle" alignment-baseline="middle" x="680.932615876811" y="108.83547894493955" fill="rgb(0,0,0)" font-size="12">nanometer (nm)</text><text text-anchor="middle" alignment-baseline="middle" x="135.1149200034657" y="405.6183690559329" fill="rgb(0,0,0)" font-size="12">Astronomical Unit (AU)</text><text text-anchor="middle" alignment-baseline="middle" x="301.78504727875765" y="616.6648911225186" fill="rgb(0,0,0)" font-size="12">millimeter (mm)</text><text text-anchor="middle" alignment-baseline="middle" x="623.0066262568243" y="365.78196258077577" fill="rgb(0,0,0)" font-size="12">Planck length (ℓP)</text><text text-anchor="middle" alignment-baseline="middle" x="180.379829379084" y="209.45972414595252" fill="rgb(0,0,0)" font-size="12">kilometer (km)</text><text text-anchor="middle" alignment-baseline="middle" x="455.70123168871703" y="211.91737936393707" fill="rgb(0,0,0)" font-size="12">mile (m)</text><text text-anchor="middle" alignment-baseline="middle" x="236.7589278060426" y="555.4822600330708" fill="rgb(0,0,0)" font-size="12">centimeter (cm)</text><text text-anchor="middle" alignment-baseline="middle" x="691.9901306690074" y="170.98121307889673" fill="rgb(0,0,0)" font-size="12">parsec (pc)</text><text text-anchor="middle" alignment-baseline="middle" x="530.2353898376067" y="545.9850913785867" fill="rgb(0,0,0)" font-size="12">lightyear (ly)</text><text text-anchor="middle" alignment-baseline="middle" x="315.24022852640456" y="530.6248950423908" fill="rgb(0,0,0)" font-size="12">3.2808398950131235</text><text text-anchor="middle" alignment-baseline="middle" x="390.29316565419765" y="411.37494448553304" fill="rgb(0,0,0)" font-size="12">9.4607304725808E12</text><text text-anchor="middle" alignment-baseline="middle" x="646.177022104819" y="263.00336912644127" fill="rgb(0,0,0)" font-size="12">6.187353050365054E25</text><text text-anchor="middle" alignment-baseline="middle" x="229.74551358430006" y="572.7996724174641" fill="rgb(0,0,0)" font-size="12">1000.0</text><text text-anchor="middle" alignment-baseline="middle" x="594.937286170167" y="395.9835400587107" fill="rgb(0,0,0)" font-size="12">0.3067484662576687</text><text text-anchor="middle" alignment-baseline="middle" x="510.54972420467254" y="317.39953106759435" fill="rgb(0,0,0)" font-size="12">12.0</text><text text-anchor="middle" alignment-baseline="middle" x="481.2472326412846" y="282.7237646792682" fill="rgb(0,0,0)" font-size="12">1.0000000000000009E-9</text><text text-anchor="middle" alignment-baseline="middle" x="181.1834264244306" y="409.9176056268377" fill="rgb(0,0,0)" font-size="12">0.0010000000000000002</text><text text-anchor="middle" alignment-baseline="middle" x="479.6294728668378" y="331.64160669229636" fill="rgb(0,0,0)" font-size="12">5280.0</text><text text-anchor="middle" alignment-baseline="middle" x="180.9155607426484" y="343.098311799876" fill="rgb(0,0,0)" font-size="12">1000.0</text><text text-anchor="middle" alignment-baseline="middle" x="508.0636689899993" y="220.48532275897395" fill="rgb(0,0,0)" font-size="12">0.08333333333333333</text><text text-anchor="middle" alignment-baseline="middle" x="162.27386562883666" y="287.92318210994466" fill="rgb(0,0,0)" font-size="12">6.6845871222684464E-9</text><text text-anchor="middle" alignment-baseline="middle" x="214.74301979882358" y="550.711833332147" fill="rgb(0,0,0)" font-size="12">0.010000000000000002</text><text text-anchor="middle" alignment-baseline="middle" x="392.00785064809935" y="450.4146510276562" fill="rgb(0,0,0)" font-size="12">1.0000000000000006E-6</text><text text-anchor="middle" alignment-baseline="middle" x="321.91161969473126" y="481.4618317786912" fill="rgb(0,0,0)" font-size="12">1000000.0</text><text text-anchor="middle" alignment-baseline="middle" x="382.00076389560934" y="524.1592459232056" fill="rgb(0,0,0)" font-size="12">0.3048</text><text text-anchor="middle" alignment-baseline="middle" x="253.7586914824526" y="587.4214119858157" fill="rgb(0,0,0)" font-size="12">0.0010000000000000002</text><text text-anchor="middle" alignment-baseline="middle" x="153.22088375371303" y="327.15491109194073" fill="rgb(0,0,0)" font-size="12">1.495978707E8</text><text text-anchor="middle" alignment-baseline="middle" x="491.59359345589814" y="391.503720356476" fill="rgb(0,0,0)" font-size="12">1.893939393939394E-4</text><text text-anchor="middle" alignment-baseline="middle" x="381.40454102352146" y="369.6679075464325" fill="rgb(0,0,0)" font-size="12">1.0E9</text><text text-anchor="middle" alignment-baseline="middle" x="627.2882343364471" y="320.98276439877276" fill="rgb(0,0,0)" font-size="12">3.26</text><text text-anchor="middle" alignment-baseline="middle" x="657.7622200288164" y="211.61407239927405" fill="rgb(0,0,0)" font-size="12">1.6162E-26</text><text text-anchor="middle" alignment-baseline="middle" x="320.32205356249307" y="344.0698710390062" fill="rgb(0,0,0)" font-size="12">1.0570008340246153E-13</text><text text-anchor="middle" alignment-baseline="middle" x="203.73506579521404" y="548.326619981685" fill="rgb(0,0,0)" font-size="12">100.0</text>
      Sorry, your browser does not support inline SVG.
    </svg>