<?xml version='1.0' encoding='UTF-8'?>
<svg version="1.1" width="700.0" height="700.0" onload="init(evt)" xmlns="http://www.w3.org/2000/svg">
      <style>.caption {
  font-size: 14px;
  font-family: Georgia, serif;
}
</style>
      <script type="text/ecmascript"><![CDATA[
function init(evt) {
  if ( window.svgDocument == null ) {
    svgDocument = evt.target.ownerDocument;
  }
}

function RectHover(evt, i, c) {
  rect = svgDocument.getElementById('rect' + i);
  if( c != null ) {
    rect.setAttributeNS(null, "fill", c)  
  }
  tooltiptext = svgDocument.getElementById('tooltiptext' + i);
  tooltipbg = svgDocument.getElementById('tooltipbg' + i);
  if( tooltipbg != null) {
    tbb = tooltiptext.getBBox();
    tooltipbg.setAttributeNS(null, "width", tbb.width);
    tooltipbg.setAttributeNS(null, "height", tbb.height);
    tooltipbg.setAttributeNS(null, "x", tbb.x);
    tooltipbg.setAttributeNS(null, "y", tbb.y);
    tooltipbg.setAttributeNS(null, "visibility", "visible");
  }
  tooltiptext.setAttributeNS(null,"visibility","visible");
}

function RectUnhover(evt, i, c) {
  rect = svgDocument.getElementById('rect' + i);
  if( c != null ) {
    rect.setAttributeNS(null, "fill", c)  
  }
  tooltiptext = svgDocument.getElementById('tooltiptext' + i);
  tooltiptext.setAttributeNS(null,"visibility","hidden");
  tooltipbg = svgDocument.getElementById('tooltipbg' + i);
  if( tooltipbg != null ) {
    tooltipbg.setAttributeNS(null,"visibility","hidden");
  }
}
]]></script>
      <line x1="343.19018097249995" y1="55.90106977939434" x2="611.768379965795" y2="342.1295530565677" stroke="rgb(0,0,0)" stroke-width="1"/><line x1="323.0399280234138" y1="116.86602537692545" x2="631.4823197300931" y2="647.1767877056681" stroke="rgb(0,0,0)" stroke-width="1"/><line x1="611.768379965795" y1="342.1295530565677" x2="343.19018097249995" y2="55.90106977939434" stroke="rgb(0,0,0)" stroke-width="1"/><line x1="323.0399280234138" y1="116.86602537692545" x2="343.19018097249995" y2="55.90106977939434" stroke="rgb(0,0,0)" stroke-width="1"/><line x1="631.4823197300931" y1="647.1767877056681" x2="622.6678115105143" y2="493.4923294361665" stroke="rgb(0,0,0)" stroke-width="1"/><line x1="110.31201526072354" y1="646.2244291063987" x2="343.19018097249995" y2="55.90106977939434" stroke="rgb(0,0,0)" stroke-width="1"/><line x1="343.19018097249995" y1="55.90106977939434" x2="150.38458846414713" y2="687.4121777180219" stroke="rgb(0,0,0)" stroke-width="1"/><line x1="343.19018097249995" y1="55.90106977939434" x2="584.2692635337202" y2="529.7975086281492" stroke="rgb(0,0,0)" stroke-width="1"/><line x1="481.3057206355524" y1="169.26626149686606" x2="135.52428258624957" y2="110.33468172497643" stroke="rgb(0,0,0)" stroke-width="1"/><line x1="135.52428258624957" y1="110.33468172497643" x2="481.3057206355524" y2="169.26626149686606" stroke="rgb(0,0,0)" stroke-width="1"/><line x1="631.4823197300931" y1="647.1767877056681" x2="323.0399280234138" y2="116.86602537692545" stroke="rgb(0,0,0)" stroke-width="1"/><line x1="284.1600749784686" y1="341.77714272476436" x2="481.3057206355524" y2="169.26626149686606" stroke="rgb(0,0,0)" stroke-width="1"/><line x1="150.38458846414713" y1="687.4121777180219" x2="343.19018097249995" y2="55.90106977939434" stroke="rgb(0,0,0)" stroke-width="1"/><line x1="296.8119398652089" y1="359.3838127940052" x2="323.0399280234138" y2="116.86602537692545" stroke="rgb(0,0,0)" stroke-width="1"/><line x1="343.19018097249995" y1="55.90106977939434" x2="110.31201526072354" y2="646.2244291063987" stroke="rgb(0,0,0)" stroke-width="1"/><line x1="14.81692719186941" y1="540.599870634256" x2="611.768379965795" y2="342.1295530565677" stroke="rgb(0,0,0)" stroke-width="1"/><line x1="622.6678115105143" y1="493.4923294361665" x2="631.4823197300931" y2="647.1767877056681" stroke="rgb(0,0,0)" stroke-width="1"/><line x1="481.3057206355524" y1="169.26626149686606" x2="284.1600749784686" y2="341.77714272476436" stroke="rgb(0,0,0)" stroke-width="1"/><line x1="481.3057206355524" y1="169.26626149686606" x2="343.19018097249995" y2="55.90106977939434" stroke="rgb(0,0,0)" stroke-width="1"/><line x1="343.19018097249995" y1="55.90106977939434" x2="323.0399280234138" y2="116.86602537692545" stroke="rgb(0,0,0)" stroke-width="1"/><line x1="611.768379965795" y1="342.1295530565677" x2="14.81692719186941" y2="540.599870634256" stroke="rgb(0,0,0)" stroke-width="1"/><line x1="343.19018097249995" y1="55.90106977939434" x2="481.3057206355524" y2="169.26626149686606" stroke="rgb(0,0,0)" stroke-width="1"/><line x1="584.2692635337202" y1="529.7975086281492" x2="343.19018097249995" y2="55.90106977939434" stroke="rgb(0,0,0)" stroke-width="1"/><line x1="323.0399280234138" y1="116.86602537692545" x2="296.8119398652089" y2="359.3838127940052" stroke="rgb(0,0,0)" stroke-width="1"/><polygon points="10,0 20,3 20,-3" fill="black" transform="translate(611.768379965795,342.1295530565677) rotate(226.8221587161945)"/><polygon points="10,0 20,3 20,-3" fill="black" transform="translate(631.4823197300931,647.1767877056681) rotate(239.81661513634353)"/><polygon points="10,0 20,3 20,-3" fill="black" transform="translate(343.19018097249995,55.90106977939434) rotate(46.82215871619448)"/><polygon points="10,0 20,3 20,-3" fill="black" transform="translate(343.19018097249995,55.90106977939434) rotate(108.2898518085862)"/><polygon points="10,0 20,3 20,-3" fill="black" transform="translate(622.6678115105143,493.4923294361665) rotate(86.71742063223707)"/><polygon points="10,0 20,3 20,-3" fill="black" transform="translate(343.19018097249995,55.90106977939434) rotate(111.52886480515009)"/><polygon points="10,0 20,3 20,-3" fill="black" transform="translate(150.38458846414713,687.4121777180219) rotate(286.9778662212873)"/><polygon points="10,0 20,3 20,-3" fill="black" transform="translate(584.2692635337202,529.7975086281492) rotate(243.03679456979995)"/><polygon points="10,0 20,3 20,-3" fill="black" transform="translate(135.52428258624957,110.33468172497643) rotate(9.671996719389796)"/><polygon points="10,0 20,3 20,-3" fill="black" transform="translate(481.3057206355524,169.26626149686606) rotate(189.6719967193898)"/><polygon points="10,0 20,3 20,-3" fill="black" transform="translate(323.0399280234138,116.86602537692545) rotate(59.8166151363435)"/><polygon points="10,0 20,3 20,-3" fill="black" transform="translate(481.3057206355524,169.26626149686606) rotate(138.81268540657078)"/><polygon points="10,0 20,3 20,-3" fill="black" transform="translate(343.19018097249995,55.90106977939434) rotate(106.97786622128727)"/><polygon points="10,0 20,3 20,-3" fill="black" transform="translate(323.0399280234138,116.86602537692545) rotate(96.17247506407668)"/><polygon points="10,0 20,3 20,-3" fill="black" transform="translate(110.31201526072354,646.2244291063987) rotate(291.52886480515014)"/><polygon points="10,0 20,3 20,-3" fill="black" transform="translate(611.768379965795,342.1295530565677) rotate(161.6094200697516)"/><polygon points="10,0 20,3 20,-3" fill="black" transform="translate(631.4823197300931,647.1767877056681) rotate(266.71742063223707)"/><polygon points="10,0 20,3 20,-3" fill="black" transform="translate(284.1600749784686,341.77714272476436) rotate(318.8126854065708)"/><polygon points="10,0 20,3 20,-3" fill="black" transform="translate(343.19018097249995,55.90106977939434) rotate(39.379138852629865)"/><polygon points="10,0 20,3 20,-3" fill="black" transform="translate(323.0399280234138,116.86602537692545) rotate(288.2898518085862)"/><polygon points="10,0 20,3 20,-3" fill="black" transform="translate(14.81692719186941,540.599870634256) rotate(341.6094200697516)"/><polygon points="10,0 20,3 20,-3" fill="black" transform="translate(481.3057206355524,169.26626149686606) rotate(219.37913885262986)"/><polygon points="10,0 20,3 20,-3" fill="black" transform="translate(343.19018097249995,55.90106977939434) rotate(63.03679456979994)"/><polygon points="10,0 20,3 20,-3" fill="black" transform="translate(296.8119398652089,359.3838127940052) rotate(276.1724750640767)"/><circle cx="284.1600749784686" cy="341.77714272476436" r="10" fill="rgb(255,255,0)" stroke="rgb(0,0,0)" stroke-width="1"/><circle cx="343.19018097249995" cy="55.90106977939434" r="10" fill="rgb(255,255,0)" stroke="rgb(0,0,0)" stroke-width="1"/><circle cx="481.3057206355524" cy="169.26626149686606" r="10" fill="rgb(255,255,0)" stroke="rgb(0,0,0)" stroke-width="1"/><circle cx="584.2692635337202" cy="529.7975086281492" r="10" fill="rgb(255,255,0)" stroke="rgb(0,0,0)" stroke-width="1"/><circle cx="611.768379965795" cy="342.1295530565677" r="10" fill="rgb(255,255,0)" stroke="rgb(0,0,0)" stroke-width="1"/><circle cx="296.8119398652089" cy="359.3838127940052" r="10" fill="rgb(255,255,0)" stroke="rgb(0,0,0)" stroke-width="1"/><circle cx="150.38458846414713" cy="687.4121777180219" r="10" fill="rgb(255,255,0)" stroke="rgb(0,0,0)" stroke-width="1"/><circle cx="14.81692719186941" cy="540.599870634256" r="10" fill="rgb(255,255,0)" stroke="rgb(0,0,0)" stroke-width="1"/><circle cx="323.0399280234138" cy="116.86602537692545" r="10" fill="rgb(255,255,0)" stroke="rgb(0,0,0)" stroke-width="1"/><circle cx="135.52428258624957" cy="110.33468172497643" r="10" fill="rgb(255,255,0)" stroke="rgb(0,0,0)" stroke-width="1"/><circle cx="110.31201526072354" cy="646.2244291063987" r="10" fill="rgb(255,255,0)" stroke="rgb(0,0,0)" stroke-width="1"/><circle cx="622.6678115105143" cy="493.4923294361665" r="10" fill="rgb(255,255,0)" stroke="rgb(0,0,0)" stroke-width="1"/><circle cx="631.4823197300931" cy="647.1767877056681" r="10" fill="rgb(255,255,0)" stroke="rgb(0,0,0)" stroke-width="1"/><text text-anchor="middle" alignment-baseline="middle" x="284.1600749784686" y="341.77714272476436" fill="rgb(0,0,0)" font-size="12">inch (in)</text><text text-anchor="middle" alignment-baseline="middle" x="343.19018097249995" y="55.90106977939434" fill="rgb(0,0,0)" font-size="12">meter (m)</text><text text-anchor="middle" alignment-baseline="middle" x="481.3057206355524" y="169.26626149686606" fill="rgb(0,0,0)" font-size="12">foot (ft)</text><text text-anchor="middle" alignment-baseline="middle" x="584.2692635337202" y="529.7975086281492" fill="rgb(0,0,0)" font-size="12">micrometer (μm)</text><text text-anchor="middle" alignment-baseline="middle" x="611.768379965795" y="342.1295530565677" fill="rgb(0,0,0)" font-size="12">nanometer (nm)</text><text text-anchor="middle" alignment-baseline="middle" x="296.8119398652089" y="359.3838127940052" fill="rgb(0,0,0)" font-size="12">Astronomical Unit (AU)</text><text text-anchor="middle" alignment-baseline="middle" x="150.38458846414713" y="687.4121777180219" fill="rgb(0,0,0)" font-size="12">millimeter (mm)</text><text text-anchor="middle" alignment-baseline="middle" x="14.81692719186941" y="540.599870634256" fill="rgb(0,0,0)" font-size="12">Planck length (ℓP)</text><text text-anchor="middle" alignment-baseline="middle" x="323.0399280234138" y="116.86602537692545" fill="rgb(0,0,0)" font-size="12">kilometer (km)</text><text text-anchor="middle" alignment-baseline="middle" x="135.52428258624957" y="110.33468172497643" fill="rgb(0,0,0)" font-size="12">mile (m)</text><text text-anchor="middle" alignment-baseline="middle" x="110.31201526072354" y="646.2244291063987" fill="rgb(0,0,0)" font-size="12">centimeter (cm)</text><text text-anchor="middle" alignment-baseline="middle" x="622.6678115105143" y="493.4923294361665" fill="rgb(0,0,0)" font-size="12">parsec (pc)</text><text text-anchor="middle" alignment-baseline="middle" x="631.4823197300931" y="647.1767877056681" fill="rgb(0,0,0)" font-size="12">lightyear (ly)</text><text text-anchor="middle" alignment-baseline="middle" x="504.33710036847697" y="227.63815974569835" fill="rgb(0,0,0)" font-size="12">1.0000000000000009E-9</text><text text-anchor="middle" alignment-baseline="middle" x="508.10536304742135" y="435.052482774171" fill="rgb(0,0,0)" font-size="12">9.4607304725808E12</text><text text-anchor="middle" alignment-baseline="middle" x="450.62146056981794" y="170.3924630902637" fill="rgb(0,0,0)" font-size="12">1.0E9</text><text text-anchor="middle" alignment-baseline="middle" x="335.1300797928655" y="80.28705201840678" fill="rgb(0,0,0)" font-size="12">0.0010000000000000002</text><text text-anchor="middle" alignment-baseline="middle" x="626.1936147983458" y="554.9661127439671" fill="rgb(0,0,0)" font-size="12">3.26</text><text text-anchor="middle" alignment-baseline="middle" x="250.03891468778937" y="292.03041351019607" fill="rgb(0,0,0)" font-size="12">100.0</text><text text-anchor="middle" alignment-baseline="middle" x="227.50682546748826" y="434.80773454257087" fill="rgb(0,0,0)" font-size="12">0.0010000000000000002</text><text text-anchor="middle" alignment-baseline="middle" x="487.8376305092321" y="340.23893308864723" fill="rgb(0,0,0)" font-size="12">1.0000000000000006E-6</text><text text-anchor="middle" alignment-baseline="middle" x="273.8368578059707" y="133.9073136337323" fill="rgb(0,0,0)" font-size="12">5280.0</text><text text-anchor="middle" alignment-baseline="middle" x="342.99314541583124" y="145.6936295881102" fill="rgb(0,0,0)" font-size="12">1.893939393939394E-4</text><text text-anchor="middle" alignment-baseline="middle" x="446.4168847060855" y="328.99033030842253" fill="rgb(0,0,0)" font-size="12">1.0570008340246153E-13</text><text text-anchor="middle" alignment-baseline="middle" x="402.44746237271886" y="238.2706139880254" fill="rgb(0,0,0)" font-size="12">12.0</text><text text-anchor="middle" alignment-baseline="middle" x="266.0679439691588" y="308.50551295484536" fill="rgb(0,0,0)" font-size="12">1000.0</text><text text-anchor="middle" alignment-baseline="middle" x="312.5487327601318" y="213.87314034375737" fill="rgb(0,0,0)" font-size="12">6.6845871222684464E-9</text><text text-anchor="middle" alignment-baseline="middle" x="203.4632815454341" y="410.09508537559697" fill="rgb(0,0,0)" font-size="12">0.010000000000000002</text><text text-anchor="middle" alignment-baseline="middle" x="372.9877988562248" y="421.51768008764304" fill="rgb(0,0,0)" font-size="12">1.6162E-26</text><text text-anchor="middle" alignment-baseline="middle" x="627.9565164422615" y="585.7030043978674" fill="rgb(0,0,0)" font-size="12">0.3067484662576687</text><text text-anchor="middle" alignment-baseline="middle" x="363.0183332413021" y="272.77279023360506" fill="rgb(0,0,0)" font-size="12">0.08333333333333333</text><text text-anchor="middle" alignment-baseline="middle" x="398.43639683772096" y="101.24714646638303" fill="rgb(0,0,0)" font-size="12">3.2808398950131235</text><text text-anchor="middle" alignment-baseline="middle" x="331.1000292030482" y="92.48004313791301" fill="rgb(0,0,0)" font-size="12">1000.0</text><text text-anchor="middle" alignment-baseline="middle" x="253.59750830143963" y="461.2117436031807" fill="rgb(0,0,0)" font-size="12">6.187353050365054E25</text><text text-anchor="middle" alignment-baseline="middle" x="426.0595047703314" y="123.92018480987738" fill="rgb(0,0,0)" font-size="12">0.3048</text><text text-anchor="middle" alignment-baseline="middle" x="439.62181399698807" y="245.45964531889632" fill="rgb(0,0,0)" font-size="12">1000000.0</text><text text-anchor="middle" alignment-baseline="middle" x="307.30313512849085" y="262.3766978271733" fill="rgb(0,0,0)" font-size="12">1.495978707E8</text>
      Sorry, your browser does not support inline SVG.
    </svg>