<?xml version='1.0' encoding='UTF-8'?>
<svg version="1.1" width="700.0" height="600.0" onload="init(evt)" xmlns="http://www.w3.org/2000/svg">
      <style>.caption {
  font-size: 14px;
  font-family: Georgia, serif;
}
</style>
      <script type="text/ecmascript"><![CDATA[
function init(evt) {
  if ( window.svgDocument == null ) {
    svgDocument = evt.target.ownerDocument;
  }
}

function RectHover(evt, i, c) {
  rect = svgDocument.getElementById('rect' + i);
  if( c != null ) {
    rect.setAttributeNS(null, "fill", c)  
  }
  tooltiptext = svgDocument.getElementById('tooltiptext' + i);
  tooltipbg = svgDocument.getElementById('tooltipbg' + i);
  if( tooltipbg != null) {
    tbb = tooltiptext.getBBox();
    tooltipbg.setAttributeNS(null, "width", tbb.width);
    tooltipbg.setAttributeNS(null, "height", tbb.height);
    tooltipbg.setAttributeNS(null, "x", tbb.x);
    tooltipbg.setAttributeNS(null, "y", tbb.y);
    tooltipbg.setAttributeNS(null, "visibility", "visible");
  }
  tooltiptext.setAttributeNS(null,"visibility","visible");
}

function RectUnhover(evt, i, c) {
  rect = svgDocument.getElementById('rect' + i);
  if( c != null ) {
    rect.setAttributeNS(null, "fill", c)  
  }
  tooltiptext = svgDocument.getElementById('tooltiptext' + i);
  tooltiptext.setAttributeNS(null,"visibility","hidden");
  tooltipbg = svgDocument.getElementById('tooltipbg' + i);
  if( tooltipbg != null ) {
    tooltipbg.setAttributeNS(null,"visibility","hidden");
  }
}
]]></script>
      <line x1="50.0" y1="550.0" x2="550.0" y2="550.0" stroke="rgb(0,0,0)" stroke-width="1"/><line x1="50.0" y1="550.0" x2="50.0" y2="50.0" stroke="rgb(0,0,0)" stroke-width="1"/><line x1="50.0" y1="550.0" x2="50.0" y2="50.0" stroke="rgb(192,192,192)" stroke-width="1"/><line x1="50.0" y1="548.0" x2="50.0" y2="552.0" stroke="rgb(192,192,192)" stroke-width="1"/><text text-anchor="middle" alignment-baseline="hanging" x="50.0" y="553.0" font-size="12.0">0</text><line x1="100.5050505050505" y1="550.0" x2="100.5050505050505" y2="50.0" stroke="rgb(192,192,192)" stroke-width="1"/><line x1="100.5050505050505" y1="548.0" x2="100.5050505050505" y2="552.0" stroke="rgb(192,192,192)" stroke-width="1"/><text text-anchor="middle" alignment-baseline="hanging" x="100.5050505050505" y="553.0" font-size="12.0">10</text><line x1="151.010101010101" y1="550.0" x2="151.010101010101" y2="50.0" stroke="rgb(192,192,192)" stroke-width="1"/><line x1="151.010101010101" y1="548.0" x2="151.010101010101" y2="552.0" stroke="rgb(192,192,192)" stroke-width="1"/><text text-anchor="middle" alignment-baseline="hanging" x="151.010101010101" y="553.0" font-size="12.0">20</text><line x1="201.51515151515153" y1="550.0" x2="201.51515151515153" y2="50.0" stroke="rgb(192,192,192)" stroke-width="1"/><line x1="201.51515151515153" y1="548.0" x2="201.51515151515153" y2="552.0" stroke="rgb(192,192,192)" stroke-width="1"/><text text-anchor="middle" alignment-baseline="hanging" x="201.51515151515153" y="553.0" font-size="12.0">30</text><line x1="252.02020202020202" y1="550.0" x2="252.02020202020202" y2="50.0" stroke="rgb(192,192,192)" stroke-width="1"/><line x1="252.02020202020202" y1="548.0" x2="252.02020202020202" y2="552.0" stroke="rgb(192,192,192)" stroke-width="1"/><text text-anchor="middle" alignment-baseline="hanging" x="252.02020202020202" y="553.0" font-size="12.0">40</text><line x1="302.52525252525254" y1="550.0" x2="302.52525252525254" y2="50.0" stroke="rgb(192,192,192)" stroke-width="1"/><line x1="302.52525252525254" y1="548.0" x2="302.52525252525254" y2="552.0" stroke="rgb(192,192,192)" stroke-width="1"/><text text-anchor="middle" alignment-baseline="hanging" x="302.52525252525254" y="553.0" font-size="12.0">50</text><line x1="353.03030303030306" y1="550.0" x2="353.03030303030306" y2="50.0" stroke="rgb(192,192,192)" stroke-width="1"/><line x1="353.03030303030306" y1="548.0" x2="353.03030303030306" y2="552.0" stroke="rgb(192,192,192)" stroke-width="1"/><text text-anchor="middle" alignment-baseline="hanging" x="353.03030303030306" y="553.0" font-size="12.0">60</text><line x1="403.5353535353535" y1="550.0" x2="403.5353535353535" y2="50.0" stroke="rgb(192,192,192)" stroke-width="1"/><line x1="403.5353535353535" y1="548.0" x2="403.5353535353535" y2="552.0" stroke="rgb(192,192,192)" stroke-width="1"/><text text-anchor="middle" alignment-baseline="hanging" x="403.5353535353535" y="553.0" font-size="12.0">70</text><line x1="454.04040404040404" y1="550.0" x2="454.04040404040404" y2="50.0" stroke="rgb(192,192,192)" stroke-width="1"/><line x1="454.04040404040404" y1="548.0" x2="454.04040404040404" y2="552.0" stroke="rgb(192,192,192)" stroke-width="1"/><text text-anchor="middle" alignment-baseline="hanging" x="454.04040404040404" y="553.0" font-size="12.0">80</text><line x1="504.5454545454545" y1="550.0" x2="504.5454545454545" y2="50.0" stroke="rgb(192,192,192)" stroke-width="1"/><line x1="504.5454545454545" y1="548.0" x2="504.5454545454545" y2="552.0" stroke="rgb(192,192,192)" stroke-width="1"/><text text-anchor="middle" alignment-baseline="hanging" x="504.5454545454545" y="553.0" font-size="12.0">90</text><line x1="50.0" y1="550.0" x2="550.0" y2="550.0" stroke="rgb(192,192,192)" stroke-width="1"/><text text-anchor="end" alignment-baseline="middle" x="45.0" y="550.0" font-size="12.0">0.0</text><line x1="48.0" y1="550.0" x2="52.0" y2="550.0" stroke="rgb(192,192,192)" stroke-width="1"/><line x1="50.0" y1="366.81085809978345" x2="550.0" y2="366.81085809978345" stroke="rgb(192,192,192)" stroke-width="1"/><text text-anchor="end" alignment-baseline="middle" x="45.0" y="366.81085809978345" font-size="12.0">1000.0</text><line x1="48.0" y1="366.81085809978345" x2="52.0" y2="366.81085809978345" stroke="rgb(192,192,192)" stroke-width="1"/><line x1="50.0" y1="183.62171619956695" x2="550.0" y2="183.62171619956695" stroke="rgb(192,192,192)" stroke-width="1"/><text text-anchor="end" alignment-baseline="middle" x="45.0" y="183.62171619956695" font-size="12.0">2000.0</text><line x1="48.0" y1="183.62171619956695" x2="52.0" y2="183.62171619956695" stroke="rgb(192,192,192)" stroke-width="1"/><polyline points="50.0,433.53745521299186 55.05050505050505,388.31619128739703 60.101010101010104,375.29934507017265 65.15151515151516,293.8855909108872 70.20202020202021,324.7119109754789 75.25252525252526,281.3601177275899 80.30303030303031,286.9677039680642 85.35353535353535,354.6010032158475 90.40404040404042,361.687453659224 95.45454545454545,374.47790987005453 100.5050505050505,386.5266454661871 105.55555555555554,387.3598533834754 110.60606060606061,281.60122255405355 115.65656565656566,282.8921916091282 120.7070707070707,379.62091722821833 125.75757575757576,356.33849433106593 130.80808080808083,356.25175560417296 135.85858585858585,299.41833323408906 140.9090909090909,266.1426719387643 145.95959595959596,324.51324701787973 151.010101010101,398.3709577930506 156.06060606060606,346.1302351990434 161.1111111111111,381.2133453687858 166.16161616161617,379.7471080844101 171.21212121212122,391.94119156377735 176.26262626262627,377.9004889846319 181.31313131313132,366.94825450570926 186.36363636363635,358.51079701085297 191.4141414141414,398.26956220580485 196.46464646464648,399.77004696221616 201.51515151515153,403.97921069542826 206.56565656565658,387.273685393978 211.61616161616163,326.45896732769927 216.66666666666666,394.08314927103936 221.7171717171717,232.54878734542172 226.76767676767676,249.2222996507744 231.8181818181818,326.8293308148213 236.86868686868686,406.46156041577956 241.91919191919192,405.8206265101439 246.96969696969697,318.1740810553393 252.02020202020202,172.23932255676448 257.07070707070704,246.21299217058754 262.1212121212121,307.546477310401 267.1717171717172,363.59135494295117 272.2222222222222,364.50396094398127 277.27272727272725,147.2282490563489 282.32323232323233,146.74346177414782 287.3737373737374,393.92491397659046 292.42424242424244,341.4498996800595 297.47474747474746,404.595753067416 302.52525252525254,393.6026308962878 307.57575757575756,389.90854471846717 312.62626262626264,364.76369881074766 317.67676767676767,364.75223148991495 322.7272727272727,346.86732508645696 327.77777777777777,395.4306873083784 332.8282828282828,381.1741108488559 337.8787878787879,314.1512014860898 342.92929292929296,284.89114192174816 347.979797979798,265.5472948400127 353.03030303030306,401.4211890461196 358.0808080808081,401.4211890461196 363.13131313131316,268.64393737406436 368.1818181818182,364.11294633668615 373.23232323232327,364.0012520565824 378.2828282828283,365.393365625647 383.3333333333333,365.2309366450571 388.3838383838384,403.4581897343893 393.4343434343434,403.4581897343893 398.4848484848485,328.1431013936401 403.5353535353535,219.41178089216982 408.58585858585855,183.29834894000288 413.6363636363636,240.44425912078862 418.68686868686865,226.76520067314442 423.73737373737373,397.23089940569156 428.7878787878788,396.6805264683389 433.83838383838383,396.6906617310558 438.8888888888889,373.1814378331131 443.93939393939394,374.5991700960652 448.989898989899,373.7863743024132 454.04040404040404,361.5121021552638 459.0909090909091,362.6002935009435 464.14141414141415,360.76963935710194 469.19191919191917,349.0241726652067 474.24242424242425,363.029108723829 479.2929292929293,409.8939483758669 484.34343434343435,409.7581950487309 489.3939393939394,375.2809084123561 494.4444444444444,375.20099175536086 499.4949494949495,367.92473185862775 504.5454545454545,361.0567769385118 509.59595959595964,389.86432672122294 514.6464646464647,338.45425763237375 519.6969696969697,401.10159597433386 524.7474747474748,383.0860339934774 529.7979797979798,383.2085923116039 534.8484848484849,384.47653125992804 539.8989898989898,383.3163901570467 544.9494949494949,345.5138058127633 550.0,425.64835524385626" fill="none" stroke="rgb(0,0,0)" stroke-width="1"/><circle cx="50.0" cy="433.53745521299186" r="2" fill="rgb(0,0,0)"/><circle cx="55.05050505050505" cy="388.31619128739703" r="2" fill="rgb(0,0,0)"/><circle cx="60.101010101010104" cy="375.29934507017265" r="2" fill="rgb(0,0,0)"/><circle cx="65.15151515151516" cy="293.8855909108872" r="2" fill="rgb(0,0,0)"/><circle cx="70.20202020202021" cy="324.7119109754789" r="2" fill="rgb(0,0,0)"/><circle cx="75.25252525252526" cy="281.3601177275899" r="2" fill="rgb(0,0,0)"/><circle cx="80.30303030303031" cy="286.9677039680642" r="2" fill="rgb(0,0,0)"/><circle cx="85.35353535353535" cy="354.6010032158475" r="2" fill="rgb(0,0,0)"/><circle cx="90.40404040404042" cy="361.687453659224" r="2" fill="rgb(0,0,0)"/><circle cx="95.45454545454545" cy="374.47790987005453" r="2" fill="rgb(0,0,0)"/><circle cx="100.5050505050505" cy="386.5266454661871" r="2" fill="rgb(0,0,0)"/><circle cx="105.55555555555554" cy="387.3598533834754" r="2" fill="rgb(0,0,0)"/><circle cx="110.60606060606061" cy="281.60122255405355" r="2" fill="rgb(0,0,0)"/><circle cx="115.65656565656566" cy="282.8921916091282" r="2" fill="rgb(0,0,0)"/><circle cx="120.7070707070707" cy="379.62091722821833" r="2" fill="rgb(0,0,0)"/><circle cx="125.75757575757576" cy="356.33849433106593" r="2" fill="rgb(0,0,0)"/><circle cx="130.80808080808083" cy="356.25175560417296" r="2" fill="rgb(0,0,0)"/><circle cx="135.85858585858585" cy="299.41833323408906" r="2" fill="rgb(0,0,0)"/><circle cx="140.9090909090909" cy="266.1426719387643" r="2" fill="rgb(0,0,0)"/><circle cx="145.95959595959596" cy="324.51324701787973" r="2" fill="rgb(0,0,0)"/><circle cx="151.010101010101" cy="398.3709577930506" r="2" fill="rgb(0,0,0)"/><circle cx="156.06060606060606" cy="346.1302351990434" r="2" fill="rgb(0,0,0)"/><circle cx="161.1111111111111" cy="381.2133453687858" r="2" fill="rgb(0,0,0)"/><circle cx="166.16161616161617" cy="379.7471080844101" r="2" fill="rgb(0,0,0)"/><circle cx="171.21212121212122" cy="391.94119156377735" r="2" fill="rgb(0,0,0)"/><circle cx="176.26262626262627" cy="377.9004889846319" r="2" fill="rgb(0,0,0)"/><circle cx="181.31313131313132" cy="366.94825450570926" r="2" fill="rgb(0,0,0)"/><circle cx="186.36363636363635" cy="358.51079701085297" r="2" fill="rgb(0,0,0)"/><circle cx="191.4141414141414" cy="398.26956220580485" r="2" fill="rgb(0,0,0)"/><circle cx="196.46464646464648" cy="399.77004696221616" r="2" fill="rgb(0,0,0)"/><circle cx="201.51515151515153" cy="403.97921069542826" r="2" fill="rgb(0,0,0)"/><circle cx="206.56565656565658" cy="387.273685393978" r="2" fill="rgb(0,0,0)"/><circle cx="211.61616161616163" cy="326.45896732769927" r="2" fill="rgb(0,0,0)"/><circle cx="216.66666666666666" cy="394.08314927103936" r="2" fill="rgb(0,0,0)"/><circle cx="221.7171717171717" cy="232.54878734542172" r="2" fill="rgb(0,0,0)"/><circle cx="226.76767676767676" cy="249.2222996507744" r="2" fill="rgb(0,0,0)"/><circle cx="231.8181818181818" cy="326.8293308148213" r="2" fill="rgb(0,0,0)"/><circle cx="236.86868686868686" cy="406.46156041577956" r="2" fill="rgb(0,0,0)"/><circle cx="241.91919191919192" cy="405.8206265101439" r="2" fill="rgb(0,0,0)"/><circle cx="246.96969696969697" cy="318.1740810553393" r="2" fill="rgb(0,0,0)"/><circle cx="252.02020202020202" cy="172.23932255676448" r="2" fill="rgb(0,0,0)"/><circle cx="257.07070707070704" cy="246.21299217058754" r="2" fill="rgb(0,0,0)"/><circle cx="262.1212121212121" cy="307.546477310401" r="2" fill="rgb(0,0,0)"/><circle cx="267.1717171717172" cy="363.59135494295117" r="2" fill="rgb(0,0,0)"/><circle cx="272.2222222222222" cy="364.50396094398127" r="2" fill="rgb(0,0,0)"/><circle cx="277.27272727272725" cy="147.2282490563489" r="2" fill="rgb(0,0,0)"/><circle cx="282.32323232323233" cy="146.74346177414782" r="2" fill="rgb(0,0,0)"/><circle cx="287.3737373737374" cy="393.92491397659046" r="2" fill="rgb(0,0,0)"/><circle cx="292.42424242424244" cy="341.4498996800595" r="2" fill="rgb(0,0,0)"/><circle cx="297.47474747474746" cy="404.595753067416" r="2" fill="rgb(0,0,0)"/><circle cx="302.52525252525254" cy="393.6026308962878" r="2" fill="rgb(0,0,0)"/><circle cx="307.57575757575756" cy="389.90854471846717" r="2" fill="rgb(0,0,0)"/><circle cx="312.62626262626264" cy="364.76369881074766" r="2" fill="rgb(0,0,0)"/><circle cx="317.67676767676767" cy="364.75223148991495" r="2" fill="rgb(0,0,0)"/><circle cx="322.7272727272727" cy="346.86732508645696" r="2" fill="rgb(0,0,0)"/><circle cx="327.77777777777777" cy="395.4306873083784" r="2" fill="rgb(0,0,0)"/><circle cx="332.8282828282828" cy="381.1741108488559" r="2" fill="rgb(0,0,0)"/><circle cx="337.8787878787879" cy="314.1512014860898" r="2" fill="rgb(0,0,0)"/><circle cx="342.92929292929296" cy="284.89114192174816" r="2" fill="rgb(0,0,0)"/><circle cx="347.979797979798" cy="265.5472948400127" r="2" fill="rgb(0,0,0)"/><circle cx="353.03030303030306" cy="401.4211890461196" r="2" fill="rgb(0,0,0)"/><circle cx="358.0808080808081" cy="401.4211890461196" r="2" fill="rgb(0,0,0)"/><circle cx="363.13131313131316" cy="268.64393737406436" r="2" fill="rgb(0,0,0)"/><circle cx="368.1818181818182" cy="364.11294633668615" r="2" fill="rgb(0,0,0)"/><circle cx="373.23232323232327" cy="364.0012520565824" r="2" fill="rgb(0,0,0)"/><circle cx="378.2828282828283" cy="365.393365625647" r="2" fill="rgb(0,0,0)"/><circle cx="383.3333333333333" cy="365.2309366450571" r="2" fill="rgb(0,0,0)"/><circle cx="388.3838383838384" cy="403.4581897343893" r="2" fill="rgb(0,0,0)"/><circle cx="393.4343434343434" cy="403.4581897343893" r="2" fill="rgb(0,0,0)"/><circle cx="398.4848484848485" cy="328.1431013936401" r="2" fill="rgb(0,0,0)"/><circle cx="403.5353535353535" cy="219.41178089216982" r="2" fill="rgb(0,0,0)"/><circle cx="408.58585858585855" cy="183.29834894000288" r="2" fill="rgb(0,0,0)"/><circle cx="413.6363636363636" cy="240.44425912078862" r="2" fill="rgb(0,0,0)"/><circle cx="418.68686868686865" cy="226.76520067314442" r="2" fill="rgb(0,0,0)"/><circle cx="423.73737373737373" cy="397.23089940569156" r="2" fill="rgb(0,0,0)"/><circle cx="428.7878787878788" cy="396.6805264683389" r="2" fill="rgb(0,0,0)"/><circle cx="433.83838383838383" cy="396.6906617310558" r="2" fill="rgb(0,0,0)"/><circle cx="438.8888888888889" cy="373.1814378331131" r="2" fill="rgb(0,0,0)"/><circle cx="443.93939393939394" cy="374.5991700960652" r="2" fill="rgb(0,0,0)"/><circle cx="448.989898989899" cy="373.7863743024132" r="2" fill="rgb(0,0,0)"/><circle cx="454.04040404040404" cy="361.5121021552638" r="2" fill="rgb(0,0,0)"/><circle cx="459.0909090909091" cy="362.6002935009435" r="2" fill="rgb(0,0,0)"/><circle cx="464.14141414141415" cy="360.76963935710194" r="2" fill="rgb(0,0,0)"/><circle cx="469.19191919191917" cy="349.0241726652067" r="2" fill="rgb(0,0,0)"/><circle cx="474.24242424242425" cy="363.029108723829" r="2" fill="rgb(0,0,0)"/><circle cx="479.2929292929293" cy="409.8939483758669" r="2" fill="rgb(0,0,0)"/><circle cx="484.34343434343435" cy="409.7581950487309" r="2" fill="rgb(0,0,0)"/><circle cx="489.3939393939394" cy="375.2809084123561" r="2" fill="rgb(0,0,0)"/><circle cx="494.4444444444444" cy="375.20099175536086" r="2" fill="rgb(0,0,0)"/><circle cx="499.4949494949495" cy="367.92473185862775" r="2" fill="rgb(0,0,0)"/><circle cx="504.5454545454545" cy="361.0567769385118" r="2" fill="rgb(0,0,0)"/><circle cx="509.59595959595964" cy="389.86432672122294" r="2" fill="rgb(0,0,0)"/><circle cx="514.6464646464647" cy="338.45425763237375" r="2" fill="rgb(0,0,0)"/><circle cx="519.6969696969697" cy="401.10159597433386" r="2" fill="rgb(0,0,0)"/><circle cx="524.7474747474748" cy="383.0860339934774" r="2" fill="rgb(0,0,0)"/><circle cx="529.7979797979798" cy="383.2085923116039" r="2" fill="rgb(0,0,0)"/><circle cx="534.8484848484849" cy="384.47653125992804" r="2" fill="rgb(0,0,0)"/><circle cx="539.8989898989898" cy="383.3163901570467" r="2" fill="rgb(0,0,0)"/><circle cx="544.9494949494949" cy="345.5138058127633" r="2" fill="rgb(0,0,0)"/><circle cx="550.0" cy="425.64835524385626" r="2" fill="rgb(0,0,0)"/><polyline points="50.0,179.42860365760725 55.05050505050505,148.41462043406403 60.101010101010104,131.07901486460747 65.15151515151516,103.72192105713339 70.20202020202021,92.2399179926312 75.25252525252526,89.47298601656058 80.30303030303031,80.62180518690946 85.35353535353535,81.0871924144422 90.40404040404042,81.14483826651349 95.45454545454545,74.07810805823391 100.5050505050505,69.90072802634637 105.55555555555554,66.6963845530608 110.60606060606061,63.78171995637052 115.65656565656566,67.78817920515354 120.7070707070707,79.86305929338306 125.75757575757576,69.96281084858651 130.80808080808083,66.72987557809466 135.85858585858585,68.90797390736725 140.9090909090909,63.25888348662386 145.95959595959596,66.84659308571423 151.010101010101,68.58826457421651 156.06060606060606,64.13054478792759 161.1111111111111,64.69768988596866 166.16161616161617,68.51501560059302 171.21212121212122,72.78865493407477 176.26262626262627,66.28590103487187 181.31313131313132,68.53149210976392 186.36363636363635,65.01458848804668 191.4141414141414,69.33928766279541 196.46464646464648,71.81658468928464 201.51515151515153,63.794012458582245 206.56565656565658,67.70745479777389 211.61616161616163,63.281465130765696 216.66666666666666,71.03067185181561 221.7171717171717,67.12736267947463 226.76767676767676,63.96702882237781 231.8181818181818,60.82904416424486 236.86868686868686,64.6502254937331 241.91919191919192,69.25774388698733 246.96969696969697,61.15968763689068 252.02020202020202,56.70628147284725 257.07070707070704,54.57636862982696 262.1212121212121,59.182962254545146 267.1717171717172,60.955579300566114 272.2222222222222,59.65663348298557 277.27272727272725,52.94300793715871 282.32323232323233,52.843711498337996 287.3737373737374,58.572954068682236 292.42424242424244,61.79276249098723 297.47474747474746,71.37580018063534 302.52525252525254,67.19529968722674 307.57575757575756,65.93178023097005 312.62626262626264,65.24037656089439 317.67676767676767,79.77075320728784 322.7272727272727,74.6066147787032 327.77777777777777,64.29030559503724 332.8282828282828,57.926933398775134 337.8787878787879,61.98653501312043 342.92929292929296,57.37707118416239 347.979797979798,53.84706401008913 353.03030303030306,61.882985440052664 358.0808080808081,55.339568695943 363.13131313131316,55.48536779980361 368.1818181818182,59.86403695249186 373.23232323232327,56.78150922147563 378.2828282828283,66.89442572229399 383.3333333333333,58.547600835728815 388.3838383838384,58.55273095196145 393.4343434343434,57.75256783975891 398.4848484848485,58.695075637138075 403.5353535353535,53.02422992168499 408.58585858585855,53.27501176349767 413.6363636363636,57.3079464365415 418.68686868686865,55.7381019152229 423.73737373737373,56.08281794910732 428.7878787878788,62.26656620068968 433.83838383838383,64.76384011165402 438.8888888888889,59.18182754311971 443.93939393939394,60.18753671504561 448.989898989899,61.154041469395054 454.04040404040404,66.81439872048139 459.0909090909091,61.362353315627274 464.14141414141415,56.119326848913374 469.19191919191917,55.29339438381038 474.24242424242425,55.594893388818264 479.2929292929293,59.01924008538441 484.34343434343435,62.96491420243348 489.3939393939394,62.592699608547434 494.4444444444444,61.81776808568304 499.4949494949495,64.26214689333409 504.5454545454545,60.2579205714228 509.59595959595964,60.02993857107094 514.6464646464647,53.59016472320434 519.6969696969697,66.42922009702676 524.7474747474748,62.22501376770492 529.7979797979798,66.92732017098734 534.8484848484849,68.35024548192007 539.8989898989898,75.21740817608634 544.9494949494949,75.38747806468308 550.0,73.44249497355372" fill="none" stroke="rgb(0,0,255)" stroke-width="1"/><circle cx="50.0" cy="179.42860365760725" r="2" fill="rgb(0,0,255)"/><circle cx="55.05050505050505" cy="148.41462043406403" r="2" fill="rgb(0,0,255)"/><circle cx="60.101010101010104" cy="131.07901486460747" r="2" fill="rgb(0,0,255)"/><circle cx="65.15151515151516" cy="103.72192105713339" r="2" fill="rgb(0,0,255)"/><circle cx="70.20202020202021" cy="92.2399179926312" r="2" fill="rgb(0,0,255)"/><circle cx="75.25252525252526" cy="89.47298601656058" r="2" fill="rgb(0,0,255)"/><circle cx="80.30303030303031" cy="80.62180518690946" r="2" fill="rgb(0,0,255)"/><circle cx="85.35353535353535" cy="81.0871924144422" r="2" fill="rgb(0,0,255)"/><circle cx="90.40404040404042" cy="81.14483826651349" r="2" fill="rgb(0,0,255)"/><circle cx="95.45454545454545" cy="74.07810805823391" r="2" fill="rgb(0,0,255)"/><circle cx="100.5050505050505" cy="69.90072802634637" r="2" fill="rgb(0,0,255)"/><circle cx="105.55555555555554" cy="66.6963845530608" r="2" fill="rgb(0,0,255)"/><circle cx="110.60606060606061" cy="63.78171995637052" r="2" fill="rgb(0,0,255)"/><circle cx="115.65656565656566" cy="67.78817920515354" r="2" fill="rgb(0,0,255)"/><circle cx="120.7070707070707" cy="79.86305929338306" r="2" fill="rgb(0,0,255)"/><circle cx="125.75757575757576" cy="69.96281084858651" r="2" fill="rgb(0,0,255)"/><circle cx="130.80808080808083" cy="66.72987557809466" r="2" fill="rgb(0,0,255)"/><circle cx="135.85858585858585" cy="68.90797390736725" r="2" fill="rgb(0,0,255)"/><circle cx="140.9090909090909" cy="63.25888348662386" r="2" fill="rgb(0,0,255)"/><circle cx="145.95959595959596" cy="66.84659308571423" r="2" fill="rgb(0,0,255)"/><circle cx="151.010101010101" cy="68.58826457421651" r="2" fill="rgb(0,0,255)"/><circle cx="156.06060606060606" cy="64.13054478792759" r="2" fill="rgb(0,0,255)"/><circle cx="161.1111111111111" cy="64.69768988596866" r="2" fill="rgb(0,0,255)"/><circle cx="166.16161616161617" cy="68.51501560059302" r="2" fill="rgb(0,0,255)"/><circle cx="171.21212121212122" cy="72.78865493407477" r="2" fill="rgb(0,0,255)"/><circle cx="176.26262626262627" cy="66.28590103487187" r="2" fill="rgb(0,0,255)"/><circle cx="181.31313131313132" cy="68.53149210976392" r="2" fill="rgb(0,0,255)"/><circle cx="186.36363636363635" cy="65.01458848804668" r="2" fill="rgb(0,0,255)"/><circle cx="191.4141414141414" cy="69.33928766279541" r="2" fill="rgb(0,0,255)"/><circle cx="196.46464646464648" cy="71.81658468928464" r="2" fill="rgb(0,0,255)"/><circle cx="201.51515151515153" cy="63.794012458582245" r="2" fill="rgb(0,0,255)"/><circle cx="206.56565656565658" cy="67.70745479777389" r="2" fill="rgb(0,0,255)"/><circle cx="211.61616161616163" cy="63.281465130765696" r="2" fill="rgb(0,0,255)"/><circle cx="216.66666666666666" cy="71.03067185181561" r="2" fill="rgb(0,0,255)"/><circle cx="221.7171717171717" cy="67.12736267947463" r="2" fill="rgb(0,0,255)"/><circle cx="226.76767676767676" cy="63.96702882237781" r="2" fill="rgb(0,0,255)"/><circle cx="231.8181818181818" cy="60.82904416424486" r="2" fill="rgb(0,0,255)"/><circle cx="236.86868686868686" cy="64.6502254937331" r="2" fill="rgb(0,0,255)"/><circle cx="241.91919191919192" cy="69.25774388698733" r="2" fill="rgb(0,0,255)"/><circle cx="246.96969696969697" cy="61.15968763689068" r="2" fill="rgb(0,0,255)"/><circle cx="252.02020202020202" cy="56.70628147284725" r="2" fill="rgb(0,0,255)"/><circle cx="257.07070707070704" cy="54.57636862982696" r="2" fill="rgb(0,0,255)"/><circle cx="262.1212121212121" cy="59.182962254545146" r="2" fill="rgb(0,0,255)"/><circle cx="267.1717171717172" cy="60.955579300566114" r="2" fill="rgb(0,0,255)"/><circle cx="272.2222222222222" cy="59.65663348298557" r="2" fill="rgb(0,0,255)"/><circle cx="277.27272727272725" cy="52.94300793715871" r="2" fill="rgb(0,0,255)"/><circle cx="282.32323232323233" cy="52.843711498337996" r="2" fill="rgb(0,0,255)"/><circle cx="287.3737373737374" cy="58.572954068682236" r="2" fill="rgb(0,0,255)"/><circle cx="292.42424242424244" cy="61.79276249098723" r="2" fill="rgb(0,0,255)"/><circle cx="297.47474747474746" cy="71.37580018063534" r="2" fill="rgb(0,0,255)"/><circle cx="302.52525252525254" cy="67.19529968722674" r="2" fill="rgb(0,0,255)"/><circle cx="307.57575757575756" cy="65.93178023097005" r="2" fill="rgb(0,0,255)"/><circle cx="312.62626262626264" cy="65.24037656089439" r="2" fill="rgb(0,0,255)"/><circle cx="317.67676767676767" cy="79.77075320728784" r="2" fill="rgb(0,0,255)"/><circle cx="322.7272727272727" cy="74.6066147787032" r="2" fill="rgb(0,0,255)"/><circle cx="327.77777777777777" cy="64.29030559503724" r="2" fill="rgb(0,0,255)"/><circle cx="332.8282828282828" cy="57.926933398775134" r="2" fill="rgb(0,0,255)"/><circle cx="337.8787878787879" cy="61.98653501312043" r="2" fill="rgb(0,0,255)"/><circle cx="342.92929292929296" cy="57.37707118416239" r="2" fill="rgb(0,0,255)"/><circle cx="347.979797979798" cy="53.84706401008913" r="2" fill="rgb(0,0,255)"/><circle cx="353.03030303030306" cy="61.882985440052664" r="2" fill="rgb(0,0,255)"/><circle cx="358.0808080808081" cy="55.339568695943" r="2" fill="rgb(0,0,255)"/><circle cx="363.13131313131316" cy="55.48536779980361" r="2" fill="rgb(0,0,255)"/><circle cx="368.1818181818182" cy="59.86403695249186" r="2" fill="rgb(0,0,255)"/><circle cx="373.23232323232327" cy="56.78150922147563" r="2" fill="rgb(0,0,255)"/><circle cx="378.2828282828283" cy="66.89442572229399" r="2" fill="rgb(0,0,255)"/><circle cx="383.3333333333333" cy="58.547600835728815" r="2" fill="rgb(0,0,255)"/><circle cx="388.3838383838384" cy="58.55273095196145" r="2" fill="rgb(0,0,255)"/><circle cx="393.4343434343434" cy="57.75256783975891" r="2" fill="rgb(0,0,255)"/><circle cx="398.4848484848485" cy="58.695075637138075" r="2" fill="rgb(0,0,255)"/><circle cx="403.5353535353535" cy="53.02422992168499" r="2" fill="rgb(0,0,255)"/><circle cx="408.58585858585855" cy="53.27501176349767" r="2" fill="rgb(0,0,255)"/><circle cx="413.6363636363636" cy="57.3079464365415" r="2" fill="rgb(0,0,255)"/><circle cx="418.68686868686865" cy="55.7381019152229" r="2" fill="rgb(0,0,255)"/><circle cx="423.73737373737373" cy="56.08281794910732" r="2" fill="rgb(0,0,255)"/><circle cx="428.7878787878788" cy="62.26656620068968" r="2" fill="rgb(0,0,255)"/><circle cx="433.83838383838383" cy="64.76384011165402" r="2" fill="rgb(0,0,255)"/><circle cx="438.8888888888889" cy="59.18182754311971" r="2" fill="rgb(0,0,255)"/><circle cx="443.93939393939394" cy="60.18753671504561" r="2" fill="rgb(0,0,255)"/><circle cx="448.989898989899" cy="61.154041469395054" r="2" fill="rgb(0,0,255)"/><circle cx="454.04040404040404" cy="66.81439872048139" r="2" fill="rgb(0,0,255)"/><circle cx="459.0909090909091" cy="61.362353315627274" r="2" fill="rgb(0,0,255)"/><circle cx="464.14141414141415" cy="56.119326848913374" r="2" fill="rgb(0,0,255)"/><circle cx="469.19191919191917" cy="55.29339438381038" r="2" fill="rgb(0,0,255)"/><circle cx="474.24242424242425" cy="55.594893388818264" r="2" fill="rgb(0,0,255)"/><circle cx="479.2929292929293" cy="59.01924008538441" r="2" fill="rgb(0,0,255)"/><circle cx="484.34343434343435" cy="62.96491420243348" r="2" fill="rgb(0,0,255)"/><circle cx="489.3939393939394" cy="62.592699608547434" r="2" fill="rgb(0,0,255)"/><circle cx="494.4444444444444" cy="61.81776808568304" r="2" fill="rgb(0,0,255)"/><circle cx="499.4949494949495" cy="64.26214689333409" r="2" fill="rgb(0,0,255)"/><circle cx="504.5454545454545" cy="60.2579205714228" r="2" fill="rgb(0,0,255)"/><circle cx="509.59595959595964" cy="60.02993857107094" r="2" fill="rgb(0,0,255)"/><circle cx="514.6464646464647" cy="53.59016472320434" r="2" fill="rgb(0,0,255)"/><circle cx="519.6969696969697" cy="66.42922009702676" r="2" fill="rgb(0,0,255)"/><circle cx="524.7474747474748" cy="62.22501376770492" r="2" fill="rgb(0,0,255)"/><circle cx="529.7979797979798" cy="66.92732017098734" r="2" fill="rgb(0,0,255)"/><circle cx="534.8484848484849" cy="68.35024548192007" r="2" fill="rgb(0,0,255)"/><circle cx="539.8989898989898" cy="75.21740817608634" r="2" fill="rgb(0,0,255)"/><circle cx="544.9494949494949" cy="75.38747806468308" r="2" fill="rgb(0,0,255)"/><circle cx="550.0" cy="73.44249497355372" r="2" fill="rgb(0,0,255)"/><polyline points="50.0,55.08724768005811 55.05050505050505,55.74343231649436 60.101010101010104,55.39620586118929 65.15151515151516,55.8128779420191 70.20202020202021,55.467222991700396 75.25252525252526,55.13645587124972 80.30303030303031,53.59537612272857 85.35353535353535,53.46255631108875 90.40404040404042,53.94725740835622 95.45454545454545,54.273061857157984 100.5050505050505,52.683963863565964 105.55555555555554,53.74515816688978 110.60606060606061,53.142330797514944 115.65656565656566,51.9140202576894 120.7070707070707,51.622745528915345 125.75757575757576,51.05466275872902 130.80808080808083,52.01861342975246 135.85858585858585,52.84274770741763 140.9090909090909,52.43222340584737 145.95959595959596,52.47999796527273 151.010101010101,52.751125878224684 156.06060606060606,51.72648439665335 161.1111111111111,52.271274250012084 166.16161616161617,52.695966667152675 171.21212121212122,51.4661020552619 176.26262626262627,51.15590302926148 181.31313131313132,50.84049266886575 186.36363636363635,51.01272587734093 191.4141414141414,50.87861888818054 196.46464646464648,51.26594614510941 201.51515151515153,51.01587197430541 206.56565656565658,50.91253034603852 211.61616161616163,50.83261368904317 216.66666666666666,50.78625694381259 221.7171717171717,50.79057738599266 226.76767676767676,50.93035834511983 231.8181818181818,50.606870927245666 236.86868686868686,50.687235757725716 241.91919191919192,50.606870927245666 246.96969696969697,50.606870927245666 252.02020202020202,50.75101415625164 257.07070707070704,50.687235757725716 262.1212121212121,50.687235757725716 267.1717171717172,50.606870927245666 272.2222222222222,50.606870927245666 277.27272727272725,50.606870927245666 282.32323232323233,50.606870927245666 287.3737373737374,50.581178317603076 292.42424242424244,50.45725408672638 297.47474747474746,50.45725408672638 302.52525252525254,50.606870927245666 307.57575757575756,50.47530780648941 312.62626262626264,50.375422980538985 317.67676767676767,50.37730765222756 322.7272727272727,50.45725408672638 327.77777777777777,50.49969530705323 332.8282828282828,50.45725408672638 337.8787878787879,50.322707108394354 342.92929292929296,50.322707108394354 347.979797979798,50.242790451398946 353.03030303030306,50.242790451398946 358.0808080808081,50.322707108394354 363.13131313131316,50.2917819347075 368.1818181818182,50.21186527771215 373.23232323232327,50.242790451398946 378.2828282828283,50.242790451398946 383.3333333333333,50.322707108394354 388.3838383838384,50.242790451398946 393.4343434343434,50.242790451398946 398.4848484848485,50.242790451398946 403.5353535353535,50.242790451398946 408.58585858585855,50.242790451398946 413.6363636363636,50.15608650496256 418.68686868686865,50.15608650496256 423.73737373737373,50.16622176767953 428.7878787878788,50.15608650496256 433.83838383838383,50.05583667014065 438.8888888888889,50.06597193285762 443.93939393939394,50.076169847967265 448.989898989899,50.076169847967265 454.04040404040404,50.06597193285762 459.0909090909091,50.03046844054347 464.14141414141415,50.0203331778265 469.19191919191917,50.0 474.24242424242425,50.03046844054347 479.2929292929293,50.03046844054347 484.34343434343435,50.07452786387779 489.3939393939394,50.05583667014065 494.4444444444444,50.03046844054347 499.4949494949495,50.03046844054347 504.5454545454545,50.0542602004146 509.59595959595964,50.0203331778265 514.6464646464647,50.03046844054347 519.6969696969697,50.0542602004146 524.7474747474748,50.0203331778265 529.7979797979798,50.0203331778265 534.8484848484849,50.0203331778265 539.8989898989898,50.0203331778265 544.9494949494949,50.0542602004146 550.0,50.0203331778265" fill="none" stroke="rgb(0,255,0)" stroke-width="1"/><circle cx="50.0" cy="55.08724768005811" r="2" fill="rgb(0,255,0)"/><circle cx="55.05050505050505" cy="55.74343231649436" r="2" fill="rgb(0,255,0)"/><circle cx="60.101010101010104" cy="55.39620586118929" r="2" fill="rgb(0,255,0)"/><circle cx="65.15151515151516" cy="55.8128779420191" r="2" fill="rgb(0,255,0)"/><circle cx="70.20202020202021" cy="55.467222991700396" r="2" fill="rgb(0,255,0)"/><circle cx="75.25252525252526" cy="55.13645587124972" r="2" fill="rgb(0,255,0)"/><circle cx="80.30303030303031" cy="53.59537612272857" r="2" fill="rgb(0,255,0)"/><circle cx="85.35353535353535" cy="53.46255631108875" r="2" fill="rgb(0,255,0)"/><circle cx="90.40404040404042" cy="53.94725740835622" r="2" fill="rgb(0,255,0)"/><circle cx="95.45454545454545" cy="54.273061857157984" r="2" fill="rgb(0,255,0)"/><circle cx="100.5050505050505" cy="52.683963863565964" r="2" fill="rgb(0,255,0)"/><circle cx="105.55555555555554" cy="53.74515816688978" r="2" fill="rgb(0,255,0)"/><circle cx="110.60606060606061" cy="53.142330797514944" r="2" fill="rgb(0,255,0)"/><circle cx="115.65656565656566" cy="51.9140202576894" r="2" fill="rgb(0,255,0)"/><circle cx="120.7070707070707" cy="51.622745528915345" r="2" fill="rgb(0,255,0)"/><circle cx="125.75757575757576" cy="51.05466275872902" r="2" fill="rgb(0,255,0)"/><circle cx="130.80808080808083" cy="52.01861342975246" r="2" fill="rgb(0,255,0)"/><circle cx="135.85858585858585" cy="52.84274770741763" r="2" fill="rgb(0,255,0)"/><circle cx="140.9090909090909" cy="52.43222340584737" r="2" fill="rgb(0,255,0)"/><circle cx="145.95959595959596" cy="52.47999796527273" r="2" fill="rgb(0,255,0)"/><circle cx="151.010101010101" cy="52.751125878224684" r="2" fill="rgb(0,255,0)"/><circle cx="156.06060606060606" cy="51.72648439665335" r="2" fill="rgb(0,255,0)"/><circle cx="161.1111111111111" cy="52.271274250012084" r="2" fill="rgb(0,255,0)"/><circle cx="166.16161616161617" cy="52.695966667152675" r="2" fill="rgb(0,255,0)"/><circle cx="171.21212121212122" cy="51.4661020552619" r="2" fill="rgb(0,255,0)"/><circle cx="176.26262626262627" cy="51.15590302926148" r="2" fill="rgb(0,255,0)"/><circle cx="181.31313131313132" cy="50.84049266886575" r="2" fill="rgb(0,255,0)"/><circle cx="186.36363636363635" cy="51.01272587734093" r="2" fill="rgb(0,255,0)"/><circle cx="191.4141414141414" cy="50.87861888818054" r="2" fill="rgb(0,255,0)"/><circle cx="196.46464646464648" cy="51.26594614510941" r="2" fill="rgb(0,255,0)"/><circle cx="201.51515151515153" cy="51.01587197430541" r="2" fill="rgb(0,255,0)"/><circle cx="206.56565656565658" cy="50.91253034603852" r="2" fill="rgb(0,255,0)"/><circle cx="211.61616161616163" cy="50.83261368904317" r="2" fill="rgb(0,255,0)"/><circle cx="216.66666666666666" cy="50.78625694381259" r="2" fill="rgb(0,255,0)"/><circle cx="221.7171717171717" cy="50.79057738599266" r="2" fill="rgb(0,255,0)"/><circle cx="226.76767676767676" cy="50.93035834511983" r="2" fill="rgb(0,255,0)"/><circle cx="231.8181818181818" cy="50.606870927245666" r="2" fill="rgb(0,255,0)"/><circle cx="236.86868686868686" cy="50.687235757725716" r="2" fill="rgb(0,255,0)"/><circle cx="241.91919191919192" cy="50.606870927245666" r="2" fill="rgb(0,255,0)"/><circle cx="246.96969696969697" cy="50.606870927245666" r="2" fill="rgb(0,255,0)"/><circle cx="252.02020202020202" cy="50.75101415625164" r="2" fill="rgb(0,255,0)"/><circle cx="257.07070707070704" cy="50.687235757725716" r="2" fill="rgb(0,255,0)"/><circle cx="262.1212121212121" cy="50.687235757725716" r="2" fill="rgb(0,255,0)"/><circle cx="267.1717171717172" cy="50.606870927245666" r="2" fill="rgb(0,255,0)"/><circle cx="272.2222222222222" cy="50.606870927245666" r="2" fill="rgb(0,255,0)"/><circle cx="277.27272727272725" cy="50.606870927245666" r="2" fill="rgb(0,255,0)"/><circle cx="282.32323232323233" cy="50.606870927245666" r="2" fill="rgb(0,255,0)"/><circle cx="287.3737373737374" cy="50.581178317603076" r="2" fill="rgb(0,255,0)"/><circle cx="292.42424242424244" cy="50.45725408672638" r="2" fill="rgb(0,255,0)"/><circle cx="297.47474747474746" cy="50.45725408672638" r="2" fill="rgb(0,255,0)"/><circle cx="302.52525252525254" cy="50.606870927245666" r="2" fill="rgb(0,255,0)"/><circle cx="307.57575757575756" cy="50.47530780648941" r="2" fill="rgb(0,255,0)"/><circle cx="312.62626262626264" cy="50.375422980538985" r="2" fill="rgb(0,255,0)"/><circle cx="317.67676767676767" cy="50.37730765222756" r="2" fill="rgb(0,255,0)"/><circle cx="322.7272727272727" cy="50.45725408672638" r="2" fill="rgb(0,255,0)"/><circle cx="327.77777777777777" cy="50.49969530705323" r="2" fill="rgb(0,255,0)"/><circle cx="332.8282828282828" cy="50.45725408672638" r="2" fill="rgb(0,255,0)"/><circle cx="337.8787878787879" cy="50.322707108394354" r="2" fill="rgb(0,255,0)"/><circle cx="342.92929292929296" cy="50.322707108394354" r="2" fill="rgb(0,255,0)"/><circle cx="347.979797979798" cy="50.242790451398946" r="2" fill="rgb(0,255,0)"/><circle cx="353.03030303030306" cy="50.242790451398946" r="2" fill="rgb(0,255,0)"/><circle cx="358.0808080808081" cy="50.322707108394354" r="2" fill="rgb(0,255,0)"/><circle cx="363.13131313131316" cy="50.2917819347075" r="2" fill="rgb(0,255,0)"/><circle cx="368.1818181818182" cy="50.21186527771215" r="2" fill="rgb(0,255,0)"/><circle cx="373.23232323232327" cy="50.242790451398946" r="2" fill="rgb(0,255,0)"/><circle cx="378.2828282828283" cy="50.242790451398946" r="2" fill="rgb(0,255,0)"/><circle cx="383.3333333333333" cy="50.322707108394354" r="2" fill="rgb(0,255,0)"/><circle cx="388.3838383838384" cy="50.242790451398946" r="2" fill="rgb(0,255,0)"/><circle cx="393.4343434343434" cy="50.242790451398946" r="2" fill="rgb(0,255,0)"/><circle cx="398.4848484848485" cy="50.242790451398946" r="2" fill="rgb(0,255,0)"/><circle cx="403.5353535353535" cy="50.242790451398946" r="2" fill="rgb(0,255,0)"/><circle cx="408.58585858585855" cy="50.242790451398946" r="2" fill="rgb(0,255,0)"/><circle cx="413.6363636363636" cy="50.15608650496256" r="2" fill="rgb(0,255,0)"/><circle cx="418.68686868686865" cy="50.15608650496256" r="2" fill="rgb(0,255,0)"/><circle cx="423.73737373737373" cy="50.16622176767953" r="2" fill="rgb(0,255,0)"/><circle cx="428.7878787878788" cy="50.15608650496256" r="2" fill="rgb(0,255,0)"/><circle cx="433.83838383838383" cy="50.05583667014065" r="2" fill="rgb(0,255,0)"/><circle cx="438.8888888888889" cy="50.06597193285762" r="2" fill="rgb(0,255,0)"/><circle cx="443.93939393939394" cy="50.076169847967265" r="2" fill="rgb(0,255,0)"/><circle cx="448.989898989899" cy="50.076169847967265" r="2" fill="rgb(0,255,0)"/><circle cx="454.04040404040404" cy="50.06597193285762" r="2" fill="rgb(0,255,0)"/><circle cx="459.0909090909091" cy="50.03046844054347" r="2" fill="rgb(0,255,0)"/><circle cx="464.14141414141415" cy="50.0203331778265" r="2" fill="rgb(0,255,0)"/><circle cx="469.19191919191917" cy="50.0" r="2" fill="rgb(0,255,0)"/><circle cx="474.24242424242425" cy="50.03046844054347" r="2" fill="rgb(0,255,0)"/><circle cx="479.2929292929293" cy="50.03046844054347" r="2" fill="rgb(0,255,0)"/><circle cx="484.34343434343435" cy="50.07452786387779" r="2" fill="rgb(0,255,0)"/><circle cx="489.3939393939394" cy="50.05583667014065" r="2" fill="rgb(0,255,0)"/><circle cx="494.4444444444444" cy="50.03046844054347" r="2" fill="rgb(0,255,0)"/><circle cx="499.4949494949495" cy="50.03046844054347" r="2" fill="rgb(0,255,0)"/><circle cx="504.5454545454545" cy="50.0542602004146" r="2" fill="rgb(0,255,0)"/><circle cx="509.59595959595964" cy="50.0203331778265" r="2" fill="rgb(0,255,0)"/><circle cx="514.6464646464647" cy="50.03046844054347" r="2" fill="rgb(0,255,0)"/><circle cx="519.6969696969697" cy="50.0542602004146" r="2" fill="rgb(0,255,0)"/><circle cx="524.7474747474748" cy="50.0203331778265" r="2" fill="rgb(0,255,0)"/><circle cx="529.7979797979798" cy="50.0203331778265" r="2" fill="rgb(0,255,0)"/><circle cx="534.8484848484849" cy="50.0203331778265" r="2" fill="rgb(0,255,0)"/><circle cx="539.8989898989898" cy="50.0203331778265" r="2" fill="rgb(0,255,0)"/><circle cx="544.9494949494949" cy="50.0542602004146" r="2" fill="rgb(0,255,0)"/><circle cx="550.0" cy="50.0203331778265" r="2" fill="rgb(0,255,0)"/><text x="350.0" y="20.0" text-anchor="middle" fill="rgb(0,0,0)" font-size="20.0">GA Demo</text><text x="350.0" y="575.0" text-anchor="middle" fill="rgb(0,0,0)" font-size="12.0">generation</text><text transform="rotate(-90.0 20.0 300.0)" x="20.0" y="300.0" text-anchor="middle" fill="rgb(0,0,0)" font-size="12.0">fitness</text><text x="620" y="62" fill="rgb(0,0,0)" font-size="12">min</text><text x="620" y="74" fill="rgb(0,0,255)" font-size="12">ave</text><text x="620" y="86" fill="rgb(0,255,0)" font-size="12">max</text>
      Sorry, your browser does not support inline SVG.
    </svg>