<?xml version='1.0' encoding='UTF-8'?>
<svg version="1.1" width="700.0" height="600.0" onload="init(evt)" xmlns="http://www.w3.org/2000/svg">
      <style>.caption {
  font-size: 14px;
  font-family: Georgia, serif;
}
</style>
      <script type="text/ecmascript"><![CDATA[
function init(evt) {
  if ( window.svgDocument == null ) {
    svgDocument = evt.target.ownerDocument;
  }
}

function RectHover(evt, i, c) {
  rect = svgDocument.getElementById('rect' + i);
  if( c != null ) {
    rect.setAttributeNS(null, "fill", c)  
  }
  tooltiptext = svgDocument.getElementById('tooltiptext' + i);
  tooltipbg = svgDocument.getElementById('tooltipbg' + i);
  if( tooltipbg != null) {
    tbb = tooltiptext.getBBox();
    tooltipbg.setAttributeNS(null, "width", tbb.width);
    tooltipbg.setAttributeNS(null, "height", tbb.height);
    tooltipbg.setAttributeNS(null, "x", tbb.x);
    tooltipbg.setAttributeNS(null, "y", tbb.y);
    tooltipbg.setAttributeNS(null, "visibility", "visible");
  }
  tooltiptext.setAttributeNS(null,"visibility","visible");
}

function RectUnhover(evt, i, c) {
  rect = svgDocument.getElementById('rect' + i);
  if( c != null ) {
    rect.setAttributeNS(null, "fill", c)  
  }
  tooltiptext = svgDocument.getElementById('tooltiptext' + i);
  tooltiptext.setAttributeNS(null,"visibility","hidden");
  tooltipbg = svgDocument.getElementById('tooltipbg' + i);
  if( tooltipbg != null ) {
    tooltipbg.setAttributeNS(null,"visibility","hidden");
  }
}
]]></script>
      <line x1="50.0" y1="550.0" x2="550.0" y2="550.0" stroke="rgb(0,0,0)" stroke-width="1"/><line x1="50.0" y1="550.0" x2="50.0" y2="50.0" stroke="rgb(0,0,0)" stroke-width="1"/><line x1="50.0" y1="550.0" x2="50.0" y2="50.0" stroke="rgb(192,192,192)" stroke-width="1"/><line x1="50.0" y1="548.0" x2="50.0" y2="552.0" stroke="rgb(192,192,192)" stroke-width="1"/><text text-anchor="middle" alignment-baseline="hanging" x="50.0" y="553.0" font-size="12.0">0</text><line x1="100.5050505050505" y1="550.0" x2="100.5050505050505" y2="50.0" stroke="rgb(192,192,192)" stroke-width="1"/><line x1="100.5050505050505" y1="548.0" x2="100.5050505050505" y2="552.0" stroke="rgb(192,192,192)" stroke-width="1"/><text text-anchor="middle" alignment-baseline="hanging" x="100.5050505050505" y="553.0" font-size="12.0">10</text><line x1="151.010101010101" y1="550.0" x2="151.010101010101" y2="50.0" stroke="rgb(192,192,192)" stroke-width="1"/><line x1="151.010101010101" y1="548.0" x2="151.010101010101" y2="552.0" stroke="rgb(192,192,192)" stroke-width="1"/><text text-anchor="middle" alignment-baseline="hanging" x="151.010101010101" y="553.0" font-size="12.0">20</text><line x1="201.51515151515153" y1="550.0" x2="201.51515151515153" y2="50.0" stroke="rgb(192,192,192)" stroke-width="1"/><line x1="201.51515151515153" y1="548.0" x2="201.51515151515153" y2="552.0" stroke="rgb(192,192,192)" stroke-width="1"/><text text-anchor="middle" alignment-baseline="hanging" x="201.51515151515153" y="553.0" font-size="12.0">30</text><line x1="252.02020202020202" y1="550.0" x2="252.02020202020202" y2="50.0" stroke="rgb(192,192,192)" stroke-width="1"/><line x1="252.02020202020202" y1="548.0" x2="252.02020202020202" y2="552.0" stroke="rgb(192,192,192)" stroke-width="1"/><text text-anchor="middle" alignment-baseline="hanging" x="252.02020202020202" y="553.0" font-size="12.0">40</text><line x1="302.52525252525254" y1="550.0" x2="302.52525252525254" y2="50.0" stroke="rgb(192,192,192)" stroke-width="1"/><line x1="302.52525252525254" y1="548.0" x2="302.52525252525254" y2="552.0" stroke="rgb(192,192,192)" stroke-width="1"/><text text-anchor="middle" alignment-baseline="hanging" x="302.52525252525254" y="553.0" font-size="12.0">50</text><line x1="353.03030303030306" y1="550.0" x2="353.03030303030306" y2="50.0" stroke="rgb(192,192,192)" stroke-width="1"/><line x1="353.03030303030306" y1="548.0" x2="353.03030303030306" y2="552.0" stroke="rgb(192,192,192)" stroke-width="1"/><text text-anchor="middle" alignment-baseline="hanging" x="353.03030303030306" y="553.0" font-size="12.0">60</text><line x1="403.5353535353535" y1="550.0" x2="403.5353535353535" y2="50.0" stroke="rgb(192,192,192)" stroke-width="1"/><line x1="403.5353535353535" y1="548.0" x2="403.5353535353535" y2="552.0" stroke="rgb(192,192,192)" stroke-width="1"/><text text-anchor="middle" alignment-baseline="hanging" x="403.5353535353535" y="553.0" font-size="12.0">70</text><line x1="454.04040404040404" y1="550.0" x2="454.04040404040404" y2="50.0" stroke="rgb(192,192,192)" stroke-width="1"/><line x1="454.04040404040404" y1="548.0" x2="454.04040404040404" y2="552.0" stroke="rgb(192,192,192)" stroke-width="1"/><text text-anchor="middle" alignment-baseline="hanging" x="454.04040404040404" y="553.0" font-size="12.0">80</text><line x1="504.5454545454545" y1="550.0" x2="504.5454545454545" y2="50.0" stroke="rgb(192,192,192)" stroke-width="1"/><line x1="504.5454545454545" y1="548.0" x2="504.5454545454545" y2="552.0" stroke="rgb(192,192,192)" stroke-width="1"/><text text-anchor="middle" alignment-baseline="hanging" x="504.5454545454545" y="553.0" font-size="12.0">90</text><line x1="50.0" y1="550.0" x2="550.0" y2="550.0" stroke="rgb(192,192,192)" stroke-width="1"/><text text-anchor="end" alignment-baseline="middle" x="45.0" y="550.0" font-size="12.0">0.0</text><line x1="48.0" y1="550.0" x2="52.0" y2="550.0" stroke="rgb(192,192,192)" stroke-width="1"/><line x1="50.0" y1="367.8368477861177" x2="550.0" y2="367.8368477861177" stroke="rgb(192,192,192)" stroke-width="1"/><text text-anchor="end" alignment-baseline="middle" x="45.0" y="367.8368477861177" font-size="12.0">1000.0</text><line x1="48.0" y1="367.8368477861177" x2="52.0" y2="367.8368477861177" stroke="rgb(192,192,192)" stroke-width="1"/><line x1="50.0" y1="185.67369557223543" x2="550.0" y2="185.67369557223543" stroke="rgb(192,192,192)" stroke-width="1"/><text text-anchor="end" alignment-baseline="middle" x="45.0" y="185.67369557223543" font-size="12.0">2000.0</text><line x1="48.0" y1="185.67369557223543" x2="52.0" y2="185.67369557223543" stroke="rgb(192,192,192)" stroke-width="1"/><polyline points="50.0,428.43983291437655 55.05050505050505,430.30574620065676 60.101010101010104,428.52249499074446 65.15151515151516,390.01071352917506 70.20202020202021,382.20210948753635 75.25252525252526,365.4124932387437 80.30303030303031,355.99202373300955 85.35353535353535,436.30533054277487 90.40404040404042,418.7964494323229 95.45454545454545,417.79769308643324 100.5050505050505,417.4997758937142 105.55555555555554,416.89129585880596 110.60606060606061,416.79619486084323 115.65656565656566,349.1393466078982 120.7070707070707,374.3997302102075 125.75757575757576,381.7070217982027 130.80808080808083,389.84946471517503 135.85858585858585,241.53102994912706 140.9090909090909,221.8644588710194 145.95959595959596,413.87637611268667 151.010101010101,349.8558047833402 156.06060606060606,350.1527433953821 161.1111111111111,400.28208527622166 166.16161616161617,398.79603439911125 171.21212121212122,403.36607910456365 176.26262626262627,404.969777189729 181.31313131313132,403.4479210877808 186.36363636363635,388.1142787471597 191.4141414141414,361.9759366553432 196.46464646464648,390.07346902782655 201.51515151515153,364.27344126284345 206.56565656565658,377.37293699123165 211.61616161616163,210.05402290470755 216.66666666666666,408.37958370606 221.7171717171717,409.83233252779974 226.76767676767676,409.7269716932609 231.8181818181818,410.8152383416913 236.86868686868686,358.2179034175671 241.91919191919192,373.3834705349716 246.96969696969697,343.21476381869775 252.02020202020202,352.41872344482465 257.07070707070704,352.390717272708 262.1212121212121,367.2123918828945 267.1717171717172,407.68966804081913 272.2222222222222,303.1161706367716 277.27272727272725,403.5141103824138 282.32323232323233,287.09893040383935 287.3737373737374,71.32308654319502 292.42424242424244,271.78407701164554 297.47474747474746,408.9607219789788 302.52525252525254,409.0454203582932 307.57575757575756,186.27759289224986 312.62626262626264,387.07830295260385 317.67676767676767,151.41972045909375 322.7272727272727,224.09151528853897 327.77777777777777,306.830710978095 332.8282828282828,367.12724290060686 337.8787878787879,405.44191568607835 342.92929292929296,317.8222490626671 347.979797979798,381.16228616110664 353.03030303030306,375.4847032155775 358.0808080808081,255.06159482089225 363.13131313131316,355.22812233388663 368.1818181818182,354.6796701167066 373.23232323232327,354.6796701167066 378.2828282828283,414.8837614510861 383.3333333333333,403.30483014294197 388.3838383838384,372.75393895836294 393.4343434343434,373.7382252243949 398.4848484848485,373.7366297846968 403.5353535353535,373.3380618775603 408.58585858585855,174.16785804901434 413.6363636363636,397.20553376112224 418.68686868686865,341.1722175930342 423.73737373737373,356.2381562509705 428.7878787878788,356.279950113431 433.83838383838383,302.30877668997016 438.8888888888889,302.1982227840821 443.93939393939394,302.10157070982825 448.989898989899,389.0339255738844 454.04040404040404,389.0339255738844 459.0909090909091,389.0301726191664 464.14141414141415,396.32076079400576 469.19191919191917,389.17704738012145 474.24242424242425,338.3390660772254 479.2929292929293,293.0675909621449 484.34343434343435,186.27545677621555 489.3939393939394,264.73601859108743 494.4444444444444,144.42482557602733 499.4949494949495,143.83978531234277 504.5454545454545,290.8150984306141 509.59595959595964,390.5572229888551 514.6464646464647,321.99959031168726 519.6969696969697,321.99959031168726 524.7474747474748,387.8234304132593 529.7979797979798,322.6355314634533 534.8484848484849,241.5427801808151 539.8989898989898,288.31087004953775 544.9494949494949,396.6096148755441 550.0,125.12024641286303" fill="none" stroke="rgb(0,0,0)" stroke-width="1"/><circle cx="50.0" cy="428.43983291437655" r="2" fill="rgb(0,0,0)"/><circle cx="55.05050505050505" cy="430.30574620065676" r="2" fill="rgb(0,0,0)"/><circle cx="60.101010101010104" cy="428.52249499074446" r="2" fill="rgb(0,0,0)"/><circle cx="65.15151515151516" cy="390.01071352917506" r="2" fill="rgb(0,0,0)"/><circle cx="70.20202020202021" cy="382.20210948753635" r="2" fill="rgb(0,0,0)"/><circle cx="75.25252525252526" cy="365.4124932387437" r="2" fill="rgb(0,0,0)"/><circle cx="80.30303030303031" cy="355.99202373300955" r="2" fill="rgb(0,0,0)"/><circle cx="85.35353535353535" cy="436.30533054277487" r="2" fill="rgb(0,0,0)"/><circle cx="90.40404040404042" cy="418.7964494323229" r="2" fill="rgb(0,0,0)"/><circle cx="95.45454545454545" cy="417.79769308643324" r="2" fill="rgb(0,0,0)"/><circle cx="100.5050505050505" cy="417.4997758937142" r="2" fill="rgb(0,0,0)"/><circle cx="105.55555555555554" cy="416.89129585880596" r="2" fill="rgb(0,0,0)"/><circle cx="110.60606060606061" cy="416.79619486084323" r="2" fill="rgb(0,0,0)"/><circle cx="115.65656565656566" cy="349.1393466078982" r="2" fill="rgb(0,0,0)"/><circle cx="120.7070707070707" cy="374.3997302102075" r="2" fill="rgb(0,0,0)"/><circle cx="125.75757575757576" cy="381.7070217982027" r="2" fill="rgb(0,0,0)"/><circle cx="130.80808080808083" cy="389.84946471517503" r="2" fill="rgb(0,0,0)"/><circle cx="135.85858585858585" cy="241.53102994912706" r="2" fill="rgb(0,0,0)"/><circle cx="140.9090909090909" cy="221.8644588710194" r="2" fill="rgb(0,0,0)"/><circle cx="145.95959595959596" cy="413.87637611268667" r="2" fill="rgb(0,0,0)"/><circle cx="151.010101010101" cy="349.8558047833402" r="2" fill="rgb(0,0,0)"/><circle cx="156.06060606060606" cy="350.1527433953821" r="2" fill="rgb(0,0,0)"/><circle cx="161.1111111111111" cy="400.28208527622166" r="2" fill="rgb(0,0,0)"/><circle cx="166.16161616161617" cy="398.79603439911125" r="2" fill="rgb(0,0,0)"/><circle cx="171.21212121212122" cy="403.36607910456365" r="2" fill="rgb(0,0,0)"/><circle cx="176.26262626262627" cy="404.969777189729" r="2" fill="rgb(0,0,0)"/><circle cx="181.31313131313132" cy="403.4479210877808" r="2" fill="rgb(0,0,0)"/><circle cx="186.36363636363635" cy="388.1142787471597" r="2" fill="rgb(0,0,0)"/><circle cx="191.4141414141414" cy="361.9759366553432" r="2" fill="rgb(0,0,0)"/><circle cx="196.46464646464648" cy="390.07346902782655" r="2" fill="rgb(0,0,0)"/><circle cx="201.51515151515153" cy="364.27344126284345" r="2" fill="rgb(0,0,0)"/><circle cx="206.56565656565658" cy="377.37293699123165" r="2" fill="rgb(0,0,0)"/><circle cx="211.61616161616163" cy="210.05402290470755" r="2" fill="rgb(0,0,0)"/><circle cx="216.66666666666666" cy="408.37958370606" r="2" fill="rgb(0,0,0)"/><circle cx="221.7171717171717" cy="409.83233252779974" r="2" fill="rgb(0,0,0)"/><circle cx="226.76767676767676" cy="409.7269716932609" r="2" fill="rgb(0,0,0)"/><circle cx="231.8181818181818" cy="410.8152383416913" r="2" fill="rgb(0,0,0)"/><circle cx="236.86868686868686" cy="358.2179034175671" r="2" fill="rgb(0,0,0)"/><circle cx="241.91919191919192" cy="373.3834705349716" r="2" fill="rgb(0,0,0)"/><circle cx="246.96969696969697" cy="343.21476381869775" r="2" fill="rgb(0,0,0)"/><circle cx="252.02020202020202" cy="352.41872344482465" r="2" fill="rgb(0,0,0)"/><circle cx="257.07070707070704" cy="352.390717272708" r="2" fill="rgb(0,0,0)"/><circle cx="262.1212121212121" cy="367.2123918828945" r="2" fill="rgb(0,0,0)"/><circle cx="267.1717171717172" cy="407.68966804081913" r="2" fill="rgb(0,0,0)"/><circle cx="272.2222222222222" cy="303.1161706367716" r="2" fill="rgb(0,0,0)"/><circle cx="277.27272727272725" cy="403.5141103824138" r="2" fill="rgb(0,0,0)"/><circle cx="282.32323232323233" cy="287.09893040383935" r="2" fill="rgb(0,0,0)"/><circle cx="287.3737373737374" cy="71.32308654319502" r="2" fill="rgb(0,0,0)"/><circle cx="292.42424242424244" cy="271.78407701164554" r="2" fill="rgb(0,0,0)"/><circle cx="297.47474747474746" cy="408.9607219789788" r="2" fill="rgb(0,0,0)"/><circle cx="302.52525252525254" cy="409.0454203582932" r="2" fill="rgb(0,0,0)"/><circle cx="307.57575757575756" cy="186.27759289224986" r="2" fill="rgb(0,0,0)"/><circle cx="312.62626262626264" cy="387.07830295260385" r="2" fill="rgb(0,0,0)"/><circle cx="317.67676767676767" cy="151.41972045909375" r="2" fill="rgb(0,0,0)"/><circle cx="322.7272727272727" cy="224.09151528853897" r="2" fill="rgb(0,0,0)"/><circle cx="327.77777777777777" cy="306.830710978095" r="2" fill="rgb(0,0,0)"/><circle cx="332.8282828282828" cy="367.12724290060686" r="2" fill="rgb(0,0,0)"/><circle cx="337.8787878787879" cy="405.44191568607835" r="2" fill="rgb(0,0,0)"/><circle cx="342.92929292929296" cy="317.8222490626671" r="2" fill="rgb(0,0,0)"/><circle cx="347.979797979798" cy="381.16228616110664" r="2" fill="rgb(0,0,0)"/><circle cx="353.03030303030306" cy="375.4847032155775" r="2" fill="rgb(0,0,0)"/><circle cx="358.0808080808081" cy="255.06159482089225" r="2" fill="rgb(0,0,0)"/><circle cx="363.13131313131316" cy="355.22812233388663" r="2" fill="rgb(0,0,0)"/><circle cx="368.1818181818182" cy="354.6796701167066" r="2" fill="rgb(0,0,0)"/><circle cx="373.23232323232327" cy="354.6796701167066" r="2" fill="rgb(0,0,0)"/><circle cx="378.2828282828283" cy="414.8837614510861" r="2" fill="rgb(0,0,0)"/><circle cx="383.3333333333333" cy="403.30483014294197" r="2" fill="rgb(0,0,0)"/><circle cx="388.3838383838384" cy="372.75393895836294" r="2" fill="rgb(0,0,0)"/><circle cx="393.4343434343434" cy="373.7382252243949" r="2" fill="rgb(0,0,0)"/><circle cx="398.4848484848485" cy="373.7366297846968" r="2" fill="rgb(0,0,0)"/><circle cx="403.5353535353535" cy="373.3380618775603" r="2" fill="rgb(0,0,0)"/><circle cx="408.58585858585855" cy="174.16785804901434" r="2" fill="rgb(0,0,0)"/><circle cx="413.6363636363636" cy="397.20553376112224" r="2" fill="rgb(0,0,0)"/><circle cx="418.68686868686865" cy="341.1722175930342" r="2" fill="rgb(0,0,0)"/><circle cx="423.73737373737373" cy="356.2381562509705" r="2" fill="rgb(0,0,0)"/><circle cx="428.7878787878788" cy="356.279950113431" r="2" fill="rgb(0,0,0)"/><circle cx="433.83838383838383" cy="302.30877668997016" r="2" fill="rgb(0,0,0)"/><circle cx="438.8888888888889" cy="302.1982227840821" r="2" fill="rgb(0,0,0)"/><circle cx="443.93939393939394" cy="302.10157070982825" r="2" fill="rgb(0,0,0)"/><circle cx="448.989898989899" cy="389.0339255738844" r="2" fill="rgb(0,0,0)"/><circle cx="454.04040404040404" cy="389.0339255738844" r="2" fill="rgb(0,0,0)"/><circle cx="459.0909090909091" cy="389.0301726191664" r="2" fill="rgb(0,0,0)"/><circle cx="464.14141414141415" cy="396.32076079400576" r="2" fill="rgb(0,0,0)"/><circle cx="469.19191919191917" cy="389.17704738012145" r="2" fill="rgb(0,0,0)"/><circle cx="474.24242424242425" cy="338.3390660772254" r="2" fill="rgb(0,0,0)"/><circle cx="479.2929292929293" cy="293.0675909621449" r="2" fill="rgb(0,0,0)"/><circle cx="484.34343434343435" cy="186.27545677621555" r="2" fill="rgb(0,0,0)"/><circle cx="489.3939393939394" cy="264.73601859108743" r="2" fill="rgb(0,0,0)"/><circle cx="494.4444444444444" cy="144.42482557602733" r="2" fill="rgb(0,0,0)"/><circle cx="499.4949494949495" cy="143.83978531234277" r="2" fill="rgb(0,0,0)"/><circle cx="504.5454545454545" cy="290.8150984306141" r="2" fill="rgb(0,0,0)"/><circle cx="509.59595959595964" cy="390.5572229888551" r="2" fill="rgb(0,0,0)"/><circle cx="514.6464646464647" cy="321.99959031168726" r="2" fill="rgb(0,0,0)"/><circle cx="519.6969696969697" cy="321.99959031168726" r="2" fill="rgb(0,0,0)"/><circle cx="524.7474747474748" cy="387.8234304132593" r="2" fill="rgb(0,0,0)"/><circle cx="529.7979797979798" cy="322.6355314634533" r="2" fill="rgb(0,0,0)"/><circle cx="534.8484848484849" cy="241.5427801808151" r="2" fill="rgb(0,0,0)"/><circle cx="539.8989898989898" cy="288.31087004953775" r="2" fill="rgb(0,0,0)"/><circle cx="544.9494949494949" cy="396.6096148755441" r="2" fill="rgb(0,0,0)"/><circle cx="550.0" cy="125.12024641286303" r="2" fill="rgb(0,0,0)"/><polyline points="50.0,236.3695229139887 55.05050505050505,206.05146236483398 60.101010101010104,177.58148111300295 65.15151515151516,156.71734948613266 70.20202020202021,128.65419380739763 75.25252525252526,123.59061319373467 80.30303030303031,101.77102345627122 85.35353535353535,89.55037060047721 90.40404040404042,74.63681234807524 95.45454545454545,80.01071672540331 100.5050505050505,78.63446015779698 105.55555555555554,76.5368086516853 110.60606060606061,73.88651131286531 115.65656565656566,70.78870872943418 120.7070707070707,68.44249422907069 125.75757575757576,69.81362501243223 130.80808080808083,68.16407309597969 135.85858585858585,65.39489454822353 140.9090909090909,60.56354943034006 145.95959595959596,72.18563241079119 151.010101010101,63.3518654937734 156.06060606060606,66.55869468063565 161.1111111111111,72.45337467626513 166.16161616161617,75.44192236841286 171.21212121212122,77.37728151797637 176.26262626262627,84.61216627344487 181.31313131313132,72.2017083264596 186.36363636363635,68.22280812602236 191.4141414141414,64.09990617749355 196.46464646464648,62.90217550046793 201.51515151515153,58.53325790891739 206.56565656565658,64.37982262766769 211.61616161616163,55.385369331776985 216.66666666666666,58.72706212289194 221.7171717171717,61.21857671398038 226.76767676767676,60.16187433021156 231.8181818181818,62.175736612461606 236.86868686868686,60.17923755823375 241.91919191919192,63.152230696633524 246.96969696969697,60.706909815273434 252.02020202020202,61.58556198998821 257.07070707070704,55.73686925815423 262.1212121212121,62.97781095386085 267.1717171717172,64.91870470014806 272.2222222222222,57.403664540595514 277.27272727272725,57.28638544964127 282.32323232323233,54.882251817620386 287.3737373737374,51.93091409111139 292.42424242424244,57.09981758322169 297.47474747474746,63.424062012318416 302.52525252525254,65.64816453711529 307.57575757575756,53.71716036988596 312.62626262626264,56.092759639875794 317.67676767676767,53.076375098480014 322.7272727272727,55.13354075276567 327.77777777777777,56.56766105664195 332.8282828282828,66.90354034343198 337.8787878787879,70.4506081193411 342.92929292929296,65.54132546643132 347.979797979798,65.71669110121701 353.03030303030306,68.12101356309381 358.0808080808081,63.34481995607024 363.13131313131316,62.164494021781024 368.1818181818182,59.34073127038005 373.23232323232327,63.601119240334185 378.2828282828283,81.11242019437549 383.3333333333333,79.34788091698732 388.3838383838384,72.91325760703467 393.4343434343434,68.65234242761142 398.4848484848485,67.632441018375 403.5353535353535,60.47280669362988 408.58585858585855,54.92157200872481 413.6363636363636,56.24987249607102 418.68686868686865,62.78131453307361 423.73737373737373,66.26289374613145 428.7878787878788,68.15897109879154 433.83838383838383,66.05734012196439 438.8888888888889,70.66374967660761 443.93939393939394,68.98386967134672 448.989898989899,63.11642882699675 454.04040404040404,74.45911494755978 459.0909090909091,78.7818132334504 464.14141414141415,61.22585958062177 469.19191919191917,59.01661969973884 474.24242424242425,61.598096013489624 479.2929292929293,56.513086340578525 484.34343434343435,55.55495592409869 489.3939393939394,57.573610233046224 494.4444444444444,53.95497064532668 499.4949494949495,52.83229850148274 504.5454545454545,56.27141875295467 509.59595959595964,58.95296359508984 514.6464646464647,58.185089314109234 519.6969696969697,63.333626441627416 524.7474747474748,72.55238887943909 529.7979797979798,61.550802702443434 534.8484848484849,54.04596135023638 539.8989898989898,57.37942096129001 544.9494949494949,60.659322915335395 550.0,53.48293091107104" fill="none" stroke="rgb(0,0,255)" stroke-width="1"/><circle cx="50.0" cy="236.3695229139887" r="2" fill="rgb(0,0,255)"/><circle cx="55.05050505050505" cy="206.05146236483398" r="2" fill="rgb(0,0,255)"/><circle cx="60.101010101010104" cy="177.58148111300295" r="2" fill="rgb(0,0,255)"/><circle cx="65.15151515151516" cy="156.71734948613266" r="2" fill="rgb(0,0,255)"/><circle cx="70.20202020202021" cy="128.65419380739763" r="2" fill="rgb(0,0,255)"/><circle cx="75.25252525252526" cy="123.59061319373467" r="2" fill="rgb(0,0,255)"/><circle cx="80.30303030303031" cy="101.77102345627122" r="2" fill="rgb(0,0,255)"/><circle cx="85.35353535353535" cy="89.55037060047721" r="2" fill="rgb(0,0,255)"/><circle cx="90.40404040404042" cy="74.63681234807524" r="2" fill="rgb(0,0,255)"/><circle cx="95.45454545454545" cy="80.01071672540331" r="2" fill="rgb(0,0,255)"/><circle cx="100.5050505050505" cy="78.63446015779698" r="2" fill="rgb(0,0,255)"/><circle cx="105.55555555555554" cy="76.5368086516853" r="2" fill="rgb(0,0,255)"/><circle cx="110.60606060606061" cy="73.88651131286531" r="2" fill="rgb(0,0,255)"/><circle cx="115.65656565656566" cy="70.78870872943418" r="2" fill="rgb(0,0,255)"/><circle cx="120.7070707070707" cy="68.44249422907069" r="2" fill="rgb(0,0,255)"/><circle cx="125.75757575757576" cy="69.81362501243223" r="2" fill="rgb(0,0,255)"/><circle cx="130.80808080808083" cy="68.16407309597969" r="2" fill="rgb(0,0,255)"/><circle cx="135.85858585858585" cy="65.39489454822353" r="2" fill="rgb(0,0,255)"/><circle cx="140.9090909090909" cy="60.56354943034006" r="2" fill="rgb(0,0,255)"/><circle cx="145.95959595959596" cy="72.18563241079119" r="2" fill="rgb(0,0,255)"/><circle cx="151.010101010101" cy="63.3518654937734" r="2" fill="rgb(0,0,255)"/><circle cx="156.06060606060606" cy="66.55869468063565" r="2" fill="rgb(0,0,255)"/><circle cx="161.1111111111111" cy="72.45337467626513" r="2" fill="rgb(0,0,255)"/><circle cx="166.16161616161617" cy="75.44192236841286" r="2" fill="rgb(0,0,255)"/><circle cx="171.21212121212122" cy="77.37728151797637" r="2" fill="rgb(0,0,255)"/><circle cx="176.26262626262627" cy="84.61216627344487" r="2" fill="rgb(0,0,255)"/><circle cx="181.31313131313132" cy="72.2017083264596" r="2" fill="rgb(0,0,255)"/><circle cx="186.36363636363635" cy="68.22280812602236" r="2" fill="rgb(0,0,255)"/><circle cx="191.4141414141414" cy="64.09990617749355" r="2" fill="rgb(0,0,255)"/><circle cx="196.46464646464648" cy="62.90217550046793" r="2" fill="rgb(0,0,255)"/><circle cx="201.51515151515153" cy="58.53325790891739" r="2" fill="rgb(0,0,255)"/><circle cx="206.56565656565658" cy="64.37982262766769" r="2" fill="rgb(0,0,255)"/><circle cx="211.61616161616163" cy="55.385369331776985" r="2" fill="rgb(0,0,255)"/><circle cx="216.66666666666666" cy="58.72706212289194" r="2" fill="rgb(0,0,255)"/><circle cx="221.7171717171717" cy="61.21857671398038" r="2" fill="rgb(0,0,255)"/><circle cx="226.76767676767676" cy="60.16187433021156" r="2" fill="rgb(0,0,255)"/><circle cx="231.8181818181818" cy="62.175736612461606" r="2" fill="rgb(0,0,255)"/><circle cx="236.86868686868686" cy="60.17923755823375" r="2" fill="rgb(0,0,255)"/><circle cx="241.91919191919192" cy="63.152230696633524" r="2" fill="rgb(0,0,255)"/><circle cx="246.96969696969697" cy="60.706909815273434" r="2" fill="rgb(0,0,255)"/><circle cx="252.02020202020202" cy="61.58556198998821" r="2" fill="rgb(0,0,255)"/><circle cx="257.07070707070704" cy="55.73686925815423" r="2" fill="rgb(0,0,255)"/><circle cx="262.1212121212121" cy="62.97781095386085" r="2" fill="rgb(0,0,255)"/><circle cx="267.1717171717172" cy="64.91870470014806" r="2" fill="rgb(0,0,255)"/><circle cx="272.2222222222222" cy="57.403664540595514" r="2" fill="rgb(0,0,255)"/><circle cx="277.27272727272725" cy="57.28638544964127" r="2" fill="rgb(0,0,255)"/><circle cx="282.32323232323233" cy="54.882251817620386" r="2" fill="rgb(0,0,255)"/><circle cx="287.3737373737374" cy="51.93091409111139" r="2" fill="rgb(0,0,255)"/><circle cx="292.42424242424244" cy="57.09981758322169" r="2" fill="rgb(0,0,255)"/><circle cx="297.47474747474746" cy="63.424062012318416" r="2" fill="rgb(0,0,255)"/><circle cx="302.52525252525254" cy="65.64816453711529" r="2" fill="rgb(0,0,255)"/><circle cx="307.57575757575756" cy="53.71716036988596" r="2" fill="rgb(0,0,255)"/><circle cx="312.62626262626264" cy="56.092759639875794" r="2" fill="rgb(0,0,255)"/><circle cx="317.67676767676767" cy="53.076375098480014" r="2" fill="rgb(0,0,255)"/><circle cx="322.7272727272727" cy="55.13354075276567" r="2" fill="rgb(0,0,255)"/><circle cx="327.77777777777777" cy="56.56766105664195" r="2" fill="rgb(0,0,255)"/><circle cx="332.8282828282828" cy="66.90354034343198" r="2" fill="rgb(0,0,255)"/><circle cx="337.8787878787879" cy="70.4506081193411" r="2" fill="rgb(0,0,255)"/><circle cx="342.92929292929296" cy="65.54132546643132" r="2" fill="rgb(0,0,255)"/><circle cx="347.979797979798" cy="65.71669110121701" r="2" fill="rgb(0,0,255)"/><circle cx="353.03030303030306" cy="68.12101356309381" r="2" fill="rgb(0,0,255)"/><circle cx="358.0808080808081" cy="63.34481995607024" r="2" fill="rgb(0,0,255)"/><circle cx="363.13131313131316" cy="62.164494021781024" r="2" fill="rgb(0,0,255)"/><circle cx="368.1818181818182" cy="59.34073127038005" r="2" fill="rgb(0,0,255)"/><circle cx="373.23232323232327" cy="63.601119240334185" r="2" fill="rgb(0,0,255)"/><circle cx="378.2828282828283" cy="81.11242019437549" r="2" fill="rgb(0,0,255)"/><circle cx="383.3333333333333" cy="79.34788091698732" r="2" fill="rgb(0,0,255)"/><circle cx="388.3838383838384" cy="72.91325760703467" r="2" fill="rgb(0,0,255)"/><circle cx="393.4343434343434" cy="68.65234242761142" r="2" fill="rgb(0,0,255)"/><circle cx="398.4848484848485" cy="67.632441018375" r="2" fill="rgb(0,0,255)"/><circle cx="403.5353535353535" cy="60.47280669362988" r="2" fill="rgb(0,0,255)"/><circle cx="408.58585858585855" cy="54.92157200872481" r="2" fill="rgb(0,0,255)"/><circle cx="413.6363636363636" cy="56.24987249607102" r="2" fill="rgb(0,0,255)"/><circle cx="418.68686868686865" cy="62.78131453307361" r="2" fill="rgb(0,0,255)"/><circle cx="423.73737373737373" cy="66.26289374613145" r="2" fill="rgb(0,0,255)"/><circle cx="428.7878787878788" cy="68.15897109879154" r="2" fill="rgb(0,0,255)"/><circle cx="433.83838383838383" cy="66.05734012196439" r="2" fill="rgb(0,0,255)"/><circle cx="438.8888888888889" cy="70.66374967660761" r="2" fill="rgb(0,0,255)"/><circle cx="443.93939393939394" cy="68.98386967134672" r="2" fill="rgb(0,0,255)"/><circle cx="448.989898989899" cy="63.11642882699675" r="2" fill="rgb(0,0,255)"/><circle cx="454.04040404040404" cy="74.45911494755978" r="2" fill="rgb(0,0,255)"/><circle cx="459.0909090909091" cy="78.7818132334504" r="2" fill="rgb(0,0,255)"/><circle cx="464.14141414141415" cy="61.22585958062177" r="2" fill="rgb(0,0,255)"/><circle cx="469.19191919191917" cy="59.01661969973884" r="2" fill="rgb(0,0,255)"/><circle cx="474.24242424242425" cy="61.598096013489624" r="2" fill="rgb(0,0,255)"/><circle cx="479.2929292929293" cy="56.513086340578525" r="2" fill="rgb(0,0,255)"/><circle cx="484.34343434343435" cy="55.55495592409869" r="2" fill="rgb(0,0,255)"/><circle cx="489.3939393939394" cy="57.573610233046224" r="2" fill="rgb(0,0,255)"/><circle cx="494.4444444444444" cy="53.95497064532668" r="2" fill="rgb(0,0,255)"/><circle cx="499.4949494949495" cy="52.83229850148274" r="2" fill="rgb(0,0,255)"/><circle cx="504.5454545454545" cy="56.27141875295467" r="2" fill="rgb(0,0,255)"/><circle cx="509.59595959595964" cy="58.95296359508984" r="2" fill="rgb(0,0,255)"/><circle cx="514.6464646464647" cy="58.185089314109234" r="2" fill="rgb(0,0,255)"/><circle cx="519.6969696969697" cy="63.333626441627416" r="2" fill="rgb(0,0,255)"/><circle cx="524.7474747474748" cy="72.55238887943909" r="2" fill="rgb(0,0,255)"/><circle cx="529.7979797979798" cy="61.550802702443434" r="2" fill="rgb(0,0,255)"/><circle cx="534.8484848484849" cy="54.04596135023638" r="2" fill="rgb(0,0,255)"/><circle cx="539.8989898989898" cy="57.37942096129001" r="2" fill="rgb(0,0,255)"/><circle cx="544.9494949494949" cy="60.659322915335395" r="2" fill="rgb(0,0,255)"/><circle cx="550.0" cy="53.48293091107104" r="2" fill="rgb(0,0,255)"/><polyline points="50.0,56.28858712368344 55.05050505050505,55.88254994659144 60.101010101010104,56.31396696482426 65.15151515151516,55.654135305561795 70.20202020202021,55.96436266944937 75.25252525252526,55.33332786757376 80.30303030303031,54.44753588926926 85.35353535353535,54.186653140018564 90.40404040404042,53.54835331444849 95.45454545454545,54.87794628508226 100.5050505050505,53.879140271179665 105.55555555555554,53.142019060401026 110.60606060606061,54.07286387319448 115.65656565656566,54.080400102646536 120.7070707070707,53.95484739800594 125.75757575757576,51.31853845064995 130.80808080808083,51.04298243146866 135.85858585858585,51.63200417462025 140.9090909090909,52.32285343917533 145.95959595959596,51.13811747789117 151.010101010101,52.41021441435407 156.06060606060606,52.25044456388616 161.1111111111111,51.71914103640739 166.16161616161617,52.510770158919456 171.21212121212122,52.505461442421336 176.26262626262627,51.97219828572821 181.31313131313132,50.94405923452604 186.36363636363635,51.52166163812086 191.4141414141414,51.29545349992776 196.46464646464648,50.92214122208594 201.51515151515153,50.77180695273381 206.56565656565658,50.77180695273381 211.61616161616163,51.164925047996576 216.66666666666666,51.18522688249914 221.7171717171717,50.99904102936523 226.76767676767676,50.661855588784704 231.8181818181818,50.31956033291601 236.86868686868686,50.145694431181994 241.91919191919192,50.18473160662995 246.96969696969697,50.36685424411962 252.02020202020202,50.246511934497164 257.07070707070704,50.402420880938166 262.1212121212121,50.164261663965306 267.1717171717172,50.164261663965306 272.2222222222222,50.164261663965306 277.27272727272725,50.14985986024334 282.32323232323233,50.14232363079128 287.3737373737374,50.14985986024334 292.42424242424244,50.28138368088372 297.47474747474746,50.16279357345587 302.52525252525254,50.14232363079128 307.57575757575756,50.14232363079128 312.62626262626264,50.10794599629929 317.67676767676767,50.16150718092206 322.7272727272727,50.14103723825747 327.77777777777777,50.164261663965306 332.8282828282828,50.14232363079128 337.8787878787879,50.08305178634197 342.92929292929296,50.164261663965306 347.979797979798,50.14232363079128 353.03030303030306,50.14985986024334 358.0808080808081,50.164261663965306 363.13131313131316,50.1443174219832 368.1818181818182,50.14985986024334 373.23232323232327,50.16101842325236 378.2828282828283,50.15292339045084 383.3333333333333,50.05808146510708 388.3838383838384,50.05627131619707 393.4343434343434,50.076741258861716 398.4848484848485,50.076741258861716 403.5353535353535,50.090528949205634 408.58585858585855,50.090528949205634 413.6363636363636,50.090528949205634 418.68686868686865,50.076741258861716 423.73737373737373,50.05627131619707 428.7878787878788,50.05627131619707 433.83838383838383,50.164261663965306 438.8888888888889,50.164261663965306 443.93939393939394,50.164261663965306 448.989898989899,50.164261663965306 454.04040404040404,50.164261663965306 459.0909090909091,50.164261663965306 464.14141414141415,50.164261663965306 469.19191919191917,50.080259035605025 474.24242424242425,50.06548669405885 479.2929292929293,50.13894150977882 484.34343434343435,50.072722806153024 489.3939393939394,50.164261663965306 494.4444444444444,50.143005713748266 499.4949494949495,50.12054351481686 504.5454545454545,50.07874965235635 509.59595959595964,50.03556340924439 514.6464646464647,50.10614945137411 519.6969696969697,50.03556340924439 524.7474747474748,50.02802717979233 529.7979797979798,50.10747021847192 534.8484848484849,50.07874965235635 539.8989898989898,50.07874965235635 544.9494949494949,50.07874965235635 550.0,50.0" fill="none" stroke="rgb(0,255,0)" stroke-width="1"/><circle cx="50.0" cy="56.28858712368344" r="2" fill="rgb(0,255,0)"/><circle cx="55.05050505050505" cy="55.88254994659144" r="2" fill="rgb(0,255,0)"/><circle cx="60.101010101010104" cy="56.31396696482426" r="2" fill="rgb(0,255,0)"/><circle cx="65.15151515151516" cy="55.654135305561795" r="2" fill="rgb(0,255,0)"/><circle cx="70.20202020202021" cy="55.96436266944937" r="2" fill="rgb(0,255,0)"/><circle cx="75.25252525252526" cy="55.33332786757376" r="2" fill="rgb(0,255,0)"/><circle cx="80.30303030303031" cy="54.44753588926926" r="2" fill="rgb(0,255,0)"/><circle cx="85.35353535353535" cy="54.186653140018564" r="2" fill="rgb(0,255,0)"/><circle cx="90.40404040404042" cy="53.54835331444849" r="2" fill="rgb(0,255,0)"/><circle cx="95.45454545454545" cy="54.87794628508226" r="2" fill="rgb(0,255,0)"/><circle cx="100.5050505050505" cy="53.879140271179665" r="2" fill="rgb(0,255,0)"/><circle cx="105.55555555555554" cy="53.142019060401026" r="2" fill="rgb(0,255,0)"/><circle cx="110.60606060606061" cy="54.07286387319448" r="2" fill="rgb(0,255,0)"/><circle cx="115.65656565656566" cy="54.080400102646536" r="2" fill="rgb(0,255,0)"/><circle cx="120.7070707070707" cy="53.95484739800594" r="2" fill="rgb(0,255,0)"/><circle cx="125.75757575757576" cy="51.31853845064995" r="2" fill="rgb(0,255,0)"/><circle cx="130.80808080808083" cy="51.04298243146866" r="2" fill="rgb(0,255,0)"/><circle cx="135.85858585858585" cy="51.63200417462025" r="2" fill="rgb(0,255,0)"/><circle cx="140.9090909090909" cy="52.32285343917533" r="2" fill="rgb(0,255,0)"/><circle cx="145.95959595959596" cy="51.13811747789117" r="2" fill="rgb(0,255,0)"/><circle cx="151.010101010101" cy="52.41021441435407" r="2" fill="rgb(0,255,0)"/><circle cx="156.06060606060606" cy="52.25044456388616" r="2" fill="rgb(0,255,0)"/><circle cx="161.1111111111111" cy="51.71914103640739" r="2" fill="rgb(0,255,0)"/><circle cx="166.16161616161617" cy="52.510770158919456" r="2" fill="rgb(0,255,0)"/><circle cx="171.21212121212122" cy="52.505461442421336" r="2" fill="rgb(0,255,0)"/><circle cx="176.26262626262627" cy="51.97219828572821" r="2" fill="rgb(0,255,0)"/><circle cx="181.31313131313132" cy="50.94405923452604" r="2" fill="rgb(0,255,0)"/><circle cx="186.36363636363635" cy="51.52166163812086" r="2" fill="rgb(0,255,0)"/><circle cx="191.4141414141414" cy="51.29545349992776" r="2" fill="rgb(0,255,0)"/><circle cx="196.46464646464648" cy="50.92214122208594" r="2" fill="rgb(0,255,0)"/><circle cx="201.51515151515153" cy="50.77180695273381" r="2" fill="rgb(0,255,0)"/><circle cx="206.56565656565658" cy="50.77180695273381" r="2" fill="rgb(0,255,0)"/><circle cx="211.61616161616163" cy="51.164925047996576" r="2" fill="rgb(0,255,0)"/><circle cx="216.66666666666666" cy="51.18522688249914" r="2" fill="rgb(0,255,0)"/><circle cx="221.7171717171717" cy="50.99904102936523" r="2" fill="rgb(0,255,0)"/><circle cx="226.76767676767676" cy="50.661855588784704" r="2" fill="rgb(0,255,0)"/><circle cx="231.8181818181818" cy="50.31956033291601" r="2" fill="rgb(0,255,0)"/><circle cx="236.86868686868686" cy="50.145694431181994" r="2" fill="rgb(0,255,0)"/><circle cx="241.91919191919192" cy="50.18473160662995" r="2" fill="rgb(0,255,0)"/><circle cx="246.96969696969697" cy="50.36685424411962" r="2" fill="rgb(0,255,0)"/><circle cx="252.02020202020202" cy="50.246511934497164" r="2" fill="rgb(0,255,0)"/><circle cx="257.07070707070704" cy="50.402420880938166" r="2" fill="rgb(0,255,0)"/><circle cx="262.1212121212121" cy="50.164261663965306" r="2" fill="rgb(0,255,0)"/><circle cx="267.1717171717172" cy="50.164261663965306" r="2" fill="rgb(0,255,0)"/><circle cx="272.2222222222222" cy="50.164261663965306" r="2" fill="rgb(0,255,0)"/><circle cx="277.27272727272725" cy="50.14985986024334" r="2" fill="rgb(0,255,0)"/><circle cx="282.32323232323233" cy="50.14232363079128" r="2" fill="rgb(0,255,0)"/><circle cx="287.3737373737374" cy="50.14985986024334" r="2" fill="rgb(0,255,0)"/><circle cx="292.42424242424244" cy="50.28138368088372" r="2" fill="rgb(0,255,0)"/><circle cx="297.47474747474746" cy="50.16279357345587" r="2" fill="rgb(0,255,0)"/><circle cx="302.52525252525254" cy="50.14232363079128" r="2" fill="rgb(0,255,0)"/><circle cx="307.57575757575756" cy="50.14232363079128" r="2" fill="rgb(0,255,0)"/><circle cx="312.62626262626264" cy="50.10794599629929" r="2" fill="rgb(0,255,0)"/><circle cx="317.67676767676767" cy="50.16150718092206" r="2" fill="rgb(0,255,0)"/><circle cx="322.7272727272727" cy="50.14103723825747" r="2" fill="rgb(0,255,0)"/><circle cx="327.77777777777777" cy="50.164261663965306" r="2" fill="rgb(0,255,0)"/><circle cx="332.8282828282828" cy="50.14232363079128" r="2" fill="rgb(0,255,0)"/><circle cx="337.8787878787879" cy="50.08305178634197" r="2" fill="rgb(0,255,0)"/><circle cx="342.92929292929296" cy="50.164261663965306" r="2" fill="rgb(0,255,0)"/><circle cx="347.979797979798" cy="50.14232363079128" r="2" fill="rgb(0,255,0)"/><circle cx="353.03030303030306" cy="50.14985986024334" r="2" fill="rgb(0,255,0)"/><circle cx="358.0808080808081" cy="50.164261663965306" r="2" fill="rgb(0,255,0)"/><circle cx="363.13131313131316" cy="50.1443174219832" r="2" fill="rgb(0,255,0)"/><circle cx="368.1818181818182" cy="50.14985986024334" r="2" fill="rgb(0,255,0)"/><circle cx="373.23232323232327" cy="50.16101842325236" r="2" fill="rgb(0,255,0)"/><circle cx="378.2828282828283" cy="50.15292339045084" r="2" fill="rgb(0,255,0)"/><circle cx="383.3333333333333" cy="50.05808146510708" r="2" fill="rgb(0,255,0)"/><circle cx="388.3838383838384" cy="50.05627131619707" r="2" fill="rgb(0,255,0)"/><circle cx="393.4343434343434" cy="50.076741258861716" r="2" fill="rgb(0,255,0)"/><circle cx="398.4848484848485" cy="50.076741258861716" r="2" fill="rgb(0,255,0)"/><circle cx="403.5353535353535" cy="50.090528949205634" r="2" fill="rgb(0,255,0)"/><circle cx="408.58585858585855" cy="50.090528949205634" r="2" fill="rgb(0,255,0)"/><circle cx="413.6363636363636" cy="50.090528949205634" r="2" fill="rgb(0,255,0)"/><circle cx="418.68686868686865" cy="50.076741258861716" r="2" fill="rgb(0,255,0)"/><circle cx="423.73737373737373" cy="50.05627131619707" r="2" fill="rgb(0,255,0)"/><circle cx="428.7878787878788" cy="50.05627131619707" r="2" fill="rgb(0,255,0)"/><circle cx="433.83838383838383" cy="50.164261663965306" r="2" fill="rgb(0,255,0)"/><circle cx="438.8888888888889" cy="50.164261663965306" r="2" fill="rgb(0,255,0)"/><circle cx="443.93939393939394" cy="50.164261663965306" r="2" fill="rgb(0,255,0)"/><circle cx="448.989898989899" cy="50.164261663965306" r="2" fill="rgb(0,255,0)"/><circle cx="454.04040404040404" cy="50.164261663965306" r="2" fill="rgb(0,255,0)"/><circle cx="459.0909090909091" cy="50.164261663965306" r="2" fill="rgb(0,255,0)"/><circle cx="464.14141414141415" cy="50.164261663965306" r="2" fill="rgb(0,255,0)"/><circle cx="469.19191919191917" cy="50.080259035605025" r="2" fill="rgb(0,255,0)"/><circle cx="474.24242424242425" cy="50.06548669405885" r="2" fill="rgb(0,255,0)"/><circle cx="479.2929292929293" cy="50.13894150977882" r="2" fill="rgb(0,255,0)"/><circle cx="484.34343434343435" cy="50.072722806153024" r="2" fill="rgb(0,255,0)"/><circle cx="489.3939393939394" cy="50.164261663965306" r="2" fill="rgb(0,255,0)"/><circle cx="494.4444444444444" cy="50.143005713748266" r="2" fill="rgb(0,255,0)"/><circle cx="499.4949494949495" cy="50.12054351481686" r="2" fill="rgb(0,255,0)"/><circle cx="504.5454545454545" cy="50.07874965235635" r="2" fill="rgb(0,255,0)"/><circle cx="509.59595959595964" cy="50.03556340924439" r="2" fill="rgb(0,255,0)"/><circle cx="514.6464646464647" cy="50.10614945137411" r="2" fill="rgb(0,255,0)"/><circle cx="519.6969696969697" cy="50.03556340924439" r="2" fill="rgb(0,255,0)"/><circle cx="524.7474747474748" cy="50.02802717979233" r="2" fill="rgb(0,255,0)"/><circle cx="529.7979797979798" cy="50.10747021847192" r="2" fill="rgb(0,255,0)"/><circle cx="534.8484848484849" cy="50.07874965235635" r="2" fill="rgb(0,255,0)"/><circle cx="539.8989898989898" cy="50.07874965235635" r="2" fill="rgb(0,255,0)"/><circle cx="544.9494949494949" cy="50.07874965235635" r="2" fill="rgb(0,255,0)"/><circle cx="550.0" cy="50.0" r="2" fill="rgb(0,255,0)"/><text x="350.0" y="20.0" text-anchor="middle" fill="rgb(0,0,0)" font-size="20.0">GA Demo</text><text x="350.0" y="575.0" text-anchor="middle" fill="rgb(0,0,0)" font-size="12.0">generation</text><text transform="rotate(-90.0 20.0 300.0)" x="20.0" y="300.0" text-anchor="middle" fill="rgb(0,0,0)" font-size="12.0">fitness</text><text x="620" y="62" fill="rgb(0,0,0)" font-size="12">min</text><text x="620" y="74" fill="rgb(0,0,255)" font-size="12">ave</text><text x="620" y="86" fill="rgb(0,255,0)" font-size="12">max</text>
      Sorry, your browser does not support inline SVG.
    </svg>