<?xml version='1.0' encoding='UTF-8'?>
<svg version="1.1" width="700.0" height="600.0" onload="init(evt)" xmlns="http://www.w3.org/2000/svg">
      <style>.caption {
  font-size: 14px;
  font-family: Georgia, serif;
}
</style>
      <script type="text/ecmascript"><![CDATA[
function init(evt) {
  if ( window.svgDocument == null ) {
    svgDocument = evt.target.ownerDocument;
  }
}

function RectHover(evt, i, c) {
  rect = svgDocument.getElementById('rect' + i);
  if( c != null ) {
    rect.setAttributeNS(null, "fill", c)  
  }
  tooltiptext = svgDocument.getElementById('tooltiptext' + i);
  tooltipbg = svgDocument.getElementById('tooltipbg' + i);
  if( tooltipbg != null) {
    tbb = tooltiptext.getBBox();
    tooltipbg.setAttributeNS(null, "width", tbb.width);
    tooltipbg.setAttributeNS(null, "height", tbb.height);
    tooltipbg.setAttributeNS(null, "x", tbb.x);
    tooltipbg.setAttributeNS(null, "y", tbb.y);
    tooltipbg.setAttributeNS(null, "visibility", "visible");
  }
  tooltiptext.setAttributeNS(null,"visibility","visible");
}

function RectUnhover(evt, i, c) {
  rect = svgDocument.getElementById('rect' + i);
  if( c != null ) {
    rect.setAttributeNS(null, "fill", c)  
  }
  tooltiptext = svgDocument.getElementById('tooltiptext' + i);
  tooltiptext.setAttributeNS(null,"visibility","hidden");
  tooltipbg = svgDocument.getElementById('tooltipbg' + i);
  if( tooltipbg != null ) {
    tooltipbg.setAttributeNS(null,"visibility","hidden");
  }
}
]]></script>
      <line x1="50.0" y1="550.0" x2="550.0" y2="550.0" stroke="rgb(0,0,0)" stroke-width="1"/><line x1="50.0" y1="550.0" x2="50.0" y2="50.0" stroke="rgb(0,0,0)" stroke-width="1"/><line x1="50.0" y1="550.0" x2="50.0" y2="50.0" stroke="rgb(192,192,192)" stroke-width="1"/><line x1="50.0" y1="548.0" x2="50.0" y2="552.0" stroke="rgb(192,192,192)" stroke-width="1"/><text text-anchor="middle" alignment-baseline="hanging" x="50.0" y="553.0" font-size="12.0">0</text><line x1="100.5050505050505" y1="550.0" x2="100.5050505050505" y2="50.0" stroke="rgb(192,192,192)" stroke-width="1"/><line x1="100.5050505050505" y1="548.0" x2="100.5050505050505" y2="552.0" stroke="rgb(192,192,192)" stroke-width="1"/><text text-anchor="middle" alignment-baseline="hanging" x="100.5050505050505" y="553.0" font-size="12.0">10</text><line x1="151.010101010101" y1="550.0" x2="151.010101010101" y2="50.0" stroke="rgb(192,192,192)" stroke-width="1"/><line x1="151.010101010101" y1="548.0" x2="151.010101010101" y2="552.0" stroke="rgb(192,192,192)" stroke-width="1"/><text text-anchor="middle" alignment-baseline="hanging" x="151.010101010101" y="553.0" font-size="12.0">20</text><line x1="201.51515151515153" y1="550.0" x2="201.51515151515153" y2="50.0" stroke="rgb(192,192,192)" stroke-width="1"/><line x1="201.51515151515153" y1="548.0" x2="201.51515151515153" y2="552.0" stroke="rgb(192,192,192)" stroke-width="1"/><text text-anchor="middle" alignment-baseline="hanging" x="201.51515151515153" y="553.0" font-size="12.0">30</text><line x1="252.02020202020202" y1="550.0" x2="252.02020202020202" y2="50.0" stroke="rgb(192,192,192)" stroke-width="1"/><line x1="252.02020202020202" y1="548.0" x2="252.02020202020202" y2="552.0" stroke="rgb(192,192,192)" stroke-width="1"/><text text-anchor="middle" alignment-baseline="hanging" x="252.02020202020202" y="553.0" font-size="12.0">40</text><line x1="302.52525252525254" y1="550.0" x2="302.52525252525254" y2="50.0" stroke="rgb(192,192,192)" stroke-width="1"/><line x1="302.52525252525254" y1="548.0" x2="302.52525252525254" y2="552.0" stroke="rgb(192,192,192)" stroke-width="1"/><text text-anchor="middle" alignment-baseline="hanging" x="302.52525252525254" y="553.0" font-size="12.0">50</text><line x1="353.03030303030306" y1="550.0" x2="353.03030303030306" y2="50.0" stroke="rgb(192,192,192)" stroke-width="1"/><line x1="353.03030303030306" y1="548.0" x2="353.03030303030306" y2="552.0" stroke="rgb(192,192,192)" stroke-width="1"/><text text-anchor="middle" alignment-baseline="hanging" x="353.03030303030306" y="553.0" font-size="12.0">60</text><line x1="403.5353535353535" y1="550.0" x2="403.5353535353535" y2="50.0" stroke="rgb(192,192,192)" stroke-width="1"/><line x1="403.5353535353535" y1="548.0" x2="403.5353535353535" y2="552.0" stroke="rgb(192,192,192)" stroke-width="1"/><text text-anchor="middle" alignment-baseline="hanging" x="403.5353535353535" y="553.0" font-size="12.0">70</text><line x1="454.04040404040404" y1="550.0" x2="454.04040404040404" y2="50.0" stroke="rgb(192,192,192)" stroke-width="1"/><line x1="454.04040404040404" y1="548.0" x2="454.04040404040404" y2="552.0" stroke="rgb(192,192,192)" stroke-width="1"/><text text-anchor="middle" alignment-baseline="hanging" x="454.04040404040404" y="553.0" font-size="12.0">80</text><line x1="504.5454545454545" y1="550.0" x2="504.5454545454545" y2="50.0" stroke="rgb(192,192,192)" stroke-width="1"/><line x1="504.5454545454545" y1="548.0" x2="504.5454545454545" y2="552.0" stroke="rgb(192,192,192)" stroke-width="1"/><text text-anchor="middle" alignment-baseline="hanging" x="504.5454545454545" y="553.0" font-size="12.0">90</text><line x1="50.0" y1="550.0" x2="550.0" y2="550.0" stroke="rgb(192,192,192)" stroke-width="1"/><text text-anchor="end" alignment-baseline="middle" x="45.0" y="550.0" font-size="12.0">0.0</text><line x1="48.0" y1="550.0" x2="52.0" y2="550.0" stroke="rgb(192,192,192)" stroke-width="1"/><line x1="50.0" y1="367.3722486727836" x2="550.0" y2="367.3722486727836" stroke="rgb(192,192,192)" stroke-width="1"/><text text-anchor="end" alignment-baseline="middle" x="45.0" y="367.3722486727836" font-size="12.0">1000.0</text><line x1="48.0" y1="367.3722486727836" x2="52.0" y2="367.3722486727836" stroke="rgb(192,192,192)" stroke-width="1"/><line x1="50.0" y1="184.74449734556714" x2="550.0" y2="184.74449734556714" stroke="rgb(192,192,192)" stroke-width="1"/><text text-anchor="end" alignment-baseline="middle" x="45.0" y="184.74449734556714" font-size="12.0">2000.0</text><line x1="48.0" y1="184.74449734556714" x2="52.0" y2="184.74449734556714" stroke="rgb(192,192,192)" stroke-width="1"/><polyline points="50.0,418.07719435293853 55.05050505050505,415.05831297662996 60.101010101010104,404.93773275135084 65.15151515151516,400.63059948000944 70.20202020202021,398.8022186373721 75.25252525252526,396.9404858973136 80.30303030303031,397.07807081964523 85.35353535353535,390.8914784095501 90.40404040404042,394.93118790584015 95.45454545454545,125.73495917126576 100.5050505050505,413.9601477409928 105.55555555555554,413.9089325785428 110.60606060606061,355.0365231314622 115.65656565656566,354.96155918099885 120.7070707070707,353.9177748849635 125.75757575757576,337.4672524946425 130.80808080808083,355.05580527194763 135.85858585858585,330.49145005346656 140.9090909090909,342.4028255838459 145.95959595959596,372.2880201005412 151.010101010101,361.51951067945515 156.06060606060606,291.3263656270338 161.1111111111111,391.8283178029952 166.16161616161617,402.17294090202745 171.21212121212122,380.4738885056864 176.26262626262627,348.5342891626858 181.31313131313132,347.7199841442853 186.36363636363635,301.54640491518455 191.4141414141414,406.68539374965815 196.46464646464648,299.4575364696832 201.51515151515153,158.930404647194 206.56565656565658,283.19371049952184 211.61616161616163,328.9942871360164 216.66666666666666,74.28903021768582 221.7171717171717,405.0633804785483 226.76767676767676,405.3219144628267 231.8181818181818,233.27292948674807 236.86868686868686,383.5938685406036 241.91919191919192,390.3142192091848 246.96969696969697,390.4517803667147 252.02020202020202,407.62821209080937 257.07070707070704,216.21834719887482 262.1212121212121,149.55585564342533 267.1717171717172,307.8238863819331 272.2222222222222,226.18267433088243 277.27272727272725,338.383565214576 282.32323232323233,97.60782431415976 287.3737373737374,391.39306768345136 292.42424242424244,325.38208160092074 297.47474747474746,377.96653888794293 302.52525252525254,372.9586892473252 307.57575757575756,409.2162173476689 312.62626262626264,409.2162173476689 317.67676767676767,253.07202648053345 322.7272727272727,275.2885504647351 327.77777777777777,397.805194169362 332.8282828282828,351.8393571609454 337.8787878787879,412.43621150694787 342.92929292929296,412.1372219422225 347.979797979798,413.3317846412448 353.03030303030306,402.9022119424127 358.0808080808081,402.9405337417228 363.13131313131316,402.86981346863763 368.1818181818182,267.04556079486537 373.23232323232327,280.80091735708993 378.2828282828283,368.0613847528332 383.3333333333333,369.28265091934594 388.3838383838384,368.27118920908435 393.4343434343434,392.42394559256417 398.4848484848485,346.3471826091245 403.5353535353535,348.00631076122556 408.58585858585855,346.42930864432077 413.6363636363636,346.4604375122769 418.68686868686865,380.9242179590933 423.73737373737373,394.1562487667363 428.7878787878788,348.8180599894074 433.83838383838383,337.3234066575707 438.8888888888889,276.45308220294567 443.93939393939394,251.00191562939295 448.989898989899,217.5317075665152 454.04040404040404,250.15659567741278 459.0909090909091,330.71628907924855 464.14141414141415,391.4653734051901 469.19191919191917,391.43586719068674 474.24242424242425,391.44081703276595 479.2929292929293,391.85664829523654 484.34343434343435,335.66139667154766 489.3939393939394,367.46978425536076 494.4444444444444,367.4425186798059 499.4949494949495,283.84205087125 504.5454545454545,415.29497903388364 509.59595959595964,396.66743890460856 514.6464646464647,226.24107953714355 519.6969696969697,408.7867963704832 524.7474747474748,394.27183882001816 529.7979797979798,394.42955541812313 534.8484848484849,395.2166784233422 539.8989898989898,297.8724642108448 544.9494949494949,297.7816501683964 550.0,253.93803816722453" fill="none" stroke="rgb(0,0,0)" stroke-width="1"/><circle cx="50.0" cy="418.07719435293853" r="2" fill="rgb(0,0,0)"/><circle cx="55.05050505050505" cy="415.05831297662996" r="2" fill="rgb(0,0,0)"/><circle cx="60.101010101010104" cy="404.93773275135084" r="2" fill="rgb(0,0,0)"/><circle cx="65.15151515151516" cy="400.63059948000944" r="2" fill="rgb(0,0,0)"/><circle cx="70.20202020202021" cy="398.8022186373721" r="2" fill="rgb(0,0,0)"/><circle cx="75.25252525252526" cy="396.9404858973136" r="2" fill="rgb(0,0,0)"/><circle cx="80.30303030303031" cy="397.07807081964523" r="2" fill="rgb(0,0,0)"/><circle cx="85.35353535353535" cy="390.8914784095501" r="2" fill="rgb(0,0,0)"/><circle cx="90.40404040404042" cy="394.93118790584015" r="2" fill="rgb(0,0,0)"/><circle cx="95.45454545454545" cy="125.73495917126576" r="2" fill="rgb(0,0,0)"/><circle cx="100.5050505050505" cy="413.9601477409928" r="2" fill="rgb(0,0,0)"/><circle cx="105.55555555555554" cy="413.9089325785428" r="2" fill="rgb(0,0,0)"/><circle cx="110.60606060606061" cy="355.0365231314622" r="2" fill="rgb(0,0,0)"/><circle cx="115.65656565656566" cy="354.96155918099885" r="2" fill="rgb(0,0,0)"/><circle cx="120.7070707070707" cy="353.9177748849635" r="2" fill="rgb(0,0,0)"/><circle cx="125.75757575757576" cy="337.4672524946425" r="2" fill="rgb(0,0,0)"/><circle cx="130.80808080808083" cy="355.05580527194763" r="2" fill="rgb(0,0,0)"/><circle cx="135.85858585858585" cy="330.49145005346656" r="2" fill="rgb(0,0,0)"/><circle cx="140.9090909090909" cy="342.4028255838459" r="2" fill="rgb(0,0,0)"/><circle cx="145.95959595959596" cy="372.2880201005412" r="2" fill="rgb(0,0,0)"/><circle cx="151.010101010101" cy="361.51951067945515" r="2" fill="rgb(0,0,0)"/><circle cx="156.06060606060606" cy="291.3263656270338" r="2" fill="rgb(0,0,0)"/><circle cx="161.1111111111111" cy="391.8283178029952" r="2" fill="rgb(0,0,0)"/><circle cx="166.16161616161617" cy="402.17294090202745" r="2" fill="rgb(0,0,0)"/><circle cx="171.21212121212122" cy="380.4738885056864" r="2" fill="rgb(0,0,0)"/><circle cx="176.26262626262627" cy="348.5342891626858" r="2" fill="rgb(0,0,0)"/><circle cx="181.31313131313132" cy="347.7199841442853" r="2" fill="rgb(0,0,0)"/><circle cx="186.36363636363635" cy="301.54640491518455" r="2" fill="rgb(0,0,0)"/><circle cx="191.4141414141414" cy="406.68539374965815" r="2" fill="rgb(0,0,0)"/><circle cx="196.46464646464648" cy="299.4575364696832" r="2" fill="rgb(0,0,0)"/><circle cx="201.51515151515153" cy="158.930404647194" r="2" fill="rgb(0,0,0)"/><circle cx="206.56565656565658" cy="283.19371049952184" r="2" fill="rgb(0,0,0)"/><circle cx="211.61616161616163" cy="328.9942871360164" r="2" fill="rgb(0,0,0)"/><circle cx="216.66666666666666" cy="74.28903021768582" r="2" fill="rgb(0,0,0)"/><circle cx="221.7171717171717" cy="405.0633804785483" r="2" fill="rgb(0,0,0)"/><circle cx="226.76767676767676" cy="405.3219144628267" r="2" fill="rgb(0,0,0)"/><circle cx="231.8181818181818" cy="233.27292948674807" r="2" fill="rgb(0,0,0)"/><circle cx="236.86868686868686" cy="383.5938685406036" r="2" fill="rgb(0,0,0)"/><circle cx="241.91919191919192" cy="390.3142192091848" r="2" fill="rgb(0,0,0)"/><circle cx="246.96969696969697" cy="390.4517803667147" r="2" fill="rgb(0,0,0)"/><circle cx="252.02020202020202" cy="407.62821209080937" r="2" fill="rgb(0,0,0)"/><circle cx="257.07070707070704" cy="216.21834719887482" r="2" fill="rgb(0,0,0)"/><circle cx="262.1212121212121" cy="149.55585564342533" r="2" fill="rgb(0,0,0)"/><circle cx="267.1717171717172" cy="307.8238863819331" r="2" fill="rgb(0,0,0)"/><circle cx="272.2222222222222" cy="226.18267433088243" r="2" fill="rgb(0,0,0)"/><circle cx="277.27272727272725" cy="338.383565214576" r="2" fill="rgb(0,0,0)"/><circle cx="282.32323232323233" cy="97.60782431415976" r="2" fill="rgb(0,0,0)"/><circle cx="287.3737373737374" cy="391.39306768345136" r="2" fill="rgb(0,0,0)"/><circle cx="292.42424242424244" cy="325.38208160092074" r="2" fill="rgb(0,0,0)"/><circle cx="297.47474747474746" cy="377.96653888794293" r="2" fill="rgb(0,0,0)"/><circle cx="302.52525252525254" cy="372.9586892473252" r="2" fill="rgb(0,0,0)"/><circle cx="307.57575757575756" cy="409.2162173476689" r="2" fill="rgb(0,0,0)"/><circle cx="312.62626262626264" cy="409.2162173476689" r="2" fill="rgb(0,0,0)"/><circle cx="317.67676767676767" cy="253.07202648053345" r="2" fill="rgb(0,0,0)"/><circle cx="322.7272727272727" cy="275.2885504647351" r="2" fill="rgb(0,0,0)"/><circle cx="327.77777777777777" cy="397.805194169362" r="2" fill="rgb(0,0,0)"/><circle cx="332.8282828282828" cy="351.8393571609454" r="2" fill="rgb(0,0,0)"/><circle cx="337.8787878787879" cy="412.43621150694787" r="2" fill="rgb(0,0,0)"/><circle cx="342.92929292929296" cy="412.1372219422225" r="2" fill="rgb(0,0,0)"/><circle cx="347.979797979798" cy="413.3317846412448" r="2" fill="rgb(0,0,0)"/><circle cx="353.03030303030306" cy="402.9022119424127" r="2" fill="rgb(0,0,0)"/><circle cx="358.0808080808081" cy="402.9405337417228" r="2" fill="rgb(0,0,0)"/><circle cx="363.13131313131316" cy="402.86981346863763" r="2" fill="rgb(0,0,0)"/><circle cx="368.1818181818182" cy="267.04556079486537" r="2" fill="rgb(0,0,0)"/><circle cx="373.23232323232327" cy="280.80091735708993" r="2" fill="rgb(0,0,0)"/><circle cx="378.2828282828283" cy="368.0613847528332" r="2" fill="rgb(0,0,0)"/><circle cx="383.3333333333333" cy="369.28265091934594" r="2" fill="rgb(0,0,0)"/><circle cx="388.3838383838384" cy="368.27118920908435" r="2" fill="rgb(0,0,0)"/><circle cx="393.4343434343434" cy="392.42394559256417" r="2" fill="rgb(0,0,0)"/><circle cx="398.4848484848485" cy="346.3471826091245" r="2" fill="rgb(0,0,0)"/><circle cx="403.5353535353535" cy="348.00631076122556" r="2" fill="rgb(0,0,0)"/><circle cx="408.58585858585855" cy="346.42930864432077" r="2" fill="rgb(0,0,0)"/><circle cx="413.6363636363636" cy="346.4604375122769" r="2" fill="rgb(0,0,0)"/><circle cx="418.68686868686865" cy="380.9242179590933" r="2" fill="rgb(0,0,0)"/><circle cx="423.73737373737373" cy="394.1562487667363" r="2" fill="rgb(0,0,0)"/><circle cx="428.7878787878788" cy="348.8180599894074" r="2" fill="rgb(0,0,0)"/><circle cx="433.83838383838383" cy="337.3234066575707" r="2" fill="rgb(0,0,0)"/><circle cx="438.8888888888889" cy="276.45308220294567" r="2" fill="rgb(0,0,0)"/><circle cx="443.93939393939394" cy="251.00191562939295" r="2" fill="rgb(0,0,0)"/><circle cx="448.989898989899" cy="217.5317075665152" r="2" fill="rgb(0,0,0)"/><circle cx="454.04040404040404" cy="250.15659567741278" r="2" fill="rgb(0,0,0)"/><circle cx="459.0909090909091" cy="330.71628907924855" r="2" fill="rgb(0,0,0)"/><circle cx="464.14141414141415" cy="391.4653734051901" r="2" fill="rgb(0,0,0)"/><circle cx="469.19191919191917" cy="391.43586719068674" r="2" fill="rgb(0,0,0)"/><circle cx="474.24242424242425" cy="391.44081703276595" r="2" fill="rgb(0,0,0)"/><circle cx="479.2929292929293" cy="391.85664829523654" r="2" fill="rgb(0,0,0)"/><circle cx="484.34343434343435" cy="335.66139667154766" r="2" fill="rgb(0,0,0)"/><circle cx="489.3939393939394" cy="367.46978425536076" r="2" fill="rgb(0,0,0)"/><circle cx="494.4444444444444" cy="367.4425186798059" r="2" fill="rgb(0,0,0)"/><circle cx="499.4949494949495" cy="283.84205087125" r="2" fill="rgb(0,0,0)"/><circle cx="504.5454545454545" cy="415.29497903388364" r="2" fill="rgb(0,0,0)"/><circle cx="509.59595959595964" cy="396.66743890460856" r="2" fill="rgb(0,0,0)"/><circle cx="514.6464646464647" cy="226.24107953714355" r="2" fill="rgb(0,0,0)"/><circle cx="519.6969696969697" cy="408.7867963704832" r="2" fill="rgb(0,0,0)"/><circle cx="524.7474747474748" cy="394.27183882001816" r="2" fill="rgb(0,0,0)"/><circle cx="529.7979797979798" cy="394.42955541812313" r="2" fill="rgb(0,0,0)"/><circle cx="534.8484848484849" cy="395.2166784233422" r="2" fill="rgb(0,0,0)"/><circle cx="539.8989898989898" cy="297.8724642108448" r="2" fill="rgb(0,0,0)"/><circle cx="544.9494949494949" cy="297.7816501683964" r="2" fill="rgb(0,0,0)"/><circle cx="550.0" cy="253.93803816722453" r="2" fill="rgb(0,0,0)"/><polyline points="50.0,231.04391609417087 55.05050505050505,201.92045318950125 60.101010101010104,176.29097855754543 65.15151515151516,150.6657200276677 70.20202020202021,137.81432537829477 75.25252525252526,120.78272954590398 80.30303030303031,105.77967578343248 85.35353535353535,100.06753935599852 90.40404040404042,97.64423942017606 95.45454545454545,84.6402743499122 100.5050505050505,89.95733406674714 105.55555555555554,91.65309053047486 110.60606060606061,90.77163252642748 115.65656565656566,82.72202827521164 120.7070707070707,80.56655262277172 125.75757575757576,80.914585604651 130.80808080808083,87.49822346416448 135.85858585858585,77.13690650254273 140.9090909090909,82.73071617697025 145.95959595959596,77.06154970056576 151.010101010101,74.72778133153429 156.06060606060606,67.05137898323744 161.1111111111111,71.35768223702632 166.16161616161617,75.94584486497456 171.21212121212122,75.31392340104304 176.26262626262627,65.72534052093255 181.31313131313132,61.12198585668568 186.36363636363635,64.76524332886913 191.4141414141414,65.08206351224499 196.46464646464648,58.24195328496921 201.51515151515153,55.59635796406553 206.56565656565658,58.95308888456634 211.61616161616163,65.88614538040832 216.66666666666666,53.511669151265664 221.7171717171717,65.66957324734216 226.76767676767676,63.010189807551114 231.8181818181818,59.85257445548086 236.86868686868686,61.711454328237835 241.91919191919192,70.88728262224765 246.96969696969697,63.813620387169635 252.02020202020202,66.61745929187458 257.07070707070704,58.82501621867078 262.1212121212121,54.02117124428605 267.1717171717172,57.41023251381273 272.2222222222222,56.813205675834695 277.27272727272725,55.253218542348634 282.32323232323233,53.22178018242039 287.3737373737374,64.88198445168376 292.42424242424244,61.34079917497701 297.47474747474746,67.54632264639508 302.52525252525254,61.92583664879288 307.57575757575756,64.4292362275691 312.62626262626264,65.94926057106147 317.67676767676767,57.964109856064965 322.7272727272727,59.632267895444045 327.77777777777777,58.73956779510917 332.8282828282828,63.72566111292048 337.8787878787879,69.52958141317606 342.92929292929296,75.21823531112284 347.979797979798,83.69259000270529 353.03030303030306,59.811910011829866 358.0808080808081,58.401573443011216 363.13131313131316,63.81257398463384 368.1818181818182,58.190647675923174 373.23232323232327,63.99643845818713 378.2828282828283,76.12546207641503 383.3333333333333,74.39522234383645 388.3838383838384,62.34710522547795 393.4343434343434,71.2132357480462 398.4848484848485,66.2040648794682 403.5353535353535,72.1901275330498 408.58585858585855,61.4711442180502 413.6363636363636,56.88697168809915 418.68686868686865,59.16257429896012 423.73737373737373,63.13446181296007 428.7878787878788,62.15692749637026 433.83838383838383,62.53537501056087 438.8888888888889,62.9941027695441 443.93939393939394,59.9050315883909 448.989898989899,56.97753668458466 454.04040404040404,58.370173350649395 459.0909090909091,61.713578876493386 464.14141414141415,59.44440621573534 469.19191919191917,65.06807851937077 474.24242424242425,59.9187159778449 479.2929292929293,65.13824728840706 484.34343434343435,61.351287568374914 489.3939393939394,67.1040465138089 494.4444444444444,70.01402622463598 499.4949494949495,58.247453492830175 504.5454545454545,60.32870452726587 509.59595959595964,62.511818755441084 514.6464646464647,55.36454059131 519.6969696969697,62.05062913693456 524.7474747474748,61.42581203820339 529.7979797979798,70.82830254965387 534.8484848484849,61.66617525010861 539.8989898989898,55.02565151081967 544.9494949494949,60.091820356560106 550.0,54.94735853720431" fill="none" stroke="rgb(0,0,255)" stroke-width="1"/><circle cx="50.0" cy="231.04391609417087" r="2" fill="rgb(0,0,255)"/><circle cx="55.05050505050505" cy="201.92045318950125" r="2" fill="rgb(0,0,255)"/><circle cx="60.101010101010104" cy="176.29097855754543" r="2" fill="rgb(0,0,255)"/><circle cx="65.15151515151516" cy="150.6657200276677" r="2" fill="rgb(0,0,255)"/><circle cx="70.20202020202021" cy="137.81432537829477" r="2" fill="rgb(0,0,255)"/><circle cx="75.25252525252526" cy="120.78272954590398" r="2" fill="rgb(0,0,255)"/><circle cx="80.30303030303031" cy="105.77967578343248" r="2" fill="rgb(0,0,255)"/><circle cx="85.35353535353535" cy="100.06753935599852" r="2" fill="rgb(0,0,255)"/><circle cx="90.40404040404042" cy="97.64423942017606" r="2" fill="rgb(0,0,255)"/><circle cx="95.45454545454545" cy="84.6402743499122" r="2" fill="rgb(0,0,255)"/><circle cx="100.5050505050505" cy="89.95733406674714" r="2" fill="rgb(0,0,255)"/><circle cx="105.55555555555554" cy="91.65309053047486" r="2" fill="rgb(0,0,255)"/><circle cx="110.60606060606061" cy="90.77163252642748" r="2" fill="rgb(0,0,255)"/><circle cx="115.65656565656566" cy="82.72202827521164" r="2" fill="rgb(0,0,255)"/><circle cx="120.7070707070707" cy="80.56655262277172" r="2" fill="rgb(0,0,255)"/><circle cx="125.75757575757576" cy="80.914585604651" r="2" fill="rgb(0,0,255)"/><circle cx="130.80808080808083" cy="87.49822346416448" r="2" fill="rgb(0,0,255)"/><circle cx="135.85858585858585" cy="77.13690650254273" r="2" fill="rgb(0,0,255)"/><circle cx="140.9090909090909" cy="82.73071617697025" r="2" fill="rgb(0,0,255)"/><circle cx="145.95959595959596" cy="77.06154970056576" r="2" fill="rgb(0,0,255)"/><circle cx="151.010101010101" cy="74.72778133153429" r="2" fill="rgb(0,0,255)"/><circle cx="156.06060606060606" cy="67.05137898323744" r="2" fill="rgb(0,0,255)"/><circle cx="161.1111111111111" cy="71.35768223702632" r="2" fill="rgb(0,0,255)"/><circle cx="166.16161616161617" cy="75.94584486497456" r="2" fill="rgb(0,0,255)"/><circle cx="171.21212121212122" cy="75.31392340104304" r="2" fill="rgb(0,0,255)"/><circle cx="176.26262626262627" cy="65.72534052093255" r="2" fill="rgb(0,0,255)"/><circle cx="181.31313131313132" cy="61.12198585668568" r="2" fill="rgb(0,0,255)"/><circle cx="186.36363636363635" cy="64.76524332886913" r="2" fill="rgb(0,0,255)"/><circle cx="191.4141414141414" cy="65.08206351224499" r="2" fill="rgb(0,0,255)"/><circle cx="196.46464646464648" cy="58.24195328496921" r="2" fill="rgb(0,0,255)"/><circle cx="201.51515151515153" cy="55.59635796406553" r="2" fill="rgb(0,0,255)"/><circle cx="206.56565656565658" cy="58.95308888456634" r="2" fill="rgb(0,0,255)"/><circle cx="211.61616161616163" cy="65.88614538040832" r="2" fill="rgb(0,0,255)"/><circle cx="216.66666666666666" cy="53.511669151265664" r="2" fill="rgb(0,0,255)"/><circle cx="221.7171717171717" cy="65.66957324734216" r="2" fill="rgb(0,0,255)"/><circle cx="226.76767676767676" cy="63.010189807551114" r="2" fill="rgb(0,0,255)"/><circle cx="231.8181818181818" cy="59.85257445548086" r="2" fill="rgb(0,0,255)"/><circle cx="236.86868686868686" cy="61.711454328237835" r="2" fill="rgb(0,0,255)"/><circle cx="241.91919191919192" cy="70.88728262224765" r="2" fill="rgb(0,0,255)"/><circle cx="246.96969696969697" cy="63.813620387169635" r="2" fill="rgb(0,0,255)"/><circle cx="252.02020202020202" cy="66.61745929187458" r="2" fill="rgb(0,0,255)"/><circle cx="257.07070707070704" cy="58.82501621867078" r="2" fill="rgb(0,0,255)"/><circle cx="262.1212121212121" cy="54.02117124428605" r="2" fill="rgb(0,0,255)"/><circle cx="267.1717171717172" cy="57.41023251381273" r="2" fill="rgb(0,0,255)"/><circle cx="272.2222222222222" cy="56.813205675834695" r="2" fill="rgb(0,0,255)"/><circle cx="277.27272727272725" cy="55.253218542348634" r="2" fill="rgb(0,0,255)"/><circle cx="282.32323232323233" cy="53.22178018242039" r="2" fill="rgb(0,0,255)"/><circle cx="287.3737373737374" cy="64.88198445168376" r="2" fill="rgb(0,0,255)"/><circle cx="292.42424242424244" cy="61.34079917497701" r="2" fill="rgb(0,0,255)"/><circle cx="297.47474747474746" cy="67.54632264639508" r="2" fill="rgb(0,0,255)"/><circle cx="302.52525252525254" cy="61.92583664879288" r="2" fill="rgb(0,0,255)"/><circle cx="307.57575757575756" cy="64.4292362275691" r="2" fill="rgb(0,0,255)"/><circle cx="312.62626262626264" cy="65.94926057106147" r="2" fill="rgb(0,0,255)"/><circle cx="317.67676767676767" cy="57.964109856064965" r="2" fill="rgb(0,0,255)"/><circle cx="322.7272727272727" cy="59.632267895444045" r="2" fill="rgb(0,0,255)"/><circle cx="327.77777777777777" cy="58.73956779510917" r="2" fill="rgb(0,0,255)"/><circle cx="332.8282828282828" cy="63.72566111292048" r="2" fill="rgb(0,0,255)"/><circle cx="337.8787878787879" cy="69.52958141317606" r="2" fill="rgb(0,0,255)"/><circle cx="342.92929292929296" cy="75.21823531112284" r="2" fill="rgb(0,0,255)"/><circle cx="347.979797979798" cy="83.69259000270529" r="2" fill="rgb(0,0,255)"/><circle cx="353.03030303030306" cy="59.811910011829866" r="2" fill="rgb(0,0,255)"/><circle cx="358.0808080808081" cy="58.401573443011216" r="2" fill="rgb(0,0,255)"/><circle cx="363.13131313131316" cy="63.81257398463384" r="2" fill="rgb(0,0,255)"/><circle cx="368.1818181818182" cy="58.190647675923174" r="2" fill="rgb(0,0,255)"/><circle cx="373.23232323232327" cy="63.99643845818713" r="2" fill="rgb(0,0,255)"/><circle cx="378.2828282828283" cy="76.12546207641503" r="2" fill="rgb(0,0,255)"/><circle cx="383.3333333333333" cy="74.39522234383645" r="2" fill="rgb(0,0,255)"/><circle cx="388.3838383838384" cy="62.34710522547795" r="2" fill="rgb(0,0,255)"/><circle cx="393.4343434343434" cy="71.2132357480462" r="2" fill="rgb(0,0,255)"/><circle cx="398.4848484848485" cy="66.2040648794682" r="2" fill="rgb(0,0,255)"/><circle cx="403.5353535353535" cy="72.1901275330498" r="2" fill="rgb(0,0,255)"/><circle cx="408.58585858585855" cy="61.4711442180502" r="2" fill="rgb(0,0,255)"/><circle cx="413.6363636363636" cy="56.88697168809915" r="2" fill="rgb(0,0,255)"/><circle cx="418.68686868686865" cy="59.16257429896012" r="2" fill="rgb(0,0,255)"/><circle cx="423.73737373737373" cy="63.13446181296007" r="2" fill="rgb(0,0,255)"/><circle cx="428.7878787878788" cy="62.15692749637026" r="2" fill="rgb(0,0,255)"/><circle cx="433.83838383838383" cy="62.53537501056087" r="2" fill="rgb(0,0,255)"/><circle cx="438.8888888888889" cy="62.9941027695441" r="2" fill="rgb(0,0,255)"/><circle cx="443.93939393939394" cy="59.9050315883909" r="2" fill="rgb(0,0,255)"/><circle cx="448.989898989899" cy="56.97753668458466" r="2" fill="rgb(0,0,255)"/><circle cx="454.04040404040404" cy="58.370173350649395" r="2" fill="rgb(0,0,255)"/><circle cx="459.0909090909091" cy="61.713578876493386" r="2" fill="rgb(0,0,255)"/><circle cx="464.14141414141415" cy="59.44440621573534" r="2" fill="rgb(0,0,255)"/><circle cx="469.19191919191917" cy="65.06807851937077" r="2" fill="rgb(0,0,255)"/><circle cx="474.24242424242425" cy="59.9187159778449" r="2" fill="rgb(0,0,255)"/><circle cx="479.2929292929293" cy="65.13824728840706" r="2" fill="rgb(0,0,255)"/><circle cx="484.34343434343435" cy="61.351287568374914" r="2" fill="rgb(0,0,255)"/><circle cx="489.3939393939394" cy="67.1040465138089" r="2" fill="rgb(0,0,255)"/><circle cx="494.4444444444444" cy="70.01402622463598" r="2" fill="rgb(0,0,255)"/><circle cx="499.4949494949495" cy="58.247453492830175" r="2" fill="rgb(0,0,255)"/><circle cx="504.5454545454545" cy="60.32870452726587" r="2" fill="rgb(0,0,255)"/><circle cx="509.59595959595964" cy="62.511818755441084" r="2" fill="rgb(0,0,255)"/><circle cx="514.6464646464647" cy="55.36454059131" r="2" fill="rgb(0,0,255)"/><circle cx="519.6969696969697" cy="62.05062913693456" r="2" fill="rgb(0,0,255)"/><circle cx="524.7474747474748" cy="61.42581203820339" r="2" fill="rgb(0,0,255)"/><circle cx="529.7979797979798" cy="70.82830254965387" r="2" fill="rgb(0,0,255)"/><circle cx="534.8484848484849" cy="61.66617525010861" r="2" fill="rgb(0,0,255)"/><circle cx="539.8989898989898" cy="55.02565151081967" r="2" fill="rgb(0,0,255)"/><circle cx="544.9494949494949" cy="60.091820356560106" r="2" fill="rgb(0,0,255)"/><circle cx="550.0" cy="54.94735853720431" r="2" fill="rgb(0,0,255)"/><polyline points="50.0,74.60855932377115 55.05050505050505,72.50732505519693 60.101010101010104,75.28028358786452 65.15151515151516,75.80357173032814 70.20202020202021,73.01594897856415 75.25252525252526,72.07693367903192 80.30303030303031,71.95456273703434 85.35353535353535,59.42100496702528 90.40404040404042,57.61509260106618 95.45454545454545,59.062343154455505 100.5050505050505,59.80569822477747 105.55555555555554,58.52651591315532 110.60606060606061,58.360005380349776 115.65656565656566,56.956579754929976 120.7070707070707,57.38656874713104 125.75757575757576,56.51200097166537 130.80808080808083,56.77063491922161 135.85858585858585,53.6679624814837 140.9090909090909,53.000056367787124 145.95959595959596,53.20427845777988 151.010101010101,52.75604798651443 156.06060606060606,51.79846681090021 161.1111111111111,51.83826557083074 166.16161616161617,52.26374811036362 171.21212121212122,51.86439155600834 176.26262626262627,51.96985346021137 181.31313131313132,51.80171122581794 186.36363636363635,51.67805703766385 191.4141414141414,51.67805703766385 196.46464646464648,51.59478984498742 201.51515151515153,51.73671313495345 206.56565656565658,51.58297942436434 211.61616161616163,51.63365730898818 216.66666666666666,51.496096151458346 221.7171717171717,51.543320058048664 226.76767676767676,51.45686422350076 231.8181818181818,51.56463498522294 236.86868686868686,50.510399069627226 241.91919191919192,51.29840374814967 246.96969696969697,51.553826543993466 252.02020202020202,51.39297410282762 257.07070707070704,51.60493186697545 262.1212121212121,51.41606995058925 267.1717171717172,51.30589126298241 272.2222222222222,51.30589126298241 277.27272727272725,51.30589126298241 282.32323232323233,51.30589126298241 287.3737373737374,51.22034525021712 292.42424242424244,51.23830025832552 297.47474747474746,51.23830025832552 302.52525252525254,51.24399180085874 307.57575757575756,51.24506910870008 312.62626262626264,51.219435428434565 317.67676767676767,51.24506910870008 322.7272727272727,51.219435428434565 327.77777777777777,50.22169439493473 332.8282828282828,50.22169439493473 337.8787878787879,50.22169439493473 342.92929292929296,50.286494644255356 347.979797979798,50.3898601555116 353.03030303030306,50.523979482889956 358.0808080808081,50.40086369376013 363.13131313131316,50.52779312220912 368.1818181818182,50.38635292873124 373.23232323232327,50.617716703157555 378.2828282828283,50.41672576086137 383.3333333333333,50.4346228611451 388.3838383838384,50.14006503783759 393.4343434343434,50.294628591072865 398.4848484848485,50.27007221864869 403.5353535353535,50.16087224065245 408.58585858585855,50.27007221864869 413.6363636363636,50.19713802251056 418.68686868686865,50.18501634018588 423.73737373737373,50.2037675255487 428.7878787878788,50.13631586822828 433.83838383838383,50.0 438.8888888888889,50.25243841215348 443.93939393939394,50.0540625869275 448.989898989899,50.07244029529437 454.04040404040404,50.032704773909074 459.0909090909091,50.032704773909074 464.14141414141415,50.032704773909074 469.19191919191917,50.09304422683897 474.24242424242425,50.032704773909074 479.2929292929293,50.032704773909074 484.34343434343435,50.07105352638496 489.3939393939394,50.04376099766438 494.4444444444444,50.032704773909074 499.4949494949495,50.00814840148496 504.5454545454545,50.00814840148496 509.59595959595964,50.013384821350144 514.6464646464647,50.00814840148496 519.6969696969697,50.00814840148496 524.7474747474748,50.00149343338114 529.7979797979798,50.00814840148496 534.8484848484849,50.00814840148496 539.8989898989898,50.00814840148496 544.9494949494949,50.00814840148496 550.0,50.00814840148496" fill="none" stroke="rgb(0,255,0)" stroke-width="1"/><circle cx="50.0" cy="74.60855932377115" r="2" fill="rgb(0,255,0)"/><circle cx="55.05050505050505" cy="72.50732505519693" r="2" fill="rgb(0,255,0)"/><circle cx="60.101010101010104" cy="75.28028358786452" r="2" fill="rgb(0,255,0)"/><circle cx="65.15151515151516" cy="75.80357173032814" r="2" fill="rgb(0,255,0)"/><circle cx="70.20202020202021" cy="73.01594897856415" r="2" fill="rgb(0,255,0)"/><circle cx="75.25252525252526" cy="72.07693367903192" r="2" fill="rgb(0,255,0)"/><circle cx="80.30303030303031" cy="71.95456273703434" r="2" fill="rgb(0,255,0)"/><circle cx="85.35353535353535" cy="59.42100496702528" r="2" fill="rgb(0,255,0)"/><circle cx="90.40404040404042" cy="57.61509260106618" r="2" fill="rgb(0,255,0)"/><circle cx="95.45454545454545" cy="59.062343154455505" r="2" fill="rgb(0,255,0)"/><circle cx="100.5050505050505" cy="59.80569822477747" r="2" fill="rgb(0,255,0)"/><circle cx="105.55555555555554" cy="58.52651591315532" r="2" fill="rgb(0,255,0)"/><circle cx="110.60606060606061" cy="58.360005380349776" r="2" fill="rgb(0,255,0)"/><circle cx="115.65656565656566" cy="56.956579754929976" r="2" fill="rgb(0,255,0)"/><circle cx="120.7070707070707" cy="57.38656874713104" r="2" fill="rgb(0,255,0)"/><circle cx="125.75757575757576" cy="56.51200097166537" r="2" fill="rgb(0,255,0)"/><circle cx="130.80808080808083" cy="56.77063491922161" r="2" fill="rgb(0,255,0)"/><circle cx="135.85858585858585" cy="53.6679624814837" r="2" fill="rgb(0,255,0)"/><circle cx="140.9090909090909" cy="53.000056367787124" r="2" fill="rgb(0,255,0)"/><circle cx="145.95959595959596" cy="53.20427845777988" r="2" fill="rgb(0,255,0)"/><circle cx="151.010101010101" cy="52.75604798651443" r="2" fill="rgb(0,255,0)"/><circle cx="156.06060606060606" cy="51.79846681090021" r="2" fill="rgb(0,255,0)"/><circle cx="161.1111111111111" cy="51.83826557083074" r="2" fill="rgb(0,255,0)"/><circle cx="166.16161616161617" cy="52.26374811036362" r="2" fill="rgb(0,255,0)"/><circle cx="171.21212121212122" cy="51.86439155600834" r="2" fill="rgb(0,255,0)"/><circle cx="176.26262626262627" cy="51.96985346021137" r="2" fill="rgb(0,255,0)"/><circle cx="181.31313131313132" cy="51.80171122581794" r="2" fill="rgb(0,255,0)"/><circle cx="186.36363636363635" cy="51.67805703766385" r="2" fill="rgb(0,255,0)"/><circle cx="191.4141414141414" cy="51.67805703766385" r="2" fill="rgb(0,255,0)"/><circle cx="196.46464646464648" cy="51.59478984498742" r="2" fill="rgb(0,255,0)"/><circle cx="201.51515151515153" cy="51.73671313495345" r="2" fill="rgb(0,255,0)"/><circle cx="206.56565656565658" cy="51.58297942436434" r="2" fill="rgb(0,255,0)"/><circle cx="211.61616161616163" cy="51.63365730898818" r="2" fill="rgb(0,255,0)"/><circle cx="216.66666666666666" cy="51.496096151458346" r="2" fill="rgb(0,255,0)"/><circle cx="221.7171717171717" cy="51.543320058048664" r="2" fill="rgb(0,255,0)"/><circle cx="226.76767676767676" cy="51.45686422350076" r="2" fill="rgb(0,255,0)"/><circle cx="231.8181818181818" cy="51.56463498522294" r="2" fill="rgb(0,255,0)"/><circle cx="236.86868686868686" cy="50.510399069627226" r="2" fill="rgb(0,255,0)"/><circle cx="241.91919191919192" cy="51.29840374814967" r="2" fill="rgb(0,255,0)"/><circle cx="246.96969696969697" cy="51.553826543993466" r="2" fill="rgb(0,255,0)"/><circle cx="252.02020202020202" cy="51.39297410282762" r="2" fill="rgb(0,255,0)"/><circle cx="257.07070707070704" cy="51.60493186697545" r="2" fill="rgb(0,255,0)"/><circle cx="262.1212121212121" cy="51.41606995058925" r="2" fill="rgb(0,255,0)"/><circle cx="267.1717171717172" cy="51.30589126298241" r="2" fill="rgb(0,255,0)"/><circle cx="272.2222222222222" cy="51.30589126298241" r="2" fill="rgb(0,255,0)"/><circle cx="277.27272727272725" cy="51.30589126298241" r="2" fill="rgb(0,255,0)"/><circle cx="282.32323232323233" cy="51.30589126298241" r="2" fill="rgb(0,255,0)"/><circle cx="287.3737373737374" cy="51.22034525021712" r="2" fill="rgb(0,255,0)"/><circle cx="292.42424242424244" cy="51.23830025832552" r="2" fill="rgb(0,255,0)"/><circle cx="297.47474747474746" cy="51.23830025832552" r="2" fill="rgb(0,255,0)"/><circle cx="302.52525252525254" cy="51.24399180085874" r="2" fill="rgb(0,255,0)"/><circle cx="307.57575757575756" cy="51.24506910870008" r="2" fill="rgb(0,255,0)"/><circle cx="312.62626262626264" cy="51.219435428434565" r="2" fill="rgb(0,255,0)"/><circle cx="317.67676767676767" cy="51.24506910870008" r="2" fill="rgb(0,255,0)"/><circle cx="322.7272727272727" cy="51.219435428434565" r="2" fill="rgb(0,255,0)"/><circle cx="327.77777777777777" cy="50.22169439493473" r="2" fill="rgb(0,255,0)"/><circle cx="332.8282828282828" cy="50.22169439493473" r="2" fill="rgb(0,255,0)"/><circle cx="337.8787878787879" cy="50.22169439493473" r="2" fill="rgb(0,255,0)"/><circle cx="342.92929292929296" cy="50.286494644255356" r="2" fill="rgb(0,255,0)"/><circle cx="347.979797979798" cy="50.3898601555116" r="2" fill="rgb(0,255,0)"/><circle cx="353.03030303030306" cy="50.523979482889956" r="2" fill="rgb(0,255,0)"/><circle cx="358.0808080808081" cy="50.40086369376013" r="2" fill="rgb(0,255,0)"/><circle cx="363.13131313131316" cy="50.52779312220912" r="2" fill="rgb(0,255,0)"/><circle cx="368.1818181818182" cy="50.38635292873124" r="2" fill="rgb(0,255,0)"/><circle cx="373.23232323232327" cy="50.617716703157555" r="2" fill="rgb(0,255,0)"/><circle cx="378.2828282828283" cy="50.41672576086137" r="2" fill="rgb(0,255,0)"/><circle cx="383.3333333333333" cy="50.4346228611451" r="2" fill="rgb(0,255,0)"/><circle cx="388.3838383838384" cy="50.14006503783759" r="2" fill="rgb(0,255,0)"/><circle cx="393.4343434343434" cy="50.294628591072865" r="2" fill="rgb(0,255,0)"/><circle cx="398.4848484848485" cy="50.27007221864869" r="2" fill="rgb(0,255,0)"/><circle cx="403.5353535353535" cy="50.16087224065245" r="2" fill="rgb(0,255,0)"/><circle cx="408.58585858585855" cy="50.27007221864869" r="2" fill="rgb(0,255,0)"/><circle cx="413.6363636363636" cy="50.19713802251056" r="2" fill="rgb(0,255,0)"/><circle cx="418.68686868686865" cy="50.18501634018588" r="2" fill="rgb(0,255,0)"/><circle cx="423.73737373737373" cy="50.2037675255487" r="2" fill="rgb(0,255,0)"/><circle cx="428.7878787878788" cy="50.13631586822828" r="2" fill="rgb(0,255,0)"/><circle cx="433.83838383838383" cy="50.0" r="2" fill="rgb(0,255,0)"/><circle cx="438.8888888888889" cy="50.25243841215348" r="2" fill="rgb(0,255,0)"/><circle cx="443.93939393939394" cy="50.0540625869275" r="2" fill="rgb(0,255,0)"/><circle cx="448.989898989899" cy="50.07244029529437" r="2" fill="rgb(0,255,0)"/><circle cx="454.04040404040404" cy="50.032704773909074" r="2" fill="rgb(0,255,0)"/><circle cx="459.0909090909091" cy="50.032704773909074" r="2" fill="rgb(0,255,0)"/><circle cx="464.14141414141415" cy="50.032704773909074" r="2" fill="rgb(0,255,0)"/><circle cx="469.19191919191917" cy="50.09304422683897" r="2" fill="rgb(0,255,0)"/><circle cx="474.24242424242425" cy="50.032704773909074" r="2" fill="rgb(0,255,0)"/><circle cx="479.2929292929293" cy="50.032704773909074" r="2" fill="rgb(0,255,0)"/><circle cx="484.34343434343435" cy="50.07105352638496" r="2" fill="rgb(0,255,0)"/><circle cx="489.3939393939394" cy="50.04376099766438" r="2" fill="rgb(0,255,0)"/><circle cx="494.4444444444444" cy="50.032704773909074" r="2" fill="rgb(0,255,0)"/><circle cx="499.4949494949495" cy="50.00814840148496" r="2" fill="rgb(0,255,0)"/><circle cx="504.5454545454545" cy="50.00814840148496" r="2" fill="rgb(0,255,0)"/><circle cx="509.59595959595964" cy="50.013384821350144" r="2" fill="rgb(0,255,0)"/><circle cx="514.6464646464647" cy="50.00814840148496" r="2" fill="rgb(0,255,0)"/><circle cx="519.6969696969697" cy="50.00814840148496" r="2" fill="rgb(0,255,0)"/><circle cx="524.7474747474748" cy="50.00149343338114" r="2" fill="rgb(0,255,0)"/><circle cx="529.7979797979798" cy="50.00814840148496" r="2" fill="rgb(0,255,0)"/><circle cx="534.8484848484849" cy="50.00814840148496" r="2" fill="rgb(0,255,0)"/><circle cx="539.8989898989898" cy="50.00814840148496" r="2" fill="rgb(0,255,0)"/><circle cx="544.9494949494949" cy="50.00814840148496" r="2" fill="rgb(0,255,0)"/><circle cx="550.0" cy="50.00814840148496" r="2" fill="rgb(0,255,0)"/><text x="350.0" y="20.0" text-anchor="middle" fill="rgb(0,0,0)" font-size="20.0">GA Demo</text><text x="350.0" y="575.0" text-anchor="middle" fill="rgb(0,0,0)" font-size="12.0">generation</text><text transform="rotate(-90.0 20.0 300.0)" x="20.0" y="300.0" text-anchor="middle" fill="rgb(0,0,0)" font-size="12.0">fitness</text><text x="620" y="62" fill="rgb(0,0,0)" font-size="12">min</text><text x="620" y="74" fill="rgb(0,0,255)" font-size="12">ave</text><text x="620" y="86" fill="rgb(0,255,0)" font-size="12">max</text>
      Sorry, your browser does not support inline SVG.
    </svg>