<?xml version='1.0' encoding='UTF-8'?>
<svg version="1.1" width="700.0" height="600.0" onload="init(evt)" xmlns="http://www.w3.org/2000/svg">
      <style>.caption {
  font-size: 14px;
  font-family: Georgia, serif;
}
</style>
      <script type="text/ecmascript"><![CDATA[
function init(evt) {
  if ( window.svgDocument == null ) {
    svgDocument = evt.target.ownerDocument;
  }
}

function RectHover(evt, i, c) {
  rect = svgDocument.getElementById('rect' + i);
  if( c != null ) {
    rect.setAttributeNS(null, "fill", c)  
  }
  tooltiptext = svgDocument.getElementById('tooltiptext' + i);
  tooltipbg = svgDocument.getElementById('tooltipbg' + i);
  if( tooltipbg != null) {
    tbb = tooltiptext.getBBox();
    tooltipbg.setAttributeNS(null, "width", tbb.width);
    tooltipbg.setAttributeNS(null, "height", tbb.height);
    tooltipbg.setAttributeNS(null, "x", tbb.x);
    tooltipbg.setAttributeNS(null, "y", tbb.y);
    tooltipbg.setAttributeNS(null, "visibility", "visible");
  }
  tooltiptext.setAttributeNS(null,"visibility","visible");
}

function RectUnhover(evt, i, c) {
  rect = svgDocument.getElementById('rect' + i);
  if( c != null ) {
    rect.setAttributeNS(null, "fill", c)  
  }
  tooltiptext = svgDocument.getElementById('tooltiptext' + i);
  tooltiptext.setAttributeNS(null,"visibility","hidden");
  tooltipbg = svgDocument.getElementById('tooltipbg' + i);
  if( tooltipbg != null ) {
    tooltipbg.setAttributeNS(null,"visibility","hidden");
  }
}
]]></script>
      <line x1="50.0" y1="550.0" x2="550.0" y2="550.0" stroke="rgb(0,0,0)" stroke-width="1"/><line x1="50.0" y1="550.0" x2="50.0" y2="50.0" stroke="rgb(0,0,0)" stroke-width="1"/><line x1="50.0" y1="550.0" x2="50.0" y2="50.0" stroke="rgb(192,192,192)" stroke-width="1"/><line x1="50.0" y1="548.0" x2="50.0" y2="552.0" stroke="rgb(192,192,192)" stroke-width="1"/><text text-anchor="middle" alignment-baseline="hanging" x="50.0" y="553.0" font-size="12.0">0</text><line x1="100.5050505050505" y1="550.0" x2="100.5050505050505" y2="50.0" stroke="rgb(192,192,192)" stroke-width="1"/><line x1="100.5050505050505" y1="548.0" x2="100.5050505050505" y2="552.0" stroke="rgb(192,192,192)" stroke-width="1"/><text text-anchor="middle" alignment-baseline="hanging" x="100.5050505050505" y="553.0" font-size="12.0">10</text><line x1="151.010101010101" y1="550.0" x2="151.010101010101" y2="50.0" stroke="rgb(192,192,192)" stroke-width="1"/><line x1="151.010101010101" y1="548.0" x2="151.010101010101" y2="552.0" stroke="rgb(192,192,192)" stroke-width="1"/><text text-anchor="middle" alignment-baseline="hanging" x="151.010101010101" y="553.0" font-size="12.0">20</text><line x1="201.51515151515153" y1="550.0" x2="201.51515151515153" y2="50.0" stroke="rgb(192,192,192)" stroke-width="1"/><line x1="201.51515151515153" y1="548.0" x2="201.51515151515153" y2="552.0" stroke="rgb(192,192,192)" stroke-width="1"/><text text-anchor="middle" alignment-baseline="hanging" x="201.51515151515153" y="553.0" font-size="12.0">30</text><line x1="252.02020202020202" y1="550.0" x2="252.02020202020202" y2="50.0" stroke="rgb(192,192,192)" stroke-width="1"/><line x1="252.02020202020202" y1="548.0" x2="252.02020202020202" y2="552.0" stroke="rgb(192,192,192)" stroke-width="1"/><text text-anchor="middle" alignment-baseline="hanging" x="252.02020202020202" y="553.0" font-size="12.0">40</text><line x1="302.52525252525254" y1="550.0" x2="302.52525252525254" y2="50.0" stroke="rgb(192,192,192)" stroke-width="1"/><line x1="302.52525252525254" y1="548.0" x2="302.52525252525254" y2="552.0" stroke="rgb(192,192,192)" stroke-width="1"/><text text-anchor="middle" alignment-baseline="hanging" x="302.52525252525254" y="553.0" font-size="12.0">50</text><line x1="353.03030303030306" y1="550.0" x2="353.03030303030306" y2="50.0" stroke="rgb(192,192,192)" stroke-width="1"/><line x1="353.03030303030306" y1="548.0" x2="353.03030303030306" y2="552.0" stroke="rgb(192,192,192)" stroke-width="1"/><text text-anchor="middle" alignment-baseline="hanging" x="353.03030303030306" y="553.0" font-size="12.0">60</text><line x1="403.5353535353535" y1="550.0" x2="403.5353535353535" y2="50.0" stroke="rgb(192,192,192)" stroke-width="1"/><line x1="403.5353535353535" y1="548.0" x2="403.5353535353535" y2="552.0" stroke="rgb(192,192,192)" stroke-width="1"/><text text-anchor="middle" alignment-baseline="hanging" x="403.5353535353535" y="553.0" font-size="12.0">70</text><line x1="454.04040404040404" y1="550.0" x2="454.04040404040404" y2="50.0" stroke="rgb(192,192,192)" stroke-width="1"/><line x1="454.04040404040404" y1="548.0" x2="454.04040404040404" y2="552.0" stroke="rgb(192,192,192)" stroke-width="1"/><text text-anchor="middle" alignment-baseline="hanging" x="454.04040404040404" y="553.0" font-size="12.0">80</text><line x1="504.5454545454545" y1="550.0" x2="504.5454545454545" y2="50.0" stroke="rgb(192,192,192)" stroke-width="1"/><line x1="504.5454545454545" y1="548.0" x2="504.5454545454545" y2="552.0" stroke="rgb(192,192,192)" stroke-width="1"/><text text-anchor="middle" alignment-baseline="hanging" x="504.5454545454545" y="553.0" font-size="12.0">90</text><line x1="50.0" y1="550.0" x2="550.0" y2="550.0" stroke="rgb(192,192,192)" stroke-width="1"/><text text-anchor="end" alignment-baseline="middle" x="45.0" y="550.0" font-size="12.0">0.0</text><line x1="48.0" y1="550.0" x2="52.0" y2="550.0" stroke="rgb(192,192,192)" stroke-width="1"/><line x1="50.0" y1="367.37255407838506" x2="550.0" y2="367.37255407838506" stroke="rgb(192,192,192)" stroke-width="1"/><text text-anchor="end" alignment-baseline="middle" x="45.0" y="367.37255407838506" font-size="12.0">1000.0</text><line x1="48.0" y1="367.37255407838506" x2="52.0" y2="367.37255407838506" stroke="rgb(192,192,192)" stroke-width="1"/><line x1="50.0" y1="184.74510815677013" x2="550.0" y2="184.74510815677013" stroke="rgb(192,192,192)" stroke-width="1"/><text text-anchor="end" alignment-baseline="middle" x="45.0" y="184.74510815677013" font-size="12.0">2000.0</text><line x1="48.0" y1="184.74510815677013" x2="52.0" y2="184.74510815677013" stroke="rgb(192,192,192)" stroke-width="1"/><polyline points="50.0,432.5122853031293 55.05050505050505,433.8930885462969 60.101010101010104,433.8814247980856 65.15151515151516,432.81878739369427 70.20202020202021,430.85631815925217 75.25252525252526,414.7809784177123 80.30303030303031,414.1413435587863 85.35353535353535,413.27137737443843 90.40404040404042,348.9583702370096 95.45454545454545,348.64901572806957 100.5050505050505,377.8086190178609 105.55555555555554,425.2608811352237 110.60606060606061,420.5133139549016 115.65656565656566,402.2505693627402 120.7070707070707,403.2965523500827 125.75757575757576,417.8836921270906 130.80808080808083,401.20054108166573 135.85858585858585,401.1592553706274 140.9090909090909,411.10216860881303 145.95959595959596,410.910382756687 151.010101010101,304.458277264006 156.06060606060606,303.98223355178084 161.1111111111111,342.0882316797593 166.16161616161617,370.88750820352095 171.21212121212122,370.30525837381526 176.26262626262627,112.48971863946866 181.31313131313132,372.0523861815164 186.36363636363635,246.81465531151844 191.4141414141414,407.57302174408625 196.46464646464648,407.2346511571168 201.51515151515153,409.0731191168463 206.56565656565658,406.90930735978543 211.61616161616163,383.7539599619786 216.66666666666666,386.6114411507323 221.7171717171717,413.1777773590637 226.76767676767676,369.16503429848575 231.8181818181818,400.4635888226548 236.86868686868686,359.9140085391399 241.91919191919192,328.6662892581363 246.96969696969697,354.99718427432174 252.02020202020202,328.3921170756322 257.07070707070704,412.0049362137743 262.1212121212121,196.76831252338764 267.1717171717172,165.8524852914357 272.2222222222222,291.18495978432577 277.27272727272725,406.6277080352776 282.32323232323233,130.65899272880415 287.3737373737374,333.83133774464284 292.42424242424244,370.94744480060615 297.47474747474746,394.4798970523002 302.52525252525254,337.4699343847084 307.57575757575756,407.159954038416 312.62626262626264,353.9004934031246 317.67676767676767,413.002717245914 322.7272727272727,381.91341356409094 327.77777777777777,381.91341356409094 332.8282828282828,364.9670873640719 337.8787878787879,403.8042873270755 342.92929292929296,404.87192535195834 347.979797979798,373.22677984749527 353.03030303030306,402.3330175323525 358.0808080808081,268.3560755229215 363.13131313131316,71.45545380670796 368.1818181818182,200.29755028408664 373.23232323232327,82.46534127654792 378.2828282828283,391.236032169438 383.3333333333333,391.3347770164504 388.3838383838384,396.57299172773116 393.4343434343434,413.6222911913445 398.4848484848485,373.33519444643275 403.5353535353535,373.14950768615756 408.58585858585855,373.15680816323436 413.6363636363636,373.4515014918304 418.68686868686865,397.46585456988237 423.73737373737373,379.20104431877087 428.7878787878788,379.79619107514804 433.83838383838383,382.10158552763903 438.8888888888889,380.2350927998683 443.93939393939394,380.4309435954958 448.989898989899,380.09289370831095 454.04040404040404,380.0841861720522 459.0909090909091,367.9431593923432 464.14141414141415,240.8733866706122 469.19191919191917,344.5896176245925 474.24242424242425,346.9080845488008 479.2929292929293,360.779055896462 484.34343434343435,374.0445971431443 489.3939393939394,372.24362413341373 494.4444444444444,240.23218815112074 499.4949494949495,336.5202977671993 504.5454545454545,398.4494612587141 509.59595959595964,394.20464038799423 514.6464646464647,394.5097652004707 519.6969696969697,394.37702834993735 524.7474747474748,393.53062723718597 529.7979797979798,411.44480121200604 534.8484848484849,411.44480121200604 539.8989898989898,399.58642021167327 544.9494949494949,401.0375371456256 550.0,401.1311957219701" fill="none" stroke="rgb(0,0,0)" stroke-width="1"/><circle cx="50.0" cy="432.5122853031293" r="2" fill="rgb(0,0,0)"/><circle cx="55.05050505050505" cy="433.8930885462969" r="2" fill="rgb(0,0,0)"/><circle cx="60.101010101010104" cy="433.8814247980856" r="2" fill="rgb(0,0,0)"/><circle cx="65.15151515151516" cy="432.81878739369427" r="2" fill="rgb(0,0,0)"/><circle cx="70.20202020202021" cy="430.85631815925217" r="2" fill="rgb(0,0,0)"/><circle cx="75.25252525252526" cy="414.7809784177123" r="2" fill="rgb(0,0,0)"/><circle cx="80.30303030303031" cy="414.1413435587863" r="2" fill="rgb(0,0,0)"/><circle cx="85.35353535353535" cy="413.27137737443843" r="2" fill="rgb(0,0,0)"/><circle cx="90.40404040404042" cy="348.9583702370096" r="2" fill="rgb(0,0,0)"/><circle cx="95.45454545454545" cy="348.64901572806957" r="2" fill="rgb(0,0,0)"/><circle cx="100.5050505050505" cy="377.8086190178609" r="2" fill="rgb(0,0,0)"/><circle cx="105.55555555555554" cy="425.2608811352237" r="2" fill="rgb(0,0,0)"/><circle cx="110.60606060606061" cy="420.5133139549016" r="2" fill="rgb(0,0,0)"/><circle cx="115.65656565656566" cy="402.2505693627402" r="2" fill="rgb(0,0,0)"/><circle cx="120.7070707070707" cy="403.2965523500827" r="2" fill="rgb(0,0,0)"/><circle cx="125.75757575757576" cy="417.8836921270906" r="2" fill="rgb(0,0,0)"/><circle cx="130.80808080808083" cy="401.20054108166573" r="2" fill="rgb(0,0,0)"/><circle cx="135.85858585858585" cy="401.1592553706274" r="2" fill="rgb(0,0,0)"/><circle cx="140.9090909090909" cy="411.10216860881303" r="2" fill="rgb(0,0,0)"/><circle cx="145.95959595959596" cy="410.910382756687" r="2" fill="rgb(0,0,0)"/><circle cx="151.010101010101" cy="304.458277264006" r="2" fill="rgb(0,0,0)"/><circle cx="156.06060606060606" cy="303.98223355178084" r="2" fill="rgb(0,0,0)"/><circle cx="161.1111111111111" cy="342.0882316797593" r="2" fill="rgb(0,0,0)"/><circle cx="166.16161616161617" cy="370.88750820352095" r="2" fill="rgb(0,0,0)"/><circle cx="171.21212121212122" cy="370.30525837381526" r="2" fill="rgb(0,0,0)"/><circle cx="176.26262626262627" cy="112.48971863946866" r="2" fill="rgb(0,0,0)"/><circle cx="181.31313131313132" cy="372.0523861815164" r="2" fill="rgb(0,0,0)"/><circle cx="186.36363636363635" cy="246.81465531151844" r="2" fill="rgb(0,0,0)"/><circle cx="191.4141414141414" cy="407.57302174408625" r="2" fill="rgb(0,0,0)"/><circle cx="196.46464646464648" cy="407.2346511571168" r="2" fill="rgb(0,0,0)"/><circle cx="201.51515151515153" cy="409.0731191168463" r="2" fill="rgb(0,0,0)"/><circle cx="206.56565656565658" cy="406.90930735978543" r="2" fill="rgb(0,0,0)"/><circle cx="211.61616161616163" cy="383.7539599619786" r="2" fill="rgb(0,0,0)"/><circle cx="216.66666666666666" cy="386.6114411507323" r="2" fill="rgb(0,0,0)"/><circle cx="221.7171717171717" cy="413.1777773590637" r="2" fill="rgb(0,0,0)"/><circle cx="226.76767676767676" cy="369.16503429848575" r="2" fill="rgb(0,0,0)"/><circle cx="231.8181818181818" cy="400.4635888226548" r="2" fill="rgb(0,0,0)"/><circle cx="236.86868686868686" cy="359.9140085391399" r="2" fill="rgb(0,0,0)"/><circle cx="241.91919191919192" cy="328.6662892581363" r="2" fill="rgb(0,0,0)"/><circle cx="246.96969696969697" cy="354.99718427432174" r="2" fill="rgb(0,0,0)"/><circle cx="252.02020202020202" cy="328.3921170756322" r="2" fill="rgb(0,0,0)"/><circle cx="257.07070707070704" cy="412.0049362137743" r="2" fill="rgb(0,0,0)"/><circle cx="262.1212121212121" cy="196.76831252338764" r="2" fill="rgb(0,0,0)"/><circle cx="267.1717171717172" cy="165.8524852914357" r="2" fill="rgb(0,0,0)"/><circle cx="272.2222222222222" cy="291.18495978432577" r="2" fill="rgb(0,0,0)"/><circle cx="277.27272727272725" cy="406.6277080352776" r="2" fill="rgb(0,0,0)"/><circle cx="282.32323232323233" cy="130.65899272880415" r="2" fill="rgb(0,0,0)"/><circle cx="287.3737373737374" cy="333.83133774464284" r="2" fill="rgb(0,0,0)"/><circle cx="292.42424242424244" cy="370.94744480060615" r="2" fill="rgb(0,0,0)"/><circle cx="297.47474747474746" cy="394.4798970523002" r="2" fill="rgb(0,0,0)"/><circle cx="302.52525252525254" cy="337.4699343847084" r="2" fill="rgb(0,0,0)"/><circle cx="307.57575757575756" cy="407.159954038416" r="2" fill="rgb(0,0,0)"/><circle cx="312.62626262626264" cy="353.9004934031246" r="2" fill="rgb(0,0,0)"/><circle cx="317.67676767676767" cy="413.002717245914" r="2" fill="rgb(0,0,0)"/><circle cx="322.7272727272727" cy="381.91341356409094" r="2" fill="rgb(0,0,0)"/><circle cx="327.77777777777777" cy="381.91341356409094" r="2" fill="rgb(0,0,0)"/><circle cx="332.8282828282828" cy="364.9670873640719" r="2" fill="rgb(0,0,0)"/><circle cx="337.8787878787879" cy="403.8042873270755" r="2" fill="rgb(0,0,0)"/><circle cx="342.92929292929296" cy="404.87192535195834" r="2" fill="rgb(0,0,0)"/><circle cx="347.979797979798" cy="373.22677984749527" r="2" fill="rgb(0,0,0)"/><circle cx="353.03030303030306" cy="402.3330175323525" r="2" fill="rgb(0,0,0)"/><circle cx="358.0808080808081" cy="268.3560755229215" r="2" fill="rgb(0,0,0)"/><circle cx="363.13131313131316" cy="71.45545380670796" r="2" fill="rgb(0,0,0)"/><circle cx="368.1818181818182" cy="200.29755028408664" r="2" fill="rgb(0,0,0)"/><circle cx="373.23232323232327" cy="82.46534127654792" r="2" fill="rgb(0,0,0)"/><circle cx="378.2828282828283" cy="391.236032169438" r="2" fill="rgb(0,0,0)"/><circle cx="383.3333333333333" cy="391.3347770164504" r="2" fill="rgb(0,0,0)"/><circle cx="388.3838383838384" cy="396.57299172773116" r="2" fill="rgb(0,0,0)"/><circle cx="393.4343434343434" cy="413.6222911913445" r="2" fill="rgb(0,0,0)"/><circle cx="398.4848484848485" cy="373.33519444643275" r="2" fill="rgb(0,0,0)"/><circle cx="403.5353535353535" cy="373.14950768615756" r="2" fill="rgb(0,0,0)"/><circle cx="408.58585858585855" cy="373.15680816323436" r="2" fill="rgb(0,0,0)"/><circle cx="413.6363636363636" cy="373.4515014918304" r="2" fill="rgb(0,0,0)"/><circle cx="418.68686868686865" cy="397.46585456988237" r="2" fill="rgb(0,0,0)"/><circle cx="423.73737373737373" cy="379.20104431877087" r="2" fill="rgb(0,0,0)"/><circle cx="428.7878787878788" cy="379.79619107514804" r="2" fill="rgb(0,0,0)"/><circle cx="433.83838383838383" cy="382.10158552763903" r="2" fill="rgb(0,0,0)"/><circle cx="438.8888888888889" cy="380.2350927998683" r="2" fill="rgb(0,0,0)"/><circle cx="443.93939393939394" cy="380.4309435954958" r="2" fill="rgb(0,0,0)"/><circle cx="448.989898989899" cy="380.09289370831095" r="2" fill="rgb(0,0,0)"/><circle cx="454.04040404040404" cy="380.0841861720522" r="2" fill="rgb(0,0,0)"/><circle cx="459.0909090909091" cy="367.9431593923432" r="2" fill="rgb(0,0,0)"/><circle cx="464.14141414141415" cy="240.8733866706122" r="2" fill="rgb(0,0,0)"/><circle cx="469.19191919191917" cy="344.5896176245925" r="2" fill="rgb(0,0,0)"/><circle cx="474.24242424242425" cy="346.9080845488008" r="2" fill="rgb(0,0,0)"/><circle cx="479.2929292929293" cy="360.779055896462" r="2" fill="rgb(0,0,0)"/><circle cx="484.34343434343435" cy="374.0445971431443" r="2" fill="rgb(0,0,0)"/><circle cx="489.3939393939394" cy="372.24362413341373" r="2" fill="rgb(0,0,0)"/><circle cx="494.4444444444444" cy="240.23218815112074" r="2" fill="rgb(0,0,0)"/><circle cx="499.4949494949495" cy="336.5202977671993" r="2" fill="rgb(0,0,0)"/><circle cx="504.5454545454545" cy="398.4494612587141" r="2" fill="rgb(0,0,0)"/><circle cx="509.59595959595964" cy="394.20464038799423" r="2" fill="rgb(0,0,0)"/><circle cx="514.6464646464647" cy="394.5097652004707" r="2" fill="rgb(0,0,0)"/><circle cx="519.6969696969697" cy="394.37702834993735" r="2" fill="rgb(0,0,0)"/><circle cx="524.7474747474748" cy="393.53062723718597" r="2" fill="rgb(0,0,0)"/><circle cx="529.7979797979798" cy="411.44480121200604" r="2" fill="rgb(0,0,0)"/><circle cx="534.8484848484849" cy="411.44480121200604" r="2" fill="rgb(0,0,0)"/><circle cx="539.8989898989898" cy="399.58642021167327" r="2" fill="rgb(0,0,0)"/><circle cx="544.9494949494949" cy="401.0375371456256" r="2" fill="rgb(0,0,0)"/><circle cx="550.0" cy="401.1311957219701" r="2" fill="rgb(0,0,0)"/><polyline points="50.0,203.5244780638397 55.05050505050505,182.35222961953764 60.101010101010104,138.54675767860738 65.15151515151516,132.49061397037752 70.20202020202021,111.99127336196392 75.25252525252526,101.51432209069043 80.30303030303031,93.30465005931649 85.35353535353535,91.15880814617384 90.40404040404042,81.54100611250072 95.45454545454545,76.02609129675864 100.5050505050505,78.6543610807837 105.55555555555554,75.15181868063257 110.60606060606061,73.90866795165215 115.65656565656566,76.87892143696172 120.7070707070707,87.98867509227313 125.75757575757576,77.3561593904866 130.80808080808083,65.20308126428625 135.85858585858585,60.27896240364305 140.9090909090909,61.013570538890065 145.95959595959596,64.09553965497776 151.010101010101,64.36510202696536 156.06060606060606,63.792587119086306 161.1111111111111,63.49203276219839 166.16161616161617,63.508801970985076 171.21212121212122,60.440422408241034 176.26262626262627,54.145004892588474 181.31313131313132,60.669181706420375 186.36363636363635,57.93965499733423 191.4141414141414,58.71848586633507 196.46464646464648,69.15210062959545 201.51515151515153,72.19093818315844 206.56565656565658,79.44596540097581 211.61616161616163,71.22463850714547 216.66666666666666,66.85578688383333 221.7171717171717,68.46210401416437 226.76767676767676,61.86896256678722 231.8181818181818,58.155634140099664 236.86868686868686,63.42023840543641 241.91919191919192,64.10169331449163 246.96969696969697,67.87404219857342 252.02020202020202,61.0107098978238 257.07070707070704,65.63526848953876 262.1212121212121,57.780818179661935 267.1717171717172,54.33352777048185 272.2222222222222,57.08595691452666 277.27272727272725,57.950498120616146 282.32323232323233,53.36854541710068 287.3737373737374,60.50548170666957 292.42424242424244,63.539363273686774 297.47474747474746,61.90246442094741 302.52525252525254,55.79624446026787 307.57575757575756,70.40022928991431 312.62626262626264,61.99092498956503 317.67676767676767,66.07537584262428 322.7272727272727,56.850654358936936 327.77777777777777,66.74123423153964 332.8282828282828,61.204898214273214 337.8787878787879,72.6875616424748 342.92929292929296,71.47214690606694 347.979797979798,63.134871394162076 353.03030303030306,65.86145572793822 358.0808080808081,57.42381185533566 363.13131313131316,51.69091019077854 368.1818181818182,53.26825874832116 373.23232323232327,51.9602941709079 378.2828282828283,56.14039009728583 383.3333333333333,62.52285703028576 388.3838383838384,68.10746764729271 393.4343434343434,60.379883618169686 398.4848484848485,57.01320211658049 403.5353535353535,61.92115118580773 408.58585858585855,63.944067082562185 413.6363636363636,66.51426464745384 418.68686868686865,58.82149792684612 423.73737373737373,60.01167551961083 428.7878787878788,67.57547402192904 433.83838383838383,71.79500451422876 438.8888888888889,66.52083873565738 443.93939393939394,64.32524919751307 448.989898989899,62.57033658286451 454.04040404040404,56.710980426368565 459.0909090909091,56.415525768257396 464.14141414141415,56.60213958929177 469.19191919191917,58.06607153406003 474.24242424242425,62.86710804458244 479.2929292929293,68.02920220119455 484.34343434343435,66.92844125442502 489.3939393939394,67.61826224769084 494.4444444444444,55.61337326327248 499.4949494949495,58.51761249731089 504.5454545454545,61.80088122885775 509.59595959595964,56.23004074253106 514.6464646464647,66.64460139928718 519.6969696969697,70.51878109489206 524.7474747474748,73.95249834383702 529.7979797979798,72.76991847546617 534.8484848484849,67.60662575974476 539.8989898989898,73.0568231683485 544.9494949494949,62.45573009761557 550.0,64.79960090238745" fill="none" stroke="rgb(0,0,255)" stroke-width="1"/><circle cx="50.0" cy="203.5244780638397" r="2" fill="rgb(0,0,255)"/><circle cx="55.05050505050505" cy="182.35222961953764" r="2" fill="rgb(0,0,255)"/><circle cx="60.101010101010104" cy="138.54675767860738" r="2" fill="rgb(0,0,255)"/><circle cx="65.15151515151516" cy="132.49061397037752" r="2" fill="rgb(0,0,255)"/><circle cx="70.20202020202021" cy="111.99127336196392" r="2" fill="rgb(0,0,255)"/><circle cx="75.25252525252526" cy="101.51432209069043" r="2" fill="rgb(0,0,255)"/><circle cx="80.30303030303031" cy="93.30465005931649" r="2" fill="rgb(0,0,255)"/><circle cx="85.35353535353535" cy="91.15880814617384" r="2" fill="rgb(0,0,255)"/><circle cx="90.40404040404042" cy="81.54100611250072" r="2" fill="rgb(0,0,255)"/><circle cx="95.45454545454545" cy="76.02609129675864" r="2" fill="rgb(0,0,255)"/><circle cx="100.5050505050505" cy="78.6543610807837" r="2" fill="rgb(0,0,255)"/><circle cx="105.55555555555554" cy="75.15181868063257" r="2" fill="rgb(0,0,255)"/><circle cx="110.60606060606061" cy="73.90866795165215" r="2" fill="rgb(0,0,255)"/><circle cx="115.65656565656566" cy="76.87892143696172" r="2" fill="rgb(0,0,255)"/><circle cx="120.7070707070707" cy="87.98867509227313" r="2" fill="rgb(0,0,255)"/><circle cx="125.75757575757576" cy="77.3561593904866" r="2" fill="rgb(0,0,255)"/><circle cx="130.80808080808083" cy="65.20308126428625" r="2" fill="rgb(0,0,255)"/><circle cx="135.85858585858585" cy="60.27896240364305" r="2" fill="rgb(0,0,255)"/><circle cx="140.9090909090909" cy="61.013570538890065" r="2" fill="rgb(0,0,255)"/><circle cx="145.95959595959596" cy="64.09553965497776" r="2" fill="rgb(0,0,255)"/><circle cx="151.010101010101" cy="64.36510202696536" r="2" fill="rgb(0,0,255)"/><circle cx="156.06060606060606" cy="63.792587119086306" r="2" fill="rgb(0,0,255)"/><circle cx="161.1111111111111" cy="63.49203276219839" r="2" fill="rgb(0,0,255)"/><circle cx="166.16161616161617" cy="63.508801970985076" r="2" fill="rgb(0,0,255)"/><circle cx="171.21212121212122" cy="60.440422408241034" r="2" fill="rgb(0,0,255)"/><circle cx="176.26262626262627" cy="54.145004892588474" r="2" fill="rgb(0,0,255)"/><circle cx="181.31313131313132" cy="60.669181706420375" r="2" fill="rgb(0,0,255)"/><circle cx="186.36363636363635" cy="57.93965499733423" r="2" fill="rgb(0,0,255)"/><circle cx="191.4141414141414" cy="58.71848586633507" r="2" fill="rgb(0,0,255)"/><circle cx="196.46464646464648" cy="69.15210062959545" r="2" fill="rgb(0,0,255)"/><circle cx="201.51515151515153" cy="72.19093818315844" r="2" fill="rgb(0,0,255)"/><circle cx="206.56565656565658" cy="79.44596540097581" r="2" fill="rgb(0,0,255)"/><circle cx="211.61616161616163" cy="71.22463850714547" r="2" fill="rgb(0,0,255)"/><circle cx="216.66666666666666" cy="66.85578688383333" r="2" fill="rgb(0,0,255)"/><circle cx="221.7171717171717" cy="68.46210401416437" r="2" fill="rgb(0,0,255)"/><circle cx="226.76767676767676" cy="61.86896256678722" r="2" fill="rgb(0,0,255)"/><circle cx="231.8181818181818" cy="58.155634140099664" r="2" fill="rgb(0,0,255)"/><circle cx="236.86868686868686" cy="63.42023840543641" r="2" fill="rgb(0,0,255)"/><circle cx="241.91919191919192" cy="64.10169331449163" r="2" fill="rgb(0,0,255)"/><circle cx="246.96969696969697" cy="67.87404219857342" r="2" fill="rgb(0,0,255)"/><circle cx="252.02020202020202" cy="61.0107098978238" r="2" fill="rgb(0,0,255)"/><circle cx="257.07070707070704" cy="65.63526848953876" r="2" fill="rgb(0,0,255)"/><circle cx="262.1212121212121" cy="57.780818179661935" r="2" fill="rgb(0,0,255)"/><circle cx="267.1717171717172" cy="54.33352777048185" r="2" fill="rgb(0,0,255)"/><circle cx="272.2222222222222" cy="57.08595691452666" r="2" fill="rgb(0,0,255)"/><circle cx="277.27272727272725" cy="57.950498120616146" r="2" fill="rgb(0,0,255)"/><circle cx="282.32323232323233" cy="53.36854541710068" r="2" fill="rgb(0,0,255)"/><circle cx="287.3737373737374" cy="60.50548170666957" r="2" fill="rgb(0,0,255)"/><circle cx="292.42424242424244" cy="63.539363273686774" r="2" fill="rgb(0,0,255)"/><circle cx="297.47474747474746" cy="61.90246442094741" r="2" fill="rgb(0,0,255)"/><circle cx="302.52525252525254" cy="55.79624446026787" r="2" fill="rgb(0,0,255)"/><circle cx="307.57575757575756" cy="70.40022928991431" r="2" fill="rgb(0,0,255)"/><circle cx="312.62626262626264" cy="61.99092498956503" r="2" fill="rgb(0,0,255)"/><circle cx="317.67676767676767" cy="66.07537584262428" r="2" fill="rgb(0,0,255)"/><circle cx="322.7272727272727" cy="56.850654358936936" r="2" fill="rgb(0,0,255)"/><circle cx="327.77777777777777" cy="66.74123423153964" r="2" fill="rgb(0,0,255)"/><circle cx="332.8282828282828" cy="61.204898214273214" r="2" fill="rgb(0,0,255)"/><circle cx="337.8787878787879" cy="72.6875616424748" r="2" fill="rgb(0,0,255)"/><circle cx="342.92929292929296" cy="71.47214690606694" r="2" fill="rgb(0,0,255)"/><circle cx="347.979797979798" cy="63.134871394162076" r="2" fill="rgb(0,0,255)"/><circle cx="353.03030303030306" cy="65.86145572793822" r="2" fill="rgb(0,0,255)"/><circle cx="358.0808080808081" cy="57.42381185533566" r="2" fill="rgb(0,0,255)"/><circle cx="363.13131313131316" cy="51.69091019077854" r="2" fill="rgb(0,0,255)"/><circle cx="368.1818181818182" cy="53.26825874832116" r="2" fill="rgb(0,0,255)"/><circle cx="373.23232323232327" cy="51.9602941709079" r="2" fill="rgb(0,0,255)"/><circle cx="378.2828282828283" cy="56.14039009728583" r="2" fill="rgb(0,0,255)"/><circle cx="383.3333333333333" cy="62.52285703028576" r="2" fill="rgb(0,0,255)"/><circle cx="388.3838383838384" cy="68.10746764729271" r="2" fill="rgb(0,0,255)"/><circle cx="393.4343434343434" cy="60.379883618169686" r="2" fill="rgb(0,0,255)"/><circle cx="398.4848484848485" cy="57.01320211658049" r="2" fill="rgb(0,0,255)"/><circle cx="403.5353535353535" cy="61.92115118580773" r="2" fill="rgb(0,0,255)"/><circle cx="408.58585858585855" cy="63.944067082562185" r="2" fill="rgb(0,0,255)"/><circle cx="413.6363636363636" cy="66.51426464745384" r="2" fill="rgb(0,0,255)"/><circle cx="418.68686868686865" cy="58.82149792684612" r="2" fill="rgb(0,0,255)"/><circle cx="423.73737373737373" cy="60.01167551961083" r="2" fill="rgb(0,0,255)"/><circle cx="428.7878787878788" cy="67.57547402192904" r="2" fill="rgb(0,0,255)"/><circle cx="433.83838383838383" cy="71.79500451422876" r="2" fill="rgb(0,0,255)"/><circle cx="438.8888888888889" cy="66.52083873565738" r="2" fill="rgb(0,0,255)"/><circle cx="443.93939393939394" cy="64.32524919751307" r="2" fill="rgb(0,0,255)"/><circle cx="448.989898989899" cy="62.57033658286451" r="2" fill="rgb(0,0,255)"/><circle cx="454.04040404040404" cy="56.710980426368565" r="2" fill="rgb(0,0,255)"/><circle cx="459.0909090909091" cy="56.415525768257396" r="2" fill="rgb(0,0,255)"/><circle cx="464.14141414141415" cy="56.60213958929177" r="2" fill="rgb(0,0,255)"/><circle cx="469.19191919191917" cy="58.06607153406003" r="2" fill="rgb(0,0,255)"/><circle cx="474.24242424242425" cy="62.86710804458244" r="2" fill="rgb(0,0,255)"/><circle cx="479.2929292929293" cy="68.02920220119455" r="2" fill="rgb(0,0,255)"/><circle cx="484.34343434343435" cy="66.92844125442502" r="2" fill="rgb(0,0,255)"/><circle cx="489.3939393939394" cy="67.61826224769084" r="2" fill="rgb(0,0,255)"/><circle cx="494.4444444444444" cy="55.61337326327248" r="2" fill="rgb(0,0,255)"/><circle cx="499.4949494949495" cy="58.51761249731089" r="2" fill="rgb(0,0,255)"/><circle cx="504.5454545454545" cy="61.80088122885775" r="2" fill="rgb(0,0,255)"/><circle cx="509.59595959595964" cy="56.23004074253106" r="2" fill="rgb(0,0,255)"/><circle cx="514.6464646464647" cy="66.64460139928718" r="2" fill="rgb(0,0,255)"/><circle cx="519.6969696969697" cy="70.51878109489206" r="2" fill="rgb(0,0,255)"/><circle cx="524.7474747474748" cy="73.95249834383702" r="2" fill="rgb(0,0,255)"/><circle cx="529.7979797979798" cy="72.76991847546617" r="2" fill="rgb(0,0,255)"/><circle cx="534.8484848484849" cy="67.60662575974476" r="2" fill="rgb(0,0,255)"/><circle cx="539.8989898989898" cy="73.0568231683485" r="2" fill="rgb(0,0,255)"/><circle cx="544.9494949494949" cy="62.45573009761557" r="2" fill="rgb(0,0,255)"/><circle cx="550.0" cy="64.79960090238745" r="2" fill="rgb(0,0,255)"/><polyline points="50.0,53.84739456001756 55.05050505050505,53.31765316007562 60.101010101010104,52.933944182012226 65.15151515151516,52.31141235547142 70.20202020202021,52.30031991647377 75.25252525252526,52.544249610147915 80.30303030303031,53.42356582427698 85.35353535353535,53.46486054634602 90.40404040404042,52.76293779575923 95.45454545454545,52.76293779575923 100.5050505050505,52.2972442771474 105.55555555555554,52.2972442771474 110.60606060606061,52.91935693934266 115.65656565656566,51.70995353366595 120.7070707070707,52.45818096930594 125.75757575757576,52.18639438838102 130.80808080808083,52.04887286663893 135.85858585858585,52.079705312373335 140.9090909090909,51.350614193225056 145.95959595959596,50.767767800515685 151.010101010101,51.33273827306948 156.06060606060606,51.472153411780084 161.1111111111111,50.97202319837112 166.16161616161617,51.0019975021836 171.21212121212122,50.89765656361453 176.26262626262627,51.31705140013173 181.31313131313132,51.04096346767369 186.36363636363635,50.90680091765461 191.4141414141414,50.76493026276546 196.46464646464648,50.94991307600583 201.51515151515153,50.727069207762554 206.56565656565658,50.67686083690569 211.61616161616163,50.727069207762554 216.66666666666666,50.65566770540801 221.7171717171717,50.73436968483935 226.76767676767676,50.44012431424164 231.8181818181818,50.53886916125401 236.86868686868686,50.666776495964996 241.91919191919192,50.53886916125401 246.96969696969697,50.584791453136006 252.02020202020202,50.584791453136006 257.07070707070704,50.584791453136006 262.1212121212121,50.5920919302128 267.1717171717172,50.584791453136006 272.2222222222222,50.351410672685404 277.27272727272725,50.41527083506725 282.32323232323233,50.43282383716479 287.3737373737374,50.56644882062665 292.42424242424244,50.44562877929445 297.47474747474746,50.5920919302128 302.52525252525254,50.584791453136006 307.57575757575756,50.40001778274325 312.62626262626264,50.584791453136006 317.67676767676767,50.48306023017659 322.7272727272727,50.426473672829616 327.77777777777777,50.475759753099794 332.8282828282828,50.416133676681 337.8787878787879,50.35532222965861 342.92929292929296,50.27304088532475 347.979797979798,50.382072585361016 353.03030303030306,50.34419232849575 358.0808080808081,50.26387785972304 363.13131313131316,50.25657738264624 368.1818181818182,50.25657738264624 373.23232323232327,50.26387785972304 378.2828282828283,50.31092114219001 383.3333333333333,50.31036276274534 388.3838383838384,50.30035984584828 393.4343434343434,50.20782029858816 398.4848484848485,50.24492090898002 403.5353535353535,50.35532222965861 408.58585858585855,50.35532222965861 413.6363636363636,50.24492090898002 418.68686868686865,50.257647377111425 423.73737373737373,50.194803275057666 428.7878787878788,50.21145193991026 433.83838383838383,50.30054085460665 438.8888888888889,50.13548931431137 443.93939393939394,50.288703372182056 448.989898989899,50.26872260961113 454.04040404040404,50.2932403775298 459.0909090909091,50.24143744967398 464.14141414141415,50.24143744967398 469.19191919191917,50.14254823237178 474.24242424242425,50.14254823237178 479.2929292929293,50.09084666782633 484.34343434343435,50.10796905304181 489.3939393939394,50.115971877270795 494.4444444444444,50.03405083277909 499.4949494949495,50.02675035570229 504.5454545454545,50.07115144317095 509.59595959595964,50.0 514.6464646464647,50.03405083277909 519.6969696969697,50.0965219986453 524.7474747474748,50.0073004770768 529.7979797979798,50.0073004770768 534.8484848484849,50.0073004770768 539.8989898989898,50.108430268877726 544.9494949494949,50.07706132847801 550.0,50.080710160522585" fill="none" stroke="rgb(0,255,0)" stroke-width="1"/><circle cx="50.0" cy="53.84739456001756" r="2" fill="rgb(0,255,0)"/><circle cx="55.05050505050505" cy="53.31765316007562" r="2" fill="rgb(0,255,0)"/><circle cx="60.101010101010104" cy="52.933944182012226" r="2" fill="rgb(0,255,0)"/><circle cx="65.15151515151516" cy="52.31141235547142" r="2" fill="rgb(0,255,0)"/><circle cx="70.20202020202021" cy="52.30031991647377" r="2" fill="rgb(0,255,0)"/><circle cx="75.25252525252526" cy="52.544249610147915" r="2" fill="rgb(0,255,0)"/><circle cx="80.30303030303031" cy="53.42356582427698" r="2" fill="rgb(0,255,0)"/><circle cx="85.35353535353535" cy="53.46486054634602" r="2" fill="rgb(0,255,0)"/><circle cx="90.40404040404042" cy="52.76293779575923" r="2" fill="rgb(0,255,0)"/><circle cx="95.45454545454545" cy="52.76293779575923" r="2" fill="rgb(0,255,0)"/><circle cx="100.5050505050505" cy="52.2972442771474" r="2" fill="rgb(0,255,0)"/><circle cx="105.55555555555554" cy="52.2972442771474" r="2" fill="rgb(0,255,0)"/><circle cx="110.60606060606061" cy="52.91935693934266" r="2" fill="rgb(0,255,0)"/><circle cx="115.65656565656566" cy="51.70995353366595" r="2" fill="rgb(0,255,0)"/><circle cx="120.7070707070707" cy="52.45818096930594" r="2" fill="rgb(0,255,0)"/><circle cx="125.75757575757576" cy="52.18639438838102" r="2" fill="rgb(0,255,0)"/><circle cx="130.80808080808083" cy="52.04887286663893" r="2" fill="rgb(0,255,0)"/><circle cx="135.85858585858585" cy="52.079705312373335" r="2" fill="rgb(0,255,0)"/><circle cx="140.9090909090909" cy="51.350614193225056" r="2" fill="rgb(0,255,0)"/><circle cx="145.95959595959596" cy="50.767767800515685" r="2" fill="rgb(0,255,0)"/><circle cx="151.010101010101" cy="51.33273827306948" r="2" fill="rgb(0,255,0)"/><circle cx="156.06060606060606" cy="51.472153411780084" r="2" fill="rgb(0,255,0)"/><circle cx="161.1111111111111" cy="50.97202319837112" r="2" fill="rgb(0,255,0)"/><circle cx="166.16161616161617" cy="51.0019975021836" r="2" fill="rgb(0,255,0)"/><circle cx="171.21212121212122" cy="50.89765656361453" r="2" fill="rgb(0,255,0)"/><circle cx="176.26262626262627" cy="51.31705140013173" r="2" fill="rgb(0,255,0)"/><circle cx="181.31313131313132" cy="51.04096346767369" r="2" fill="rgb(0,255,0)"/><circle cx="186.36363636363635" cy="50.90680091765461" r="2" fill="rgb(0,255,0)"/><circle cx="191.4141414141414" cy="50.76493026276546" r="2" fill="rgb(0,255,0)"/><circle cx="196.46464646464648" cy="50.94991307600583" r="2" fill="rgb(0,255,0)"/><circle cx="201.51515151515153" cy="50.727069207762554" r="2" fill="rgb(0,255,0)"/><circle cx="206.56565656565658" cy="50.67686083690569" r="2" fill="rgb(0,255,0)"/><circle cx="211.61616161616163" cy="50.727069207762554" r="2" fill="rgb(0,255,0)"/><circle cx="216.66666666666666" cy="50.65566770540801" r="2" fill="rgb(0,255,0)"/><circle cx="221.7171717171717" cy="50.73436968483935" r="2" fill="rgb(0,255,0)"/><circle cx="226.76767676767676" cy="50.44012431424164" r="2" fill="rgb(0,255,0)"/><circle cx="231.8181818181818" cy="50.53886916125401" r="2" fill="rgb(0,255,0)"/><circle cx="236.86868686868686" cy="50.666776495964996" r="2" fill="rgb(0,255,0)"/><circle cx="241.91919191919192" cy="50.53886916125401" r="2" fill="rgb(0,255,0)"/><circle cx="246.96969696969697" cy="50.584791453136006" r="2" fill="rgb(0,255,0)"/><circle cx="252.02020202020202" cy="50.584791453136006" r="2" fill="rgb(0,255,0)"/><circle cx="257.07070707070704" cy="50.584791453136006" r="2" fill="rgb(0,255,0)"/><circle cx="262.1212121212121" cy="50.5920919302128" r="2" fill="rgb(0,255,0)"/><circle cx="267.1717171717172" cy="50.584791453136006" r="2" fill="rgb(0,255,0)"/><circle cx="272.2222222222222" cy="50.351410672685404" r="2" fill="rgb(0,255,0)"/><circle cx="277.27272727272725" cy="50.41527083506725" r="2" fill="rgb(0,255,0)"/><circle cx="282.32323232323233" cy="50.43282383716479" r="2" fill="rgb(0,255,0)"/><circle cx="287.3737373737374" cy="50.56644882062665" r="2" fill="rgb(0,255,0)"/><circle cx="292.42424242424244" cy="50.44562877929445" r="2" fill="rgb(0,255,0)"/><circle cx="297.47474747474746" cy="50.5920919302128" r="2" fill="rgb(0,255,0)"/><circle cx="302.52525252525254" cy="50.584791453136006" r="2" fill="rgb(0,255,0)"/><circle cx="307.57575757575756" cy="50.40001778274325" r="2" fill="rgb(0,255,0)"/><circle cx="312.62626262626264" cy="50.584791453136006" r="2" fill="rgb(0,255,0)"/><circle cx="317.67676767676767" cy="50.48306023017659" r="2" fill="rgb(0,255,0)"/><circle cx="322.7272727272727" cy="50.426473672829616" r="2" fill="rgb(0,255,0)"/><circle cx="327.77777777777777" cy="50.475759753099794" r="2" fill="rgb(0,255,0)"/><circle cx="332.8282828282828" cy="50.416133676681" r="2" fill="rgb(0,255,0)"/><circle cx="337.8787878787879" cy="50.35532222965861" r="2" fill="rgb(0,255,0)"/><circle cx="342.92929292929296" cy="50.27304088532475" r="2" fill="rgb(0,255,0)"/><circle cx="347.979797979798" cy="50.382072585361016" r="2" fill="rgb(0,255,0)"/><circle cx="353.03030303030306" cy="50.34419232849575" r="2" fill="rgb(0,255,0)"/><circle cx="358.0808080808081" cy="50.26387785972304" r="2" fill="rgb(0,255,0)"/><circle cx="363.13131313131316" cy="50.25657738264624" r="2" fill="rgb(0,255,0)"/><circle cx="368.1818181818182" cy="50.25657738264624" r="2" fill="rgb(0,255,0)"/><circle cx="373.23232323232327" cy="50.26387785972304" r="2" fill="rgb(0,255,0)"/><circle cx="378.2828282828283" cy="50.31092114219001" r="2" fill="rgb(0,255,0)"/><circle cx="383.3333333333333" cy="50.31036276274534" r="2" fill="rgb(0,255,0)"/><circle cx="388.3838383838384" cy="50.30035984584828" r="2" fill="rgb(0,255,0)"/><circle cx="393.4343434343434" cy="50.20782029858816" r="2" fill="rgb(0,255,0)"/><circle cx="398.4848484848485" cy="50.24492090898002" r="2" fill="rgb(0,255,0)"/><circle cx="403.5353535353535" cy="50.35532222965861" r="2" fill="rgb(0,255,0)"/><circle cx="408.58585858585855" cy="50.35532222965861" r="2" fill="rgb(0,255,0)"/><circle cx="413.6363636363636" cy="50.24492090898002" r="2" fill="rgb(0,255,0)"/><circle cx="418.68686868686865" cy="50.257647377111425" r="2" fill="rgb(0,255,0)"/><circle cx="423.73737373737373" cy="50.194803275057666" r="2" fill="rgb(0,255,0)"/><circle cx="428.7878787878788" cy="50.21145193991026" r="2" fill="rgb(0,255,0)"/><circle cx="433.83838383838383" cy="50.30054085460665" r="2" fill="rgb(0,255,0)"/><circle cx="438.8888888888889" cy="50.13548931431137" r="2" fill="rgb(0,255,0)"/><circle cx="443.93939393939394" cy="50.288703372182056" r="2" fill="rgb(0,255,0)"/><circle cx="448.989898989899" cy="50.26872260961113" r="2" fill="rgb(0,255,0)"/><circle cx="454.04040404040404" cy="50.2932403775298" r="2" fill="rgb(0,255,0)"/><circle cx="459.0909090909091" cy="50.24143744967398" r="2" fill="rgb(0,255,0)"/><circle cx="464.14141414141415" cy="50.24143744967398" r="2" fill="rgb(0,255,0)"/><circle cx="469.19191919191917" cy="50.14254823237178" r="2" fill="rgb(0,255,0)"/><circle cx="474.24242424242425" cy="50.14254823237178" r="2" fill="rgb(0,255,0)"/><circle cx="479.2929292929293" cy="50.09084666782633" r="2" fill="rgb(0,255,0)"/><circle cx="484.34343434343435" cy="50.10796905304181" r="2" fill="rgb(0,255,0)"/><circle cx="489.3939393939394" cy="50.115971877270795" r="2" fill="rgb(0,255,0)"/><circle cx="494.4444444444444" cy="50.03405083277909" r="2" fill="rgb(0,255,0)"/><circle cx="499.4949494949495" cy="50.02675035570229" r="2" fill="rgb(0,255,0)"/><circle cx="504.5454545454545" cy="50.07115144317095" r="2" fill="rgb(0,255,0)"/><circle cx="509.59595959595964" cy="50.0" r="2" fill="rgb(0,255,0)"/><circle cx="514.6464646464647" cy="50.03405083277909" r="2" fill="rgb(0,255,0)"/><circle cx="519.6969696969697" cy="50.0965219986453" r="2" fill="rgb(0,255,0)"/><circle cx="524.7474747474748" cy="50.0073004770768" r="2" fill="rgb(0,255,0)"/><circle cx="529.7979797979798" cy="50.0073004770768" r="2" fill="rgb(0,255,0)"/><circle cx="534.8484848484849" cy="50.0073004770768" r="2" fill="rgb(0,255,0)"/><circle cx="539.8989898989898" cy="50.108430268877726" r="2" fill="rgb(0,255,0)"/><circle cx="544.9494949494949" cy="50.07706132847801" r="2" fill="rgb(0,255,0)"/><circle cx="550.0" cy="50.080710160522585" r="2" fill="rgb(0,255,0)"/><text x="350.0" y="20.0" text-anchor="middle" fill="rgb(0,0,0)" font-size="20.0">GA Demo</text><text x="350.0" y="575.0" text-anchor="middle" fill="rgb(0,0,0)" font-size="12.0">generation</text><text transform="rotate(-90.0 20.0 300.0)" x="20.0" y="300.0" text-anchor="middle" fill="rgb(0,0,0)" font-size="12.0">fitness</text><text x="620" y="62" fill="rgb(0,0,0)" font-size="12">min</text><text x="620" y="74" fill="rgb(0,0,255)" font-size="12">ave</text><text x="620" y="86" fill="rgb(0,255,0)" font-size="12">max</text>
      Sorry, your browser does not support inline SVG.
    </svg>