<?xml version='1.0' encoding='UTF-8'?>
<svg version="1.1" width="700.0" height="600.0" onload="init(evt)" xmlns="http://www.w3.org/2000/svg">
      <style>.caption {
  font-size: 14px;
  font-family: Georgia, serif;
}
</style>
      <script type="text/ecmascript"><![CDATA[
function init(evt) {
  if ( window.svgDocument == null ) {
    svgDocument = evt.target.ownerDocument;
  }
}

function RectHover(evt, i, c) {
  rect = svgDocument.getElementById('rect' + i);
  if( c != null ) {
    rect.setAttributeNS(null, "fill", c)  
  }
  tooltiptext = svgDocument.getElementById('tooltiptext' + i);
  tooltipbg = svgDocument.getElementById('tooltipbg' + i);
  if( tooltipbg != null) {
    tbb = tooltiptext.getBBox();
    tooltipbg.setAttributeNS(null, "width", tbb.width);
    tooltipbg.setAttributeNS(null, "height", tbb.height);
    tooltipbg.setAttributeNS(null, "x", tbb.x);
    tooltipbg.setAttributeNS(null, "y", tbb.y);
    tooltipbg.setAttributeNS(null, "visibility", "visible");
  }
  tooltiptext.setAttributeNS(null,"visibility","visible");
}

function RectUnhover(evt, i, c) {
  rect = svgDocument.getElementById('rect' + i);
  if( c != null ) {
    rect.setAttributeNS(null, "fill", c)  
  }
  tooltiptext = svgDocument.getElementById('tooltiptext' + i);
  tooltiptext.setAttributeNS(null,"visibility","hidden");
  tooltipbg = svgDocument.getElementById('tooltipbg' + i);
  if( tooltipbg != null ) {
    tooltipbg.setAttributeNS(null,"visibility","hidden");
  }
}
]]></script>
      <line x1="50.0" y1="550.0" x2="550.0" y2="550.0" stroke="rgb(0,0,0)" stroke-width="1"/><line x1="50.0" y1="550.0" x2="50.0" y2="50.0" stroke="rgb(0,0,0)" stroke-width="1"/><line x1="50.0" y1="550.0" x2="50.0" y2="50.0" stroke="rgb(192,192,192)" stroke-width="1"/><line x1="50.0" y1="548.0" x2="50.0" y2="552.0" stroke="rgb(192,192,192)" stroke-width="1"/><text text-anchor="middle" alignment-baseline="hanging" x="50.0" y="553.0" font-size="12.0">0</text><line x1="100.5050505050505" y1="550.0" x2="100.5050505050505" y2="50.0" stroke="rgb(192,192,192)" stroke-width="1"/><line x1="100.5050505050505" y1="548.0" x2="100.5050505050505" y2="552.0" stroke="rgb(192,192,192)" stroke-width="1"/><text text-anchor="middle" alignment-baseline="hanging" x="100.5050505050505" y="553.0" font-size="12.0">10</text><line x1="151.010101010101" y1="550.0" x2="151.010101010101" y2="50.0" stroke="rgb(192,192,192)" stroke-width="1"/><line x1="151.010101010101" y1="548.0" x2="151.010101010101" y2="552.0" stroke="rgb(192,192,192)" stroke-width="1"/><text text-anchor="middle" alignment-baseline="hanging" x="151.010101010101" y="553.0" font-size="12.0">20</text><line x1="201.51515151515153" y1="550.0" x2="201.51515151515153" y2="50.0" stroke="rgb(192,192,192)" stroke-width="1"/><line x1="201.51515151515153" y1="548.0" x2="201.51515151515153" y2="552.0" stroke="rgb(192,192,192)" stroke-width="1"/><text text-anchor="middle" alignment-baseline="hanging" x="201.51515151515153" y="553.0" font-size="12.0">30</text><line x1="252.02020202020202" y1="550.0" x2="252.02020202020202" y2="50.0" stroke="rgb(192,192,192)" stroke-width="1"/><line x1="252.02020202020202" y1="548.0" x2="252.02020202020202" y2="552.0" stroke="rgb(192,192,192)" stroke-width="1"/><text text-anchor="middle" alignment-baseline="hanging" x="252.02020202020202" y="553.0" font-size="12.0">40</text><line x1="302.52525252525254" y1="550.0" x2="302.52525252525254" y2="50.0" stroke="rgb(192,192,192)" stroke-width="1"/><line x1="302.52525252525254" y1="548.0" x2="302.52525252525254" y2="552.0" stroke="rgb(192,192,192)" stroke-width="1"/><text text-anchor="middle" alignment-baseline="hanging" x="302.52525252525254" y="553.0" font-size="12.0">50</text><line x1="353.03030303030306" y1="550.0" x2="353.03030303030306" y2="50.0" stroke="rgb(192,192,192)" stroke-width="1"/><line x1="353.03030303030306" y1="548.0" x2="353.03030303030306" y2="552.0" stroke="rgb(192,192,192)" stroke-width="1"/><text text-anchor="middle" alignment-baseline="hanging" x="353.03030303030306" y="553.0" font-size="12.0">60</text><line x1="403.5353535353535" y1="550.0" x2="403.5353535353535" y2="50.0" stroke="rgb(192,192,192)" stroke-width="1"/><line x1="403.5353535353535" y1="548.0" x2="403.5353535353535" y2="552.0" stroke="rgb(192,192,192)" stroke-width="1"/><text text-anchor="middle" alignment-baseline="hanging" x="403.5353535353535" y="553.0" font-size="12.0">70</text><line x1="454.04040404040404" y1="550.0" x2="454.04040404040404" y2="50.0" stroke="rgb(192,192,192)" stroke-width="1"/><line x1="454.04040404040404" y1="548.0" x2="454.04040404040404" y2="552.0" stroke="rgb(192,192,192)" stroke-width="1"/><text text-anchor="middle" alignment-baseline="hanging" x="454.04040404040404" y="553.0" font-size="12.0">80</text><line x1="504.5454545454545" y1="550.0" x2="504.5454545454545" y2="50.0" stroke="rgb(192,192,192)" stroke-width="1"/><line x1="504.5454545454545" y1="548.0" x2="504.5454545454545" y2="552.0" stroke="rgb(192,192,192)" stroke-width="1"/><text text-anchor="middle" alignment-baseline="hanging" x="504.5454545454545" y="553.0" font-size="12.0">90</text><line x1="50.0" y1="550.0" x2="550.0" y2="550.0" stroke="rgb(192,192,192)" stroke-width="1"/><text text-anchor="end" alignment-baseline="middle" x="45.0" y="550.0" font-size="12.0">0.0</text><line x1="48.0" y1="550.0" x2="52.0" y2="550.0" stroke="rgb(192,192,192)" stroke-width="1"/><line x1="50.0" y1="367.9000129825983" x2="550.0" y2="367.9000129825983" stroke="rgb(192,192,192)" stroke-width="1"/><text text-anchor="end" alignment-baseline="middle" x="45.0" y="367.9000129825983" font-size="12.0">1000.0</text><line x1="48.0" y1="367.9000129825983" x2="52.0" y2="367.9000129825983" stroke="rgb(192,192,192)" stroke-width="1"/><line x1="50.0" y1="185.8000259651966" x2="550.0" y2="185.8000259651966" stroke="rgb(192,192,192)" stroke-width="1"/><text text-anchor="end" alignment-baseline="middle" x="45.0" y="185.8000259651966" font-size="12.0">2000.0</text><line x1="48.0" y1="185.8000259651966" x2="52.0" y2="185.8000259651966" stroke="rgb(192,192,192)" stroke-width="1"/><polyline points="50.0,434.7321274741131 55.05050505050505,429.1586697212121 60.101010101010104,426.18406911503234 65.15151515151516,426.18406911503234 70.20202020202021,411.43719173714305 75.25252525252526,432.37019782458765 80.30303030303031,414.45878881658524 85.35353535353535,401.1349211087107 90.40404040404042,404.4288481810486 95.45454545454545,356.8838150758214 100.5050505050505,173.29052061128772 105.55555555555554,407.4538991887127 110.60606060606061,347.3504522214228 115.65656565656566,362.0165605001592 120.7070707070707,363.38770670803217 125.75757575757576,348.17209746862386 130.80808080808083,353.3452953851554 135.85858585858585,346.82849505175807 140.9090909090909,346.66755686120734 145.95959595959596,348.94092117924174 151.010101010101,332.8742175677663 156.06060606060606,387.2525287905619 161.1111111111111,384.4811644510232 166.16161616161617,350.6441300329652 171.21212121212122,410.7138887957334 176.26262626262627,410.7138887957334 181.31313131313132,420.06127189239106 186.36363636363635,402.09973367234204 191.4141414141414,287.0308146591544 196.46464646464648,250.28541377024015 201.51515151515153,216.66626918217008 206.56565656565658,390.22225295178555 211.61616161616163,329.3550894011679 216.66666666666666,266.73782443898557 221.7171717171717,238.93357708865523 226.76767676767676,357.2885260694269 231.8181818181818,357.35198832051776 236.86868686868686,357.7450718641247 241.91919191919192,344.6659356167778 246.96969696969697,383.23290869542996 252.02020202020202,376.43844378475626 257.07070707070704,297.7453745206353 262.1212121212121,297.5193662149459 267.1717171717172,348.58201468362995 272.2222222222222,374.13802128497764 277.27272727272725,410.6719931836476 282.32323232323233,384.2995758401433 287.3737373737374,342.31745896711635 292.42424242424244,401.31658020625036 297.47474747474746,401.36690031578155 302.52525252525254,401.46356015298255 307.57575757575756,406.32425463103095 312.62626262626264,362.1116384067651 317.67676767676767,396.6976043021788 322.7272727272727,396.6976043021788 327.77777777777777,399.07923911798594 332.8282828282828,400.88280761600254 337.8787878787879,358.0296364585219 342.92929292929296,410.9562146298213 347.979797979798,115.96284978375007 353.03030303030306,193.39946830165223 358.0808080808081,264.444919465004 363.13131313131316,398.95149891998653 368.1818181818182,406.02006753854175 373.23232323232327,408.44473884846536 378.2828282828283,408.31822230750925 383.3333333333333,408.07558851573225 388.3838383838384,326.55658735244526 393.4343434343434,191.34391590106378 398.4848484848485,259.2845726288505 403.5353535353535,364.2975567635557 408.58585858585855,394.8207951369759 413.6363636363636,394.7099959285875 418.68686868686865,378.14214491191774 423.73737373737373,303.6729558449925 428.7878787878788,364.4902324689739 433.83838383838383,369.90130879522724 438.8888888888889,366.86502717278574 443.93939393939394,365.6914360702168 448.989898989899,395.67027897278575 454.04040404040404,341.8275571984207 459.0909090909091,341.70339030092293 464.14141414141415,341.7371480443579 469.19191919191917,342.60044243009844 474.24242424242425,353.2832178765343 479.2929292929293,312.1024200180422 484.34343434343435,312.1050119051153 489.3939393939394,400.9670749168447 494.4444444444444,400.9632486435412 499.4949494949495,91.93085567120772 504.5454545454545,312.9222842265777 509.59595959595964,370.3914685499514 514.6464646464647,91.79213776627341 519.6969696969697,299.9564898365528 524.7474747474748,296.4576587164067 529.7979797979798,296.5624988779442 534.8484848484849,296.945272728411 539.8989898989898,375.38088181429265 544.9494949494949,328.9739239194772 550.0,272.829822445995" fill="none" stroke="rgb(0,0,0)" stroke-width="1"/><circle cx="50.0" cy="434.7321274741131" r="2" fill="rgb(0,0,0)"/><circle cx="55.05050505050505" cy="429.1586697212121" r="2" fill="rgb(0,0,0)"/><circle cx="60.101010101010104" cy="426.18406911503234" r="2" fill="rgb(0,0,0)"/><circle cx="65.15151515151516" cy="426.18406911503234" r="2" fill="rgb(0,0,0)"/><circle cx="70.20202020202021" cy="411.43719173714305" r="2" fill="rgb(0,0,0)"/><circle cx="75.25252525252526" cy="432.37019782458765" r="2" fill="rgb(0,0,0)"/><circle cx="80.30303030303031" cy="414.45878881658524" r="2" fill="rgb(0,0,0)"/><circle cx="85.35353535353535" cy="401.1349211087107" r="2" fill="rgb(0,0,0)"/><circle cx="90.40404040404042" cy="404.4288481810486" r="2" fill="rgb(0,0,0)"/><circle cx="95.45454545454545" cy="356.8838150758214" r="2" fill="rgb(0,0,0)"/><circle cx="100.5050505050505" cy="173.29052061128772" r="2" fill="rgb(0,0,0)"/><circle cx="105.55555555555554" cy="407.4538991887127" r="2" fill="rgb(0,0,0)"/><circle cx="110.60606060606061" cy="347.3504522214228" r="2" fill="rgb(0,0,0)"/><circle cx="115.65656565656566" cy="362.0165605001592" r="2" fill="rgb(0,0,0)"/><circle cx="120.7070707070707" cy="363.38770670803217" r="2" fill="rgb(0,0,0)"/><circle cx="125.75757575757576" cy="348.17209746862386" r="2" fill="rgb(0,0,0)"/><circle cx="130.80808080808083" cy="353.3452953851554" r="2" fill="rgb(0,0,0)"/><circle cx="135.85858585858585" cy="346.82849505175807" r="2" fill="rgb(0,0,0)"/><circle cx="140.9090909090909" cy="346.66755686120734" r="2" fill="rgb(0,0,0)"/><circle cx="145.95959595959596" cy="348.94092117924174" r="2" fill="rgb(0,0,0)"/><circle cx="151.010101010101" cy="332.8742175677663" r="2" fill="rgb(0,0,0)"/><circle cx="156.06060606060606" cy="387.2525287905619" r="2" fill="rgb(0,0,0)"/><circle cx="161.1111111111111" cy="384.4811644510232" r="2" fill="rgb(0,0,0)"/><circle cx="166.16161616161617" cy="350.6441300329652" r="2" fill="rgb(0,0,0)"/><circle cx="171.21212121212122" cy="410.7138887957334" r="2" fill="rgb(0,0,0)"/><circle cx="176.26262626262627" cy="410.7138887957334" r="2" fill="rgb(0,0,0)"/><circle cx="181.31313131313132" cy="420.06127189239106" r="2" fill="rgb(0,0,0)"/><circle cx="186.36363636363635" cy="402.09973367234204" r="2" fill="rgb(0,0,0)"/><circle cx="191.4141414141414" cy="287.0308146591544" r="2" fill="rgb(0,0,0)"/><circle cx="196.46464646464648" cy="250.28541377024015" r="2" fill="rgb(0,0,0)"/><circle cx="201.51515151515153" cy="216.66626918217008" r="2" fill="rgb(0,0,0)"/><circle cx="206.56565656565658" cy="390.22225295178555" r="2" fill="rgb(0,0,0)"/><circle cx="211.61616161616163" cy="329.3550894011679" r="2" fill="rgb(0,0,0)"/><circle cx="216.66666666666666" cy="266.73782443898557" r="2" fill="rgb(0,0,0)"/><circle cx="221.7171717171717" cy="238.93357708865523" r="2" fill="rgb(0,0,0)"/><circle cx="226.76767676767676" cy="357.2885260694269" r="2" fill="rgb(0,0,0)"/><circle cx="231.8181818181818" cy="357.35198832051776" r="2" fill="rgb(0,0,0)"/><circle cx="236.86868686868686" cy="357.7450718641247" r="2" fill="rgb(0,0,0)"/><circle cx="241.91919191919192" cy="344.6659356167778" r="2" fill="rgb(0,0,0)"/><circle cx="246.96969696969697" cy="383.23290869542996" r="2" fill="rgb(0,0,0)"/><circle cx="252.02020202020202" cy="376.43844378475626" r="2" fill="rgb(0,0,0)"/><circle cx="257.07070707070704" cy="297.7453745206353" r="2" fill="rgb(0,0,0)"/><circle cx="262.1212121212121" cy="297.5193662149459" r="2" fill="rgb(0,0,0)"/><circle cx="267.1717171717172" cy="348.58201468362995" r="2" fill="rgb(0,0,0)"/><circle cx="272.2222222222222" cy="374.13802128497764" r="2" fill="rgb(0,0,0)"/><circle cx="277.27272727272725" cy="410.6719931836476" r="2" fill="rgb(0,0,0)"/><circle cx="282.32323232323233" cy="384.2995758401433" r="2" fill="rgb(0,0,0)"/><circle cx="287.3737373737374" cy="342.31745896711635" r="2" fill="rgb(0,0,0)"/><circle cx="292.42424242424244" cy="401.31658020625036" r="2" fill="rgb(0,0,0)"/><circle cx="297.47474747474746" cy="401.36690031578155" r="2" fill="rgb(0,0,0)"/><circle cx="302.52525252525254" cy="401.46356015298255" r="2" fill="rgb(0,0,0)"/><circle cx="307.57575757575756" cy="406.32425463103095" r="2" fill="rgb(0,0,0)"/><circle cx="312.62626262626264" cy="362.1116384067651" r="2" fill="rgb(0,0,0)"/><circle cx="317.67676767676767" cy="396.6976043021788" r="2" fill="rgb(0,0,0)"/><circle cx="322.7272727272727" cy="396.6976043021788" r="2" fill="rgb(0,0,0)"/><circle cx="327.77777777777777" cy="399.07923911798594" r="2" fill="rgb(0,0,0)"/><circle cx="332.8282828282828" cy="400.88280761600254" r="2" fill="rgb(0,0,0)"/><circle cx="337.8787878787879" cy="358.0296364585219" r="2" fill="rgb(0,0,0)"/><circle cx="342.92929292929296" cy="410.9562146298213" r="2" fill="rgb(0,0,0)"/><circle cx="347.979797979798" cy="115.96284978375007" r="2" fill="rgb(0,0,0)"/><circle cx="353.03030303030306" cy="193.39946830165223" r="2" fill="rgb(0,0,0)"/><circle cx="358.0808080808081" cy="264.444919465004" r="2" fill="rgb(0,0,0)"/><circle cx="363.13131313131316" cy="398.95149891998653" r="2" fill="rgb(0,0,0)"/><circle cx="368.1818181818182" cy="406.02006753854175" r="2" fill="rgb(0,0,0)"/><circle cx="373.23232323232327" cy="408.44473884846536" r="2" fill="rgb(0,0,0)"/><circle cx="378.2828282828283" cy="408.31822230750925" r="2" fill="rgb(0,0,0)"/><circle cx="383.3333333333333" cy="408.07558851573225" r="2" fill="rgb(0,0,0)"/><circle cx="388.3838383838384" cy="326.55658735244526" r="2" fill="rgb(0,0,0)"/><circle cx="393.4343434343434" cy="191.34391590106378" r="2" fill="rgb(0,0,0)"/><circle cx="398.4848484848485" cy="259.2845726288505" r="2" fill="rgb(0,0,0)"/><circle cx="403.5353535353535" cy="364.2975567635557" r="2" fill="rgb(0,0,0)"/><circle cx="408.58585858585855" cy="394.8207951369759" r="2" fill="rgb(0,0,0)"/><circle cx="413.6363636363636" cy="394.7099959285875" r="2" fill="rgb(0,0,0)"/><circle cx="418.68686868686865" cy="378.14214491191774" r="2" fill="rgb(0,0,0)"/><circle cx="423.73737373737373" cy="303.6729558449925" r="2" fill="rgb(0,0,0)"/><circle cx="428.7878787878788" cy="364.4902324689739" r="2" fill="rgb(0,0,0)"/><circle cx="433.83838383838383" cy="369.90130879522724" r="2" fill="rgb(0,0,0)"/><circle cx="438.8888888888889" cy="366.86502717278574" r="2" fill="rgb(0,0,0)"/><circle cx="443.93939393939394" cy="365.6914360702168" r="2" fill="rgb(0,0,0)"/><circle cx="448.989898989899" cy="395.67027897278575" r="2" fill="rgb(0,0,0)"/><circle cx="454.04040404040404" cy="341.8275571984207" r="2" fill="rgb(0,0,0)"/><circle cx="459.0909090909091" cy="341.70339030092293" r="2" fill="rgb(0,0,0)"/><circle cx="464.14141414141415" cy="341.7371480443579" r="2" fill="rgb(0,0,0)"/><circle cx="469.19191919191917" cy="342.60044243009844" r="2" fill="rgb(0,0,0)"/><circle cx="474.24242424242425" cy="353.2832178765343" r="2" fill="rgb(0,0,0)"/><circle cx="479.2929292929293" cy="312.1024200180422" r="2" fill="rgb(0,0,0)"/><circle cx="484.34343434343435" cy="312.1050119051153" r="2" fill="rgb(0,0,0)"/><circle cx="489.3939393939394" cy="400.9670749168447" r="2" fill="rgb(0,0,0)"/><circle cx="494.4444444444444" cy="400.9632486435412" r="2" fill="rgb(0,0,0)"/><circle cx="499.4949494949495" cy="91.93085567120772" r="2" fill="rgb(0,0,0)"/><circle cx="504.5454545454545" cy="312.9222842265777" r="2" fill="rgb(0,0,0)"/><circle cx="509.59595959595964" cy="370.3914685499514" r="2" fill="rgb(0,0,0)"/><circle cx="514.6464646464647" cy="91.79213776627341" r="2" fill="rgb(0,0,0)"/><circle cx="519.6969696969697" cy="299.9564898365528" r="2" fill="rgb(0,0,0)"/><circle cx="524.7474747474748" cy="296.4576587164067" r="2" fill="rgb(0,0,0)"/><circle cx="529.7979797979798" cy="296.5624988779442" r="2" fill="rgb(0,0,0)"/><circle cx="534.8484848484849" cy="296.945272728411" r="2" fill="rgb(0,0,0)"/><circle cx="539.8989898989898" cy="375.38088181429265" r="2" fill="rgb(0,0,0)"/><circle cx="544.9494949494949" cy="328.9739239194772" r="2" fill="rgb(0,0,0)"/><circle cx="550.0" cy="272.829822445995" r="2" fill="rgb(0,0,0)"/><polyline points="50.0,221.72595745653302 55.05050505050505,199.86741644539495 60.101010101010104,180.87354449101088 65.15151515151516,152.64327749453162 70.20202020202021,124.910502437525 75.25252525252526,119.89363054038768 80.30303030303031,114.69928502222251 85.35353535353535,99.97451127586197 90.40404040404042,90.27295500472695 95.45454545454545,80.00769116443473 100.5050505050505,70.41454008237145 105.55555555555554,72.2036318257405 110.60606060606061,74.2552858486456 115.65656565656566,74.28105637723633 120.7070707070707,68.35891793245287 125.75757575757576,66.70674761646939 130.80808080808083,72.71891646438598 135.85858585858585,70.51991069104224 140.9090909090909,74.27374834234331 145.95959595959596,74.36121573036411 151.010101010101,67.61140648012417 156.06060606060606,65.98518817997018 161.1111111111111,72.61041038540947 166.16161616161617,77.14125547160586 171.21212121212122,63.90667367739809 176.26262626262627,63.695235420246775 181.31313131313132,69.20725357308055 186.36363636363635,61.68672281994424 191.4141414141414,58.08844451040966 196.46464646464648,56.2469800987775 201.51515151515153,55.37312966238386 206.56565656565658,64.19050132655065 211.61616161616163,57.38396930694023 216.66666666666666,57.16219551722372 221.7171717171717,56.999863223812895 226.76767676767676,58.89353081016054 231.8181818181818,59.59186941890556 236.86868686868686,67.78689979761316 241.91919191919192,64.77689662073942 246.96969696969697,61.80960265776935 252.02020202020202,63.46002997472084 257.07070707070704,62.52996092496278 262.1212121212121,63.209984562387945 267.1717171717172,64.94467061155439 272.2222222222222,74.12926935969574 277.27272727272725,70.10330212778695 282.32323232323233,80.24588765971907 287.3737373737374,89.42844427077989 292.42424242424244,81.09562169924146 297.47474747474746,57.44233560350216 302.52525252525254,59.61211217362154 307.57575757575756,59.621987887273065 312.62626262626264,56.42448470581229 317.67676767676767,60.334125593516774 322.7272727272727,71.44515718419035 327.77777777777777,67.12862836422056 332.8282828282828,68.69620146431095 337.8787878787879,67.73768983998986 342.92929292929296,63.644787591454474 347.979797979798,53.728964060109774 353.03030303030306,55.782689082455875 358.0808080808081,56.646006122813674 363.13131313131316,61.125314058971696 368.1818181818182,81.27150142253913 373.23232323232327,73.92776899825657 378.2828282828283,67.3792608056927 383.3333333333333,75.15146685788011 388.3838383838384,57.50489457554875 393.4343434343434,55.669247508832996 398.4848484848485,57.15387143523486 403.5353535353535,59.67806299554172 408.58585858585855,70.26539817963265 413.6363636363636,76.54342774738683 418.68686868686865,64.65357885858674 423.73737373737373,59.67445835901634 428.7878787878788,67.86508468767317 433.83838383838383,58.841315985674214 438.8888888888889,57.83729901698945 443.93939393939394,63.612597268723505 448.989898989899,67.84040524921033 454.04040404040404,56.14729559010482 459.0909090909091,66.30258855261252 464.14141414141415,65.78855068949855 469.19191919191917,66.49695791535493 474.24242424242425,62.82798351053373 479.2929292929293,66.93033997701491 484.34343434343435,68.487368899501 489.3939393939394,63.49921874755972 494.4444444444444,54.84288717009298 499.4949494949495,52.21736719622396 504.5454545454545,58.74927377195655 509.59595959595964,57.37508185607027 514.6464646464647,52.370897676338814 519.6969696969697,60.64595981872941 524.7474747474748,55.00297683917313 529.7979797979798,58.29248776701081 534.8484848484849,57.842880917526884 539.8989898989898,60.32747124694396 544.9494949494949,56.46795865510637 550.0,57.28423700080583" fill="none" stroke="rgb(0,0,255)" stroke-width="1"/><circle cx="50.0" cy="221.72595745653302" r="2" fill="rgb(0,0,255)"/><circle cx="55.05050505050505" cy="199.86741644539495" r="2" fill="rgb(0,0,255)"/><circle cx="60.101010101010104" cy="180.87354449101088" r="2" fill="rgb(0,0,255)"/><circle cx="65.15151515151516" cy="152.64327749453162" r="2" fill="rgb(0,0,255)"/><circle cx="70.20202020202021" cy="124.910502437525" r="2" fill="rgb(0,0,255)"/><circle cx="75.25252525252526" cy="119.89363054038768" r="2" fill="rgb(0,0,255)"/><circle cx="80.30303030303031" cy="114.69928502222251" r="2" fill="rgb(0,0,255)"/><circle cx="85.35353535353535" cy="99.97451127586197" r="2" fill="rgb(0,0,255)"/><circle cx="90.40404040404042" cy="90.27295500472695" r="2" fill="rgb(0,0,255)"/><circle cx="95.45454545454545" cy="80.00769116443473" r="2" fill="rgb(0,0,255)"/><circle cx="100.5050505050505" cy="70.41454008237145" r="2" fill="rgb(0,0,255)"/><circle cx="105.55555555555554" cy="72.2036318257405" r="2" fill="rgb(0,0,255)"/><circle cx="110.60606060606061" cy="74.2552858486456" r="2" fill="rgb(0,0,255)"/><circle cx="115.65656565656566" cy="74.28105637723633" r="2" fill="rgb(0,0,255)"/><circle cx="120.7070707070707" cy="68.35891793245287" r="2" fill="rgb(0,0,255)"/><circle cx="125.75757575757576" cy="66.70674761646939" r="2" fill="rgb(0,0,255)"/><circle cx="130.80808080808083" cy="72.71891646438598" r="2" fill="rgb(0,0,255)"/><circle cx="135.85858585858585" cy="70.51991069104224" r="2" fill="rgb(0,0,255)"/><circle cx="140.9090909090909" cy="74.27374834234331" r="2" fill="rgb(0,0,255)"/><circle cx="145.95959595959596" cy="74.36121573036411" r="2" fill="rgb(0,0,255)"/><circle cx="151.010101010101" cy="67.61140648012417" r="2" fill="rgb(0,0,255)"/><circle cx="156.06060606060606" cy="65.98518817997018" r="2" fill="rgb(0,0,255)"/><circle cx="161.1111111111111" cy="72.61041038540947" r="2" fill="rgb(0,0,255)"/><circle cx="166.16161616161617" cy="77.14125547160586" r="2" fill="rgb(0,0,255)"/><circle cx="171.21212121212122" cy="63.90667367739809" r="2" fill="rgb(0,0,255)"/><circle cx="176.26262626262627" cy="63.695235420246775" r="2" fill="rgb(0,0,255)"/><circle cx="181.31313131313132" cy="69.20725357308055" r="2" fill="rgb(0,0,255)"/><circle cx="186.36363636363635" cy="61.68672281994424" r="2" fill="rgb(0,0,255)"/><circle cx="191.4141414141414" cy="58.08844451040966" r="2" fill="rgb(0,0,255)"/><circle cx="196.46464646464648" cy="56.2469800987775" r="2" fill="rgb(0,0,255)"/><circle cx="201.51515151515153" cy="55.37312966238386" r="2" fill="rgb(0,0,255)"/><circle cx="206.56565656565658" cy="64.19050132655065" r="2" fill="rgb(0,0,255)"/><circle cx="211.61616161616163" cy="57.38396930694023" r="2" fill="rgb(0,0,255)"/><circle cx="216.66666666666666" cy="57.16219551722372" r="2" fill="rgb(0,0,255)"/><circle cx="221.7171717171717" cy="56.999863223812895" r="2" fill="rgb(0,0,255)"/><circle cx="226.76767676767676" cy="58.89353081016054" r="2" fill="rgb(0,0,255)"/><circle cx="231.8181818181818" cy="59.59186941890556" r="2" fill="rgb(0,0,255)"/><circle cx="236.86868686868686" cy="67.78689979761316" r="2" fill="rgb(0,0,255)"/><circle cx="241.91919191919192" cy="64.77689662073942" r="2" fill="rgb(0,0,255)"/><circle cx="246.96969696969697" cy="61.80960265776935" r="2" fill="rgb(0,0,255)"/><circle cx="252.02020202020202" cy="63.46002997472084" r="2" fill="rgb(0,0,255)"/><circle cx="257.07070707070704" cy="62.52996092496278" r="2" fill="rgb(0,0,255)"/><circle cx="262.1212121212121" cy="63.209984562387945" r="2" fill="rgb(0,0,255)"/><circle cx="267.1717171717172" cy="64.94467061155439" r="2" fill="rgb(0,0,255)"/><circle cx="272.2222222222222" cy="74.12926935969574" r="2" fill="rgb(0,0,255)"/><circle cx="277.27272727272725" cy="70.10330212778695" r="2" fill="rgb(0,0,255)"/><circle cx="282.32323232323233" cy="80.24588765971907" r="2" fill="rgb(0,0,255)"/><circle cx="287.3737373737374" cy="89.42844427077989" r="2" fill="rgb(0,0,255)"/><circle cx="292.42424242424244" cy="81.09562169924146" r="2" fill="rgb(0,0,255)"/><circle cx="297.47474747474746" cy="57.44233560350216" r="2" fill="rgb(0,0,255)"/><circle cx="302.52525252525254" cy="59.61211217362154" r="2" fill="rgb(0,0,255)"/><circle cx="307.57575757575756" cy="59.621987887273065" r="2" fill="rgb(0,0,255)"/><circle cx="312.62626262626264" cy="56.42448470581229" r="2" fill="rgb(0,0,255)"/><circle cx="317.67676767676767" cy="60.334125593516774" r="2" fill="rgb(0,0,255)"/><circle cx="322.7272727272727" cy="71.44515718419035" r="2" fill="rgb(0,0,255)"/><circle cx="327.77777777777777" cy="67.12862836422056" r="2" fill="rgb(0,0,255)"/><circle cx="332.8282828282828" cy="68.69620146431095" r="2" fill="rgb(0,0,255)"/><circle cx="337.8787878787879" cy="67.73768983998986" r="2" fill="rgb(0,0,255)"/><circle cx="342.92929292929296" cy="63.644787591454474" r="2" fill="rgb(0,0,255)"/><circle cx="347.979797979798" cy="53.728964060109774" r="2" fill="rgb(0,0,255)"/><circle cx="353.03030303030306" cy="55.782689082455875" r="2" fill="rgb(0,0,255)"/><circle cx="358.0808080808081" cy="56.646006122813674" r="2" fill="rgb(0,0,255)"/><circle cx="363.13131313131316" cy="61.125314058971696" r="2" fill="rgb(0,0,255)"/><circle cx="368.1818181818182" cy="81.27150142253913" r="2" fill="rgb(0,0,255)"/><circle cx="373.23232323232327" cy="73.92776899825657" r="2" fill="rgb(0,0,255)"/><circle cx="378.2828282828283" cy="67.3792608056927" r="2" fill="rgb(0,0,255)"/><circle cx="383.3333333333333" cy="75.15146685788011" r="2" fill="rgb(0,0,255)"/><circle cx="388.3838383838384" cy="57.50489457554875" r="2" fill="rgb(0,0,255)"/><circle cx="393.4343434343434" cy="55.669247508832996" r="2" fill="rgb(0,0,255)"/><circle cx="398.4848484848485" cy="57.15387143523486" r="2" fill="rgb(0,0,255)"/><circle cx="403.5353535353535" cy="59.67806299554172" r="2" fill="rgb(0,0,255)"/><circle cx="408.58585858585855" cy="70.26539817963265" r="2" fill="rgb(0,0,255)"/><circle cx="413.6363636363636" cy="76.54342774738683" r="2" fill="rgb(0,0,255)"/><circle cx="418.68686868686865" cy="64.65357885858674" r="2" fill="rgb(0,0,255)"/><circle cx="423.73737373737373" cy="59.67445835901634" r="2" fill="rgb(0,0,255)"/><circle cx="428.7878787878788" cy="67.86508468767317" r="2" fill="rgb(0,0,255)"/><circle cx="433.83838383838383" cy="58.841315985674214" r="2" fill="rgb(0,0,255)"/><circle cx="438.8888888888889" cy="57.83729901698945" r="2" fill="rgb(0,0,255)"/><circle cx="443.93939393939394" cy="63.612597268723505" r="2" fill="rgb(0,0,255)"/><circle cx="448.989898989899" cy="67.84040524921033" r="2" fill="rgb(0,0,255)"/><circle cx="454.04040404040404" cy="56.14729559010482" r="2" fill="rgb(0,0,255)"/><circle cx="459.0909090909091" cy="66.30258855261252" r="2" fill="rgb(0,0,255)"/><circle cx="464.14141414141415" cy="65.78855068949855" r="2" fill="rgb(0,0,255)"/><circle cx="469.19191919191917" cy="66.49695791535493" r="2" fill="rgb(0,0,255)"/><circle cx="474.24242424242425" cy="62.82798351053373" r="2" fill="rgb(0,0,255)"/><circle cx="479.2929292929293" cy="66.93033997701491" r="2" fill="rgb(0,0,255)"/><circle cx="484.34343434343435" cy="68.487368899501" r="2" fill="rgb(0,0,255)"/><circle cx="489.3939393939394" cy="63.49921874755972" r="2" fill="rgb(0,0,255)"/><circle cx="494.4444444444444" cy="54.84288717009298" r="2" fill="rgb(0,0,255)"/><circle cx="499.4949494949495" cy="52.21736719622396" r="2" fill="rgb(0,0,255)"/><circle cx="504.5454545454545" cy="58.74927377195655" r="2" fill="rgb(0,0,255)"/><circle cx="509.59595959595964" cy="57.37508185607027" r="2" fill="rgb(0,0,255)"/><circle cx="514.6464646464647" cy="52.370897676338814" r="2" fill="rgb(0,0,255)"/><circle cx="519.6969696969697" cy="60.64595981872941" r="2" fill="rgb(0,0,255)"/><circle cx="524.7474747474748" cy="55.00297683917313" r="2" fill="rgb(0,0,255)"/><circle cx="529.7979797979798" cy="58.29248776701081" r="2" fill="rgb(0,0,255)"/><circle cx="534.8484848484849" cy="57.842880917526884" r="2" fill="rgb(0,0,255)"/><circle cx="539.8989898989898" cy="60.32747124694396" r="2" fill="rgb(0,0,255)"/><circle cx="544.9494949494949" cy="56.46795865510637" r="2" fill="rgb(0,0,255)"/><circle cx="550.0" cy="57.28423700080583" r="2" fill="rgb(0,0,255)"/><polyline points="50.0,54.4865533496357 55.05050505050505,56.03572580423531 60.101010101010104,63.602133925164026 65.15151515151516,62.879019975008305 70.20202020202021,62.74033595474083 75.25252525252526,53.52847530197545 80.30303030303031,52.998083298110885 85.35353535353535,52.72319104626962 90.40404040404042,53.064869677061836 95.45454545454545,52.25931434782433 100.5050505050505,53.06649483226897 105.55555555555554,51.96152053827524 110.60606060606061,51.956178367102495 115.65656565656566,52.15704691153957 120.7070707070707,52.38602149321332 125.75757575757576,52.15464668969895 130.80808080808083,52.62530387042051 135.85858585858585,52.18977200456192 140.9090909090909,52.22666822135773 145.95959595959596,52.11912659880943 151.010101010101,51.96776645508953 156.06060606060606,51.70922653189831 161.1111111111111,51.67839609178861 166.16161616161617,51.53695196011762 171.21212121212122,51.450314055319495 176.26262626262627,51.40772537606324 181.31313131313132,51.33247971764348 186.36363636363635,51.43919212118925 191.4141414141414,51.043440200911334 196.46464646464648,51.07414656297237 201.51515151515153,51.302408884983834 206.56565656565658,51.38002667404555 211.61616161616163,51.129585725273955 216.66666666666666,51.171783115278004 221.7171717171717,51.171783115278004 226.76767676767676,51.22205868454449 231.8181818181818,51.09725957108407 236.86868686868686,51.14482774629124 241.91919191919192,51.1634104542801 246.96969696969697,51.18913352187701 252.02020202020202,50.955327188343745 257.07070707070704,51.11842858519236 262.1212121212121,51.11639750808581 267.1717171717172,51.03430585528628 272.2222222222222,50.90804828859109 277.27272727272725,51.06456604206977 282.32323232323233,51.00153931198173 287.3737373737374,51.08153149352955 292.42424242424244,51.07684437499813 297.47474747474746,51.126710547853804 302.52525252525254,51.06701084855001 307.57575757575756,51.00573848745381 312.62626262626264,50.937976111814976 317.67676767676767,50.90804828859109 322.7272727272727,50.865414317156365 327.77777777777777,50.91932584576955 332.8282828282828,50.955327188343745 337.8787878787879,50.93520103940409 342.92929292929296,50.81325257773318 347.979797979798,50.752184433023956 353.03030303030306,50.761952605990075 358.0808080808081,50.761952605990075 363.13131313131316,50.78334686273621 368.1818181818182,50.878142573594175 373.23232323232327,50.78334686273621 378.2828282828283,50.72227871802704 383.3333333333333,50.81124525676029 388.3838383838384,50.8411509717572 393.4343434343434,50.796545439518525 398.4848484848485,50.73013463939361 403.5353535353535,50.73013463939361 408.58585858585855,50.76663972452155 413.6363636363636,50.78334686273621 418.68686868686865,50.80609974046115 423.73737373737373,50.78334686273621 428.7878787878788,50.81325257773318 433.83838383838383,50.837641806885756 438.8888888888889,50.89940023825022 443.93939393939394,50.72186056101822 448.989898989899,50.75744846731743 454.04040404040404,50.69596216559938 459.0909090909091,50.79379809782546 464.14141414141415,50.78334686273621 469.19191919191917,50.78334686273621 474.24242424242425,50.77692870235967 479.2929292929293,50.72186056101822 484.34343434343435,50.08888541973289 489.3939393939394,50.08888541973289 494.4444444444444,50.08888541973289 499.4949494949495,50.2741545793001 504.5454545454545,50.2741545793001 509.59595959595964,50.344822267043355 514.6464646464647,50.1049254516285 519.6969696969697,50.000085290090965 524.7474747474748,50.000085290090965 529.7979797979798,50.000085290090965 534.8484848484849,50.000085290090965 539.8989898989898,50.000085290090965 544.9494949494949,50.0 550.0,50.000085290090965" fill="none" stroke="rgb(0,255,0)" stroke-width="1"/><circle cx="50.0" cy="54.4865533496357" r="2" fill="rgb(0,255,0)"/><circle cx="55.05050505050505" cy="56.03572580423531" r="2" fill="rgb(0,255,0)"/><circle cx="60.101010101010104" cy="63.602133925164026" r="2" fill="rgb(0,255,0)"/><circle cx="65.15151515151516" cy="62.879019975008305" r="2" fill="rgb(0,255,0)"/><circle cx="70.20202020202021" cy="62.74033595474083" r="2" fill="rgb(0,255,0)"/><circle cx="75.25252525252526" cy="53.52847530197545" r="2" fill="rgb(0,255,0)"/><circle cx="80.30303030303031" cy="52.998083298110885" r="2" fill="rgb(0,255,0)"/><circle cx="85.35353535353535" cy="52.72319104626962" r="2" fill="rgb(0,255,0)"/><circle cx="90.40404040404042" cy="53.064869677061836" r="2" fill="rgb(0,255,0)"/><circle cx="95.45454545454545" cy="52.25931434782433" r="2" fill="rgb(0,255,0)"/><circle cx="100.5050505050505" cy="53.06649483226897" r="2" fill="rgb(0,255,0)"/><circle cx="105.55555555555554" cy="51.96152053827524" r="2" fill="rgb(0,255,0)"/><circle cx="110.60606060606061" cy="51.956178367102495" r="2" fill="rgb(0,255,0)"/><circle cx="115.65656565656566" cy="52.15704691153957" r="2" fill="rgb(0,255,0)"/><circle cx="120.7070707070707" cy="52.38602149321332" r="2" fill="rgb(0,255,0)"/><circle cx="125.75757575757576" cy="52.15464668969895" r="2" fill="rgb(0,255,0)"/><circle cx="130.80808080808083" cy="52.62530387042051" r="2" fill="rgb(0,255,0)"/><circle cx="135.85858585858585" cy="52.18977200456192" r="2" fill="rgb(0,255,0)"/><circle cx="140.9090909090909" cy="52.22666822135773" r="2" fill="rgb(0,255,0)"/><circle cx="145.95959595959596" cy="52.11912659880943" r="2" fill="rgb(0,255,0)"/><circle cx="151.010101010101" cy="51.96776645508953" r="2" fill="rgb(0,255,0)"/><circle cx="156.06060606060606" cy="51.70922653189831" r="2" fill="rgb(0,255,0)"/><circle cx="161.1111111111111" cy="51.67839609178861" r="2" fill="rgb(0,255,0)"/><circle cx="166.16161616161617" cy="51.53695196011762" r="2" fill="rgb(0,255,0)"/><circle cx="171.21212121212122" cy="51.450314055319495" r="2" fill="rgb(0,255,0)"/><circle cx="176.26262626262627" cy="51.40772537606324" r="2" fill="rgb(0,255,0)"/><circle cx="181.31313131313132" cy="51.33247971764348" r="2" fill="rgb(0,255,0)"/><circle cx="186.36363636363635" cy="51.43919212118925" r="2" fill="rgb(0,255,0)"/><circle cx="191.4141414141414" cy="51.043440200911334" r="2" fill="rgb(0,255,0)"/><circle cx="196.46464646464648" cy="51.07414656297237" r="2" fill="rgb(0,255,0)"/><circle cx="201.51515151515153" cy="51.302408884983834" r="2" fill="rgb(0,255,0)"/><circle cx="206.56565656565658" cy="51.38002667404555" r="2" fill="rgb(0,255,0)"/><circle cx="211.61616161616163" cy="51.129585725273955" r="2" fill="rgb(0,255,0)"/><circle cx="216.66666666666666" cy="51.171783115278004" r="2" fill="rgb(0,255,0)"/><circle cx="221.7171717171717" cy="51.171783115278004" r="2" fill="rgb(0,255,0)"/><circle cx="226.76767676767676" cy="51.22205868454449" r="2" fill="rgb(0,255,0)"/><circle cx="231.8181818181818" cy="51.09725957108407" r="2" fill="rgb(0,255,0)"/><circle cx="236.86868686868686" cy="51.14482774629124" r="2" fill="rgb(0,255,0)"/><circle cx="241.91919191919192" cy="51.1634104542801" r="2" fill="rgb(0,255,0)"/><circle cx="246.96969696969697" cy="51.18913352187701" r="2" fill="rgb(0,255,0)"/><circle cx="252.02020202020202" cy="50.955327188343745" r="2" fill="rgb(0,255,0)"/><circle cx="257.07070707070704" cy="51.11842858519236" r="2" fill="rgb(0,255,0)"/><circle cx="262.1212121212121" cy="51.11639750808581" r="2" fill="rgb(0,255,0)"/><circle cx="267.1717171717172" cy="51.03430585528628" r="2" fill="rgb(0,255,0)"/><circle cx="272.2222222222222" cy="50.90804828859109" r="2" fill="rgb(0,255,0)"/><circle cx="277.27272727272725" cy="51.06456604206977" r="2" fill="rgb(0,255,0)"/><circle cx="282.32323232323233" cy="51.00153931198173" r="2" fill="rgb(0,255,0)"/><circle cx="287.3737373737374" cy="51.08153149352955" r="2" fill="rgb(0,255,0)"/><circle cx="292.42424242424244" cy="51.07684437499813" r="2" fill="rgb(0,255,0)"/><circle cx="297.47474747474746" cy="51.126710547853804" r="2" fill="rgb(0,255,0)"/><circle cx="302.52525252525254" cy="51.06701084855001" r="2" fill="rgb(0,255,0)"/><circle cx="307.57575757575756" cy="51.00573848745381" r="2" fill="rgb(0,255,0)"/><circle cx="312.62626262626264" cy="50.937976111814976" r="2" fill="rgb(0,255,0)"/><circle cx="317.67676767676767" cy="50.90804828859109" r="2" fill="rgb(0,255,0)"/><circle cx="322.7272727272727" cy="50.865414317156365" r="2" fill="rgb(0,255,0)"/><circle cx="327.77777777777777" cy="50.91932584576955" r="2" fill="rgb(0,255,0)"/><circle cx="332.8282828282828" cy="50.955327188343745" r="2" fill="rgb(0,255,0)"/><circle cx="337.8787878787879" cy="50.93520103940409" r="2" fill="rgb(0,255,0)"/><circle cx="342.92929292929296" cy="50.81325257773318" r="2" fill="rgb(0,255,0)"/><circle cx="347.979797979798" cy="50.752184433023956" r="2" fill="rgb(0,255,0)"/><circle cx="353.03030303030306" cy="50.761952605990075" r="2" fill="rgb(0,255,0)"/><circle cx="358.0808080808081" cy="50.761952605990075" r="2" fill="rgb(0,255,0)"/><circle cx="363.13131313131316" cy="50.78334686273621" r="2" fill="rgb(0,255,0)"/><circle cx="368.1818181818182" cy="50.878142573594175" r="2" fill="rgb(0,255,0)"/><circle cx="373.23232323232327" cy="50.78334686273621" r="2" fill="rgb(0,255,0)"/><circle cx="378.2828282828283" cy="50.72227871802704" r="2" fill="rgb(0,255,0)"/><circle cx="383.3333333333333" cy="50.81124525676029" r="2" fill="rgb(0,255,0)"/><circle cx="388.3838383838384" cy="50.8411509717572" r="2" fill="rgb(0,255,0)"/><circle cx="393.4343434343434" cy="50.796545439518525" r="2" fill="rgb(0,255,0)"/><circle cx="398.4848484848485" cy="50.73013463939361" r="2" fill="rgb(0,255,0)"/><circle cx="403.5353535353535" cy="50.73013463939361" r="2" fill="rgb(0,255,0)"/><circle cx="408.58585858585855" cy="50.76663972452155" r="2" fill="rgb(0,255,0)"/><circle cx="413.6363636363636" cy="50.78334686273621" r="2" fill="rgb(0,255,0)"/><circle cx="418.68686868686865" cy="50.80609974046115" r="2" fill="rgb(0,255,0)"/><circle cx="423.73737373737373" cy="50.78334686273621" r="2" fill="rgb(0,255,0)"/><circle cx="428.7878787878788" cy="50.81325257773318" r="2" fill="rgb(0,255,0)"/><circle cx="433.83838383838383" cy="50.837641806885756" r="2" fill="rgb(0,255,0)"/><circle cx="438.8888888888889" cy="50.89940023825022" r="2" fill="rgb(0,255,0)"/><circle cx="443.93939393939394" cy="50.72186056101822" r="2" fill="rgb(0,255,0)"/><circle cx="448.989898989899" cy="50.75744846731743" r="2" fill="rgb(0,255,0)"/><circle cx="454.04040404040404" cy="50.69596216559938" r="2" fill="rgb(0,255,0)"/><circle cx="459.0909090909091" cy="50.79379809782546" r="2" fill="rgb(0,255,0)"/><circle cx="464.14141414141415" cy="50.78334686273621" r="2" fill="rgb(0,255,0)"/><circle cx="469.19191919191917" cy="50.78334686273621" r="2" fill="rgb(0,255,0)"/><circle cx="474.24242424242425" cy="50.77692870235967" r="2" fill="rgb(0,255,0)"/><circle cx="479.2929292929293" cy="50.72186056101822" r="2" fill="rgb(0,255,0)"/><circle cx="484.34343434343435" cy="50.08888541973289" r="2" fill="rgb(0,255,0)"/><circle cx="489.3939393939394" cy="50.08888541973289" r="2" fill="rgb(0,255,0)"/><circle cx="494.4444444444444" cy="50.08888541973289" r="2" fill="rgb(0,255,0)"/><circle cx="499.4949494949495" cy="50.2741545793001" r="2" fill="rgb(0,255,0)"/><circle cx="504.5454545454545" cy="50.2741545793001" r="2" fill="rgb(0,255,0)"/><circle cx="509.59595959595964" cy="50.344822267043355" r="2" fill="rgb(0,255,0)"/><circle cx="514.6464646464647" cy="50.1049254516285" r="2" fill="rgb(0,255,0)"/><circle cx="519.6969696969697" cy="50.000085290090965" r="2" fill="rgb(0,255,0)"/><circle cx="524.7474747474748" cy="50.000085290090965" r="2" fill="rgb(0,255,0)"/><circle cx="529.7979797979798" cy="50.000085290090965" r="2" fill="rgb(0,255,0)"/><circle cx="534.8484848484849" cy="50.000085290090965" r="2" fill="rgb(0,255,0)"/><circle cx="539.8989898989898" cy="50.000085290090965" r="2" fill="rgb(0,255,0)"/><circle cx="544.9494949494949" cy="50.0" r="2" fill="rgb(0,255,0)"/><circle cx="550.0" cy="50.000085290090965" r="2" fill="rgb(0,255,0)"/><text x="350.0" y="20.0" text-anchor="middle" fill="rgb(0,0,0)" font-size="20.0">GA Demo</text><text x="350.0" y="575.0" text-anchor="middle" fill="rgb(0,0,0)" font-size="12.0">generation</text><text transform="rotate(-90.0 20.0 300.0)" x="20.0" y="300.0" text-anchor="middle" fill="rgb(0,0,0)" font-size="12.0">fitness</text><text x="620" y="62" fill="rgb(0,0,0)" font-size="12">min</text><text x="620" y="74" fill="rgb(0,0,255)" font-size="12">ave</text><text x="620" y="86" fill="rgb(0,255,0)" font-size="12">max</text>
      Sorry, your browser does not support inline SVG.
    </svg>