<?xml version='1.0' encoding='UTF-8'?>
<svg version="1.1" width="700.0" height="600.0" onload="init(evt)" xmlns="http://www.w3.org/2000/svg">
      <style>.caption {
  font-size: 14px;
  font-family: Georgia, serif;
}
</style>
      <script type="text/ecmascript"><![CDATA[
function init(evt) {
  if ( window.svgDocument == null ) {
    svgDocument = evt.target.ownerDocument;
  }
}

function RectHover(evt, i, c) {
  rect = svgDocument.getElementById('rect' + i);
  if( c != null ) {
    rect.setAttributeNS(null, "fill", c)  
  }
  tooltiptext = svgDocument.getElementById('tooltiptext' + i);
  tooltipbg = svgDocument.getElementById('tooltipbg' + i);
  if( tooltipbg != null) {
    tbb = tooltiptext.getBBox();
    tooltipbg.setAttributeNS(null, "width", tbb.width);
    tooltipbg.setAttributeNS(null, "height", tbb.height);
    tooltipbg.setAttributeNS(null, "x", tbb.x);
    tooltipbg.setAttributeNS(null, "y", tbb.y);
    tooltipbg.setAttributeNS(null, "visibility", "visible");
  }
  tooltiptext.setAttributeNS(null,"visibility","visible");
}

function RectUnhover(evt, i, c) {
  rect = svgDocument.getElementById('rect' + i);
  if( c != null ) {
    rect.setAttributeNS(null, "fill", c)  
  }
  tooltiptext = svgDocument.getElementById('tooltiptext' + i);
  tooltiptext.setAttributeNS(null,"visibility","hidden");
  tooltipbg = svgDocument.getElementById('tooltipbg' + i);
  if( tooltipbg != null ) {
    tooltipbg.setAttributeNS(null,"visibility","hidden");
  }
}
]]></script>
      <line x1="50.0" y1="550.0" x2="550.0" y2="550.0" stroke="rgb(0,0,0)" stroke-width="1"/><line x1="50.0" y1="550.0" x2="50.0" y2="50.0" stroke="rgb(0,0,0)" stroke-width="1"/><line x1="50.0" y1="550.0" x2="50.0" y2="50.0" stroke="rgb(192,192,192)" stroke-width="1"/><line x1="50.0" y1="548.0" x2="50.0" y2="552.0" stroke="rgb(192,192,192)" stroke-width="1"/><text text-anchor="middle" alignment-baseline="hanging" x="50.0" y="553.0" font-size="12.0">0</text><line x1="100.5050505050505" y1="550.0" x2="100.5050505050505" y2="50.0" stroke="rgb(192,192,192)" stroke-width="1"/><line x1="100.5050505050505" y1="548.0" x2="100.5050505050505" y2="552.0" stroke="rgb(192,192,192)" stroke-width="1"/><text text-anchor="middle" alignment-baseline="hanging" x="100.5050505050505" y="553.0" font-size="12.0">10</text><line x1="151.010101010101" y1="550.0" x2="151.010101010101" y2="50.0" stroke="rgb(192,192,192)" stroke-width="1"/><line x1="151.010101010101" y1="548.0" x2="151.010101010101" y2="552.0" stroke="rgb(192,192,192)" stroke-width="1"/><text text-anchor="middle" alignment-baseline="hanging" x="151.010101010101" y="553.0" font-size="12.0">20</text><line x1="201.51515151515153" y1="550.0" x2="201.51515151515153" y2="50.0" stroke="rgb(192,192,192)" stroke-width="1"/><line x1="201.51515151515153" y1="548.0" x2="201.51515151515153" y2="552.0" stroke="rgb(192,192,192)" stroke-width="1"/><text text-anchor="middle" alignment-baseline="hanging" x="201.51515151515153" y="553.0" font-size="12.0">30</text><line x1="252.02020202020202" y1="550.0" x2="252.02020202020202" y2="50.0" stroke="rgb(192,192,192)" stroke-width="1"/><line x1="252.02020202020202" y1="548.0" x2="252.02020202020202" y2="552.0" stroke="rgb(192,192,192)" stroke-width="1"/><text text-anchor="middle" alignment-baseline="hanging" x="252.02020202020202" y="553.0" font-size="12.0">40</text><line x1="302.52525252525254" y1="550.0" x2="302.52525252525254" y2="50.0" stroke="rgb(192,192,192)" stroke-width="1"/><line x1="302.52525252525254" y1="548.0" x2="302.52525252525254" y2="552.0" stroke="rgb(192,192,192)" stroke-width="1"/><text text-anchor="middle" alignment-baseline="hanging" x="302.52525252525254" y="553.0" font-size="12.0">50</text><line x1="353.03030303030306" y1="550.0" x2="353.03030303030306" y2="50.0" stroke="rgb(192,192,192)" stroke-width="1"/><line x1="353.03030303030306" y1="548.0" x2="353.03030303030306" y2="552.0" stroke="rgb(192,192,192)" stroke-width="1"/><text text-anchor="middle" alignment-baseline="hanging" x="353.03030303030306" y="553.0" font-size="12.0">60</text><line x1="403.5353535353535" y1="550.0" x2="403.5353535353535" y2="50.0" stroke="rgb(192,192,192)" stroke-width="1"/><line x1="403.5353535353535" y1="548.0" x2="403.5353535353535" y2="552.0" stroke="rgb(192,192,192)" stroke-width="1"/><text text-anchor="middle" alignment-baseline="hanging" x="403.5353535353535" y="553.0" font-size="12.0">70</text><line x1="454.04040404040404" y1="550.0" x2="454.04040404040404" y2="50.0" stroke="rgb(192,192,192)" stroke-width="1"/><line x1="454.04040404040404" y1="548.0" x2="454.04040404040404" y2="552.0" stroke="rgb(192,192,192)" stroke-width="1"/><text text-anchor="middle" alignment-baseline="hanging" x="454.04040404040404" y="553.0" font-size="12.0">80</text><line x1="504.5454545454545" y1="550.0" x2="504.5454545454545" y2="50.0" stroke="rgb(192,192,192)" stroke-width="1"/><line x1="504.5454545454545" y1="548.0" x2="504.5454545454545" y2="552.0" stroke="rgb(192,192,192)" stroke-width="1"/><text text-anchor="middle" alignment-baseline="hanging" x="504.5454545454545" y="553.0" font-size="12.0">90</text><line x1="50.0" y1="550.0" x2="550.0" y2="550.0" stroke="rgb(192,192,192)" stroke-width="1"/><text text-anchor="end" alignment-baseline="middle" x="45.0" y="550.0" font-size="12.0">0.0</text><line x1="48.0" y1="550.0" x2="52.0" y2="550.0" stroke="rgb(192,192,192)" stroke-width="1"/><line x1="50.0" y1="367.90775218598117" x2="550.0" y2="367.90775218598117" stroke="rgb(192,192,192)" stroke-width="1"/><text text-anchor="end" alignment-baseline="middle" x="45.0" y="367.90775218598117" font-size="12.0">1000.0</text><line x1="48.0" y1="367.90775218598117" x2="52.0" y2="367.90775218598117" stroke="rgb(192,192,192)" stroke-width="1"/><line x1="50.0" y1="185.8155043719624" x2="550.0" y2="185.8155043719624" stroke="rgb(192,192,192)" stroke-width="1"/><text text-anchor="end" alignment-baseline="middle" x="45.0" y="185.8155043719624" font-size="12.0">2000.0</text><line x1="48.0" y1="185.8155043719624" x2="52.0" y2="185.8155043719624" stroke="rgb(192,192,192)" stroke-width="1"/><polyline points="50.0,425.3839745580559 55.05050505050505,408.0550623366138 60.101010101010104,423.8037390020218 65.15151515151516,425.6023265701828 70.20202020202021,421.21284605910375 75.25252525252526,421.797789086604 80.30303030303031,403.74980532240517 85.35353535353535,309.58178907884576 90.40404040404042,363.08928136908196 95.45454545454545,282.5633853699467 100.5050505050505,125.13240922023897 105.55555555555554,399.73270534595974 110.60606060606061,381.68120586939926 115.65656565656566,381.6883802472942 120.7070707070707,400.3215762681259 125.75757575757576,400.6798603068903 130.80808080808083,286.4772669229021 135.85858585858585,237.35059502359462 140.9090909090909,403.4894187110689 145.95959595959596,402.50393040211327 151.010101010101,275.76089738574655 156.06060606060606,332.470448808824 161.1111111111111,345.51006324497564 166.16161616161617,299.1596507588957 171.21212121212122,299.13495439726347 176.26262626262627,379.86617208884377 181.31313131313132,390.0984859455889 186.36363636363635,388.8291516278948 191.4141414141414,389.9497684576585 196.46464646464648,109.36831545496608 201.51515151515153,313.4201071123742 206.56565656565658,153.19643740346316 211.61616161616163,209.7921679584059 216.66666666666666,176.68718697921236 221.7171717171717,325.5134867500531 226.76767676767676,373.0834077004465 231.8181818181818,376.23276449108255 236.86868686868686,349.5308416055275 241.91919191919192,178.99383230886178 246.96969696969697,333.06510124369026 252.02020202020202,411.68287242553413 257.07070707070704,257.1826319944062 262.1212121212121,180.52403826186048 267.1717171717172,325.4812404715421 272.2222222222222,324.56333291110235 277.27272727272725,298.8839529824444 282.32323232323233,329.8874194579744 287.3737373737374,382.3493149764355 292.42424242424244,390.25123973945466 297.47474747474746,339.56060423171283 302.52525252525254,409.77588712218744 307.57575757575756,405.14745639850275 312.62626262626264,327.32132773013063 317.67676767676767,261.8545755836121 322.7272727272727,184.71626610693846 327.77777777777777,280.967105887265 332.8282828282828,280.8676253133966 337.8787878787879,398.25083876486974 342.92929292929296,395.39455571865267 347.979797979798,395.7887734272678 353.03030303030306,395.4109265209395 358.0808080808081,412.85303679973276 363.13131313131316,411.35127418914374 368.1818181818182,329.12220688859577 373.23232323232327,172.14482111914145 378.2828282828283,271.19751195858686 383.3333333333333,393.666910796628 388.3838383838384,404.3405677141179 393.4343434343434,403.7503038441906 398.4848484848485,404.9671634278262 403.5353535353535,404.2305601953545 408.58585858585855,113.95199935998772 413.6363636363636,396.83935642111345 418.68686868686865,305.94878991923144 423.73737373737373,399.0905992981868 428.7878787878788,351.87657073870963 433.83838383838383,351.90999026706623 438.8888888888889,352.4920001440794 443.93939393939394,352.29421218476875 448.989898989899,351.87239130790516 454.04040404040404,353.323212267209 459.0909090909091,412.9729185598993 464.14141414141415,391.86970745239114 469.19191919191917,392.2848004492497 474.24242424242425,413.2151163518048 479.2929292929293,413.2151163518048 484.34343434343435,413.2151163518048 489.3939393939394,401.60547115139116 494.4444444444444,397.2277912962723 499.4949494949495,393.55875692915777 504.5454545454545,367.7831756518857 509.59595959595964,367.1343594878207 514.6464646464647,367.1196078066138 519.6969696969697,363.9895673013318 524.7474747474748,378.18077560136203 529.7979797979798,392.9566399794808 534.8484848484849,392.9553114052299 539.8989898989898,348.77787722884665 544.9494949494949,348.77787722884665 550.0,348.77787722884665" fill="none" stroke="rgb(0,0,0)" stroke-width="1"/><circle cx="50.0" cy="425.3839745580559" r="2" fill="rgb(0,0,0)"/><circle cx="55.05050505050505" cy="408.0550623366138" r="2" fill="rgb(0,0,0)"/><circle cx="60.101010101010104" cy="423.8037390020218" r="2" fill="rgb(0,0,0)"/><circle cx="65.15151515151516" cy="425.6023265701828" r="2" fill="rgb(0,0,0)"/><circle cx="70.20202020202021" cy="421.21284605910375" r="2" fill="rgb(0,0,0)"/><circle cx="75.25252525252526" cy="421.797789086604" r="2" fill="rgb(0,0,0)"/><circle cx="80.30303030303031" cy="403.74980532240517" r="2" fill="rgb(0,0,0)"/><circle cx="85.35353535353535" cy="309.58178907884576" r="2" fill="rgb(0,0,0)"/><circle cx="90.40404040404042" cy="363.08928136908196" r="2" fill="rgb(0,0,0)"/><circle cx="95.45454545454545" cy="282.5633853699467" r="2" fill="rgb(0,0,0)"/><circle cx="100.5050505050505" cy="125.13240922023897" r="2" fill="rgb(0,0,0)"/><circle cx="105.55555555555554" cy="399.73270534595974" r="2" fill="rgb(0,0,0)"/><circle cx="110.60606060606061" cy="381.68120586939926" r="2" fill="rgb(0,0,0)"/><circle cx="115.65656565656566" cy="381.6883802472942" r="2" fill="rgb(0,0,0)"/><circle cx="120.7070707070707" cy="400.3215762681259" r="2" fill="rgb(0,0,0)"/><circle cx="125.75757575757576" cy="400.6798603068903" r="2" fill="rgb(0,0,0)"/><circle cx="130.80808080808083" cy="286.4772669229021" r="2" fill="rgb(0,0,0)"/><circle cx="135.85858585858585" cy="237.35059502359462" r="2" fill="rgb(0,0,0)"/><circle cx="140.9090909090909" cy="403.4894187110689" r="2" fill="rgb(0,0,0)"/><circle cx="145.95959595959596" cy="402.50393040211327" r="2" fill="rgb(0,0,0)"/><circle cx="151.010101010101" cy="275.76089738574655" r="2" fill="rgb(0,0,0)"/><circle cx="156.06060606060606" cy="332.470448808824" r="2" fill="rgb(0,0,0)"/><circle cx="161.1111111111111" cy="345.51006324497564" r="2" fill="rgb(0,0,0)"/><circle cx="166.16161616161617" cy="299.1596507588957" r="2" fill="rgb(0,0,0)"/><circle cx="171.21212121212122" cy="299.13495439726347" r="2" fill="rgb(0,0,0)"/><circle cx="176.26262626262627" cy="379.86617208884377" r="2" fill="rgb(0,0,0)"/><circle cx="181.31313131313132" cy="390.0984859455889" r="2" fill="rgb(0,0,0)"/><circle cx="186.36363636363635" cy="388.8291516278948" r="2" fill="rgb(0,0,0)"/><circle cx="191.4141414141414" cy="389.9497684576585" r="2" fill="rgb(0,0,0)"/><circle cx="196.46464646464648" cy="109.36831545496608" r="2" fill="rgb(0,0,0)"/><circle cx="201.51515151515153" cy="313.4201071123742" r="2" fill="rgb(0,0,0)"/><circle cx="206.56565656565658" cy="153.19643740346316" r="2" fill="rgb(0,0,0)"/><circle cx="211.61616161616163" cy="209.7921679584059" r="2" fill="rgb(0,0,0)"/><circle cx="216.66666666666666" cy="176.68718697921236" r="2" fill="rgb(0,0,0)"/><circle cx="221.7171717171717" cy="325.5134867500531" r="2" fill="rgb(0,0,0)"/><circle cx="226.76767676767676" cy="373.0834077004465" r="2" fill="rgb(0,0,0)"/><circle cx="231.8181818181818" cy="376.23276449108255" r="2" fill="rgb(0,0,0)"/><circle cx="236.86868686868686" cy="349.5308416055275" r="2" fill="rgb(0,0,0)"/><circle cx="241.91919191919192" cy="178.99383230886178" r="2" fill="rgb(0,0,0)"/><circle cx="246.96969696969697" cy="333.06510124369026" r="2" fill="rgb(0,0,0)"/><circle cx="252.02020202020202" cy="411.68287242553413" r="2" fill="rgb(0,0,0)"/><circle cx="257.07070707070704" cy="257.1826319944062" r="2" fill="rgb(0,0,0)"/><circle cx="262.1212121212121" cy="180.52403826186048" r="2" fill="rgb(0,0,0)"/><circle cx="267.1717171717172" cy="325.4812404715421" r="2" fill="rgb(0,0,0)"/><circle cx="272.2222222222222" cy="324.56333291110235" r="2" fill="rgb(0,0,0)"/><circle cx="277.27272727272725" cy="298.8839529824444" r="2" fill="rgb(0,0,0)"/><circle cx="282.32323232323233" cy="329.8874194579744" r="2" fill="rgb(0,0,0)"/><circle cx="287.3737373737374" cy="382.3493149764355" r="2" fill="rgb(0,0,0)"/><circle cx="292.42424242424244" cy="390.25123973945466" r="2" fill="rgb(0,0,0)"/><circle cx="297.47474747474746" cy="339.56060423171283" r="2" fill="rgb(0,0,0)"/><circle cx="302.52525252525254" cy="409.77588712218744" r="2" fill="rgb(0,0,0)"/><circle cx="307.57575757575756" cy="405.14745639850275" r="2" fill="rgb(0,0,0)"/><circle cx="312.62626262626264" cy="327.32132773013063" r="2" fill="rgb(0,0,0)"/><circle cx="317.67676767676767" cy="261.8545755836121" r="2" fill="rgb(0,0,0)"/><circle cx="322.7272727272727" cy="184.71626610693846" r="2" fill="rgb(0,0,0)"/><circle cx="327.77777777777777" cy="280.967105887265" r="2" fill="rgb(0,0,0)"/><circle cx="332.8282828282828" cy="280.8676253133966" r="2" fill="rgb(0,0,0)"/><circle cx="337.8787878787879" cy="398.25083876486974" r="2" fill="rgb(0,0,0)"/><circle cx="342.92929292929296" cy="395.39455571865267" r="2" fill="rgb(0,0,0)"/><circle cx="347.979797979798" cy="395.7887734272678" r="2" fill="rgb(0,0,0)"/><circle cx="353.03030303030306" cy="395.4109265209395" r="2" fill="rgb(0,0,0)"/><circle cx="358.0808080808081" cy="412.85303679973276" r="2" fill="rgb(0,0,0)"/><circle cx="363.13131313131316" cy="411.35127418914374" r="2" fill="rgb(0,0,0)"/><circle cx="368.1818181818182" cy="329.12220688859577" r="2" fill="rgb(0,0,0)"/><circle cx="373.23232323232327" cy="172.14482111914145" r="2" fill="rgb(0,0,0)"/><circle cx="378.2828282828283" cy="271.19751195858686" r="2" fill="rgb(0,0,0)"/><circle cx="383.3333333333333" cy="393.666910796628" r="2" fill="rgb(0,0,0)"/><circle cx="388.3838383838384" cy="404.3405677141179" r="2" fill="rgb(0,0,0)"/><circle cx="393.4343434343434" cy="403.7503038441906" r="2" fill="rgb(0,0,0)"/><circle cx="398.4848484848485" cy="404.9671634278262" r="2" fill="rgb(0,0,0)"/><circle cx="403.5353535353535" cy="404.2305601953545" r="2" fill="rgb(0,0,0)"/><circle cx="408.58585858585855" cy="113.95199935998772" r="2" fill="rgb(0,0,0)"/><circle cx="413.6363636363636" cy="396.83935642111345" r="2" fill="rgb(0,0,0)"/><circle cx="418.68686868686865" cy="305.94878991923144" r="2" fill="rgb(0,0,0)"/><circle cx="423.73737373737373" cy="399.0905992981868" r="2" fill="rgb(0,0,0)"/><circle cx="428.7878787878788" cy="351.87657073870963" r="2" fill="rgb(0,0,0)"/><circle cx="433.83838383838383" cy="351.90999026706623" r="2" fill="rgb(0,0,0)"/><circle cx="438.8888888888889" cy="352.4920001440794" r="2" fill="rgb(0,0,0)"/><circle cx="443.93939393939394" cy="352.29421218476875" r="2" fill="rgb(0,0,0)"/><circle cx="448.989898989899" cy="351.87239130790516" r="2" fill="rgb(0,0,0)"/><circle cx="454.04040404040404" cy="353.323212267209" r="2" fill="rgb(0,0,0)"/><circle cx="459.0909090909091" cy="412.9729185598993" r="2" fill="rgb(0,0,0)"/><circle cx="464.14141414141415" cy="391.86970745239114" r="2" fill="rgb(0,0,0)"/><circle cx="469.19191919191917" cy="392.2848004492497" r="2" fill="rgb(0,0,0)"/><circle cx="474.24242424242425" cy="413.2151163518048" r="2" fill="rgb(0,0,0)"/><circle cx="479.2929292929293" cy="413.2151163518048" r="2" fill="rgb(0,0,0)"/><circle cx="484.34343434343435" cy="413.2151163518048" r="2" fill="rgb(0,0,0)"/><circle cx="489.3939393939394" cy="401.60547115139116" r="2" fill="rgb(0,0,0)"/><circle cx="494.4444444444444" cy="397.2277912962723" r="2" fill="rgb(0,0,0)"/><circle cx="499.4949494949495" cy="393.55875692915777" r="2" fill="rgb(0,0,0)"/><circle cx="504.5454545454545" cy="367.7831756518857" r="2" fill="rgb(0,0,0)"/><circle cx="509.59595959595964" cy="367.1343594878207" r="2" fill="rgb(0,0,0)"/><circle cx="514.6464646464647" cy="367.1196078066138" r="2" fill="rgb(0,0,0)"/><circle cx="519.6969696969697" cy="363.9895673013318" r="2" fill="rgb(0,0,0)"/><circle cx="524.7474747474748" cy="378.18077560136203" r="2" fill="rgb(0,0,0)"/><circle cx="529.7979797979798" cy="392.9566399794808" r="2" fill="rgb(0,0,0)"/><circle cx="534.8484848484849" cy="392.9553114052299" r="2" fill="rgb(0,0,0)"/><circle cx="539.8989898989898" cy="348.77787722884665" r="2" fill="rgb(0,0,0)"/><circle cx="544.9494949494949" cy="348.77787722884665" r="2" fill="rgb(0,0,0)"/><circle cx="550.0" cy="348.77787722884665" r="2" fill="rgb(0,0,0)"/><polyline points="50.0,232.01434335223138 55.05050505050505,203.50456870214555 60.101010101010104,171.8417259500929 65.15151515151516,158.89564506124702 70.20202020202021,146.9736054856673 75.25252525252526,131.06664808931083 80.30303030303031,116.40794180401463 85.35353535353535,103.41965621719618 90.40404040404042,95.76838982676009 95.45454545454545,88.95769663541654 100.5050505050505,76.47335698586852 105.55555555555554,85.32083425249567 110.60606060606061,84.41057063138777 115.65656565656566,84.62554333655265 120.7070707070707,81.8657936803628 125.75757575757576,76.40406680323105 130.80808080808083,71.19689879099502 135.85858585858585,70.09370409261754 140.9090909090909,74.42485600778167 145.95959595959596,72.68981062334655 151.010101010101,69.7563478302389 156.06060606060606,74.1194136907319 161.1111111111111,75.82021294217066 166.16161616161617,72.58718096142911 171.21212121212122,70.8751540566509 176.26262626262627,67.06509676638609 181.31313131313132,70.48790217412994 186.36363636363635,69.22319951607068 191.4141414141414,72.6041413347657 196.46464646464648,61.229917017503965 201.51515151515153,65.72831477550295 206.56565656565658,62.17708417815675 211.61616161616163,62.509419974258776 216.66666666666666,60.889888220248224 221.7171717171717,63.87089607877721 226.76767676767676,63.0666787156747 231.8181818181818,70.88544767482068 236.86868686868686,60.972220114680454 241.91919191919192,58.18425072058409 246.96969696969697,67.40145408248998 252.02020202020202,65.28061413875787 257.07070707070704,60.74761966570719 262.1212121212121,59.14817114972732 267.1717171717172,61.26644401435874 272.2222222222222,62.110453550985085 277.27272727272725,58.37987566458577 282.32323232323233,59.72918903336176 287.3737373737374,65.46558399735221 292.42424242424244,57.09947215261485 297.47474747474746,57.66854083557257 302.52525252525254,64.06905468971439 307.57575757575756,74.75455064743653 312.62626262626264,64.33162184187205 317.67676767676767,62.31753339616148 322.7272727272727,57.07920408755274 327.77777777777777,57.17210337567872 332.8282828282828,56.48664277373757 337.8787878787879,69.25589171881501 342.92929292929296,66.83472882300384 347.979797979798,60.37896567503719 353.03030303030306,57.91443697990741 358.0808080808081,70.21294591171716 363.13131313131316,69.30626529932238 368.1818181818182,58.86268325500674 373.23232323232327,57.07843094158892 378.2828282828283,55.982194206327335 383.3333333333333,64.13748715535866 388.3838383838384,61.489432473636384 393.4343434343434,61.05864228202688 398.4848484848485,60.16511843879431 403.5353535353535,66.80037229897641 408.58585858585855,52.74697475097656 413.6363636363636,62.738348850350974 418.68686868686865,57.17876558623817 423.73737373737373,60.57637073361991 428.7878787878788,57.14383897413029 433.83838383838383,65.00282946420339 438.8888888888889,68.2020235588418 443.93939393939394,60.87580360991336 448.989898989899,69.42931023197048 454.04040404040404,64.18370652482292 459.0909090909091,66.32417594814132 464.14141414141415,62.01987780904585 469.19191919191917,67.22617196022327 474.24242424242425,69.633864917359 479.2929292929293,71.17574332106636 484.34343434343435,78.7667621278813 489.3939393939394,79.8245502287993 494.4444444444444,68.57781802639562 499.4949494949495,63.819828013151266 504.5454545454545,71.090585065396 509.59595959595964,62.60410345691116 514.6464646464647,63.161165334253724 519.6969696969697,60.71052673118601 524.7474747474748,60.3566143975263 529.7979797979798,69.69611922464924 534.8484848484849,70.93419033774245 539.8989898989898,66.514382689753 544.9494949494949,66.37545876305734 550.0,68.25060276122588" fill="none" stroke="rgb(0,0,255)" stroke-width="1"/><circle cx="50.0" cy="232.01434335223138" r="2" fill="rgb(0,0,255)"/><circle cx="55.05050505050505" cy="203.50456870214555" r="2" fill="rgb(0,0,255)"/><circle cx="60.101010101010104" cy="171.8417259500929" r="2" fill="rgb(0,0,255)"/><circle cx="65.15151515151516" cy="158.89564506124702" r="2" fill="rgb(0,0,255)"/><circle cx="70.20202020202021" cy="146.9736054856673" r="2" fill="rgb(0,0,255)"/><circle cx="75.25252525252526" cy="131.06664808931083" r="2" fill="rgb(0,0,255)"/><circle cx="80.30303030303031" cy="116.40794180401463" r="2" fill="rgb(0,0,255)"/><circle cx="85.35353535353535" cy="103.41965621719618" r="2" fill="rgb(0,0,255)"/><circle cx="90.40404040404042" cy="95.76838982676009" r="2" fill="rgb(0,0,255)"/><circle cx="95.45454545454545" cy="88.95769663541654" r="2" fill="rgb(0,0,255)"/><circle cx="100.5050505050505" cy="76.47335698586852" r="2" fill="rgb(0,0,255)"/><circle cx="105.55555555555554" cy="85.32083425249567" r="2" fill="rgb(0,0,255)"/><circle cx="110.60606060606061" cy="84.41057063138777" r="2" fill="rgb(0,0,255)"/><circle cx="115.65656565656566" cy="84.62554333655265" r="2" fill="rgb(0,0,255)"/><circle cx="120.7070707070707" cy="81.8657936803628" r="2" fill="rgb(0,0,255)"/><circle cx="125.75757575757576" cy="76.40406680323105" r="2" fill="rgb(0,0,255)"/><circle cx="130.80808080808083" cy="71.19689879099502" r="2" fill="rgb(0,0,255)"/><circle cx="135.85858585858585" cy="70.09370409261754" r="2" fill="rgb(0,0,255)"/><circle cx="140.9090909090909" cy="74.42485600778167" r="2" fill="rgb(0,0,255)"/><circle cx="145.95959595959596" cy="72.68981062334655" r="2" fill="rgb(0,0,255)"/><circle cx="151.010101010101" cy="69.7563478302389" r="2" fill="rgb(0,0,255)"/><circle cx="156.06060606060606" cy="74.1194136907319" r="2" fill="rgb(0,0,255)"/><circle cx="161.1111111111111" cy="75.82021294217066" r="2" fill="rgb(0,0,255)"/><circle cx="166.16161616161617" cy="72.58718096142911" r="2" fill="rgb(0,0,255)"/><circle cx="171.21212121212122" cy="70.8751540566509" r="2" fill="rgb(0,0,255)"/><circle cx="176.26262626262627" cy="67.06509676638609" r="2" fill="rgb(0,0,255)"/><circle cx="181.31313131313132" cy="70.48790217412994" r="2" fill="rgb(0,0,255)"/><circle cx="186.36363636363635" cy="69.22319951607068" r="2" fill="rgb(0,0,255)"/><circle cx="191.4141414141414" cy="72.6041413347657" r="2" fill="rgb(0,0,255)"/><circle cx="196.46464646464648" cy="61.229917017503965" r="2" fill="rgb(0,0,255)"/><circle cx="201.51515151515153" cy="65.72831477550295" r="2" fill="rgb(0,0,255)"/><circle cx="206.56565656565658" cy="62.17708417815675" r="2" fill="rgb(0,0,255)"/><circle cx="211.61616161616163" cy="62.509419974258776" r="2" fill="rgb(0,0,255)"/><circle cx="216.66666666666666" cy="60.889888220248224" r="2" fill="rgb(0,0,255)"/><circle cx="221.7171717171717" cy="63.87089607877721" r="2" fill="rgb(0,0,255)"/><circle cx="226.76767676767676" cy="63.0666787156747" r="2" fill="rgb(0,0,255)"/><circle cx="231.8181818181818" cy="70.88544767482068" r="2" fill="rgb(0,0,255)"/><circle cx="236.86868686868686" cy="60.972220114680454" r="2" fill="rgb(0,0,255)"/><circle cx="241.91919191919192" cy="58.18425072058409" r="2" fill="rgb(0,0,255)"/><circle cx="246.96969696969697" cy="67.40145408248998" r="2" fill="rgb(0,0,255)"/><circle cx="252.02020202020202" cy="65.28061413875787" r="2" fill="rgb(0,0,255)"/><circle cx="257.07070707070704" cy="60.74761966570719" r="2" fill="rgb(0,0,255)"/><circle cx="262.1212121212121" cy="59.14817114972732" r="2" fill="rgb(0,0,255)"/><circle cx="267.1717171717172" cy="61.26644401435874" r="2" fill="rgb(0,0,255)"/><circle cx="272.2222222222222" cy="62.110453550985085" r="2" fill="rgb(0,0,255)"/><circle cx="277.27272727272725" cy="58.37987566458577" r="2" fill="rgb(0,0,255)"/><circle cx="282.32323232323233" cy="59.72918903336176" r="2" fill="rgb(0,0,255)"/><circle cx="287.3737373737374" cy="65.46558399735221" r="2" fill="rgb(0,0,255)"/><circle cx="292.42424242424244" cy="57.09947215261485" r="2" fill="rgb(0,0,255)"/><circle cx="297.47474747474746" cy="57.66854083557257" r="2" fill="rgb(0,0,255)"/><circle cx="302.52525252525254" cy="64.06905468971439" r="2" fill="rgb(0,0,255)"/><circle cx="307.57575757575756" cy="74.75455064743653" r="2" fill="rgb(0,0,255)"/><circle cx="312.62626262626264" cy="64.33162184187205" r="2" fill="rgb(0,0,255)"/><circle cx="317.67676767676767" cy="62.31753339616148" r="2" fill="rgb(0,0,255)"/><circle cx="322.7272727272727" cy="57.07920408755274" r="2" fill="rgb(0,0,255)"/><circle cx="327.77777777777777" cy="57.17210337567872" r="2" fill="rgb(0,0,255)"/><circle cx="332.8282828282828" cy="56.48664277373757" r="2" fill="rgb(0,0,255)"/><circle cx="337.8787878787879" cy="69.25589171881501" r="2" fill="rgb(0,0,255)"/><circle cx="342.92929292929296" cy="66.83472882300384" r="2" fill="rgb(0,0,255)"/><circle cx="347.979797979798" cy="60.37896567503719" r="2" fill="rgb(0,0,255)"/><circle cx="353.03030303030306" cy="57.91443697990741" r="2" fill="rgb(0,0,255)"/><circle cx="358.0808080808081" cy="70.21294591171716" r="2" fill="rgb(0,0,255)"/><circle cx="363.13131313131316" cy="69.30626529932238" r="2" fill="rgb(0,0,255)"/><circle cx="368.1818181818182" cy="58.86268325500674" r="2" fill="rgb(0,0,255)"/><circle cx="373.23232323232327" cy="57.07843094158892" r="2" fill="rgb(0,0,255)"/><circle cx="378.2828282828283" cy="55.982194206327335" r="2" fill="rgb(0,0,255)"/><circle cx="383.3333333333333" cy="64.13748715535866" r="2" fill="rgb(0,0,255)"/><circle cx="388.3838383838384" cy="61.489432473636384" r="2" fill="rgb(0,0,255)"/><circle cx="393.4343434343434" cy="61.05864228202688" r="2" fill="rgb(0,0,255)"/><circle cx="398.4848484848485" cy="60.16511843879431" r="2" fill="rgb(0,0,255)"/><circle cx="403.5353535353535" cy="66.80037229897641" r="2" fill="rgb(0,0,255)"/><circle cx="408.58585858585855" cy="52.74697475097656" r="2" fill="rgb(0,0,255)"/><circle cx="413.6363636363636" cy="62.738348850350974" r="2" fill="rgb(0,0,255)"/><circle cx="418.68686868686865" cy="57.17876558623817" r="2" fill="rgb(0,0,255)"/><circle cx="423.73737373737373" cy="60.57637073361991" r="2" fill="rgb(0,0,255)"/><circle cx="428.7878787878788" cy="57.14383897413029" r="2" fill="rgb(0,0,255)"/><circle cx="433.83838383838383" cy="65.00282946420339" r="2" fill="rgb(0,0,255)"/><circle cx="438.8888888888889" cy="68.2020235588418" r="2" fill="rgb(0,0,255)"/><circle cx="443.93939393939394" cy="60.87580360991336" r="2" fill="rgb(0,0,255)"/><circle cx="448.989898989899" cy="69.42931023197048" r="2" fill="rgb(0,0,255)"/><circle cx="454.04040404040404" cy="64.18370652482292" r="2" fill="rgb(0,0,255)"/><circle cx="459.0909090909091" cy="66.32417594814132" r="2" fill="rgb(0,0,255)"/><circle cx="464.14141414141415" cy="62.01987780904585" r="2" fill="rgb(0,0,255)"/><circle cx="469.19191919191917" cy="67.22617196022327" r="2" fill="rgb(0,0,255)"/><circle cx="474.24242424242425" cy="69.633864917359" r="2" fill="rgb(0,0,255)"/><circle cx="479.2929292929293" cy="71.17574332106636" r="2" fill="rgb(0,0,255)"/><circle cx="484.34343434343435" cy="78.7667621278813" r="2" fill="rgb(0,0,255)"/><circle cx="489.3939393939394" cy="79.8245502287993" r="2" fill="rgb(0,0,255)"/><circle cx="494.4444444444444" cy="68.57781802639562" r="2" fill="rgb(0,0,255)"/><circle cx="499.4949494949495" cy="63.819828013151266" r="2" fill="rgb(0,0,255)"/><circle cx="504.5454545454545" cy="71.090585065396" r="2" fill="rgb(0,0,255)"/><circle cx="509.59595959595964" cy="62.60410345691116" r="2" fill="rgb(0,0,255)"/><circle cx="514.6464646464647" cy="63.161165334253724" r="2" fill="rgb(0,0,255)"/><circle cx="519.6969696969697" cy="60.71052673118601" r="2" fill="rgb(0,0,255)"/><circle cx="524.7474747474748" cy="60.3566143975263" r="2" fill="rgb(0,0,255)"/><circle cx="529.7979797979798" cy="69.69611922464924" r="2" fill="rgb(0,0,255)"/><circle cx="534.8484848484849" cy="70.93419033774245" r="2" fill="rgb(0,0,255)"/><circle cx="539.8989898989898" cy="66.514382689753" r="2" fill="rgb(0,0,255)"/><circle cx="544.9494949494949" cy="66.37545876305734" r="2" fill="rgb(0,0,255)"/><circle cx="550.0" cy="68.25060276122588" r="2" fill="rgb(0,0,255)"/><polyline points="50.0,61.8905641147727 55.05050505050505,61.77891341464124 60.101010101010104,60.90611901277481 65.15151515151516,59.37944083014986 70.20202020202021,63.56901969056338 75.25252525252526,62.661829773520026 80.30303030303031,61.85679568679069 85.35353535353535,61.864977875368254 90.40404040404042,62.372669410562764 95.45454545454545,60.633459291213626 100.5050505050505,60.826666701232796 105.55555555555554,61.752181462108695 110.60606060606061,61.37151024681532 115.65656565656566,59.69593407017544 120.7070707070707,59.34760279139027 125.75757575757576,59.14227234713542 130.80808080808083,60.67449590699789 135.85858585858585,60.00591939145539 140.9090909090909,58.583752132526 145.95959595959596,58.75958188956264 151.010101010101,57.46022535010917 156.06060606060606,57.36080647973478 161.1111111111111,57.240390288211984 166.16161616161617,58.7231081070525 171.21212121212122,56.108683593874105 176.26262626262627,55.961456680771335 181.31313131313132,55.7938314712307 186.36363636363635,55.095559315044795 191.4141414141414,55.79421382867997 196.46464646464648,55.05637729845944 201.51515151515153,55.32471146186441 206.56565656565658,54.750039145307255 211.61616161616163,52.519865117668076 216.66666666666666,52.338120115347465 221.7171717171717,51.91592843698629 226.76767676767676,51.48334804832717 231.8181818181818,51.70077766138621 236.86868686868686,52.217489650604136 241.91919191919192,51.99396862429421 246.96969696969697,51.63348756912188 252.02020202020202,51.895735831297486 257.07070707070704,51.67134202117546 262.1212121212121,51.48830079609337 267.1717171717172,51.76682732471454 272.2222222222222,51.38733614356977 277.27272727272725,51.25784950781002 282.32323232323233,51.06036563242441 287.3737373737374,51.06036563242441 292.42424242424244,51.06036563242441 297.47474747474746,51.06036563242441 302.52525252525254,51.054938405052155 307.57575757575756,51.069943075646336 312.62626262626264,51.16923597408953 317.67676767676767,51.33495753367157 322.7272727272727,51.06036563242441 327.77777777777777,50.914518061443346 332.8282828282828,50.786719516832534 337.8787878787879,50.82352299010245 342.92929292929296,50.84630561256017 347.979797979798,50.74325594967087 353.03030303030306,50.81749969071956 358.0808080808081,50.74325594967087 363.13131313131316,50.801957884385956 368.1818181818182,50.74325594967087 373.23232323232327,50.74325594967087 378.2828282828283,50.74325594967087 383.3333333333333,50.74325594967087 388.3838383838384,50.74325594967087 393.4343434343434,50.715184075598074 398.4848484848485,50.74325594967087 403.5353535353535,50.74325594967087 408.58585858585855,50.715184075598074 413.6363636363636,50.739430346888525 418.68686868686865,50.82352299010245 423.73737373737373,50.82705325626813 428.7878787878788,50.74325594967087 433.83838383838383,50.82200378966871 438.8888888888889,50.73265400408047 443.93939393939394,50.65703042971387 448.989898989899,50.15833638426261 454.04040404040404,50.078069343830975 459.0909090909091,50.25885229095945 464.14141414141415,50.15833638426261 469.19191919191917,50.078069343830975 474.24242424242425,50.078069343830975 479.2929292929293,50.078069343830975 484.34343434343435,50.1337947763555 489.3939393939394,50.11604030502161 494.4444444444444,50.11604030502161 499.4949494949495,50.04999746975818 504.5454545454545,50.04999746975818 509.59595959595964,50.148311684540374 514.6464646464647,50.078069343830975 519.6969696969697,50.05132604400916 524.7474747474748,50.0 529.7979797979798,50.07939791808201 534.8484848484849,50.04999746975818 539.8989898989898,50.110332259110805 544.9494949494949,50.110332259110805 550.0,50.04999746975818" fill="none" stroke="rgb(0,255,0)" stroke-width="1"/><circle cx="50.0" cy="61.8905641147727" r="2" fill="rgb(0,255,0)"/><circle cx="55.05050505050505" cy="61.77891341464124" r="2" fill="rgb(0,255,0)"/><circle cx="60.101010101010104" cy="60.90611901277481" r="2" fill="rgb(0,255,0)"/><circle cx="65.15151515151516" cy="59.37944083014986" r="2" fill="rgb(0,255,0)"/><circle cx="70.20202020202021" cy="63.56901969056338" r="2" fill="rgb(0,255,0)"/><circle cx="75.25252525252526" cy="62.661829773520026" r="2" fill="rgb(0,255,0)"/><circle cx="80.30303030303031" cy="61.85679568679069" r="2" fill="rgb(0,255,0)"/><circle cx="85.35353535353535" cy="61.864977875368254" r="2" fill="rgb(0,255,0)"/><circle cx="90.40404040404042" cy="62.372669410562764" r="2" fill="rgb(0,255,0)"/><circle cx="95.45454545454545" cy="60.633459291213626" r="2" fill="rgb(0,255,0)"/><circle cx="100.5050505050505" cy="60.826666701232796" r="2" fill="rgb(0,255,0)"/><circle cx="105.55555555555554" cy="61.752181462108695" r="2" fill="rgb(0,255,0)"/><circle cx="110.60606060606061" cy="61.37151024681532" r="2" fill="rgb(0,255,0)"/><circle cx="115.65656565656566" cy="59.69593407017544" r="2" fill="rgb(0,255,0)"/><circle cx="120.7070707070707" cy="59.34760279139027" r="2" fill="rgb(0,255,0)"/><circle cx="125.75757575757576" cy="59.14227234713542" r="2" fill="rgb(0,255,0)"/><circle cx="130.80808080808083" cy="60.67449590699789" r="2" fill="rgb(0,255,0)"/><circle cx="135.85858585858585" cy="60.00591939145539" r="2" fill="rgb(0,255,0)"/><circle cx="140.9090909090909" cy="58.583752132526" r="2" fill="rgb(0,255,0)"/><circle cx="145.95959595959596" cy="58.75958188956264" r="2" fill="rgb(0,255,0)"/><circle cx="151.010101010101" cy="57.46022535010917" r="2" fill="rgb(0,255,0)"/><circle cx="156.06060606060606" cy="57.36080647973478" r="2" fill="rgb(0,255,0)"/><circle cx="161.1111111111111" cy="57.240390288211984" r="2" fill="rgb(0,255,0)"/><circle cx="166.16161616161617" cy="58.7231081070525" r="2" fill="rgb(0,255,0)"/><circle cx="171.21212121212122" cy="56.108683593874105" r="2" fill="rgb(0,255,0)"/><circle cx="176.26262626262627" cy="55.961456680771335" r="2" fill="rgb(0,255,0)"/><circle cx="181.31313131313132" cy="55.7938314712307" r="2" fill="rgb(0,255,0)"/><circle cx="186.36363636363635" cy="55.095559315044795" r="2" fill="rgb(0,255,0)"/><circle cx="191.4141414141414" cy="55.79421382867997" r="2" fill="rgb(0,255,0)"/><circle cx="196.46464646464648" cy="55.05637729845944" r="2" fill="rgb(0,255,0)"/><circle cx="201.51515151515153" cy="55.32471146186441" r="2" fill="rgb(0,255,0)"/><circle cx="206.56565656565658" cy="54.750039145307255" r="2" fill="rgb(0,255,0)"/><circle cx="211.61616161616163" cy="52.519865117668076" r="2" fill="rgb(0,255,0)"/><circle cx="216.66666666666666" cy="52.338120115347465" r="2" fill="rgb(0,255,0)"/><circle cx="221.7171717171717" cy="51.91592843698629" r="2" fill="rgb(0,255,0)"/><circle cx="226.76767676767676" cy="51.48334804832717" r="2" fill="rgb(0,255,0)"/><circle cx="231.8181818181818" cy="51.70077766138621" r="2" fill="rgb(0,255,0)"/><circle cx="236.86868686868686" cy="52.217489650604136" r="2" fill="rgb(0,255,0)"/><circle cx="241.91919191919192" cy="51.99396862429421" r="2" fill="rgb(0,255,0)"/><circle cx="246.96969696969697" cy="51.63348756912188" r="2" fill="rgb(0,255,0)"/><circle cx="252.02020202020202" cy="51.895735831297486" r="2" fill="rgb(0,255,0)"/><circle cx="257.07070707070704" cy="51.67134202117546" r="2" fill="rgb(0,255,0)"/><circle cx="262.1212121212121" cy="51.48830079609337" r="2" fill="rgb(0,255,0)"/><circle cx="267.1717171717172" cy="51.76682732471454" r="2" fill="rgb(0,255,0)"/><circle cx="272.2222222222222" cy="51.38733614356977" r="2" fill="rgb(0,255,0)"/><circle cx="277.27272727272725" cy="51.25784950781002" r="2" fill="rgb(0,255,0)"/><circle cx="282.32323232323233" cy="51.06036563242441" r="2" fill="rgb(0,255,0)"/><circle cx="287.3737373737374" cy="51.06036563242441" r="2" fill="rgb(0,255,0)"/><circle cx="292.42424242424244" cy="51.06036563242441" r="2" fill="rgb(0,255,0)"/><circle cx="297.47474747474746" cy="51.06036563242441" r="2" fill="rgb(0,255,0)"/><circle cx="302.52525252525254" cy="51.054938405052155" r="2" fill="rgb(0,255,0)"/><circle cx="307.57575757575756" cy="51.069943075646336" r="2" fill="rgb(0,255,0)"/><circle cx="312.62626262626264" cy="51.16923597408953" r="2" fill="rgb(0,255,0)"/><circle cx="317.67676767676767" cy="51.33495753367157" r="2" fill="rgb(0,255,0)"/><circle cx="322.7272727272727" cy="51.06036563242441" r="2" fill="rgb(0,255,0)"/><circle cx="327.77777777777777" cy="50.914518061443346" r="2" fill="rgb(0,255,0)"/><circle cx="332.8282828282828" cy="50.786719516832534" r="2" fill="rgb(0,255,0)"/><circle cx="337.8787878787879" cy="50.82352299010245" r="2" fill="rgb(0,255,0)"/><circle cx="342.92929292929296" cy="50.84630561256017" r="2" fill="rgb(0,255,0)"/><circle cx="347.979797979798" cy="50.74325594967087" r="2" fill="rgb(0,255,0)"/><circle cx="353.03030303030306" cy="50.81749969071956" r="2" fill="rgb(0,255,0)"/><circle cx="358.0808080808081" cy="50.74325594967087" r="2" fill="rgb(0,255,0)"/><circle cx="363.13131313131316" cy="50.801957884385956" r="2" fill="rgb(0,255,0)"/><circle cx="368.1818181818182" cy="50.74325594967087" r="2" fill="rgb(0,255,0)"/><circle cx="373.23232323232327" cy="50.74325594967087" r="2" fill="rgb(0,255,0)"/><circle cx="378.2828282828283" cy="50.74325594967087" r="2" fill="rgb(0,255,0)"/><circle cx="383.3333333333333" cy="50.74325594967087" r="2" fill="rgb(0,255,0)"/><circle cx="388.3838383838384" cy="50.74325594967087" r="2" fill="rgb(0,255,0)"/><circle cx="393.4343434343434" cy="50.715184075598074" r="2" fill="rgb(0,255,0)"/><circle cx="398.4848484848485" cy="50.74325594967087" r="2" fill="rgb(0,255,0)"/><circle cx="403.5353535353535" cy="50.74325594967087" r="2" fill="rgb(0,255,0)"/><circle cx="408.58585858585855" cy="50.715184075598074" r="2" fill="rgb(0,255,0)"/><circle cx="413.6363636363636" cy="50.739430346888525" r="2" fill="rgb(0,255,0)"/><circle cx="418.68686868686865" cy="50.82352299010245" r="2" fill="rgb(0,255,0)"/><circle cx="423.73737373737373" cy="50.82705325626813" r="2" fill="rgb(0,255,0)"/><circle cx="428.7878787878788" cy="50.74325594967087" r="2" fill="rgb(0,255,0)"/><circle cx="433.83838383838383" cy="50.82200378966871" r="2" fill="rgb(0,255,0)"/><circle cx="438.8888888888889" cy="50.73265400408047" r="2" fill="rgb(0,255,0)"/><circle cx="443.93939393939394" cy="50.65703042971387" r="2" fill="rgb(0,255,0)"/><circle cx="448.989898989899" cy="50.15833638426261" r="2" fill="rgb(0,255,0)"/><circle cx="454.04040404040404" cy="50.078069343830975" r="2" fill="rgb(0,255,0)"/><circle cx="459.0909090909091" cy="50.25885229095945" r="2" fill="rgb(0,255,0)"/><circle cx="464.14141414141415" cy="50.15833638426261" r="2" fill="rgb(0,255,0)"/><circle cx="469.19191919191917" cy="50.078069343830975" r="2" fill="rgb(0,255,0)"/><circle cx="474.24242424242425" cy="50.078069343830975" r="2" fill="rgb(0,255,0)"/><circle cx="479.2929292929293" cy="50.078069343830975" r="2" fill="rgb(0,255,0)"/><circle cx="484.34343434343435" cy="50.1337947763555" r="2" fill="rgb(0,255,0)"/><circle cx="489.3939393939394" cy="50.11604030502161" r="2" fill="rgb(0,255,0)"/><circle cx="494.4444444444444" cy="50.11604030502161" r="2" fill="rgb(0,255,0)"/><circle cx="499.4949494949495" cy="50.04999746975818" r="2" fill="rgb(0,255,0)"/><circle cx="504.5454545454545" cy="50.04999746975818" r="2" fill="rgb(0,255,0)"/><circle cx="509.59595959595964" cy="50.148311684540374" r="2" fill="rgb(0,255,0)"/><circle cx="514.6464646464647" cy="50.078069343830975" r="2" fill="rgb(0,255,0)"/><circle cx="519.6969696969697" cy="50.05132604400916" r="2" fill="rgb(0,255,0)"/><circle cx="524.7474747474748" cy="50.0" r="2" fill="rgb(0,255,0)"/><circle cx="529.7979797979798" cy="50.07939791808201" r="2" fill="rgb(0,255,0)"/><circle cx="534.8484848484849" cy="50.04999746975818" r="2" fill="rgb(0,255,0)"/><circle cx="539.8989898989898" cy="50.110332259110805" r="2" fill="rgb(0,255,0)"/><circle cx="544.9494949494949" cy="50.110332259110805" r="2" fill="rgb(0,255,0)"/><circle cx="550.0" cy="50.04999746975818" r="2" fill="rgb(0,255,0)"/><text x="350.0" y="20.0" text-anchor="middle" fill="rgb(0,0,0)" font-size="20.0">GA Demo</text><text x="350.0" y="575.0" text-anchor="middle" fill="rgb(0,0,0)" font-size="12.0">generation</text><text transform="rotate(-90.0 20.0 300.0)" x="20.0" y="300.0" text-anchor="middle" fill="rgb(0,0,0)" font-size="12.0">fitness</text><text x="620" y="62" fill="rgb(0,0,0)" font-size="12">min</text><text x="620" y="74" fill="rgb(0,0,255)" font-size="12">ave</text><text x="620" y="86" fill="rgb(0,255,0)" font-size="12">max</text>
      Sorry, your browser does not support inline SVG.
    </svg>