<?xml version='1.0' encoding='UTF-8'?>
<svg version="1.1" width="700.0" height="600.0" onload="init(evt)" xmlns="http://www.w3.org/2000/svg">
      <style>.caption {
  font-size: 14px;
  font-family: Georgia, serif;
}
</style>
      <script type="text/ecmascript"><![CDATA[
function init(evt) {
  if ( window.svgDocument == null ) {
    svgDocument = evt.target.ownerDocument;
  }
}

function RectHover(evt, i, c) {
  rect = svgDocument.getElementById('rect' + i);
  if( c != null ) {
    rect.setAttributeNS(null, "fill", c)  
  }
  tooltiptext = svgDocument.getElementById('tooltiptext' + i);
  tooltipbg = svgDocument.getElementById('tooltipbg' + i);
  if( tooltipbg != null) {
    tbb = tooltiptext.getBBox();
    tooltipbg.setAttributeNS(null, "width", tbb.width);
    tooltipbg.setAttributeNS(null, "height", tbb.height);
    tooltipbg.setAttributeNS(null, "x", tbb.x);
    tooltipbg.setAttributeNS(null, "y", tbb.y);
    tooltipbg.setAttributeNS(null, "visibility", "visible");
  }
  tooltiptext.setAttributeNS(null,"visibility","visible");
}

function RectUnhover(evt, i, c) {
  rect = svgDocument.getElementById('rect' + i);
  if( c != null ) {
    rect.setAttributeNS(null, "fill", c)  
  }
  tooltiptext = svgDocument.getElementById('tooltiptext' + i);
  tooltiptext.setAttributeNS(null,"visibility","hidden");
  tooltipbg = svgDocument.getElementById('tooltipbg' + i);
  if( tooltipbg != null ) {
    tooltipbg.setAttributeNS(null,"visibility","hidden");
  }
}
]]></script>
      <line x1="50.0" y1="550.0" x2="550.0" y2="550.0" stroke="rgb(0,0,0)" stroke-width="1"/><line x1="50.0" y1="550.0" x2="50.0" y2="50.0" stroke="rgb(0,0,0)" stroke-width="1"/><line x1="50.0" y1="550.0" x2="50.0" y2="50.0" stroke="rgb(192,192,192)" stroke-width="1"/><line x1="50.0" y1="548.0" x2="50.0" y2="552.0" stroke="rgb(192,192,192)" stroke-width="1"/><text text-anchor="middle" alignment-baseline="hanging" x="50.0" y="553.0" font-size="12.0">0</text><line x1="100.5050505050505" y1="550.0" x2="100.5050505050505" y2="50.0" stroke="rgb(192,192,192)" stroke-width="1"/><line x1="100.5050505050505" y1="548.0" x2="100.5050505050505" y2="552.0" stroke="rgb(192,192,192)" stroke-width="1"/><text text-anchor="middle" alignment-baseline="hanging" x="100.5050505050505" y="553.0" font-size="12.0">10</text><line x1="151.010101010101" y1="550.0" x2="151.010101010101" y2="50.0" stroke="rgb(192,192,192)" stroke-width="1"/><line x1="151.010101010101" y1="548.0" x2="151.010101010101" y2="552.0" stroke="rgb(192,192,192)" stroke-width="1"/><text text-anchor="middle" alignment-baseline="hanging" x="151.010101010101" y="553.0" font-size="12.0">20</text><line x1="201.51515151515153" y1="550.0" x2="201.51515151515153" y2="50.0" stroke="rgb(192,192,192)" stroke-width="1"/><line x1="201.51515151515153" y1="548.0" x2="201.51515151515153" y2="552.0" stroke="rgb(192,192,192)" stroke-width="1"/><text text-anchor="middle" alignment-baseline="hanging" x="201.51515151515153" y="553.0" font-size="12.0">30</text><line x1="252.02020202020202" y1="550.0" x2="252.02020202020202" y2="50.0" stroke="rgb(192,192,192)" stroke-width="1"/><line x1="252.02020202020202" y1="548.0" x2="252.02020202020202" y2="552.0" stroke="rgb(192,192,192)" stroke-width="1"/><text text-anchor="middle" alignment-baseline="hanging" x="252.02020202020202" y="553.0" font-size="12.0">40</text><line x1="302.52525252525254" y1="550.0" x2="302.52525252525254" y2="50.0" stroke="rgb(192,192,192)" stroke-width="1"/><line x1="302.52525252525254" y1="548.0" x2="302.52525252525254" y2="552.0" stroke="rgb(192,192,192)" stroke-width="1"/><text text-anchor="middle" alignment-baseline="hanging" x="302.52525252525254" y="553.0" font-size="12.0">50</text><line x1="353.03030303030306" y1="550.0" x2="353.03030303030306" y2="50.0" stroke="rgb(192,192,192)" stroke-width="1"/><line x1="353.03030303030306" y1="548.0" x2="353.03030303030306" y2="552.0" stroke="rgb(192,192,192)" stroke-width="1"/><text text-anchor="middle" alignment-baseline="hanging" x="353.03030303030306" y="553.0" font-size="12.0">60</text><line x1="403.5353535353535" y1="550.0" x2="403.5353535353535" y2="50.0" stroke="rgb(192,192,192)" stroke-width="1"/><line x1="403.5353535353535" y1="548.0" x2="403.5353535353535" y2="552.0" stroke="rgb(192,192,192)" stroke-width="1"/><text text-anchor="middle" alignment-baseline="hanging" x="403.5353535353535" y="553.0" font-size="12.0">70</text><line x1="454.04040404040404" y1="550.0" x2="454.04040404040404" y2="50.0" stroke="rgb(192,192,192)" stroke-width="1"/><line x1="454.04040404040404" y1="548.0" x2="454.04040404040404" y2="552.0" stroke="rgb(192,192,192)" stroke-width="1"/><text text-anchor="middle" alignment-baseline="hanging" x="454.04040404040404" y="553.0" font-size="12.0">80</text><line x1="504.5454545454545" y1="550.0" x2="504.5454545454545" y2="50.0" stroke="rgb(192,192,192)" stroke-width="1"/><line x1="504.5454545454545" y1="548.0" x2="504.5454545454545" y2="552.0" stroke="rgb(192,192,192)" stroke-width="1"/><text text-anchor="middle" alignment-baseline="hanging" x="504.5454545454545" y="553.0" font-size="12.0">90</text><line x1="50.0" y1="550.0" x2="550.0" y2="550.0" stroke="rgb(192,192,192)" stroke-width="1"/><text text-anchor="end" alignment-baseline="middle" x="45.0" y="550.0" font-size="12.0">0.0</text><line x1="48.0" y1="550.0" x2="52.0" y2="550.0" stroke="rgb(192,192,192)" stroke-width="1"/><line x1="50.0" y1="368.0449514408009" x2="550.0" y2="368.0449514408009" stroke="rgb(192,192,192)" stroke-width="1"/><text text-anchor="end" alignment-baseline="middle" x="45.0" y="368.0449514408009" font-size="12.0">1000.0</text><line x1="48.0" y1="368.0449514408009" x2="52.0" y2="368.0449514408009" stroke="rgb(192,192,192)" stroke-width="1"/><line x1="50.0" y1="186.08990288160186" x2="550.0" y2="186.08990288160186" stroke="rgb(192,192,192)" stroke-width="1"/><text text-anchor="end" alignment-baseline="middle" x="45.0" y="186.08990288160186" font-size="12.0">2000.0</text><line x1="48.0" y1="186.08990288160186" x2="52.0" y2="186.08990288160186" stroke="rgb(192,192,192)" stroke-width="1"/><polyline points="50.0,430.7649914348326 55.05050505050505,406.9882193702973 60.101010101010104,406.6446226468095 65.15151515151516,423.03312257801764 70.20202020202021,422.8034004164166 75.25252525252526,393.0368090443965 80.30303030303031,373.3889095999655 85.35353535353535,245.7127004180373 90.40404040404042,340.01550918195267 95.45454545454545,415.0897162191611 100.5050505050505,121.15641642012673 105.55555555555554,340.4211920423063 110.60606060606061,340.7595570712432 115.65656565656566,389.2312305057227 120.7070707070707,340.98085474351296 125.75757575757576,341.23256316915035 130.80808080808083,361.06949839692686 135.85858585858585,412.14497022296473 140.9090909090909,412.27729807863545 145.95959595959596,289.44010224344356 151.010101010101,384.36904543961026 156.06060606060606,367.4155271209614 161.1111111111111,388.35476713933343 166.16161616161617,388.7610229063488 171.21212121212122,388.6187334356667 176.26262626262627,374.1320150934946 181.31313131313132,374.8586874570042 186.36363636363635,249.27546018343747 191.4141414141414,301.23483083143987 196.46464646464648,366.75123787704945 201.51515151515153,366.21877919742803 206.56565656565658,366.4552676932846 211.61616161616163,405.25909489000026 216.66666666666666,375.18429470711476 221.7171717171717,375.77942141258023 226.76767676767676,375.6942189171011 231.8181818181818,374.33390308877335 236.86868686868686,297.8118842969228 241.91919191919192,277.7825111719257 246.96969696969697,337.2027121755599 252.02020202020202,368.22081011400746 257.07070707070704,367.6563970098011 262.1212121212121,368.1117441291072 267.1717171717172,375.89796613274837 272.2222222222222,367.78907436779946 277.27272727272725,412.589357283954 282.32323232323233,299.1295278408106 287.3737373737374,311.9881119600976 292.42424242424244,404.45834066812074 297.47474747474746,391.6181302016854 302.52525252525254,365.0102963207804 307.57575757575756,387.3015787225946 312.62626262626264,387.3015787225946 317.67676767676767,364.9254172936288 322.7272727272727,384.8231566431946 327.77777777777777,384.87554289185186 332.8282828282828,370.8198767331363 337.8787878787879,367.71401712214583 342.92929292929296,367.71401712214583 347.979797979798,370.58201905561225 353.03030303030306,409.7788279706019 358.0808080808081,409.7788279706019 363.13131313131316,331.01044775835544 368.1818181818182,368.77919092091173 373.23232323232327,368.60462285886996 378.2828282828283,316.56496618110396 383.3333333333333,286.0106511991306 388.3838383838384,407.53474910032986 393.4343434343434,383.7184600640285 398.4848484848485,286.9097140956358 403.5353535353535,379.04364040067014 408.58585858585855,402.38693484562634 413.6363636363636,402.3614780823333 418.68686868686865,401.18150712163504 423.73737373737373,394.0197238150413 428.7878787878788,384.30498188421507 433.83838383838383,385.28483326497417 438.8888888888889,402.7685514878957 443.93939393939394,309.8267372571043 448.989898989899,215.67271161018897 454.04040404040404,343.9191152174533 459.0909090909091,378.75138027150274 464.14141414141415,336.4596788205016 469.19191919191917,335.63522201261827 474.24242424242425,335.867151124185 479.2929292929293,401.3473815887234 484.34343434343435,408.536334707856 489.3939393939394,375.317922297622 494.4444444444444,365.701313948064 499.4949494949495,356.15841776064883 504.5454545454545,364.08619116535965 509.59595959595964,164.49800192873607 514.6464646464647,283.6509859678486 519.6969696969697,283.20273387587434 524.7474747474748,399.2733211192283 529.7979797979798,281.85079409302176 534.8484848484849,239.10494138794843 539.8989898989898,223.89700286919577 544.9494949494949,363.9687996900202 550.0,367.0135134200126" fill="none" stroke="rgb(0,0,0)" stroke-width="1"/><circle cx="50.0" cy="430.7649914348326" r="2" fill="rgb(0,0,0)"/><circle cx="55.05050505050505" cy="406.9882193702973" r="2" fill="rgb(0,0,0)"/><circle cx="60.101010101010104" cy="406.6446226468095" r="2" fill="rgb(0,0,0)"/><circle cx="65.15151515151516" cy="423.03312257801764" r="2" fill="rgb(0,0,0)"/><circle cx="70.20202020202021" cy="422.8034004164166" r="2" fill="rgb(0,0,0)"/><circle cx="75.25252525252526" cy="393.0368090443965" r="2" fill="rgb(0,0,0)"/><circle cx="80.30303030303031" cy="373.3889095999655" r="2" fill="rgb(0,0,0)"/><circle cx="85.35353535353535" cy="245.7127004180373" r="2" fill="rgb(0,0,0)"/><circle cx="90.40404040404042" cy="340.01550918195267" r="2" fill="rgb(0,0,0)"/><circle cx="95.45454545454545" cy="415.0897162191611" r="2" fill="rgb(0,0,0)"/><circle cx="100.5050505050505" cy="121.15641642012673" r="2" fill="rgb(0,0,0)"/><circle cx="105.55555555555554" cy="340.4211920423063" r="2" fill="rgb(0,0,0)"/><circle cx="110.60606060606061" cy="340.7595570712432" r="2" fill="rgb(0,0,0)"/><circle cx="115.65656565656566" cy="389.2312305057227" r="2" fill="rgb(0,0,0)"/><circle cx="120.7070707070707" cy="340.98085474351296" r="2" fill="rgb(0,0,0)"/><circle cx="125.75757575757576" cy="341.23256316915035" r="2" fill="rgb(0,0,0)"/><circle cx="130.80808080808083" cy="361.06949839692686" r="2" fill="rgb(0,0,0)"/><circle cx="135.85858585858585" cy="412.14497022296473" r="2" fill="rgb(0,0,0)"/><circle cx="140.9090909090909" cy="412.27729807863545" r="2" fill="rgb(0,0,0)"/><circle cx="145.95959595959596" cy="289.44010224344356" r="2" fill="rgb(0,0,0)"/><circle cx="151.010101010101" cy="384.36904543961026" r="2" fill="rgb(0,0,0)"/><circle cx="156.06060606060606" cy="367.4155271209614" r="2" fill="rgb(0,0,0)"/><circle cx="161.1111111111111" cy="388.35476713933343" r="2" fill="rgb(0,0,0)"/><circle cx="166.16161616161617" cy="388.7610229063488" r="2" fill="rgb(0,0,0)"/><circle cx="171.21212121212122" cy="388.6187334356667" r="2" fill="rgb(0,0,0)"/><circle cx="176.26262626262627" cy="374.1320150934946" r="2" fill="rgb(0,0,0)"/><circle cx="181.31313131313132" cy="374.8586874570042" r="2" fill="rgb(0,0,0)"/><circle cx="186.36363636363635" cy="249.27546018343747" r="2" fill="rgb(0,0,0)"/><circle cx="191.4141414141414" cy="301.23483083143987" r="2" fill="rgb(0,0,0)"/><circle cx="196.46464646464648" cy="366.75123787704945" r="2" fill="rgb(0,0,0)"/><circle cx="201.51515151515153" cy="366.21877919742803" r="2" fill="rgb(0,0,0)"/><circle cx="206.56565656565658" cy="366.4552676932846" r="2" fill="rgb(0,0,0)"/><circle cx="211.61616161616163" cy="405.25909489000026" r="2" fill="rgb(0,0,0)"/><circle cx="216.66666666666666" cy="375.18429470711476" r="2" fill="rgb(0,0,0)"/><circle cx="221.7171717171717" cy="375.77942141258023" r="2" fill="rgb(0,0,0)"/><circle cx="226.76767676767676" cy="375.6942189171011" r="2" fill="rgb(0,0,0)"/><circle cx="231.8181818181818" cy="374.33390308877335" r="2" fill="rgb(0,0,0)"/><circle cx="236.86868686868686" cy="297.8118842969228" r="2" fill="rgb(0,0,0)"/><circle cx="241.91919191919192" cy="277.7825111719257" r="2" fill="rgb(0,0,0)"/><circle cx="246.96969696969697" cy="337.2027121755599" r="2" fill="rgb(0,0,0)"/><circle cx="252.02020202020202" cy="368.22081011400746" r="2" fill="rgb(0,0,0)"/><circle cx="257.07070707070704" cy="367.6563970098011" r="2" fill="rgb(0,0,0)"/><circle cx="262.1212121212121" cy="368.1117441291072" r="2" fill="rgb(0,0,0)"/><circle cx="267.1717171717172" cy="375.89796613274837" r="2" fill="rgb(0,0,0)"/><circle cx="272.2222222222222" cy="367.78907436779946" r="2" fill="rgb(0,0,0)"/><circle cx="277.27272727272725" cy="412.589357283954" r="2" fill="rgb(0,0,0)"/><circle cx="282.32323232323233" cy="299.1295278408106" r="2" fill="rgb(0,0,0)"/><circle cx="287.3737373737374" cy="311.9881119600976" r="2" fill="rgb(0,0,0)"/><circle cx="292.42424242424244" cy="404.45834066812074" r="2" fill="rgb(0,0,0)"/><circle cx="297.47474747474746" cy="391.6181302016854" r="2" fill="rgb(0,0,0)"/><circle cx="302.52525252525254" cy="365.0102963207804" r="2" fill="rgb(0,0,0)"/><circle cx="307.57575757575756" cy="387.3015787225946" r="2" fill="rgb(0,0,0)"/><circle cx="312.62626262626264" cy="387.3015787225946" r="2" fill="rgb(0,0,0)"/><circle cx="317.67676767676767" cy="364.9254172936288" r="2" fill="rgb(0,0,0)"/><circle cx="322.7272727272727" cy="384.8231566431946" r="2" fill="rgb(0,0,0)"/><circle cx="327.77777777777777" cy="384.87554289185186" r="2" fill="rgb(0,0,0)"/><circle cx="332.8282828282828" cy="370.8198767331363" r="2" fill="rgb(0,0,0)"/><circle cx="337.8787878787879" cy="367.71401712214583" r="2" fill="rgb(0,0,0)"/><circle cx="342.92929292929296" cy="367.71401712214583" r="2" fill="rgb(0,0,0)"/><circle cx="347.979797979798" cy="370.58201905561225" r="2" fill="rgb(0,0,0)"/><circle cx="353.03030303030306" cy="409.7788279706019" r="2" fill="rgb(0,0,0)"/><circle cx="358.0808080808081" cy="409.7788279706019" r="2" fill="rgb(0,0,0)"/><circle cx="363.13131313131316" cy="331.01044775835544" r="2" fill="rgb(0,0,0)"/><circle cx="368.1818181818182" cy="368.77919092091173" r="2" fill="rgb(0,0,0)"/><circle cx="373.23232323232327" cy="368.60462285886996" r="2" fill="rgb(0,0,0)"/><circle cx="378.2828282828283" cy="316.56496618110396" r="2" fill="rgb(0,0,0)"/><circle cx="383.3333333333333" cy="286.0106511991306" r="2" fill="rgb(0,0,0)"/><circle cx="388.3838383838384" cy="407.53474910032986" r="2" fill="rgb(0,0,0)"/><circle cx="393.4343434343434" cy="383.7184600640285" r="2" fill="rgb(0,0,0)"/><circle cx="398.4848484848485" cy="286.9097140956358" r="2" fill="rgb(0,0,0)"/><circle cx="403.5353535353535" cy="379.04364040067014" r="2" fill="rgb(0,0,0)"/><circle cx="408.58585858585855" cy="402.38693484562634" r="2" fill="rgb(0,0,0)"/><circle cx="413.6363636363636" cy="402.3614780823333" r="2" fill="rgb(0,0,0)"/><circle cx="418.68686868686865" cy="401.18150712163504" r="2" fill="rgb(0,0,0)"/><circle cx="423.73737373737373" cy="394.0197238150413" r="2" fill="rgb(0,0,0)"/><circle cx="428.7878787878788" cy="384.30498188421507" r="2" fill="rgb(0,0,0)"/><circle cx="433.83838383838383" cy="385.28483326497417" r="2" fill="rgb(0,0,0)"/><circle cx="438.8888888888889" cy="402.7685514878957" r="2" fill="rgb(0,0,0)"/><circle cx="443.93939393939394" cy="309.8267372571043" r="2" fill="rgb(0,0,0)"/><circle cx="448.989898989899" cy="215.67271161018897" r="2" fill="rgb(0,0,0)"/><circle cx="454.04040404040404" cy="343.9191152174533" r="2" fill="rgb(0,0,0)"/><circle cx="459.0909090909091" cy="378.75138027150274" r="2" fill="rgb(0,0,0)"/><circle cx="464.14141414141415" cy="336.4596788205016" r="2" fill="rgb(0,0,0)"/><circle cx="469.19191919191917" cy="335.63522201261827" r="2" fill="rgb(0,0,0)"/><circle cx="474.24242424242425" cy="335.867151124185" r="2" fill="rgb(0,0,0)"/><circle cx="479.2929292929293" cy="401.3473815887234" r="2" fill="rgb(0,0,0)"/><circle cx="484.34343434343435" cy="408.536334707856" r="2" fill="rgb(0,0,0)"/><circle cx="489.3939393939394" cy="375.317922297622" r="2" fill="rgb(0,0,0)"/><circle cx="494.4444444444444" cy="365.701313948064" r="2" fill="rgb(0,0,0)"/><circle cx="499.4949494949495" cy="356.15841776064883" r="2" fill="rgb(0,0,0)"/><circle cx="504.5454545454545" cy="364.08619116535965" r="2" fill="rgb(0,0,0)"/><circle cx="509.59595959595964" cy="164.49800192873607" r="2" fill="rgb(0,0,0)"/><circle cx="514.6464646464647" cy="283.6509859678486" r="2" fill="rgb(0,0,0)"/><circle cx="519.6969696969697" cy="283.20273387587434" r="2" fill="rgb(0,0,0)"/><circle cx="524.7474747474748" cy="399.2733211192283" r="2" fill="rgb(0,0,0)"/><circle cx="529.7979797979798" cy="281.85079409302176" r="2" fill="rgb(0,0,0)"/><circle cx="534.8484848484849" cy="239.10494138794843" r="2" fill="rgb(0,0,0)"/><circle cx="539.8989898989898" cy="223.89700286919577" r="2" fill="rgb(0,0,0)"/><circle cx="544.9494949494949" cy="363.9687996900202" r="2" fill="rgb(0,0,0)"/><circle cx="550.0" cy="367.0135134200126" r="2" fill="rgb(0,0,0)"/><polyline points="50.0,195.33359259042538 55.05050505050505,174.52023128043732 60.101010101010104,148.47114426690752 65.15151515151516,132.00502250550392 70.20202020202021,113.58302933643262 75.25252525252526,94.45441956478805 80.30303030303031,93.54305522458372 85.35353535353535,81.12958375004126 90.40404040404042,80.98546309362155 95.45454545454545,74.87974290796495 100.5050505050505,66.513125492749 105.55555555555554,67.72712411272454 110.60606060606061,69.96524985957751 115.65656565656566,84.5287387341836 120.7070707070707,79.18900666532056 125.75757575757576,71.94233330095142 130.80808080808083,75.32709514929411 135.85858585858585,72.43655807881873 140.9090909090909,74.49246624060396 145.95959595959596,62.94256795787771 151.010101010101,61.29903880244734 156.06060606060606,59.464024620502414 161.1111111111111,62.925995908984646 166.16161616161617,70.19643778681461 171.21212121212122,76.85029058255759 176.26262626262627,63.91441917072905 181.31313131313132,64.3289770114759 186.36363636363635,58.64144328945986 191.4141414141414,63.47728270529535 196.46464646464648,60.52133309123798 201.51515151515153,61.3976928222184 206.56565656565658,59.550449949135555 211.61616161616163,70.26218973811655 216.66666666666666,59.983546127778766 221.7171717171717,60.39226120957193 226.76767676767676,65.95200739193535 231.8181818181818,62.97052176725248 236.86868686868686,62.559082408898746 241.91919191919192,59.94620662884142 246.96969696969697,59.3794002439044 252.02020202020202,61.00172551544733 257.07070707070704,67.65696679522938 262.1212121212121,67.55524310051135 267.1717171717172,67.85722491119634 272.2222222222222,65.48276520762812 277.27272727272725,72.75323230781856 282.32323232323233,57.51718279518411 287.3737373737374,62.84745006059933 292.42424242424244,62.3776199836376 297.47474747474746,62.83126335861266 302.52525252525254,65.22660636810184 307.57575757575756,81.16142581823374 312.62626262626264,77.45708183494372 317.67676767676767,68.90020529842297 322.7272727272727,64.91328526332808 327.77777777777777,66.00534505663865 332.8282828282828,67.32063783872138 337.8787878787879,69.7877215772545 342.92929292929296,66.67994820256774 347.979797979798,66.14519806583439 353.03030303030306,68.37336451645535 358.0808080808081,62.53499412853694 363.13131313131316,60.05386481611953 368.1818181818182,65.38637800730527 373.23232323232327,66.55985899323525 378.2828282828283,61.83450555371894 383.3333333333333,62.15299197828506 388.3838383838384,70.65251404102685 393.4343434343434,68.87473104044886 398.4848484848485,63.55830198744394 403.5353535353535,68.78038753095205 408.58585858585855,71.9045338687464 413.6363636363636,65.61451343755544 418.68686868686865,61.401762653183766 423.73737373737373,59.75034992365937 428.7878787878788,62.252678895837505 433.83838383838383,57.00048520821042 438.8888888888889,56.173172434342916 443.93939393939394,59.12367301876776 448.989898989899,55.24754730750635 454.04040404040404,61.95097506857985 459.0909090909091,67.7440712999761 464.14141414141415,63.2142326226799 469.19191919191917,63.380791593940785 474.24242424242425,57.14012351750114 479.2929292929293,64.12046429140673 484.34343434343435,65.3999348838201 489.3939393939394,66.7768040371127 494.4444444444444,56.49220800183292 499.4949494949495,57.59145829375092 504.5454545454545,55.490327628219575 509.59595959595964,51.95420959837105 514.6464646464647,55.754404327051645 519.6969696969697,57.037752509123834 524.7474747474748,61.699497787225596 529.7979797979798,57.6348109517063 534.8484848484849,61.5782236070026 539.8989898989898,61.285819562915776 544.9494949494949,61.17747749559027 550.0,64.24545441344748" fill="none" stroke="rgb(0,0,255)" stroke-width="1"/><circle cx="50.0" cy="195.33359259042538" r="2" fill="rgb(0,0,255)"/><circle cx="55.05050505050505" cy="174.52023128043732" r="2" fill="rgb(0,0,255)"/><circle cx="60.101010101010104" cy="148.47114426690752" r="2" fill="rgb(0,0,255)"/><circle cx="65.15151515151516" cy="132.00502250550392" r="2" fill="rgb(0,0,255)"/><circle cx="70.20202020202021" cy="113.58302933643262" r="2" fill="rgb(0,0,255)"/><circle cx="75.25252525252526" cy="94.45441956478805" r="2" fill="rgb(0,0,255)"/><circle cx="80.30303030303031" cy="93.54305522458372" r="2" fill="rgb(0,0,255)"/><circle cx="85.35353535353535" cy="81.12958375004126" r="2" fill="rgb(0,0,255)"/><circle cx="90.40404040404042" cy="80.98546309362155" r="2" fill="rgb(0,0,255)"/><circle cx="95.45454545454545" cy="74.87974290796495" r="2" fill="rgb(0,0,255)"/><circle cx="100.5050505050505" cy="66.513125492749" r="2" fill="rgb(0,0,255)"/><circle cx="105.55555555555554" cy="67.72712411272454" r="2" fill="rgb(0,0,255)"/><circle cx="110.60606060606061" cy="69.96524985957751" r="2" fill="rgb(0,0,255)"/><circle cx="115.65656565656566" cy="84.5287387341836" r="2" fill="rgb(0,0,255)"/><circle cx="120.7070707070707" cy="79.18900666532056" r="2" fill="rgb(0,0,255)"/><circle cx="125.75757575757576" cy="71.94233330095142" r="2" fill="rgb(0,0,255)"/><circle cx="130.80808080808083" cy="75.32709514929411" r="2" fill="rgb(0,0,255)"/><circle cx="135.85858585858585" cy="72.43655807881873" r="2" fill="rgb(0,0,255)"/><circle cx="140.9090909090909" cy="74.49246624060396" r="2" fill="rgb(0,0,255)"/><circle cx="145.95959595959596" cy="62.94256795787771" r="2" fill="rgb(0,0,255)"/><circle cx="151.010101010101" cy="61.29903880244734" r="2" fill="rgb(0,0,255)"/><circle cx="156.06060606060606" cy="59.464024620502414" r="2" fill="rgb(0,0,255)"/><circle cx="161.1111111111111" cy="62.925995908984646" r="2" fill="rgb(0,0,255)"/><circle cx="166.16161616161617" cy="70.19643778681461" r="2" fill="rgb(0,0,255)"/><circle cx="171.21212121212122" cy="76.85029058255759" r="2" fill="rgb(0,0,255)"/><circle cx="176.26262626262627" cy="63.91441917072905" r="2" fill="rgb(0,0,255)"/><circle cx="181.31313131313132" cy="64.3289770114759" r="2" fill="rgb(0,0,255)"/><circle cx="186.36363636363635" cy="58.64144328945986" r="2" fill="rgb(0,0,255)"/><circle cx="191.4141414141414" cy="63.47728270529535" r="2" fill="rgb(0,0,255)"/><circle cx="196.46464646464648" cy="60.52133309123798" r="2" fill="rgb(0,0,255)"/><circle cx="201.51515151515153" cy="61.3976928222184" r="2" fill="rgb(0,0,255)"/><circle cx="206.56565656565658" cy="59.550449949135555" r="2" fill="rgb(0,0,255)"/><circle cx="211.61616161616163" cy="70.26218973811655" r="2" fill="rgb(0,0,255)"/><circle cx="216.66666666666666" cy="59.983546127778766" r="2" fill="rgb(0,0,255)"/><circle cx="221.7171717171717" cy="60.39226120957193" r="2" fill="rgb(0,0,255)"/><circle cx="226.76767676767676" cy="65.95200739193535" r="2" fill="rgb(0,0,255)"/><circle cx="231.8181818181818" cy="62.97052176725248" r="2" fill="rgb(0,0,255)"/><circle cx="236.86868686868686" cy="62.559082408898746" r="2" fill="rgb(0,0,255)"/><circle cx="241.91919191919192" cy="59.94620662884142" r="2" fill="rgb(0,0,255)"/><circle cx="246.96969696969697" cy="59.3794002439044" r="2" fill="rgb(0,0,255)"/><circle cx="252.02020202020202" cy="61.00172551544733" r="2" fill="rgb(0,0,255)"/><circle cx="257.07070707070704" cy="67.65696679522938" r="2" fill="rgb(0,0,255)"/><circle cx="262.1212121212121" cy="67.55524310051135" r="2" fill="rgb(0,0,255)"/><circle cx="267.1717171717172" cy="67.85722491119634" r="2" fill="rgb(0,0,255)"/><circle cx="272.2222222222222" cy="65.48276520762812" r="2" fill="rgb(0,0,255)"/><circle cx="277.27272727272725" cy="72.75323230781856" r="2" fill="rgb(0,0,255)"/><circle cx="282.32323232323233" cy="57.51718279518411" r="2" fill="rgb(0,0,255)"/><circle cx="287.3737373737374" cy="62.84745006059933" r="2" fill="rgb(0,0,255)"/><circle cx="292.42424242424244" cy="62.3776199836376" r="2" fill="rgb(0,0,255)"/><circle cx="297.47474747474746" cy="62.83126335861266" r="2" fill="rgb(0,0,255)"/><circle cx="302.52525252525254" cy="65.22660636810184" r="2" fill="rgb(0,0,255)"/><circle cx="307.57575757575756" cy="81.16142581823374" r="2" fill="rgb(0,0,255)"/><circle cx="312.62626262626264" cy="77.45708183494372" r="2" fill="rgb(0,0,255)"/><circle cx="317.67676767676767" cy="68.90020529842297" r="2" fill="rgb(0,0,255)"/><circle cx="322.7272727272727" cy="64.91328526332808" r="2" fill="rgb(0,0,255)"/><circle cx="327.77777777777777" cy="66.00534505663865" r="2" fill="rgb(0,0,255)"/><circle cx="332.8282828282828" cy="67.32063783872138" r="2" fill="rgb(0,0,255)"/><circle cx="337.8787878787879" cy="69.7877215772545" r="2" fill="rgb(0,0,255)"/><circle cx="342.92929292929296" cy="66.67994820256774" r="2" fill="rgb(0,0,255)"/><circle cx="347.979797979798" cy="66.14519806583439" r="2" fill="rgb(0,0,255)"/><circle cx="353.03030303030306" cy="68.37336451645535" r="2" fill="rgb(0,0,255)"/><circle cx="358.0808080808081" cy="62.53499412853694" r="2" fill="rgb(0,0,255)"/><circle cx="363.13131313131316" cy="60.05386481611953" r="2" fill="rgb(0,0,255)"/><circle cx="368.1818181818182" cy="65.38637800730527" r="2" fill="rgb(0,0,255)"/><circle cx="373.23232323232327" cy="66.55985899323525" r="2" fill="rgb(0,0,255)"/><circle cx="378.2828282828283" cy="61.83450555371894" r="2" fill="rgb(0,0,255)"/><circle cx="383.3333333333333" cy="62.15299197828506" r="2" fill="rgb(0,0,255)"/><circle cx="388.3838383838384" cy="70.65251404102685" r="2" fill="rgb(0,0,255)"/><circle cx="393.4343434343434" cy="68.87473104044886" r="2" fill="rgb(0,0,255)"/><circle cx="398.4848484848485" cy="63.55830198744394" r="2" fill="rgb(0,0,255)"/><circle cx="403.5353535353535" cy="68.78038753095205" r="2" fill="rgb(0,0,255)"/><circle cx="408.58585858585855" cy="71.9045338687464" r="2" fill="rgb(0,0,255)"/><circle cx="413.6363636363636" cy="65.61451343755544" r="2" fill="rgb(0,0,255)"/><circle cx="418.68686868686865" cy="61.401762653183766" r="2" fill="rgb(0,0,255)"/><circle cx="423.73737373737373" cy="59.75034992365937" r="2" fill="rgb(0,0,255)"/><circle cx="428.7878787878788" cy="62.252678895837505" r="2" fill="rgb(0,0,255)"/><circle cx="433.83838383838383" cy="57.00048520821042" r="2" fill="rgb(0,0,255)"/><circle cx="438.8888888888889" cy="56.173172434342916" r="2" fill="rgb(0,0,255)"/><circle cx="443.93939393939394" cy="59.12367301876776" r="2" fill="rgb(0,0,255)"/><circle cx="448.989898989899" cy="55.24754730750635" r="2" fill="rgb(0,0,255)"/><circle cx="454.04040404040404" cy="61.95097506857985" r="2" fill="rgb(0,0,255)"/><circle cx="459.0909090909091" cy="67.7440712999761" r="2" fill="rgb(0,0,255)"/><circle cx="464.14141414141415" cy="63.2142326226799" r="2" fill="rgb(0,0,255)"/><circle cx="469.19191919191917" cy="63.380791593940785" r="2" fill="rgb(0,0,255)"/><circle cx="474.24242424242425" cy="57.14012351750114" r="2" fill="rgb(0,0,255)"/><circle cx="479.2929292929293" cy="64.12046429140673" r="2" fill="rgb(0,0,255)"/><circle cx="484.34343434343435" cy="65.3999348838201" r="2" fill="rgb(0,0,255)"/><circle cx="489.3939393939394" cy="66.7768040371127" r="2" fill="rgb(0,0,255)"/><circle cx="494.4444444444444" cy="56.49220800183292" r="2" fill="rgb(0,0,255)"/><circle cx="499.4949494949495" cy="57.59145829375092" r="2" fill="rgb(0,0,255)"/><circle cx="504.5454545454545" cy="55.490327628219575" r="2" fill="rgb(0,0,255)"/><circle cx="509.59595959595964" cy="51.95420959837105" r="2" fill="rgb(0,0,255)"/><circle cx="514.6464646464647" cy="55.754404327051645" r="2" fill="rgb(0,0,255)"/><circle cx="519.6969696969697" cy="57.037752509123834" r="2" fill="rgb(0,0,255)"/><circle cx="524.7474747474748" cy="61.699497787225596" r="2" fill="rgb(0,0,255)"/><circle cx="529.7979797979798" cy="57.6348109517063" r="2" fill="rgb(0,0,255)"/><circle cx="534.8484848484849" cy="61.5782236070026" r="2" fill="rgb(0,0,255)"/><circle cx="539.8989898989898" cy="61.285819562915776" r="2" fill="rgb(0,0,255)"/><circle cx="544.9494949494949" cy="61.17747749559027" r="2" fill="rgb(0,0,255)"/><circle cx="550.0" cy="64.24545441344748" r="2" fill="rgb(0,0,255)"/><polyline points="50.0,53.152163186197924 55.05050505050505,54.33899573304791 60.101010101010104,52.80697285741917 65.15151515151516,52.93335891337705 70.20202020202021,52.69456544034591 75.25252525252526,52.8367776933261 80.30303030303031,52.796296529949586 85.35353535353535,51.702086114870156 90.40404040404042,52.41864385934082 95.45454545454545,52.51451464876169 100.5050505050505,52.52221513186021 105.55555555555554,52.67907975152872 110.60606060606061,52.606563536843794 115.65656565656566,52.0513020411089 120.7070707070707,51.859078235859215 125.75757575757576,52.34379227805641 130.80808080808083,51.53653719775417 135.85858585858585,51.45628571363187 140.9090909090909,51.46532499325815 145.95959595959596,50.99351583557052 151.010101010101,50.914892571173766 156.06060606060606,50.667770976811084 161.1111111111111,50.99010085767463 166.16161616161617,50.70119895983038 171.21212121212122,50.41916522242229 176.26262626262627,50.730649540627326 181.31313131313132,50.84726298653038 186.36363636363635,50.796809494151205 191.4141414141414,50.34392500177421 196.46464646464648,50.34392500177421 201.51515151515153,50.44128670404643 206.56565656565658,50.511135079614974 211.61616161616163,50.52587685961339 216.66666666666666,50.26039581666868 221.7171717171717,50.22153595417626 226.76767676767676,50.225042957883204 231.8181818181818,50.14988141781305 236.86868686868686,50.29537430114232 241.91919191919192,50.26352844606379 246.96969696969697,50.225042957883204 252.02020202020202,50.18555186755799 257.07070707070704,50.26352844606379 262.1212121212121,50.29888130484926 267.1717171717172,50.18836690599363 272.2222222222222,50.27174725950795 277.27272727272725,50.23586218650007 282.32323232323233,50.2005093277146 287.3737373737374,50.225042957883204 292.42424242424244,50.225042957883204 297.47474747474746,50.27289261954422 302.52525252525254,50.23899481589518 307.57575757575756,50.26352844606379 312.62626262626264,50.23586218650007 317.67676767676767,50.26039581666868 322.7272727272727,50.23219636332601 327.77777777777777,50.25894602390349 332.8282828282828,50.225042957883204 337.8787878787879,50.2328277136088 342.92929292929296,50.15334586964656 347.979797979798,50.23899481589518 353.03030303030306,50.26352844606379 358.0808080808081,50.23899481589518 363.13131313131316,50.225042957883204 368.1818181818182,50.15440282569671 373.23232323232327,50.15440282569671 378.2828282828283,50.15440282569671 383.3333333333333,50.17893645586537 388.3838383838384,50.143583597079896 393.4343434343434,50.15440282569671 398.4848484848485,50.119049966911234 403.5353535353535,50.119049966911234 408.58585858585855,50.143583597079896 413.6363636363636,50.151368352805434 418.68686868686865,50.119049966911234 423.73737373737373,50.119049966911234 428.7878787878788,50.119049966911234 433.83838383838383,50.098425374782096 438.8888888888889,50.119049966911234 443.93939393939394,50.119049966911234 448.989898989899,50.119049966911234 454.04040404040404,50.119049966911234 459.0909090909091,50.07359369302003 464.14141414141415,50.119049966911234 469.19191919191917,50.07359369302003 474.24242424242425,50.07359369302003 479.2929292929293,50.07359369302003 484.34343434343435,50.06963951545231 489.3939393939394,50.07359369302003 494.4444444444444,50.04510588528376 499.4949494949495,50.04510588528376 504.5454545454545,50.04510588528376 509.59595959595964,50.063840666521685 514.6464646464647,50.05302143790482 519.6969696969697,50.02453363016855 524.7474747474748,50.04395615265969 529.7979797979798,50.0 534.8484848484849,50.02733807511214 539.8989898989898,50.0 544.9494949494949,50.0 550.0,50.02453363016855" fill="none" stroke="rgb(0,255,0)" stroke-width="1"/><circle cx="50.0" cy="53.152163186197924" r="2" fill="rgb(0,255,0)"/><circle cx="55.05050505050505" cy="54.33899573304791" r="2" fill="rgb(0,255,0)"/><circle cx="60.101010101010104" cy="52.80697285741917" r="2" fill="rgb(0,255,0)"/><circle cx="65.15151515151516" cy="52.93335891337705" r="2" fill="rgb(0,255,0)"/><circle cx="70.20202020202021" cy="52.69456544034591" r="2" fill="rgb(0,255,0)"/><circle cx="75.25252525252526" cy="52.8367776933261" r="2" fill="rgb(0,255,0)"/><circle cx="80.30303030303031" cy="52.796296529949586" r="2" fill="rgb(0,255,0)"/><circle cx="85.35353535353535" cy="51.702086114870156" r="2" fill="rgb(0,255,0)"/><circle cx="90.40404040404042" cy="52.41864385934082" r="2" fill="rgb(0,255,0)"/><circle cx="95.45454545454545" cy="52.51451464876169" r="2" fill="rgb(0,255,0)"/><circle cx="100.5050505050505" cy="52.52221513186021" r="2" fill="rgb(0,255,0)"/><circle cx="105.55555555555554" cy="52.67907975152872" r="2" fill="rgb(0,255,0)"/><circle cx="110.60606060606061" cy="52.606563536843794" r="2" fill="rgb(0,255,0)"/><circle cx="115.65656565656566" cy="52.0513020411089" r="2" fill="rgb(0,255,0)"/><circle cx="120.7070707070707" cy="51.859078235859215" r="2" fill="rgb(0,255,0)"/><circle cx="125.75757575757576" cy="52.34379227805641" r="2" fill="rgb(0,255,0)"/><circle cx="130.80808080808083" cy="51.53653719775417" r="2" fill="rgb(0,255,0)"/><circle cx="135.85858585858585" cy="51.45628571363187" r="2" fill="rgb(0,255,0)"/><circle cx="140.9090909090909" cy="51.46532499325815" r="2" fill="rgb(0,255,0)"/><circle cx="145.95959595959596" cy="50.99351583557052" r="2" fill="rgb(0,255,0)"/><circle cx="151.010101010101" cy="50.914892571173766" r="2" fill="rgb(0,255,0)"/><circle cx="156.06060606060606" cy="50.667770976811084" r="2" fill="rgb(0,255,0)"/><circle cx="161.1111111111111" cy="50.99010085767463" r="2" fill="rgb(0,255,0)"/><circle cx="166.16161616161617" cy="50.70119895983038" r="2" fill="rgb(0,255,0)"/><circle cx="171.21212121212122" cy="50.41916522242229" r="2" fill="rgb(0,255,0)"/><circle cx="176.26262626262627" cy="50.730649540627326" r="2" fill="rgb(0,255,0)"/><circle cx="181.31313131313132" cy="50.84726298653038" r="2" fill="rgb(0,255,0)"/><circle cx="186.36363636363635" cy="50.796809494151205" r="2" fill="rgb(0,255,0)"/><circle cx="191.4141414141414" cy="50.34392500177421" r="2" fill="rgb(0,255,0)"/><circle cx="196.46464646464648" cy="50.34392500177421" r="2" fill="rgb(0,255,0)"/><circle cx="201.51515151515153" cy="50.44128670404643" r="2" fill="rgb(0,255,0)"/><circle cx="206.56565656565658" cy="50.511135079614974" r="2" fill="rgb(0,255,0)"/><circle cx="211.61616161616163" cy="50.52587685961339" r="2" fill="rgb(0,255,0)"/><circle cx="216.66666666666666" cy="50.26039581666868" r="2" fill="rgb(0,255,0)"/><circle cx="221.7171717171717" cy="50.22153595417626" r="2" fill="rgb(0,255,0)"/><circle cx="226.76767676767676" cy="50.225042957883204" r="2" fill="rgb(0,255,0)"/><circle cx="231.8181818181818" cy="50.14988141781305" r="2" fill="rgb(0,255,0)"/><circle cx="236.86868686868686" cy="50.29537430114232" r="2" fill="rgb(0,255,0)"/><circle cx="241.91919191919192" cy="50.26352844606379" r="2" fill="rgb(0,255,0)"/><circle cx="246.96969696969697" cy="50.225042957883204" r="2" fill="rgb(0,255,0)"/><circle cx="252.02020202020202" cy="50.18555186755799" r="2" fill="rgb(0,255,0)"/><circle cx="257.07070707070704" cy="50.26352844606379" r="2" fill="rgb(0,255,0)"/><circle cx="262.1212121212121" cy="50.29888130484926" r="2" fill="rgb(0,255,0)"/><circle cx="267.1717171717172" cy="50.18836690599363" r="2" fill="rgb(0,255,0)"/><circle cx="272.2222222222222" cy="50.27174725950795" r="2" fill="rgb(0,255,0)"/><circle cx="277.27272727272725" cy="50.23586218650007" r="2" fill="rgb(0,255,0)"/><circle cx="282.32323232323233" cy="50.2005093277146" r="2" fill="rgb(0,255,0)"/><circle cx="287.3737373737374" cy="50.225042957883204" r="2" fill="rgb(0,255,0)"/><circle cx="292.42424242424244" cy="50.225042957883204" r="2" fill="rgb(0,255,0)"/><circle cx="297.47474747474746" cy="50.27289261954422" r="2" fill="rgb(0,255,0)"/><circle cx="302.52525252525254" cy="50.23899481589518" r="2" fill="rgb(0,255,0)"/><circle cx="307.57575757575756" cy="50.26352844606379" r="2" fill="rgb(0,255,0)"/><circle cx="312.62626262626264" cy="50.23586218650007" r="2" fill="rgb(0,255,0)"/><circle cx="317.67676767676767" cy="50.26039581666868" r="2" fill="rgb(0,255,0)"/><circle cx="322.7272727272727" cy="50.23219636332601" r="2" fill="rgb(0,255,0)"/><circle cx="327.77777777777777" cy="50.25894602390349" r="2" fill="rgb(0,255,0)"/><circle cx="332.8282828282828" cy="50.225042957883204" r="2" fill="rgb(0,255,0)"/><circle cx="337.8787878787879" cy="50.2328277136088" r="2" fill="rgb(0,255,0)"/><circle cx="342.92929292929296" cy="50.15334586964656" r="2" fill="rgb(0,255,0)"/><circle cx="347.979797979798" cy="50.23899481589518" r="2" fill="rgb(0,255,0)"/><circle cx="353.03030303030306" cy="50.26352844606379" r="2" fill="rgb(0,255,0)"/><circle cx="358.0808080808081" cy="50.23899481589518" r="2" fill="rgb(0,255,0)"/><circle cx="363.13131313131316" cy="50.225042957883204" r="2" fill="rgb(0,255,0)"/><circle cx="368.1818181818182" cy="50.15440282569671" r="2" fill="rgb(0,255,0)"/><circle cx="373.23232323232327" cy="50.15440282569671" r="2" fill="rgb(0,255,0)"/><circle cx="378.2828282828283" cy="50.15440282569671" r="2" fill="rgb(0,255,0)"/><circle cx="383.3333333333333" cy="50.17893645586537" r="2" fill="rgb(0,255,0)"/><circle cx="388.3838383838384" cy="50.143583597079896" r="2" fill="rgb(0,255,0)"/><circle cx="393.4343434343434" cy="50.15440282569671" r="2" fill="rgb(0,255,0)"/><circle cx="398.4848484848485" cy="50.119049966911234" r="2" fill="rgb(0,255,0)"/><circle cx="403.5353535353535" cy="50.119049966911234" r="2" fill="rgb(0,255,0)"/><circle cx="408.58585858585855" cy="50.143583597079896" r="2" fill="rgb(0,255,0)"/><circle cx="413.6363636363636" cy="50.151368352805434" r="2" fill="rgb(0,255,0)"/><circle cx="418.68686868686865" cy="50.119049966911234" r="2" fill="rgb(0,255,0)"/><circle cx="423.73737373737373" cy="50.119049966911234" r="2" fill="rgb(0,255,0)"/><circle cx="428.7878787878788" cy="50.119049966911234" r="2" fill="rgb(0,255,0)"/><circle cx="433.83838383838383" cy="50.098425374782096" r="2" fill="rgb(0,255,0)"/><circle cx="438.8888888888889" cy="50.119049966911234" r="2" fill="rgb(0,255,0)"/><circle cx="443.93939393939394" cy="50.119049966911234" r="2" fill="rgb(0,255,0)"/><circle cx="448.989898989899" cy="50.119049966911234" r="2" fill="rgb(0,255,0)"/><circle cx="454.04040404040404" cy="50.119049966911234" r="2" fill="rgb(0,255,0)"/><circle cx="459.0909090909091" cy="50.07359369302003" r="2" fill="rgb(0,255,0)"/><circle cx="464.14141414141415" cy="50.119049966911234" r="2" fill="rgb(0,255,0)"/><circle cx="469.19191919191917" cy="50.07359369302003" r="2" fill="rgb(0,255,0)"/><circle cx="474.24242424242425" cy="50.07359369302003" r="2" fill="rgb(0,255,0)"/><circle cx="479.2929292929293" cy="50.07359369302003" r="2" fill="rgb(0,255,0)"/><circle cx="484.34343434343435" cy="50.06963951545231" r="2" fill="rgb(0,255,0)"/><circle cx="489.3939393939394" cy="50.07359369302003" r="2" fill="rgb(0,255,0)"/><circle cx="494.4444444444444" cy="50.04510588528376" r="2" fill="rgb(0,255,0)"/><circle cx="499.4949494949495" cy="50.04510588528376" r="2" fill="rgb(0,255,0)"/><circle cx="504.5454545454545" cy="50.04510588528376" r="2" fill="rgb(0,255,0)"/><circle cx="509.59595959595964" cy="50.063840666521685" r="2" fill="rgb(0,255,0)"/><circle cx="514.6464646464647" cy="50.05302143790482" r="2" fill="rgb(0,255,0)"/><circle cx="519.6969696969697" cy="50.02453363016855" r="2" fill="rgb(0,255,0)"/><circle cx="524.7474747474748" cy="50.04395615265969" r="2" fill="rgb(0,255,0)"/><circle cx="529.7979797979798" cy="50.0" r="2" fill="rgb(0,255,0)"/><circle cx="534.8484848484849" cy="50.02733807511214" r="2" fill="rgb(0,255,0)"/><circle cx="539.8989898989898" cy="50.0" r="2" fill="rgb(0,255,0)"/><circle cx="544.9494949494949" cy="50.0" r="2" fill="rgb(0,255,0)"/><circle cx="550.0" cy="50.02453363016855" r="2" fill="rgb(0,255,0)"/><text x="350.0" y="20.0" text-anchor="middle" fill="rgb(0,0,0)" font-size="20.0">GA Demo</text><text x="350.0" y="575.0" text-anchor="middle" fill="rgb(0,0,0)" font-size="12.0">generation</text><text transform="rotate(-90.0 20.0 300.0)" x="20.0" y="300.0" text-anchor="middle" fill="rgb(0,0,0)" font-size="12.0">fitness</text><text x="620" y="62" fill="rgb(0,0,0)" font-size="12">min</text><text x="620" y="74" fill="rgb(0,0,255)" font-size="12">ave</text><text x="620" y="86" fill="rgb(0,255,0)" font-size="12">max</text>
      Sorry, your browser does not support inline SVG.
    </svg>