<?xml version='1.0' encoding='UTF-8'?>
<svg version="1.1" width="700.0" height="600.0" onload="init(evt)" xmlns="http://www.w3.org/2000/svg">
      <style>.caption {
  font-size: 14px;
  font-family: Georgia, serif;
}
</style>
      <script type="text/ecmascript"><![CDATA[
function init(evt) {
  if ( window.svgDocument == null ) {
    svgDocument = evt.target.ownerDocument;
  }
}

function RectHover(evt, i, c) {
  rect = svgDocument.getElementById('rect' + i);
  if( c != null ) {
    rect.setAttributeNS(null, "fill", c)  
  }
  tooltiptext = svgDocument.getElementById('tooltiptext' + i);
  tooltipbg = svgDocument.getElementById('tooltipbg' + i);
  if( tooltipbg != null) {
    tbb = tooltiptext.getBBox();
    tooltipbg.setAttributeNS(null, "width", tbb.width);
    tooltipbg.setAttributeNS(null, "height", tbb.height);
    tooltipbg.setAttributeNS(null, "x", tbb.x);
    tooltipbg.setAttributeNS(null, "y", tbb.y);
    tooltipbg.setAttributeNS(null, "visibility", "visible");
  }
  tooltiptext.setAttributeNS(null,"visibility","visible");
}

function RectUnhover(evt, i, c) {
  rect = svgDocument.getElementById('rect' + i);
  if( c != null ) {
    rect.setAttributeNS(null, "fill", c)  
  }
  tooltiptext = svgDocument.getElementById('tooltiptext' + i);
  tooltiptext.setAttributeNS(null,"visibility","hidden");
  tooltipbg = svgDocument.getElementById('tooltipbg' + i);
  if( tooltipbg != null ) {
    tooltipbg.setAttributeNS(null,"visibility","hidden");
  }
}
]]></script>
      <line x1="50.0" y1="550.0" x2="550.0" y2="550.0" stroke="rgb(0,0,0)" stroke-width="1"/><line x1="50.0" y1="550.0" x2="50.0" y2="50.0" stroke="rgb(0,0,0)" stroke-width="1"/><line x1="50.0" y1="550.0" x2="50.0" y2="50.0" stroke="rgb(192,192,192)" stroke-width="1"/><line x1="50.0" y1="548.0" x2="50.0" y2="552.0" stroke="rgb(192,192,192)" stroke-width="1"/><text text-anchor="middle" alignment-baseline="hanging" x="50.0" y="553.0" font-size="12.0">0</text><line x1="100.5050505050505" y1="550.0" x2="100.5050505050505" y2="50.0" stroke="rgb(192,192,192)" stroke-width="1"/><line x1="100.5050505050505" y1="548.0" x2="100.5050505050505" y2="552.0" stroke="rgb(192,192,192)" stroke-width="1"/><text text-anchor="middle" alignment-baseline="hanging" x="100.5050505050505" y="553.0" font-size="12.0">10</text><line x1="151.010101010101" y1="550.0" x2="151.010101010101" y2="50.0" stroke="rgb(192,192,192)" stroke-width="1"/><line x1="151.010101010101" y1="548.0" x2="151.010101010101" y2="552.0" stroke="rgb(192,192,192)" stroke-width="1"/><text text-anchor="middle" alignment-baseline="hanging" x="151.010101010101" y="553.0" font-size="12.0">20</text><line x1="201.51515151515153" y1="550.0" x2="201.51515151515153" y2="50.0" stroke="rgb(192,192,192)" stroke-width="1"/><line x1="201.51515151515153" y1="548.0" x2="201.51515151515153" y2="552.0" stroke="rgb(192,192,192)" stroke-width="1"/><text text-anchor="middle" alignment-baseline="hanging" x="201.51515151515153" y="553.0" font-size="12.0">30</text><line x1="252.02020202020202" y1="550.0" x2="252.02020202020202" y2="50.0" stroke="rgb(192,192,192)" stroke-width="1"/><line x1="252.02020202020202" y1="548.0" x2="252.02020202020202" y2="552.0" stroke="rgb(192,192,192)" stroke-width="1"/><text text-anchor="middle" alignment-baseline="hanging" x="252.02020202020202" y="553.0" font-size="12.0">40</text><line x1="302.52525252525254" y1="550.0" x2="302.52525252525254" y2="50.0" stroke="rgb(192,192,192)" stroke-width="1"/><line x1="302.52525252525254" y1="548.0" x2="302.52525252525254" y2="552.0" stroke="rgb(192,192,192)" stroke-width="1"/><text text-anchor="middle" alignment-baseline="hanging" x="302.52525252525254" y="553.0" font-size="12.0">50</text><line x1="353.03030303030306" y1="550.0" x2="353.03030303030306" y2="50.0" stroke="rgb(192,192,192)" stroke-width="1"/><line x1="353.03030303030306" y1="548.0" x2="353.03030303030306" y2="552.0" stroke="rgb(192,192,192)" stroke-width="1"/><text text-anchor="middle" alignment-baseline="hanging" x="353.03030303030306" y="553.0" font-size="12.0">60</text><line x1="403.5353535353535" y1="550.0" x2="403.5353535353535" y2="50.0" stroke="rgb(192,192,192)" stroke-width="1"/><line x1="403.5353535353535" y1="548.0" x2="403.5353535353535" y2="552.0" stroke="rgb(192,192,192)" stroke-width="1"/><text text-anchor="middle" alignment-baseline="hanging" x="403.5353535353535" y="553.0" font-size="12.0">70</text><line x1="454.04040404040404" y1="550.0" x2="454.04040404040404" y2="50.0" stroke="rgb(192,192,192)" stroke-width="1"/><line x1="454.04040404040404" y1="548.0" x2="454.04040404040404" y2="552.0" stroke="rgb(192,192,192)" stroke-width="1"/><text text-anchor="middle" alignment-baseline="hanging" x="454.04040404040404" y="553.0" font-size="12.0">80</text><line x1="504.5454545454545" y1="550.0" x2="504.5454545454545" y2="50.0" stroke="rgb(192,192,192)" stroke-width="1"/><line x1="504.5454545454545" y1="548.0" x2="504.5454545454545" y2="552.0" stroke="rgb(192,192,192)" stroke-width="1"/><text text-anchor="middle" alignment-baseline="hanging" x="504.5454545454545" y="553.0" font-size="12.0">90</text><line x1="50.0" y1="550.0" x2="550.0" y2="550.0" stroke="rgb(192,192,192)" stroke-width="1"/><text text-anchor="end" alignment-baseline="middle" x="45.0" y="550.0" font-size="12.0">0.0</text><line x1="48.0" y1="550.0" x2="52.0" y2="550.0" stroke="rgb(192,192,192)" stroke-width="1"/><line x1="50.0" y1="367.54290133156894" x2="550.0" y2="367.54290133156894" stroke="rgb(192,192,192)" stroke-width="1"/><text text-anchor="end" alignment-baseline="middle" x="45.0" y="367.54290133156894" font-size="12.0">1000.0</text><line x1="48.0" y1="367.54290133156894" x2="52.0" y2="367.54290133156894" stroke="rgb(192,192,192)" stroke-width="1"/><line x1="50.0" y1="185.08580266313788" x2="550.0" y2="185.08580266313788" stroke="rgb(192,192,192)" stroke-width="1"/><text text-anchor="end" alignment-baseline="middle" x="45.0" y="185.08580266313788" font-size="12.0">2000.0</text><line x1="48.0" y1="185.08580266313788" x2="52.0" y2="185.08580266313788" stroke="rgb(192,192,192)" stroke-width="1"/><polyline points="50.0,417.746254678839 55.05050505050505,416.7340752365724 60.101010101010104,415.04450114580277 65.15151515151516,397.89328132522513 70.20202020202021,393.3063578390315 75.25252525252526,400.2728499991476 80.30303030303031,404.9395256498624 85.35353535353535,403.88000182387856 90.40404040404042,385.63429195703543 95.45454545454545,342.27686362383383 100.5050505050505,376.60084650944236 105.55555555555554,395.6741715962329 110.60606060606061,395.6741715962329 115.65656565656566,387.10720155177995 120.7070707070707,387.30822611578316 125.75757575757576,377.691789701634 130.80808080808083,280.3650184166536 135.85858585858585,274.6873915019243 140.9090909090909,365.9114756427531 145.95959595959596,383.44112831328965 151.010101010101,397.669707879458 156.06060606060606,314.73481294223654 161.1111111111111,405.40778190185864 166.16161616161617,406.09560951866945 171.21212121212122,404.6523830489515 176.26262626262627,209.07339307085516 181.31313131313132,322.03175675387297 186.36363636363635,315.28528149633865 191.4141414141414,339.4735139364253 196.46464646464648,338.7647466172246 201.51515151515153,338.3297820179379 206.56565656565658,411.5933888810874 211.61616161616163,345.95499481955346 216.66666666666666,299.5456435689563 221.7171717171717,381.8716975094674 226.76767676767676,259.92766011469394 231.8181818181818,280.91733266975444 236.86868686868686,353.59153111757803 241.91919191919192,407.0278551500147 246.96969696969697,346.9199062964383 252.02020202020202,396.64526184451756 257.07070707070704,395.6248521762071 262.1212121212121,374.0032020898929 267.1717171717172,374.3617466697562 272.2222222222222,370.5328884669686 277.27272727272725,378.4284739998137 282.32323232323233,410.609586278831 287.3737373737374,411.1879988315494 292.42424242424244,411.04676552764784 297.47474747474746,375.55332977074346 302.52525252525254,336.96028459200505 307.57575757575756,285.8551308420746 312.62626262626264,286.04937220955577 317.67676767676767,307.43945515561353 322.7272727272727,397.03972050116283 327.77777777777777,395.7676440117832 332.8282828282828,410.4849268523358 337.8787878787879,381.08331710894237 342.92929292929296,379.56480226788074 347.979797979798,253.73049703966268 353.03030303030306,309.14144988768817 358.0808080808081,385.0130351121994 363.13131313131316,371.87724763523033 368.1818181818182,371.88803527321375 373.23232323232327,316.1831069269693 378.2828282828283,309.55227057881916 383.3333333333333,398.1870295712795 388.3838383838384,398.27228373895827 393.4343434343434,399.2629535379606 398.4848484848485,296.34492978333435 403.5353535353535,411.2519603917575 408.58585858585855,288.7009989205212 413.6363636363636,407.46832863194146 418.68686868686865,407.19297380729137 423.73737373737373,268.37106303562206 428.7878787878788,343.99672615658744 433.83838383838383,355.15443536571655 438.8888888888889,344.0663340012504 443.93939393939394,373.9695822825817 448.989898989899,413.7426455619596 454.04040404040404,415.2414471761834 459.0909090909091,395.67857758057323 464.14141414141415,395.5569993304611 469.19191919191917,392.3833892182396 474.24242424242425,377.92427113804195 479.2929292929293,377.86357611564546 484.34343434343435,342.55955617439736 489.3939393939394,361.21320533087044 494.4444444444444,361.1042422326387 499.4949494949495,262.45970576960343 504.5454545454545,396.8206455754854 509.59595959595964,267.364552734706 514.6464646464647,364.1441990051265 519.6969696969697,204.3515190599951 524.7474747474748,370.0910677754719 529.7979797979798,271.24552385910255 534.8484848484849,372.9993153789319 539.8989898989898,343.02425923454075 544.9494949494949,374.87013013486194 550.0,343.87583036050586" fill="none" stroke="rgb(0,0,0)" stroke-width="1"/><circle cx="50.0" cy="417.746254678839" r="2" fill="rgb(0,0,0)"/><circle cx="55.05050505050505" cy="416.7340752365724" r="2" fill="rgb(0,0,0)"/><circle cx="60.101010101010104" cy="415.04450114580277" r="2" fill="rgb(0,0,0)"/><circle cx="65.15151515151516" cy="397.89328132522513" r="2" fill="rgb(0,0,0)"/><circle cx="70.20202020202021" cy="393.3063578390315" r="2" fill="rgb(0,0,0)"/><circle cx="75.25252525252526" cy="400.2728499991476" r="2" fill="rgb(0,0,0)"/><circle cx="80.30303030303031" cy="404.9395256498624" r="2" fill="rgb(0,0,0)"/><circle cx="85.35353535353535" cy="403.88000182387856" r="2" fill="rgb(0,0,0)"/><circle cx="90.40404040404042" cy="385.63429195703543" r="2" fill="rgb(0,0,0)"/><circle cx="95.45454545454545" cy="342.27686362383383" r="2" fill="rgb(0,0,0)"/><circle cx="100.5050505050505" cy="376.60084650944236" r="2" fill="rgb(0,0,0)"/><circle cx="105.55555555555554" cy="395.6741715962329" r="2" fill="rgb(0,0,0)"/><circle cx="110.60606060606061" cy="395.6741715962329" r="2" fill="rgb(0,0,0)"/><circle cx="115.65656565656566" cy="387.10720155177995" r="2" fill="rgb(0,0,0)"/><circle cx="120.7070707070707" cy="387.30822611578316" r="2" fill="rgb(0,0,0)"/><circle cx="125.75757575757576" cy="377.691789701634" r="2" fill="rgb(0,0,0)"/><circle cx="130.80808080808083" cy="280.3650184166536" r="2" fill="rgb(0,0,0)"/><circle cx="135.85858585858585" cy="274.6873915019243" r="2" fill="rgb(0,0,0)"/><circle cx="140.9090909090909" cy="365.9114756427531" r="2" fill="rgb(0,0,0)"/><circle cx="145.95959595959596" cy="383.44112831328965" r="2" fill="rgb(0,0,0)"/><circle cx="151.010101010101" cy="397.669707879458" r="2" fill="rgb(0,0,0)"/><circle cx="156.06060606060606" cy="314.73481294223654" r="2" fill="rgb(0,0,0)"/><circle cx="161.1111111111111" cy="405.40778190185864" r="2" fill="rgb(0,0,0)"/><circle cx="166.16161616161617" cy="406.09560951866945" r="2" fill="rgb(0,0,0)"/><circle cx="171.21212121212122" cy="404.6523830489515" r="2" fill="rgb(0,0,0)"/><circle cx="176.26262626262627" cy="209.07339307085516" r="2" fill="rgb(0,0,0)"/><circle cx="181.31313131313132" cy="322.03175675387297" r="2" fill="rgb(0,0,0)"/><circle cx="186.36363636363635" cy="315.28528149633865" r="2" fill="rgb(0,0,0)"/><circle cx="191.4141414141414" cy="339.4735139364253" r="2" fill="rgb(0,0,0)"/><circle cx="196.46464646464648" cy="338.7647466172246" r="2" fill="rgb(0,0,0)"/><circle cx="201.51515151515153" cy="338.3297820179379" r="2" fill="rgb(0,0,0)"/><circle cx="206.56565656565658" cy="411.5933888810874" r="2" fill="rgb(0,0,0)"/><circle cx="211.61616161616163" cy="345.95499481955346" r="2" fill="rgb(0,0,0)"/><circle cx="216.66666666666666" cy="299.5456435689563" r="2" fill="rgb(0,0,0)"/><circle cx="221.7171717171717" cy="381.8716975094674" r="2" fill="rgb(0,0,0)"/><circle cx="226.76767676767676" cy="259.92766011469394" r="2" fill="rgb(0,0,0)"/><circle cx="231.8181818181818" cy="280.91733266975444" r="2" fill="rgb(0,0,0)"/><circle cx="236.86868686868686" cy="353.59153111757803" r="2" fill="rgb(0,0,0)"/><circle cx="241.91919191919192" cy="407.0278551500147" r="2" fill="rgb(0,0,0)"/><circle cx="246.96969696969697" cy="346.9199062964383" r="2" fill="rgb(0,0,0)"/><circle cx="252.02020202020202" cy="396.64526184451756" r="2" fill="rgb(0,0,0)"/><circle cx="257.07070707070704" cy="395.6248521762071" r="2" fill="rgb(0,0,0)"/><circle cx="262.1212121212121" cy="374.0032020898929" r="2" fill="rgb(0,0,0)"/><circle cx="267.1717171717172" cy="374.3617466697562" r="2" fill="rgb(0,0,0)"/><circle cx="272.2222222222222" cy="370.5328884669686" r="2" fill="rgb(0,0,0)"/><circle cx="277.27272727272725" cy="378.4284739998137" r="2" fill="rgb(0,0,0)"/><circle cx="282.32323232323233" cy="410.609586278831" r="2" fill="rgb(0,0,0)"/><circle cx="287.3737373737374" cy="411.1879988315494" r="2" fill="rgb(0,0,0)"/><circle cx="292.42424242424244" cy="411.04676552764784" r="2" fill="rgb(0,0,0)"/><circle cx="297.47474747474746" cy="375.55332977074346" r="2" fill="rgb(0,0,0)"/><circle cx="302.52525252525254" cy="336.96028459200505" r="2" fill="rgb(0,0,0)"/><circle cx="307.57575757575756" cy="285.8551308420746" r="2" fill="rgb(0,0,0)"/><circle cx="312.62626262626264" cy="286.04937220955577" r="2" fill="rgb(0,0,0)"/><circle cx="317.67676767676767" cy="307.43945515561353" r="2" fill="rgb(0,0,0)"/><circle cx="322.7272727272727" cy="397.03972050116283" r="2" fill="rgb(0,0,0)"/><circle cx="327.77777777777777" cy="395.7676440117832" r="2" fill="rgb(0,0,0)"/><circle cx="332.8282828282828" cy="410.4849268523358" r="2" fill="rgb(0,0,0)"/><circle cx="337.8787878787879" cy="381.08331710894237" r="2" fill="rgb(0,0,0)"/><circle cx="342.92929292929296" cy="379.56480226788074" r="2" fill="rgb(0,0,0)"/><circle cx="347.979797979798" cy="253.73049703966268" r="2" fill="rgb(0,0,0)"/><circle cx="353.03030303030306" cy="309.14144988768817" r="2" fill="rgb(0,0,0)"/><circle cx="358.0808080808081" cy="385.0130351121994" r="2" fill="rgb(0,0,0)"/><circle cx="363.13131313131316" cy="371.87724763523033" r="2" fill="rgb(0,0,0)"/><circle cx="368.1818181818182" cy="371.88803527321375" r="2" fill="rgb(0,0,0)"/><circle cx="373.23232323232327" cy="316.1831069269693" r="2" fill="rgb(0,0,0)"/><circle cx="378.2828282828283" cy="309.55227057881916" r="2" fill="rgb(0,0,0)"/><circle cx="383.3333333333333" cy="398.1870295712795" r="2" fill="rgb(0,0,0)"/><circle cx="388.3838383838384" cy="398.27228373895827" r="2" fill="rgb(0,0,0)"/><circle cx="393.4343434343434" cy="399.2629535379606" r="2" fill="rgb(0,0,0)"/><circle cx="398.4848484848485" cy="296.34492978333435" r="2" fill="rgb(0,0,0)"/><circle cx="403.5353535353535" cy="411.2519603917575" r="2" fill="rgb(0,0,0)"/><circle cx="408.58585858585855" cy="288.7009989205212" r="2" fill="rgb(0,0,0)"/><circle cx="413.6363636363636" cy="407.46832863194146" r="2" fill="rgb(0,0,0)"/><circle cx="418.68686868686865" cy="407.19297380729137" r="2" fill="rgb(0,0,0)"/><circle cx="423.73737373737373" cy="268.37106303562206" r="2" fill="rgb(0,0,0)"/><circle cx="428.7878787878788" cy="343.99672615658744" r="2" fill="rgb(0,0,0)"/><circle cx="433.83838383838383" cy="355.15443536571655" r="2" fill="rgb(0,0,0)"/><circle cx="438.8888888888889" cy="344.0663340012504" r="2" fill="rgb(0,0,0)"/><circle cx="443.93939393939394" cy="373.9695822825817" r="2" fill="rgb(0,0,0)"/><circle cx="448.989898989899" cy="413.7426455619596" r="2" fill="rgb(0,0,0)"/><circle cx="454.04040404040404" cy="415.2414471761834" r="2" fill="rgb(0,0,0)"/><circle cx="459.0909090909091" cy="395.67857758057323" r="2" fill="rgb(0,0,0)"/><circle cx="464.14141414141415" cy="395.5569993304611" r="2" fill="rgb(0,0,0)"/><circle cx="469.19191919191917" cy="392.3833892182396" r="2" fill="rgb(0,0,0)"/><circle cx="474.24242424242425" cy="377.92427113804195" r="2" fill="rgb(0,0,0)"/><circle cx="479.2929292929293" cy="377.86357611564546" r="2" fill="rgb(0,0,0)"/><circle cx="484.34343434343435" cy="342.55955617439736" r="2" fill="rgb(0,0,0)"/><circle cx="489.3939393939394" cy="361.21320533087044" r="2" fill="rgb(0,0,0)"/><circle cx="494.4444444444444" cy="361.1042422326387" r="2" fill="rgb(0,0,0)"/><circle cx="499.4949494949495" cy="262.45970576960343" r="2" fill="rgb(0,0,0)"/><circle cx="504.5454545454545" cy="396.8206455754854" r="2" fill="rgb(0,0,0)"/><circle cx="509.59595959595964" cy="267.364552734706" r="2" fill="rgb(0,0,0)"/><circle cx="514.6464646464647" cy="364.1441990051265" r="2" fill="rgb(0,0,0)"/><circle cx="519.6969696969697" cy="204.3515190599951" r="2" fill="rgb(0,0,0)"/><circle cx="524.7474747474748" cy="370.0910677754719" r="2" fill="rgb(0,0,0)"/><circle cx="529.7979797979798" cy="271.24552385910255" r="2" fill="rgb(0,0,0)"/><circle cx="534.8484848484849" cy="372.9993153789319" r="2" fill="rgb(0,0,0)"/><circle cx="539.8989898989898" cy="343.02425923454075" r="2" fill="rgb(0,0,0)"/><circle cx="544.9494949494949" cy="374.87013013486194" r="2" fill="rgb(0,0,0)"/><circle cx="550.0" cy="343.87583036050586" r="2" fill="rgb(0,0,0)"/><polyline points="50.0,230.69953767890217 55.05050505050505,196.9600788704077 60.101010101010104,162.070001647016 65.15151515151516,141.70913913471543 70.20202020202021,132.33520551874926 75.25252525252526,117.7194509403298 80.30303030303031,109.64113123673434 85.35353535353535,96.08776098040431 90.40404040404042,89.5454514195244 95.45454545454545,82.58318968859817 100.5050505050505,73.56496794034155 105.55555555555554,75.6957417948795 110.60606060606061,75.32176731925745 115.65656565656566,74.43677114295218 120.7070707070707,72.19144462943979 125.75757575757576,66.39613629493277 130.80808080808083,64.01741844374112 135.85858585858585,66.94769633352229 140.9090909090909,67.88677593147241 145.95959595959596,71.600961805466 151.010101010101,65.49368438490308 156.06060606060606,66.58709111668333 161.1111111111111,67.37610669704134 166.16161616161617,65.12479018046048 171.21212121212122,64.38725412567624 176.26262626262627,56.99701356985912 181.31313131313132,56.13170084998336 186.36363636363635,63.56249076709747 191.4141414141414,64.28925942161811 196.46464646464648,73.90202903704079 201.51515151515153,75.3982383851158 206.56565656565658,73.46419105650546 211.61616161616163,68.13987998771046 216.66666666666666,62.19384869014914 221.7171717171717,62.38711654308395 226.76767676767676,60.044607130001964 231.8181818181818,60.49643944627553 236.86868686868686,60.13005337956031 241.91919191919192,59.34582772476176 246.96969696969697,57.995982604291044 252.02020202020202,68.44026204231409 257.07070707070704,81.43991192887177 262.1212121212121,78.31733860242713 267.1717171717172,67.42463441763124 272.2222222222222,65.60098883526081 277.27272727272725,65.22465536127083 282.32323232323233,67.7554943644206 287.3737373737374,63.02681266928994 292.42424242424244,69.67949412075501 297.47474747474746,60.2154670228897 302.52525252525254,57.833084354352536 307.57575757575756,56.97184074543827 312.62626262626264,61.73732828495832 317.67676767676767,60.33178726554121 322.7272727272727,66.02176283571134 327.77777777777777,68.10931311377755 332.8282828282828,68.65321082754173 337.8787878787879,66.11186251193834 342.92929292929296,57.0475114083427 347.979797979798,53.72267760929378 353.03030303030306,54.20672265830916 358.0808080808081,58.940809894700976 363.13131313131316,60.885922402820256 368.1818181818182,64.14162347275106 373.23232323232327,60.13557349208111 378.2828282828283,57.146885615779354 383.3333333333333,72.02215145164143 388.3838383838384,62.5063714242674 393.4343434343434,66.89583060926554 398.4848484848485,57.54111627014413 403.5353535353535,55.85555688856425 408.58585858585855,54.7638724272295 413.6363636363636,62.4394748594479 418.68686868686865,60.93314058641192 423.73737373737373,57.59250699376918 428.7878787878788,58.39825125956497 433.83838383838383,71.52089687634947 438.8888888888889,69.59186672911943 443.93939393939394,59.81190467974727 448.989898989899,66.52271468543552 454.04040404040404,77.11774433648645 459.0909090909091,61.387200498910374 464.14141414141415,66.6502460858946 469.19191919191917,69.64010230711347 474.24242424242425,77.04936977678574 479.2929292929293,73.23853974089712 484.34343434343435,76.8569628826146 489.3939393939394,72.11428687136879 494.4444444444444,73.29808273376881 499.4949494949495,57.19084061168826 504.5454545454545,64.1077346262129 509.59595959595964,60.60738104636147 514.6464646464647,65.11433830879145 519.6969696969697,58.6473624238331 524.7474747474748,63.34821979299022 529.7979797979798,62.48691928333727 534.8484848484849,61.34220974721592 539.8989898989898,67.18763495036694 544.9494949494949,61.940969933998645 550.0,60.98649988707837" fill="none" stroke="rgb(0,0,255)" stroke-width="1"/><circle cx="50.0" cy="230.69953767890217" r="2" fill="rgb(0,0,255)"/><circle cx="55.05050505050505" cy="196.9600788704077" r="2" fill="rgb(0,0,255)"/><circle cx="60.101010101010104" cy="162.070001647016" r="2" fill="rgb(0,0,255)"/><circle cx="65.15151515151516" cy="141.70913913471543" r="2" fill="rgb(0,0,255)"/><circle cx="70.20202020202021" cy="132.33520551874926" r="2" fill="rgb(0,0,255)"/><circle cx="75.25252525252526" cy="117.7194509403298" r="2" fill="rgb(0,0,255)"/><circle cx="80.30303030303031" cy="109.64113123673434" r="2" fill="rgb(0,0,255)"/><circle cx="85.35353535353535" cy="96.08776098040431" r="2" fill="rgb(0,0,255)"/><circle cx="90.40404040404042" cy="89.5454514195244" r="2" fill="rgb(0,0,255)"/><circle cx="95.45454545454545" cy="82.58318968859817" r="2" fill="rgb(0,0,255)"/><circle cx="100.5050505050505" cy="73.56496794034155" r="2" fill="rgb(0,0,255)"/><circle cx="105.55555555555554" cy="75.6957417948795" r="2" fill="rgb(0,0,255)"/><circle cx="110.60606060606061" cy="75.32176731925745" r="2" fill="rgb(0,0,255)"/><circle cx="115.65656565656566" cy="74.43677114295218" r="2" fill="rgb(0,0,255)"/><circle cx="120.7070707070707" cy="72.19144462943979" r="2" fill="rgb(0,0,255)"/><circle cx="125.75757575757576" cy="66.39613629493277" r="2" fill="rgb(0,0,255)"/><circle cx="130.80808080808083" cy="64.01741844374112" r="2" fill="rgb(0,0,255)"/><circle cx="135.85858585858585" cy="66.94769633352229" r="2" fill="rgb(0,0,255)"/><circle cx="140.9090909090909" cy="67.88677593147241" r="2" fill="rgb(0,0,255)"/><circle cx="145.95959595959596" cy="71.600961805466" r="2" fill="rgb(0,0,255)"/><circle cx="151.010101010101" cy="65.49368438490308" r="2" fill="rgb(0,0,255)"/><circle cx="156.06060606060606" cy="66.58709111668333" r="2" fill="rgb(0,0,255)"/><circle cx="161.1111111111111" cy="67.37610669704134" r="2" fill="rgb(0,0,255)"/><circle cx="166.16161616161617" cy="65.12479018046048" r="2" fill="rgb(0,0,255)"/><circle cx="171.21212121212122" cy="64.38725412567624" r="2" fill="rgb(0,0,255)"/><circle cx="176.26262626262627" cy="56.99701356985912" r="2" fill="rgb(0,0,255)"/><circle cx="181.31313131313132" cy="56.13170084998336" r="2" fill="rgb(0,0,255)"/><circle cx="186.36363636363635" cy="63.56249076709747" r="2" fill="rgb(0,0,255)"/><circle cx="191.4141414141414" cy="64.28925942161811" r="2" fill="rgb(0,0,255)"/><circle cx="196.46464646464648" cy="73.90202903704079" r="2" fill="rgb(0,0,255)"/><circle cx="201.51515151515153" cy="75.3982383851158" r="2" fill="rgb(0,0,255)"/><circle cx="206.56565656565658" cy="73.46419105650546" r="2" fill="rgb(0,0,255)"/><circle cx="211.61616161616163" cy="68.13987998771046" r="2" fill="rgb(0,0,255)"/><circle cx="216.66666666666666" cy="62.19384869014914" r="2" fill="rgb(0,0,255)"/><circle cx="221.7171717171717" cy="62.38711654308395" r="2" fill="rgb(0,0,255)"/><circle cx="226.76767676767676" cy="60.044607130001964" r="2" fill="rgb(0,0,255)"/><circle cx="231.8181818181818" cy="60.49643944627553" r="2" fill="rgb(0,0,255)"/><circle cx="236.86868686868686" cy="60.13005337956031" r="2" fill="rgb(0,0,255)"/><circle cx="241.91919191919192" cy="59.34582772476176" r="2" fill="rgb(0,0,255)"/><circle cx="246.96969696969697" cy="57.995982604291044" r="2" fill="rgb(0,0,255)"/><circle cx="252.02020202020202" cy="68.44026204231409" r="2" fill="rgb(0,0,255)"/><circle cx="257.07070707070704" cy="81.43991192887177" r="2" fill="rgb(0,0,255)"/><circle cx="262.1212121212121" cy="78.31733860242713" r="2" fill="rgb(0,0,255)"/><circle cx="267.1717171717172" cy="67.42463441763124" r="2" fill="rgb(0,0,255)"/><circle cx="272.2222222222222" cy="65.60098883526081" r="2" fill="rgb(0,0,255)"/><circle cx="277.27272727272725" cy="65.22465536127083" r="2" fill="rgb(0,0,255)"/><circle cx="282.32323232323233" cy="67.7554943644206" r="2" fill="rgb(0,0,255)"/><circle cx="287.3737373737374" cy="63.02681266928994" r="2" fill="rgb(0,0,255)"/><circle cx="292.42424242424244" cy="69.67949412075501" r="2" fill="rgb(0,0,255)"/><circle cx="297.47474747474746" cy="60.2154670228897" r="2" fill="rgb(0,0,255)"/><circle cx="302.52525252525254" cy="57.833084354352536" r="2" fill="rgb(0,0,255)"/><circle cx="307.57575757575756" cy="56.97184074543827" r="2" fill="rgb(0,0,255)"/><circle cx="312.62626262626264" cy="61.73732828495832" r="2" fill="rgb(0,0,255)"/><circle cx="317.67676767676767" cy="60.33178726554121" r="2" fill="rgb(0,0,255)"/><circle cx="322.7272727272727" cy="66.02176283571134" r="2" fill="rgb(0,0,255)"/><circle cx="327.77777777777777" cy="68.10931311377755" r="2" fill="rgb(0,0,255)"/><circle cx="332.8282828282828" cy="68.65321082754173" r="2" fill="rgb(0,0,255)"/><circle cx="337.8787878787879" cy="66.11186251193834" r="2" fill="rgb(0,0,255)"/><circle cx="342.92929292929296" cy="57.0475114083427" r="2" fill="rgb(0,0,255)"/><circle cx="347.979797979798" cy="53.72267760929378" r="2" fill="rgb(0,0,255)"/><circle cx="353.03030303030306" cy="54.20672265830916" r="2" fill="rgb(0,0,255)"/><circle cx="358.0808080808081" cy="58.940809894700976" r="2" fill="rgb(0,0,255)"/><circle cx="363.13131313131316" cy="60.885922402820256" r="2" fill="rgb(0,0,255)"/><circle cx="368.1818181818182" cy="64.14162347275106" r="2" fill="rgb(0,0,255)"/><circle cx="373.23232323232327" cy="60.13557349208111" r="2" fill="rgb(0,0,255)"/><circle cx="378.2828282828283" cy="57.146885615779354" r="2" fill="rgb(0,0,255)"/><circle cx="383.3333333333333" cy="72.02215145164143" r="2" fill="rgb(0,0,255)"/><circle cx="388.3838383838384" cy="62.5063714242674" r="2" fill="rgb(0,0,255)"/><circle cx="393.4343434343434" cy="66.89583060926554" r="2" fill="rgb(0,0,255)"/><circle cx="398.4848484848485" cy="57.54111627014413" r="2" fill="rgb(0,0,255)"/><circle cx="403.5353535353535" cy="55.85555688856425" r="2" fill="rgb(0,0,255)"/><circle cx="408.58585858585855" cy="54.7638724272295" r="2" fill="rgb(0,0,255)"/><circle cx="413.6363636363636" cy="62.4394748594479" r="2" fill="rgb(0,0,255)"/><circle cx="418.68686868686865" cy="60.93314058641192" r="2" fill="rgb(0,0,255)"/><circle cx="423.73737373737373" cy="57.59250699376918" r="2" fill="rgb(0,0,255)"/><circle cx="428.7878787878788" cy="58.39825125956497" r="2" fill="rgb(0,0,255)"/><circle cx="433.83838383838383" cy="71.52089687634947" r="2" fill="rgb(0,0,255)"/><circle cx="438.8888888888889" cy="69.59186672911943" r="2" fill="rgb(0,0,255)"/><circle cx="443.93939393939394" cy="59.81190467974727" r="2" fill="rgb(0,0,255)"/><circle cx="448.989898989899" cy="66.52271468543552" r="2" fill="rgb(0,0,255)"/><circle cx="454.04040404040404" cy="77.11774433648645" r="2" fill="rgb(0,0,255)"/><circle cx="459.0909090909091" cy="61.387200498910374" r="2" fill="rgb(0,0,255)"/><circle cx="464.14141414141415" cy="66.6502460858946" r="2" fill="rgb(0,0,255)"/><circle cx="469.19191919191917" cy="69.64010230711347" r="2" fill="rgb(0,0,255)"/><circle cx="474.24242424242425" cy="77.04936977678574" r="2" fill="rgb(0,0,255)"/><circle cx="479.2929292929293" cy="73.23853974089712" r="2" fill="rgb(0,0,255)"/><circle cx="484.34343434343435" cy="76.8569628826146" r="2" fill="rgb(0,0,255)"/><circle cx="489.3939393939394" cy="72.11428687136879" r="2" fill="rgb(0,0,255)"/><circle cx="494.4444444444444" cy="73.29808273376881" r="2" fill="rgb(0,0,255)"/><circle cx="499.4949494949495" cy="57.19084061168826" r="2" fill="rgb(0,0,255)"/><circle cx="504.5454545454545" cy="64.1077346262129" r="2" fill="rgb(0,0,255)"/><circle cx="509.59595959595964" cy="60.60738104636147" r="2" fill="rgb(0,0,255)"/><circle cx="514.6464646464647" cy="65.11433830879145" r="2" fill="rgb(0,0,255)"/><circle cx="519.6969696969697" cy="58.6473624238331" r="2" fill="rgb(0,0,255)"/><circle cx="524.7474747474748" cy="63.34821979299022" r="2" fill="rgb(0,0,255)"/><circle cx="529.7979797979798" cy="62.48691928333727" r="2" fill="rgb(0,0,255)"/><circle cx="534.8484848484849" cy="61.34220974721592" r="2" fill="rgb(0,0,255)"/><circle cx="539.8989898989898" cy="67.18763495036694" r="2" fill="rgb(0,0,255)"/><circle cx="544.9494949494949" cy="61.940969933998645" r="2" fill="rgb(0,0,255)"/><circle cx="550.0" cy="60.98649988707837" r="2" fill="rgb(0,0,255)"/><polyline points="50.0,53.2553756092895 55.05050505050505,55.350090223149095 60.101010101010104,54.76332016337079 65.15151515151516,53.69556974801236 70.20202020202021,53.48698443687675 75.25252525252526,53.22694348226804 80.30303030303031,53.27345204844528 85.35353535353535,54.326071253419684 90.40404040404042,53.423797709639075 95.45454545454545,52.88888418056899 100.5050505050505,53.112213470686186 105.55555555555554,52.72213956377732 110.60606060606061,52.912929386302096 115.65656565656566,52.25858466727732 120.7070707070707,52.935705495783736 125.75757575757576,52.015949830560146 130.80808080808083,52.521722063914524 135.85858585858585,51.4849361070045 140.9090909090909,51.495136847741776 145.95959595959596,51.3142261282423 151.010101010101,51.118776104037636 156.06060606060606,51.35333641286576 161.1111111111111,50.94427821365991 166.16161616161617,51.458887367183536 171.21212121212122,51.080059925870046 176.26262626262627,51.14606736158373 181.31313131313132,51.255379469954846 186.36363636363635,51.14231543428252 191.4141414141414,51.23391526840129 196.46464646464648,51.23391526840129 201.51515151515153,50.96372766168179 206.56565656565658,50.970676706772736 211.61616161616163,51.21569311070107 216.66666666666666,50.94557543105998 221.7171717171717,51.10640858718318 226.76767676767676,51.11938435106396 231.8181818181818,51.084660855294715 236.86868686868686,50.96416906277432 241.91919191919192,50.83849902105527 246.96969696969697,50.799186848481156 252.02020202020202,50.64686866297717 257.07070707070704,50.689363597119836 262.1212121212121,50.72630338924563 267.1717171717172,50.633314997283435 272.2222222222222,50.56778534700777 277.27272727272725,50.79122273261572 282.32323232323233,50.700891298712975 287.3737373737374,50.586653997257315 292.42424242424244,50.75250655444813 297.47474747474746,50.75250655444813 302.52525252525254,50.68984395379658 307.57575757575756,50.7080247480435 312.62626262626264,50.69578939261601 317.67676767676767,50.65332352935275 322.7272727272727,50.56346795060574 327.77777777777777,50.69446550321692 332.8282828282828,50.69446550321692 337.8787878787879,50.74209450365095 342.92929292929296,50.68185035133649 347.979797979798,50.68185035133649 353.03030303030306,50.62338987212496 358.0808080808081,50.52110505297469 363.13131313131316,50.51259925999619 368.1818181818182,50.451904237599706 373.23232323232327,50.551954513564965 378.2828282828283,50.51259925999619 383.3333333333333,50.451904237599706 388.3838383838384,50.52110505297469 393.4343434343434,50.52575025625572 398.4848484848485,50.52575025625572 403.5353535353535,50.0 408.58585858585855,50.4607873125417 413.6363636363636,50.52110505297469 418.68686868686865,50.465462263147174 423.73737373737373,50.465462263147174 428.7878787878788,50.47396805612573 433.83838383838383,50.50874755779182 438.8888888888889,50.51219223070825 443.93939393939394,50.465462263147174 448.989898989899,50.52110505297469 454.04040404040404,50.47396805612573 459.0909090909091,50.51367114238303 464.14141414141415,50.47396805612573 469.19191919191917,50.47396805612573 474.24242424242425,50.52110505297469 479.2929292929293,50.47396805612573 484.34343434343435,50.42748438787629 489.3939393939394,50.47396805612573 494.4444444444444,50.47396805612573 499.4949494949495,50.52110505297469 504.5454545454545,50.42548010650188 509.59595959595964,50.46505523385923 514.6464646464647,50.46505523385923 519.6969696969697,50.46505523385923 524.7474747474748,50.45297611998643 529.7979797979798,50.46505523385923 534.8484848484849,50.41857156560985 539.8989898989898,50.41857156560985 544.9494949494949,50.41857156560985 550.0,50.41857156560985" fill="none" stroke="rgb(0,255,0)" stroke-width="1"/><circle cx="50.0" cy="53.2553756092895" r="2" fill="rgb(0,255,0)"/><circle cx="55.05050505050505" cy="55.350090223149095" r="2" fill="rgb(0,255,0)"/><circle cx="60.101010101010104" cy="54.76332016337079" r="2" fill="rgb(0,255,0)"/><circle cx="65.15151515151516" cy="53.69556974801236" r="2" fill="rgb(0,255,0)"/><circle cx="70.20202020202021" cy="53.48698443687675" r="2" fill="rgb(0,255,0)"/><circle cx="75.25252525252526" cy="53.22694348226804" r="2" fill="rgb(0,255,0)"/><circle cx="80.30303030303031" cy="53.27345204844528" r="2" fill="rgb(0,255,0)"/><circle cx="85.35353535353535" cy="54.326071253419684" r="2" fill="rgb(0,255,0)"/><circle cx="90.40404040404042" cy="53.423797709639075" r="2" fill="rgb(0,255,0)"/><circle cx="95.45454545454545" cy="52.88888418056899" r="2" fill="rgb(0,255,0)"/><circle cx="100.5050505050505" cy="53.112213470686186" r="2" fill="rgb(0,255,0)"/><circle cx="105.55555555555554" cy="52.72213956377732" r="2" fill="rgb(0,255,0)"/><circle cx="110.60606060606061" cy="52.912929386302096" r="2" fill="rgb(0,255,0)"/><circle cx="115.65656565656566" cy="52.25858466727732" r="2" fill="rgb(0,255,0)"/><circle cx="120.7070707070707" cy="52.935705495783736" r="2" fill="rgb(0,255,0)"/><circle cx="125.75757575757576" cy="52.015949830560146" r="2" fill="rgb(0,255,0)"/><circle cx="130.80808080808083" cy="52.521722063914524" r="2" fill="rgb(0,255,0)"/><circle cx="135.85858585858585" cy="51.4849361070045" r="2" fill="rgb(0,255,0)"/><circle cx="140.9090909090909" cy="51.495136847741776" r="2" fill="rgb(0,255,0)"/><circle cx="145.95959595959596" cy="51.3142261282423" r="2" fill="rgb(0,255,0)"/><circle cx="151.010101010101" cy="51.118776104037636" r="2" fill="rgb(0,255,0)"/><circle cx="156.06060606060606" cy="51.35333641286576" r="2" fill="rgb(0,255,0)"/><circle cx="161.1111111111111" cy="50.94427821365991" r="2" fill="rgb(0,255,0)"/><circle cx="166.16161616161617" cy="51.458887367183536" r="2" fill="rgb(0,255,0)"/><circle cx="171.21212121212122" cy="51.080059925870046" r="2" fill="rgb(0,255,0)"/><circle cx="176.26262626262627" cy="51.14606736158373" r="2" fill="rgb(0,255,0)"/><circle cx="181.31313131313132" cy="51.255379469954846" r="2" fill="rgb(0,255,0)"/><circle cx="186.36363636363635" cy="51.14231543428252" r="2" fill="rgb(0,255,0)"/><circle cx="191.4141414141414" cy="51.23391526840129" r="2" fill="rgb(0,255,0)"/><circle cx="196.46464646464648" cy="51.23391526840129" r="2" fill="rgb(0,255,0)"/><circle cx="201.51515151515153" cy="50.96372766168179" r="2" fill="rgb(0,255,0)"/><circle cx="206.56565656565658" cy="50.970676706772736" r="2" fill="rgb(0,255,0)"/><circle cx="211.61616161616163" cy="51.21569311070107" r="2" fill="rgb(0,255,0)"/><circle cx="216.66666666666666" cy="50.94557543105998" r="2" fill="rgb(0,255,0)"/><circle cx="221.7171717171717" cy="51.10640858718318" r="2" fill="rgb(0,255,0)"/><circle cx="226.76767676767676" cy="51.11938435106396" r="2" fill="rgb(0,255,0)"/><circle cx="231.8181818181818" cy="51.084660855294715" r="2" fill="rgb(0,255,0)"/><circle cx="236.86868686868686" cy="50.96416906277432" r="2" fill="rgb(0,255,0)"/><circle cx="241.91919191919192" cy="50.83849902105527" r="2" fill="rgb(0,255,0)"/><circle cx="246.96969696969697" cy="50.799186848481156" r="2" fill="rgb(0,255,0)"/><circle cx="252.02020202020202" cy="50.64686866297717" r="2" fill="rgb(0,255,0)"/><circle cx="257.07070707070704" cy="50.689363597119836" r="2" fill="rgb(0,255,0)"/><circle cx="262.1212121212121" cy="50.72630338924563" r="2" fill="rgb(0,255,0)"/><circle cx="267.1717171717172" cy="50.633314997283435" r="2" fill="rgb(0,255,0)"/><circle cx="272.2222222222222" cy="50.56778534700777" r="2" fill="rgb(0,255,0)"/><circle cx="277.27272727272725" cy="50.79122273261572" r="2" fill="rgb(0,255,0)"/><circle cx="282.32323232323233" cy="50.700891298712975" r="2" fill="rgb(0,255,0)"/><circle cx="287.3737373737374" cy="50.586653997257315" r="2" fill="rgb(0,255,0)"/><circle cx="292.42424242424244" cy="50.75250655444813" r="2" fill="rgb(0,255,0)"/><circle cx="297.47474747474746" cy="50.75250655444813" r="2" fill="rgb(0,255,0)"/><circle cx="302.52525252525254" cy="50.68984395379658" r="2" fill="rgb(0,255,0)"/><circle cx="307.57575757575756" cy="50.7080247480435" r="2" fill="rgb(0,255,0)"/><circle cx="312.62626262626264" cy="50.69578939261601" r="2" fill="rgb(0,255,0)"/><circle cx="317.67676767676767" cy="50.65332352935275" r="2" fill="rgb(0,255,0)"/><circle cx="322.7272727272727" cy="50.56346795060574" r="2" fill="rgb(0,255,0)"/><circle cx="327.77777777777777" cy="50.69446550321692" r="2" fill="rgb(0,255,0)"/><circle cx="332.8282828282828" cy="50.69446550321692" r="2" fill="rgb(0,255,0)"/><circle cx="337.8787878787879" cy="50.74209450365095" r="2" fill="rgb(0,255,0)"/><circle cx="342.92929292929296" cy="50.68185035133649" r="2" fill="rgb(0,255,0)"/><circle cx="347.979797979798" cy="50.68185035133649" r="2" fill="rgb(0,255,0)"/><circle cx="353.03030303030306" cy="50.62338987212496" r="2" fill="rgb(0,255,0)"/><circle cx="358.0808080808081" cy="50.52110505297469" r="2" fill="rgb(0,255,0)"/><circle cx="363.13131313131316" cy="50.51259925999619" r="2" fill="rgb(0,255,0)"/><circle cx="368.1818181818182" cy="50.451904237599706" r="2" fill="rgb(0,255,0)"/><circle cx="373.23232323232327" cy="50.551954513564965" r="2" fill="rgb(0,255,0)"/><circle cx="378.2828282828283" cy="50.51259925999619" r="2" fill="rgb(0,255,0)"/><circle cx="383.3333333333333" cy="50.451904237599706" r="2" fill="rgb(0,255,0)"/><circle cx="388.3838383838384" cy="50.52110505297469" r="2" fill="rgb(0,255,0)"/><circle cx="393.4343434343434" cy="50.52575025625572" r="2" fill="rgb(0,255,0)"/><circle cx="398.4848484848485" cy="50.52575025625572" r="2" fill="rgb(0,255,0)"/><circle cx="403.5353535353535" cy="50.0" r="2" fill="rgb(0,255,0)"/><circle cx="408.58585858585855" cy="50.4607873125417" r="2" fill="rgb(0,255,0)"/><circle cx="413.6363636363636" cy="50.52110505297469" r="2" fill="rgb(0,255,0)"/><circle cx="418.68686868686865" cy="50.465462263147174" r="2" fill="rgb(0,255,0)"/><circle cx="423.73737373737373" cy="50.465462263147174" r="2" fill="rgb(0,255,0)"/><circle cx="428.7878787878788" cy="50.47396805612573" r="2" fill="rgb(0,255,0)"/><circle cx="433.83838383838383" cy="50.50874755779182" r="2" fill="rgb(0,255,0)"/><circle cx="438.8888888888889" cy="50.51219223070825" r="2" fill="rgb(0,255,0)"/><circle cx="443.93939393939394" cy="50.465462263147174" r="2" fill="rgb(0,255,0)"/><circle cx="448.989898989899" cy="50.52110505297469" r="2" fill="rgb(0,255,0)"/><circle cx="454.04040404040404" cy="50.47396805612573" r="2" fill="rgb(0,255,0)"/><circle cx="459.0909090909091" cy="50.51367114238303" r="2" fill="rgb(0,255,0)"/><circle cx="464.14141414141415" cy="50.47396805612573" r="2" fill="rgb(0,255,0)"/><circle cx="469.19191919191917" cy="50.47396805612573" r="2" fill="rgb(0,255,0)"/><circle cx="474.24242424242425" cy="50.52110505297469" r="2" fill="rgb(0,255,0)"/><circle cx="479.2929292929293" cy="50.47396805612573" r="2" fill="rgb(0,255,0)"/><circle cx="484.34343434343435" cy="50.42748438787629" r="2" fill="rgb(0,255,0)"/><circle cx="489.3939393939394" cy="50.47396805612573" r="2" fill="rgb(0,255,0)"/><circle cx="494.4444444444444" cy="50.47396805612573" r="2" fill="rgb(0,255,0)"/><circle cx="499.4949494949495" cy="50.52110505297469" r="2" fill="rgb(0,255,0)"/><circle cx="504.5454545454545" cy="50.42548010650188" r="2" fill="rgb(0,255,0)"/><circle cx="509.59595959595964" cy="50.46505523385923" r="2" fill="rgb(0,255,0)"/><circle cx="514.6464646464647" cy="50.46505523385923" r="2" fill="rgb(0,255,0)"/><circle cx="519.6969696969697" cy="50.46505523385923" r="2" fill="rgb(0,255,0)"/><circle cx="524.7474747474748" cy="50.45297611998643" r="2" fill="rgb(0,255,0)"/><circle cx="529.7979797979798" cy="50.46505523385923" r="2" fill="rgb(0,255,0)"/><circle cx="534.8484848484849" cy="50.41857156560985" r="2" fill="rgb(0,255,0)"/><circle cx="539.8989898989898" cy="50.41857156560985" r="2" fill="rgb(0,255,0)"/><circle cx="544.9494949494949" cy="50.41857156560985" r="2" fill="rgb(0,255,0)"/><circle cx="550.0" cy="50.41857156560985" r="2" fill="rgb(0,255,0)"/><text x="350.0" y="20.0" text-anchor="middle" fill="rgb(0,0,0)" font-size="20.0">GA Demo</text><text x="350.0" y="575.0" text-anchor="middle" fill="rgb(0,0,0)" font-size="12.0">generation</text><text transform="rotate(-90.0 20.0 300.0)" x="20.0" y="300.0" text-anchor="middle" fill="rgb(0,0,0)" font-size="12.0">fitness</text><text x="620" y="62" fill="rgb(0,0,0)" font-size="12">min</text><text x="620" y="74" fill="rgb(0,0,255)" font-size="12">ave</text><text x="620" y="86" fill="rgb(0,255,0)" font-size="12">max</text>
      Sorry, your browser does not support inline SVG.
    </svg>