<?xml version='1.0' encoding='UTF-8'?>
<svg version="1.1" width="700.0" height="600.0" onload="init(evt)" xmlns="http://www.w3.org/2000/svg">
      <style>.caption {
  font-size: 14px;
  font-family: Georgia, serif;
}
</style>
      <script type="text/ecmascript"><![CDATA[
function init(evt) {
  if ( window.svgDocument == null ) {
    svgDocument = evt.target.ownerDocument;
  }
}

function RectHover(evt, i, c) {
  rect = svgDocument.getElementById('rect' + i);
  if( c != null ) {
    rect.setAttributeNS(null, "fill", c)  
  }
  tooltiptext = svgDocument.getElementById('tooltiptext' + i);
  tooltipbg = svgDocument.getElementById('tooltipbg' + i);
  if( tooltipbg != null) {
    tbb = tooltiptext.getBBox();
    tooltipbg.setAttributeNS(null, "width", tbb.width);
    tooltipbg.setAttributeNS(null, "height", tbb.height);
    tooltipbg.setAttributeNS(null, "x", tbb.x);
    tooltipbg.setAttributeNS(null, "y", tbb.y);
    tooltipbg.setAttributeNS(null, "visibility", "visible");
  }
  tooltiptext.setAttributeNS(null,"visibility","visible");
}

function RectUnhover(evt, i, c) {
  rect = svgDocument.getElementById('rect' + i);
  if( c != null ) {
    rect.setAttributeNS(null, "fill", c)  
  }
  tooltiptext = svgDocument.getElementById('tooltiptext' + i);
  tooltiptext.setAttributeNS(null,"visibility","hidden");
  tooltipbg = svgDocument.getElementById('tooltipbg' + i);
  if( tooltipbg != null ) {
    tooltipbg.setAttributeNS(null,"visibility","hidden");
  }
}
]]></script>
      <line x1="50.0" y1="550.0" x2="550.0" y2="550.0" stroke="rgb(0,0,0)" stroke-width="1"/><line x1="50.0" y1="550.0" x2="50.0" y2="50.0" stroke="rgb(0,0,0)" stroke-width="1"/><line x1="50.0" y1="550.0" x2="50.0" y2="50.0" stroke="rgb(192,192,192)" stroke-width="1"/><line x1="50.0" y1="548.0" x2="50.0" y2="552.0" stroke="rgb(192,192,192)" stroke-width="1"/><text text-anchor="middle" alignment-baseline="hanging" x="50.0" y="553.0" font-size="12.0">0</text><line x1="100.5050505050505" y1="550.0" x2="100.5050505050505" y2="50.0" stroke="rgb(192,192,192)" stroke-width="1"/><line x1="100.5050505050505" y1="548.0" x2="100.5050505050505" y2="552.0" stroke="rgb(192,192,192)" stroke-width="1"/><text text-anchor="middle" alignment-baseline="hanging" x="100.5050505050505" y="553.0" font-size="12.0">10</text><line x1="151.010101010101" y1="550.0" x2="151.010101010101" y2="50.0" stroke="rgb(192,192,192)" stroke-width="1"/><line x1="151.010101010101" y1="548.0" x2="151.010101010101" y2="552.0" stroke="rgb(192,192,192)" stroke-width="1"/><text text-anchor="middle" alignment-baseline="hanging" x="151.010101010101" y="553.0" font-size="12.0">20</text><line x1="201.51515151515153" y1="550.0" x2="201.51515151515153" y2="50.0" stroke="rgb(192,192,192)" stroke-width="1"/><line x1="201.51515151515153" y1="548.0" x2="201.51515151515153" y2="552.0" stroke="rgb(192,192,192)" stroke-width="1"/><text text-anchor="middle" alignment-baseline="hanging" x="201.51515151515153" y="553.0" font-size="12.0">30</text><line x1="252.02020202020202" y1="550.0" x2="252.02020202020202" y2="50.0" stroke="rgb(192,192,192)" stroke-width="1"/><line x1="252.02020202020202" y1="548.0" x2="252.02020202020202" y2="552.0" stroke="rgb(192,192,192)" stroke-width="1"/><text text-anchor="middle" alignment-baseline="hanging" x="252.02020202020202" y="553.0" font-size="12.0">40</text><line x1="302.52525252525254" y1="550.0" x2="302.52525252525254" y2="50.0" stroke="rgb(192,192,192)" stroke-width="1"/><line x1="302.52525252525254" y1="548.0" x2="302.52525252525254" y2="552.0" stroke="rgb(192,192,192)" stroke-width="1"/><text text-anchor="middle" alignment-baseline="hanging" x="302.52525252525254" y="553.0" font-size="12.0">50</text><line x1="353.03030303030306" y1="550.0" x2="353.03030303030306" y2="50.0" stroke="rgb(192,192,192)" stroke-width="1"/><line x1="353.03030303030306" y1="548.0" x2="353.03030303030306" y2="552.0" stroke="rgb(192,192,192)" stroke-width="1"/><text text-anchor="middle" alignment-baseline="hanging" x="353.03030303030306" y="553.0" font-size="12.0">60</text><line x1="403.5353535353535" y1="550.0" x2="403.5353535353535" y2="50.0" stroke="rgb(192,192,192)" stroke-width="1"/><line x1="403.5353535353535" y1="548.0" x2="403.5353535353535" y2="552.0" stroke="rgb(192,192,192)" stroke-width="1"/><text text-anchor="middle" alignment-baseline="hanging" x="403.5353535353535" y="553.0" font-size="12.0">70</text><line x1="454.04040404040404" y1="550.0" x2="454.04040404040404" y2="50.0" stroke="rgb(192,192,192)" stroke-width="1"/><line x1="454.04040404040404" y1="548.0" x2="454.04040404040404" y2="552.0" stroke="rgb(192,192,192)" stroke-width="1"/><text text-anchor="middle" alignment-baseline="hanging" x="454.04040404040404" y="553.0" font-size="12.0">80</text><line x1="504.5454545454545" y1="550.0" x2="504.5454545454545" y2="50.0" stroke="rgb(192,192,192)" stroke-width="1"/><line x1="504.5454545454545" y1="548.0" x2="504.5454545454545" y2="552.0" stroke="rgb(192,192,192)" stroke-width="1"/><text text-anchor="middle" alignment-baseline="hanging" x="504.5454545454545" y="553.0" font-size="12.0">90</text><line x1="50.0" y1="550.0" x2="550.0" y2="550.0" stroke="rgb(192,192,192)" stroke-width="1"/><text text-anchor="end" alignment-baseline="middle" x="45.0" y="550.0" font-size="12.0">0.0</text><line x1="48.0" y1="550.0" x2="52.0" y2="550.0" stroke="rgb(192,192,192)" stroke-width="1"/><line x1="50.0" y1="367.88655992904654" x2="550.0" y2="367.88655992904654" stroke="rgb(192,192,192)" stroke-width="1"/><text text-anchor="end" alignment-baseline="middle" x="45.0" y="367.88655992904654" font-size="12.0">1000.0</text><line x1="48.0" y1="367.88655992904654" x2="52.0" y2="367.88655992904654" stroke="rgb(192,192,192)" stroke-width="1"/><line x1="50.0" y1="185.77311985809308" x2="550.0" y2="185.77311985809308" stroke="rgb(192,192,192)" stroke-width="1"/><text text-anchor="end" alignment-baseline="middle" x="45.0" y="185.77311985809308" font-size="12.0">2000.0</text><line x1="48.0" y1="185.77311985809308" x2="52.0" y2="185.77311985809308" stroke="rgb(192,192,192)" stroke-width="1"/><polyline points="50.0,415.45845230345674 55.05050505050505,377.8177748506216 60.101010101010104,361.64483368368064 65.15151515151516,349.3537447967866 70.20202020202021,429.839006499578 75.25252525252526,350.43942875542484 80.30303030303031,263.57360040002493 85.35353535353535,215.48308443745464 90.40404040404042,391.57861831710943 95.45454545454545,396.3386177057764 100.5050505050505,394.9700879360941 105.55555555555554,393.47520471541907 110.60606060606061,369.47101561384034 115.65656565656566,297.4653121851238 120.7070707070707,365.8078020960344 125.75757575757576,298.31342542502625 130.80808080808083,298.46826641749124 135.85858585858585,309.46182721743793 140.9090909090909,309.8281807461407 145.95959595959596,308.962644616703 151.010101010101,341.35476123856597 156.06060606060606,342.2131244974091 161.1111111111111,342.2847006051429 166.16161616161617,342.1247726516888 171.21212121212122,261.5907735617991 176.26262626262627,146.58627669966626 181.31313131313132,355.27620106714573 186.36363636363635,239.93292334072908 191.4141414141414,318.33754074118167 196.46464646464648,203.1264041434307 201.51515151515153,196.62468217979836 206.56565656565658,405.4966265010945 211.61616161616163,374.09954056090544 216.66666666666666,379.5439546741647 221.7171717171717,368.20532680262954 226.76767676767676,367.01636331972605 231.8181818181818,366.53349306574205 236.86868686868686,190.81925070656405 241.91919191919192,373.39737796808663 246.96969696969697,250.1640416982941 252.02020202020202,249.1774727542566 257.07070707070704,374.22942804439595 262.1212121212121,374.35004082571413 267.1717171717172,393.95588501719084 272.2222222222222,394.4765326407987 277.27272727272725,404.82113499692446 282.32323232323233,152.75443748942018 287.3737373737374,401.9711867532127 292.42424242424244,411.75277754061824 297.47474747474746,428.86004334307444 302.52525252525254,410.41610381018677 307.57575757575756,317.15767992937106 312.62626262626264,114.91331862745278 317.67676767676767,399.093415274402 322.7272727272727,398.64426922895484 327.77777777777777,398.64426922895484 332.8282828282828,398.64426922895484 337.8787878787879,398.6823550500976 342.92929292929296,399.2505975393402 347.979797979798,398.8197552035466 353.03030303030306,394.34388168048486 358.0808080808081,381.2811495890106 363.13131313131316,391.2943970339729 368.1818181818182,339.48423311047475 373.23232323232327,268.3204303148239 378.2828282828283,388.21269158478697 383.3333333333333,142.73003153045323 388.3838383838384,359.9904867449636 393.4343434343434,142.9423125085384 398.4848484848485,222.02878685272316 403.5353535353535,408.1941715977508 408.58585858585855,222.1800636391215 413.6363636363636,233.60937508393977 418.68686868686865,362.1053128541733 423.73737373737373,374.59318938032084 428.7878787878788,379.6515775384418 433.83838383838383,379.73294709125986 438.8888888888889,408.77997559069763 443.93939393939394,340.586735252834 448.989898989899,70.24003405789341 454.04040404040404,384.4062063850348 459.0909090909091,384.2969187326793 464.14141414141415,360.8271663964515 469.19191919191917,381.311379761301 474.24242424242425,412.7034771216198 479.2929292929293,299.8839175956102 484.34343434343435,289.8436302318631 489.3939393939394,355.3425129347323 494.4444444444444,414.4005351713756 499.4949494949495,395.18704500568856 504.5454545454545,334.8308671058668 509.59595959595964,326.08409866049584 514.6464646464647,314.57504042877616 519.6969696969697,373.2794156177906 524.7474747474748,406.1144362250803 529.7979797979798,374.70822320030186 534.8484848484849,420.1118146210682 539.8989898989898,419.5235292264655 544.9494949494949,401.9452085256495 550.0,255.0933235436258" fill="none" stroke="rgb(0,0,0)" stroke-width="1"/><circle cx="50.0" cy="415.45845230345674" r="2" fill="rgb(0,0,0)"/><circle cx="55.05050505050505" cy="377.8177748506216" r="2" fill="rgb(0,0,0)"/><circle cx="60.101010101010104" cy="361.64483368368064" r="2" fill="rgb(0,0,0)"/><circle cx="65.15151515151516" cy="349.3537447967866" r="2" fill="rgb(0,0,0)"/><circle cx="70.20202020202021" cy="429.839006499578" r="2" fill="rgb(0,0,0)"/><circle cx="75.25252525252526" cy="350.43942875542484" r="2" fill="rgb(0,0,0)"/><circle cx="80.30303030303031" cy="263.57360040002493" r="2" fill="rgb(0,0,0)"/><circle cx="85.35353535353535" cy="215.48308443745464" r="2" fill="rgb(0,0,0)"/><circle cx="90.40404040404042" cy="391.57861831710943" r="2" fill="rgb(0,0,0)"/><circle cx="95.45454545454545" cy="396.3386177057764" r="2" fill="rgb(0,0,0)"/><circle cx="100.5050505050505" cy="394.9700879360941" r="2" fill="rgb(0,0,0)"/><circle cx="105.55555555555554" cy="393.47520471541907" r="2" fill="rgb(0,0,0)"/><circle cx="110.60606060606061" cy="369.47101561384034" r="2" fill="rgb(0,0,0)"/><circle cx="115.65656565656566" cy="297.4653121851238" r="2" fill="rgb(0,0,0)"/><circle cx="120.7070707070707" cy="365.8078020960344" r="2" fill="rgb(0,0,0)"/><circle cx="125.75757575757576" cy="298.31342542502625" r="2" fill="rgb(0,0,0)"/><circle cx="130.80808080808083" cy="298.46826641749124" r="2" fill="rgb(0,0,0)"/><circle cx="135.85858585858585" cy="309.46182721743793" r="2" fill="rgb(0,0,0)"/><circle cx="140.9090909090909" cy="309.8281807461407" r="2" fill="rgb(0,0,0)"/><circle cx="145.95959595959596" cy="308.962644616703" r="2" fill="rgb(0,0,0)"/><circle cx="151.010101010101" cy="341.35476123856597" r="2" fill="rgb(0,0,0)"/><circle cx="156.06060606060606" cy="342.2131244974091" r="2" fill="rgb(0,0,0)"/><circle cx="161.1111111111111" cy="342.2847006051429" r="2" fill="rgb(0,0,0)"/><circle cx="166.16161616161617" cy="342.1247726516888" r="2" fill="rgb(0,0,0)"/><circle cx="171.21212121212122" cy="261.5907735617991" r="2" fill="rgb(0,0,0)"/><circle cx="176.26262626262627" cy="146.58627669966626" r="2" fill="rgb(0,0,0)"/><circle cx="181.31313131313132" cy="355.27620106714573" r="2" fill="rgb(0,0,0)"/><circle cx="186.36363636363635" cy="239.93292334072908" r="2" fill="rgb(0,0,0)"/><circle cx="191.4141414141414" cy="318.33754074118167" r="2" fill="rgb(0,0,0)"/><circle cx="196.46464646464648" cy="203.1264041434307" r="2" fill="rgb(0,0,0)"/><circle cx="201.51515151515153" cy="196.62468217979836" r="2" fill="rgb(0,0,0)"/><circle cx="206.56565656565658" cy="405.4966265010945" r="2" fill="rgb(0,0,0)"/><circle cx="211.61616161616163" cy="374.09954056090544" r="2" fill="rgb(0,0,0)"/><circle cx="216.66666666666666" cy="379.5439546741647" r="2" fill="rgb(0,0,0)"/><circle cx="221.7171717171717" cy="368.20532680262954" r="2" fill="rgb(0,0,0)"/><circle cx="226.76767676767676" cy="367.01636331972605" r="2" fill="rgb(0,0,0)"/><circle cx="231.8181818181818" cy="366.53349306574205" r="2" fill="rgb(0,0,0)"/><circle cx="236.86868686868686" cy="190.81925070656405" r="2" fill="rgb(0,0,0)"/><circle cx="241.91919191919192" cy="373.39737796808663" r="2" fill="rgb(0,0,0)"/><circle cx="246.96969696969697" cy="250.1640416982941" r="2" fill="rgb(0,0,0)"/><circle cx="252.02020202020202" cy="249.1774727542566" r="2" fill="rgb(0,0,0)"/><circle cx="257.07070707070704" cy="374.22942804439595" r="2" fill="rgb(0,0,0)"/><circle cx="262.1212121212121" cy="374.35004082571413" r="2" fill="rgb(0,0,0)"/><circle cx="267.1717171717172" cy="393.95588501719084" r="2" fill="rgb(0,0,0)"/><circle cx="272.2222222222222" cy="394.4765326407987" r="2" fill="rgb(0,0,0)"/><circle cx="277.27272727272725" cy="404.82113499692446" r="2" fill="rgb(0,0,0)"/><circle cx="282.32323232323233" cy="152.75443748942018" r="2" fill="rgb(0,0,0)"/><circle cx="287.3737373737374" cy="401.9711867532127" r="2" fill="rgb(0,0,0)"/><circle cx="292.42424242424244" cy="411.75277754061824" r="2" fill="rgb(0,0,0)"/><circle cx="297.47474747474746" cy="428.86004334307444" r="2" fill="rgb(0,0,0)"/><circle cx="302.52525252525254" cy="410.41610381018677" r="2" fill="rgb(0,0,0)"/><circle cx="307.57575757575756" cy="317.15767992937106" r="2" fill="rgb(0,0,0)"/><circle cx="312.62626262626264" cy="114.91331862745278" r="2" fill="rgb(0,0,0)"/><circle cx="317.67676767676767" cy="399.093415274402" r="2" fill="rgb(0,0,0)"/><circle cx="322.7272727272727" cy="398.64426922895484" r="2" fill="rgb(0,0,0)"/><circle cx="327.77777777777777" cy="398.64426922895484" r="2" fill="rgb(0,0,0)"/><circle cx="332.8282828282828" cy="398.64426922895484" r="2" fill="rgb(0,0,0)"/><circle cx="337.8787878787879" cy="398.6823550500976" r="2" fill="rgb(0,0,0)"/><circle cx="342.92929292929296" cy="399.2505975393402" r="2" fill="rgb(0,0,0)"/><circle cx="347.979797979798" cy="398.8197552035466" r="2" fill="rgb(0,0,0)"/><circle cx="353.03030303030306" cy="394.34388168048486" r="2" fill="rgb(0,0,0)"/><circle cx="358.0808080808081" cy="381.2811495890106" r="2" fill="rgb(0,0,0)"/><circle cx="363.13131313131316" cy="391.2943970339729" r="2" fill="rgb(0,0,0)"/><circle cx="368.1818181818182" cy="339.48423311047475" r="2" fill="rgb(0,0,0)"/><circle cx="373.23232323232327" cy="268.3204303148239" r="2" fill="rgb(0,0,0)"/><circle cx="378.2828282828283" cy="388.21269158478697" r="2" fill="rgb(0,0,0)"/><circle cx="383.3333333333333" cy="142.73003153045323" r="2" fill="rgb(0,0,0)"/><circle cx="388.3838383838384" cy="359.9904867449636" r="2" fill="rgb(0,0,0)"/><circle cx="393.4343434343434" cy="142.9423125085384" r="2" fill="rgb(0,0,0)"/><circle cx="398.4848484848485" cy="222.02878685272316" r="2" fill="rgb(0,0,0)"/><circle cx="403.5353535353535" cy="408.1941715977508" r="2" fill="rgb(0,0,0)"/><circle cx="408.58585858585855" cy="222.1800636391215" r="2" fill="rgb(0,0,0)"/><circle cx="413.6363636363636" cy="233.60937508393977" r="2" fill="rgb(0,0,0)"/><circle cx="418.68686868686865" cy="362.1053128541733" r="2" fill="rgb(0,0,0)"/><circle cx="423.73737373737373" cy="374.59318938032084" r="2" fill="rgb(0,0,0)"/><circle cx="428.7878787878788" cy="379.6515775384418" r="2" fill="rgb(0,0,0)"/><circle cx="433.83838383838383" cy="379.73294709125986" r="2" fill="rgb(0,0,0)"/><circle cx="438.8888888888889" cy="408.77997559069763" r="2" fill="rgb(0,0,0)"/><circle cx="443.93939393939394" cy="340.586735252834" r="2" fill="rgb(0,0,0)"/><circle cx="448.989898989899" cy="70.24003405789341" r="2" fill="rgb(0,0,0)"/><circle cx="454.04040404040404" cy="384.4062063850348" r="2" fill="rgb(0,0,0)"/><circle cx="459.0909090909091" cy="384.2969187326793" r="2" fill="rgb(0,0,0)"/><circle cx="464.14141414141415" cy="360.8271663964515" r="2" fill="rgb(0,0,0)"/><circle cx="469.19191919191917" cy="381.311379761301" r="2" fill="rgb(0,0,0)"/><circle cx="474.24242424242425" cy="412.7034771216198" r="2" fill="rgb(0,0,0)"/><circle cx="479.2929292929293" cy="299.8839175956102" r="2" fill="rgb(0,0,0)"/><circle cx="484.34343434343435" cy="289.8436302318631" r="2" fill="rgb(0,0,0)"/><circle cx="489.3939393939394" cy="355.3425129347323" r="2" fill="rgb(0,0,0)"/><circle cx="494.4444444444444" cy="414.4005351713756" r="2" fill="rgb(0,0,0)"/><circle cx="499.4949494949495" cy="395.18704500568856" r="2" fill="rgb(0,0,0)"/><circle cx="504.5454545454545" cy="334.8308671058668" r="2" fill="rgb(0,0,0)"/><circle cx="509.59595959595964" cy="326.08409866049584" r="2" fill="rgb(0,0,0)"/><circle cx="514.6464646464647" cy="314.57504042877616" r="2" fill="rgb(0,0,0)"/><circle cx="519.6969696969697" cy="373.2794156177906" r="2" fill="rgb(0,0,0)"/><circle cx="524.7474747474748" cy="406.1144362250803" r="2" fill="rgb(0,0,0)"/><circle cx="529.7979797979798" cy="374.70822320030186" r="2" fill="rgb(0,0,0)"/><circle cx="534.8484848484849" cy="420.1118146210682" r="2" fill="rgb(0,0,0)"/><circle cx="539.8989898989898" cy="419.5235292264655" r="2" fill="rgb(0,0,0)"/><circle cx="544.9494949494949" cy="401.9452085256495" r="2" fill="rgb(0,0,0)"/><circle cx="550.0" cy="255.0933235436258" r="2" fill="rgb(0,0,0)"/><polyline points="50.0,208.15022215754448 55.05050505050505,174.56605181284613 60.101010101010104,149.2196975464617 65.15151515151516,125.86133305516137 70.20202020202021,116.96973381494672 75.25252525252526,107.70998947362722 80.30303030303031,94.73972084927931 85.35353535353535,78.34173437535253 90.40404040404042,78.79832758314069 95.45454545454545,76.57123936036544 100.5050505050505,77.43474578382546 105.55555555555554,76.29090524595881 110.60606060606061,67.9781392420968 115.65656565656566,62.57344220872312 120.7070707070707,64.88005648329948 125.75757575757576,63.47726991365397 130.80808080808083,63.731848344501486 135.85858585858585,65.93679454783654 140.9090909090909,64.72066608897762 145.95959595959596,67.17665205671051 151.010101010101,64.11281191727551 156.06060606060606,65.68089138955565 161.1111111111111,62.803905212911616 166.16161616161617,56.76277685922486 171.21212121212122,56.17694627754963 176.26262626262627,54.79751073972824 181.31313131313132,58.03965406652367 186.36363636363635,59.97605544243481 191.4141414141414,61.08349503927877 196.46464646464648,57.229347414097106 201.51515151515153,55.66295669258835 206.56565656565658,58.243270609717115 211.61616161616163,61.04650710664629 216.66666666666666,67.18463005723873 221.7171717171717,63.81019793667838 226.76767676767676,60.55839848735377 231.8181818181818,74.35017730621382 236.86868686868686,55.592691746992614 241.91919191919192,60.88427711427346 246.96969696969697,59.50963863691959 252.02020202020202,57.59502723049536 257.07070707070704,60.81462938273114 262.1212121212121,62.53604755806907 267.1717171717172,71.1689390687066 272.2222222222222,63.80160739481846 277.27272727272725,64.90684157428115 282.32323232323233,55.36713079173501 287.3737373737374,57.179546040527896 292.42424242424244,65.19482520844633 297.47474747474746,69.53150520533 302.52525252525254,57.898871159065436 307.57575757575756,58.17410019466706 312.62626262626264,52.68294438631062 317.67676767676767,56.80119811572854 322.7272727272727,68.52658286334156 327.77777777777777,64.75556840218212 332.8282828282828,65.95544727671245 337.8787878787879,68.06886316647405 342.92929292929296,68.98150749286333 347.979797979798,70.86947598040518 353.03030303030306,65.07169651403456 358.0808080808081,66.58917313682463 363.13131313131316,73.01393206134793 368.1818181818182,60.229913756671976 373.23232323232327,55.413026956249325 378.2828282828283,60.32302136133018 383.3333333333333,51.953610202721336 388.3838383838384,58.43671686185235 393.4343434343434,52.802770789561805 398.4848484848485,55.11213707502708 403.5353535353535,59.947457769726896 408.58585858585855,55.88352020476009 413.6363636363636,59.81947584224315 418.68686868686865,62.13315242417701 423.73737373737373,65.79560835060357 428.7878787878788,67.54720811465307 433.83838383838383,68.15605124555583 438.8888888888889,67.5594357854593 443.93939393939394,61.133305881669344 448.989898989899,51.585217771175394 454.04040404040404,60.76908026213806 459.0909090909091,61.90714004401991 464.14141414141415,57.307247112712446 469.19191919191917,57.37077296146799 474.24242424242425,59.10063306828175 479.2929292929293,56.65549901377108 484.34343434343435,60.293312362136646 489.3939393939394,58.24762721097136 494.4444444444444,58.26373057388679 499.4949494949495,64.0522608637076 504.5454545454545,62.805876752891436 509.59595959595964,66.28673704644967 514.6464646464647,62.78957411100873 519.6969696969697,69.16751719302937 524.7474747474748,72.17696954288533 529.7979797979798,57.468098711983714 534.8484848484849,59.655644637729836 539.8989898989898,65.566321450428 544.9494949494949,61.25390772445098 550.0,57.85494249754686" fill="none" stroke="rgb(0,0,255)" stroke-width="1"/><circle cx="50.0" cy="208.15022215754448" r="2" fill="rgb(0,0,255)"/><circle cx="55.05050505050505" cy="174.56605181284613" r="2" fill="rgb(0,0,255)"/><circle cx="60.101010101010104" cy="149.2196975464617" r="2" fill="rgb(0,0,255)"/><circle cx="65.15151515151516" cy="125.86133305516137" r="2" fill="rgb(0,0,255)"/><circle cx="70.20202020202021" cy="116.96973381494672" r="2" fill="rgb(0,0,255)"/><circle cx="75.25252525252526" cy="107.70998947362722" r="2" fill="rgb(0,0,255)"/><circle cx="80.30303030303031" cy="94.73972084927931" r="2" fill="rgb(0,0,255)"/><circle cx="85.35353535353535" cy="78.34173437535253" r="2" fill="rgb(0,0,255)"/><circle cx="90.40404040404042" cy="78.79832758314069" r="2" fill="rgb(0,0,255)"/><circle cx="95.45454545454545" cy="76.57123936036544" r="2" fill="rgb(0,0,255)"/><circle cx="100.5050505050505" cy="77.43474578382546" r="2" fill="rgb(0,0,255)"/><circle cx="105.55555555555554" cy="76.29090524595881" r="2" fill="rgb(0,0,255)"/><circle cx="110.60606060606061" cy="67.9781392420968" r="2" fill="rgb(0,0,255)"/><circle cx="115.65656565656566" cy="62.57344220872312" r="2" fill="rgb(0,0,255)"/><circle cx="120.7070707070707" cy="64.88005648329948" r="2" fill="rgb(0,0,255)"/><circle cx="125.75757575757576" cy="63.47726991365397" r="2" fill="rgb(0,0,255)"/><circle cx="130.80808080808083" cy="63.731848344501486" r="2" fill="rgb(0,0,255)"/><circle cx="135.85858585858585" cy="65.93679454783654" r="2" fill="rgb(0,0,255)"/><circle cx="140.9090909090909" cy="64.72066608897762" r="2" fill="rgb(0,0,255)"/><circle cx="145.95959595959596" cy="67.17665205671051" r="2" fill="rgb(0,0,255)"/><circle cx="151.010101010101" cy="64.11281191727551" r="2" fill="rgb(0,0,255)"/><circle cx="156.06060606060606" cy="65.68089138955565" r="2" fill="rgb(0,0,255)"/><circle cx="161.1111111111111" cy="62.803905212911616" r="2" fill="rgb(0,0,255)"/><circle cx="166.16161616161617" cy="56.76277685922486" r="2" fill="rgb(0,0,255)"/><circle cx="171.21212121212122" cy="56.17694627754963" r="2" fill="rgb(0,0,255)"/><circle cx="176.26262626262627" cy="54.79751073972824" r="2" fill="rgb(0,0,255)"/><circle cx="181.31313131313132" cy="58.03965406652367" r="2" fill="rgb(0,0,255)"/><circle cx="186.36363636363635" cy="59.97605544243481" r="2" fill="rgb(0,0,255)"/><circle cx="191.4141414141414" cy="61.08349503927877" r="2" fill="rgb(0,0,255)"/><circle cx="196.46464646464648" cy="57.229347414097106" r="2" fill="rgb(0,0,255)"/><circle cx="201.51515151515153" cy="55.66295669258835" r="2" fill="rgb(0,0,255)"/><circle cx="206.56565656565658" cy="58.243270609717115" r="2" fill="rgb(0,0,255)"/><circle cx="211.61616161616163" cy="61.04650710664629" r="2" fill="rgb(0,0,255)"/><circle cx="216.66666666666666" cy="67.18463005723873" r="2" fill="rgb(0,0,255)"/><circle cx="221.7171717171717" cy="63.81019793667838" r="2" fill="rgb(0,0,255)"/><circle cx="226.76767676767676" cy="60.55839848735377" r="2" fill="rgb(0,0,255)"/><circle cx="231.8181818181818" cy="74.35017730621382" r="2" fill="rgb(0,0,255)"/><circle cx="236.86868686868686" cy="55.592691746992614" r="2" fill="rgb(0,0,255)"/><circle cx="241.91919191919192" cy="60.88427711427346" r="2" fill="rgb(0,0,255)"/><circle cx="246.96969696969697" cy="59.50963863691959" r="2" fill="rgb(0,0,255)"/><circle cx="252.02020202020202" cy="57.59502723049536" r="2" fill="rgb(0,0,255)"/><circle cx="257.07070707070704" cy="60.81462938273114" r="2" fill="rgb(0,0,255)"/><circle cx="262.1212121212121" cy="62.53604755806907" r="2" fill="rgb(0,0,255)"/><circle cx="267.1717171717172" cy="71.1689390687066" r="2" fill="rgb(0,0,255)"/><circle cx="272.2222222222222" cy="63.80160739481846" r="2" fill="rgb(0,0,255)"/><circle cx="277.27272727272725" cy="64.90684157428115" r="2" fill="rgb(0,0,255)"/><circle cx="282.32323232323233" cy="55.36713079173501" r="2" fill="rgb(0,0,255)"/><circle cx="287.3737373737374" cy="57.179546040527896" r="2" fill="rgb(0,0,255)"/><circle cx="292.42424242424244" cy="65.19482520844633" r="2" fill="rgb(0,0,255)"/><circle cx="297.47474747474746" cy="69.53150520533" r="2" fill="rgb(0,0,255)"/><circle cx="302.52525252525254" cy="57.898871159065436" r="2" fill="rgb(0,0,255)"/><circle cx="307.57575757575756" cy="58.17410019466706" r="2" fill="rgb(0,0,255)"/><circle cx="312.62626262626264" cy="52.68294438631062" r="2" fill="rgb(0,0,255)"/><circle cx="317.67676767676767" cy="56.80119811572854" r="2" fill="rgb(0,0,255)"/><circle cx="322.7272727272727" cy="68.52658286334156" r="2" fill="rgb(0,0,255)"/><circle cx="327.77777777777777" cy="64.75556840218212" r="2" fill="rgb(0,0,255)"/><circle cx="332.8282828282828" cy="65.95544727671245" r="2" fill="rgb(0,0,255)"/><circle cx="337.8787878787879" cy="68.06886316647405" r="2" fill="rgb(0,0,255)"/><circle cx="342.92929292929296" cy="68.98150749286333" r="2" fill="rgb(0,0,255)"/><circle cx="347.979797979798" cy="70.86947598040518" r="2" fill="rgb(0,0,255)"/><circle cx="353.03030303030306" cy="65.07169651403456" r="2" fill="rgb(0,0,255)"/><circle cx="358.0808080808081" cy="66.58917313682463" r="2" fill="rgb(0,0,255)"/><circle cx="363.13131313131316" cy="73.01393206134793" r="2" fill="rgb(0,0,255)"/><circle cx="368.1818181818182" cy="60.229913756671976" r="2" fill="rgb(0,0,255)"/><circle cx="373.23232323232327" cy="55.413026956249325" r="2" fill="rgb(0,0,255)"/><circle cx="378.2828282828283" cy="60.32302136133018" r="2" fill="rgb(0,0,255)"/><circle cx="383.3333333333333" cy="51.953610202721336" r="2" fill="rgb(0,0,255)"/><circle cx="388.3838383838384" cy="58.43671686185235" r="2" fill="rgb(0,0,255)"/><circle cx="393.4343434343434" cy="52.802770789561805" r="2" fill="rgb(0,0,255)"/><circle cx="398.4848484848485" cy="55.11213707502708" r="2" fill="rgb(0,0,255)"/><circle cx="403.5353535353535" cy="59.947457769726896" r="2" fill="rgb(0,0,255)"/><circle cx="408.58585858585855" cy="55.88352020476009" r="2" fill="rgb(0,0,255)"/><circle cx="413.6363636363636" cy="59.81947584224315" r="2" fill="rgb(0,0,255)"/><circle cx="418.68686868686865" cy="62.13315242417701" r="2" fill="rgb(0,0,255)"/><circle cx="423.73737373737373" cy="65.79560835060357" r="2" fill="rgb(0,0,255)"/><circle cx="428.7878787878788" cy="67.54720811465307" r="2" fill="rgb(0,0,255)"/><circle cx="433.83838383838383" cy="68.15605124555583" r="2" fill="rgb(0,0,255)"/><circle cx="438.8888888888889" cy="67.5594357854593" r="2" fill="rgb(0,0,255)"/><circle cx="443.93939393939394" cy="61.133305881669344" r="2" fill="rgb(0,0,255)"/><circle cx="448.989898989899" cy="51.585217771175394" r="2" fill="rgb(0,0,255)"/><circle cx="454.04040404040404" cy="60.76908026213806" r="2" fill="rgb(0,0,255)"/><circle cx="459.0909090909091" cy="61.90714004401991" r="2" fill="rgb(0,0,255)"/><circle cx="464.14141414141415" cy="57.307247112712446" r="2" fill="rgb(0,0,255)"/><circle cx="469.19191919191917" cy="57.37077296146799" r="2" fill="rgb(0,0,255)"/><circle cx="474.24242424242425" cy="59.10063306828175" r="2" fill="rgb(0,0,255)"/><circle cx="479.2929292929293" cy="56.65549901377108" r="2" fill="rgb(0,0,255)"/><circle cx="484.34343434343435" cy="60.293312362136646" r="2" fill="rgb(0,0,255)"/><circle cx="489.3939393939394" cy="58.24762721097136" r="2" fill="rgb(0,0,255)"/><circle cx="494.4444444444444" cy="58.26373057388679" r="2" fill="rgb(0,0,255)"/><circle cx="499.4949494949495" cy="64.0522608637076" r="2" fill="rgb(0,0,255)"/><circle cx="504.5454545454545" cy="62.805876752891436" r="2" fill="rgb(0,0,255)"/><circle cx="509.59595959595964" cy="66.28673704644967" r="2" fill="rgb(0,0,255)"/><circle cx="514.6464646464647" cy="62.78957411100873" r="2" fill="rgb(0,0,255)"/><circle cx="519.6969696969697" cy="69.16751719302937" r="2" fill="rgb(0,0,255)"/><circle cx="524.7474747474748" cy="72.17696954288533" r="2" fill="rgb(0,0,255)"/><circle cx="529.7979797979798" cy="57.468098711983714" r="2" fill="rgb(0,0,255)"/><circle cx="534.8484848484849" cy="59.655644637729836" r="2" fill="rgb(0,0,255)"/><circle cx="539.8989898989898" cy="65.566321450428" r="2" fill="rgb(0,0,255)"/><circle cx="544.9494949494949" cy="61.25390772445098" r="2" fill="rgb(0,0,255)"/><circle cx="550.0" cy="57.85494249754686" r="2" fill="rgb(0,0,255)"/><polyline points="50.0,54.087567450171775 55.05050505050505,54.59140199354778 60.101010101010104,54.091008777658715 65.15151515151516,53.93872493979927 70.20202020202021,54.45555239306668 75.25252525252526,53.03985776760305 80.30303030303031,52.63772420835585 85.35353535353535,52.39097281022623 90.40404040404042,52.860657632987625 95.45454545454545,51.84198077182606 100.5050505050505,52.06852218515911 105.55555555555554,52.58761798264044 110.60606060606061,52.46491061150192 115.65656565656566,52.18537349571375 120.7070707070707,52.27870624504999 125.75757575757576,52.15533540675847 130.80808080808083,52.37768298968655 135.85858585858585,51.95590194422158 140.9090909090909,51.6669955038098 145.95959595959596,51.599453742073536 151.010101010101,51.599453742073536 156.06060606060606,51.46533574019679 161.1111111111111,51.46843831969511 166.16161616161617,51.40097251502118 171.21212121212122,51.10700392262271 176.26262626262627,51.42608550321512 181.31313131313132,51.17593567494907 186.36363636363635,51.143026394314404 191.4141414141414,51.216758987961725 196.46464646464648,50.75224772878181 201.51515151515153,50.975925555489766 206.56565656565658,50.91629612662666 211.61616161616163,50.872860510100054 216.66666666666666,50.829398833754794 221.7171717171717,50.739252878166724 226.76767676767676,50.82674703404149 231.8181818181818,50.82674703404149 236.86868686868686,50.82674703404149 241.91919191919192,50.844503716918666 246.96969696969697,50.89289792385148 252.02020202020202,50.872860510100054 257.07070707070704,50.872860510100054 262.1212121212121,50.64398062890842 267.1717171717172,50.57102797353656 272.2222222222222,50.45416523051546 277.27272727272725,50.45416523051546 282.32323232323233,50.361844359694885 287.3737373737374,50.450807322382786 292.42424242424244,50.367130096625715 297.47474747474746,50.206409780899435 302.52525252525254,50.24550645867487 307.57575757575756,50.39958308742513 312.62626262626264,50.206409780899435 317.67676767676767,50.3046999348457 322.7272727272727,50.206409780899435 327.77777777777777,50.24550645867487 332.8282828282828,50.20002548960463 337.8787878787879,50.206409780899435 342.92929292929296,50.206409780899435 347.979797979798,50.20002548960463 353.03030303030306,50.206409780899435 358.0808080808081,50.20002548960463 363.13131313131316,50.11724612063176 368.1818181818182,50.19991245798627 373.23232323232327,50.206409780899435 378.2828282828283,50.189889630295056 383.3333333333333,50.197055466689164 388.3838383838384,50.10999368970511 393.4343434343434,50.11108955765951 398.4848484848485,50.129392562253145 403.5353535353535,50.11108955765951 408.58585858585855,50.11108955765951 413.6363636363636,50.11108955765951 418.68686868686865,50.19729685093074 423.73737373737373,50.16460987942196 428.7878787878788,50.14591135513672 433.83838383838383,50.098824231653964 438.8888888888889,50.14837245018413 443.93939393939394,50.109275772408694 448.989898989899,50.12734762215359 454.04040404040404,50.109275772408694 459.0909090909091,50.109275772408694 464.14141414141415,50.15122032846807 469.19191919191917,50.14837245018413 474.24242424242425,50.14837245018413 479.2929292929293,50.13540487909768 484.34343434343435,50.07414663818423 489.3939393939394,50.07414663818423 494.4444444444444,50.07414663818423 499.4949494949495,50.07414663818423 504.5454545454545,50.07414663818423 509.59595959595964,50.07414663818423 514.6464646464647,50.067830850586006 519.6969696969697,50.067830850586006 524.7474747474748,50.067830850586006 529.7979797979798,50.02303748099189 534.8484848484849,50.02303748099189 539.8989898989898,50.02303748099189 544.9494949494949,50.0 550.0,50.01220868154894" fill="none" stroke="rgb(0,255,0)" stroke-width="1"/><circle cx="50.0" cy="54.087567450171775" r="2" fill="rgb(0,255,0)"/><circle cx="55.05050505050505" cy="54.59140199354778" r="2" fill="rgb(0,255,0)"/><circle cx="60.101010101010104" cy="54.091008777658715" r="2" fill="rgb(0,255,0)"/><circle cx="65.15151515151516" cy="53.93872493979927" r="2" fill="rgb(0,255,0)"/><circle cx="70.20202020202021" cy="54.45555239306668" r="2" fill="rgb(0,255,0)"/><circle cx="75.25252525252526" cy="53.03985776760305" r="2" fill="rgb(0,255,0)"/><circle cx="80.30303030303031" cy="52.63772420835585" r="2" fill="rgb(0,255,0)"/><circle cx="85.35353535353535" cy="52.39097281022623" r="2" fill="rgb(0,255,0)"/><circle cx="90.40404040404042" cy="52.860657632987625" r="2" fill="rgb(0,255,0)"/><circle cx="95.45454545454545" cy="51.84198077182606" r="2" fill="rgb(0,255,0)"/><circle cx="100.5050505050505" cy="52.06852218515911" r="2" fill="rgb(0,255,0)"/><circle cx="105.55555555555554" cy="52.58761798264044" r="2" fill="rgb(0,255,0)"/><circle cx="110.60606060606061" cy="52.46491061150192" r="2" fill="rgb(0,255,0)"/><circle cx="115.65656565656566" cy="52.18537349571375" r="2" fill="rgb(0,255,0)"/><circle cx="120.7070707070707" cy="52.27870624504999" r="2" fill="rgb(0,255,0)"/><circle cx="125.75757575757576" cy="52.15533540675847" r="2" fill="rgb(0,255,0)"/><circle cx="130.80808080808083" cy="52.37768298968655" r="2" fill="rgb(0,255,0)"/><circle cx="135.85858585858585" cy="51.95590194422158" r="2" fill="rgb(0,255,0)"/><circle cx="140.9090909090909" cy="51.6669955038098" r="2" fill="rgb(0,255,0)"/><circle cx="145.95959595959596" cy="51.599453742073536" r="2" fill="rgb(0,255,0)"/><circle cx="151.010101010101" cy="51.599453742073536" r="2" fill="rgb(0,255,0)"/><circle cx="156.06060606060606" cy="51.46533574019679" r="2" fill="rgb(0,255,0)"/><circle cx="161.1111111111111" cy="51.46843831969511" r="2" fill="rgb(0,255,0)"/><circle cx="166.16161616161617" cy="51.40097251502118" r="2" fill="rgb(0,255,0)"/><circle cx="171.21212121212122" cy="51.10700392262271" r="2" fill="rgb(0,255,0)"/><circle cx="176.26262626262627" cy="51.42608550321512" r="2" fill="rgb(0,255,0)"/><circle cx="181.31313131313132" cy="51.17593567494907" r="2" fill="rgb(0,255,0)"/><circle cx="186.36363636363635" cy="51.143026394314404" r="2" fill="rgb(0,255,0)"/><circle cx="191.4141414141414" cy="51.216758987961725" r="2" fill="rgb(0,255,0)"/><circle cx="196.46464646464648" cy="50.75224772878181" r="2" fill="rgb(0,255,0)"/><circle cx="201.51515151515153" cy="50.975925555489766" r="2" fill="rgb(0,255,0)"/><circle cx="206.56565656565658" cy="50.91629612662666" r="2" fill="rgb(0,255,0)"/><circle cx="211.61616161616163" cy="50.872860510100054" r="2" fill="rgb(0,255,0)"/><circle cx="216.66666666666666" cy="50.829398833754794" r="2" fill="rgb(0,255,0)"/><circle cx="221.7171717171717" cy="50.739252878166724" r="2" fill="rgb(0,255,0)"/><circle cx="226.76767676767676" cy="50.82674703404149" r="2" fill="rgb(0,255,0)"/><circle cx="231.8181818181818" cy="50.82674703404149" r="2" fill="rgb(0,255,0)"/><circle cx="236.86868686868686" cy="50.82674703404149" r="2" fill="rgb(0,255,0)"/><circle cx="241.91919191919192" cy="50.844503716918666" r="2" fill="rgb(0,255,0)"/><circle cx="246.96969696969697" cy="50.89289792385148" r="2" fill="rgb(0,255,0)"/><circle cx="252.02020202020202" cy="50.872860510100054" r="2" fill="rgb(0,255,0)"/><circle cx="257.07070707070704" cy="50.872860510100054" r="2" fill="rgb(0,255,0)"/><circle cx="262.1212121212121" cy="50.64398062890842" r="2" fill="rgb(0,255,0)"/><circle cx="267.1717171717172" cy="50.57102797353656" r="2" fill="rgb(0,255,0)"/><circle cx="272.2222222222222" cy="50.45416523051546" r="2" fill="rgb(0,255,0)"/><circle cx="277.27272727272725" cy="50.45416523051546" r="2" fill="rgb(0,255,0)"/><circle cx="282.32323232323233" cy="50.361844359694885" r="2" fill="rgb(0,255,0)"/><circle cx="287.3737373737374" cy="50.450807322382786" r="2" fill="rgb(0,255,0)"/><circle cx="292.42424242424244" cy="50.367130096625715" r="2" fill="rgb(0,255,0)"/><circle cx="297.47474747474746" cy="50.206409780899435" r="2" fill="rgb(0,255,0)"/><circle cx="302.52525252525254" cy="50.24550645867487" r="2" fill="rgb(0,255,0)"/><circle cx="307.57575757575756" cy="50.39958308742513" r="2" fill="rgb(0,255,0)"/><circle cx="312.62626262626264" cy="50.206409780899435" r="2" fill="rgb(0,255,0)"/><circle cx="317.67676767676767" cy="50.3046999348457" r="2" fill="rgb(0,255,0)"/><circle cx="322.7272727272727" cy="50.206409780899435" r="2" fill="rgb(0,255,0)"/><circle cx="327.77777777777777" cy="50.24550645867487" r="2" fill="rgb(0,255,0)"/><circle cx="332.8282828282828" cy="50.20002548960463" r="2" fill="rgb(0,255,0)"/><circle cx="337.8787878787879" cy="50.206409780899435" r="2" fill="rgb(0,255,0)"/><circle cx="342.92929292929296" cy="50.206409780899435" r="2" fill="rgb(0,255,0)"/><circle cx="347.979797979798" cy="50.20002548960463" r="2" fill="rgb(0,255,0)"/><circle cx="353.03030303030306" cy="50.206409780899435" r="2" fill="rgb(0,255,0)"/><circle cx="358.0808080808081" cy="50.20002548960463" r="2" fill="rgb(0,255,0)"/><circle cx="363.13131313131316" cy="50.11724612063176" r="2" fill="rgb(0,255,0)"/><circle cx="368.1818181818182" cy="50.19991245798627" r="2" fill="rgb(0,255,0)"/><circle cx="373.23232323232327" cy="50.206409780899435" r="2" fill="rgb(0,255,0)"/><circle cx="378.2828282828283" cy="50.189889630295056" r="2" fill="rgb(0,255,0)"/><circle cx="383.3333333333333" cy="50.197055466689164" r="2" fill="rgb(0,255,0)"/><circle cx="388.3838383838384" cy="50.10999368970511" r="2" fill="rgb(0,255,0)"/><circle cx="393.4343434343434" cy="50.11108955765951" r="2" fill="rgb(0,255,0)"/><circle cx="398.4848484848485" cy="50.129392562253145" r="2" fill="rgb(0,255,0)"/><circle cx="403.5353535353535" cy="50.11108955765951" r="2" fill="rgb(0,255,0)"/><circle cx="408.58585858585855" cy="50.11108955765951" r="2" fill="rgb(0,255,0)"/><circle cx="413.6363636363636" cy="50.11108955765951" r="2" fill="rgb(0,255,0)"/><circle cx="418.68686868686865" cy="50.19729685093074" r="2" fill="rgb(0,255,0)"/><circle cx="423.73737373737373" cy="50.16460987942196" r="2" fill="rgb(0,255,0)"/><circle cx="428.7878787878788" cy="50.14591135513672" r="2" fill="rgb(0,255,0)"/><circle cx="433.83838383838383" cy="50.098824231653964" r="2" fill="rgb(0,255,0)"/><circle cx="438.8888888888889" cy="50.14837245018413" r="2" fill="rgb(0,255,0)"/><circle cx="443.93939393939394" cy="50.109275772408694" r="2" fill="rgb(0,255,0)"/><circle cx="448.989898989899" cy="50.12734762215359" r="2" fill="rgb(0,255,0)"/><circle cx="454.04040404040404" cy="50.109275772408694" r="2" fill="rgb(0,255,0)"/><circle cx="459.0909090909091" cy="50.109275772408694" r="2" fill="rgb(0,255,0)"/><circle cx="464.14141414141415" cy="50.15122032846807" r="2" fill="rgb(0,255,0)"/><circle cx="469.19191919191917" cy="50.14837245018413" r="2" fill="rgb(0,255,0)"/><circle cx="474.24242424242425" cy="50.14837245018413" r="2" fill="rgb(0,255,0)"/><circle cx="479.2929292929293" cy="50.13540487909768" r="2" fill="rgb(0,255,0)"/><circle cx="484.34343434343435" cy="50.07414663818423" r="2" fill="rgb(0,255,0)"/><circle cx="489.3939393939394" cy="50.07414663818423" r="2" fill="rgb(0,255,0)"/><circle cx="494.4444444444444" cy="50.07414663818423" r="2" fill="rgb(0,255,0)"/><circle cx="499.4949494949495" cy="50.07414663818423" r="2" fill="rgb(0,255,0)"/><circle cx="504.5454545454545" cy="50.07414663818423" r="2" fill="rgb(0,255,0)"/><circle cx="509.59595959595964" cy="50.07414663818423" r="2" fill="rgb(0,255,0)"/><circle cx="514.6464646464647" cy="50.067830850586006" r="2" fill="rgb(0,255,0)"/><circle cx="519.6969696969697" cy="50.067830850586006" r="2" fill="rgb(0,255,0)"/><circle cx="524.7474747474748" cy="50.067830850586006" r="2" fill="rgb(0,255,0)"/><circle cx="529.7979797979798" cy="50.02303748099189" r="2" fill="rgb(0,255,0)"/><circle cx="534.8484848484849" cy="50.02303748099189" r="2" fill="rgb(0,255,0)"/><circle cx="539.8989898989898" cy="50.02303748099189" r="2" fill="rgb(0,255,0)"/><circle cx="544.9494949494949" cy="50.0" r="2" fill="rgb(0,255,0)"/><circle cx="550.0" cy="50.01220868154894" r="2" fill="rgb(0,255,0)"/><text x="350.0" y="20.0" text-anchor="middle" fill="rgb(0,0,0)" font-size="20.0">GA Demo</text><text x="350.0" y="575.0" text-anchor="middle" fill="rgb(0,0,0)" font-size="12.0">generation</text><text transform="rotate(-90.0 20.0 300.0)" x="20.0" y="300.0" text-anchor="middle" fill="rgb(0,0,0)" font-size="12.0">fitness</text><text x="620" y="62" fill="rgb(0,0,0)" font-size="12">min</text><text x="620" y="74" fill="rgb(0,0,255)" font-size="12">ave</text><text x="620" y="86" fill="rgb(0,255,0)" font-size="12">max</text>
      Sorry, your browser does not support inline SVG.
    </svg>