<?xml version='1.0' encoding='UTF-8'?>
<svg version="1.1" width="700.0" height="600.0" onload="init(evt)" xmlns="http://www.w3.org/2000/svg">
      <style>.caption {
  font-size: 14px;
  font-family: Georgia, serif;
}
</style>
      <script type="text/ecmascript"><![CDATA[
function init(evt) {
  if ( window.svgDocument == null ) {
    svgDocument = evt.target.ownerDocument;
  }
}

function RectHover(evt, i, c) {
  rect = svgDocument.getElementById('rect' + i);
  if( c != null ) {
    rect.setAttributeNS(null, "fill", c)  
  }
  tooltiptext = svgDocument.getElementById('tooltiptext' + i);
  tooltipbg = svgDocument.getElementById('tooltipbg' + i);
  if( tooltipbg != null) {
    tbb = tooltiptext.getBBox();
    tooltipbg.setAttributeNS(null, "width", tbb.width);
    tooltipbg.setAttributeNS(null, "height", tbb.height);
    tooltipbg.setAttributeNS(null, "x", tbb.x);
    tooltipbg.setAttributeNS(null, "y", tbb.y);
    tooltipbg.setAttributeNS(null, "visibility", "visible");
  }
  tooltiptext.setAttributeNS(null,"visibility","visible");
}

function RectUnhover(evt, i, c) {
  rect = svgDocument.getElementById('rect' + i);
  if( c != null ) {
    rect.setAttributeNS(null, "fill", c)  
  }
  tooltiptext = svgDocument.getElementById('tooltiptext' + i);
  tooltiptext.setAttributeNS(null,"visibility","hidden");
  tooltipbg = svgDocument.getElementById('tooltipbg' + i);
  if( tooltipbg != null ) {
    tooltipbg.setAttributeNS(null,"visibility","hidden");
  }
}
]]></script>
      <line x1="50.0" y1="550.0" x2="550.0" y2="550.0" stroke="rgb(0,0,0)" stroke-width="1"/><line x1="50.0" y1="550.0" x2="50.0" y2="50.0" stroke="rgb(0,0,0)" stroke-width="1"/><line x1="50.0" y1="550.0" x2="50.0" y2="50.0" stroke="rgb(192,192,192)" stroke-width="1"/><line x1="50.0" y1="548.0" x2="50.0" y2="552.0" stroke="rgb(192,192,192)" stroke-width="1"/><text text-anchor="middle" alignment-baseline="hanging" x="50.0" y="553.0" font-size="12.0">0</text><line x1="100.5050505050505" y1="550.0" x2="100.5050505050505" y2="50.0" stroke="rgb(192,192,192)" stroke-width="1"/><line x1="100.5050505050505" y1="548.0" x2="100.5050505050505" y2="552.0" stroke="rgb(192,192,192)" stroke-width="1"/><text text-anchor="middle" alignment-baseline="hanging" x="100.5050505050505" y="553.0" font-size="12.0">10</text><line x1="151.010101010101" y1="550.0" x2="151.010101010101" y2="50.0" stroke="rgb(192,192,192)" stroke-width="1"/><line x1="151.010101010101" y1="548.0" x2="151.010101010101" y2="552.0" stroke="rgb(192,192,192)" stroke-width="1"/><text text-anchor="middle" alignment-baseline="hanging" x="151.010101010101" y="553.0" font-size="12.0">20</text><line x1="201.51515151515153" y1="550.0" x2="201.51515151515153" y2="50.0" stroke="rgb(192,192,192)" stroke-width="1"/><line x1="201.51515151515153" y1="548.0" x2="201.51515151515153" y2="552.0" stroke="rgb(192,192,192)" stroke-width="1"/><text text-anchor="middle" alignment-baseline="hanging" x="201.51515151515153" y="553.0" font-size="12.0">30</text><line x1="252.02020202020202" y1="550.0" x2="252.02020202020202" y2="50.0" stroke="rgb(192,192,192)" stroke-width="1"/><line x1="252.02020202020202" y1="548.0" x2="252.02020202020202" y2="552.0" stroke="rgb(192,192,192)" stroke-width="1"/><text text-anchor="middle" alignment-baseline="hanging" x="252.02020202020202" y="553.0" font-size="12.0">40</text><line x1="302.52525252525254" y1="550.0" x2="302.52525252525254" y2="50.0" stroke="rgb(192,192,192)" stroke-width="1"/><line x1="302.52525252525254" y1="548.0" x2="302.52525252525254" y2="552.0" stroke="rgb(192,192,192)" stroke-width="1"/><text text-anchor="middle" alignment-baseline="hanging" x="302.52525252525254" y="553.0" font-size="12.0">50</text><line x1="353.03030303030306" y1="550.0" x2="353.03030303030306" y2="50.0" stroke="rgb(192,192,192)" stroke-width="1"/><line x1="353.03030303030306" y1="548.0" x2="353.03030303030306" y2="552.0" stroke="rgb(192,192,192)" stroke-width="1"/><text text-anchor="middle" alignment-baseline="hanging" x="353.03030303030306" y="553.0" font-size="12.0">60</text><line x1="403.5353535353535" y1="550.0" x2="403.5353535353535" y2="50.0" stroke="rgb(192,192,192)" stroke-width="1"/><line x1="403.5353535353535" y1="548.0" x2="403.5353535353535" y2="552.0" stroke="rgb(192,192,192)" stroke-width="1"/><text text-anchor="middle" alignment-baseline="hanging" x="403.5353535353535" y="553.0" font-size="12.0">70</text><line x1="454.04040404040404" y1="550.0" x2="454.04040404040404" y2="50.0" stroke="rgb(192,192,192)" stroke-width="1"/><line x1="454.04040404040404" y1="548.0" x2="454.04040404040404" y2="552.0" stroke="rgb(192,192,192)" stroke-width="1"/><text text-anchor="middle" alignment-baseline="hanging" x="454.04040404040404" y="553.0" font-size="12.0">80</text><line x1="504.5454545454545" y1="550.0" x2="504.5454545454545" y2="50.0" stroke="rgb(192,192,192)" stroke-width="1"/><line x1="504.5454545454545" y1="548.0" x2="504.5454545454545" y2="552.0" stroke="rgb(192,192,192)" stroke-width="1"/><text text-anchor="middle" alignment-baseline="hanging" x="504.5454545454545" y="553.0" font-size="12.0">90</text><line x1="50.0" y1="550.0" x2="550.0" y2="550.0" stroke="rgb(192,192,192)" stroke-width="1"/><text text-anchor="end" alignment-baseline="middle" x="45.0" y="550.0" font-size="12.0">0.0</text><line x1="48.0" y1="550.0" x2="52.0" y2="550.0" stroke="rgb(192,192,192)" stroke-width="1"/><line x1="50.0" y1="367.69487814761527" x2="550.0" y2="367.69487814761527" stroke="rgb(192,192,192)" stroke-width="1"/><text text-anchor="end" alignment-baseline="middle" x="45.0" y="367.69487814761527" font-size="12.0">1000.0</text><line x1="48.0" y1="367.69487814761527" x2="52.0" y2="367.69487814761527" stroke="rgb(192,192,192)" stroke-width="1"/><line x1="50.0" y1="185.38975629523054" x2="550.0" y2="185.38975629523054" stroke="rgb(192,192,192)" stroke-width="1"/><text text-anchor="end" alignment-baseline="middle" x="45.0" y="185.38975629523054" font-size="12.0">2000.0</text><line x1="48.0" y1="185.38975629523054" x2="52.0" y2="185.38975629523054" stroke="rgb(192,192,192)" stroke-width="1"/><polyline points="50.0,430.9927793126684 55.05050505050505,424.56894037494567 60.101010101010104,425.6789507304241 65.15151515151516,382.0750212251047 70.20202020202021,382.704512079716 75.25252525252526,328.92944349449306 80.30303030303031,349.97339766902405 85.35353535353535,352.6974710538411 90.40404040404042,249.87181117040143 95.45454545454545,230.28970100819924 100.5050505050505,230.81288765307926 105.55555555555554,223.39757401353637 110.60606060606061,366.59155633933506 115.65656565656566,405.3703085895448 120.7070707070707,74.68244456390386 125.75757575757576,310.12063443903156 130.80808080808083,356.20393468953625 135.85858585858585,223.4486800279107 140.9090909090909,225.03910628122298 145.95959595959596,274.48536820790895 151.010101010101,72.5784141746397 156.06060606060606,285.633483453427 161.1111111111111,202.3092144531259 166.16161616161617,256.46050137756686 171.21212121212122,348.950807379053 176.26262626262627,372.5549464218898 181.31313131313132,385.8690985765646 186.36363636363635,386.0836145425387 191.4141414141414,357.2125182793709 196.46464646464648,338.22929491312215 201.51515151515153,186.9756456020762 206.56565656565658,71.45673825094502 211.61616161616163,71.36479837129849 216.66666666666666,333.12951028913596 221.7171717171717,307.42883548920076 226.76767676767676,306.84373516932277 231.8181818181818,399.15617958280734 236.86868686868686,376.4887295457984 241.91919191919192,329.63477511665644 246.96969696969697,330.27790589937626 252.02020202020202,402.8104317744433 257.07070707070704,404.31180370604744 262.1212121212121,330.82971965737454 267.1717171717172,359.94076271886547 272.2222222222222,377.60793572763737 277.27272727272725,342.45796041147264 282.32323232323233,360.6236526149959 287.3737373737374,358.079011728276 292.42424242424244,402.40630062709073 297.47474747474746,420.1353796796276 302.52525252525254,401.9048674943891 307.57575757575756,400.16407981378893 312.62626262626264,291.86601965078586 317.67676767676767,330.6242820144039 322.7272727272727,329.4376713856689 327.77777777777777,378.92546002335183 332.8282828282828,378.93244868807335 337.8787878787879,256.49755775451365 342.92929292929296,170.38393729121913 347.979797979798,270.384379094151 353.03030303030306,368.2667350197379 358.0808080808081,367.82259247608806 363.13131313131316,367.6866525901353 368.1818181818182,385.93014019352717 373.23232323232327,343.9495756496149 378.2828282828283,374.5367877039857 383.3333333333333,247.2333175304248 388.3838383838384,395.62334974987834 393.4343434343434,127.09682007661684 398.4848484848485,184.45571826849726 403.5353535353535,352.71159769348424 408.58585858585855,405.6107143119412 413.6363636363636,405.6106795271728 418.68686868686865,395.9350357311518 423.73737373737373,395.9420243958733 428.7878787878788,395.9953171572787 433.83838383838383,390.58339512846624 438.8888888888889,358.9484842505667 443.93939393939394,412.29705454569887 448.989898989899,412.4051302471136 454.04040404040404,414.4740583250312 459.0909090909091,396.71105296241984 464.14141414141415,375.3618017410348 469.19191919191917,375.53288410839826 474.24242424242425,349.3603876749049 479.2929292929293,351.054327590472 484.34343434343435,318.1183117070243 489.3939393939394,215.63309322842986 494.4444444444444,215.6800579902296 499.4949494949495,393.1928172209241 504.5454545454545,390.4237381207439 509.59595959595964,390.4237381207439 514.6464646464647,367.1798569630469 519.6969696969697,360.0753861189463 524.7474747474748,341.75331657606654 529.7979797979798,273.4149652272961 534.8484848484849,329.2083619349347 539.8989898989898,392.51921627144264 544.9494949494949,394.92907381152963 550.0,399.53798442253935" fill="none" stroke="rgb(0,0,0)" stroke-width="1"/><circle cx="50.0" cy="430.9927793126684" r="2" fill="rgb(0,0,0)"/><circle cx="55.05050505050505" cy="424.56894037494567" r="2" fill="rgb(0,0,0)"/><circle cx="60.101010101010104" cy="425.6789507304241" r="2" fill="rgb(0,0,0)"/><circle cx="65.15151515151516" cy="382.0750212251047" r="2" fill="rgb(0,0,0)"/><circle cx="70.20202020202021" cy="382.704512079716" r="2" fill="rgb(0,0,0)"/><circle cx="75.25252525252526" cy="328.92944349449306" r="2" fill="rgb(0,0,0)"/><circle cx="80.30303030303031" cy="349.97339766902405" r="2" fill="rgb(0,0,0)"/><circle cx="85.35353535353535" cy="352.6974710538411" r="2" fill="rgb(0,0,0)"/><circle cx="90.40404040404042" cy="249.87181117040143" r="2" fill="rgb(0,0,0)"/><circle cx="95.45454545454545" cy="230.28970100819924" r="2" fill="rgb(0,0,0)"/><circle cx="100.5050505050505" cy="230.81288765307926" r="2" fill="rgb(0,0,0)"/><circle cx="105.55555555555554" cy="223.39757401353637" r="2" fill="rgb(0,0,0)"/><circle cx="110.60606060606061" cy="366.59155633933506" r="2" fill="rgb(0,0,0)"/><circle cx="115.65656565656566" cy="405.3703085895448" r="2" fill="rgb(0,0,0)"/><circle cx="120.7070707070707" cy="74.68244456390386" r="2" fill="rgb(0,0,0)"/><circle cx="125.75757575757576" cy="310.12063443903156" r="2" fill="rgb(0,0,0)"/><circle cx="130.80808080808083" cy="356.20393468953625" r="2" fill="rgb(0,0,0)"/><circle cx="135.85858585858585" cy="223.4486800279107" r="2" fill="rgb(0,0,0)"/><circle cx="140.9090909090909" cy="225.03910628122298" r="2" fill="rgb(0,0,0)"/><circle cx="145.95959595959596" cy="274.48536820790895" r="2" fill="rgb(0,0,0)"/><circle cx="151.010101010101" cy="72.5784141746397" r="2" fill="rgb(0,0,0)"/><circle cx="156.06060606060606" cy="285.633483453427" r="2" fill="rgb(0,0,0)"/><circle cx="161.1111111111111" cy="202.3092144531259" r="2" fill="rgb(0,0,0)"/><circle cx="166.16161616161617" cy="256.46050137756686" r="2" fill="rgb(0,0,0)"/><circle cx="171.21212121212122" cy="348.950807379053" r="2" fill="rgb(0,0,0)"/><circle cx="176.26262626262627" cy="372.5549464218898" r="2" fill="rgb(0,0,0)"/><circle cx="181.31313131313132" cy="385.8690985765646" r="2" fill="rgb(0,0,0)"/><circle cx="186.36363636363635" cy="386.0836145425387" r="2" fill="rgb(0,0,0)"/><circle cx="191.4141414141414" cy="357.2125182793709" r="2" fill="rgb(0,0,0)"/><circle cx="196.46464646464648" cy="338.22929491312215" r="2" fill="rgb(0,0,0)"/><circle cx="201.51515151515153" cy="186.9756456020762" r="2" fill="rgb(0,0,0)"/><circle cx="206.56565656565658" cy="71.45673825094502" r="2" fill="rgb(0,0,0)"/><circle cx="211.61616161616163" cy="71.36479837129849" r="2" fill="rgb(0,0,0)"/><circle cx="216.66666666666666" cy="333.12951028913596" r="2" fill="rgb(0,0,0)"/><circle cx="221.7171717171717" cy="307.42883548920076" r="2" fill="rgb(0,0,0)"/><circle cx="226.76767676767676" cy="306.84373516932277" r="2" fill="rgb(0,0,0)"/><circle cx="231.8181818181818" cy="399.15617958280734" r="2" fill="rgb(0,0,0)"/><circle cx="236.86868686868686" cy="376.4887295457984" r="2" fill="rgb(0,0,0)"/><circle cx="241.91919191919192" cy="329.63477511665644" r="2" fill="rgb(0,0,0)"/><circle cx="246.96969696969697" cy="330.27790589937626" r="2" fill="rgb(0,0,0)"/><circle cx="252.02020202020202" cy="402.8104317744433" r="2" fill="rgb(0,0,0)"/><circle cx="257.07070707070704" cy="404.31180370604744" r="2" fill="rgb(0,0,0)"/><circle cx="262.1212121212121" cy="330.82971965737454" r="2" fill="rgb(0,0,0)"/><circle cx="267.1717171717172" cy="359.94076271886547" r="2" fill="rgb(0,0,0)"/><circle cx="272.2222222222222" cy="377.60793572763737" r="2" fill="rgb(0,0,0)"/><circle cx="277.27272727272725" cy="342.45796041147264" r="2" fill="rgb(0,0,0)"/><circle cx="282.32323232323233" cy="360.6236526149959" r="2" fill="rgb(0,0,0)"/><circle cx="287.3737373737374" cy="358.079011728276" r="2" fill="rgb(0,0,0)"/><circle cx="292.42424242424244" cy="402.40630062709073" r="2" fill="rgb(0,0,0)"/><circle cx="297.47474747474746" cy="420.1353796796276" r="2" fill="rgb(0,0,0)"/><circle cx="302.52525252525254" cy="401.9048674943891" r="2" fill="rgb(0,0,0)"/><circle cx="307.57575757575756" cy="400.16407981378893" r="2" fill="rgb(0,0,0)"/><circle cx="312.62626262626264" cy="291.86601965078586" r="2" fill="rgb(0,0,0)"/><circle cx="317.67676767676767" cy="330.6242820144039" r="2" fill="rgb(0,0,0)"/><circle cx="322.7272727272727" cy="329.4376713856689" r="2" fill="rgb(0,0,0)"/><circle cx="327.77777777777777" cy="378.92546002335183" r="2" fill="rgb(0,0,0)"/><circle cx="332.8282828282828" cy="378.93244868807335" r="2" fill="rgb(0,0,0)"/><circle cx="337.8787878787879" cy="256.49755775451365" r="2" fill="rgb(0,0,0)"/><circle cx="342.92929292929296" cy="170.38393729121913" r="2" fill="rgb(0,0,0)"/><circle cx="347.979797979798" cy="270.384379094151" r="2" fill="rgb(0,0,0)"/><circle cx="353.03030303030306" cy="368.2667350197379" r="2" fill="rgb(0,0,0)"/><circle cx="358.0808080808081" cy="367.82259247608806" r="2" fill="rgb(0,0,0)"/><circle cx="363.13131313131316" cy="367.6866525901353" r="2" fill="rgb(0,0,0)"/><circle cx="368.1818181818182" cy="385.93014019352717" r="2" fill="rgb(0,0,0)"/><circle cx="373.23232323232327" cy="343.9495756496149" r="2" fill="rgb(0,0,0)"/><circle cx="378.2828282828283" cy="374.5367877039857" r="2" fill="rgb(0,0,0)"/><circle cx="383.3333333333333" cy="247.2333175304248" r="2" fill="rgb(0,0,0)"/><circle cx="388.3838383838384" cy="395.62334974987834" r="2" fill="rgb(0,0,0)"/><circle cx="393.4343434343434" cy="127.09682007661684" r="2" fill="rgb(0,0,0)"/><circle cx="398.4848484848485" cy="184.45571826849726" r="2" fill="rgb(0,0,0)"/><circle cx="403.5353535353535" cy="352.71159769348424" r="2" fill="rgb(0,0,0)"/><circle cx="408.58585858585855" cy="405.6107143119412" r="2" fill="rgb(0,0,0)"/><circle cx="413.6363636363636" cy="405.6106795271728" r="2" fill="rgb(0,0,0)"/><circle cx="418.68686868686865" cy="395.9350357311518" r="2" fill="rgb(0,0,0)"/><circle cx="423.73737373737373" cy="395.9420243958733" r="2" fill="rgb(0,0,0)"/><circle cx="428.7878787878788" cy="395.9953171572787" r="2" fill="rgb(0,0,0)"/><circle cx="433.83838383838383" cy="390.58339512846624" r="2" fill="rgb(0,0,0)"/><circle cx="438.8888888888889" cy="358.9484842505667" r="2" fill="rgb(0,0,0)"/><circle cx="443.93939393939394" cy="412.29705454569887" r="2" fill="rgb(0,0,0)"/><circle cx="448.989898989899" cy="412.4051302471136" r="2" fill="rgb(0,0,0)"/><circle cx="454.04040404040404" cy="414.4740583250312" r="2" fill="rgb(0,0,0)"/><circle cx="459.0909090909091" cy="396.71105296241984" r="2" fill="rgb(0,0,0)"/><circle cx="464.14141414141415" cy="375.3618017410348" r="2" fill="rgb(0,0,0)"/><circle cx="469.19191919191917" cy="375.53288410839826" r="2" fill="rgb(0,0,0)"/><circle cx="474.24242424242425" cy="349.3603876749049" r="2" fill="rgb(0,0,0)"/><circle cx="479.2929292929293" cy="351.054327590472" r="2" fill="rgb(0,0,0)"/><circle cx="484.34343434343435" cy="318.1183117070243" r="2" fill="rgb(0,0,0)"/><circle cx="489.3939393939394" cy="215.63309322842986" r="2" fill="rgb(0,0,0)"/><circle cx="494.4444444444444" cy="215.6800579902296" r="2" fill="rgb(0,0,0)"/><circle cx="499.4949494949495" cy="393.1928172209241" r="2" fill="rgb(0,0,0)"/><circle cx="504.5454545454545" cy="390.4237381207439" r="2" fill="rgb(0,0,0)"/><circle cx="509.59595959595964" cy="390.4237381207439" r="2" fill="rgb(0,0,0)"/><circle cx="514.6464646464647" cy="367.1798569630469" r="2" fill="rgb(0,0,0)"/><circle cx="519.6969696969697" cy="360.0753861189463" r="2" fill="rgb(0,0,0)"/><circle cx="524.7474747474748" cy="341.75331657606654" r="2" fill="rgb(0,0,0)"/><circle cx="529.7979797979798" cy="273.4149652272961" r="2" fill="rgb(0,0,0)"/><circle cx="534.8484848484849" cy="329.2083619349347" r="2" fill="rgb(0,0,0)"/><circle cx="539.8989898989898" cy="392.51921627144264" r="2" fill="rgb(0,0,0)"/><circle cx="544.9494949494949" cy="394.92907381152963" r="2" fill="rgb(0,0,0)"/><circle cx="550.0" cy="399.53798442253935" r="2" fill="rgb(0,0,0)"/><polyline points="50.0,204.46841192262048 55.05050505050505,188.52031331227994 60.101010101010104,141.281931136332 65.15151515151516,129.4929664560326 70.20202020202021,101.07741127505597 75.25252525252526,86.05549532019569 80.30303030303031,79.70014170572387 85.35353535353535,81.51847071490141 90.40404040404042,71.71383714537598 95.45454545454545,66.2897672134477 100.5050505050505,61.68005231066911 105.55555555555554,59.51786919631917 110.60606060606061,60.83662476326373 115.65656565656566,63.273161477697045 120.7070707070707,54.07875982890653 125.75757575757576,61.52673825373034 130.80808080808083,60.099492511483675 135.85858585858585,56.05511017932821 140.9090909090909,56.13993828779735 145.95959595959596,56.264121010309964 151.010101010101,53.12932878324324 156.06060606060606,57.200514461291505 161.1111111111111,55.46876901375043 166.16161616161617,56.18362868481762 171.21212121212122,61.746417436559966 176.26262626262627,62.1674197558354 181.31313131313132,62.19915802228752 186.36363636363635,62.630003264958816 191.4141414141414,66.99093418499143 196.46464646464648,70.48150349593891 201.51515151515153,53.970878175191956 206.56565656565658,52.40153515632704 211.61616161616163,52.454535340187135 216.66666666666666,61.58050342479004 221.7171717171717,58.192048707985464 226.76767676767676,57.83340037870522 231.8181818181818,67.2061794805885 236.86868686868686,64.97028955046176 241.91919191919192,61.52783036916816 246.96969696969697,62.907673615792476 252.02020202020202,71.34409327559939 257.07070707070704,82.88384102298426 262.1212121212121,73.09603298670311 267.1717171717172,76.60889845609796 272.2222222222222,73.18047117079254 277.27272727272725,60.73461107804076 282.32323232323233,59.36771377651536 287.3737373737374,61.44763902685622 292.42424242424244,73.00995575420194 297.47474747474746,62.13829339256273 302.52525252525254,73.69710773449611 307.57575757575756,60.36311202624552 312.62626262626264,56.64277576387849 317.67676767676767,56.86272345127867 322.7272727272727,59.70469194667214 327.77777777777777,64.40793038625293 332.8282828282828,68.30928440672557 337.8787878787879,59.504709202950494 342.92929292929296,57.478706858268026 347.979797979798,59.99439006654069 353.03030303030306,63.514792277727736 358.0808080808081,61.298890532971086 363.13131313131316,69.75915927842107 368.1818181818182,64.73321805224703 373.23232323232327,68.20555893403645 378.2828282828283,69.9741506507184 383.3333333333333,57.66353198270701 388.3838383838384,56.45254211038167 393.4343434343434,52.36979134376372 398.4848484848485,54.441492646309825 403.5353535353535,57.04422616214845 408.58585858585855,58.85220933560356 413.6363636363636,61.93122823613686 418.68686868686865,59.23353138086367 423.73737373737373,64.55566945942417 428.7878787878788,69.43341055151745 433.83838383838383,73.63037575893065 438.8888888888889,69.96401065199461 443.93939393939394,71.28157074616888 448.989898989899,81.79491086460774 454.04040404040404,75.05197050383623 459.0909090909091,69.83774074192615 464.14141414141415,61.898653616686545 469.19191919191917,63.28618066587592 474.24242424242425,65.89536110170127 479.2929292929293,64.4984678321477 484.34343434343435,59.815254806463884 489.3939393939394,52.994515657259 494.4444444444444,57.239485253299335 499.4949494949495,66.22286774759442 504.5454545454545,66.51530759792757 509.59595959595964,72.49380681582664 514.6464646464647,66.60592311970629 519.6969696969697,56.68690472468603 524.7474747474748,59.73923469939757 529.7979797979798,54.4975193077164 534.8484848484849,57.036650977131046 539.8989898989898,58.833260228850975 544.9494949494949,72.00231691316378 550.0,77.96186994364791" fill="none" stroke="rgb(0,0,255)" stroke-width="1"/><circle cx="50.0" cy="204.46841192262048" r="2" fill="rgb(0,0,255)"/><circle cx="55.05050505050505" cy="188.52031331227994" r="2" fill="rgb(0,0,255)"/><circle cx="60.101010101010104" cy="141.281931136332" r="2" fill="rgb(0,0,255)"/><circle cx="65.15151515151516" cy="129.4929664560326" r="2" fill="rgb(0,0,255)"/><circle cx="70.20202020202021" cy="101.07741127505597" r="2" fill="rgb(0,0,255)"/><circle cx="75.25252525252526" cy="86.05549532019569" r="2" fill="rgb(0,0,255)"/><circle cx="80.30303030303031" cy="79.70014170572387" r="2" fill="rgb(0,0,255)"/><circle cx="85.35353535353535" cy="81.51847071490141" r="2" fill="rgb(0,0,255)"/><circle cx="90.40404040404042" cy="71.71383714537598" r="2" fill="rgb(0,0,255)"/><circle cx="95.45454545454545" cy="66.2897672134477" r="2" fill="rgb(0,0,255)"/><circle cx="100.5050505050505" cy="61.68005231066911" r="2" fill="rgb(0,0,255)"/><circle cx="105.55555555555554" cy="59.51786919631917" r="2" fill="rgb(0,0,255)"/><circle cx="110.60606060606061" cy="60.83662476326373" r="2" fill="rgb(0,0,255)"/><circle cx="115.65656565656566" cy="63.273161477697045" r="2" fill="rgb(0,0,255)"/><circle cx="120.7070707070707" cy="54.07875982890653" r="2" fill="rgb(0,0,255)"/><circle cx="125.75757575757576" cy="61.52673825373034" r="2" fill="rgb(0,0,255)"/><circle cx="130.80808080808083" cy="60.099492511483675" r="2" fill="rgb(0,0,255)"/><circle cx="135.85858585858585" cy="56.05511017932821" r="2" fill="rgb(0,0,255)"/><circle cx="140.9090909090909" cy="56.13993828779735" r="2" fill="rgb(0,0,255)"/><circle cx="145.95959595959596" cy="56.264121010309964" r="2" fill="rgb(0,0,255)"/><circle cx="151.010101010101" cy="53.12932878324324" r="2" fill="rgb(0,0,255)"/><circle cx="156.06060606060606" cy="57.200514461291505" r="2" fill="rgb(0,0,255)"/><circle cx="161.1111111111111" cy="55.46876901375043" r="2" fill="rgb(0,0,255)"/><circle cx="166.16161616161617" cy="56.18362868481762" r="2" fill="rgb(0,0,255)"/><circle cx="171.21212121212122" cy="61.746417436559966" r="2" fill="rgb(0,0,255)"/><circle cx="176.26262626262627" cy="62.1674197558354" r="2" fill="rgb(0,0,255)"/><circle cx="181.31313131313132" cy="62.19915802228752" r="2" fill="rgb(0,0,255)"/><circle cx="186.36363636363635" cy="62.630003264958816" r="2" fill="rgb(0,0,255)"/><circle cx="191.4141414141414" cy="66.99093418499143" r="2" fill="rgb(0,0,255)"/><circle cx="196.46464646464648" cy="70.48150349593891" r="2" fill="rgb(0,0,255)"/><circle cx="201.51515151515153" cy="53.970878175191956" r="2" fill="rgb(0,0,255)"/><circle cx="206.56565656565658" cy="52.40153515632704" r="2" fill="rgb(0,0,255)"/><circle cx="211.61616161616163" cy="52.454535340187135" r="2" fill="rgb(0,0,255)"/><circle cx="216.66666666666666" cy="61.58050342479004" r="2" fill="rgb(0,0,255)"/><circle cx="221.7171717171717" cy="58.192048707985464" r="2" fill="rgb(0,0,255)"/><circle cx="226.76767676767676" cy="57.83340037870522" r="2" fill="rgb(0,0,255)"/><circle cx="231.8181818181818" cy="67.2061794805885" r="2" fill="rgb(0,0,255)"/><circle cx="236.86868686868686" cy="64.97028955046176" r="2" fill="rgb(0,0,255)"/><circle cx="241.91919191919192" cy="61.52783036916816" r="2" fill="rgb(0,0,255)"/><circle cx="246.96969696969697" cy="62.907673615792476" r="2" fill="rgb(0,0,255)"/><circle cx="252.02020202020202" cy="71.34409327559939" r="2" fill="rgb(0,0,255)"/><circle cx="257.07070707070704" cy="82.88384102298426" r="2" fill="rgb(0,0,255)"/><circle cx="262.1212121212121" cy="73.09603298670311" r="2" fill="rgb(0,0,255)"/><circle cx="267.1717171717172" cy="76.60889845609796" r="2" fill="rgb(0,0,255)"/><circle cx="272.2222222222222" cy="73.18047117079254" r="2" fill="rgb(0,0,255)"/><circle cx="277.27272727272725" cy="60.73461107804076" r="2" fill="rgb(0,0,255)"/><circle cx="282.32323232323233" cy="59.36771377651536" r="2" fill="rgb(0,0,255)"/><circle cx="287.3737373737374" cy="61.44763902685622" r="2" fill="rgb(0,0,255)"/><circle cx="292.42424242424244" cy="73.00995575420194" r="2" fill="rgb(0,0,255)"/><circle cx="297.47474747474746" cy="62.13829339256273" r="2" fill="rgb(0,0,255)"/><circle cx="302.52525252525254" cy="73.69710773449611" r="2" fill="rgb(0,0,255)"/><circle cx="307.57575757575756" cy="60.36311202624552" r="2" fill="rgb(0,0,255)"/><circle cx="312.62626262626264" cy="56.64277576387849" r="2" fill="rgb(0,0,255)"/><circle cx="317.67676767676767" cy="56.86272345127867" r="2" fill="rgb(0,0,255)"/><circle cx="322.7272727272727" cy="59.70469194667214" r="2" fill="rgb(0,0,255)"/><circle cx="327.77777777777777" cy="64.40793038625293" r="2" fill="rgb(0,0,255)"/><circle cx="332.8282828282828" cy="68.30928440672557" r="2" fill="rgb(0,0,255)"/><circle cx="337.8787878787879" cy="59.504709202950494" r="2" fill="rgb(0,0,255)"/><circle cx="342.92929292929296" cy="57.478706858268026" r="2" fill="rgb(0,0,255)"/><circle cx="347.979797979798" cy="59.99439006654069" r="2" fill="rgb(0,0,255)"/><circle cx="353.03030303030306" cy="63.514792277727736" r="2" fill="rgb(0,0,255)"/><circle cx="358.0808080808081" cy="61.298890532971086" r="2" fill="rgb(0,0,255)"/><circle cx="363.13131313131316" cy="69.75915927842107" r="2" fill="rgb(0,0,255)"/><circle cx="368.1818181818182" cy="64.73321805224703" r="2" fill="rgb(0,0,255)"/><circle cx="373.23232323232327" cy="68.20555893403645" r="2" fill="rgb(0,0,255)"/><circle cx="378.2828282828283" cy="69.9741506507184" r="2" fill="rgb(0,0,255)"/><circle cx="383.3333333333333" cy="57.66353198270701" r="2" fill="rgb(0,0,255)"/><circle cx="388.3838383838384" cy="56.45254211038167" r="2" fill="rgb(0,0,255)"/><circle cx="393.4343434343434" cy="52.36979134376372" r="2" fill="rgb(0,0,255)"/><circle cx="398.4848484848485" cy="54.441492646309825" r="2" fill="rgb(0,0,255)"/><circle cx="403.5353535353535" cy="57.04422616214845" r="2" fill="rgb(0,0,255)"/><circle cx="408.58585858585855" cy="58.85220933560356" r="2" fill="rgb(0,0,255)"/><circle cx="413.6363636363636" cy="61.93122823613686" r="2" fill="rgb(0,0,255)"/><circle cx="418.68686868686865" cy="59.23353138086367" r="2" fill="rgb(0,0,255)"/><circle cx="423.73737373737373" cy="64.55566945942417" r="2" fill="rgb(0,0,255)"/><circle cx="428.7878787878788" cy="69.43341055151745" r="2" fill="rgb(0,0,255)"/><circle cx="433.83838383838383" cy="73.63037575893065" r="2" fill="rgb(0,0,255)"/><circle cx="438.8888888888889" cy="69.96401065199461" r="2" fill="rgb(0,0,255)"/><circle cx="443.93939393939394" cy="71.28157074616888" r="2" fill="rgb(0,0,255)"/><circle cx="448.989898989899" cy="81.79491086460774" r="2" fill="rgb(0,0,255)"/><circle cx="454.04040404040404" cy="75.05197050383623" r="2" fill="rgb(0,0,255)"/><circle cx="459.0909090909091" cy="69.83774074192615" r="2" fill="rgb(0,0,255)"/><circle cx="464.14141414141415" cy="61.898653616686545" r="2" fill="rgb(0,0,255)"/><circle cx="469.19191919191917" cy="63.28618066587592" r="2" fill="rgb(0,0,255)"/><circle cx="474.24242424242425" cy="65.89536110170127" r="2" fill="rgb(0,0,255)"/><circle cx="479.2929292929293" cy="64.4984678321477" r="2" fill="rgb(0,0,255)"/><circle cx="484.34343434343435" cy="59.815254806463884" r="2" fill="rgb(0,0,255)"/><circle cx="489.3939393939394" cy="52.994515657259" r="2" fill="rgb(0,0,255)"/><circle cx="494.4444444444444" cy="57.239485253299335" r="2" fill="rgb(0,0,255)"/><circle cx="499.4949494949495" cy="66.22286774759442" r="2" fill="rgb(0,0,255)"/><circle cx="504.5454545454545" cy="66.51530759792757" r="2" fill="rgb(0,0,255)"/><circle cx="509.59595959595964" cy="72.49380681582664" r="2" fill="rgb(0,0,255)"/><circle cx="514.6464646464647" cy="66.60592311970629" r="2" fill="rgb(0,0,255)"/><circle cx="519.6969696969697" cy="56.68690472468603" r="2" fill="rgb(0,0,255)"/><circle cx="524.7474747474748" cy="59.73923469939757" r="2" fill="rgb(0,0,255)"/><circle cx="529.7979797979798" cy="54.4975193077164" r="2" fill="rgb(0,0,255)"/><circle cx="534.8484848484849" cy="57.036650977131046" r="2" fill="rgb(0,0,255)"/><circle cx="539.8989898989898" cy="58.833260228850975" r="2" fill="rgb(0,0,255)"/><circle cx="544.9494949494949" cy="72.00231691316378" r="2" fill="rgb(0,0,255)"/><circle cx="550.0" cy="77.96186994364791" r="2" fill="rgb(0,0,255)"/><polyline points="50.0,52.29463978169139 55.05050505050505,52.56358146029788 60.101010101010104,53.897713222408186 65.15151515151516,52.212000208383984 70.20202020202021,51.964890653996974 75.25252525252526,52.39591894545083 80.30303030303031,52.54668454520129 85.35353535353535,51.69659739536917 90.40404040404042,52.353856241146104 95.45454545454545,52.1355537261345 100.5050505050505,52.12821406347018 105.55555555555554,51.47106096303861 110.60606060606061,51.145477694501096 115.65656565656566,51.33360851598235 120.7070707070707,50.764740308034504 125.75757575757576,51.32111350312749 130.80808080808083,51.11554523881898 135.85858585858585,50.517311687108645 140.9090909090909,51.18867446586262 145.95959595959596,51.12293862981687 151.010101010101,50.60266747331855 156.06060606060606,50.41978626269406 161.1111111111111,50.6096969432557 166.16161616161617,50.33393480129803 171.21212121212122,50.50242764181388 176.26262626262627,50.41990475194933 181.31313131313132,50.37293999014946 186.36363636363635,50.45497899988533 191.4141414141414,50.55165637371016 196.46464646464648,50.577635750801676 201.51515151515153,50.47034692530883 206.56565656565658,50.22436865907065 211.61616161616163,50.202493053979936 216.66666666666666,50.17635667965834 221.7171717171717,50.18547281466573 226.76767676767676,50.19337691897243 231.8181818181818,50.18547281466573 236.86868686868686,50.15443792153127 241.91919191919192,50.19550438925842 246.96969696969697,50.20037638401152 252.02020202020202,50.19550438925842 257.07070707070704,50.202493053979936 262.1212121212121,50.12860725166985 267.1717171717172,50.178484149944325 272.2222222222222,50.178484149944325 277.27272727272725,50.178484149944325 282.32323232323233,50.19550438925842 287.3737373737374,50.19550438925842 292.42424242424244,50.18547281466573 297.47474747474746,50.178484149944325 302.52525252525254,50.08221981958769 307.57575757575756,50.08221981958769 312.62626262626264,50.099355098514366 317.67676767676767,50.10621209464688 322.7272727272727,50.141382114365115 327.77777777777777,50.141382114365115 332.8282828282828,50.13439344964354 337.8787878787879,50.13439344964354 342.92929292929296,50.13439344964354 347.979797979798,50.05668171203939 353.03030303030306,50.094368064148796 358.0808080808081,50.08022188633379 363.13131313131316,50.094368064148796 368.1818181818182,50.122245205082436 373.23232323232327,50.11737321032945 378.2828282828283,50.07686426959316 383.3333333333333,50.103870862017516 388.3838383838384,50.12436187505091 393.4343434343434,50.07158659642732 398.4848484848485,50.08559871063869 403.5353535353535,50.11224808137621 408.58585858585855,50.0514987452716 413.6363636363636,50.02522334688666 418.68686868686865,50.03436346634493 423.73737373737373,50.02522334688666 428.7878787878788,50.13439344964354 433.83838383838383,50.11737321032945 438.8888888888889,50.11737321032945 443.93939393939394,50.102380270221886 448.989898989899,50.08808935295974 454.04040404040404,50.08808935295974 459.0909090909091,50.07857526114884 464.14141414141415,50.07158659642732 469.19191919191917,50.07158659642732 474.24242424242425,50.07158659642732 479.2929292929293,50.07857526114884 484.34343434343435,50.08808935295974 489.3939393939394,50.07645859118037 494.4444444444444,50.05587384212106 499.4949494949495,50.07857526114884 504.5454545454545,50.0 509.59595959595964,50.0 514.6464646464647,50.00258108071574 519.6969696969697,50.0165694011132 524.7474747474748,50.01590104624205 529.7979797979798,50.0165694011132 534.8484848484849,50.01590104624205 539.8989898989898,50.01590104624205 544.9494949494949,50.007464066423324 550.0,50.01378437627358" fill="none" stroke="rgb(0,255,0)" stroke-width="1"/><circle cx="50.0" cy="52.29463978169139" r="2" fill="rgb(0,255,0)"/><circle cx="55.05050505050505" cy="52.56358146029788" r="2" fill="rgb(0,255,0)"/><circle cx="60.101010101010104" cy="53.897713222408186" r="2" fill="rgb(0,255,0)"/><circle cx="65.15151515151516" cy="52.212000208383984" r="2" fill="rgb(0,255,0)"/><circle cx="70.20202020202021" cy="51.964890653996974" r="2" fill="rgb(0,255,0)"/><circle cx="75.25252525252526" cy="52.39591894545083" r="2" fill="rgb(0,255,0)"/><circle cx="80.30303030303031" cy="52.54668454520129" r="2" fill="rgb(0,255,0)"/><circle cx="85.35353535353535" cy="51.69659739536917" r="2" fill="rgb(0,255,0)"/><circle cx="90.40404040404042" cy="52.353856241146104" r="2" fill="rgb(0,255,0)"/><circle cx="95.45454545454545" cy="52.1355537261345" r="2" fill="rgb(0,255,0)"/><circle cx="100.5050505050505" cy="52.12821406347018" r="2" fill="rgb(0,255,0)"/><circle cx="105.55555555555554" cy="51.47106096303861" r="2" fill="rgb(0,255,0)"/><circle cx="110.60606060606061" cy="51.145477694501096" r="2" fill="rgb(0,255,0)"/><circle cx="115.65656565656566" cy="51.33360851598235" r="2" fill="rgb(0,255,0)"/><circle cx="120.7070707070707" cy="50.764740308034504" r="2" fill="rgb(0,255,0)"/><circle cx="125.75757575757576" cy="51.32111350312749" r="2" fill="rgb(0,255,0)"/><circle cx="130.80808080808083" cy="51.11554523881898" r="2" fill="rgb(0,255,0)"/><circle cx="135.85858585858585" cy="50.517311687108645" r="2" fill="rgb(0,255,0)"/><circle cx="140.9090909090909" cy="51.18867446586262" r="2" fill="rgb(0,255,0)"/><circle cx="145.95959595959596" cy="51.12293862981687" r="2" fill="rgb(0,255,0)"/><circle cx="151.010101010101" cy="50.60266747331855" r="2" fill="rgb(0,255,0)"/><circle cx="156.06060606060606" cy="50.41978626269406" r="2" fill="rgb(0,255,0)"/><circle cx="161.1111111111111" cy="50.6096969432557" r="2" fill="rgb(0,255,0)"/><circle cx="166.16161616161617" cy="50.33393480129803" r="2" fill="rgb(0,255,0)"/><circle cx="171.21212121212122" cy="50.50242764181388" r="2" fill="rgb(0,255,0)"/><circle cx="176.26262626262627" cy="50.41990475194933" r="2" fill="rgb(0,255,0)"/><circle cx="181.31313131313132" cy="50.37293999014946" r="2" fill="rgb(0,255,0)"/><circle cx="186.36363636363635" cy="50.45497899988533" r="2" fill="rgb(0,255,0)"/><circle cx="191.4141414141414" cy="50.55165637371016" r="2" fill="rgb(0,255,0)"/><circle cx="196.46464646464648" cy="50.577635750801676" r="2" fill="rgb(0,255,0)"/><circle cx="201.51515151515153" cy="50.47034692530883" r="2" fill="rgb(0,255,0)"/><circle cx="206.56565656565658" cy="50.22436865907065" r="2" fill="rgb(0,255,0)"/><circle cx="211.61616161616163" cy="50.202493053979936" r="2" fill="rgb(0,255,0)"/><circle cx="216.66666666666666" cy="50.17635667965834" r="2" fill="rgb(0,255,0)"/><circle cx="221.7171717171717" cy="50.18547281466573" r="2" fill="rgb(0,255,0)"/><circle cx="226.76767676767676" cy="50.19337691897243" r="2" fill="rgb(0,255,0)"/><circle cx="231.8181818181818" cy="50.18547281466573" r="2" fill="rgb(0,255,0)"/><circle cx="236.86868686868686" cy="50.15443792153127" r="2" fill="rgb(0,255,0)"/><circle cx="241.91919191919192" cy="50.19550438925842" r="2" fill="rgb(0,255,0)"/><circle cx="246.96969696969697" cy="50.20037638401152" r="2" fill="rgb(0,255,0)"/><circle cx="252.02020202020202" cy="50.19550438925842" r="2" fill="rgb(0,255,0)"/><circle cx="257.07070707070704" cy="50.202493053979936" r="2" fill="rgb(0,255,0)"/><circle cx="262.1212121212121" cy="50.12860725166985" r="2" fill="rgb(0,255,0)"/><circle cx="267.1717171717172" cy="50.178484149944325" r="2" fill="rgb(0,255,0)"/><circle cx="272.2222222222222" cy="50.178484149944325" r="2" fill="rgb(0,255,0)"/><circle cx="277.27272727272725" cy="50.178484149944325" r="2" fill="rgb(0,255,0)"/><circle cx="282.32323232323233" cy="50.19550438925842" r="2" fill="rgb(0,255,0)"/><circle cx="287.3737373737374" cy="50.19550438925842" r="2" fill="rgb(0,255,0)"/><circle cx="292.42424242424244" cy="50.18547281466573" r="2" fill="rgb(0,255,0)"/><circle cx="297.47474747474746" cy="50.178484149944325" r="2" fill="rgb(0,255,0)"/><circle cx="302.52525252525254" cy="50.08221981958769" r="2" fill="rgb(0,255,0)"/><circle cx="307.57575757575756" cy="50.08221981958769" r="2" fill="rgb(0,255,0)"/><circle cx="312.62626262626264" cy="50.099355098514366" r="2" fill="rgb(0,255,0)"/><circle cx="317.67676767676767" cy="50.10621209464688" r="2" fill="rgb(0,255,0)"/><circle cx="322.7272727272727" cy="50.141382114365115" r="2" fill="rgb(0,255,0)"/><circle cx="327.77777777777777" cy="50.141382114365115" r="2" fill="rgb(0,255,0)"/><circle cx="332.8282828282828" cy="50.13439344964354" r="2" fill="rgb(0,255,0)"/><circle cx="337.8787878787879" cy="50.13439344964354" r="2" fill="rgb(0,255,0)"/><circle cx="342.92929292929296" cy="50.13439344964354" r="2" fill="rgb(0,255,0)"/><circle cx="347.979797979798" cy="50.05668171203939" r="2" fill="rgb(0,255,0)"/><circle cx="353.03030303030306" cy="50.094368064148796" r="2" fill="rgb(0,255,0)"/><circle cx="358.0808080808081" cy="50.08022188633379" r="2" fill="rgb(0,255,0)"/><circle cx="363.13131313131316" cy="50.094368064148796" r="2" fill="rgb(0,255,0)"/><circle cx="368.1818181818182" cy="50.122245205082436" r="2" fill="rgb(0,255,0)"/><circle cx="373.23232323232327" cy="50.11737321032945" r="2" fill="rgb(0,255,0)"/><circle cx="378.2828282828283" cy="50.07686426959316" r="2" fill="rgb(0,255,0)"/><circle cx="383.3333333333333" cy="50.103870862017516" r="2" fill="rgb(0,255,0)"/><circle cx="388.3838383838384" cy="50.12436187505091" r="2" fill="rgb(0,255,0)"/><circle cx="393.4343434343434" cy="50.07158659642732" r="2" fill="rgb(0,255,0)"/><circle cx="398.4848484848485" cy="50.08559871063869" r="2" fill="rgb(0,255,0)"/><circle cx="403.5353535353535" cy="50.11224808137621" r="2" fill="rgb(0,255,0)"/><circle cx="408.58585858585855" cy="50.0514987452716" r="2" fill="rgb(0,255,0)"/><circle cx="413.6363636363636" cy="50.02522334688666" r="2" fill="rgb(0,255,0)"/><circle cx="418.68686868686865" cy="50.03436346634493" r="2" fill="rgb(0,255,0)"/><circle cx="423.73737373737373" cy="50.02522334688666" r="2" fill="rgb(0,255,0)"/><circle cx="428.7878787878788" cy="50.13439344964354" r="2" fill="rgb(0,255,0)"/><circle cx="433.83838383838383" cy="50.11737321032945" r="2" fill="rgb(0,255,0)"/><circle cx="438.8888888888889" cy="50.11737321032945" r="2" fill="rgb(0,255,0)"/><circle cx="443.93939393939394" cy="50.102380270221886" r="2" fill="rgb(0,255,0)"/><circle cx="448.989898989899" cy="50.08808935295974" r="2" fill="rgb(0,255,0)"/><circle cx="454.04040404040404" cy="50.08808935295974" r="2" fill="rgb(0,255,0)"/><circle cx="459.0909090909091" cy="50.07857526114884" r="2" fill="rgb(0,255,0)"/><circle cx="464.14141414141415" cy="50.07158659642732" r="2" fill="rgb(0,255,0)"/><circle cx="469.19191919191917" cy="50.07158659642732" r="2" fill="rgb(0,255,0)"/><circle cx="474.24242424242425" cy="50.07158659642732" r="2" fill="rgb(0,255,0)"/><circle cx="479.2929292929293" cy="50.07857526114884" r="2" fill="rgb(0,255,0)"/><circle cx="484.34343434343435" cy="50.08808935295974" r="2" fill="rgb(0,255,0)"/><circle cx="489.3939393939394" cy="50.07645859118037" r="2" fill="rgb(0,255,0)"/><circle cx="494.4444444444444" cy="50.05587384212106" r="2" fill="rgb(0,255,0)"/><circle cx="499.4949494949495" cy="50.07857526114884" r="2" fill="rgb(0,255,0)"/><circle cx="504.5454545454545" cy="50.0" r="2" fill="rgb(0,255,0)"/><circle cx="509.59595959595964" cy="50.0" r="2" fill="rgb(0,255,0)"/><circle cx="514.6464646464647" cy="50.00258108071574" r="2" fill="rgb(0,255,0)"/><circle cx="519.6969696969697" cy="50.0165694011132" r="2" fill="rgb(0,255,0)"/><circle cx="524.7474747474748" cy="50.01590104624205" r="2" fill="rgb(0,255,0)"/><circle cx="529.7979797979798" cy="50.0165694011132" r="2" fill="rgb(0,255,0)"/><circle cx="534.8484848484849" cy="50.01590104624205" r="2" fill="rgb(0,255,0)"/><circle cx="539.8989898989898" cy="50.01590104624205" r="2" fill="rgb(0,255,0)"/><circle cx="544.9494949494949" cy="50.007464066423324" r="2" fill="rgb(0,255,0)"/><circle cx="550.0" cy="50.01378437627358" r="2" fill="rgb(0,255,0)"/><text x="350.0" y="20.0" text-anchor="middle" fill="rgb(0,0,0)" font-size="20.0">GA Demo</text><text x="350.0" y="575.0" text-anchor="middle" fill="rgb(0,0,0)" font-size="12.0">generation</text><text transform="rotate(-90.0 20.0 300.0)" x="20.0" y="300.0" text-anchor="middle" fill="rgb(0,0,0)" font-size="12.0">fitness</text><text x="620" y="62" fill="rgb(0,0,0)" font-size="12">min</text><text x="620" y="74" fill="rgb(0,0,255)" font-size="12">ave</text><text x="620" y="86" fill="rgb(0,255,0)" font-size="12">max</text>
      Sorry, your browser does not support inline SVG.
    </svg>