<?xml version='1.0' encoding='UTF-8'?>
<svg version="1.1" width="700.0" height="600.0" onload="init(evt)" xmlns="http://www.w3.org/2000/svg">
      <style>.caption {
  font-size: 14px;
  font-family: Georgia, serif;
}
</style>
      <script type="text/ecmascript"><![CDATA[
function init(evt) {
  if ( window.svgDocument == null ) {
    svgDocument = evt.target.ownerDocument;
  }
}

function RectHover(evt, i, c) {
  rect = svgDocument.getElementById('rect' + i);
  if( c != null ) {
    rect.setAttributeNS(null, "fill", c)  
  }
  tooltiptext = svgDocument.getElementById('tooltiptext' + i);
  tooltipbg = svgDocument.getElementById('tooltipbg' + i);
  if( tooltipbg != null) {
    tbb = tooltiptext.getBBox();
    tooltipbg.setAttributeNS(null, "width", tbb.width);
    tooltipbg.setAttributeNS(null, "height", tbb.height);
    tooltipbg.setAttributeNS(null, "x", tbb.x);
    tooltipbg.setAttributeNS(null, "y", tbb.y);
    tooltipbg.setAttributeNS(null, "visibility", "visible");
  }
  tooltiptext.setAttributeNS(null,"visibility","visible");
}

function RectUnhover(evt, i, c) {
  rect = svgDocument.getElementById('rect' + i);
  if( c != null ) {
    rect.setAttributeNS(null, "fill", c)  
  }
  tooltiptext = svgDocument.getElementById('tooltiptext' + i);
  tooltiptext.setAttributeNS(null,"visibility","hidden");
  tooltipbg = svgDocument.getElementById('tooltipbg' + i);
  if( tooltipbg != null ) {
    tooltipbg.setAttributeNS(null,"visibility","hidden");
  }
}
]]></script>
      <line x1="50.0" y1="550.0" x2="550.0" y2="550.0" stroke="rgb(0,0,0)" stroke-width="1"/><line x1="50.0" y1="550.0" x2="50.0" y2="50.0" stroke="rgb(0,0,0)" stroke-width="1"/><line x1="50.0" y1="550.0" x2="50.0" y2="50.0" stroke="rgb(192,192,192)" stroke-width="1"/><line x1="50.0" y1="548.0" x2="50.0" y2="552.0" stroke="rgb(192,192,192)" stroke-width="1"/><text text-anchor="middle" alignment-baseline="hanging" x="50.0" y="553.0" font-size="12.0">0</text><line x1="100.5050505050505" y1="550.0" x2="100.5050505050505" y2="50.0" stroke="rgb(192,192,192)" stroke-width="1"/><line x1="100.5050505050505" y1="548.0" x2="100.5050505050505" y2="552.0" stroke="rgb(192,192,192)" stroke-width="1"/><text text-anchor="middle" alignment-baseline="hanging" x="100.5050505050505" y="553.0" font-size="12.0">10</text><line x1="151.010101010101" y1="550.0" x2="151.010101010101" y2="50.0" stroke="rgb(192,192,192)" stroke-width="1"/><line x1="151.010101010101" y1="548.0" x2="151.010101010101" y2="552.0" stroke="rgb(192,192,192)" stroke-width="1"/><text text-anchor="middle" alignment-baseline="hanging" x="151.010101010101" y="553.0" font-size="12.0">20</text><line x1="201.51515151515153" y1="550.0" x2="201.51515151515153" y2="50.0" stroke="rgb(192,192,192)" stroke-width="1"/><line x1="201.51515151515153" y1="548.0" x2="201.51515151515153" y2="552.0" stroke="rgb(192,192,192)" stroke-width="1"/><text text-anchor="middle" alignment-baseline="hanging" x="201.51515151515153" y="553.0" font-size="12.0">30</text><line x1="252.02020202020202" y1="550.0" x2="252.02020202020202" y2="50.0" stroke="rgb(192,192,192)" stroke-width="1"/><line x1="252.02020202020202" y1="548.0" x2="252.02020202020202" y2="552.0" stroke="rgb(192,192,192)" stroke-width="1"/><text text-anchor="middle" alignment-baseline="hanging" x="252.02020202020202" y="553.0" font-size="12.0">40</text><line x1="302.52525252525254" y1="550.0" x2="302.52525252525254" y2="50.0" stroke="rgb(192,192,192)" stroke-width="1"/><line x1="302.52525252525254" y1="548.0" x2="302.52525252525254" y2="552.0" stroke="rgb(192,192,192)" stroke-width="1"/><text text-anchor="middle" alignment-baseline="hanging" x="302.52525252525254" y="553.0" font-size="12.0">50</text><line x1="353.03030303030306" y1="550.0" x2="353.03030303030306" y2="50.0" stroke="rgb(192,192,192)" stroke-width="1"/><line x1="353.03030303030306" y1="548.0" x2="353.03030303030306" y2="552.0" stroke="rgb(192,192,192)" stroke-width="1"/><text text-anchor="middle" alignment-baseline="hanging" x="353.03030303030306" y="553.0" font-size="12.0">60</text><line x1="403.5353535353535" y1="550.0" x2="403.5353535353535" y2="50.0" stroke="rgb(192,192,192)" stroke-width="1"/><line x1="403.5353535353535" y1="548.0" x2="403.5353535353535" y2="552.0" stroke="rgb(192,192,192)" stroke-width="1"/><text text-anchor="middle" alignment-baseline="hanging" x="403.5353535353535" y="553.0" font-size="12.0">70</text><line x1="454.04040404040404" y1="550.0" x2="454.04040404040404" y2="50.0" stroke="rgb(192,192,192)" stroke-width="1"/><line x1="454.04040404040404" y1="548.0" x2="454.04040404040404" y2="552.0" stroke="rgb(192,192,192)" stroke-width="1"/><text text-anchor="middle" alignment-baseline="hanging" x="454.04040404040404" y="553.0" font-size="12.0">80</text><line x1="504.5454545454545" y1="550.0" x2="504.5454545454545" y2="50.0" stroke="rgb(192,192,192)" stroke-width="1"/><line x1="504.5454545454545" y1="548.0" x2="504.5454545454545" y2="552.0" stroke="rgb(192,192,192)" stroke-width="1"/><text text-anchor="middle" alignment-baseline="hanging" x="504.5454545454545" y="553.0" font-size="12.0">90</text><line x1="50.0" y1="550.0" x2="550.0" y2="550.0" stroke="rgb(192,192,192)" stroke-width="1"/><text text-anchor="end" alignment-baseline="middle" x="45.0" y="550.0" font-size="12.0">0.0</text><line x1="48.0" y1="550.0" x2="52.0" y2="550.0" stroke="rgb(192,192,192)" stroke-width="1"/><line x1="50.0" y1="368.09542789480486" x2="550.0" y2="368.09542789480486" stroke="rgb(192,192,192)" stroke-width="1"/><text text-anchor="end" alignment-baseline="middle" x="45.0" y="368.09542789480486" font-size="12.0">1000.0</text><line x1="48.0" y1="368.09542789480486" x2="52.0" y2="368.09542789480486" stroke="rgb(192,192,192)" stroke-width="1"/><line x1="50.0" y1="186.19085578960966" x2="550.0" y2="186.19085578960966" stroke="rgb(192,192,192)" stroke-width="1"/><text text-anchor="end" alignment-baseline="middle" x="45.0" y="186.19085578960966" font-size="12.0">2000.0</text><line x1="48.0" y1="186.19085578960966" x2="52.0" y2="186.19085578960966" stroke="rgb(192,192,192)" stroke-width="1"/><polyline points="50.0,408.1973950454628 55.05050505050505,406.5586942689025 60.101010101010104,385.8806066931756 65.15151515151516,325.7556494483845 70.20202020202021,343.4562416479607 75.25252525252526,345.5515064238229 80.30303030303031,383.2964000703786 85.35353535353535,413.0261422489544 90.40404040404042,414.368791486619 95.45454545454545,369.8557195760204 100.5050505050505,369.6504338069316 105.55555555555554,372.6039915345563 110.60606060606061,402.3218033557333 115.65656565656566,385.7018721638152 120.7070707070707,384.5199150226324 125.75757575757576,385.14098919771277 130.80808080808083,385.3573151481853 135.85858585858585,385.93925647217657 140.9090909090909,385.60313803847134 145.95959595959596,385.97513391117434 151.010101010101,401.28091174206014 156.06060606060606,401.21014961602884 161.1111111111111,380.2413979043614 166.16161616161617,396.3225094005347 171.21212121212122,396.11456657134516 176.26262626262627,396.0152174703203 181.31313131313132,313.1099482220538 186.36363636363635,391.401654002719 191.4141414141414,232.07480068765267 196.46464646464648,325.2075417326193 201.51515151515153,214.61135041257387 206.56565656565658,366.60404282022307 211.61616161616163,332.0799192555054 216.66666666666666,160.91959288594887 221.7171717171717,344.37212268360133 226.76767676767676,344.64160764023336 231.8181818181818,274.9760221938548 236.86868686868686,397.7741838546011 241.91919191919192,397.5635574861259 246.96969696969697,272.65354034052956 252.02020202020202,256.531608413505 257.07070707070704,291.41611480686555 262.1212121212121,376.9127528651315 267.1717171717172,277.4581661029988 272.2222222222222,334.7247713692502 277.27272727272725,377.59029197423456 282.32323232323233,405.69565947892113 287.3737373737374,390.7191274394394 292.42424242424244,390.67182623855746 297.47474747474746,404.0067080566552 302.52525252525254,324.5242706524548 307.57575757575756,412.65077079251034 312.62626262626264,412.65077079251034 317.67676767676767,349.46991209954905 322.7272727272727,410.9906431931778 327.77777777777777,319.96110271763064 332.8282828282828,402.7394169397983 337.8787878787879,366.1805077704654 342.92929292929296,359.97703368754617 347.979797979798,360.1310651476911 353.03030303030306,360.06700609897746 358.0808080808081,360.08421791390634 363.13131313131316,360.016387685445 368.1818181818182,360.63148318866337 373.23232323232327,359.37902294228763 378.2828282828283,335.2949435750122 383.3333333333333,382.09400488144473 388.3838383838384,289.407762103739 393.4343434343434,289.4025678350281 398.4848484848485,235.13909508881238 403.5353535353535,123.73633255181977 408.58585858585855,66.47521461391597 413.6363636363636,386.84274531138635 418.68686868686865,387.17563233405497 423.73737373737373,387.1919963540821 428.7878787878788,386.95185318626943 433.83838383838383,405.2133399863345 438.8888888888889,404.959139543113 443.93939393939394,412.56876345321507 448.989898989899,372.72984344842814 454.04040404040404,373.6291500446674 459.0909090909091,362.3296606818949 464.14141414141415,404.82649251101844 469.19191919191917,404.82649251101844 474.24242424242425,405.44030342738716 479.2929292929293,336.12344084938616 484.34343434343435,341.2670076706985 489.3939393939394,407.52593966008703 494.4444444444444,401.35668757184396 499.4949494949495,401.81685864754115 504.5454545454545,402.6845337173721 509.59595959595964,388.34095045775723 514.6464646464647,387.8968957533301 519.6969696969697,389.028671517104 524.7474747474748,389.4200221607427 529.7979797979798,388.8792401159613 534.8484848484849,388.8792401159613 539.8989898989898,271.9811563458814 544.9494949494949,366.8384492126032 550.0,298.01887660814566" fill="none" stroke="rgb(0,0,0)" stroke-width="1"/><circle cx="50.0" cy="408.1973950454628" r="2" fill="rgb(0,0,0)"/><circle cx="55.05050505050505" cy="406.5586942689025" r="2" fill="rgb(0,0,0)"/><circle cx="60.101010101010104" cy="385.8806066931756" r="2" fill="rgb(0,0,0)"/><circle cx="65.15151515151516" cy="325.7556494483845" r="2" fill="rgb(0,0,0)"/><circle cx="70.20202020202021" cy="343.4562416479607" r="2" fill="rgb(0,0,0)"/><circle cx="75.25252525252526" cy="345.5515064238229" r="2" fill="rgb(0,0,0)"/><circle cx="80.30303030303031" cy="383.2964000703786" r="2" fill="rgb(0,0,0)"/><circle cx="85.35353535353535" cy="413.0261422489544" r="2" fill="rgb(0,0,0)"/><circle cx="90.40404040404042" cy="414.368791486619" r="2" fill="rgb(0,0,0)"/><circle cx="95.45454545454545" cy="369.8557195760204" r="2" fill="rgb(0,0,0)"/><circle cx="100.5050505050505" cy="369.6504338069316" r="2" fill="rgb(0,0,0)"/><circle cx="105.55555555555554" cy="372.6039915345563" r="2" fill="rgb(0,0,0)"/><circle cx="110.60606060606061" cy="402.3218033557333" r="2" fill="rgb(0,0,0)"/><circle cx="115.65656565656566" cy="385.7018721638152" r="2" fill="rgb(0,0,0)"/><circle cx="120.7070707070707" cy="384.5199150226324" r="2" fill="rgb(0,0,0)"/><circle cx="125.75757575757576" cy="385.14098919771277" r="2" fill="rgb(0,0,0)"/><circle cx="130.80808080808083" cy="385.3573151481853" r="2" fill="rgb(0,0,0)"/><circle cx="135.85858585858585" cy="385.93925647217657" r="2" fill="rgb(0,0,0)"/><circle cx="140.9090909090909" cy="385.60313803847134" r="2" fill="rgb(0,0,0)"/><circle cx="145.95959595959596" cy="385.97513391117434" r="2" fill="rgb(0,0,0)"/><circle cx="151.010101010101" cy="401.28091174206014" r="2" fill="rgb(0,0,0)"/><circle cx="156.06060606060606" cy="401.21014961602884" r="2" fill="rgb(0,0,0)"/><circle cx="161.1111111111111" cy="380.2413979043614" r="2" fill="rgb(0,0,0)"/><circle cx="166.16161616161617" cy="396.3225094005347" r="2" fill="rgb(0,0,0)"/><circle cx="171.21212121212122" cy="396.11456657134516" r="2" fill="rgb(0,0,0)"/><circle cx="176.26262626262627" cy="396.0152174703203" r="2" fill="rgb(0,0,0)"/><circle cx="181.31313131313132" cy="313.1099482220538" r="2" fill="rgb(0,0,0)"/><circle cx="186.36363636363635" cy="391.401654002719" r="2" fill="rgb(0,0,0)"/><circle cx="191.4141414141414" cy="232.07480068765267" r="2" fill="rgb(0,0,0)"/><circle cx="196.46464646464648" cy="325.2075417326193" r="2" fill="rgb(0,0,0)"/><circle cx="201.51515151515153" cy="214.61135041257387" r="2" fill="rgb(0,0,0)"/><circle cx="206.56565656565658" cy="366.60404282022307" r="2" fill="rgb(0,0,0)"/><circle cx="211.61616161616163" cy="332.0799192555054" r="2" fill="rgb(0,0,0)"/><circle cx="216.66666666666666" cy="160.91959288594887" r="2" fill="rgb(0,0,0)"/><circle cx="221.7171717171717" cy="344.37212268360133" r="2" fill="rgb(0,0,0)"/><circle cx="226.76767676767676" cy="344.64160764023336" r="2" fill="rgb(0,0,0)"/><circle cx="231.8181818181818" cy="274.9760221938548" r="2" fill="rgb(0,0,0)"/><circle cx="236.86868686868686" cy="397.7741838546011" r="2" fill="rgb(0,0,0)"/><circle cx="241.91919191919192" cy="397.5635574861259" r="2" fill="rgb(0,0,0)"/><circle cx="246.96969696969697" cy="272.65354034052956" r="2" fill="rgb(0,0,0)"/><circle cx="252.02020202020202" cy="256.531608413505" r="2" fill="rgb(0,0,0)"/><circle cx="257.07070707070704" cy="291.41611480686555" r="2" fill="rgb(0,0,0)"/><circle cx="262.1212121212121" cy="376.9127528651315" r="2" fill="rgb(0,0,0)"/><circle cx="267.1717171717172" cy="277.4581661029988" r="2" fill="rgb(0,0,0)"/><circle cx="272.2222222222222" cy="334.7247713692502" r="2" fill="rgb(0,0,0)"/><circle cx="277.27272727272725" cy="377.59029197423456" r="2" fill="rgb(0,0,0)"/><circle cx="282.32323232323233" cy="405.69565947892113" r="2" fill="rgb(0,0,0)"/><circle cx="287.3737373737374" cy="390.7191274394394" r="2" fill="rgb(0,0,0)"/><circle cx="292.42424242424244" cy="390.67182623855746" r="2" fill="rgb(0,0,0)"/><circle cx="297.47474747474746" cy="404.0067080566552" r="2" fill="rgb(0,0,0)"/><circle cx="302.52525252525254" cy="324.5242706524548" r="2" fill="rgb(0,0,0)"/><circle cx="307.57575757575756" cy="412.65077079251034" r="2" fill="rgb(0,0,0)"/><circle cx="312.62626262626264" cy="412.65077079251034" r="2" fill="rgb(0,0,0)"/><circle cx="317.67676767676767" cy="349.46991209954905" r="2" fill="rgb(0,0,0)"/><circle cx="322.7272727272727" cy="410.9906431931778" r="2" fill="rgb(0,0,0)"/><circle cx="327.77777777777777" cy="319.96110271763064" r="2" fill="rgb(0,0,0)"/><circle cx="332.8282828282828" cy="402.7394169397983" r="2" fill="rgb(0,0,0)"/><circle cx="337.8787878787879" cy="366.1805077704654" r="2" fill="rgb(0,0,0)"/><circle cx="342.92929292929296" cy="359.97703368754617" r="2" fill="rgb(0,0,0)"/><circle cx="347.979797979798" cy="360.1310651476911" r="2" fill="rgb(0,0,0)"/><circle cx="353.03030303030306" cy="360.06700609897746" r="2" fill="rgb(0,0,0)"/><circle cx="358.0808080808081" cy="360.08421791390634" r="2" fill="rgb(0,0,0)"/><circle cx="363.13131313131316" cy="360.016387685445" r="2" fill="rgb(0,0,0)"/><circle cx="368.1818181818182" cy="360.63148318866337" r="2" fill="rgb(0,0,0)"/><circle cx="373.23232323232327" cy="359.37902294228763" r="2" fill="rgb(0,0,0)"/><circle cx="378.2828282828283" cy="335.2949435750122" r="2" fill="rgb(0,0,0)"/><circle cx="383.3333333333333" cy="382.09400488144473" r="2" fill="rgb(0,0,0)"/><circle cx="388.3838383838384" cy="289.407762103739" r="2" fill="rgb(0,0,0)"/><circle cx="393.4343434343434" cy="289.4025678350281" r="2" fill="rgb(0,0,0)"/><circle cx="398.4848484848485" cy="235.13909508881238" r="2" fill="rgb(0,0,0)"/><circle cx="403.5353535353535" cy="123.73633255181977" r="2" fill="rgb(0,0,0)"/><circle cx="408.58585858585855" cy="66.47521461391597" r="2" fill="rgb(0,0,0)"/><circle cx="413.6363636363636" cy="386.84274531138635" r="2" fill="rgb(0,0,0)"/><circle cx="418.68686868686865" cy="387.17563233405497" r="2" fill="rgb(0,0,0)"/><circle cx="423.73737373737373" cy="387.1919963540821" r="2" fill="rgb(0,0,0)"/><circle cx="428.7878787878788" cy="386.95185318626943" r="2" fill="rgb(0,0,0)"/><circle cx="433.83838383838383" cy="405.2133399863345" r="2" fill="rgb(0,0,0)"/><circle cx="438.8888888888889" cy="404.959139543113" r="2" fill="rgb(0,0,0)"/><circle cx="443.93939393939394" cy="412.56876345321507" r="2" fill="rgb(0,0,0)"/><circle cx="448.989898989899" cy="372.72984344842814" r="2" fill="rgb(0,0,0)"/><circle cx="454.04040404040404" cy="373.6291500446674" r="2" fill="rgb(0,0,0)"/><circle cx="459.0909090909091" cy="362.3296606818949" r="2" fill="rgb(0,0,0)"/><circle cx="464.14141414141415" cy="404.82649251101844" r="2" fill="rgb(0,0,0)"/><circle cx="469.19191919191917" cy="404.82649251101844" r="2" fill="rgb(0,0,0)"/><circle cx="474.24242424242425" cy="405.44030342738716" r="2" fill="rgb(0,0,0)"/><circle cx="479.2929292929293" cy="336.12344084938616" r="2" fill="rgb(0,0,0)"/><circle cx="484.34343434343435" cy="341.2670076706985" r="2" fill="rgb(0,0,0)"/><circle cx="489.3939393939394" cy="407.52593966008703" r="2" fill="rgb(0,0,0)"/><circle cx="494.4444444444444" cy="401.35668757184396" r="2" fill="rgb(0,0,0)"/><circle cx="499.4949494949495" cy="401.81685864754115" r="2" fill="rgb(0,0,0)"/><circle cx="504.5454545454545" cy="402.6845337173721" r="2" fill="rgb(0,0,0)"/><circle cx="509.59595959595964" cy="388.34095045775723" r="2" fill="rgb(0,0,0)"/><circle cx="514.6464646464647" cy="387.8968957533301" r="2" fill="rgb(0,0,0)"/><circle cx="519.6969696969697" cy="389.028671517104" r="2" fill="rgb(0,0,0)"/><circle cx="524.7474747474748" cy="389.4200221607427" r="2" fill="rgb(0,0,0)"/><circle cx="529.7979797979798" cy="388.8792401159613" r="2" fill="rgb(0,0,0)"/><circle cx="534.8484848484849" cy="388.8792401159613" r="2" fill="rgb(0,0,0)"/><circle cx="539.8989898989898" cy="271.9811563458814" r="2" fill="rgb(0,0,0)"/><circle cx="544.9494949494949" cy="366.8384492126032" r="2" fill="rgb(0,0,0)"/><circle cx="550.0" cy="298.01887660814566" r="2" fill="rgb(0,0,0)"/><polyline points="50.0,207.56154701957047 55.05050505050505,186.35718676273996 60.101010101010104,154.82602529166428 65.15151515151516,143.27655816951648 70.20202020202021,118.29176972440422 75.25252525252526,106.42845367709629 80.30303030303031,101.98660057208735 85.35353535353535,96.62394748986378 90.40404040404042,88.03989804953284 95.45454545454545,82.79025761330507 100.5050505050505,76.6940832060506 105.55555555555554,78.46999677189274 110.60606060606061,78.49138896730312 115.65656565656566,74.51891828465347 120.7070707070707,78.96581674348573 125.75757575757576,80.77562283250717 130.80808080808083,74.75817842954478 135.85858585858585,84.24358143685527 140.9090909090909,79.60586719592197 145.95959595959596,78.27993678667195 151.010101010101,77.58829275525369 156.06060606060606,69.63305594744611 161.1111111111111,64.20410990286041 166.16161616161617,64.3368778746999 171.21212121212122,63.94216386477302 176.26262626262627,65.22165068615914 181.31313131313132,59.61029148402508 186.36363636363635,60.33070338422175 191.4141414141414,55.87288085140523 196.46464646464648,59.81798226138517 201.51515151515153,56.69567817562336 206.56565656565658,59.45463360712398 211.61616161616163,61.52180161442806 216.66666666666666,54.69247595133686 221.7171717171717,56.91405636332149 226.76767676767676,56.86549140158405 231.8181818181818,55.97699163109809 236.86868686868686,67.44632513311223 241.91919191919192,65.30188650828427 246.96969696969697,64.75176823129112 252.02020202020202,64.30642855421002 257.07070707070704,59.840819300263206 262.1212121212121,60.80833320152999 267.1717171717172,63.06283685961756 272.2222222222222,70.5529216443411 277.27272727272725,64.61369545489845 282.32323232323233,81.33388102254077 287.3737373737374,72.99750632806814 292.42424242424244,63.902473820987154 297.47474747474746,65.11117597576725 302.52525252525254,63.925044184458045 307.57575757575756,67.87575013214763 312.62626262626264,76.69354157462664 317.67676767676767,66.62985877147611 322.7272727272727,66.13318186372044 327.77777777777777,67.65000220336668 332.8282828282828,68.18677773654554 337.8787878787879,64.77432777324788 342.92929292929296,58.75373959004003 347.979797979798,58.235784428765044 353.03030303030306,56.00185660042581 358.0808080808081,70.50988178886348 363.13131313131316,74.00193933890529 368.1818181818182,64.11669240536219 373.23232323232327,67.33377433868901 378.2828282828283,62.637058898912585 383.3333333333333,66.21274184762683 388.3838383838384,63.33875400820938 393.4343434343434,60.31294748341759 398.4848484848485,53.06894262351665 403.5353535353535,52.553527287768134 408.58585858585855,50.96708033260853 413.6363636363636,57.49907456425751 418.68686868686865,68.08450968363337 423.73737373737373,70.58876996601265 428.7878787878788,70.67691146786245 433.83838383838383,76.35353714430596 438.8888888888889,77.64206706835648 443.93939393939394,77.66973388833742 448.989898989899,68.55910990020175 454.04040404040404,60.31856792090804 459.0909090909091,56.19849780165936 464.14141414141415,56.64239617775837 469.19191919191917,59.6732206455934 474.24242424242425,67.54301165913563 479.2929292929293,61.00202380737403 484.34343434343435,68.25427807106888 489.3939393939394,70.99120910528484 494.4444444444444,71.25537195598594 499.4949494949495,69.70709476425759 504.5454545454545,69.60042800835214 509.59595959595964,72.67228217071232 514.6464646464647,69.81763540445206 519.6969696969697,74.93640091592732 524.7474747474748,69.5374924292496 529.7979797979798,62.475937362304194 534.8484848484849,66.01072493155766 539.8989898989898,55.7528087250991 544.9494949494949,60.42827132936736 550.0,60.17649292772279" fill="none" stroke="rgb(0,0,255)" stroke-width="1"/><circle cx="50.0" cy="207.56154701957047" r="2" fill="rgb(0,0,255)"/><circle cx="55.05050505050505" cy="186.35718676273996" r="2" fill="rgb(0,0,255)"/><circle cx="60.101010101010104" cy="154.82602529166428" r="2" fill="rgb(0,0,255)"/><circle cx="65.15151515151516" cy="143.27655816951648" r="2" fill="rgb(0,0,255)"/><circle cx="70.20202020202021" cy="118.29176972440422" r="2" fill="rgb(0,0,255)"/><circle cx="75.25252525252526" cy="106.42845367709629" r="2" fill="rgb(0,0,255)"/><circle cx="80.30303030303031" cy="101.98660057208735" r="2" fill="rgb(0,0,255)"/><circle cx="85.35353535353535" cy="96.62394748986378" r="2" fill="rgb(0,0,255)"/><circle cx="90.40404040404042" cy="88.03989804953284" r="2" fill="rgb(0,0,255)"/><circle cx="95.45454545454545" cy="82.79025761330507" r="2" fill="rgb(0,0,255)"/><circle cx="100.5050505050505" cy="76.6940832060506" r="2" fill="rgb(0,0,255)"/><circle cx="105.55555555555554" cy="78.46999677189274" r="2" fill="rgb(0,0,255)"/><circle cx="110.60606060606061" cy="78.49138896730312" r="2" fill="rgb(0,0,255)"/><circle cx="115.65656565656566" cy="74.51891828465347" r="2" fill="rgb(0,0,255)"/><circle cx="120.7070707070707" cy="78.96581674348573" r="2" fill="rgb(0,0,255)"/><circle cx="125.75757575757576" cy="80.77562283250717" r="2" fill="rgb(0,0,255)"/><circle cx="130.80808080808083" cy="74.75817842954478" r="2" fill="rgb(0,0,255)"/><circle cx="135.85858585858585" cy="84.24358143685527" r="2" fill="rgb(0,0,255)"/><circle cx="140.9090909090909" cy="79.60586719592197" r="2" fill="rgb(0,0,255)"/><circle cx="145.95959595959596" cy="78.27993678667195" r="2" fill="rgb(0,0,255)"/><circle cx="151.010101010101" cy="77.58829275525369" r="2" fill="rgb(0,0,255)"/><circle cx="156.06060606060606" cy="69.63305594744611" r="2" fill="rgb(0,0,255)"/><circle cx="161.1111111111111" cy="64.20410990286041" r="2" fill="rgb(0,0,255)"/><circle cx="166.16161616161617" cy="64.3368778746999" r="2" fill="rgb(0,0,255)"/><circle cx="171.21212121212122" cy="63.94216386477302" r="2" fill="rgb(0,0,255)"/><circle cx="176.26262626262627" cy="65.22165068615914" r="2" fill="rgb(0,0,255)"/><circle cx="181.31313131313132" cy="59.61029148402508" r="2" fill="rgb(0,0,255)"/><circle cx="186.36363636363635" cy="60.33070338422175" r="2" fill="rgb(0,0,255)"/><circle cx="191.4141414141414" cy="55.87288085140523" r="2" fill="rgb(0,0,255)"/><circle cx="196.46464646464648" cy="59.81798226138517" r="2" fill="rgb(0,0,255)"/><circle cx="201.51515151515153" cy="56.69567817562336" r="2" fill="rgb(0,0,255)"/><circle cx="206.56565656565658" cy="59.45463360712398" r="2" fill="rgb(0,0,255)"/><circle cx="211.61616161616163" cy="61.52180161442806" r="2" fill="rgb(0,0,255)"/><circle cx="216.66666666666666" cy="54.69247595133686" r="2" fill="rgb(0,0,255)"/><circle cx="221.7171717171717" cy="56.91405636332149" r="2" fill="rgb(0,0,255)"/><circle cx="226.76767676767676" cy="56.86549140158405" r="2" fill="rgb(0,0,255)"/><circle cx="231.8181818181818" cy="55.97699163109809" r="2" fill="rgb(0,0,255)"/><circle cx="236.86868686868686" cy="67.44632513311223" r="2" fill="rgb(0,0,255)"/><circle cx="241.91919191919192" cy="65.30188650828427" r="2" fill="rgb(0,0,255)"/><circle cx="246.96969696969697" cy="64.75176823129112" r="2" fill="rgb(0,0,255)"/><circle cx="252.02020202020202" cy="64.30642855421002" r="2" fill="rgb(0,0,255)"/><circle cx="257.07070707070704" cy="59.840819300263206" r="2" fill="rgb(0,0,255)"/><circle cx="262.1212121212121" cy="60.80833320152999" r="2" fill="rgb(0,0,255)"/><circle cx="267.1717171717172" cy="63.06283685961756" r="2" fill="rgb(0,0,255)"/><circle cx="272.2222222222222" cy="70.5529216443411" r="2" fill="rgb(0,0,255)"/><circle cx="277.27272727272725" cy="64.61369545489845" r="2" fill="rgb(0,0,255)"/><circle cx="282.32323232323233" cy="81.33388102254077" r="2" fill="rgb(0,0,255)"/><circle cx="287.3737373737374" cy="72.99750632806814" r="2" fill="rgb(0,0,255)"/><circle cx="292.42424242424244" cy="63.902473820987154" r="2" fill="rgb(0,0,255)"/><circle cx="297.47474747474746" cy="65.11117597576725" r="2" fill="rgb(0,0,255)"/><circle cx="302.52525252525254" cy="63.925044184458045" r="2" fill="rgb(0,0,255)"/><circle cx="307.57575757575756" cy="67.87575013214763" r="2" fill="rgb(0,0,255)"/><circle cx="312.62626262626264" cy="76.69354157462664" r="2" fill="rgb(0,0,255)"/><circle cx="317.67676767676767" cy="66.62985877147611" r="2" fill="rgb(0,0,255)"/><circle cx="322.7272727272727" cy="66.13318186372044" r="2" fill="rgb(0,0,255)"/><circle cx="327.77777777777777" cy="67.65000220336668" r="2" fill="rgb(0,0,255)"/><circle cx="332.8282828282828" cy="68.18677773654554" r="2" fill="rgb(0,0,255)"/><circle cx="337.8787878787879" cy="64.77432777324788" r="2" fill="rgb(0,0,255)"/><circle cx="342.92929292929296" cy="58.75373959004003" r="2" fill="rgb(0,0,255)"/><circle cx="347.979797979798" cy="58.235784428765044" r="2" fill="rgb(0,0,255)"/><circle cx="353.03030303030306" cy="56.00185660042581" r="2" fill="rgb(0,0,255)"/><circle cx="358.0808080808081" cy="70.50988178886348" r="2" fill="rgb(0,0,255)"/><circle cx="363.13131313131316" cy="74.00193933890529" r="2" fill="rgb(0,0,255)"/><circle cx="368.1818181818182" cy="64.11669240536219" r="2" fill="rgb(0,0,255)"/><circle cx="373.23232323232327" cy="67.33377433868901" r="2" fill="rgb(0,0,255)"/><circle cx="378.2828282828283" cy="62.637058898912585" r="2" fill="rgb(0,0,255)"/><circle cx="383.3333333333333" cy="66.21274184762683" r="2" fill="rgb(0,0,255)"/><circle cx="388.3838383838384" cy="63.33875400820938" r="2" fill="rgb(0,0,255)"/><circle cx="393.4343434343434" cy="60.31294748341759" r="2" fill="rgb(0,0,255)"/><circle cx="398.4848484848485" cy="53.06894262351665" r="2" fill="rgb(0,0,255)"/><circle cx="403.5353535353535" cy="52.553527287768134" r="2" fill="rgb(0,0,255)"/><circle cx="408.58585858585855" cy="50.96708033260853" r="2" fill="rgb(0,0,255)"/><circle cx="413.6363636363636" cy="57.49907456425751" r="2" fill="rgb(0,0,255)"/><circle cx="418.68686868686865" cy="68.08450968363337" r="2" fill="rgb(0,0,255)"/><circle cx="423.73737373737373" cy="70.58876996601265" r="2" fill="rgb(0,0,255)"/><circle cx="428.7878787878788" cy="70.67691146786245" r="2" fill="rgb(0,0,255)"/><circle cx="433.83838383838383" cy="76.35353714430596" r="2" fill="rgb(0,0,255)"/><circle cx="438.8888888888889" cy="77.64206706835648" r="2" fill="rgb(0,0,255)"/><circle cx="443.93939393939394" cy="77.66973388833742" r="2" fill="rgb(0,0,255)"/><circle cx="448.989898989899" cy="68.55910990020175" r="2" fill="rgb(0,0,255)"/><circle cx="454.04040404040404" cy="60.31856792090804" r="2" fill="rgb(0,0,255)"/><circle cx="459.0909090909091" cy="56.19849780165936" r="2" fill="rgb(0,0,255)"/><circle cx="464.14141414141415" cy="56.64239617775837" r="2" fill="rgb(0,0,255)"/><circle cx="469.19191919191917" cy="59.6732206455934" r="2" fill="rgb(0,0,255)"/><circle cx="474.24242424242425" cy="67.54301165913563" r="2" fill="rgb(0,0,255)"/><circle cx="479.2929292929293" cy="61.00202380737403" r="2" fill="rgb(0,0,255)"/><circle cx="484.34343434343435" cy="68.25427807106888" r="2" fill="rgb(0,0,255)"/><circle cx="489.3939393939394" cy="70.99120910528484" r="2" fill="rgb(0,0,255)"/><circle cx="494.4444444444444" cy="71.25537195598594" r="2" fill="rgb(0,0,255)"/><circle cx="499.4949494949495" cy="69.70709476425759" r="2" fill="rgb(0,0,255)"/><circle cx="504.5454545454545" cy="69.60042800835214" r="2" fill="rgb(0,0,255)"/><circle cx="509.59595959595964" cy="72.67228217071232" r="2" fill="rgb(0,0,255)"/><circle cx="514.6464646464647" cy="69.81763540445206" r="2" fill="rgb(0,0,255)"/><circle cx="519.6969696969697" cy="74.93640091592732" r="2" fill="rgb(0,0,255)"/><circle cx="524.7474747474748" cy="69.5374924292496" r="2" fill="rgb(0,0,255)"/><circle cx="529.7979797979798" cy="62.475937362304194" r="2" fill="rgb(0,0,255)"/><circle cx="534.8484848484849" cy="66.01072493155766" r="2" fill="rgb(0,0,255)"/><circle cx="539.8989898989898" cy="55.7528087250991" r="2" fill="rgb(0,0,255)"/><circle cx="544.9494949494949" cy="60.42827132936736" r="2" fill="rgb(0,0,255)"/><circle cx="550.0" cy="60.17649292772279" r="2" fill="rgb(0,0,255)"/><polyline points="50.0,55.3785132895141 55.05050505050505,55.93086133723 60.101010101010104,53.581286286890816 65.15151515151516,53.15932567919771 70.20202020202021,51.85182023964359 75.25252525252526,53.817760785596874 80.30303030303031,52.80788804173625 85.35353535353535,52.39447508663312 90.40404040404042,51.953560812336775 95.45454545454545,51.7694174449457 100.5050505050505,52.046716885809474 105.55555555555554,52.618110395472854 110.60606060606061,52.10540598768188 115.65656565656566,51.186030883381875 120.7070707070707,51.90271601704728 125.75757575757576,51.92316874362842 130.80808080808083,51.62102038242972 135.85858585858585,51.49221958570314 140.9090909090909,50.983421384565304 145.95959595959596,51.118126284784694 151.010101010101,50.91642527878474 156.06060606060606,50.775136397350536 161.1111111111111,50.47228697155475 166.16161616161617,50.665699430600455 171.21212121212122,50.672198119077905 176.26262626262627,50.521874591816754 181.31313131313132,50.68694119678224 186.36363636363635,50.51222627108865 191.4141414141414,50.49125060844136 196.46464646464648,50.486378798064436 201.51515151515153,50.47228697155475 206.56565656565658,50.47228697155475 211.61616161616163,50.542977271910274 216.66666666666666,50.58618408034073 221.7171717171717,50.41205765975059 226.76767676767676,50.35991461539044 231.8181818181818,50.22780485069961 236.86868686868686,50.1917402016943 241.91919191919192,50.22780485069961 246.96969696969697,50.377630535044716 252.02020202020202,50.37581393411159 257.07070707070704,50.24622976301839 262.1212121212121,50.33981032033995 267.1717171717172,50.3213910872999 272.2222222222222,50.30700313019713 277.27272727272725,50.14837950209653 282.32323232323233,50.30700313019713 287.3737373737374,50.35352162186484 292.42424242424244,50.20610787943201 297.47474747474746,50.30745873536512 302.52525252525254,50.20107164738545 307.57575757575756,50.27037862684739 312.62626262626264,50.253166811918504 317.67676767676767,50.258361080629356 322.7272727272727,50.258361080629356 327.77777777777777,50.24114926570053 332.8282828282828,50.19463077403282 337.8787878787879,50.05838944076413 342.92929292929296,50.05838944076413 347.979797979798,50.01187094909636 353.03030303030306,50.18277934314648 358.0808080808081,50.13413729357876 363.13131313131316,50.22321903290157 368.1818181818182,50.258361080629356 373.23232323232327,50.211842588961645 378.2828282828283,50.23391958997678 383.3333333333333,50.258361080629356 388.3838383838384,50.30700313019713 393.4343434343434,50.30700313019713 398.4848484848485,50.32421494512596 403.5353535353535,50.30700313019713 408.58585858585855,50.30700313019713 413.6363636363636,50.30700313019713 418.68686868686865,50.30700313019713 423.73737373737373,50.155541287677124 428.7878787878788,50.30700313019713 433.83838383838383,50.32421494512596 438.8888888888889,50.32421494512596 443.93939393939394,50.16823452959284 448.989898989899,50.18544634452172 454.04040404040404,50.18544634452172 459.0909090909091,50.18544634452172 464.14141414141415,50.18544634452172 469.19191919191917,50.20409022072215 474.24242424242425,50.20409022072215 479.2929292929293,50.20409022072215 484.34343434343435,50.25866963053426 489.3939393939394,50.12645004432045 494.4444444444444,50.10923822939162 499.4949494949495,50.12645004432045 504.5454545454545,50.17478354398327 509.59595959595964,50.12645004432045 514.6464646464647,50.081465279580414 519.6969696969697,50.12476346777004 524.7474747474748,50.15788538637736 529.7979797979798,50.08636325908253 534.8484848484849,50.0 539.8989898989898,50.0 544.9494949494949,50.017211814928885 550.0,50.017211814928885" fill="none" stroke="rgb(0,255,0)" stroke-width="1"/><circle cx="50.0" cy="55.3785132895141" r="2" fill="rgb(0,255,0)"/><circle cx="55.05050505050505" cy="55.93086133723" r="2" fill="rgb(0,255,0)"/><circle cx="60.101010101010104" cy="53.581286286890816" r="2" fill="rgb(0,255,0)"/><circle cx="65.15151515151516" cy="53.15932567919771" r="2" fill="rgb(0,255,0)"/><circle cx="70.20202020202021" cy="51.85182023964359" r="2" fill="rgb(0,255,0)"/><circle cx="75.25252525252526" cy="53.817760785596874" r="2" fill="rgb(0,255,0)"/><circle cx="80.30303030303031" cy="52.80788804173625" r="2" fill="rgb(0,255,0)"/><circle cx="85.35353535353535" cy="52.39447508663312" r="2" fill="rgb(0,255,0)"/><circle cx="90.40404040404042" cy="51.953560812336775" r="2" fill="rgb(0,255,0)"/><circle cx="95.45454545454545" cy="51.7694174449457" r="2" fill="rgb(0,255,0)"/><circle cx="100.5050505050505" cy="52.046716885809474" r="2" fill="rgb(0,255,0)"/><circle cx="105.55555555555554" cy="52.618110395472854" r="2" fill="rgb(0,255,0)"/><circle cx="110.60606060606061" cy="52.10540598768188" r="2" fill="rgb(0,255,0)"/><circle cx="115.65656565656566" cy="51.186030883381875" r="2" fill="rgb(0,255,0)"/><circle cx="120.7070707070707" cy="51.90271601704728" r="2" fill="rgb(0,255,0)"/><circle cx="125.75757575757576" cy="51.92316874362842" r="2" fill="rgb(0,255,0)"/><circle cx="130.80808080808083" cy="51.62102038242972" r="2" fill="rgb(0,255,0)"/><circle cx="135.85858585858585" cy="51.49221958570314" r="2" fill="rgb(0,255,0)"/><circle cx="140.9090909090909" cy="50.983421384565304" r="2" fill="rgb(0,255,0)"/><circle cx="145.95959595959596" cy="51.118126284784694" r="2" fill="rgb(0,255,0)"/><circle cx="151.010101010101" cy="50.91642527878474" r="2" fill="rgb(0,255,0)"/><circle cx="156.06060606060606" cy="50.775136397350536" r="2" fill="rgb(0,255,0)"/><circle cx="161.1111111111111" cy="50.47228697155475" r="2" fill="rgb(0,255,0)"/><circle cx="166.16161616161617" cy="50.665699430600455" r="2" fill="rgb(0,255,0)"/><circle cx="171.21212121212122" cy="50.672198119077905" r="2" fill="rgb(0,255,0)"/><circle cx="176.26262626262627" cy="50.521874591816754" r="2" fill="rgb(0,255,0)"/><circle cx="181.31313131313132" cy="50.68694119678224" r="2" fill="rgb(0,255,0)"/><circle cx="186.36363636363635" cy="50.51222627108865" r="2" fill="rgb(0,255,0)"/><circle cx="191.4141414141414" cy="50.49125060844136" r="2" fill="rgb(0,255,0)"/><circle cx="196.46464646464648" cy="50.486378798064436" r="2" fill="rgb(0,255,0)"/><circle cx="201.51515151515153" cy="50.47228697155475" r="2" fill="rgb(0,255,0)"/><circle cx="206.56565656565658" cy="50.47228697155475" r="2" fill="rgb(0,255,0)"/><circle cx="211.61616161616163" cy="50.542977271910274" r="2" fill="rgb(0,255,0)"/><circle cx="216.66666666666666" cy="50.58618408034073" r="2" fill="rgb(0,255,0)"/><circle cx="221.7171717171717" cy="50.41205765975059" r="2" fill="rgb(0,255,0)"/><circle cx="226.76767676767676" cy="50.35991461539044" r="2" fill="rgb(0,255,0)"/><circle cx="231.8181818181818" cy="50.22780485069961" r="2" fill="rgb(0,255,0)"/><circle cx="236.86868686868686" cy="50.1917402016943" r="2" fill="rgb(0,255,0)"/><circle cx="241.91919191919192" cy="50.22780485069961" r="2" fill="rgb(0,255,0)"/><circle cx="246.96969696969697" cy="50.377630535044716" r="2" fill="rgb(0,255,0)"/><circle cx="252.02020202020202" cy="50.37581393411159" r="2" fill="rgb(0,255,0)"/><circle cx="257.07070707070704" cy="50.24622976301839" r="2" fill="rgb(0,255,0)"/><circle cx="262.1212121212121" cy="50.33981032033995" r="2" fill="rgb(0,255,0)"/><circle cx="267.1717171717172" cy="50.3213910872999" r="2" fill="rgb(0,255,0)"/><circle cx="272.2222222222222" cy="50.30700313019713" r="2" fill="rgb(0,255,0)"/><circle cx="277.27272727272725" cy="50.14837950209653" r="2" fill="rgb(0,255,0)"/><circle cx="282.32323232323233" cy="50.30700313019713" r="2" fill="rgb(0,255,0)"/><circle cx="287.3737373737374" cy="50.35352162186484" r="2" fill="rgb(0,255,0)"/><circle cx="292.42424242424244" cy="50.20610787943201" r="2" fill="rgb(0,255,0)"/><circle cx="297.47474747474746" cy="50.30745873536512" r="2" fill="rgb(0,255,0)"/><circle cx="302.52525252525254" cy="50.20107164738545" r="2" fill="rgb(0,255,0)"/><circle cx="307.57575757575756" cy="50.27037862684739" r="2" fill="rgb(0,255,0)"/><circle cx="312.62626262626264" cy="50.253166811918504" r="2" fill="rgb(0,255,0)"/><circle cx="317.67676767676767" cy="50.258361080629356" r="2" fill="rgb(0,255,0)"/><circle cx="322.7272727272727" cy="50.258361080629356" r="2" fill="rgb(0,255,0)"/><circle cx="327.77777777777777" cy="50.24114926570053" r="2" fill="rgb(0,255,0)"/><circle cx="332.8282828282828" cy="50.19463077403282" r="2" fill="rgb(0,255,0)"/><circle cx="337.8787878787879" cy="50.05838944076413" r="2" fill="rgb(0,255,0)"/><circle cx="342.92929292929296" cy="50.05838944076413" r="2" fill="rgb(0,255,0)"/><circle cx="347.979797979798" cy="50.01187094909636" r="2" fill="rgb(0,255,0)"/><circle cx="353.03030303030306" cy="50.18277934314648" r="2" fill="rgb(0,255,0)"/><circle cx="358.0808080808081" cy="50.13413729357876" r="2" fill="rgb(0,255,0)"/><circle cx="363.13131313131316" cy="50.22321903290157" r="2" fill="rgb(0,255,0)"/><circle cx="368.1818181818182" cy="50.258361080629356" r="2" fill="rgb(0,255,0)"/><circle cx="373.23232323232327" cy="50.211842588961645" r="2" fill="rgb(0,255,0)"/><circle cx="378.2828282828283" cy="50.23391958997678" r="2" fill="rgb(0,255,0)"/><circle cx="383.3333333333333" cy="50.258361080629356" r="2" fill="rgb(0,255,0)"/><circle cx="388.3838383838384" cy="50.30700313019713" r="2" fill="rgb(0,255,0)"/><circle cx="393.4343434343434" cy="50.30700313019713" r="2" fill="rgb(0,255,0)"/><circle cx="398.4848484848485" cy="50.32421494512596" r="2" fill="rgb(0,255,0)"/><circle cx="403.5353535353535" cy="50.30700313019713" r="2" fill="rgb(0,255,0)"/><circle cx="408.58585858585855" cy="50.30700313019713" r="2" fill="rgb(0,255,0)"/><circle cx="413.6363636363636" cy="50.30700313019713" r="2" fill="rgb(0,255,0)"/><circle cx="418.68686868686865" cy="50.30700313019713" r="2" fill="rgb(0,255,0)"/><circle cx="423.73737373737373" cy="50.155541287677124" r="2" fill="rgb(0,255,0)"/><circle cx="428.7878787878788" cy="50.30700313019713" r="2" fill="rgb(0,255,0)"/><circle cx="433.83838383838383" cy="50.32421494512596" r="2" fill="rgb(0,255,0)"/><circle cx="438.8888888888889" cy="50.32421494512596" r="2" fill="rgb(0,255,0)"/><circle cx="443.93939393939394" cy="50.16823452959284" r="2" fill="rgb(0,255,0)"/><circle cx="448.989898989899" cy="50.18544634452172" r="2" fill="rgb(0,255,0)"/><circle cx="454.04040404040404" cy="50.18544634452172" r="2" fill="rgb(0,255,0)"/><circle cx="459.0909090909091" cy="50.18544634452172" r="2" fill="rgb(0,255,0)"/><circle cx="464.14141414141415" cy="50.18544634452172" r="2" fill="rgb(0,255,0)"/><circle cx="469.19191919191917" cy="50.20409022072215" r="2" fill="rgb(0,255,0)"/><circle cx="474.24242424242425" cy="50.20409022072215" r="2" fill="rgb(0,255,0)"/><circle cx="479.2929292929293" cy="50.20409022072215" r="2" fill="rgb(0,255,0)"/><circle cx="484.34343434343435" cy="50.25866963053426" r="2" fill="rgb(0,255,0)"/><circle cx="489.3939393939394" cy="50.12645004432045" r="2" fill="rgb(0,255,0)"/><circle cx="494.4444444444444" cy="50.10923822939162" r="2" fill="rgb(0,255,0)"/><circle cx="499.4949494949495" cy="50.12645004432045" r="2" fill="rgb(0,255,0)"/><circle cx="504.5454545454545" cy="50.17478354398327" r="2" fill="rgb(0,255,0)"/><circle cx="509.59595959595964" cy="50.12645004432045" r="2" fill="rgb(0,255,0)"/><circle cx="514.6464646464647" cy="50.081465279580414" r="2" fill="rgb(0,255,0)"/><circle cx="519.6969696969697" cy="50.12476346777004" r="2" fill="rgb(0,255,0)"/><circle cx="524.7474747474748" cy="50.15788538637736" r="2" fill="rgb(0,255,0)"/><circle cx="529.7979797979798" cy="50.08636325908253" r="2" fill="rgb(0,255,0)"/><circle cx="534.8484848484849" cy="50.0" r="2" fill="rgb(0,255,0)"/><circle cx="539.8989898989898" cy="50.0" r="2" fill="rgb(0,255,0)"/><circle cx="544.9494949494949" cy="50.017211814928885" r="2" fill="rgb(0,255,0)"/><circle cx="550.0" cy="50.017211814928885" r="2" fill="rgb(0,255,0)"/><text x="350.0" y="20.0" text-anchor="middle" fill="rgb(0,0,0)" font-size="20.0">GA Demo</text><text x="350.0" y="575.0" text-anchor="middle" fill="rgb(0,0,0)" font-size="12.0">generation</text><text transform="rotate(-90.0 20.0 300.0)" x="20.0" y="300.0" text-anchor="middle" fill="rgb(0,0,0)" font-size="12.0">fitness</text><text x="620" y="62" fill="rgb(0,0,0)" font-size="12">min</text><text x="620" y="74" fill="rgb(0,0,255)" font-size="12">ave</text><text x="620" y="86" fill="rgb(0,255,0)" font-size="12">max</text>
      Sorry, your browser does not support inline SVG.
    </svg>