<?xml version='1.0' encoding='UTF-8'?>
<svg version="1.1" width="700.0" height="600.0" onload="init(evt)" xmlns="http://www.w3.org/2000/svg">
      <style>.caption {
  font-size: 14px;
  font-family: Georgia, serif;
}
</style>
      <script type="text/ecmascript"><![CDATA[
function init(evt) {
  if ( window.svgDocument == null ) {
    svgDocument = evt.target.ownerDocument;
  }
}

function RectHover(evt, i, c) {
  rect = svgDocument.getElementById('rect' + i);
  if( c != null ) {
    rect.setAttributeNS(null, "fill", c)  
  }
  tooltiptext = svgDocument.getElementById('tooltiptext' + i);
  tooltipbg = svgDocument.getElementById('tooltipbg' + i);
  if( tooltipbg != null) {
    tbb = tooltiptext.getBBox();
    tooltipbg.setAttributeNS(null, "width", tbb.width);
    tooltipbg.setAttributeNS(null, "height", tbb.height);
    tooltipbg.setAttributeNS(null, "x", tbb.x);
    tooltipbg.setAttributeNS(null, "y", tbb.y);
    tooltipbg.setAttributeNS(null, "visibility", "visible");
  }
  tooltiptext.setAttributeNS(null,"visibility","visible");
}

function RectUnhover(evt, i, c) {
  rect = svgDocument.getElementById('rect' + i);
  if( c != null ) {
    rect.setAttributeNS(null, "fill", c)  
  }
  tooltiptext = svgDocument.getElementById('tooltiptext' + i);
  tooltiptext.setAttributeNS(null,"visibility","hidden");
  tooltipbg = svgDocument.getElementById('tooltipbg' + i);
  if( tooltipbg != null ) {
    tooltipbg.setAttributeNS(null,"visibility","hidden");
  }
}
]]></script>
      <line x1="50.0" y1="550.0" x2="550.0" y2="550.0" stroke="rgb(0,0,0)" stroke-width="1"/><line x1="50.0" y1="550.0" x2="50.0" y2="50.0" stroke="rgb(0,0,0)" stroke-width="1"/><line x1="50.0" y1="550.0" x2="50.0" y2="50.0" stroke="rgb(192,192,192)" stroke-width="1"/><line x1="50.0" y1="548.0" x2="50.0" y2="552.0" stroke="rgb(192,192,192)" stroke-width="1"/><text text-anchor="middle" alignment-baseline="hanging" x="50.0" y="553.0" font-size="12.0">0</text><line x1="100.5050505050505" y1="550.0" x2="100.5050505050505" y2="50.0" stroke="rgb(192,192,192)" stroke-width="1"/><line x1="100.5050505050505" y1="548.0" x2="100.5050505050505" y2="552.0" stroke="rgb(192,192,192)" stroke-width="1"/><text text-anchor="middle" alignment-baseline="hanging" x="100.5050505050505" y="553.0" font-size="12.0">10</text><line x1="151.010101010101" y1="550.0" x2="151.010101010101" y2="50.0" stroke="rgb(192,192,192)" stroke-width="1"/><line x1="151.010101010101" y1="548.0" x2="151.010101010101" y2="552.0" stroke="rgb(192,192,192)" stroke-width="1"/><text text-anchor="middle" alignment-baseline="hanging" x="151.010101010101" y="553.0" font-size="12.0">20</text><line x1="201.51515151515153" y1="550.0" x2="201.51515151515153" y2="50.0" stroke="rgb(192,192,192)" stroke-width="1"/><line x1="201.51515151515153" y1="548.0" x2="201.51515151515153" y2="552.0" stroke="rgb(192,192,192)" stroke-width="1"/><text text-anchor="middle" alignment-baseline="hanging" x="201.51515151515153" y="553.0" font-size="12.0">30</text><line x1="252.02020202020202" y1="550.0" x2="252.02020202020202" y2="50.0" stroke="rgb(192,192,192)" stroke-width="1"/><line x1="252.02020202020202" y1="548.0" x2="252.02020202020202" y2="552.0" stroke="rgb(192,192,192)" stroke-width="1"/><text text-anchor="middle" alignment-baseline="hanging" x="252.02020202020202" y="553.0" font-size="12.0">40</text><line x1="302.52525252525254" y1="550.0" x2="302.52525252525254" y2="50.0" stroke="rgb(192,192,192)" stroke-width="1"/><line x1="302.52525252525254" y1="548.0" x2="302.52525252525254" y2="552.0" stroke="rgb(192,192,192)" stroke-width="1"/><text text-anchor="middle" alignment-baseline="hanging" x="302.52525252525254" y="553.0" font-size="12.0">50</text><line x1="353.03030303030306" y1="550.0" x2="353.03030303030306" y2="50.0" stroke="rgb(192,192,192)" stroke-width="1"/><line x1="353.03030303030306" y1="548.0" x2="353.03030303030306" y2="552.0" stroke="rgb(192,192,192)" stroke-width="1"/><text text-anchor="middle" alignment-baseline="hanging" x="353.03030303030306" y="553.0" font-size="12.0">60</text><line x1="403.5353535353535" y1="550.0" x2="403.5353535353535" y2="50.0" stroke="rgb(192,192,192)" stroke-width="1"/><line x1="403.5353535353535" y1="548.0" x2="403.5353535353535" y2="552.0" stroke="rgb(192,192,192)" stroke-width="1"/><text text-anchor="middle" alignment-baseline="hanging" x="403.5353535353535" y="553.0" font-size="12.0">70</text><line x1="454.04040404040404" y1="550.0" x2="454.04040404040404" y2="50.0" stroke="rgb(192,192,192)" stroke-width="1"/><line x1="454.04040404040404" y1="548.0" x2="454.04040404040404" y2="552.0" stroke="rgb(192,192,192)" stroke-width="1"/><text text-anchor="middle" alignment-baseline="hanging" x="454.04040404040404" y="553.0" font-size="12.0">80</text><line x1="504.5454545454545" y1="550.0" x2="504.5454545454545" y2="50.0" stroke="rgb(192,192,192)" stroke-width="1"/><line x1="504.5454545454545" y1="548.0" x2="504.5454545454545" y2="552.0" stroke="rgb(192,192,192)" stroke-width="1"/><text text-anchor="middle" alignment-baseline="hanging" x="504.5454545454545" y="553.0" font-size="12.0">90</text><line x1="50.0" y1="550.0" x2="550.0" y2="550.0" stroke="rgb(192,192,192)" stroke-width="1"/><text text-anchor="end" alignment-baseline="middle" x="45.0" y="550.0" font-size="12.0">0.0</text><line x1="48.0" y1="550.0" x2="52.0" y2="550.0" stroke="rgb(192,192,192)" stroke-width="1"/><line x1="50.0" y1="367.803686970633" x2="550.0" y2="367.803686970633" stroke="rgb(192,192,192)" stroke-width="1"/><text text-anchor="end" alignment-baseline="middle" x="45.0" y="367.803686970633" font-size="12.0">1000.0</text><line x1="48.0" y1="367.803686970633" x2="52.0" y2="367.803686970633" stroke="rgb(192,192,192)" stroke-width="1"/><line x1="50.0" y1="185.60737394126602" x2="550.0" y2="185.60737394126602" stroke="rgb(192,192,192)" stroke-width="1"/><text text-anchor="end" alignment-baseline="middle" x="45.0" y="185.60737394126602" font-size="12.0">2000.0</text><line x1="48.0" y1="185.60737394126602" x2="52.0" y2="185.60737394126602" stroke="rgb(192,192,192)" stroke-width="1"/><polyline points="50.0,395.38939792316296 55.05050505050505,386.29425995090855 60.101010101010104,392.818137519841 65.15151515151516,427.8950676668422 70.20202020202021,294.60513912187326 75.25252525252526,425.69625941192123 80.30303030303031,404.40462235652654 85.35353535353535,387.06977077549385 90.40404040404042,387.26871755322173 95.45454545454545,407.85842376810206 100.5050505050505,404.2349104372755 105.55555555555554,404.4185592313455 110.60606060606061,386.322952756492 115.65656565656566,195.38733577237548 120.7070707070707,246.7362678856444 125.75757575757576,293.5456711175822 130.80808080808083,79.41511936202147 135.85858585858585,388.45358504255137 140.9090909090909,388.63847442090366 145.95959595959596,336.8868795606933 151.010101010101,368.0215965050527 156.06060606060606,369.7168082734835 161.1111111111111,419.41044915758744 166.16161616161617,321.5899337726237 171.21212121212122,321.53979577917414 176.26262626262627,322.338481794754 181.31313131313132,393.92488847197217 186.36363636363635,348.54052517416494 191.4141414141414,408.3653088200033 196.46464646464648,384.901710022419 201.51515151515153,396.11012119096756 206.56565656565658,405.40055490237285 211.61616161616163,405.6508635691164 216.66666666666666,354.6738731789892 221.7171717171717,363.0043407972619 226.76767676767676,323.76053897501856 231.8181818181818,387.50583267502213 236.86868686868686,388.8638888844542 241.91919191919192,387.5229744901245 246.96969696969697,321.16224051050926 252.02020202020202,362.8526671550134 257.07070707070704,406.0950203112989 262.1212121212121,365.30841762830687 267.1717171717172,347.1591876930563 272.2222222222222,347.9083427859641 277.27272727272725,347.7950516393454 282.32323232323233,373.57384550723134 287.3737373737374,328.6563602983134 292.42424242424244,412.55899191870594 297.47474747474746,327.4132584292315 302.52525252525254,213.08443241294407 307.57575757575756,114.74657366807713 312.62626262626264,326.9227317759111 317.67676767676767,268.7215608878635 322.7272727272727,365.6313034502741 327.77777777777777,363.7782347902071 332.8282828282828,363.867947618623 337.8787878787879,364.81349601920016 342.92929292929296,400.4906694139031 347.979797979798,407.9024482834452 353.03030303030306,407.66860684666585 358.0808080808081,409.1830944971589 363.13131313131316,401.0465687593031 368.1818181818182,406.3841014042647 373.23232323232327,250.69887514664043 378.2828282828283,340.56660828480005 383.3333333333333,366.5444632553882 388.3838383838384,367.7396477281052 393.4343434343434,412.1361353841321 398.4848484848485,294.2976741611826 403.5353535353535,412.6583406548586 408.58585858585855,413.5600582160452 413.6363636363636,378.28772358547985 418.68686868686865,378.28772358547985 423.73737373737373,402.2742090944898 428.7878787878788,122.46215845087352 433.83838383838383,189.14085242226935 438.8888888888889,401.01724337932785 443.93939393939394,401.01724337932785 448.989898989899,352.9123290092399 454.04040404040404,380.09195956740353 459.0909090909091,380.09195956740353 464.14141414141415,406.9041941835413 469.19191919191917,328.0472870887236 474.24242424242425,269.67313814164686 479.2929292929293,379.2611489801729 484.34343434343435,394.339961516359 489.3939393939394,398.6917562118683 494.4444444444444,403.2735417072286 499.4949494949495,395.5446280146457 504.5454545454545,407.4294494730667 509.59595959595964,276.9259727077622 514.6464646464647,401.49332718991656 519.6969696969697,330.2197857977858 524.7474747474748,380.04026857851 529.7979797979798,380.1184782194092 534.8484848484849,181.04017430015023 539.8989898989898,392.4943759322017 544.9494949494949,160.80236929759286 550.0,374.14299054652184" fill="none" stroke="rgb(0,0,0)" stroke-width="1"/><circle cx="50.0" cy="395.38939792316296" r="2" fill="rgb(0,0,0)"/><circle cx="55.05050505050505" cy="386.29425995090855" r="2" fill="rgb(0,0,0)"/><circle cx="60.101010101010104" cy="392.818137519841" r="2" fill="rgb(0,0,0)"/><circle cx="65.15151515151516" cy="427.8950676668422" r="2" fill="rgb(0,0,0)"/><circle cx="70.20202020202021" cy="294.60513912187326" r="2" fill="rgb(0,0,0)"/><circle cx="75.25252525252526" cy="425.69625941192123" r="2" fill="rgb(0,0,0)"/><circle cx="80.30303030303031" cy="404.40462235652654" r="2" fill="rgb(0,0,0)"/><circle cx="85.35353535353535" cy="387.06977077549385" r="2" fill="rgb(0,0,0)"/><circle cx="90.40404040404042" cy="387.26871755322173" r="2" fill="rgb(0,0,0)"/><circle cx="95.45454545454545" cy="407.85842376810206" r="2" fill="rgb(0,0,0)"/><circle cx="100.5050505050505" cy="404.2349104372755" r="2" fill="rgb(0,0,0)"/><circle cx="105.55555555555554" cy="404.4185592313455" r="2" fill="rgb(0,0,0)"/><circle cx="110.60606060606061" cy="386.322952756492" r="2" fill="rgb(0,0,0)"/><circle cx="115.65656565656566" cy="195.38733577237548" r="2" fill="rgb(0,0,0)"/><circle cx="120.7070707070707" cy="246.7362678856444" r="2" fill="rgb(0,0,0)"/><circle cx="125.75757575757576" cy="293.5456711175822" r="2" fill="rgb(0,0,0)"/><circle cx="130.80808080808083" cy="79.41511936202147" r="2" fill="rgb(0,0,0)"/><circle cx="135.85858585858585" cy="388.45358504255137" r="2" fill="rgb(0,0,0)"/><circle cx="140.9090909090909" cy="388.63847442090366" r="2" fill="rgb(0,0,0)"/><circle cx="145.95959595959596" cy="336.8868795606933" r="2" fill="rgb(0,0,0)"/><circle cx="151.010101010101" cy="368.0215965050527" r="2" fill="rgb(0,0,0)"/><circle cx="156.06060606060606" cy="369.7168082734835" r="2" fill="rgb(0,0,0)"/><circle cx="161.1111111111111" cy="419.41044915758744" r="2" fill="rgb(0,0,0)"/><circle cx="166.16161616161617" cy="321.5899337726237" r="2" fill="rgb(0,0,0)"/><circle cx="171.21212121212122" cy="321.53979577917414" r="2" fill="rgb(0,0,0)"/><circle cx="176.26262626262627" cy="322.338481794754" r="2" fill="rgb(0,0,0)"/><circle cx="181.31313131313132" cy="393.92488847197217" r="2" fill="rgb(0,0,0)"/><circle cx="186.36363636363635" cy="348.54052517416494" r="2" fill="rgb(0,0,0)"/><circle cx="191.4141414141414" cy="408.3653088200033" r="2" fill="rgb(0,0,0)"/><circle cx="196.46464646464648" cy="384.901710022419" r="2" fill="rgb(0,0,0)"/><circle cx="201.51515151515153" cy="396.11012119096756" r="2" fill="rgb(0,0,0)"/><circle cx="206.56565656565658" cy="405.40055490237285" r="2" fill="rgb(0,0,0)"/><circle cx="211.61616161616163" cy="405.6508635691164" r="2" fill="rgb(0,0,0)"/><circle cx="216.66666666666666" cy="354.6738731789892" r="2" fill="rgb(0,0,0)"/><circle cx="221.7171717171717" cy="363.0043407972619" r="2" fill="rgb(0,0,0)"/><circle cx="226.76767676767676" cy="323.76053897501856" r="2" fill="rgb(0,0,0)"/><circle cx="231.8181818181818" cy="387.50583267502213" r="2" fill="rgb(0,0,0)"/><circle cx="236.86868686868686" cy="388.8638888844542" r="2" fill="rgb(0,0,0)"/><circle cx="241.91919191919192" cy="387.5229744901245" r="2" fill="rgb(0,0,0)"/><circle cx="246.96969696969697" cy="321.16224051050926" r="2" fill="rgb(0,0,0)"/><circle cx="252.02020202020202" cy="362.8526671550134" r="2" fill="rgb(0,0,0)"/><circle cx="257.07070707070704" cy="406.0950203112989" r="2" fill="rgb(0,0,0)"/><circle cx="262.1212121212121" cy="365.30841762830687" r="2" fill="rgb(0,0,0)"/><circle cx="267.1717171717172" cy="347.1591876930563" r="2" fill="rgb(0,0,0)"/><circle cx="272.2222222222222" cy="347.9083427859641" r="2" fill="rgb(0,0,0)"/><circle cx="277.27272727272725" cy="347.7950516393454" r="2" fill="rgb(0,0,0)"/><circle cx="282.32323232323233" cy="373.57384550723134" r="2" fill="rgb(0,0,0)"/><circle cx="287.3737373737374" cy="328.6563602983134" r="2" fill="rgb(0,0,0)"/><circle cx="292.42424242424244" cy="412.55899191870594" r="2" fill="rgb(0,0,0)"/><circle cx="297.47474747474746" cy="327.4132584292315" r="2" fill="rgb(0,0,0)"/><circle cx="302.52525252525254" cy="213.08443241294407" r="2" fill="rgb(0,0,0)"/><circle cx="307.57575757575756" cy="114.74657366807713" r="2" fill="rgb(0,0,0)"/><circle cx="312.62626262626264" cy="326.9227317759111" r="2" fill="rgb(0,0,0)"/><circle cx="317.67676767676767" cy="268.7215608878635" r="2" fill="rgb(0,0,0)"/><circle cx="322.7272727272727" cy="365.6313034502741" r="2" fill="rgb(0,0,0)"/><circle cx="327.77777777777777" cy="363.7782347902071" r="2" fill="rgb(0,0,0)"/><circle cx="332.8282828282828" cy="363.867947618623" r="2" fill="rgb(0,0,0)"/><circle cx="337.8787878787879" cy="364.81349601920016" r="2" fill="rgb(0,0,0)"/><circle cx="342.92929292929296" cy="400.4906694139031" r="2" fill="rgb(0,0,0)"/><circle cx="347.979797979798" cy="407.9024482834452" r="2" fill="rgb(0,0,0)"/><circle cx="353.03030303030306" cy="407.66860684666585" r="2" fill="rgb(0,0,0)"/><circle cx="358.0808080808081" cy="409.1830944971589" r="2" fill="rgb(0,0,0)"/><circle cx="363.13131313131316" cy="401.0465687593031" r="2" fill="rgb(0,0,0)"/><circle cx="368.1818181818182" cy="406.3841014042647" r="2" fill="rgb(0,0,0)"/><circle cx="373.23232323232327" cy="250.69887514664043" r="2" fill="rgb(0,0,0)"/><circle cx="378.2828282828283" cy="340.56660828480005" r="2" fill="rgb(0,0,0)"/><circle cx="383.3333333333333" cy="366.5444632553882" r="2" fill="rgb(0,0,0)"/><circle cx="388.3838383838384" cy="367.7396477281052" r="2" fill="rgb(0,0,0)"/><circle cx="393.4343434343434" cy="412.1361353841321" r="2" fill="rgb(0,0,0)"/><circle cx="398.4848484848485" cy="294.2976741611826" r="2" fill="rgb(0,0,0)"/><circle cx="403.5353535353535" cy="412.6583406548586" r="2" fill="rgb(0,0,0)"/><circle cx="408.58585858585855" cy="413.5600582160452" r="2" fill="rgb(0,0,0)"/><circle cx="413.6363636363636" cy="378.28772358547985" r="2" fill="rgb(0,0,0)"/><circle cx="418.68686868686865" cy="378.28772358547985" r="2" fill="rgb(0,0,0)"/><circle cx="423.73737373737373" cy="402.2742090944898" r="2" fill="rgb(0,0,0)"/><circle cx="428.7878787878788" cy="122.46215845087352" r="2" fill="rgb(0,0,0)"/><circle cx="433.83838383838383" cy="189.14085242226935" r="2" fill="rgb(0,0,0)"/><circle cx="438.8888888888889" cy="401.01724337932785" r="2" fill="rgb(0,0,0)"/><circle cx="443.93939393939394" cy="401.01724337932785" r="2" fill="rgb(0,0,0)"/><circle cx="448.989898989899" cy="352.9123290092399" r="2" fill="rgb(0,0,0)"/><circle cx="454.04040404040404" cy="380.09195956740353" r="2" fill="rgb(0,0,0)"/><circle cx="459.0909090909091" cy="380.09195956740353" r="2" fill="rgb(0,0,0)"/><circle cx="464.14141414141415" cy="406.9041941835413" r="2" fill="rgb(0,0,0)"/><circle cx="469.19191919191917" cy="328.0472870887236" r="2" fill="rgb(0,0,0)"/><circle cx="474.24242424242425" cy="269.67313814164686" r="2" fill="rgb(0,0,0)"/><circle cx="479.2929292929293" cy="379.2611489801729" r="2" fill="rgb(0,0,0)"/><circle cx="484.34343434343435" cy="394.339961516359" r="2" fill="rgb(0,0,0)"/><circle cx="489.3939393939394" cy="398.6917562118683" r="2" fill="rgb(0,0,0)"/><circle cx="494.4444444444444" cy="403.2735417072286" r="2" fill="rgb(0,0,0)"/><circle cx="499.4949494949495" cy="395.5446280146457" r="2" fill="rgb(0,0,0)"/><circle cx="504.5454545454545" cy="407.4294494730667" r="2" fill="rgb(0,0,0)"/><circle cx="509.59595959595964" cy="276.9259727077622" r="2" fill="rgb(0,0,0)"/><circle cx="514.6464646464647" cy="401.49332718991656" r="2" fill="rgb(0,0,0)"/><circle cx="519.6969696969697" cy="330.2197857977858" r="2" fill="rgb(0,0,0)"/><circle cx="524.7474747474748" cy="380.04026857851" r="2" fill="rgb(0,0,0)"/><circle cx="529.7979797979798" cy="380.1184782194092" r="2" fill="rgb(0,0,0)"/><circle cx="534.8484848484849" cy="181.04017430015023" r="2" fill="rgb(0,0,0)"/><circle cx="539.8989898989898" cy="392.4943759322017" r="2" fill="rgb(0,0,0)"/><circle cx="544.9494949494949" cy="160.80236929759286" r="2" fill="rgb(0,0,0)"/><circle cx="550.0" cy="374.14299054652184" r="2" fill="rgb(0,0,0)"/><polyline points="50.0,198.71729080806205 55.05050505050505,181.13768723512106 60.101010101010104,145.4686823609672 65.15151515151516,140.04058173986107 70.20202020202021,103.74952883768475 75.25252525252526,106.4936170783418 80.30303030303031,98.4400258431728 85.35353535353535,99.52373657688975 90.40404040404042,96.56017878327123 95.45454545454545,91.2157038789544 100.5050505050505,87.1535449902886 105.55555555555554,79.17936439739009 110.60606060606061,83.86394703136074 115.65656565656566,69.75028882222665 120.7070707070707,69.32114635126902 125.75757575757576,68.83287523815488 130.80808080808083,62.471175462082044 135.85858585858585,67.19830034177016 140.9090909090909,74.9760250025007 145.95959595959596,68.57089490521486 151.010101010101,69.60740629590248 156.06060606060606,70.89601035039493 161.1111111111111,64.02877135945135 166.16161616161617,63.50673118768839 171.21212121212122,66.33455424882351 176.26262626262627,65.20391821746051 181.31313131313132,74.27513645419037 186.36363636363635,73.32947123075132 191.4141414141414,78.52363294248494 196.46464646464648,71.33928394124035 201.51515151515153,81.41628625903923 206.56565656565658,81.32943119009207 211.61616161616163,73.04110833424966 216.66666666666666,68.0131838411379 221.7171717171717,67.99731208900408 226.76767676767676,67.56730432875253 231.8181818181818,70.25315515031537 236.86868686868686,77.93145682489433 241.91919191919192,87.52874121173613 246.96969696969697,66.66058689136696 252.02020202020202,72.34021020188612 257.07070707070704,66.91438132497092 262.1212121212121,75.5070902576731 267.1717171717172,71.06639751673339 272.2222222222222,69.62511568502993 277.27272727272725,68.57138455826617 282.32323232323233,66.73688305811942 287.3737373737374,67.93660603130616 292.42424242424244,70.99354349153464 297.47474747474746,61.68747774590281 302.52525252525254,59.91242631582247 307.57575757575756,59.643412093553536 312.62626262626264,64.74281750513882 317.67676767676767,62.80510609853553 322.7272727272727,62.26850292799861 327.77777777777777,66.68380535653228 332.8282828282828,60.185034348840986 337.8787878787879,66.53786570382397 342.92929292929296,63.097690040186365 347.979797979798,62.67761536928077 353.03030303030306,68.78581600843671 358.0808080808081,60.10911106698012 363.13131313131316,62.81429347012778 368.1818181818182,66.72480871617785 373.23232323232327,59.685998642392974 378.2828282828283,62.06496625370113 383.3333333333333,63.57210659916353 388.3838383838384,65.02180860514204 393.4343434343434,60.96824082413764 398.4848484848485,60.77648362180918 403.5353535353535,65.12731914782137 408.58585858585855,61.55813555933423 413.6363636363636,70.37832501818986 418.68686868686865,63.33609762073189 423.73737373737373,61.658014386134994 428.7878787878788,55.98503635830565 433.83838383838383,56.320951927979365 438.8888888888889,67.46528825543544 443.93939393939394,66.62845485213586 448.989898989899,79.41870837284455 454.04040404040404,81.98418971076751 459.0909090909091,84.34368170589232 464.14141414141415,79.7594731086877 469.19191919191917,69.54222502214856 474.24242424242425,65.24727769504892 479.2929292929293,71.71963329796301 484.34343434343435,74.52038754145849 489.3939393939394,84.67654221677054 494.4444444444444,70.33851833405174 499.4949494949495,70.26415761466728 504.5454545454545,64.65025038623492 509.59595959595964,59.641255808002484 514.6464646464647,69.4634322538493 519.6969696969697,60.45061045991622 524.7474747474748,60.58295960529409 529.7979797979798,64.15488535264444 534.8484848484849,56.187870227599376 539.8989898989898,58.509308144832346 544.9494949494949,55.69927632040532 550.0,59.5336363081222" fill="none" stroke="rgb(0,0,255)" stroke-width="1"/><circle cx="50.0" cy="198.71729080806205" r="2" fill="rgb(0,0,255)"/><circle cx="55.05050505050505" cy="181.13768723512106" r="2" fill="rgb(0,0,255)"/><circle cx="60.101010101010104" cy="145.4686823609672" r="2" fill="rgb(0,0,255)"/><circle cx="65.15151515151516" cy="140.04058173986107" r="2" fill="rgb(0,0,255)"/><circle cx="70.20202020202021" cy="103.74952883768475" r="2" fill="rgb(0,0,255)"/><circle cx="75.25252525252526" cy="106.4936170783418" r="2" fill="rgb(0,0,255)"/><circle cx="80.30303030303031" cy="98.4400258431728" r="2" fill="rgb(0,0,255)"/><circle cx="85.35353535353535" cy="99.52373657688975" r="2" fill="rgb(0,0,255)"/><circle cx="90.40404040404042" cy="96.56017878327123" r="2" fill="rgb(0,0,255)"/><circle cx="95.45454545454545" cy="91.2157038789544" r="2" fill="rgb(0,0,255)"/><circle cx="100.5050505050505" cy="87.1535449902886" r="2" fill="rgb(0,0,255)"/><circle cx="105.55555555555554" cy="79.17936439739009" r="2" fill="rgb(0,0,255)"/><circle cx="110.60606060606061" cy="83.86394703136074" r="2" fill="rgb(0,0,255)"/><circle cx="115.65656565656566" cy="69.75028882222665" r="2" fill="rgb(0,0,255)"/><circle cx="120.7070707070707" cy="69.32114635126902" r="2" fill="rgb(0,0,255)"/><circle cx="125.75757575757576" cy="68.83287523815488" r="2" fill="rgb(0,0,255)"/><circle cx="130.80808080808083" cy="62.471175462082044" r="2" fill="rgb(0,0,255)"/><circle cx="135.85858585858585" cy="67.19830034177016" r="2" fill="rgb(0,0,255)"/><circle cx="140.9090909090909" cy="74.9760250025007" r="2" fill="rgb(0,0,255)"/><circle cx="145.95959595959596" cy="68.57089490521486" r="2" fill="rgb(0,0,255)"/><circle cx="151.010101010101" cy="69.60740629590248" r="2" fill="rgb(0,0,255)"/><circle cx="156.06060606060606" cy="70.89601035039493" r="2" fill="rgb(0,0,255)"/><circle cx="161.1111111111111" cy="64.02877135945135" r="2" fill="rgb(0,0,255)"/><circle cx="166.16161616161617" cy="63.50673118768839" r="2" fill="rgb(0,0,255)"/><circle cx="171.21212121212122" cy="66.33455424882351" r="2" fill="rgb(0,0,255)"/><circle cx="176.26262626262627" cy="65.20391821746051" r="2" fill="rgb(0,0,255)"/><circle cx="181.31313131313132" cy="74.27513645419037" r="2" fill="rgb(0,0,255)"/><circle cx="186.36363636363635" cy="73.32947123075132" r="2" fill="rgb(0,0,255)"/><circle cx="191.4141414141414" cy="78.52363294248494" r="2" fill="rgb(0,0,255)"/><circle cx="196.46464646464648" cy="71.33928394124035" r="2" fill="rgb(0,0,255)"/><circle cx="201.51515151515153" cy="81.41628625903923" r="2" fill="rgb(0,0,255)"/><circle cx="206.56565656565658" cy="81.32943119009207" r="2" fill="rgb(0,0,255)"/><circle cx="211.61616161616163" cy="73.04110833424966" r="2" fill="rgb(0,0,255)"/><circle cx="216.66666666666666" cy="68.0131838411379" r="2" fill="rgb(0,0,255)"/><circle cx="221.7171717171717" cy="67.99731208900408" r="2" fill="rgb(0,0,255)"/><circle cx="226.76767676767676" cy="67.56730432875253" r="2" fill="rgb(0,0,255)"/><circle cx="231.8181818181818" cy="70.25315515031537" r="2" fill="rgb(0,0,255)"/><circle cx="236.86868686868686" cy="77.93145682489433" r="2" fill="rgb(0,0,255)"/><circle cx="241.91919191919192" cy="87.52874121173613" r="2" fill="rgb(0,0,255)"/><circle cx="246.96969696969697" cy="66.66058689136696" r="2" fill="rgb(0,0,255)"/><circle cx="252.02020202020202" cy="72.34021020188612" r="2" fill="rgb(0,0,255)"/><circle cx="257.07070707070704" cy="66.91438132497092" r="2" fill="rgb(0,0,255)"/><circle cx="262.1212121212121" cy="75.5070902576731" r="2" fill="rgb(0,0,255)"/><circle cx="267.1717171717172" cy="71.06639751673339" r="2" fill="rgb(0,0,255)"/><circle cx="272.2222222222222" cy="69.62511568502993" r="2" fill="rgb(0,0,255)"/><circle cx="277.27272727272725" cy="68.57138455826617" r="2" fill="rgb(0,0,255)"/><circle cx="282.32323232323233" cy="66.73688305811942" r="2" fill="rgb(0,0,255)"/><circle cx="287.3737373737374" cy="67.93660603130616" r="2" fill="rgb(0,0,255)"/><circle cx="292.42424242424244" cy="70.99354349153464" r="2" fill="rgb(0,0,255)"/><circle cx="297.47474747474746" cy="61.68747774590281" r="2" fill="rgb(0,0,255)"/><circle cx="302.52525252525254" cy="59.91242631582247" r="2" fill="rgb(0,0,255)"/><circle cx="307.57575757575756" cy="59.643412093553536" r="2" fill="rgb(0,0,255)"/><circle cx="312.62626262626264" cy="64.74281750513882" r="2" fill="rgb(0,0,255)"/><circle cx="317.67676767676767" cy="62.80510609853553" r="2" fill="rgb(0,0,255)"/><circle cx="322.7272727272727" cy="62.26850292799861" r="2" fill="rgb(0,0,255)"/><circle cx="327.77777777777777" cy="66.68380535653228" r="2" fill="rgb(0,0,255)"/><circle cx="332.8282828282828" cy="60.185034348840986" r="2" fill="rgb(0,0,255)"/><circle cx="337.8787878787879" cy="66.53786570382397" r="2" fill="rgb(0,0,255)"/><circle cx="342.92929292929296" cy="63.097690040186365" r="2" fill="rgb(0,0,255)"/><circle cx="347.979797979798" cy="62.67761536928077" r="2" fill="rgb(0,0,255)"/><circle cx="353.03030303030306" cy="68.78581600843671" r="2" fill="rgb(0,0,255)"/><circle cx="358.0808080808081" cy="60.10911106698012" r="2" fill="rgb(0,0,255)"/><circle cx="363.13131313131316" cy="62.81429347012778" r="2" fill="rgb(0,0,255)"/><circle cx="368.1818181818182" cy="66.72480871617785" r="2" fill="rgb(0,0,255)"/><circle cx="373.23232323232327" cy="59.685998642392974" r="2" fill="rgb(0,0,255)"/><circle cx="378.2828282828283" cy="62.06496625370113" r="2" fill="rgb(0,0,255)"/><circle cx="383.3333333333333" cy="63.57210659916353" r="2" fill="rgb(0,0,255)"/><circle cx="388.3838383838384" cy="65.02180860514204" r="2" fill="rgb(0,0,255)"/><circle cx="393.4343434343434" cy="60.96824082413764" r="2" fill="rgb(0,0,255)"/><circle cx="398.4848484848485" cy="60.77648362180918" r="2" fill="rgb(0,0,255)"/><circle cx="403.5353535353535" cy="65.12731914782137" r="2" fill="rgb(0,0,255)"/><circle cx="408.58585858585855" cy="61.55813555933423" r="2" fill="rgb(0,0,255)"/><circle cx="413.6363636363636" cy="70.37832501818986" r="2" fill="rgb(0,0,255)"/><circle cx="418.68686868686865" cy="63.33609762073189" r="2" fill="rgb(0,0,255)"/><circle cx="423.73737373737373" cy="61.658014386134994" r="2" fill="rgb(0,0,255)"/><circle cx="428.7878787878788" cy="55.98503635830565" r="2" fill="rgb(0,0,255)"/><circle cx="433.83838383838383" cy="56.320951927979365" r="2" fill="rgb(0,0,255)"/><circle cx="438.8888888888889" cy="67.46528825543544" r="2" fill="rgb(0,0,255)"/><circle cx="443.93939393939394" cy="66.62845485213586" r="2" fill="rgb(0,0,255)"/><circle cx="448.989898989899" cy="79.41870837284455" r="2" fill="rgb(0,0,255)"/><circle cx="454.04040404040404" cy="81.98418971076751" r="2" fill="rgb(0,0,255)"/><circle cx="459.0909090909091" cy="84.34368170589232" r="2" fill="rgb(0,0,255)"/><circle cx="464.14141414141415" cy="79.7594731086877" r="2" fill="rgb(0,0,255)"/><circle cx="469.19191919191917" cy="69.54222502214856" r="2" fill="rgb(0,0,255)"/><circle cx="474.24242424242425" cy="65.24727769504892" r="2" fill="rgb(0,0,255)"/><circle cx="479.2929292929293" cy="71.71963329796301" r="2" fill="rgb(0,0,255)"/><circle cx="484.34343434343435" cy="74.52038754145849" r="2" fill="rgb(0,0,255)"/><circle cx="489.3939393939394" cy="84.67654221677054" r="2" fill="rgb(0,0,255)"/><circle cx="494.4444444444444" cy="70.33851833405174" r="2" fill="rgb(0,0,255)"/><circle cx="499.4949494949495" cy="70.26415761466728" r="2" fill="rgb(0,0,255)"/><circle cx="504.5454545454545" cy="64.65025038623492" r="2" fill="rgb(0,0,255)"/><circle cx="509.59595959595964" cy="59.641255808002484" r="2" fill="rgb(0,0,255)"/><circle cx="514.6464646464647" cy="69.4634322538493" r="2" fill="rgb(0,0,255)"/><circle cx="519.6969696969697" cy="60.45061045991622" r="2" fill="rgb(0,0,255)"/><circle cx="524.7474747474748" cy="60.58295960529409" r="2" fill="rgb(0,0,255)"/><circle cx="529.7979797979798" cy="64.15488535264444" r="2" fill="rgb(0,0,255)"/><circle cx="534.8484848484849" cy="56.187870227599376" r="2" fill="rgb(0,0,255)"/><circle cx="539.8989898989898" cy="58.509308144832346" r="2" fill="rgb(0,0,255)"/><circle cx="544.9494949494949" cy="55.69927632040532" r="2" fill="rgb(0,0,255)"/><circle cx="550.0" cy="59.5336363081222" r="2" fill="rgb(0,0,255)"/><polyline points="50.0,61.533074157562396 55.05050505050505,65.41990179946544 60.101010101010104,64.1394605551024 65.15151515151516,62.222921239843515 70.20202020202021,60.16919460232532 75.25252525252526,62.91147022554924 80.30303030303031,59.440493517420066 85.35353535353535,55.09369081309103 90.40404040404042,59.80670477461348 95.45454545454545,59.63290888429373 100.5050505050505,59.59138345146005 105.55555555555554,58.29333716061535 110.60606060606061,58.946864554904266 115.65656565656566,58.837512339358796 120.7070707070707,59.12793021557877 125.75757575757576,59.12793021557877 130.80808080808083,57.746018331420316 135.85858585858585,58.18039986993875 140.9090909090909,58.573583024833965 145.95959595959596,58.10634651880315 151.010101010101,57.81978888088497 156.06060606060606,57.89144033956774 161.1111111111111,57.56760757095998 166.16161616161617,57.81939506174035 171.21212121212122,57.94749902964503 176.26262626262627,57.70936718257394 181.31313131313132,57.24352671600781 186.36363636363635,57.56393459560434 191.4141414141414,57.05941314439525 196.46464646464648,56.91905018598857 201.51515151515153,56.81894105657324 206.56565656565658,56.81894105657324 211.61616161616163,56.63316253740658 216.66666666666666,56.575115453807484 221.7171717171717,56.564692855468934 226.76767676767676,56.775380821850774 231.8181818181818,56.68247826103442 236.86868686868686,56.76300690328429 241.91919191919192,56.672674930071935 246.96969696969697,56.76600444072102 252.02020202020202,56.693103586817756 257.07070707070704,56.528918241398856 262.1212121212121,56.55013479230223 267.1717171717172,56.543505105257 272.2222222222222,56.402151869071304 277.27272727272725,56.46308965439522 282.32323232323233,56.38299686101874 287.3737373737374,54.02101260152671 292.42424242424244,53.93396746361975 297.47474747474746,54.1703616845071 302.52525252525254,54.1703616845071 307.57575757575756,53.62632185112773 312.62626262626264,53.62632185112773 317.67676767676767,53.92146663124646 322.7272727272727,53.554504137595075 327.77777777777777,53.47833892789686 332.8282828282828,53.47833892789686 337.8787878787879,53.554504137595075 342.92929292929296,53.47833892789686 347.979797979798,53.47833892789686 353.03030303030306,53.554504137595075 358.0808080808081,53.47833892789686 363.13131313131316,53.367576206251215 368.1818181818182,53.367576206251215 373.23232323232327,53.367576206251215 378.2828282828283,53.47833892789686 383.3333333333333,53.36907374990329 388.3838383838384,53.47833892789686 393.4343434343434,53.47833892789686 398.4848484848485,53.367576206251215 403.5353535353535,53.36907374990329 408.58585858585855,53.367576206251215 413.6363636363636,53.367576206251215 418.68686868686865,53.367576206251215 423.73737373737373,53.367576206251215 428.7878787878788,53.367576206251215 433.83838383838383,53.367576206251215 438.8888888888889,53.352889456664855 443.93939393939394,53.352889456664855 448.989898989899,53.367576206251215 454.04040404040404,53.367576206251215 459.0909090909091,53.367576206251215 464.14141414141415,53.36907374990329 469.19191919191917,53.367576206251215 474.24242424242425,53.350754042832136 479.2929292929293,53.367576206251215 484.34343434343435,53.37299667860003 489.3939393939394,53.39716266673554 494.4444444444444,53.367576206251215 499.4949494949495,53.367576206251215 504.5454545454545,53.367576206251215 509.59595959595964,51.0594236515542 514.6464646464647,51.0262095249592 519.6969696969697,50.0 524.7474747474748,50.84082420993474 529.7979797979798,53.36072791460015 534.8484848484849,53.367576206251215 539.8989898989898,53.34925649918 544.9494949494949,53.367576206251215 550.0,53.367576206251215" fill="none" stroke="rgb(0,255,0)" stroke-width="1"/><circle cx="50.0" cy="61.533074157562396" r="2" fill="rgb(0,255,0)"/><circle cx="55.05050505050505" cy="65.41990179946544" r="2" fill="rgb(0,255,0)"/><circle cx="60.101010101010104" cy="64.1394605551024" r="2" fill="rgb(0,255,0)"/><circle cx="65.15151515151516" cy="62.222921239843515" r="2" fill="rgb(0,255,0)"/><circle cx="70.20202020202021" cy="60.16919460232532" r="2" fill="rgb(0,255,0)"/><circle cx="75.25252525252526" cy="62.91147022554924" r="2" fill="rgb(0,255,0)"/><circle cx="80.30303030303031" cy="59.440493517420066" r="2" fill="rgb(0,255,0)"/><circle cx="85.35353535353535" cy="55.09369081309103" r="2" fill="rgb(0,255,0)"/><circle cx="90.40404040404042" cy="59.80670477461348" r="2" fill="rgb(0,255,0)"/><circle cx="95.45454545454545" cy="59.63290888429373" r="2" fill="rgb(0,255,0)"/><circle cx="100.5050505050505" cy="59.59138345146005" r="2" fill="rgb(0,255,0)"/><circle cx="105.55555555555554" cy="58.29333716061535" r="2" fill="rgb(0,255,0)"/><circle cx="110.60606060606061" cy="58.946864554904266" r="2" fill="rgb(0,255,0)"/><circle cx="115.65656565656566" cy="58.837512339358796" r="2" fill="rgb(0,255,0)"/><circle cx="120.7070707070707" cy="59.12793021557877" r="2" fill="rgb(0,255,0)"/><circle cx="125.75757575757576" cy="59.12793021557877" r="2" fill="rgb(0,255,0)"/><circle cx="130.80808080808083" cy="57.746018331420316" r="2" fill="rgb(0,255,0)"/><circle cx="135.85858585858585" cy="58.18039986993875" r="2" fill="rgb(0,255,0)"/><circle cx="140.9090909090909" cy="58.573583024833965" r="2" fill="rgb(0,255,0)"/><circle cx="145.95959595959596" cy="58.10634651880315" r="2" fill="rgb(0,255,0)"/><circle cx="151.010101010101" cy="57.81978888088497" r="2" fill="rgb(0,255,0)"/><circle cx="156.06060606060606" cy="57.89144033956774" r="2" fill="rgb(0,255,0)"/><circle cx="161.1111111111111" cy="57.56760757095998" r="2" fill="rgb(0,255,0)"/><circle cx="166.16161616161617" cy="57.81939506174035" r="2" fill="rgb(0,255,0)"/><circle cx="171.21212121212122" cy="57.94749902964503" r="2" fill="rgb(0,255,0)"/><circle cx="176.26262626262627" cy="57.70936718257394" r="2" fill="rgb(0,255,0)"/><circle cx="181.31313131313132" cy="57.24352671600781" r="2" fill="rgb(0,255,0)"/><circle cx="186.36363636363635" cy="57.56393459560434" r="2" fill="rgb(0,255,0)"/><circle cx="191.4141414141414" cy="57.05941314439525" r="2" fill="rgb(0,255,0)"/><circle cx="196.46464646464648" cy="56.91905018598857" r="2" fill="rgb(0,255,0)"/><circle cx="201.51515151515153" cy="56.81894105657324" r="2" fill="rgb(0,255,0)"/><circle cx="206.56565656565658" cy="56.81894105657324" r="2" fill="rgb(0,255,0)"/><circle cx="211.61616161616163" cy="56.63316253740658" r="2" fill="rgb(0,255,0)"/><circle cx="216.66666666666666" cy="56.575115453807484" r="2" fill="rgb(0,255,0)"/><circle cx="221.7171717171717" cy="56.564692855468934" r="2" fill="rgb(0,255,0)"/><circle cx="226.76767676767676" cy="56.775380821850774" r="2" fill="rgb(0,255,0)"/><circle cx="231.8181818181818" cy="56.68247826103442" r="2" fill="rgb(0,255,0)"/><circle cx="236.86868686868686" cy="56.76300690328429" r="2" fill="rgb(0,255,0)"/><circle cx="241.91919191919192" cy="56.672674930071935" r="2" fill="rgb(0,255,0)"/><circle cx="246.96969696969697" cy="56.76600444072102" r="2" fill="rgb(0,255,0)"/><circle cx="252.02020202020202" cy="56.693103586817756" r="2" fill="rgb(0,255,0)"/><circle cx="257.07070707070704" cy="56.528918241398856" r="2" fill="rgb(0,255,0)"/><circle cx="262.1212121212121" cy="56.55013479230223" r="2" fill="rgb(0,255,0)"/><circle cx="267.1717171717172" cy="56.543505105257" r="2" fill="rgb(0,255,0)"/><circle cx="272.2222222222222" cy="56.402151869071304" r="2" fill="rgb(0,255,0)"/><circle cx="277.27272727272725" cy="56.46308965439522" r="2" fill="rgb(0,255,0)"/><circle cx="282.32323232323233" cy="56.38299686101874" r="2" fill="rgb(0,255,0)"/><circle cx="287.3737373737374" cy="54.02101260152671" r="2" fill="rgb(0,255,0)"/><circle cx="292.42424242424244" cy="53.93396746361975" r="2" fill="rgb(0,255,0)"/><circle cx="297.47474747474746" cy="54.1703616845071" r="2" fill="rgb(0,255,0)"/><circle cx="302.52525252525254" cy="54.1703616845071" r="2" fill="rgb(0,255,0)"/><circle cx="307.57575757575756" cy="53.62632185112773" r="2" fill="rgb(0,255,0)"/><circle cx="312.62626262626264" cy="53.62632185112773" r="2" fill="rgb(0,255,0)"/><circle cx="317.67676767676767" cy="53.92146663124646" r="2" fill="rgb(0,255,0)"/><circle cx="322.7272727272727" cy="53.554504137595075" r="2" fill="rgb(0,255,0)"/><circle cx="327.77777777777777" cy="53.47833892789686" r="2" fill="rgb(0,255,0)"/><circle cx="332.8282828282828" cy="53.47833892789686" r="2" fill="rgb(0,255,0)"/><circle cx="337.8787878787879" cy="53.554504137595075" r="2" fill="rgb(0,255,0)"/><circle cx="342.92929292929296" cy="53.47833892789686" r="2" fill="rgb(0,255,0)"/><circle cx="347.979797979798" cy="53.47833892789686" r="2" fill="rgb(0,255,0)"/><circle cx="353.03030303030306" cy="53.554504137595075" r="2" fill="rgb(0,255,0)"/><circle cx="358.0808080808081" cy="53.47833892789686" r="2" fill="rgb(0,255,0)"/><circle cx="363.13131313131316" cy="53.367576206251215" r="2" fill="rgb(0,255,0)"/><circle cx="368.1818181818182" cy="53.367576206251215" r="2" fill="rgb(0,255,0)"/><circle cx="373.23232323232327" cy="53.367576206251215" r="2" fill="rgb(0,255,0)"/><circle cx="378.2828282828283" cy="53.47833892789686" r="2" fill="rgb(0,255,0)"/><circle cx="383.3333333333333" cy="53.36907374990329" r="2" fill="rgb(0,255,0)"/><circle cx="388.3838383838384" cy="53.47833892789686" r="2" fill="rgb(0,255,0)"/><circle cx="393.4343434343434" cy="53.47833892789686" r="2" fill="rgb(0,255,0)"/><circle cx="398.4848484848485" cy="53.367576206251215" r="2" fill="rgb(0,255,0)"/><circle cx="403.5353535353535" cy="53.36907374990329" r="2" fill="rgb(0,255,0)"/><circle cx="408.58585858585855" cy="53.367576206251215" r="2" fill="rgb(0,255,0)"/><circle cx="413.6363636363636" cy="53.367576206251215" r="2" fill="rgb(0,255,0)"/><circle cx="418.68686868686865" cy="53.367576206251215" r="2" fill="rgb(0,255,0)"/><circle cx="423.73737373737373" cy="53.367576206251215" r="2" fill="rgb(0,255,0)"/><circle cx="428.7878787878788" cy="53.367576206251215" r="2" fill="rgb(0,255,0)"/><circle cx="433.83838383838383" cy="53.367576206251215" r="2" fill="rgb(0,255,0)"/><circle cx="438.8888888888889" cy="53.352889456664855" r="2" fill="rgb(0,255,0)"/><circle cx="443.93939393939394" cy="53.352889456664855" r="2" fill="rgb(0,255,0)"/><circle cx="448.989898989899" cy="53.367576206251215" r="2" fill="rgb(0,255,0)"/><circle cx="454.04040404040404" cy="53.367576206251215" r="2" fill="rgb(0,255,0)"/><circle cx="459.0909090909091" cy="53.367576206251215" r="2" fill="rgb(0,255,0)"/><circle cx="464.14141414141415" cy="53.36907374990329" r="2" fill="rgb(0,255,0)"/><circle cx="469.19191919191917" cy="53.367576206251215" r="2" fill="rgb(0,255,0)"/><circle cx="474.24242424242425" cy="53.350754042832136" r="2" fill="rgb(0,255,0)"/><circle cx="479.2929292929293" cy="53.367576206251215" r="2" fill="rgb(0,255,0)"/><circle cx="484.34343434343435" cy="53.37299667860003" r="2" fill="rgb(0,255,0)"/><circle cx="489.3939393939394" cy="53.39716266673554" r="2" fill="rgb(0,255,0)"/><circle cx="494.4444444444444" cy="53.367576206251215" r="2" fill="rgb(0,255,0)"/><circle cx="499.4949494949495" cy="53.367576206251215" r="2" fill="rgb(0,255,0)"/><circle cx="504.5454545454545" cy="53.367576206251215" r="2" fill="rgb(0,255,0)"/><circle cx="509.59595959595964" cy="51.0594236515542" r="2" fill="rgb(0,255,0)"/><circle cx="514.6464646464647" cy="51.0262095249592" r="2" fill="rgb(0,255,0)"/><circle cx="519.6969696969697" cy="50.0" r="2" fill="rgb(0,255,0)"/><circle cx="524.7474747474748" cy="50.84082420993474" r="2" fill="rgb(0,255,0)"/><circle cx="529.7979797979798" cy="53.36072791460015" r="2" fill="rgb(0,255,0)"/><circle cx="534.8484848484849" cy="53.367576206251215" r="2" fill="rgb(0,255,0)"/><circle cx="539.8989898989898" cy="53.34925649918" r="2" fill="rgb(0,255,0)"/><circle cx="544.9494949494949" cy="53.367576206251215" r="2" fill="rgb(0,255,0)"/><circle cx="550.0" cy="53.367576206251215" r="2" fill="rgb(0,255,0)"/><text x="350.0" y="20.0" text-anchor="middle" fill="rgb(0,0,0)" font-size="20.0">GA Demo</text><text x="350.0" y="575.0" text-anchor="middle" fill="rgb(0,0,0)" font-size="12.0">generation</text><text transform="rotate(-90.0 20.0 300.0)" x="20.0" y="300.0" text-anchor="middle" fill="rgb(0,0,0)" font-size="12.0">fitness</text><text x="620" y="62" fill="rgb(0,0,0)" font-size="12">min</text><text x="620" y="74" fill="rgb(0,0,255)" font-size="12">ave</text><text x="620" y="86" fill="rgb(0,255,0)" font-size="12">max</text>
      Sorry, your browser does not support inline SVG.
    </svg>