<?xml version='1.0' encoding='UTF-8'?>
<svg version="1.1" width="700.0" height="600.0" onload="init(evt)" xmlns="http://www.w3.org/2000/svg">
      <style>.caption {
  font-size: 14px;
  font-family: Georgia, serif;
}
</style>
      <script type="text/ecmascript"><![CDATA[
function init(evt) {
  if ( window.svgDocument == null ) {
    svgDocument = evt.target.ownerDocument;
  }
}

function RectHover(evt, i, c) {
  rect = svgDocument.getElementById('rect' + i);
  if( c != null ) {
    rect.setAttributeNS(null, "fill", c)  
  }
  tooltiptext = svgDocument.getElementById('tooltiptext' + i);
  tooltipbg = svgDocument.getElementById('tooltipbg' + i);
  if( tooltipbg != null) {
    tbb = tooltiptext.getBBox();
    tooltipbg.setAttributeNS(null, "width", tbb.width);
    tooltipbg.setAttributeNS(null, "height", tbb.height);
    tooltipbg.setAttributeNS(null, "x", tbb.x);
    tooltipbg.setAttributeNS(null, "y", tbb.y);
    tooltipbg.setAttributeNS(null, "visibility", "visible");
  }
  tooltiptext.setAttributeNS(null,"visibility","visible");
}

function RectUnhover(evt, i, c) {
  rect = svgDocument.getElementById('rect' + i);
  if( c != null ) {
    rect.setAttributeNS(null, "fill", c)  
  }
  tooltiptext = svgDocument.getElementById('tooltiptext' + i);
  tooltiptext.setAttributeNS(null,"visibility","hidden");
  tooltipbg = svgDocument.getElementById('tooltipbg' + i);
  if( tooltipbg != null ) {
    tooltipbg.setAttributeNS(null,"visibility","hidden");
  }
}
]]></script>
      <line x1="50.0" y1="550.0" x2="550.0" y2="550.0" stroke="rgb(0,0,0)" stroke-width="1"/><line x1="50.0" y1="550.0" x2="50.0" y2="50.0" stroke="rgb(0,0,0)" stroke-width="1"/><line x1="50.0" y1="550.0" x2="50.0" y2="50.0" stroke="rgb(192,192,192)" stroke-width="1"/><line x1="50.0" y1="548.0" x2="50.0" y2="552.0" stroke="rgb(192,192,192)" stroke-width="1"/><text text-anchor="middle" alignment-baseline="hanging" x="50.0" y="553.0" font-size="12.0">0</text><line x1="100.5050505050505" y1="550.0" x2="100.5050505050505" y2="50.0" stroke="rgb(192,192,192)" stroke-width="1"/><line x1="100.5050505050505" y1="548.0" x2="100.5050505050505" y2="552.0" stroke="rgb(192,192,192)" stroke-width="1"/><text text-anchor="middle" alignment-baseline="hanging" x="100.5050505050505" y="553.0" font-size="12.0">10</text><line x1="151.010101010101" y1="550.0" x2="151.010101010101" y2="50.0" stroke="rgb(192,192,192)" stroke-width="1"/><line x1="151.010101010101" y1="548.0" x2="151.010101010101" y2="552.0" stroke="rgb(192,192,192)" stroke-width="1"/><text text-anchor="middle" alignment-baseline="hanging" x="151.010101010101" y="553.0" font-size="12.0">20</text><line x1="201.51515151515153" y1="550.0" x2="201.51515151515153" y2="50.0" stroke="rgb(192,192,192)" stroke-width="1"/><line x1="201.51515151515153" y1="548.0" x2="201.51515151515153" y2="552.0" stroke="rgb(192,192,192)" stroke-width="1"/><text text-anchor="middle" alignment-baseline="hanging" x="201.51515151515153" y="553.0" font-size="12.0">30</text><line x1="252.02020202020202" y1="550.0" x2="252.02020202020202" y2="50.0" stroke="rgb(192,192,192)" stroke-width="1"/><line x1="252.02020202020202" y1="548.0" x2="252.02020202020202" y2="552.0" stroke="rgb(192,192,192)" stroke-width="1"/><text text-anchor="middle" alignment-baseline="hanging" x="252.02020202020202" y="553.0" font-size="12.0">40</text><line x1="302.52525252525254" y1="550.0" x2="302.52525252525254" y2="50.0" stroke="rgb(192,192,192)" stroke-width="1"/><line x1="302.52525252525254" y1="548.0" x2="302.52525252525254" y2="552.0" stroke="rgb(192,192,192)" stroke-width="1"/><text text-anchor="middle" alignment-baseline="hanging" x="302.52525252525254" y="553.0" font-size="12.0">50</text><line x1="353.03030303030306" y1="550.0" x2="353.03030303030306" y2="50.0" stroke="rgb(192,192,192)" stroke-width="1"/><line x1="353.03030303030306" y1="548.0" x2="353.03030303030306" y2="552.0" stroke="rgb(192,192,192)" stroke-width="1"/><text text-anchor="middle" alignment-baseline="hanging" x="353.03030303030306" y="553.0" font-size="12.0">60</text><line x1="403.5353535353535" y1="550.0" x2="403.5353535353535" y2="50.0" stroke="rgb(192,192,192)" stroke-width="1"/><line x1="403.5353535353535" y1="548.0" x2="403.5353535353535" y2="552.0" stroke="rgb(192,192,192)" stroke-width="1"/><text text-anchor="middle" alignment-baseline="hanging" x="403.5353535353535" y="553.0" font-size="12.0">70</text><line x1="454.04040404040404" y1="550.0" x2="454.04040404040404" y2="50.0" stroke="rgb(192,192,192)" stroke-width="1"/><line x1="454.04040404040404" y1="548.0" x2="454.04040404040404" y2="552.0" stroke="rgb(192,192,192)" stroke-width="1"/><text text-anchor="middle" alignment-baseline="hanging" x="454.04040404040404" y="553.0" font-size="12.0">80</text><line x1="504.5454545454545" y1="550.0" x2="504.5454545454545" y2="50.0" stroke="rgb(192,192,192)" stroke-width="1"/><line x1="504.5454545454545" y1="548.0" x2="504.5454545454545" y2="552.0" stroke="rgb(192,192,192)" stroke-width="1"/><text text-anchor="middle" alignment-baseline="hanging" x="504.5454545454545" y="553.0" font-size="12.0">90</text><line x1="50.0" y1="550.0" x2="550.0" y2="550.0" stroke="rgb(192,192,192)" stroke-width="1"/><text text-anchor="end" alignment-baseline="middle" x="45.0" y="550.0" font-size="12.0">0.0</text><line x1="48.0" y1="550.0" x2="52.0" y2="550.0" stroke="rgb(192,192,192)" stroke-width="1"/><line x1="50.0" y1="367.93115889941714" x2="550.0" y2="367.93115889941714" stroke="rgb(192,192,192)" stroke-width="1"/><text text-anchor="end" alignment-baseline="middle" x="45.0" y="367.93115889941714" font-size="12.0">1000.0</text><line x1="48.0" y1="367.93115889941714" x2="52.0" y2="367.93115889941714" stroke="rgb(192,192,192)" stroke-width="1"/><line x1="50.0" y1="185.86231779883428" x2="550.0" y2="185.86231779883428" stroke="rgb(192,192,192)" stroke-width="1"/><text text-anchor="end" alignment-baseline="middle" x="45.0" y="185.86231779883428" font-size="12.0">2000.0</text><line x1="48.0" y1="185.86231779883428" x2="52.0" y2="185.86231779883428" stroke="rgb(192,192,192)" stroke-width="1"/><polyline points="50.0,433.022263105023 55.05050505050505,431.60799415590304 60.101010101010104,425.0065948755695 65.15151515151516,390.39108464821277 70.20202020202021,391.10864575745455 75.25252525252526,378.5403401647291 80.30303030303031,431.4839149476401 85.35353535353535,431.60145826337236 90.40404040404042,416.6575523422912 95.45454545454545,377.9415445269432 100.5050505050505,168.5480944306475 105.55555555555554,98.76920233544018 110.60606060606061,240.8778850788151 115.65656565656566,360.014860356879 120.7070707070707,278.30306136127575 125.75757575757576,383.908322235795 130.80808080808083,276.5746011326441 135.85858585858585,387.92880217711286 140.9090909090909,188.5905457968355 145.95959595959596,325.88938225351376 151.010101010101,324.7448401578255 156.06060606060606,342.35036528612216 161.1111111111111,325.78274123433386 166.16161616161617,366.6419809233386 171.21212121212122,418.8773308280203 176.26262626262627,320.98661540559897 181.31313131313132,213.9699031073053 186.36363636363635,213.79130873526185 191.4141414141414,210.08353750516397 196.46464646464648,414.2748317556699 201.51515151515153,396.0679476456116 206.56565656565658,389.38815563100644 211.61616161616163,390.1146784213985 216.66666666666666,388.57833578825694 221.7171717171717,391.74007953798616 226.76767676767676,346.5280190886723 231.8181818181818,234.32597596662606 236.86868686868686,268.17102864265496 241.91919191919192,376.89723209583053 246.96969696969697,378.68106450831306 252.02020202020202,378.16795934664697 257.07070707070704,376.70568710236284 262.1212121212121,320.4399034868653 267.1717171717172,332.8991878748093 272.2222222222222,402.1963078163408 277.27272727272725,402.1963078163408 282.32323232323233,402.81609598921773 287.3737373737374,405.0537296034887 292.42424242424244,330.88672377476485 297.47474747474746,408.93393054594617 302.52525252525254,367.61558941206937 307.57575757575756,406.16556013036643 312.62626262626264,337.09925966001674 317.67676767676767,405.8145066464187 322.7272727272727,356.72903115366194 327.77777777777777,386.5019390258011 332.8282828282828,288.3294129845616 337.8787878787879,288.2741837888176 342.92929292929296,339.6418542187428 347.979797979798,330.7519094007971 353.03030303030306,347.7969045947567 358.0808080808081,367.45001534523396 363.13131313131316,367.474864207907 368.1818181818182,317.5536028274105 373.23232323232327,369.64072085126054 378.2828282828283,413.2569540842708 383.3333333333333,413.2569540842708 388.3838383838384,414.4340078304409 393.4343434343434,361.28372638060233 398.4848484848485,361.28372638060233 403.5353535353535,358.3351206323006 408.58585858585855,381.1261158899074 413.6363636363636,381.53600155389864 418.68686868686865,390.3767003485243 423.73737373737373,375.72019024167196 428.7878787878788,286.3735768426801 433.83838383838383,362.1688583386141 438.8888888888889,388.65606397049226 443.93939393939394,326.6897785828835 448.989898989899,311.3809464036278 454.04040404040404,390.139177133206 459.0909090909091,389.4582574002645 464.14141414141415,397.5360365164378 469.19191919191917,370.0559749795282 474.24242424242425,330.96312955862663 479.2929292929293,255.65559566023023 484.34343434343435,263.5844601703339 489.3939393939394,261.264754648406 494.4444444444444,422.7057310453457 499.4949494949495,422.6374153904727 504.5454545454545,345.5140158856972 509.59595959595964,346.5220745937997 514.6464646464647,345.3515853145983 519.6969696969697,409.1401457913971 524.7474747474748,410.47788798582087 529.7979797979798,246.18339796183807 534.8484848484849,300.8457521104376 539.8989898989898,411.3692369227987 544.9494949494949,411.3358739290956 550.0,380.37090751473113" fill="none" stroke="rgb(0,0,0)" stroke-width="1"/><circle cx="50.0" cy="433.022263105023" r="2" fill="rgb(0,0,0)"/><circle cx="55.05050505050505" cy="431.60799415590304" r="2" fill="rgb(0,0,0)"/><circle cx="60.101010101010104" cy="425.0065948755695" r="2" fill="rgb(0,0,0)"/><circle cx="65.15151515151516" cy="390.39108464821277" r="2" fill="rgb(0,0,0)"/><circle cx="70.20202020202021" cy="391.10864575745455" r="2" fill="rgb(0,0,0)"/><circle cx="75.25252525252526" cy="378.5403401647291" r="2" fill="rgb(0,0,0)"/><circle cx="80.30303030303031" cy="431.4839149476401" r="2" fill="rgb(0,0,0)"/><circle cx="85.35353535353535" cy="431.60145826337236" r="2" fill="rgb(0,0,0)"/><circle cx="90.40404040404042" cy="416.6575523422912" r="2" fill="rgb(0,0,0)"/><circle cx="95.45454545454545" cy="377.9415445269432" r="2" fill="rgb(0,0,0)"/><circle cx="100.5050505050505" cy="168.5480944306475" r="2" fill="rgb(0,0,0)"/><circle cx="105.55555555555554" cy="98.76920233544018" r="2" fill="rgb(0,0,0)"/><circle cx="110.60606060606061" cy="240.8778850788151" r="2" fill="rgb(0,0,0)"/><circle cx="115.65656565656566" cy="360.014860356879" r="2" fill="rgb(0,0,0)"/><circle cx="120.7070707070707" cy="278.30306136127575" r="2" fill="rgb(0,0,0)"/><circle cx="125.75757575757576" cy="383.908322235795" r="2" fill="rgb(0,0,0)"/><circle cx="130.80808080808083" cy="276.5746011326441" r="2" fill="rgb(0,0,0)"/><circle cx="135.85858585858585" cy="387.92880217711286" r="2" fill="rgb(0,0,0)"/><circle cx="140.9090909090909" cy="188.5905457968355" r="2" fill="rgb(0,0,0)"/><circle cx="145.95959595959596" cy="325.88938225351376" r="2" fill="rgb(0,0,0)"/><circle cx="151.010101010101" cy="324.7448401578255" r="2" fill="rgb(0,0,0)"/><circle cx="156.06060606060606" cy="342.35036528612216" r="2" fill="rgb(0,0,0)"/><circle cx="161.1111111111111" cy="325.78274123433386" r="2" fill="rgb(0,0,0)"/><circle cx="166.16161616161617" cy="366.6419809233386" r="2" fill="rgb(0,0,0)"/><circle cx="171.21212121212122" cy="418.8773308280203" r="2" fill="rgb(0,0,0)"/><circle cx="176.26262626262627" cy="320.98661540559897" r="2" fill="rgb(0,0,0)"/><circle cx="181.31313131313132" cy="213.9699031073053" r="2" fill="rgb(0,0,0)"/><circle cx="186.36363636363635" cy="213.79130873526185" r="2" fill="rgb(0,0,0)"/><circle cx="191.4141414141414" cy="210.08353750516397" r="2" fill="rgb(0,0,0)"/><circle cx="196.46464646464648" cy="414.2748317556699" r="2" fill="rgb(0,0,0)"/><circle cx="201.51515151515153" cy="396.0679476456116" r="2" fill="rgb(0,0,0)"/><circle cx="206.56565656565658" cy="389.38815563100644" r="2" fill="rgb(0,0,0)"/><circle cx="211.61616161616163" cy="390.1146784213985" r="2" fill="rgb(0,0,0)"/><circle cx="216.66666666666666" cy="388.57833578825694" r="2" fill="rgb(0,0,0)"/><circle cx="221.7171717171717" cy="391.74007953798616" r="2" fill="rgb(0,0,0)"/><circle cx="226.76767676767676" cy="346.5280190886723" r="2" fill="rgb(0,0,0)"/><circle cx="231.8181818181818" cy="234.32597596662606" r="2" fill="rgb(0,0,0)"/><circle cx="236.86868686868686" cy="268.17102864265496" r="2" fill="rgb(0,0,0)"/><circle cx="241.91919191919192" cy="376.89723209583053" r="2" fill="rgb(0,0,0)"/><circle cx="246.96969696969697" cy="378.68106450831306" r="2" fill="rgb(0,0,0)"/><circle cx="252.02020202020202" cy="378.16795934664697" r="2" fill="rgb(0,0,0)"/><circle cx="257.07070707070704" cy="376.70568710236284" r="2" fill="rgb(0,0,0)"/><circle cx="262.1212121212121" cy="320.4399034868653" r="2" fill="rgb(0,0,0)"/><circle cx="267.1717171717172" cy="332.8991878748093" r="2" fill="rgb(0,0,0)"/><circle cx="272.2222222222222" cy="402.1963078163408" r="2" fill="rgb(0,0,0)"/><circle cx="277.27272727272725" cy="402.1963078163408" r="2" fill="rgb(0,0,0)"/><circle cx="282.32323232323233" cy="402.81609598921773" r="2" fill="rgb(0,0,0)"/><circle cx="287.3737373737374" cy="405.0537296034887" r="2" fill="rgb(0,0,0)"/><circle cx="292.42424242424244" cy="330.88672377476485" r="2" fill="rgb(0,0,0)"/><circle cx="297.47474747474746" cy="408.93393054594617" r="2" fill="rgb(0,0,0)"/><circle cx="302.52525252525254" cy="367.61558941206937" r="2" fill="rgb(0,0,0)"/><circle cx="307.57575757575756" cy="406.16556013036643" r="2" fill="rgb(0,0,0)"/><circle cx="312.62626262626264" cy="337.09925966001674" r="2" fill="rgb(0,0,0)"/><circle cx="317.67676767676767" cy="405.8145066464187" r="2" fill="rgb(0,0,0)"/><circle cx="322.7272727272727" cy="356.72903115366194" r="2" fill="rgb(0,0,0)"/><circle cx="327.77777777777777" cy="386.5019390258011" r="2" fill="rgb(0,0,0)"/><circle cx="332.8282828282828" cy="288.3294129845616" r="2" fill="rgb(0,0,0)"/><circle cx="337.8787878787879" cy="288.2741837888176" r="2" fill="rgb(0,0,0)"/><circle cx="342.92929292929296" cy="339.6418542187428" r="2" fill="rgb(0,0,0)"/><circle cx="347.979797979798" cy="330.7519094007971" r="2" fill="rgb(0,0,0)"/><circle cx="353.03030303030306" cy="347.7969045947567" r="2" fill="rgb(0,0,0)"/><circle cx="358.0808080808081" cy="367.45001534523396" r="2" fill="rgb(0,0,0)"/><circle cx="363.13131313131316" cy="367.474864207907" r="2" fill="rgb(0,0,0)"/><circle cx="368.1818181818182" cy="317.5536028274105" r="2" fill="rgb(0,0,0)"/><circle cx="373.23232323232327" cy="369.64072085126054" r="2" fill="rgb(0,0,0)"/><circle cx="378.2828282828283" cy="413.2569540842708" r="2" fill="rgb(0,0,0)"/><circle cx="383.3333333333333" cy="413.2569540842708" r="2" fill="rgb(0,0,0)"/><circle cx="388.3838383838384" cy="414.4340078304409" r="2" fill="rgb(0,0,0)"/><circle cx="393.4343434343434" cy="361.28372638060233" r="2" fill="rgb(0,0,0)"/><circle cx="398.4848484848485" cy="361.28372638060233" r="2" fill="rgb(0,0,0)"/><circle cx="403.5353535353535" cy="358.3351206323006" r="2" fill="rgb(0,0,0)"/><circle cx="408.58585858585855" cy="381.1261158899074" r="2" fill="rgb(0,0,0)"/><circle cx="413.6363636363636" cy="381.53600155389864" r="2" fill="rgb(0,0,0)"/><circle cx="418.68686868686865" cy="390.3767003485243" r="2" fill="rgb(0,0,0)"/><circle cx="423.73737373737373" cy="375.72019024167196" r="2" fill="rgb(0,0,0)"/><circle cx="428.7878787878788" cy="286.3735768426801" r="2" fill="rgb(0,0,0)"/><circle cx="433.83838383838383" cy="362.1688583386141" r="2" fill="rgb(0,0,0)"/><circle cx="438.8888888888889" cy="388.65606397049226" r="2" fill="rgb(0,0,0)"/><circle cx="443.93939393939394" cy="326.6897785828835" r="2" fill="rgb(0,0,0)"/><circle cx="448.989898989899" cy="311.3809464036278" r="2" fill="rgb(0,0,0)"/><circle cx="454.04040404040404" cy="390.139177133206" r="2" fill="rgb(0,0,0)"/><circle cx="459.0909090909091" cy="389.4582574002645" r="2" fill="rgb(0,0,0)"/><circle cx="464.14141414141415" cy="397.5360365164378" r="2" fill="rgb(0,0,0)"/><circle cx="469.19191919191917" cy="370.0559749795282" r="2" fill="rgb(0,0,0)"/><circle cx="474.24242424242425" cy="330.96312955862663" r="2" fill="rgb(0,0,0)"/><circle cx="479.2929292929293" cy="255.65559566023023" r="2" fill="rgb(0,0,0)"/><circle cx="484.34343434343435" cy="263.5844601703339" r="2" fill="rgb(0,0,0)"/><circle cx="489.3939393939394" cy="261.264754648406" r="2" fill="rgb(0,0,0)"/><circle cx="494.4444444444444" cy="422.7057310453457" r="2" fill="rgb(0,0,0)"/><circle cx="499.4949494949495" cy="422.6374153904727" r="2" fill="rgb(0,0,0)"/><circle cx="504.5454545454545" cy="345.5140158856972" r="2" fill="rgb(0,0,0)"/><circle cx="509.59595959595964" cy="346.5220745937997" r="2" fill="rgb(0,0,0)"/><circle cx="514.6464646464647" cy="345.3515853145983" r="2" fill="rgb(0,0,0)"/><circle cx="519.6969696969697" cy="409.1401457913971" r="2" fill="rgb(0,0,0)"/><circle cx="524.7474747474748" cy="410.47788798582087" r="2" fill="rgb(0,0,0)"/><circle cx="529.7979797979798" cy="246.18339796183807" r="2" fill="rgb(0,0,0)"/><circle cx="534.8484848484849" cy="300.8457521104376" r="2" fill="rgb(0,0,0)"/><circle cx="539.8989898989898" cy="411.3692369227987" r="2" fill="rgb(0,0,0)"/><circle cx="544.9494949494949" cy="411.3358739290956" r="2" fill="rgb(0,0,0)"/><circle cx="550.0" cy="380.37090751473113" r="2" fill="rgb(0,0,0)"/><polyline points="50.0,206.80715687154566 55.05050505050505,190.9879978386213 60.101010101010104,167.93520379451058 65.15151515151516,143.19087968415857 70.20202020202021,133.23116939272182 75.25252525252526,114.87899411179887 80.30303030303031,107.81960678778404 85.35353535353535,99.30314740574636 90.40404040404042,90.43653258557333 95.45454545454545,87.94804442272641 100.5050505050505,80.52610155836874 105.55555555555554,77.43384197401645 110.60606060606061,79.37879509381605 115.65656565656566,80.77424890957423 120.7070707070707,82.19992277960682 125.75757575757576,83.06425306335234 130.80808080808083,78.50133602967742 135.85858585858585,85.22098924897023 140.9090909090909,73.91071050987847 145.95959595959596,81.83445967565154 151.010101010101,78.30521823076816 156.06060606060606,84.4854586022962 161.1111111111111,84.60475124545133 166.16161616161617,79.09826555873553 171.21212121212122,80.8268549562319 176.26262626262627,77.66169073772954 181.31313131313132,73.83112279332994 186.36363636363635,73.69110796659095 191.4141414141414,71.1355707610619 196.46464646464648,77.05439892034593 201.51515151515153,77.48606195488435 206.56565656565658,75.11319064886135 211.61616161616163,81.4293467973933 216.66666666666666,79.59250073222228 221.7171717171717,85.83561540246785 226.76767676767676,78.96849426360643 231.8181818181818,70.19055337789422 236.86868686868686,70.06256263655337 241.91919191919192,70.49510211565229 246.96969696969697,74.29887650559425 252.02020202020202,79.82919994613468 257.07070707070704,84.82334135747561 262.1212121212121,76.25038657770898 267.1717171717172,80.99089002016188 272.2222222222222,83.184026018054 277.27272727272725,82.43555051405838 282.32323232323233,85.05962432586944 287.3737373737374,72.70534542251045 292.42424242424244,63.8098985772138 297.47474747474746,66.21657813924179 302.52525252525254,67.8781824485153 307.57575757575756,66.27773990441733 312.62626262626264,57.93945582459605 317.67676767676767,67.39215750136492 322.7272727272727,69.36719376449679 327.77777777777777,61.72623071573571 332.8282828282828,58.15045394216287 337.8787878787879,56.41173637420735 342.92929292929296,61.111605611044354 347.979797979798,64.15701623113125 353.03030303030306,64.92769800063257 358.0808080808081,60.452504813038104 363.13131313131316,63.17296114347545 368.1818181818182,68.6725193853328 373.23232323232327,64.56509848001707 378.2828282828283,76.02581462675892 383.3333333333333,84.82381674016995 388.3838383838384,90.54929344128698 393.4343434343434,79.64373553132896 398.4848484848485,71.760904948789 403.5353535353535,61.31311391614764 408.58585858585855,56.9418641717275 413.6363636363636,57.269425526528266 418.68686868686865,63.19811697661362 423.73737373737373,65.78982045674286 428.7878787878788,56.72613799995497 433.83838383838383,58.9365971962589 438.8888888888889,59.574089013942455 443.93939393939394,58.935446026159354 448.989898989899,60.897318643015126 454.04040404040404,58.320692825999174 459.0909090909091,59.59622901563728 464.14141414141415,62.471599251373846 469.19191919191917,57.24875392104764 474.24242424242425,56.1791478564557 479.2929292929293,56.415010240313336 484.34343434343435,58.5827123948128 489.3939393939394,61.036557500157414 494.4444444444444,71.62932400323592 499.4949494949495,67.03591396256945 504.5454545454545,68.89245518724601 509.59595959595964,60.04208439115149 514.6464646464647,64.54098171586418 519.6969696969697,67.9992494726979 524.7474747474748,73.01990193417839 529.7979797979798,65.98475043828006 534.8484848484849,63.562695713709445 539.8989898989898,66.83446553695399 544.9494949494949,64.26624584650443 550.0,65.58291097888656" fill="none" stroke="rgb(0,0,255)" stroke-width="1"/><circle cx="50.0" cy="206.80715687154566" r="2" fill="rgb(0,0,255)"/><circle cx="55.05050505050505" cy="190.9879978386213" r="2" fill="rgb(0,0,255)"/><circle cx="60.101010101010104" cy="167.93520379451058" r="2" fill="rgb(0,0,255)"/><circle cx="65.15151515151516" cy="143.19087968415857" r="2" fill="rgb(0,0,255)"/><circle cx="70.20202020202021" cy="133.23116939272182" r="2" fill="rgb(0,0,255)"/><circle cx="75.25252525252526" cy="114.87899411179887" r="2" fill="rgb(0,0,255)"/><circle cx="80.30303030303031" cy="107.81960678778404" r="2" fill="rgb(0,0,255)"/><circle cx="85.35353535353535" cy="99.30314740574636" r="2" fill="rgb(0,0,255)"/><circle cx="90.40404040404042" cy="90.43653258557333" r="2" fill="rgb(0,0,255)"/><circle cx="95.45454545454545" cy="87.94804442272641" r="2" fill="rgb(0,0,255)"/><circle cx="100.5050505050505" cy="80.52610155836874" r="2" fill="rgb(0,0,255)"/><circle cx="105.55555555555554" cy="77.43384197401645" r="2" fill="rgb(0,0,255)"/><circle cx="110.60606060606061" cy="79.37879509381605" r="2" fill="rgb(0,0,255)"/><circle cx="115.65656565656566" cy="80.77424890957423" r="2" fill="rgb(0,0,255)"/><circle cx="120.7070707070707" cy="82.19992277960682" r="2" fill="rgb(0,0,255)"/><circle cx="125.75757575757576" cy="83.06425306335234" r="2" fill="rgb(0,0,255)"/><circle cx="130.80808080808083" cy="78.50133602967742" r="2" fill="rgb(0,0,255)"/><circle cx="135.85858585858585" cy="85.22098924897023" r="2" fill="rgb(0,0,255)"/><circle cx="140.9090909090909" cy="73.91071050987847" r="2" fill="rgb(0,0,255)"/><circle cx="145.95959595959596" cy="81.83445967565154" r="2" fill="rgb(0,0,255)"/><circle cx="151.010101010101" cy="78.30521823076816" r="2" fill="rgb(0,0,255)"/><circle cx="156.06060606060606" cy="84.4854586022962" r="2" fill="rgb(0,0,255)"/><circle cx="161.1111111111111" cy="84.60475124545133" r="2" fill="rgb(0,0,255)"/><circle cx="166.16161616161617" cy="79.09826555873553" r="2" fill="rgb(0,0,255)"/><circle cx="171.21212121212122" cy="80.8268549562319" r="2" fill="rgb(0,0,255)"/><circle cx="176.26262626262627" cy="77.66169073772954" r="2" fill="rgb(0,0,255)"/><circle cx="181.31313131313132" cy="73.83112279332994" r="2" fill="rgb(0,0,255)"/><circle cx="186.36363636363635" cy="73.69110796659095" r="2" fill="rgb(0,0,255)"/><circle cx="191.4141414141414" cy="71.1355707610619" r="2" fill="rgb(0,0,255)"/><circle cx="196.46464646464648" cy="77.05439892034593" r="2" fill="rgb(0,0,255)"/><circle cx="201.51515151515153" cy="77.48606195488435" r="2" fill="rgb(0,0,255)"/><circle cx="206.56565656565658" cy="75.11319064886135" r="2" fill="rgb(0,0,255)"/><circle cx="211.61616161616163" cy="81.4293467973933" r="2" fill="rgb(0,0,255)"/><circle cx="216.66666666666666" cy="79.59250073222228" r="2" fill="rgb(0,0,255)"/><circle cx="221.7171717171717" cy="85.83561540246785" r="2" fill="rgb(0,0,255)"/><circle cx="226.76767676767676" cy="78.96849426360643" r="2" fill="rgb(0,0,255)"/><circle cx="231.8181818181818" cy="70.19055337789422" r="2" fill="rgb(0,0,255)"/><circle cx="236.86868686868686" cy="70.06256263655337" r="2" fill="rgb(0,0,255)"/><circle cx="241.91919191919192" cy="70.49510211565229" r="2" fill="rgb(0,0,255)"/><circle cx="246.96969696969697" cy="74.29887650559425" r="2" fill="rgb(0,0,255)"/><circle cx="252.02020202020202" cy="79.82919994613468" r="2" fill="rgb(0,0,255)"/><circle cx="257.07070707070704" cy="84.82334135747561" r="2" fill="rgb(0,0,255)"/><circle cx="262.1212121212121" cy="76.25038657770898" r="2" fill="rgb(0,0,255)"/><circle cx="267.1717171717172" cy="80.99089002016188" r="2" fill="rgb(0,0,255)"/><circle cx="272.2222222222222" cy="83.184026018054" r="2" fill="rgb(0,0,255)"/><circle cx="277.27272727272725" cy="82.43555051405838" r="2" fill="rgb(0,0,255)"/><circle cx="282.32323232323233" cy="85.05962432586944" r="2" fill="rgb(0,0,255)"/><circle cx="287.3737373737374" cy="72.70534542251045" r="2" fill="rgb(0,0,255)"/><circle cx="292.42424242424244" cy="63.8098985772138" r="2" fill="rgb(0,0,255)"/><circle cx="297.47474747474746" cy="66.21657813924179" r="2" fill="rgb(0,0,255)"/><circle cx="302.52525252525254" cy="67.8781824485153" r="2" fill="rgb(0,0,255)"/><circle cx="307.57575757575756" cy="66.27773990441733" r="2" fill="rgb(0,0,255)"/><circle cx="312.62626262626264" cy="57.93945582459605" r="2" fill="rgb(0,0,255)"/><circle cx="317.67676767676767" cy="67.39215750136492" r="2" fill="rgb(0,0,255)"/><circle cx="322.7272727272727" cy="69.36719376449679" r="2" fill="rgb(0,0,255)"/><circle cx="327.77777777777777" cy="61.72623071573571" r="2" fill="rgb(0,0,255)"/><circle cx="332.8282828282828" cy="58.15045394216287" r="2" fill="rgb(0,0,255)"/><circle cx="337.8787878787879" cy="56.41173637420735" r="2" fill="rgb(0,0,255)"/><circle cx="342.92929292929296" cy="61.111605611044354" r="2" fill="rgb(0,0,255)"/><circle cx="347.979797979798" cy="64.15701623113125" r="2" fill="rgb(0,0,255)"/><circle cx="353.03030303030306" cy="64.92769800063257" r="2" fill="rgb(0,0,255)"/><circle cx="358.0808080808081" cy="60.452504813038104" r="2" fill="rgb(0,0,255)"/><circle cx="363.13131313131316" cy="63.17296114347545" r="2" fill="rgb(0,0,255)"/><circle cx="368.1818181818182" cy="68.6725193853328" r="2" fill="rgb(0,0,255)"/><circle cx="373.23232323232327" cy="64.56509848001707" r="2" fill="rgb(0,0,255)"/><circle cx="378.2828282828283" cy="76.02581462675892" r="2" fill="rgb(0,0,255)"/><circle cx="383.3333333333333" cy="84.82381674016995" r="2" fill="rgb(0,0,255)"/><circle cx="388.3838383838384" cy="90.54929344128698" r="2" fill="rgb(0,0,255)"/><circle cx="393.4343434343434" cy="79.64373553132896" r="2" fill="rgb(0,0,255)"/><circle cx="398.4848484848485" cy="71.760904948789" r="2" fill="rgb(0,0,255)"/><circle cx="403.5353535353535" cy="61.31311391614764" r="2" fill="rgb(0,0,255)"/><circle cx="408.58585858585855" cy="56.9418641717275" r="2" fill="rgb(0,0,255)"/><circle cx="413.6363636363636" cy="57.269425526528266" r="2" fill="rgb(0,0,255)"/><circle cx="418.68686868686865" cy="63.19811697661362" r="2" fill="rgb(0,0,255)"/><circle cx="423.73737373737373" cy="65.78982045674286" r="2" fill="rgb(0,0,255)"/><circle cx="428.7878787878788" cy="56.72613799995497" r="2" fill="rgb(0,0,255)"/><circle cx="433.83838383838383" cy="58.9365971962589" r="2" fill="rgb(0,0,255)"/><circle cx="438.8888888888889" cy="59.574089013942455" r="2" fill="rgb(0,0,255)"/><circle cx="443.93939393939394" cy="58.935446026159354" r="2" fill="rgb(0,0,255)"/><circle cx="448.989898989899" cy="60.897318643015126" r="2" fill="rgb(0,0,255)"/><circle cx="454.04040404040404" cy="58.320692825999174" r="2" fill="rgb(0,0,255)"/><circle cx="459.0909090909091" cy="59.59622901563728" r="2" fill="rgb(0,0,255)"/><circle cx="464.14141414141415" cy="62.471599251373846" r="2" fill="rgb(0,0,255)"/><circle cx="469.19191919191917" cy="57.24875392104764" r="2" fill="rgb(0,0,255)"/><circle cx="474.24242424242425" cy="56.1791478564557" r="2" fill="rgb(0,0,255)"/><circle cx="479.2929292929293" cy="56.415010240313336" r="2" fill="rgb(0,0,255)"/><circle cx="484.34343434343435" cy="58.5827123948128" r="2" fill="rgb(0,0,255)"/><circle cx="489.3939393939394" cy="61.036557500157414" r="2" fill="rgb(0,0,255)"/><circle cx="494.4444444444444" cy="71.62932400323592" r="2" fill="rgb(0,0,255)"/><circle cx="499.4949494949495" cy="67.03591396256945" r="2" fill="rgb(0,0,255)"/><circle cx="504.5454545454545" cy="68.89245518724601" r="2" fill="rgb(0,0,255)"/><circle cx="509.59595959595964" cy="60.04208439115149" r="2" fill="rgb(0,0,255)"/><circle cx="514.6464646464647" cy="64.54098171586418" r="2" fill="rgb(0,0,255)"/><circle cx="519.6969696969697" cy="67.9992494726979" r="2" fill="rgb(0,0,255)"/><circle cx="524.7474747474748" cy="73.01990193417839" r="2" fill="rgb(0,0,255)"/><circle cx="529.7979797979798" cy="65.98475043828006" r="2" fill="rgb(0,0,255)"/><circle cx="534.8484848484849" cy="63.562695713709445" r="2" fill="rgb(0,0,255)"/><circle cx="539.8989898989898" cy="66.83446553695399" r="2" fill="rgb(0,0,255)"/><circle cx="544.9494949494949" cy="64.26624584650443" r="2" fill="rgb(0,0,255)"/><circle cx="550.0" cy="65.58291097888656" r="2" fill="rgb(0,0,255)"/><polyline points="50.0,55.35327192522931 55.05050505050505,68.74316396838373 60.101010101010104,69.47308664388675 65.15151515151516,68.94450620699217 70.20202020202021,69.91812423577232 75.25252525252526,67.0630617386663 80.30303030303031,68.24747655207756 85.35353535353535,69.4404571801308 90.40404040404042,68.58241454649493 95.45454545454545,65.06557434982489 100.5050505050505,69.16930137106021 105.55555555555554,68.5573005103638 110.60606060606061,68.77191188635157 115.65656565656566,58.17792933981144 120.7070707070707,57.898826387519875 125.75757575757576,68.35158257697651 130.80808080808083,67.3218604368887 135.85858585858585,66.71995157865098 140.9090909090909,66.68128105892515 145.95959595959596,66.58948102214504 151.010101010101,66.87281409262658 156.06060606060606,66.34829105411706 161.1111111111111,66.42127753583304 166.16161616161617,66.8173852530033 171.21212121212122,66.50943557818306 176.26262626262627,66.43664844514973 181.31313131313132,66.20732281663771 186.36363636363635,66.01845869055524 191.4141414141414,65.94447773836959 196.46464646464648,66.04389214075007 201.51515151515153,65.55422824042927 206.56565656565658,66.0904507472514 211.61616161616163,66.02137595334864 216.66666666666666,65.82610864787091 221.7171717171717,65.82610864787091 226.76767676767676,65.64863348733746 231.8181818181818,65.7603953430268 236.86868686868686,50.87653733802682 241.91919191919192,51.234977335803535 246.96969696969697,50.87653733802682 252.02020202020202,51.16179697864078 257.07070707070704,50.7585212659788 262.1212121212121,50.97721490896248 267.1717171717172,50.553441289838474 272.2222222222222,50.610558008253804 277.27272727272725,50.70045270304462 282.32323232323233,50.7585212659788 287.3737373737374,50.7585212659788 292.42424242424244,50.61364165767958 297.47474747474746,50.696021850847444 302.52525252525254,50.49318158157212 307.57575757575756,50.34721835032201 312.62626262626264,50.334747646854794 317.67676767676767,50.37620691930539 322.7272727272727,50.166549613889 327.77777777777777,50.261513013490685 332.8282828282828,50.261513013490685 337.8787878787879,50.22675698264038 342.92929292929296,50.20130564473931 347.979797979798,50.17231707575593 353.03030303030306,50.17231707575593 358.0808080808081,50.17231707575593 363.13131313131316,50.17231707575593 368.1818181818182,50.166549613889 373.23232323232327,50.17231707575593 378.2828282828283,50.12525198718191 383.3333333333333,50.12525198718191 388.3838383838384,50.12525198718191 393.4343434343434,50.12525198718191 398.4848484848485,50.12525198718191 403.5353535353535,50.12721633698959 408.58585858585855,50.10142940637019 413.6363636363636,50.10142940637019 418.68686868686865,50.10719686823717 423.73737373737373,50.065899241530076 428.7878787878788,50.065899241530076 433.83838383838383,50.065899241530076 438.8888888888889,50.09423003564666 443.93939393939394,50.131019449048836 448.989898989899,50.10719686823717 454.04040404040404,50.10142940637019 459.0909090909091,50.060131779663095 464.14141414141415,50.060131779663095 469.19191919191917,50.10142940637019 474.24242424242425,50.04344335576303 479.2929292929293,50.08474098247012 484.34343434343435,50.08474098247012 489.3939393939394,50.09050844433705 494.4444444444444,50.09050844433705 499.4949494949495,50.09050844433705 504.5454545454545,50.04344335576303 509.59595959595964,50.08474098247012 514.6464646464647,50.033196028748534 519.6969696969697,50.049210817629955 524.7474747474748,50.04344335576303 529.7979797979798,50.04344335576303 534.8484848484849,50.0 539.8989898989898,50.0 544.9494949494949,50.0 550.0,50.0" fill="none" stroke="rgb(0,255,0)" stroke-width="1"/><circle cx="50.0" cy="55.35327192522931" r="2" fill="rgb(0,255,0)"/><circle cx="55.05050505050505" cy="68.74316396838373" r="2" fill="rgb(0,255,0)"/><circle cx="60.101010101010104" cy="69.47308664388675" r="2" fill="rgb(0,255,0)"/><circle cx="65.15151515151516" cy="68.94450620699217" r="2" fill="rgb(0,255,0)"/><circle cx="70.20202020202021" cy="69.91812423577232" r="2" fill="rgb(0,255,0)"/><circle cx="75.25252525252526" cy="67.0630617386663" r="2" fill="rgb(0,255,0)"/><circle cx="80.30303030303031" cy="68.24747655207756" r="2" fill="rgb(0,255,0)"/><circle cx="85.35353535353535" cy="69.4404571801308" r="2" fill="rgb(0,255,0)"/><circle cx="90.40404040404042" cy="68.58241454649493" r="2" fill="rgb(0,255,0)"/><circle cx="95.45454545454545" cy="65.06557434982489" r="2" fill="rgb(0,255,0)"/><circle cx="100.5050505050505" cy="69.16930137106021" r="2" fill="rgb(0,255,0)"/><circle cx="105.55555555555554" cy="68.5573005103638" r="2" fill="rgb(0,255,0)"/><circle cx="110.60606060606061" cy="68.77191188635157" r="2" fill="rgb(0,255,0)"/><circle cx="115.65656565656566" cy="58.17792933981144" r="2" fill="rgb(0,255,0)"/><circle cx="120.7070707070707" cy="57.898826387519875" r="2" fill="rgb(0,255,0)"/><circle cx="125.75757575757576" cy="68.35158257697651" r="2" fill="rgb(0,255,0)"/><circle cx="130.80808080808083" cy="67.3218604368887" r="2" fill="rgb(0,255,0)"/><circle cx="135.85858585858585" cy="66.71995157865098" r="2" fill="rgb(0,255,0)"/><circle cx="140.9090909090909" cy="66.68128105892515" r="2" fill="rgb(0,255,0)"/><circle cx="145.95959595959596" cy="66.58948102214504" r="2" fill="rgb(0,255,0)"/><circle cx="151.010101010101" cy="66.87281409262658" r="2" fill="rgb(0,255,0)"/><circle cx="156.06060606060606" cy="66.34829105411706" r="2" fill="rgb(0,255,0)"/><circle cx="161.1111111111111" cy="66.42127753583304" r="2" fill="rgb(0,255,0)"/><circle cx="166.16161616161617" cy="66.8173852530033" r="2" fill="rgb(0,255,0)"/><circle cx="171.21212121212122" cy="66.50943557818306" r="2" fill="rgb(0,255,0)"/><circle cx="176.26262626262627" cy="66.43664844514973" r="2" fill="rgb(0,255,0)"/><circle cx="181.31313131313132" cy="66.20732281663771" r="2" fill="rgb(0,255,0)"/><circle cx="186.36363636363635" cy="66.01845869055524" r="2" fill="rgb(0,255,0)"/><circle cx="191.4141414141414" cy="65.94447773836959" r="2" fill="rgb(0,255,0)"/><circle cx="196.46464646464648" cy="66.04389214075007" r="2" fill="rgb(0,255,0)"/><circle cx="201.51515151515153" cy="65.55422824042927" r="2" fill="rgb(0,255,0)"/><circle cx="206.56565656565658" cy="66.0904507472514" r="2" fill="rgb(0,255,0)"/><circle cx="211.61616161616163" cy="66.02137595334864" r="2" fill="rgb(0,255,0)"/><circle cx="216.66666666666666" cy="65.82610864787091" r="2" fill="rgb(0,255,0)"/><circle cx="221.7171717171717" cy="65.82610864787091" r="2" fill="rgb(0,255,0)"/><circle cx="226.76767676767676" cy="65.64863348733746" r="2" fill="rgb(0,255,0)"/><circle cx="231.8181818181818" cy="65.7603953430268" r="2" fill="rgb(0,255,0)"/><circle cx="236.86868686868686" cy="50.87653733802682" r="2" fill="rgb(0,255,0)"/><circle cx="241.91919191919192" cy="51.234977335803535" r="2" fill="rgb(0,255,0)"/><circle cx="246.96969696969697" cy="50.87653733802682" r="2" fill="rgb(0,255,0)"/><circle cx="252.02020202020202" cy="51.16179697864078" r="2" fill="rgb(0,255,0)"/><circle cx="257.07070707070704" cy="50.7585212659788" r="2" fill="rgb(0,255,0)"/><circle cx="262.1212121212121" cy="50.97721490896248" r="2" fill="rgb(0,255,0)"/><circle cx="267.1717171717172" cy="50.553441289838474" r="2" fill="rgb(0,255,0)"/><circle cx="272.2222222222222" cy="50.610558008253804" r="2" fill="rgb(0,255,0)"/><circle cx="277.27272727272725" cy="50.70045270304462" r="2" fill="rgb(0,255,0)"/><circle cx="282.32323232323233" cy="50.7585212659788" r="2" fill="rgb(0,255,0)"/><circle cx="287.3737373737374" cy="50.7585212659788" r="2" fill="rgb(0,255,0)"/><circle cx="292.42424242424244" cy="50.61364165767958" r="2" fill="rgb(0,255,0)"/><circle cx="297.47474747474746" cy="50.696021850847444" r="2" fill="rgb(0,255,0)"/><circle cx="302.52525252525254" cy="50.49318158157212" r="2" fill="rgb(0,255,0)"/><circle cx="307.57575757575756" cy="50.34721835032201" r="2" fill="rgb(0,255,0)"/><circle cx="312.62626262626264" cy="50.334747646854794" r="2" fill="rgb(0,255,0)"/><circle cx="317.67676767676767" cy="50.37620691930539" r="2" fill="rgb(0,255,0)"/><circle cx="322.7272727272727" cy="50.166549613889" r="2" fill="rgb(0,255,0)"/><circle cx="327.77777777777777" cy="50.261513013490685" r="2" fill="rgb(0,255,0)"/><circle cx="332.8282828282828" cy="50.261513013490685" r="2" fill="rgb(0,255,0)"/><circle cx="337.8787878787879" cy="50.22675698264038" r="2" fill="rgb(0,255,0)"/><circle cx="342.92929292929296" cy="50.20130564473931" r="2" fill="rgb(0,255,0)"/><circle cx="347.979797979798" cy="50.17231707575593" r="2" fill="rgb(0,255,0)"/><circle cx="353.03030303030306" cy="50.17231707575593" r="2" fill="rgb(0,255,0)"/><circle cx="358.0808080808081" cy="50.17231707575593" r="2" fill="rgb(0,255,0)"/><circle cx="363.13131313131316" cy="50.17231707575593" r="2" fill="rgb(0,255,0)"/><circle cx="368.1818181818182" cy="50.166549613889" r="2" fill="rgb(0,255,0)"/><circle cx="373.23232323232327" cy="50.17231707575593" r="2" fill="rgb(0,255,0)"/><circle cx="378.2828282828283" cy="50.12525198718191" r="2" fill="rgb(0,255,0)"/><circle cx="383.3333333333333" cy="50.12525198718191" r="2" fill="rgb(0,255,0)"/><circle cx="388.3838383838384" cy="50.12525198718191" r="2" fill="rgb(0,255,0)"/><circle cx="393.4343434343434" cy="50.12525198718191" r="2" fill="rgb(0,255,0)"/><circle cx="398.4848484848485" cy="50.12525198718191" r="2" fill="rgb(0,255,0)"/><circle cx="403.5353535353535" cy="50.12721633698959" r="2" fill="rgb(0,255,0)"/><circle cx="408.58585858585855" cy="50.10142940637019" r="2" fill="rgb(0,255,0)"/><circle cx="413.6363636363636" cy="50.10142940637019" r="2" fill="rgb(0,255,0)"/><circle cx="418.68686868686865" cy="50.10719686823717" r="2" fill="rgb(0,255,0)"/><circle cx="423.73737373737373" cy="50.065899241530076" r="2" fill="rgb(0,255,0)"/><circle cx="428.7878787878788" cy="50.065899241530076" r="2" fill="rgb(0,255,0)"/><circle cx="433.83838383838383" cy="50.065899241530076" r="2" fill="rgb(0,255,0)"/><circle cx="438.8888888888889" cy="50.09423003564666" r="2" fill="rgb(0,255,0)"/><circle cx="443.93939393939394" cy="50.131019449048836" r="2" fill="rgb(0,255,0)"/><circle cx="448.989898989899" cy="50.10719686823717" r="2" fill="rgb(0,255,0)"/><circle cx="454.04040404040404" cy="50.10142940637019" r="2" fill="rgb(0,255,0)"/><circle cx="459.0909090909091" cy="50.060131779663095" r="2" fill="rgb(0,255,0)"/><circle cx="464.14141414141415" cy="50.060131779663095" r="2" fill="rgb(0,255,0)"/><circle cx="469.19191919191917" cy="50.10142940637019" r="2" fill="rgb(0,255,0)"/><circle cx="474.24242424242425" cy="50.04344335576303" r="2" fill="rgb(0,255,0)"/><circle cx="479.2929292929293" cy="50.08474098247012" r="2" fill="rgb(0,255,0)"/><circle cx="484.34343434343435" cy="50.08474098247012" r="2" fill="rgb(0,255,0)"/><circle cx="489.3939393939394" cy="50.09050844433705" r="2" fill="rgb(0,255,0)"/><circle cx="494.4444444444444" cy="50.09050844433705" r="2" fill="rgb(0,255,0)"/><circle cx="499.4949494949495" cy="50.09050844433705" r="2" fill="rgb(0,255,0)"/><circle cx="504.5454545454545" cy="50.04344335576303" r="2" fill="rgb(0,255,0)"/><circle cx="509.59595959595964" cy="50.08474098247012" r="2" fill="rgb(0,255,0)"/><circle cx="514.6464646464647" cy="50.033196028748534" r="2" fill="rgb(0,255,0)"/><circle cx="519.6969696969697" cy="50.049210817629955" r="2" fill="rgb(0,255,0)"/><circle cx="524.7474747474748" cy="50.04344335576303" r="2" fill="rgb(0,255,0)"/><circle cx="529.7979797979798" cy="50.04344335576303" r="2" fill="rgb(0,255,0)"/><circle cx="534.8484848484849" cy="50.0" r="2" fill="rgb(0,255,0)"/><circle cx="539.8989898989898" cy="50.0" r="2" fill="rgb(0,255,0)"/><circle cx="544.9494949494949" cy="50.0" r="2" fill="rgb(0,255,0)"/><circle cx="550.0" cy="50.0" r="2" fill="rgb(0,255,0)"/><text x="350.0" y="20.0" text-anchor="middle" fill="rgb(0,0,0)" font-size="20.0">GA Demo</text><text x="350.0" y="575.0" text-anchor="middle" fill="rgb(0,0,0)" font-size="12.0">generation</text><text transform="rotate(-90.0 20.0 300.0)" x="20.0" y="300.0" text-anchor="middle" fill="rgb(0,0,0)" font-size="12.0">fitness</text><text x="620" y="62" fill="rgb(0,0,0)" font-size="12">min</text><text x="620" y="74" fill="rgb(0,0,255)" font-size="12">ave</text><text x="620" y="86" fill="rgb(0,255,0)" font-size="12">max</text>
      Sorry, your browser does not support inline SVG.
    </svg>