<?xml version='1.0' encoding='UTF-8'?>
<svg version="1.1" width="700.0" height="600.0" onload="init(evt)" xmlns="http://www.w3.org/2000/svg">
      <style>.caption {
  font-size: 14px;
  font-family: Georgia, serif;
}
</style>
      <script type="text/ecmascript"><![CDATA[
function init(evt) {
  if ( window.svgDocument == null ) {
    svgDocument = evt.target.ownerDocument;
  }
}

function RectHover(evt, i, c) {
  rect = svgDocument.getElementById('rect' + i);
  if( c != null ) {
    rect.setAttributeNS(null, "fill", c)  
  }
  tooltiptext = svgDocument.getElementById('tooltiptext' + i);
  tooltipbg = svgDocument.getElementById('tooltipbg' + i);
  if( tooltipbg != null) {
    tbb = tooltiptext.getBBox();
    tooltipbg.setAttributeNS(null, "width", tbb.width);
    tooltipbg.setAttributeNS(null, "height", tbb.height);
    tooltipbg.setAttributeNS(null, "x", tbb.x);
    tooltipbg.setAttributeNS(null, "y", tbb.y);
    tooltipbg.setAttributeNS(null, "visibility", "visible");
  }
  tooltiptext.setAttributeNS(null,"visibility","visible");
}

function RectUnhover(evt, i, c) {
  rect = svgDocument.getElementById('rect' + i);
  if( c != null ) {
    rect.setAttributeNS(null, "fill", c)  
  }
  tooltiptext = svgDocument.getElementById('tooltiptext' + i);
  tooltiptext.setAttributeNS(null,"visibility","hidden");
  tooltipbg = svgDocument.getElementById('tooltipbg' + i);
  if( tooltipbg != null ) {
    tooltipbg.setAttributeNS(null,"visibility","hidden");
  }
}
]]></script>
      <line x1="50.0" y1="550.0" x2="550.0" y2="550.0" stroke="rgb(0,0,0)" stroke-width="1"/><line x1="50.0" y1="550.0" x2="50.0" y2="50.0" stroke="rgb(0,0,0)" stroke-width="1"/><line x1="50.0" y1="550.0" x2="50.0" y2="50.0" stroke="rgb(192,192,192)" stroke-width="1"/><line x1="50.0" y1="548.0" x2="50.0" y2="552.0" stroke="rgb(192,192,192)" stroke-width="1"/><text text-anchor="middle" alignment-baseline="hanging" x="50.0" y="553.0" font-size="12.0">0</text><line x1="100.5050505050505" y1="550.0" x2="100.5050505050505" y2="50.0" stroke="rgb(192,192,192)" stroke-width="1"/><line x1="100.5050505050505" y1="548.0" x2="100.5050505050505" y2="552.0" stroke="rgb(192,192,192)" stroke-width="1"/><text text-anchor="middle" alignment-baseline="hanging" x="100.5050505050505" y="553.0" font-size="12.0">10</text><line x1="151.010101010101" y1="550.0" x2="151.010101010101" y2="50.0" stroke="rgb(192,192,192)" stroke-width="1"/><line x1="151.010101010101" y1="548.0" x2="151.010101010101" y2="552.0" stroke="rgb(192,192,192)" stroke-width="1"/><text text-anchor="middle" alignment-baseline="hanging" x="151.010101010101" y="553.0" font-size="12.0">20</text><line x1="201.51515151515153" y1="550.0" x2="201.51515151515153" y2="50.0" stroke="rgb(192,192,192)" stroke-width="1"/><line x1="201.51515151515153" y1="548.0" x2="201.51515151515153" y2="552.0" stroke="rgb(192,192,192)" stroke-width="1"/><text text-anchor="middle" alignment-baseline="hanging" x="201.51515151515153" y="553.0" font-size="12.0">30</text><line x1="252.02020202020202" y1="550.0" x2="252.02020202020202" y2="50.0" stroke="rgb(192,192,192)" stroke-width="1"/><line x1="252.02020202020202" y1="548.0" x2="252.02020202020202" y2="552.0" stroke="rgb(192,192,192)" stroke-width="1"/><text text-anchor="middle" alignment-baseline="hanging" x="252.02020202020202" y="553.0" font-size="12.0">40</text><line x1="302.52525252525254" y1="550.0" x2="302.52525252525254" y2="50.0" stroke="rgb(192,192,192)" stroke-width="1"/><line x1="302.52525252525254" y1="548.0" x2="302.52525252525254" y2="552.0" stroke="rgb(192,192,192)" stroke-width="1"/><text text-anchor="middle" alignment-baseline="hanging" x="302.52525252525254" y="553.0" font-size="12.0">50</text><line x1="353.03030303030306" y1="550.0" x2="353.03030303030306" y2="50.0" stroke="rgb(192,192,192)" stroke-width="1"/><line x1="353.03030303030306" y1="548.0" x2="353.03030303030306" y2="552.0" stroke="rgb(192,192,192)" stroke-width="1"/><text text-anchor="middle" alignment-baseline="hanging" x="353.03030303030306" y="553.0" font-size="12.0">60</text><line x1="403.5353535353535" y1="550.0" x2="403.5353535353535" y2="50.0" stroke="rgb(192,192,192)" stroke-width="1"/><line x1="403.5353535353535" y1="548.0" x2="403.5353535353535" y2="552.0" stroke="rgb(192,192,192)" stroke-width="1"/><text text-anchor="middle" alignment-baseline="hanging" x="403.5353535353535" y="553.0" font-size="12.0">70</text><line x1="454.04040404040404" y1="550.0" x2="454.04040404040404" y2="50.0" stroke="rgb(192,192,192)" stroke-width="1"/><line x1="454.04040404040404" y1="548.0" x2="454.04040404040404" y2="552.0" stroke="rgb(192,192,192)" stroke-width="1"/><text text-anchor="middle" alignment-baseline="hanging" x="454.04040404040404" y="553.0" font-size="12.0">80</text><line x1="504.5454545454545" y1="550.0" x2="504.5454545454545" y2="50.0" stroke="rgb(192,192,192)" stroke-width="1"/><line x1="504.5454545454545" y1="548.0" x2="504.5454545454545" y2="552.0" stroke="rgb(192,192,192)" stroke-width="1"/><text text-anchor="middle" alignment-baseline="hanging" x="504.5454545454545" y="553.0" font-size="12.0">90</text><line x1="50.0" y1="550.0" x2="550.0" y2="550.0" stroke="rgb(192,192,192)" stroke-width="1"/><text text-anchor="end" alignment-baseline="middle" x="45.0" y="550.0" font-size="12.0">0.0</text><line x1="48.0" y1="550.0" x2="52.0" y2="550.0" stroke="rgb(192,192,192)" stroke-width="1"/><line x1="50.0" y1="367.0528651895594" x2="550.0" y2="367.0528651895594" stroke="rgb(192,192,192)" stroke-width="1"/><text text-anchor="end" alignment-baseline="middle" x="45.0" y="367.0528651895594" font-size="12.0">1000.0</text><line x1="48.0" y1="367.0528651895594" x2="52.0" y2="367.0528651895594" stroke="rgb(192,192,192)" stroke-width="1"/><line x1="50.0" y1="184.10573037911877" x2="550.0" y2="184.10573037911877" stroke="rgb(192,192,192)" stroke-width="1"/><text text-anchor="end" alignment-baseline="middle" x="45.0" y="184.10573037911877" font-size="12.0">2000.0</text><line x1="48.0" y1="184.10573037911877" x2="52.0" y2="184.10573037911877" stroke="rgb(192,192,192)" stroke-width="1"/><polyline points="50.0,414.41848516847904 55.05050505050505,410.1422967062697 60.101010101010104,407.6788344824431 65.15151515151516,364.9676138612482 70.20202020202021,356.97478417076593 75.25252525252526,394.5269922246247 80.30303030303031,428.5087987472655 85.35353535353535,369.03884100105614 90.40404040404042,237.50558175348357 95.45454545454545,315.000702880193 100.5050505050505,314.3034048731329 105.55555555555554,312.6384529572837 110.60606060606061,182.44170903468068 115.65656565656566,413.6976918745717 120.7070707070707,402.28581418081603 125.75757575757576,400.09369718750435 130.80808080808083,335.2028320576546 135.85858585858585,343.22629331587405 140.9090909090909,310.1971004085759 145.95959595959596,358.9344569636826 151.010101010101,309.59203731726063 156.06060606060606,263.4997820652866 161.1111111111111,409.09647663448277 166.16161616161617,387.7858469415905 171.21212121212122,388.4086534900498 176.26262626262627,310.2904259087365 181.31313131313132,334.6854602831231 186.36363636363635,252.65647805033404 191.4141414141414,396.93323942713346 196.46464646464648,407.1556981023531 201.51515151515153,382.27869462601996 206.56565656565658,318.0281286848067 211.61616161616163,353.4341887789813 216.66666666666666,200.28295633817686 221.7171717171717,327.13708319745575 226.76767676767676,381.7102426474587 231.8181818181818,356.45784059540995 236.86868686868686,409.47279668214605 241.91919191919192,345.8098974509696 246.96969696969697,400.32857500978935 252.02020202020202,403.92767275491985 257.07070707070704,337.5301446474069 262.1212121212121,337.6546642795157 267.1717171717172,379.5763812090165 272.2222222222222,368.66758115094353 277.27272727272725,401.1284976319417 282.32323232323233,358.4646750471213 287.3737373737374,383.53223062517884 292.42424242424244,383.75854798912064 297.47474747474746,282.0133195330049 302.52525252525254,312.3885543457932 307.57575757575756,402.1971341561714 312.62626262626264,402.679191607112 317.67676767676767,409.3725250707629 322.7272727272727,409.53263073554336 327.77777777777777,408.66180712117017 332.8282828282828,408.83001686608264 337.8787878787879,409.0743727713201 342.92929292929296,194.50712037425052 347.979797979798,356.7862253880601 353.03030303030306,338.7743884643369 358.0808080808081,260.62990303362466 363.13131313131316,265.61899439326993 368.1818181818182,342.7660424048956 373.23232323232327,406.6480544347279 378.2828282828283,235.65738665494723 383.3333333333333,408.926874261399 388.3838383838384,241.2631822295649 393.4343434343434,358.4403893731703 398.4848484848485,394.22930834324734 403.5353535353535,392.7577300969866 408.58585858585855,392.79585895746845 413.6363636363636,298.36116434538894 418.68686868686865,399.0260518974206 423.73737373737373,399.1771216769911 428.7878787878788,70.9980429933824 433.83838383838383,181.76729056538653 438.8888888888889,410.3131586513657 443.93939393939394,410.14870777052056 448.989898989899,410.73109717586954 454.04040404040404,410.9733398553267 459.0909090909091,411.18670980675086 464.14141414141415,312.616202073865 469.19191919191917,341.8294179777497 474.24242424242425,342.59493103347234 479.2929292929293,342.4592188023323 484.34343434343435,343.5610732348582 489.3939393939394,342.394353092848 494.4444444444444,380.5687592158056 499.4949494949495,341.66011959726876 504.5454545454545,364.60109266724544 509.59595959595964,394.76221215634774 514.6464646464647,394.76221215634774 519.6969696969697,354.20816322943915 524.7474747474748,366.4261477606585 529.7979797979798,366.4007645018644 534.8484848484849,354.14138719705136 539.8989898989898,354.13194135121574 544.9494949494949,250.1783718084019 550.0,261.4827888603123" fill="none" stroke="rgb(0,0,0)" stroke-width="1"/><circle cx="50.0" cy="414.41848516847904" r="2" fill="rgb(0,0,0)"/><circle cx="55.05050505050505" cy="410.1422967062697" r="2" fill="rgb(0,0,0)"/><circle cx="60.101010101010104" cy="407.6788344824431" r="2" fill="rgb(0,0,0)"/><circle cx="65.15151515151516" cy="364.9676138612482" r="2" fill="rgb(0,0,0)"/><circle cx="70.20202020202021" cy="356.97478417076593" r="2" fill="rgb(0,0,0)"/><circle cx="75.25252525252526" cy="394.5269922246247" r="2" fill="rgb(0,0,0)"/><circle cx="80.30303030303031" cy="428.5087987472655" r="2" fill="rgb(0,0,0)"/><circle cx="85.35353535353535" cy="369.03884100105614" r="2" fill="rgb(0,0,0)"/><circle cx="90.40404040404042" cy="237.50558175348357" r="2" fill="rgb(0,0,0)"/><circle cx="95.45454545454545" cy="315.000702880193" r="2" fill="rgb(0,0,0)"/><circle cx="100.5050505050505" cy="314.3034048731329" r="2" fill="rgb(0,0,0)"/><circle cx="105.55555555555554" cy="312.6384529572837" r="2" fill="rgb(0,0,0)"/><circle cx="110.60606060606061" cy="182.44170903468068" r="2" fill="rgb(0,0,0)"/><circle cx="115.65656565656566" cy="413.6976918745717" r="2" fill="rgb(0,0,0)"/><circle cx="120.7070707070707" cy="402.28581418081603" r="2" fill="rgb(0,0,0)"/><circle cx="125.75757575757576" cy="400.09369718750435" r="2" fill="rgb(0,0,0)"/><circle cx="130.80808080808083" cy="335.2028320576546" r="2" fill="rgb(0,0,0)"/><circle cx="135.85858585858585" cy="343.22629331587405" r="2" fill="rgb(0,0,0)"/><circle cx="140.9090909090909" cy="310.1971004085759" r="2" fill="rgb(0,0,0)"/><circle cx="145.95959595959596" cy="358.9344569636826" r="2" fill="rgb(0,0,0)"/><circle cx="151.010101010101" cy="309.59203731726063" r="2" fill="rgb(0,0,0)"/><circle cx="156.06060606060606" cy="263.4997820652866" r="2" fill="rgb(0,0,0)"/><circle cx="161.1111111111111" cy="409.09647663448277" r="2" fill="rgb(0,0,0)"/><circle cx="166.16161616161617" cy="387.7858469415905" r="2" fill="rgb(0,0,0)"/><circle cx="171.21212121212122" cy="388.4086534900498" r="2" fill="rgb(0,0,0)"/><circle cx="176.26262626262627" cy="310.2904259087365" r="2" fill="rgb(0,0,0)"/><circle cx="181.31313131313132" cy="334.6854602831231" r="2" fill="rgb(0,0,0)"/><circle cx="186.36363636363635" cy="252.65647805033404" r="2" fill="rgb(0,0,0)"/><circle cx="191.4141414141414" cy="396.93323942713346" r="2" fill="rgb(0,0,0)"/><circle cx="196.46464646464648" cy="407.1556981023531" r="2" fill="rgb(0,0,0)"/><circle cx="201.51515151515153" cy="382.27869462601996" r="2" fill="rgb(0,0,0)"/><circle cx="206.56565656565658" cy="318.0281286848067" r="2" fill="rgb(0,0,0)"/><circle cx="211.61616161616163" cy="353.4341887789813" r="2" fill="rgb(0,0,0)"/><circle cx="216.66666666666666" cy="200.28295633817686" r="2" fill="rgb(0,0,0)"/><circle cx="221.7171717171717" cy="327.13708319745575" r="2" fill="rgb(0,0,0)"/><circle cx="226.76767676767676" cy="381.7102426474587" r="2" fill="rgb(0,0,0)"/><circle cx="231.8181818181818" cy="356.45784059540995" r="2" fill="rgb(0,0,0)"/><circle cx="236.86868686868686" cy="409.47279668214605" r="2" fill="rgb(0,0,0)"/><circle cx="241.91919191919192" cy="345.8098974509696" r="2" fill="rgb(0,0,0)"/><circle cx="246.96969696969697" cy="400.32857500978935" r="2" fill="rgb(0,0,0)"/><circle cx="252.02020202020202" cy="403.92767275491985" r="2" fill="rgb(0,0,0)"/><circle cx="257.07070707070704" cy="337.5301446474069" r="2" fill="rgb(0,0,0)"/><circle cx="262.1212121212121" cy="337.6546642795157" r="2" fill="rgb(0,0,0)"/><circle cx="267.1717171717172" cy="379.5763812090165" r="2" fill="rgb(0,0,0)"/><circle cx="272.2222222222222" cy="368.66758115094353" r="2" fill="rgb(0,0,0)"/><circle cx="277.27272727272725" cy="401.1284976319417" r="2" fill="rgb(0,0,0)"/><circle cx="282.32323232323233" cy="358.4646750471213" r="2" fill="rgb(0,0,0)"/><circle cx="287.3737373737374" cy="383.53223062517884" r="2" fill="rgb(0,0,0)"/><circle cx="292.42424242424244" cy="383.75854798912064" r="2" fill="rgb(0,0,0)"/><circle cx="297.47474747474746" cy="282.0133195330049" r="2" fill="rgb(0,0,0)"/><circle cx="302.52525252525254" cy="312.3885543457932" r="2" fill="rgb(0,0,0)"/><circle cx="307.57575757575756" cy="402.1971341561714" r="2" fill="rgb(0,0,0)"/><circle cx="312.62626262626264" cy="402.679191607112" r="2" fill="rgb(0,0,0)"/><circle cx="317.67676767676767" cy="409.3725250707629" r="2" fill="rgb(0,0,0)"/><circle cx="322.7272727272727" cy="409.53263073554336" r="2" fill="rgb(0,0,0)"/><circle cx="327.77777777777777" cy="408.66180712117017" r="2" fill="rgb(0,0,0)"/><circle cx="332.8282828282828" cy="408.83001686608264" r="2" fill="rgb(0,0,0)"/><circle cx="337.8787878787879" cy="409.0743727713201" r="2" fill="rgb(0,0,0)"/><circle cx="342.92929292929296" cy="194.50712037425052" r="2" fill="rgb(0,0,0)"/><circle cx="347.979797979798" cy="356.7862253880601" r="2" fill="rgb(0,0,0)"/><circle cx="353.03030303030306" cy="338.7743884643369" r="2" fill="rgb(0,0,0)"/><circle cx="358.0808080808081" cy="260.62990303362466" r="2" fill="rgb(0,0,0)"/><circle cx="363.13131313131316" cy="265.61899439326993" r="2" fill="rgb(0,0,0)"/><circle cx="368.1818181818182" cy="342.7660424048956" r="2" fill="rgb(0,0,0)"/><circle cx="373.23232323232327" cy="406.6480544347279" r="2" fill="rgb(0,0,0)"/><circle cx="378.2828282828283" cy="235.65738665494723" r="2" fill="rgb(0,0,0)"/><circle cx="383.3333333333333" cy="408.926874261399" r="2" fill="rgb(0,0,0)"/><circle cx="388.3838383838384" cy="241.2631822295649" r="2" fill="rgb(0,0,0)"/><circle cx="393.4343434343434" cy="358.4403893731703" r="2" fill="rgb(0,0,0)"/><circle cx="398.4848484848485" cy="394.22930834324734" r="2" fill="rgb(0,0,0)"/><circle cx="403.5353535353535" cy="392.7577300969866" r="2" fill="rgb(0,0,0)"/><circle cx="408.58585858585855" cy="392.79585895746845" r="2" fill="rgb(0,0,0)"/><circle cx="413.6363636363636" cy="298.36116434538894" r="2" fill="rgb(0,0,0)"/><circle cx="418.68686868686865" cy="399.0260518974206" r="2" fill="rgb(0,0,0)"/><circle cx="423.73737373737373" cy="399.1771216769911" r="2" fill="rgb(0,0,0)"/><circle cx="428.7878787878788" cy="70.9980429933824" r="2" fill="rgb(0,0,0)"/><circle cx="433.83838383838383" cy="181.76729056538653" r="2" fill="rgb(0,0,0)"/><circle cx="438.8888888888889" cy="410.3131586513657" r="2" fill="rgb(0,0,0)"/><circle cx="443.93939393939394" cy="410.14870777052056" r="2" fill="rgb(0,0,0)"/><circle cx="448.989898989899" cy="410.73109717586954" r="2" fill="rgb(0,0,0)"/><circle cx="454.04040404040404" cy="410.9733398553267" r="2" fill="rgb(0,0,0)"/><circle cx="459.0909090909091" cy="411.18670980675086" r="2" fill="rgb(0,0,0)"/><circle cx="464.14141414141415" cy="312.616202073865" r="2" fill="rgb(0,0,0)"/><circle cx="469.19191919191917" cy="341.8294179777497" r="2" fill="rgb(0,0,0)"/><circle cx="474.24242424242425" cy="342.59493103347234" r="2" fill="rgb(0,0,0)"/><circle cx="479.2929292929293" cy="342.4592188023323" r="2" fill="rgb(0,0,0)"/><circle cx="484.34343434343435" cy="343.5610732348582" r="2" fill="rgb(0,0,0)"/><circle cx="489.3939393939394" cy="342.394353092848" r="2" fill="rgb(0,0,0)"/><circle cx="494.4444444444444" cy="380.5687592158056" r="2" fill="rgb(0,0,0)"/><circle cx="499.4949494949495" cy="341.66011959726876" r="2" fill="rgb(0,0,0)"/><circle cx="504.5454545454545" cy="364.60109266724544" r="2" fill="rgb(0,0,0)"/><circle cx="509.59595959595964" cy="394.76221215634774" r="2" fill="rgb(0,0,0)"/><circle cx="514.6464646464647" cy="394.76221215634774" r="2" fill="rgb(0,0,0)"/><circle cx="519.6969696969697" cy="354.20816322943915" r="2" fill="rgb(0,0,0)"/><circle cx="524.7474747474748" cy="366.4261477606585" r="2" fill="rgb(0,0,0)"/><circle cx="529.7979797979798" cy="366.4007645018644" r="2" fill="rgb(0,0,0)"/><circle cx="534.8484848484849" cy="354.14138719705136" r="2" fill="rgb(0,0,0)"/><circle cx="539.8989898989898" cy="354.13194135121574" r="2" fill="rgb(0,0,0)"/><circle cx="544.9494949494949" cy="250.1783718084019" r="2" fill="rgb(0,0,0)"/><circle cx="550.0" cy="261.4827888603123" r="2" fill="rgb(0,0,0)"/><polyline points="50.0,206.87203221571093 55.05050505050505,190.07182233591112 60.101010101010104,161.07168440006927 65.15151515151516,144.10454580037538 70.20202020202021,127.72528423332898 75.25252525252526,123.79882599351384 80.30303030303031,112.24060726542535 85.35353535353535,93.81007031724664 90.40404040404042,86.39966399301932 95.45454545454545,77.6038594942043 100.5050505050505,80.73216784336978 105.55555555555554,71.10429192645154 110.60606060606061,67.0934261035573 115.65656565656566,75.88885326602588 120.7070707070707,78.74034397614537 125.75757575757576,74.74188734465571 130.80808080808083,73.99764349585723 135.85858585858585,74.24088263374091 140.9090909090909,74.25850560825609 145.95959595959596,73.05047705872192 151.010101010101,71.81597418478788 156.06060606060606,63.41580674722729 161.1111111111111,65.16008222643961 166.16161616161617,63.06860246776114 171.21212121212122,73.80628803493238 176.26262626262627,70.76591596281116 181.31313131313132,67.81451695445236 186.36363636363635,59.40069812853329 191.4141414141414,58.075096806536806 196.46464646464648,58.943613328325625 201.51515151515153,61.5626890240145 206.56565656565658,58.49544639851683 211.61616161616163,62.02707287402302 216.66666666666666,53.74139195814274 221.7171717171717,57.828082161108796 226.76767676767676,64.47055234242845 231.8181818181818,66.61780342577049 236.86868686868686,62.53171364783964 241.91919191919192,60.497098761907466 246.96969696969697,60.194360600194955 252.02020202020202,59.85539636676083 257.07070707070704,67.3320195802487 262.1212121212121,63.15069389373474 267.1717171717172,70.63534624260058 272.2222222222222,74.2534131839106 277.27272727272725,65.7495090310008 282.32323232323233,59.50920967050291 287.3737373737374,60.24947789945088 292.42424242424244,60.796442210081295 297.47474747474746,61.18228431417009 302.52525252525254,63.42864641563443 307.57575757575756,63.8074175725157 312.62626262626264,63.738009667707274 317.67676767676767,63.13373175188684 322.7272727272727,70.54637101455961 327.77777777777777,58.07139426694755 332.8282828282828,57.23624115732184 337.8787878787879,60.57717925186455 342.92929292929296,53.886824122197936 347.979797979798,62.33795637842121 353.03030303030306,61.21658558826539 358.0808080808081,55.32812378929532 363.13131313131316,57.09729958080578 368.1818181818182,59.37056199013887 373.23232323232327,58.28006424951997 378.2828282828283,59.722174563634496 383.3333333333333,69.90082470881407 388.3838383838384,63.529259629800606 393.4343434343434,67.05871219790782 398.4848484848485,69.30127500692737 403.5353535353535,65.55893674646961 408.58585858585855,61.76677531827863 413.6363636363636,56.32916568962128 418.68686868686865,61.26486126570467 423.73737373737373,58.24042727450353 428.7878787878788,50.965666943767474 433.83838383838383,53.56276658854074 438.8888888888889,65.0201894972127 443.93939393939394,62.82591993176766 448.989898989899,72.59354924388475 454.04040404040404,60.145748020129986 459.0909090909091,73.04709527854754 464.14141414141415,54.423915206867264 469.19191919191917,66.38531692019342 474.24242424242425,62.85507461941677 479.2929292929293,59.90470157914774 484.34343434343435,57.662504522412576 489.3939393939394,53.931471067944926 494.4444444444444,63.40348284317116 499.4949494949495,58.5462900126945 504.5454545454545,60.5957548022231 509.59595959595964,67.35916345673678 514.6464646464647,58.3395415386812 519.6969696969697,60.708616161828274 524.7474747474748,65.71879110232294 529.7979797979798,61.55370934904636 534.8484848484849,65.63484859260154 539.8989898989898,60.16644781020756 544.9494949494949,55.93445194467819 550.0,56.9714212207694" fill="none" stroke="rgb(0,0,255)" stroke-width="1"/><circle cx="50.0" cy="206.87203221571093" r="2" fill="rgb(0,0,255)"/><circle cx="55.05050505050505" cy="190.07182233591112" r="2" fill="rgb(0,0,255)"/><circle cx="60.101010101010104" cy="161.07168440006927" r="2" fill="rgb(0,0,255)"/><circle cx="65.15151515151516" cy="144.10454580037538" r="2" fill="rgb(0,0,255)"/><circle cx="70.20202020202021" cy="127.72528423332898" r="2" fill="rgb(0,0,255)"/><circle cx="75.25252525252526" cy="123.79882599351384" r="2" fill="rgb(0,0,255)"/><circle cx="80.30303030303031" cy="112.24060726542535" r="2" fill="rgb(0,0,255)"/><circle cx="85.35353535353535" cy="93.81007031724664" r="2" fill="rgb(0,0,255)"/><circle cx="90.40404040404042" cy="86.39966399301932" r="2" fill="rgb(0,0,255)"/><circle cx="95.45454545454545" cy="77.6038594942043" r="2" fill="rgb(0,0,255)"/><circle cx="100.5050505050505" cy="80.73216784336978" r="2" fill="rgb(0,0,255)"/><circle cx="105.55555555555554" cy="71.10429192645154" r="2" fill="rgb(0,0,255)"/><circle cx="110.60606060606061" cy="67.0934261035573" r="2" fill="rgb(0,0,255)"/><circle cx="115.65656565656566" cy="75.88885326602588" r="2" fill="rgb(0,0,255)"/><circle cx="120.7070707070707" cy="78.74034397614537" r="2" fill="rgb(0,0,255)"/><circle cx="125.75757575757576" cy="74.74188734465571" r="2" fill="rgb(0,0,255)"/><circle cx="130.80808080808083" cy="73.99764349585723" r="2" fill="rgb(0,0,255)"/><circle cx="135.85858585858585" cy="74.24088263374091" r="2" fill="rgb(0,0,255)"/><circle cx="140.9090909090909" cy="74.25850560825609" r="2" fill="rgb(0,0,255)"/><circle cx="145.95959595959596" cy="73.05047705872192" r="2" fill="rgb(0,0,255)"/><circle cx="151.010101010101" cy="71.81597418478788" r="2" fill="rgb(0,0,255)"/><circle cx="156.06060606060606" cy="63.41580674722729" r="2" fill="rgb(0,0,255)"/><circle cx="161.1111111111111" cy="65.16008222643961" r="2" fill="rgb(0,0,255)"/><circle cx="166.16161616161617" cy="63.06860246776114" r="2" fill="rgb(0,0,255)"/><circle cx="171.21212121212122" cy="73.80628803493238" r="2" fill="rgb(0,0,255)"/><circle cx="176.26262626262627" cy="70.76591596281116" r="2" fill="rgb(0,0,255)"/><circle cx="181.31313131313132" cy="67.81451695445236" r="2" fill="rgb(0,0,255)"/><circle cx="186.36363636363635" cy="59.40069812853329" r="2" fill="rgb(0,0,255)"/><circle cx="191.4141414141414" cy="58.075096806536806" r="2" fill="rgb(0,0,255)"/><circle cx="196.46464646464648" cy="58.943613328325625" r="2" fill="rgb(0,0,255)"/><circle cx="201.51515151515153" cy="61.5626890240145" r="2" fill="rgb(0,0,255)"/><circle cx="206.56565656565658" cy="58.49544639851683" r="2" fill="rgb(0,0,255)"/><circle cx="211.61616161616163" cy="62.02707287402302" r="2" fill="rgb(0,0,255)"/><circle cx="216.66666666666666" cy="53.74139195814274" r="2" fill="rgb(0,0,255)"/><circle cx="221.7171717171717" cy="57.828082161108796" r="2" fill="rgb(0,0,255)"/><circle cx="226.76767676767676" cy="64.47055234242845" r="2" fill="rgb(0,0,255)"/><circle cx="231.8181818181818" cy="66.61780342577049" r="2" fill="rgb(0,0,255)"/><circle cx="236.86868686868686" cy="62.53171364783964" r="2" fill="rgb(0,0,255)"/><circle cx="241.91919191919192" cy="60.497098761907466" r="2" fill="rgb(0,0,255)"/><circle cx="246.96969696969697" cy="60.194360600194955" r="2" fill="rgb(0,0,255)"/><circle cx="252.02020202020202" cy="59.85539636676083" r="2" fill="rgb(0,0,255)"/><circle cx="257.07070707070704" cy="67.3320195802487" r="2" fill="rgb(0,0,255)"/><circle cx="262.1212121212121" cy="63.15069389373474" r="2" fill="rgb(0,0,255)"/><circle cx="267.1717171717172" cy="70.63534624260058" r="2" fill="rgb(0,0,255)"/><circle cx="272.2222222222222" cy="74.2534131839106" r="2" fill="rgb(0,0,255)"/><circle cx="277.27272727272725" cy="65.7495090310008" r="2" fill="rgb(0,0,255)"/><circle cx="282.32323232323233" cy="59.50920967050291" r="2" fill="rgb(0,0,255)"/><circle cx="287.3737373737374" cy="60.24947789945088" r="2" fill="rgb(0,0,255)"/><circle cx="292.42424242424244" cy="60.796442210081295" r="2" fill="rgb(0,0,255)"/><circle cx="297.47474747474746" cy="61.18228431417009" r="2" fill="rgb(0,0,255)"/><circle cx="302.52525252525254" cy="63.42864641563443" r="2" fill="rgb(0,0,255)"/><circle cx="307.57575757575756" cy="63.8074175725157" r="2" fill="rgb(0,0,255)"/><circle cx="312.62626262626264" cy="63.738009667707274" r="2" fill="rgb(0,0,255)"/><circle cx="317.67676767676767" cy="63.13373175188684" r="2" fill="rgb(0,0,255)"/><circle cx="322.7272727272727" cy="70.54637101455961" r="2" fill="rgb(0,0,255)"/><circle cx="327.77777777777777" cy="58.07139426694755" r="2" fill="rgb(0,0,255)"/><circle cx="332.8282828282828" cy="57.23624115732184" r="2" fill="rgb(0,0,255)"/><circle cx="337.8787878787879" cy="60.57717925186455" r="2" fill="rgb(0,0,255)"/><circle cx="342.92929292929296" cy="53.886824122197936" r="2" fill="rgb(0,0,255)"/><circle cx="347.979797979798" cy="62.33795637842121" r="2" fill="rgb(0,0,255)"/><circle cx="353.03030303030306" cy="61.21658558826539" r="2" fill="rgb(0,0,255)"/><circle cx="358.0808080808081" cy="55.32812378929532" r="2" fill="rgb(0,0,255)"/><circle cx="363.13131313131316" cy="57.09729958080578" r="2" fill="rgb(0,0,255)"/><circle cx="368.1818181818182" cy="59.37056199013887" r="2" fill="rgb(0,0,255)"/><circle cx="373.23232323232327" cy="58.28006424951997" r="2" fill="rgb(0,0,255)"/><circle cx="378.2828282828283" cy="59.722174563634496" r="2" fill="rgb(0,0,255)"/><circle cx="383.3333333333333" cy="69.90082470881407" r="2" fill="rgb(0,0,255)"/><circle cx="388.3838383838384" cy="63.529259629800606" r="2" fill="rgb(0,0,255)"/><circle cx="393.4343434343434" cy="67.05871219790782" r="2" fill="rgb(0,0,255)"/><circle cx="398.4848484848485" cy="69.30127500692737" r="2" fill="rgb(0,0,255)"/><circle cx="403.5353535353535" cy="65.55893674646961" r="2" fill="rgb(0,0,255)"/><circle cx="408.58585858585855" cy="61.76677531827863" r="2" fill="rgb(0,0,255)"/><circle cx="413.6363636363636" cy="56.32916568962128" r="2" fill="rgb(0,0,255)"/><circle cx="418.68686868686865" cy="61.26486126570467" r="2" fill="rgb(0,0,255)"/><circle cx="423.73737373737373" cy="58.24042727450353" r="2" fill="rgb(0,0,255)"/><circle cx="428.7878787878788" cy="50.965666943767474" r="2" fill="rgb(0,0,255)"/><circle cx="433.83838383838383" cy="53.56276658854074" r="2" fill="rgb(0,0,255)"/><circle cx="438.8888888888889" cy="65.0201894972127" r="2" fill="rgb(0,0,255)"/><circle cx="443.93939393939394" cy="62.82591993176766" r="2" fill="rgb(0,0,255)"/><circle cx="448.989898989899" cy="72.59354924388475" r="2" fill="rgb(0,0,255)"/><circle cx="454.04040404040404" cy="60.145748020129986" r="2" fill="rgb(0,0,255)"/><circle cx="459.0909090909091" cy="73.04709527854754" r="2" fill="rgb(0,0,255)"/><circle cx="464.14141414141415" cy="54.423915206867264" r="2" fill="rgb(0,0,255)"/><circle cx="469.19191919191917" cy="66.38531692019342" r="2" fill="rgb(0,0,255)"/><circle cx="474.24242424242425" cy="62.85507461941677" r="2" fill="rgb(0,0,255)"/><circle cx="479.2929292929293" cy="59.90470157914774" r="2" fill="rgb(0,0,255)"/><circle cx="484.34343434343435" cy="57.662504522412576" r="2" fill="rgb(0,0,255)"/><circle cx="489.3939393939394" cy="53.931471067944926" r="2" fill="rgb(0,0,255)"/><circle cx="494.4444444444444" cy="63.40348284317116" r="2" fill="rgb(0,0,255)"/><circle cx="499.4949494949495" cy="58.5462900126945" r="2" fill="rgb(0,0,255)"/><circle cx="504.5454545454545" cy="60.5957548022231" r="2" fill="rgb(0,0,255)"/><circle cx="509.59595959595964" cy="67.35916345673678" r="2" fill="rgb(0,0,255)"/><circle cx="514.6464646464647" cy="58.3395415386812" r="2" fill="rgb(0,0,255)"/><circle cx="519.6969696969697" cy="60.708616161828274" r="2" fill="rgb(0,0,255)"/><circle cx="524.7474747474748" cy="65.71879110232294" r="2" fill="rgb(0,0,255)"/><circle cx="529.7979797979798" cy="61.55370934904636" r="2" fill="rgb(0,0,255)"/><circle cx="534.8484848484849" cy="65.63484859260154" r="2" fill="rgb(0,0,255)"/><circle cx="539.8989898989898" cy="60.16644781020756" r="2" fill="rgb(0,0,255)"/><circle cx="544.9494949494949" cy="55.93445194467819" r="2" fill="rgb(0,0,255)"/><circle cx="550.0" cy="56.9714212207694" r="2" fill="rgb(0,0,255)"/><polyline points="50.0,59.166001967054285 55.05050505050505,65.74254768626884 60.101010101010104,62.036340755093136 65.15151515151516,61.434952776729176 70.20202020202021,59.99032490827727 75.25252525252526,61.047307326673376 80.30303030303031,59.8145062045802 85.35353535353535,59.99032490827727 90.40404040404042,60.02100982263494 95.45454545454545,60.020406083507226 100.5050505050505,60.047725920082655 105.55555555555554,59.64683028903812 110.60606060606061,59.6366771706376 115.65656565656566,59.40178863033043 120.7070707070707,59.32473799783918 125.75757575757576,59.40313473802928 130.80808080808083,52.22891299248721 135.85858585858585,51.67568695567894 140.9090909090909,51.57430191208948 145.95959595959596,51.12320298954552 151.010101010101,51.29532453429334 156.06060606060606,50.587254836210434 161.1111111111111,50.66465905370859 166.16161616161617,50.775482665935044 171.21212121212122,50.81488792047401 176.26262626262627,50.88468258954367 181.31313131313132,50.50184342444095 186.36363636363635,50.643654850073744 191.4141414141414,50.67426094667286 196.46464646464648,50.59143330324986 201.51515151515153,50.59143330324986 206.56565656565658,50.54402334791496 211.61616161616163,50.48125293195034 216.66666666666666,50.55719518124164 221.7171717171717,50.540492817659924 226.76767676767676,50.47292747508834 231.8181818181818,50.356184977436214 236.86868686868686,50.38373239615322 241.91919191919192,50.34884565681466 246.96969696969697,50.337073603536 252.02020202020202,50.34424804121858 257.07070707070704,50.24125832023725 262.1212121212121,50.255087060315645 267.1717171717172,50.26108939189936 272.2222222222222,50.348535565400994 277.27272727272725,50.2965243078055 282.32323232323233,50.24150250251006 287.3737373737374,50.32871059085778 292.42424242424244,50.38288722958265 297.47474747474746,50.327574379011594 302.52525252525254,50.327574379011594 307.57575757575756,50.33256075840313 312.62626262626264,50.3376135325895 317.67676767676767,50.34616626477208 322.7272727272727,50.29257589329251 327.77777777777777,50.255108008878835 332.8282828282828,50.3148607094231 337.8787878787879,50.27073199039455 342.92929292929296,50.28296130103848 347.979797979798,50.26716271858709 353.03030303030306,50.32476217634485 358.0808080808081,50.2965243078055 363.13131313131316,50.298203367492874 368.1818181818182,50.23755408799701 373.23232323232327,50.23755408799701 378.2828282828283,50.23755408799701 383.3333333333333,50.23755408799701 388.3838383838384,50.25017468632632 393.4343434343434,50.25017468632632 398.4848484848485,50.23755408799701 403.5353535353535,50.1590600346039 408.58585858585855,50.155111620090906 413.6363636363636,50.14150611372207 418.68686868686865,50.13269310359465 423.73737373737373,50.195202434549344 428.7878787878788,50.13554176491863 433.83838383838383,50.06588759745256 438.8888888888889,50.103054693614865 443.93939393939394,50.13396346280547 448.989898989899,50.189049945204886 454.04040404040404,50.13198898123471 459.0909090909091,50.11939577773887 464.14141414141415,50.10184185685711 469.19191919191917,50.11939577773887 474.24242424242425,50.11939577773887 479.2929292929293,50.11939577773887 484.34343434343435,50.092761848742896 489.3939393939394,50.04478089288688 494.4444444444444,50.0623348137687 499.4949494949495,50.04478089288688 504.5454545454545,50.0 509.59595959595964,50.05480534901079 514.6464646464647,50.015846605267086 519.6969696969697,50.002271120317516 524.7474747474748,50.0623348137687 529.7979797979798,50.015846605267086 534.8484848484849,50.00640075943147 539.8989898989898,50.00640075943147 544.9494949494949,50.002271120317516 550.0,50.002271120317516" fill="none" stroke="rgb(0,255,0)" stroke-width="1"/><circle cx="50.0" cy="59.166001967054285" r="2" fill="rgb(0,255,0)"/><circle cx="55.05050505050505" cy="65.74254768626884" r="2" fill="rgb(0,255,0)"/><circle cx="60.101010101010104" cy="62.036340755093136" r="2" fill="rgb(0,255,0)"/><circle cx="65.15151515151516" cy="61.434952776729176" r="2" fill="rgb(0,255,0)"/><circle cx="70.20202020202021" cy="59.99032490827727" r="2" fill="rgb(0,255,0)"/><circle cx="75.25252525252526" cy="61.047307326673376" r="2" fill="rgb(0,255,0)"/><circle cx="80.30303030303031" cy="59.8145062045802" r="2" fill="rgb(0,255,0)"/><circle cx="85.35353535353535" cy="59.99032490827727" r="2" fill="rgb(0,255,0)"/><circle cx="90.40404040404042" cy="60.02100982263494" r="2" fill="rgb(0,255,0)"/><circle cx="95.45454545454545" cy="60.020406083507226" r="2" fill="rgb(0,255,0)"/><circle cx="100.5050505050505" cy="60.047725920082655" r="2" fill="rgb(0,255,0)"/><circle cx="105.55555555555554" cy="59.64683028903812" r="2" fill="rgb(0,255,0)"/><circle cx="110.60606060606061" cy="59.6366771706376" r="2" fill="rgb(0,255,0)"/><circle cx="115.65656565656566" cy="59.40178863033043" r="2" fill="rgb(0,255,0)"/><circle cx="120.7070707070707" cy="59.32473799783918" r="2" fill="rgb(0,255,0)"/><circle cx="125.75757575757576" cy="59.40313473802928" r="2" fill="rgb(0,255,0)"/><circle cx="130.80808080808083" cy="52.22891299248721" r="2" fill="rgb(0,255,0)"/><circle cx="135.85858585858585" cy="51.67568695567894" r="2" fill="rgb(0,255,0)"/><circle cx="140.9090909090909" cy="51.57430191208948" r="2" fill="rgb(0,255,0)"/><circle cx="145.95959595959596" cy="51.12320298954552" r="2" fill="rgb(0,255,0)"/><circle cx="151.010101010101" cy="51.29532453429334" r="2" fill="rgb(0,255,0)"/><circle cx="156.06060606060606" cy="50.587254836210434" r="2" fill="rgb(0,255,0)"/><circle cx="161.1111111111111" cy="50.66465905370859" r="2" fill="rgb(0,255,0)"/><circle cx="166.16161616161617" cy="50.775482665935044" r="2" fill="rgb(0,255,0)"/><circle cx="171.21212121212122" cy="50.81488792047401" r="2" fill="rgb(0,255,0)"/><circle cx="176.26262626262627" cy="50.88468258954367" r="2" fill="rgb(0,255,0)"/><circle cx="181.31313131313132" cy="50.50184342444095" r="2" fill="rgb(0,255,0)"/><circle cx="186.36363636363635" cy="50.643654850073744" r="2" fill="rgb(0,255,0)"/><circle cx="191.4141414141414" cy="50.67426094667286" r="2" fill="rgb(0,255,0)"/><circle cx="196.46464646464648" cy="50.59143330324986" r="2" fill="rgb(0,255,0)"/><circle cx="201.51515151515153" cy="50.59143330324986" r="2" fill="rgb(0,255,0)"/><circle cx="206.56565656565658" cy="50.54402334791496" r="2" fill="rgb(0,255,0)"/><circle cx="211.61616161616163" cy="50.48125293195034" r="2" fill="rgb(0,255,0)"/><circle cx="216.66666666666666" cy="50.55719518124164" r="2" fill="rgb(0,255,0)"/><circle cx="221.7171717171717" cy="50.540492817659924" r="2" fill="rgb(0,255,0)"/><circle cx="226.76767676767676" cy="50.47292747508834" r="2" fill="rgb(0,255,0)"/><circle cx="231.8181818181818" cy="50.356184977436214" r="2" fill="rgb(0,255,0)"/><circle cx="236.86868686868686" cy="50.38373239615322" r="2" fill="rgb(0,255,0)"/><circle cx="241.91919191919192" cy="50.34884565681466" r="2" fill="rgb(0,255,0)"/><circle cx="246.96969696969697" cy="50.337073603536" r="2" fill="rgb(0,255,0)"/><circle cx="252.02020202020202" cy="50.34424804121858" r="2" fill="rgb(0,255,0)"/><circle cx="257.07070707070704" cy="50.24125832023725" r="2" fill="rgb(0,255,0)"/><circle cx="262.1212121212121" cy="50.255087060315645" r="2" fill="rgb(0,255,0)"/><circle cx="267.1717171717172" cy="50.26108939189936" r="2" fill="rgb(0,255,0)"/><circle cx="272.2222222222222" cy="50.348535565400994" r="2" fill="rgb(0,255,0)"/><circle cx="277.27272727272725" cy="50.2965243078055" r="2" fill="rgb(0,255,0)"/><circle cx="282.32323232323233" cy="50.24150250251006" r="2" fill="rgb(0,255,0)"/><circle cx="287.3737373737374" cy="50.32871059085778" r="2" fill="rgb(0,255,0)"/><circle cx="292.42424242424244" cy="50.38288722958265" r="2" fill="rgb(0,255,0)"/><circle cx="297.47474747474746" cy="50.327574379011594" r="2" fill="rgb(0,255,0)"/><circle cx="302.52525252525254" cy="50.327574379011594" r="2" fill="rgb(0,255,0)"/><circle cx="307.57575757575756" cy="50.33256075840313" r="2" fill="rgb(0,255,0)"/><circle cx="312.62626262626264" cy="50.3376135325895" r="2" fill="rgb(0,255,0)"/><circle cx="317.67676767676767" cy="50.34616626477208" r="2" fill="rgb(0,255,0)"/><circle cx="322.7272727272727" cy="50.29257589329251" r="2" fill="rgb(0,255,0)"/><circle cx="327.77777777777777" cy="50.255108008878835" r="2" fill="rgb(0,255,0)"/><circle cx="332.8282828282828" cy="50.3148607094231" r="2" fill="rgb(0,255,0)"/><circle cx="337.8787878787879" cy="50.27073199039455" r="2" fill="rgb(0,255,0)"/><circle cx="342.92929292929296" cy="50.28296130103848" r="2" fill="rgb(0,255,0)"/><circle cx="347.979797979798" cy="50.26716271858709" r="2" fill="rgb(0,255,0)"/><circle cx="353.03030303030306" cy="50.32476217634485" r="2" fill="rgb(0,255,0)"/><circle cx="358.0808080808081" cy="50.2965243078055" r="2" fill="rgb(0,255,0)"/><circle cx="363.13131313131316" cy="50.298203367492874" r="2" fill="rgb(0,255,0)"/><circle cx="368.1818181818182" cy="50.23755408799701" r="2" fill="rgb(0,255,0)"/><circle cx="373.23232323232327" cy="50.23755408799701" r="2" fill="rgb(0,255,0)"/><circle cx="378.2828282828283" cy="50.23755408799701" r="2" fill="rgb(0,255,0)"/><circle cx="383.3333333333333" cy="50.23755408799701" r="2" fill="rgb(0,255,0)"/><circle cx="388.3838383838384" cy="50.25017468632632" r="2" fill="rgb(0,255,0)"/><circle cx="393.4343434343434" cy="50.25017468632632" r="2" fill="rgb(0,255,0)"/><circle cx="398.4848484848485" cy="50.23755408799701" r="2" fill="rgb(0,255,0)"/><circle cx="403.5353535353535" cy="50.1590600346039" r="2" fill="rgb(0,255,0)"/><circle cx="408.58585858585855" cy="50.155111620090906" r="2" fill="rgb(0,255,0)"/><circle cx="413.6363636363636" cy="50.14150611372207" r="2" fill="rgb(0,255,0)"/><circle cx="418.68686868686865" cy="50.13269310359465" r="2" fill="rgb(0,255,0)"/><circle cx="423.73737373737373" cy="50.195202434549344" r="2" fill="rgb(0,255,0)"/><circle cx="428.7878787878788" cy="50.13554176491863" r="2" fill="rgb(0,255,0)"/><circle cx="433.83838383838383" cy="50.06588759745256" r="2" fill="rgb(0,255,0)"/><circle cx="438.8888888888889" cy="50.103054693614865" r="2" fill="rgb(0,255,0)"/><circle cx="443.93939393939394" cy="50.13396346280547" r="2" fill="rgb(0,255,0)"/><circle cx="448.989898989899" cy="50.189049945204886" r="2" fill="rgb(0,255,0)"/><circle cx="454.04040404040404" cy="50.13198898123471" r="2" fill="rgb(0,255,0)"/><circle cx="459.0909090909091" cy="50.11939577773887" r="2" fill="rgb(0,255,0)"/><circle cx="464.14141414141415" cy="50.10184185685711" r="2" fill="rgb(0,255,0)"/><circle cx="469.19191919191917" cy="50.11939577773887" r="2" fill="rgb(0,255,0)"/><circle cx="474.24242424242425" cy="50.11939577773887" r="2" fill="rgb(0,255,0)"/><circle cx="479.2929292929293" cy="50.11939577773887" r="2" fill="rgb(0,255,0)"/><circle cx="484.34343434343435" cy="50.092761848742896" r="2" fill="rgb(0,255,0)"/><circle cx="489.3939393939394" cy="50.04478089288688" r="2" fill="rgb(0,255,0)"/><circle cx="494.4444444444444" cy="50.0623348137687" r="2" fill="rgb(0,255,0)"/><circle cx="499.4949494949495" cy="50.04478089288688" r="2" fill="rgb(0,255,0)"/><circle cx="504.5454545454545" cy="50.0" r="2" fill="rgb(0,255,0)"/><circle cx="509.59595959595964" cy="50.05480534901079" r="2" fill="rgb(0,255,0)"/><circle cx="514.6464646464647" cy="50.015846605267086" r="2" fill="rgb(0,255,0)"/><circle cx="519.6969696969697" cy="50.002271120317516" r="2" fill="rgb(0,255,0)"/><circle cx="524.7474747474748" cy="50.0623348137687" r="2" fill="rgb(0,255,0)"/><circle cx="529.7979797979798" cy="50.015846605267086" r="2" fill="rgb(0,255,0)"/><circle cx="534.8484848484849" cy="50.00640075943147" r="2" fill="rgb(0,255,0)"/><circle cx="539.8989898989898" cy="50.00640075943147" r="2" fill="rgb(0,255,0)"/><circle cx="544.9494949494949" cy="50.002271120317516" r="2" fill="rgb(0,255,0)"/><circle cx="550.0" cy="50.002271120317516" r="2" fill="rgb(0,255,0)"/><text x="350.0" y="20.0" text-anchor="middle" fill="rgb(0,0,0)" font-size="20.0">GA Demo</text><text x="350.0" y="575.0" text-anchor="middle" fill="rgb(0,0,0)" font-size="12.0">generation</text><text transform="rotate(-90.0 20.0 300.0)" x="20.0" y="300.0" text-anchor="middle" fill="rgb(0,0,0)" font-size="12.0">fitness</text><text x="620" y="62" fill="rgb(0,0,0)" font-size="12">min</text><text x="620" y="74" fill="rgb(0,0,255)" font-size="12">ave</text><text x="620" y="86" fill="rgb(0,255,0)" font-size="12">max</text>
      Sorry, your browser does not support inline SVG.
    </svg>