<?xml version='1.0' encoding='UTF-8'?>
<svg version="1.1" width="700.0" height="600.0" onload="init(evt)" xmlns="http://www.w3.org/2000/svg">
      <style>.caption {
  font-size: 14px;
  font-family: Georgia, serif;
}
</style>
      <script type="text/ecmascript"><![CDATA[
function init(evt) {
  if ( window.svgDocument == null ) {
    svgDocument = evt.target.ownerDocument;
  }
}

function RectHover(evt, i, c) {
  rect = svgDocument.getElementById('rect' + i);
  if( c != null ) {
    rect.setAttributeNS(null, "fill", c)  
  }
  tooltiptext = svgDocument.getElementById('tooltiptext' + i);
  tooltipbg = svgDocument.getElementById('tooltipbg' + i);
  if( tooltipbg != null) {
    tbb = tooltiptext.getBBox();
    tooltipbg.setAttributeNS(null, "width", tbb.width);
    tooltipbg.setAttributeNS(null, "height", tbb.height);
    tooltipbg.setAttributeNS(null, "x", tbb.x);
    tooltipbg.setAttributeNS(null, "y", tbb.y);
    tooltipbg.setAttributeNS(null, "visibility", "visible");
  }
  tooltiptext.setAttributeNS(null,"visibility","visible");
}

function RectUnhover(evt, i, c) {
  rect = svgDocument.getElementById('rect' + i);
  if( c != null ) {
    rect.setAttributeNS(null, "fill", c)  
  }
  tooltiptext = svgDocument.getElementById('tooltiptext' + i);
  tooltiptext.setAttributeNS(null,"visibility","hidden");
  tooltipbg = svgDocument.getElementById('tooltipbg' + i);
  if( tooltipbg != null ) {
    tooltipbg.setAttributeNS(null,"visibility","hidden");
  }
}
]]></script>
      <line x1="50.0" y1="550.0" x2="550.0" y2="550.0" stroke="rgb(0,0,0)" stroke-width="1"/><line x1="50.0" y1="550.0" x2="50.0" y2="50.0" stroke="rgb(0,0,0)" stroke-width="1"/><line x1="50.0" y1="550.0" x2="50.0" y2="50.0" stroke="rgb(192,192,192)" stroke-width="1"/><line x1="50.0" y1="548.0" x2="50.0" y2="552.0" stroke="rgb(192,192,192)" stroke-width="1"/><text text-anchor="middle" alignment-baseline="hanging" x="50.0" y="553.0" font-size="12.0">0</text><line x1="100.5050505050505" y1="550.0" x2="100.5050505050505" y2="50.0" stroke="rgb(192,192,192)" stroke-width="1"/><line x1="100.5050505050505" y1="548.0" x2="100.5050505050505" y2="552.0" stroke="rgb(192,192,192)" stroke-width="1"/><text text-anchor="middle" alignment-baseline="hanging" x="100.5050505050505" y="553.0" font-size="12.0">10</text><line x1="151.010101010101" y1="550.0" x2="151.010101010101" y2="50.0" stroke="rgb(192,192,192)" stroke-width="1"/><line x1="151.010101010101" y1="548.0" x2="151.010101010101" y2="552.0" stroke="rgb(192,192,192)" stroke-width="1"/><text text-anchor="middle" alignment-baseline="hanging" x="151.010101010101" y="553.0" font-size="12.0">20</text><line x1="201.51515151515153" y1="550.0" x2="201.51515151515153" y2="50.0" stroke="rgb(192,192,192)" stroke-width="1"/><line x1="201.51515151515153" y1="548.0" x2="201.51515151515153" y2="552.0" stroke="rgb(192,192,192)" stroke-width="1"/><text text-anchor="middle" alignment-baseline="hanging" x="201.51515151515153" y="553.0" font-size="12.0">30</text><line x1="252.02020202020202" y1="550.0" x2="252.02020202020202" y2="50.0" stroke="rgb(192,192,192)" stroke-width="1"/><line x1="252.02020202020202" y1="548.0" x2="252.02020202020202" y2="552.0" stroke="rgb(192,192,192)" stroke-width="1"/><text text-anchor="middle" alignment-baseline="hanging" x="252.02020202020202" y="553.0" font-size="12.0">40</text><line x1="302.52525252525254" y1="550.0" x2="302.52525252525254" y2="50.0" stroke="rgb(192,192,192)" stroke-width="1"/><line x1="302.52525252525254" y1="548.0" x2="302.52525252525254" y2="552.0" stroke="rgb(192,192,192)" stroke-width="1"/><text text-anchor="middle" alignment-baseline="hanging" x="302.52525252525254" y="553.0" font-size="12.0">50</text><line x1="353.03030303030306" y1="550.0" x2="353.03030303030306" y2="50.0" stroke="rgb(192,192,192)" stroke-width="1"/><line x1="353.03030303030306" y1="548.0" x2="353.03030303030306" y2="552.0" stroke="rgb(192,192,192)" stroke-width="1"/><text text-anchor="middle" alignment-baseline="hanging" x="353.03030303030306" y="553.0" font-size="12.0">60</text><line x1="403.5353535353535" y1="550.0" x2="403.5353535353535" y2="50.0" stroke="rgb(192,192,192)" stroke-width="1"/><line x1="403.5353535353535" y1="548.0" x2="403.5353535353535" y2="552.0" stroke="rgb(192,192,192)" stroke-width="1"/><text text-anchor="middle" alignment-baseline="hanging" x="403.5353535353535" y="553.0" font-size="12.0">70</text><line x1="454.04040404040404" y1="550.0" x2="454.04040404040404" y2="50.0" stroke="rgb(192,192,192)" stroke-width="1"/><line x1="454.04040404040404" y1="548.0" x2="454.04040404040404" y2="552.0" stroke="rgb(192,192,192)" stroke-width="1"/><text text-anchor="middle" alignment-baseline="hanging" x="454.04040404040404" y="553.0" font-size="12.0">80</text><line x1="504.5454545454545" y1="550.0" x2="504.5454545454545" y2="50.0" stroke="rgb(192,192,192)" stroke-width="1"/><line x1="504.5454545454545" y1="548.0" x2="504.5454545454545" y2="552.0" stroke="rgb(192,192,192)" stroke-width="1"/><text text-anchor="middle" alignment-baseline="hanging" x="504.5454545454545" y="553.0" font-size="12.0">90</text><line x1="50.0" y1="550.0" x2="550.0" y2="550.0" stroke="rgb(192,192,192)" stroke-width="1"/><text text-anchor="end" alignment-baseline="middle" x="45.0" y="550.0" font-size="12.0">0.0</text><line x1="48.0" y1="550.0" x2="52.0" y2="550.0" stroke="rgb(192,192,192)" stroke-width="1"/><line x1="50.0" y1="368.06917670592156" x2="550.0" y2="368.06917670592156" stroke="rgb(192,192,192)" stroke-width="1"/><text text-anchor="end" alignment-baseline="middle" x="45.0" y="368.06917670592156" font-size="12.0">1000.0</text><line x1="48.0" y1="368.06917670592156" x2="52.0" y2="368.06917670592156" stroke="rgb(192,192,192)" stroke-width="1"/><line x1="50.0" y1="186.13835341184307" x2="550.0" y2="186.13835341184307" stroke="rgb(192,192,192)" stroke-width="1"/><text text-anchor="end" alignment-baseline="middle" x="45.0" y="186.13835341184307" font-size="12.0">2000.0</text><line x1="48.0" y1="186.13835341184307" x2="52.0" y2="186.13835341184307" stroke="rgb(192,192,192)" stroke-width="1"/><polyline points="50.0,424.5219325644385 55.05050505050505,368.89548192706434 60.101010101010104,370.2782054582573 65.15151515151516,369.34734825781254 70.20202020202021,418.73583286788573 75.25252525252526,418.07373946093463 80.30303030303031,416.46102069652125 85.35353535353535,255.71264913676634 90.40404040404042,366.3167574129809 95.45454545454545,413.91498731265676 100.5050505050505,414.4108382513067 105.55555555555554,375.6120280963603 110.60606060606061,407.07107450648033 115.65656565656566,323.88179980763425 120.7070707070707,281.2202629004196 125.75757575757576,219.49692459706466 130.80808080808083,397.1653409875187 135.85858585858585,412.5198925291887 140.9090909090909,394.1684644737255 145.95959595959596,411.4880303399084 151.010101010101,394.1684644737255 156.06060606060606,393.2920929101342 161.1111111111111,392.9265872329554 166.16161616161617,394.73013092855035 171.21212121212122,394.7103769546462 176.26262626262627,369.57094455555307 181.31313131313132,369.4330965269643 186.36363636363635,310.4050602922381 191.4141414141414,384.2819323891848 196.46464646464648,384.80148749790897 201.51515151515153,383.69036713147534 206.56565656565658,221.06321242635772 211.61616161616163,361.29520624171715 216.66666666666666,178.21085039833258 221.7171717171717,315.531503390591 226.76767676767676,390.0020260827689 231.8181818181818,389.8099515653923 236.86868686868686,389.1368414013806 241.91919191919192,348.11991547667185 246.96969696969697,370.31807969390707 252.02020202020202,370.4182894406372 257.07070707070704,314.63158233950844 262.1212121212121,296.063954172906 267.1717171717172,404.8693528650525 272.2222222222222,404.65258269727997 277.27272727272725,403.92630226856954 282.32323232323233,403.8699661819959 287.3737373737374,413.25820305219446 292.42424242424244,226.39046737194633 297.47474747474746,411.93059012980495 302.52525252525254,364.50398928173064 307.57575757575756,384.92077374727995 312.62626262626264,388.3634787812832 317.67676767676767,393.71903343536314 322.7272727272727,385.2157798780384 327.77777777777777,397.46287651181467 332.8282828282828,386.40084807301776 337.8787878787879,387.8743267901 342.92929292929296,372.2911677330931 347.979797979798,391.3270304039647 353.03030303030306,384.1199020558006 358.0808080808081,360.0104514983096 363.13131313131316,391.2160236303457 368.1818181818182,357.53249512881837 373.23232323232327,239.68722848614703 378.2828282828283,240.73692322795353 383.3333333333333,224.5535093483785 388.3838383838384,224.68562251317218 393.4343434343434,252.86904318060658 398.4848484848485,324.2850073238869 403.5353535353535,413.05703561317296 408.58585858585855,382.41851036247056 413.6363636363636,346.69764203675106 418.68686868686865,182.42637320055047 423.73737373737373,109.2843049830804 428.7878787878788,329.48247040614524 433.83838383838383,328.81184916632134 438.8888888888889,331.4424329305848 443.93939393939394,331.531614467719 448.989898989899,383.9613888090147 454.04040404040404,362.16866736504824 459.0909090909091,340.81804642890734 464.14141414141415,334.50230333274635 469.19191919191917,385.4323183147684 474.24242424242425,334.4745927185361 479.2929292929293,315.2685939661567 484.34343434343435,315.2685939661567 489.3939393939394,399.12880596662876 494.4444444444444,403.75853802789914 499.4949494949495,403.96884990823014 504.5454545454545,403.75853802789914 509.59595959595964,403.78985407692 514.6464646464647,403.6608841618106 519.6969696969697,354.7369415347366 524.7474747474748,378.2212455499666 529.7979797979798,344.26315903695365 534.8484848484849,376.72222438293335 539.8989898989898,376.78790421326596 544.9494949494949,376.61167739418306 550.0,376.8440599950212" fill="none" stroke="rgb(0,0,0)" stroke-width="1"/><circle cx="50.0" cy="424.5219325644385" r="2" fill="rgb(0,0,0)"/><circle cx="55.05050505050505" cy="368.89548192706434" r="2" fill="rgb(0,0,0)"/><circle cx="60.101010101010104" cy="370.2782054582573" r="2" fill="rgb(0,0,0)"/><circle cx="65.15151515151516" cy="369.34734825781254" r="2" fill="rgb(0,0,0)"/><circle cx="70.20202020202021" cy="418.73583286788573" r="2" fill="rgb(0,0,0)"/><circle cx="75.25252525252526" cy="418.07373946093463" r="2" fill="rgb(0,0,0)"/><circle cx="80.30303030303031" cy="416.46102069652125" r="2" fill="rgb(0,0,0)"/><circle cx="85.35353535353535" cy="255.71264913676634" r="2" fill="rgb(0,0,0)"/><circle cx="90.40404040404042" cy="366.3167574129809" r="2" fill="rgb(0,0,0)"/><circle cx="95.45454545454545" cy="413.91498731265676" r="2" fill="rgb(0,0,0)"/><circle cx="100.5050505050505" cy="414.4108382513067" r="2" fill="rgb(0,0,0)"/><circle cx="105.55555555555554" cy="375.6120280963603" r="2" fill="rgb(0,0,0)"/><circle cx="110.60606060606061" cy="407.07107450648033" r="2" fill="rgb(0,0,0)"/><circle cx="115.65656565656566" cy="323.88179980763425" r="2" fill="rgb(0,0,0)"/><circle cx="120.7070707070707" cy="281.2202629004196" r="2" fill="rgb(0,0,0)"/><circle cx="125.75757575757576" cy="219.49692459706466" r="2" fill="rgb(0,0,0)"/><circle cx="130.80808080808083" cy="397.1653409875187" r="2" fill="rgb(0,0,0)"/><circle cx="135.85858585858585" cy="412.5198925291887" r="2" fill="rgb(0,0,0)"/><circle cx="140.9090909090909" cy="394.1684644737255" r="2" fill="rgb(0,0,0)"/><circle cx="145.95959595959596" cy="411.4880303399084" r="2" fill="rgb(0,0,0)"/><circle cx="151.010101010101" cy="394.1684644737255" r="2" fill="rgb(0,0,0)"/><circle cx="156.06060606060606" cy="393.2920929101342" r="2" fill="rgb(0,0,0)"/><circle cx="161.1111111111111" cy="392.9265872329554" r="2" fill="rgb(0,0,0)"/><circle cx="166.16161616161617" cy="394.73013092855035" r="2" fill="rgb(0,0,0)"/><circle cx="171.21212121212122" cy="394.7103769546462" r="2" fill="rgb(0,0,0)"/><circle cx="176.26262626262627" cy="369.57094455555307" r="2" fill="rgb(0,0,0)"/><circle cx="181.31313131313132" cy="369.4330965269643" r="2" fill="rgb(0,0,0)"/><circle cx="186.36363636363635" cy="310.4050602922381" r="2" fill="rgb(0,0,0)"/><circle cx="191.4141414141414" cy="384.2819323891848" r="2" fill="rgb(0,0,0)"/><circle cx="196.46464646464648" cy="384.80148749790897" r="2" fill="rgb(0,0,0)"/><circle cx="201.51515151515153" cy="383.69036713147534" r="2" fill="rgb(0,0,0)"/><circle cx="206.56565656565658" cy="221.06321242635772" r="2" fill="rgb(0,0,0)"/><circle cx="211.61616161616163" cy="361.29520624171715" r="2" fill="rgb(0,0,0)"/><circle cx="216.66666666666666" cy="178.21085039833258" r="2" fill="rgb(0,0,0)"/><circle cx="221.7171717171717" cy="315.531503390591" r="2" fill="rgb(0,0,0)"/><circle cx="226.76767676767676" cy="390.0020260827689" r="2" fill="rgb(0,0,0)"/><circle cx="231.8181818181818" cy="389.8099515653923" r="2" fill="rgb(0,0,0)"/><circle cx="236.86868686868686" cy="389.1368414013806" r="2" fill="rgb(0,0,0)"/><circle cx="241.91919191919192" cy="348.11991547667185" r="2" fill="rgb(0,0,0)"/><circle cx="246.96969696969697" cy="370.31807969390707" r="2" fill="rgb(0,0,0)"/><circle cx="252.02020202020202" cy="370.4182894406372" r="2" fill="rgb(0,0,0)"/><circle cx="257.07070707070704" cy="314.63158233950844" r="2" fill="rgb(0,0,0)"/><circle cx="262.1212121212121" cy="296.063954172906" r="2" fill="rgb(0,0,0)"/><circle cx="267.1717171717172" cy="404.8693528650525" r="2" fill="rgb(0,0,0)"/><circle cx="272.2222222222222" cy="404.65258269727997" r="2" fill="rgb(0,0,0)"/><circle cx="277.27272727272725" cy="403.92630226856954" r="2" fill="rgb(0,0,0)"/><circle cx="282.32323232323233" cy="403.8699661819959" r="2" fill="rgb(0,0,0)"/><circle cx="287.3737373737374" cy="413.25820305219446" r="2" fill="rgb(0,0,0)"/><circle cx="292.42424242424244" cy="226.39046737194633" r="2" fill="rgb(0,0,0)"/><circle cx="297.47474747474746" cy="411.93059012980495" r="2" fill="rgb(0,0,0)"/><circle cx="302.52525252525254" cy="364.50398928173064" r="2" fill="rgb(0,0,0)"/><circle cx="307.57575757575756" cy="384.92077374727995" r="2" fill="rgb(0,0,0)"/><circle cx="312.62626262626264" cy="388.3634787812832" r="2" fill="rgb(0,0,0)"/><circle cx="317.67676767676767" cy="393.71903343536314" r="2" fill="rgb(0,0,0)"/><circle cx="322.7272727272727" cy="385.2157798780384" r="2" fill="rgb(0,0,0)"/><circle cx="327.77777777777777" cy="397.46287651181467" r="2" fill="rgb(0,0,0)"/><circle cx="332.8282828282828" cy="386.40084807301776" r="2" fill="rgb(0,0,0)"/><circle cx="337.8787878787879" cy="387.8743267901" r="2" fill="rgb(0,0,0)"/><circle cx="342.92929292929296" cy="372.2911677330931" r="2" fill="rgb(0,0,0)"/><circle cx="347.979797979798" cy="391.3270304039647" r="2" fill="rgb(0,0,0)"/><circle cx="353.03030303030306" cy="384.1199020558006" r="2" fill="rgb(0,0,0)"/><circle cx="358.0808080808081" cy="360.0104514983096" r="2" fill="rgb(0,0,0)"/><circle cx="363.13131313131316" cy="391.2160236303457" r="2" fill="rgb(0,0,0)"/><circle cx="368.1818181818182" cy="357.53249512881837" r="2" fill="rgb(0,0,0)"/><circle cx="373.23232323232327" cy="239.68722848614703" r="2" fill="rgb(0,0,0)"/><circle cx="378.2828282828283" cy="240.73692322795353" r="2" fill="rgb(0,0,0)"/><circle cx="383.3333333333333" cy="224.5535093483785" r="2" fill="rgb(0,0,0)"/><circle cx="388.3838383838384" cy="224.68562251317218" r="2" fill="rgb(0,0,0)"/><circle cx="393.4343434343434" cy="252.86904318060658" r="2" fill="rgb(0,0,0)"/><circle cx="398.4848484848485" cy="324.2850073238869" r="2" fill="rgb(0,0,0)"/><circle cx="403.5353535353535" cy="413.05703561317296" r="2" fill="rgb(0,0,0)"/><circle cx="408.58585858585855" cy="382.41851036247056" r="2" fill="rgb(0,0,0)"/><circle cx="413.6363636363636" cy="346.69764203675106" r="2" fill="rgb(0,0,0)"/><circle cx="418.68686868686865" cy="182.42637320055047" r="2" fill="rgb(0,0,0)"/><circle cx="423.73737373737373" cy="109.2843049830804" r="2" fill="rgb(0,0,0)"/><circle cx="428.7878787878788" cy="329.48247040614524" r="2" fill="rgb(0,0,0)"/><circle cx="433.83838383838383" cy="328.81184916632134" r="2" fill="rgb(0,0,0)"/><circle cx="438.8888888888889" cy="331.4424329305848" r="2" fill="rgb(0,0,0)"/><circle cx="443.93939393939394" cy="331.531614467719" r="2" fill="rgb(0,0,0)"/><circle cx="448.989898989899" cy="383.9613888090147" r="2" fill="rgb(0,0,0)"/><circle cx="454.04040404040404" cy="362.16866736504824" r="2" fill="rgb(0,0,0)"/><circle cx="459.0909090909091" cy="340.81804642890734" r="2" fill="rgb(0,0,0)"/><circle cx="464.14141414141415" cy="334.50230333274635" r="2" fill="rgb(0,0,0)"/><circle cx="469.19191919191917" cy="385.4323183147684" r="2" fill="rgb(0,0,0)"/><circle cx="474.24242424242425" cy="334.4745927185361" r="2" fill="rgb(0,0,0)"/><circle cx="479.2929292929293" cy="315.2685939661567" r="2" fill="rgb(0,0,0)"/><circle cx="484.34343434343435" cy="315.2685939661567" r="2" fill="rgb(0,0,0)"/><circle cx="489.3939393939394" cy="399.12880596662876" r="2" fill="rgb(0,0,0)"/><circle cx="494.4444444444444" cy="403.75853802789914" r="2" fill="rgb(0,0,0)"/><circle cx="499.4949494949495" cy="403.96884990823014" r="2" fill="rgb(0,0,0)"/><circle cx="504.5454545454545" cy="403.75853802789914" r="2" fill="rgb(0,0,0)"/><circle cx="509.59595959595964" cy="403.78985407692" r="2" fill="rgb(0,0,0)"/><circle cx="514.6464646464647" cy="403.6608841618106" r="2" fill="rgb(0,0,0)"/><circle cx="519.6969696969697" cy="354.7369415347366" r="2" fill="rgb(0,0,0)"/><circle cx="524.7474747474748" cy="378.2212455499666" r="2" fill="rgb(0,0,0)"/><circle cx="529.7979797979798" cy="344.26315903695365" r="2" fill="rgb(0,0,0)"/><circle cx="534.8484848484849" cy="376.72222438293335" r="2" fill="rgb(0,0,0)"/><circle cx="539.8989898989898" cy="376.78790421326596" r="2" fill="rgb(0,0,0)"/><circle cx="544.9494949494949" cy="376.61167739418306" r="2" fill="rgb(0,0,0)"/><circle cx="550.0" cy="376.8440599950212" r="2" fill="rgb(0,0,0)"/><polyline points="50.0,220.81317419301178 55.05050505050505,187.52626849968271 60.101010101010104,168.7725460861791 65.15151515151516,151.596939117889 70.20202020202021,136.22215084132876 75.25252525252526,119.12814975207868 80.30303030303031,110.00946884437474 85.35353535353535,98.46689675808426 90.40404040404042,93.031627399684 95.45454545454545,90.63178578097495 100.5050505050505,78.92969439172356 105.55555555555554,76.42655486867073 110.60606060606061,71.54805713751045 115.65656565656566,72.07990353557534 120.7070707070707,65.62866163020692 125.75757575757576,60.97301246868011 130.80808080808083,65.0311334494653 135.85858585858585,67.64037538268275 140.9090909090909,74.48584050966338 145.95959595959596,79.438097949542 151.010101010101,78.46394947747194 156.06060606060606,76.30326358270969 161.1111111111111,72.43519412508039 166.16161616161617,70.75506591245693 171.21212121212122,67.21093200806672 176.26262626262627,64.03756353657337 181.31313131313132,73.9029327562069 186.36363636363635,67.6180199805433 191.4141414141414,62.55745198541365 196.46464646464648,59.378034521924974 201.51515151515153,60.05781183699281 206.56565656565658,57.08640498947608 211.61616161616163,64.23731418328691 216.66666666666666,60.00723985378994 221.7171717171717,62.62724349830506 226.76767676767676,71.02314708998904 231.8181818181818,64.24792432006228 236.86868686868686,58.99650149906671 241.91919191919192,58.29123774734461 246.96969696969697,60.26960858352078 252.02020202020202,62.98641846457434 257.07070707070704,62.47108316536412 262.1212121212121,64.05009924102256 267.1717171717172,65.35249496341686 272.2222222222222,68.48974341410093 277.27272727272725,67.16412554229476 282.32323232323233,68.63860780884971 287.3737373737374,66.3439948413577 292.42424242424244,59.143311307457225 297.47474747474746,59.93082440627069 302.52525252525254,62.763911933662996 307.57575757575756,66.66497914269536 312.62626262626264,69.6717971164685 317.67676767676767,74.99969839418458 322.7272727272727,72.99356662212261 327.77777777777777,85.74127603230585 332.8282828282828,74.82676661199667 337.8787878787879,72.81921259659663 342.92929292929296,63.69399187415519 347.979797979798,66.33917164908974 353.03030303030306,68.43299723792097 358.0808080808081,65.31263595868978 363.13131313131316,65.41293963876757 368.1818181818182,59.14961043470089 373.23232323232327,61.48641761945265 378.2828282828283,57.61375827480833 383.3333333333333,56.55099510431461 388.3838383838384,55.16149403096307 393.4343434343434,55.05121509521558 398.4848484848485,59.05256177740125 403.5353535353535,67.08973743670725 408.58585858585855,67.16102296635802 413.6363636363636,68.48094876556189 418.68686868686865,56.5433062303606 423.73737373737373,53.1423135413977 428.7878787878788,60.50082424900751 433.83838383838383,58.743381040017596 438.8888888888889,53.94024451739159 443.93939393939394,58.357014820178165 448.989898989899,60.72179158950337 454.04040404040404,57.651652492628614 459.0909090909091,59.55580330354121 464.14141414141415,56.10379050585118 469.19191919191917,63.29469479566745 474.24242424242425,58.306857495331485 479.2929292929293,58.25608057126101 484.34343434343435,58.602761082771394 489.3939393939394,72.45751092230267 494.4444444444444,72.52077779127995 499.4949494949495,65.2393480258271 504.5454545454545,73.73364316821392 509.59595959595964,84.44208125164579 514.6464646464647,73.846069019342 519.6969696969697,68.23822193499979 524.7474747474748,67.35004574890445 529.7979797979798,59.19806254981091 534.8484848484849,59.38464478183562 539.8989898989898,62.84164871026786 544.9494949494949,59.2968370714309 550.0,60.17475793634759" fill="none" stroke="rgb(0,0,255)" stroke-width="1"/><circle cx="50.0" cy="220.81317419301178" r="2" fill="rgb(0,0,255)"/><circle cx="55.05050505050505" cy="187.52626849968271" r="2" fill="rgb(0,0,255)"/><circle cx="60.101010101010104" cy="168.7725460861791" r="2" fill="rgb(0,0,255)"/><circle cx="65.15151515151516" cy="151.596939117889" r="2" fill="rgb(0,0,255)"/><circle cx="70.20202020202021" cy="136.22215084132876" r="2" fill="rgb(0,0,255)"/><circle cx="75.25252525252526" cy="119.12814975207868" r="2" fill="rgb(0,0,255)"/><circle cx="80.30303030303031" cy="110.00946884437474" r="2" fill="rgb(0,0,255)"/><circle cx="85.35353535353535" cy="98.46689675808426" r="2" fill="rgb(0,0,255)"/><circle cx="90.40404040404042" cy="93.031627399684" r="2" fill="rgb(0,0,255)"/><circle cx="95.45454545454545" cy="90.63178578097495" r="2" fill="rgb(0,0,255)"/><circle cx="100.5050505050505" cy="78.92969439172356" r="2" fill="rgb(0,0,255)"/><circle cx="105.55555555555554" cy="76.42655486867073" r="2" fill="rgb(0,0,255)"/><circle cx="110.60606060606061" cy="71.54805713751045" r="2" fill="rgb(0,0,255)"/><circle cx="115.65656565656566" cy="72.07990353557534" r="2" fill="rgb(0,0,255)"/><circle cx="120.7070707070707" cy="65.62866163020692" r="2" fill="rgb(0,0,255)"/><circle cx="125.75757575757576" cy="60.97301246868011" r="2" fill="rgb(0,0,255)"/><circle cx="130.80808080808083" cy="65.0311334494653" r="2" fill="rgb(0,0,255)"/><circle cx="135.85858585858585" cy="67.64037538268275" r="2" fill="rgb(0,0,255)"/><circle cx="140.9090909090909" cy="74.48584050966338" r="2" fill="rgb(0,0,255)"/><circle cx="145.95959595959596" cy="79.438097949542" r="2" fill="rgb(0,0,255)"/><circle cx="151.010101010101" cy="78.46394947747194" r="2" fill="rgb(0,0,255)"/><circle cx="156.06060606060606" cy="76.30326358270969" r="2" fill="rgb(0,0,255)"/><circle cx="161.1111111111111" cy="72.43519412508039" r="2" fill="rgb(0,0,255)"/><circle cx="166.16161616161617" cy="70.75506591245693" r="2" fill="rgb(0,0,255)"/><circle cx="171.21212121212122" cy="67.21093200806672" r="2" fill="rgb(0,0,255)"/><circle cx="176.26262626262627" cy="64.03756353657337" r="2" fill="rgb(0,0,255)"/><circle cx="181.31313131313132" cy="73.9029327562069" r="2" fill="rgb(0,0,255)"/><circle cx="186.36363636363635" cy="67.6180199805433" r="2" fill="rgb(0,0,255)"/><circle cx="191.4141414141414" cy="62.55745198541365" r="2" fill="rgb(0,0,255)"/><circle cx="196.46464646464648" cy="59.378034521924974" r="2" fill="rgb(0,0,255)"/><circle cx="201.51515151515153" cy="60.05781183699281" r="2" fill="rgb(0,0,255)"/><circle cx="206.56565656565658" cy="57.08640498947608" r="2" fill="rgb(0,0,255)"/><circle cx="211.61616161616163" cy="64.23731418328691" r="2" fill="rgb(0,0,255)"/><circle cx="216.66666666666666" cy="60.00723985378994" r="2" fill="rgb(0,0,255)"/><circle cx="221.7171717171717" cy="62.62724349830506" r="2" fill="rgb(0,0,255)"/><circle cx="226.76767676767676" cy="71.02314708998904" r="2" fill="rgb(0,0,255)"/><circle cx="231.8181818181818" cy="64.24792432006228" r="2" fill="rgb(0,0,255)"/><circle cx="236.86868686868686" cy="58.99650149906671" r="2" fill="rgb(0,0,255)"/><circle cx="241.91919191919192" cy="58.29123774734461" r="2" fill="rgb(0,0,255)"/><circle cx="246.96969696969697" cy="60.26960858352078" r="2" fill="rgb(0,0,255)"/><circle cx="252.02020202020202" cy="62.98641846457434" r="2" fill="rgb(0,0,255)"/><circle cx="257.07070707070704" cy="62.47108316536412" r="2" fill="rgb(0,0,255)"/><circle cx="262.1212121212121" cy="64.05009924102256" r="2" fill="rgb(0,0,255)"/><circle cx="267.1717171717172" cy="65.35249496341686" r="2" fill="rgb(0,0,255)"/><circle cx="272.2222222222222" cy="68.48974341410093" r="2" fill="rgb(0,0,255)"/><circle cx="277.27272727272725" cy="67.16412554229476" r="2" fill="rgb(0,0,255)"/><circle cx="282.32323232323233" cy="68.63860780884971" r="2" fill="rgb(0,0,255)"/><circle cx="287.3737373737374" cy="66.3439948413577" r="2" fill="rgb(0,0,255)"/><circle cx="292.42424242424244" cy="59.143311307457225" r="2" fill="rgb(0,0,255)"/><circle cx="297.47474747474746" cy="59.93082440627069" r="2" fill="rgb(0,0,255)"/><circle cx="302.52525252525254" cy="62.763911933662996" r="2" fill="rgb(0,0,255)"/><circle cx="307.57575757575756" cy="66.66497914269536" r="2" fill="rgb(0,0,255)"/><circle cx="312.62626262626264" cy="69.6717971164685" r="2" fill="rgb(0,0,255)"/><circle cx="317.67676767676767" cy="74.99969839418458" r="2" fill="rgb(0,0,255)"/><circle cx="322.7272727272727" cy="72.99356662212261" r="2" fill="rgb(0,0,255)"/><circle cx="327.77777777777777" cy="85.74127603230585" r="2" fill="rgb(0,0,255)"/><circle cx="332.8282828282828" cy="74.82676661199667" r="2" fill="rgb(0,0,255)"/><circle cx="337.8787878787879" cy="72.81921259659663" r="2" fill="rgb(0,0,255)"/><circle cx="342.92929292929296" cy="63.69399187415519" r="2" fill="rgb(0,0,255)"/><circle cx="347.979797979798" cy="66.33917164908974" r="2" fill="rgb(0,0,255)"/><circle cx="353.03030303030306" cy="68.43299723792097" r="2" fill="rgb(0,0,255)"/><circle cx="358.0808080808081" cy="65.31263595868978" r="2" fill="rgb(0,0,255)"/><circle cx="363.13131313131316" cy="65.41293963876757" r="2" fill="rgb(0,0,255)"/><circle cx="368.1818181818182" cy="59.14961043470089" r="2" fill="rgb(0,0,255)"/><circle cx="373.23232323232327" cy="61.48641761945265" r="2" fill="rgb(0,0,255)"/><circle cx="378.2828282828283" cy="57.61375827480833" r="2" fill="rgb(0,0,255)"/><circle cx="383.3333333333333" cy="56.55099510431461" r="2" fill="rgb(0,0,255)"/><circle cx="388.3838383838384" cy="55.16149403096307" r="2" fill="rgb(0,0,255)"/><circle cx="393.4343434343434" cy="55.05121509521558" r="2" fill="rgb(0,0,255)"/><circle cx="398.4848484848485" cy="59.05256177740125" r="2" fill="rgb(0,0,255)"/><circle cx="403.5353535353535" cy="67.08973743670725" r="2" fill="rgb(0,0,255)"/><circle cx="408.58585858585855" cy="67.16102296635802" r="2" fill="rgb(0,0,255)"/><circle cx="413.6363636363636" cy="68.48094876556189" r="2" fill="rgb(0,0,255)"/><circle cx="418.68686868686865" cy="56.5433062303606" r="2" fill="rgb(0,0,255)"/><circle cx="423.73737373737373" cy="53.1423135413977" r="2" fill="rgb(0,0,255)"/><circle cx="428.7878787878788" cy="60.50082424900751" r="2" fill="rgb(0,0,255)"/><circle cx="433.83838383838383" cy="58.743381040017596" r="2" fill="rgb(0,0,255)"/><circle cx="438.8888888888889" cy="53.94024451739159" r="2" fill="rgb(0,0,255)"/><circle cx="443.93939393939394" cy="58.357014820178165" r="2" fill="rgb(0,0,255)"/><circle cx="448.989898989899" cy="60.72179158950337" r="2" fill="rgb(0,0,255)"/><circle cx="454.04040404040404" cy="57.651652492628614" r="2" fill="rgb(0,0,255)"/><circle cx="459.0909090909091" cy="59.55580330354121" r="2" fill="rgb(0,0,255)"/><circle cx="464.14141414141415" cy="56.10379050585118" r="2" fill="rgb(0,0,255)"/><circle cx="469.19191919191917" cy="63.29469479566745" r="2" fill="rgb(0,0,255)"/><circle cx="474.24242424242425" cy="58.306857495331485" r="2" fill="rgb(0,0,255)"/><circle cx="479.2929292929293" cy="58.25608057126101" r="2" fill="rgb(0,0,255)"/><circle cx="484.34343434343435" cy="58.602761082771394" r="2" fill="rgb(0,0,255)"/><circle cx="489.3939393939394" cy="72.45751092230267" r="2" fill="rgb(0,0,255)"/><circle cx="494.4444444444444" cy="72.52077779127995" r="2" fill="rgb(0,0,255)"/><circle cx="499.4949494949495" cy="65.2393480258271" r="2" fill="rgb(0,0,255)"/><circle cx="504.5454545454545" cy="73.73364316821392" r="2" fill="rgb(0,0,255)"/><circle cx="509.59595959595964" cy="84.44208125164579" r="2" fill="rgb(0,0,255)"/><circle cx="514.6464646464647" cy="73.846069019342" r="2" fill="rgb(0,0,255)"/><circle cx="519.6969696969697" cy="68.23822193499979" r="2" fill="rgb(0,0,255)"/><circle cx="524.7474747474748" cy="67.35004574890445" r="2" fill="rgb(0,0,255)"/><circle cx="529.7979797979798" cy="59.19806254981091" r="2" fill="rgb(0,0,255)"/><circle cx="534.8484848484849" cy="59.38464478183562" r="2" fill="rgb(0,0,255)"/><circle cx="539.8989898989898" cy="62.84164871026786" r="2" fill="rgb(0,0,255)"/><circle cx="544.9494949494949" cy="59.2968370714309" r="2" fill="rgb(0,0,255)"/><circle cx="550.0" cy="60.17475793634759" r="2" fill="rgb(0,0,255)"/><polyline points="50.0,56.52630290125262 55.05050505050505,55.10404116599955 60.101010101010104,55.37347018776694 65.15151515151516,55.43678455174222 70.20202020202021,55.58300410279543 75.25252525252526,54.702461850876944 80.30303030303031,55.337739343498185 85.35353535353535,55.69204301602559 90.40404040404042,55.117589141692406 95.45454545454545,55.09663127749411 100.5050505050505,55.94804521627293 105.55555555555554,55.994125981372065 110.60606060606061,55.80126025275331 115.65656565656566,55.959328313027356 120.7070707070707,54.992724704690715 125.75757575757576,54.673294280043706 130.80808080808083,54.65728945141092 135.85858585858585,54.46505251426498 140.9090909090909,54.550589240831926 145.95959595959596,54.45674777684377 151.010101010101,54.1977320098498 156.06060606060606,54.2330752924737 161.1111111111111,54.505159334847406 166.16161616161617,54.02740438444687 171.21212121212122,54.40034784212861 176.26262626262627,54.23825156308146 181.31313131313132,53.76021035823197 186.36363636363635,53.76021035823197 191.4141414141414,53.76021035823197 196.46464646464648,53.84592229183795 201.51515151515153,53.75693066304126 206.56565656565658,53.853312697497586 211.61616161616163,53.64737140998045 216.66666666666666,53.32907530483834 221.7171717171717,53.28715412914403 226.76767676767676,52.525333445657736 231.8181818181818,50.973232872504525 236.86868686868686,50.63818520203216 241.91919191919192,50.43494586981325 246.96969696969697,50.425863169217735 252.02020202020202,50.43494586981325 257.07070707070704,50.30163051466428 262.1212121212121,50.365394836806786 267.1717171717172,50.28496195374305 272.2222222222222,50.09329603292184 277.27272727272725,50.21405877133833 282.32323232323233,50.211194126954695 287.3737373737374,50.09329603292184 292.42424242424244,50.04953800128311 297.47474747474746,50.09329603292184 302.52525252525254,50.13632383223427 307.57575757575756,50.21405877133833 312.62626262626264,50.191691714528304 317.67676767676767,50.07810128869062 322.7272727272727,50.07810128869062 327.77777777777777,50.1211290880031 332.8282828282828,50.1211290880031 337.8787878787879,50.19674023410903 342.92929292929296,50.17649697029714 347.979797979798,50.236965302708086 353.03030303030306,50.1211290880031 358.0808080808081,50.1211290880031 363.13131313131316,50.04023507423784 368.1818181818182,50.04558278057692 373.23232323232327,50.07810128869062 378.2828282828283,50.07810128869062 383.3333333333333,50.0811465405053 388.3838383838384,50.07810128869062 393.4343434343434,50.17649697029714 398.4848484848485,50.17649697029714 403.5353535353535,50.07810128869062 408.58585858585855,50.09329603292184 413.6363636363636,50.07046437643902 418.68686868686865,50.13856962110151 423.73737373737373,50.07046437643902 428.7878787878788,50.07046437643902 433.83838383838383,50.07046437643902 438.8888888888889,50.07046437643902 443.93939393939394,50.07046437643902 448.989898989899,50.07046437643902 454.04040404040404,50.07810128869062 459.0909090909091,50.07810128869062 464.14141414141415,50.02055255511135 469.19191919191917,50.034363781311754 474.24242424242425,50.034363781311754 479.2929292929293,50.00813109675323 484.34343434343435,50.034363781311754 489.3939393939394,50.002404951654455 494.4444444444444,50.055449257670546 499.4949494949495,50.034363781311754 504.5454545454545,50.034363781311754 509.59595959595964,50.034363781311754 514.6464646464647,50.034363781311754 519.6969696969697,50.0 524.7474747474748,50.0898130389823 529.7979797979798,50.055449257670546 534.8484848484849,50.08153965740814 539.8989898989898,50.07064400190171 544.9494949494949,50.055449257670546 550.0,50.055449257670546" fill="none" stroke="rgb(0,255,0)" stroke-width="1"/><circle cx="50.0" cy="56.52630290125262" r="2" fill="rgb(0,255,0)"/><circle cx="55.05050505050505" cy="55.10404116599955" r="2" fill="rgb(0,255,0)"/><circle cx="60.101010101010104" cy="55.37347018776694" r="2" fill="rgb(0,255,0)"/><circle cx="65.15151515151516" cy="55.43678455174222" r="2" fill="rgb(0,255,0)"/><circle cx="70.20202020202021" cy="55.58300410279543" r="2" fill="rgb(0,255,0)"/><circle cx="75.25252525252526" cy="54.702461850876944" r="2" fill="rgb(0,255,0)"/><circle cx="80.30303030303031" cy="55.337739343498185" r="2" fill="rgb(0,255,0)"/><circle cx="85.35353535353535" cy="55.69204301602559" r="2" fill="rgb(0,255,0)"/><circle cx="90.40404040404042" cy="55.117589141692406" r="2" fill="rgb(0,255,0)"/><circle cx="95.45454545454545" cy="55.09663127749411" r="2" fill="rgb(0,255,0)"/><circle cx="100.5050505050505" cy="55.94804521627293" r="2" fill="rgb(0,255,0)"/><circle cx="105.55555555555554" cy="55.994125981372065" r="2" fill="rgb(0,255,0)"/><circle cx="110.60606060606061" cy="55.80126025275331" r="2" fill="rgb(0,255,0)"/><circle cx="115.65656565656566" cy="55.959328313027356" r="2" fill="rgb(0,255,0)"/><circle cx="120.7070707070707" cy="54.992724704690715" r="2" fill="rgb(0,255,0)"/><circle cx="125.75757575757576" cy="54.673294280043706" r="2" fill="rgb(0,255,0)"/><circle cx="130.80808080808083" cy="54.65728945141092" r="2" fill="rgb(0,255,0)"/><circle cx="135.85858585858585" cy="54.46505251426498" r="2" fill="rgb(0,255,0)"/><circle cx="140.9090909090909" cy="54.550589240831926" r="2" fill="rgb(0,255,0)"/><circle cx="145.95959595959596" cy="54.45674777684377" r="2" fill="rgb(0,255,0)"/><circle cx="151.010101010101" cy="54.1977320098498" r="2" fill="rgb(0,255,0)"/><circle cx="156.06060606060606" cy="54.2330752924737" r="2" fill="rgb(0,255,0)"/><circle cx="161.1111111111111" cy="54.505159334847406" r="2" fill="rgb(0,255,0)"/><circle cx="166.16161616161617" cy="54.02740438444687" r="2" fill="rgb(0,255,0)"/><circle cx="171.21212121212122" cy="54.40034784212861" r="2" fill="rgb(0,255,0)"/><circle cx="176.26262626262627" cy="54.23825156308146" r="2" fill="rgb(0,255,0)"/><circle cx="181.31313131313132" cy="53.76021035823197" r="2" fill="rgb(0,255,0)"/><circle cx="186.36363636363635" cy="53.76021035823197" r="2" fill="rgb(0,255,0)"/><circle cx="191.4141414141414" cy="53.76021035823197" r="2" fill="rgb(0,255,0)"/><circle cx="196.46464646464648" cy="53.84592229183795" r="2" fill="rgb(0,255,0)"/><circle cx="201.51515151515153" cy="53.75693066304126" r="2" fill="rgb(0,255,0)"/><circle cx="206.56565656565658" cy="53.853312697497586" r="2" fill="rgb(0,255,0)"/><circle cx="211.61616161616163" cy="53.64737140998045" r="2" fill="rgb(0,255,0)"/><circle cx="216.66666666666666" cy="53.32907530483834" r="2" fill="rgb(0,255,0)"/><circle cx="221.7171717171717" cy="53.28715412914403" r="2" fill="rgb(0,255,0)"/><circle cx="226.76767676767676" cy="52.525333445657736" r="2" fill="rgb(0,255,0)"/><circle cx="231.8181818181818" cy="50.973232872504525" r="2" fill="rgb(0,255,0)"/><circle cx="236.86868686868686" cy="50.63818520203216" r="2" fill="rgb(0,255,0)"/><circle cx="241.91919191919192" cy="50.43494586981325" r="2" fill="rgb(0,255,0)"/><circle cx="246.96969696969697" cy="50.425863169217735" r="2" fill="rgb(0,255,0)"/><circle cx="252.02020202020202" cy="50.43494586981325" r="2" fill="rgb(0,255,0)"/><circle cx="257.07070707070704" cy="50.30163051466428" r="2" fill="rgb(0,255,0)"/><circle cx="262.1212121212121" cy="50.365394836806786" r="2" fill="rgb(0,255,0)"/><circle cx="267.1717171717172" cy="50.28496195374305" r="2" fill="rgb(0,255,0)"/><circle cx="272.2222222222222" cy="50.09329603292184" r="2" fill="rgb(0,255,0)"/><circle cx="277.27272727272725" cy="50.21405877133833" r="2" fill="rgb(0,255,0)"/><circle cx="282.32323232323233" cy="50.211194126954695" r="2" fill="rgb(0,255,0)"/><circle cx="287.3737373737374" cy="50.09329603292184" r="2" fill="rgb(0,255,0)"/><circle cx="292.42424242424244" cy="50.04953800128311" r="2" fill="rgb(0,255,0)"/><circle cx="297.47474747474746" cy="50.09329603292184" r="2" fill="rgb(0,255,0)"/><circle cx="302.52525252525254" cy="50.13632383223427" r="2" fill="rgb(0,255,0)"/><circle cx="307.57575757575756" cy="50.21405877133833" r="2" fill="rgb(0,255,0)"/><circle cx="312.62626262626264" cy="50.191691714528304" r="2" fill="rgb(0,255,0)"/><circle cx="317.67676767676767" cy="50.07810128869062" r="2" fill="rgb(0,255,0)"/><circle cx="322.7272727272727" cy="50.07810128869062" r="2" fill="rgb(0,255,0)"/><circle cx="327.77777777777777" cy="50.1211290880031" r="2" fill="rgb(0,255,0)"/><circle cx="332.8282828282828" cy="50.1211290880031" r="2" fill="rgb(0,255,0)"/><circle cx="337.8787878787879" cy="50.19674023410903" r="2" fill="rgb(0,255,0)"/><circle cx="342.92929292929296" cy="50.17649697029714" r="2" fill="rgb(0,255,0)"/><circle cx="347.979797979798" cy="50.236965302708086" r="2" fill="rgb(0,255,0)"/><circle cx="353.03030303030306" cy="50.1211290880031" r="2" fill="rgb(0,255,0)"/><circle cx="358.0808080808081" cy="50.1211290880031" r="2" fill="rgb(0,255,0)"/><circle cx="363.13131313131316" cy="50.04023507423784" r="2" fill="rgb(0,255,0)"/><circle cx="368.1818181818182" cy="50.04558278057692" r="2" fill="rgb(0,255,0)"/><circle cx="373.23232323232327" cy="50.07810128869062" r="2" fill="rgb(0,255,0)"/><circle cx="378.2828282828283" cy="50.07810128869062" r="2" fill="rgb(0,255,0)"/><circle cx="383.3333333333333" cy="50.0811465405053" r="2" fill="rgb(0,255,0)"/><circle cx="388.3838383838384" cy="50.07810128869062" r="2" fill="rgb(0,255,0)"/><circle cx="393.4343434343434" cy="50.17649697029714" r="2" fill="rgb(0,255,0)"/><circle cx="398.4848484848485" cy="50.17649697029714" r="2" fill="rgb(0,255,0)"/><circle cx="403.5353535353535" cy="50.07810128869062" r="2" fill="rgb(0,255,0)"/><circle cx="408.58585858585855" cy="50.09329603292184" r="2" fill="rgb(0,255,0)"/><circle cx="413.6363636363636" cy="50.07046437643902" r="2" fill="rgb(0,255,0)"/><circle cx="418.68686868686865" cy="50.13856962110151" r="2" fill="rgb(0,255,0)"/><circle cx="423.73737373737373" cy="50.07046437643902" r="2" fill="rgb(0,255,0)"/><circle cx="428.7878787878788" cy="50.07046437643902" r="2" fill="rgb(0,255,0)"/><circle cx="433.83838383838383" cy="50.07046437643902" r="2" fill="rgb(0,255,0)"/><circle cx="438.8888888888889" cy="50.07046437643902" r="2" fill="rgb(0,255,0)"/><circle cx="443.93939393939394" cy="50.07046437643902" r="2" fill="rgb(0,255,0)"/><circle cx="448.989898989899" cy="50.07046437643902" r="2" fill="rgb(0,255,0)"/><circle cx="454.04040404040404" cy="50.07810128869062" r="2" fill="rgb(0,255,0)"/><circle cx="459.0909090909091" cy="50.07810128869062" r="2" fill="rgb(0,255,0)"/><circle cx="464.14141414141415" cy="50.02055255511135" r="2" fill="rgb(0,255,0)"/><circle cx="469.19191919191917" cy="50.034363781311754" r="2" fill="rgb(0,255,0)"/><circle cx="474.24242424242425" cy="50.034363781311754" r="2" fill="rgb(0,255,0)"/><circle cx="479.2929292929293" cy="50.00813109675323" r="2" fill="rgb(0,255,0)"/><circle cx="484.34343434343435" cy="50.034363781311754" r="2" fill="rgb(0,255,0)"/><circle cx="489.3939393939394" cy="50.002404951654455" r="2" fill="rgb(0,255,0)"/><circle cx="494.4444444444444" cy="50.055449257670546" r="2" fill="rgb(0,255,0)"/><circle cx="499.4949494949495" cy="50.034363781311754" r="2" fill="rgb(0,255,0)"/><circle cx="504.5454545454545" cy="50.034363781311754" r="2" fill="rgb(0,255,0)"/><circle cx="509.59595959595964" cy="50.034363781311754" r="2" fill="rgb(0,255,0)"/><circle cx="514.6464646464647" cy="50.034363781311754" r="2" fill="rgb(0,255,0)"/><circle cx="519.6969696969697" cy="50.0" r="2" fill="rgb(0,255,0)"/><circle cx="524.7474747474748" cy="50.0898130389823" r="2" fill="rgb(0,255,0)"/><circle cx="529.7979797979798" cy="50.055449257670546" r="2" fill="rgb(0,255,0)"/><circle cx="534.8484848484849" cy="50.08153965740814" r="2" fill="rgb(0,255,0)"/><circle cx="539.8989898989898" cy="50.07064400190171" r="2" fill="rgb(0,255,0)"/><circle cx="544.9494949494949" cy="50.055449257670546" r="2" fill="rgb(0,255,0)"/><circle cx="550.0" cy="50.055449257670546" r="2" fill="rgb(0,255,0)"/><text x="350.0" y="20.0" text-anchor="middle" fill="rgb(0,0,0)" font-size="20.0">GA Demo</text><text x="350.0" y="575.0" text-anchor="middle" fill="rgb(0,0,0)" font-size="12.0">generation</text><text transform="rotate(-90.0 20.0 300.0)" x="20.0" y="300.0" text-anchor="middle" fill="rgb(0,0,0)" font-size="12.0">fitness</text><text x="620" y="62" fill="rgb(0,0,0)" font-size="12">min</text><text x="620" y="74" fill="rgb(0,0,255)" font-size="12">ave</text><text x="620" y="86" fill="rgb(0,255,0)" font-size="12">max</text>
      Sorry, your browser does not support inline SVG.
    </svg>