<?xml version='1.0' encoding='UTF-8'?>
<svg version="1.1" width="700.0" height="600.0" onload="init(evt)" xmlns="http://www.w3.org/2000/svg">
      <style>.caption {
  font-size: 14px;
  font-family: Georgia, serif;
}
</style>
      <script type="text/ecmascript"><![CDATA[
function init(evt) {
  if ( window.svgDocument == null ) {
    svgDocument = evt.target.ownerDocument;
  }
}

function RectHover(evt, i, c) {
  rect = svgDocument.getElementById('rect' + i);
  if( c != null ) {
    rect.setAttributeNS(null, "fill", c)  
  }
  tooltiptext = svgDocument.getElementById('tooltiptext' + i);
  tooltipbg = svgDocument.getElementById('tooltipbg' + i);
  if( tooltipbg != null) {
    tbb = tooltiptext.getBBox();
    tooltipbg.setAttributeNS(null, "width", tbb.width);
    tooltipbg.setAttributeNS(null, "height", tbb.height);
    tooltipbg.setAttributeNS(null, "x", tbb.x);
    tooltipbg.setAttributeNS(null, "y", tbb.y);
    tooltipbg.setAttributeNS(null, "visibility", "visible");
  }
  tooltiptext.setAttributeNS(null,"visibility","visible");
}

function RectUnhover(evt, i, c) {
  rect = svgDocument.getElementById('rect' + i);
  if( c != null ) {
    rect.setAttributeNS(null, "fill", c)  
  }
  tooltiptext = svgDocument.getElementById('tooltiptext' + i);
  tooltiptext.setAttributeNS(null,"visibility","hidden");
  tooltipbg = svgDocument.getElementById('tooltipbg' + i);
  if( tooltipbg != null ) {
    tooltipbg.setAttributeNS(null,"visibility","hidden");
  }
}
]]></script>
      <line x1="50.0" y1="550.0" x2="550.0" y2="550.0" stroke="rgb(0,0,0)" stroke-width="1"/><line x1="50.0" y1="550.0" x2="50.0" y2="50.0" stroke="rgb(0,0,0)" stroke-width="1"/><line x1="50.0" y1="550.0" x2="50.0" y2="50.0" stroke="rgb(192,192,192)" stroke-width="1"/><line x1="50.0" y1="548.0" x2="50.0" y2="552.0" stroke="rgb(192,192,192)" stroke-width="1"/><text text-anchor="middle" alignment-baseline="hanging" x="50.0" y="553.0" font-size="12.0">0</text><line x1="100.5050505050505" y1="550.0" x2="100.5050505050505" y2="50.0" stroke="rgb(192,192,192)" stroke-width="1"/><line x1="100.5050505050505" y1="548.0" x2="100.5050505050505" y2="552.0" stroke="rgb(192,192,192)" stroke-width="1"/><text text-anchor="middle" alignment-baseline="hanging" x="100.5050505050505" y="553.0" font-size="12.0">10</text><line x1="151.010101010101" y1="550.0" x2="151.010101010101" y2="50.0" stroke="rgb(192,192,192)" stroke-width="1"/><line x1="151.010101010101" y1="548.0" x2="151.010101010101" y2="552.0" stroke="rgb(192,192,192)" stroke-width="1"/><text text-anchor="middle" alignment-baseline="hanging" x="151.010101010101" y="553.0" font-size="12.0">20</text><line x1="201.51515151515153" y1="550.0" x2="201.51515151515153" y2="50.0" stroke="rgb(192,192,192)" stroke-width="1"/><line x1="201.51515151515153" y1="548.0" x2="201.51515151515153" y2="552.0" stroke="rgb(192,192,192)" stroke-width="1"/><text text-anchor="middle" alignment-baseline="hanging" x="201.51515151515153" y="553.0" font-size="12.0">30</text><line x1="252.02020202020202" y1="550.0" x2="252.02020202020202" y2="50.0" stroke="rgb(192,192,192)" stroke-width="1"/><line x1="252.02020202020202" y1="548.0" x2="252.02020202020202" y2="552.0" stroke="rgb(192,192,192)" stroke-width="1"/><text text-anchor="middle" alignment-baseline="hanging" x="252.02020202020202" y="553.0" font-size="12.0">40</text><line x1="302.52525252525254" y1="550.0" x2="302.52525252525254" y2="50.0" stroke="rgb(192,192,192)" stroke-width="1"/><line x1="302.52525252525254" y1="548.0" x2="302.52525252525254" y2="552.0" stroke="rgb(192,192,192)" stroke-width="1"/><text text-anchor="middle" alignment-baseline="hanging" x="302.52525252525254" y="553.0" font-size="12.0">50</text><line x1="353.03030303030306" y1="550.0" x2="353.03030303030306" y2="50.0" stroke="rgb(192,192,192)" stroke-width="1"/><line x1="353.03030303030306" y1="548.0" x2="353.03030303030306" y2="552.0" stroke="rgb(192,192,192)" stroke-width="1"/><text text-anchor="middle" alignment-baseline="hanging" x="353.03030303030306" y="553.0" font-size="12.0">60</text><line x1="403.5353535353535" y1="550.0" x2="403.5353535353535" y2="50.0" stroke="rgb(192,192,192)" stroke-width="1"/><line x1="403.5353535353535" y1="548.0" x2="403.5353535353535" y2="552.0" stroke="rgb(192,192,192)" stroke-width="1"/><text text-anchor="middle" alignment-baseline="hanging" x="403.5353535353535" y="553.0" font-size="12.0">70</text><line x1="454.04040404040404" y1="550.0" x2="454.04040404040404" y2="50.0" stroke="rgb(192,192,192)" stroke-width="1"/><line x1="454.04040404040404" y1="548.0" x2="454.04040404040404" y2="552.0" stroke="rgb(192,192,192)" stroke-width="1"/><text text-anchor="middle" alignment-baseline="hanging" x="454.04040404040404" y="553.0" font-size="12.0">80</text><line x1="504.5454545454545" y1="550.0" x2="504.5454545454545" y2="50.0" stroke="rgb(192,192,192)" stroke-width="1"/><line x1="504.5454545454545" y1="548.0" x2="504.5454545454545" y2="552.0" stroke="rgb(192,192,192)" stroke-width="1"/><text text-anchor="middle" alignment-baseline="hanging" x="504.5454545454545" y="553.0" font-size="12.0">90</text><line x1="50.0" y1="550.0" x2="550.0" y2="550.0" stroke="rgb(192,192,192)" stroke-width="1"/><text text-anchor="end" alignment-baseline="middle" x="45.0" y="550.0" font-size="12.0">0.0</text><line x1="48.0" y1="550.0" x2="52.0" y2="550.0" stroke="rgb(192,192,192)" stroke-width="1"/><line x1="50.0" y1="367.7622154394122" x2="550.0" y2="367.7622154394122" stroke="rgb(192,192,192)" stroke-width="1"/><text text-anchor="end" alignment-baseline="middle" x="45.0" y="367.7622154394122" font-size="12.0">1000.0</text><line x1="48.0" y1="367.7622154394122" x2="52.0" y2="367.7622154394122" stroke="rgb(192,192,192)" stroke-width="1"/><line x1="50.0" y1="185.52443087882438" x2="550.0" y2="185.52443087882438" stroke="rgb(192,192,192)" stroke-width="1"/><text text-anchor="end" alignment-baseline="middle" x="45.0" y="185.52443087882438" font-size="12.0">2000.0</text><line x1="48.0" y1="185.52443087882438" x2="52.0" y2="185.52443087882438" stroke="rgb(192,192,192)" stroke-width="1"/><polyline points="50.0,429.4075176726866 55.05050505050505,414.85865116944893 60.101010101010104,405.67735611678364 65.15151515151516,429.0378479371248 70.20202020202021,401.09748308960974 75.25252525252526,394.70812738428504 80.30303030303031,415.99650650107594 85.35353535353535,417.557349349226 90.40404040404042,324.4834526844846 95.45454545454545,311.2864472668017 100.5050505050505,310.888852335211 105.55555555555554,312.1615715645913 110.60606060606061,357.2536486041645 115.65656565656566,354.51903548050245 120.7070707070707,375.4658425411491 125.75757575757576,360.54439106052115 130.80808080808083,388.55134877791016 135.85858585858585,385.8785632144086 140.9090909090909,361.3218463713664 145.95959595959596,376.10608390695495 151.010101010101,359.07828252667707 156.06060606060606,378.67127547319814 161.1111111111111,395.90217228194 166.16161616161617,379.8636505402038 171.21212121212122,378.3593636379029 176.26262626262627,378.9958317747023 181.31313131313132,388.5965787147567 186.36363636363635,372.69972911642867 191.4141414141414,405.459752050714 196.46464646464648,73.18309765623763 201.51515151515153,411.92741206957857 206.56565656565658,367.2630288620528 211.61616161616163,386.7120482083846 216.66666666666666,367.18299023189786 221.7171717171717,236.7782569694711 226.76767676767676,296.4803851808937 231.8181818181818,225.18077320418877 236.86868686868686,404.9661003447793 241.91919191919192,408.9531044552833 246.96969696969697,409.49437267205013 252.02020202020202,409.36290013172174 257.07070707070704,376.45450833465753 262.1212121212121,355.92778731814656 267.1717171717172,214.80392301841073 272.2222222222222,215.1466595990434 277.27272727272725,313.21442742746615 282.32323232323233,345.1715050221452 287.3737373737374,376.53601048819945 292.42424242424244,325.15331309245505 297.47474747474746,246.58705693588718 302.52525252525254,378.2388685381219 307.57575757575756,396.54824155621674 312.62626262626264,396.32522237617377 317.67676767676767,349.1884639179813 322.7272727272727,349.50485573509627 327.77777777777777,279.7490891974379 332.8282828282828,403.95703874002845 337.8787878787879,361.3889712622844 342.92929292929296,361.39395263009624 347.979797979798,335.4417919634574 353.03030303030306,335.542846838278 358.0808080808081,301.9911717511534 363.13131313131316,268.52727933612147 368.1818181818182,208.48294175163807 373.23232323232327,408.9645315419092 378.2828282828283,291.5747800143869 383.3333333333333,351.66379756138156 388.3838383838384,340.77375856630397 393.4343434343434,183.40176310304645 398.4848484848485,393.18373533252253 403.5353535353535,333.58687309994394 408.58585858585855,200.56012853708518 413.6363636363636,403.9873965087333 418.68686868686865,332.79522073569115 423.73737373737373,294.4677321570995 428.7878787878788,292.13992521822826 433.83838383838383,257.4761915094109 438.8888888888889,336.1507378964254 443.93939393939394,276.3456263070822 448.989898989899,399.4306592304484 454.04040404040404,399.5405662238474 459.0909090909091,383.9575633573528 464.14141414141415,412.08591614305715 469.19191919191917,368.0960781372262 474.24242424242425,345.0912917566785 479.2929292929293,344.7905572577116 484.34343434343435,394.0562133984649 489.3939393939394,407.74784594428115 494.4444444444444,407.95641309405806 499.4949494949495,409.30494540008874 504.5454545454545,315.22180132941793 509.59595959595964,206.80566615420577 514.6464646464647,382.9005213197121 519.6969696969697,170.70093170705462 524.7474747474748,269.98881266201835 529.7979797979798,308.03973564349053 534.8484848484849,412.9072174250648 539.8989898989898,413.01052001403013 544.9494949494949,412.9110427925568 550.0,413.6227746164833" fill="none" stroke="rgb(0,0,0)" stroke-width="1"/><circle cx="50.0" cy="429.4075176726866" r="2" fill="rgb(0,0,0)"/><circle cx="55.05050505050505" cy="414.85865116944893" r="2" fill="rgb(0,0,0)"/><circle cx="60.101010101010104" cy="405.67735611678364" r="2" fill="rgb(0,0,0)"/><circle cx="65.15151515151516" cy="429.0378479371248" r="2" fill="rgb(0,0,0)"/><circle cx="70.20202020202021" cy="401.09748308960974" r="2" fill="rgb(0,0,0)"/><circle cx="75.25252525252526" cy="394.70812738428504" r="2" fill="rgb(0,0,0)"/><circle cx="80.30303030303031" cy="415.99650650107594" r="2" fill="rgb(0,0,0)"/><circle cx="85.35353535353535" cy="417.557349349226" r="2" fill="rgb(0,0,0)"/><circle cx="90.40404040404042" cy="324.4834526844846" r="2" fill="rgb(0,0,0)"/><circle cx="95.45454545454545" cy="311.2864472668017" r="2" fill="rgb(0,0,0)"/><circle cx="100.5050505050505" cy="310.888852335211" r="2" fill="rgb(0,0,0)"/><circle cx="105.55555555555554" cy="312.1615715645913" r="2" fill="rgb(0,0,0)"/><circle cx="110.60606060606061" cy="357.2536486041645" r="2" fill="rgb(0,0,0)"/><circle cx="115.65656565656566" cy="354.51903548050245" r="2" fill="rgb(0,0,0)"/><circle cx="120.7070707070707" cy="375.4658425411491" r="2" fill="rgb(0,0,0)"/><circle cx="125.75757575757576" cy="360.54439106052115" r="2" fill="rgb(0,0,0)"/><circle cx="130.80808080808083" cy="388.55134877791016" r="2" fill="rgb(0,0,0)"/><circle cx="135.85858585858585" cy="385.8785632144086" r="2" fill="rgb(0,0,0)"/><circle cx="140.9090909090909" cy="361.3218463713664" r="2" fill="rgb(0,0,0)"/><circle cx="145.95959595959596" cy="376.10608390695495" r="2" fill="rgb(0,0,0)"/><circle cx="151.010101010101" cy="359.07828252667707" r="2" fill="rgb(0,0,0)"/><circle cx="156.06060606060606" cy="378.67127547319814" r="2" fill="rgb(0,0,0)"/><circle cx="161.1111111111111" cy="395.90217228194" r="2" fill="rgb(0,0,0)"/><circle cx="166.16161616161617" cy="379.8636505402038" r="2" fill="rgb(0,0,0)"/><circle cx="171.21212121212122" cy="378.3593636379029" r="2" fill="rgb(0,0,0)"/><circle cx="176.26262626262627" cy="378.9958317747023" r="2" fill="rgb(0,0,0)"/><circle cx="181.31313131313132" cy="388.5965787147567" r="2" fill="rgb(0,0,0)"/><circle cx="186.36363636363635" cy="372.69972911642867" r="2" fill="rgb(0,0,0)"/><circle cx="191.4141414141414" cy="405.459752050714" r="2" fill="rgb(0,0,0)"/><circle cx="196.46464646464648" cy="73.18309765623763" r="2" fill="rgb(0,0,0)"/><circle cx="201.51515151515153" cy="411.92741206957857" r="2" fill="rgb(0,0,0)"/><circle cx="206.56565656565658" cy="367.2630288620528" r="2" fill="rgb(0,0,0)"/><circle cx="211.61616161616163" cy="386.7120482083846" r="2" fill="rgb(0,0,0)"/><circle cx="216.66666666666666" cy="367.18299023189786" r="2" fill="rgb(0,0,0)"/><circle cx="221.7171717171717" cy="236.7782569694711" r="2" fill="rgb(0,0,0)"/><circle cx="226.76767676767676" cy="296.4803851808937" r="2" fill="rgb(0,0,0)"/><circle cx="231.8181818181818" cy="225.18077320418877" r="2" fill="rgb(0,0,0)"/><circle cx="236.86868686868686" cy="404.9661003447793" r="2" fill="rgb(0,0,0)"/><circle cx="241.91919191919192" cy="408.9531044552833" r="2" fill="rgb(0,0,0)"/><circle cx="246.96969696969697" cy="409.49437267205013" r="2" fill="rgb(0,0,0)"/><circle cx="252.02020202020202" cy="409.36290013172174" r="2" fill="rgb(0,0,0)"/><circle cx="257.07070707070704" cy="376.45450833465753" r="2" fill="rgb(0,0,0)"/><circle cx="262.1212121212121" cy="355.92778731814656" r="2" fill="rgb(0,0,0)"/><circle cx="267.1717171717172" cy="214.80392301841073" r="2" fill="rgb(0,0,0)"/><circle cx="272.2222222222222" cy="215.1466595990434" r="2" fill="rgb(0,0,0)"/><circle cx="277.27272727272725" cy="313.21442742746615" r="2" fill="rgb(0,0,0)"/><circle cx="282.32323232323233" cy="345.1715050221452" r="2" fill="rgb(0,0,0)"/><circle cx="287.3737373737374" cy="376.53601048819945" r="2" fill="rgb(0,0,0)"/><circle cx="292.42424242424244" cy="325.15331309245505" r="2" fill="rgb(0,0,0)"/><circle cx="297.47474747474746" cy="246.58705693588718" r="2" fill="rgb(0,0,0)"/><circle cx="302.52525252525254" cy="378.2388685381219" r="2" fill="rgb(0,0,0)"/><circle cx="307.57575757575756" cy="396.54824155621674" r="2" fill="rgb(0,0,0)"/><circle cx="312.62626262626264" cy="396.32522237617377" r="2" fill="rgb(0,0,0)"/><circle cx="317.67676767676767" cy="349.1884639179813" r="2" fill="rgb(0,0,0)"/><circle cx="322.7272727272727" cy="349.50485573509627" r="2" fill="rgb(0,0,0)"/><circle cx="327.77777777777777" cy="279.7490891974379" r="2" fill="rgb(0,0,0)"/><circle cx="332.8282828282828" cy="403.95703874002845" r="2" fill="rgb(0,0,0)"/><circle cx="337.8787878787879" cy="361.3889712622844" r="2" fill="rgb(0,0,0)"/><circle cx="342.92929292929296" cy="361.39395263009624" r="2" fill="rgb(0,0,0)"/><circle cx="347.979797979798" cy="335.4417919634574" r="2" fill="rgb(0,0,0)"/><circle cx="353.03030303030306" cy="335.542846838278" r="2" fill="rgb(0,0,0)"/><circle cx="358.0808080808081" cy="301.9911717511534" r="2" fill="rgb(0,0,0)"/><circle cx="363.13131313131316" cy="268.52727933612147" r="2" fill="rgb(0,0,0)"/><circle cx="368.1818181818182" cy="208.48294175163807" r="2" fill="rgb(0,0,0)"/><circle cx="373.23232323232327" cy="408.9645315419092" r="2" fill="rgb(0,0,0)"/><circle cx="378.2828282828283" cy="291.5747800143869" r="2" fill="rgb(0,0,0)"/><circle cx="383.3333333333333" cy="351.66379756138156" r="2" fill="rgb(0,0,0)"/><circle cx="388.3838383838384" cy="340.77375856630397" r="2" fill="rgb(0,0,0)"/><circle cx="393.4343434343434" cy="183.40176310304645" r="2" fill="rgb(0,0,0)"/><circle cx="398.4848484848485" cy="393.18373533252253" r="2" fill="rgb(0,0,0)"/><circle cx="403.5353535353535" cy="333.58687309994394" r="2" fill="rgb(0,0,0)"/><circle cx="408.58585858585855" cy="200.56012853708518" r="2" fill="rgb(0,0,0)"/><circle cx="413.6363636363636" cy="403.9873965087333" r="2" fill="rgb(0,0,0)"/><circle cx="418.68686868686865" cy="332.79522073569115" r="2" fill="rgb(0,0,0)"/><circle cx="423.73737373737373" cy="294.4677321570995" r="2" fill="rgb(0,0,0)"/><circle cx="428.7878787878788" cy="292.13992521822826" r="2" fill="rgb(0,0,0)"/><circle cx="433.83838383838383" cy="257.4761915094109" r="2" fill="rgb(0,0,0)"/><circle cx="438.8888888888889" cy="336.1507378964254" r="2" fill="rgb(0,0,0)"/><circle cx="443.93939393939394" cy="276.3456263070822" r="2" fill="rgb(0,0,0)"/><circle cx="448.989898989899" cy="399.4306592304484" r="2" fill="rgb(0,0,0)"/><circle cx="454.04040404040404" cy="399.5405662238474" r="2" fill="rgb(0,0,0)"/><circle cx="459.0909090909091" cy="383.9575633573528" r="2" fill="rgb(0,0,0)"/><circle cx="464.14141414141415" cy="412.08591614305715" r="2" fill="rgb(0,0,0)"/><circle cx="469.19191919191917" cy="368.0960781372262" r="2" fill="rgb(0,0,0)"/><circle cx="474.24242424242425" cy="345.0912917566785" r="2" fill="rgb(0,0,0)"/><circle cx="479.2929292929293" cy="344.7905572577116" r="2" fill="rgb(0,0,0)"/><circle cx="484.34343434343435" cy="394.0562133984649" r="2" fill="rgb(0,0,0)"/><circle cx="489.3939393939394" cy="407.74784594428115" r="2" fill="rgb(0,0,0)"/><circle cx="494.4444444444444" cy="407.95641309405806" r="2" fill="rgb(0,0,0)"/><circle cx="499.4949494949495" cy="409.30494540008874" r="2" fill="rgb(0,0,0)"/><circle cx="504.5454545454545" cy="315.22180132941793" r="2" fill="rgb(0,0,0)"/><circle cx="509.59595959595964" cy="206.80566615420577" r="2" fill="rgb(0,0,0)"/><circle cx="514.6464646464647" cy="382.9005213197121" r="2" fill="rgb(0,0,0)"/><circle cx="519.6969696969697" cy="170.70093170705462" r="2" fill="rgb(0,0,0)"/><circle cx="524.7474747474748" cy="269.98881266201835" r="2" fill="rgb(0,0,0)"/><circle cx="529.7979797979798" cy="308.03973564349053" r="2" fill="rgb(0,0,0)"/><circle cx="534.8484848484849" cy="412.9072174250648" r="2" fill="rgb(0,0,0)"/><circle cx="539.8989898989898" cy="413.01052001403013" r="2" fill="rgb(0,0,0)"/><circle cx="544.9494949494949" cy="412.9110427925568" r="2" fill="rgb(0,0,0)"/><circle cx="550.0" cy="413.6227746164833" r="2" fill="rgb(0,0,0)"/><polyline points="50.0,219.1911910262175 55.05050505050505,188.11096442506386 60.101010101010104,159.87944777101683 65.15151515151516,139.1334454304178 70.20202020202021,121.38075591755802 75.25252525252526,103.13942316866985 80.30303030303031,100.48999615600161 85.35353535353535,95.99127010913747 90.40404040404042,86.65459881536776 95.45454545454545,83.64363864229239 100.5050505050505,75.9435433114516 105.55555555555554,76.54579077891282 110.60606060606061,76.17862354767334 115.65656565656566,72.8689537823056 120.7070707070707,83.70711488750527 125.75757575757576,73.51076228689249 130.80808080808083,73.37629164894236 135.85858585858585,70.83633038990018 140.9090909090909,65.10558026824816 145.95959595959596,63.2528256852936 151.010101010101,60.644024519069035 156.06060606060606,64.95527628787909 161.1111111111111,75.29482778448363 166.16161616161617,71.5281521930662 171.21212121212122,70.84305655789586 176.26262626262627,61.44068192275506 181.31313131313132,71.02750549117559 186.36363636363635,64.75325755744268 191.4141414141414,60.980195616473964 196.46464646464648,54.16944574210066 201.51515151515153,64.2353635125238 206.56565656565658,62.89289699689533 211.61616161616163,68.8702764160297 216.66666666666666,62.772390044562314 221.7171717171717,56.65317267698737 226.76767676767676,59.93332578057681 231.8181818181818,59.95845870595622 236.86868686868686,64.14108540518765 241.91919191919192,68.05266583818786 246.96969696969697,70.45996062097868 252.02020202020202,63.54623601274898 257.07070707070704,67.43270953975082 262.1212121212121,64.33423873044268 267.1717171717172,58.48113156989109 272.2222222222222,58.726959828222846 277.27272727272725,62.289332443382136 282.32323232323233,68.34682187202071 287.3737373737374,68.87102491855148 292.42424242424244,58.81610065761146 297.47474747474746,56.69030406757463 302.52525252525254,69.63779068459462 307.57575757575756,82.35690005595251 312.62626262626264,72.56365204260527 317.67676767676767,64.18246263683045 322.7272727272727,61.74939201847292 327.77777777777777,57.702057909250584 332.8282828282828,65.8701659814788 337.8787878787879,61.781667324304976 342.92929292929296,66.97966049741893 347.979797979798,65.75452109681305 353.03030303030306,65.97306331032735 358.0808080808081,59.689505801175414 363.13131313131316,55.52105113825513 368.1818181818182,54.032108375546954 373.23232323232327,61.604914361867316 378.2828282828283,62.85378962558218 383.3333333333333,61.08093678706399 388.3838383838384,58.85359644557724 393.4343434343434,55.15947159613643 398.4848484848485,64.85213590287663 403.5353535353535,60.69066948869471 408.58585858585855,57.98886790180251 413.6363636363636,63.26184897274021 418.68686868686865,67.80068867741073 423.73737373737373,57.859870966544634 428.7878787878788,58.251864417002025 433.83838383838383,55.44145725351689 438.8888888888889,61.131270539951686 443.93939393939394,62.0378058554499 448.989898989899,69.97402633140143 454.04040404040404,61.10214733797676 459.0909090909091,65.39761082439207 464.14141414141415,74.80737124018117 469.19191919191917,64.78571612491959 474.24242424242425,69.05518740347719 479.2929292929293,66.67064298020262 484.34343434343435,64.97534336800447 489.3939393939394,75.78439264595772 494.4444444444444,61.171520922645186 499.4949494949495,58.680454534467 504.5454545454545,60.40084890587303 509.59595959595964,56.32246251300501 514.6464646464647,58.419544079309844 519.6969696969697,54.90237547650656 524.7474747474748,57.8808193080813 529.7979797979798,56.18798985818455 534.8484848484849,65.0068068025414 539.8989898989898,67.58419825604483 544.9494949494949,69.53793906451017 550.0,61.193134143558666" fill="none" stroke="rgb(0,0,255)" stroke-width="1"/><circle cx="50.0" cy="219.1911910262175" r="2" fill="rgb(0,0,255)"/><circle cx="55.05050505050505" cy="188.11096442506386" r="2" fill="rgb(0,0,255)"/><circle cx="60.101010101010104" cy="159.87944777101683" r="2" fill="rgb(0,0,255)"/><circle cx="65.15151515151516" cy="139.1334454304178" r="2" fill="rgb(0,0,255)"/><circle cx="70.20202020202021" cy="121.38075591755802" r="2" fill="rgb(0,0,255)"/><circle cx="75.25252525252526" cy="103.13942316866985" r="2" fill="rgb(0,0,255)"/><circle cx="80.30303030303031" cy="100.48999615600161" r="2" fill="rgb(0,0,255)"/><circle cx="85.35353535353535" cy="95.99127010913747" r="2" fill="rgb(0,0,255)"/><circle cx="90.40404040404042" cy="86.65459881536776" r="2" fill="rgb(0,0,255)"/><circle cx="95.45454545454545" cy="83.64363864229239" r="2" fill="rgb(0,0,255)"/><circle cx="100.5050505050505" cy="75.9435433114516" r="2" fill="rgb(0,0,255)"/><circle cx="105.55555555555554" cy="76.54579077891282" r="2" fill="rgb(0,0,255)"/><circle cx="110.60606060606061" cy="76.17862354767334" r="2" fill="rgb(0,0,255)"/><circle cx="115.65656565656566" cy="72.8689537823056" r="2" fill="rgb(0,0,255)"/><circle cx="120.7070707070707" cy="83.70711488750527" r="2" fill="rgb(0,0,255)"/><circle cx="125.75757575757576" cy="73.51076228689249" r="2" fill="rgb(0,0,255)"/><circle cx="130.80808080808083" cy="73.37629164894236" r="2" fill="rgb(0,0,255)"/><circle cx="135.85858585858585" cy="70.83633038990018" r="2" fill="rgb(0,0,255)"/><circle cx="140.9090909090909" cy="65.10558026824816" r="2" fill="rgb(0,0,255)"/><circle cx="145.95959595959596" cy="63.2528256852936" r="2" fill="rgb(0,0,255)"/><circle cx="151.010101010101" cy="60.644024519069035" r="2" fill="rgb(0,0,255)"/><circle cx="156.06060606060606" cy="64.95527628787909" r="2" fill="rgb(0,0,255)"/><circle cx="161.1111111111111" cy="75.29482778448363" r="2" fill="rgb(0,0,255)"/><circle cx="166.16161616161617" cy="71.5281521930662" r="2" fill="rgb(0,0,255)"/><circle cx="171.21212121212122" cy="70.84305655789586" r="2" fill="rgb(0,0,255)"/><circle cx="176.26262626262627" cy="61.44068192275506" r="2" fill="rgb(0,0,255)"/><circle cx="181.31313131313132" cy="71.02750549117559" r="2" fill="rgb(0,0,255)"/><circle cx="186.36363636363635" cy="64.75325755744268" r="2" fill="rgb(0,0,255)"/><circle cx="191.4141414141414" cy="60.980195616473964" r="2" fill="rgb(0,0,255)"/><circle cx="196.46464646464648" cy="54.16944574210066" r="2" fill="rgb(0,0,255)"/><circle cx="201.51515151515153" cy="64.2353635125238" r="2" fill="rgb(0,0,255)"/><circle cx="206.56565656565658" cy="62.89289699689533" r="2" fill="rgb(0,0,255)"/><circle cx="211.61616161616163" cy="68.8702764160297" r="2" fill="rgb(0,0,255)"/><circle cx="216.66666666666666" cy="62.772390044562314" r="2" fill="rgb(0,0,255)"/><circle cx="221.7171717171717" cy="56.65317267698737" r="2" fill="rgb(0,0,255)"/><circle cx="226.76767676767676" cy="59.93332578057681" r="2" fill="rgb(0,0,255)"/><circle cx="231.8181818181818" cy="59.95845870595622" r="2" fill="rgb(0,0,255)"/><circle cx="236.86868686868686" cy="64.14108540518765" r="2" fill="rgb(0,0,255)"/><circle cx="241.91919191919192" cy="68.05266583818786" r="2" fill="rgb(0,0,255)"/><circle cx="246.96969696969697" cy="70.45996062097868" r="2" fill="rgb(0,0,255)"/><circle cx="252.02020202020202" cy="63.54623601274898" r="2" fill="rgb(0,0,255)"/><circle cx="257.07070707070704" cy="67.43270953975082" r="2" fill="rgb(0,0,255)"/><circle cx="262.1212121212121" cy="64.33423873044268" r="2" fill="rgb(0,0,255)"/><circle cx="267.1717171717172" cy="58.48113156989109" r="2" fill="rgb(0,0,255)"/><circle cx="272.2222222222222" cy="58.726959828222846" r="2" fill="rgb(0,0,255)"/><circle cx="277.27272727272725" cy="62.289332443382136" r="2" fill="rgb(0,0,255)"/><circle cx="282.32323232323233" cy="68.34682187202071" r="2" fill="rgb(0,0,255)"/><circle cx="287.3737373737374" cy="68.87102491855148" r="2" fill="rgb(0,0,255)"/><circle cx="292.42424242424244" cy="58.81610065761146" r="2" fill="rgb(0,0,255)"/><circle cx="297.47474747474746" cy="56.69030406757463" r="2" fill="rgb(0,0,255)"/><circle cx="302.52525252525254" cy="69.63779068459462" r="2" fill="rgb(0,0,255)"/><circle cx="307.57575757575756" cy="82.35690005595251" r="2" fill="rgb(0,0,255)"/><circle cx="312.62626262626264" cy="72.56365204260527" r="2" fill="rgb(0,0,255)"/><circle cx="317.67676767676767" cy="64.18246263683045" r="2" fill="rgb(0,0,255)"/><circle cx="322.7272727272727" cy="61.74939201847292" r="2" fill="rgb(0,0,255)"/><circle cx="327.77777777777777" cy="57.702057909250584" r="2" fill="rgb(0,0,255)"/><circle cx="332.8282828282828" cy="65.8701659814788" r="2" fill="rgb(0,0,255)"/><circle cx="337.8787878787879" cy="61.781667324304976" r="2" fill="rgb(0,0,255)"/><circle cx="342.92929292929296" cy="66.97966049741893" r="2" fill="rgb(0,0,255)"/><circle cx="347.979797979798" cy="65.75452109681305" r="2" fill="rgb(0,0,255)"/><circle cx="353.03030303030306" cy="65.97306331032735" r="2" fill="rgb(0,0,255)"/><circle cx="358.0808080808081" cy="59.689505801175414" r="2" fill="rgb(0,0,255)"/><circle cx="363.13131313131316" cy="55.52105113825513" r="2" fill="rgb(0,0,255)"/><circle cx="368.1818181818182" cy="54.032108375546954" r="2" fill="rgb(0,0,255)"/><circle cx="373.23232323232327" cy="61.604914361867316" r="2" fill="rgb(0,0,255)"/><circle cx="378.2828282828283" cy="62.85378962558218" r="2" fill="rgb(0,0,255)"/><circle cx="383.3333333333333" cy="61.08093678706399" r="2" fill="rgb(0,0,255)"/><circle cx="388.3838383838384" cy="58.85359644557724" r="2" fill="rgb(0,0,255)"/><circle cx="393.4343434343434" cy="55.15947159613643" r="2" fill="rgb(0,0,255)"/><circle cx="398.4848484848485" cy="64.85213590287663" r="2" fill="rgb(0,0,255)"/><circle cx="403.5353535353535" cy="60.69066948869471" r="2" fill="rgb(0,0,255)"/><circle cx="408.58585858585855" cy="57.98886790180251" r="2" fill="rgb(0,0,255)"/><circle cx="413.6363636363636" cy="63.26184897274021" r="2" fill="rgb(0,0,255)"/><circle cx="418.68686868686865" cy="67.80068867741073" r="2" fill="rgb(0,0,255)"/><circle cx="423.73737373737373" cy="57.859870966544634" r="2" fill="rgb(0,0,255)"/><circle cx="428.7878787878788" cy="58.251864417002025" r="2" fill="rgb(0,0,255)"/><circle cx="433.83838383838383" cy="55.44145725351689" r="2" fill="rgb(0,0,255)"/><circle cx="438.8888888888889" cy="61.131270539951686" r="2" fill="rgb(0,0,255)"/><circle cx="443.93939393939394" cy="62.0378058554499" r="2" fill="rgb(0,0,255)"/><circle cx="448.989898989899" cy="69.97402633140143" r="2" fill="rgb(0,0,255)"/><circle cx="454.04040404040404" cy="61.10214733797676" r="2" fill="rgb(0,0,255)"/><circle cx="459.0909090909091" cy="65.39761082439207" r="2" fill="rgb(0,0,255)"/><circle cx="464.14141414141415" cy="74.80737124018117" r="2" fill="rgb(0,0,255)"/><circle cx="469.19191919191917" cy="64.78571612491959" r="2" fill="rgb(0,0,255)"/><circle cx="474.24242424242425" cy="69.05518740347719" r="2" fill="rgb(0,0,255)"/><circle cx="479.2929292929293" cy="66.67064298020262" r="2" fill="rgb(0,0,255)"/><circle cx="484.34343434343435" cy="64.97534336800447" r="2" fill="rgb(0,0,255)"/><circle cx="489.3939393939394" cy="75.78439264595772" r="2" fill="rgb(0,0,255)"/><circle cx="494.4444444444444" cy="61.171520922645186" r="2" fill="rgb(0,0,255)"/><circle cx="499.4949494949495" cy="58.680454534467" r="2" fill="rgb(0,0,255)"/><circle cx="504.5454545454545" cy="60.40084890587303" r="2" fill="rgb(0,0,255)"/><circle cx="509.59595959595964" cy="56.32246251300501" r="2" fill="rgb(0,0,255)"/><circle cx="514.6464646464647" cy="58.419544079309844" r="2" fill="rgb(0,0,255)"/><circle cx="519.6969696969697" cy="54.90237547650656" r="2" fill="rgb(0,0,255)"/><circle cx="524.7474747474748" cy="57.8808193080813" r="2" fill="rgb(0,0,255)"/><circle cx="529.7979797979798" cy="56.18798985818455" r="2" fill="rgb(0,0,255)"/><circle cx="534.8484848484849" cy="65.0068068025414" r="2" fill="rgb(0,0,255)"/><circle cx="539.8989898989898" cy="67.58419825604483" r="2" fill="rgb(0,0,255)"/><circle cx="544.9494949494949" cy="69.53793906451017" r="2" fill="rgb(0,0,255)"/><circle cx="550.0" cy="61.193134143558666" r="2" fill="rgb(0,0,255)"/><polyline points="50.0,55.85105850527907 55.05050505050505,56.07373463302332 60.101010101010104,55.831960744847095 65.15151515151516,56.193537882845305 70.20202020202021,55.42943033028155 75.25252525252526,55.11170188558725 80.30303030303031,54.88149164773 85.35353535353535,54.5645360262169 90.40404040404042,55.06396573632452 95.45454545454545,55.42543440218111 100.5050505050505,53.33123704109863 105.55555555555554,53.92220618825684 110.60606060606061,53.07056323420926 115.65656565656566,53.10202280249416 120.7070707070707,53.902757329401254 125.75757575757576,53.36849628581405 130.80808080808083,53.74627903487146 135.85858585858585,53.28496662575168 140.9090909090909,53.0336666350247 145.95959595959596,53.156668744163085 151.010101010101,52.517228479266976 156.06060606060606,52.80836974997948 161.1111111111111,52.760567758617526 166.16161616161617,52.44885273024221 171.21212121212122,52.714259422119255 176.26262626262627,52.70530367376625 181.31313131313132,52.27483395041992 186.36363636363635,52.505222630595995 191.4141414141414,52.391279908530464 196.46464646464648,52.17711433719609 201.51515151515153,52.206681392600444 206.56565656565658,52.2022482178607 211.61616161616163,52.19931136348265 216.66666666666666,52.216134116300225 221.7171717171717,52.334878987985746 226.76767676767676,52.16508914049001 231.8181818181818,52.14803957917803 236.86868686868686,52.03205364955113 241.91919191919192,52.29311147418906 246.96969696969697,52.221613940287625 252.02020202020202,51.850153900202315 257.07070707070704,51.75252433414016 262.1212121212121,51.87568019102008 267.1717171717172,51.989702203001684 272.2222222222222,51.95065342614049 277.27272727272725,51.95065342614049 282.32323232323233,51.982242347061856 287.3737373737374,51.9190497303141 292.42424242424244,51.88432488588205 297.47474747474746,50.8206959288824 302.52525252525254,50.99379553902929 307.57575757575756,50.85542077331439 312.62626262626264,50.797493352531205 317.67676767676767,50.75625243820599 322.7272727272727,51.61369039503052 327.77777777777777,50.74903990371007 332.8282828282828,50.66820529274247 337.8787878787879,50.576023167539915 342.92929292929296,50.56170692245888 347.979797979798,50.54926973749707 353.03030303030306,50.69208885978844 358.0808080808081,50.552645654868286 363.13131313131316,50.79885992967678 368.1818181818182,50.693234774595965 373.23232323232327,50.53912243479158 378.2828282828283,50.612572970569886 383.3333333333333,50.54837523817855 388.3838383838384,50.44179092320127 393.4343434343434,50.52670937842203 398.4848484848485,50.38279044614137 403.5353535353535,50.341448547320965 408.58585858585855,50.249988931814585 413.6363636363636,50.474009833205685 418.68686868686865,50.44911898639981 423.73737373737373,50.46306503080365 428.7878787878788,50.366608774234294 433.83838383838383,50.3002802339758 438.8888888888889,50.3002802339758 443.93939393939394,50.3002802339758 448.989898989899,50.343833450922034 454.04040404040404,50.33402000077581 459.0909090909091,50.3002802339758 464.14141414141415,50.3002802339758 469.19191919191917,50.3002802339758 474.24242424242425,50.3002802339758 479.2929292929293,50.3002802339758 484.34343434343435,50.301666371183444 489.3939393939394,50.226059959006136 494.4444444444444,50.25864873246468 499.4949494949495,50.154181364405076 504.5454545454545,50.154181364405076 509.59595959595964,50.169581332660755 514.6464646464647,50.119756907312194 519.6969696969697,50.098917313717095 524.7474747474748,50.0 529.7979797979798,50.06256243788067 534.8484848484849,50.066328540258496 539.8989898989898,50.10658106178579 544.9494949494949,50.01505505118922 550.0,50.0" fill="none" stroke="rgb(0,255,0)" stroke-width="1"/><circle cx="50.0" cy="55.85105850527907" r="2" fill="rgb(0,255,0)"/><circle cx="55.05050505050505" cy="56.07373463302332" r="2" fill="rgb(0,255,0)"/><circle cx="60.101010101010104" cy="55.831960744847095" r="2" fill="rgb(0,255,0)"/><circle cx="65.15151515151516" cy="56.193537882845305" r="2" fill="rgb(0,255,0)"/><circle cx="70.20202020202021" cy="55.42943033028155" r="2" fill="rgb(0,255,0)"/><circle cx="75.25252525252526" cy="55.11170188558725" r="2" fill="rgb(0,255,0)"/><circle cx="80.30303030303031" cy="54.88149164773" r="2" fill="rgb(0,255,0)"/><circle cx="85.35353535353535" cy="54.5645360262169" r="2" fill="rgb(0,255,0)"/><circle cx="90.40404040404042" cy="55.06396573632452" r="2" fill="rgb(0,255,0)"/><circle cx="95.45454545454545" cy="55.42543440218111" r="2" fill="rgb(0,255,0)"/><circle cx="100.5050505050505" cy="53.33123704109863" r="2" fill="rgb(0,255,0)"/><circle cx="105.55555555555554" cy="53.92220618825684" r="2" fill="rgb(0,255,0)"/><circle cx="110.60606060606061" cy="53.07056323420926" r="2" fill="rgb(0,255,0)"/><circle cx="115.65656565656566" cy="53.10202280249416" r="2" fill="rgb(0,255,0)"/><circle cx="120.7070707070707" cy="53.902757329401254" r="2" fill="rgb(0,255,0)"/><circle cx="125.75757575757576" cy="53.36849628581405" r="2" fill="rgb(0,255,0)"/><circle cx="130.80808080808083" cy="53.74627903487146" r="2" fill="rgb(0,255,0)"/><circle cx="135.85858585858585" cy="53.28496662575168" r="2" fill="rgb(0,255,0)"/><circle cx="140.9090909090909" cy="53.0336666350247" r="2" fill="rgb(0,255,0)"/><circle cx="145.95959595959596" cy="53.156668744163085" r="2" fill="rgb(0,255,0)"/><circle cx="151.010101010101" cy="52.517228479266976" r="2" fill="rgb(0,255,0)"/><circle cx="156.06060606060606" cy="52.80836974997948" r="2" fill="rgb(0,255,0)"/><circle cx="161.1111111111111" cy="52.760567758617526" r="2" fill="rgb(0,255,0)"/><circle cx="166.16161616161617" cy="52.44885273024221" r="2" fill="rgb(0,255,0)"/><circle cx="171.21212121212122" cy="52.714259422119255" r="2" fill="rgb(0,255,0)"/><circle cx="176.26262626262627" cy="52.70530367376625" r="2" fill="rgb(0,255,0)"/><circle cx="181.31313131313132" cy="52.27483395041992" r="2" fill="rgb(0,255,0)"/><circle cx="186.36363636363635" cy="52.505222630595995" r="2" fill="rgb(0,255,0)"/><circle cx="191.4141414141414" cy="52.391279908530464" r="2" fill="rgb(0,255,0)"/><circle cx="196.46464646464648" cy="52.17711433719609" r="2" fill="rgb(0,255,0)"/><circle cx="201.51515151515153" cy="52.206681392600444" r="2" fill="rgb(0,255,0)"/><circle cx="206.56565656565658" cy="52.2022482178607" r="2" fill="rgb(0,255,0)"/><circle cx="211.61616161616163" cy="52.19931136348265" r="2" fill="rgb(0,255,0)"/><circle cx="216.66666666666666" cy="52.216134116300225" r="2" fill="rgb(0,255,0)"/><circle cx="221.7171717171717" cy="52.334878987985746" r="2" fill="rgb(0,255,0)"/><circle cx="226.76767676767676" cy="52.16508914049001" r="2" fill="rgb(0,255,0)"/><circle cx="231.8181818181818" cy="52.14803957917803" r="2" fill="rgb(0,255,0)"/><circle cx="236.86868686868686" cy="52.03205364955113" r="2" fill="rgb(0,255,0)"/><circle cx="241.91919191919192" cy="52.29311147418906" r="2" fill="rgb(0,255,0)"/><circle cx="246.96969696969697" cy="52.221613940287625" r="2" fill="rgb(0,255,0)"/><circle cx="252.02020202020202" cy="51.850153900202315" r="2" fill="rgb(0,255,0)"/><circle cx="257.07070707070704" cy="51.75252433414016" r="2" fill="rgb(0,255,0)"/><circle cx="262.1212121212121" cy="51.87568019102008" r="2" fill="rgb(0,255,0)"/><circle cx="267.1717171717172" cy="51.989702203001684" r="2" fill="rgb(0,255,0)"/><circle cx="272.2222222222222" cy="51.95065342614049" r="2" fill="rgb(0,255,0)"/><circle cx="277.27272727272725" cy="51.95065342614049" r="2" fill="rgb(0,255,0)"/><circle cx="282.32323232323233" cy="51.982242347061856" r="2" fill="rgb(0,255,0)"/><circle cx="287.3737373737374" cy="51.9190497303141" r="2" fill="rgb(0,255,0)"/><circle cx="292.42424242424244" cy="51.88432488588205" r="2" fill="rgb(0,255,0)"/><circle cx="297.47474747474746" cy="50.8206959288824" r="2" fill="rgb(0,255,0)"/><circle cx="302.52525252525254" cy="50.99379553902929" r="2" fill="rgb(0,255,0)"/><circle cx="307.57575757575756" cy="50.85542077331439" r="2" fill="rgb(0,255,0)"/><circle cx="312.62626262626264" cy="50.797493352531205" r="2" fill="rgb(0,255,0)"/><circle cx="317.67676767676767" cy="50.75625243820599" r="2" fill="rgb(0,255,0)"/><circle cx="322.7272727272727" cy="51.61369039503052" r="2" fill="rgb(0,255,0)"/><circle cx="327.77777777777777" cy="50.74903990371007" r="2" fill="rgb(0,255,0)"/><circle cx="332.8282828282828" cy="50.66820529274247" r="2" fill="rgb(0,255,0)"/><circle cx="337.8787878787879" cy="50.576023167539915" r="2" fill="rgb(0,255,0)"/><circle cx="342.92929292929296" cy="50.56170692245888" r="2" fill="rgb(0,255,0)"/><circle cx="347.979797979798" cy="50.54926973749707" r="2" fill="rgb(0,255,0)"/><circle cx="353.03030303030306" cy="50.69208885978844" r="2" fill="rgb(0,255,0)"/><circle cx="358.0808080808081" cy="50.552645654868286" r="2" fill="rgb(0,255,0)"/><circle cx="363.13131313131316" cy="50.79885992967678" r="2" fill="rgb(0,255,0)"/><circle cx="368.1818181818182" cy="50.693234774595965" r="2" fill="rgb(0,255,0)"/><circle cx="373.23232323232327" cy="50.53912243479158" r="2" fill="rgb(0,255,0)"/><circle cx="378.2828282828283" cy="50.612572970569886" r="2" fill="rgb(0,255,0)"/><circle cx="383.3333333333333" cy="50.54837523817855" r="2" fill="rgb(0,255,0)"/><circle cx="388.3838383838384" cy="50.44179092320127" r="2" fill="rgb(0,255,0)"/><circle cx="393.4343434343434" cy="50.52670937842203" r="2" fill="rgb(0,255,0)"/><circle cx="398.4848484848485" cy="50.38279044614137" r="2" fill="rgb(0,255,0)"/><circle cx="403.5353535353535" cy="50.341448547320965" r="2" fill="rgb(0,255,0)"/><circle cx="408.58585858585855" cy="50.249988931814585" r="2" fill="rgb(0,255,0)"/><circle cx="413.6363636363636" cy="50.474009833205685" r="2" fill="rgb(0,255,0)"/><circle cx="418.68686868686865" cy="50.44911898639981" r="2" fill="rgb(0,255,0)"/><circle cx="423.73737373737373" cy="50.46306503080365" r="2" fill="rgb(0,255,0)"/><circle cx="428.7878787878788" cy="50.366608774234294" r="2" fill="rgb(0,255,0)"/><circle cx="433.83838383838383" cy="50.3002802339758" r="2" fill="rgb(0,255,0)"/><circle cx="438.8888888888889" cy="50.3002802339758" r="2" fill="rgb(0,255,0)"/><circle cx="443.93939393939394" cy="50.3002802339758" r="2" fill="rgb(0,255,0)"/><circle cx="448.989898989899" cy="50.343833450922034" r="2" fill="rgb(0,255,0)"/><circle cx="454.04040404040404" cy="50.33402000077581" r="2" fill="rgb(0,255,0)"/><circle cx="459.0909090909091" cy="50.3002802339758" r="2" fill="rgb(0,255,0)"/><circle cx="464.14141414141415" cy="50.3002802339758" r="2" fill="rgb(0,255,0)"/><circle cx="469.19191919191917" cy="50.3002802339758" r="2" fill="rgb(0,255,0)"/><circle cx="474.24242424242425" cy="50.3002802339758" r="2" fill="rgb(0,255,0)"/><circle cx="479.2929292929293" cy="50.3002802339758" r="2" fill="rgb(0,255,0)"/><circle cx="484.34343434343435" cy="50.301666371183444" r="2" fill="rgb(0,255,0)"/><circle cx="489.3939393939394" cy="50.226059959006136" r="2" fill="rgb(0,255,0)"/><circle cx="494.4444444444444" cy="50.25864873246468" r="2" fill="rgb(0,255,0)"/><circle cx="499.4949494949495" cy="50.154181364405076" r="2" fill="rgb(0,255,0)"/><circle cx="504.5454545454545" cy="50.154181364405076" r="2" fill="rgb(0,255,0)"/><circle cx="509.59595959595964" cy="50.169581332660755" r="2" fill="rgb(0,255,0)"/><circle cx="514.6464646464647" cy="50.119756907312194" r="2" fill="rgb(0,255,0)"/><circle cx="519.6969696969697" cy="50.098917313717095" r="2" fill="rgb(0,255,0)"/><circle cx="524.7474747474748" cy="50.0" r="2" fill="rgb(0,255,0)"/><circle cx="529.7979797979798" cy="50.06256243788067" r="2" fill="rgb(0,255,0)"/><circle cx="534.8484848484849" cy="50.066328540258496" r="2" fill="rgb(0,255,0)"/><circle cx="539.8989898989898" cy="50.10658106178579" r="2" fill="rgb(0,255,0)"/><circle cx="544.9494949494949" cy="50.01505505118922" r="2" fill="rgb(0,255,0)"/><circle cx="550.0" cy="50.0" r="2" fill="rgb(0,255,0)"/><text x="350.0" y="20.0" text-anchor="middle" fill="rgb(0,0,0)" font-size="20.0">GA Demo</text><text x="350.0" y="575.0" text-anchor="middle" fill="rgb(0,0,0)" font-size="12.0">generation</text><text transform="rotate(-90.0 20.0 300.0)" x="20.0" y="300.0" text-anchor="middle" fill="rgb(0,0,0)" font-size="12.0">fitness</text><text x="620" y="62" fill="rgb(0,0,0)" font-size="12">min</text><text x="620" y="74" fill="rgb(0,0,255)" font-size="12">ave</text><text x="620" y="86" fill="rgb(0,255,0)" font-size="12">max</text>
      Sorry, your browser does not support inline SVG.
    </svg>