<?xml version='1.0' encoding='UTF-8'?>
<svg version="1.1" width="700.0" height="600.0" onload="init(evt)" xmlns="http://www.w3.org/2000/svg">
      <style>.caption {
  font-size: 14px;
  font-family: Georgia, serif;
}
</style>
      <script type="text/ecmascript"><![CDATA[
function init(evt) {
  if ( window.svgDocument == null ) {
    svgDocument = evt.target.ownerDocument;
  }
}

function RectHover(evt, i, c) {
  rect = svgDocument.getElementById('rect' + i);
  if( c != null ) {
    rect.setAttributeNS(null, "fill", c)  
  }
  tooltiptext = svgDocument.getElementById('tooltiptext' + i);
  tooltipbg = svgDocument.getElementById('tooltipbg' + i);
  if( tooltipbg != null) {
    tbb = tooltiptext.getBBox();
    tooltipbg.setAttributeNS(null, "width", tbb.width);
    tooltipbg.setAttributeNS(null, "height", tbb.height);
    tooltipbg.setAttributeNS(null, "x", tbb.x);
    tooltipbg.setAttributeNS(null, "y", tbb.y);
    tooltipbg.setAttributeNS(null, "visibility", "visible");
  }
  tooltiptext.setAttributeNS(null,"visibility","visible");
}

function RectUnhover(evt, i, c) {
  rect = svgDocument.getElementById('rect' + i);
  if( c != null ) {
    rect.setAttributeNS(null, "fill", c)  
  }
  tooltiptext = svgDocument.getElementById('tooltiptext' + i);
  tooltiptext.setAttributeNS(null,"visibility","hidden");
  tooltipbg = svgDocument.getElementById('tooltipbg' + i);
  if( tooltipbg != null ) {
    tooltipbg.setAttributeNS(null,"visibility","hidden");
  }
}
]]></script>
      <line x1="50.0" y1="550.0" x2="550.0" y2="550.0" stroke="rgb(0,0,0)" stroke-width="1"/><line x1="50.0" y1="550.0" x2="50.0" y2="50.0" stroke="rgb(0,0,0)" stroke-width="1"/><line x1="50.0" y1="550.0" x2="50.0" y2="50.0" stroke="rgb(192,192,192)" stroke-width="1"/><line x1="50.0" y1="548.0" x2="50.0" y2="552.0" stroke="rgb(192,192,192)" stroke-width="1"/><text text-anchor="middle" alignment-baseline="hanging" x="50.0" y="553.0" font-size="12.0">0</text><line x1="100.5050505050505" y1="550.0" x2="100.5050505050505" y2="50.0" stroke="rgb(192,192,192)" stroke-width="1"/><line x1="100.5050505050505" y1="548.0" x2="100.5050505050505" y2="552.0" stroke="rgb(192,192,192)" stroke-width="1"/><text text-anchor="middle" alignment-baseline="hanging" x="100.5050505050505" y="553.0" font-size="12.0">10</text><line x1="151.010101010101" y1="550.0" x2="151.010101010101" y2="50.0" stroke="rgb(192,192,192)" stroke-width="1"/><line x1="151.010101010101" y1="548.0" x2="151.010101010101" y2="552.0" stroke="rgb(192,192,192)" stroke-width="1"/><text text-anchor="middle" alignment-baseline="hanging" x="151.010101010101" y="553.0" font-size="12.0">20</text><line x1="201.51515151515153" y1="550.0" x2="201.51515151515153" y2="50.0" stroke="rgb(192,192,192)" stroke-width="1"/><line x1="201.51515151515153" y1="548.0" x2="201.51515151515153" y2="552.0" stroke="rgb(192,192,192)" stroke-width="1"/><text text-anchor="middle" alignment-baseline="hanging" x="201.51515151515153" y="553.0" font-size="12.0">30</text><line x1="252.02020202020202" y1="550.0" x2="252.02020202020202" y2="50.0" stroke="rgb(192,192,192)" stroke-width="1"/><line x1="252.02020202020202" y1="548.0" x2="252.02020202020202" y2="552.0" stroke="rgb(192,192,192)" stroke-width="1"/><text text-anchor="middle" alignment-baseline="hanging" x="252.02020202020202" y="553.0" font-size="12.0">40</text><line x1="302.52525252525254" y1="550.0" x2="302.52525252525254" y2="50.0" stroke="rgb(192,192,192)" stroke-width="1"/><line x1="302.52525252525254" y1="548.0" x2="302.52525252525254" y2="552.0" stroke="rgb(192,192,192)" stroke-width="1"/><text text-anchor="middle" alignment-baseline="hanging" x="302.52525252525254" y="553.0" font-size="12.0">50</text><line x1="353.03030303030306" y1="550.0" x2="353.03030303030306" y2="50.0" stroke="rgb(192,192,192)" stroke-width="1"/><line x1="353.03030303030306" y1="548.0" x2="353.03030303030306" y2="552.0" stroke="rgb(192,192,192)" stroke-width="1"/><text text-anchor="middle" alignment-baseline="hanging" x="353.03030303030306" y="553.0" font-size="12.0">60</text><line x1="403.5353535353535" y1="550.0" x2="403.5353535353535" y2="50.0" stroke="rgb(192,192,192)" stroke-width="1"/><line x1="403.5353535353535" y1="548.0" x2="403.5353535353535" y2="552.0" stroke="rgb(192,192,192)" stroke-width="1"/><text text-anchor="middle" alignment-baseline="hanging" x="403.5353535353535" y="553.0" font-size="12.0">70</text><line x1="454.04040404040404" y1="550.0" x2="454.04040404040404" y2="50.0" stroke="rgb(192,192,192)" stroke-width="1"/><line x1="454.04040404040404" y1="548.0" x2="454.04040404040404" y2="552.0" stroke="rgb(192,192,192)" stroke-width="1"/><text text-anchor="middle" alignment-baseline="hanging" x="454.04040404040404" y="553.0" font-size="12.0">80</text><line x1="504.5454545454545" y1="550.0" x2="504.5454545454545" y2="50.0" stroke="rgb(192,192,192)" stroke-width="1"/><line x1="504.5454545454545" y1="548.0" x2="504.5454545454545" y2="552.0" stroke="rgb(192,192,192)" stroke-width="1"/><text text-anchor="middle" alignment-baseline="hanging" x="504.5454545454545" y="553.0" font-size="12.0">90</text><line x1="50.0" y1="550.0" x2="550.0" y2="550.0" stroke="rgb(192,192,192)" stroke-width="1"/><text text-anchor="end" alignment-baseline="middle" x="45.0" y="550.0" font-size="12.0">0.0</text><line x1="48.0" y1="550.0" x2="52.0" y2="550.0" stroke="rgb(192,192,192)" stroke-width="1"/><line x1="50.0" y1="367.5289992972034" x2="550.0" y2="367.5289992972034" stroke="rgb(192,192,192)" stroke-width="1"/><text text-anchor="end" alignment-baseline="middle" x="45.0" y="367.5289992972034" font-size="12.0">1000.0</text><line x1="48.0" y1="367.5289992972034" x2="52.0" y2="367.5289992972034" stroke="rgb(192,192,192)" stroke-width="1"/><line x1="50.0" y1="185.0579985944069" x2="550.0" y2="185.0579985944069" stroke="rgb(192,192,192)" stroke-width="1"/><text text-anchor="end" alignment-baseline="middle" x="45.0" y="185.0579985944069" font-size="12.0">2000.0</text><line x1="48.0" y1="185.0579985944069" x2="52.0" y2="185.0579985944069" stroke="rgb(192,192,192)" stroke-width="1"/><polyline points="50.0,432.60130743517095 55.05050505050505,412.1459143998943 60.101010101010104,384.4851690460193 65.15151515151516,367.4771531674412 70.20202020202021,383.50072010652656 75.25252525252526,364.9546719090566 80.30303030303031,391.7867525459676 85.35353535353535,364.7493679180976 90.40404040404042,365.9040250288265 95.45454545454545,366.25578602955864 100.5050505050505,364.89790174201346 105.55555555555554,241.37947023048667 110.60606060606061,298.6489773537513 115.65656565656566,355.90798770059223 120.7070707070707,338.109083248275 125.75757575757576,337.6904832262974 130.80808080808083,337.75131816051044 135.85858585858585,395.48790625667294 140.9090909090909,396.86298287237264 145.95959595959596,366.8899226264024 151.010101010101,174.89656861091612 156.06060606060606,259.8261916710832 161.1111111111111,257.0376650525578 166.16161616161617,401.09719746031175 171.21212121212122,330.88011189257963 176.26262626262627,320.63048072739184 181.31313131313132,317.68487627494176 186.36363636363635,192.48514629193556 191.4141414141414,412.4641293020751 196.46464646464648,413.4443857319053 201.51515151515153,413.92311495043225 206.56565656565658,414.5952432808123 211.61616161616163,415.42430852997575 216.66666666666666,413.91324442119384 221.7171717171717,364.1169637309591 226.76767676767676,408.535157127352 231.8181818181818,407.6253338087417 236.86868686868686,414.9296696261253 241.91919191919192,413.986399693498 246.96969696969697,297.4598877726138 252.02020202020202,297.05115075765417 257.07070707070704,95.61874840572045 262.1212121212121,81.74790885554876 267.1717171717172,196.2810858022283 272.2222222222222,241.531283122253 277.27272727272725,220.66560883025443 282.32323232323233,338.51923763844536 287.3737373737374,315.7687303313719 292.42424242424244,316.49367949310897 297.47474747474746,373.07951331258266 302.52525252525254,372.52859415454645 307.57575757575756,373.6875069786974 312.62626262626264,378.17965684846035 317.67676767676767,394.6458658304173 322.7272727272727,394.5007300180236 327.77777777777777,394.63095910440154 332.8282828282828,405.3097557330792 337.8787878787879,387.3913983287755 342.92929292929296,207.92991377160013 347.979797979798,336.71162224537517 353.03030303030306,140.61049643551513 358.0808080808081,321.70291882194124 363.13131313131316,269.53255981304704 368.1818181818182,355.55598767704504 373.23232323232327,357.0359193951451 378.2828282828283,376.30245550735697 383.3333333333333,199.2422746629054 388.3838383838384,412.97941718062174 393.4343434343434,303.3251531430251 398.4848484848485,355.0588911012113 403.5353535353535,285.8257497059199 408.58585858585855,286.0754219600388 413.6363636363636,374.6772427685887 418.68686868686865,374.7012696501799 423.73737373737373,377.9320675682858 428.7878787878788,404.47183866021646 433.83838383838383,353.7978546085816 438.8888888888889,353.857814897851 443.93939393939394,351.195421750302 448.989898989899,364.8049674636998 454.04040404040404,338.8442751430187 459.0909090909091,303.0914763153305 464.14141414141415,351.35379417996694 469.19191919191917,91.30772753310578 474.24242424242425,69.46232466736706 479.2929292929293,349.2032940650529 484.34343434343435,350.6687670417093 489.3939393939394,355.2395622888099 494.4444444444444,366.76374512809207 499.4949494949495,367.3145725559358 504.5454545454545,350.5090006225498 509.59595959595964,389.64499645008163 514.6464646464647,290.4784931295188 519.6969696969697,395.32453472101633 524.7474747474748,393.9809632541598 529.7979797979798,400.6463729656764 534.8484848484849,401.7660968009649 539.8989898989898,394.0130709972324 544.9494949494949,222.13097348896304 550.0,365.84798009204405" fill="none" stroke="rgb(0,0,0)" stroke-width="1"/><circle cx="50.0" cy="432.60130743517095" r="2" fill="rgb(0,0,0)"/><circle cx="55.05050505050505" cy="412.1459143998943" r="2" fill="rgb(0,0,0)"/><circle cx="60.101010101010104" cy="384.4851690460193" r="2" fill="rgb(0,0,0)"/><circle cx="65.15151515151516" cy="367.4771531674412" r="2" fill="rgb(0,0,0)"/><circle cx="70.20202020202021" cy="383.50072010652656" r="2" fill="rgb(0,0,0)"/><circle cx="75.25252525252526" cy="364.9546719090566" r="2" fill="rgb(0,0,0)"/><circle cx="80.30303030303031" cy="391.7867525459676" r="2" fill="rgb(0,0,0)"/><circle cx="85.35353535353535" cy="364.7493679180976" r="2" fill="rgb(0,0,0)"/><circle cx="90.40404040404042" cy="365.9040250288265" r="2" fill="rgb(0,0,0)"/><circle cx="95.45454545454545" cy="366.25578602955864" r="2" fill="rgb(0,0,0)"/><circle cx="100.5050505050505" cy="364.89790174201346" r="2" fill="rgb(0,0,0)"/><circle cx="105.55555555555554" cy="241.37947023048667" r="2" fill="rgb(0,0,0)"/><circle cx="110.60606060606061" cy="298.6489773537513" r="2" fill="rgb(0,0,0)"/><circle cx="115.65656565656566" cy="355.90798770059223" r="2" fill="rgb(0,0,0)"/><circle cx="120.7070707070707" cy="338.109083248275" r="2" fill="rgb(0,0,0)"/><circle cx="125.75757575757576" cy="337.6904832262974" r="2" fill="rgb(0,0,0)"/><circle cx="130.80808080808083" cy="337.75131816051044" r="2" fill="rgb(0,0,0)"/><circle cx="135.85858585858585" cy="395.48790625667294" r="2" fill="rgb(0,0,0)"/><circle cx="140.9090909090909" cy="396.86298287237264" r="2" fill="rgb(0,0,0)"/><circle cx="145.95959595959596" cy="366.8899226264024" r="2" fill="rgb(0,0,0)"/><circle cx="151.010101010101" cy="174.89656861091612" r="2" fill="rgb(0,0,0)"/><circle cx="156.06060606060606" cy="259.8261916710832" r="2" fill="rgb(0,0,0)"/><circle cx="161.1111111111111" cy="257.0376650525578" r="2" fill="rgb(0,0,0)"/><circle cx="166.16161616161617" cy="401.09719746031175" r="2" fill="rgb(0,0,0)"/><circle cx="171.21212121212122" cy="330.88011189257963" r="2" fill="rgb(0,0,0)"/><circle cx="176.26262626262627" cy="320.63048072739184" r="2" fill="rgb(0,0,0)"/><circle cx="181.31313131313132" cy="317.68487627494176" r="2" fill="rgb(0,0,0)"/><circle cx="186.36363636363635" cy="192.48514629193556" r="2" fill="rgb(0,0,0)"/><circle cx="191.4141414141414" cy="412.4641293020751" r="2" fill="rgb(0,0,0)"/><circle cx="196.46464646464648" cy="413.4443857319053" r="2" fill="rgb(0,0,0)"/><circle cx="201.51515151515153" cy="413.92311495043225" r="2" fill="rgb(0,0,0)"/><circle cx="206.56565656565658" cy="414.5952432808123" r="2" fill="rgb(0,0,0)"/><circle cx="211.61616161616163" cy="415.42430852997575" r="2" fill="rgb(0,0,0)"/><circle cx="216.66666666666666" cy="413.91324442119384" r="2" fill="rgb(0,0,0)"/><circle cx="221.7171717171717" cy="364.1169637309591" r="2" fill="rgb(0,0,0)"/><circle cx="226.76767676767676" cy="408.535157127352" r="2" fill="rgb(0,0,0)"/><circle cx="231.8181818181818" cy="407.6253338087417" r="2" fill="rgb(0,0,0)"/><circle cx="236.86868686868686" cy="414.9296696261253" r="2" fill="rgb(0,0,0)"/><circle cx="241.91919191919192" cy="413.986399693498" r="2" fill="rgb(0,0,0)"/><circle cx="246.96969696969697" cy="297.4598877726138" r="2" fill="rgb(0,0,0)"/><circle cx="252.02020202020202" cy="297.05115075765417" r="2" fill="rgb(0,0,0)"/><circle cx="257.07070707070704" cy="95.61874840572045" r="2" fill="rgb(0,0,0)"/><circle cx="262.1212121212121" cy="81.74790885554876" r="2" fill="rgb(0,0,0)"/><circle cx="267.1717171717172" cy="196.2810858022283" r="2" fill="rgb(0,0,0)"/><circle cx="272.2222222222222" cy="241.531283122253" r="2" fill="rgb(0,0,0)"/><circle cx="277.27272727272725" cy="220.66560883025443" r="2" fill="rgb(0,0,0)"/><circle cx="282.32323232323233" cy="338.51923763844536" r="2" fill="rgb(0,0,0)"/><circle cx="287.3737373737374" cy="315.7687303313719" r="2" fill="rgb(0,0,0)"/><circle cx="292.42424242424244" cy="316.49367949310897" r="2" fill="rgb(0,0,0)"/><circle cx="297.47474747474746" cy="373.07951331258266" r="2" fill="rgb(0,0,0)"/><circle cx="302.52525252525254" cy="372.52859415454645" r="2" fill="rgb(0,0,0)"/><circle cx="307.57575757575756" cy="373.6875069786974" r="2" fill="rgb(0,0,0)"/><circle cx="312.62626262626264" cy="378.17965684846035" r="2" fill="rgb(0,0,0)"/><circle cx="317.67676767676767" cy="394.6458658304173" r="2" fill="rgb(0,0,0)"/><circle cx="322.7272727272727" cy="394.5007300180236" r="2" fill="rgb(0,0,0)"/><circle cx="327.77777777777777" cy="394.63095910440154" r="2" fill="rgb(0,0,0)"/><circle cx="332.8282828282828" cy="405.3097557330792" r="2" fill="rgb(0,0,0)"/><circle cx="337.8787878787879" cy="387.3913983287755" r="2" fill="rgb(0,0,0)"/><circle cx="342.92929292929296" cy="207.92991377160013" r="2" fill="rgb(0,0,0)"/><circle cx="347.979797979798" cy="336.71162224537517" r="2" fill="rgb(0,0,0)"/><circle cx="353.03030303030306" cy="140.61049643551513" r="2" fill="rgb(0,0,0)"/><circle cx="358.0808080808081" cy="321.70291882194124" r="2" fill="rgb(0,0,0)"/><circle cx="363.13131313131316" cy="269.53255981304704" r="2" fill="rgb(0,0,0)"/><circle cx="368.1818181818182" cy="355.55598767704504" r="2" fill="rgb(0,0,0)"/><circle cx="373.23232323232327" cy="357.0359193951451" r="2" fill="rgb(0,0,0)"/><circle cx="378.2828282828283" cy="376.30245550735697" r="2" fill="rgb(0,0,0)"/><circle cx="383.3333333333333" cy="199.2422746629054" r="2" fill="rgb(0,0,0)"/><circle cx="388.3838383838384" cy="412.97941718062174" r="2" fill="rgb(0,0,0)"/><circle cx="393.4343434343434" cy="303.3251531430251" r="2" fill="rgb(0,0,0)"/><circle cx="398.4848484848485" cy="355.0588911012113" r="2" fill="rgb(0,0,0)"/><circle cx="403.5353535353535" cy="285.8257497059199" r="2" fill="rgb(0,0,0)"/><circle cx="408.58585858585855" cy="286.0754219600388" r="2" fill="rgb(0,0,0)"/><circle cx="413.6363636363636" cy="374.6772427685887" r="2" fill="rgb(0,0,0)"/><circle cx="418.68686868686865" cy="374.7012696501799" r="2" fill="rgb(0,0,0)"/><circle cx="423.73737373737373" cy="377.9320675682858" r="2" fill="rgb(0,0,0)"/><circle cx="428.7878787878788" cy="404.47183866021646" r="2" fill="rgb(0,0,0)"/><circle cx="433.83838383838383" cy="353.7978546085816" r="2" fill="rgb(0,0,0)"/><circle cx="438.8888888888889" cy="353.857814897851" r="2" fill="rgb(0,0,0)"/><circle cx="443.93939393939394" cy="351.195421750302" r="2" fill="rgb(0,0,0)"/><circle cx="448.989898989899" cy="364.8049674636998" r="2" fill="rgb(0,0,0)"/><circle cx="454.04040404040404" cy="338.8442751430187" r="2" fill="rgb(0,0,0)"/><circle cx="459.0909090909091" cy="303.0914763153305" r="2" fill="rgb(0,0,0)"/><circle cx="464.14141414141415" cy="351.35379417996694" r="2" fill="rgb(0,0,0)"/><circle cx="469.19191919191917" cy="91.30772753310578" r="2" fill="rgb(0,0,0)"/><circle cx="474.24242424242425" cy="69.46232466736706" r="2" fill="rgb(0,0,0)"/><circle cx="479.2929292929293" cy="349.2032940650529" r="2" fill="rgb(0,0,0)"/><circle cx="484.34343434343435" cy="350.6687670417093" r="2" fill="rgb(0,0,0)"/><circle cx="489.3939393939394" cy="355.2395622888099" r="2" fill="rgb(0,0,0)"/><circle cx="494.4444444444444" cy="366.76374512809207" r="2" fill="rgb(0,0,0)"/><circle cx="499.4949494949495" cy="367.3145725559358" r="2" fill="rgb(0,0,0)"/><circle cx="504.5454545454545" cy="350.5090006225498" r="2" fill="rgb(0,0,0)"/><circle cx="509.59595959595964" cy="389.64499645008163" r="2" fill="rgb(0,0,0)"/><circle cx="514.6464646464647" cy="290.4784931295188" r="2" fill="rgb(0,0,0)"/><circle cx="519.6969696969697" cy="395.32453472101633" r="2" fill="rgb(0,0,0)"/><circle cx="524.7474747474748" cy="393.9809632541598" r="2" fill="rgb(0,0,0)"/><circle cx="529.7979797979798" cy="400.6463729656764" r="2" fill="rgb(0,0,0)"/><circle cx="534.8484848484849" cy="401.7660968009649" r="2" fill="rgb(0,0,0)"/><circle cx="539.8989898989898" cy="394.0130709972324" r="2" fill="rgb(0,0,0)"/><circle cx="544.9494949494949" cy="222.13097348896304" r="2" fill="rgb(0,0,0)"/><circle cx="550.0" cy="365.84798009204405" r="2" fill="rgb(0,0,0)"/><polyline points="50.0,210.8875056887539 55.05050505050505,180.9858906602928 60.101010101010104,161.4592007536458 65.15151515151516,139.7260618587875 70.20202020202021,116.47544461219195 75.25252525252526,101.82176781458594 80.30303030303031,98.9798654496289 85.35353535353535,90.62843298442823 90.40404040404042,89.54266378508339 95.45454545454545,80.13419290225966 100.5050505050505,81.84132654090018 105.55555555555554,77.85335528810253 110.60606060606061,76.11129503069208 115.65656565656566,75.49911528756257 120.7070707070707,77.82003575242902 125.75757575757576,79.71947762643276 130.80808080808083,82.23537652251292 135.85858585858585,81.67748377178094 140.9090909090909,82.62766309239504 145.95959595959596,72.60223073744021 151.010101010101,63.903716923834565 156.06060606060606,62.85821927888128 161.1111111111111,62.73510886965107 166.16161616161617,61.615357005257295 171.21212121212122,62.3938403835964 176.26262626262627,71.5707274555889 181.31313131313132,59.449739258172826 186.36363636363635,57.32345251676662 191.4141414141414,64.24802278430934 196.46464646464648,69.51140296498079 201.51515151515153,67.19805149728347 206.56565656565658,72.97875053989935 211.61616161616163,65.94456748116903 216.66666666666666,64.02135886237386 221.7171717171717,61.16725278944568 226.76767676767676,65.98345576741127 231.8181818181818,72.09093027391884 236.86868686868686,73.69485571417232 241.91919191919192,70.71369984347689 246.96969696969697,61.085125432153575 252.02020202020202,57.76339967197288 257.07070707070704,53.44175809202761 262.1212121212121,52.43184277894841 267.1717171717172,53.73966393489036 272.2222222222222,57.02589480386689 277.27272727272725,55.0823911934408 282.32323232323233,65.42189435064819 287.3737373737374,63.65534080255355 292.42424242424244,65.79876481175569 297.47474747474746,57.408969025253214 302.52525252525254,57.464822414431126 307.57575757575756,57.040711055208874 312.62626262626264,63.0369027210877 317.67676767676767,63.422314318389624 322.7272727272727,70.17625802412874 327.77777777777777,66.71584864964649 332.8282828282828,65.70695926956972 337.8787878787879,63.27308984083726 342.92929292929296,56.25163977248042 347.979797979798,58.30636055828876 353.03030303030306,53.10041382651002 358.0808080808081,56.58022505026929 363.13131313131316,55.23460360648784 368.1818181818182,56.319396515932795 373.23232323232327,61.80495907508271 378.2828282828283,69.81987904314758 383.3333333333333,58.144030511798405 388.3838383838384,65.0812689798064 393.4343434343434,57.72418190728939 398.4848484848485,64.87505691642787 403.5353535353535,55.66771454388379 408.58585858585855,57.319061643978046 413.6363636363636,61.27917744178853 418.68686868686865,61.82357924487036 423.73737373737373,64.36339388941389 428.7878787878788,68.08849304442873 433.83838383838383,64.80387813784114 438.8888888888889,62.60840376948545 443.93939393939394,64.82372836554822 448.989898989899,68.19125486192462 454.04040404040404,60.04053672419167 459.0909090909091,56.412274794115206 464.14141414141415,56.02867237993058 469.19191919191917,52.325832597084855 474.24242424242425,51.98113109663382 479.2929292929293,56.183204036963275 484.34343434343435,61.21970357268833 489.3939393939394,69.53213160804614 494.4444444444444,76.88808032802956 499.4949494949495,71.13261221370948 504.5454545454545,64.12825418197889 509.59595959595964,65.37656907564178 514.6464646464647,53.98709738557238 519.6969696969697,66.49688089737293 524.7474747474748,63.6964479268247 529.7979797979798,62.6251351371684 534.8484848484849,77.8667206877418 539.8989898989898,56.82655541950362 544.9494949494949,56.27039088604545 550.0,60.714965001114706" fill="none" stroke="rgb(0,0,255)" stroke-width="1"/><circle cx="50.0" cy="210.8875056887539" r="2" fill="rgb(0,0,255)"/><circle cx="55.05050505050505" cy="180.9858906602928" r="2" fill="rgb(0,0,255)"/><circle cx="60.101010101010104" cy="161.4592007536458" r="2" fill="rgb(0,0,255)"/><circle cx="65.15151515151516" cy="139.7260618587875" r="2" fill="rgb(0,0,255)"/><circle cx="70.20202020202021" cy="116.47544461219195" r="2" fill="rgb(0,0,255)"/><circle cx="75.25252525252526" cy="101.82176781458594" r="2" fill="rgb(0,0,255)"/><circle cx="80.30303030303031" cy="98.9798654496289" r="2" fill="rgb(0,0,255)"/><circle cx="85.35353535353535" cy="90.62843298442823" r="2" fill="rgb(0,0,255)"/><circle cx="90.40404040404042" cy="89.54266378508339" r="2" fill="rgb(0,0,255)"/><circle cx="95.45454545454545" cy="80.13419290225966" r="2" fill="rgb(0,0,255)"/><circle cx="100.5050505050505" cy="81.84132654090018" r="2" fill="rgb(0,0,255)"/><circle cx="105.55555555555554" cy="77.85335528810253" r="2" fill="rgb(0,0,255)"/><circle cx="110.60606060606061" cy="76.11129503069208" r="2" fill="rgb(0,0,255)"/><circle cx="115.65656565656566" cy="75.49911528756257" r="2" fill="rgb(0,0,255)"/><circle cx="120.7070707070707" cy="77.82003575242902" r="2" fill="rgb(0,0,255)"/><circle cx="125.75757575757576" cy="79.71947762643276" r="2" fill="rgb(0,0,255)"/><circle cx="130.80808080808083" cy="82.23537652251292" r="2" fill="rgb(0,0,255)"/><circle cx="135.85858585858585" cy="81.67748377178094" r="2" fill="rgb(0,0,255)"/><circle cx="140.9090909090909" cy="82.62766309239504" r="2" fill="rgb(0,0,255)"/><circle cx="145.95959595959596" cy="72.60223073744021" r="2" fill="rgb(0,0,255)"/><circle cx="151.010101010101" cy="63.903716923834565" r="2" fill="rgb(0,0,255)"/><circle cx="156.06060606060606" cy="62.85821927888128" r="2" fill="rgb(0,0,255)"/><circle cx="161.1111111111111" cy="62.73510886965107" r="2" fill="rgb(0,0,255)"/><circle cx="166.16161616161617" cy="61.615357005257295" r="2" fill="rgb(0,0,255)"/><circle cx="171.21212121212122" cy="62.3938403835964" r="2" fill="rgb(0,0,255)"/><circle cx="176.26262626262627" cy="71.5707274555889" r="2" fill="rgb(0,0,255)"/><circle cx="181.31313131313132" cy="59.449739258172826" r="2" fill="rgb(0,0,255)"/><circle cx="186.36363636363635" cy="57.32345251676662" r="2" fill="rgb(0,0,255)"/><circle cx="191.4141414141414" cy="64.24802278430934" r="2" fill="rgb(0,0,255)"/><circle cx="196.46464646464648" cy="69.51140296498079" r="2" fill="rgb(0,0,255)"/><circle cx="201.51515151515153" cy="67.19805149728347" r="2" fill="rgb(0,0,255)"/><circle cx="206.56565656565658" cy="72.97875053989935" r="2" fill="rgb(0,0,255)"/><circle cx="211.61616161616163" cy="65.94456748116903" r="2" fill="rgb(0,0,255)"/><circle cx="216.66666666666666" cy="64.02135886237386" r="2" fill="rgb(0,0,255)"/><circle cx="221.7171717171717" cy="61.16725278944568" r="2" fill="rgb(0,0,255)"/><circle cx="226.76767676767676" cy="65.98345576741127" r="2" fill="rgb(0,0,255)"/><circle cx="231.8181818181818" cy="72.09093027391884" r="2" fill="rgb(0,0,255)"/><circle cx="236.86868686868686" cy="73.69485571417232" r="2" fill="rgb(0,0,255)"/><circle cx="241.91919191919192" cy="70.71369984347689" r="2" fill="rgb(0,0,255)"/><circle cx="246.96969696969697" cy="61.085125432153575" r="2" fill="rgb(0,0,255)"/><circle cx="252.02020202020202" cy="57.76339967197288" r="2" fill="rgb(0,0,255)"/><circle cx="257.07070707070704" cy="53.44175809202761" r="2" fill="rgb(0,0,255)"/><circle cx="262.1212121212121" cy="52.43184277894841" r="2" fill="rgb(0,0,255)"/><circle cx="267.1717171717172" cy="53.73966393489036" r="2" fill="rgb(0,0,255)"/><circle cx="272.2222222222222" cy="57.02589480386689" r="2" fill="rgb(0,0,255)"/><circle cx="277.27272727272725" cy="55.0823911934408" r="2" fill="rgb(0,0,255)"/><circle cx="282.32323232323233" cy="65.42189435064819" r="2" fill="rgb(0,0,255)"/><circle cx="287.3737373737374" cy="63.65534080255355" r="2" fill="rgb(0,0,255)"/><circle cx="292.42424242424244" cy="65.79876481175569" r="2" fill="rgb(0,0,255)"/><circle cx="297.47474747474746" cy="57.408969025253214" r="2" fill="rgb(0,0,255)"/><circle cx="302.52525252525254" cy="57.464822414431126" r="2" fill="rgb(0,0,255)"/><circle cx="307.57575757575756" cy="57.040711055208874" r="2" fill="rgb(0,0,255)"/><circle cx="312.62626262626264" cy="63.0369027210877" r="2" fill="rgb(0,0,255)"/><circle cx="317.67676767676767" cy="63.422314318389624" r="2" fill="rgb(0,0,255)"/><circle cx="322.7272727272727" cy="70.17625802412874" r="2" fill="rgb(0,0,255)"/><circle cx="327.77777777777777" cy="66.71584864964649" r="2" fill="rgb(0,0,255)"/><circle cx="332.8282828282828" cy="65.70695926956972" r="2" fill="rgb(0,0,255)"/><circle cx="337.8787878787879" cy="63.27308984083726" r="2" fill="rgb(0,0,255)"/><circle cx="342.92929292929296" cy="56.25163977248042" r="2" fill="rgb(0,0,255)"/><circle cx="347.979797979798" cy="58.30636055828876" r="2" fill="rgb(0,0,255)"/><circle cx="353.03030303030306" cy="53.10041382651002" r="2" fill="rgb(0,0,255)"/><circle cx="358.0808080808081" cy="56.58022505026929" r="2" fill="rgb(0,0,255)"/><circle cx="363.13131313131316" cy="55.23460360648784" r="2" fill="rgb(0,0,255)"/><circle cx="368.1818181818182" cy="56.319396515932795" r="2" fill="rgb(0,0,255)"/><circle cx="373.23232323232327" cy="61.80495907508271" r="2" fill="rgb(0,0,255)"/><circle cx="378.2828282828283" cy="69.81987904314758" r="2" fill="rgb(0,0,255)"/><circle cx="383.3333333333333" cy="58.144030511798405" r="2" fill="rgb(0,0,255)"/><circle cx="388.3838383838384" cy="65.0812689798064" r="2" fill="rgb(0,0,255)"/><circle cx="393.4343434343434" cy="57.72418190728939" r="2" fill="rgb(0,0,255)"/><circle cx="398.4848484848485" cy="64.87505691642787" r="2" fill="rgb(0,0,255)"/><circle cx="403.5353535353535" cy="55.66771454388379" r="2" fill="rgb(0,0,255)"/><circle cx="408.58585858585855" cy="57.319061643978046" r="2" fill="rgb(0,0,255)"/><circle cx="413.6363636363636" cy="61.27917744178853" r="2" fill="rgb(0,0,255)"/><circle cx="418.68686868686865" cy="61.82357924487036" r="2" fill="rgb(0,0,255)"/><circle cx="423.73737373737373" cy="64.36339388941389" r="2" fill="rgb(0,0,255)"/><circle cx="428.7878787878788" cy="68.08849304442873" r="2" fill="rgb(0,0,255)"/><circle cx="433.83838383838383" cy="64.80387813784114" r="2" fill="rgb(0,0,255)"/><circle cx="438.8888888888889" cy="62.60840376948545" r="2" fill="rgb(0,0,255)"/><circle cx="443.93939393939394" cy="64.82372836554822" r="2" fill="rgb(0,0,255)"/><circle cx="448.989898989899" cy="68.19125486192462" r="2" fill="rgb(0,0,255)"/><circle cx="454.04040404040404" cy="60.04053672419167" r="2" fill="rgb(0,0,255)"/><circle cx="459.0909090909091" cy="56.412274794115206" r="2" fill="rgb(0,0,255)"/><circle cx="464.14141414141415" cy="56.02867237993058" r="2" fill="rgb(0,0,255)"/><circle cx="469.19191919191917" cy="52.325832597084855" r="2" fill="rgb(0,0,255)"/><circle cx="474.24242424242425" cy="51.98113109663382" r="2" fill="rgb(0,0,255)"/><circle cx="479.2929292929293" cy="56.183204036963275" r="2" fill="rgb(0,0,255)"/><circle cx="484.34343434343435" cy="61.21970357268833" r="2" fill="rgb(0,0,255)"/><circle cx="489.3939393939394" cy="69.53213160804614" r="2" fill="rgb(0,0,255)"/><circle cx="494.4444444444444" cy="76.88808032802956" r="2" fill="rgb(0,0,255)"/><circle cx="499.4949494949495" cy="71.13261221370948" r="2" fill="rgb(0,0,255)"/><circle cx="504.5454545454545" cy="64.12825418197889" r="2" fill="rgb(0,0,255)"/><circle cx="509.59595959595964" cy="65.37656907564178" r="2" fill="rgb(0,0,255)"/><circle cx="514.6464646464647" cy="53.98709738557238" r="2" fill="rgb(0,0,255)"/><circle cx="519.6969696969697" cy="66.49688089737293" r="2" fill="rgb(0,0,255)"/><circle cx="524.7474747474748" cy="63.6964479268247" r="2" fill="rgb(0,0,255)"/><circle cx="529.7979797979798" cy="62.6251351371684" r="2" fill="rgb(0,0,255)"/><circle cx="534.8484848484849" cy="77.8667206877418" r="2" fill="rgb(0,0,255)"/><circle cx="539.8989898989898" cy="56.82655541950362" r="2" fill="rgb(0,0,255)"/><circle cx="544.9494949494949" cy="56.27039088604545" r="2" fill="rgb(0,0,255)"/><circle cx="550.0" cy="60.714965001114706" r="2" fill="rgb(0,0,255)"/><polyline points="50.0,58.18778743354915 55.05050505050505,62.55956999129023 60.101010101010104,59.882418847952806 65.15151515151516,52.86879510361723 70.20202020202021,54.13091999877315 75.25252525252526,55.272745220440584 80.30303030303031,54.53348197864926 85.35353535353535,56.16529922847093 90.40404040404042,54.083326661388924 95.45454545454545,54.81229130766968 100.5050505050505,54.15621919803607 105.55555555555554,54.364497412135734 110.60606060606061,54.650184819446565 115.65656565656566,53.12056595418193 120.7070707070707,53.80022338170926 125.75757575757576,52.68620642779774 130.80808080808083,52.678933894160934 135.85858585858585,52.34427735165292 140.9090909090909,52.172523780051904 145.95959595959596,52.172523780051904 151.010101010101,52.62984213495554 156.06060606060606,52.13281937824553 161.1111111111111,52.04348847505264 166.16161616161617,52.33556274574897 171.21212121212122,52.20307147510147 176.26262626262627,51.920390260221154 181.31313131313132,51.91584441518273 186.36363636363635,51.45979925778306 191.4141414141414,51.483971894571596 196.46464646464648,51.32157861854847 201.51515151515153,51.30985498817455 206.56565656565658,51.28422456305293 211.61616161616163,51.160925876544866 216.66666666666666,51.160925876544866 221.7171717171717,50.852485305795426 226.76767676767676,50.84935772951735 231.8181818181818,50.79936957668849 236.86868686868686,51.0113227825604 241.91919191919192,51.0113227825604 246.96969696969697,51.05643768810927 252.02020202020202,50.93913028114491 257.07070707070704,50.810388007759514 262.1212121212121,50.92740665077099 267.1717171717172,50.77363269468265 272.2222222222222,50.786246705701785 277.27272727272725,50.82396885457473 282.32323232323233,50.7103677783295 287.3737373737374,50.7103677783295 292.42424242424244,50.741524951610074 297.47474747474746,50.707358408609934 302.52525252525254,50.707358408609934 307.57575757575756,50.559582307551125 312.62626262626264,50.6669278399371 317.67676767676767,50.61129586523214 322.7272727272727,50.695363836537126 327.77777777777777,50.617266467972115 332.8282828282828,50.47044070956406 337.8787878787879,50.354477474104556 342.92929292929296,50.2737659951751 347.979797979798,50.26846344302709 353.03030303030306,50.15538465504409 358.0808080808081,50.33748603804304 363.13131313131316,50.26204785507974 368.1818181818182,50.2092953468765 373.23232323232327,50.205913230415945 378.2828282828283,50.22420207289224 383.3333333333333,50.171540965036 388.3838383838384,50.16680597827616 393.4343434343434,50.13823435664915 398.4848484848485,50.2072569516651 403.5353535353535,50.13823435664915 408.58585858585855,50.13823435664915 413.6363636363636,50.07794909387616 418.68686868686865,50.11005683694873 423.73737373737373,50.14901008410362 428.7878787878788,50.078543970991916 433.83838383838383,50.13823435664915 438.8888888888889,50.13131611874303 443.93939393939394,50.13823435664915 448.989898989899,50.11640939272729 454.04040404040404,50.070091651019254 459.0909090909091,50.070091651019254 464.14141414141415,50.070091651019254 469.19191919191917,50.070091651019254 474.24242424242425,50.070091651019254 479.2929292929293,50.070091651019254 484.34343434343435,50.10219939409177 489.3939393939394,50.08499837703499 494.4444444444444,50.08499837703499 499.4949494949495,50.07114143938185 504.5454545454545,50.05623471336605 509.59595959595964,50.070091651019254 514.6464646464647,50.08499837703499 519.6969696969697,50.070091651019254 524.7474747474748,50.070091651019254 529.7979797979798,50.070091651019254 534.8484848484849,50.068142705629896 539.8989898989898,50.0596122768701 544.9494949494949,50.0 550.0,50.04470555085442" fill="none" stroke="rgb(0,255,0)" stroke-width="1"/><circle cx="50.0" cy="58.18778743354915" r="2" fill="rgb(0,255,0)"/><circle cx="55.05050505050505" cy="62.55956999129023" r="2" fill="rgb(0,255,0)"/><circle cx="60.101010101010104" cy="59.882418847952806" r="2" fill="rgb(0,255,0)"/><circle cx="65.15151515151516" cy="52.86879510361723" r="2" fill="rgb(0,255,0)"/><circle cx="70.20202020202021" cy="54.13091999877315" r="2" fill="rgb(0,255,0)"/><circle cx="75.25252525252526" cy="55.272745220440584" r="2" fill="rgb(0,255,0)"/><circle cx="80.30303030303031" cy="54.53348197864926" r="2" fill="rgb(0,255,0)"/><circle cx="85.35353535353535" cy="56.16529922847093" r="2" fill="rgb(0,255,0)"/><circle cx="90.40404040404042" cy="54.083326661388924" r="2" fill="rgb(0,255,0)"/><circle cx="95.45454545454545" cy="54.81229130766968" r="2" fill="rgb(0,255,0)"/><circle cx="100.5050505050505" cy="54.15621919803607" r="2" fill="rgb(0,255,0)"/><circle cx="105.55555555555554" cy="54.364497412135734" r="2" fill="rgb(0,255,0)"/><circle cx="110.60606060606061" cy="54.650184819446565" r="2" fill="rgb(0,255,0)"/><circle cx="115.65656565656566" cy="53.12056595418193" r="2" fill="rgb(0,255,0)"/><circle cx="120.7070707070707" cy="53.80022338170926" r="2" fill="rgb(0,255,0)"/><circle cx="125.75757575757576" cy="52.68620642779774" r="2" fill="rgb(0,255,0)"/><circle cx="130.80808080808083" cy="52.678933894160934" r="2" fill="rgb(0,255,0)"/><circle cx="135.85858585858585" cy="52.34427735165292" r="2" fill="rgb(0,255,0)"/><circle cx="140.9090909090909" cy="52.172523780051904" r="2" fill="rgb(0,255,0)"/><circle cx="145.95959595959596" cy="52.172523780051904" r="2" fill="rgb(0,255,0)"/><circle cx="151.010101010101" cy="52.62984213495554" r="2" fill="rgb(0,255,0)"/><circle cx="156.06060606060606" cy="52.13281937824553" r="2" fill="rgb(0,255,0)"/><circle cx="161.1111111111111" cy="52.04348847505264" r="2" fill="rgb(0,255,0)"/><circle cx="166.16161616161617" cy="52.33556274574897" r="2" fill="rgb(0,255,0)"/><circle cx="171.21212121212122" cy="52.20307147510147" r="2" fill="rgb(0,255,0)"/><circle cx="176.26262626262627" cy="51.920390260221154" r="2" fill="rgb(0,255,0)"/><circle cx="181.31313131313132" cy="51.91584441518273" r="2" fill="rgb(0,255,0)"/><circle cx="186.36363636363635" cy="51.45979925778306" r="2" fill="rgb(0,255,0)"/><circle cx="191.4141414141414" cy="51.483971894571596" r="2" fill="rgb(0,255,0)"/><circle cx="196.46464646464648" cy="51.32157861854847" r="2" fill="rgb(0,255,0)"/><circle cx="201.51515151515153" cy="51.30985498817455" r="2" fill="rgb(0,255,0)"/><circle cx="206.56565656565658" cy="51.28422456305293" r="2" fill="rgb(0,255,0)"/><circle cx="211.61616161616163" cy="51.160925876544866" r="2" fill="rgb(0,255,0)"/><circle cx="216.66666666666666" cy="51.160925876544866" r="2" fill="rgb(0,255,0)"/><circle cx="221.7171717171717" cy="50.852485305795426" r="2" fill="rgb(0,255,0)"/><circle cx="226.76767676767676" cy="50.84935772951735" r="2" fill="rgb(0,255,0)"/><circle cx="231.8181818181818" cy="50.79936957668849" r="2" fill="rgb(0,255,0)"/><circle cx="236.86868686868686" cy="51.0113227825604" r="2" fill="rgb(0,255,0)"/><circle cx="241.91919191919192" cy="51.0113227825604" r="2" fill="rgb(0,255,0)"/><circle cx="246.96969696969697" cy="51.05643768810927" r="2" fill="rgb(0,255,0)"/><circle cx="252.02020202020202" cy="50.93913028114491" r="2" fill="rgb(0,255,0)"/><circle cx="257.07070707070704" cy="50.810388007759514" r="2" fill="rgb(0,255,0)"/><circle cx="262.1212121212121" cy="50.92740665077099" r="2" fill="rgb(0,255,0)"/><circle cx="267.1717171717172" cy="50.77363269468265" r="2" fill="rgb(0,255,0)"/><circle cx="272.2222222222222" cy="50.786246705701785" r="2" fill="rgb(0,255,0)"/><circle cx="277.27272727272725" cy="50.82396885457473" r="2" fill="rgb(0,255,0)"/><circle cx="282.32323232323233" cy="50.7103677783295" r="2" fill="rgb(0,255,0)"/><circle cx="287.3737373737374" cy="50.7103677783295" r="2" fill="rgb(0,255,0)"/><circle cx="292.42424242424244" cy="50.741524951610074" r="2" fill="rgb(0,255,0)"/><circle cx="297.47474747474746" cy="50.707358408609934" r="2" fill="rgb(0,255,0)"/><circle cx="302.52525252525254" cy="50.707358408609934" r="2" fill="rgb(0,255,0)"/><circle cx="307.57575757575756" cy="50.559582307551125" r="2" fill="rgb(0,255,0)"/><circle cx="312.62626262626264" cy="50.6669278399371" r="2" fill="rgb(0,255,0)"/><circle cx="317.67676767676767" cy="50.61129586523214" r="2" fill="rgb(0,255,0)"/><circle cx="322.7272727272727" cy="50.695363836537126" r="2" fill="rgb(0,255,0)"/><circle cx="327.77777777777777" cy="50.617266467972115" r="2" fill="rgb(0,255,0)"/><circle cx="332.8282828282828" cy="50.47044070956406" r="2" fill="rgb(0,255,0)"/><circle cx="337.8787878787879" cy="50.354477474104556" r="2" fill="rgb(0,255,0)"/><circle cx="342.92929292929296" cy="50.2737659951751" r="2" fill="rgb(0,255,0)"/><circle cx="347.979797979798" cy="50.26846344302709" r="2" fill="rgb(0,255,0)"/><circle cx="353.03030303030306" cy="50.15538465504409" r="2" fill="rgb(0,255,0)"/><circle cx="358.0808080808081" cy="50.33748603804304" r="2" fill="rgb(0,255,0)"/><circle cx="363.13131313131316" cy="50.26204785507974" r="2" fill="rgb(0,255,0)"/><circle cx="368.1818181818182" cy="50.2092953468765" r="2" fill="rgb(0,255,0)"/><circle cx="373.23232323232327" cy="50.205913230415945" r="2" fill="rgb(0,255,0)"/><circle cx="378.2828282828283" cy="50.22420207289224" r="2" fill="rgb(0,255,0)"/><circle cx="383.3333333333333" cy="50.171540965036" r="2" fill="rgb(0,255,0)"/><circle cx="388.3838383838384" cy="50.16680597827616" r="2" fill="rgb(0,255,0)"/><circle cx="393.4343434343434" cy="50.13823435664915" r="2" fill="rgb(0,255,0)"/><circle cx="398.4848484848485" cy="50.2072569516651" r="2" fill="rgb(0,255,0)"/><circle cx="403.5353535353535" cy="50.13823435664915" r="2" fill="rgb(0,255,0)"/><circle cx="408.58585858585855" cy="50.13823435664915" r="2" fill="rgb(0,255,0)"/><circle cx="413.6363636363636" cy="50.07794909387616" r="2" fill="rgb(0,255,0)"/><circle cx="418.68686868686865" cy="50.11005683694873" r="2" fill="rgb(0,255,0)"/><circle cx="423.73737373737373" cy="50.14901008410362" r="2" fill="rgb(0,255,0)"/><circle cx="428.7878787878788" cy="50.078543970991916" r="2" fill="rgb(0,255,0)"/><circle cx="433.83838383838383" cy="50.13823435664915" r="2" fill="rgb(0,255,0)"/><circle cx="438.8888888888889" cy="50.13131611874303" r="2" fill="rgb(0,255,0)"/><circle cx="443.93939393939394" cy="50.13823435664915" r="2" fill="rgb(0,255,0)"/><circle cx="448.989898989899" cy="50.11640939272729" r="2" fill="rgb(0,255,0)"/><circle cx="454.04040404040404" cy="50.070091651019254" r="2" fill="rgb(0,255,0)"/><circle cx="459.0909090909091" cy="50.070091651019254" r="2" fill="rgb(0,255,0)"/><circle cx="464.14141414141415" cy="50.070091651019254" r="2" fill="rgb(0,255,0)"/><circle cx="469.19191919191917" cy="50.070091651019254" r="2" fill="rgb(0,255,0)"/><circle cx="474.24242424242425" cy="50.070091651019254" r="2" fill="rgb(0,255,0)"/><circle cx="479.2929292929293" cy="50.070091651019254" r="2" fill="rgb(0,255,0)"/><circle cx="484.34343434343435" cy="50.10219939409177" r="2" fill="rgb(0,255,0)"/><circle cx="489.3939393939394" cy="50.08499837703499" r="2" fill="rgb(0,255,0)"/><circle cx="494.4444444444444" cy="50.08499837703499" r="2" fill="rgb(0,255,0)"/><circle cx="499.4949494949495" cy="50.07114143938185" r="2" fill="rgb(0,255,0)"/><circle cx="504.5454545454545" cy="50.05623471336605" r="2" fill="rgb(0,255,0)"/><circle cx="509.59595959595964" cy="50.070091651019254" r="2" fill="rgb(0,255,0)"/><circle cx="514.6464646464647" cy="50.08499837703499" r="2" fill="rgb(0,255,0)"/><circle cx="519.6969696969697" cy="50.070091651019254" r="2" fill="rgb(0,255,0)"/><circle cx="524.7474747474748" cy="50.070091651019254" r="2" fill="rgb(0,255,0)"/><circle cx="529.7979797979798" cy="50.070091651019254" r="2" fill="rgb(0,255,0)"/><circle cx="534.8484848484849" cy="50.068142705629896" r="2" fill="rgb(0,255,0)"/><circle cx="539.8989898989898" cy="50.0596122768701" r="2" fill="rgb(0,255,0)"/><circle cx="544.9494949494949" cy="50.0" r="2" fill="rgb(0,255,0)"/><circle cx="550.0" cy="50.04470555085442" r="2" fill="rgb(0,255,0)"/><text x="350.0" y="20.0" text-anchor="middle" fill="rgb(0,0,0)" font-size="20.0">GA Demo</text><text x="350.0" y="575.0" text-anchor="middle" fill="rgb(0,0,0)" font-size="12.0">generation</text><text transform="rotate(-90.0 20.0 300.0)" x="20.0" y="300.0" text-anchor="middle" fill="rgb(0,0,0)" font-size="12.0">fitness</text><text x="620" y="62" fill="rgb(0,0,0)" font-size="12">min</text><text x="620" y="74" fill="rgb(0,0,255)" font-size="12">ave</text><text x="620" y="86" fill="rgb(0,255,0)" font-size="12">max</text>
      Sorry, your browser does not support inline SVG.
    </svg>