<?xml version='1.0' encoding='UTF-8'?>
<svg version="1.1" width="700.0" height="600.0" onload="init(evt)" xmlns="http://www.w3.org/2000/svg">
      <style>.caption {
  font-size: 14px;
  font-family: Georgia, serif;
}
</style>
      <script type="text/ecmascript"><![CDATA[
function init(evt) {
  if ( window.svgDocument == null ) {
    svgDocument = evt.target.ownerDocument;
  }
}

function RectHover(evt, i, c) {
  rect = svgDocument.getElementById('rect' + i);
  if( c != null ) {
    rect.setAttributeNS(null, "fill", c)  
  }
  tooltiptext = svgDocument.getElementById('tooltiptext' + i);
  tooltipbg = svgDocument.getElementById('tooltipbg' + i);
  if( tooltipbg != null) {
    tbb = tooltiptext.getBBox();
    tooltipbg.setAttributeNS(null, "width", tbb.width);
    tooltipbg.setAttributeNS(null, "height", tbb.height);
    tooltipbg.setAttributeNS(null, "x", tbb.x);
    tooltipbg.setAttributeNS(null, "y", tbb.y);
    tooltipbg.setAttributeNS(null, "visibility", "visible");
  }
  tooltiptext.setAttributeNS(null,"visibility","visible");
}

function RectUnhover(evt, i, c) {
  rect = svgDocument.getElementById('rect' + i);
  if( c != null ) {
    rect.setAttributeNS(null, "fill", c)  
  }
  tooltiptext = svgDocument.getElementById('tooltiptext' + i);
  tooltiptext.setAttributeNS(null,"visibility","hidden");
  tooltipbg = svgDocument.getElementById('tooltipbg' + i);
  if( tooltipbg != null ) {
    tooltipbg.setAttributeNS(null,"visibility","hidden");
  }
}
]]></script>
      <line x1="50.0" y1="550.0" x2="550.0" y2="550.0" stroke="rgb(0,0,0)" stroke-width="1"/><line x1="50.0" y1="550.0" x2="50.0" y2="50.0" stroke="rgb(0,0,0)" stroke-width="1"/><line x1="50.0" y1="550.0" x2="50.0" y2="50.0" stroke="rgb(192,192,192)" stroke-width="1"/><line x1="50.0" y1="548.0" x2="50.0" y2="552.0" stroke="rgb(192,192,192)" stroke-width="1"/><text text-anchor="middle" alignment-baseline="hanging" x="50.0" y="553.0" font-size="12.0">0</text><line x1="100.5050505050505" y1="550.0" x2="100.5050505050505" y2="50.0" stroke="rgb(192,192,192)" stroke-width="1"/><line x1="100.5050505050505" y1="548.0" x2="100.5050505050505" y2="552.0" stroke="rgb(192,192,192)" stroke-width="1"/><text text-anchor="middle" alignment-baseline="hanging" x="100.5050505050505" y="553.0" font-size="12.0">10</text><line x1="151.010101010101" y1="550.0" x2="151.010101010101" y2="50.0" stroke="rgb(192,192,192)" stroke-width="1"/><line x1="151.010101010101" y1="548.0" x2="151.010101010101" y2="552.0" stroke="rgb(192,192,192)" stroke-width="1"/><text text-anchor="middle" alignment-baseline="hanging" x="151.010101010101" y="553.0" font-size="12.0">20</text><line x1="201.51515151515153" y1="550.0" x2="201.51515151515153" y2="50.0" stroke="rgb(192,192,192)" stroke-width="1"/><line x1="201.51515151515153" y1="548.0" x2="201.51515151515153" y2="552.0" stroke="rgb(192,192,192)" stroke-width="1"/><text text-anchor="middle" alignment-baseline="hanging" x="201.51515151515153" y="553.0" font-size="12.0">30</text><line x1="252.02020202020202" y1="550.0" x2="252.02020202020202" y2="50.0" stroke="rgb(192,192,192)" stroke-width="1"/><line x1="252.02020202020202" y1="548.0" x2="252.02020202020202" y2="552.0" stroke="rgb(192,192,192)" stroke-width="1"/><text text-anchor="middle" alignment-baseline="hanging" x="252.02020202020202" y="553.0" font-size="12.0">40</text><line x1="302.52525252525254" y1="550.0" x2="302.52525252525254" y2="50.0" stroke="rgb(192,192,192)" stroke-width="1"/><line x1="302.52525252525254" y1="548.0" x2="302.52525252525254" y2="552.0" stroke="rgb(192,192,192)" stroke-width="1"/><text text-anchor="middle" alignment-baseline="hanging" x="302.52525252525254" y="553.0" font-size="12.0">50</text><line x1="353.03030303030306" y1="550.0" x2="353.03030303030306" y2="50.0" stroke="rgb(192,192,192)" stroke-width="1"/><line x1="353.03030303030306" y1="548.0" x2="353.03030303030306" y2="552.0" stroke="rgb(192,192,192)" stroke-width="1"/><text text-anchor="middle" alignment-baseline="hanging" x="353.03030303030306" y="553.0" font-size="12.0">60</text><line x1="403.5353535353535" y1="550.0" x2="403.5353535353535" y2="50.0" stroke="rgb(192,192,192)" stroke-width="1"/><line x1="403.5353535353535" y1="548.0" x2="403.5353535353535" y2="552.0" stroke="rgb(192,192,192)" stroke-width="1"/><text text-anchor="middle" alignment-baseline="hanging" x="403.5353535353535" y="553.0" font-size="12.0">70</text><line x1="454.04040404040404" y1="550.0" x2="454.04040404040404" y2="50.0" stroke="rgb(192,192,192)" stroke-width="1"/><line x1="454.04040404040404" y1="548.0" x2="454.04040404040404" y2="552.0" stroke="rgb(192,192,192)" stroke-width="1"/><text text-anchor="middle" alignment-baseline="hanging" x="454.04040404040404" y="553.0" font-size="12.0">80</text><line x1="504.5454545454545" y1="550.0" x2="504.5454545454545" y2="50.0" stroke="rgb(192,192,192)" stroke-width="1"/><line x1="504.5454545454545" y1="548.0" x2="504.5454545454545" y2="552.0" stroke="rgb(192,192,192)" stroke-width="1"/><text text-anchor="middle" alignment-baseline="hanging" x="504.5454545454545" y="553.0" font-size="12.0">90</text><line x1="50.0" y1="550.0" x2="550.0" y2="550.0" stroke="rgb(192,192,192)" stroke-width="1"/><text text-anchor="end" alignment-baseline="middle" x="45.0" y="550.0" font-size="12.0">0.0</text><line x1="48.0" y1="550.0" x2="52.0" y2="550.0" stroke="rgb(192,192,192)" stroke-width="1"/><line x1="50.0" y1="368.04298905237954" x2="550.0" y2="368.04298905237954" stroke="rgb(192,192,192)" stroke-width="1"/><text text-anchor="end" alignment-baseline="middle" x="45.0" y="368.04298905237954" font-size="12.0">1000.0</text><line x1="48.0" y1="368.04298905237954" x2="52.0" y2="368.04298905237954" stroke="rgb(192,192,192)" stroke-width="1"/><line x1="50.0" y1="186.08597810475914" x2="550.0" y2="186.08597810475914" stroke="rgb(192,192,192)" stroke-width="1"/><text text-anchor="end" alignment-baseline="middle" x="45.0" y="186.08597810475914" font-size="12.0">2000.0</text><line x1="48.0" y1="186.08597810475914" x2="52.0" y2="186.08597810475914" stroke="rgb(192,192,192)" stroke-width="1"/><polyline points="50.0,413.98240529381883 55.05050505050505,426.3160154274607 60.101010101010104,424.4200979491752 65.15151515151516,401.1843649320109 70.20202020202021,399.0222221337423 75.25252525252526,414.2573067769886 80.30303030303031,430.6445223934094 85.35353535353535,430.21419868808806 90.40404040404042,430.5891068636125 95.45454545454545,417.46793047752885 100.5050505050505,286.6351047944366 105.55555555555554,344.4133053998622 110.60606060606061,412.71691311163335 115.65656565656566,413.63629068188004 120.7070707070707,405.30843745239554 125.75757575757576,407.240678016252 130.80808080808083,405.59946654780583 135.85858585858585,405.1692036114973 140.9090909090909,346.4235331071952 145.95959595959596,230.56579701031285 151.010101010101,130.68205523194706 156.06060606060606,388.4363216094583 161.1111111111111,387.67961871709997 166.16161616161617,406.2993354257751 171.21212121212122,405.7925323844219 176.26262626262627,403.54459501443796 181.31313131313132,386.5007515261044 186.36363636363635,285.2537093198291 191.4141414141414,372.32180830777236 196.46464646464648,285.09733902058474 201.51515151515153,309.50820480501443 206.56565656565658,376.5728304190857 211.61616161616163,281.9123853857301 216.66666666666666,258.29774542688 221.7171717171717,274.0976205019711 226.76767676767676,347.3058448573339 231.8181818181818,343.2562872568844 236.86868686868686,343.76508307767176 241.91919191919192,374.20531220619705 246.96969696969697,375.749928468875 252.02020202020202,394.49333440225803 257.07070707070704,407.1351729537139 262.1212121212121,401.1153766678601 267.1717171717172,388.2657498526101 272.2222222222222,387.3760395367531 277.27272727272725,209.2774017788762 282.32323232323233,209.6677960517572 287.3737373737374,221.9706444975905 292.42424242424244,345.0740568313511 297.47474747474746,168.39783178283193 302.52525252525254,368.6399012668501 307.57575757575756,369.04655688527873 312.62626262626264,371.3080938561716 317.67676767676767,405.0980649272524 322.7272727272727,405.3469551489034 327.77777777777777,323.385780066977 332.8282828282828,392.63164615939735 337.8787878787879,163.89880372057894 342.92929292929296,379.16175077648734 347.979797979798,379.4050621945971 353.03030303030306,261.91072993228374 358.0808080808081,319.19429246453313 363.13131313131316,388.9624058735916 368.1818181818182,299.22787717450547 373.23232323232327,375.78408113124607 378.2828282828283,399.5432781913962 383.3333333333333,376.41488065659905 388.3838383838384,375.9350880515914 393.4343434343434,376.70256601970294 398.4848484848485,323.82187196744894 403.5353535353535,326.6531444461159 408.58585858585855,406.3701875045473 413.6363636363636,406.2379196303309 418.68686868686865,300.8046718591096 423.73737373737373,333.9489002506376 428.7878787878788,333.9489002506376 433.83838383838383,316.0181859063623 438.8888888888889,391.6533380835827 443.93939393939394,408.46974565361757 448.989898989899,410.5254387536123 454.04040404040404,409.3814529723793 459.0909090909091,410.0293299989876 464.14141414141415,409.33638267037554 469.19191919191917,408.71379788725983 474.24242424242425,408.71379788725983 479.2929292929293,395.1502185403532 484.34343434343435,395.6054268046327 489.3939393939394,394.7115258927103 494.4444444444444,164.8320103634789 499.4949494949495,164.2511800533287 504.5454545454545,405.79699329060924 509.59595959595964,284.5111343627289 514.6464646464647,250.14011623154653 519.6969696969697,405.78817350589304 524.7474747474748,405.61624920099854 529.7979797979798,405.8470124334194 534.8484848484849,391.51104107135114 539.8989898989898,349.6376471803659 544.9494949494949,391.8398833017826 550.0,391.8398833017826" fill="none" stroke="rgb(0,0,0)" stroke-width="1"/><circle cx="50.0" cy="413.98240529381883" r="2" fill="rgb(0,0,0)"/><circle cx="55.05050505050505" cy="426.3160154274607" r="2" fill="rgb(0,0,0)"/><circle cx="60.101010101010104" cy="424.4200979491752" r="2" fill="rgb(0,0,0)"/><circle cx="65.15151515151516" cy="401.1843649320109" r="2" fill="rgb(0,0,0)"/><circle cx="70.20202020202021" cy="399.0222221337423" r="2" fill="rgb(0,0,0)"/><circle cx="75.25252525252526" cy="414.2573067769886" r="2" fill="rgb(0,0,0)"/><circle cx="80.30303030303031" cy="430.6445223934094" r="2" fill="rgb(0,0,0)"/><circle cx="85.35353535353535" cy="430.21419868808806" r="2" fill="rgb(0,0,0)"/><circle cx="90.40404040404042" cy="430.5891068636125" r="2" fill="rgb(0,0,0)"/><circle cx="95.45454545454545" cy="417.46793047752885" r="2" fill="rgb(0,0,0)"/><circle cx="100.5050505050505" cy="286.6351047944366" r="2" fill="rgb(0,0,0)"/><circle cx="105.55555555555554" cy="344.4133053998622" r="2" fill="rgb(0,0,0)"/><circle cx="110.60606060606061" cy="412.71691311163335" r="2" fill="rgb(0,0,0)"/><circle cx="115.65656565656566" cy="413.63629068188004" r="2" fill="rgb(0,0,0)"/><circle cx="120.7070707070707" cy="405.30843745239554" r="2" fill="rgb(0,0,0)"/><circle cx="125.75757575757576" cy="407.240678016252" r="2" fill="rgb(0,0,0)"/><circle cx="130.80808080808083" cy="405.59946654780583" r="2" fill="rgb(0,0,0)"/><circle cx="135.85858585858585" cy="405.1692036114973" r="2" fill="rgb(0,0,0)"/><circle cx="140.9090909090909" cy="346.4235331071952" r="2" fill="rgb(0,0,0)"/><circle cx="145.95959595959596" cy="230.56579701031285" r="2" fill="rgb(0,0,0)"/><circle cx="151.010101010101" cy="130.68205523194706" r="2" fill="rgb(0,0,0)"/><circle cx="156.06060606060606" cy="388.4363216094583" r="2" fill="rgb(0,0,0)"/><circle cx="161.1111111111111" cy="387.67961871709997" r="2" fill="rgb(0,0,0)"/><circle cx="166.16161616161617" cy="406.2993354257751" r="2" fill="rgb(0,0,0)"/><circle cx="171.21212121212122" cy="405.7925323844219" r="2" fill="rgb(0,0,0)"/><circle cx="176.26262626262627" cy="403.54459501443796" r="2" fill="rgb(0,0,0)"/><circle cx="181.31313131313132" cy="386.5007515261044" r="2" fill="rgb(0,0,0)"/><circle cx="186.36363636363635" cy="285.2537093198291" r="2" fill="rgb(0,0,0)"/><circle cx="191.4141414141414" cy="372.32180830777236" r="2" fill="rgb(0,0,0)"/><circle cx="196.46464646464648" cy="285.09733902058474" r="2" fill="rgb(0,0,0)"/><circle cx="201.51515151515153" cy="309.50820480501443" r="2" fill="rgb(0,0,0)"/><circle cx="206.56565656565658" cy="376.5728304190857" r="2" fill="rgb(0,0,0)"/><circle cx="211.61616161616163" cy="281.9123853857301" r="2" fill="rgb(0,0,0)"/><circle cx="216.66666666666666" cy="258.29774542688" r="2" fill="rgb(0,0,0)"/><circle cx="221.7171717171717" cy="274.0976205019711" r="2" fill="rgb(0,0,0)"/><circle cx="226.76767676767676" cy="347.3058448573339" r="2" fill="rgb(0,0,0)"/><circle cx="231.8181818181818" cy="343.2562872568844" r="2" fill="rgb(0,0,0)"/><circle cx="236.86868686868686" cy="343.76508307767176" r="2" fill="rgb(0,0,0)"/><circle cx="241.91919191919192" cy="374.20531220619705" r="2" fill="rgb(0,0,0)"/><circle cx="246.96969696969697" cy="375.749928468875" r="2" fill="rgb(0,0,0)"/><circle cx="252.02020202020202" cy="394.49333440225803" r="2" fill="rgb(0,0,0)"/><circle cx="257.07070707070704" cy="407.1351729537139" r="2" fill="rgb(0,0,0)"/><circle cx="262.1212121212121" cy="401.1153766678601" r="2" fill="rgb(0,0,0)"/><circle cx="267.1717171717172" cy="388.2657498526101" r="2" fill="rgb(0,0,0)"/><circle cx="272.2222222222222" cy="387.3760395367531" r="2" fill="rgb(0,0,0)"/><circle cx="277.27272727272725" cy="209.2774017788762" r="2" fill="rgb(0,0,0)"/><circle cx="282.32323232323233" cy="209.6677960517572" r="2" fill="rgb(0,0,0)"/><circle cx="287.3737373737374" cy="221.9706444975905" r="2" fill="rgb(0,0,0)"/><circle cx="292.42424242424244" cy="345.0740568313511" r="2" fill="rgb(0,0,0)"/><circle cx="297.47474747474746" cy="168.39783178283193" r="2" fill="rgb(0,0,0)"/><circle cx="302.52525252525254" cy="368.6399012668501" r="2" fill="rgb(0,0,0)"/><circle cx="307.57575757575756" cy="369.04655688527873" r="2" fill="rgb(0,0,0)"/><circle cx="312.62626262626264" cy="371.3080938561716" r="2" fill="rgb(0,0,0)"/><circle cx="317.67676767676767" cy="405.0980649272524" r="2" fill="rgb(0,0,0)"/><circle cx="322.7272727272727" cy="405.3469551489034" r="2" fill="rgb(0,0,0)"/><circle cx="327.77777777777777" cy="323.385780066977" r="2" fill="rgb(0,0,0)"/><circle cx="332.8282828282828" cy="392.63164615939735" r="2" fill="rgb(0,0,0)"/><circle cx="337.8787878787879" cy="163.89880372057894" r="2" fill="rgb(0,0,0)"/><circle cx="342.92929292929296" cy="379.16175077648734" r="2" fill="rgb(0,0,0)"/><circle cx="347.979797979798" cy="379.4050621945971" r="2" fill="rgb(0,0,0)"/><circle cx="353.03030303030306" cy="261.91072993228374" r="2" fill="rgb(0,0,0)"/><circle cx="358.0808080808081" cy="319.19429246453313" r="2" fill="rgb(0,0,0)"/><circle cx="363.13131313131316" cy="388.9624058735916" r="2" fill="rgb(0,0,0)"/><circle cx="368.1818181818182" cy="299.22787717450547" r="2" fill="rgb(0,0,0)"/><circle cx="373.23232323232327" cy="375.78408113124607" r="2" fill="rgb(0,0,0)"/><circle cx="378.2828282828283" cy="399.5432781913962" r="2" fill="rgb(0,0,0)"/><circle cx="383.3333333333333" cy="376.41488065659905" r="2" fill="rgb(0,0,0)"/><circle cx="388.3838383838384" cy="375.9350880515914" r="2" fill="rgb(0,0,0)"/><circle cx="393.4343434343434" cy="376.70256601970294" r="2" fill="rgb(0,0,0)"/><circle cx="398.4848484848485" cy="323.82187196744894" r="2" fill="rgb(0,0,0)"/><circle cx="403.5353535353535" cy="326.6531444461159" r="2" fill="rgb(0,0,0)"/><circle cx="408.58585858585855" cy="406.3701875045473" r="2" fill="rgb(0,0,0)"/><circle cx="413.6363636363636" cy="406.2379196303309" r="2" fill="rgb(0,0,0)"/><circle cx="418.68686868686865" cy="300.8046718591096" r="2" fill="rgb(0,0,0)"/><circle cx="423.73737373737373" cy="333.9489002506376" r="2" fill="rgb(0,0,0)"/><circle cx="428.7878787878788" cy="333.9489002506376" r="2" fill="rgb(0,0,0)"/><circle cx="433.83838383838383" cy="316.0181859063623" r="2" fill="rgb(0,0,0)"/><circle cx="438.8888888888889" cy="391.6533380835827" r="2" fill="rgb(0,0,0)"/><circle cx="443.93939393939394" cy="408.46974565361757" r="2" fill="rgb(0,0,0)"/><circle cx="448.989898989899" cy="410.5254387536123" r="2" fill="rgb(0,0,0)"/><circle cx="454.04040404040404" cy="409.3814529723793" r="2" fill="rgb(0,0,0)"/><circle cx="459.0909090909091" cy="410.0293299989876" r="2" fill="rgb(0,0,0)"/><circle cx="464.14141414141415" cy="409.33638267037554" r="2" fill="rgb(0,0,0)"/><circle cx="469.19191919191917" cy="408.71379788725983" r="2" fill="rgb(0,0,0)"/><circle cx="474.24242424242425" cy="408.71379788725983" r="2" fill="rgb(0,0,0)"/><circle cx="479.2929292929293" cy="395.1502185403532" r="2" fill="rgb(0,0,0)"/><circle cx="484.34343434343435" cy="395.6054268046327" r="2" fill="rgb(0,0,0)"/><circle cx="489.3939393939394" cy="394.7115258927103" r="2" fill="rgb(0,0,0)"/><circle cx="494.4444444444444" cy="164.8320103634789" r="2" fill="rgb(0,0,0)"/><circle cx="499.4949494949495" cy="164.2511800533287" r="2" fill="rgb(0,0,0)"/><circle cx="504.5454545454545" cy="405.79699329060924" r="2" fill="rgb(0,0,0)"/><circle cx="509.59595959595964" cy="284.5111343627289" r="2" fill="rgb(0,0,0)"/><circle cx="514.6464646464647" cy="250.14011623154653" r="2" fill="rgb(0,0,0)"/><circle cx="519.6969696969697" cy="405.78817350589304" r="2" fill="rgb(0,0,0)"/><circle cx="524.7474747474748" cy="405.61624920099854" r="2" fill="rgb(0,0,0)"/><circle cx="529.7979797979798" cy="405.8470124334194" r="2" fill="rgb(0,0,0)"/><circle cx="534.8484848484849" cy="391.51104107135114" r="2" fill="rgb(0,0,0)"/><circle cx="539.8989898989898" cy="349.6376471803659" r="2" fill="rgb(0,0,0)"/><circle cx="544.9494949494949" cy="391.8398833017826" r="2" fill="rgb(0,0,0)"/><circle cx="550.0" cy="391.8398833017826" r="2" fill="rgb(0,0,0)"/><polyline points="50.0,201.2027592096518 55.05050505050505,178.32277106897857 60.101010101010104,151.02335163382946 65.15151515151516,132.72250868942103 70.20202020202021,116.17506082632974 75.25252525252526,97.970356062152 80.30303030303031,91.49185609524784 85.35353535353535,85.45965326100799 90.40404040404042,85.68941727531279 95.45454545454545,85.95009833620759 100.5050505050505,81.1847473047066 105.55555555555554,74.41826722040793 110.60606060606061,70.66524688949664 115.65656565656566,75.64943162715912 120.7070707070707,73.69712830109756 125.75757575757576,74.72569509908345 130.80808080808083,74.24875610582927 135.85858585858585,68.54133439869514 140.9090909090909,62.15399325855776 145.95959595959596,60.046725568668876 151.010101010101,57.557330688325806 156.06060606060606,63.94080660449788 161.1111111111111,61.14237710695727 166.16161616161617,70.34879802242705 171.21212121212122,62.68977175014396 176.26262626262627,71.45484722154544 181.31313131313132,67.51184069306106 186.36363636363635,58.18012487863001 191.4141414141414,68.07163713119832 196.46464646464648,65.37607928569406 201.51515151515153,64.29381528411301 206.56565656565658,63.960092386038525 211.61616161616163,61.446687931230315 216.66666666666666,61.39266079334959 221.7171717171717,62.867557269537656 226.76767676767676,64.02354153554626 231.8181818181818,59.05277135987416 236.86868686868686,65.47393314039948 241.91919191919192,64.49199286639566 246.96969696969697,65.61179424139442 252.02020202020202,68.6464714407457 257.07070707070704,63.586741969165644 262.1212121212121,69.68141616500083 267.1717171717172,73.59690363769926 272.2222222222222,70.90716093507439 277.27272727272725,56.83263738556042 282.32323232323233,55.622566251694366 287.3737373737374,56.9965095779105 292.42424242424244,64.1246885278021 297.47474747474746,54.83176301299716 302.52525252525254,62.89414326529993 307.57575757575756,65.25985501296475 312.62626262626264,60.95557083587914 317.67676767676767,59.716566335920106 322.7272727272727,67.59268229307867 327.77777777777777,64.31358435122087 332.8282828282828,60.18675246169698 337.8787878787879,54.983896815935395 342.92929292929296,59.50287867585138 347.979797979798,61.839104294324386 353.03030303030306,54.60551742692917 358.0808080808081,55.54429530596775 363.13131313131316,58.48968105130217 368.1818181818182,56.31655785905201 373.23232323232327,58.94962705990241 378.2828282828283,66.67691036360873 383.3333333333333,63.36830881252928 388.3838383838384,60.02456681530856 393.4343434343434,56.79553186975488 398.4848484848485,55.75359351952147 403.5353535353535,55.33816954372202 408.58585858585855,58.295540192434544 413.6363636363636,65.73028057368072 418.68686868686865,59.915285183855644 423.73737373737373,61.1586717661591 428.7878787878788,75.74351292532384 433.83838383838383,64.48863289280212 438.8888888888889,74.14745872782419 443.93939393939394,82.51819169409521 448.989898989899,85.75410668024188 454.04040404040404,71.45311722102673 459.0909090909091,67.90354992815736 464.14141414141415,67.78725169136845 469.19191919191917,71.06190999493839 474.24242424242425,60.861842694538836 479.2929292929293,67.12318991818279 484.34343434343435,63.59120811099996 489.3939393939394,61.39532694712938 494.4444444444444,54.82595305198089 499.4949494949495,55.58959648635812 504.5454545454545,70.09282974541549 509.59595959595964,61.04109153600422 514.6464646464647,57.77445653097254 519.6969696969697,62.019056678947436 524.7474747474748,67.68456474344572 529.7979797979798,64.58178715444376 534.8484848484849,59.893652578882325 539.8989898989898,62.59142769034776 544.9494949494949,63.98197447352726 550.0,72.10348286764304" fill="none" stroke="rgb(0,0,255)" stroke-width="1"/><circle cx="50.0" cy="201.2027592096518" r="2" fill="rgb(0,0,255)"/><circle cx="55.05050505050505" cy="178.32277106897857" r="2" fill="rgb(0,0,255)"/><circle cx="60.101010101010104" cy="151.02335163382946" r="2" fill="rgb(0,0,255)"/><circle cx="65.15151515151516" cy="132.72250868942103" r="2" fill="rgb(0,0,255)"/><circle cx="70.20202020202021" cy="116.17506082632974" r="2" fill="rgb(0,0,255)"/><circle cx="75.25252525252526" cy="97.970356062152" r="2" fill="rgb(0,0,255)"/><circle cx="80.30303030303031" cy="91.49185609524784" r="2" fill="rgb(0,0,255)"/><circle cx="85.35353535353535" cy="85.45965326100799" r="2" fill="rgb(0,0,255)"/><circle cx="90.40404040404042" cy="85.68941727531279" r="2" fill="rgb(0,0,255)"/><circle cx="95.45454545454545" cy="85.95009833620759" r="2" fill="rgb(0,0,255)"/><circle cx="100.5050505050505" cy="81.1847473047066" r="2" fill="rgb(0,0,255)"/><circle cx="105.55555555555554" cy="74.41826722040793" r="2" fill="rgb(0,0,255)"/><circle cx="110.60606060606061" cy="70.66524688949664" r="2" fill="rgb(0,0,255)"/><circle cx="115.65656565656566" cy="75.64943162715912" r="2" fill="rgb(0,0,255)"/><circle cx="120.7070707070707" cy="73.69712830109756" r="2" fill="rgb(0,0,255)"/><circle cx="125.75757575757576" cy="74.72569509908345" r="2" fill="rgb(0,0,255)"/><circle cx="130.80808080808083" cy="74.24875610582927" r="2" fill="rgb(0,0,255)"/><circle cx="135.85858585858585" cy="68.54133439869514" r="2" fill="rgb(0,0,255)"/><circle cx="140.9090909090909" cy="62.15399325855776" r="2" fill="rgb(0,0,255)"/><circle cx="145.95959595959596" cy="60.046725568668876" r="2" fill="rgb(0,0,255)"/><circle cx="151.010101010101" cy="57.557330688325806" r="2" fill="rgb(0,0,255)"/><circle cx="156.06060606060606" cy="63.94080660449788" r="2" fill="rgb(0,0,255)"/><circle cx="161.1111111111111" cy="61.14237710695727" r="2" fill="rgb(0,0,255)"/><circle cx="166.16161616161617" cy="70.34879802242705" r="2" fill="rgb(0,0,255)"/><circle cx="171.21212121212122" cy="62.68977175014396" r="2" fill="rgb(0,0,255)"/><circle cx="176.26262626262627" cy="71.45484722154544" r="2" fill="rgb(0,0,255)"/><circle cx="181.31313131313132" cy="67.51184069306106" r="2" fill="rgb(0,0,255)"/><circle cx="186.36363636363635" cy="58.18012487863001" r="2" fill="rgb(0,0,255)"/><circle cx="191.4141414141414" cy="68.07163713119832" r="2" fill="rgb(0,0,255)"/><circle cx="196.46464646464648" cy="65.37607928569406" r="2" fill="rgb(0,0,255)"/><circle cx="201.51515151515153" cy="64.29381528411301" r="2" fill="rgb(0,0,255)"/><circle cx="206.56565656565658" cy="63.960092386038525" r="2" fill="rgb(0,0,255)"/><circle cx="211.61616161616163" cy="61.446687931230315" r="2" fill="rgb(0,0,255)"/><circle cx="216.66666666666666" cy="61.39266079334959" r="2" fill="rgb(0,0,255)"/><circle cx="221.7171717171717" cy="62.867557269537656" r="2" fill="rgb(0,0,255)"/><circle cx="226.76767676767676" cy="64.02354153554626" r="2" fill="rgb(0,0,255)"/><circle cx="231.8181818181818" cy="59.05277135987416" r="2" fill="rgb(0,0,255)"/><circle cx="236.86868686868686" cy="65.47393314039948" r="2" fill="rgb(0,0,255)"/><circle cx="241.91919191919192" cy="64.49199286639566" r="2" fill="rgb(0,0,255)"/><circle cx="246.96969696969697" cy="65.61179424139442" r="2" fill="rgb(0,0,255)"/><circle cx="252.02020202020202" cy="68.6464714407457" r="2" fill="rgb(0,0,255)"/><circle cx="257.07070707070704" cy="63.586741969165644" r="2" fill="rgb(0,0,255)"/><circle cx="262.1212121212121" cy="69.68141616500083" r="2" fill="rgb(0,0,255)"/><circle cx="267.1717171717172" cy="73.59690363769926" r="2" fill="rgb(0,0,255)"/><circle cx="272.2222222222222" cy="70.90716093507439" r="2" fill="rgb(0,0,255)"/><circle cx="277.27272727272725" cy="56.83263738556042" r="2" fill="rgb(0,0,255)"/><circle cx="282.32323232323233" cy="55.622566251694366" r="2" fill="rgb(0,0,255)"/><circle cx="287.3737373737374" cy="56.9965095779105" r="2" fill="rgb(0,0,255)"/><circle cx="292.42424242424244" cy="64.1246885278021" r="2" fill="rgb(0,0,255)"/><circle cx="297.47474747474746" cy="54.83176301299716" r="2" fill="rgb(0,0,255)"/><circle cx="302.52525252525254" cy="62.89414326529993" r="2" fill="rgb(0,0,255)"/><circle cx="307.57575757575756" cy="65.25985501296475" r="2" fill="rgb(0,0,255)"/><circle cx="312.62626262626264" cy="60.95557083587914" r="2" fill="rgb(0,0,255)"/><circle cx="317.67676767676767" cy="59.716566335920106" r="2" fill="rgb(0,0,255)"/><circle cx="322.7272727272727" cy="67.59268229307867" r="2" fill="rgb(0,0,255)"/><circle cx="327.77777777777777" cy="64.31358435122087" r="2" fill="rgb(0,0,255)"/><circle cx="332.8282828282828" cy="60.18675246169698" r="2" fill="rgb(0,0,255)"/><circle cx="337.8787878787879" cy="54.983896815935395" r="2" fill="rgb(0,0,255)"/><circle cx="342.92929292929296" cy="59.50287867585138" r="2" fill="rgb(0,0,255)"/><circle cx="347.979797979798" cy="61.839104294324386" r="2" fill="rgb(0,0,255)"/><circle cx="353.03030303030306" cy="54.60551742692917" r="2" fill="rgb(0,0,255)"/><circle cx="358.0808080808081" cy="55.54429530596775" r="2" fill="rgb(0,0,255)"/><circle cx="363.13131313131316" cy="58.48968105130217" r="2" fill="rgb(0,0,255)"/><circle cx="368.1818181818182" cy="56.31655785905201" r="2" fill="rgb(0,0,255)"/><circle cx="373.23232323232327" cy="58.94962705990241" r="2" fill="rgb(0,0,255)"/><circle cx="378.2828282828283" cy="66.67691036360873" r="2" fill="rgb(0,0,255)"/><circle cx="383.3333333333333" cy="63.36830881252928" r="2" fill="rgb(0,0,255)"/><circle cx="388.3838383838384" cy="60.02456681530856" r="2" fill="rgb(0,0,255)"/><circle cx="393.4343434343434" cy="56.79553186975488" r="2" fill="rgb(0,0,255)"/><circle cx="398.4848484848485" cy="55.75359351952147" r="2" fill="rgb(0,0,255)"/><circle cx="403.5353535353535" cy="55.33816954372202" r="2" fill="rgb(0,0,255)"/><circle cx="408.58585858585855" cy="58.295540192434544" r="2" fill="rgb(0,0,255)"/><circle cx="413.6363636363636" cy="65.73028057368072" r="2" fill="rgb(0,0,255)"/><circle cx="418.68686868686865" cy="59.915285183855644" r="2" fill="rgb(0,0,255)"/><circle cx="423.73737373737373" cy="61.1586717661591" r="2" fill="rgb(0,0,255)"/><circle cx="428.7878787878788" cy="75.74351292532384" r="2" fill="rgb(0,0,255)"/><circle cx="433.83838383838383" cy="64.48863289280212" r="2" fill="rgb(0,0,255)"/><circle cx="438.8888888888889" cy="74.14745872782419" r="2" fill="rgb(0,0,255)"/><circle cx="443.93939393939394" cy="82.51819169409521" r="2" fill="rgb(0,0,255)"/><circle cx="448.989898989899" cy="85.75410668024188" r="2" fill="rgb(0,0,255)"/><circle cx="454.04040404040404" cy="71.45311722102673" r="2" fill="rgb(0,0,255)"/><circle cx="459.0909090909091" cy="67.90354992815736" r="2" fill="rgb(0,0,255)"/><circle cx="464.14141414141415" cy="67.78725169136845" r="2" fill="rgb(0,0,255)"/><circle cx="469.19191919191917" cy="71.06190999493839" r="2" fill="rgb(0,0,255)"/><circle cx="474.24242424242425" cy="60.861842694538836" r="2" fill="rgb(0,0,255)"/><circle cx="479.2929292929293" cy="67.12318991818279" r="2" fill="rgb(0,0,255)"/><circle cx="484.34343434343435" cy="63.59120811099996" r="2" fill="rgb(0,0,255)"/><circle cx="489.3939393939394" cy="61.39532694712938" r="2" fill="rgb(0,0,255)"/><circle cx="494.4444444444444" cy="54.82595305198089" r="2" fill="rgb(0,0,255)"/><circle cx="499.4949494949495" cy="55.58959648635812" r="2" fill="rgb(0,0,255)"/><circle cx="504.5454545454545" cy="70.09282974541549" r="2" fill="rgb(0,0,255)"/><circle cx="509.59595959595964" cy="61.04109153600422" r="2" fill="rgb(0,0,255)"/><circle cx="514.6464646464647" cy="57.77445653097254" r="2" fill="rgb(0,0,255)"/><circle cx="519.6969696969697" cy="62.019056678947436" r="2" fill="rgb(0,0,255)"/><circle cx="524.7474747474748" cy="67.68456474344572" r="2" fill="rgb(0,0,255)"/><circle cx="529.7979797979798" cy="64.58178715444376" r="2" fill="rgb(0,0,255)"/><circle cx="534.8484848484849" cy="59.893652578882325" r="2" fill="rgb(0,0,255)"/><circle cx="539.8989898989898" cy="62.59142769034776" r="2" fill="rgb(0,0,255)"/><circle cx="544.9494949494949" cy="63.98197447352726" r="2" fill="rgb(0,0,255)"/><circle cx="550.0" cy="72.10348286764304" r="2" fill="rgb(0,0,255)"/><polyline points="50.0,60.298109652006474 55.05050505050505,63.47432030798984 60.101010101010104,54.416730887917936 65.15151515151516,55.33144394266145 70.20202020202021,53.744665983944174 75.25252525252526,53.240648687789246 80.30303030303031,53.96141762520324 85.35353535353535,53.882495310930835 90.40404040404042,53.42279859497131 95.45454545454545,53.478928587600365 100.5050505050505,52.984323215055895 105.55555555555554,53.16070394747055 110.60606060606061,53.16070394747055 115.65656565656566,52.00136721507806 120.7070707070707,51.06100535813323 125.75757575757576,52.4443282561042 130.80808080808083,52.555644087129906 135.85858585858585,52.05343341580334 140.9090909090909,52.621834346383594 145.95959595959596,52.584390219599584 151.010101010101,51.97012531851931 156.06060606060606,52.397557578491615 161.1111111111111,51.54146583151305 166.16161616161617,51.6239567758692 171.21212121212122,51.52675942286032 176.26262626262627,51.50137111430041 181.31313131313132,51.50137111430041 186.36363636363635,51.43037515876682 191.4141414141414,50.798688640627404 196.46464646464648,51.35082272551665 201.51515151515153,51.0238194426762 206.56565656565658,51.152825473279336 211.61616161616163,50.694631721829694 216.66666666666666,51.06165204006231 221.7171717171717,51.03866173746172 226.76767676767676,50.95569649421117 231.8181818181818,50.559832540109994 236.86868686868686,50.65845118897391 241.91919191919192,50.60014111663105 246.96969696969697,50.521390640822176 252.02020202020202,50.521390640822176 257.07070707070704,50.521390640822176 262.1212121212121,50.37825772894598 267.1717171717172,50.509416355811254 272.2222222222222,50.68925340568455 277.27272727272725,50.66240889166647 282.32323232323233,50.79874875320871 287.3737373737374,50.66994389417374 292.42424242424244,50.58759263030396 297.47474747474746,50.58759263030396 302.52525252525254,50.60014111663105 307.57575757575756,50.47815058520848 312.62626262626264,50.53108050277905 317.67676767676767,50.511615163473266 322.7272727272727,50.482193817173936 327.77777777777777,50.482193817173936 332.8282828282828,50.53651456032566 337.8787878787879,50.53658112902673 342.92929292929296,50.58884131160846 347.979797979798,50.53658112902673 353.03030303030306,50.51621383404404 358.0808080808081,50.354065715627655 363.13131313131316,50.298241326086895 368.1818181818182,50.33589569125303 373.23232323232327,50.483740222030804 378.2828282828283,50.5003311600758 383.3333333333333,50.42843388238475 388.3838383838384,50.354065715627655 393.4343434343434,50.363811270647545 398.4848484848485,50.325650249684315 403.5353535353535,50.325650249684315 408.58585858585855,50.325650249684315 413.6363636363636,50.3202257570307 418.68686868686865,50.325650249684315 423.73737373737373,50.325650249684315 428.7878787878788,50.325650249684315 433.83838383838383,50.23425220456488 438.8888888888889,50.27198630331111 443.93939393939394,50.27198630331111 448.989898989899,50.325650249684315 454.04040404040404,50.325650249684315 459.0909090909091,50.28376681739769 464.14141414141415,50.27198630331111 469.19191919191917,50.27198630331111 474.24242424242425,50.27198630331111 479.2929292929293,50.24894677019728 484.34343434343435,50.24894677019728 489.3939393939394,50.096586100180104 494.4444444444444,50.27198630331111 499.4949494949495,50.21713988760854 504.5454545454545,50.21713988760854 509.59595959595964,50.04292215380684 514.6464646464647,50.11490759023252 519.6969696969697,50.072292318036375 524.7474747474748,50.012878340343775 529.7979797979798,50.0 534.8484848484849,50.05441917403499 539.8989898989898,50.012878340343775 544.9494949494949,50.012878340343775 550.0,50.084462987498114" fill="none" stroke="rgb(0,255,0)" stroke-width="1"/><circle cx="50.0" cy="60.298109652006474" r="2" fill="rgb(0,255,0)"/><circle cx="55.05050505050505" cy="63.47432030798984" r="2" fill="rgb(0,255,0)"/><circle cx="60.101010101010104" cy="54.416730887917936" r="2" fill="rgb(0,255,0)"/><circle cx="65.15151515151516" cy="55.33144394266145" r="2" fill="rgb(0,255,0)"/><circle cx="70.20202020202021" cy="53.744665983944174" r="2" fill="rgb(0,255,0)"/><circle cx="75.25252525252526" cy="53.240648687789246" r="2" fill="rgb(0,255,0)"/><circle cx="80.30303030303031" cy="53.96141762520324" r="2" fill="rgb(0,255,0)"/><circle cx="85.35353535353535" cy="53.882495310930835" r="2" fill="rgb(0,255,0)"/><circle cx="90.40404040404042" cy="53.42279859497131" r="2" fill="rgb(0,255,0)"/><circle cx="95.45454545454545" cy="53.478928587600365" r="2" fill="rgb(0,255,0)"/><circle cx="100.5050505050505" cy="52.984323215055895" r="2" fill="rgb(0,255,0)"/><circle cx="105.55555555555554" cy="53.16070394747055" r="2" fill="rgb(0,255,0)"/><circle cx="110.60606060606061" cy="53.16070394747055" r="2" fill="rgb(0,255,0)"/><circle cx="115.65656565656566" cy="52.00136721507806" r="2" fill="rgb(0,255,0)"/><circle cx="120.7070707070707" cy="51.06100535813323" r="2" fill="rgb(0,255,0)"/><circle cx="125.75757575757576" cy="52.4443282561042" r="2" fill="rgb(0,255,0)"/><circle cx="130.80808080808083" cy="52.555644087129906" r="2" fill="rgb(0,255,0)"/><circle cx="135.85858585858585" cy="52.05343341580334" r="2" fill="rgb(0,255,0)"/><circle cx="140.9090909090909" cy="52.621834346383594" r="2" fill="rgb(0,255,0)"/><circle cx="145.95959595959596" cy="52.584390219599584" r="2" fill="rgb(0,255,0)"/><circle cx="151.010101010101" cy="51.97012531851931" r="2" fill="rgb(0,255,0)"/><circle cx="156.06060606060606" cy="52.397557578491615" r="2" fill="rgb(0,255,0)"/><circle cx="161.1111111111111" cy="51.54146583151305" r="2" fill="rgb(0,255,0)"/><circle cx="166.16161616161617" cy="51.6239567758692" r="2" fill="rgb(0,255,0)"/><circle cx="171.21212121212122" cy="51.52675942286032" r="2" fill="rgb(0,255,0)"/><circle cx="176.26262626262627" cy="51.50137111430041" r="2" fill="rgb(0,255,0)"/><circle cx="181.31313131313132" cy="51.50137111430041" r="2" fill="rgb(0,255,0)"/><circle cx="186.36363636363635" cy="51.43037515876682" r="2" fill="rgb(0,255,0)"/><circle cx="191.4141414141414" cy="50.798688640627404" r="2" fill="rgb(0,255,0)"/><circle cx="196.46464646464648" cy="51.35082272551665" r="2" fill="rgb(0,255,0)"/><circle cx="201.51515151515153" cy="51.0238194426762" r="2" fill="rgb(0,255,0)"/><circle cx="206.56565656565658" cy="51.152825473279336" r="2" fill="rgb(0,255,0)"/><circle cx="211.61616161616163" cy="50.694631721829694" r="2" fill="rgb(0,255,0)"/><circle cx="216.66666666666666" cy="51.06165204006231" r="2" fill="rgb(0,255,0)"/><circle cx="221.7171717171717" cy="51.03866173746172" r="2" fill="rgb(0,255,0)"/><circle cx="226.76767676767676" cy="50.95569649421117" r="2" fill="rgb(0,255,0)"/><circle cx="231.8181818181818" cy="50.559832540109994" r="2" fill="rgb(0,255,0)"/><circle cx="236.86868686868686" cy="50.65845118897391" r="2" fill="rgb(0,255,0)"/><circle cx="241.91919191919192" cy="50.60014111663105" r="2" fill="rgb(0,255,0)"/><circle cx="246.96969696969697" cy="50.521390640822176" r="2" fill="rgb(0,255,0)"/><circle cx="252.02020202020202" cy="50.521390640822176" r="2" fill="rgb(0,255,0)"/><circle cx="257.07070707070704" cy="50.521390640822176" r="2" fill="rgb(0,255,0)"/><circle cx="262.1212121212121" cy="50.37825772894598" r="2" fill="rgb(0,255,0)"/><circle cx="267.1717171717172" cy="50.509416355811254" r="2" fill="rgb(0,255,0)"/><circle cx="272.2222222222222" cy="50.68925340568455" r="2" fill="rgb(0,255,0)"/><circle cx="277.27272727272725" cy="50.66240889166647" r="2" fill="rgb(0,255,0)"/><circle cx="282.32323232323233" cy="50.79874875320871" r="2" fill="rgb(0,255,0)"/><circle cx="287.3737373737374" cy="50.66994389417374" r="2" fill="rgb(0,255,0)"/><circle cx="292.42424242424244" cy="50.58759263030396" r="2" fill="rgb(0,255,0)"/><circle cx="297.47474747474746" cy="50.58759263030396" r="2" fill="rgb(0,255,0)"/><circle cx="302.52525252525254" cy="50.60014111663105" r="2" fill="rgb(0,255,0)"/><circle cx="307.57575757575756" cy="50.47815058520848" r="2" fill="rgb(0,255,0)"/><circle cx="312.62626262626264" cy="50.53108050277905" r="2" fill="rgb(0,255,0)"/><circle cx="317.67676767676767" cy="50.511615163473266" r="2" fill="rgb(0,255,0)"/><circle cx="322.7272727272727" cy="50.482193817173936" r="2" fill="rgb(0,255,0)"/><circle cx="327.77777777777777" cy="50.482193817173936" r="2" fill="rgb(0,255,0)"/><circle cx="332.8282828282828" cy="50.53651456032566" r="2" fill="rgb(0,255,0)"/><circle cx="337.8787878787879" cy="50.53658112902673" r="2" fill="rgb(0,255,0)"/><circle cx="342.92929292929296" cy="50.58884131160846" r="2" fill="rgb(0,255,0)"/><circle cx="347.979797979798" cy="50.53658112902673" r="2" fill="rgb(0,255,0)"/><circle cx="353.03030303030306" cy="50.51621383404404" r="2" fill="rgb(0,255,0)"/><circle cx="358.0808080808081" cy="50.354065715627655" r="2" fill="rgb(0,255,0)"/><circle cx="363.13131313131316" cy="50.298241326086895" r="2" fill="rgb(0,255,0)"/><circle cx="368.1818181818182" cy="50.33589569125303" r="2" fill="rgb(0,255,0)"/><circle cx="373.23232323232327" cy="50.483740222030804" r="2" fill="rgb(0,255,0)"/><circle cx="378.2828282828283" cy="50.5003311600758" r="2" fill="rgb(0,255,0)"/><circle cx="383.3333333333333" cy="50.42843388238475" r="2" fill="rgb(0,255,0)"/><circle cx="388.3838383838384" cy="50.354065715627655" r="2" fill="rgb(0,255,0)"/><circle cx="393.4343434343434" cy="50.363811270647545" r="2" fill="rgb(0,255,0)"/><circle cx="398.4848484848485" cy="50.325650249684315" r="2" fill="rgb(0,255,0)"/><circle cx="403.5353535353535" cy="50.325650249684315" r="2" fill="rgb(0,255,0)"/><circle cx="408.58585858585855" cy="50.325650249684315" r="2" fill="rgb(0,255,0)"/><circle cx="413.6363636363636" cy="50.3202257570307" r="2" fill="rgb(0,255,0)"/><circle cx="418.68686868686865" cy="50.325650249684315" r="2" fill="rgb(0,255,0)"/><circle cx="423.73737373737373" cy="50.325650249684315" r="2" fill="rgb(0,255,0)"/><circle cx="428.7878787878788" cy="50.325650249684315" r="2" fill="rgb(0,255,0)"/><circle cx="433.83838383838383" cy="50.23425220456488" r="2" fill="rgb(0,255,0)"/><circle cx="438.8888888888889" cy="50.27198630331111" r="2" fill="rgb(0,255,0)"/><circle cx="443.93939393939394" cy="50.27198630331111" r="2" fill="rgb(0,255,0)"/><circle cx="448.989898989899" cy="50.325650249684315" r="2" fill="rgb(0,255,0)"/><circle cx="454.04040404040404" cy="50.325650249684315" r="2" fill="rgb(0,255,0)"/><circle cx="459.0909090909091" cy="50.28376681739769" r="2" fill="rgb(0,255,0)"/><circle cx="464.14141414141415" cy="50.27198630331111" r="2" fill="rgb(0,255,0)"/><circle cx="469.19191919191917" cy="50.27198630331111" r="2" fill="rgb(0,255,0)"/><circle cx="474.24242424242425" cy="50.27198630331111" r="2" fill="rgb(0,255,0)"/><circle cx="479.2929292929293" cy="50.24894677019728" r="2" fill="rgb(0,255,0)"/><circle cx="484.34343434343435" cy="50.24894677019728" r="2" fill="rgb(0,255,0)"/><circle cx="489.3939393939394" cy="50.096586100180104" r="2" fill="rgb(0,255,0)"/><circle cx="494.4444444444444" cy="50.27198630331111" r="2" fill="rgb(0,255,0)"/><circle cx="499.4949494949495" cy="50.21713988760854" r="2" fill="rgb(0,255,0)"/><circle cx="504.5454545454545" cy="50.21713988760854" r="2" fill="rgb(0,255,0)"/><circle cx="509.59595959595964" cy="50.04292215380684" r="2" fill="rgb(0,255,0)"/><circle cx="514.6464646464647" cy="50.11490759023252" r="2" fill="rgb(0,255,0)"/><circle cx="519.6969696969697" cy="50.072292318036375" r="2" fill="rgb(0,255,0)"/><circle cx="524.7474747474748" cy="50.012878340343775" r="2" fill="rgb(0,255,0)"/><circle cx="529.7979797979798" cy="50.0" r="2" fill="rgb(0,255,0)"/><circle cx="534.8484848484849" cy="50.05441917403499" r="2" fill="rgb(0,255,0)"/><circle cx="539.8989898989898" cy="50.012878340343775" r="2" fill="rgb(0,255,0)"/><circle cx="544.9494949494949" cy="50.012878340343775" r="2" fill="rgb(0,255,0)"/><circle cx="550.0" cy="50.084462987498114" r="2" fill="rgb(0,255,0)"/><text x="350.0" y="20.0" text-anchor="middle" fill="rgb(0,0,0)" font-size="20.0">GA Demo</text><text x="350.0" y="575.0" text-anchor="middle" fill="rgb(0,0,0)" font-size="12.0">generation</text><text transform="rotate(-90.0 20.0 300.0)" x="20.0" y="300.0" text-anchor="middle" fill="rgb(0,0,0)" font-size="12.0">fitness</text><text x="620" y="62" fill="rgb(0,0,0)" font-size="12">min</text><text x="620" y="74" fill="rgb(0,0,255)" font-size="12">ave</text><text x="620" y="86" fill="rgb(0,255,0)" font-size="12">max</text>
      Sorry, your browser does not support inline SVG.
    </svg>