<?xml version='1.0' encoding='UTF-8'?>
<svg version="1.1" width="700.0" height="600.0" onload="init(evt)" xmlns="http://www.w3.org/2000/svg">
      <style>.caption {
  font-size: 14px;
  font-family: Georgia, serif;
}
</style>
      <script type="text/ecmascript"><![CDATA[
function init(evt) {
  if ( window.svgDocument == null ) {
    svgDocument = evt.target.ownerDocument;
  }
}

function RectHover(evt, i, c) {
  rect = svgDocument.getElementById('rect' + i);
  if( c != null ) {
    rect.setAttributeNS(null, "fill", c)  
  }
  tooltiptext = svgDocument.getElementById('tooltiptext' + i);
  tooltipbg = svgDocument.getElementById('tooltipbg' + i);
  if( tooltipbg != null) {
    tbb = tooltiptext.getBBox();
    tooltipbg.setAttributeNS(null, "width", tbb.width);
    tooltipbg.setAttributeNS(null, "height", tbb.height);
    tooltipbg.setAttributeNS(null, "x", tbb.x);
    tooltipbg.setAttributeNS(null, "y", tbb.y);
    tooltipbg.setAttributeNS(null, "visibility", "visible");
  }
  tooltiptext.setAttributeNS(null,"visibility","visible");
}

function RectUnhover(evt, i, c) {
  rect = svgDocument.getElementById('rect' + i);
  if( c != null ) {
    rect.setAttributeNS(null, "fill", c)  
  }
  tooltiptext = svgDocument.getElementById('tooltiptext' + i);
  tooltiptext.setAttributeNS(null,"visibility","hidden");
  tooltipbg = svgDocument.getElementById('tooltipbg' + i);
  if( tooltipbg != null ) {
    tooltipbg.setAttributeNS(null,"visibility","hidden");
  }
}
]]></script>
      <line x1="50.0" y1="550.0" x2="550.0" y2="550.0" stroke="rgb(0,0,0)" stroke-width="1"/><line x1="50.0" y1="550.0" x2="50.0" y2="50.0" stroke="rgb(0,0,0)" stroke-width="1"/><line x1="50.0" y1="550.0" x2="50.0" y2="50.0" stroke="rgb(192,192,192)" stroke-width="1"/><line x1="50.0" y1="548.0" x2="50.0" y2="552.0" stroke="rgb(192,192,192)" stroke-width="1"/><text text-anchor="middle" alignment-baseline="hanging" x="50.0" y="553.0" font-size="12.0">0</text><line x1="100.5050505050505" y1="550.0" x2="100.5050505050505" y2="50.0" stroke="rgb(192,192,192)" stroke-width="1"/><line x1="100.5050505050505" y1="548.0" x2="100.5050505050505" y2="552.0" stroke="rgb(192,192,192)" stroke-width="1"/><text text-anchor="middle" alignment-baseline="hanging" x="100.5050505050505" y="553.0" font-size="12.0">10</text><line x1="151.010101010101" y1="550.0" x2="151.010101010101" y2="50.0" stroke="rgb(192,192,192)" stroke-width="1"/><line x1="151.010101010101" y1="548.0" x2="151.010101010101" y2="552.0" stroke="rgb(192,192,192)" stroke-width="1"/><text text-anchor="middle" alignment-baseline="hanging" x="151.010101010101" y="553.0" font-size="12.0">20</text><line x1="201.51515151515153" y1="550.0" x2="201.51515151515153" y2="50.0" stroke="rgb(192,192,192)" stroke-width="1"/><line x1="201.51515151515153" y1="548.0" x2="201.51515151515153" y2="552.0" stroke="rgb(192,192,192)" stroke-width="1"/><text text-anchor="middle" alignment-baseline="hanging" x="201.51515151515153" y="553.0" font-size="12.0">30</text><line x1="252.02020202020202" y1="550.0" x2="252.02020202020202" y2="50.0" stroke="rgb(192,192,192)" stroke-width="1"/><line x1="252.02020202020202" y1="548.0" x2="252.02020202020202" y2="552.0" stroke="rgb(192,192,192)" stroke-width="1"/><text text-anchor="middle" alignment-baseline="hanging" x="252.02020202020202" y="553.0" font-size="12.0">40</text><line x1="302.52525252525254" y1="550.0" x2="302.52525252525254" y2="50.0" stroke="rgb(192,192,192)" stroke-width="1"/><line x1="302.52525252525254" y1="548.0" x2="302.52525252525254" y2="552.0" stroke="rgb(192,192,192)" stroke-width="1"/><text text-anchor="middle" alignment-baseline="hanging" x="302.52525252525254" y="553.0" font-size="12.0">50</text><line x1="353.03030303030306" y1="550.0" x2="353.03030303030306" y2="50.0" stroke="rgb(192,192,192)" stroke-width="1"/><line x1="353.03030303030306" y1="548.0" x2="353.03030303030306" y2="552.0" stroke="rgb(192,192,192)" stroke-width="1"/><text text-anchor="middle" alignment-baseline="hanging" x="353.03030303030306" y="553.0" font-size="12.0">60</text><line x1="403.5353535353535" y1="550.0" x2="403.5353535353535" y2="50.0" stroke="rgb(192,192,192)" stroke-width="1"/><line x1="403.5353535353535" y1="548.0" x2="403.5353535353535" y2="552.0" stroke="rgb(192,192,192)" stroke-width="1"/><text text-anchor="middle" alignment-baseline="hanging" x="403.5353535353535" y="553.0" font-size="12.0">70</text><line x1="454.04040404040404" y1="550.0" x2="454.04040404040404" y2="50.0" stroke="rgb(192,192,192)" stroke-width="1"/><line x1="454.04040404040404" y1="548.0" x2="454.04040404040404" y2="552.0" stroke="rgb(192,192,192)" stroke-width="1"/><text text-anchor="middle" alignment-baseline="hanging" x="454.04040404040404" y="553.0" font-size="12.0">80</text><line x1="504.5454545454545" y1="550.0" x2="504.5454545454545" y2="50.0" stroke="rgb(192,192,192)" stroke-width="1"/><line x1="504.5454545454545" y1="548.0" x2="504.5454545454545" y2="552.0" stroke="rgb(192,192,192)" stroke-width="1"/><text text-anchor="middle" alignment-baseline="hanging" x="504.5454545454545" y="553.0" font-size="12.0">90</text><line x1="50.0" y1="550.0" x2="550.0" y2="550.0" stroke="rgb(192,192,192)" stroke-width="1"/><text text-anchor="end" alignment-baseline="middle" x="45.0" y="550.0" font-size="12.0">0.0</text><line x1="48.0" y1="550.0" x2="52.0" y2="550.0" stroke="rgb(192,192,192)" stroke-width="1"/><line x1="50.0" y1="367.97078414307714" x2="550.0" y2="367.97078414307714" stroke="rgb(192,192,192)" stroke-width="1"/><text text-anchor="end" alignment-baseline="middle" x="45.0" y="367.97078414307714" font-size="12.0">1000.0</text><line x1="48.0" y1="367.97078414307714" x2="52.0" y2="367.97078414307714" stroke="rgb(192,192,192)" stroke-width="1"/><line x1="50.0" y1="185.94156828615422" x2="550.0" y2="185.94156828615422" stroke="rgb(192,192,192)" stroke-width="1"/><text text-anchor="end" alignment-baseline="middle" x="45.0" y="185.94156828615422" font-size="12.0">2000.0</text><line x1="48.0" y1="185.94156828615422" x2="52.0" y2="185.94156828615422" stroke="rgb(192,192,192)" stroke-width="1"/><polyline points="50.0,422.61132194536026 55.05050505050505,426.0203170521527 60.101010101010104,425.7490441617581 65.15151515151516,396.37286400415985 70.20202020202021,423.5822935354222 75.25252525252526,382.01151829065657 80.30303030303031,353.15117698904385 85.35353535353535,355.63332962590835 90.40404040404042,413.6921819464901 95.45454545454545,344.2147092383207 100.5050505050505,343.7216361668173 105.55555555555554,236.3141950632707 110.60606060606061,214.87103331035115 115.65656565656566,214.3045695040072 120.7070707070707,284.4479321616406 125.75757575757576,347.1002233703732 130.80808080808083,386.72252969482685 135.85858585858585,246.40171204210225 140.9090909090909,202.13386194522627 145.95959595959596,351.8089979593825 151.010101010101,351.1240273489507 156.06060606060606,350.2798450405286 161.1111111111111,100.14391338617531 166.16161616161617,192.94066439770944 171.21212121212122,270.082500032574 176.26262626262627,388.18964129850997 181.31313131313132,341.7205842163929 186.36363636363635,387.9836770272779 191.4141414141414,398.32963675382143 196.46464646464648,342.58344300437966 201.51515151515153,386.6805977074409 206.56565656565658,387.0449020212004 211.61616161616163,340.4755603260658 216.66666666666666,303.18528987322884 221.7171717171717,354.1393211910599 226.76767676767676,357.1493922797207 231.8181818181818,403.64262922890134 236.86868686868686,213.26280708085972 241.91919191919192,408.856852263145 246.96969696969697,393.9699794867577 252.02020202020202,393.667892464322 257.07070707070704,393.39498395075583 262.1212121212121,393.79224504797446 267.1717171717172,393.59611826755525 272.2222222222222,384.4401460415515 277.27272727272725,401.69448556964113 282.32323232323233,401.59268681837284 287.3737373737374,402.00694690629155 292.42424242424244,400.97727861138947 297.47474747474746,400.5630185234707 302.52525252525254,317.6895340308007 307.57575757575756,233.1676879748278 312.62626262626264,398.67213701973947 317.67676767676767,248.44520048561282 322.7272727272727,405.77534583550954 327.77777777777777,408.65758940682053 332.8282828282828,371.5793848314914 337.8787878787879,343.7935000600711 342.92929292929296,351.83930672028504 347.979797979798,304.0390843591591 353.03030303030306,295.6890126995057 358.0808080808081,170.0989264048402 363.13131313131316,302.6115354559555 368.1818181818182,324.86959111206727 373.23232323232327,325.9908216204062 378.2828282828283,277.7987507468644 383.3333333333333,278.2249041719441 388.3838383838384,349.00470731900384 393.4343434343434,349.56188702895327 398.4848484848485,257.3848281656186 403.5353535353535,407.6210413800293 408.58585858585855,407.6210413800293 413.6363636363636,404.5416776991175 418.68686868686865,400.06491816027017 423.73737373737373,400.94860946293943 428.7878787878788,334.66202014448663 433.83838383838383,335.64948464917654 438.8888888888889,314.4158056414716 443.93939393939394,318.5396910059641 448.989898989899,244.70350803756781 454.04040404040404,88.35186093966178 459.0909090909091,346.5429124196411 464.14141414141415,200.0079508933635 469.19191919191917,399.8041496320009 474.24242424242425,371.17986604504426 479.2929292929293,327.80596982109876 484.34343434343435,387.44839288205435 489.3939393939394,387.92148755747564 494.4444444444444,364.38979201717916 499.4949494949495,383.48551826488904 504.5454545454545,326.7730034161227 509.59595959595964,280.71740511991885 514.6464646464647,274.5676531655571 519.6969696969697,306.6796396486113 524.7474747474748,408.45794941127275 529.7979797979798,297.25449090891925 534.8484848484849,385.5151405712113 539.8989898989898,348.68607673212335 544.9494949494949,348.68607673212335 550.0,330.45730802718185" fill="none" stroke="rgb(0,0,0)" stroke-width="1"/><circle cx="50.0" cy="422.61132194536026" r="2" fill="rgb(0,0,0)"/><circle cx="55.05050505050505" cy="426.0203170521527" r="2" fill="rgb(0,0,0)"/><circle cx="60.101010101010104" cy="425.7490441617581" r="2" fill="rgb(0,0,0)"/><circle cx="65.15151515151516" cy="396.37286400415985" r="2" fill="rgb(0,0,0)"/><circle cx="70.20202020202021" cy="423.5822935354222" r="2" fill="rgb(0,0,0)"/><circle cx="75.25252525252526" cy="382.01151829065657" r="2" fill="rgb(0,0,0)"/><circle cx="80.30303030303031" cy="353.15117698904385" r="2" fill="rgb(0,0,0)"/><circle cx="85.35353535353535" cy="355.63332962590835" r="2" fill="rgb(0,0,0)"/><circle cx="90.40404040404042" cy="413.6921819464901" r="2" fill="rgb(0,0,0)"/><circle cx="95.45454545454545" cy="344.2147092383207" r="2" fill="rgb(0,0,0)"/><circle cx="100.5050505050505" cy="343.7216361668173" r="2" fill="rgb(0,0,0)"/><circle cx="105.55555555555554" cy="236.3141950632707" r="2" fill="rgb(0,0,0)"/><circle cx="110.60606060606061" cy="214.87103331035115" r="2" fill="rgb(0,0,0)"/><circle cx="115.65656565656566" cy="214.3045695040072" r="2" fill="rgb(0,0,0)"/><circle cx="120.7070707070707" cy="284.4479321616406" r="2" fill="rgb(0,0,0)"/><circle cx="125.75757575757576" cy="347.1002233703732" r="2" fill="rgb(0,0,0)"/><circle cx="130.80808080808083" cy="386.72252969482685" r="2" fill="rgb(0,0,0)"/><circle cx="135.85858585858585" cy="246.40171204210225" r="2" fill="rgb(0,0,0)"/><circle cx="140.9090909090909" cy="202.13386194522627" r="2" fill="rgb(0,0,0)"/><circle cx="145.95959595959596" cy="351.8089979593825" r="2" fill="rgb(0,0,0)"/><circle cx="151.010101010101" cy="351.1240273489507" r="2" fill="rgb(0,0,0)"/><circle cx="156.06060606060606" cy="350.2798450405286" r="2" fill="rgb(0,0,0)"/><circle cx="161.1111111111111" cy="100.14391338617531" r="2" fill="rgb(0,0,0)"/><circle cx="166.16161616161617" cy="192.94066439770944" r="2" fill="rgb(0,0,0)"/><circle cx="171.21212121212122" cy="270.082500032574" r="2" fill="rgb(0,0,0)"/><circle cx="176.26262626262627" cy="388.18964129850997" r="2" fill="rgb(0,0,0)"/><circle cx="181.31313131313132" cy="341.7205842163929" r="2" fill="rgb(0,0,0)"/><circle cx="186.36363636363635" cy="387.9836770272779" r="2" fill="rgb(0,0,0)"/><circle cx="191.4141414141414" cy="398.32963675382143" r="2" fill="rgb(0,0,0)"/><circle cx="196.46464646464648" cy="342.58344300437966" r="2" fill="rgb(0,0,0)"/><circle cx="201.51515151515153" cy="386.6805977074409" r="2" fill="rgb(0,0,0)"/><circle cx="206.56565656565658" cy="387.0449020212004" r="2" fill="rgb(0,0,0)"/><circle cx="211.61616161616163" cy="340.4755603260658" r="2" fill="rgb(0,0,0)"/><circle cx="216.66666666666666" cy="303.18528987322884" r="2" fill="rgb(0,0,0)"/><circle cx="221.7171717171717" cy="354.1393211910599" r="2" fill="rgb(0,0,0)"/><circle cx="226.76767676767676" cy="357.1493922797207" r="2" fill="rgb(0,0,0)"/><circle cx="231.8181818181818" cy="403.64262922890134" r="2" fill="rgb(0,0,0)"/><circle cx="236.86868686868686" cy="213.26280708085972" r="2" fill="rgb(0,0,0)"/><circle cx="241.91919191919192" cy="408.856852263145" r="2" fill="rgb(0,0,0)"/><circle cx="246.96969696969697" cy="393.9699794867577" r="2" fill="rgb(0,0,0)"/><circle cx="252.02020202020202" cy="393.667892464322" r="2" fill="rgb(0,0,0)"/><circle cx="257.07070707070704" cy="393.39498395075583" r="2" fill="rgb(0,0,0)"/><circle cx="262.1212121212121" cy="393.79224504797446" r="2" fill="rgb(0,0,0)"/><circle cx="267.1717171717172" cy="393.59611826755525" r="2" fill="rgb(0,0,0)"/><circle cx="272.2222222222222" cy="384.4401460415515" r="2" fill="rgb(0,0,0)"/><circle cx="277.27272727272725" cy="401.69448556964113" r="2" fill="rgb(0,0,0)"/><circle cx="282.32323232323233" cy="401.59268681837284" r="2" fill="rgb(0,0,0)"/><circle cx="287.3737373737374" cy="402.00694690629155" r="2" fill="rgb(0,0,0)"/><circle cx="292.42424242424244" cy="400.97727861138947" r="2" fill="rgb(0,0,0)"/><circle cx="297.47474747474746" cy="400.5630185234707" r="2" fill="rgb(0,0,0)"/><circle cx="302.52525252525254" cy="317.6895340308007" r="2" fill="rgb(0,0,0)"/><circle cx="307.57575757575756" cy="233.1676879748278" r="2" fill="rgb(0,0,0)"/><circle cx="312.62626262626264" cy="398.67213701973947" r="2" fill="rgb(0,0,0)"/><circle cx="317.67676767676767" cy="248.44520048561282" r="2" fill="rgb(0,0,0)"/><circle cx="322.7272727272727" cy="405.77534583550954" r="2" fill="rgb(0,0,0)"/><circle cx="327.77777777777777" cy="408.65758940682053" r="2" fill="rgb(0,0,0)"/><circle cx="332.8282828282828" cy="371.5793848314914" r="2" fill="rgb(0,0,0)"/><circle cx="337.8787878787879" cy="343.7935000600711" r="2" fill="rgb(0,0,0)"/><circle cx="342.92929292929296" cy="351.83930672028504" r="2" fill="rgb(0,0,0)"/><circle cx="347.979797979798" cy="304.0390843591591" r="2" fill="rgb(0,0,0)"/><circle cx="353.03030303030306" cy="295.6890126995057" r="2" fill="rgb(0,0,0)"/><circle cx="358.0808080808081" cy="170.0989264048402" r="2" fill="rgb(0,0,0)"/><circle cx="363.13131313131316" cy="302.6115354559555" r="2" fill="rgb(0,0,0)"/><circle cx="368.1818181818182" cy="324.86959111206727" r="2" fill="rgb(0,0,0)"/><circle cx="373.23232323232327" cy="325.9908216204062" r="2" fill="rgb(0,0,0)"/><circle cx="378.2828282828283" cy="277.7987507468644" r="2" fill="rgb(0,0,0)"/><circle cx="383.3333333333333" cy="278.2249041719441" r="2" fill="rgb(0,0,0)"/><circle cx="388.3838383838384" cy="349.00470731900384" r="2" fill="rgb(0,0,0)"/><circle cx="393.4343434343434" cy="349.56188702895327" r="2" fill="rgb(0,0,0)"/><circle cx="398.4848484848485" cy="257.3848281656186" r="2" fill="rgb(0,0,0)"/><circle cx="403.5353535353535" cy="407.6210413800293" r="2" fill="rgb(0,0,0)"/><circle cx="408.58585858585855" cy="407.6210413800293" r="2" fill="rgb(0,0,0)"/><circle cx="413.6363636363636" cy="404.5416776991175" r="2" fill="rgb(0,0,0)"/><circle cx="418.68686868686865" cy="400.06491816027017" r="2" fill="rgb(0,0,0)"/><circle cx="423.73737373737373" cy="400.94860946293943" r="2" fill="rgb(0,0,0)"/><circle cx="428.7878787878788" cy="334.66202014448663" r="2" fill="rgb(0,0,0)"/><circle cx="433.83838383838383" cy="335.64948464917654" r="2" fill="rgb(0,0,0)"/><circle cx="438.8888888888889" cy="314.4158056414716" r="2" fill="rgb(0,0,0)"/><circle cx="443.93939393939394" cy="318.5396910059641" r="2" fill="rgb(0,0,0)"/><circle cx="448.989898989899" cy="244.70350803756781" r="2" fill="rgb(0,0,0)"/><circle cx="454.04040404040404" cy="88.35186093966178" r="2" fill="rgb(0,0,0)"/><circle cx="459.0909090909091" cy="346.5429124196411" r="2" fill="rgb(0,0,0)"/><circle cx="464.14141414141415" cy="200.0079508933635" r="2" fill="rgb(0,0,0)"/><circle cx="469.19191919191917" cy="399.8041496320009" r="2" fill="rgb(0,0,0)"/><circle cx="474.24242424242425" cy="371.17986604504426" r="2" fill="rgb(0,0,0)"/><circle cx="479.2929292929293" cy="327.80596982109876" r="2" fill="rgb(0,0,0)"/><circle cx="484.34343434343435" cy="387.44839288205435" r="2" fill="rgb(0,0,0)"/><circle cx="489.3939393939394" cy="387.92148755747564" r="2" fill="rgb(0,0,0)"/><circle cx="494.4444444444444" cy="364.38979201717916" r="2" fill="rgb(0,0,0)"/><circle cx="499.4949494949495" cy="383.48551826488904" r="2" fill="rgb(0,0,0)"/><circle cx="504.5454545454545" cy="326.7730034161227" r="2" fill="rgb(0,0,0)"/><circle cx="509.59595959595964" cy="280.71740511991885" r="2" fill="rgb(0,0,0)"/><circle cx="514.6464646464647" cy="274.5676531655571" r="2" fill="rgb(0,0,0)"/><circle cx="519.6969696969697" cy="306.6796396486113" r="2" fill="rgb(0,0,0)"/><circle cx="524.7474747474748" cy="408.45794941127275" r="2" fill="rgb(0,0,0)"/><circle cx="529.7979797979798" cy="297.25449090891925" r="2" fill="rgb(0,0,0)"/><circle cx="534.8484848484849" cy="385.5151405712113" r="2" fill="rgb(0,0,0)"/><circle cx="539.8989898989898" cy="348.68607673212335" r="2" fill="rgb(0,0,0)"/><circle cx="544.9494949494949" cy="348.68607673212335" r="2" fill="rgb(0,0,0)"/><circle cx="550.0" cy="330.45730802718185" r="2" fill="rgb(0,0,0)"/><polyline points="50.0,239.73636738097446 55.05050505050505,213.70304617242675 60.101010101010104,203.20277444933856 65.15151515151516,175.14809542145264 70.20202020202021,153.6094504701552 75.25252525252526,119.5455298044543 80.30303030303031,102.9182597700667 85.35353535353535,91.43201279931037 90.40404040404042,92.63250018183282 95.45454545454545,72.71156110142482 100.5050505050505,70.92033481907129 105.55555555555554,63.82662047376391 110.60606060606061,61.78309579132389 115.65656565656566,60.290543211846284 120.7070707070707,63.98788015755156 125.75757575757576,63.74648051812716 130.80808080808083,69.39464972777671 135.85858585858585,64.10741341201594 140.9090909090909,58.80621879101773 145.95959595959596,66.44647577573278 151.010101010101,61.06284165789373 156.06060606060606,63.0256610693354 161.1111111111111,57.35978570116083 166.16161616161617,58.9854975832676 171.21212121212122,63.14455011745309 176.26262626262627,62.119235660673496 181.31313131313132,62.219386120273896 186.36363636363635,68.68823245376387 191.4141414141414,78.37249938699102 196.46464646464648,77.3952044923821 201.51515151515153,75.03802144106146 206.56565656565658,77.07907870627173 211.61616161616163,67.91531358864 216.66666666666666,68.43343076055015 221.7171717171717,67.67909036015806 226.76767676767676,69.21742589548501 231.8181818181818,67.84669109360374 236.86868686868686,61.609418227187234 241.91919191919192,69.91387205628524 246.96969696969697,67.50062173995354 252.02020202020202,63.566644025446124 257.07070707070704,67.27018551322163 262.1212121212121,77.32222029025661 267.1717171717172,66.83578842322464 272.2222222222222,71.68332319137568 277.27272727272725,82.5015624877617 282.32323232323233,83.63213524620699 287.3737373737374,70.29308305205268 292.42424242424244,67.13491077034456 297.47474747474746,70.22059194402061 302.52525252525254,63.58772104935548 307.57575757575756,58.64625839778614 312.62626262626264,65.34417129977697 317.67676767676767,58.700047736507145 322.7272727272727,64.70748073637168 327.77777777777777,67.01579969313241 332.8282828282828,76.68291097429255 337.8787878787879,68.03694411469206 342.92929292929296,66.51585904099721 347.979797979798,62.280790149378504 353.03030303030306,60.06496299167122 358.0808080808081,58.014731661045005 363.13131313131316,60.206536086426695 368.1818181818182,65.63362451394835 373.23232323232327,63.112480041591255 378.2828282828283,58.79652373423636 383.3333333333333,65.94243456005535 388.3838383838384,61.345030230012696 393.4343434343434,67.47847299461984 398.4848484848485,57.496248776506036 403.5353535353535,66.30885415253886 408.58585858585855,71.53331664625767 413.6363636363636,70.71789706946407 418.68686868686865,68.0572498153341 423.73737373737373,67.72648783699952 428.7878787878788,66.60822491535271 433.83838383838383,63.42145927904835 438.8888888888889,64.00037973620914 443.93939393939394,57.86192027985908 448.989898989899,55.823850636006966 454.04040404040404,52.67438517302139 459.0909090909091,57.840901075036584 464.14141414141415,57.45494509169504 469.19191919191917,64.16891397125164 474.24242424242425,67.98030402197446 479.2929292929293,61.69088446104547 484.34343434343435,64.88250701006177 489.3939393939394,74.69676304016633 494.4444444444444,65.86284986050003 499.4949494949495,66.98368495169746 504.5454545454545,58.660693218064125 509.59595959595964,62.735707332581285 514.6464646464647,59.2977989580412 519.6969696969697,64.38059399119425 524.7474747474748,71.40535634179918 529.7979797979798,67.98492113313324 534.8484848484849,66.78406884994837 539.8989898989898,60.704554786883534 544.9494949494949,59.79644697764587 550.0,62.78252502182937" fill="none" stroke="rgb(0,0,255)" stroke-width="1"/><circle cx="50.0" cy="239.73636738097446" r="2" fill="rgb(0,0,255)"/><circle cx="55.05050505050505" cy="213.70304617242675" r="2" fill="rgb(0,0,255)"/><circle cx="60.101010101010104" cy="203.20277444933856" r="2" fill="rgb(0,0,255)"/><circle cx="65.15151515151516" cy="175.14809542145264" r="2" fill="rgb(0,0,255)"/><circle cx="70.20202020202021" cy="153.6094504701552" r="2" fill="rgb(0,0,255)"/><circle cx="75.25252525252526" cy="119.5455298044543" r="2" fill="rgb(0,0,255)"/><circle cx="80.30303030303031" cy="102.9182597700667" r="2" fill="rgb(0,0,255)"/><circle cx="85.35353535353535" cy="91.43201279931037" r="2" fill="rgb(0,0,255)"/><circle cx="90.40404040404042" cy="92.63250018183282" r="2" fill="rgb(0,0,255)"/><circle cx="95.45454545454545" cy="72.71156110142482" r="2" fill="rgb(0,0,255)"/><circle cx="100.5050505050505" cy="70.92033481907129" r="2" fill="rgb(0,0,255)"/><circle cx="105.55555555555554" cy="63.82662047376391" r="2" fill="rgb(0,0,255)"/><circle cx="110.60606060606061" cy="61.78309579132389" r="2" fill="rgb(0,0,255)"/><circle cx="115.65656565656566" cy="60.290543211846284" r="2" fill="rgb(0,0,255)"/><circle cx="120.7070707070707" cy="63.98788015755156" r="2" fill="rgb(0,0,255)"/><circle cx="125.75757575757576" cy="63.74648051812716" r="2" fill="rgb(0,0,255)"/><circle cx="130.80808080808083" cy="69.39464972777671" r="2" fill="rgb(0,0,255)"/><circle cx="135.85858585858585" cy="64.10741341201594" r="2" fill="rgb(0,0,255)"/><circle cx="140.9090909090909" cy="58.80621879101773" r="2" fill="rgb(0,0,255)"/><circle cx="145.95959595959596" cy="66.44647577573278" r="2" fill="rgb(0,0,255)"/><circle cx="151.010101010101" cy="61.06284165789373" r="2" fill="rgb(0,0,255)"/><circle cx="156.06060606060606" cy="63.0256610693354" r="2" fill="rgb(0,0,255)"/><circle cx="161.1111111111111" cy="57.35978570116083" r="2" fill="rgb(0,0,255)"/><circle cx="166.16161616161617" cy="58.9854975832676" r="2" fill="rgb(0,0,255)"/><circle cx="171.21212121212122" cy="63.14455011745309" r="2" fill="rgb(0,0,255)"/><circle cx="176.26262626262627" cy="62.119235660673496" r="2" fill="rgb(0,0,255)"/><circle cx="181.31313131313132" cy="62.219386120273896" r="2" fill="rgb(0,0,255)"/><circle cx="186.36363636363635" cy="68.68823245376387" r="2" fill="rgb(0,0,255)"/><circle cx="191.4141414141414" cy="78.37249938699102" r="2" fill="rgb(0,0,255)"/><circle cx="196.46464646464648" cy="77.3952044923821" r="2" fill="rgb(0,0,255)"/><circle cx="201.51515151515153" cy="75.03802144106146" r="2" fill="rgb(0,0,255)"/><circle cx="206.56565656565658" cy="77.07907870627173" r="2" fill="rgb(0,0,255)"/><circle cx="211.61616161616163" cy="67.91531358864" r="2" fill="rgb(0,0,255)"/><circle cx="216.66666666666666" cy="68.43343076055015" r="2" fill="rgb(0,0,255)"/><circle cx="221.7171717171717" cy="67.67909036015806" r="2" fill="rgb(0,0,255)"/><circle cx="226.76767676767676" cy="69.21742589548501" r="2" fill="rgb(0,0,255)"/><circle cx="231.8181818181818" cy="67.84669109360374" r="2" fill="rgb(0,0,255)"/><circle cx="236.86868686868686" cy="61.609418227187234" r="2" fill="rgb(0,0,255)"/><circle cx="241.91919191919192" cy="69.91387205628524" r="2" fill="rgb(0,0,255)"/><circle cx="246.96969696969697" cy="67.50062173995354" r="2" fill="rgb(0,0,255)"/><circle cx="252.02020202020202" cy="63.566644025446124" r="2" fill="rgb(0,0,255)"/><circle cx="257.07070707070704" cy="67.27018551322163" r="2" fill="rgb(0,0,255)"/><circle cx="262.1212121212121" cy="77.32222029025661" r="2" fill="rgb(0,0,255)"/><circle cx="267.1717171717172" cy="66.83578842322464" r="2" fill="rgb(0,0,255)"/><circle cx="272.2222222222222" cy="71.68332319137568" r="2" fill="rgb(0,0,255)"/><circle cx="277.27272727272725" cy="82.5015624877617" r="2" fill="rgb(0,0,255)"/><circle cx="282.32323232323233" cy="83.63213524620699" r="2" fill="rgb(0,0,255)"/><circle cx="287.3737373737374" cy="70.29308305205268" r="2" fill="rgb(0,0,255)"/><circle cx="292.42424242424244" cy="67.13491077034456" r="2" fill="rgb(0,0,255)"/><circle cx="297.47474747474746" cy="70.22059194402061" r="2" fill="rgb(0,0,255)"/><circle cx="302.52525252525254" cy="63.58772104935548" r="2" fill="rgb(0,0,255)"/><circle cx="307.57575757575756" cy="58.64625839778614" r="2" fill="rgb(0,0,255)"/><circle cx="312.62626262626264" cy="65.34417129977697" r="2" fill="rgb(0,0,255)"/><circle cx="317.67676767676767" cy="58.700047736507145" r="2" fill="rgb(0,0,255)"/><circle cx="322.7272727272727" cy="64.70748073637168" r="2" fill="rgb(0,0,255)"/><circle cx="327.77777777777777" cy="67.01579969313241" r="2" fill="rgb(0,0,255)"/><circle cx="332.8282828282828" cy="76.68291097429255" r="2" fill="rgb(0,0,255)"/><circle cx="337.8787878787879" cy="68.03694411469206" r="2" fill="rgb(0,0,255)"/><circle cx="342.92929292929296" cy="66.51585904099721" r="2" fill="rgb(0,0,255)"/><circle cx="347.979797979798" cy="62.280790149378504" r="2" fill="rgb(0,0,255)"/><circle cx="353.03030303030306" cy="60.06496299167122" r="2" fill="rgb(0,0,255)"/><circle cx="358.0808080808081" cy="58.014731661045005" r="2" fill="rgb(0,0,255)"/><circle cx="363.13131313131316" cy="60.206536086426695" r="2" fill="rgb(0,0,255)"/><circle cx="368.1818181818182" cy="65.63362451394835" r="2" fill="rgb(0,0,255)"/><circle cx="373.23232323232327" cy="63.112480041591255" r="2" fill="rgb(0,0,255)"/><circle cx="378.2828282828283" cy="58.79652373423636" r="2" fill="rgb(0,0,255)"/><circle cx="383.3333333333333" cy="65.94243456005535" r="2" fill="rgb(0,0,255)"/><circle cx="388.3838383838384" cy="61.345030230012696" r="2" fill="rgb(0,0,255)"/><circle cx="393.4343434343434" cy="67.47847299461984" r="2" fill="rgb(0,0,255)"/><circle cx="398.4848484848485" cy="57.496248776506036" r="2" fill="rgb(0,0,255)"/><circle cx="403.5353535353535" cy="66.30885415253886" r="2" fill="rgb(0,0,255)"/><circle cx="408.58585858585855" cy="71.53331664625767" r="2" fill="rgb(0,0,255)"/><circle cx="413.6363636363636" cy="70.71789706946407" r="2" fill="rgb(0,0,255)"/><circle cx="418.68686868686865" cy="68.0572498153341" r="2" fill="rgb(0,0,255)"/><circle cx="423.73737373737373" cy="67.72648783699952" r="2" fill="rgb(0,0,255)"/><circle cx="428.7878787878788" cy="66.60822491535271" r="2" fill="rgb(0,0,255)"/><circle cx="433.83838383838383" cy="63.42145927904835" r="2" fill="rgb(0,0,255)"/><circle cx="438.8888888888889" cy="64.00037973620914" r="2" fill="rgb(0,0,255)"/><circle cx="443.93939393939394" cy="57.86192027985908" r="2" fill="rgb(0,0,255)"/><circle cx="448.989898989899" cy="55.823850636006966" r="2" fill="rgb(0,0,255)"/><circle cx="454.04040404040404" cy="52.67438517302139" r="2" fill="rgb(0,0,255)"/><circle cx="459.0909090909091" cy="57.840901075036584" r="2" fill="rgb(0,0,255)"/><circle cx="464.14141414141415" cy="57.45494509169504" r="2" fill="rgb(0,0,255)"/><circle cx="469.19191919191917" cy="64.16891397125164" r="2" fill="rgb(0,0,255)"/><circle cx="474.24242424242425" cy="67.98030402197446" r="2" fill="rgb(0,0,255)"/><circle cx="479.2929292929293" cy="61.69088446104547" r="2" fill="rgb(0,0,255)"/><circle cx="484.34343434343435" cy="64.88250701006177" r="2" fill="rgb(0,0,255)"/><circle cx="489.3939393939394" cy="74.69676304016633" r="2" fill="rgb(0,0,255)"/><circle cx="494.4444444444444" cy="65.86284986050003" r="2" fill="rgb(0,0,255)"/><circle cx="499.4949494949495" cy="66.98368495169746" r="2" fill="rgb(0,0,255)"/><circle cx="504.5454545454545" cy="58.660693218064125" r="2" fill="rgb(0,0,255)"/><circle cx="509.59595959595964" cy="62.735707332581285" r="2" fill="rgb(0,0,255)"/><circle cx="514.6464646464647" cy="59.2977989580412" r="2" fill="rgb(0,0,255)"/><circle cx="519.6969696969697" cy="64.38059399119425" r="2" fill="rgb(0,0,255)"/><circle cx="524.7474747474748" cy="71.40535634179918" r="2" fill="rgb(0,0,255)"/><circle cx="529.7979797979798" cy="67.98492113313324" r="2" fill="rgb(0,0,255)"/><circle cx="534.8484848484849" cy="66.78406884994837" r="2" fill="rgb(0,0,255)"/><circle cx="539.8989898989898" cy="60.704554786883534" r="2" fill="rgb(0,0,255)"/><circle cx="544.9494949494949" cy="59.79644697764587" r="2" fill="rgb(0,0,255)"/><circle cx="550.0" cy="62.78252502182937" r="2" fill="rgb(0,0,255)"/><polyline points="50.0,60.08173271575362 55.05050505050505,57.841017758746375 60.101010101010104,56.88954430905636 65.15151515151516,56.26186101715166 70.20202020202021,55.63173453652735 75.25252525252526,55.55312116264463 80.30303030303031,55.99469106511049 85.35353535353535,56.266193773233 90.40404040404042,55.806185641595505 95.45454545454545,56.32274707342248 100.5050505050505,55.623020193942864 105.55555555555554,55.696192091781484 110.60606060606061,55.375396695050256 115.65656565656566,54.96219264406034 120.7070707070707,55.12083068200957 125.75757575757576,54.4840161672596 130.80808080808083,54.91512557015335 135.85858585858585,54.89363611062754 140.9090909090909,54.723437170370744 145.95959595959596,54.598071127368655 151.010101010101,54.55298573049856 156.06060606060606,54.26645406010306 161.1111111111111,54.38601716331999 166.16161616161617,54.39659252407449 171.21212121212122,54.35339617391213 176.26262626262627,54.26774195532357 181.31313131313132,54.184669303694534 186.36363636363635,54.11983654589278 191.4141414141414,54.43261819831184 196.46464646464648,54.023278159794245 201.51515151515153,54.062173222940885 206.56565656565658,54.062173222940885 211.61616161616163,54.207327381942264 216.66666666666666,53.97547651769929 221.7171717171717,53.93578732374476 226.76767676767676,53.95836938518369 231.8181818181818,53.988551193648505 236.86868686868686,53.97547651769929 241.91919191919192,53.97547651769929 246.96969696969697,53.927571864335164 252.02020202020202,53.94139243234764 257.07070707070704,54.00362959784525 262.1212121212121,53.92651999067817 267.1717171717172,53.968067495778655 272.2222222222222,53.93578732374476 277.27272727272725,53.94139243234764 282.32323232323233,53.94139243234764 287.3737373737374,53.94139243234764 292.42424242424244,53.932555482653925 297.47474747474746,53.932555482653925 302.52525252525254,53.89940171486461 307.57575757575756,53.89940171486461 312.62626262626264,53.89940171486461 317.67676767676767,53.877494944671014 322.7272727272727,53.877494944671014 327.77777777777777,53.89940171486461 332.8282828282828,50.257628403988065 337.8787878787879,50.36635153512481 342.92929292929296,50.60417244807127 347.979797979798,50.34602379994186 353.03030303030306,50.19463547621564 358.0808080808081,50.254405872004384 363.13131313131316,50.12827121883015 368.1818181818182,50.19463547621564 373.23232323232327,50.12827121883015 378.2828282828283,50.12827121883015 383.3333333333333,50.127878269758185 388.3838383838384,50.12827121883015 393.4343434343434,50.12827121883015 398.4848484848485,50.12827121883015 403.5353535353535,50.076418338489475 408.58585858585855,50.076418338489475 413.6363636363636,50.12827121883015 418.68686868686865,50.11161454970471 423.73737373737373,50.0 428.7878787878788,50.08302092651087 433.83838383838383,50.12827121883015 438.8888888888889,50.13010423155606 443.93939393939394,50.05001858555653 448.989898989899,50.04962563648456 454.04040404040404,50.08348702401315 459.0909090909091,50.083879973085175 464.14141414141415,50.068761787434994 469.19191919191917,50.11315303317997 474.24242424242425,50.11354598225199 479.2929292929293,50.083879973085175 484.34343434343435,50.11354598225199 489.3939393939394,50.042883422344914 494.4444444444444,50.11354598225199 499.4949494949495,50.11354598225199 504.5454545454545,50.03998767872008 509.59595959595964,50.11315303317997 514.6464646464647,50.03998767872008 519.6969696969697,50.03998767872008 524.7474747474748,50.03998767872008 529.7979797979798,50.03998767872008 534.8484848484849,50.083879973085175 539.8989898989898,50.03998767872008 544.9494949494949,50.0595796715528 550.0,50.07191763370139" fill="none" stroke="rgb(0,255,0)" stroke-width="1"/><circle cx="50.0" cy="60.08173271575362" r="2" fill="rgb(0,255,0)"/><circle cx="55.05050505050505" cy="57.841017758746375" r="2" fill="rgb(0,255,0)"/><circle cx="60.101010101010104" cy="56.88954430905636" r="2" fill="rgb(0,255,0)"/><circle cx="65.15151515151516" cy="56.26186101715166" r="2" fill="rgb(0,255,0)"/><circle cx="70.20202020202021" cy="55.63173453652735" r="2" fill="rgb(0,255,0)"/><circle cx="75.25252525252526" cy="55.55312116264463" r="2" fill="rgb(0,255,0)"/><circle cx="80.30303030303031" cy="55.99469106511049" r="2" fill="rgb(0,255,0)"/><circle cx="85.35353535353535" cy="56.266193773233" r="2" fill="rgb(0,255,0)"/><circle cx="90.40404040404042" cy="55.806185641595505" r="2" fill="rgb(0,255,0)"/><circle cx="95.45454545454545" cy="56.32274707342248" r="2" fill="rgb(0,255,0)"/><circle cx="100.5050505050505" cy="55.623020193942864" r="2" fill="rgb(0,255,0)"/><circle cx="105.55555555555554" cy="55.696192091781484" r="2" fill="rgb(0,255,0)"/><circle cx="110.60606060606061" cy="55.375396695050256" r="2" fill="rgb(0,255,0)"/><circle cx="115.65656565656566" cy="54.96219264406034" r="2" fill="rgb(0,255,0)"/><circle cx="120.7070707070707" cy="55.12083068200957" r="2" fill="rgb(0,255,0)"/><circle cx="125.75757575757576" cy="54.4840161672596" r="2" fill="rgb(0,255,0)"/><circle cx="130.80808080808083" cy="54.91512557015335" r="2" fill="rgb(0,255,0)"/><circle cx="135.85858585858585" cy="54.89363611062754" r="2" fill="rgb(0,255,0)"/><circle cx="140.9090909090909" cy="54.723437170370744" r="2" fill="rgb(0,255,0)"/><circle cx="145.95959595959596" cy="54.598071127368655" r="2" fill="rgb(0,255,0)"/><circle cx="151.010101010101" cy="54.55298573049856" r="2" fill="rgb(0,255,0)"/><circle cx="156.06060606060606" cy="54.26645406010306" r="2" fill="rgb(0,255,0)"/><circle cx="161.1111111111111" cy="54.38601716331999" r="2" fill="rgb(0,255,0)"/><circle cx="166.16161616161617" cy="54.39659252407449" r="2" fill="rgb(0,255,0)"/><circle cx="171.21212121212122" cy="54.35339617391213" r="2" fill="rgb(0,255,0)"/><circle cx="176.26262626262627" cy="54.26774195532357" r="2" fill="rgb(0,255,0)"/><circle cx="181.31313131313132" cy="54.184669303694534" r="2" fill="rgb(0,255,0)"/><circle cx="186.36363636363635" cy="54.11983654589278" r="2" fill="rgb(0,255,0)"/><circle cx="191.4141414141414" cy="54.43261819831184" r="2" fill="rgb(0,255,0)"/><circle cx="196.46464646464648" cy="54.023278159794245" r="2" fill="rgb(0,255,0)"/><circle cx="201.51515151515153" cy="54.062173222940885" r="2" fill="rgb(0,255,0)"/><circle cx="206.56565656565658" cy="54.062173222940885" r="2" fill="rgb(0,255,0)"/><circle cx="211.61616161616163" cy="54.207327381942264" r="2" fill="rgb(0,255,0)"/><circle cx="216.66666666666666" cy="53.97547651769929" r="2" fill="rgb(0,255,0)"/><circle cx="221.7171717171717" cy="53.93578732374476" r="2" fill="rgb(0,255,0)"/><circle cx="226.76767676767676" cy="53.95836938518369" r="2" fill="rgb(0,255,0)"/><circle cx="231.8181818181818" cy="53.988551193648505" r="2" fill="rgb(0,255,0)"/><circle cx="236.86868686868686" cy="53.97547651769929" r="2" fill="rgb(0,255,0)"/><circle cx="241.91919191919192" cy="53.97547651769929" r="2" fill="rgb(0,255,0)"/><circle cx="246.96969696969697" cy="53.927571864335164" r="2" fill="rgb(0,255,0)"/><circle cx="252.02020202020202" cy="53.94139243234764" r="2" fill="rgb(0,255,0)"/><circle cx="257.07070707070704" cy="54.00362959784525" r="2" fill="rgb(0,255,0)"/><circle cx="262.1212121212121" cy="53.92651999067817" r="2" fill="rgb(0,255,0)"/><circle cx="267.1717171717172" cy="53.968067495778655" r="2" fill="rgb(0,255,0)"/><circle cx="272.2222222222222" cy="53.93578732374476" r="2" fill="rgb(0,255,0)"/><circle cx="277.27272727272725" cy="53.94139243234764" r="2" fill="rgb(0,255,0)"/><circle cx="282.32323232323233" cy="53.94139243234764" r="2" fill="rgb(0,255,0)"/><circle cx="287.3737373737374" cy="53.94139243234764" r="2" fill="rgb(0,255,0)"/><circle cx="292.42424242424244" cy="53.932555482653925" r="2" fill="rgb(0,255,0)"/><circle cx="297.47474747474746" cy="53.932555482653925" r="2" fill="rgb(0,255,0)"/><circle cx="302.52525252525254" cy="53.89940171486461" r="2" fill="rgb(0,255,0)"/><circle cx="307.57575757575756" cy="53.89940171486461" r="2" fill="rgb(0,255,0)"/><circle cx="312.62626262626264" cy="53.89940171486461" r="2" fill="rgb(0,255,0)"/><circle cx="317.67676767676767" cy="53.877494944671014" r="2" fill="rgb(0,255,0)"/><circle cx="322.7272727272727" cy="53.877494944671014" r="2" fill="rgb(0,255,0)"/><circle cx="327.77777777777777" cy="53.89940171486461" r="2" fill="rgb(0,255,0)"/><circle cx="332.8282828282828" cy="50.257628403988065" r="2" fill="rgb(0,255,0)"/><circle cx="337.8787878787879" cy="50.36635153512481" r="2" fill="rgb(0,255,0)"/><circle cx="342.92929292929296" cy="50.60417244807127" r="2" fill="rgb(0,255,0)"/><circle cx="347.979797979798" cy="50.34602379994186" r="2" fill="rgb(0,255,0)"/><circle cx="353.03030303030306" cy="50.19463547621564" r="2" fill="rgb(0,255,0)"/><circle cx="358.0808080808081" cy="50.254405872004384" r="2" fill="rgb(0,255,0)"/><circle cx="363.13131313131316" cy="50.12827121883015" r="2" fill="rgb(0,255,0)"/><circle cx="368.1818181818182" cy="50.19463547621564" r="2" fill="rgb(0,255,0)"/><circle cx="373.23232323232327" cy="50.12827121883015" r="2" fill="rgb(0,255,0)"/><circle cx="378.2828282828283" cy="50.12827121883015" r="2" fill="rgb(0,255,0)"/><circle cx="383.3333333333333" cy="50.127878269758185" r="2" fill="rgb(0,255,0)"/><circle cx="388.3838383838384" cy="50.12827121883015" r="2" fill="rgb(0,255,0)"/><circle cx="393.4343434343434" cy="50.12827121883015" r="2" fill="rgb(0,255,0)"/><circle cx="398.4848484848485" cy="50.12827121883015" r="2" fill="rgb(0,255,0)"/><circle cx="403.5353535353535" cy="50.076418338489475" r="2" fill="rgb(0,255,0)"/><circle cx="408.58585858585855" cy="50.076418338489475" r="2" fill="rgb(0,255,0)"/><circle cx="413.6363636363636" cy="50.12827121883015" r="2" fill="rgb(0,255,0)"/><circle cx="418.68686868686865" cy="50.11161454970471" r="2" fill="rgb(0,255,0)"/><circle cx="423.73737373737373" cy="50.0" r="2" fill="rgb(0,255,0)"/><circle cx="428.7878787878788" cy="50.08302092651087" r="2" fill="rgb(0,255,0)"/><circle cx="433.83838383838383" cy="50.12827121883015" r="2" fill="rgb(0,255,0)"/><circle cx="438.8888888888889" cy="50.13010423155606" r="2" fill="rgb(0,255,0)"/><circle cx="443.93939393939394" cy="50.05001858555653" r="2" fill="rgb(0,255,0)"/><circle cx="448.989898989899" cy="50.04962563648456" r="2" fill="rgb(0,255,0)"/><circle cx="454.04040404040404" cy="50.08348702401315" r="2" fill="rgb(0,255,0)"/><circle cx="459.0909090909091" cy="50.083879973085175" r="2" fill="rgb(0,255,0)"/><circle cx="464.14141414141415" cy="50.068761787434994" r="2" fill="rgb(0,255,0)"/><circle cx="469.19191919191917" cy="50.11315303317997" r="2" fill="rgb(0,255,0)"/><circle cx="474.24242424242425" cy="50.11354598225199" r="2" fill="rgb(0,255,0)"/><circle cx="479.2929292929293" cy="50.083879973085175" r="2" fill="rgb(0,255,0)"/><circle cx="484.34343434343435" cy="50.11354598225199" r="2" fill="rgb(0,255,0)"/><circle cx="489.3939393939394" cy="50.042883422344914" r="2" fill="rgb(0,255,0)"/><circle cx="494.4444444444444" cy="50.11354598225199" r="2" fill="rgb(0,255,0)"/><circle cx="499.4949494949495" cy="50.11354598225199" r="2" fill="rgb(0,255,0)"/><circle cx="504.5454545454545" cy="50.03998767872008" r="2" fill="rgb(0,255,0)"/><circle cx="509.59595959595964" cy="50.11315303317997" r="2" fill="rgb(0,255,0)"/><circle cx="514.6464646464647" cy="50.03998767872008" r="2" fill="rgb(0,255,0)"/><circle cx="519.6969696969697" cy="50.03998767872008" r="2" fill="rgb(0,255,0)"/><circle cx="524.7474747474748" cy="50.03998767872008" r="2" fill="rgb(0,255,0)"/><circle cx="529.7979797979798" cy="50.03998767872008" r="2" fill="rgb(0,255,0)"/><circle cx="534.8484848484849" cy="50.083879973085175" r="2" fill="rgb(0,255,0)"/><circle cx="539.8989898989898" cy="50.03998767872008" r="2" fill="rgb(0,255,0)"/><circle cx="544.9494949494949" cy="50.0595796715528" r="2" fill="rgb(0,255,0)"/><circle cx="550.0" cy="50.07191763370139" r="2" fill="rgb(0,255,0)"/><text x="350.0" y="20.0" text-anchor="middle" fill="rgb(0,0,0)" font-size="20.0">GA Demo</text><text x="350.0" y="575.0" text-anchor="middle" fill="rgb(0,0,0)" font-size="12.0">generation</text><text transform="rotate(-90.0 20.0 300.0)" x="20.0" y="300.0" text-anchor="middle" fill="rgb(0,0,0)" font-size="12.0">fitness</text><text x="620" y="62" fill="rgb(0,0,0)" font-size="12">min</text><text x="620" y="74" fill="rgb(0,0,255)" font-size="12">ave</text><text x="620" y="86" fill="rgb(0,255,0)" font-size="12">max</text>
      Sorry, your browser does not support inline SVG.
    </svg>