<?xml version='1.0' encoding='UTF-8'?>
<svg version="1.1" width="700.0" height="600.0" onload="init(evt)" xmlns="http://www.w3.org/2000/svg">
      <style>.caption {
  font-size: 14px;
  font-family: Georgia, serif;
}
</style>
      <script type="text/ecmascript"><![CDATA[
function init(evt) {
  if ( window.svgDocument == null ) {
    svgDocument = evt.target.ownerDocument;
  }
}

function RectHover(evt, i, c) {
  rect = svgDocument.getElementById('rect' + i);
  if( c != null ) {
    rect.setAttributeNS(null, "fill", c)  
  }
  tooltiptext = svgDocument.getElementById('tooltiptext' + i);
  tooltipbg = svgDocument.getElementById('tooltipbg' + i);
  if( tooltipbg != null) {
    tbb = tooltiptext.getBBox();
    tooltipbg.setAttributeNS(null, "width", tbb.width);
    tooltipbg.setAttributeNS(null, "height", tbb.height);
    tooltipbg.setAttributeNS(null, "x", tbb.x);
    tooltipbg.setAttributeNS(null, "y", tbb.y);
    tooltipbg.setAttributeNS(null, "visibility", "visible");
  }
  tooltiptext.setAttributeNS(null,"visibility","visible");
}

function RectUnhover(evt, i, c) {
  rect = svgDocument.getElementById('rect' + i);
  if( c != null ) {
    rect.setAttributeNS(null, "fill", c)  
  }
  tooltiptext = svgDocument.getElementById('tooltiptext' + i);
  tooltiptext.setAttributeNS(null,"visibility","hidden");
  tooltipbg = svgDocument.getElementById('tooltipbg' + i);
  if( tooltipbg != null ) {
    tooltipbg.setAttributeNS(null,"visibility","hidden");
  }
}
]]></script>
      <line x1="50.0" y1="550.0" x2="550.0" y2="550.0" stroke="rgb(0,0,0)" stroke-width="1"/><line x1="50.0" y1="550.0" x2="50.0" y2="50.0" stroke="rgb(0,0,0)" stroke-width="1"/><line x1="50.0" y1="550.0" x2="50.0" y2="50.0" stroke="rgb(192,192,192)" stroke-width="1"/><line x1="50.0" y1="548.0" x2="50.0" y2="552.0" stroke="rgb(192,192,192)" stroke-width="1"/><text text-anchor="middle" alignment-baseline="hanging" x="50.0" y="553.0" font-size="12.0">0</text><line x1="100.5050505050505" y1="550.0" x2="100.5050505050505" y2="50.0" stroke="rgb(192,192,192)" stroke-width="1"/><line x1="100.5050505050505" y1="548.0" x2="100.5050505050505" y2="552.0" stroke="rgb(192,192,192)" stroke-width="1"/><text text-anchor="middle" alignment-baseline="hanging" x="100.5050505050505" y="553.0" font-size="12.0">10</text><line x1="151.010101010101" y1="550.0" x2="151.010101010101" y2="50.0" stroke="rgb(192,192,192)" stroke-width="1"/><line x1="151.010101010101" y1="548.0" x2="151.010101010101" y2="552.0" stroke="rgb(192,192,192)" stroke-width="1"/><text text-anchor="middle" alignment-baseline="hanging" x="151.010101010101" y="553.0" font-size="12.0">20</text><line x1="201.51515151515153" y1="550.0" x2="201.51515151515153" y2="50.0" stroke="rgb(192,192,192)" stroke-width="1"/><line x1="201.51515151515153" y1="548.0" x2="201.51515151515153" y2="552.0" stroke="rgb(192,192,192)" stroke-width="1"/><text text-anchor="middle" alignment-baseline="hanging" x="201.51515151515153" y="553.0" font-size="12.0">30</text><line x1="252.02020202020202" y1="550.0" x2="252.02020202020202" y2="50.0" stroke="rgb(192,192,192)" stroke-width="1"/><line x1="252.02020202020202" y1="548.0" x2="252.02020202020202" y2="552.0" stroke="rgb(192,192,192)" stroke-width="1"/><text text-anchor="middle" alignment-baseline="hanging" x="252.02020202020202" y="553.0" font-size="12.0">40</text><line x1="302.52525252525254" y1="550.0" x2="302.52525252525254" y2="50.0" stroke="rgb(192,192,192)" stroke-width="1"/><line x1="302.52525252525254" y1="548.0" x2="302.52525252525254" y2="552.0" stroke="rgb(192,192,192)" stroke-width="1"/><text text-anchor="middle" alignment-baseline="hanging" x="302.52525252525254" y="553.0" font-size="12.0">50</text><line x1="353.03030303030306" y1="550.0" x2="353.03030303030306" y2="50.0" stroke="rgb(192,192,192)" stroke-width="1"/><line x1="353.03030303030306" y1="548.0" x2="353.03030303030306" y2="552.0" stroke="rgb(192,192,192)" stroke-width="1"/><text text-anchor="middle" alignment-baseline="hanging" x="353.03030303030306" y="553.0" font-size="12.0">60</text><line x1="403.5353535353535" y1="550.0" x2="403.5353535353535" y2="50.0" stroke="rgb(192,192,192)" stroke-width="1"/><line x1="403.5353535353535" y1="548.0" x2="403.5353535353535" y2="552.0" stroke="rgb(192,192,192)" stroke-width="1"/><text text-anchor="middle" alignment-baseline="hanging" x="403.5353535353535" y="553.0" font-size="12.0">70</text><line x1="454.04040404040404" y1="550.0" x2="454.04040404040404" y2="50.0" stroke="rgb(192,192,192)" stroke-width="1"/><line x1="454.04040404040404" y1="548.0" x2="454.04040404040404" y2="552.0" stroke="rgb(192,192,192)" stroke-width="1"/><text text-anchor="middle" alignment-baseline="hanging" x="454.04040404040404" y="553.0" font-size="12.0">80</text><line x1="504.5454545454545" y1="550.0" x2="504.5454545454545" y2="50.0" stroke="rgb(192,192,192)" stroke-width="1"/><line x1="504.5454545454545" y1="548.0" x2="504.5454545454545" y2="552.0" stroke="rgb(192,192,192)" stroke-width="1"/><text text-anchor="middle" alignment-baseline="hanging" x="504.5454545454545" y="553.0" font-size="12.0">90</text><line x1="50.0" y1="550.0" x2="550.0" y2="550.0" stroke="rgb(192,192,192)" stroke-width="1"/><text text-anchor="end" alignment-baseline="middle" x="45.0" y="550.0" font-size="12.0">0.0</text><line x1="48.0" y1="550.0" x2="52.0" y2="550.0" stroke="rgb(192,192,192)" stroke-width="1"/><line x1="50.0" y1="367.87160601545804" x2="550.0" y2="367.87160601545804" stroke="rgb(192,192,192)" stroke-width="1"/><text text-anchor="end" alignment-baseline="middle" x="45.0" y="367.87160601545804" font-size="12.0">1000.0</text><line x1="48.0" y1="367.87160601545804" x2="52.0" y2="367.87160601545804" stroke="rgb(192,192,192)" stroke-width="1"/><line x1="50.0" y1="185.74321203091608" x2="550.0" y2="185.74321203091608" stroke="rgb(192,192,192)" stroke-width="1"/><text text-anchor="end" alignment-baseline="middle" x="45.0" y="185.74321203091608" font-size="12.0">2000.0</text><line x1="48.0" y1="185.74321203091608" x2="52.0" y2="185.74321203091608" stroke="rgb(192,192,192)" stroke-width="1"/><polyline points="50.0,428.5508295522518 55.05050505050505,430.0642476673598 60.101010101010104,429.92441128884786 65.15151515151516,411.75423834442705 70.20202020202021,410.66941514692144 75.25252525252526,371.50278194156766 80.30303030303031,210.657458792942 85.35353535353535,417.50488459597517 90.40404040404042,415.76204115978726 95.45454545454545,267.7676228620129 100.5050505050505,386.9023303144055 105.55555555555554,346.2900842248242 110.60606060606061,314.96043698856545 115.65656565656566,345.7691065767825 120.7070707070707,210.33087202888981 125.75757575757576,412.28596420793605 130.80808080808083,412.8943135687166 135.85858585858585,412.104285823841 140.9090909090909,411.8223325976735 145.95959595959596,399.54141827943226 151.010101010101,348.9750762647683 156.06060606060606,413.7472541907134 161.1111111111111,391.2152801154202 166.16161616161617,350.7965925730622 171.21212121212122,350.79596889491165 176.26262626262627,270.03030580468436 181.31313131313132,405.0977829147264 186.36363636363635,404.5698590546579 191.4141414141414,387.1570157944989 196.46464646464648,316.05614653705686 201.51515151515153,411.6113827881187 206.56565656565658,411.5871133790731 211.61616161616163,410.56913504981696 216.66666666666666,411.1177306593553 221.7171717171717,273.77702575074414 226.76767676767676,182.74835235008732 231.8181818181818,334.99591525884387 236.86868686868686,341.8714092696646 241.91919191919192,397.4923079750656 246.96969696969697,305.1746203293864 252.02020202020202,316.0529167445842 257.07070707070704,398.02855285356173 262.1212121212121,398.3190783405321 267.1717171717172,409.53255993575624 272.2222222222222,410.50777697220224 277.27272727272725,408.05869515107736 282.32323232323233,344.23687199975825 287.3737373737374,280.3113367901434 292.42424242424244,353.80675184901304 297.47474747474746,400.0648665548204 302.52525252525254,359.94367389931665 307.57575757575756,362.56661873848225 312.62626262626264,340.54457744407443 317.67676767676767,382.287403169649 322.7272727272727,414.12904311483675 327.77777777777777,360.33966112047256 332.8282828282828,378.1702474409924 337.8787878787879,376.4551447041083 342.92929292929296,346.6825803746716 347.979797979798,265.8961250307536 353.03030303030306,267.13400894895244 358.0808080808081,379.14404326998397 363.13131313131316,72.58511846597372 368.1818181818182,386.74027896716996 373.23232323232327,387.0953175349428 378.2828282828283,382.5638217709359 383.3333333333333,266.01420336702756 388.3838383838384,265.7558097556786 393.4343434343434,265.3130890566823 398.4848484848485,284.6830497054497 403.5353535353535,408.93490965303255 408.58585858585855,249.66690275307963 413.6363636363636,249.7092872686452 418.68686868686865,275.23249212811595 423.73737373737373,109.35747198098676 428.7878787878788,107.43785177132389 433.83838383838383,197.1417831370697 438.8888888888889,350.6723527223394 443.93939393939394,378.6822704400513 448.989898989899,402.33716055019215 454.04040404040404,403.20556741146885 459.0909090909091,403.20556741146885 464.14141414141415,292.8747633393092 469.19191919191917,292.6450297334603 474.24242424242425,395.96785149913524 479.2929292929293,395.9435820900897 484.34343434343435,411.305719484459 489.3939393939394,414.19183915729786 494.4444444444444,413.7269639762469 499.4949494949495,396.27505507570663 504.5454545454545,374.1798046945412 509.59595959595964,330.2681019793788 514.6464646464647,329.98871111453906 519.6969696969697,175.60289403866557 524.7474747474748,352.1315828429018 529.7979797979798,229.15149794134976 534.8484848484849,229.12722853230423 539.8989898989898,325.48464053733585 544.9494949494949,324.2657094170306 550.0,321.79263316709796" fill="none" stroke="rgb(0,0,0)" stroke-width="1"/><circle cx="50.0" cy="428.5508295522518" r="2" fill="rgb(0,0,0)"/><circle cx="55.05050505050505" cy="430.0642476673598" r="2" fill="rgb(0,0,0)"/><circle cx="60.101010101010104" cy="429.92441128884786" r="2" fill="rgb(0,0,0)"/><circle cx="65.15151515151516" cy="411.75423834442705" r="2" fill="rgb(0,0,0)"/><circle cx="70.20202020202021" cy="410.66941514692144" r="2" fill="rgb(0,0,0)"/><circle cx="75.25252525252526" cy="371.50278194156766" r="2" fill="rgb(0,0,0)"/><circle cx="80.30303030303031" cy="210.657458792942" r="2" fill="rgb(0,0,0)"/><circle cx="85.35353535353535" cy="417.50488459597517" r="2" fill="rgb(0,0,0)"/><circle cx="90.40404040404042" cy="415.76204115978726" r="2" fill="rgb(0,0,0)"/><circle cx="95.45454545454545" cy="267.7676228620129" r="2" fill="rgb(0,0,0)"/><circle cx="100.5050505050505" cy="386.9023303144055" r="2" fill="rgb(0,0,0)"/><circle cx="105.55555555555554" cy="346.2900842248242" r="2" fill="rgb(0,0,0)"/><circle cx="110.60606060606061" cy="314.96043698856545" r="2" fill="rgb(0,0,0)"/><circle cx="115.65656565656566" cy="345.7691065767825" r="2" fill="rgb(0,0,0)"/><circle cx="120.7070707070707" cy="210.33087202888981" r="2" fill="rgb(0,0,0)"/><circle cx="125.75757575757576" cy="412.28596420793605" r="2" fill="rgb(0,0,0)"/><circle cx="130.80808080808083" cy="412.8943135687166" r="2" fill="rgb(0,0,0)"/><circle cx="135.85858585858585" cy="412.104285823841" r="2" fill="rgb(0,0,0)"/><circle cx="140.9090909090909" cy="411.8223325976735" r="2" fill="rgb(0,0,0)"/><circle cx="145.95959595959596" cy="399.54141827943226" r="2" fill="rgb(0,0,0)"/><circle cx="151.010101010101" cy="348.9750762647683" r="2" fill="rgb(0,0,0)"/><circle cx="156.06060606060606" cy="413.7472541907134" r="2" fill="rgb(0,0,0)"/><circle cx="161.1111111111111" cy="391.2152801154202" r="2" fill="rgb(0,0,0)"/><circle cx="166.16161616161617" cy="350.7965925730622" r="2" fill="rgb(0,0,0)"/><circle cx="171.21212121212122" cy="350.79596889491165" r="2" fill="rgb(0,0,0)"/><circle cx="176.26262626262627" cy="270.03030580468436" r="2" fill="rgb(0,0,0)"/><circle cx="181.31313131313132" cy="405.0977829147264" r="2" fill="rgb(0,0,0)"/><circle cx="186.36363636363635" cy="404.5698590546579" r="2" fill="rgb(0,0,0)"/><circle cx="191.4141414141414" cy="387.1570157944989" r="2" fill="rgb(0,0,0)"/><circle cx="196.46464646464648" cy="316.05614653705686" r="2" fill="rgb(0,0,0)"/><circle cx="201.51515151515153" cy="411.6113827881187" r="2" fill="rgb(0,0,0)"/><circle cx="206.56565656565658" cy="411.5871133790731" r="2" fill="rgb(0,0,0)"/><circle cx="211.61616161616163" cy="410.56913504981696" r="2" fill="rgb(0,0,0)"/><circle cx="216.66666666666666" cy="411.1177306593553" r="2" fill="rgb(0,0,0)"/><circle cx="221.7171717171717" cy="273.77702575074414" r="2" fill="rgb(0,0,0)"/><circle cx="226.76767676767676" cy="182.74835235008732" r="2" fill="rgb(0,0,0)"/><circle cx="231.8181818181818" cy="334.99591525884387" r="2" fill="rgb(0,0,0)"/><circle cx="236.86868686868686" cy="341.8714092696646" r="2" fill="rgb(0,0,0)"/><circle cx="241.91919191919192" cy="397.4923079750656" r="2" fill="rgb(0,0,0)"/><circle cx="246.96969696969697" cy="305.1746203293864" r="2" fill="rgb(0,0,0)"/><circle cx="252.02020202020202" cy="316.0529167445842" r="2" fill="rgb(0,0,0)"/><circle cx="257.07070707070704" cy="398.02855285356173" r="2" fill="rgb(0,0,0)"/><circle cx="262.1212121212121" cy="398.3190783405321" r="2" fill="rgb(0,0,0)"/><circle cx="267.1717171717172" cy="409.53255993575624" r="2" fill="rgb(0,0,0)"/><circle cx="272.2222222222222" cy="410.50777697220224" r="2" fill="rgb(0,0,0)"/><circle cx="277.27272727272725" cy="408.05869515107736" r="2" fill="rgb(0,0,0)"/><circle cx="282.32323232323233" cy="344.23687199975825" r="2" fill="rgb(0,0,0)"/><circle cx="287.3737373737374" cy="280.3113367901434" r="2" fill="rgb(0,0,0)"/><circle cx="292.42424242424244" cy="353.80675184901304" r="2" fill="rgb(0,0,0)"/><circle cx="297.47474747474746" cy="400.0648665548204" r="2" fill="rgb(0,0,0)"/><circle cx="302.52525252525254" cy="359.94367389931665" r="2" fill="rgb(0,0,0)"/><circle cx="307.57575757575756" cy="362.56661873848225" r="2" fill="rgb(0,0,0)"/><circle cx="312.62626262626264" cy="340.54457744407443" r="2" fill="rgb(0,0,0)"/><circle cx="317.67676767676767" cy="382.287403169649" r="2" fill="rgb(0,0,0)"/><circle cx="322.7272727272727" cy="414.12904311483675" r="2" fill="rgb(0,0,0)"/><circle cx="327.77777777777777" cy="360.33966112047256" r="2" fill="rgb(0,0,0)"/><circle cx="332.8282828282828" cy="378.1702474409924" r="2" fill="rgb(0,0,0)"/><circle cx="337.8787878787879" cy="376.4551447041083" r="2" fill="rgb(0,0,0)"/><circle cx="342.92929292929296" cy="346.6825803746716" r="2" fill="rgb(0,0,0)"/><circle cx="347.979797979798" cy="265.8961250307536" r="2" fill="rgb(0,0,0)"/><circle cx="353.03030303030306" cy="267.13400894895244" r="2" fill="rgb(0,0,0)"/><circle cx="358.0808080808081" cy="379.14404326998397" r="2" fill="rgb(0,0,0)"/><circle cx="363.13131313131316" cy="72.58511846597372" r="2" fill="rgb(0,0,0)"/><circle cx="368.1818181818182" cy="386.74027896716996" r="2" fill="rgb(0,0,0)"/><circle cx="373.23232323232327" cy="387.0953175349428" r="2" fill="rgb(0,0,0)"/><circle cx="378.2828282828283" cy="382.5638217709359" r="2" fill="rgb(0,0,0)"/><circle cx="383.3333333333333" cy="266.01420336702756" r="2" fill="rgb(0,0,0)"/><circle cx="388.3838383838384" cy="265.7558097556786" r="2" fill="rgb(0,0,0)"/><circle cx="393.4343434343434" cy="265.3130890566823" r="2" fill="rgb(0,0,0)"/><circle cx="398.4848484848485" cy="284.6830497054497" r="2" fill="rgb(0,0,0)"/><circle cx="403.5353535353535" cy="408.93490965303255" r="2" fill="rgb(0,0,0)"/><circle cx="408.58585858585855" cy="249.66690275307963" r="2" fill="rgb(0,0,0)"/><circle cx="413.6363636363636" cy="249.7092872686452" r="2" fill="rgb(0,0,0)"/><circle cx="418.68686868686865" cy="275.23249212811595" r="2" fill="rgb(0,0,0)"/><circle cx="423.73737373737373" cy="109.35747198098676" r="2" fill="rgb(0,0,0)"/><circle cx="428.7878787878788" cy="107.43785177132389" r="2" fill="rgb(0,0,0)"/><circle cx="433.83838383838383" cy="197.1417831370697" r="2" fill="rgb(0,0,0)"/><circle cx="438.8888888888889" cy="350.6723527223394" r="2" fill="rgb(0,0,0)"/><circle cx="443.93939393939394" cy="378.6822704400513" r="2" fill="rgb(0,0,0)"/><circle cx="448.989898989899" cy="402.33716055019215" r="2" fill="rgb(0,0,0)"/><circle cx="454.04040404040404" cy="403.20556741146885" r="2" fill="rgb(0,0,0)"/><circle cx="459.0909090909091" cy="403.20556741146885" r="2" fill="rgb(0,0,0)"/><circle cx="464.14141414141415" cy="292.8747633393092" r="2" fill="rgb(0,0,0)"/><circle cx="469.19191919191917" cy="292.6450297334603" r="2" fill="rgb(0,0,0)"/><circle cx="474.24242424242425" cy="395.96785149913524" r="2" fill="rgb(0,0,0)"/><circle cx="479.2929292929293" cy="395.9435820900897" r="2" fill="rgb(0,0,0)"/><circle cx="484.34343434343435" cy="411.305719484459" r="2" fill="rgb(0,0,0)"/><circle cx="489.3939393939394" cy="414.19183915729786" r="2" fill="rgb(0,0,0)"/><circle cx="494.4444444444444" cy="413.7269639762469" r="2" fill="rgb(0,0,0)"/><circle cx="499.4949494949495" cy="396.27505507570663" r="2" fill="rgb(0,0,0)"/><circle cx="504.5454545454545" cy="374.1798046945412" r="2" fill="rgb(0,0,0)"/><circle cx="509.59595959595964" cy="330.2681019793788" r="2" fill="rgb(0,0,0)"/><circle cx="514.6464646464647" cy="329.98871111453906" r="2" fill="rgb(0,0,0)"/><circle cx="519.6969696969697" cy="175.60289403866557" r="2" fill="rgb(0,0,0)"/><circle cx="524.7474747474748" cy="352.1315828429018" r="2" fill="rgb(0,0,0)"/><circle cx="529.7979797979798" cy="229.15149794134976" r="2" fill="rgb(0,0,0)"/><circle cx="534.8484848484849" cy="229.12722853230423" r="2" fill="rgb(0,0,0)"/><circle cx="539.8989898989898" cy="325.48464053733585" r="2" fill="rgb(0,0,0)"/><circle cx="544.9494949494949" cy="324.2657094170306" r="2" fill="rgb(0,0,0)"/><circle cx="550.0" cy="321.79263316709796" r="2" fill="rgb(0,0,0)"/><polyline points="50.0,227.59912897966012 55.05050505050505,189.11146094343388 60.101010101010104,159.95287537135852 65.15151515151516,142.54765679206997 70.20202020202021,127.99652830296179 75.25252525252526,106.07980115559462 80.30303030303031,89.80807434977316 85.35353535353535,82.83183771674794 90.40404040404042,84.54768120954373 95.45454545454545,82.53881326227315 100.5050505050505,89.14951520952854 105.55555555555554,82.75155874590394 110.60606060606061,75.20170693051136 115.65656565656566,78.49617384708012 120.7070707070707,72.93661646489858 125.75757575757576,79.83378896206608 130.80808080808083,91.61397616627107 135.85858585858585,83.49680749826626 140.9090909090909,87.69860555094687 145.95959595959596,84.68789803522424 151.010101010101,76.46598103710085 156.06060606060606,77.48133771933237 161.1111111111111,76.87175779890731 166.16161616161617,79.11014183694363 171.21212121212122,76.53243375256244 176.26262626262627,66.14329408533251 181.31313131313132,74.21445633115809 186.36363636363635,80.86081859888878 191.4141414141414,75.66858455339388 196.46464646464648,68.32098224701406 201.51515151515153,75.83812591756464 206.56565656565658,77.71693712395813 211.61616161616163,69.90916249349777 216.66666666666666,69.22111585276082 221.7171717171717,57.755009614043445 226.76767676767676,55.77658979586357 231.8181818181818,61.84182891019202 236.86868686868686,64.95498104368187 241.91919191919192,68.31064111454839 246.96969696969697,72.60724546253965 252.02020202020202,60.53313332048282 257.07070707070704,70.01181374772722 262.1212121212121,79.53455263933375 267.1717171717172,79.47293022744185 272.2222222222222,67.14342366327355 277.27272727272725,63.46681142363974 282.32323232323233,65.66120167947184 287.3737373737374,60.341513147683145 292.42424242424244,67.585616423467 297.47474747474746,70.91652834261112 302.52525252525254,58.94326431439475 307.57575757575756,64.04480169529415 312.62626262626264,65.53620968069288 317.67676767676767,72.56986106080797 322.7272727272727,66.07109854107233 327.77777777777777,64.51713717085255 332.8282828282828,58.21614045263101 337.8787878787879,60.452147921777794 342.92929292929296,61.60934430746249 347.979797979798,61.69907057337707 353.03030303030306,60.49473827634114 358.0808080808081,57.618228970949815 363.13131313131316,53.84626629624199 368.1818181818182,64.34709035460725 373.23232323232327,64.19435981780731 378.2828282828283,68.19042605496367 383.3333333333333,61.120376880300626 388.3838383838384,63.16332636660445 393.4343434343434,59.335227652370406 398.4848484848485,59.258046700788555 403.5353535353535,64.55916365602883 408.58585858585855,65.97590683647098 413.6363636363636,61.911895966030215 418.68686868686865,59.49834160414207 423.73737373737373,53.89868747707027 428.7878787878788,54.04733998990139 433.83838383838383,58.10616060691666 438.8888888888889,60.714408328075024 443.93939393939394,64.57115811614398 448.989898989899,63.808710513512324 454.04040404040404,59.40605830060747 459.0909090909091,68.91360848127351 464.14141414141415,56.688643992270045 469.19191919191917,62.29668230592114 474.24242424242425,63.43740731797857 479.2929292929293,69.23892541700457 484.34343434343435,74.32976406068207 489.3939393939394,77.74270181077816 494.4444444444444,72.4840005095495 499.4949494949495,72.56653536902394 504.5454545454545,69.72445967975153 509.59595959595964,66.00238600178193 514.6464646464647,59.00373610733277 519.6969696969697,55.30806969389505 524.7474747474748,61.43476367883784 529.7979797979798,59.79374943232898 534.8484848484849,54.962294730005965 539.8989898989898,56.03529442321519 544.9494949494949,59.48473412145995 550.0,59.63940043637285" fill="none" stroke="rgb(0,0,255)" stroke-width="1"/><circle cx="50.0" cy="227.59912897966012" r="2" fill="rgb(0,0,255)"/><circle cx="55.05050505050505" cy="189.11146094343388" r="2" fill="rgb(0,0,255)"/><circle cx="60.101010101010104" cy="159.95287537135852" r="2" fill="rgb(0,0,255)"/><circle cx="65.15151515151516" cy="142.54765679206997" r="2" fill="rgb(0,0,255)"/><circle cx="70.20202020202021" cy="127.99652830296179" r="2" fill="rgb(0,0,255)"/><circle cx="75.25252525252526" cy="106.07980115559462" r="2" fill="rgb(0,0,255)"/><circle cx="80.30303030303031" cy="89.80807434977316" r="2" fill="rgb(0,0,255)"/><circle cx="85.35353535353535" cy="82.83183771674794" r="2" fill="rgb(0,0,255)"/><circle cx="90.40404040404042" cy="84.54768120954373" r="2" fill="rgb(0,0,255)"/><circle cx="95.45454545454545" cy="82.53881326227315" r="2" fill="rgb(0,0,255)"/><circle cx="100.5050505050505" cy="89.14951520952854" r="2" fill="rgb(0,0,255)"/><circle cx="105.55555555555554" cy="82.75155874590394" r="2" fill="rgb(0,0,255)"/><circle cx="110.60606060606061" cy="75.20170693051136" r="2" fill="rgb(0,0,255)"/><circle cx="115.65656565656566" cy="78.49617384708012" r="2" fill="rgb(0,0,255)"/><circle cx="120.7070707070707" cy="72.93661646489858" r="2" fill="rgb(0,0,255)"/><circle cx="125.75757575757576" cy="79.83378896206608" r="2" fill="rgb(0,0,255)"/><circle cx="130.80808080808083" cy="91.61397616627107" r="2" fill="rgb(0,0,255)"/><circle cx="135.85858585858585" cy="83.49680749826626" r="2" fill="rgb(0,0,255)"/><circle cx="140.9090909090909" cy="87.69860555094687" r="2" fill="rgb(0,0,255)"/><circle cx="145.95959595959596" cy="84.68789803522424" r="2" fill="rgb(0,0,255)"/><circle cx="151.010101010101" cy="76.46598103710085" r="2" fill="rgb(0,0,255)"/><circle cx="156.06060606060606" cy="77.48133771933237" r="2" fill="rgb(0,0,255)"/><circle cx="161.1111111111111" cy="76.87175779890731" r="2" fill="rgb(0,0,255)"/><circle cx="166.16161616161617" cy="79.11014183694363" r="2" fill="rgb(0,0,255)"/><circle cx="171.21212121212122" cy="76.53243375256244" r="2" fill="rgb(0,0,255)"/><circle cx="176.26262626262627" cy="66.14329408533251" r="2" fill="rgb(0,0,255)"/><circle cx="181.31313131313132" cy="74.21445633115809" r="2" fill="rgb(0,0,255)"/><circle cx="186.36363636363635" cy="80.86081859888878" r="2" fill="rgb(0,0,255)"/><circle cx="191.4141414141414" cy="75.66858455339388" r="2" fill="rgb(0,0,255)"/><circle cx="196.46464646464648" cy="68.32098224701406" r="2" fill="rgb(0,0,255)"/><circle cx="201.51515151515153" cy="75.83812591756464" r="2" fill="rgb(0,0,255)"/><circle cx="206.56565656565658" cy="77.71693712395813" r="2" fill="rgb(0,0,255)"/><circle cx="211.61616161616163" cy="69.90916249349777" r="2" fill="rgb(0,0,255)"/><circle cx="216.66666666666666" cy="69.22111585276082" r="2" fill="rgb(0,0,255)"/><circle cx="221.7171717171717" cy="57.755009614043445" r="2" fill="rgb(0,0,255)"/><circle cx="226.76767676767676" cy="55.77658979586357" r="2" fill="rgb(0,0,255)"/><circle cx="231.8181818181818" cy="61.84182891019202" r="2" fill="rgb(0,0,255)"/><circle cx="236.86868686868686" cy="64.95498104368187" r="2" fill="rgb(0,0,255)"/><circle cx="241.91919191919192" cy="68.31064111454839" r="2" fill="rgb(0,0,255)"/><circle cx="246.96969696969697" cy="72.60724546253965" r="2" fill="rgb(0,0,255)"/><circle cx="252.02020202020202" cy="60.53313332048282" r="2" fill="rgb(0,0,255)"/><circle cx="257.07070707070704" cy="70.01181374772722" r="2" fill="rgb(0,0,255)"/><circle cx="262.1212121212121" cy="79.53455263933375" r="2" fill="rgb(0,0,255)"/><circle cx="267.1717171717172" cy="79.47293022744185" r="2" fill="rgb(0,0,255)"/><circle cx="272.2222222222222" cy="67.14342366327355" r="2" fill="rgb(0,0,255)"/><circle cx="277.27272727272725" cy="63.46681142363974" r="2" fill="rgb(0,0,255)"/><circle cx="282.32323232323233" cy="65.66120167947184" r="2" fill="rgb(0,0,255)"/><circle cx="287.3737373737374" cy="60.341513147683145" r="2" fill="rgb(0,0,255)"/><circle cx="292.42424242424244" cy="67.585616423467" r="2" fill="rgb(0,0,255)"/><circle cx="297.47474747474746" cy="70.91652834261112" r="2" fill="rgb(0,0,255)"/><circle cx="302.52525252525254" cy="58.94326431439475" r="2" fill="rgb(0,0,255)"/><circle cx="307.57575757575756" cy="64.04480169529415" r="2" fill="rgb(0,0,255)"/><circle cx="312.62626262626264" cy="65.53620968069288" r="2" fill="rgb(0,0,255)"/><circle cx="317.67676767676767" cy="72.56986106080797" r="2" fill="rgb(0,0,255)"/><circle cx="322.7272727272727" cy="66.07109854107233" r="2" fill="rgb(0,0,255)"/><circle cx="327.77777777777777" cy="64.51713717085255" r="2" fill="rgb(0,0,255)"/><circle cx="332.8282828282828" cy="58.21614045263101" r="2" fill="rgb(0,0,255)"/><circle cx="337.8787878787879" cy="60.452147921777794" r="2" fill="rgb(0,0,255)"/><circle cx="342.92929292929296" cy="61.60934430746249" r="2" fill="rgb(0,0,255)"/><circle cx="347.979797979798" cy="61.69907057337707" r="2" fill="rgb(0,0,255)"/><circle cx="353.03030303030306" cy="60.49473827634114" r="2" fill="rgb(0,0,255)"/><circle cx="358.0808080808081" cy="57.618228970949815" r="2" fill="rgb(0,0,255)"/><circle cx="363.13131313131316" cy="53.84626629624199" r="2" fill="rgb(0,0,255)"/><circle cx="368.1818181818182" cy="64.34709035460725" r="2" fill="rgb(0,0,255)"/><circle cx="373.23232323232327" cy="64.19435981780731" r="2" fill="rgb(0,0,255)"/><circle cx="378.2828282828283" cy="68.19042605496367" r="2" fill="rgb(0,0,255)"/><circle cx="383.3333333333333" cy="61.120376880300626" r="2" fill="rgb(0,0,255)"/><circle cx="388.3838383838384" cy="63.16332636660445" r="2" fill="rgb(0,0,255)"/><circle cx="393.4343434343434" cy="59.335227652370406" r="2" fill="rgb(0,0,255)"/><circle cx="398.4848484848485" cy="59.258046700788555" r="2" fill="rgb(0,0,255)"/><circle cx="403.5353535353535" cy="64.55916365602883" r="2" fill="rgb(0,0,255)"/><circle cx="408.58585858585855" cy="65.97590683647098" r="2" fill="rgb(0,0,255)"/><circle cx="413.6363636363636" cy="61.911895966030215" r="2" fill="rgb(0,0,255)"/><circle cx="418.68686868686865" cy="59.49834160414207" r="2" fill="rgb(0,0,255)"/><circle cx="423.73737373737373" cy="53.89868747707027" r="2" fill="rgb(0,0,255)"/><circle cx="428.7878787878788" cy="54.04733998990139" r="2" fill="rgb(0,0,255)"/><circle cx="433.83838383838383" cy="58.10616060691666" r="2" fill="rgb(0,0,255)"/><circle cx="438.8888888888889" cy="60.714408328075024" r="2" fill="rgb(0,0,255)"/><circle cx="443.93939393939394" cy="64.57115811614398" r="2" fill="rgb(0,0,255)"/><circle cx="448.989898989899" cy="63.808710513512324" r="2" fill="rgb(0,0,255)"/><circle cx="454.04040404040404" cy="59.40605830060747" r="2" fill="rgb(0,0,255)"/><circle cx="459.0909090909091" cy="68.91360848127351" r="2" fill="rgb(0,0,255)"/><circle cx="464.14141414141415" cy="56.688643992270045" r="2" fill="rgb(0,0,255)"/><circle cx="469.19191919191917" cy="62.29668230592114" r="2" fill="rgb(0,0,255)"/><circle cx="474.24242424242425" cy="63.43740731797857" r="2" fill="rgb(0,0,255)"/><circle cx="479.2929292929293" cy="69.23892541700457" r="2" fill="rgb(0,0,255)"/><circle cx="484.34343434343435" cy="74.32976406068207" r="2" fill="rgb(0,0,255)"/><circle cx="489.3939393939394" cy="77.74270181077816" r="2" fill="rgb(0,0,255)"/><circle cx="494.4444444444444" cy="72.4840005095495" r="2" fill="rgb(0,0,255)"/><circle cx="499.4949494949495" cy="72.56653536902394" r="2" fill="rgb(0,0,255)"/><circle cx="504.5454545454545" cy="69.72445967975153" r="2" fill="rgb(0,0,255)"/><circle cx="509.59595959595964" cy="66.00238600178193" r="2" fill="rgb(0,0,255)"/><circle cx="514.6464646464647" cy="59.00373610733277" r="2" fill="rgb(0,0,255)"/><circle cx="519.6969696969697" cy="55.30806969389505" r="2" fill="rgb(0,0,255)"/><circle cx="524.7474747474748" cy="61.43476367883784" r="2" fill="rgb(0,0,255)"/><circle cx="529.7979797979798" cy="59.79374943232898" r="2" fill="rgb(0,0,255)"/><circle cx="534.8484848484849" cy="54.962294730005965" r="2" fill="rgb(0,0,255)"/><circle cx="539.8989898989898" cy="56.03529442321519" r="2" fill="rgb(0,0,255)"/><circle cx="544.9494949494949" cy="59.48473412145995" r="2" fill="rgb(0,0,255)"/><circle cx="550.0" cy="59.63940043637285" r="2" fill="rgb(0,0,255)"/><polyline points="50.0,70.05082397424638 55.05050505050505,68.07847255317284 60.101010101010104,66.76415155925923 65.15151515151516,68.35467283871185 70.20202020202021,66.96916073007782 75.25252525252526,55.40266050339869 80.30303030303031,67.1548144745505 85.35353535353535,65.75759295808103 90.40404040404042,65.42585760955683 95.45454545454545,58.90692292182149 100.5050505050505,58.720666821427756 105.55555555555554,58.91353886994659 110.60606060606061,58.903490983281415 115.65656565656566,53.019501650668246 120.7070707070707,65.46150344249742 125.75757575757576,65.62539207237984 130.80808080808083,55.8877815091339 135.85858585858585,55.34795381609473 140.9090909090909,54.56731781584671 145.95959595959596,54.56731781584671 151.010101010101,53.77526867026802 156.06060606060606,53.849590608491894 161.1111111111111,53.44952452716302 166.16161616161617,52.39730460473197 171.21212121212122,52.98171062328481 176.26262626262627,52.560930499646076 181.31313131313132,52.516845324861606 186.36363636363635,53.01484523908914 191.4141414141414,52.289767161478096 196.46464646464648,52.341261685790926 201.51515151515153,52.421574013777445 206.56565656565658,52.33790211510734 211.61616161616163,52.297176511006455 216.66666666666666,52.36866559057495 221.7171717171717,52.19368884659741 226.76767676767676,52.165049832440445 231.8181818181818,52.165049832440445 236.86868686868686,52.19368884659741 241.91919191919192,52.165049832440445 246.96969696969697,52.23340441627039 252.02020202020202,52.15139644248768 257.07070707070704,52.23061469785125 262.1212121212121,52.189319241485975 267.1717171717172,52.165049832440445 272.2222222222222,52.26517792616585 277.27272727272725,52.20913500722486 282.32323232323233,52.165049832440445 287.3737373737374,52.165049832440445 292.42424242424244,52.189319241485975 297.47474747474746,52.189319241485975 302.52525252525254,52.165049832440445 307.57575757575756,52.16478279246542 312.62626262626264,52.189319241485975 317.67676767676767,52.189319241485975 322.7272727272727,52.189319241485975 327.77777777777777,52.189319241485975 332.8282828282828,52.189319241485975 337.8787878787879,52.165049832440445 342.92929292929296,52.165049832440445 347.979797979798,52.0908975207613 353.03030303030306,52.0959612552673 358.0808080808081,52.16481182616633 363.13131313131316,52.165049832440445 368.1818181818182,52.165049832440445 373.23232323232327,52.13046536311623 378.2828282828283,52.106195954070756 383.3333333333333,52.106195954070756 388.3838383838384,52.106195954070756 393.4343434343434,52.106195954070756 398.4848484848485,52.106195954070756 403.5353535353535,52.09482375388774 408.58585858585855,52.09482375388774 413.6363636363636,52.03596987551799 418.68686868686865,52.03596987551799 423.73737373737373,52.03596987551799 428.7878787878788,51.99590808098418 433.83838383838383,52.03596987551799 438.8888888888889,52.018056042318165 443.93939393939394,51.993786633272634 448.989898989899,51.993786633272634 454.04040404040404,52.03596987551799 459.0909090909091,51.900731757267465 464.14141414141415,51.900731757267465 469.19191919191917,52.03596987551799 474.24242424242425,51.900731757267465 479.2929292929293,51.89006099920687 484.34343434343435,52.03596987551799 489.3939393939394,52.02529911745739 494.4444444444444,52.02529911745739 499.4949494949495,52.03596987551799 504.5454545454545,50.0 509.59595959595964,52.03596987551799 514.6464646464647,52.03596987551799 519.6969696969697,52.03596987551799 524.7474747474748,52.02529911745739 529.7979797979798,52.02529911745739 534.8484848484849,52.03596987551799 539.8989898989898,52.03596987551799 544.9494949494949,52.03596987551799 550.0,52.03596987551799" fill="none" stroke="rgb(0,255,0)" stroke-width="1"/><circle cx="50.0" cy="70.05082397424638" r="2" fill="rgb(0,255,0)"/><circle cx="55.05050505050505" cy="68.07847255317284" r="2" fill="rgb(0,255,0)"/><circle cx="60.101010101010104" cy="66.76415155925923" r="2" fill="rgb(0,255,0)"/><circle cx="65.15151515151516" cy="68.35467283871185" r="2" fill="rgb(0,255,0)"/><circle cx="70.20202020202021" cy="66.96916073007782" r="2" fill="rgb(0,255,0)"/><circle cx="75.25252525252526" cy="55.40266050339869" r="2" fill="rgb(0,255,0)"/><circle cx="80.30303030303031" cy="67.1548144745505" r="2" fill="rgb(0,255,0)"/><circle cx="85.35353535353535" cy="65.75759295808103" r="2" fill="rgb(0,255,0)"/><circle cx="90.40404040404042" cy="65.42585760955683" r="2" fill="rgb(0,255,0)"/><circle cx="95.45454545454545" cy="58.90692292182149" r="2" fill="rgb(0,255,0)"/><circle cx="100.5050505050505" cy="58.720666821427756" r="2" fill="rgb(0,255,0)"/><circle cx="105.55555555555554" cy="58.91353886994659" r="2" fill="rgb(0,255,0)"/><circle cx="110.60606060606061" cy="58.903490983281415" r="2" fill="rgb(0,255,0)"/><circle cx="115.65656565656566" cy="53.019501650668246" r="2" fill="rgb(0,255,0)"/><circle cx="120.7070707070707" cy="65.46150344249742" r="2" fill="rgb(0,255,0)"/><circle cx="125.75757575757576" cy="65.62539207237984" r="2" fill="rgb(0,255,0)"/><circle cx="130.80808080808083" cy="55.8877815091339" r="2" fill="rgb(0,255,0)"/><circle cx="135.85858585858585" cy="55.34795381609473" r="2" fill="rgb(0,255,0)"/><circle cx="140.9090909090909" cy="54.56731781584671" r="2" fill="rgb(0,255,0)"/><circle cx="145.95959595959596" cy="54.56731781584671" r="2" fill="rgb(0,255,0)"/><circle cx="151.010101010101" cy="53.77526867026802" r="2" fill="rgb(0,255,0)"/><circle cx="156.06060606060606" cy="53.849590608491894" r="2" fill="rgb(0,255,0)"/><circle cx="161.1111111111111" cy="53.44952452716302" r="2" fill="rgb(0,255,0)"/><circle cx="166.16161616161617" cy="52.39730460473197" r="2" fill="rgb(0,255,0)"/><circle cx="171.21212121212122" cy="52.98171062328481" r="2" fill="rgb(0,255,0)"/><circle cx="176.26262626262627" cy="52.560930499646076" r="2" fill="rgb(0,255,0)"/><circle cx="181.31313131313132" cy="52.516845324861606" r="2" fill="rgb(0,255,0)"/><circle cx="186.36363636363635" cy="53.01484523908914" r="2" fill="rgb(0,255,0)"/><circle cx="191.4141414141414" cy="52.289767161478096" r="2" fill="rgb(0,255,0)"/><circle cx="196.46464646464648" cy="52.341261685790926" r="2" fill="rgb(0,255,0)"/><circle cx="201.51515151515153" cy="52.421574013777445" r="2" fill="rgb(0,255,0)"/><circle cx="206.56565656565658" cy="52.33790211510734" r="2" fill="rgb(0,255,0)"/><circle cx="211.61616161616163" cy="52.297176511006455" r="2" fill="rgb(0,255,0)"/><circle cx="216.66666666666666" cy="52.36866559057495" r="2" fill="rgb(0,255,0)"/><circle cx="221.7171717171717" cy="52.19368884659741" r="2" fill="rgb(0,255,0)"/><circle cx="226.76767676767676" cy="52.165049832440445" r="2" fill="rgb(0,255,0)"/><circle cx="231.8181818181818" cy="52.165049832440445" r="2" fill="rgb(0,255,0)"/><circle cx="236.86868686868686" cy="52.19368884659741" r="2" fill="rgb(0,255,0)"/><circle cx="241.91919191919192" cy="52.165049832440445" r="2" fill="rgb(0,255,0)"/><circle cx="246.96969696969697" cy="52.23340441627039" r="2" fill="rgb(0,255,0)"/><circle cx="252.02020202020202" cy="52.15139644248768" r="2" fill="rgb(0,255,0)"/><circle cx="257.07070707070704" cy="52.23061469785125" r="2" fill="rgb(0,255,0)"/><circle cx="262.1212121212121" cy="52.189319241485975" r="2" fill="rgb(0,255,0)"/><circle cx="267.1717171717172" cy="52.165049832440445" r="2" fill="rgb(0,255,0)"/><circle cx="272.2222222222222" cy="52.26517792616585" r="2" fill="rgb(0,255,0)"/><circle cx="277.27272727272725" cy="52.20913500722486" r="2" fill="rgb(0,255,0)"/><circle cx="282.32323232323233" cy="52.165049832440445" r="2" fill="rgb(0,255,0)"/><circle cx="287.3737373737374" cy="52.165049832440445" r="2" fill="rgb(0,255,0)"/><circle cx="292.42424242424244" cy="52.189319241485975" r="2" fill="rgb(0,255,0)"/><circle cx="297.47474747474746" cy="52.189319241485975" r="2" fill="rgb(0,255,0)"/><circle cx="302.52525252525254" cy="52.165049832440445" r="2" fill="rgb(0,255,0)"/><circle cx="307.57575757575756" cy="52.16478279246542" r="2" fill="rgb(0,255,0)"/><circle cx="312.62626262626264" cy="52.189319241485975" r="2" fill="rgb(0,255,0)"/><circle cx="317.67676767676767" cy="52.189319241485975" r="2" fill="rgb(0,255,0)"/><circle cx="322.7272727272727" cy="52.189319241485975" r="2" fill="rgb(0,255,0)"/><circle cx="327.77777777777777" cy="52.189319241485975" r="2" fill="rgb(0,255,0)"/><circle cx="332.8282828282828" cy="52.189319241485975" r="2" fill="rgb(0,255,0)"/><circle cx="337.8787878787879" cy="52.165049832440445" r="2" fill="rgb(0,255,0)"/><circle cx="342.92929292929296" cy="52.165049832440445" r="2" fill="rgb(0,255,0)"/><circle cx="347.979797979798" cy="52.0908975207613" r="2" fill="rgb(0,255,0)"/><circle cx="353.03030303030306" cy="52.0959612552673" r="2" fill="rgb(0,255,0)"/><circle cx="358.0808080808081" cy="52.16481182616633" r="2" fill="rgb(0,255,0)"/><circle cx="363.13131313131316" cy="52.165049832440445" r="2" fill="rgb(0,255,0)"/><circle cx="368.1818181818182" cy="52.165049832440445" r="2" fill="rgb(0,255,0)"/><circle cx="373.23232323232327" cy="52.13046536311623" r="2" fill="rgb(0,255,0)"/><circle cx="378.2828282828283" cy="52.106195954070756" r="2" fill="rgb(0,255,0)"/><circle cx="383.3333333333333" cy="52.106195954070756" r="2" fill="rgb(0,255,0)"/><circle cx="388.3838383838384" cy="52.106195954070756" r="2" fill="rgb(0,255,0)"/><circle cx="393.4343434343434" cy="52.106195954070756" r="2" fill="rgb(0,255,0)"/><circle cx="398.4848484848485" cy="52.106195954070756" r="2" fill="rgb(0,255,0)"/><circle cx="403.5353535353535" cy="52.09482375388774" r="2" fill="rgb(0,255,0)"/><circle cx="408.58585858585855" cy="52.09482375388774" r="2" fill="rgb(0,255,0)"/><circle cx="413.6363636363636" cy="52.03596987551799" r="2" fill="rgb(0,255,0)"/><circle cx="418.68686868686865" cy="52.03596987551799" r="2" fill="rgb(0,255,0)"/><circle cx="423.73737373737373" cy="52.03596987551799" r="2" fill="rgb(0,255,0)"/><circle cx="428.7878787878788" cy="51.99590808098418" r="2" fill="rgb(0,255,0)"/><circle cx="433.83838383838383" cy="52.03596987551799" r="2" fill="rgb(0,255,0)"/><circle cx="438.8888888888889" cy="52.018056042318165" r="2" fill="rgb(0,255,0)"/><circle cx="443.93939393939394" cy="51.993786633272634" r="2" fill="rgb(0,255,0)"/><circle cx="448.989898989899" cy="51.993786633272634" r="2" fill="rgb(0,255,0)"/><circle cx="454.04040404040404" cy="52.03596987551799" r="2" fill="rgb(0,255,0)"/><circle cx="459.0909090909091" cy="51.900731757267465" r="2" fill="rgb(0,255,0)"/><circle cx="464.14141414141415" cy="51.900731757267465" r="2" fill="rgb(0,255,0)"/><circle cx="469.19191919191917" cy="52.03596987551799" r="2" fill="rgb(0,255,0)"/><circle cx="474.24242424242425" cy="51.900731757267465" r="2" fill="rgb(0,255,0)"/><circle cx="479.2929292929293" cy="51.89006099920687" r="2" fill="rgb(0,255,0)"/><circle cx="484.34343434343435" cy="52.03596987551799" r="2" fill="rgb(0,255,0)"/><circle cx="489.3939393939394" cy="52.02529911745739" r="2" fill="rgb(0,255,0)"/><circle cx="494.4444444444444" cy="52.02529911745739" r="2" fill="rgb(0,255,0)"/><circle cx="499.4949494949495" cy="52.03596987551799" r="2" fill="rgb(0,255,0)"/><circle cx="504.5454545454545" cy="50.0" r="2" fill="rgb(0,255,0)"/><circle cx="509.59595959595964" cy="52.03596987551799" r="2" fill="rgb(0,255,0)"/><circle cx="514.6464646464647" cy="52.03596987551799" r="2" fill="rgb(0,255,0)"/><circle cx="519.6969696969697" cy="52.03596987551799" r="2" fill="rgb(0,255,0)"/><circle cx="524.7474747474748" cy="52.02529911745739" r="2" fill="rgb(0,255,0)"/><circle cx="529.7979797979798" cy="52.02529911745739" r="2" fill="rgb(0,255,0)"/><circle cx="534.8484848484849" cy="52.03596987551799" r="2" fill="rgb(0,255,0)"/><circle cx="539.8989898989898" cy="52.03596987551799" r="2" fill="rgb(0,255,0)"/><circle cx="544.9494949494949" cy="52.03596987551799" r="2" fill="rgb(0,255,0)"/><circle cx="550.0" cy="52.03596987551799" r="2" fill="rgb(0,255,0)"/><text x="350.0" y="20.0" text-anchor="middle" fill="rgb(0,0,0)" font-size="20.0">GA Demo</text><text x="350.0" y="575.0" text-anchor="middle" fill="rgb(0,0,0)" font-size="12.0">generation</text><text transform="rotate(-90.0 20.0 300.0)" x="20.0" y="300.0" text-anchor="middle" fill="rgb(0,0,0)" font-size="12.0">fitness</text><text x="620" y="62" fill="rgb(0,0,0)" font-size="12">min</text><text x="620" y="74" fill="rgb(0,0,255)" font-size="12">ave</text><text x="620" y="86" fill="rgb(0,255,0)" font-size="12">max</text>
      Sorry, your browser does not support inline SVG.
    </svg>