<?xml version='1.0' encoding='UTF-8'?>
<svg version="1.1" width="700.0" height="600.0" onload="init(evt)" xmlns="http://www.w3.org/2000/svg">
      <style>.caption {
  font-size: 14px;
  font-family: Georgia, serif;
}
</style>
      <script type="text/ecmascript"><![CDATA[
function init(evt) {
  if ( window.svgDocument == null ) {
    svgDocument = evt.target.ownerDocument;
  }
}

function RectHover(evt, i, c) {
  rect = svgDocument.getElementById('rect' + i);
  if( c != null ) {
    rect.setAttributeNS(null, "fill", c)  
  }
  tooltiptext = svgDocument.getElementById('tooltiptext' + i);
  tooltipbg = svgDocument.getElementById('tooltipbg' + i);
  if( tooltipbg != null) {
    tbb = tooltiptext.getBBox();
    tooltipbg.setAttributeNS(null, "width", tbb.width);
    tooltipbg.setAttributeNS(null, "height", tbb.height);
    tooltipbg.setAttributeNS(null, "x", tbb.x);
    tooltipbg.setAttributeNS(null, "y", tbb.y);
    tooltipbg.setAttributeNS(null, "visibility", "visible");
  }
  tooltiptext.setAttributeNS(null,"visibility","visible");
}

function RectUnhover(evt, i, c) {
  rect = svgDocument.getElementById('rect' + i);
  if( c != null ) {
    rect.setAttributeNS(null, "fill", c)  
  }
  tooltiptext = svgDocument.getElementById('tooltiptext' + i);
  tooltiptext.setAttributeNS(null,"visibility","hidden");
  tooltipbg = svgDocument.getElementById('tooltipbg' + i);
  if( tooltipbg != null ) {
    tooltipbg.setAttributeNS(null,"visibility","hidden");
  }
}
]]></script>
      <line x1="50.0" y1="550.0" x2="550.0" y2="550.0" stroke="rgb(0,0,0)" stroke-width="1"/><line x1="50.0" y1="550.0" x2="50.0" y2="50.0" stroke="rgb(0,0,0)" stroke-width="1"/><line x1="50.0" y1="550.0" x2="50.0" y2="50.0" stroke="rgb(192,192,192)" stroke-width="1"/><line x1="50.0" y1="548.0" x2="50.0" y2="552.0" stroke="rgb(192,192,192)" stroke-width="1"/><text text-anchor="middle" alignment-baseline="hanging" x="50.0" y="553.0" font-size="12.0">0</text><line x1="100.5050505050505" y1="550.0" x2="100.5050505050505" y2="50.0" stroke="rgb(192,192,192)" stroke-width="1"/><line x1="100.5050505050505" y1="548.0" x2="100.5050505050505" y2="552.0" stroke="rgb(192,192,192)" stroke-width="1"/><text text-anchor="middle" alignment-baseline="hanging" x="100.5050505050505" y="553.0" font-size="12.0">10</text><line x1="151.010101010101" y1="550.0" x2="151.010101010101" y2="50.0" stroke="rgb(192,192,192)" stroke-width="1"/><line x1="151.010101010101" y1="548.0" x2="151.010101010101" y2="552.0" stroke="rgb(192,192,192)" stroke-width="1"/><text text-anchor="middle" alignment-baseline="hanging" x="151.010101010101" y="553.0" font-size="12.0">20</text><line x1="201.51515151515153" y1="550.0" x2="201.51515151515153" y2="50.0" stroke="rgb(192,192,192)" stroke-width="1"/><line x1="201.51515151515153" y1="548.0" x2="201.51515151515153" y2="552.0" stroke="rgb(192,192,192)" stroke-width="1"/><text text-anchor="middle" alignment-baseline="hanging" x="201.51515151515153" y="553.0" font-size="12.0">30</text><line x1="252.02020202020202" y1="550.0" x2="252.02020202020202" y2="50.0" stroke="rgb(192,192,192)" stroke-width="1"/><line x1="252.02020202020202" y1="548.0" x2="252.02020202020202" y2="552.0" stroke="rgb(192,192,192)" stroke-width="1"/><text text-anchor="middle" alignment-baseline="hanging" x="252.02020202020202" y="553.0" font-size="12.0">40</text><line x1="302.52525252525254" y1="550.0" x2="302.52525252525254" y2="50.0" stroke="rgb(192,192,192)" stroke-width="1"/><line x1="302.52525252525254" y1="548.0" x2="302.52525252525254" y2="552.0" stroke="rgb(192,192,192)" stroke-width="1"/><text text-anchor="middle" alignment-baseline="hanging" x="302.52525252525254" y="553.0" font-size="12.0">50</text><line x1="353.03030303030306" y1="550.0" x2="353.03030303030306" y2="50.0" stroke="rgb(192,192,192)" stroke-width="1"/><line x1="353.03030303030306" y1="548.0" x2="353.03030303030306" y2="552.0" stroke="rgb(192,192,192)" stroke-width="1"/><text text-anchor="middle" alignment-baseline="hanging" x="353.03030303030306" y="553.0" font-size="12.0">60</text><line x1="403.5353535353535" y1="550.0" x2="403.5353535353535" y2="50.0" stroke="rgb(192,192,192)" stroke-width="1"/><line x1="403.5353535353535" y1="548.0" x2="403.5353535353535" y2="552.0" stroke="rgb(192,192,192)" stroke-width="1"/><text text-anchor="middle" alignment-baseline="hanging" x="403.5353535353535" y="553.0" font-size="12.0">70</text><line x1="454.04040404040404" y1="550.0" x2="454.04040404040404" y2="50.0" stroke="rgb(192,192,192)" stroke-width="1"/><line x1="454.04040404040404" y1="548.0" x2="454.04040404040404" y2="552.0" stroke="rgb(192,192,192)" stroke-width="1"/><text text-anchor="middle" alignment-baseline="hanging" x="454.04040404040404" y="553.0" font-size="12.0">80</text><line x1="504.5454545454545" y1="550.0" x2="504.5454545454545" y2="50.0" stroke="rgb(192,192,192)" stroke-width="1"/><line x1="504.5454545454545" y1="548.0" x2="504.5454545454545" y2="552.0" stroke="rgb(192,192,192)" stroke-width="1"/><text text-anchor="middle" alignment-baseline="hanging" x="504.5454545454545" y="553.0" font-size="12.0">90</text><line x1="50.0" y1="550.0" x2="550.0" y2="550.0" stroke="rgb(192,192,192)" stroke-width="1"/><text text-anchor="end" alignment-baseline="middle" x="45.0" y="550.0" font-size="12.0">0.0</text><line x1="48.0" y1="550.0" x2="52.0" y2="550.0" stroke="rgb(192,192,192)" stroke-width="1"/><line x1="50.0" y1="366.8802099555363" x2="550.0" y2="366.8802099555363" stroke="rgb(192,192,192)" stroke-width="1"/><text text-anchor="end" alignment-baseline="middle" x="45.0" y="366.8802099555363" font-size="12.0">1000.0</text><line x1="48.0" y1="366.8802099555363" x2="52.0" y2="366.8802099555363" stroke="rgb(192,192,192)" stroke-width="1"/><line x1="50.0" y1="183.7604199110727" x2="550.0" y2="183.7604199110727" stroke="rgb(192,192,192)" stroke-width="1"/><text text-anchor="end" alignment-baseline="middle" x="45.0" y="183.7604199110727" font-size="12.0">2000.0</text><line x1="48.0" y1="183.7604199110727" x2="52.0" y2="183.7604199110727" stroke="rgb(192,192,192)" stroke-width="1"/><polyline points="50.0,417.224253685287 55.05050505050505,359.25833659123873 60.101010101010104,374.2263918674534 65.15151515151516,329.9726116324811 70.20202020202021,336.6511253065494 75.25252525252526,397.2488810890271 80.30303030303031,397.10623906982414 85.35353535353535,423.901763576056 90.40404040404042,420.96866407328014 95.45454545454545,422.4280410071713 100.5050505050505,423.22334599204055 105.55555555555554,393.2547064618295 110.60606060606061,401.01876099872754 115.65656565656566,318.1386561179463 120.7070707070707,392.4583448464721 125.75757575757576,369.43569614179114 130.80808080808083,227.53325833399026 135.85858585858585,227.83902120717926 140.9090909090909,339.73120106180124 145.95959595959596,340.76298127995244 151.010101010101,258.04156503852005 156.06060606060606,261.9627365247292 161.1111111111111,368.33635448375173 166.16161616161617,325.81306086764545 171.21212121212122,403.6182891843443 176.26262626262627,363.6054154800389 181.31313131313132,253.7921444382797 186.36363636363635,186.16982402154497 191.4141414141414,373.78176930000313 196.46464646464648,334.2845799114984 201.51515151515153,378.7720146960678 206.56565656565658,277.5727383935036 211.61616161616163,358.28410686087267 216.66666666666666,329.92617779215743 221.7171717171717,389.64368866565997 226.76767676767676,330.8418504525464 231.8181818181818,328.8871718033297 236.86868686868686,311.1938689539637 241.91919191919192,411.58217909260543 246.96969696969697,312.156678244091 252.02020202020202,311.7818709185465 257.07070707070704,292.9015943987565 262.1212121212121,261.20750842218024 267.1717171717172,388.0782700173768 272.2222222222222,149.65427379451302 277.27272727272725,149.61835866611733 282.32323232323233,149.73663889146957 287.3737373737374,69.70433260009634 292.42424242424244,203.8283511616246 297.47474747474746,229.10867273323584 302.52525252525254,342.32336023528865 307.57575757575756,382.7060852602693 312.62626262626264,381.7111059544983 317.67676767676767,402.40213561166377 322.7272727272727,383.2618182080427 327.77777777777777,402.60653388492034 332.8282828282828,401.4415766581793 337.8787878787879,357.6168107302186 342.92929292929296,372.54761247476034 347.979797979798,372.54761247476034 353.03030303030306,355.64849888986896 358.0808080808081,231.42266878176707 363.13131313131316,310.804632991747 368.1818181818182,310.804632991747 373.23232323232327,331.55409897741436 378.2828282828283,281.12591782357083 383.3333333333333,278.83178321638115 388.3838383838384,380.82193519587895 393.4343434343434,350.9341486859979 398.4848484848485,392.7936683069198 403.5353535353535,293.74139194752917 408.58585858585855,249.7607748046192 413.6363636363636,372.42192289927095 418.68686868686865,397.43235706476173 423.73737373737373,383.93449519579934 428.7878787878788,383.20217655881265 433.83838383838383,361.99827889347773 438.8888888888889,393.48674113249695 443.93939393939394,393.5013973329383 448.989898989899,362.45761055633636 454.04040404040404,381.33777451677764 459.0909090909091,386.39260975338425 464.14141414141415,386.4340185787821 469.19191919191917,401.98214642923733 474.24242424242425,401.8738483452909 479.2929292929293,290.95434744780124 484.34343434343435,361.74279673666655 489.3939393939394,361.3510542587819 494.4444444444444,339.9181824845346 499.4949494949495,339.9295798490262 504.5454545454545,339.13373242667 509.59595959595964,382.4596178597943 514.6464646464647,314.41570056006793 519.6969696969697,328.3948701882104 524.7474747474748,368.5489306293888 529.7979797979798,333.12973438271393 534.8484848484849,332.55942398317165 539.8989898989898,310.6295946011224 544.9494949494949,368.72989477407907 550.0,386.7958915886155" fill="none" stroke="rgb(0,0,0)" stroke-width="1"/><circle cx="50.0" cy="417.224253685287" r="2" fill="rgb(0,0,0)"/><circle cx="55.05050505050505" cy="359.25833659123873" r="2" fill="rgb(0,0,0)"/><circle cx="60.101010101010104" cy="374.2263918674534" r="2" fill="rgb(0,0,0)"/><circle cx="65.15151515151516" cy="329.9726116324811" r="2" fill="rgb(0,0,0)"/><circle cx="70.20202020202021" cy="336.6511253065494" r="2" fill="rgb(0,0,0)"/><circle cx="75.25252525252526" cy="397.2488810890271" r="2" fill="rgb(0,0,0)"/><circle cx="80.30303030303031" cy="397.10623906982414" r="2" fill="rgb(0,0,0)"/><circle cx="85.35353535353535" cy="423.901763576056" r="2" fill="rgb(0,0,0)"/><circle cx="90.40404040404042" cy="420.96866407328014" r="2" fill="rgb(0,0,0)"/><circle cx="95.45454545454545" cy="422.4280410071713" r="2" fill="rgb(0,0,0)"/><circle cx="100.5050505050505" cy="423.22334599204055" r="2" fill="rgb(0,0,0)"/><circle cx="105.55555555555554" cy="393.2547064618295" r="2" fill="rgb(0,0,0)"/><circle cx="110.60606060606061" cy="401.01876099872754" r="2" fill="rgb(0,0,0)"/><circle cx="115.65656565656566" cy="318.1386561179463" r="2" fill="rgb(0,0,0)"/><circle cx="120.7070707070707" cy="392.4583448464721" r="2" fill="rgb(0,0,0)"/><circle cx="125.75757575757576" cy="369.43569614179114" r="2" fill="rgb(0,0,0)"/><circle cx="130.80808080808083" cy="227.53325833399026" r="2" fill="rgb(0,0,0)"/><circle cx="135.85858585858585" cy="227.83902120717926" r="2" fill="rgb(0,0,0)"/><circle cx="140.9090909090909" cy="339.73120106180124" r="2" fill="rgb(0,0,0)"/><circle cx="145.95959595959596" cy="340.76298127995244" r="2" fill="rgb(0,0,0)"/><circle cx="151.010101010101" cy="258.04156503852005" r="2" fill="rgb(0,0,0)"/><circle cx="156.06060606060606" cy="261.9627365247292" r="2" fill="rgb(0,0,0)"/><circle cx="161.1111111111111" cy="368.33635448375173" r="2" fill="rgb(0,0,0)"/><circle cx="166.16161616161617" cy="325.81306086764545" r="2" fill="rgb(0,0,0)"/><circle cx="171.21212121212122" cy="403.6182891843443" r="2" fill="rgb(0,0,0)"/><circle cx="176.26262626262627" cy="363.6054154800389" r="2" fill="rgb(0,0,0)"/><circle cx="181.31313131313132" cy="253.7921444382797" r="2" fill="rgb(0,0,0)"/><circle cx="186.36363636363635" cy="186.16982402154497" r="2" fill="rgb(0,0,0)"/><circle cx="191.4141414141414" cy="373.78176930000313" r="2" fill="rgb(0,0,0)"/><circle cx="196.46464646464648" cy="334.2845799114984" r="2" fill="rgb(0,0,0)"/><circle cx="201.51515151515153" cy="378.7720146960678" r="2" fill="rgb(0,0,0)"/><circle cx="206.56565656565658" cy="277.5727383935036" r="2" fill="rgb(0,0,0)"/><circle cx="211.61616161616163" cy="358.28410686087267" r="2" fill="rgb(0,0,0)"/><circle cx="216.66666666666666" cy="329.92617779215743" r="2" fill="rgb(0,0,0)"/><circle cx="221.7171717171717" cy="389.64368866565997" r="2" fill="rgb(0,0,0)"/><circle cx="226.76767676767676" cy="330.8418504525464" r="2" fill="rgb(0,0,0)"/><circle cx="231.8181818181818" cy="328.8871718033297" r="2" fill="rgb(0,0,0)"/><circle cx="236.86868686868686" cy="311.1938689539637" r="2" fill="rgb(0,0,0)"/><circle cx="241.91919191919192" cy="411.58217909260543" r="2" fill="rgb(0,0,0)"/><circle cx="246.96969696969697" cy="312.156678244091" r="2" fill="rgb(0,0,0)"/><circle cx="252.02020202020202" cy="311.7818709185465" r="2" fill="rgb(0,0,0)"/><circle cx="257.07070707070704" cy="292.9015943987565" r="2" fill="rgb(0,0,0)"/><circle cx="262.1212121212121" cy="261.20750842218024" r="2" fill="rgb(0,0,0)"/><circle cx="267.1717171717172" cy="388.0782700173768" r="2" fill="rgb(0,0,0)"/><circle cx="272.2222222222222" cy="149.65427379451302" r="2" fill="rgb(0,0,0)"/><circle cx="277.27272727272725" cy="149.61835866611733" r="2" fill="rgb(0,0,0)"/><circle cx="282.32323232323233" cy="149.73663889146957" r="2" fill="rgb(0,0,0)"/><circle cx="287.3737373737374" cy="69.70433260009634" r="2" fill="rgb(0,0,0)"/><circle cx="292.42424242424244" cy="203.8283511616246" r="2" fill="rgb(0,0,0)"/><circle cx="297.47474747474746" cy="229.10867273323584" r="2" fill="rgb(0,0,0)"/><circle cx="302.52525252525254" cy="342.32336023528865" r="2" fill="rgb(0,0,0)"/><circle cx="307.57575757575756" cy="382.7060852602693" r="2" fill="rgb(0,0,0)"/><circle cx="312.62626262626264" cy="381.7111059544983" r="2" fill="rgb(0,0,0)"/><circle cx="317.67676767676767" cy="402.40213561166377" r="2" fill="rgb(0,0,0)"/><circle cx="322.7272727272727" cy="383.2618182080427" r="2" fill="rgb(0,0,0)"/><circle cx="327.77777777777777" cy="402.60653388492034" r="2" fill="rgb(0,0,0)"/><circle cx="332.8282828282828" cy="401.4415766581793" r="2" fill="rgb(0,0,0)"/><circle cx="337.8787878787879" cy="357.6168107302186" r="2" fill="rgb(0,0,0)"/><circle cx="342.92929292929296" cy="372.54761247476034" r="2" fill="rgb(0,0,0)"/><circle cx="347.979797979798" cy="372.54761247476034" r="2" fill="rgb(0,0,0)"/><circle cx="353.03030303030306" cy="355.64849888986896" r="2" fill="rgb(0,0,0)"/><circle cx="358.0808080808081" cy="231.42266878176707" r="2" fill="rgb(0,0,0)"/><circle cx="363.13131313131316" cy="310.804632991747" r="2" fill="rgb(0,0,0)"/><circle cx="368.1818181818182" cy="310.804632991747" r="2" fill="rgb(0,0,0)"/><circle cx="373.23232323232327" cy="331.55409897741436" r="2" fill="rgb(0,0,0)"/><circle cx="378.2828282828283" cy="281.12591782357083" r="2" fill="rgb(0,0,0)"/><circle cx="383.3333333333333" cy="278.83178321638115" r="2" fill="rgb(0,0,0)"/><circle cx="388.3838383838384" cy="380.82193519587895" r="2" fill="rgb(0,0,0)"/><circle cx="393.4343434343434" cy="350.9341486859979" r="2" fill="rgb(0,0,0)"/><circle cx="398.4848484848485" cy="392.7936683069198" r="2" fill="rgb(0,0,0)"/><circle cx="403.5353535353535" cy="293.74139194752917" r="2" fill="rgb(0,0,0)"/><circle cx="408.58585858585855" cy="249.7607748046192" r="2" fill="rgb(0,0,0)"/><circle cx="413.6363636363636" cy="372.42192289927095" r="2" fill="rgb(0,0,0)"/><circle cx="418.68686868686865" cy="397.43235706476173" r="2" fill="rgb(0,0,0)"/><circle cx="423.73737373737373" cy="383.93449519579934" r="2" fill="rgb(0,0,0)"/><circle cx="428.7878787878788" cy="383.20217655881265" r="2" fill="rgb(0,0,0)"/><circle cx="433.83838383838383" cy="361.99827889347773" r="2" fill="rgb(0,0,0)"/><circle cx="438.8888888888889" cy="393.48674113249695" r="2" fill="rgb(0,0,0)"/><circle cx="443.93939393939394" cy="393.5013973329383" r="2" fill="rgb(0,0,0)"/><circle cx="448.989898989899" cy="362.45761055633636" r="2" fill="rgb(0,0,0)"/><circle cx="454.04040404040404" cy="381.33777451677764" r="2" fill="rgb(0,0,0)"/><circle cx="459.0909090909091" cy="386.39260975338425" r="2" fill="rgb(0,0,0)"/><circle cx="464.14141414141415" cy="386.4340185787821" r="2" fill="rgb(0,0,0)"/><circle cx="469.19191919191917" cy="401.98214642923733" r="2" fill="rgb(0,0,0)"/><circle cx="474.24242424242425" cy="401.8738483452909" r="2" fill="rgb(0,0,0)"/><circle cx="479.2929292929293" cy="290.95434744780124" r="2" fill="rgb(0,0,0)"/><circle cx="484.34343434343435" cy="361.74279673666655" r="2" fill="rgb(0,0,0)"/><circle cx="489.3939393939394" cy="361.3510542587819" r="2" fill="rgb(0,0,0)"/><circle cx="494.4444444444444" cy="339.9181824845346" r="2" fill="rgb(0,0,0)"/><circle cx="499.4949494949495" cy="339.9295798490262" r="2" fill="rgb(0,0,0)"/><circle cx="504.5454545454545" cy="339.13373242667" r="2" fill="rgb(0,0,0)"/><circle cx="509.59595959595964" cy="382.4596178597943" r="2" fill="rgb(0,0,0)"/><circle cx="514.6464646464647" cy="314.41570056006793" r="2" fill="rgb(0,0,0)"/><circle cx="519.6969696969697" cy="328.3948701882104" r="2" fill="rgb(0,0,0)"/><circle cx="524.7474747474748" cy="368.5489306293888" r="2" fill="rgb(0,0,0)"/><circle cx="529.7979797979798" cy="333.12973438271393" r="2" fill="rgb(0,0,0)"/><circle cx="534.8484848484849" cy="332.55942398317165" r="2" fill="rgb(0,0,0)"/><circle cx="539.8989898989898" cy="310.6295946011224" r="2" fill="rgb(0,0,0)"/><circle cx="544.9494949494949" cy="368.72989477407907" r="2" fill="rgb(0,0,0)"/><circle cx="550.0" cy="386.7958915886155" r="2" fill="rgb(0,0,0)"/><polyline points="50.0,209.49936273966625 55.05050505050505,189.033757021459 60.101010101010104,157.66776307773483 65.15151515151516,131.40775359458422 70.20202020202021,124.8252249686197 75.25252525252526,124.22915450837627 80.30303030303031,120.53596631362205 85.35353535353535,97.85757001061188 90.40404040404042,96.06053353556086 95.45454545454545,85.34764976004624 100.5050505050505,75.72948081328792 105.55555555555554,70.37055782545224 110.60606060606061,73.67251494728907 115.65656565656566,65.2109650969291 120.7070707070707,80.40788319351873 125.75757575757576,66.55438448158498 130.80808080808083,59.84713654474757 135.85858585858585,59.88870362733866 140.9090909090909,68.54649162070535 145.95959595959596,66.16080480620707 151.010101010101,57.97596054980346 156.06060606060606,59.87182512851382 161.1111111111111,65.55641452198489 166.16161616161617,61.45332985022054 171.21212121212122,60.17887602056442 176.26262626262627,57.983833517943935 181.31313131313132,57.368774711078345 186.36363636363635,54.445078874976616 191.4141414141414,57.93398980628626 196.46464646464648,58.367752227241226 201.51515151515153,69.07186627248637 206.56565656565658,61.33527435830979 211.61616161616163,62.3910490348286 216.66666666666666,58.03994772305083 221.7171717171717,64.8991924469658 226.76767676767676,57.80419712572103 231.8181818181818,62.69298389910557 236.86868686868686,57.94444760097218 241.91919191919192,61.71328364861438 246.96969696969697,58.50401697918892 252.02020202020202,63.88033232917718 257.07070707070704,58.94093957320683 262.1212121212121,57.26391274131993 267.1717171717172,60.67093853187151 272.2222222222222,52.3496026496926 277.27272727272725,53.260512840396416 282.32323232323233,55.34946718068801 287.3737373737374,52.26962705045861 292.42424242424244,53.34614169078071 297.47474747474746,56.11218481992046 302.52525252525254,58.50482620581721 307.57575757575756,60.29081432275535 312.62626262626264,62.95660980838642 317.67676767676767,69.5801391057376 322.7272727272727,71.60264435880299 327.77777777777777,73.01263832498512 332.8282828282828,61.68280556427868 337.8787878787879,65.84401284483454 342.92929292929296,70.68144819809481 347.979797979798,74.27107913787381 353.03030303030306,63.6436560318578 358.0808080808081,55.08473958769525 363.13131313131316,59.26195756246233 368.1818181818182,62.191407470660636 373.23232323232327,66.17832799363555 378.2828282828283,65.58237766907672 383.3333333333333,62.74980511538649 388.3838383838384,68.07206573435406 393.4343434343434,68.25999023283907 398.4848484848485,72.2737543362806 403.5353535353535,56.134431311548326 408.58585858585855,62.86983702879104 413.6363636363636,62.30803820221229 418.68686868686865,57.441847025518825 423.73737373737373,60.01075389353548 428.7878787878788,56.41163403986951 433.83838383838383,59.19512244951255 438.8888888888889,62.93318961809797 443.93939393939394,63.08627398169443 448.989898989899,62.02548714936074 454.04040404040404,74.41083798238134 459.0909090909091,67.86481538353127 464.14141414141415,68.17847263830578 469.19191919191917,72.44877894646305 474.24242424242425,71.11121337828968 479.2929292929293,58.99599988837258 484.34343434343435,55.870671585965624 489.3939393939394,58.58443273883745 494.4444444444444,56.10106769106113 499.4949494949495,66.37100655553229 504.5454545454545,63.859613002497895 509.59595959595964,65.20808071681387 514.6464646464647,65.69796082847864 519.6969696969697,62.859104865620225 524.7474747474748,68.78340658927908 529.7979797979798,65.62948119967791 534.8484848484849,67.1353848305717 539.8989898989898,58.594653010659556 544.9494949494949,56.32528814587255 550.0,58.20498252407566" fill="none" stroke="rgb(0,0,255)" stroke-width="1"/><circle cx="50.0" cy="209.49936273966625" r="2" fill="rgb(0,0,255)"/><circle cx="55.05050505050505" cy="189.033757021459" r="2" fill="rgb(0,0,255)"/><circle cx="60.101010101010104" cy="157.66776307773483" r="2" fill="rgb(0,0,255)"/><circle cx="65.15151515151516" cy="131.40775359458422" r="2" fill="rgb(0,0,255)"/><circle cx="70.20202020202021" cy="124.8252249686197" r="2" fill="rgb(0,0,255)"/><circle cx="75.25252525252526" cy="124.22915450837627" r="2" fill="rgb(0,0,255)"/><circle cx="80.30303030303031" cy="120.53596631362205" r="2" fill="rgb(0,0,255)"/><circle cx="85.35353535353535" cy="97.85757001061188" r="2" fill="rgb(0,0,255)"/><circle cx="90.40404040404042" cy="96.06053353556086" r="2" fill="rgb(0,0,255)"/><circle cx="95.45454545454545" cy="85.34764976004624" r="2" fill="rgb(0,0,255)"/><circle cx="100.5050505050505" cy="75.72948081328792" r="2" fill="rgb(0,0,255)"/><circle cx="105.55555555555554" cy="70.37055782545224" r="2" fill="rgb(0,0,255)"/><circle cx="110.60606060606061" cy="73.67251494728907" r="2" fill="rgb(0,0,255)"/><circle cx="115.65656565656566" cy="65.2109650969291" r="2" fill="rgb(0,0,255)"/><circle cx="120.7070707070707" cy="80.40788319351873" r="2" fill="rgb(0,0,255)"/><circle cx="125.75757575757576" cy="66.55438448158498" r="2" fill="rgb(0,0,255)"/><circle cx="130.80808080808083" cy="59.84713654474757" r="2" fill="rgb(0,0,255)"/><circle cx="135.85858585858585" cy="59.88870362733866" r="2" fill="rgb(0,0,255)"/><circle cx="140.9090909090909" cy="68.54649162070535" r="2" fill="rgb(0,0,255)"/><circle cx="145.95959595959596" cy="66.16080480620707" r="2" fill="rgb(0,0,255)"/><circle cx="151.010101010101" cy="57.97596054980346" r="2" fill="rgb(0,0,255)"/><circle cx="156.06060606060606" cy="59.87182512851382" r="2" fill="rgb(0,0,255)"/><circle cx="161.1111111111111" cy="65.55641452198489" r="2" fill="rgb(0,0,255)"/><circle cx="166.16161616161617" cy="61.45332985022054" r="2" fill="rgb(0,0,255)"/><circle cx="171.21212121212122" cy="60.17887602056442" r="2" fill="rgb(0,0,255)"/><circle cx="176.26262626262627" cy="57.983833517943935" r="2" fill="rgb(0,0,255)"/><circle cx="181.31313131313132" cy="57.368774711078345" r="2" fill="rgb(0,0,255)"/><circle cx="186.36363636363635" cy="54.445078874976616" r="2" fill="rgb(0,0,255)"/><circle cx="191.4141414141414" cy="57.93398980628626" r="2" fill="rgb(0,0,255)"/><circle cx="196.46464646464648" cy="58.367752227241226" r="2" fill="rgb(0,0,255)"/><circle cx="201.51515151515153" cy="69.07186627248637" r="2" fill="rgb(0,0,255)"/><circle cx="206.56565656565658" cy="61.33527435830979" r="2" fill="rgb(0,0,255)"/><circle cx="211.61616161616163" cy="62.3910490348286" r="2" fill="rgb(0,0,255)"/><circle cx="216.66666666666666" cy="58.03994772305083" r="2" fill="rgb(0,0,255)"/><circle cx="221.7171717171717" cy="64.8991924469658" r="2" fill="rgb(0,0,255)"/><circle cx="226.76767676767676" cy="57.80419712572103" r="2" fill="rgb(0,0,255)"/><circle cx="231.8181818181818" cy="62.69298389910557" r="2" fill="rgb(0,0,255)"/><circle cx="236.86868686868686" cy="57.94444760097218" r="2" fill="rgb(0,0,255)"/><circle cx="241.91919191919192" cy="61.71328364861438" r="2" fill="rgb(0,0,255)"/><circle cx="246.96969696969697" cy="58.50401697918892" r="2" fill="rgb(0,0,255)"/><circle cx="252.02020202020202" cy="63.88033232917718" r="2" fill="rgb(0,0,255)"/><circle cx="257.07070707070704" cy="58.94093957320683" r="2" fill="rgb(0,0,255)"/><circle cx="262.1212121212121" cy="57.26391274131993" r="2" fill="rgb(0,0,255)"/><circle cx="267.1717171717172" cy="60.67093853187151" r="2" fill="rgb(0,0,255)"/><circle cx="272.2222222222222" cy="52.3496026496926" r="2" fill="rgb(0,0,255)"/><circle cx="277.27272727272725" cy="53.260512840396416" r="2" fill="rgb(0,0,255)"/><circle cx="282.32323232323233" cy="55.34946718068801" r="2" fill="rgb(0,0,255)"/><circle cx="287.3737373737374" cy="52.26962705045861" r="2" fill="rgb(0,0,255)"/><circle cx="292.42424242424244" cy="53.34614169078071" r="2" fill="rgb(0,0,255)"/><circle cx="297.47474747474746" cy="56.11218481992046" r="2" fill="rgb(0,0,255)"/><circle cx="302.52525252525254" cy="58.50482620581721" r="2" fill="rgb(0,0,255)"/><circle cx="307.57575757575756" cy="60.29081432275535" r="2" fill="rgb(0,0,255)"/><circle cx="312.62626262626264" cy="62.95660980838642" r="2" fill="rgb(0,0,255)"/><circle cx="317.67676767676767" cy="69.5801391057376" r="2" fill="rgb(0,0,255)"/><circle cx="322.7272727272727" cy="71.60264435880299" r="2" fill="rgb(0,0,255)"/><circle cx="327.77777777777777" cy="73.01263832498512" r="2" fill="rgb(0,0,255)"/><circle cx="332.8282828282828" cy="61.68280556427868" r="2" fill="rgb(0,0,255)"/><circle cx="337.8787878787879" cy="65.84401284483454" r="2" fill="rgb(0,0,255)"/><circle cx="342.92929292929296" cy="70.68144819809481" r="2" fill="rgb(0,0,255)"/><circle cx="347.979797979798" cy="74.27107913787381" r="2" fill="rgb(0,0,255)"/><circle cx="353.03030303030306" cy="63.6436560318578" r="2" fill="rgb(0,0,255)"/><circle cx="358.0808080808081" cy="55.08473958769525" r="2" fill="rgb(0,0,255)"/><circle cx="363.13131313131316" cy="59.26195756246233" r="2" fill="rgb(0,0,255)"/><circle cx="368.1818181818182" cy="62.191407470660636" r="2" fill="rgb(0,0,255)"/><circle cx="373.23232323232327" cy="66.17832799363555" r="2" fill="rgb(0,0,255)"/><circle cx="378.2828282828283" cy="65.58237766907672" r="2" fill="rgb(0,0,255)"/><circle cx="383.3333333333333" cy="62.74980511538649" r="2" fill="rgb(0,0,255)"/><circle cx="388.3838383838384" cy="68.07206573435406" r="2" fill="rgb(0,0,255)"/><circle cx="393.4343434343434" cy="68.25999023283907" r="2" fill="rgb(0,0,255)"/><circle cx="398.4848484848485" cy="72.2737543362806" r="2" fill="rgb(0,0,255)"/><circle cx="403.5353535353535" cy="56.134431311548326" r="2" fill="rgb(0,0,255)"/><circle cx="408.58585858585855" cy="62.86983702879104" r="2" fill="rgb(0,0,255)"/><circle cx="413.6363636363636" cy="62.30803820221229" r="2" fill="rgb(0,0,255)"/><circle cx="418.68686868686865" cy="57.441847025518825" r="2" fill="rgb(0,0,255)"/><circle cx="423.73737373737373" cy="60.01075389353548" r="2" fill="rgb(0,0,255)"/><circle cx="428.7878787878788" cy="56.41163403986951" r="2" fill="rgb(0,0,255)"/><circle cx="433.83838383838383" cy="59.19512244951255" r="2" fill="rgb(0,0,255)"/><circle cx="438.8888888888889" cy="62.93318961809797" r="2" fill="rgb(0,0,255)"/><circle cx="443.93939393939394" cy="63.08627398169443" r="2" fill="rgb(0,0,255)"/><circle cx="448.989898989899" cy="62.02548714936074" r="2" fill="rgb(0,0,255)"/><circle cx="454.04040404040404" cy="74.41083798238134" r="2" fill="rgb(0,0,255)"/><circle cx="459.0909090909091" cy="67.86481538353127" r="2" fill="rgb(0,0,255)"/><circle cx="464.14141414141415" cy="68.17847263830578" r="2" fill="rgb(0,0,255)"/><circle cx="469.19191919191917" cy="72.44877894646305" r="2" fill="rgb(0,0,255)"/><circle cx="474.24242424242425" cy="71.11121337828968" r="2" fill="rgb(0,0,255)"/><circle cx="479.2929292929293" cy="58.99599988837258" r="2" fill="rgb(0,0,255)"/><circle cx="484.34343434343435" cy="55.870671585965624" r="2" fill="rgb(0,0,255)"/><circle cx="489.3939393939394" cy="58.58443273883745" r="2" fill="rgb(0,0,255)"/><circle cx="494.4444444444444" cy="56.10106769106113" r="2" fill="rgb(0,0,255)"/><circle cx="499.4949494949495" cy="66.37100655553229" r="2" fill="rgb(0,0,255)"/><circle cx="504.5454545454545" cy="63.859613002497895" r="2" fill="rgb(0,0,255)"/><circle cx="509.59595959595964" cy="65.20808071681387" r="2" fill="rgb(0,0,255)"/><circle cx="514.6464646464647" cy="65.69796082847864" r="2" fill="rgb(0,0,255)"/><circle cx="519.6969696969697" cy="62.859104865620225" r="2" fill="rgb(0,0,255)"/><circle cx="524.7474747474748" cy="68.78340658927908" r="2" fill="rgb(0,0,255)"/><circle cx="529.7979797979798" cy="65.62948119967791" r="2" fill="rgb(0,0,255)"/><circle cx="534.8484848484849" cy="67.1353848305717" r="2" fill="rgb(0,0,255)"/><circle cx="539.8989898989898" cy="58.594653010659556" r="2" fill="rgb(0,0,255)"/><circle cx="544.9494949494949" cy="56.32528814587255" r="2" fill="rgb(0,0,255)"/><circle cx="550.0" cy="58.20498252407566" r="2" fill="rgb(0,0,255)"/><polyline points="50.0,56.83489991578142 55.05050505050505,56.78286249895075 60.101010101010104,57.72434511802487 65.15151515151516,57.054531746534224 70.20202020202021,54.76360122083628 75.25252525252526,53.042941920981434 80.30303030303031,54.106107436908474 85.35353535353535,53.93677878237031 90.40404040404042,54.04070027590683 95.45454545454545,53.19876868744882 100.5050505050505,53.17483224672009 105.55555555555554,51.88909513120797 110.60606060606061,51.46633577511949 115.65656565656566,52.379742497103905 120.7070707070707,52.40327507704859 125.75757575757576,51.87501202717999 130.80808080808083,51.6359080186038 135.85858585858585,51.6359080186038 140.9090909090909,51.6359080186038 145.95959595959596,51.30244758980962 151.010101010101,51.55144080536314 156.06060606060606,51.04931753329629 161.1111111111111,51.41445694314109 166.16161616161617,51.53097980816011 171.21212121212122,51.168123433645974 176.26262626262627,51.168123433645974 181.31313131313132,50.68581109624955 186.36363636363635,50.38433477134225 191.4141414141414,50.16196364048125 196.46464646464648,50.28670221470469 201.51515151515153,50.28670221470469 206.56565656565658,50.20617220696187 211.61616161616163,50.20617220696187 216.66666666666666,50.32185357872322 221.7171717171717,50.24337958084516 226.76767676767676,50.18690661703312 231.8181818181818,50.17477345476823 236.86868686868686,50.18690661703312 241.91919191919192,50.21723391513996 246.96969696969697,50.18690661703312 252.02020202020202,50.18690661703312 257.07070707070704,50.25767063217404 262.1212121212121,50.2106885831638 267.1717171717172,50.17477345476823 272.2222222222222,50.17477345476823 277.27272727272725,50.092408357811735 282.32323232323233,50.13939040682192 287.3737373737374,50.08789198160969 292.42424242424244,50.092408357811735 297.47474747474746,50.092408357811735 302.52525252525254,50.13939040682192 307.57575757575756,50.2106885831638 312.62626262626264,50.181342822475244 317.67676767676767,50.20617220696187 322.7272727272727,50.20617220696187 327.77777777777777,50.181342822475244 332.8282828282828,50.13472429467686 337.8787878787879,50.2106885831638 342.92929292929296,50.159828929366086 347.979797979798,50.10628103933044 353.03030303030306,50.13562680001911 358.0808080808081,50.13562680001911 363.13131313131316,50.04992639977024 368.1818181818182,50.06205956203513 373.23232323232327,50.06205956203513 378.2828282828283,50.06205956203513 383.3333333333333,50.06205956203513 388.3838383838384,50.13562680001911 393.4343434343434,50.159828929366086 398.4848484848485,50.04541002356831 403.5353535353535,50.06205956203513 408.58585858585855,50.02120789422122 413.6363636363636,50.00851757437238 418.68686868686865,50.04992639977024 423.73737373737373,50.02572427042321 428.7878787878788,50.14507762841896 433.83838383838383,50.14507762841896 438.8888888888889,50.14507762841896 443.93939393939394,50.13562680001911 448.989898989899,50.094217974621245 454.04040404040404,50.094217974621245 459.0909090909091,50.094217974621245 464.14141414141415,50.094217974621245 469.19191919191917,50.094217974621245 474.24242424242425,50.02463945703829 479.2929292929293,50.094217974621245 484.34343434343435,50.094217974621245 489.3939393939394,50.094217974621245 494.4444444444444,50.094217974621245 499.4949494949495,50.094217974621245 504.5454545454545,50.094217974621245 509.59595959595964,50.094217974621245 514.6464646464647,50.094217974621245 519.6969696969697,50.126843852894694 524.7474747474748,50.126843852894694 529.7979797979798,50.0 534.8484848484849,50.0 539.8989898989898,50.0 544.9494949494949,50.0 550.0,50.0" fill="none" stroke="rgb(0,255,0)" stroke-width="1"/><circle cx="50.0" cy="56.83489991578142" r="2" fill="rgb(0,255,0)"/><circle cx="55.05050505050505" cy="56.78286249895075" r="2" fill="rgb(0,255,0)"/><circle cx="60.101010101010104" cy="57.72434511802487" r="2" fill="rgb(0,255,0)"/><circle cx="65.15151515151516" cy="57.054531746534224" r="2" fill="rgb(0,255,0)"/><circle cx="70.20202020202021" cy="54.76360122083628" r="2" fill="rgb(0,255,0)"/><circle cx="75.25252525252526" cy="53.042941920981434" r="2" fill="rgb(0,255,0)"/><circle cx="80.30303030303031" cy="54.106107436908474" r="2" fill="rgb(0,255,0)"/><circle cx="85.35353535353535" cy="53.93677878237031" r="2" fill="rgb(0,255,0)"/><circle cx="90.40404040404042" cy="54.04070027590683" r="2" fill="rgb(0,255,0)"/><circle cx="95.45454545454545" cy="53.19876868744882" r="2" fill="rgb(0,255,0)"/><circle cx="100.5050505050505" cy="53.17483224672009" r="2" fill="rgb(0,255,0)"/><circle cx="105.55555555555554" cy="51.88909513120797" r="2" fill="rgb(0,255,0)"/><circle cx="110.60606060606061" cy="51.46633577511949" r="2" fill="rgb(0,255,0)"/><circle cx="115.65656565656566" cy="52.379742497103905" r="2" fill="rgb(0,255,0)"/><circle cx="120.7070707070707" cy="52.40327507704859" r="2" fill="rgb(0,255,0)"/><circle cx="125.75757575757576" cy="51.87501202717999" r="2" fill="rgb(0,255,0)"/><circle cx="130.80808080808083" cy="51.6359080186038" r="2" fill="rgb(0,255,0)"/><circle cx="135.85858585858585" cy="51.6359080186038" r="2" fill="rgb(0,255,0)"/><circle cx="140.9090909090909" cy="51.6359080186038" r="2" fill="rgb(0,255,0)"/><circle cx="145.95959595959596" cy="51.30244758980962" r="2" fill="rgb(0,255,0)"/><circle cx="151.010101010101" cy="51.55144080536314" r="2" fill="rgb(0,255,0)"/><circle cx="156.06060606060606" cy="51.04931753329629" r="2" fill="rgb(0,255,0)"/><circle cx="161.1111111111111" cy="51.41445694314109" r="2" fill="rgb(0,255,0)"/><circle cx="166.16161616161617" cy="51.53097980816011" r="2" fill="rgb(0,255,0)"/><circle cx="171.21212121212122" cy="51.168123433645974" r="2" fill="rgb(0,255,0)"/><circle cx="176.26262626262627" cy="51.168123433645974" r="2" fill="rgb(0,255,0)"/><circle cx="181.31313131313132" cy="50.68581109624955" r="2" fill="rgb(0,255,0)"/><circle cx="186.36363636363635" cy="50.38433477134225" r="2" fill="rgb(0,255,0)"/><circle cx="191.4141414141414" cy="50.16196364048125" r="2" fill="rgb(0,255,0)"/><circle cx="196.46464646464648" cy="50.28670221470469" r="2" fill="rgb(0,255,0)"/><circle cx="201.51515151515153" cy="50.28670221470469" r="2" fill="rgb(0,255,0)"/><circle cx="206.56565656565658" cy="50.20617220696187" r="2" fill="rgb(0,255,0)"/><circle cx="211.61616161616163" cy="50.20617220696187" r="2" fill="rgb(0,255,0)"/><circle cx="216.66666666666666" cy="50.32185357872322" r="2" fill="rgb(0,255,0)"/><circle cx="221.7171717171717" cy="50.24337958084516" r="2" fill="rgb(0,255,0)"/><circle cx="226.76767676767676" cy="50.18690661703312" r="2" fill="rgb(0,255,0)"/><circle cx="231.8181818181818" cy="50.17477345476823" r="2" fill="rgb(0,255,0)"/><circle cx="236.86868686868686" cy="50.18690661703312" r="2" fill="rgb(0,255,0)"/><circle cx="241.91919191919192" cy="50.21723391513996" r="2" fill="rgb(0,255,0)"/><circle cx="246.96969696969697" cy="50.18690661703312" r="2" fill="rgb(0,255,0)"/><circle cx="252.02020202020202" cy="50.18690661703312" r="2" fill="rgb(0,255,0)"/><circle cx="257.07070707070704" cy="50.25767063217404" r="2" fill="rgb(0,255,0)"/><circle cx="262.1212121212121" cy="50.2106885831638" r="2" fill="rgb(0,255,0)"/><circle cx="267.1717171717172" cy="50.17477345476823" r="2" fill="rgb(0,255,0)"/><circle cx="272.2222222222222" cy="50.17477345476823" r="2" fill="rgb(0,255,0)"/><circle cx="277.27272727272725" cy="50.092408357811735" r="2" fill="rgb(0,255,0)"/><circle cx="282.32323232323233" cy="50.13939040682192" r="2" fill="rgb(0,255,0)"/><circle cx="287.3737373737374" cy="50.08789198160969" r="2" fill="rgb(0,255,0)"/><circle cx="292.42424242424244" cy="50.092408357811735" r="2" fill="rgb(0,255,0)"/><circle cx="297.47474747474746" cy="50.092408357811735" r="2" fill="rgb(0,255,0)"/><circle cx="302.52525252525254" cy="50.13939040682192" r="2" fill="rgb(0,255,0)"/><circle cx="307.57575757575756" cy="50.2106885831638" r="2" fill="rgb(0,255,0)"/><circle cx="312.62626262626264" cy="50.181342822475244" r="2" fill="rgb(0,255,0)"/><circle cx="317.67676767676767" cy="50.20617220696187" r="2" fill="rgb(0,255,0)"/><circle cx="322.7272727272727" cy="50.20617220696187" r="2" fill="rgb(0,255,0)"/><circle cx="327.77777777777777" cy="50.181342822475244" r="2" fill="rgb(0,255,0)"/><circle cx="332.8282828282828" cy="50.13472429467686" r="2" fill="rgb(0,255,0)"/><circle cx="337.8787878787879" cy="50.2106885831638" r="2" fill="rgb(0,255,0)"/><circle cx="342.92929292929296" cy="50.159828929366086" r="2" fill="rgb(0,255,0)"/><circle cx="347.979797979798" cy="50.10628103933044" r="2" fill="rgb(0,255,0)"/><circle cx="353.03030303030306" cy="50.13562680001911" r="2" fill="rgb(0,255,0)"/><circle cx="358.0808080808081" cy="50.13562680001911" r="2" fill="rgb(0,255,0)"/><circle cx="363.13131313131316" cy="50.04992639977024" r="2" fill="rgb(0,255,0)"/><circle cx="368.1818181818182" cy="50.06205956203513" r="2" fill="rgb(0,255,0)"/><circle cx="373.23232323232327" cy="50.06205956203513" r="2" fill="rgb(0,255,0)"/><circle cx="378.2828282828283" cy="50.06205956203513" r="2" fill="rgb(0,255,0)"/><circle cx="383.3333333333333" cy="50.06205956203513" r="2" fill="rgb(0,255,0)"/><circle cx="388.3838383838384" cy="50.13562680001911" r="2" fill="rgb(0,255,0)"/><circle cx="393.4343434343434" cy="50.159828929366086" r="2" fill="rgb(0,255,0)"/><circle cx="398.4848484848485" cy="50.04541002356831" r="2" fill="rgb(0,255,0)"/><circle cx="403.5353535353535" cy="50.06205956203513" r="2" fill="rgb(0,255,0)"/><circle cx="408.58585858585855" cy="50.02120789422122" r="2" fill="rgb(0,255,0)"/><circle cx="413.6363636363636" cy="50.00851757437238" r="2" fill="rgb(0,255,0)"/><circle cx="418.68686868686865" cy="50.04992639977024" r="2" fill="rgb(0,255,0)"/><circle cx="423.73737373737373" cy="50.02572427042321" r="2" fill="rgb(0,255,0)"/><circle cx="428.7878787878788" cy="50.14507762841896" r="2" fill="rgb(0,255,0)"/><circle cx="433.83838383838383" cy="50.14507762841896" r="2" fill="rgb(0,255,0)"/><circle cx="438.8888888888889" cy="50.14507762841896" r="2" fill="rgb(0,255,0)"/><circle cx="443.93939393939394" cy="50.13562680001911" r="2" fill="rgb(0,255,0)"/><circle cx="448.989898989899" cy="50.094217974621245" r="2" fill="rgb(0,255,0)"/><circle cx="454.04040404040404" cy="50.094217974621245" r="2" fill="rgb(0,255,0)"/><circle cx="459.0909090909091" cy="50.094217974621245" r="2" fill="rgb(0,255,0)"/><circle cx="464.14141414141415" cy="50.094217974621245" r="2" fill="rgb(0,255,0)"/><circle cx="469.19191919191917" cy="50.094217974621245" r="2" fill="rgb(0,255,0)"/><circle cx="474.24242424242425" cy="50.02463945703829" r="2" fill="rgb(0,255,0)"/><circle cx="479.2929292929293" cy="50.094217974621245" r="2" fill="rgb(0,255,0)"/><circle cx="484.34343434343435" cy="50.094217974621245" r="2" fill="rgb(0,255,0)"/><circle cx="489.3939393939394" cy="50.094217974621245" r="2" fill="rgb(0,255,0)"/><circle cx="494.4444444444444" cy="50.094217974621245" r="2" fill="rgb(0,255,0)"/><circle cx="499.4949494949495" cy="50.094217974621245" r="2" fill="rgb(0,255,0)"/><circle cx="504.5454545454545" cy="50.094217974621245" r="2" fill="rgb(0,255,0)"/><circle cx="509.59595959595964" cy="50.094217974621245" r="2" fill="rgb(0,255,0)"/><circle cx="514.6464646464647" cy="50.094217974621245" r="2" fill="rgb(0,255,0)"/><circle cx="519.6969696969697" cy="50.126843852894694" r="2" fill="rgb(0,255,0)"/><circle cx="524.7474747474748" cy="50.126843852894694" r="2" fill="rgb(0,255,0)"/><circle cx="529.7979797979798" cy="50.0" r="2" fill="rgb(0,255,0)"/><circle cx="534.8484848484849" cy="50.0" r="2" fill="rgb(0,255,0)"/><circle cx="539.8989898989898" cy="50.0" r="2" fill="rgb(0,255,0)"/><circle cx="544.9494949494949" cy="50.0" r="2" fill="rgb(0,255,0)"/><circle cx="550.0" cy="50.0" r="2" fill="rgb(0,255,0)"/><text x="350.0" y="20.0" text-anchor="middle" fill="rgb(0,0,0)" font-size="20.0">GA Demo</text><text x="350.0" y="575.0" text-anchor="middle" fill="rgb(0,0,0)" font-size="12.0">generation</text><text transform="rotate(-90.0 20.0 300.0)" x="20.0" y="300.0" text-anchor="middle" fill="rgb(0,0,0)" font-size="12.0">fitness</text><text x="620" y="62" fill="rgb(0,0,0)" font-size="12">min</text><text x="620" y="74" fill="rgb(0,0,255)" font-size="12">ave</text><text x="620" y="86" fill="rgb(0,255,0)" font-size="12">max</text>
      Sorry, your browser does not support inline SVG.
    </svg>