<?xml version='1.0' encoding='UTF-8'?>
<svg version="1.1" width="700.0" height="600.0" onload="init(evt)" xmlns="http://www.w3.org/2000/svg">
      <style>.caption {
  font-size: 14px;
  font-family: Georgia, serif;
}
</style>
      <script type="text/ecmascript"><![CDATA[
function init(evt) {
  if ( window.svgDocument == null ) {
    svgDocument = evt.target.ownerDocument;
  }
}

function RectHover(evt, i, c) {
  rect = svgDocument.getElementById('rect' + i);
  if( c != null ) {
    rect.setAttributeNS(null, "fill", c)  
  }
  tooltiptext = svgDocument.getElementById('tooltiptext' + i);
  tooltipbg = svgDocument.getElementById('tooltipbg' + i);
  if( tooltipbg != null) {
    tbb = tooltiptext.getBBox();
    tooltipbg.setAttributeNS(null, "width", tbb.width);
    tooltipbg.setAttributeNS(null, "height", tbb.height);
    tooltipbg.setAttributeNS(null, "x", tbb.x);
    tooltipbg.setAttributeNS(null, "y", tbb.y);
    tooltipbg.setAttributeNS(null, "visibility", "visible");
  }
  tooltiptext.setAttributeNS(null,"visibility","visible");
}

function RectUnhover(evt, i, c) {
  rect = svgDocument.getElementById('rect' + i);
  if( c != null ) {
    rect.setAttributeNS(null, "fill", c)  
  }
  tooltiptext = svgDocument.getElementById('tooltiptext' + i);
  tooltiptext.setAttributeNS(null,"visibility","hidden");
  tooltipbg = svgDocument.getElementById('tooltipbg' + i);
  if( tooltipbg != null ) {
    tooltipbg.setAttributeNS(null,"visibility","hidden");
  }
}
]]></script>
      <line x1="50.0" y1="550.0" x2="550.0" y2="550.0" stroke="rgb(0,0,0)" stroke-width="1"/><line x1="50.0" y1="550.0" x2="50.0" y2="50.0" stroke="rgb(0,0,0)" stroke-width="1"/><line x1="50.0" y1="550.0" x2="50.0" y2="50.0" stroke="rgb(192,192,192)" stroke-width="1"/><line x1="50.0" y1="548.0" x2="50.0" y2="552.0" stroke="rgb(192,192,192)" stroke-width="1"/><text text-anchor="middle" alignment-baseline="hanging" x="50.0" y="553.0" font-size="12.0">0</text><line x1="100.5050505050505" y1="550.0" x2="100.5050505050505" y2="50.0" stroke="rgb(192,192,192)" stroke-width="1"/><line x1="100.5050505050505" y1="548.0" x2="100.5050505050505" y2="552.0" stroke="rgb(192,192,192)" stroke-width="1"/><text text-anchor="middle" alignment-baseline="hanging" x="100.5050505050505" y="553.0" font-size="12.0">10</text><line x1="151.010101010101" y1="550.0" x2="151.010101010101" y2="50.0" stroke="rgb(192,192,192)" stroke-width="1"/><line x1="151.010101010101" y1="548.0" x2="151.010101010101" y2="552.0" stroke="rgb(192,192,192)" stroke-width="1"/><text text-anchor="middle" alignment-baseline="hanging" x="151.010101010101" y="553.0" font-size="12.0">20</text><line x1="201.51515151515153" y1="550.0" x2="201.51515151515153" y2="50.0" stroke="rgb(192,192,192)" stroke-width="1"/><line x1="201.51515151515153" y1="548.0" x2="201.51515151515153" y2="552.0" stroke="rgb(192,192,192)" stroke-width="1"/><text text-anchor="middle" alignment-baseline="hanging" x="201.51515151515153" y="553.0" font-size="12.0">30</text><line x1="252.02020202020202" y1="550.0" x2="252.02020202020202" y2="50.0" stroke="rgb(192,192,192)" stroke-width="1"/><line x1="252.02020202020202" y1="548.0" x2="252.02020202020202" y2="552.0" stroke="rgb(192,192,192)" stroke-width="1"/><text text-anchor="middle" alignment-baseline="hanging" x="252.02020202020202" y="553.0" font-size="12.0">40</text><line x1="302.52525252525254" y1="550.0" x2="302.52525252525254" y2="50.0" stroke="rgb(192,192,192)" stroke-width="1"/><line x1="302.52525252525254" y1="548.0" x2="302.52525252525254" y2="552.0" stroke="rgb(192,192,192)" stroke-width="1"/><text text-anchor="middle" alignment-baseline="hanging" x="302.52525252525254" y="553.0" font-size="12.0">50</text><line x1="353.03030303030306" y1="550.0" x2="353.03030303030306" y2="50.0" stroke="rgb(192,192,192)" stroke-width="1"/><line x1="353.03030303030306" y1="548.0" x2="353.03030303030306" y2="552.0" stroke="rgb(192,192,192)" stroke-width="1"/><text text-anchor="middle" alignment-baseline="hanging" x="353.03030303030306" y="553.0" font-size="12.0">60</text><line x1="403.5353535353535" y1="550.0" x2="403.5353535353535" y2="50.0" stroke="rgb(192,192,192)" stroke-width="1"/><line x1="403.5353535353535" y1="548.0" x2="403.5353535353535" y2="552.0" stroke="rgb(192,192,192)" stroke-width="1"/><text text-anchor="middle" alignment-baseline="hanging" x="403.5353535353535" y="553.0" font-size="12.0">70</text><line x1="454.04040404040404" y1="550.0" x2="454.04040404040404" y2="50.0" stroke="rgb(192,192,192)" stroke-width="1"/><line x1="454.04040404040404" y1="548.0" x2="454.04040404040404" y2="552.0" stroke="rgb(192,192,192)" stroke-width="1"/><text text-anchor="middle" alignment-baseline="hanging" x="454.04040404040404" y="553.0" font-size="12.0">80</text><line x1="504.5454545454545" y1="550.0" x2="504.5454545454545" y2="50.0" stroke="rgb(192,192,192)" stroke-width="1"/><line x1="504.5454545454545" y1="548.0" x2="504.5454545454545" y2="552.0" stroke="rgb(192,192,192)" stroke-width="1"/><text text-anchor="middle" alignment-baseline="hanging" x="504.5454545454545" y="553.0" font-size="12.0">90</text><line x1="50.0" y1="550.0" x2="550.0" y2="550.0" stroke="rgb(192,192,192)" stroke-width="1"/><text text-anchor="end" alignment-baseline="middle" x="45.0" y="550.0" font-size="12.0">0.0</text><line x1="48.0" y1="550.0" x2="52.0" y2="550.0" stroke="rgb(192,192,192)" stroke-width="1"/><line x1="50.0" y1="367.4485289575441" x2="550.0" y2="367.4485289575441" stroke="rgb(192,192,192)" stroke-width="1"/><text text-anchor="end" alignment-baseline="middle" x="45.0" y="367.4485289575441" font-size="12.0">1000.0</text><line x1="48.0" y1="367.4485289575441" x2="52.0" y2="367.4485289575441" stroke="rgb(192,192,192)" stroke-width="1"/><line x1="50.0" y1="184.89705791508823" x2="550.0" y2="184.89705791508823" stroke="rgb(192,192,192)" stroke-width="1"/><text text-anchor="end" alignment-baseline="middle" x="45.0" y="184.89705791508823" font-size="12.0">2000.0</text><line x1="48.0" y1="184.89705791508823" x2="52.0" y2="184.89705791508823" stroke="rgb(192,192,192)" stroke-width="1"/><polyline points="50.0,419.7791609163871 55.05050505050505,420.39766546900717 60.101010101010104,406.71186648030357 65.15151515151516,423.00552395131155 70.20202020202021,405.3271735967163 75.25252525252526,365.4450680162098 80.30303030303031,306.9904858675677 85.35353535353535,396.5071716156833 90.40404040404042,303.10928713772705 95.45454545454545,384.39507189343243 100.5050505050505,297.7963746030413 105.55555555555554,297.5136756507043 110.60606060606061,386.4195627296697 115.65656565656566,409.09912223777224 120.7070707070707,312.91436970336406 125.75757575757576,393.80669427372845 130.80808080808083,211.9359580911954 135.85858585858585,308.5806759747905 140.9090909090909,368.2088079041092 145.95959595959596,366.65454666897745 151.010101010101,366.7692965347027 156.06060606060606,409.39586021337686 161.1111111111111,367.3235014378656 166.16161616161617,338.44300662237276 171.21212121212122,337.5048693843869 176.26262626262627,310.9297421271908 181.31313131313132,360.88396045673403 186.36363636363635,205.48528911265612 191.4141414141414,335.4865042486233 196.46464646464648,384.4660870034472 201.51515151515153,211.97746567398178 206.56565656565658,371.7545442396816 211.61616161616163,269.4866440068634 216.66666666666666,269.50722944909575 221.7171717171717,350.88998804347546 226.76767676767676,350.8215973486813 231.8181818181818,352.1096198450859 236.86868686868686,369.39084322524985 241.91919191919192,351.011261678591 246.96969696969697,411.48733690937104 252.02020202020202,353.14823767627115 257.07070707070704,322.8718211745935 262.1212121212121,358.92534891314324 267.1717171717172,280.32493672456445 272.2222222222222,408.07320503365986 277.27272727272725,409.23704153920403 282.32323232323233,226.75323794132464 287.3737373737374,317.6313550415724 292.42424242424244,317.33676861264416 297.47474747474746,282.729132179012 302.52525252525254,318.63175748299426 307.57575757575756,365.4307500181418 312.62626262626264,318.79798755174113 317.67676767676767,326.5518094947681 322.7272727272727,326.65137277159374 327.77777777777777,273.499980417594 332.8282828282828,330.71545307179963 337.8787878787879,64.135485411677 342.92929292929296,407.02945090907053 347.979797979798,407.03295554463443 353.03030303030306,407.4948932801617 358.0808080808081,400.5396215742667 363.13131313131316,281.84142155880363 368.1818181818182,187.12037618908795 373.23232323232327,302.40725868068455 378.2828282828283,302.35622509265227 383.3333333333333,321.86911572584177 388.3838383838384,345.39045482745826 393.4343434343434,323.0279542032471 398.4848484848485,336.8586417689937 403.5353535353535,361.12620753697746 408.58585858585855,122.12927496824278 413.6363636363636,399.9594985839284 418.68686868686865,401.03488929277296 423.73737373737373,404.488138668646 428.7878787878788,410.1078412898315 433.83838383838383,400.14045720632834 438.8888888888889,196.54675173029239 443.93939393939394,366.49002870516847 448.989898989899,366.5731842200433 454.04040404040404,322.44173944843976 459.0909090909091,359.56227069891247 464.14141414141415,330.1500695785592 469.19191919191917,401.0057702908917 474.24242424242425,385.9965273859482 479.2929292929293,329.54379058606764 484.34343434343435,337.4389092574473 489.3939393939394,380.0155430741388 494.4444444444444,380.7123856835624 499.4949494949495,409.43361545402263 504.5454545454545,340.99887248511715 509.59595959595964,356.79921311348176 514.6464646464647,356.7995662082884 519.6969696969697,392.0663346013022 524.7474747474748,196.34749983845626 529.7979797979798,348.6558233192666 534.8484848484849,349.9996788608637 539.8989898989898,351.94457729706846 544.9494949494949,309.63801769905683 550.0,321.8568511983366" fill="none" stroke="rgb(0,0,0)" stroke-width="1"/><circle cx="50.0" cy="419.7791609163871" r="2" fill="rgb(0,0,0)"/><circle cx="55.05050505050505" cy="420.39766546900717" r="2" fill="rgb(0,0,0)"/><circle cx="60.101010101010104" cy="406.71186648030357" r="2" fill="rgb(0,0,0)"/><circle cx="65.15151515151516" cy="423.00552395131155" r="2" fill="rgb(0,0,0)"/><circle cx="70.20202020202021" cy="405.3271735967163" r="2" fill="rgb(0,0,0)"/><circle cx="75.25252525252526" cy="365.4450680162098" r="2" fill="rgb(0,0,0)"/><circle cx="80.30303030303031" cy="306.9904858675677" r="2" fill="rgb(0,0,0)"/><circle cx="85.35353535353535" cy="396.5071716156833" r="2" fill="rgb(0,0,0)"/><circle cx="90.40404040404042" cy="303.10928713772705" r="2" fill="rgb(0,0,0)"/><circle cx="95.45454545454545" cy="384.39507189343243" r="2" fill="rgb(0,0,0)"/><circle cx="100.5050505050505" cy="297.7963746030413" r="2" fill="rgb(0,0,0)"/><circle cx="105.55555555555554" cy="297.5136756507043" r="2" fill="rgb(0,0,0)"/><circle cx="110.60606060606061" cy="386.4195627296697" r="2" fill="rgb(0,0,0)"/><circle cx="115.65656565656566" cy="409.09912223777224" r="2" fill="rgb(0,0,0)"/><circle cx="120.7070707070707" cy="312.91436970336406" r="2" fill="rgb(0,0,0)"/><circle cx="125.75757575757576" cy="393.80669427372845" r="2" fill="rgb(0,0,0)"/><circle cx="130.80808080808083" cy="211.9359580911954" r="2" fill="rgb(0,0,0)"/><circle cx="135.85858585858585" cy="308.5806759747905" r="2" fill="rgb(0,0,0)"/><circle cx="140.9090909090909" cy="368.2088079041092" r="2" fill="rgb(0,0,0)"/><circle cx="145.95959595959596" cy="366.65454666897745" r="2" fill="rgb(0,0,0)"/><circle cx="151.010101010101" cy="366.7692965347027" r="2" fill="rgb(0,0,0)"/><circle cx="156.06060606060606" cy="409.39586021337686" r="2" fill="rgb(0,0,0)"/><circle cx="161.1111111111111" cy="367.3235014378656" r="2" fill="rgb(0,0,0)"/><circle cx="166.16161616161617" cy="338.44300662237276" r="2" fill="rgb(0,0,0)"/><circle cx="171.21212121212122" cy="337.5048693843869" r="2" fill="rgb(0,0,0)"/><circle cx="176.26262626262627" cy="310.9297421271908" r="2" fill="rgb(0,0,0)"/><circle cx="181.31313131313132" cy="360.88396045673403" r="2" fill="rgb(0,0,0)"/><circle cx="186.36363636363635" cy="205.48528911265612" r="2" fill="rgb(0,0,0)"/><circle cx="191.4141414141414" cy="335.4865042486233" r="2" fill="rgb(0,0,0)"/><circle cx="196.46464646464648" cy="384.4660870034472" r="2" fill="rgb(0,0,0)"/><circle cx="201.51515151515153" cy="211.97746567398178" r="2" fill="rgb(0,0,0)"/><circle cx="206.56565656565658" cy="371.7545442396816" r="2" fill="rgb(0,0,0)"/><circle cx="211.61616161616163" cy="269.4866440068634" r="2" fill="rgb(0,0,0)"/><circle cx="216.66666666666666" cy="269.50722944909575" r="2" fill="rgb(0,0,0)"/><circle cx="221.7171717171717" cy="350.88998804347546" r="2" fill="rgb(0,0,0)"/><circle cx="226.76767676767676" cy="350.8215973486813" r="2" fill="rgb(0,0,0)"/><circle cx="231.8181818181818" cy="352.1096198450859" r="2" fill="rgb(0,0,0)"/><circle cx="236.86868686868686" cy="369.39084322524985" r="2" fill="rgb(0,0,0)"/><circle cx="241.91919191919192" cy="351.011261678591" r="2" fill="rgb(0,0,0)"/><circle cx="246.96969696969697" cy="411.48733690937104" r="2" fill="rgb(0,0,0)"/><circle cx="252.02020202020202" cy="353.14823767627115" r="2" fill="rgb(0,0,0)"/><circle cx="257.07070707070704" cy="322.8718211745935" r="2" fill="rgb(0,0,0)"/><circle cx="262.1212121212121" cy="358.92534891314324" r="2" fill="rgb(0,0,0)"/><circle cx="267.1717171717172" cy="280.32493672456445" r="2" fill="rgb(0,0,0)"/><circle cx="272.2222222222222" cy="408.07320503365986" r="2" fill="rgb(0,0,0)"/><circle cx="277.27272727272725" cy="409.23704153920403" r="2" fill="rgb(0,0,0)"/><circle cx="282.32323232323233" cy="226.75323794132464" r="2" fill="rgb(0,0,0)"/><circle cx="287.3737373737374" cy="317.6313550415724" r="2" fill="rgb(0,0,0)"/><circle cx="292.42424242424244" cy="317.33676861264416" r="2" fill="rgb(0,0,0)"/><circle cx="297.47474747474746" cy="282.729132179012" r="2" fill="rgb(0,0,0)"/><circle cx="302.52525252525254" cy="318.63175748299426" r="2" fill="rgb(0,0,0)"/><circle cx="307.57575757575756" cy="365.4307500181418" r="2" fill="rgb(0,0,0)"/><circle cx="312.62626262626264" cy="318.79798755174113" r="2" fill="rgb(0,0,0)"/><circle cx="317.67676767676767" cy="326.5518094947681" r="2" fill="rgb(0,0,0)"/><circle cx="322.7272727272727" cy="326.65137277159374" r="2" fill="rgb(0,0,0)"/><circle cx="327.77777777777777" cy="273.499980417594" r="2" fill="rgb(0,0,0)"/><circle cx="332.8282828282828" cy="330.71545307179963" r="2" fill="rgb(0,0,0)"/><circle cx="337.8787878787879" cy="64.135485411677" r="2" fill="rgb(0,0,0)"/><circle cx="342.92929292929296" cy="407.02945090907053" r="2" fill="rgb(0,0,0)"/><circle cx="347.979797979798" cy="407.03295554463443" r="2" fill="rgb(0,0,0)"/><circle cx="353.03030303030306" cy="407.4948932801617" r="2" fill="rgb(0,0,0)"/><circle cx="358.0808080808081" cy="400.5396215742667" r="2" fill="rgb(0,0,0)"/><circle cx="363.13131313131316" cy="281.84142155880363" r="2" fill="rgb(0,0,0)"/><circle cx="368.1818181818182" cy="187.12037618908795" r="2" fill="rgb(0,0,0)"/><circle cx="373.23232323232327" cy="302.40725868068455" r="2" fill="rgb(0,0,0)"/><circle cx="378.2828282828283" cy="302.35622509265227" r="2" fill="rgb(0,0,0)"/><circle cx="383.3333333333333" cy="321.86911572584177" r="2" fill="rgb(0,0,0)"/><circle cx="388.3838383838384" cy="345.39045482745826" r="2" fill="rgb(0,0,0)"/><circle cx="393.4343434343434" cy="323.0279542032471" r="2" fill="rgb(0,0,0)"/><circle cx="398.4848484848485" cy="336.8586417689937" r="2" fill="rgb(0,0,0)"/><circle cx="403.5353535353535" cy="361.12620753697746" r="2" fill="rgb(0,0,0)"/><circle cx="408.58585858585855" cy="122.12927496824278" r="2" fill="rgb(0,0,0)"/><circle cx="413.6363636363636" cy="399.9594985839284" r="2" fill="rgb(0,0,0)"/><circle cx="418.68686868686865" cy="401.03488929277296" r="2" fill="rgb(0,0,0)"/><circle cx="423.73737373737373" cy="404.488138668646" r="2" fill="rgb(0,0,0)"/><circle cx="428.7878787878788" cy="410.1078412898315" r="2" fill="rgb(0,0,0)"/><circle cx="433.83838383838383" cy="400.14045720632834" r="2" fill="rgb(0,0,0)"/><circle cx="438.8888888888889" cy="196.54675173029239" r="2" fill="rgb(0,0,0)"/><circle cx="443.93939393939394" cy="366.49002870516847" r="2" fill="rgb(0,0,0)"/><circle cx="448.989898989899" cy="366.5731842200433" r="2" fill="rgb(0,0,0)"/><circle cx="454.04040404040404" cy="322.44173944843976" r="2" fill="rgb(0,0,0)"/><circle cx="459.0909090909091" cy="359.56227069891247" r="2" fill="rgb(0,0,0)"/><circle cx="464.14141414141415" cy="330.1500695785592" r="2" fill="rgb(0,0,0)"/><circle cx="469.19191919191917" cy="401.0057702908917" r="2" fill="rgb(0,0,0)"/><circle cx="474.24242424242425" cy="385.9965273859482" r="2" fill="rgb(0,0,0)"/><circle cx="479.2929292929293" cy="329.54379058606764" r="2" fill="rgb(0,0,0)"/><circle cx="484.34343434343435" cy="337.4389092574473" r="2" fill="rgb(0,0,0)"/><circle cx="489.3939393939394" cy="380.0155430741388" r="2" fill="rgb(0,0,0)"/><circle cx="494.4444444444444" cy="380.7123856835624" r="2" fill="rgb(0,0,0)"/><circle cx="499.4949494949495" cy="409.43361545402263" r="2" fill="rgb(0,0,0)"/><circle cx="504.5454545454545" cy="340.99887248511715" r="2" fill="rgb(0,0,0)"/><circle cx="509.59595959595964" cy="356.79921311348176" r="2" fill="rgb(0,0,0)"/><circle cx="514.6464646464647" cy="356.7995662082884" r="2" fill="rgb(0,0,0)"/><circle cx="519.6969696969697" cy="392.0663346013022" r="2" fill="rgb(0,0,0)"/><circle cx="524.7474747474748" cy="196.34749983845626" r="2" fill="rgb(0,0,0)"/><circle cx="529.7979797979798" cy="348.6558233192666" r="2" fill="rgb(0,0,0)"/><circle cx="534.8484848484849" cy="349.9996788608637" r="2" fill="rgb(0,0,0)"/><circle cx="539.8989898989898" cy="351.94457729706846" r="2" fill="rgb(0,0,0)"/><circle cx="544.9494949494949" cy="309.63801769905683" r="2" fill="rgb(0,0,0)"/><circle cx="550.0" cy="321.8568511983366" r="2" fill="rgb(0,0,0)"/><polyline points="50.0,228.47902471107045 55.05050505050505,199.0405078142382 60.101010101010104,179.43520604509064 65.15151515151516,168.71430880860964 70.20202020202021,150.66769467700544 75.25252525252526,130.65438027678522 80.30303030303031,112.28018438343224 85.35353535353535,104.71464634038983 90.40404040404042,94.09112798582913 95.45454545454545,86.672868889384 100.5050505050505,73.25330771631684 105.55555555555554,71.78936058080319 110.60606060606061,75.30663565942541 115.65656565656566,71.14717614815879 120.7070707070707,62.74531627105932 125.75757575757576,66.2114249798297 130.80808080808083,60.88987177584892 135.85858585858585,64.80448577729169 140.9090909090909,73.32161419402291 145.95959595959596,64.22992188729302 151.010101010101,62.64291154080007 156.06060606060606,72.03971178833115 161.1111111111111,66.12374202638529 166.16161616161617,60.086992913989434 171.21212121212122,61.219571528616996 176.26262626262627,69.17697238766908 181.31313131313132,70.50468086497244 186.36363636363635,59.288036274689944 191.4141414141414,65.98962000176783 196.46464646464648,63.50349747358581 201.51515151515153,58.61181797475302 206.56565656565658,62.04399624026229 211.61616161616163,61.21159741159272 216.66666666666666,61.98607598650079 221.7171717171717,65.34356620991258 226.76767676767676,62.23152295286832 231.8181818181818,64.97541711366057 236.86868686868686,64.44313511568794 241.91919191919192,59.31441983685511 246.96969696969697,63.21132414149878 252.02020202020202,65.43858211815581 257.07070707070704,62.28077562000641 262.1212121212121,63.114841430272634 267.1717171717172,66.59678911661922 272.2222222222222,74.6137991723757 277.27272727272725,68.3190742251827 282.32323232323233,60.71210850662288 287.3737373737374,62.4144764236994 292.42424242424244,64.3960862643637 297.47474747474746,60.82906453385675 302.52525252525254,63.29592546082483 307.57575757575756,67.8069967901273 312.62626262626264,65.90693101112856 317.67676767676767,69.48064150460965 322.7272727272727,70.82941867326946 327.77777777777777,61.173576221930375 332.8282828282828,59.57569281755849 337.8787878787879,54.80605219847729 342.92929292929296,59.56305696032217 347.979797979798,67.78344101704909 353.03030303030306,72.7047413392093 358.0808080808081,72.7319973249044 363.13131313131316,61.12857464775499 368.1818181818182,61.57448788630683 373.23232323232327,68.4311632859567 378.2828282828283,65.26576730973159 383.3333333333333,63.08124477842807 388.3838383838384,64.76966045028985 393.4343434343434,62.661793096138126 398.4848484848485,70.54634704990474 403.5353535353535,67.73038485878288 408.58585858585855,53.9683919816261 413.6363636363636,58.30206935648346 418.68686868686865,60.5037706371582 423.73737373737373,68.74701884608646 428.7878787878788,68.62348734477246 433.83838383838383,61.530320476024315 438.8888888888889,53.421288622538896 443.93939393939394,66.07801336373183 448.989898989899,70.44519139812337 454.04040404040404,67.95610118412253 459.0909090909091,79.5046022454589 464.14141414141415,68.50487260477183 469.19191919191917,72.42407862257488 474.24242424242425,64.84929878837835 479.2929292929293,58.08133668284154 484.34343434343435,57.457446823727196 489.3939393939394,64.75232537282943 494.4444444444444,72.44036553418204 499.4949494949495,78.56538259129354 504.5454545454545,61.13621818582271 509.59595959595964,63.43461882898407 514.6464646464647,66.26330403851216 519.6969696969697,73.76840093174036 524.7474747474748,57.00436690790042 529.7979797979798,57.94995450355714 534.8484848484849,55.99658627589713 539.8989898989898,60.63202487320558 544.9494949494949,54.04900705546527 550.0,61.15493808895894" fill="none" stroke="rgb(0,0,255)" stroke-width="1"/><circle cx="50.0" cy="228.47902471107045" r="2" fill="rgb(0,0,255)"/><circle cx="55.05050505050505" cy="199.0405078142382" r="2" fill="rgb(0,0,255)"/><circle cx="60.101010101010104" cy="179.43520604509064" r="2" fill="rgb(0,0,255)"/><circle cx="65.15151515151516" cy="168.71430880860964" r="2" fill="rgb(0,0,255)"/><circle cx="70.20202020202021" cy="150.66769467700544" r="2" fill="rgb(0,0,255)"/><circle cx="75.25252525252526" cy="130.65438027678522" r="2" fill="rgb(0,0,255)"/><circle cx="80.30303030303031" cy="112.28018438343224" r="2" fill="rgb(0,0,255)"/><circle cx="85.35353535353535" cy="104.71464634038983" r="2" fill="rgb(0,0,255)"/><circle cx="90.40404040404042" cy="94.09112798582913" r="2" fill="rgb(0,0,255)"/><circle cx="95.45454545454545" cy="86.672868889384" r="2" fill="rgb(0,0,255)"/><circle cx="100.5050505050505" cy="73.25330771631684" r="2" fill="rgb(0,0,255)"/><circle cx="105.55555555555554" cy="71.78936058080319" r="2" fill="rgb(0,0,255)"/><circle cx="110.60606060606061" cy="75.30663565942541" r="2" fill="rgb(0,0,255)"/><circle cx="115.65656565656566" cy="71.14717614815879" r="2" fill="rgb(0,0,255)"/><circle cx="120.7070707070707" cy="62.74531627105932" r="2" fill="rgb(0,0,255)"/><circle cx="125.75757575757576" cy="66.2114249798297" r="2" fill="rgb(0,0,255)"/><circle cx="130.80808080808083" cy="60.88987177584892" r="2" fill="rgb(0,0,255)"/><circle cx="135.85858585858585" cy="64.80448577729169" r="2" fill="rgb(0,0,255)"/><circle cx="140.9090909090909" cy="73.32161419402291" r="2" fill="rgb(0,0,255)"/><circle cx="145.95959595959596" cy="64.22992188729302" r="2" fill="rgb(0,0,255)"/><circle cx="151.010101010101" cy="62.64291154080007" r="2" fill="rgb(0,0,255)"/><circle cx="156.06060606060606" cy="72.03971178833115" r="2" fill="rgb(0,0,255)"/><circle cx="161.1111111111111" cy="66.12374202638529" r="2" fill="rgb(0,0,255)"/><circle cx="166.16161616161617" cy="60.086992913989434" r="2" fill="rgb(0,0,255)"/><circle cx="171.21212121212122" cy="61.219571528616996" r="2" fill="rgb(0,0,255)"/><circle cx="176.26262626262627" cy="69.17697238766908" r="2" fill="rgb(0,0,255)"/><circle cx="181.31313131313132" cy="70.50468086497244" r="2" fill="rgb(0,0,255)"/><circle cx="186.36363636363635" cy="59.288036274689944" r="2" fill="rgb(0,0,255)"/><circle cx="191.4141414141414" cy="65.98962000176783" r="2" fill="rgb(0,0,255)"/><circle cx="196.46464646464648" cy="63.50349747358581" r="2" fill="rgb(0,0,255)"/><circle cx="201.51515151515153" cy="58.61181797475302" r="2" fill="rgb(0,0,255)"/><circle cx="206.56565656565658" cy="62.04399624026229" r="2" fill="rgb(0,0,255)"/><circle cx="211.61616161616163" cy="61.21159741159272" r="2" fill="rgb(0,0,255)"/><circle cx="216.66666666666666" cy="61.98607598650079" r="2" fill="rgb(0,0,255)"/><circle cx="221.7171717171717" cy="65.34356620991258" r="2" fill="rgb(0,0,255)"/><circle cx="226.76767676767676" cy="62.23152295286832" r="2" fill="rgb(0,0,255)"/><circle cx="231.8181818181818" cy="64.97541711366057" r="2" fill="rgb(0,0,255)"/><circle cx="236.86868686868686" cy="64.44313511568794" r="2" fill="rgb(0,0,255)"/><circle cx="241.91919191919192" cy="59.31441983685511" r="2" fill="rgb(0,0,255)"/><circle cx="246.96969696969697" cy="63.21132414149878" r="2" fill="rgb(0,0,255)"/><circle cx="252.02020202020202" cy="65.43858211815581" r="2" fill="rgb(0,0,255)"/><circle cx="257.07070707070704" cy="62.28077562000641" r="2" fill="rgb(0,0,255)"/><circle cx="262.1212121212121" cy="63.114841430272634" r="2" fill="rgb(0,0,255)"/><circle cx="267.1717171717172" cy="66.59678911661922" r="2" fill="rgb(0,0,255)"/><circle cx="272.2222222222222" cy="74.6137991723757" r="2" fill="rgb(0,0,255)"/><circle cx="277.27272727272725" cy="68.3190742251827" r="2" fill="rgb(0,0,255)"/><circle cx="282.32323232323233" cy="60.71210850662288" r="2" fill="rgb(0,0,255)"/><circle cx="287.3737373737374" cy="62.4144764236994" r="2" fill="rgb(0,0,255)"/><circle cx="292.42424242424244" cy="64.3960862643637" r="2" fill="rgb(0,0,255)"/><circle cx="297.47474747474746" cy="60.82906453385675" r="2" fill="rgb(0,0,255)"/><circle cx="302.52525252525254" cy="63.29592546082483" r="2" fill="rgb(0,0,255)"/><circle cx="307.57575757575756" cy="67.8069967901273" r="2" fill="rgb(0,0,255)"/><circle cx="312.62626262626264" cy="65.90693101112856" r="2" fill="rgb(0,0,255)"/><circle cx="317.67676767676767" cy="69.48064150460965" r="2" fill="rgb(0,0,255)"/><circle cx="322.7272727272727" cy="70.82941867326946" r="2" fill="rgb(0,0,255)"/><circle cx="327.77777777777777" cy="61.173576221930375" r="2" fill="rgb(0,0,255)"/><circle cx="332.8282828282828" cy="59.57569281755849" r="2" fill="rgb(0,0,255)"/><circle cx="337.8787878787879" cy="54.80605219847729" r="2" fill="rgb(0,0,255)"/><circle cx="342.92929292929296" cy="59.56305696032217" r="2" fill="rgb(0,0,255)"/><circle cx="347.979797979798" cy="67.78344101704909" r="2" fill="rgb(0,0,255)"/><circle cx="353.03030303030306" cy="72.7047413392093" r="2" fill="rgb(0,0,255)"/><circle cx="358.0808080808081" cy="72.7319973249044" r="2" fill="rgb(0,0,255)"/><circle cx="363.13131313131316" cy="61.12857464775499" r="2" fill="rgb(0,0,255)"/><circle cx="368.1818181818182" cy="61.57448788630683" r="2" fill="rgb(0,0,255)"/><circle cx="373.23232323232327" cy="68.4311632859567" r="2" fill="rgb(0,0,255)"/><circle cx="378.2828282828283" cy="65.26576730973159" r="2" fill="rgb(0,0,255)"/><circle cx="383.3333333333333" cy="63.08124477842807" r="2" fill="rgb(0,0,255)"/><circle cx="388.3838383838384" cy="64.76966045028985" r="2" fill="rgb(0,0,255)"/><circle cx="393.4343434343434" cy="62.661793096138126" r="2" fill="rgb(0,0,255)"/><circle cx="398.4848484848485" cy="70.54634704990474" r="2" fill="rgb(0,0,255)"/><circle cx="403.5353535353535" cy="67.73038485878288" r="2" fill="rgb(0,0,255)"/><circle cx="408.58585858585855" cy="53.9683919816261" r="2" fill="rgb(0,0,255)"/><circle cx="413.6363636363636" cy="58.30206935648346" r="2" fill="rgb(0,0,255)"/><circle cx="418.68686868686865" cy="60.5037706371582" r="2" fill="rgb(0,0,255)"/><circle cx="423.73737373737373" cy="68.74701884608646" r="2" fill="rgb(0,0,255)"/><circle cx="428.7878787878788" cy="68.62348734477246" r="2" fill="rgb(0,0,255)"/><circle cx="433.83838383838383" cy="61.530320476024315" r="2" fill="rgb(0,0,255)"/><circle cx="438.8888888888889" cy="53.421288622538896" r="2" fill="rgb(0,0,255)"/><circle cx="443.93939393939394" cy="66.07801336373183" r="2" fill="rgb(0,0,255)"/><circle cx="448.989898989899" cy="70.44519139812337" r="2" fill="rgb(0,0,255)"/><circle cx="454.04040404040404" cy="67.95610118412253" r="2" fill="rgb(0,0,255)"/><circle cx="459.0909090909091" cy="79.5046022454589" r="2" fill="rgb(0,0,255)"/><circle cx="464.14141414141415" cy="68.50487260477183" r="2" fill="rgb(0,0,255)"/><circle cx="469.19191919191917" cy="72.42407862257488" r="2" fill="rgb(0,0,255)"/><circle cx="474.24242424242425" cy="64.84929878837835" r="2" fill="rgb(0,0,255)"/><circle cx="479.2929292929293" cy="58.08133668284154" r="2" fill="rgb(0,0,255)"/><circle cx="484.34343434343435" cy="57.457446823727196" r="2" fill="rgb(0,0,255)"/><circle cx="489.3939393939394" cy="64.75232537282943" r="2" fill="rgb(0,0,255)"/><circle cx="494.4444444444444" cy="72.44036553418204" r="2" fill="rgb(0,0,255)"/><circle cx="499.4949494949495" cy="78.56538259129354" r="2" fill="rgb(0,0,255)"/><circle cx="504.5454545454545" cy="61.13621818582271" r="2" fill="rgb(0,0,255)"/><circle cx="509.59595959595964" cy="63.43461882898407" r="2" fill="rgb(0,0,255)"/><circle cx="514.6464646464647" cy="66.26330403851216" r="2" fill="rgb(0,0,255)"/><circle cx="519.6969696969697" cy="73.76840093174036" r="2" fill="rgb(0,0,255)"/><circle cx="524.7474747474748" cy="57.00436690790042" r="2" fill="rgb(0,0,255)"/><circle cx="529.7979797979798" cy="57.94995450355714" r="2" fill="rgb(0,0,255)"/><circle cx="534.8484848484849" cy="55.99658627589713" r="2" fill="rgb(0,0,255)"/><circle cx="539.8989898989898" cy="60.63202487320558" r="2" fill="rgb(0,0,255)"/><circle cx="544.9494949494949" cy="54.04900705546527" r="2" fill="rgb(0,0,255)"/><circle cx="550.0" cy="61.15493808895894" r="2" fill="rgb(0,0,255)"/><polyline points="50.0,57.14367013432894 55.05050505050505,57.45130706570711 60.101010101010104,56.29554817090133 65.15151515151516,55.933840455827465 70.20202020202021,56.61019283839602 75.25252525252526,56.843858848652076 80.30303030303031,56.45825241337121 85.35353535353535,55.82868730630565 90.40404040404042,56.13480229326461 95.45454545454545,56.22555567681809 100.5050505050505,56.57900065886139 105.55555555555554,56.41342201523969 110.60606060606061,55.87842452021681 115.65656565656566,54.88346453238324 120.7070707070707,54.729358727156864 125.75757575757576,54.6217114145075 130.80808080808083,54.708553637244734 135.85858585858585,54.61998019528761 140.9090909090909,54.62499382217794 145.95959595959596,54.823407706510125 151.010101010101,54.750998032113046 156.06060606060606,54.92770909132588 161.1111111111111,54.73192087213545 166.16161616161617,54.70587939122652 171.21212121212122,54.92011045525618 176.26262626262627,54.75433939403257 181.31313131313132,54.74829826937952 186.36363636363635,54.807648220967906 191.4141414141414,54.76619885970513 196.46464646464648,54.80739048236666 201.51515151515153,54.37077512299646 206.56565656565658,54.5046473796732 211.61616161616163,54.61813260392762 216.66666666666666,54.19022613013931 221.7171717171717,54.04110430476089 226.76767676767676,53.99329867996295 231.8181818181818,54.34781228825642 236.86868686868686,54.197456840803284 241.91919191919192,54.201758923262105 246.96969696969697,54.1457563937073 252.02020202020202,54.078714524409065 257.07070707070704,54.185989957922175 262.1212121212121,54.17539600462845 267.1717171717172,54.17539600462845 272.2222222222222,54.05771801750876 277.27272727272725,54.12955863297668 282.32323232323233,54.050071625984344 287.3737373737374,53.98904681080148 292.42424242424244,54.02528552970625 297.47474747474746,54.03837046060454 302.52525252525254,53.817903766610414 307.57575757575756,54.02090586290939 312.62626262626264,54.02090586290939 317.67676767676767,54.00244093772375 322.7272727272727,54.00139070527587 327.77777777777777,51.550801044565105 332.8282828282828,50.55874281125091 337.8787878787879,50.43809677202063 342.92929292929296,50.43809677202063 347.979797979798,50.38475862850214 353.03030303030306,50.38475862850214 358.0808080808081,50.38475862850214 363.13131313131316,50.443115915014346 368.1818181818182,50.0602003270555 373.23232323232327,50.02188127509294 378.2828282828283,50.02188127509294 383.3333333333333,50.091069324127886 388.3838383838384,50.11265191352044 393.4343434343434,50.09681589192314 398.4848484848485,50.06055342186215 403.5353535353535,50.098712119821414 408.58585858585855,50.04400089578269 413.6363636363636,50.04364780097603 418.68686868686865,50.04364780097603 423.73737373737373,50.06055342186215 428.7878787878788,50.099065214628126 433.83838383838383,50.099065214628126 438.8888888888889,50.098712119821414 443.93939393939394,50.04791971136865 448.989898989899,50.0641191426414 454.04040404040404,50.081953771617975 459.0909090909091,50.05838666189538 464.14141414141415,50.05838666189538 469.19191919191917,50.074538532774454 474.24242424242425,50.098712119821414 479.2929292929293,50.07489162758105 484.34343434343435,50.05838666189538 489.3939393939394,50.09648795753509 494.4444444444444,50.05803356708873 499.4949494949495,50.05803356708873 504.5454545454545,50.03448033453304 509.59595959595964,50.05803356708873 514.6464646464647,50.041031647539285 519.6969696969697,50.03029546586595 524.7474747474748,50.00105518625696 529.7979797979798,50.02994237105929 534.8484848484849,50.02994237105929 539.8989898989898,50.02994237105929 544.9494949494949,50.0 550.0,50.015431419673746" fill="none" stroke="rgb(0,255,0)" stroke-width="1"/><circle cx="50.0" cy="57.14367013432894" r="2" fill="rgb(0,255,0)"/><circle cx="55.05050505050505" cy="57.45130706570711" r="2" fill="rgb(0,255,0)"/><circle cx="60.101010101010104" cy="56.29554817090133" r="2" fill="rgb(0,255,0)"/><circle cx="65.15151515151516" cy="55.933840455827465" r="2" fill="rgb(0,255,0)"/><circle cx="70.20202020202021" cy="56.61019283839602" r="2" fill="rgb(0,255,0)"/><circle cx="75.25252525252526" cy="56.843858848652076" r="2" fill="rgb(0,255,0)"/><circle cx="80.30303030303031" cy="56.45825241337121" r="2" fill="rgb(0,255,0)"/><circle cx="85.35353535353535" cy="55.82868730630565" r="2" fill="rgb(0,255,0)"/><circle cx="90.40404040404042" cy="56.13480229326461" r="2" fill="rgb(0,255,0)"/><circle cx="95.45454545454545" cy="56.22555567681809" r="2" fill="rgb(0,255,0)"/><circle cx="100.5050505050505" cy="56.57900065886139" r="2" fill="rgb(0,255,0)"/><circle cx="105.55555555555554" cy="56.41342201523969" r="2" fill="rgb(0,255,0)"/><circle cx="110.60606060606061" cy="55.87842452021681" r="2" fill="rgb(0,255,0)"/><circle cx="115.65656565656566" cy="54.88346453238324" r="2" fill="rgb(0,255,0)"/><circle cx="120.7070707070707" cy="54.729358727156864" r="2" fill="rgb(0,255,0)"/><circle cx="125.75757575757576" cy="54.6217114145075" r="2" fill="rgb(0,255,0)"/><circle cx="130.80808080808083" cy="54.708553637244734" r="2" fill="rgb(0,255,0)"/><circle cx="135.85858585858585" cy="54.61998019528761" r="2" fill="rgb(0,255,0)"/><circle cx="140.9090909090909" cy="54.62499382217794" r="2" fill="rgb(0,255,0)"/><circle cx="145.95959595959596" cy="54.823407706510125" r="2" fill="rgb(0,255,0)"/><circle cx="151.010101010101" cy="54.750998032113046" r="2" fill="rgb(0,255,0)"/><circle cx="156.06060606060606" cy="54.92770909132588" r="2" fill="rgb(0,255,0)"/><circle cx="161.1111111111111" cy="54.73192087213545" r="2" fill="rgb(0,255,0)"/><circle cx="166.16161616161617" cy="54.70587939122652" r="2" fill="rgb(0,255,0)"/><circle cx="171.21212121212122" cy="54.92011045525618" r="2" fill="rgb(0,255,0)"/><circle cx="176.26262626262627" cy="54.75433939403257" r="2" fill="rgb(0,255,0)"/><circle cx="181.31313131313132" cy="54.74829826937952" r="2" fill="rgb(0,255,0)"/><circle cx="186.36363636363635" cy="54.807648220967906" r="2" fill="rgb(0,255,0)"/><circle cx="191.4141414141414" cy="54.76619885970513" r="2" fill="rgb(0,255,0)"/><circle cx="196.46464646464648" cy="54.80739048236666" r="2" fill="rgb(0,255,0)"/><circle cx="201.51515151515153" cy="54.37077512299646" r="2" fill="rgb(0,255,0)"/><circle cx="206.56565656565658" cy="54.5046473796732" r="2" fill="rgb(0,255,0)"/><circle cx="211.61616161616163" cy="54.61813260392762" r="2" fill="rgb(0,255,0)"/><circle cx="216.66666666666666" cy="54.19022613013931" r="2" fill="rgb(0,255,0)"/><circle cx="221.7171717171717" cy="54.04110430476089" r="2" fill="rgb(0,255,0)"/><circle cx="226.76767676767676" cy="53.99329867996295" r="2" fill="rgb(0,255,0)"/><circle cx="231.8181818181818" cy="54.34781228825642" r="2" fill="rgb(0,255,0)"/><circle cx="236.86868686868686" cy="54.197456840803284" r="2" fill="rgb(0,255,0)"/><circle cx="241.91919191919192" cy="54.201758923262105" r="2" fill="rgb(0,255,0)"/><circle cx="246.96969696969697" cy="54.1457563937073" r="2" fill="rgb(0,255,0)"/><circle cx="252.02020202020202" cy="54.078714524409065" r="2" fill="rgb(0,255,0)"/><circle cx="257.07070707070704" cy="54.185989957922175" r="2" fill="rgb(0,255,0)"/><circle cx="262.1212121212121" cy="54.17539600462845" r="2" fill="rgb(0,255,0)"/><circle cx="267.1717171717172" cy="54.17539600462845" r="2" fill="rgb(0,255,0)"/><circle cx="272.2222222222222" cy="54.05771801750876" r="2" fill="rgb(0,255,0)"/><circle cx="277.27272727272725" cy="54.12955863297668" r="2" fill="rgb(0,255,0)"/><circle cx="282.32323232323233" cy="54.050071625984344" r="2" fill="rgb(0,255,0)"/><circle cx="287.3737373737374" cy="53.98904681080148" r="2" fill="rgb(0,255,0)"/><circle cx="292.42424242424244" cy="54.02528552970625" r="2" fill="rgb(0,255,0)"/><circle cx="297.47474747474746" cy="54.03837046060454" r="2" fill="rgb(0,255,0)"/><circle cx="302.52525252525254" cy="53.817903766610414" r="2" fill="rgb(0,255,0)"/><circle cx="307.57575757575756" cy="54.02090586290939" r="2" fill="rgb(0,255,0)"/><circle cx="312.62626262626264" cy="54.02090586290939" r="2" fill="rgb(0,255,0)"/><circle cx="317.67676767676767" cy="54.00244093772375" r="2" fill="rgb(0,255,0)"/><circle cx="322.7272727272727" cy="54.00139070527587" r="2" fill="rgb(0,255,0)"/><circle cx="327.77777777777777" cy="51.550801044565105" r="2" fill="rgb(0,255,0)"/><circle cx="332.8282828282828" cy="50.55874281125091" r="2" fill="rgb(0,255,0)"/><circle cx="337.8787878787879" cy="50.43809677202063" r="2" fill="rgb(0,255,0)"/><circle cx="342.92929292929296" cy="50.43809677202063" r="2" fill="rgb(0,255,0)"/><circle cx="347.979797979798" cy="50.38475862850214" r="2" fill="rgb(0,255,0)"/><circle cx="353.03030303030306" cy="50.38475862850214" r="2" fill="rgb(0,255,0)"/><circle cx="358.0808080808081" cy="50.38475862850214" r="2" fill="rgb(0,255,0)"/><circle cx="363.13131313131316" cy="50.443115915014346" r="2" fill="rgb(0,255,0)"/><circle cx="368.1818181818182" cy="50.0602003270555" r="2" fill="rgb(0,255,0)"/><circle cx="373.23232323232327" cy="50.02188127509294" r="2" fill="rgb(0,255,0)"/><circle cx="378.2828282828283" cy="50.02188127509294" r="2" fill="rgb(0,255,0)"/><circle cx="383.3333333333333" cy="50.091069324127886" r="2" fill="rgb(0,255,0)"/><circle cx="388.3838383838384" cy="50.11265191352044" r="2" fill="rgb(0,255,0)"/><circle cx="393.4343434343434" cy="50.09681589192314" r="2" fill="rgb(0,255,0)"/><circle cx="398.4848484848485" cy="50.06055342186215" r="2" fill="rgb(0,255,0)"/><circle cx="403.5353535353535" cy="50.098712119821414" r="2" fill="rgb(0,255,0)"/><circle cx="408.58585858585855" cy="50.04400089578269" r="2" fill="rgb(0,255,0)"/><circle cx="413.6363636363636" cy="50.04364780097603" r="2" fill="rgb(0,255,0)"/><circle cx="418.68686868686865" cy="50.04364780097603" r="2" fill="rgb(0,255,0)"/><circle cx="423.73737373737373" cy="50.06055342186215" r="2" fill="rgb(0,255,0)"/><circle cx="428.7878787878788" cy="50.099065214628126" r="2" fill="rgb(0,255,0)"/><circle cx="433.83838383838383" cy="50.099065214628126" r="2" fill="rgb(0,255,0)"/><circle cx="438.8888888888889" cy="50.098712119821414" r="2" fill="rgb(0,255,0)"/><circle cx="443.93939393939394" cy="50.04791971136865" r="2" fill="rgb(0,255,0)"/><circle cx="448.989898989899" cy="50.0641191426414" r="2" fill="rgb(0,255,0)"/><circle cx="454.04040404040404" cy="50.081953771617975" r="2" fill="rgb(0,255,0)"/><circle cx="459.0909090909091" cy="50.05838666189538" r="2" fill="rgb(0,255,0)"/><circle cx="464.14141414141415" cy="50.05838666189538" r="2" fill="rgb(0,255,0)"/><circle cx="469.19191919191917" cy="50.074538532774454" r="2" fill="rgb(0,255,0)"/><circle cx="474.24242424242425" cy="50.098712119821414" r="2" fill="rgb(0,255,0)"/><circle cx="479.2929292929293" cy="50.07489162758105" r="2" fill="rgb(0,255,0)"/><circle cx="484.34343434343435" cy="50.05838666189538" r="2" fill="rgb(0,255,0)"/><circle cx="489.3939393939394" cy="50.09648795753509" r="2" fill="rgb(0,255,0)"/><circle cx="494.4444444444444" cy="50.05803356708873" r="2" fill="rgb(0,255,0)"/><circle cx="499.4949494949495" cy="50.05803356708873" r="2" fill="rgb(0,255,0)"/><circle cx="504.5454545454545" cy="50.03448033453304" r="2" fill="rgb(0,255,0)"/><circle cx="509.59595959595964" cy="50.05803356708873" r="2" fill="rgb(0,255,0)"/><circle cx="514.6464646464647" cy="50.041031647539285" r="2" fill="rgb(0,255,0)"/><circle cx="519.6969696969697" cy="50.03029546586595" r="2" fill="rgb(0,255,0)"/><circle cx="524.7474747474748" cy="50.00105518625696" r="2" fill="rgb(0,255,0)"/><circle cx="529.7979797979798" cy="50.02994237105929" r="2" fill="rgb(0,255,0)"/><circle cx="534.8484848484849" cy="50.02994237105929" r="2" fill="rgb(0,255,0)"/><circle cx="539.8989898989898" cy="50.02994237105929" r="2" fill="rgb(0,255,0)"/><circle cx="544.9494949494949" cy="50.0" r="2" fill="rgb(0,255,0)"/><circle cx="550.0" cy="50.015431419673746" r="2" fill="rgb(0,255,0)"/><text x="350.0" y="20.0" text-anchor="middle" fill="rgb(0,0,0)" font-size="20.0">GA Demo</text><text x="350.0" y="575.0" text-anchor="middle" fill="rgb(0,0,0)" font-size="12.0">generation</text><text transform="rotate(-90.0 20.0 300.0)" x="20.0" y="300.0" text-anchor="middle" fill="rgb(0,0,0)" font-size="12.0">fitness</text><text x="620" y="62" fill="rgb(0,0,0)" font-size="12">min</text><text x="620" y="74" fill="rgb(0,0,255)" font-size="12">ave</text><text x="620" y="86" fill="rgb(0,255,0)" font-size="12">max</text>
      Sorry, your browser does not support inline SVG.
    </svg>