<?xml version='1.0' encoding='UTF-8'?>
<svg version="1.1" width="700.0" height="600.0" onload="init(evt)" xmlns="http://www.w3.org/2000/svg">
      <style>.caption {
  font-size: 14px;
  font-family: Georgia, serif;
}
</style>
      <script type="text/ecmascript"><![CDATA[
function init(evt) {
  if ( window.svgDocument == null ) {
    svgDocument = evt.target.ownerDocument;
  }
}

function RectHover(evt, i, c) {
  rect = svgDocument.getElementById('rect' + i);
  if( c != null ) {
    rect.setAttributeNS(null, "fill", c)  
  }
  tooltiptext = svgDocument.getElementById('tooltiptext' + i);
  tooltipbg = svgDocument.getElementById('tooltipbg' + i);
  if( tooltipbg != null) {
    tbb = tooltiptext.getBBox();
    tooltipbg.setAttributeNS(null, "width", tbb.width);
    tooltipbg.setAttributeNS(null, "height", tbb.height);
    tooltipbg.setAttributeNS(null, "x", tbb.x);
    tooltipbg.setAttributeNS(null, "y", tbb.y);
    tooltipbg.setAttributeNS(null, "visibility", "visible");
  }
  tooltiptext.setAttributeNS(null,"visibility","visible");
}

function RectUnhover(evt, i, c) {
  rect = svgDocument.getElementById('rect' + i);
  if( c != null ) {
    rect.setAttributeNS(null, "fill", c)  
  }
  tooltiptext = svgDocument.getElementById('tooltiptext' + i);
  tooltiptext.setAttributeNS(null,"visibility","hidden");
  tooltipbg = svgDocument.getElementById('tooltipbg' + i);
  if( tooltipbg != null ) {
    tooltipbg.setAttributeNS(null,"visibility","hidden");
  }
}
]]></script>
      <line x1="50.0" y1="550.0" x2="550.0" y2="550.0" stroke="rgb(0,0,0)" stroke-width="1"/><line x1="50.0" y1="550.0" x2="50.0" y2="50.0" stroke="rgb(0,0,0)" stroke-width="1"/><line x1="50.0" y1="550.0" x2="50.0" y2="50.0" stroke="rgb(192,192,192)" stroke-width="1"/><line x1="50.0" y1="548.0" x2="50.0" y2="552.0" stroke="rgb(192,192,192)" stroke-width="1"/><text text-anchor="middle" alignment-baseline="hanging" x="50.0" y="553.0" font-size="12.0">0</text><line x1="100.5050505050505" y1="550.0" x2="100.5050505050505" y2="50.0" stroke="rgb(192,192,192)" stroke-width="1"/><line x1="100.5050505050505" y1="548.0" x2="100.5050505050505" y2="552.0" stroke="rgb(192,192,192)" stroke-width="1"/><text text-anchor="middle" alignment-baseline="hanging" x="100.5050505050505" y="553.0" font-size="12.0">10</text><line x1="151.010101010101" y1="550.0" x2="151.010101010101" y2="50.0" stroke="rgb(192,192,192)" stroke-width="1"/><line x1="151.010101010101" y1="548.0" x2="151.010101010101" y2="552.0" stroke="rgb(192,192,192)" stroke-width="1"/><text text-anchor="middle" alignment-baseline="hanging" x="151.010101010101" y="553.0" font-size="12.0">20</text><line x1="201.51515151515153" y1="550.0" x2="201.51515151515153" y2="50.0" stroke="rgb(192,192,192)" stroke-width="1"/><line x1="201.51515151515153" y1="548.0" x2="201.51515151515153" y2="552.0" stroke="rgb(192,192,192)" stroke-width="1"/><text text-anchor="middle" alignment-baseline="hanging" x="201.51515151515153" y="553.0" font-size="12.0">30</text><line x1="252.02020202020202" y1="550.0" x2="252.02020202020202" y2="50.0" stroke="rgb(192,192,192)" stroke-width="1"/><line x1="252.02020202020202" y1="548.0" x2="252.02020202020202" y2="552.0" stroke="rgb(192,192,192)" stroke-width="1"/><text text-anchor="middle" alignment-baseline="hanging" x="252.02020202020202" y="553.0" font-size="12.0">40</text><line x1="302.52525252525254" y1="550.0" x2="302.52525252525254" y2="50.0" stroke="rgb(192,192,192)" stroke-width="1"/><line x1="302.52525252525254" y1="548.0" x2="302.52525252525254" y2="552.0" stroke="rgb(192,192,192)" stroke-width="1"/><text text-anchor="middle" alignment-baseline="hanging" x="302.52525252525254" y="553.0" font-size="12.0">50</text><line x1="353.03030303030306" y1="550.0" x2="353.03030303030306" y2="50.0" stroke="rgb(192,192,192)" stroke-width="1"/><line x1="353.03030303030306" y1="548.0" x2="353.03030303030306" y2="552.0" stroke="rgb(192,192,192)" stroke-width="1"/><text text-anchor="middle" alignment-baseline="hanging" x="353.03030303030306" y="553.0" font-size="12.0">60</text><line x1="403.5353535353535" y1="550.0" x2="403.5353535353535" y2="50.0" stroke="rgb(192,192,192)" stroke-width="1"/><line x1="403.5353535353535" y1="548.0" x2="403.5353535353535" y2="552.0" stroke="rgb(192,192,192)" stroke-width="1"/><text text-anchor="middle" alignment-baseline="hanging" x="403.5353535353535" y="553.0" font-size="12.0">70</text><line x1="454.04040404040404" y1="550.0" x2="454.04040404040404" y2="50.0" stroke="rgb(192,192,192)" stroke-width="1"/><line x1="454.04040404040404" y1="548.0" x2="454.04040404040404" y2="552.0" stroke="rgb(192,192,192)" stroke-width="1"/><text text-anchor="middle" alignment-baseline="hanging" x="454.04040404040404" y="553.0" font-size="12.0">80</text><line x1="504.5454545454545" y1="550.0" x2="504.5454545454545" y2="50.0" stroke="rgb(192,192,192)" stroke-width="1"/><line x1="504.5454545454545" y1="548.0" x2="504.5454545454545" y2="552.0" stroke="rgb(192,192,192)" stroke-width="1"/><text text-anchor="middle" alignment-baseline="hanging" x="504.5454545454545" y="553.0" font-size="12.0">90</text><line x1="50.0" y1="550.0" x2="550.0" y2="550.0" stroke="rgb(192,192,192)" stroke-width="1"/><text text-anchor="end" alignment-baseline="middle" x="45.0" y="550.0" font-size="12.0">0.0</text><line x1="48.0" y1="550.0" x2="52.0" y2="550.0" stroke="rgb(192,192,192)" stroke-width="1"/><line x1="50.0" y1="366.79603086613537" x2="550.0" y2="366.79603086613537" stroke="rgb(192,192,192)" stroke-width="1"/><text text-anchor="end" alignment-baseline="middle" x="45.0" y="366.79603086613537" font-size="12.0">1000.0</text><line x1="48.0" y1="366.79603086613537" x2="52.0" y2="366.79603086613537" stroke="rgb(192,192,192)" stroke-width="1"/><line x1="50.0" y1="183.59206173227074" x2="550.0" y2="183.59206173227074" stroke="rgb(192,192,192)" stroke-width="1"/><text text-anchor="end" alignment-baseline="middle" x="45.0" y="183.59206173227074" font-size="12.0">2000.0</text><line x1="48.0" y1="183.59206173227074" x2="52.0" y2="183.59206173227074" stroke="rgb(192,192,192)" stroke-width="1"/><polyline points="50.0,433.3010266431005 55.05050505050505,435.9314370632557 60.101010101010104,430.4351955283615 65.15151515151516,406.52848121844386 70.20202020202021,382.9510343300837 75.25252525252526,425.1684253387609 80.30303030303031,414.07645713961756 85.35353535353535,355.48687050325873 90.40404040404042,356.0920252577655 95.45454545454545,339.117014088289 100.5050505050505,358.5285167758559 105.55555555555554,358.95577309700843 110.60606060606061,359.66064564390933 115.65656565656566,400.42721153283765 120.7070707070707,374.22405093605175 125.75757575757576,371.6210328240695 130.80808080808083,378.9189098702846 135.85858585858585,378.08684996014006 140.9090909090909,379.4793698137862 145.95959595959596,378.8660212457593 151.010101010101,378.88540469324687 156.06060606060606,377.4554778853612 161.1111111111111,375.95289790641084 166.16161616161617,376.9384222680171 171.21212121212122,382.39240046672046 176.26262626262627,395.0596185141037 181.31313131313132,330.8608044021778 186.36363636363635,339.33687520883575 191.4141414141414,387.0702692221146 196.46464646464648,376.86040989179753 201.51515151515153,377.2395630990926 206.56565656565658,322.05178298912364 211.61616161616163,376.31043964915403 216.66666666666666,375.3396250029765 221.7171717171717,346.96504666936534 226.76767676767676,376.02486845882225 231.8181818181818,346.4577373730025 236.86868686868686,272.21607885087894 241.91919191919192,270.5677406496436 246.96969696969697,413.60580843150944 252.02020202020202,366.28149750463007 257.07070707070704,367.1631961665539 262.1212121212121,367.42645311411263 267.1717171717172,351.865386658121 272.2222222222222,356.6865396928333 277.27272727272725,410.91401869487015 282.32323232323233,413.1078962813125 287.3737373737374,430.61441214839715 292.42424242424244,431.5675343321162 297.47474747474746,412.81328912763945 302.52525252525254,412.81328912763945 307.57575757575756,290.46015818058805 312.62626262626264,284.00401826872735 317.67676767676767,354.5556668188794 322.7272727272727,231.94608154660693 327.77777777777777,356.9225536944242 332.8282828282828,113.15888403180321 337.8787878787879,268.2670263929447 342.92929292929296,299.1735058177485 347.979797979798,355.2791970123538 353.03030303030306,350.03519217382654 358.0808080808081,394.2786326997357 363.13131313131316,338.77901835797115 368.1818181818182,403.55315422698766 373.23232323232327,335.3129052568893 378.2828282828283,335.3129052568893 383.3333333333333,395.82719385581913 388.3838383838384,335.3494950391377 393.4343434343434,393.29841892118776 398.4848484848485,393.2870110978217 403.5353535353535,393.7112221834416 408.58585858585855,367.1824511545732 413.6363636363636,400.6296368919441 418.68686868686865,393.5811026455814 423.73737373737373,367.3609027326827 428.7878787878788,367.19283322811725 433.83838383838383,399.3100288358532 438.8888888888889,399.60078178241747 443.93939393939394,399.69174695811046 448.989898989899,390.5908971667286 454.04040404040404,367.1894746974269 459.0909090909091,399.528730372862 464.14141414141415,387.6657594177733 469.19191919191917,387.59641533014417 474.24242424242425,381.9206266558666 479.2929292929293,381.8296614801736 484.34343434343435,411.8840551542507 489.3939393939394,382.16376958262856 494.4444444444444,382.79379628475624 499.4949494949495,401.7340882062996 504.5454545454545,400.67012939899604 509.59595959595964,400.7306422884447 514.6464646464647,68.6235760206236 519.6969696969697,267.3085439881535 524.7474747474748,287.3259713854476 529.7979797979798,286.4251452444316 534.8484848484849,247.23184687290183 539.8989898989898,405.79376397700264 544.9494949494949,407.648682752382 550.0,405.6990372202579" fill="none" stroke="rgb(0,0,0)" stroke-width="1"/><circle cx="50.0" cy="433.3010266431005" r="2" fill="rgb(0,0,0)"/><circle cx="55.05050505050505" cy="435.9314370632557" r="2" fill="rgb(0,0,0)"/><circle cx="60.101010101010104" cy="430.4351955283615" r="2" fill="rgb(0,0,0)"/><circle cx="65.15151515151516" cy="406.52848121844386" r="2" fill="rgb(0,0,0)"/><circle cx="70.20202020202021" cy="382.9510343300837" r="2" fill="rgb(0,0,0)"/><circle cx="75.25252525252526" cy="425.1684253387609" r="2" fill="rgb(0,0,0)"/><circle cx="80.30303030303031" cy="414.07645713961756" r="2" fill="rgb(0,0,0)"/><circle cx="85.35353535353535" cy="355.48687050325873" r="2" fill="rgb(0,0,0)"/><circle cx="90.40404040404042" cy="356.0920252577655" r="2" fill="rgb(0,0,0)"/><circle cx="95.45454545454545" cy="339.117014088289" r="2" fill="rgb(0,0,0)"/><circle cx="100.5050505050505" cy="358.5285167758559" r="2" fill="rgb(0,0,0)"/><circle cx="105.55555555555554" cy="358.95577309700843" r="2" fill="rgb(0,0,0)"/><circle cx="110.60606060606061" cy="359.66064564390933" r="2" fill="rgb(0,0,0)"/><circle cx="115.65656565656566" cy="400.42721153283765" r="2" fill="rgb(0,0,0)"/><circle cx="120.7070707070707" cy="374.22405093605175" r="2" fill="rgb(0,0,0)"/><circle cx="125.75757575757576" cy="371.6210328240695" r="2" fill="rgb(0,0,0)"/><circle cx="130.80808080808083" cy="378.9189098702846" r="2" fill="rgb(0,0,0)"/><circle cx="135.85858585858585" cy="378.08684996014006" r="2" fill="rgb(0,0,0)"/><circle cx="140.9090909090909" cy="379.4793698137862" r="2" fill="rgb(0,0,0)"/><circle cx="145.95959595959596" cy="378.8660212457593" r="2" fill="rgb(0,0,0)"/><circle cx="151.010101010101" cy="378.88540469324687" r="2" fill="rgb(0,0,0)"/><circle cx="156.06060606060606" cy="377.4554778853612" r="2" fill="rgb(0,0,0)"/><circle cx="161.1111111111111" cy="375.95289790641084" r="2" fill="rgb(0,0,0)"/><circle cx="166.16161616161617" cy="376.9384222680171" r="2" fill="rgb(0,0,0)"/><circle cx="171.21212121212122" cy="382.39240046672046" r="2" fill="rgb(0,0,0)"/><circle cx="176.26262626262627" cy="395.0596185141037" r="2" fill="rgb(0,0,0)"/><circle cx="181.31313131313132" cy="330.8608044021778" r="2" fill="rgb(0,0,0)"/><circle cx="186.36363636363635" cy="339.33687520883575" r="2" fill="rgb(0,0,0)"/><circle cx="191.4141414141414" cy="387.0702692221146" r="2" fill="rgb(0,0,0)"/><circle cx="196.46464646464648" cy="376.86040989179753" r="2" fill="rgb(0,0,0)"/><circle cx="201.51515151515153" cy="377.2395630990926" r="2" fill="rgb(0,0,0)"/><circle cx="206.56565656565658" cy="322.05178298912364" r="2" fill="rgb(0,0,0)"/><circle cx="211.61616161616163" cy="376.31043964915403" r="2" fill="rgb(0,0,0)"/><circle cx="216.66666666666666" cy="375.3396250029765" r="2" fill="rgb(0,0,0)"/><circle cx="221.7171717171717" cy="346.96504666936534" r="2" fill="rgb(0,0,0)"/><circle cx="226.76767676767676" cy="376.02486845882225" r="2" fill="rgb(0,0,0)"/><circle cx="231.8181818181818" cy="346.4577373730025" r="2" fill="rgb(0,0,0)"/><circle cx="236.86868686868686" cy="272.21607885087894" r="2" fill="rgb(0,0,0)"/><circle cx="241.91919191919192" cy="270.5677406496436" r="2" fill="rgb(0,0,0)"/><circle cx="246.96969696969697" cy="413.60580843150944" r="2" fill="rgb(0,0,0)"/><circle cx="252.02020202020202" cy="366.28149750463007" r="2" fill="rgb(0,0,0)"/><circle cx="257.07070707070704" cy="367.1631961665539" r="2" fill="rgb(0,0,0)"/><circle cx="262.1212121212121" cy="367.42645311411263" r="2" fill="rgb(0,0,0)"/><circle cx="267.1717171717172" cy="351.865386658121" r="2" fill="rgb(0,0,0)"/><circle cx="272.2222222222222" cy="356.6865396928333" r="2" fill="rgb(0,0,0)"/><circle cx="277.27272727272725" cy="410.91401869487015" r="2" fill="rgb(0,0,0)"/><circle cx="282.32323232323233" cy="413.1078962813125" r="2" fill="rgb(0,0,0)"/><circle cx="287.3737373737374" cy="430.61441214839715" r="2" fill="rgb(0,0,0)"/><circle cx="292.42424242424244" cy="431.5675343321162" r="2" fill="rgb(0,0,0)"/><circle cx="297.47474747474746" cy="412.81328912763945" r="2" fill="rgb(0,0,0)"/><circle cx="302.52525252525254" cy="412.81328912763945" r="2" fill="rgb(0,0,0)"/><circle cx="307.57575757575756" cy="290.46015818058805" r="2" fill="rgb(0,0,0)"/><circle cx="312.62626262626264" cy="284.00401826872735" r="2" fill="rgb(0,0,0)"/><circle cx="317.67676767676767" cy="354.5556668188794" r="2" fill="rgb(0,0,0)"/><circle cx="322.7272727272727" cy="231.94608154660693" r="2" fill="rgb(0,0,0)"/><circle cx="327.77777777777777" cy="356.9225536944242" r="2" fill="rgb(0,0,0)"/><circle cx="332.8282828282828" cy="113.15888403180321" r="2" fill="rgb(0,0,0)"/><circle cx="337.8787878787879" cy="268.2670263929447" r="2" fill="rgb(0,0,0)"/><circle cx="342.92929292929296" cy="299.1735058177485" r="2" fill="rgb(0,0,0)"/><circle cx="347.979797979798" cy="355.2791970123538" r="2" fill="rgb(0,0,0)"/><circle cx="353.03030303030306" cy="350.03519217382654" r="2" fill="rgb(0,0,0)"/><circle cx="358.0808080808081" cy="394.2786326997357" r="2" fill="rgb(0,0,0)"/><circle cx="363.13131313131316" cy="338.77901835797115" r="2" fill="rgb(0,0,0)"/><circle cx="368.1818181818182" cy="403.55315422698766" r="2" fill="rgb(0,0,0)"/><circle cx="373.23232323232327" cy="335.3129052568893" r="2" fill="rgb(0,0,0)"/><circle cx="378.2828282828283" cy="335.3129052568893" r="2" fill="rgb(0,0,0)"/><circle cx="383.3333333333333" cy="395.82719385581913" r="2" fill="rgb(0,0,0)"/><circle cx="388.3838383838384" cy="335.3494950391377" r="2" fill="rgb(0,0,0)"/><circle cx="393.4343434343434" cy="393.29841892118776" r="2" fill="rgb(0,0,0)"/><circle cx="398.4848484848485" cy="393.2870110978217" r="2" fill="rgb(0,0,0)"/><circle cx="403.5353535353535" cy="393.7112221834416" r="2" fill="rgb(0,0,0)"/><circle cx="408.58585858585855" cy="367.1824511545732" r="2" fill="rgb(0,0,0)"/><circle cx="413.6363636363636" cy="400.6296368919441" r="2" fill="rgb(0,0,0)"/><circle cx="418.68686868686865" cy="393.5811026455814" r="2" fill="rgb(0,0,0)"/><circle cx="423.73737373737373" cy="367.3609027326827" r="2" fill="rgb(0,0,0)"/><circle cx="428.7878787878788" cy="367.19283322811725" r="2" fill="rgb(0,0,0)"/><circle cx="433.83838383838383" cy="399.3100288358532" r="2" fill="rgb(0,0,0)"/><circle cx="438.8888888888889" cy="399.60078178241747" r="2" fill="rgb(0,0,0)"/><circle cx="443.93939393939394" cy="399.69174695811046" r="2" fill="rgb(0,0,0)"/><circle cx="448.989898989899" cy="390.5908971667286" r="2" fill="rgb(0,0,0)"/><circle cx="454.04040404040404" cy="367.1894746974269" r="2" fill="rgb(0,0,0)"/><circle cx="459.0909090909091" cy="399.528730372862" r="2" fill="rgb(0,0,0)"/><circle cx="464.14141414141415" cy="387.6657594177733" r="2" fill="rgb(0,0,0)"/><circle cx="469.19191919191917" cy="387.59641533014417" r="2" fill="rgb(0,0,0)"/><circle cx="474.24242424242425" cy="381.9206266558666" r="2" fill="rgb(0,0,0)"/><circle cx="479.2929292929293" cy="381.8296614801736" r="2" fill="rgb(0,0,0)"/><circle cx="484.34343434343435" cy="411.8840551542507" r="2" fill="rgb(0,0,0)"/><circle cx="489.3939393939394" cy="382.16376958262856" r="2" fill="rgb(0,0,0)"/><circle cx="494.4444444444444" cy="382.79379628475624" r="2" fill="rgb(0,0,0)"/><circle cx="499.4949494949495" cy="401.7340882062996" r="2" fill="rgb(0,0,0)"/><circle cx="504.5454545454545" cy="400.67012939899604" r="2" fill="rgb(0,0,0)"/><circle cx="509.59595959595964" cy="400.7306422884447" r="2" fill="rgb(0,0,0)"/><circle cx="514.6464646464647" cy="68.6235760206236" r="2" fill="rgb(0,0,0)"/><circle cx="519.6969696969697" cy="267.3085439881535" r="2" fill="rgb(0,0,0)"/><circle cx="524.7474747474748" cy="287.3259713854476" r="2" fill="rgb(0,0,0)"/><circle cx="529.7979797979798" cy="286.4251452444316" r="2" fill="rgb(0,0,0)"/><circle cx="534.8484848484849" cy="247.23184687290183" r="2" fill="rgb(0,0,0)"/><circle cx="539.8989898989898" cy="405.79376397700264" r="2" fill="rgb(0,0,0)"/><circle cx="544.9494949494949" cy="407.648682752382" r="2" fill="rgb(0,0,0)"/><circle cx="550.0" cy="405.6990372202579" r="2" fill="rgb(0,0,0)"/><polyline points="50.0,218.52282962252235 55.05050505050505,198.57876619323025 60.101010101010104,167.4521903776602 65.15151515151516,148.06134719928775 70.20202020202021,124.38361044946737 75.25252525252526,111.61125002759383 80.30303030303031,106.92742929859486 85.35353535353535,95.2984385969292 90.40404040404042,92.51408491686544 95.45454545454545,82.16570650255312 100.5050505050505,75.17030659674015 105.55555555555554,73.35611873054012 110.60606060606061,70.16425110401337 115.65656565656566,68.06803319432657 120.7070707070707,74.05093700066828 125.75757575757576,71.96821114792112 130.80808080808083,70.41747060086072 135.85858585858585,73.52514032923693 140.9090909090909,76.96877064844887 145.95959595959596,85.17134465996679 151.010101010101,91.51893912583307 156.06060606060606,88.72352603195225 161.1111111111111,73.14614202624188 166.16161616161617,73.74629090405983 171.21212121212122,79.937589671968 176.26262626262627,81.83128081752545 181.31313131313132,70.95216335087684 186.36363636363635,65.88696623766253 191.4141414141414,66.0456488082009 196.46464646464648,71.32828762586865 201.51515151515153,63.454587368729676 206.56565656565658,61.05726388383448 211.61616161616163,66.73156432625052 216.66666666666666,63.16087669540997 221.7171717171717,61.034038264727315 226.76767676767676,63.64404225471617 231.8181818181818,67.64909007299525 236.86868686868686,68.07881867367712 241.91919191919192,60.36003647943642 246.96969696969697,65.87127775777799 252.02020202020202,62.755787550044374 257.07070707070704,73.60258375127944 262.1212121212121,62.516598702746194 267.1717171717172,66.52605931853071 272.2222222222222,66.19203015817766 277.27272727272725,68.27414057168664 282.32323232323233,65.39159167545978 287.3737373737374,67.47975908407642 292.42424242424244,72.96698718203743 297.47474747474746,68.71061548508499 302.52525252525254,76.4574362640385 307.57575757575756,55.57565859422664 312.62626262626264,58.67410671974807 317.67676767676767,58.36561746070589 322.7272727272727,53.26354770267221 327.77777777777777,55.850020180534784 332.8282828282828,52.26873774797883 337.8787878787879,58.471763806733634 342.92929292929296,61.51935338276439 347.979797979798,67.1643879388501 353.03030303030306,57.10579009968109 358.0808080808081,63.833770390630264 363.13131313131316,57.547227382316805 368.1818181818182,58.951233121558914 373.23232323232327,68.6476332892712 378.2828282828283,75.13954629983238 383.3333333333333,71.64760610649074 388.3838383838384,61.603497606308395 393.4343434343434,62.16984000429903 398.4848484848485,60.01002734487338 403.5353535353535,67.33478165123842 408.58585858585855,58.34554561965251 413.6363636363636,68.05481914198145 418.68686868686865,62.336002018914655 423.73737373737373,64.96157619862157 428.7878787878788,62.417785008103806 433.83838383838383,69.70260905797363 438.8888888888889,67.2986445611835 443.93939393939394,64.98075649031387 448.989898989899,62.83659632464162 454.04040404040404,58.10493875253201 459.0909090909091,66.34337847796883 464.14141414141415,61.82960517824813 469.19191919191917,56.022548718773635 474.24242424242425,58.92551224753265 479.2929292929293,58.016577356636844 484.34343434343435,64.87414537168303 489.3939393939394,58.92945148431426 494.4444444444444,70.08711761789527 499.4949494949495,68.83672253401681 504.5454545454545,61.01161367567056 509.59595959595964,60.4793335466228 514.6464646464647,50.9539421067401 519.6969696969697,53.131673505420395 524.7474747474748,55.8952066172929 529.7979797979798,55.121144372092374 534.8484848484849,56.12345659184331 539.8989898989898,61.15108533784246 544.9494949494949,62.64375297875699 550.0,67.62015930721884" fill="none" stroke="rgb(0,0,255)" stroke-width="1"/><circle cx="50.0" cy="218.52282962252235" r="2" fill="rgb(0,0,255)"/><circle cx="55.05050505050505" cy="198.57876619323025" r="2" fill="rgb(0,0,255)"/><circle cx="60.101010101010104" cy="167.4521903776602" r="2" fill="rgb(0,0,255)"/><circle cx="65.15151515151516" cy="148.06134719928775" r="2" fill="rgb(0,0,255)"/><circle cx="70.20202020202021" cy="124.38361044946737" r="2" fill="rgb(0,0,255)"/><circle cx="75.25252525252526" cy="111.61125002759383" r="2" fill="rgb(0,0,255)"/><circle cx="80.30303030303031" cy="106.92742929859486" r="2" fill="rgb(0,0,255)"/><circle cx="85.35353535353535" cy="95.2984385969292" r="2" fill="rgb(0,0,255)"/><circle cx="90.40404040404042" cy="92.51408491686544" r="2" fill="rgb(0,0,255)"/><circle cx="95.45454545454545" cy="82.16570650255312" r="2" fill="rgb(0,0,255)"/><circle cx="100.5050505050505" cy="75.17030659674015" r="2" fill="rgb(0,0,255)"/><circle cx="105.55555555555554" cy="73.35611873054012" r="2" fill="rgb(0,0,255)"/><circle cx="110.60606060606061" cy="70.16425110401337" r="2" fill="rgb(0,0,255)"/><circle cx="115.65656565656566" cy="68.06803319432657" r="2" fill="rgb(0,0,255)"/><circle cx="120.7070707070707" cy="74.05093700066828" r="2" fill="rgb(0,0,255)"/><circle cx="125.75757575757576" cy="71.96821114792112" r="2" fill="rgb(0,0,255)"/><circle cx="130.80808080808083" cy="70.41747060086072" r="2" fill="rgb(0,0,255)"/><circle cx="135.85858585858585" cy="73.52514032923693" r="2" fill="rgb(0,0,255)"/><circle cx="140.9090909090909" cy="76.96877064844887" r="2" fill="rgb(0,0,255)"/><circle cx="145.95959595959596" cy="85.17134465996679" r="2" fill="rgb(0,0,255)"/><circle cx="151.010101010101" cy="91.51893912583307" r="2" fill="rgb(0,0,255)"/><circle cx="156.06060606060606" cy="88.72352603195225" r="2" fill="rgb(0,0,255)"/><circle cx="161.1111111111111" cy="73.14614202624188" r="2" fill="rgb(0,0,255)"/><circle cx="166.16161616161617" cy="73.74629090405983" r="2" fill="rgb(0,0,255)"/><circle cx="171.21212121212122" cy="79.937589671968" r="2" fill="rgb(0,0,255)"/><circle cx="176.26262626262627" cy="81.83128081752545" r="2" fill="rgb(0,0,255)"/><circle cx="181.31313131313132" cy="70.95216335087684" r="2" fill="rgb(0,0,255)"/><circle cx="186.36363636363635" cy="65.88696623766253" r="2" fill="rgb(0,0,255)"/><circle cx="191.4141414141414" cy="66.0456488082009" r="2" fill="rgb(0,0,255)"/><circle cx="196.46464646464648" cy="71.32828762586865" r="2" fill="rgb(0,0,255)"/><circle cx="201.51515151515153" cy="63.454587368729676" r="2" fill="rgb(0,0,255)"/><circle cx="206.56565656565658" cy="61.05726388383448" r="2" fill="rgb(0,0,255)"/><circle cx="211.61616161616163" cy="66.73156432625052" r="2" fill="rgb(0,0,255)"/><circle cx="216.66666666666666" cy="63.16087669540997" r="2" fill="rgb(0,0,255)"/><circle cx="221.7171717171717" cy="61.034038264727315" r="2" fill="rgb(0,0,255)"/><circle cx="226.76767676767676" cy="63.64404225471617" r="2" fill="rgb(0,0,255)"/><circle cx="231.8181818181818" cy="67.64909007299525" r="2" fill="rgb(0,0,255)"/><circle cx="236.86868686868686" cy="68.07881867367712" r="2" fill="rgb(0,0,255)"/><circle cx="241.91919191919192" cy="60.36003647943642" r="2" fill="rgb(0,0,255)"/><circle cx="246.96969696969697" cy="65.87127775777799" r="2" fill="rgb(0,0,255)"/><circle cx="252.02020202020202" cy="62.755787550044374" r="2" fill="rgb(0,0,255)"/><circle cx="257.07070707070704" cy="73.60258375127944" r="2" fill="rgb(0,0,255)"/><circle cx="262.1212121212121" cy="62.516598702746194" r="2" fill="rgb(0,0,255)"/><circle cx="267.1717171717172" cy="66.52605931853071" r="2" fill="rgb(0,0,255)"/><circle cx="272.2222222222222" cy="66.19203015817766" r="2" fill="rgb(0,0,255)"/><circle cx="277.27272727272725" cy="68.27414057168664" r="2" fill="rgb(0,0,255)"/><circle cx="282.32323232323233" cy="65.39159167545978" r="2" fill="rgb(0,0,255)"/><circle cx="287.3737373737374" cy="67.47975908407642" r="2" fill="rgb(0,0,255)"/><circle cx="292.42424242424244" cy="72.96698718203743" r="2" fill="rgb(0,0,255)"/><circle cx="297.47474747474746" cy="68.71061548508499" r="2" fill="rgb(0,0,255)"/><circle cx="302.52525252525254" cy="76.4574362640385" r="2" fill="rgb(0,0,255)"/><circle cx="307.57575757575756" cy="55.57565859422664" r="2" fill="rgb(0,0,255)"/><circle cx="312.62626262626264" cy="58.67410671974807" r="2" fill="rgb(0,0,255)"/><circle cx="317.67676767676767" cy="58.36561746070589" r="2" fill="rgb(0,0,255)"/><circle cx="322.7272727272727" cy="53.26354770267221" r="2" fill="rgb(0,0,255)"/><circle cx="327.77777777777777" cy="55.850020180534784" r="2" fill="rgb(0,0,255)"/><circle cx="332.8282828282828" cy="52.26873774797883" r="2" fill="rgb(0,0,255)"/><circle cx="337.8787878787879" cy="58.471763806733634" r="2" fill="rgb(0,0,255)"/><circle cx="342.92929292929296" cy="61.51935338276439" r="2" fill="rgb(0,0,255)"/><circle cx="347.979797979798" cy="67.1643879388501" r="2" fill="rgb(0,0,255)"/><circle cx="353.03030303030306" cy="57.10579009968109" r="2" fill="rgb(0,0,255)"/><circle cx="358.0808080808081" cy="63.833770390630264" r="2" fill="rgb(0,0,255)"/><circle cx="363.13131313131316" cy="57.547227382316805" r="2" fill="rgb(0,0,255)"/><circle cx="368.1818181818182" cy="58.951233121558914" r="2" fill="rgb(0,0,255)"/><circle cx="373.23232323232327" cy="68.6476332892712" r="2" fill="rgb(0,0,255)"/><circle cx="378.2828282828283" cy="75.13954629983238" r="2" fill="rgb(0,0,255)"/><circle cx="383.3333333333333" cy="71.64760610649074" r="2" fill="rgb(0,0,255)"/><circle cx="388.3838383838384" cy="61.603497606308395" r="2" fill="rgb(0,0,255)"/><circle cx="393.4343434343434" cy="62.16984000429903" r="2" fill="rgb(0,0,255)"/><circle cx="398.4848484848485" cy="60.01002734487338" r="2" fill="rgb(0,0,255)"/><circle cx="403.5353535353535" cy="67.33478165123842" r="2" fill="rgb(0,0,255)"/><circle cx="408.58585858585855" cy="58.34554561965251" r="2" fill="rgb(0,0,255)"/><circle cx="413.6363636363636" cy="68.05481914198145" r="2" fill="rgb(0,0,255)"/><circle cx="418.68686868686865" cy="62.336002018914655" r="2" fill="rgb(0,0,255)"/><circle cx="423.73737373737373" cy="64.96157619862157" r="2" fill="rgb(0,0,255)"/><circle cx="428.7878787878788" cy="62.417785008103806" r="2" fill="rgb(0,0,255)"/><circle cx="433.83838383838383" cy="69.70260905797363" r="2" fill="rgb(0,0,255)"/><circle cx="438.8888888888889" cy="67.2986445611835" r="2" fill="rgb(0,0,255)"/><circle cx="443.93939393939394" cy="64.98075649031387" r="2" fill="rgb(0,0,255)"/><circle cx="448.989898989899" cy="62.83659632464162" r="2" fill="rgb(0,0,255)"/><circle cx="454.04040404040404" cy="58.10493875253201" r="2" fill="rgb(0,0,255)"/><circle cx="459.0909090909091" cy="66.34337847796883" r="2" fill="rgb(0,0,255)"/><circle cx="464.14141414141415" cy="61.82960517824813" r="2" fill="rgb(0,0,255)"/><circle cx="469.19191919191917" cy="56.022548718773635" r="2" fill="rgb(0,0,255)"/><circle cx="474.24242424242425" cy="58.92551224753265" r="2" fill="rgb(0,0,255)"/><circle cx="479.2929292929293" cy="58.016577356636844" r="2" fill="rgb(0,0,255)"/><circle cx="484.34343434343435" cy="64.87414537168303" r="2" fill="rgb(0,0,255)"/><circle cx="489.3939393939394" cy="58.92945148431426" r="2" fill="rgb(0,0,255)"/><circle cx="494.4444444444444" cy="70.08711761789527" r="2" fill="rgb(0,0,255)"/><circle cx="499.4949494949495" cy="68.83672253401681" r="2" fill="rgb(0,0,255)"/><circle cx="504.5454545454545" cy="61.01161367567056" r="2" fill="rgb(0,0,255)"/><circle cx="509.59595959595964" cy="60.4793335466228" r="2" fill="rgb(0,0,255)"/><circle cx="514.6464646464647" cy="50.9539421067401" r="2" fill="rgb(0,0,255)"/><circle cx="519.6969696969697" cy="53.131673505420395" r="2" fill="rgb(0,0,255)"/><circle cx="524.7474747474748" cy="55.8952066172929" r="2" fill="rgb(0,0,255)"/><circle cx="529.7979797979798" cy="55.121144372092374" r="2" fill="rgb(0,0,255)"/><circle cx="534.8484848484849" cy="56.12345659184331" r="2" fill="rgb(0,0,255)"/><circle cx="539.8989898989898" cy="61.15108533784246" r="2" fill="rgb(0,0,255)"/><circle cx="544.9494949494949" cy="62.64375297875699" r="2" fill="rgb(0,0,255)"/><circle cx="550.0" cy="67.62015930721884" r="2" fill="rgb(0,0,255)"/><polyline points="50.0,57.319579001128545 55.05050505050505,62.234675883337445 60.101010101010104,56.778286914515775 65.15151515151516,57.94064268035788 70.20202020202021,57.569876044425314 75.25252525252526,58.12239231081526 80.30303030303031,57.52177301915714 85.35353535353535,57.91594931048479 90.40404040404042,56.83350688982188 95.45454545454545,57.231179865563035 100.5050505050505,56.45000126385264 105.55555555555554,56.4140833501159 110.60606060606061,55.912380543513734 115.65656565656566,55.992354025469126 120.7070707070707,54.65099485776659 125.75757575757576,55.737824168218765 130.80808080808083,55.65744460076763 135.85858585858585,55.59579422145271 140.9090909090909,55.12119057094088 145.95959595959596,55.21255147679858 151.010101010101,55.01376398270685 156.06060606060606,54.747883482158954 161.1111111111111,54.73865620616107 166.16161616161617,54.50779947220673 171.21212121212122,54.469853292389814 176.26262626262627,54.08783021798354 181.31313131313132,52.96028389350522 186.36363636363635,52.80271010555629 191.4141414141414,52.67909947368696 196.46464646464648,53.001751208008386 201.51515151515153,51.68317668742071 206.56565656565658,51.36806345238631 211.61616161616163,50.34627346889664 216.66666666666666,50.34627346889664 221.7171717171717,50.82875508676523 226.76767676767676,50.92227553463283 231.8181818181818,50.34627346889664 236.86868686868686,50.34627346889664 241.91919191919192,50.28274398538406 246.96969696969697,50.28274398538406 252.02020202020202,50.44550275067206 257.07070707070704,50.59392911913591 262.1212121212121,50.284895126423464 267.1717171717172,50.40332342947562 272.2222222222222,50.34627346889664 277.27272727272725,50.362894110135926 282.32323232323233,50.360218210684536 287.3737373737374,50.380110600316016 292.42424242424244,50.380110600316016 297.47474747474746,50.259937839910094 302.52525252525254,50.29547053406287 307.57575757575756,50.28406271069673 312.62626262626264,50.27388258169799 317.67676767676767,50.37162603405068 322.7272727272727,50.29547053406287 327.77777777777777,50.345387165212685 332.8282828282828,50.29247947580512 337.8787878787879,50.305224924353524 342.92929292929296,50.25530829320371 347.979797979798,50.25530829320371 353.03030303030306,50.298146433514205 358.0808080808081,50.297726717155285 363.13131313131316,50.21272698606418 368.1818181818182,50.21272698606418 373.23232323232327,50.28406271069673 378.2828282828283,50.25530829320371 383.3333333333333,50.1930975350038 388.3838383838384,50.155677025485204 393.4343434343434,50.1930975350038 398.4848484848485,50.266716116569796 403.5353535353535,50.30369216175711 408.58585858585855,50.266716116569796 413.6363636363636,50.266716116569796 418.68686868686865,50.25530829320371 423.73737373737373,50.27259960327166 428.7878787878788,50.25530829320371 433.83838383838383,50.24664220117813 438.8888888888889,50.25530829320371 443.93939393939394,50.18933595395191 448.989898989899,50.17493314950053 454.04040404040404,50.20074377731805 459.0909090909091,50.21147913293822 464.14141414141415,50.13953442911048 469.19191919191917,50.17340315538257 474.24242424242425,50.243014166153614 479.2929292929293,50.17527502574973 484.34343434343435,50.20886040586555 489.3939393939394,50.204505358369886 494.4444444444444,50.10977860162507 499.4949494949495,50.13953442911048 504.5454545454545,50.09837077825898 509.59595959595964,50.15224094172578 514.6464646464647,50.12931621520619 519.6969696969697,50.08325786554826 524.7474747474748,50.0 529.7979797979798,50.045837356029665 534.8484848484849,50.045837356029665 539.8989898989898,50.06221075819985 544.9494949494949,50.06221075819985 550.0,50.06221075819985" fill="none" stroke="rgb(0,255,0)" stroke-width="1"/><circle cx="50.0" cy="57.319579001128545" r="2" fill="rgb(0,255,0)"/><circle cx="55.05050505050505" cy="62.234675883337445" r="2" fill="rgb(0,255,0)"/><circle cx="60.101010101010104" cy="56.778286914515775" r="2" fill="rgb(0,255,0)"/><circle cx="65.15151515151516" cy="57.94064268035788" r="2" fill="rgb(0,255,0)"/><circle cx="70.20202020202021" cy="57.569876044425314" r="2" fill="rgb(0,255,0)"/><circle cx="75.25252525252526" cy="58.12239231081526" r="2" fill="rgb(0,255,0)"/><circle cx="80.30303030303031" cy="57.52177301915714" r="2" fill="rgb(0,255,0)"/><circle cx="85.35353535353535" cy="57.91594931048479" r="2" fill="rgb(0,255,0)"/><circle cx="90.40404040404042" cy="56.83350688982188" r="2" fill="rgb(0,255,0)"/><circle cx="95.45454545454545" cy="57.231179865563035" r="2" fill="rgb(0,255,0)"/><circle cx="100.5050505050505" cy="56.45000126385264" r="2" fill="rgb(0,255,0)"/><circle cx="105.55555555555554" cy="56.4140833501159" r="2" fill="rgb(0,255,0)"/><circle cx="110.60606060606061" cy="55.912380543513734" r="2" fill="rgb(0,255,0)"/><circle cx="115.65656565656566" cy="55.992354025469126" r="2" fill="rgb(0,255,0)"/><circle cx="120.7070707070707" cy="54.65099485776659" r="2" fill="rgb(0,255,0)"/><circle cx="125.75757575757576" cy="55.737824168218765" r="2" fill="rgb(0,255,0)"/><circle cx="130.80808080808083" cy="55.65744460076763" r="2" fill="rgb(0,255,0)"/><circle cx="135.85858585858585" cy="55.59579422145271" r="2" fill="rgb(0,255,0)"/><circle cx="140.9090909090909" cy="55.12119057094088" r="2" fill="rgb(0,255,0)"/><circle cx="145.95959595959596" cy="55.21255147679858" r="2" fill="rgb(0,255,0)"/><circle cx="151.010101010101" cy="55.01376398270685" r="2" fill="rgb(0,255,0)"/><circle cx="156.06060606060606" cy="54.747883482158954" r="2" fill="rgb(0,255,0)"/><circle cx="161.1111111111111" cy="54.73865620616107" r="2" fill="rgb(0,255,0)"/><circle cx="166.16161616161617" cy="54.50779947220673" r="2" fill="rgb(0,255,0)"/><circle cx="171.21212121212122" cy="54.469853292389814" r="2" fill="rgb(0,255,0)"/><circle cx="176.26262626262627" cy="54.08783021798354" r="2" fill="rgb(0,255,0)"/><circle cx="181.31313131313132" cy="52.96028389350522" r="2" fill="rgb(0,255,0)"/><circle cx="186.36363636363635" cy="52.80271010555629" r="2" fill="rgb(0,255,0)"/><circle cx="191.4141414141414" cy="52.67909947368696" r="2" fill="rgb(0,255,0)"/><circle cx="196.46464646464648" cy="53.001751208008386" r="2" fill="rgb(0,255,0)"/><circle cx="201.51515151515153" cy="51.68317668742071" r="2" fill="rgb(0,255,0)"/><circle cx="206.56565656565658" cy="51.36806345238631" r="2" fill="rgb(0,255,0)"/><circle cx="211.61616161616163" cy="50.34627346889664" r="2" fill="rgb(0,255,0)"/><circle cx="216.66666666666666" cy="50.34627346889664" r="2" fill="rgb(0,255,0)"/><circle cx="221.7171717171717" cy="50.82875508676523" r="2" fill="rgb(0,255,0)"/><circle cx="226.76767676767676" cy="50.92227553463283" r="2" fill="rgb(0,255,0)"/><circle cx="231.8181818181818" cy="50.34627346889664" r="2" fill="rgb(0,255,0)"/><circle cx="236.86868686868686" cy="50.34627346889664" r="2" fill="rgb(0,255,0)"/><circle cx="241.91919191919192" cy="50.28274398538406" r="2" fill="rgb(0,255,0)"/><circle cx="246.96969696969697" cy="50.28274398538406" r="2" fill="rgb(0,255,0)"/><circle cx="252.02020202020202" cy="50.44550275067206" r="2" fill="rgb(0,255,0)"/><circle cx="257.07070707070704" cy="50.59392911913591" r="2" fill="rgb(0,255,0)"/><circle cx="262.1212121212121" cy="50.284895126423464" r="2" fill="rgb(0,255,0)"/><circle cx="267.1717171717172" cy="50.40332342947562" r="2" fill="rgb(0,255,0)"/><circle cx="272.2222222222222" cy="50.34627346889664" r="2" fill="rgb(0,255,0)"/><circle cx="277.27272727272725" cy="50.362894110135926" r="2" fill="rgb(0,255,0)"/><circle cx="282.32323232323233" cy="50.360218210684536" r="2" fill="rgb(0,255,0)"/><circle cx="287.3737373737374" cy="50.380110600316016" r="2" fill="rgb(0,255,0)"/><circle cx="292.42424242424244" cy="50.380110600316016" r="2" fill="rgb(0,255,0)"/><circle cx="297.47474747474746" cy="50.259937839910094" r="2" fill="rgb(0,255,0)"/><circle cx="302.52525252525254" cy="50.29547053406287" r="2" fill="rgb(0,255,0)"/><circle cx="307.57575757575756" cy="50.28406271069673" r="2" fill="rgb(0,255,0)"/><circle cx="312.62626262626264" cy="50.27388258169799" r="2" fill="rgb(0,255,0)"/><circle cx="317.67676767676767" cy="50.37162603405068" r="2" fill="rgb(0,255,0)"/><circle cx="322.7272727272727" cy="50.29547053406287" r="2" fill="rgb(0,255,0)"/><circle cx="327.77777777777777" cy="50.345387165212685" r="2" fill="rgb(0,255,0)"/><circle cx="332.8282828282828" cy="50.29247947580512" r="2" fill="rgb(0,255,0)"/><circle cx="337.8787878787879" cy="50.305224924353524" r="2" fill="rgb(0,255,0)"/><circle cx="342.92929292929296" cy="50.25530829320371" r="2" fill="rgb(0,255,0)"/><circle cx="347.979797979798" cy="50.25530829320371" r="2" fill="rgb(0,255,0)"/><circle cx="353.03030303030306" cy="50.298146433514205" r="2" fill="rgb(0,255,0)"/><circle cx="358.0808080808081" cy="50.297726717155285" r="2" fill="rgb(0,255,0)"/><circle cx="363.13131313131316" cy="50.21272698606418" r="2" fill="rgb(0,255,0)"/><circle cx="368.1818181818182" cy="50.21272698606418" r="2" fill="rgb(0,255,0)"/><circle cx="373.23232323232327" cy="50.28406271069673" r="2" fill="rgb(0,255,0)"/><circle cx="378.2828282828283" cy="50.25530829320371" r="2" fill="rgb(0,255,0)"/><circle cx="383.3333333333333" cy="50.1930975350038" r="2" fill="rgb(0,255,0)"/><circle cx="388.3838383838384" cy="50.155677025485204" r="2" fill="rgb(0,255,0)"/><circle cx="393.4343434343434" cy="50.1930975350038" r="2" fill="rgb(0,255,0)"/><circle cx="398.4848484848485" cy="50.266716116569796" r="2" fill="rgb(0,255,0)"/><circle cx="403.5353535353535" cy="50.30369216175711" r="2" fill="rgb(0,255,0)"/><circle cx="408.58585858585855" cy="50.266716116569796" r="2" fill="rgb(0,255,0)"/><circle cx="413.6363636363636" cy="50.266716116569796" r="2" fill="rgb(0,255,0)"/><circle cx="418.68686868686865" cy="50.25530829320371" r="2" fill="rgb(0,255,0)"/><circle cx="423.73737373737373" cy="50.27259960327166" r="2" fill="rgb(0,255,0)"/><circle cx="428.7878787878788" cy="50.25530829320371" r="2" fill="rgb(0,255,0)"/><circle cx="433.83838383838383" cy="50.24664220117813" r="2" fill="rgb(0,255,0)"/><circle cx="438.8888888888889" cy="50.25530829320371" r="2" fill="rgb(0,255,0)"/><circle cx="443.93939393939394" cy="50.18933595395191" r="2" fill="rgb(0,255,0)"/><circle cx="448.989898989899" cy="50.17493314950053" r="2" fill="rgb(0,255,0)"/><circle cx="454.04040404040404" cy="50.20074377731805" r="2" fill="rgb(0,255,0)"/><circle cx="459.0909090909091" cy="50.21147913293822" r="2" fill="rgb(0,255,0)"/><circle cx="464.14141414141415" cy="50.13953442911048" r="2" fill="rgb(0,255,0)"/><circle cx="469.19191919191917" cy="50.17340315538257" r="2" fill="rgb(0,255,0)"/><circle cx="474.24242424242425" cy="50.243014166153614" r="2" fill="rgb(0,255,0)"/><circle cx="479.2929292929293" cy="50.17527502574973" r="2" fill="rgb(0,255,0)"/><circle cx="484.34343434343435" cy="50.20886040586555" r="2" fill="rgb(0,255,0)"/><circle cx="489.3939393939394" cy="50.204505358369886" r="2" fill="rgb(0,255,0)"/><circle cx="494.4444444444444" cy="50.10977860162507" r="2" fill="rgb(0,255,0)"/><circle cx="499.4949494949495" cy="50.13953442911048" r="2" fill="rgb(0,255,0)"/><circle cx="504.5454545454545" cy="50.09837077825898" r="2" fill="rgb(0,255,0)"/><circle cx="509.59595959595964" cy="50.15224094172578" r="2" fill="rgb(0,255,0)"/><circle cx="514.6464646464647" cy="50.12931621520619" r="2" fill="rgb(0,255,0)"/><circle cx="519.6969696969697" cy="50.08325786554826" r="2" fill="rgb(0,255,0)"/><circle cx="524.7474747474748" cy="50.0" r="2" fill="rgb(0,255,0)"/><circle cx="529.7979797979798" cy="50.045837356029665" r="2" fill="rgb(0,255,0)"/><circle cx="534.8484848484849" cy="50.045837356029665" r="2" fill="rgb(0,255,0)"/><circle cx="539.8989898989898" cy="50.06221075819985" r="2" fill="rgb(0,255,0)"/><circle cx="544.9494949494949" cy="50.06221075819985" r="2" fill="rgb(0,255,0)"/><circle cx="550.0" cy="50.06221075819985" r="2" fill="rgb(0,255,0)"/><text x="350.0" y="20.0" text-anchor="middle" fill="rgb(0,0,0)" font-size="20.0">GA Demo</text><text x="350.0" y="575.0" text-anchor="middle" fill="rgb(0,0,0)" font-size="12.0">generation</text><text transform="rotate(-90.0 20.0 300.0)" x="20.0" y="300.0" text-anchor="middle" fill="rgb(0,0,0)" font-size="12.0">fitness</text><text x="620" y="62" fill="rgb(0,0,0)" font-size="12">min</text><text x="620" y="74" fill="rgb(0,0,255)" font-size="12">ave</text><text x="620" y="86" fill="rgb(0,255,0)" font-size="12">max</text>
      Sorry, your browser does not support inline SVG.
    </svg>