<?xml version='1.0' encoding='UTF-8'?>
<svg version="1.1" width="700.0" height="600.0" onload="init(evt)" xmlns="http://www.w3.org/2000/svg">
      <style>.caption {
  font-size: 14px;
  font-family: Georgia, serif;
}
</style>
      <script type="text/ecmascript"><![CDATA[
function init(evt) {
  if ( window.svgDocument == null ) {
    svgDocument = evt.target.ownerDocument;
  }
}

function RectHover(evt, i, c) {
  rect = svgDocument.getElementById('rect' + i);
  if( c != null ) {
    rect.setAttributeNS(null, "fill", c)  
  }
  tooltiptext = svgDocument.getElementById('tooltiptext' + i);
  tooltipbg = svgDocument.getElementById('tooltipbg' + i);
  if( tooltipbg != null) {
    tbb = tooltiptext.getBBox();
    tooltipbg.setAttributeNS(null, "width", tbb.width);
    tooltipbg.setAttributeNS(null, "height", tbb.height);
    tooltipbg.setAttributeNS(null, "x", tbb.x);
    tooltipbg.setAttributeNS(null, "y", tbb.y);
    tooltipbg.setAttributeNS(null, "visibility", "visible");
  }
  tooltiptext.setAttributeNS(null,"visibility","visible");
}

function RectUnhover(evt, i, c) {
  rect = svgDocument.getElementById('rect' + i);
  if( c != null ) {
    rect.setAttributeNS(null, "fill", c)  
  }
  tooltiptext = svgDocument.getElementById('tooltiptext' + i);
  tooltiptext.setAttributeNS(null,"visibility","hidden");
  tooltipbg = svgDocument.getElementById('tooltipbg' + i);
  if( tooltipbg != null ) {
    tooltipbg.setAttributeNS(null,"visibility","hidden");
  }
}
]]></script>
      <line x1="50.0" y1="550.0" x2="550.0" y2="550.0" stroke="rgb(0,0,0)" stroke-width="1"/><line x1="50.0" y1="550.0" x2="50.0" y2="50.0" stroke="rgb(0,0,0)" stroke-width="1"/><line x1="50.0" y1="550.0" x2="50.0" y2="50.0" stroke="rgb(192,192,192)" stroke-width="1"/><line x1="50.0" y1="548.0" x2="50.0" y2="552.0" stroke="rgb(192,192,192)" stroke-width="1"/><text text-anchor="middle" alignment-baseline="hanging" x="50.0" y="553.0" font-size="12.0">0</text><line x1="100.5050505050505" y1="550.0" x2="100.5050505050505" y2="50.0" stroke="rgb(192,192,192)" stroke-width="1"/><line x1="100.5050505050505" y1="548.0" x2="100.5050505050505" y2="552.0" stroke="rgb(192,192,192)" stroke-width="1"/><text text-anchor="middle" alignment-baseline="hanging" x="100.5050505050505" y="553.0" font-size="12.0">10</text><line x1="151.010101010101" y1="550.0" x2="151.010101010101" y2="50.0" stroke="rgb(192,192,192)" stroke-width="1"/><line x1="151.010101010101" y1="548.0" x2="151.010101010101" y2="552.0" stroke="rgb(192,192,192)" stroke-width="1"/><text text-anchor="middle" alignment-baseline="hanging" x="151.010101010101" y="553.0" font-size="12.0">20</text><line x1="201.51515151515153" y1="550.0" x2="201.51515151515153" y2="50.0" stroke="rgb(192,192,192)" stroke-width="1"/><line x1="201.51515151515153" y1="548.0" x2="201.51515151515153" y2="552.0" stroke="rgb(192,192,192)" stroke-width="1"/><text text-anchor="middle" alignment-baseline="hanging" x="201.51515151515153" y="553.0" font-size="12.0">30</text><line x1="252.02020202020202" y1="550.0" x2="252.02020202020202" y2="50.0" stroke="rgb(192,192,192)" stroke-width="1"/><line x1="252.02020202020202" y1="548.0" x2="252.02020202020202" y2="552.0" stroke="rgb(192,192,192)" stroke-width="1"/><text text-anchor="middle" alignment-baseline="hanging" x="252.02020202020202" y="553.0" font-size="12.0">40</text><line x1="302.52525252525254" y1="550.0" x2="302.52525252525254" y2="50.0" stroke="rgb(192,192,192)" stroke-width="1"/><line x1="302.52525252525254" y1="548.0" x2="302.52525252525254" y2="552.0" stroke="rgb(192,192,192)" stroke-width="1"/><text text-anchor="middle" alignment-baseline="hanging" x="302.52525252525254" y="553.0" font-size="12.0">50</text><line x1="353.03030303030306" y1="550.0" x2="353.03030303030306" y2="50.0" stroke="rgb(192,192,192)" stroke-width="1"/><line x1="353.03030303030306" y1="548.0" x2="353.03030303030306" y2="552.0" stroke="rgb(192,192,192)" stroke-width="1"/><text text-anchor="middle" alignment-baseline="hanging" x="353.03030303030306" y="553.0" font-size="12.0">60</text><line x1="403.5353535353535" y1="550.0" x2="403.5353535353535" y2="50.0" stroke="rgb(192,192,192)" stroke-width="1"/><line x1="403.5353535353535" y1="548.0" x2="403.5353535353535" y2="552.0" stroke="rgb(192,192,192)" stroke-width="1"/><text text-anchor="middle" alignment-baseline="hanging" x="403.5353535353535" y="553.0" font-size="12.0">70</text><line x1="454.04040404040404" y1="550.0" x2="454.04040404040404" y2="50.0" stroke="rgb(192,192,192)" stroke-width="1"/><line x1="454.04040404040404" y1="548.0" x2="454.04040404040404" y2="552.0" stroke="rgb(192,192,192)" stroke-width="1"/><text text-anchor="middle" alignment-baseline="hanging" x="454.04040404040404" y="553.0" font-size="12.0">80</text><line x1="504.5454545454545" y1="550.0" x2="504.5454545454545" y2="50.0" stroke="rgb(192,192,192)" stroke-width="1"/><line x1="504.5454545454545" y1="548.0" x2="504.5454545454545" y2="552.0" stroke="rgb(192,192,192)" stroke-width="1"/><text text-anchor="middle" alignment-baseline="hanging" x="504.5454545454545" y="553.0" font-size="12.0">90</text><line x1="50.0" y1="550.0" x2="550.0" y2="550.0" stroke="rgb(192,192,192)" stroke-width="1"/><text text-anchor="end" alignment-baseline="middle" x="45.0" y="550.0" font-size="12.0">0.0</text><line x1="48.0" y1="550.0" x2="52.0" y2="550.0" stroke="rgb(192,192,192)" stroke-width="1"/><line x1="50.0" y1="368.0816423820876" x2="550.0" y2="368.0816423820876" stroke="rgb(192,192,192)" stroke-width="1"/><text text-anchor="end" alignment-baseline="middle" x="45.0" y="368.0816423820876" font-size="12.0">1000.0</text><line x1="48.0" y1="368.0816423820876" x2="52.0" y2="368.0816423820876" stroke="rgb(192,192,192)" stroke-width="1"/><line x1="50.0" y1="186.1632847641751" x2="550.0" y2="186.1632847641751" stroke="rgb(192,192,192)" stroke-width="1"/><text text-anchor="end" alignment-baseline="middle" x="45.0" y="186.1632847641751" font-size="12.0">2000.0</text><line x1="48.0" y1="186.1632847641751" x2="52.0" y2="186.1632847641751" stroke="rgb(192,192,192)" stroke-width="1"/><polyline points="50.0,435.0014026119559 55.05050505050505,416.1275871161109 60.101010101010104,342.6965398686584 65.15151515151516,358.0464359390993 70.20202020202021,360.70493891661437 75.25252525252526,330.51320143866235 80.30303030303031,331.82246512209065 85.35353535353535,333.6029541207022 90.40404040404042,355.6475010946884 95.45454545454545,397.8131543106525 100.5050505050505,396.1525239148189 105.55555555555554,395.64144995258175 110.60606060606061,307.15608452606784 115.65656565656566,303.7243124772817 120.7070707070707,338.33219287164513 125.75757575757576,374.7212259711167 130.80808080808083,429.04904386634 135.85858585858585,376.1813122096094 140.9090909090909,329.0584641012159 145.95959595959596,386.0566351545189 151.010101010101,385.83332098761326 156.06060606060606,329.3252379529566 161.1111111111111,308.25462267848945 166.16161616161617,304.905278455293 171.21212121212122,352.7930746641876 176.26262626262627,351.1502075135996 181.31313131313132,303.2348788095711 186.36363636363635,410.4594273296369 191.4141414141414,328.3716245717708 196.46464646464648,328.38558729115385 201.51515151515153,318.4547453731851 206.56565656565658,318.55386996489057 211.61616161616163,322.32254677850966 216.66666666666666,315.35484723277636 221.7171717171717,315.40075333071286 226.76767676767676,279.6522585690889 231.8181818181818,233.87540496813352 236.86868686868686,363.0952679989224 241.91919191919192,255.87154000900563 246.96969696969697,280.82267853774556 252.02020202020202,279.3632544686364 257.07070707070704,386.79294444373613 262.1212121212121,270.86640547360486 267.1717171717172,238.6732933191147 272.2222222222222,315.194947513075 277.27272727272725,411.3158946793707 282.32323232323233,411.4094888301323 287.3737373737374,411.15910049320127 292.42424242424244,215.23358702176284 297.47474747474746,342.00857675699405 302.52525252525254,380.62506071675324 307.57575757575756,380.62506071675324 312.62626262626264,380.46846010292586 317.67676767676767,324.6635350001659 322.7272727272727,322.180608395534 327.77777777777777,333.8448069163394 332.8282828282828,380.20625500322 337.8787878787879,380.49038911103287 342.92929292929296,380.79676428316 347.979797979798,410.9971913180483 353.03030303030306,71.83053171227118 358.0808080808081,326.0445181661018 363.13131313131316,373.7397089234918 368.1818181818182,350.62101774370717 373.23232323232327,390.5612325391772 378.2828282828283,190.61288788321428 383.3333333333333,387.6484819933346 388.3838383838384,365.4129368683764 393.4343434343434,370.1645292232289 398.4848484848485,365.4102883097346 403.5353535353535,365.4129368683764 408.58585858585855,372.7024776016782 413.6363636363636,371.8806314873899 418.68686868686865,349.87081914816906 423.73737373737373,349.87081914816906 428.7878787878788,361.5098155935874 433.83838383838383,369.06260517982685 438.8888888888889,368.41773262175184 443.93939393939394,221.6797646662339 448.989898989899,221.65395974425093 454.04040404040404,385.6961437765226 459.0909090909091,385.7982689110048 464.14141414141415,402.5949408880887 469.19191919191917,384.9169531467531 474.24242424242425,394.52727584234935 479.2929292929293,394.14772078829526 484.34343434343435,384.3439585537022 489.3939393939394,357.5458709131554 494.4444444444444,336.6514937047181 499.4949494949495,367.92252991216276 504.5454545454545,368.43003188366083 509.59595959595964,382.9406621655465 514.6464646464647,326.24466771448556 519.6969696969697,383.0686784335294 524.7474747474748,402.98184047798793 529.7979797979798,328.6100135679627 534.8484848484849,328.5842086459797 539.8989898989898,408.91594445205953 544.9494949494949,324.46986071422964 550.0,326.1666063863387" fill="none" stroke="rgb(0,0,0)" stroke-width="1"/><circle cx="50.0" cy="435.0014026119559" r="2" fill="rgb(0,0,0)"/><circle cx="55.05050505050505" cy="416.1275871161109" r="2" fill="rgb(0,0,0)"/><circle cx="60.101010101010104" cy="342.6965398686584" r="2" fill="rgb(0,0,0)"/><circle cx="65.15151515151516" cy="358.0464359390993" r="2" fill="rgb(0,0,0)"/><circle cx="70.20202020202021" cy="360.70493891661437" r="2" fill="rgb(0,0,0)"/><circle cx="75.25252525252526" cy="330.51320143866235" r="2" fill="rgb(0,0,0)"/><circle cx="80.30303030303031" cy="331.82246512209065" r="2" fill="rgb(0,0,0)"/><circle cx="85.35353535353535" cy="333.6029541207022" r="2" fill="rgb(0,0,0)"/><circle cx="90.40404040404042" cy="355.6475010946884" r="2" fill="rgb(0,0,0)"/><circle cx="95.45454545454545" cy="397.8131543106525" r="2" fill="rgb(0,0,0)"/><circle cx="100.5050505050505" cy="396.1525239148189" r="2" fill="rgb(0,0,0)"/><circle cx="105.55555555555554" cy="395.64144995258175" r="2" fill="rgb(0,0,0)"/><circle cx="110.60606060606061" cy="307.15608452606784" r="2" fill="rgb(0,0,0)"/><circle cx="115.65656565656566" cy="303.7243124772817" r="2" fill="rgb(0,0,0)"/><circle cx="120.7070707070707" cy="338.33219287164513" r="2" fill="rgb(0,0,0)"/><circle cx="125.75757575757576" cy="374.7212259711167" r="2" fill="rgb(0,0,0)"/><circle cx="130.80808080808083" cy="429.04904386634" r="2" fill="rgb(0,0,0)"/><circle cx="135.85858585858585" cy="376.1813122096094" r="2" fill="rgb(0,0,0)"/><circle cx="140.9090909090909" cy="329.0584641012159" r="2" fill="rgb(0,0,0)"/><circle cx="145.95959595959596" cy="386.0566351545189" r="2" fill="rgb(0,0,0)"/><circle cx="151.010101010101" cy="385.83332098761326" r="2" fill="rgb(0,0,0)"/><circle cx="156.06060606060606" cy="329.3252379529566" r="2" fill="rgb(0,0,0)"/><circle cx="161.1111111111111" cy="308.25462267848945" r="2" fill="rgb(0,0,0)"/><circle cx="166.16161616161617" cy="304.905278455293" r="2" fill="rgb(0,0,0)"/><circle cx="171.21212121212122" cy="352.7930746641876" r="2" fill="rgb(0,0,0)"/><circle cx="176.26262626262627" cy="351.1502075135996" r="2" fill="rgb(0,0,0)"/><circle cx="181.31313131313132" cy="303.2348788095711" r="2" fill="rgb(0,0,0)"/><circle cx="186.36363636363635" cy="410.4594273296369" r="2" fill="rgb(0,0,0)"/><circle cx="191.4141414141414" cy="328.3716245717708" r="2" fill="rgb(0,0,0)"/><circle cx="196.46464646464648" cy="328.38558729115385" r="2" fill="rgb(0,0,0)"/><circle cx="201.51515151515153" cy="318.4547453731851" r="2" fill="rgb(0,0,0)"/><circle cx="206.56565656565658" cy="318.55386996489057" r="2" fill="rgb(0,0,0)"/><circle cx="211.61616161616163" cy="322.32254677850966" r="2" fill="rgb(0,0,0)"/><circle cx="216.66666666666666" cy="315.35484723277636" r="2" fill="rgb(0,0,0)"/><circle cx="221.7171717171717" cy="315.40075333071286" r="2" fill="rgb(0,0,0)"/><circle cx="226.76767676767676" cy="279.6522585690889" r="2" fill="rgb(0,0,0)"/><circle cx="231.8181818181818" cy="233.87540496813352" r="2" fill="rgb(0,0,0)"/><circle cx="236.86868686868686" cy="363.0952679989224" r="2" fill="rgb(0,0,0)"/><circle cx="241.91919191919192" cy="255.87154000900563" r="2" fill="rgb(0,0,0)"/><circle cx="246.96969696969697" cy="280.82267853774556" r="2" fill="rgb(0,0,0)"/><circle cx="252.02020202020202" cy="279.3632544686364" r="2" fill="rgb(0,0,0)"/><circle cx="257.07070707070704" cy="386.79294444373613" r="2" fill="rgb(0,0,0)"/><circle cx="262.1212121212121" cy="270.86640547360486" r="2" fill="rgb(0,0,0)"/><circle cx="267.1717171717172" cy="238.6732933191147" r="2" fill="rgb(0,0,0)"/><circle cx="272.2222222222222" cy="315.194947513075" r="2" fill="rgb(0,0,0)"/><circle cx="277.27272727272725" cy="411.3158946793707" r="2" fill="rgb(0,0,0)"/><circle cx="282.32323232323233" cy="411.4094888301323" r="2" fill="rgb(0,0,0)"/><circle cx="287.3737373737374" cy="411.15910049320127" r="2" fill="rgb(0,0,0)"/><circle cx="292.42424242424244" cy="215.23358702176284" r="2" fill="rgb(0,0,0)"/><circle cx="297.47474747474746" cy="342.00857675699405" r="2" fill="rgb(0,0,0)"/><circle cx="302.52525252525254" cy="380.62506071675324" r="2" fill="rgb(0,0,0)"/><circle cx="307.57575757575756" cy="380.62506071675324" r="2" fill="rgb(0,0,0)"/><circle cx="312.62626262626264" cy="380.46846010292586" r="2" fill="rgb(0,0,0)"/><circle cx="317.67676767676767" cy="324.6635350001659" r="2" fill="rgb(0,0,0)"/><circle cx="322.7272727272727" cy="322.180608395534" r="2" fill="rgb(0,0,0)"/><circle cx="327.77777777777777" cy="333.8448069163394" r="2" fill="rgb(0,0,0)"/><circle cx="332.8282828282828" cy="380.20625500322" r="2" fill="rgb(0,0,0)"/><circle cx="337.8787878787879" cy="380.49038911103287" r="2" fill="rgb(0,0,0)"/><circle cx="342.92929292929296" cy="380.79676428316" r="2" fill="rgb(0,0,0)"/><circle cx="347.979797979798" cy="410.9971913180483" r="2" fill="rgb(0,0,0)"/><circle cx="353.03030303030306" cy="71.83053171227118" r="2" fill="rgb(0,0,0)"/><circle cx="358.0808080808081" cy="326.0445181661018" r="2" fill="rgb(0,0,0)"/><circle cx="363.13131313131316" cy="373.7397089234918" r="2" fill="rgb(0,0,0)"/><circle cx="368.1818181818182" cy="350.62101774370717" r="2" fill="rgb(0,0,0)"/><circle cx="373.23232323232327" cy="390.5612325391772" r="2" fill="rgb(0,0,0)"/><circle cx="378.2828282828283" cy="190.61288788321428" r="2" fill="rgb(0,0,0)"/><circle cx="383.3333333333333" cy="387.6484819933346" r="2" fill="rgb(0,0,0)"/><circle cx="388.3838383838384" cy="365.4129368683764" r="2" fill="rgb(0,0,0)"/><circle cx="393.4343434343434" cy="370.1645292232289" r="2" fill="rgb(0,0,0)"/><circle cx="398.4848484848485" cy="365.4102883097346" r="2" fill="rgb(0,0,0)"/><circle cx="403.5353535353535" cy="365.4129368683764" r="2" fill="rgb(0,0,0)"/><circle cx="408.58585858585855" cy="372.7024776016782" r="2" fill="rgb(0,0,0)"/><circle cx="413.6363636363636" cy="371.8806314873899" r="2" fill="rgb(0,0,0)"/><circle cx="418.68686868686865" cy="349.87081914816906" r="2" fill="rgb(0,0,0)"/><circle cx="423.73737373737373" cy="349.87081914816906" r="2" fill="rgb(0,0,0)"/><circle cx="428.7878787878788" cy="361.5098155935874" r="2" fill="rgb(0,0,0)"/><circle cx="433.83838383838383" cy="369.06260517982685" r="2" fill="rgb(0,0,0)"/><circle cx="438.8888888888889" cy="368.41773262175184" r="2" fill="rgb(0,0,0)"/><circle cx="443.93939393939394" cy="221.6797646662339" r="2" fill="rgb(0,0,0)"/><circle cx="448.989898989899" cy="221.65395974425093" r="2" fill="rgb(0,0,0)"/><circle cx="454.04040404040404" cy="385.6961437765226" r="2" fill="rgb(0,0,0)"/><circle cx="459.0909090909091" cy="385.7982689110048" r="2" fill="rgb(0,0,0)"/><circle cx="464.14141414141415" cy="402.5949408880887" r="2" fill="rgb(0,0,0)"/><circle cx="469.19191919191917" cy="384.9169531467531" r="2" fill="rgb(0,0,0)"/><circle cx="474.24242424242425" cy="394.52727584234935" r="2" fill="rgb(0,0,0)"/><circle cx="479.2929292929293" cy="394.14772078829526" r="2" fill="rgb(0,0,0)"/><circle cx="484.34343434343435" cy="384.3439585537022" r="2" fill="rgb(0,0,0)"/><circle cx="489.3939393939394" cy="357.5458709131554" r="2" fill="rgb(0,0,0)"/><circle cx="494.4444444444444" cy="336.6514937047181" r="2" fill="rgb(0,0,0)"/><circle cx="499.4949494949495" cy="367.92252991216276" r="2" fill="rgb(0,0,0)"/><circle cx="504.5454545454545" cy="368.43003188366083" r="2" fill="rgb(0,0,0)"/><circle cx="509.59595959595964" cy="382.9406621655465" r="2" fill="rgb(0,0,0)"/><circle cx="514.6464646464647" cy="326.24466771448556" r="2" fill="rgb(0,0,0)"/><circle cx="519.6969696969697" cy="383.0686784335294" r="2" fill="rgb(0,0,0)"/><circle cx="524.7474747474748" cy="402.98184047798793" r="2" fill="rgb(0,0,0)"/><circle cx="529.7979797979798" cy="328.6100135679627" r="2" fill="rgb(0,0,0)"/><circle cx="534.8484848484849" cy="328.5842086459797" r="2" fill="rgb(0,0,0)"/><circle cx="539.8989898989898" cy="408.91594445205953" r="2" fill="rgb(0,0,0)"/><circle cx="544.9494949494949" cy="324.46986071422964" r="2" fill="rgb(0,0,0)"/><circle cx="550.0" cy="326.1666063863387" r="2" fill="rgb(0,0,0)"/><polyline points="50.0,208.79422517875167 55.05050505050505,189.12542492473608 60.101010101010104,168.87242720703472 65.15151515151516,155.2708715660366 70.20202020202021,142.62258556199828 75.25252525252526,125.64354524823182 80.30303030303031,108.56258797831362 85.35353535353535,105.91814888649719 90.40404040404042,100.2446027986295 95.45454545454545,99.62729206280187 100.5050505050505,94.91091305997583 105.55555555555554,91.71818293231024 110.60606060606061,83.62427763294534 115.65656565656566,79.11320873821916 120.7070707070707,80.72584800793925 125.75757575757576,84.12617980819283 130.80808080808083,77.44978540045275 135.85858585858585,69.48893192109904 140.9090909090909,76.80555010844859 145.95959595959596,71.97670215583366 151.010101010101,75.73398249905728 156.06060606060606,67.83529977844296 161.1111111111111,64.66445253425923 166.16161616161617,67.06646164727937 171.21212121212122,66.3163528764469 176.26262626262627,63.693673562876086 181.31313131313132,59.421070307327454 186.36363636363635,65.0550969434471 191.4141414141414,62.95601566872773 196.46464646464648,62.78759127003207 201.51515151515153,59.36687119894577 206.56565656565658,59.93368577104428 211.61616161616163,62.3983146917746 216.66666666666666,59.36614267647866 221.7171717171717,60.691342357247606 226.76767676767676,59.9329577071116 231.8181818181818,58.25118878717677 236.86868686868686,60.58321349749866 241.91919191919192,58.424328734333244 246.96969696969697,57.88173504345883 252.02020202020202,56.34446555724861 257.07070707070704,63.37237246883416 262.1212121212121,60.98815771727783 267.1717171717172,57.33222954328289 272.2222222222222,60.829041192216096 277.27272727272725,65.88953154398297 282.32323232323233,63.743268595928214 287.3737373737374,62.954107999383325 292.42424242424244,57.24739167494289 297.47474747474746,57.66753031520909 302.52525252525254,65.69247701916402 307.57575757575756,67.60800729246233 312.62626262626264,74.96963060113018 317.67676767676767,72.66508120490323 322.7272727272727,61.322683003832935 327.77777777777777,62.24683895710075 332.8282828282828,62.23638732038256 337.8787878787879,61.87771164614094 342.92929292929296,63.454868172867634 347.979797979798,65.03424788762169 353.03030303030306,52.92934565494431 358.0808080808081,56.14598359320104 363.13131313131316,63.31302983986251 368.1818181818182,63.78663462203747 373.23232323232327,61.92411166876286 378.2828282828283,56.173688757358946 383.3333333333333,61.61396181920571 388.3838383838384,67.76290785987294 393.4343434343434,68.73902435080515 398.4848484848485,66.38533971978353 403.5353535353535,62.1355743923757 408.58585858585855,62.17863034004256 413.6363636363636,61.93263893065745 418.68686868686865,68.17421621813423 423.73737373737373,63.92487565902388 428.7878787878788,66.51611603855508 433.83838383838383,66.71847716143094 438.8888888888889,63.30673221105076 443.93939393939394,56.35504828546624 448.989898989899,56.27318744807013 454.04040404040404,65.61909179722545 459.0909090909091,70.16737671284392 464.14141414141415,71.5713606356257 469.19191919191917,68.93646015857081 474.24242424242425,63.2429965629255 479.2929292929293,62.6708134006949 484.34343434343435,58.14620603423907 489.3939393939394,60.69944100940393 494.4444444444444,59.14767781291846 499.4949494949495,61.60397510939873 504.5454545454545,58.80340692080085 509.59595959595964,63.15295402583405 514.6464646464647,56.60432390199895 519.6969696969697,64.52343796449327 524.7474747474748,64.37298631578187 529.7979797979798,61.224154646137436 534.8484848484849,63.41337249783021 539.8989898989898,61.78509011978974 544.9494949494949,59.34147265583556 550.0,63.489679770446344" fill="none" stroke="rgb(0,0,255)" stroke-width="1"/><circle cx="50.0" cy="208.79422517875167" r="2" fill="rgb(0,0,255)"/><circle cx="55.05050505050505" cy="189.12542492473608" r="2" fill="rgb(0,0,255)"/><circle cx="60.101010101010104" cy="168.87242720703472" r="2" fill="rgb(0,0,255)"/><circle cx="65.15151515151516" cy="155.2708715660366" r="2" fill="rgb(0,0,255)"/><circle cx="70.20202020202021" cy="142.62258556199828" r="2" fill="rgb(0,0,255)"/><circle cx="75.25252525252526" cy="125.64354524823182" r="2" fill="rgb(0,0,255)"/><circle cx="80.30303030303031" cy="108.56258797831362" r="2" fill="rgb(0,0,255)"/><circle cx="85.35353535353535" cy="105.91814888649719" r="2" fill="rgb(0,0,255)"/><circle cx="90.40404040404042" cy="100.2446027986295" r="2" fill="rgb(0,0,255)"/><circle cx="95.45454545454545" cy="99.62729206280187" r="2" fill="rgb(0,0,255)"/><circle cx="100.5050505050505" cy="94.91091305997583" r="2" fill="rgb(0,0,255)"/><circle cx="105.55555555555554" cy="91.71818293231024" r="2" fill="rgb(0,0,255)"/><circle cx="110.60606060606061" cy="83.62427763294534" r="2" fill="rgb(0,0,255)"/><circle cx="115.65656565656566" cy="79.11320873821916" r="2" fill="rgb(0,0,255)"/><circle cx="120.7070707070707" cy="80.72584800793925" r="2" fill="rgb(0,0,255)"/><circle cx="125.75757575757576" cy="84.12617980819283" r="2" fill="rgb(0,0,255)"/><circle cx="130.80808080808083" cy="77.44978540045275" r="2" fill="rgb(0,0,255)"/><circle cx="135.85858585858585" cy="69.48893192109904" r="2" fill="rgb(0,0,255)"/><circle cx="140.9090909090909" cy="76.80555010844859" r="2" fill="rgb(0,0,255)"/><circle cx="145.95959595959596" cy="71.97670215583366" r="2" fill="rgb(0,0,255)"/><circle cx="151.010101010101" cy="75.73398249905728" r="2" fill="rgb(0,0,255)"/><circle cx="156.06060606060606" cy="67.83529977844296" r="2" fill="rgb(0,0,255)"/><circle cx="161.1111111111111" cy="64.66445253425923" r="2" fill="rgb(0,0,255)"/><circle cx="166.16161616161617" cy="67.06646164727937" r="2" fill="rgb(0,0,255)"/><circle cx="171.21212121212122" cy="66.3163528764469" r="2" fill="rgb(0,0,255)"/><circle cx="176.26262626262627" cy="63.693673562876086" r="2" fill="rgb(0,0,255)"/><circle cx="181.31313131313132" cy="59.421070307327454" r="2" fill="rgb(0,0,255)"/><circle cx="186.36363636363635" cy="65.0550969434471" r="2" fill="rgb(0,0,255)"/><circle cx="191.4141414141414" cy="62.95601566872773" r="2" fill="rgb(0,0,255)"/><circle cx="196.46464646464648" cy="62.78759127003207" r="2" fill="rgb(0,0,255)"/><circle cx="201.51515151515153" cy="59.36687119894577" r="2" fill="rgb(0,0,255)"/><circle cx="206.56565656565658" cy="59.93368577104428" r="2" fill="rgb(0,0,255)"/><circle cx="211.61616161616163" cy="62.3983146917746" r="2" fill="rgb(0,0,255)"/><circle cx="216.66666666666666" cy="59.36614267647866" r="2" fill="rgb(0,0,255)"/><circle cx="221.7171717171717" cy="60.691342357247606" r="2" fill="rgb(0,0,255)"/><circle cx="226.76767676767676" cy="59.9329577071116" r="2" fill="rgb(0,0,255)"/><circle cx="231.8181818181818" cy="58.25118878717677" r="2" fill="rgb(0,0,255)"/><circle cx="236.86868686868686" cy="60.58321349749866" r="2" fill="rgb(0,0,255)"/><circle cx="241.91919191919192" cy="58.424328734333244" r="2" fill="rgb(0,0,255)"/><circle cx="246.96969696969697" cy="57.88173504345883" r="2" fill="rgb(0,0,255)"/><circle cx="252.02020202020202" cy="56.34446555724861" r="2" fill="rgb(0,0,255)"/><circle cx="257.07070707070704" cy="63.37237246883416" r="2" fill="rgb(0,0,255)"/><circle cx="262.1212121212121" cy="60.98815771727783" r="2" fill="rgb(0,0,255)"/><circle cx="267.1717171717172" cy="57.33222954328289" r="2" fill="rgb(0,0,255)"/><circle cx="272.2222222222222" cy="60.829041192216096" r="2" fill="rgb(0,0,255)"/><circle cx="277.27272727272725" cy="65.88953154398297" r="2" fill="rgb(0,0,255)"/><circle cx="282.32323232323233" cy="63.743268595928214" r="2" fill="rgb(0,0,255)"/><circle cx="287.3737373737374" cy="62.954107999383325" r="2" fill="rgb(0,0,255)"/><circle cx="292.42424242424244" cy="57.24739167494289" r="2" fill="rgb(0,0,255)"/><circle cx="297.47474747474746" cy="57.66753031520909" r="2" fill="rgb(0,0,255)"/><circle cx="302.52525252525254" cy="65.69247701916402" r="2" fill="rgb(0,0,255)"/><circle cx="307.57575757575756" cy="67.60800729246233" r="2" fill="rgb(0,0,255)"/><circle cx="312.62626262626264" cy="74.96963060113018" r="2" fill="rgb(0,0,255)"/><circle cx="317.67676767676767" cy="72.66508120490323" r="2" fill="rgb(0,0,255)"/><circle cx="322.7272727272727" cy="61.322683003832935" r="2" fill="rgb(0,0,255)"/><circle cx="327.77777777777777" cy="62.24683895710075" r="2" fill="rgb(0,0,255)"/><circle cx="332.8282828282828" cy="62.23638732038256" r="2" fill="rgb(0,0,255)"/><circle cx="337.8787878787879" cy="61.87771164614094" r="2" fill="rgb(0,0,255)"/><circle cx="342.92929292929296" cy="63.454868172867634" r="2" fill="rgb(0,0,255)"/><circle cx="347.979797979798" cy="65.03424788762169" r="2" fill="rgb(0,0,255)"/><circle cx="353.03030303030306" cy="52.92934565494431" r="2" fill="rgb(0,0,255)"/><circle cx="358.0808080808081" cy="56.14598359320104" r="2" fill="rgb(0,0,255)"/><circle cx="363.13131313131316" cy="63.31302983986251" r="2" fill="rgb(0,0,255)"/><circle cx="368.1818181818182" cy="63.78663462203747" r="2" fill="rgb(0,0,255)"/><circle cx="373.23232323232327" cy="61.92411166876286" r="2" fill="rgb(0,0,255)"/><circle cx="378.2828282828283" cy="56.173688757358946" r="2" fill="rgb(0,0,255)"/><circle cx="383.3333333333333" cy="61.61396181920571" r="2" fill="rgb(0,0,255)"/><circle cx="388.3838383838384" cy="67.76290785987294" r="2" fill="rgb(0,0,255)"/><circle cx="393.4343434343434" cy="68.73902435080515" r="2" fill="rgb(0,0,255)"/><circle cx="398.4848484848485" cy="66.38533971978353" r="2" fill="rgb(0,0,255)"/><circle cx="403.5353535353535" cy="62.1355743923757" r="2" fill="rgb(0,0,255)"/><circle cx="408.58585858585855" cy="62.17863034004256" r="2" fill="rgb(0,0,255)"/><circle cx="413.6363636363636" cy="61.93263893065745" r="2" fill="rgb(0,0,255)"/><circle cx="418.68686868686865" cy="68.17421621813423" r="2" fill="rgb(0,0,255)"/><circle cx="423.73737373737373" cy="63.92487565902388" r="2" fill="rgb(0,0,255)"/><circle cx="428.7878787878788" cy="66.51611603855508" r="2" fill="rgb(0,0,255)"/><circle cx="433.83838383838383" cy="66.71847716143094" r="2" fill="rgb(0,0,255)"/><circle cx="438.8888888888889" cy="63.30673221105076" r="2" fill="rgb(0,0,255)"/><circle cx="443.93939393939394" cy="56.35504828546624" r="2" fill="rgb(0,0,255)"/><circle cx="448.989898989899" cy="56.27318744807013" r="2" fill="rgb(0,0,255)"/><circle cx="454.04040404040404" cy="65.61909179722545" r="2" fill="rgb(0,0,255)"/><circle cx="459.0909090909091" cy="70.16737671284392" r="2" fill="rgb(0,0,255)"/><circle cx="464.14141414141415" cy="71.5713606356257" r="2" fill="rgb(0,0,255)"/><circle cx="469.19191919191917" cy="68.93646015857081" r="2" fill="rgb(0,0,255)"/><circle cx="474.24242424242425" cy="63.2429965629255" r="2" fill="rgb(0,0,255)"/><circle cx="479.2929292929293" cy="62.6708134006949" r="2" fill="rgb(0,0,255)"/><circle cx="484.34343434343435" cy="58.14620603423907" r="2" fill="rgb(0,0,255)"/><circle cx="489.3939393939394" cy="60.69944100940393" r="2" fill="rgb(0,0,255)"/><circle cx="494.4444444444444" cy="59.14767781291846" r="2" fill="rgb(0,0,255)"/><circle cx="499.4949494949495" cy="61.60397510939873" r="2" fill="rgb(0,0,255)"/><circle cx="504.5454545454545" cy="58.80340692080085" r="2" fill="rgb(0,0,255)"/><circle cx="509.59595959595964" cy="63.15295402583405" r="2" fill="rgb(0,0,255)"/><circle cx="514.6464646464647" cy="56.60432390199895" r="2" fill="rgb(0,0,255)"/><circle cx="519.6969696969697" cy="64.52343796449327" r="2" fill="rgb(0,0,255)"/><circle cx="524.7474747474748" cy="64.37298631578187" r="2" fill="rgb(0,0,255)"/><circle cx="529.7979797979798" cy="61.224154646137436" r="2" fill="rgb(0,0,255)"/><circle cx="534.8484848484849" cy="63.41337249783021" r="2" fill="rgb(0,0,255)"/><circle cx="539.8989898989898" cy="61.78509011978974" r="2" fill="rgb(0,0,255)"/><circle cx="544.9494949494949" cy="59.34147265583556" r="2" fill="rgb(0,0,255)"/><circle cx="550.0" cy="63.489679770446344" r="2" fill="rgb(0,0,255)"/><polyline points="50.0,63.421084557024926 55.05050505050505,64.6717633368753 60.101010101010104,62.45575745271992 65.15151515151516,62.256069790668505 70.20202020202021,60.8373425928271 75.25252525252526,57.15580118842706 80.30303030303031,54.582257059045446 85.35353535353535,56.3251218829011 90.40404040404042,56.7915414468834 95.45454545454545,56.44562592927889 100.5050505050505,55.887756257469164 105.55555555555554,56.07787001428443 110.60606060606061,55.50723654094861 115.65656565656566,54.52125268366524 120.7070707070707,54.87077837071837 125.75757575757576,54.90370498384925 130.80808080808083,54.37894990759713 135.85858585858585,54.5660319009354 140.9090909090909,53.73646836525694 145.95959595959596,54.31850761042688 151.010101010101,53.95479704499587 156.06060606060606,53.72611421720012 161.1111111111111,53.69352666761563 166.16161616161617,53.66525923159645 171.21212121212122,53.42410719328063 176.26262626262627,53.47512782218479 181.31313131313132,52.8937602853311 186.36363636363635,52.973503107821045 191.4141414141414,52.55461593319586 196.46464646464648,52.816902493993666 201.51515151515153,52.993532052653165 206.56565656565658,52.97704234738262 211.61616161616163,52.50751750493862 216.66666666666666,52.52449443495891 221.7171717171717,52.75438639140151 226.76767676767676,52.76673176051918 231.8181818181818,52.42727191919795 236.86868686868686,52.60039567636386 241.91919191919192,52.40119478142998 246.96969696969697,52.40119478142998 252.02020202020202,52.40119478142998 257.07070707070704,52.35295227824673 262.1212121212121,52.4410683401249 267.1717171717172,52.40119478142998 272.2222222222222,52.324202417449726 277.27272727272725,52.196586187666924 282.32323232323233,52.196586187666924 287.3737373737374,52.196586187666924 292.42424242424244,51.880626685528796 297.47474747474746,51.78308280693409 302.52525252525254,52.196586187666924 307.57575757575756,52.11706067361712 312.62626262626264,52.11706067361712 317.67676767676767,52.1428655956002 322.7272727272727,52.11133229491759 327.77777777777777,52.027566169920135 332.8282828282828,52.027566169920135 337.8787878787879,52.024917611278454 342.92929292929296,52.09415164466856 347.979797979798,52.024917611278454 353.03030303030306,52.024917611278454 358.0808080808081,51.99911268929537 363.13131313131316,52.001761247937054 368.1818181818182,52.001761247937054 373.23232323232327,51.99911268929537 378.2828282828283,52.001761247937054 383.3333333333333,51.99911268929537 388.3838383838384,51.99911268929537 393.4343434343434,51.99911268929537 398.4848484848485,52.001761247937054 403.5353535353535,50.0 408.58585858585855,50.02020943527185 413.6363636363636,52.001761247937054 418.68686868686865,52.001761247937054 423.73737373737373,52.001761247937054 428.7878787878788,52.027566169920135 433.83838383838383,52.001761247937054 438.8888888888889,52.001761247937054 443.93939393939394,52.001761247937054 448.989898989899,51.99911268929537 454.04040404040404,51.99911268929537 459.0909090909091,51.99911268929537 464.14141414141415,51.99911268929537 469.19191919191917,51.99911268929537 474.24242424242425,51.99911268929537 479.2929292929293,51.99911268929537 484.34343434343435,52.001761247937054 489.3939393939394,51.99911268929537 494.4444444444444,52.001761247937054 499.4949494949495,51.99497188293702 504.5454545454545,51.99497188293702 509.59595959595964,51.99911268929537 514.6464646464647,51.99497188293702 519.6969696969697,51.99497188293702 524.7474747474748,51.99911268929537 529.7979797979798,51.99911268929537 534.8484848484849,51.99911268929537 539.8989898989898,51.99911268929537 544.9494949494949,51.99911268929537 550.0,52.001761247937054" fill="none" stroke="rgb(0,255,0)" stroke-width="1"/><circle cx="50.0" cy="63.421084557024926" r="2" fill="rgb(0,255,0)"/><circle cx="55.05050505050505" cy="64.6717633368753" r="2" fill="rgb(0,255,0)"/><circle cx="60.101010101010104" cy="62.45575745271992" r="2" fill="rgb(0,255,0)"/><circle cx="65.15151515151516" cy="62.256069790668505" r="2" fill="rgb(0,255,0)"/><circle cx="70.20202020202021" cy="60.8373425928271" r="2" fill="rgb(0,255,0)"/><circle cx="75.25252525252526" cy="57.15580118842706" r="2" fill="rgb(0,255,0)"/><circle cx="80.30303030303031" cy="54.582257059045446" r="2" fill="rgb(0,255,0)"/><circle cx="85.35353535353535" cy="56.3251218829011" r="2" fill="rgb(0,255,0)"/><circle cx="90.40404040404042" cy="56.7915414468834" r="2" fill="rgb(0,255,0)"/><circle cx="95.45454545454545" cy="56.44562592927889" r="2" fill="rgb(0,255,0)"/><circle cx="100.5050505050505" cy="55.887756257469164" r="2" fill="rgb(0,255,0)"/><circle cx="105.55555555555554" cy="56.07787001428443" r="2" fill="rgb(0,255,0)"/><circle cx="110.60606060606061" cy="55.50723654094861" r="2" fill="rgb(0,255,0)"/><circle cx="115.65656565656566" cy="54.52125268366524" r="2" fill="rgb(0,255,0)"/><circle cx="120.7070707070707" cy="54.87077837071837" r="2" fill="rgb(0,255,0)"/><circle cx="125.75757575757576" cy="54.90370498384925" r="2" fill="rgb(0,255,0)"/><circle cx="130.80808080808083" cy="54.37894990759713" r="2" fill="rgb(0,255,0)"/><circle cx="135.85858585858585" cy="54.5660319009354" r="2" fill="rgb(0,255,0)"/><circle cx="140.9090909090909" cy="53.73646836525694" r="2" fill="rgb(0,255,0)"/><circle cx="145.95959595959596" cy="54.31850761042688" r="2" fill="rgb(0,255,0)"/><circle cx="151.010101010101" cy="53.95479704499587" r="2" fill="rgb(0,255,0)"/><circle cx="156.06060606060606" cy="53.72611421720012" r="2" fill="rgb(0,255,0)"/><circle cx="161.1111111111111" cy="53.69352666761563" r="2" fill="rgb(0,255,0)"/><circle cx="166.16161616161617" cy="53.66525923159645" r="2" fill="rgb(0,255,0)"/><circle cx="171.21212121212122" cy="53.42410719328063" r="2" fill="rgb(0,255,0)"/><circle cx="176.26262626262627" cy="53.47512782218479" r="2" fill="rgb(0,255,0)"/><circle cx="181.31313131313132" cy="52.8937602853311" r="2" fill="rgb(0,255,0)"/><circle cx="186.36363636363635" cy="52.973503107821045" r="2" fill="rgb(0,255,0)"/><circle cx="191.4141414141414" cy="52.55461593319586" r="2" fill="rgb(0,255,0)"/><circle cx="196.46464646464648" cy="52.816902493993666" r="2" fill="rgb(0,255,0)"/><circle cx="201.51515151515153" cy="52.993532052653165" r="2" fill="rgb(0,255,0)"/><circle cx="206.56565656565658" cy="52.97704234738262" r="2" fill="rgb(0,255,0)"/><circle cx="211.61616161616163" cy="52.50751750493862" r="2" fill="rgb(0,255,0)"/><circle cx="216.66666666666666" cy="52.52449443495891" r="2" fill="rgb(0,255,0)"/><circle cx="221.7171717171717" cy="52.75438639140151" r="2" fill="rgb(0,255,0)"/><circle cx="226.76767676767676" cy="52.76673176051918" r="2" fill="rgb(0,255,0)"/><circle cx="231.8181818181818" cy="52.42727191919795" r="2" fill="rgb(0,255,0)"/><circle cx="236.86868686868686" cy="52.60039567636386" r="2" fill="rgb(0,255,0)"/><circle cx="241.91919191919192" cy="52.40119478142998" r="2" fill="rgb(0,255,0)"/><circle cx="246.96969696969697" cy="52.40119478142998" r="2" fill="rgb(0,255,0)"/><circle cx="252.02020202020202" cy="52.40119478142998" r="2" fill="rgb(0,255,0)"/><circle cx="257.07070707070704" cy="52.35295227824673" r="2" fill="rgb(0,255,0)"/><circle cx="262.1212121212121" cy="52.4410683401249" r="2" fill="rgb(0,255,0)"/><circle cx="267.1717171717172" cy="52.40119478142998" r="2" fill="rgb(0,255,0)"/><circle cx="272.2222222222222" cy="52.324202417449726" r="2" fill="rgb(0,255,0)"/><circle cx="277.27272727272725" cy="52.196586187666924" r="2" fill="rgb(0,255,0)"/><circle cx="282.32323232323233" cy="52.196586187666924" r="2" fill="rgb(0,255,0)"/><circle cx="287.3737373737374" cy="52.196586187666924" r="2" fill="rgb(0,255,0)"/><circle cx="292.42424242424244" cy="51.880626685528796" r="2" fill="rgb(0,255,0)"/><circle cx="297.47474747474746" cy="51.78308280693409" r="2" fill="rgb(0,255,0)"/><circle cx="302.52525252525254" cy="52.196586187666924" r="2" fill="rgb(0,255,0)"/><circle cx="307.57575757575756" cy="52.11706067361712" r="2" fill="rgb(0,255,0)"/><circle cx="312.62626262626264" cy="52.11706067361712" r="2" fill="rgb(0,255,0)"/><circle cx="317.67676767676767" cy="52.1428655956002" r="2" fill="rgb(0,255,0)"/><circle cx="322.7272727272727" cy="52.11133229491759" r="2" fill="rgb(0,255,0)"/><circle cx="327.77777777777777" cy="52.027566169920135" r="2" fill="rgb(0,255,0)"/><circle cx="332.8282828282828" cy="52.027566169920135" r="2" fill="rgb(0,255,0)"/><circle cx="337.8787878787879" cy="52.024917611278454" r="2" fill="rgb(0,255,0)"/><circle cx="342.92929292929296" cy="52.09415164466856" r="2" fill="rgb(0,255,0)"/><circle cx="347.979797979798" cy="52.024917611278454" r="2" fill="rgb(0,255,0)"/><circle cx="353.03030303030306" cy="52.024917611278454" r="2" fill="rgb(0,255,0)"/><circle cx="358.0808080808081" cy="51.99911268929537" r="2" fill="rgb(0,255,0)"/><circle cx="363.13131313131316" cy="52.001761247937054" r="2" fill="rgb(0,255,0)"/><circle cx="368.1818181818182" cy="52.001761247937054" r="2" fill="rgb(0,255,0)"/><circle cx="373.23232323232327" cy="51.99911268929537" r="2" fill="rgb(0,255,0)"/><circle cx="378.2828282828283" cy="52.001761247937054" r="2" fill="rgb(0,255,0)"/><circle cx="383.3333333333333" cy="51.99911268929537" r="2" fill="rgb(0,255,0)"/><circle cx="388.3838383838384" cy="51.99911268929537" r="2" fill="rgb(0,255,0)"/><circle cx="393.4343434343434" cy="51.99911268929537" r="2" fill="rgb(0,255,0)"/><circle cx="398.4848484848485" cy="52.001761247937054" r="2" fill="rgb(0,255,0)"/><circle cx="403.5353535353535" cy="50.0" r="2" fill="rgb(0,255,0)"/><circle cx="408.58585858585855" cy="50.02020943527185" r="2" fill="rgb(0,255,0)"/><circle cx="413.6363636363636" cy="52.001761247937054" r="2" fill="rgb(0,255,0)"/><circle cx="418.68686868686865" cy="52.001761247937054" r="2" fill="rgb(0,255,0)"/><circle cx="423.73737373737373" cy="52.001761247937054" r="2" fill="rgb(0,255,0)"/><circle cx="428.7878787878788" cy="52.027566169920135" r="2" fill="rgb(0,255,0)"/><circle cx="433.83838383838383" cy="52.001761247937054" r="2" fill="rgb(0,255,0)"/><circle cx="438.8888888888889" cy="52.001761247937054" r="2" fill="rgb(0,255,0)"/><circle cx="443.93939393939394" cy="52.001761247937054" r="2" fill="rgb(0,255,0)"/><circle cx="448.989898989899" cy="51.99911268929537" r="2" fill="rgb(0,255,0)"/><circle cx="454.04040404040404" cy="51.99911268929537" r="2" fill="rgb(0,255,0)"/><circle cx="459.0909090909091" cy="51.99911268929537" r="2" fill="rgb(0,255,0)"/><circle cx="464.14141414141415" cy="51.99911268929537" r="2" fill="rgb(0,255,0)"/><circle cx="469.19191919191917" cy="51.99911268929537" r="2" fill="rgb(0,255,0)"/><circle cx="474.24242424242425" cy="51.99911268929537" r="2" fill="rgb(0,255,0)"/><circle cx="479.2929292929293" cy="51.99911268929537" r="2" fill="rgb(0,255,0)"/><circle cx="484.34343434343435" cy="52.001761247937054" r="2" fill="rgb(0,255,0)"/><circle cx="489.3939393939394" cy="51.99911268929537" r="2" fill="rgb(0,255,0)"/><circle cx="494.4444444444444" cy="52.001761247937054" r="2" fill="rgb(0,255,0)"/><circle cx="499.4949494949495" cy="51.99497188293702" r="2" fill="rgb(0,255,0)"/><circle cx="504.5454545454545" cy="51.99497188293702" r="2" fill="rgb(0,255,0)"/><circle cx="509.59595959595964" cy="51.99911268929537" r="2" fill="rgb(0,255,0)"/><circle cx="514.6464646464647" cy="51.99497188293702" r="2" fill="rgb(0,255,0)"/><circle cx="519.6969696969697" cy="51.99497188293702" r="2" fill="rgb(0,255,0)"/><circle cx="524.7474747474748" cy="51.99911268929537" r="2" fill="rgb(0,255,0)"/><circle cx="529.7979797979798" cy="51.99911268929537" r="2" fill="rgb(0,255,0)"/><circle cx="534.8484848484849" cy="51.99911268929537" r="2" fill="rgb(0,255,0)"/><circle cx="539.8989898989898" cy="51.99911268929537" r="2" fill="rgb(0,255,0)"/><circle cx="544.9494949494949" cy="51.99911268929537" r="2" fill="rgb(0,255,0)"/><circle cx="550.0" cy="52.001761247937054" r="2" fill="rgb(0,255,0)"/><text x="350.0" y="20.0" text-anchor="middle" fill="rgb(0,0,0)" font-size="20.0">GA Demo</text><text x="350.0" y="575.0" text-anchor="middle" fill="rgb(0,0,0)" font-size="12.0">generation</text><text transform="rotate(-90.0 20.0 300.0)" x="20.0" y="300.0" text-anchor="middle" fill="rgb(0,0,0)" font-size="12.0">fitness</text><text x="620" y="62" fill="rgb(0,0,0)" font-size="12">min</text><text x="620" y="74" fill="rgb(0,0,255)" font-size="12">ave</text><text x="620" y="86" fill="rgb(0,255,0)" font-size="12">max</text>
      Sorry, your browser does not support inline SVG.
    </svg>