<?xml version='1.0' encoding='UTF-8'?>
<svg version="1.1" width="700.0" height="600.0" onload="init(evt)" xmlns="http://www.w3.org/2000/svg">
      <style>.caption {
  font-size: 14px;
  font-family: Georgia, serif;
}
</style>
      <script type="text/ecmascript"><![CDATA[
function init(evt) {
  if ( window.svgDocument == null ) {
    svgDocument = evt.target.ownerDocument;
  }
}

function RectHover(evt, i, c) {
  rect = svgDocument.getElementById('rect' + i);
  if( c != null ) {
    rect.setAttributeNS(null, "fill", c)  
  }
  tooltiptext = svgDocument.getElementById('tooltiptext' + i);
  tooltipbg = svgDocument.getElementById('tooltipbg' + i);
  if( tooltipbg != null) {
    tbb = tooltiptext.getBBox();
    tooltipbg.setAttributeNS(null, "width", tbb.width);
    tooltipbg.setAttributeNS(null, "height", tbb.height);
    tooltipbg.setAttributeNS(null, "x", tbb.x);
    tooltipbg.setAttributeNS(null, "y", tbb.y);
    tooltipbg.setAttributeNS(null, "visibility", "visible");
  }
  tooltiptext.setAttributeNS(null,"visibility","visible");
}

function RectUnhover(evt, i, c) {
  rect = svgDocument.getElementById('rect' + i);
  if( c != null ) {
    rect.setAttributeNS(null, "fill", c)  
  }
  tooltiptext = svgDocument.getElementById('tooltiptext' + i);
  tooltiptext.setAttributeNS(null,"visibility","hidden");
  tooltipbg = svgDocument.getElementById('tooltipbg' + i);
  if( tooltipbg != null ) {
    tooltipbg.setAttributeNS(null,"visibility","hidden");
  }
}
]]></script>
      <line x1="50.0" y1="550.0" x2="550.0" y2="550.0" stroke="rgb(0,0,0)" stroke-width="1"/><line x1="50.0" y1="550.0" x2="50.0" y2="50.0" stroke="rgb(0,0,0)" stroke-width="1"/><line x1="50.0" y1="550.0" x2="50.0" y2="50.0" stroke="rgb(192,192,192)" stroke-width="1"/><line x1="50.0" y1="548.0" x2="50.0" y2="552.0" stroke="rgb(192,192,192)" stroke-width="1"/><text text-anchor="middle" alignment-baseline="hanging" x="50.0" y="553.0" font-size="12.0">0</text><line x1="100.5050505050505" y1="550.0" x2="100.5050505050505" y2="50.0" stroke="rgb(192,192,192)" stroke-width="1"/><line x1="100.5050505050505" y1="548.0" x2="100.5050505050505" y2="552.0" stroke="rgb(192,192,192)" stroke-width="1"/><text text-anchor="middle" alignment-baseline="hanging" x="100.5050505050505" y="553.0" font-size="12.0">10</text><line x1="151.010101010101" y1="550.0" x2="151.010101010101" y2="50.0" stroke="rgb(192,192,192)" stroke-width="1"/><line x1="151.010101010101" y1="548.0" x2="151.010101010101" y2="552.0" stroke="rgb(192,192,192)" stroke-width="1"/><text text-anchor="middle" alignment-baseline="hanging" x="151.010101010101" y="553.0" font-size="12.0">20</text><line x1="201.51515151515153" y1="550.0" x2="201.51515151515153" y2="50.0" stroke="rgb(192,192,192)" stroke-width="1"/><line x1="201.51515151515153" y1="548.0" x2="201.51515151515153" y2="552.0" stroke="rgb(192,192,192)" stroke-width="1"/><text text-anchor="middle" alignment-baseline="hanging" x="201.51515151515153" y="553.0" font-size="12.0">30</text><line x1="252.02020202020202" y1="550.0" x2="252.02020202020202" y2="50.0" stroke="rgb(192,192,192)" stroke-width="1"/><line x1="252.02020202020202" y1="548.0" x2="252.02020202020202" y2="552.0" stroke="rgb(192,192,192)" stroke-width="1"/><text text-anchor="middle" alignment-baseline="hanging" x="252.02020202020202" y="553.0" font-size="12.0">40</text><line x1="302.52525252525254" y1="550.0" x2="302.52525252525254" y2="50.0" stroke="rgb(192,192,192)" stroke-width="1"/><line x1="302.52525252525254" y1="548.0" x2="302.52525252525254" y2="552.0" stroke="rgb(192,192,192)" stroke-width="1"/><text text-anchor="middle" alignment-baseline="hanging" x="302.52525252525254" y="553.0" font-size="12.0">50</text><line x1="353.03030303030306" y1="550.0" x2="353.03030303030306" y2="50.0" stroke="rgb(192,192,192)" stroke-width="1"/><line x1="353.03030303030306" y1="548.0" x2="353.03030303030306" y2="552.0" stroke="rgb(192,192,192)" stroke-width="1"/><text text-anchor="middle" alignment-baseline="hanging" x="353.03030303030306" y="553.0" font-size="12.0">60</text><line x1="403.5353535353535" y1="550.0" x2="403.5353535353535" y2="50.0" stroke="rgb(192,192,192)" stroke-width="1"/><line x1="403.5353535353535" y1="548.0" x2="403.5353535353535" y2="552.0" stroke="rgb(192,192,192)" stroke-width="1"/><text text-anchor="middle" alignment-baseline="hanging" x="403.5353535353535" y="553.0" font-size="12.0">70</text><line x1="454.04040404040404" y1="550.0" x2="454.04040404040404" y2="50.0" stroke="rgb(192,192,192)" stroke-width="1"/><line x1="454.04040404040404" y1="548.0" x2="454.04040404040404" y2="552.0" stroke="rgb(192,192,192)" stroke-width="1"/><text text-anchor="middle" alignment-baseline="hanging" x="454.04040404040404" y="553.0" font-size="12.0">80</text><line x1="504.5454545454545" y1="550.0" x2="504.5454545454545" y2="50.0" stroke="rgb(192,192,192)" stroke-width="1"/><line x1="504.5454545454545" y1="548.0" x2="504.5454545454545" y2="552.0" stroke="rgb(192,192,192)" stroke-width="1"/><text text-anchor="middle" alignment-baseline="hanging" x="504.5454545454545" y="553.0" font-size="12.0">90</text><line x1="50.0" y1="550.0" x2="550.0" y2="550.0" stroke="rgb(192,192,192)" stroke-width="1"/><text text-anchor="end" alignment-baseline="middle" x="45.0" y="550.0" font-size="12.0">0.0</text><line x1="48.0" y1="550.0" x2="52.0" y2="550.0" stroke="rgb(192,192,192)" stroke-width="1"/><line x1="50.0" y1="367.8283616535417" x2="550.0" y2="367.8283616535417" stroke="rgb(192,192,192)" stroke-width="1"/><text text-anchor="end" alignment-baseline="middle" x="45.0" y="367.8283616535417" font-size="12.0">1000.0</text><line x1="48.0" y1="367.8283616535417" x2="52.0" y2="367.8283616535417" stroke="rgb(192,192,192)" stroke-width="1"/><line x1="50.0" y1="185.6567233070835" x2="550.0" y2="185.6567233070835" stroke="rgb(192,192,192)" stroke-width="1"/><text text-anchor="end" alignment-baseline="middle" x="45.0" y="185.6567233070835" font-size="12.0">2000.0</text><line x1="48.0" y1="185.6567233070835" x2="52.0" y2="185.6567233070835" stroke="rgb(192,192,192)" stroke-width="1"/><polyline points="50.0,433.7287879651735 55.05050505050505,400.98593357597747 60.101010101010104,375.96697353508694 65.15151515151516,375.9037240298928 70.20202020202021,430.09355472833886 75.25252525252526,411.73416630566567 80.30303030303031,374.3609461327392 85.35353535353535,357.1430281636884 90.40404040404042,276.73734426824694 95.45454545454545,261.6888988069518 100.5050505050505,238.81570164295874 105.55555555555554,195.27597482315838 110.60606060606061,300.3885726817025 115.65656565656566,299.60821455175835 120.7070707070707,413.266543409374 125.75757575757576,404.29457907743426 130.80808080808083,226.8812179036102 135.85858585858585,175.5672791977305 140.9090909090909,306.2146260240793 145.95959595959596,306.39188998532006 151.010101010101,326.4977603499426 156.06060606060606,400.86040880750517 161.1111111111111,385.6361822404349 166.16161616161617,317.5940287098375 171.21212121212122,299.49862877487953 176.26262626262627,300.60556843026984 181.31313131313132,299.1666216370799 186.36363636363635,299.13483324822784 191.4141414141414,405.4200388942106 196.46464646464648,379.45297977423706 201.51515151515153,379.45297977423706 206.56565656565658,402.32099734237136 211.61616161616163,402.50128608257785 216.66666666666666,361.07966176101945 221.7171717171717,362.08118857599175 226.76767676767676,256.3546986103967 231.8181818181818,350.00556800969866 236.86868686868686,398.0705289945205 241.91919191919192,397.682529736017 246.96969696969697,398.95670077470925 252.02020202020202,255.7218927165481 257.07070707070704,256.4230356133545 262.1212121212121,256.40047366611327 267.1717171717172,255.80267538703833 272.2222222222222,391.9423602567506 277.27272727272725,375.0128047417754 282.32323232323233,396.20798841578426 287.3737373737374,409.36085905301456 292.42424242424244,371.452092652171 297.47474747474746,408.3989544562095 302.52525252525254,408.4164938900294 307.57575757575756,408.3520923511844 312.62626262626264,385.13848934179856 317.67676767676767,385.4164452101115 322.7272727272727,385.5407593924732 327.77777777777777,385.7309435300558 332.8282828282828,352.5478134054251 337.8787878787879,354.2497639486327 342.92929292929296,387.2420409479907 347.979797979798,400.97746955748335 353.03030303030306,401.78508678898385 358.0808080808081,333.44297915524396 363.13131313131316,397.7738467812579 368.1818181818182,105.32720241556234 373.23232323232327,405.30385236484966 378.2828282828283,287.75298673857355 383.3333333333333,322.762218527622 388.3838383838384,337.4579668088004 393.4343434343434,230.17935533415124 398.4848484848485,308.2333744608595 403.5353535353535,375.87237316734684 408.58585858585855,398.2861615841424 413.6363636363636,398.21419508549263 418.68686868686865,375.6366549124657 423.73737373737373,393.6073984107294 428.7878787878788,394.2020684051015 433.83838383838383,396.4082101637175 438.8888888888889,408.6308778352158 443.93939393939394,282.64328578143903 448.989898989899,340.6100182644607 454.04040404040404,401.1473871780055 459.0909090909091,401.5350488656914 464.14141414141415,400.0492349891663 469.19191919191917,303.09277490052335 474.24242424242425,303.02358319419193 479.2929292929293,393.7875396703075 484.34343434343435,393.71834796397616 489.3939393939394,233.68522815505588 494.4444444444444,295.34055414922113 499.4949494949495,296.4089817418501 504.5454545454545,411.210696238184 509.59595959595964,371.20664646677835 514.6464646464647,324.2459573797091 519.6969696969697,344.6771999533824 524.7474747474748,329.36361137014796 529.7979797979798,258.8676832905711 534.8484848484849,258.8676832905711 539.8989898989898,321.92240776739766 544.9494949494949,335.2397889020443 550.0,293.8106996021073" fill="none" stroke="rgb(0,0,0)" stroke-width="1"/><circle cx="50.0" cy="433.7287879651735" r="2" fill="rgb(0,0,0)"/><circle cx="55.05050505050505" cy="400.98593357597747" r="2" fill="rgb(0,0,0)"/><circle cx="60.101010101010104" cy="375.96697353508694" r="2" fill="rgb(0,0,0)"/><circle cx="65.15151515151516" cy="375.9037240298928" r="2" fill="rgb(0,0,0)"/><circle cx="70.20202020202021" cy="430.09355472833886" r="2" fill="rgb(0,0,0)"/><circle cx="75.25252525252526" cy="411.73416630566567" r="2" fill="rgb(0,0,0)"/><circle cx="80.30303030303031" cy="374.3609461327392" r="2" fill="rgb(0,0,0)"/><circle cx="85.35353535353535" cy="357.1430281636884" r="2" fill="rgb(0,0,0)"/><circle cx="90.40404040404042" cy="276.73734426824694" r="2" fill="rgb(0,0,0)"/><circle cx="95.45454545454545" cy="261.6888988069518" r="2" fill="rgb(0,0,0)"/><circle cx="100.5050505050505" cy="238.81570164295874" r="2" fill="rgb(0,0,0)"/><circle cx="105.55555555555554" cy="195.27597482315838" r="2" fill="rgb(0,0,0)"/><circle cx="110.60606060606061" cy="300.3885726817025" r="2" fill="rgb(0,0,0)"/><circle cx="115.65656565656566" cy="299.60821455175835" r="2" fill="rgb(0,0,0)"/><circle cx="120.7070707070707" cy="413.266543409374" r="2" fill="rgb(0,0,0)"/><circle cx="125.75757575757576" cy="404.29457907743426" r="2" fill="rgb(0,0,0)"/><circle cx="130.80808080808083" cy="226.8812179036102" r="2" fill="rgb(0,0,0)"/><circle cx="135.85858585858585" cy="175.5672791977305" r="2" fill="rgb(0,0,0)"/><circle cx="140.9090909090909" cy="306.2146260240793" r="2" fill="rgb(0,0,0)"/><circle cx="145.95959595959596" cy="306.39188998532006" r="2" fill="rgb(0,0,0)"/><circle cx="151.010101010101" cy="326.4977603499426" r="2" fill="rgb(0,0,0)"/><circle cx="156.06060606060606" cy="400.86040880750517" r="2" fill="rgb(0,0,0)"/><circle cx="161.1111111111111" cy="385.6361822404349" r="2" fill="rgb(0,0,0)"/><circle cx="166.16161616161617" cy="317.5940287098375" r="2" fill="rgb(0,0,0)"/><circle cx="171.21212121212122" cy="299.49862877487953" r="2" fill="rgb(0,0,0)"/><circle cx="176.26262626262627" cy="300.60556843026984" r="2" fill="rgb(0,0,0)"/><circle cx="181.31313131313132" cy="299.1666216370799" r="2" fill="rgb(0,0,0)"/><circle cx="186.36363636363635" cy="299.13483324822784" r="2" fill="rgb(0,0,0)"/><circle cx="191.4141414141414" cy="405.4200388942106" r="2" fill="rgb(0,0,0)"/><circle cx="196.46464646464648" cy="379.45297977423706" r="2" fill="rgb(0,0,0)"/><circle cx="201.51515151515153" cy="379.45297977423706" r="2" fill="rgb(0,0,0)"/><circle cx="206.56565656565658" cy="402.32099734237136" r="2" fill="rgb(0,0,0)"/><circle cx="211.61616161616163" cy="402.50128608257785" r="2" fill="rgb(0,0,0)"/><circle cx="216.66666666666666" cy="361.07966176101945" r="2" fill="rgb(0,0,0)"/><circle cx="221.7171717171717" cy="362.08118857599175" r="2" fill="rgb(0,0,0)"/><circle cx="226.76767676767676" cy="256.3546986103967" r="2" fill="rgb(0,0,0)"/><circle cx="231.8181818181818" cy="350.00556800969866" r="2" fill="rgb(0,0,0)"/><circle cx="236.86868686868686" cy="398.0705289945205" r="2" fill="rgb(0,0,0)"/><circle cx="241.91919191919192" cy="397.682529736017" r="2" fill="rgb(0,0,0)"/><circle cx="246.96969696969697" cy="398.95670077470925" r="2" fill="rgb(0,0,0)"/><circle cx="252.02020202020202" cy="255.7218927165481" r="2" fill="rgb(0,0,0)"/><circle cx="257.07070707070704" cy="256.4230356133545" r="2" fill="rgb(0,0,0)"/><circle cx="262.1212121212121" cy="256.40047366611327" r="2" fill="rgb(0,0,0)"/><circle cx="267.1717171717172" cy="255.80267538703833" r="2" fill="rgb(0,0,0)"/><circle cx="272.2222222222222" cy="391.9423602567506" r="2" fill="rgb(0,0,0)"/><circle cx="277.27272727272725" cy="375.0128047417754" r="2" fill="rgb(0,0,0)"/><circle cx="282.32323232323233" cy="396.20798841578426" r="2" fill="rgb(0,0,0)"/><circle cx="287.3737373737374" cy="409.36085905301456" r="2" fill="rgb(0,0,0)"/><circle cx="292.42424242424244" cy="371.452092652171" r="2" fill="rgb(0,0,0)"/><circle cx="297.47474747474746" cy="408.3989544562095" r="2" fill="rgb(0,0,0)"/><circle cx="302.52525252525254" cy="408.4164938900294" r="2" fill="rgb(0,0,0)"/><circle cx="307.57575757575756" cy="408.3520923511844" r="2" fill="rgb(0,0,0)"/><circle cx="312.62626262626264" cy="385.13848934179856" r="2" fill="rgb(0,0,0)"/><circle cx="317.67676767676767" cy="385.4164452101115" r="2" fill="rgb(0,0,0)"/><circle cx="322.7272727272727" cy="385.5407593924732" r="2" fill="rgb(0,0,0)"/><circle cx="327.77777777777777" cy="385.7309435300558" r="2" fill="rgb(0,0,0)"/><circle cx="332.8282828282828" cy="352.5478134054251" r="2" fill="rgb(0,0,0)"/><circle cx="337.8787878787879" cy="354.2497639486327" r="2" fill="rgb(0,0,0)"/><circle cx="342.92929292929296" cy="387.2420409479907" r="2" fill="rgb(0,0,0)"/><circle cx="347.979797979798" cy="400.97746955748335" r="2" fill="rgb(0,0,0)"/><circle cx="353.03030303030306" cy="401.78508678898385" r="2" fill="rgb(0,0,0)"/><circle cx="358.0808080808081" cy="333.44297915524396" r="2" fill="rgb(0,0,0)"/><circle cx="363.13131313131316" cy="397.7738467812579" r="2" fill="rgb(0,0,0)"/><circle cx="368.1818181818182" cy="105.32720241556234" r="2" fill="rgb(0,0,0)"/><circle cx="373.23232323232327" cy="405.30385236484966" r="2" fill="rgb(0,0,0)"/><circle cx="378.2828282828283" cy="287.75298673857355" r="2" fill="rgb(0,0,0)"/><circle cx="383.3333333333333" cy="322.762218527622" r="2" fill="rgb(0,0,0)"/><circle cx="388.3838383838384" cy="337.4579668088004" r="2" fill="rgb(0,0,0)"/><circle cx="393.4343434343434" cy="230.17935533415124" r="2" fill="rgb(0,0,0)"/><circle cx="398.4848484848485" cy="308.2333744608595" r="2" fill="rgb(0,0,0)"/><circle cx="403.5353535353535" cy="375.87237316734684" r="2" fill="rgb(0,0,0)"/><circle cx="408.58585858585855" cy="398.2861615841424" r="2" fill="rgb(0,0,0)"/><circle cx="413.6363636363636" cy="398.21419508549263" r="2" fill="rgb(0,0,0)"/><circle cx="418.68686868686865" cy="375.6366549124657" r="2" fill="rgb(0,0,0)"/><circle cx="423.73737373737373" cy="393.6073984107294" r="2" fill="rgb(0,0,0)"/><circle cx="428.7878787878788" cy="394.2020684051015" r="2" fill="rgb(0,0,0)"/><circle cx="433.83838383838383" cy="396.4082101637175" r="2" fill="rgb(0,0,0)"/><circle cx="438.8888888888889" cy="408.6308778352158" r="2" fill="rgb(0,0,0)"/><circle cx="443.93939393939394" cy="282.64328578143903" r="2" fill="rgb(0,0,0)"/><circle cx="448.989898989899" cy="340.6100182644607" r="2" fill="rgb(0,0,0)"/><circle cx="454.04040404040404" cy="401.1473871780055" r="2" fill="rgb(0,0,0)"/><circle cx="459.0909090909091" cy="401.5350488656914" r="2" fill="rgb(0,0,0)"/><circle cx="464.14141414141415" cy="400.0492349891663" r="2" fill="rgb(0,0,0)"/><circle cx="469.19191919191917" cy="303.09277490052335" r="2" fill="rgb(0,0,0)"/><circle cx="474.24242424242425" cy="303.02358319419193" r="2" fill="rgb(0,0,0)"/><circle cx="479.2929292929293" cy="393.7875396703075" r="2" fill="rgb(0,0,0)"/><circle cx="484.34343434343435" cy="393.71834796397616" r="2" fill="rgb(0,0,0)"/><circle cx="489.3939393939394" cy="233.68522815505588" r="2" fill="rgb(0,0,0)"/><circle cx="494.4444444444444" cy="295.34055414922113" r="2" fill="rgb(0,0,0)"/><circle cx="499.4949494949495" cy="296.4089817418501" r="2" fill="rgb(0,0,0)"/><circle cx="504.5454545454545" cy="411.210696238184" r="2" fill="rgb(0,0,0)"/><circle cx="509.59595959595964" cy="371.20664646677835" r="2" fill="rgb(0,0,0)"/><circle cx="514.6464646464647" cy="324.2459573797091" r="2" fill="rgb(0,0,0)"/><circle cx="519.6969696969697" cy="344.6771999533824" r="2" fill="rgb(0,0,0)"/><circle cx="524.7474747474748" cy="329.36361137014796" r="2" fill="rgb(0,0,0)"/><circle cx="529.7979797979798" cy="258.8676832905711" r="2" fill="rgb(0,0,0)"/><circle cx="534.8484848484849" cy="258.8676832905711" r="2" fill="rgb(0,0,0)"/><circle cx="539.8989898989898" cy="321.92240776739766" r="2" fill="rgb(0,0,0)"/><circle cx="544.9494949494949" cy="335.2397889020443" r="2" fill="rgb(0,0,0)"/><circle cx="550.0" cy="293.8106996021073" r="2" fill="rgb(0,0,0)"/><polyline points="50.0,204.86083030980302 55.05050505050505,174.11212128198002 60.101010101010104,154.85774184610108 65.15151515151516,136.88687041863506 70.20202020202021,119.19922380422588 75.25252525252526,113.9886927041403 80.30303030303031,98.7171450409129 85.35353535353535,89.53921912747819 90.40404040404042,83.41610896655538 95.45454545454545,79.26347370812726 100.5050505050505,76.26525709562941 105.55555555555554,71.64658176678847 110.60606060606061,73.9951453997395 115.65656565656566,68.51750126518368 120.7070707070707,68.23079358531709 125.75757575757576,66.63716767590296 130.80808080808083,59.01713804511934 135.85858585858585,57.218675301649625 140.9090909090909,60.51432607092727 145.95959595959596,60.25543768334791 151.010101010101,63.80060496511709 156.06060606060606,66.4703005717389 161.1111111111111,72.42097478298638 166.16161616161617,70.17346062060938 171.21212121212122,59.27599191606555 176.26262626262627,64.87826685358937 181.31313131313132,65.80744778578804 186.36363636363635,63.124332210009186 191.4141414141414,72.55057862583254 196.46464646464648,75.78334863232948 201.51515151515153,75.93234355510725 206.56565656565658,71.92331696980102 211.61616161616163,64.47711883477638 216.66666666666666,66.59697571824722 221.7171717171717,67.9220746679473 226.76767676767676,57.4083393071208 231.8181818181818,65.50462061086779 236.86868686868686,69.52515769752029 241.91919191919192,72.0034798874305 246.96969696969697,72.72177420567658 252.02020202020202,58.36685267103684 257.07070707070704,59.791715963151944 262.1212121212121,56.55774500130235 267.1717171717172,54.273834141280986 272.2222222222222,64.18652143111677 277.27272727272725,64.21810372779026 282.32323232323233,73.97525072226028 287.3737373737374,64.55444849469603 292.42424242424244,63.7098440031877 297.47474747474746,66.50694648556896 302.52525252525254,74.58049138692172 307.57575757575756,74.06982861894198 312.62626262626264,79.94994428705792 317.67676767676767,69.29244348980637 322.7272727272727,71.47602963735403 327.77777777777777,67.3121267864758 332.8282828282828,69.75066878914862 337.8787878787879,75.77715844651175 342.92929292929296,87.63331521559621 347.979797979798,73.63826665016012 353.03030303030306,72.35880576834899 358.0808080808081,67.30665581021162 363.13131313131316,61.59325206623288 368.1818181818182,53.89333606554948 373.23232323232327,55.16414498368556 378.2828282828283,56.27317587767146 383.3333333333333,54.65326131310525 388.3838383838384,58.03621871786771 393.4343434343434,55.18163793745032 398.4848484848485,62.572499980158 403.5353535353535,59.343131481203045 408.58585858585855,61.18618549417232 413.6363636363636,71.38097472558223 418.68686868686865,67.22848308086736 423.73737373737373,59.93551541573453 428.7878787878788,61.85285952242816 433.83838383838383,67.21903291157082 438.8888888888889,68.40459780366177 443.93939393939394,54.967222919989126 448.989898989899,61.0809416647038 454.04040404040404,62.033837755872355 459.0909090909091,64.31426724797979 464.14141414141415,57.630987602470384 469.19191919191917,59.83385425681587 474.24242424242425,63.10492337932595 479.2929292929293,69.06042352117743 484.34343434343435,67.96745108916588 489.3939393939394,55.44990488543715 494.4444444444444,56.333254117045385 499.4949494949495,57.89750067441844 504.5454545454545,61.97522464528896 509.59595959595964,62.64497605326915 514.6464646464647,60.12427690161587 519.6969696969697,57.94377628668087 524.7474747474748,54.232805098732285 529.7979797979798,54.86431950592345 534.8484848484849,56.125412946304095 539.8989898989898,58.766124121264454 544.9494949494949,60.45662907035836 550.0,54.92693697277741" fill="none" stroke="rgb(0,0,255)" stroke-width="1"/><circle cx="50.0" cy="204.86083030980302" r="2" fill="rgb(0,0,255)"/><circle cx="55.05050505050505" cy="174.11212128198002" r="2" fill="rgb(0,0,255)"/><circle cx="60.101010101010104" cy="154.85774184610108" r="2" fill="rgb(0,0,255)"/><circle cx="65.15151515151516" cy="136.88687041863506" r="2" fill="rgb(0,0,255)"/><circle cx="70.20202020202021" cy="119.19922380422588" r="2" fill="rgb(0,0,255)"/><circle cx="75.25252525252526" cy="113.9886927041403" r="2" fill="rgb(0,0,255)"/><circle cx="80.30303030303031" cy="98.7171450409129" r="2" fill="rgb(0,0,255)"/><circle cx="85.35353535353535" cy="89.53921912747819" r="2" fill="rgb(0,0,255)"/><circle cx="90.40404040404042" cy="83.41610896655538" r="2" fill="rgb(0,0,255)"/><circle cx="95.45454545454545" cy="79.26347370812726" r="2" fill="rgb(0,0,255)"/><circle cx="100.5050505050505" cy="76.26525709562941" r="2" fill="rgb(0,0,255)"/><circle cx="105.55555555555554" cy="71.64658176678847" r="2" fill="rgb(0,0,255)"/><circle cx="110.60606060606061" cy="73.9951453997395" r="2" fill="rgb(0,0,255)"/><circle cx="115.65656565656566" cy="68.51750126518368" r="2" fill="rgb(0,0,255)"/><circle cx="120.7070707070707" cy="68.23079358531709" r="2" fill="rgb(0,0,255)"/><circle cx="125.75757575757576" cy="66.63716767590296" r="2" fill="rgb(0,0,255)"/><circle cx="130.80808080808083" cy="59.01713804511934" r="2" fill="rgb(0,0,255)"/><circle cx="135.85858585858585" cy="57.218675301649625" r="2" fill="rgb(0,0,255)"/><circle cx="140.9090909090909" cy="60.51432607092727" r="2" fill="rgb(0,0,255)"/><circle cx="145.95959595959596" cy="60.25543768334791" r="2" fill="rgb(0,0,255)"/><circle cx="151.010101010101" cy="63.80060496511709" r="2" fill="rgb(0,0,255)"/><circle cx="156.06060606060606" cy="66.4703005717389" r="2" fill="rgb(0,0,255)"/><circle cx="161.1111111111111" cy="72.42097478298638" r="2" fill="rgb(0,0,255)"/><circle cx="166.16161616161617" cy="70.17346062060938" r="2" fill="rgb(0,0,255)"/><circle cx="171.21212121212122" cy="59.27599191606555" r="2" fill="rgb(0,0,255)"/><circle cx="176.26262626262627" cy="64.87826685358937" r="2" fill="rgb(0,0,255)"/><circle cx="181.31313131313132" cy="65.80744778578804" r="2" fill="rgb(0,0,255)"/><circle cx="186.36363636363635" cy="63.124332210009186" r="2" fill="rgb(0,0,255)"/><circle cx="191.4141414141414" cy="72.55057862583254" r="2" fill="rgb(0,0,255)"/><circle cx="196.46464646464648" cy="75.78334863232948" r="2" fill="rgb(0,0,255)"/><circle cx="201.51515151515153" cy="75.93234355510725" r="2" fill="rgb(0,0,255)"/><circle cx="206.56565656565658" cy="71.92331696980102" r="2" fill="rgb(0,0,255)"/><circle cx="211.61616161616163" cy="64.47711883477638" r="2" fill="rgb(0,0,255)"/><circle cx="216.66666666666666" cy="66.59697571824722" r="2" fill="rgb(0,0,255)"/><circle cx="221.7171717171717" cy="67.9220746679473" r="2" fill="rgb(0,0,255)"/><circle cx="226.76767676767676" cy="57.4083393071208" r="2" fill="rgb(0,0,255)"/><circle cx="231.8181818181818" cy="65.50462061086779" r="2" fill="rgb(0,0,255)"/><circle cx="236.86868686868686" cy="69.52515769752029" r="2" fill="rgb(0,0,255)"/><circle cx="241.91919191919192" cy="72.0034798874305" r="2" fill="rgb(0,0,255)"/><circle cx="246.96969696969697" cy="72.72177420567658" r="2" fill="rgb(0,0,255)"/><circle cx="252.02020202020202" cy="58.36685267103684" r="2" fill="rgb(0,0,255)"/><circle cx="257.07070707070704" cy="59.791715963151944" r="2" fill="rgb(0,0,255)"/><circle cx="262.1212121212121" cy="56.55774500130235" r="2" fill="rgb(0,0,255)"/><circle cx="267.1717171717172" cy="54.273834141280986" r="2" fill="rgb(0,0,255)"/><circle cx="272.2222222222222" cy="64.18652143111677" r="2" fill="rgb(0,0,255)"/><circle cx="277.27272727272725" cy="64.21810372779026" r="2" fill="rgb(0,0,255)"/><circle cx="282.32323232323233" cy="73.97525072226028" r="2" fill="rgb(0,0,255)"/><circle cx="287.3737373737374" cy="64.55444849469603" r="2" fill="rgb(0,0,255)"/><circle cx="292.42424242424244" cy="63.7098440031877" r="2" fill="rgb(0,0,255)"/><circle cx="297.47474747474746" cy="66.50694648556896" r="2" fill="rgb(0,0,255)"/><circle cx="302.52525252525254" cy="74.58049138692172" r="2" fill="rgb(0,0,255)"/><circle cx="307.57575757575756" cy="74.06982861894198" r="2" fill="rgb(0,0,255)"/><circle cx="312.62626262626264" cy="79.94994428705792" r="2" fill="rgb(0,0,255)"/><circle cx="317.67676767676767" cy="69.29244348980637" r="2" fill="rgb(0,0,255)"/><circle cx="322.7272727272727" cy="71.47602963735403" r="2" fill="rgb(0,0,255)"/><circle cx="327.77777777777777" cy="67.3121267864758" r="2" fill="rgb(0,0,255)"/><circle cx="332.8282828282828" cy="69.75066878914862" r="2" fill="rgb(0,0,255)"/><circle cx="337.8787878787879" cy="75.77715844651175" r="2" fill="rgb(0,0,255)"/><circle cx="342.92929292929296" cy="87.63331521559621" r="2" fill="rgb(0,0,255)"/><circle cx="347.979797979798" cy="73.63826665016012" r="2" fill="rgb(0,0,255)"/><circle cx="353.03030303030306" cy="72.35880576834899" r="2" fill="rgb(0,0,255)"/><circle cx="358.0808080808081" cy="67.30665581021162" r="2" fill="rgb(0,0,255)"/><circle cx="363.13131313131316" cy="61.59325206623288" r="2" fill="rgb(0,0,255)"/><circle cx="368.1818181818182" cy="53.89333606554948" r="2" fill="rgb(0,0,255)"/><circle cx="373.23232323232327" cy="55.16414498368556" r="2" fill="rgb(0,0,255)"/><circle cx="378.2828282828283" cy="56.27317587767146" r="2" fill="rgb(0,0,255)"/><circle cx="383.3333333333333" cy="54.65326131310525" r="2" fill="rgb(0,0,255)"/><circle cx="388.3838383838384" cy="58.03621871786771" r="2" fill="rgb(0,0,255)"/><circle cx="393.4343434343434" cy="55.18163793745032" r="2" fill="rgb(0,0,255)"/><circle cx="398.4848484848485" cy="62.572499980158" r="2" fill="rgb(0,0,255)"/><circle cx="403.5353535353535" cy="59.343131481203045" r="2" fill="rgb(0,0,255)"/><circle cx="408.58585858585855" cy="61.18618549417232" r="2" fill="rgb(0,0,255)"/><circle cx="413.6363636363636" cy="71.38097472558223" r="2" fill="rgb(0,0,255)"/><circle cx="418.68686868686865" cy="67.22848308086736" r="2" fill="rgb(0,0,255)"/><circle cx="423.73737373737373" cy="59.93551541573453" r="2" fill="rgb(0,0,255)"/><circle cx="428.7878787878788" cy="61.85285952242816" r="2" fill="rgb(0,0,255)"/><circle cx="433.83838383838383" cy="67.21903291157082" r="2" fill="rgb(0,0,255)"/><circle cx="438.8888888888889" cy="68.40459780366177" r="2" fill="rgb(0,0,255)"/><circle cx="443.93939393939394" cy="54.967222919989126" r="2" fill="rgb(0,0,255)"/><circle cx="448.989898989899" cy="61.0809416647038" r="2" fill="rgb(0,0,255)"/><circle cx="454.04040404040404" cy="62.033837755872355" r="2" fill="rgb(0,0,255)"/><circle cx="459.0909090909091" cy="64.31426724797979" r="2" fill="rgb(0,0,255)"/><circle cx="464.14141414141415" cy="57.630987602470384" r="2" fill="rgb(0,0,255)"/><circle cx="469.19191919191917" cy="59.83385425681587" r="2" fill="rgb(0,0,255)"/><circle cx="474.24242424242425" cy="63.10492337932595" r="2" fill="rgb(0,0,255)"/><circle cx="479.2929292929293" cy="69.06042352117743" r="2" fill="rgb(0,0,255)"/><circle cx="484.34343434343435" cy="67.96745108916588" r="2" fill="rgb(0,0,255)"/><circle cx="489.3939393939394" cy="55.44990488543715" r="2" fill="rgb(0,0,255)"/><circle cx="494.4444444444444" cy="56.333254117045385" r="2" fill="rgb(0,0,255)"/><circle cx="499.4949494949495" cy="57.89750067441844" r="2" fill="rgb(0,0,255)"/><circle cx="504.5454545454545" cy="61.97522464528896" r="2" fill="rgb(0,0,255)"/><circle cx="509.59595959595964" cy="62.64497605326915" r="2" fill="rgb(0,0,255)"/><circle cx="514.6464646464647" cy="60.12427690161587" r="2" fill="rgb(0,0,255)"/><circle cx="519.6969696969697" cy="57.94377628668087" r="2" fill="rgb(0,0,255)"/><circle cx="524.7474747474748" cy="54.232805098732285" r="2" fill="rgb(0,0,255)"/><circle cx="529.7979797979798" cy="54.86431950592345" r="2" fill="rgb(0,0,255)"/><circle cx="534.8484848484849" cy="56.125412946304095" r="2" fill="rgb(0,0,255)"/><circle cx="539.8989898989898" cy="58.766124121264454" r="2" fill="rgb(0,0,255)"/><circle cx="544.9494949494949" cy="60.45662907035836" r="2" fill="rgb(0,0,255)"/><circle cx="550.0" cy="54.92693697277741" r="2" fill="rgb(0,0,255)"/><polyline points="50.0,78.58941462898827 55.05050505050505,63.070340101451336 60.101010101010104,61.98040818135024 65.15151515151516,54.416751347793536 70.20202020202021,54.95748821240636 75.25252525252526,54.16050550276918 80.30303030303031,55.70185913696514 85.35353535353535,53.73802484439108 90.40404040404042,53.33488435239474 95.45454545454545,52.739940660661944 100.5050505050505,53.23651771601641 105.55555555555554,52.799551397249445 110.60606060606061,52.4714717228851 115.65656565656566,52.743500749498196 120.7070707070707,52.174069762420174 125.75757575757576,52.1791863290083 130.80808080808083,52.03363487936224 135.85858585858585,51.41182136429495 140.9090909090909,51.825211199964826 145.95959595959596,51.546962747709074 151.010101010101,51.342188738323216 156.06060606060606,51.35989958179647 161.1111111111111,51.35989958179647 166.16161616161617,51.13144998827573 171.21212121212122,51.434273001872384 176.26262626262627,51.40958518799556 181.31313131313132,51.46919333807148 186.36363636363635,51.41893907239603 191.4141414141414,51.26225594307641 196.46464646464648,50.92891453222478 201.51515151515153,50.74862579201823 206.56565656565658,50.80008633928662 211.61616161616163,50.7040616978054 216.66666666666666,50.74862579201823 221.7171717171717,50.702325315873 226.76767676767676,50.702325315873 231.8181818181818,50.61979759908013 236.86868686868686,50.63690438408554 241.91919191919192,50.55931215256845 246.96969696969697,50.550123108472235 252.02020202020202,50.49617778264496 257.07070707070704,50.48546054927755 262.1212121212121,50.495446233694054 267.1717171717172,50.52159895781864 272.2222222222222,50.49211581372117 277.27272727272725,50.45507265451664 282.32323232323233,50.496660566921264 287.3737373737374,50.455555438793056 292.42424242424244,50.41626884294618 297.47474747474746,50.455555438793056 302.52525252525254,50.455555438793056 307.57575757575756,50.41626884294618 312.62626262626264,50.42309596703484 317.67676767676767,50.41626884294618 322.7272727272727,50.41626884294618 327.77777777777777,50.40040151978013 332.8282828282828,50.41578605866977 337.8787878787879,50.3948768888182 342.92929292929296,50.38818226474302 347.979797979798,50.3948768888182 353.03030303030306,50.3667903106151 358.0808080808081,50.38818226474302 363.13131313131316,50.3948768888182 368.1818181818182,50.3948768888182 373.23232323232327,50.3948768888182 378.2828282828283,50.3948768888182 383.3333333333333,50.3948768888182 388.3838383838384,50.3948768888182 393.4343434343434,50.3948768888182 398.4848484848485,50.3948768888182 403.5353535353535,50.3948768888182 408.58585858585855,50.3948768888182 413.6363636363636,50.3948768888182 418.68686868686865,50.3948768888182 423.73737373737373,50.3948768888182 428.7878787878788,50.36014857308925 433.83838383838383,50.36014857308925 438.8888888888889,50.0477997522035 443.93939393939394,50.19241646292278 448.989898989899,50.19241646292278 454.04040404040404,50.17671868881956 459.0909090909091,50.3948768888182 464.14141414141415,50.3948768888182 469.19191919191917,50.017894641718954 474.24242424242425,50.267223581411656 479.2929292929293,50.3948768888182 484.34343434343435,50.3948768888182 489.3939393939394,50.0 494.4444444444444,50.252020201787104 499.4949494949495,50.37066521990977 504.5454545454545,50.37066521990977 509.59595959595964,50.37066521990977 514.6464646464647,50.37066521990977 519.6969696969697,50.37066521990977 524.7474747474748,50.37066521990977 529.7979797979798,50.37066521990977 534.8484848484849,50.37066521990977 539.8989898989898,50.37066521990977 544.9494949494949,50.37066521990977 550.0,50.37066521990977" fill="none" stroke="rgb(0,255,0)" stroke-width="1"/><circle cx="50.0" cy="78.58941462898827" r="2" fill="rgb(0,255,0)"/><circle cx="55.05050505050505" cy="63.070340101451336" r="2" fill="rgb(0,255,0)"/><circle cx="60.101010101010104" cy="61.98040818135024" r="2" fill="rgb(0,255,0)"/><circle cx="65.15151515151516" cy="54.416751347793536" r="2" fill="rgb(0,255,0)"/><circle cx="70.20202020202021" cy="54.95748821240636" r="2" fill="rgb(0,255,0)"/><circle cx="75.25252525252526" cy="54.16050550276918" r="2" fill="rgb(0,255,0)"/><circle cx="80.30303030303031" cy="55.70185913696514" r="2" fill="rgb(0,255,0)"/><circle cx="85.35353535353535" cy="53.73802484439108" r="2" fill="rgb(0,255,0)"/><circle cx="90.40404040404042" cy="53.33488435239474" r="2" fill="rgb(0,255,0)"/><circle cx="95.45454545454545" cy="52.739940660661944" r="2" fill="rgb(0,255,0)"/><circle cx="100.5050505050505" cy="53.23651771601641" r="2" fill="rgb(0,255,0)"/><circle cx="105.55555555555554" cy="52.799551397249445" r="2" fill="rgb(0,255,0)"/><circle cx="110.60606060606061" cy="52.4714717228851" r="2" fill="rgb(0,255,0)"/><circle cx="115.65656565656566" cy="52.743500749498196" r="2" fill="rgb(0,255,0)"/><circle cx="120.7070707070707" cy="52.174069762420174" r="2" fill="rgb(0,255,0)"/><circle cx="125.75757575757576" cy="52.1791863290083" r="2" fill="rgb(0,255,0)"/><circle cx="130.80808080808083" cy="52.03363487936224" r="2" fill="rgb(0,255,0)"/><circle cx="135.85858585858585" cy="51.41182136429495" r="2" fill="rgb(0,255,0)"/><circle cx="140.9090909090909" cy="51.825211199964826" r="2" fill="rgb(0,255,0)"/><circle cx="145.95959595959596" cy="51.546962747709074" r="2" fill="rgb(0,255,0)"/><circle cx="151.010101010101" cy="51.342188738323216" r="2" fill="rgb(0,255,0)"/><circle cx="156.06060606060606" cy="51.35989958179647" r="2" fill="rgb(0,255,0)"/><circle cx="161.1111111111111" cy="51.35989958179647" r="2" fill="rgb(0,255,0)"/><circle cx="166.16161616161617" cy="51.13144998827573" r="2" fill="rgb(0,255,0)"/><circle cx="171.21212121212122" cy="51.434273001872384" r="2" fill="rgb(0,255,0)"/><circle cx="176.26262626262627" cy="51.40958518799556" r="2" fill="rgb(0,255,0)"/><circle cx="181.31313131313132" cy="51.46919333807148" r="2" fill="rgb(0,255,0)"/><circle cx="186.36363636363635" cy="51.41893907239603" r="2" fill="rgb(0,255,0)"/><circle cx="191.4141414141414" cy="51.26225594307641" r="2" fill="rgb(0,255,0)"/><circle cx="196.46464646464648" cy="50.92891453222478" r="2" fill="rgb(0,255,0)"/><circle cx="201.51515151515153" cy="50.74862579201823" r="2" fill="rgb(0,255,0)"/><circle cx="206.56565656565658" cy="50.80008633928662" r="2" fill="rgb(0,255,0)"/><circle cx="211.61616161616163" cy="50.7040616978054" r="2" fill="rgb(0,255,0)"/><circle cx="216.66666666666666" cy="50.74862579201823" r="2" fill="rgb(0,255,0)"/><circle cx="221.7171717171717" cy="50.702325315873" r="2" fill="rgb(0,255,0)"/><circle cx="226.76767676767676" cy="50.702325315873" r="2" fill="rgb(0,255,0)"/><circle cx="231.8181818181818" cy="50.61979759908013" r="2" fill="rgb(0,255,0)"/><circle cx="236.86868686868686" cy="50.63690438408554" r="2" fill="rgb(0,255,0)"/><circle cx="241.91919191919192" cy="50.55931215256845" r="2" fill="rgb(0,255,0)"/><circle cx="246.96969696969697" cy="50.550123108472235" r="2" fill="rgb(0,255,0)"/><circle cx="252.02020202020202" cy="50.49617778264496" r="2" fill="rgb(0,255,0)"/><circle cx="257.07070707070704" cy="50.48546054927755" r="2" fill="rgb(0,255,0)"/><circle cx="262.1212121212121" cy="50.495446233694054" r="2" fill="rgb(0,255,0)"/><circle cx="267.1717171717172" cy="50.52159895781864" r="2" fill="rgb(0,255,0)"/><circle cx="272.2222222222222" cy="50.49211581372117" r="2" fill="rgb(0,255,0)"/><circle cx="277.27272727272725" cy="50.45507265451664" r="2" fill="rgb(0,255,0)"/><circle cx="282.32323232323233" cy="50.496660566921264" r="2" fill="rgb(0,255,0)"/><circle cx="287.3737373737374" cy="50.455555438793056" r="2" fill="rgb(0,255,0)"/><circle cx="292.42424242424244" cy="50.41626884294618" r="2" fill="rgb(0,255,0)"/><circle cx="297.47474747474746" cy="50.455555438793056" r="2" fill="rgb(0,255,0)"/><circle cx="302.52525252525254" cy="50.455555438793056" r="2" fill="rgb(0,255,0)"/><circle cx="307.57575757575756" cy="50.41626884294618" r="2" fill="rgb(0,255,0)"/><circle cx="312.62626262626264" cy="50.42309596703484" r="2" fill="rgb(0,255,0)"/><circle cx="317.67676767676767" cy="50.41626884294618" r="2" fill="rgb(0,255,0)"/><circle cx="322.7272727272727" cy="50.41626884294618" r="2" fill="rgb(0,255,0)"/><circle cx="327.77777777777777" cy="50.40040151978013" r="2" fill="rgb(0,255,0)"/><circle cx="332.8282828282828" cy="50.41578605866977" r="2" fill="rgb(0,255,0)"/><circle cx="337.8787878787879" cy="50.3948768888182" r="2" fill="rgb(0,255,0)"/><circle cx="342.92929292929296" cy="50.38818226474302" r="2" fill="rgb(0,255,0)"/><circle cx="347.979797979798" cy="50.3948768888182" r="2" fill="rgb(0,255,0)"/><circle cx="353.03030303030306" cy="50.3667903106151" r="2" fill="rgb(0,255,0)"/><circle cx="358.0808080808081" cy="50.38818226474302" r="2" fill="rgb(0,255,0)"/><circle cx="363.13131313131316" cy="50.3948768888182" r="2" fill="rgb(0,255,0)"/><circle cx="368.1818181818182" cy="50.3948768888182" r="2" fill="rgb(0,255,0)"/><circle cx="373.23232323232327" cy="50.3948768888182" r="2" fill="rgb(0,255,0)"/><circle cx="378.2828282828283" cy="50.3948768888182" r="2" fill="rgb(0,255,0)"/><circle cx="383.3333333333333" cy="50.3948768888182" r="2" fill="rgb(0,255,0)"/><circle cx="388.3838383838384" cy="50.3948768888182" r="2" fill="rgb(0,255,0)"/><circle cx="393.4343434343434" cy="50.3948768888182" r="2" fill="rgb(0,255,0)"/><circle cx="398.4848484848485" cy="50.3948768888182" r="2" fill="rgb(0,255,0)"/><circle cx="403.5353535353535" cy="50.3948768888182" r="2" fill="rgb(0,255,0)"/><circle cx="408.58585858585855" cy="50.3948768888182" r="2" fill="rgb(0,255,0)"/><circle cx="413.6363636363636" cy="50.3948768888182" r="2" fill="rgb(0,255,0)"/><circle cx="418.68686868686865" cy="50.3948768888182" r="2" fill="rgb(0,255,0)"/><circle cx="423.73737373737373" cy="50.3948768888182" r="2" fill="rgb(0,255,0)"/><circle cx="428.7878787878788" cy="50.36014857308925" r="2" fill="rgb(0,255,0)"/><circle cx="433.83838383838383" cy="50.36014857308925" r="2" fill="rgb(0,255,0)"/><circle cx="438.8888888888889" cy="50.0477997522035" r="2" fill="rgb(0,255,0)"/><circle cx="443.93939393939394" cy="50.19241646292278" r="2" fill="rgb(0,255,0)"/><circle cx="448.989898989899" cy="50.19241646292278" r="2" fill="rgb(0,255,0)"/><circle cx="454.04040404040404" cy="50.17671868881956" r="2" fill="rgb(0,255,0)"/><circle cx="459.0909090909091" cy="50.3948768888182" r="2" fill="rgb(0,255,0)"/><circle cx="464.14141414141415" cy="50.3948768888182" r="2" fill="rgb(0,255,0)"/><circle cx="469.19191919191917" cy="50.017894641718954" r="2" fill="rgb(0,255,0)"/><circle cx="474.24242424242425" cy="50.267223581411656" r="2" fill="rgb(0,255,0)"/><circle cx="479.2929292929293" cy="50.3948768888182" r="2" fill="rgb(0,255,0)"/><circle cx="484.34343434343435" cy="50.3948768888182" r="2" fill="rgb(0,255,0)"/><circle cx="489.3939393939394" cy="50.0" r="2" fill="rgb(0,255,0)"/><circle cx="494.4444444444444" cy="50.252020201787104" r="2" fill="rgb(0,255,0)"/><circle cx="499.4949494949495" cy="50.37066521990977" r="2" fill="rgb(0,255,0)"/><circle cx="504.5454545454545" cy="50.37066521990977" r="2" fill="rgb(0,255,0)"/><circle cx="509.59595959595964" cy="50.37066521990977" r="2" fill="rgb(0,255,0)"/><circle cx="514.6464646464647" cy="50.37066521990977" r="2" fill="rgb(0,255,0)"/><circle cx="519.6969696969697" cy="50.37066521990977" r="2" fill="rgb(0,255,0)"/><circle cx="524.7474747474748" cy="50.37066521990977" r="2" fill="rgb(0,255,0)"/><circle cx="529.7979797979798" cy="50.37066521990977" r="2" fill="rgb(0,255,0)"/><circle cx="534.8484848484849" cy="50.37066521990977" r="2" fill="rgb(0,255,0)"/><circle cx="539.8989898989898" cy="50.37066521990977" r="2" fill="rgb(0,255,0)"/><circle cx="544.9494949494949" cy="50.37066521990977" r="2" fill="rgb(0,255,0)"/><circle cx="550.0" cy="50.37066521990977" r="2" fill="rgb(0,255,0)"/><text x="350.0" y="20.0" text-anchor="middle" fill="rgb(0,0,0)" font-size="20.0">GA Demo</text><text x="350.0" y="575.0" text-anchor="middle" fill="rgb(0,0,0)" font-size="12.0">generation</text><text transform="rotate(-90.0 20.0 300.0)" x="20.0" y="300.0" text-anchor="middle" fill="rgb(0,0,0)" font-size="12.0">fitness</text><text x="620" y="62" fill="rgb(0,0,0)" font-size="12">min</text><text x="620" y="74" fill="rgb(0,0,255)" font-size="12">ave</text><text x="620" y="86" fill="rgb(0,255,0)" font-size="12">max</text>
      Sorry, your browser does not support inline SVG.
    </svg>