<?xml version='1.0' encoding='UTF-8'?>
<svg version="1.1" width="700.0" height="600.0" onload="init(evt)" xmlns="http://www.w3.org/2000/svg">
      <style>.caption {
  font-size: 14px;
  font-family: Georgia, serif;
}
</style>
      <script type="text/ecmascript"><![CDATA[
function init(evt) {
  if ( window.svgDocument == null ) {
    svgDocument = evt.target.ownerDocument;
  }
}

function RectHover(evt, i, c) {
  rect = svgDocument.getElementById('rect' + i);
  if( c != null ) {
    rect.setAttributeNS(null, "fill", c)  
  }
  tooltiptext = svgDocument.getElementById('tooltiptext' + i);
  tooltipbg = svgDocument.getElementById('tooltipbg' + i);
  if( tooltipbg != null) {
    tbb = tooltiptext.getBBox();
    tooltipbg.setAttributeNS(null, "width", tbb.width);
    tooltipbg.setAttributeNS(null, "height", tbb.height);
    tooltipbg.setAttributeNS(null, "x", tbb.x);
    tooltipbg.setAttributeNS(null, "y", tbb.y);
    tooltipbg.setAttributeNS(null, "visibility", "visible");
  }
  tooltiptext.setAttributeNS(null,"visibility","visible");
}

function RectUnhover(evt, i, c) {
  rect = svgDocument.getElementById('rect' + i);
  if( c != null ) {
    rect.setAttributeNS(null, "fill", c)  
  }
  tooltiptext = svgDocument.getElementById('tooltiptext' + i);
  tooltiptext.setAttributeNS(null,"visibility","hidden");
  tooltipbg = svgDocument.getElementById('tooltipbg' + i);
  if( tooltipbg != null ) {
    tooltipbg.setAttributeNS(null,"visibility","hidden");
  }
}
]]></script>
      <line x1="50.0" y1="550.0" x2="550.0" y2="550.0" stroke="rgb(0,0,0)" stroke-width="1"/><line x1="50.0" y1="550.0" x2="50.0" y2="50.0" stroke="rgb(0,0,0)" stroke-width="1"/><line x1="50.0" y1="550.0" x2="50.0" y2="50.0" stroke="rgb(192,192,192)" stroke-width="1"/><line x1="50.0" y1="548.0" x2="50.0" y2="552.0" stroke="rgb(192,192,192)" stroke-width="1"/><text text-anchor="middle" alignment-baseline="hanging" x="50.0" y="553.0" font-size="12.0">0</text><line x1="100.5050505050505" y1="550.0" x2="100.5050505050505" y2="50.0" stroke="rgb(192,192,192)" stroke-width="1"/><line x1="100.5050505050505" y1="548.0" x2="100.5050505050505" y2="552.0" stroke="rgb(192,192,192)" stroke-width="1"/><text text-anchor="middle" alignment-baseline="hanging" x="100.5050505050505" y="553.0" font-size="12.0">10</text><line x1="151.010101010101" y1="550.0" x2="151.010101010101" y2="50.0" stroke="rgb(192,192,192)" stroke-width="1"/><line x1="151.010101010101" y1="548.0" x2="151.010101010101" y2="552.0" stroke="rgb(192,192,192)" stroke-width="1"/><text text-anchor="middle" alignment-baseline="hanging" x="151.010101010101" y="553.0" font-size="12.0">20</text><line x1="201.51515151515153" y1="550.0" x2="201.51515151515153" y2="50.0" stroke="rgb(192,192,192)" stroke-width="1"/><line x1="201.51515151515153" y1="548.0" x2="201.51515151515153" y2="552.0" stroke="rgb(192,192,192)" stroke-width="1"/><text text-anchor="middle" alignment-baseline="hanging" x="201.51515151515153" y="553.0" font-size="12.0">30</text><line x1="252.02020202020202" y1="550.0" x2="252.02020202020202" y2="50.0" stroke="rgb(192,192,192)" stroke-width="1"/><line x1="252.02020202020202" y1="548.0" x2="252.02020202020202" y2="552.0" stroke="rgb(192,192,192)" stroke-width="1"/><text text-anchor="middle" alignment-baseline="hanging" x="252.02020202020202" y="553.0" font-size="12.0">40</text><line x1="302.52525252525254" y1="550.0" x2="302.52525252525254" y2="50.0" stroke="rgb(192,192,192)" stroke-width="1"/><line x1="302.52525252525254" y1="548.0" x2="302.52525252525254" y2="552.0" stroke="rgb(192,192,192)" stroke-width="1"/><text text-anchor="middle" alignment-baseline="hanging" x="302.52525252525254" y="553.0" font-size="12.0">50</text><line x1="353.03030303030306" y1="550.0" x2="353.03030303030306" y2="50.0" stroke="rgb(192,192,192)" stroke-width="1"/><line x1="353.03030303030306" y1="548.0" x2="353.03030303030306" y2="552.0" stroke="rgb(192,192,192)" stroke-width="1"/><text text-anchor="middle" alignment-baseline="hanging" x="353.03030303030306" y="553.0" font-size="12.0">60</text><line x1="403.5353535353535" y1="550.0" x2="403.5353535353535" y2="50.0" stroke="rgb(192,192,192)" stroke-width="1"/><line x1="403.5353535353535" y1="548.0" x2="403.5353535353535" y2="552.0" stroke="rgb(192,192,192)" stroke-width="1"/><text text-anchor="middle" alignment-baseline="hanging" x="403.5353535353535" y="553.0" font-size="12.0">70</text><line x1="454.04040404040404" y1="550.0" x2="454.04040404040404" y2="50.0" stroke="rgb(192,192,192)" stroke-width="1"/><line x1="454.04040404040404" y1="548.0" x2="454.04040404040404" y2="552.0" stroke="rgb(192,192,192)" stroke-width="1"/><text text-anchor="middle" alignment-baseline="hanging" x="454.04040404040404" y="553.0" font-size="12.0">80</text><line x1="504.5454545454545" y1="550.0" x2="504.5454545454545" y2="50.0" stroke="rgb(192,192,192)" stroke-width="1"/><line x1="504.5454545454545" y1="548.0" x2="504.5454545454545" y2="552.0" stroke="rgb(192,192,192)" stroke-width="1"/><text text-anchor="middle" alignment-baseline="hanging" x="504.5454545454545" y="553.0" font-size="12.0">90</text><line x1="50.0" y1="550.0" x2="550.0" y2="550.0" stroke="rgb(192,192,192)" stroke-width="1"/><text text-anchor="end" alignment-baseline="middle" x="45.0" y="550.0" font-size="12.0">0.0</text><line x1="48.0" y1="550.0" x2="52.0" y2="550.0" stroke="rgb(192,192,192)" stroke-width="1"/><line x1="50.0" y1="367.55993027280454" x2="550.0" y2="367.55993027280454" stroke="rgb(192,192,192)" stroke-width="1"/><text text-anchor="end" alignment-baseline="middle" x="45.0" y="367.55993027280454" font-size="12.0">1000.0</text><line x1="48.0" y1="367.55993027280454" x2="52.0" y2="367.55993027280454" stroke="rgb(192,192,192)" stroke-width="1"/><line x1="50.0" y1="185.11986054560907" x2="550.0" y2="185.11986054560907" stroke="rgb(192,192,192)" stroke-width="1"/><text text-anchor="end" alignment-baseline="middle" x="45.0" y="185.11986054560907" font-size="12.0">2000.0</text><line x1="48.0" y1="185.11986054560907" x2="52.0" y2="185.11986054560907" stroke="rgb(192,192,192)" stroke-width="1"/><polyline points="50.0,422.7516275322011 55.05050505050505,423.24416363700936 60.101010101010104,404.1544405834802 65.15151515151516,404.0797043156298 70.20202020202021,402.7850387504969 75.25252525252526,402.28897011198796 80.30303030303031,376.2896246641212 85.35353535353535,427.52468539569804 90.40404040404042,388.03855922287994 95.45454545454545,385.7163892976564 100.5050505050505,374.7040777700126 105.55555555555554,164.39784190339492 110.60606060606061,230.07564914619968 115.65656565656566,230.7450769854521 120.7070707070707,385.19538742038304 125.75757575757576,384.5874443928527 130.80808080808083,386.0202888511149 135.85858585858585,365.3532917542408 140.9090909090909,365.61245032069644 145.95959595959596,398.6550217279023 151.010101010101,398.93691794154586 156.06060606060606,156.96048485622242 161.1111111111111,403.44996596490034 166.16161616161617,402.35768902449945 171.21212121212122,311.7530629399237 176.26262626262627,253.65295723810493 181.31313131313132,361.5017848247371 186.36363636363635,87.28845613055296 191.4141414141414,411.20871265325684 196.46464646464648,414.5847738486609 201.51515151515153,413.2684166869648 206.56565656565658,377.26526406357937 211.61616161616163,294.049117217628 216.66666666666666,410.023474749225 221.7171717171717,409.09403991441445 226.76767676767676,395.2798025497383 231.8181818181818,410.47743446930485 236.86868686868686,395.35998303607624 241.91919191919192,395.4679980854253 246.96969696969697,390.21410284253494 252.02020202020202,389.79070040814264 257.07070707070704,390.5408937995685 262.1212121212121,341.09792936252825 267.1717171717172,307.13813689263606 272.2222222222222,383.9052923981759 277.27272727272725,281.8939436957926 282.32323232323233,342.9178074946466 287.3737373737374,349.0077742017873 292.42424242424244,391.5071573851775 297.47474747474746,391.2784641410045 302.52525252525254,390.7655720649831 307.57575757575756,390.67730156269056 312.62626262626264,379.5255743196702 317.67676767676767,384.6806289062906 322.7272727272727,382.41173333373683 327.77777777777777,382.28365553629305 332.8282828282828,382.741311528443 337.8787878787879,394.08830677290644 342.92929292929296,393.711555162909 347.979797979798,375.30586531041877 353.03030303030306,402.089913669903 358.0808080808081,393.44288946102836 363.13131313131316,385.1057225471004 368.1818181818182,335.0327668007334 373.23232323232327,323.0641233293036 378.2828282828283,334.35583001282475 383.3333333333333,334.3536963896753 388.3838383838384,296.89513775707803 393.4343434343434,378.75579984747833 398.4848484848485,397.71738021381 403.5353535353535,338.0588873687205 408.58585858585855,398.24578150332013 413.6363636363636,278.7750255988612 418.68686868686865,405.94646946630667 423.73737373737373,407.5684925852744 428.7878787878788,341.0210039223208 433.83838383838383,388.6389914605089 438.8888888888889,345.3727835490288 443.93939393939394,345.18235621020483 448.989898989899,342.56738313569747 454.04040404040404,342.17189888009324 459.0909090909091,379.69782864079576 464.14141414141415,358.0109906065015 469.19191919191917,329.7952316375549 474.24242424242425,409.43446385742214 479.2929292929293,409.12710749347497 484.34343434343435,393.6308373265326 489.3939393939394,332.56995335809074 494.4444444444444,288.394184613756 499.4949494949495,381.5160871334622 504.5454545454545,315.14163174404547 509.59595959595964,280.1814907839422 514.6464646464647,417.9117373217924 519.6969696969697,400.72260141794277 524.7474747474748,402.15642384809985 529.7979797979798,408.69594024509604 534.8484848484849,409.4373263870872 539.8989898989898,409.4373263870872 544.9494949494949,408.69594024509604 550.0,285.0976370892328" fill="none" stroke="rgb(0,0,0)" stroke-width="1"/><circle cx="50.0" cy="422.7516275322011" r="2" fill="rgb(0,0,0)"/><circle cx="55.05050505050505" cy="423.24416363700936" r="2" fill="rgb(0,0,0)"/><circle cx="60.101010101010104" cy="404.1544405834802" r="2" fill="rgb(0,0,0)"/><circle cx="65.15151515151516" cy="404.0797043156298" r="2" fill="rgb(0,0,0)"/><circle cx="70.20202020202021" cy="402.7850387504969" r="2" fill="rgb(0,0,0)"/><circle cx="75.25252525252526" cy="402.28897011198796" r="2" fill="rgb(0,0,0)"/><circle cx="80.30303030303031" cy="376.2896246641212" r="2" fill="rgb(0,0,0)"/><circle cx="85.35353535353535" cy="427.52468539569804" r="2" fill="rgb(0,0,0)"/><circle cx="90.40404040404042" cy="388.03855922287994" r="2" fill="rgb(0,0,0)"/><circle cx="95.45454545454545" cy="385.7163892976564" r="2" fill="rgb(0,0,0)"/><circle cx="100.5050505050505" cy="374.7040777700126" r="2" fill="rgb(0,0,0)"/><circle cx="105.55555555555554" cy="164.39784190339492" r="2" fill="rgb(0,0,0)"/><circle cx="110.60606060606061" cy="230.07564914619968" r="2" fill="rgb(0,0,0)"/><circle cx="115.65656565656566" cy="230.7450769854521" r="2" fill="rgb(0,0,0)"/><circle cx="120.7070707070707" cy="385.19538742038304" r="2" fill="rgb(0,0,0)"/><circle cx="125.75757575757576" cy="384.5874443928527" r="2" fill="rgb(0,0,0)"/><circle cx="130.80808080808083" cy="386.0202888511149" r="2" fill="rgb(0,0,0)"/><circle cx="135.85858585858585" cy="365.3532917542408" r="2" fill="rgb(0,0,0)"/><circle cx="140.9090909090909" cy="365.61245032069644" r="2" fill="rgb(0,0,0)"/><circle cx="145.95959595959596" cy="398.6550217279023" r="2" fill="rgb(0,0,0)"/><circle cx="151.010101010101" cy="398.93691794154586" r="2" fill="rgb(0,0,0)"/><circle cx="156.06060606060606" cy="156.96048485622242" r="2" fill="rgb(0,0,0)"/><circle cx="161.1111111111111" cy="403.44996596490034" r="2" fill="rgb(0,0,0)"/><circle cx="166.16161616161617" cy="402.35768902449945" r="2" fill="rgb(0,0,0)"/><circle cx="171.21212121212122" cy="311.7530629399237" r="2" fill="rgb(0,0,0)"/><circle cx="176.26262626262627" cy="253.65295723810493" r="2" fill="rgb(0,0,0)"/><circle cx="181.31313131313132" cy="361.5017848247371" r="2" fill="rgb(0,0,0)"/><circle cx="186.36363636363635" cy="87.28845613055296" r="2" fill="rgb(0,0,0)"/><circle cx="191.4141414141414" cy="411.20871265325684" r="2" fill="rgb(0,0,0)"/><circle cx="196.46464646464648" cy="414.5847738486609" r="2" fill="rgb(0,0,0)"/><circle cx="201.51515151515153" cy="413.2684166869648" r="2" fill="rgb(0,0,0)"/><circle cx="206.56565656565658" cy="377.26526406357937" r="2" fill="rgb(0,0,0)"/><circle cx="211.61616161616163" cy="294.049117217628" r="2" fill="rgb(0,0,0)"/><circle cx="216.66666666666666" cy="410.023474749225" r="2" fill="rgb(0,0,0)"/><circle cx="221.7171717171717" cy="409.09403991441445" r="2" fill="rgb(0,0,0)"/><circle cx="226.76767676767676" cy="395.2798025497383" r="2" fill="rgb(0,0,0)"/><circle cx="231.8181818181818" cy="410.47743446930485" r="2" fill="rgb(0,0,0)"/><circle cx="236.86868686868686" cy="395.35998303607624" r="2" fill="rgb(0,0,0)"/><circle cx="241.91919191919192" cy="395.4679980854253" r="2" fill="rgb(0,0,0)"/><circle cx="246.96969696969697" cy="390.21410284253494" r="2" fill="rgb(0,0,0)"/><circle cx="252.02020202020202" cy="389.79070040814264" r="2" fill="rgb(0,0,0)"/><circle cx="257.07070707070704" cy="390.5408937995685" r="2" fill="rgb(0,0,0)"/><circle cx="262.1212121212121" cy="341.09792936252825" r="2" fill="rgb(0,0,0)"/><circle cx="267.1717171717172" cy="307.13813689263606" r="2" fill="rgb(0,0,0)"/><circle cx="272.2222222222222" cy="383.9052923981759" r="2" fill="rgb(0,0,0)"/><circle cx="277.27272727272725" cy="281.8939436957926" r="2" fill="rgb(0,0,0)"/><circle cx="282.32323232323233" cy="342.9178074946466" r="2" fill="rgb(0,0,0)"/><circle cx="287.3737373737374" cy="349.0077742017873" r="2" fill="rgb(0,0,0)"/><circle cx="292.42424242424244" cy="391.5071573851775" r="2" fill="rgb(0,0,0)"/><circle cx="297.47474747474746" cy="391.2784641410045" r="2" fill="rgb(0,0,0)"/><circle cx="302.52525252525254" cy="390.7655720649831" r="2" fill="rgb(0,0,0)"/><circle cx="307.57575757575756" cy="390.67730156269056" r="2" fill="rgb(0,0,0)"/><circle cx="312.62626262626264" cy="379.5255743196702" r="2" fill="rgb(0,0,0)"/><circle cx="317.67676767676767" cy="384.6806289062906" r="2" fill="rgb(0,0,0)"/><circle cx="322.7272727272727" cy="382.41173333373683" r="2" fill="rgb(0,0,0)"/><circle cx="327.77777777777777" cy="382.28365553629305" r="2" fill="rgb(0,0,0)"/><circle cx="332.8282828282828" cy="382.741311528443" r="2" fill="rgb(0,0,0)"/><circle cx="337.8787878787879" cy="394.08830677290644" r="2" fill="rgb(0,0,0)"/><circle cx="342.92929292929296" cy="393.711555162909" r="2" fill="rgb(0,0,0)"/><circle cx="347.979797979798" cy="375.30586531041877" r="2" fill="rgb(0,0,0)"/><circle cx="353.03030303030306" cy="402.089913669903" r="2" fill="rgb(0,0,0)"/><circle cx="358.0808080808081" cy="393.44288946102836" r="2" fill="rgb(0,0,0)"/><circle cx="363.13131313131316" cy="385.1057225471004" r="2" fill="rgb(0,0,0)"/><circle cx="368.1818181818182" cy="335.0327668007334" r="2" fill="rgb(0,0,0)"/><circle cx="373.23232323232327" cy="323.0641233293036" r="2" fill="rgb(0,0,0)"/><circle cx="378.2828282828283" cy="334.35583001282475" r="2" fill="rgb(0,0,0)"/><circle cx="383.3333333333333" cy="334.3536963896753" r="2" fill="rgb(0,0,0)"/><circle cx="388.3838383838384" cy="296.89513775707803" r="2" fill="rgb(0,0,0)"/><circle cx="393.4343434343434" cy="378.75579984747833" r="2" fill="rgb(0,0,0)"/><circle cx="398.4848484848485" cy="397.71738021381" r="2" fill="rgb(0,0,0)"/><circle cx="403.5353535353535" cy="338.0588873687205" r="2" fill="rgb(0,0,0)"/><circle cx="408.58585858585855" cy="398.24578150332013" r="2" fill="rgb(0,0,0)"/><circle cx="413.6363636363636" cy="278.7750255988612" r="2" fill="rgb(0,0,0)"/><circle cx="418.68686868686865" cy="405.94646946630667" r="2" fill="rgb(0,0,0)"/><circle cx="423.73737373737373" cy="407.5684925852744" r="2" fill="rgb(0,0,0)"/><circle cx="428.7878787878788" cy="341.0210039223208" r="2" fill="rgb(0,0,0)"/><circle cx="433.83838383838383" cy="388.6389914605089" r="2" fill="rgb(0,0,0)"/><circle cx="438.8888888888889" cy="345.3727835490288" r="2" fill="rgb(0,0,0)"/><circle cx="443.93939393939394" cy="345.18235621020483" r="2" fill="rgb(0,0,0)"/><circle cx="448.989898989899" cy="342.56738313569747" r="2" fill="rgb(0,0,0)"/><circle cx="454.04040404040404" cy="342.17189888009324" r="2" fill="rgb(0,0,0)"/><circle cx="459.0909090909091" cy="379.69782864079576" r="2" fill="rgb(0,0,0)"/><circle cx="464.14141414141415" cy="358.0109906065015" r="2" fill="rgb(0,0,0)"/><circle cx="469.19191919191917" cy="329.7952316375549" r="2" fill="rgb(0,0,0)"/><circle cx="474.24242424242425" cy="409.43446385742214" r="2" fill="rgb(0,0,0)"/><circle cx="479.2929292929293" cy="409.12710749347497" r="2" fill="rgb(0,0,0)"/><circle cx="484.34343434343435" cy="393.6308373265326" r="2" fill="rgb(0,0,0)"/><circle cx="489.3939393939394" cy="332.56995335809074" r="2" fill="rgb(0,0,0)"/><circle cx="494.4444444444444" cy="288.394184613756" r="2" fill="rgb(0,0,0)"/><circle cx="499.4949494949495" cy="381.5160871334622" r="2" fill="rgb(0,0,0)"/><circle cx="504.5454545454545" cy="315.14163174404547" r="2" fill="rgb(0,0,0)"/><circle cx="509.59595959595964" cy="280.1814907839422" r="2" fill="rgb(0,0,0)"/><circle cx="514.6464646464647" cy="417.9117373217924" r="2" fill="rgb(0,0,0)"/><circle cx="519.6969696969697" cy="400.72260141794277" r="2" fill="rgb(0,0,0)"/><circle cx="524.7474747474748" cy="402.15642384809985" r="2" fill="rgb(0,0,0)"/><circle cx="529.7979797979798" cy="408.69594024509604" r="2" fill="rgb(0,0,0)"/><circle cx="534.8484848484849" cy="409.4373263870872" r="2" fill="rgb(0,0,0)"/><circle cx="539.8989898989898" cy="409.4373263870872" r="2" fill="rgb(0,0,0)"/><circle cx="544.9494949494949" cy="408.69594024509604" r="2" fill="rgb(0,0,0)"/><circle cx="550.0" cy="285.0976370892328" r="2" fill="rgb(0,0,0)"/><polyline points="50.0,228.7829441099846 55.05050505050505,203.84051527330985 60.101010101010104,163.41970776289946 65.15151515151516,150.6044495283826 70.20202020202021,143.96961022280027 75.25252525252526,115.51768985902942 80.30303030303031,102.5553862888267 85.35353535353535,88.44441051508926 90.40404040404042,90.18664927110564 95.45454545454545,73.58751555610866 100.5050505050505,69.07939994316314 105.55555555555554,59.59870399605359 110.60606060606061,58.67825583565161 115.65656565656566,57.01210908149699 120.7070707070707,62.38003992427883 125.75757575757576,70.74283082407862 130.80808080808083,59.90575423938435 135.85858585858585,66.86362986103455 140.9090909090909,62.14307472528748 145.95959595959596,69.85539114273195 151.010101010101,63.04257936372039 156.06060606060606,55.68700588837032 161.1111111111111,62.4617571352818 166.16161616161617,66.15989123423128 171.21212121212122,55.362830127140626 176.26262626262627,57.28019807108166 181.31313131313132,59.81791669860132 186.36363636363635,53.503113366231105 191.4141414141414,61.31228090349401 196.46464646464648,69.18004344291751 201.51515151515153,70.27717605291576 206.56565656565658,70.2564335034632 211.61616161616163,65.99734895720536 216.66666666666666,76.3988959503393 221.7171717171717,69.7802098078472 226.76767676767676,74.57220535233614 231.8181818181818,84.42159708830371 236.86868686868686,68.7988945986981 241.91919191919192,76.69320639514467 246.96969696969697,64.61148205973825 252.02020202020202,62.62817739374589 257.07070707070704,62.274924992493936 262.1212121212121,62.10206714786142 267.1717171717172,54.157177236327186 272.2222222222222,63.02227436606904 277.27272727272725,57.611905882973474 282.32323232323233,59.3617509456202 287.3737373737374,57.666983265722365 292.42424242424244,66.62472652999594 297.47474747474746,69.39344777703309 302.52525252525254,66.82728841085276 307.57575757575756,74.31852076833769 312.62626262626264,71.42658717319927 317.67676767676767,66.52609905468046 322.7272727272727,66.60729646930366 327.77777777777777,60.14456988476741 332.8282828282828,63.12649998613887 337.8787878787879,76.08237080016647 342.92929292929296,72.2246360671594 347.979797979798,75.3539885801975 353.03030303030306,66.02871177226558 358.0808080808081,68.56424593945576 363.13131313131316,58.57960538943149 368.1818181818182,63.428908430865135 373.23232323232327,61.321186348735296 378.2828282828283,56.61793390812039 383.3333333333333,62.004315330236466 388.3838383838384,57.1028022162447 393.4343434343434,56.78274029870869 398.4848484848485,60.18893696031722 403.5353535353535,60.781314674404484 408.58585858585855,60.34877511305024 413.6363636363636,63.41830241804416 418.68686868686865,75.32309782730897 423.73737373737373,74.571485319337 428.7878787878788,62.14820086825739 433.83838383838383,63.3359399454431 438.8888888888889,59.88337041796018 443.93939393939394,62.64782247594354 448.989898989899,69.6394434468117 454.04040404040404,68.27672737506549 459.0909090909091,70.59866501564392 464.14141414141415,76.26607199507015 469.19191919191917,59.94480734333774 474.24242424242425,64.19754474387435 479.2929292929293,62.739617143613486 484.34343434343435,58.82845212941021 489.3939393939394,56.749041803561056 494.4444444444444,54.377131063481215 499.4949494949495,58.410784011671296 504.5454545454545,55.86630351326653 509.59595959595964,55.106324089897385 514.6464646464647,74.07493151755915 519.6969696969697,66.59003544253244 524.7474747474748,62.877054876395505 529.7979797979798,70.44602862570838 534.8484848484849,72.332558910047 539.8989898989898,69.61142293767341 544.9494949494949,68.01413376112617 550.0,56.54514079180001" fill="none" stroke="rgb(0,0,255)" stroke-width="1"/><circle cx="50.0" cy="228.7829441099846" r="2" fill="rgb(0,0,255)"/><circle cx="55.05050505050505" cy="203.84051527330985" r="2" fill="rgb(0,0,255)"/><circle cx="60.101010101010104" cy="163.41970776289946" r="2" fill="rgb(0,0,255)"/><circle cx="65.15151515151516" cy="150.6044495283826" r="2" fill="rgb(0,0,255)"/><circle cx="70.20202020202021" cy="143.96961022280027" r="2" fill="rgb(0,0,255)"/><circle cx="75.25252525252526" cy="115.51768985902942" r="2" fill="rgb(0,0,255)"/><circle cx="80.30303030303031" cy="102.5553862888267" r="2" fill="rgb(0,0,255)"/><circle cx="85.35353535353535" cy="88.44441051508926" r="2" fill="rgb(0,0,255)"/><circle cx="90.40404040404042" cy="90.18664927110564" r="2" fill="rgb(0,0,255)"/><circle cx="95.45454545454545" cy="73.58751555610866" r="2" fill="rgb(0,0,255)"/><circle cx="100.5050505050505" cy="69.07939994316314" r="2" fill="rgb(0,0,255)"/><circle cx="105.55555555555554" cy="59.59870399605359" r="2" fill="rgb(0,0,255)"/><circle cx="110.60606060606061" cy="58.67825583565161" r="2" fill="rgb(0,0,255)"/><circle cx="115.65656565656566" cy="57.01210908149699" r="2" fill="rgb(0,0,255)"/><circle cx="120.7070707070707" cy="62.38003992427883" r="2" fill="rgb(0,0,255)"/><circle cx="125.75757575757576" cy="70.74283082407862" r="2" fill="rgb(0,0,255)"/><circle cx="130.80808080808083" cy="59.90575423938435" r="2" fill="rgb(0,0,255)"/><circle cx="135.85858585858585" cy="66.86362986103455" r="2" fill="rgb(0,0,255)"/><circle cx="140.9090909090909" cy="62.14307472528748" r="2" fill="rgb(0,0,255)"/><circle cx="145.95959595959596" cy="69.85539114273195" r="2" fill="rgb(0,0,255)"/><circle cx="151.010101010101" cy="63.04257936372039" r="2" fill="rgb(0,0,255)"/><circle cx="156.06060606060606" cy="55.68700588837032" r="2" fill="rgb(0,0,255)"/><circle cx="161.1111111111111" cy="62.4617571352818" r="2" fill="rgb(0,0,255)"/><circle cx="166.16161616161617" cy="66.15989123423128" r="2" fill="rgb(0,0,255)"/><circle cx="171.21212121212122" cy="55.362830127140626" r="2" fill="rgb(0,0,255)"/><circle cx="176.26262626262627" cy="57.28019807108166" r="2" fill="rgb(0,0,255)"/><circle cx="181.31313131313132" cy="59.81791669860132" r="2" fill="rgb(0,0,255)"/><circle cx="186.36363636363635" cy="53.503113366231105" r="2" fill="rgb(0,0,255)"/><circle cx="191.4141414141414" cy="61.31228090349401" r="2" fill="rgb(0,0,255)"/><circle cx="196.46464646464648" cy="69.18004344291751" r="2" fill="rgb(0,0,255)"/><circle cx="201.51515151515153" cy="70.27717605291576" r="2" fill="rgb(0,0,255)"/><circle cx="206.56565656565658" cy="70.2564335034632" r="2" fill="rgb(0,0,255)"/><circle cx="211.61616161616163" cy="65.99734895720536" r="2" fill="rgb(0,0,255)"/><circle cx="216.66666666666666" cy="76.3988959503393" r="2" fill="rgb(0,0,255)"/><circle cx="221.7171717171717" cy="69.7802098078472" r="2" fill="rgb(0,0,255)"/><circle cx="226.76767676767676" cy="74.57220535233614" r="2" fill="rgb(0,0,255)"/><circle cx="231.8181818181818" cy="84.42159708830371" r="2" fill="rgb(0,0,255)"/><circle cx="236.86868686868686" cy="68.7988945986981" r="2" fill="rgb(0,0,255)"/><circle cx="241.91919191919192" cy="76.69320639514467" r="2" fill="rgb(0,0,255)"/><circle cx="246.96969696969697" cy="64.61148205973825" r="2" fill="rgb(0,0,255)"/><circle cx="252.02020202020202" cy="62.62817739374589" r="2" fill="rgb(0,0,255)"/><circle cx="257.07070707070704" cy="62.274924992493936" r="2" fill="rgb(0,0,255)"/><circle cx="262.1212121212121" cy="62.10206714786142" r="2" fill="rgb(0,0,255)"/><circle cx="267.1717171717172" cy="54.157177236327186" r="2" fill="rgb(0,0,255)"/><circle cx="272.2222222222222" cy="63.02227436606904" r="2" fill="rgb(0,0,255)"/><circle cx="277.27272727272725" cy="57.611905882973474" r="2" fill="rgb(0,0,255)"/><circle cx="282.32323232323233" cy="59.3617509456202" r="2" fill="rgb(0,0,255)"/><circle cx="287.3737373737374" cy="57.666983265722365" r="2" fill="rgb(0,0,255)"/><circle cx="292.42424242424244" cy="66.62472652999594" r="2" fill="rgb(0,0,255)"/><circle cx="297.47474747474746" cy="69.39344777703309" r="2" fill="rgb(0,0,255)"/><circle cx="302.52525252525254" cy="66.82728841085276" r="2" fill="rgb(0,0,255)"/><circle cx="307.57575757575756" cy="74.31852076833769" r="2" fill="rgb(0,0,255)"/><circle cx="312.62626262626264" cy="71.42658717319927" r="2" fill="rgb(0,0,255)"/><circle cx="317.67676767676767" cy="66.52609905468046" r="2" fill="rgb(0,0,255)"/><circle cx="322.7272727272727" cy="66.60729646930366" r="2" fill="rgb(0,0,255)"/><circle cx="327.77777777777777" cy="60.14456988476741" r="2" fill="rgb(0,0,255)"/><circle cx="332.8282828282828" cy="63.12649998613887" r="2" fill="rgb(0,0,255)"/><circle cx="337.8787878787879" cy="76.08237080016647" r="2" fill="rgb(0,0,255)"/><circle cx="342.92929292929296" cy="72.2246360671594" r="2" fill="rgb(0,0,255)"/><circle cx="347.979797979798" cy="75.3539885801975" r="2" fill="rgb(0,0,255)"/><circle cx="353.03030303030306" cy="66.02871177226558" r="2" fill="rgb(0,0,255)"/><circle cx="358.0808080808081" cy="68.56424593945576" r="2" fill="rgb(0,0,255)"/><circle cx="363.13131313131316" cy="58.57960538943149" r="2" fill="rgb(0,0,255)"/><circle cx="368.1818181818182" cy="63.428908430865135" r="2" fill="rgb(0,0,255)"/><circle cx="373.23232323232327" cy="61.321186348735296" r="2" fill="rgb(0,0,255)"/><circle cx="378.2828282828283" cy="56.61793390812039" r="2" fill="rgb(0,0,255)"/><circle cx="383.3333333333333" cy="62.004315330236466" r="2" fill="rgb(0,0,255)"/><circle cx="388.3838383838384" cy="57.1028022162447" r="2" fill="rgb(0,0,255)"/><circle cx="393.4343434343434" cy="56.78274029870869" r="2" fill="rgb(0,0,255)"/><circle cx="398.4848484848485" cy="60.18893696031722" r="2" fill="rgb(0,0,255)"/><circle cx="403.5353535353535" cy="60.781314674404484" r="2" fill="rgb(0,0,255)"/><circle cx="408.58585858585855" cy="60.34877511305024" r="2" fill="rgb(0,0,255)"/><circle cx="413.6363636363636" cy="63.41830241804416" r="2" fill="rgb(0,0,255)"/><circle cx="418.68686868686865" cy="75.32309782730897" r="2" fill="rgb(0,0,255)"/><circle cx="423.73737373737373" cy="74.571485319337" r="2" fill="rgb(0,0,255)"/><circle cx="428.7878787878788" cy="62.14820086825739" r="2" fill="rgb(0,0,255)"/><circle cx="433.83838383838383" cy="63.3359399454431" r="2" fill="rgb(0,0,255)"/><circle cx="438.8888888888889" cy="59.88337041796018" r="2" fill="rgb(0,0,255)"/><circle cx="443.93939393939394" cy="62.64782247594354" r="2" fill="rgb(0,0,255)"/><circle cx="448.989898989899" cy="69.6394434468117" r="2" fill="rgb(0,0,255)"/><circle cx="454.04040404040404" cy="68.27672737506549" r="2" fill="rgb(0,0,255)"/><circle cx="459.0909090909091" cy="70.59866501564392" r="2" fill="rgb(0,0,255)"/><circle cx="464.14141414141415" cy="76.26607199507015" r="2" fill="rgb(0,0,255)"/><circle cx="469.19191919191917" cy="59.94480734333774" r="2" fill="rgb(0,0,255)"/><circle cx="474.24242424242425" cy="64.19754474387435" r="2" fill="rgb(0,0,255)"/><circle cx="479.2929292929293" cy="62.739617143613486" r="2" fill="rgb(0,0,255)"/><circle cx="484.34343434343435" cy="58.82845212941021" r="2" fill="rgb(0,0,255)"/><circle cx="489.3939393939394" cy="56.749041803561056" r="2" fill="rgb(0,0,255)"/><circle cx="494.4444444444444" cy="54.377131063481215" r="2" fill="rgb(0,0,255)"/><circle cx="499.4949494949495" cy="58.410784011671296" r="2" fill="rgb(0,0,255)"/><circle cx="504.5454545454545" cy="55.86630351326653" r="2" fill="rgb(0,0,255)"/><circle cx="509.59595959595964" cy="55.106324089897385" r="2" fill="rgb(0,0,255)"/><circle cx="514.6464646464647" cy="74.07493151755915" r="2" fill="rgb(0,0,255)"/><circle cx="519.6969696969697" cy="66.59003544253244" r="2" fill="rgb(0,0,255)"/><circle cx="524.7474747474748" cy="62.877054876395505" r="2" fill="rgb(0,0,255)"/><circle cx="529.7979797979798" cy="70.44602862570838" r="2" fill="rgb(0,0,255)"/><circle cx="534.8484848484849" cy="72.332558910047" r="2" fill="rgb(0,0,255)"/><circle cx="539.8989898989898" cy="69.61142293767341" r="2" fill="rgb(0,0,255)"/><circle cx="544.9494949494949" cy="68.01413376112617" r="2" fill="rgb(0,0,255)"/><circle cx="550.0" cy="56.54514079180001" r="2" fill="rgb(0,0,255)"/><polyline points="50.0,53.19843370779938 55.05050505050505,52.27065162566305 60.101010101010104,53.35614650544062 65.15151515151516,51.61275040662309 70.20202020202021,53.60709639797466 75.25252525252526,53.08701668445758 80.30303030303031,53.28493978521652 85.35353535353535,52.1571158740835 90.40404040404042,51.38680027910914 95.45454545454545,52.46698715469432 100.5050505050505,51.631816345173036 105.55555555555554,52.08628602211826 110.60606060606061,52.02284928888349 115.65656565656566,51.61794697112845 120.7070707070707,50.9831197578132 125.75757575757576,51.50457062325131 130.80808080808083,51.12816173983316 135.85858585858585,51.45984177493574 140.9090909090909,50.818563080761066 145.95959595959596,50.854985945755516 151.010101010101,50.656456188161485 156.06060606060606,50.70292018897322 161.1111111111111,50.86639613678176 166.16161616161617,50.66775128928009 171.21212121212122,50.89560730186639 176.26262626262627,50.80847332265381 181.31313131313132,50.215705508084625 186.36363636363635,50.55230707595524 191.4141414141414,50.03921980529185 196.46464646464648,50.263706367515056 201.51515151515153,50.21095337588088 206.56565656565658,50.283827899147354 211.61616161616163,50.45102215273528 216.66666666666666,50.34792908476885 221.7171717171717,50.1186375873703 226.76767676767676,50.213086999030395 231.8181818181818,50.28529137340945 236.86868686868686,50.03036708507773 241.91919191919192,50.03036708507773 246.96969696969697,50.1186375873703 252.02020202020202,50.17463967698984 257.07070707070704,50.03036708507773 262.1212121212121,50.1011079851948 267.1717171717172,50.1011079851948 272.2222222222222,50.1011079851948 277.27272727272725,50.22918578263858 282.32323232323233,50.18220374102435 287.3737373737374,50.11650396422084 292.42424242424244,50.07636770290259 297.47474747474746,50.1186375873703 302.52525252525254,50.10257145945684 307.57575757575756,50.11439913558917 312.62626262626264,50.11439913558917 317.67676767676767,50.11650396422084 322.7272727272727,50.11650396422084 327.77777777777777,50.03036708507773 332.8282828282828,50.02823346192838 337.8787878787879,50.139161355543024 342.92929292929296,50.138044991426 347.979797979798,50.138044991426 353.03030303030306,50.12660525125875 358.0808080808081,50.13891063094508 363.13131313131316,50.08468098844952 368.1818181818182,50.03036708507773 373.23232323232327,50.054306657836776 378.2828282828283,50.054306657836776 383.3333333333333,50.044584324385596 388.3838383838384,50.04382386614941 393.4343434343434,50.054306657836776 398.4848484848485,50.044584324385596 403.5353535353535,50.042450701236135 408.58585858585855,50.048443503829446 413.6363636363636,50.041930903937725 418.68686868686865,50.04626360990585 423.73737373737373,50.04626360990585 428.7878787878788,50.041930903937725 433.83838383838383,50.04779405794517 438.8888888888889,50.048443503829446 443.93939393939394,50.04626360990585 448.989898989899,50.04626360990585 454.04040404040404,50.041930903937725 459.0909090909091,50.024742055235265 464.14141414141415,50.024742055235265 469.19191919191917,50.02628603682456 474.24242424242425,50.03143994106523 479.2929292929293,50.03143994106523 484.34343434343435,50.03143994106523 489.3939393939394,50.03143994106523 494.4444444444444,50.02548081896737 499.4949494949495,50.02548081896737 504.5454545454545,50.01855186064154 509.59595959595964,50.01855186064154 514.6464646464647,50.016866443404524 519.6969696969697,50.016866443404524 524.7474747474748,50.016866443404524 529.7979797979798,50.0164500849703 534.8484848484849,50.0 539.8989898989898,50.02337904329619 544.9494949494949,50.0 550.0,50.000416358434165" fill="none" stroke="rgb(0,255,0)" stroke-width="1"/><circle cx="50.0" cy="53.19843370779938" r="2" fill="rgb(0,255,0)"/><circle cx="55.05050505050505" cy="52.27065162566305" r="2" fill="rgb(0,255,0)"/><circle cx="60.101010101010104" cy="53.35614650544062" r="2" fill="rgb(0,255,0)"/><circle cx="65.15151515151516" cy="51.61275040662309" r="2" fill="rgb(0,255,0)"/><circle cx="70.20202020202021" cy="53.60709639797466" r="2" fill="rgb(0,255,0)"/><circle cx="75.25252525252526" cy="53.08701668445758" r="2" fill="rgb(0,255,0)"/><circle cx="80.30303030303031" cy="53.28493978521652" r="2" fill="rgb(0,255,0)"/><circle cx="85.35353535353535" cy="52.1571158740835" r="2" fill="rgb(0,255,0)"/><circle cx="90.40404040404042" cy="51.38680027910914" r="2" fill="rgb(0,255,0)"/><circle cx="95.45454545454545" cy="52.46698715469432" r="2" fill="rgb(0,255,0)"/><circle cx="100.5050505050505" cy="51.631816345173036" r="2" fill="rgb(0,255,0)"/><circle cx="105.55555555555554" cy="52.08628602211826" r="2" fill="rgb(0,255,0)"/><circle cx="110.60606060606061" cy="52.02284928888349" r="2" fill="rgb(0,255,0)"/><circle cx="115.65656565656566" cy="51.61794697112845" r="2" fill="rgb(0,255,0)"/><circle cx="120.7070707070707" cy="50.9831197578132" r="2" fill="rgb(0,255,0)"/><circle cx="125.75757575757576" cy="51.50457062325131" r="2" fill="rgb(0,255,0)"/><circle cx="130.80808080808083" cy="51.12816173983316" r="2" fill="rgb(0,255,0)"/><circle cx="135.85858585858585" cy="51.45984177493574" r="2" fill="rgb(0,255,0)"/><circle cx="140.9090909090909" cy="50.818563080761066" r="2" fill="rgb(0,255,0)"/><circle cx="145.95959595959596" cy="50.854985945755516" r="2" fill="rgb(0,255,0)"/><circle cx="151.010101010101" cy="50.656456188161485" r="2" fill="rgb(0,255,0)"/><circle cx="156.06060606060606" cy="50.70292018897322" r="2" fill="rgb(0,255,0)"/><circle cx="161.1111111111111" cy="50.86639613678176" r="2" fill="rgb(0,255,0)"/><circle cx="166.16161616161617" cy="50.66775128928009" r="2" fill="rgb(0,255,0)"/><circle cx="171.21212121212122" cy="50.89560730186639" r="2" fill="rgb(0,255,0)"/><circle cx="176.26262626262627" cy="50.80847332265381" r="2" fill="rgb(0,255,0)"/><circle cx="181.31313131313132" cy="50.215705508084625" r="2" fill="rgb(0,255,0)"/><circle cx="186.36363636363635" cy="50.55230707595524" r="2" fill="rgb(0,255,0)"/><circle cx="191.4141414141414" cy="50.03921980529185" r="2" fill="rgb(0,255,0)"/><circle cx="196.46464646464648" cy="50.263706367515056" r="2" fill="rgb(0,255,0)"/><circle cx="201.51515151515153" cy="50.21095337588088" r="2" fill="rgb(0,255,0)"/><circle cx="206.56565656565658" cy="50.283827899147354" r="2" fill="rgb(0,255,0)"/><circle cx="211.61616161616163" cy="50.45102215273528" r="2" fill="rgb(0,255,0)"/><circle cx="216.66666666666666" cy="50.34792908476885" r="2" fill="rgb(0,255,0)"/><circle cx="221.7171717171717" cy="50.1186375873703" r="2" fill="rgb(0,255,0)"/><circle cx="226.76767676767676" cy="50.213086999030395" r="2" fill="rgb(0,255,0)"/><circle cx="231.8181818181818" cy="50.28529137340945" r="2" fill="rgb(0,255,0)"/><circle cx="236.86868686868686" cy="50.03036708507773" r="2" fill="rgb(0,255,0)"/><circle cx="241.91919191919192" cy="50.03036708507773" r="2" fill="rgb(0,255,0)"/><circle cx="246.96969696969697" cy="50.1186375873703" r="2" fill="rgb(0,255,0)"/><circle cx="252.02020202020202" cy="50.17463967698984" r="2" fill="rgb(0,255,0)"/><circle cx="257.07070707070704" cy="50.03036708507773" r="2" fill="rgb(0,255,0)"/><circle cx="262.1212121212121" cy="50.1011079851948" r="2" fill="rgb(0,255,0)"/><circle cx="267.1717171717172" cy="50.1011079851948" r="2" fill="rgb(0,255,0)"/><circle cx="272.2222222222222" cy="50.1011079851948" r="2" fill="rgb(0,255,0)"/><circle cx="277.27272727272725" cy="50.22918578263858" r="2" fill="rgb(0,255,0)"/><circle cx="282.32323232323233" cy="50.18220374102435" r="2" fill="rgb(0,255,0)"/><circle cx="287.3737373737374" cy="50.11650396422084" r="2" fill="rgb(0,255,0)"/><circle cx="292.42424242424244" cy="50.07636770290259" r="2" fill="rgb(0,255,0)"/><circle cx="297.47474747474746" cy="50.1186375873703" r="2" fill="rgb(0,255,0)"/><circle cx="302.52525252525254" cy="50.10257145945684" r="2" fill="rgb(0,255,0)"/><circle cx="307.57575757575756" cy="50.11439913558917" r="2" fill="rgb(0,255,0)"/><circle cx="312.62626262626264" cy="50.11439913558917" r="2" fill="rgb(0,255,0)"/><circle cx="317.67676767676767" cy="50.11650396422084" r="2" fill="rgb(0,255,0)"/><circle cx="322.7272727272727" cy="50.11650396422084" r="2" fill="rgb(0,255,0)"/><circle cx="327.77777777777777" cy="50.03036708507773" r="2" fill="rgb(0,255,0)"/><circle cx="332.8282828282828" cy="50.02823346192838" r="2" fill="rgb(0,255,0)"/><circle cx="337.8787878787879" cy="50.139161355543024" r="2" fill="rgb(0,255,0)"/><circle cx="342.92929292929296" cy="50.138044991426" r="2" fill="rgb(0,255,0)"/><circle cx="347.979797979798" cy="50.138044991426" r="2" fill="rgb(0,255,0)"/><circle cx="353.03030303030306" cy="50.12660525125875" r="2" fill="rgb(0,255,0)"/><circle cx="358.0808080808081" cy="50.13891063094508" r="2" fill="rgb(0,255,0)"/><circle cx="363.13131313131316" cy="50.08468098844952" r="2" fill="rgb(0,255,0)"/><circle cx="368.1818181818182" cy="50.03036708507773" r="2" fill="rgb(0,255,0)"/><circle cx="373.23232323232327" cy="50.054306657836776" r="2" fill="rgb(0,255,0)"/><circle cx="378.2828282828283" cy="50.054306657836776" r="2" fill="rgb(0,255,0)"/><circle cx="383.3333333333333" cy="50.044584324385596" r="2" fill="rgb(0,255,0)"/><circle cx="388.3838383838384" cy="50.04382386614941" r="2" fill="rgb(0,255,0)"/><circle cx="393.4343434343434" cy="50.054306657836776" r="2" fill="rgb(0,255,0)"/><circle cx="398.4848484848485" cy="50.044584324385596" r="2" fill="rgb(0,255,0)"/><circle cx="403.5353535353535" cy="50.042450701236135" r="2" fill="rgb(0,255,0)"/><circle cx="408.58585858585855" cy="50.048443503829446" r="2" fill="rgb(0,255,0)"/><circle cx="413.6363636363636" cy="50.041930903937725" r="2" fill="rgb(0,255,0)"/><circle cx="418.68686868686865" cy="50.04626360990585" r="2" fill="rgb(0,255,0)"/><circle cx="423.73737373737373" cy="50.04626360990585" r="2" fill="rgb(0,255,0)"/><circle cx="428.7878787878788" cy="50.041930903937725" r="2" fill="rgb(0,255,0)"/><circle cx="433.83838383838383" cy="50.04779405794517" r="2" fill="rgb(0,255,0)"/><circle cx="438.8888888888889" cy="50.048443503829446" r="2" fill="rgb(0,255,0)"/><circle cx="443.93939393939394" cy="50.04626360990585" r="2" fill="rgb(0,255,0)"/><circle cx="448.989898989899" cy="50.04626360990585" r="2" fill="rgb(0,255,0)"/><circle cx="454.04040404040404" cy="50.041930903937725" r="2" fill="rgb(0,255,0)"/><circle cx="459.0909090909091" cy="50.024742055235265" r="2" fill="rgb(0,255,0)"/><circle cx="464.14141414141415" cy="50.024742055235265" r="2" fill="rgb(0,255,0)"/><circle cx="469.19191919191917" cy="50.02628603682456" r="2" fill="rgb(0,255,0)"/><circle cx="474.24242424242425" cy="50.03143994106523" r="2" fill="rgb(0,255,0)"/><circle cx="479.2929292929293" cy="50.03143994106523" r="2" fill="rgb(0,255,0)"/><circle cx="484.34343434343435" cy="50.03143994106523" r="2" fill="rgb(0,255,0)"/><circle cx="489.3939393939394" cy="50.03143994106523" r="2" fill="rgb(0,255,0)"/><circle cx="494.4444444444444" cy="50.02548081896737" r="2" fill="rgb(0,255,0)"/><circle cx="499.4949494949495" cy="50.02548081896737" r="2" fill="rgb(0,255,0)"/><circle cx="504.5454545454545" cy="50.01855186064154" r="2" fill="rgb(0,255,0)"/><circle cx="509.59595959595964" cy="50.01855186064154" r="2" fill="rgb(0,255,0)"/><circle cx="514.6464646464647" cy="50.016866443404524" r="2" fill="rgb(0,255,0)"/><circle cx="519.6969696969697" cy="50.016866443404524" r="2" fill="rgb(0,255,0)"/><circle cx="524.7474747474748" cy="50.016866443404524" r="2" fill="rgb(0,255,0)"/><circle cx="529.7979797979798" cy="50.0164500849703" r="2" fill="rgb(0,255,0)"/><circle cx="534.8484848484849" cy="50.0" r="2" fill="rgb(0,255,0)"/><circle cx="539.8989898989898" cy="50.02337904329619" r="2" fill="rgb(0,255,0)"/><circle cx="544.9494949494949" cy="50.0" r="2" fill="rgb(0,255,0)"/><circle cx="550.0" cy="50.000416358434165" r="2" fill="rgb(0,255,0)"/><text x="350.0" y="20.0" text-anchor="middle" fill="rgb(0,0,0)" font-size="20.0">GA Demo</text><text x="350.0" y="575.0" text-anchor="middle" fill="rgb(0,0,0)" font-size="12.0">generation</text><text transform="rotate(-90.0 20.0 300.0)" x="20.0" y="300.0" text-anchor="middle" fill="rgb(0,0,0)" font-size="12.0">fitness</text><text x="620" y="62" fill="rgb(0,0,0)" font-size="12">min</text><text x="620" y="74" fill="rgb(0,0,255)" font-size="12">ave</text><text x="620" y="86" fill="rgb(0,255,0)" font-size="12">max</text>
      Sorry, your browser does not support inline SVG.
    </svg>