<?xml version='1.0' encoding='UTF-8'?>
<svg version="1.1" width="700.0" height="600.0" onload="init(evt)" xmlns="http://www.w3.org/2000/svg">
      <style>.caption {
  font-size: 14px;
  font-family: Georgia, serif;
}
</style>
      <script type="text/ecmascript"><![CDATA[
function init(evt) {
  if ( window.svgDocument == null ) {
    svgDocument = evt.target.ownerDocument;
  }
}

function RectHover(evt, i, c) {
  rect = svgDocument.getElementById('rect' + i);
  if( c != null ) {
    rect.setAttributeNS(null, "fill", c)  
  }
  tooltiptext = svgDocument.getElementById('tooltiptext' + i);
  tooltipbg = svgDocument.getElementById('tooltipbg' + i);
  if( tooltipbg != null) {
    tbb = tooltiptext.getBBox();
    tooltipbg.setAttributeNS(null, "width", tbb.width);
    tooltipbg.setAttributeNS(null, "height", tbb.height);
    tooltipbg.setAttributeNS(null, "x", tbb.x);
    tooltipbg.setAttributeNS(null, "y", tbb.y);
    tooltipbg.setAttributeNS(null, "visibility", "visible");
  }
  tooltiptext.setAttributeNS(null,"visibility","visible");
}

function RectUnhover(evt, i, c) {
  rect = svgDocument.getElementById('rect' + i);
  if( c != null ) {
    rect.setAttributeNS(null, "fill", c)  
  }
  tooltiptext = svgDocument.getElementById('tooltiptext' + i);
  tooltiptext.setAttributeNS(null,"visibility","hidden");
  tooltipbg = svgDocument.getElementById('tooltipbg' + i);
  if( tooltipbg != null ) {
    tooltipbg.setAttributeNS(null,"visibility","hidden");
  }
}
]]></script>
      <line x1="50.0" y1="550.0" x2="550.0" y2="550.0" stroke="rgb(0,0,0)" stroke-width="1"/><line x1="50.0" y1="550.0" x2="50.0" y2="50.0" stroke="rgb(0,0,0)" stroke-width="1"/><line x1="50.0" y1="550.0" x2="50.0" y2="50.0" stroke="rgb(192,192,192)" stroke-width="1"/><line x1="50.0" y1="548.0" x2="50.0" y2="552.0" stroke="rgb(192,192,192)" stroke-width="1"/><text text-anchor="middle" alignment-baseline="hanging" x="50.0" y="553.0" font-size="12.0">0</text><line x1="100.5050505050505" y1="550.0" x2="100.5050505050505" y2="50.0" stroke="rgb(192,192,192)" stroke-width="1"/><line x1="100.5050505050505" y1="548.0" x2="100.5050505050505" y2="552.0" stroke="rgb(192,192,192)" stroke-width="1"/><text text-anchor="middle" alignment-baseline="hanging" x="100.5050505050505" y="553.0" font-size="12.0">10</text><line x1="151.010101010101" y1="550.0" x2="151.010101010101" y2="50.0" stroke="rgb(192,192,192)" stroke-width="1"/><line x1="151.010101010101" y1="548.0" x2="151.010101010101" y2="552.0" stroke="rgb(192,192,192)" stroke-width="1"/><text text-anchor="middle" alignment-baseline="hanging" x="151.010101010101" y="553.0" font-size="12.0">20</text><line x1="201.51515151515153" y1="550.0" x2="201.51515151515153" y2="50.0" stroke="rgb(192,192,192)" stroke-width="1"/><line x1="201.51515151515153" y1="548.0" x2="201.51515151515153" y2="552.0" stroke="rgb(192,192,192)" stroke-width="1"/><text text-anchor="middle" alignment-baseline="hanging" x="201.51515151515153" y="553.0" font-size="12.0">30</text><line x1="252.02020202020202" y1="550.0" x2="252.02020202020202" y2="50.0" stroke="rgb(192,192,192)" stroke-width="1"/><line x1="252.02020202020202" y1="548.0" x2="252.02020202020202" y2="552.0" stroke="rgb(192,192,192)" stroke-width="1"/><text text-anchor="middle" alignment-baseline="hanging" x="252.02020202020202" y="553.0" font-size="12.0">40</text><line x1="302.52525252525254" y1="550.0" x2="302.52525252525254" y2="50.0" stroke="rgb(192,192,192)" stroke-width="1"/><line x1="302.52525252525254" y1="548.0" x2="302.52525252525254" y2="552.0" stroke="rgb(192,192,192)" stroke-width="1"/><text text-anchor="middle" alignment-baseline="hanging" x="302.52525252525254" y="553.0" font-size="12.0">50</text><line x1="353.03030303030306" y1="550.0" x2="353.03030303030306" y2="50.0" stroke="rgb(192,192,192)" stroke-width="1"/><line x1="353.03030303030306" y1="548.0" x2="353.03030303030306" y2="552.0" stroke="rgb(192,192,192)" stroke-width="1"/><text text-anchor="middle" alignment-baseline="hanging" x="353.03030303030306" y="553.0" font-size="12.0">60</text><line x1="403.5353535353535" y1="550.0" x2="403.5353535353535" y2="50.0" stroke="rgb(192,192,192)" stroke-width="1"/><line x1="403.5353535353535" y1="548.0" x2="403.5353535353535" y2="552.0" stroke="rgb(192,192,192)" stroke-width="1"/><text text-anchor="middle" alignment-baseline="hanging" x="403.5353535353535" y="553.0" font-size="12.0">70</text><line x1="454.04040404040404" y1="550.0" x2="454.04040404040404" y2="50.0" stroke="rgb(192,192,192)" stroke-width="1"/><line x1="454.04040404040404" y1="548.0" x2="454.04040404040404" y2="552.0" stroke="rgb(192,192,192)" stroke-width="1"/><text text-anchor="middle" alignment-baseline="hanging" x="454.04040404040404" y="553.0" font-size="12.0">80</text><line x1="504.5454545454545" y1="550.0" x2="504.5454545454545" y2="50.0" stroke="rgb(192,192,192)" stroke-width="1"/><line x1="504.5454545454545" y1="548.0" x2="504.5454545454545" y2="552.0" stroke="rgb(192,192,192)" stroke-width="1"/><text text-anchor="middle" alignment-baseline="hanging" x="504.5454545454545" y="553.0" font-size="12.0">90</text><line x1="50.0" y1="550.0" x2="550.0" y2="550.0" stroke="rgb(192,192,192)" stroke-width="1"/><text text-anchor="end" alignment-baseline="middle" x="45.0" y="550.0" font-size="12.0">0.0</text><line x1="48.0" y1="550.0" x2="52.0" y2="550.0" stroke="rgb(192,192,192)" stroke-width="1"/><line x1="50.0" y1="368.03733951888603" x2="550.0" y2="368.03733951888603" stroke="rgb(192,192,192)" stroke-width="1"/><text text-anchor="end" alignment-baseline="middle" x="45.0" y="368.03733951888603" font-size="12.0">1000.0</text><line x1="48.0" y1="368.03733951888603" x2="52.0" y2="368.03733951888603" stroke="rgb(192,192,192)" stroke-width="1"/><line x1="50.0" y1="186.07467903777206" x2="550.0" y2="186.07467903777206" stroke="rgb(192,192,192)" stroke-width="1"/><text text-anchor="end" alignment-baseline="middle" x="45.0" y="186.07467903777206" font-size="12.0">2000.0</text><line x1="48.0" y1="186.07467903777206" x2="52.0" y2="186.07467903777206" stroke="rgb(192,192,192)" stroke-width="1"/><polyline points="50.0,432.22216329627173 55.05050505050505,432.92636532596316 60.101010101010104,413.0539211444785 65.15151515151516,411.2671429028891 70.20202020202021,331.08181413098436 75.25252525252526,367.3874008600777 80.30303030303031,320.34017773250025 85.35353535353535,378.2083972074886 90.40404040404042,372.87202849260746 95.45454545454545,214.77259189848542 100.5050505050505,345.4717704951504 105.55555555555554,346.0039762340408 110.60606060606061,320.74787907253767 115.65656565656566,408.6205172110979 120.7070707070707,396.9220441000963 125.75757575757576,396.9220441000963 130.80808080808083,416.99674176540367 135.85858585858585,292.21112805065235 140.9090909090909,210.67602298427545 145.95959595959596,159.64803888847342 151.010101010101,148.13583849385367 156.06060606060606,254.3898631399307 161.1111111111111,393.4195416222673 166.16161616161617,296.005425636329 171.21212121212122,267.067797447819 176.26262626262627,192.43061765506104 181.31313131313132,391.67732240073366 186.36363636363635,259.87171389051525 191.4141414141414,411.9411530571281 196.46464646464648,412.445517952556 201.51515151515153,178.72359972179106 206.56565656565658,403.7703419482235 211.61616161616163,394.48552967786065 216.66666666666666,406.2904856999596 221.7171717171717,407.42824910586614 226.76767676767676,426.0717766764285 231.8181818181818,360.3022982069083 236.86868686868686,295.0320471774961 241.91919191919192,352.9510450067071 246.96969696969697,359.68821025820887 252.02020202020202,360.62545364568956 257.07070707070704,255.67112237847414 262.1212121212121,414.0550157167231 267.1717171717172,413.28934104281257 272.2222222222222,371.18514030879845 277.27272727272725,371.18284434744845 282.32323232323233,371.47062204450447 287.3737373737374,382.681466231058 292.42424242424244,371.9156863722948 297.47474747474746,401.7562153523098 302.52525252525254,401.7562153523098 307.57575757575756,337.0728307409113 312.62626262626264,374.1393848440438 317.67676767676767,313.59457254829414 322.7272727272727,380.4074336949004 327.77777777777777,313.1093365457123 332.8282828282828,209.90352401009818 337.8787878787879,327.7477614027788 342.92929292929296,368.1446834349857 347.979797979798,368.421328803729 353.03030303030306,368.0595570057602 358.0808080808081,371.3388335373239 363.13131313131316,384.14221998516416 368.1818181818182,384.14221998516416 373.23232323232327,339.54681180130814 378.2828282828283,339.6232203386289 383.3333333333333,400.09519560672 388.3838383838384,400.7131248374907 393.4343434343434,400.74379970502173 398.4848484848485,306.4014539244979 403.5353535353535,292.4576267766897 408.58585858585855,250.03484264117202 413.6363636363636,250.08149788437487 418.68686868686865,398.7685062211016 423.73737373737373,331.4790195669611 428.7878787878788,331.6164951549601 433.83838383838383,378.33671675702385 438.8888888888889,314.7440651856694 443.93939393939394,352.21580767528803 448.989898989899,316.0593409832835 454.04040404040404,319.87212258970055 459.0909090909091,377.2596372464296 464.14141414141415,378.42599328869306 469.19191919191917,253.16407767828042 474.24242424242425,349.27846893061286 479.2929292929293,344.40596813982654 484.34343434343435,341.99452439169295 489.3939393939394,342.8160706815422 494.4444444444444,375.1090717675993 499.4949494949495,364.8474809190601 504.5454545454545,410.5844594491141 509.59595959595964,412.3362571697819 514.6464646464647,359.09442702500496 519.6969696969697,315.35893832194273 524.7474747474748,269.91541825273686 529.7979797979798,362.7714492419825 534.8484848484849,342.1415474516274 539.8989898989898,194.73609347811868 544.9494949494949,305.7167444577468 550.0,206.1483596206532" fill="none" stroke="rgb(0,0,0)" stroke-width="1"/><circle cx="50.0" cy="432.22216329627173" r="2" fill="rgb(0,0,0)"/><circle cx="55.05050505050505" cy="432.92636532596316" r="2" fill="rgb(0,0,0)"/><circle cx="60.101010101010104" cy="413.0539211444785" r="2" fill="rgb(0,0,0)"/><circle cx="65.15151515151516" cy="411.2671429028891" r="2" fill="rgb(0,0,0)"/><circle cx="70.20202020202021" cy="331.08181413098436" r="2" fill="rgb(0,0,0)"/><circle cx="75.25252525252526" cy="367.3874008600777" r="2" fill="rgb(0,0,0)"/><circle cx="80.30303030303031" cy="320.34017773250025" r="2" fill="rgb(0,0,0)"/><circle cx="85.35353535353535" cy="378.2083972074886" r="2" fill="rgb(0,0,0)"/><circle cx="90.40404040404042" cy="372.87202849260746" r="2" fill="rgb(0,0,0)"/><circle cx="95.45454545454545" cy="214.77259189848542" r="2" fill="rgb(0,0,0)"/><circle cx="100.5050505050505" cy="345.4717704951504" r="2" fill="rgb(0,0,0)"/><circle cx="105.55555555555554" cy="346.0039762340408" r="2" fill="rgb(0,0,0)"/><circle cx="110.60606060606061" cy="320.74787907253767" r="2" fill="rgb(0,0,0)"/><circle cx="115.65656565656566" cy="408.6205172110979" r="2" fill="rgb(0,0,0)"/><circle cx="120.7070707070707" cy="396.9220441000963" r="2" fill="rgb(0,0,0)"/><circle cx="125.75757575757576" cy="396.9220441000963" r="2" fill="rgb(0,0,0)"/><circle cx="130.80808080808083" cy="416.99674176540367" r="2" fill="rgb(0,0,0)"/><circle cx="135.85858585858585" cy="292.21112805065235" r="2" fill="rgb(0,0,0)"/><circle cx="140.9090909090909" cy="210.67602298427545" r="2" fill="rgb(0,0,0)"/><circle cx="145.95959595959596" cy="159.64803888847342" r="2" fill="rgb(0,0,0)"/><circle cx="151.010101010101" cy="148.13583849385367" r="2" fill="rgb(0,0,0)"/><circle cx="156.06060606060606" cy="254.3898631399307" r="2" fill="rgb(0,0,0)"/><circle cx="161.1111111111111" cy="393.4195416222673" r="2" fill="rgb(0,0,0)"/><circle cx="166.16161616161617" cy="296.005425636329" r="2" fill="rgb(0,0,0)"/><circle cx="171.21212121212122" cy="267.067797447819" r="2" fill="rgb(0,0,0)"/><circle cx="176.26262626262627" cy="192.43061765506104" r="2" fill="rgb(0,0,0)"/><circle cx="181.31313131313132" cy="391.67732240073366" r="2" fill="rgb(0,0,0)"/><circle cx="186.36363636363635" cy="259.87171389051525" r="2" fill="rgb(0,0,0)"/><circle cx="191.4141414141414" cy="411.9411530571281" r="2" fill="rgb(0,0,0)"/><circle cx="196.46464646464648" cy="412.445517952556" r="2" fill="rgb(0,0,0)"/><circle cx="201.51515151515153" cy="178.72359972179106" r="2" fill="rgb(0,0,0)"/><circle cx="206.56565656565658" cy="403.7703419482235" r="2" fill="rgb(0,0,0)"/><circle cx="211.61616161616163" cy="394.48552967786065" r="2" fill="rgb(0,0,0)"/><circle cx="216.66666666666666" cy="406.2904856999596" r="2" fill="rgb(0,0,0)"/><circle cx="221.7171717171717" cy="407.42824910586614" r="2" fill="rgb(0,0,0)"/><circle cx="226.76767676767676" cy="426.0717766764285" r="2" fill="rgb(0,0,0)"/><circle cx="231.8181818181818" cy="360.3022982069083" r="2" fill="rgb(0,0,0)"/><circle cx="236.86868686868686" cy="295.0320471774961" r="2" fill="rgb(0,0,0)"/><circle cx="241.91919191919192" cy="352.9510450067071" r="2" fill="rgb(0,0,0)"/><circle cx="246.96969696969697" cy="359.68821025820887" r="2" fill="rgb(0,0,0)"/><circle cx="252.02020202020202" cy="360.62545364568956" r="2" fill="rgb(0,0,0)"/><circle cx="257.07070707070704" cy="255.67112237847414" r="2" fill="rgb(0,0,0)"/><circle cx="262.1212121212121" cy="414.0550157167231" r="2" fill="rgb(0,0,0)"/><circle cx="267.1717171717172" cy="413.28934104281257" r="2" fill="rgb(0,0,0)"/><circle cx="272.2222222222222" cy="371.18514030879845" r="2" fill="rgb(0,0,0)"/><circle cx="277.27272727272725" cy="371.18284434744845" r="2" fill="rgb(0,0,0)"/><circle cx="282.32323232323233" cy="371.47062204450447" r="2" fill="rgb(0,0,0)"/><circle cx="287.3737373737374" cy="382.681466231058" r="2" fill="rgb(0,0,0)"/><circle cx="292.42424242424244" cy="371.9156863722948" r="2" fill="rgb(0,0,0)"/><circle cx="297.47474747474746" cy="401.7562153523098" r="2" fill="rgb(0,0,0)"/><circle cx="302.52525252525254" cy="401.7562153523098" r="2" fill="rgb(0,0,0)"/><circle cx="307.57575757575756" cy="337.0728307409113" r="2" fill="rgb(0,0,0)"/><circle cx="312.62626262626264" cy="374.1393848440438" r="2" fill="rgb(0,0,0)"/><circle cx="317.67676767676767" cy="313.59457254829414" r="2" fill="rgb(0,0,0)"/><circle cx="322.7272727272727" cy="380.4074336949004" r="2" fill="rgb(0,0,0)"/><circle cx="327.77777777777777" cy="313.1093365457123" r="2" fill="rgb(0,0,0)"/><circle cx="332.8282828282828" cy="209.90352401009818" r="2" fill="rgb(0,0,0)"/><circle cx="337.8787878787879" cy="327.7477614027788" r="2" fill="rgb(0,0,0)"/><circle cx="342.92929292929296" cy="368.1446834349857" r="2" fill="rgb(0,0,0)"/><circle cx="347.979797979798" cy="368.421328803729" r="2" fill="rgb(0,0,0)"/><circle cx="353.03030303030306" cy="368.0595570057602" r="2" fill="rgb(0,0,0)"/><circle cx="358.0808080808081" cy="371.3388335373239" r="2" fill="rgb(0,0,0)"/><circle cx="363.13131313131316" cy="384.14221998516416" r="2" fill="rgb(0,0,0)"/><circle cx="368.1818181818182" cy="384.14221998516416" r="2" fill="rgb(0,0,0)"/><circle cx="373.23232323232327" cy="339.54681180130814" r="2" fill="rgb(0,0,0)"/><circle cx="378.2828282828283" cy="339.6232203386289" r="2" fill="rgb(0,0,0)"/><circle cx="383.3333333333333" cy="400.09519560672" r="2" fill="rgb(0,0,0)"/><circle cx="388.3838383838384" cy="400.7131248374907" r="2" fill="rgb(0,0,0)"/><circle cx="393.4343434343434" cy="400.74379970502173" r="2" fill="rgb(0,0,0)"/><circle cx="398.4848484848485" cy="306.4014539244979" r="2" fill="rgb(0,0,0)"/><circle cx="403.5353535353535" cy="292.4576267766897" r="2" fill="rgb(0,0,0)"/><circle cx="408.58585858585855" cy="250.03484264117202" r="2" fill="rgb(0,0,0)"/><circle cx="413.6363636363636" cy="250.08149788437487" r="2" fill="rgb(0,0,0)"/><circle cx="418.68686868686865" cy="398.7685062211016" r="2" fill="rgb(0,0,0)"/><circle cx="423.73737373737373" cy="331.4790195669611" r="2" fill="rgb(0,0,0)"/><circle cx="428.7878787878788" cy="331.6164951549601" r="2" fill="rgb(0,0,0)"/><circle cx="433.83838383838383" cy="378.33671675702385" r="2" fill="rgb(0,0,0)"/><circle cx="438.8888888888889" cy="314.7440651856694" r="2" fill="rgb(0,0,0)"/><circle cx="443.93939393939394" cy="352.21580767528803" r="2" fill="rgb(0,0,0)"/><circle cx="448.989898989899" cy="316.0593409832835" r="2" fill="rgb(0,0,0)"/><circle cx="454.04040404040404" cy="319.87212258970055" r="2" fill="rgb(0,0,0)"/><circle cx="459.0909090909091" cy="377.2596372464296" r="2" fill="rgb(0,0,0)"/><circle cx="464.14141414141415" cy="378.42599328869306" r="2" fill="rgb(0,0,0)"/><circle cx="469.19191919191917" cy="253.16407767828042" r="2" fill="rgb(0,0,0)"/><circle cx="474.24242424242425" cy="349.27846893061286" r="2" fill="rgb(0,0,0)"/><circle cx="479.2929292929293" cy="344.40596813982654" r="2" fill="rgb(0,0,0)"/><circle cx="484.34343434343435" cy="341.99452439169295" r="2" fill="rgb(0,0,0)"/><circle cx="489.3939393939394" cy="342.8160706815422" r="2" fill="rgb(0,0,0)"/><circle cx="494.4444444444444" cy="375.1090717675993" r="2" fill="rgb(0,0,0)"/><circle cx="499.4949494949495" cy="364.8474809190601" r="2" fill="rgb(0,0,0)"/><circle cx="504.5454545454545" cy="410.5844594491141" r="2" fill="rgb(0,0,0)"/><circle cx="509.59595959595964" cy="412.3362571697819" r="2" fill="rgb(0,0,0)"/><circle cx="514.6464646464647" cy="359.09442702500496" r="2" fill="rgb(0,0,0)"/><circle cx="519.6969696969697" cy="315.35893832194273" r="2" fill="rgb(0,0,0)"/><circle cx="524.7474747474748" cy="269.91541825273686" r="2" fill="rgb(0,0,0)"/><circle cx="529.7979797979798" cy="362.7714492419825" r="2" fill="rgb(0,0,0)"/><circle cx="534.8484848484849" cy="342.1415474516274" r="2" fill="rgb(0,0,0)"/><circle cx="539.8989898989898" cy="194.73609347811868" r="2" fill="rgb(0,0,0)"/><circle cx="544.9494949494949" cy="305.7167444577468" r="2" fill="rgb(0,0,0)"/><circle cx="550.0" cy="206.1483596206532" r="2" fill="rgb(0,0,0)"/><polyline points="50.0,210.62595241256537 55.05050505050505,181.9921821228562 60.101010101010104,153.9895452105714 65.15151515151516,137.24376174762364 70.20202020202021,103.2027036023959 75.25252525252526,96.97068454905917 80.30303030303031,83.8870655316519 85.35353535353535,85.15141679655665 90.40404040404042,75.54920898076455 95.45454545454545,68.64695020628079 100.5050505050505,67.60990576255358 105.55555555555554,73.00788744181784 110.60606060606061,61.539565991686686 115.65656565656566,67.98497859607181 120.7070707070707,67.92450654825404 125.75757575757576,77.9706763487136 130.80808080808083,70.41926561519608 135.85858585858585,64.41199141892662 140.9090909090909,59.75236554988112 145.95959595959596,55.17586572520338 151.010101010101,54.83814498592727 156.06060606060606,57.39038600076918 161.1111111111111,59.774827923938005 166.16161616161617,59.68131592068505 171.21212121212122,60.16284897319258 176.26262626262627,56.205496361030214 181.31313131313132,57.999857588583836 186.36363636363635,57.82784232634941 191.4141414141414,58.82386969472259 196.46464646464648,64.44425473940117 201.51515151515153,55.172171831422645 206.56565656565658,60.835844304356954 211.61616161616163,61.74278519178324 216.66666666666666,67.84231448549644 221.7171717171717,61.22205049128223 226.76767676767676,71.03880904571741 231.8181818181818,66.51579105303273 236.86868686868686,65.7585208322838 241.91919191919192,73.13887518569493 246.96969696969697,72.17587093110961 252.02020202020202,72.88781772409124 257.07070707070704,64.28140628782 262.1212121212121,72.40766512810808 267.1717171717172,63.40669235588916 272.2222222222222,64.57549103880405 277.27272727272725,72.44799615068467 282.32323232323233,65.94200251452412 287.3737373737374,76.6044086432309 292.42424242424244,69.335622172922 297.47474747474746,69.94843826459788 302.52525252525254,69.38495363769408 307.57575757575756,66.47354340549373 312.62626262626264,61.32340155585757 317.67676767676767,53.672212036749215 322.7272727272727,58.921795503285466 327.77777777777777,55.678522072398096 332.8282828282828,53.24387827184887 337.8787878787879,56.90567975090107 342.92929292929296,62.477669988034165 347.979797979798,61.064609237570835 353.03030303030306,58.71363094737302 358.0808080808081,60.8439548674782 363.13131313131316,66.55094678833893 368.1818181818182,71.73047330039537 373.23232323232327,64.91918166786718 378.2828282828283,59.61788510952124 383.3333333333333,63.818594216440545 388.3838383838384,71.80974012408319 393.4343434343434,66.93361743670283 398.4848484848485,60.27864523503479 403.5353535353535,56.68163450328467 408.58585858585855,53.419299897205406 413.6363636363636,57.167258022582246 418.68686868686865,65.6415893014605 423.73737373737373,59.541646309847295 428.7878787878788,54.84948715341102 433.83838383838383,58.53223582205567 438.8888888888889,53.82225146591469 443.93939393939394,61.87067056011233 448.989898989899,57.325641455375944 454.04040404040404,61.533857870305155 459.0909090909091,66.2292692704882 464.14141414141415,69.32419477179627 469.19191919191917,59.519212867024976 474.24242424242425,60.345710341495874 479.2929292929293,62.8888324462028 484.34343434343435,60.77948512336303 489.3939393939394,59.7324664620449 494.4444444444444,58.49060816552645 499.4949494949495,63.227611041717466 504.5454545454545,69.78040925990956 509.59595959595964,70.33787934340876 514.6464646464647,67.26497516412928 519.6969696969697,63.10607217621629 524.7474747474748,58.766646804034565 529.7979797979798,61.493145904176515 534.8484848484849,55.34933560776045 539.8989898989898,54.68964373609606 544.9494949494949,57.13200123490145 550.0,59.38578116761073" fill="none" stroke="rgb(0,0,255)" stroke-width="1"/><circle cx="50.0" cy="210.62595241256537" r="2" fill="rgb(0,0,255)"/><circle cx="55.05050505050505" cy="181.9921821228562" r="2" fill="rgb(0,0,255)"/><circle cx="60.101010101010104" cy="153.9895452105714" r="2" fill="rgb(0,0,255)"/><circle cx="65.15151515151516" cy="137.24376174762364" r="2" fill="rgb(0,0,255)"/><circle cx="70.20202020202021" cy="103.2027036023959" r="2" fill="rgb(0,0,255)"/><circle cx="75.25252525252526" cy="96.97068454905917" r="2" fill="rgb(0,0,255)"/><circle cx="80.30303030303031" cy="83.8870655316519" r="2" fill="rgb(0,0,255)"/><circle cx="85.35353535353535" cy="85.15141679655665" r="2" fill="rgb(0,0,255)"/><circle cx="90.40404040404042" cy="75.54920898076455" r="2" fill="rgb(0,0,255)"/><circle cx="95.45454545454545" cy="68.64695020628079" r="2" fill="rgb(0,0,255)"/><circle cx="100.5050505050505" cy="67.60990576255358" r="2" fill="rgb(0,0,255)"/><circle cx="105.55555555555554" cy="73.00788744181784" r="2" fill="rgb(0,0,255)"/><circle cx="110.60606060606061" cy="61.539565991686686" r="2" fill="rgb(0,0,255)"/><circle cx="115.65656565656566" cy="67.98497859607181" r="2" fill="rgb(0,0,255)"/><circle cx="120.7070707070707" cy="67.92450654825404" r="2" fill="rgb(0,0,255)"/><circle cx="125.75757575757576" cy="77.9706763487136" r="2" fill="rgb(0,0,255)"/><circle cx="130.80808080808083" cy="70.41926561519608" r="2" fill="rgb(0,0,255)"/><circle cx="135.85858585858585" cy="64.41199141892662" r="2" fill="rgb(0,0,255)"/><circle cx="140.9090909090909" cy="59.75236554988112" r="2" fill="rgb(0,0,255)"/><circle cx="145.95959595959596" cy="55.17586572520338" r="2" fill="rgb(0,0,255)"/><circle cx="151.010101010101" cy="54.83814498592727" r="2" fill="rgb(0,0,255)"/><circle cx="156.06060606060606" cy="57.39038600076918" r="2" fill="rgb(0,0,255)"/><circle cx="161.1111111111111" cy="59.774827923938005" r="2" fill="rgb(0,0,255)"/><circle cx="166.16161616161617" cy="59.68131592068505" r="2" fill="rgb(0,0,255)"/><circle cx="171.21212121212122" cy="60.16284897319258" r="2" fill="rgb(0,0,255)"/><circle cx="176.26262626262627" cy="56.205496361030214" r="2" fill="rgb(0,0,255)"/><circle cx="181.31313131313132" cy="57.999857588583836" r="2" fill="rgb(0,0,255)"/><circle cx="186.36363636363635" cy="57.82784232634941" r="2" fill="rgb(0,0,255)"/><circle cx="191.4141414141414" cy="58.82386969472259" r="2" fill="rgb(0,0,255)"/><circle cx="196.46464646464648" cy="64.44425473940117" r="2" fill="rgb(0,0,255)"/><circle cx="201.51515151515153" cy="55.172171831422645" r="2" fill="rgb(0,0,255)"/><circle cx="206.56565656565658" cy="60.835844304356954" r="2" fill="rgb(0,0,255)"/><circle cx="211.61616161616163" cy="61.74278519178324" r="2" fill="rgb(0,0,255)"/><circle cx="216.66666666666666" cy="67.84231448549644" r="2" fill="rgb(0,0,255)"/><circle cx="221.7171717171717" cy="61.22205049128223" r="2" fill="rgb(0,0,255)"/><circle cx="226.76767676767676" cy="71.03880904571741" r="2" fill="rgb(0,0,255)"/><circle cx="231.8181818181818" cy="66.51579105303273" r="2" fill="rgb(0,0,255)"/><circle cx="236.86868686868686" cy="65.7585208322838" r="2" fill="rgb(0,0,255)"/><circle cx="241.91919191919192" cy="73.13887518569493" r="2" fill="rgb(0,0,255)"/><circle cx="246.96969696969697" cy="72.17587093110961" r="2" fill="rgb(0,0,255)"/><circle cx="252.02020202020202" cy="72.88781772409124" r="2" fill="rgb(0,0,255)"/><circle cx="257.07070707070704" cy="64.28140628782" r="2" fill="rgb(0,0,255)"/><circle cx="262.1212121212121" cy="72.40766512810808" r="2" fill="rgb(0,0,255)"/><circle cx="267.1717171717172" cy="63.40669235588916" r="2" fill="rgb(0,0,255)"/><circle cx="272.2222222222222" cy="64.57549103880405" r="2" fill="rgb(0,0,255)"/><circle cx="277.27272727272725" cy="72.44799615068467" r="2" fill="rgb(0,0,255)"/><circle cx="282.32323232323233" cy="65.94200251452412" r="2" fill="rgb(0,0,255)"/><circle cx="287.3737373737374" cy="76.6044086432309" r="2" fill="rgb(0,0,255)"/><circle cx="292.42424242424244" cy="69.335622172922" r="2" fill="rgb(0,0,255)"/><circle cx="297.47474747474746" cy="69.94843826459788" r="2" fill="rgb(0,0,255)"/><circle cx="302.52525252525254" cy="69.38495363769408" r="2" fill="rgb(0,0,255)"/><circle cx="307.57575757575756" cy="66.47354340549373" r="2" fill="rgb(0,0,255)"/><circle cx="312.62626262626264" cy="61.32340155585757" r="2" fill="rgb(0,0,255)"/><circle cx="317.67676767676767" cy="53.672212036749215" r="2" fill="rgb(0,0,255)"/><circle cx="322.7272727272727" cy="58.921795503285466" r="2" fill="rgb(0,0,255)"/><circle cx="327.77777777777777" cy="55.678522072398096" r="2" fill="rgb(0,0,255)"/><circle cx="332.8282828282828" cy="53.24387827184887" r="2" fill="rgb(0,0,255)"/><circle cx="337.8787878787879" cy="56.90567975090107" r="2" fill="rgb(0,0,255)"/><circle cx="342.92929292929296" cy="62.477669988034165" r="2" fill="rgb(0,0,255)"/><circle cx="347.979797979798" cy="61.064609237570835" r="2" fill="rgb(0,0,255)"/><circle cx="353.03030303030306" cy="58.71363094737302" r="2" fill="rgb(0,0,255)"/><circle cx="358.0808080808081" cy="60.8439548674782" r="2" fill="rgb(0,0,255)"/><circle cx="363.13131313131316" cy="66.55094678833893" r="2" fill="rgb(0,0,255)"/><circle cx="368.1818181818182" cy="71.73047330039537" r="2" fill="rgb(0,0,255)"/><circle cx="373.23232323232327" cy="64.91918166786718" r="2" fill="rgb(0,0,255)"/><circle cx="378.2828282828283" cy="59.61788510952124" r="2" fill="rgb(0,0,255)"/><circle cx="383.3333333333333" cy="63.818594216440545" r="2" fill="rgb(0,0,255)"/><circle cx="388.3838383838384" cy="71.80974012408319" r="2" fill="rgb(0,0,255)"/><circle cx="393.4343434343434" cy="66.93361743670283" r="2" fill="rgb(0,0,255)"/><circle cx="398.4848484848485" cy="60.27864523503479" r="2" fill="rgb(0,0,255)"/><circle cx="403.5353535353535" cy="56.68163450328467" r="2" fill="rgb(0,0,255)"/><circle cx="408.58585858585855" cy="53.419299897205406" r="2" fill="rgb(0,0,255)"/><circle cx="413.6363636363636" cy="57.167258022582246" r="2" fill="rgb(0,0,255)"/><circle cx="418.68686868686865" cy="65.6415893014605" r="2" fill="rgb(0,0,255)"/><circle cx="423.73737373737373" cy="59.541646309847295" r="2" fill="rgb(0,0,255)"/><circle cx="428.7878787878788" cy="54.84948715341102" r="2" fill="rgb(0,0,255)"/><circle cx="433.83838383838383" cy="58.53223582205567" r="2" fill="rgb(0,0,255)"/><circle cx="438.8888888888889" cy="53.82225146591469" r="2" fill="rgb(0,0,255)"/><circle cx="443.93939393939394" cy="61.87067056011233" r="2" fill="rgb(0,0,255)"/><circle cx="448.989898989899" cy="57.325641455375944" r="2" fill="rgb(0,0,255)"/><circle cx="454.04040404040404" cy="61.533857870305155" r="2" fill="rgb(0,0,255)"/><circle cx="459.0909090909091" cy="66.2292692704882" r="2" fill="rgb(0,0,255)"/><circle cx="464.14141414141415" cy="69.32419477179627" r="2" fill="rgb(0,0,255)"/><circle cx="469.19191919191917" cy="59.519212867024976" r="2" fill="rgb(0,0,255)"/><circle cx="474.24242424242425" cy="60.345710341495874" r="2" fill="rgb(0,0,255)"/><circle cx="479.2929292929293" cy="62.8888324462028" r="2" fill="rgb(0,0,255)"/><circle cx="484.34343434343435" cy="60.77948512336303" r="2" fill="rgb(0,0,255)"/><circle cx="489.3939393939394" cy="59.7324664620449" r="2" fill="rgb(0,0,255)"/><circle cx="494.4444444444444" cy="58.49060816552645" r="2" fill="rgb(0,0,255)"/><circle cx="499.4949494949495" cy="63.227611041717466" r="2" fill="rgb(0,0,255)"/><circle cx="504.5454545454545" cy="69.78040925990956" r="2" fill="rgb(0,0,255)"/><circle cx="509.59595959595964" cy="70.33787934340876" r="2" fill="rgb(0,0,255)"/><circle cx="514.6464646464647" cy="67.26497516412928" r="2" fill="rgb(0,0,255)"/><circle cx="519.6969696969697" cy="63.10607217621629" r="2" fill="rgb(0,0,255)"/><circle cx="524.7474747474748" cy="58.766646804034565" r="2" fill="rgb(0,0,255)"/><circle cx="529.7979797979798" cy="61.493145904176515" r="2" fill="rgb(0,0,255)"/><circle cx="534.8484848484849" cy="55.34933560776045" r="2" fill="rgb(0,0,255)"/><circle cx="539.8989898989898" cy="54.68964373609606" r="2" fill="rgb(0,0,255)"/><circle cx="544.9494949494949" cy="57.13200123490145" r="2" fill="rgb(0,0,255)"/><circle cx="550.0" cy="59.38578116761073" r="2" fill="rgb(0,0,255)"/><polyline points="50.0,53.057606655873826 55.05050505050505,53.258269854523405 60.101010101010104,52.93966036392948 65.15151515151516,52.9040546736025 70.20202020202021,52.281225429341305 75.25252525252526,53.43862754749853 80.30303030303031,53.518976534985654 85.35353535353535,51.21108174639011 90.40404040404042,52.5546939439011 95.45454545454545,51.83026895808007 100.5050505050505,51.87646016369655 105.55555555555554,51.852291341317255 110.60606060606061,51.987486519994945 115.65656565656566,51.32141860568447 120.7070707070707,51.6009519803676 125.75757575757576,51.658105173110016 130.80808080808083,51.127812940561626 135.85858585858585,51.08637127007006 140.9090909090909,51.08637127007006 145.95959595959596,51.185206869361934 151.010101010101,50.62378940698761 156.06060606060606,50.781048451790355 161.1111111111111,50.74081169914689 166.16161616161617,50.93966201317869 171.21212121212122,50.57746167339019 176.26262626262627,50.391798034343424 181.31313131313132,50.42970401084415 186.36363636363635,50.75679890842798 191.4141414141414,50.7189061434961 196.46464646464648,50.65453178925037 201.51515151515153,50.387875396609104 206.56565656565658,50.34995620853954 211.61616161616163,50.38786218504026 216.66666666666666,50.34995620853954 221.7171717171717,50.31248593125105 226.76767676767676,50.32964325627046 231.8181818181818,50.34996942010838 236.86868686868686,50.28801688282368 241.91919191919192,50.28801688282368 246.96969696969697,50.34995620853954 252.02020202020202,50.34996942010838 257.07070707070704,50.34995620853954 262.1212121212121,50.270468272018206 267.1717171717172,50.34995620853954 272.2222222222222,50.323064085293595 277.27272727272725,50.26282690037664 282.32323232323233,50.28801688282368 287.3737373737374,50.27637241805803 292.42424242424244,50.28801688282368 297.47474747474746,50.17259126653829 302.52525252525254,50.31145364771953 307.57575757575756,50.282265563123474 312.62626262626264,50.27412609230953 317.67676767676767,50.18960610087947 322.7272727272727,50.187310139529416 327.77777777777777,50.25379992847161 332.8282828282828,50.17259126653829 337.8787878787879,50.20177935113435 342.92929292929296,50.2345305922542 347.979797979798,50.241361639620834 353.03030303030306,50.20177935113435 358.0808080808081,50.20177935113435 363.13131313131316,50.155124107931556 368.1818181818182,50.155124107931556 373.23232323232327,50.20177935113435 378.2828282828283,50.13241701834454 383.3333333333333,50.155124107931556 388.3838383838384,50.1259360233355 393.4343434343434,50.1259360233355 398.4848484848485,50.08576177514175 403.5353535353535,50.08576177514175 408.58585858585855,50.15371092292344 413.6363636363636,50.1259360233355 418.68686868686865,50.1259360233355 423.73737373737373,50.1259360233355 428.7878787878788,50.1259360233355 433.83838383838383,50.1259360233355 438.8888888888889,50.1259360233355 443.93939393939394,50.1259360233355 448.989898989899,50.155124107931556 454.04040404040404,50.1259360233355 459.0909090909091,50.15507302506387 464.14141414141415,50.1259360233355 469.19191919191917,50.1259360233355 474.24242424242425,50.16423564576087 479.2929292929293,50.1259360233355 484.34343434343435,50.1259360233355 489.3939393939394,50.1259360233355 494.4444444444444,50.05972482244283 499.4949494949495,50.11528444120802 504.5454545454545,50.1259360233355 509.59595959595964,50.1259360233355 514.6464646464647,50.1259360233355 519.6969696969697,50.1259360233355 524.7474747474748,50.1259360233355 529.7979797979798,50.1259360233355 534.8484848484849,50.1259360233355 539.8989898989898,50.11528444120802 544.9494949494949,50.11528444120802 550.0,50.0" fill="none" stroke="rgb(0,255,0)" stroke-width="1"/><circle cx="50.0" cy="53.057606655873826" r="2" fill="rgb(0,255,0)"/><circle cx="55.05050505050505" cy="53.258269854523405" r="2" fill="rgb(0,255,0)"/><circle cx="60.101010101010104" cy="52.93966036392948" r="2" fill="rgb(0,255,0)"/><circle cx="65.15151515151516" cy="52.9040546736025" r="2" fill="rgb(0,255,0)"/><circle cx="70.20202020202021" cy="52.281225429341305" r="2" fill="rgb(0,255,0)"/><circle cx="75.25252525252526" cy="53.43862754749853" r="2" fill="rgb(0,255,0)"/><circle cx="80.30303030303031" cy="53.518976534985654" r="2" fill="rgb(0,255,0)"/><circle cx="85.35353535353535" cy="51.21108174639011" r="2" fill="rgb(0,255,0)"/><circle cx="90.40404040404042" cy="52.5546939439011" r="2" fill="rgb(0,255,0)"/><circle cx="95.45454545454545" cy="51.83026895808007" r="2" fill="rgb(0,255,0)"/><circle cx="100.5050505050505" cy="51.87646016369655" r="2" fill="rgb(0,255,0)"/><circle cx="105.55555555555554" cy="51.852291341317255" r="2" fill="rgb(0,255,0)"/><circle cx="110.60606060606061" cy="51.987486519994945" r="2" fill="rgb(0,255,0)"/><circle cx="115.65656565656566" cy="51.32141860568447" r="2" fill="rgb(0,255,0)"/><circle cx="120.7070707070707" cy="51.6009519803676" r="2" fill="rgb(0,255,0)"/><circle cx="125.75757575757576" cy="51.658105173110016" r="2" fill="rgb(0,255,0)"/><circle cx="130.80808080808083" cy="51.127812940561626" r="2" fill="rgb(0,255,0)"/><circle cx="135.85858585858585" cy="51.08637127007006" r="2" fill="rgb(0,255,0)"/><circle cx="140.9090909090909" cy="51.08637127007006" r="2" fill="rgb(0,255,0)"/><circle cx="145.95959595959596" cy="51.185206869361934" r="2" fill="rgb(0,255,0)"/><circle cx="151.010101010101" cy="50.62378940698761" r="2" fill="rgb(0,255,0)"/><circle cx="156.06060606060606" cy="50.781048451790355" r="2" fill="rgb(0,255,0)"/><circle cx="161.1111111111111" cy="50.74081169914689" r="2" fill="rgb(0,255,0)"/><circle cx="166.16161616161617" cy="50.93966201317869" r="2" fill="rgb(0,255,0)"/><circle cx="171.21212121212122" cy="50.57746167339019" r="2" fill="rgb(0,255,0)"/><circle cx="176.26262626262627" cy="50.391798034343424" r="2" fill="rgb(0,255,0)"/><circle cx="181.31313131313132" cy="50.42970401084415" r="2" fill="rgb(0,255,0)"/><circle cx="186.36363636363635" cy="50.75679890842798" r="2" fill="rgb(0,255,0)"/><circle cx="191.4141414141414" cy="50.7189061434961" r="2" fill="rgb(0,255,0)"/><circle cx="196.46464646464648" cy="50.65453178925037" r="2" fill="rgb(0,255,0)"/><circle cx="201.51515151515153" cy="50.387875396609104" r="2" fill="rgb(0,255,0)"/><circle cx="206.56565656565658" cy="50.34995620853954" r="2" fill="rgb(0,255,0)"/><circle cx="211.61616161616163" cy="50.38786218504026" r="2" fill="rgb(0,255,0)"/><circle cx="216.66666666666666" cy="50.34995620853954" r="2" fill="rgb(0,255,0)"/><circle cx="221.7171717171717" cy="50.31248593125105" r="2" fill="rgb(0,255,0)"/><circle cx="226.76767676767676" cy="50.32964325627046" r="2" fill="rgb(0,255,0)"/><circle cx="231.8181818181818" cy="50.34996942010838" r="2" fill="rgb(0,255,0)"/><circle cx="236.86868686868686" cy="50.28801688282368" r="2" fill="rgb(0,255,0)"/><circle cx="241.91919191919192" cy="50.28801688282368" r="2" fill="rgb(0,255,0)"/><circle cx="246.96969696969697" cy="50.34995620853954" r="2" fill="rgb(0,255,0)"/><circle cx="252.02020202020202" cy="50.34996942010838" r="2" fill="rgb(0,255,0)"/><circle cx="257.07070707070704" cy="50.34995620853954" r="2" fill="rgb(0,255,0)"/><circle cx="262.1212121212121" cy="50.270468272018206" r="2" fill="rgb(0,255,0)"/><circle cx="267.1717171717172" cy="50.34995620853954" r="2" fill="rgb(0,255,0)"/><circle cx="272.2222222222222" cy="50.323064085293595" r="2" fill="rgb(0,255,0)"/><circle cx="277.27272727272725" cy="50.26282690037664" r="2" fill="rgb(0,255,0)"/><circle cx="282.32323232323233" cy="50.28801688282368" r="2" fill="rgb(0,255,0)"/><circle cx="287.3737373737374" cy="50.27637241805803" r="2" fill="rgb(0,255,0)"/><circle cx="292.42424242424244" cy="50.28801688282368" r="2" fill="rgb(0,255,0)"/><circle cx="297.47474747474746" cy="50.17259126653829" r="2" fill="rgb(0,255,0)"/><circle cx="302.52525252525254" cy="50.31145364771953" r="2" fill="rgb(0,255,0)"/><circle cx="307.57575757575756" cy="50.282265563123474" r="2" fill="rgb(0,255,0)"/><circle cx="312.62626262626264" cy="50.27412609230953" r="2" fill="rgb(0,255,0)"/><circle cx="317.67676767676767" cy="50.18960610087947" r="2" fill="rgb(0,255,0)"/><circle cx="322.7272727272727" cy="50.187310139529416" r="2" fill="rgb(0,255,0)"/><circle cx="327.77777777777777" cy="50.25379992847161" r="2" fill="rgb(0,255,0)"/><circle cx="332.8282828282828" cy="50.17259126653829" r="2" fill="rgb(0,255,0)"/><circle cx="337.8787878787879" cy="50.20177935113435" r="2" fill="rgb(0,255,0)"/><circle cx="342.92929292929296" cy="50.2345305922542" r="2" fill="rgb(0,255,0)"/><circle cx="347.979797979798" cy="50.241361639620834" r="2" fill="rgb(0,255,0)"/><circle cx="353.03030303030306" cy="50.20177935113435" r="2" fill="rgb(0,255,0)"/><circle cx="358.0808080808081" cy="50.20177935113435" r="2" fill="rgb(0,255,0)"/><circle cx="363.13131313131316" cy="50.155124107931556" r="2" fill="rgb(0,255,0)"/><circle cx="368.1818181818182" cy="50.155124107931556" r="2" fill="rgb(0,255,0)"/><circle cx="373.23232323232327" cy="50.20177935113435" r="2" fill="rgb(0,255,0)"/><circle cx="378.2828282828283" cy="50.13241701834454" r="2" fill="rgb(0,255,0)"/><circle cx="383.3333333333333" cy="50.155124107931556" r="2" fill="rgb(0,255,0)"/><circle cx="388.3838383838384" cy="50.1259360233355" r="2" fill="rgb(0,255,0)"/><circle cx="393.4343434343434" cy="50.1259360233355" r="2" fill="rgb(0,255,0)"/><circle cx="398.4848484848485" cy="50.08576177514175" r="2" fill="rgb(0,255,0)"/><circle cx="403.5353535353535" cy="50.08576177514175" r="2" fill="rgb(0,255,0)"/><circle cx="408.58585858585855" cy="50.15371092292344" r="2" fill="rgb(0,255,0)"/><circle cx="413.6363636363636" cy="50.1259360233355" r="2" fill="rgb(0,255,0)"/><circle cx="418.68686868686865" cy="50.1259360233355" r="2" fill="rgb(0,255,0)"/><circle cx="423.73737373737373" cy="50.1259360233355" r="2" fill="rgb(0,255,0)"/><circle cx="428.7878787878788" cy="50.1259360233355" r="2" fill="rgb(0,255,0)"/><circle cx="433.83838383838383" cy="50.1259360233355" r="2" fill="rgb(0,255,0)"/><circle cx="438.8888888888889" cy="50.1259360233355" r="2" fill="rgb(0,255,0)"/><circle cx="443.93939393939394" cy="50.1259360233355" r="2" fill="rgb(0,255,0)"/><circle cx="448.989898989899" cy="50.155124107931556" r="2" fill="rgb(0,255,0)"/><circle cx="454.04040404040404" cy="50.1259360233355" r="2" fill="rgb(0,255,0)"/><circle cx="459.0909090909091" cy="50.15507302506387" r="2" fill="rgb(0,255,0)"/><circle cx="464.14141414141415" cy="50.1259360233355" r="2" fill="rgb(0,255,0)"/><circle cx="469.19191919191917" cy="50.1259360233355" r="2" fill="rgb(0,255,0)"/><circle cx="474.24242424242425" cy="50.16423564576087" r="2" fill="rgb(0,255,0)"/><circle cx="479.2929292929293" cy="50.1259360233355" r="2" fill="rgb(0,255,0)"/><circle cx="484.34343434343435" cy="50.1259360233355" r="2" fill="rgb(0,255,0)"/><circle cx="489.3939393939394" cy="50.1259360233355" r="2" fill="rgb(0,255,0)"/><circle cx="494.4444444444444" cy="50.05972482244283" r="2" fill="rgb(0,255,0)"/><circle cx="499.4949494949495" cy="50.11528444120802" r="2" fill="rgb(0,255,0)"/><circle cx="504.5454545454545" cy="50.1259360233355" r="2" fill="rgb(0,255,0)"/><circle cx="509.59595959595964" cy="50.1259360233355" r="2" fill="rgb(0,255,0)"/><circle cx="514.6464646464647" cy="50.1259360233355" r="2" fill="rgb(0,255,0)"/><circle cx="519.6969696969697" cy="50.1259360233355" r="2" fill="rgb(0,255,0)"/><circle cx="524.7474747474748" cy="50.1259360233355" r="2" fill="rgb(0,255,0)"/><circle cx="529.7979797979798" cy="50.1259360233355" r="2" fill="rgb(0,255,0)"/><circle cx="534.8484848484849" cy="50.1259360233355" r="2" fill="rgb(0,255,0)"/><circle cx="539.8989898989898" cy="50.11528444120802" r="2" fill="rgb(0,255,0)"/><circle cx="544.9494949494949" cy="50.11528444120802" r="2" fill="rgb(0,255,0)"/><circle cx="550.0" cy="50.0" r="2" fill="rgb(0,255,0)"/><text x="350.0" y="20.0" text-anchor="middle" fill="rgb(0,0,0)" font-size="20.0">GA Demo</text><text x="350.0" y="575.0" text-anchor="middle" fill="rgb(0,0,0)" font-size="12.0">generation</text><text transform="rotate(-90.0 20.0 300.0)" x="20.0" y="300.0" text-anchor="middle" fill="rgb(0,0,0)" font-size="12.0">fitness</text><text x="620" y="62" fill="rgb(0,0,0)" font-size="12">min</text><text x="620" y="74" fill="rgb(0,0,255)" font-size="12">ave</text><text x="620" y="86" fill="rgb(0,255,0)" font-size="12">max</text>
      Sorry, your browser does not support inline SVG.
    </svg>