<?xml version='1.0' encoding='UTF-8'?>
<svg version="1.1" width="700.0" height="600.0" onload="init(evt)" xmlns="http://www.w3.org/2000/svg">
      <style>.caption {
  font-size: 14px;
  font-family: Georgia, serif;
}
</style>
      <script type="text/ecmascript"><![CDATA[
function init(evt) {
  if ( window.svgDocument == null ) {
    svgDocument = evt.target.ownerDocument;
  }
}

function RectHover(evt, i, c) {
  rect = svgDocument.getElementById('rect' + i);
  if( c != null ) {
    rect.setAttributeNS(null, "fill", c)  
  }
  tooltiptext = svgDocument.getElementById('tooltiptext' + i);
  tooltipbg = svgDocument.getElementById('tooltipbg' + i);
  if( tooltipbg != null) {
    tbb = tooltiptext.getBBox();
    tooltipbg.setAttributeNS(null, "width", tbb.width);
    tooltipbg.setAttributeNS(null, "height", tbb.height);
    tooltipbg.setAttributeNS(null, "x", tbb.x);
    tooltipbg.setAttributeNS(null, "y", tbb.y);
    tooltipbg.setAttributeNS(null, "visibility", "visible");
  }
  tooltiptext.setAttributeNS(null,"visibility","visible");
}

function RectUnhover(evt, i, c) {
  rect = svgDocument.getElementById('rect' + i);
  if( c != null ) {
    rect.setAttributeNS(null, "fill", c)  
  }
  tooltiptext = svgDocument.getElementById('tooltiptext' + i);
  tooltiptext.setAttributeNS(null,"visibility","hidden");
  tooltipbg = svgDocument.getElementById('tooltipbg' + i);
  if( tooltipbg != null ) {
    tooltipbg.setAttributeNS(null,"visibility","hidden");
  }
}
]]></script>
      <line x1="50.0" y1="550.0" x2="550.0" y2="550.0" stroke="rgb(0,0,0)" stroke-width="1"/><line x1="50.0" y1="550.0" x2="50.0" y2="50.0" stroke="rgb(0,0,0)" stroke-width="1"/><line x1="50.0" y1="550.0" x2="50.0" y2="50.0" stroke="rgb(192,192,192)" stroke-width="1"/><line x1="50.0" y1="548.0" x2="50.0" y2="552.0" stroke="rgb(192,192,192)" stroke-width="1"/><text text-anchor="middle" alignment-baseline="hanging" x="50.0" y="553.0" font-size="12.0">0</text><line x1="100.5050505050505" y1="550.0" x2="100.5050505050505" y2="50.0" stroke="rgb(192,192,192)" stroke-width="1"/><line x1="100.5050505050505" y1="548.0" x2="100.5050505050505" y2="552.0" stroke="rgb(192,192,192)" stroke-width="1"/><text text-anchor="middle" alignment-baseline="hanging" x="100.5050505050505" y="553.0" font-size="12.0">10</text><line x1="151.010101010101" y1="550.0" x2="151.010101010101" y2="50.0" stroke="rgb(192,192,192)" stroke-width="1"/><line x1="151.010101010101" y1="548.0" x2="151.010101010101" y2="552.0" stroke="rgb(192,192,192)" stroke-width="1"/><text text-anchor="middle" alignment-baseline="hanging" x="151.010101010101" y="553.0" font-size="12.0">20</text><line x1="201.51515151515153" y1="550.0" x2="201.51515151515153" y2="50.0" stroke="rgb(192,192,192)" stroke-width="1"/><line x1="201.51515151515153" y1="548.0" x2="201.51515151515153" y2="552.0" stroke="rgb(192,192,192)" stroke-width="1"/><text text-anchor="middle" alignment-baseline="hanging" x="201.51515151515153" y="553.0" font-size="12.0">30</text><line x1="252.02020202020202" y1="550.0" x2="252.02020202020202" y2="50.0" stroke="rgb(192,192,192)" stroke-width="1"/><line x1="252.02020202020202" y1="548.0" x2="252.02020202020202" y2="552.0" stroke="rgb(192,192,192)" stroke-width="1"/><text text-anchor="middle" alignment-baseline="hanging" x="252.02020202020202" y="553.0" font-size="12.0">40</text><line x1="302.52525252525254" y1="550.0" x2="302.52525252525254" y2="50.0" stroke="rgb(192,192,192)" stroke-width="1"/><line x1="302.52525252525254" y1="548.0" x2="302.52525252525254" y2="552.0" stroke="rgb(192,192,192)" stroke-width="1"/><text text-anchor="middle" alignment-baseline="hanging" x="302.52525252525254" y="553.0" font-size="12.0">50</text><line x1="353.03030303030306" y1="550.0" x2="353.03030303030306" y2="50.0" stroke="rgb(192,192,192)" stroke-width="1"/><line x1="353.03030303030306" y1="548.0" x2="353.03030303030306" y2="552.0" stroke="rgb(192,192,192)" stroke-width="1"/><text text-anchor="middle" alignment-baseline="hanging" x="353.03030303030306" y="553.0" font-size="12.0">60</text><line x1="403.5353535353535" y1="550.0" x2="403.5353535353535" y2="50.0" stroke="rgb(192,192,192)" stroke-width="1"/><line x1="403.5353535353535" y1="548.0" x2="403.5353535353535" y2="552.0" stroke="rgb(192,192,192)" stroke-width="1"/><text text-anchor="middle" alignment-baseline="hanging" x="403.5353535353535" y="553.0" font-size="12.0">70</text><line x1="454.04040404040404" y1="550.0" x2="454.04040404040404" y2="50.0" stroke="rgb(192,192,192)" stroke-width="1"/><line x1="454.04040404040404" y1="548.0" x2="454.04040404040404" y2="552.0" stroke="rgb(192,192,192)" stroke-width="1"/><text text-anchor="middle" alignment-baseline="hanging" x="454.04040404040404" y="553.0" font-size="12.0">80</text><line x1="504.5454545454545" y1="550.0" x2="504.5454545454545" y2="50.0" stroke="rgb(192,192,192)" stroke-width="1"/><line x1="504.5454545454545" y1="548.0" x2="504.5454545454545" y2="552.0" stroke="rgb(192,192,192)" stroke-width="1"/><text text-anchor="middle" alignment-baseline="hanging" x="504.5454545454545" y="553.0" font-size="12.0">90</text><line x1="50.0" y1="550.0" x2="550.0" y2="550.0" stroke="rgb(192,192,192)" stroke-width="1"/><text text-anchor="end" alignment-baseline="middle" x="45.0" y="550.0" font-size="12.0">0.0</text><line x1="48.0" y1="550.0" x2="52.0" y2="550.0" stroke="rgb(192,192,192)" stroke-width="1"/><line x1="50.0" y1="367.6446119777442" x2="550.0" y2="367.6446119777442" stroke="rgb(192,192,192)" stroke-width="1"/><text text-anchor="end" alignment-baseline="middle" x="45.0" y="367.6446119777442" font-size="12.0">1000.0</text><line x1="48.0" y1="367.6446119777442" x2="52.0" y2="367.6446119777442" stroke="rgb(192,192,192)" stroke-width="1"/><line x1="50.0" y1="185.2892239554884" x2="550.0" y2="185.2892239554884" stroke="rgb(192,192,192)" stroke-width="1"/><text text-anchor="end" alignment-baseline="middle" x="45.0" y="185.2892239554884" font-size="12.0">2000.0</text><line x1="48.0" y1="185.2892239554884" x2="52.0" y2="185.2892239554884" stroke="rgb(192,192,192)" stroke-width="1"/><polyline points="50.0,369.290344495766 55.05050505050505,422.227020190713 60.101010101010104,372.2527296183654 65.15151515151516,373.28527805236405 70.20202020202021,410.0864158986337 75.25252525252526,415.011241738809 80.30303030303031,414.25793893085745 85.35353535353535,383.6076033841201 90.40404040404042,409.38611609279013 95.45454545454545,409.13770175598637 100.5050505050505,405.8758207271361 105.55555555555554,407.0064144649677 110.60606060606061,407.6031623592873 115.65656565656566,409.78006699165 120.7070707070707,182.7683751567153 125.75757575757576,416.789763446448 130.80808080808083,363.1841145158639 135.85858585858585,252.89367186352433 140.9090909090909,386.5193808162954 145.95959595959596,388.96562829238974 151.010101010101,249.91531659222528 156.06060606060606,171.37186085923935 161.1111111111111,336.18964524498404 166.16161616161617,393.66448432259057 171.21212121212122,394.47004134498945 176.26262626262627,361.78422488599915 181.31313131313132,347.45781667718995 186.36363636363635,313.44981698712843 191.4141414141414,404.7173608261211 196.46464646464648,368.1368116049347 201.51515151515153,395.0790004410612 206.56565656565658,395.00951569757444 211.61616161616163,312.80437867141484 216.66666666666666,396.05914565754256 221.7171717171717,313.5435323376961 226.76767676767676,313.6199327765838 231.8181818181818,349.3938596843967 236.86868686868686,342.98177362345916 241.91919191919192,342.5027933711565 246.96969696969697,308.24486596920974 252.02020202020202,307.54746142683445 257.07070707070704,307.464844061874 262.1212121212121,307.7707668554143 267.1717171717172,392.0736227335509 272.2222222222222,303.59594470045533 277.27272727272725,350.129691605821 282.32323232323233,398.68405443552945 287.3737373737374,398.78189347723867 292.42424242424244,187.45501239028715 297.47474747474746,353.64166800489545 302.52525252525254,353.64166800489545 307.57575757575756,375.93193439920697 312.62626262626264,316.48522642916726 317.67676767676767,367.5004393624132 322.7272727272727,226.82252974116102 327.77777777777777,348.78418246807746 332.8282828282828,405.3800339434971 337.8787878787879,244.82162681137584 342.92929292929296,282.45383698668377 347.979797979798,375.3532858026447 353.03030303030306,306.78527189487824 358.0808080808081,373.1059351633988 363.13131313131316,260.87829746074334 368.1818181818182,401.3953523057951 373.23232323232327,399.18767883556995 378.2828282828283,399.18640838224064 383.3333333333333,410.67610710352653 388.3838383838384,410.5831463633578 393.4343434343434,313.43995406007446 398.4848484848485,376.8974532963998 403.5353535353535,409.39371787150947 408.58585858585855,409.38620650869893 413.6363636363636,395.90362763237397 418.68686868686865,412.70197305690107 423.73737373737373,394.7066571478152 428.7878787878788,406.35545117246164 433.83838383838383,406.60531538109797 438.8888888888889,354.55906058121377 443.93939393939394,354.80918071428505 448.989898989899,366.4508456600697 454.04040404040404,366.15060862748555 459.0909090909091,392.48976616995645 464.14141414141415,392.39784831081596 469.19191919191917,389.9635225650213 474.24242424242425,365.8250421339856 479.2929292929293,402.19992463156484 484.34343434343435,283.34482652762387 489.3939393939394,287.0378603179149 494.4444444444444,397.18576636538603 499.4949494949495,383.0761001189079 504.5454545454545,384.1032713628522 509.59595959595964,379.59451623067264 514.6464646464647,379.59451623067264 519.6969696969697,152.72611710071408 524.7474747474748,281.3836713398417 529.7979797979798,363.2235482850246 534.8484848484849,364.14987213311224 539.8989898989898,275.5528139761049 544.9494949494949,234.77951109760426 550.0,382.3255046452652" fill="none" stroke="rgb(0,0,0)" stroke-width="1"/><circle cx="50.0" cy="369.290344495766" r="2" fill="rgb(0,0,0)"/><circle cx="55.05050505050505" cy="422.227020190713" r="2" fill="rgb(0,0,0)"/><circle cx="60.101010101010104" cy="372.2527296183654" r="2" fill="rgb(0,0,0)"/><circle cx="65.15151515151516" cy="373.28527805236405" r="2" fill="rgb(0,0,0)"/><circle cx="70.20202020202021" cy="410.0864158986337" r="2" fill="rgb(0,0,0)"/><circle cx="75.25252525252526" cy="415.011241738809" r="2" fill="rgb(0,0,0)"/><circle cx="80.30303030303031" cy="414.25793893085745" r="2" fill="rgb(0,0,0)"/><circle cx="85.35353535353535" cy="383.6076033841201" r="2" fill="rgb(0,0,0)"/><circle cx="90.40404040404042" cy="409.38611609279013" r="2" fill="rgb(0,0,0)"/><circle cx="95.45454545454545" cy="409.13770175598637" r="2" fill="rgb(0,0,0)"/><circle cx="100.5050505050505" cy="405.8758207271361" r="2" fill="rgb(0,0,0)"/><circle cx="105.55555555555554" cy="407.0064144649677" r="2" fill="rgb(0,0,0)"/><circle cx="110.60606060606061" cy="407.6031623592873" r="2" fill="rgb(0,0,0)"/><circle cx="115.65656565656566" cy="409.78006699165" r="2" fill="rgb(0,0,0)"/><circle cx="120.7070707070707" cy="182.7683751567153" r="2" fill="rgb(0,0,0)"/><circle cx="125.75757575757576" cy="416.789763446448" r="2" fill="rgb(0,0,0)"/><circle cx="130.80808080808083" cy="363.1841145158639" r="2" fill="rgb(0,0,0)"/><circle cx="135.85858585858585" cy="252.89367186352433" r="2" fill="rgb(0,0,0)"/><circle cx="140.9090909090909" cy="386.5193808162954" r="2" fill="rgb(0,0,0)"/><circle cx="145.95959595959596" cy="388.96562829238974" r="2" fill="rgb(0,0,0)"/><circle cx="151.010101010101" cy="249.91531659222528" r="2" fill="rgb(0,0,0)"/><circle cx="156.06060606060606" cy="171.37186085923935" r="2" fill="rgb(0,0,0)"/><circle cx="161.1111111111111" cy="336.18964524498404" r="2" fill="rgb(0,0,0)"/><circle cx="166.16161616161617" cy="393.66448432259057" r="2" fill="rgb(0,0,0)"/><circle cx="171.21212121212122" cy="394.47004134498945" r="2" fill="rgb(0,0,0)"/><circle cx="176.26262626262627" cy="361.78422488599915" r="2" fill="rgb(0,0,0)"/><circle cx="181.31313131313132" cy="347.45781667718995" r="2" fill="rgb(0,0,0)"/><circle cx="186.36363636363635" cy="313.44981698712843" r="2" fill="rgb(0,0,0)"/><circle cx="191.4141414141414" cy="404.7173608261211" r="2" fill="rgb(0,0,0)"/><circle cx="196.46464646464648" cy="368.1368116049347" r="2" fill="rgb(0,0,0)"/><circle cx="201.51515151515153" cy="395.0790004410612" r="2" fill="rgb(0,0,0)"/><circle cx="206.56565656565658" cy="395.00951569757444" r="2" fill="rgb(0,0,0)"/><circle cx="211.61616161616163" cy="312.80437867141484" r="2" fill="rgb(0,0,0)"/><circle cx="216.66666666666666" cy="396.05914565754256" r="2" fill="rgb(0,0,0)"/><circle cx="221.7171717171717" cy="313.5435323376961" r="2" fill="rgb(0,0,0)"/><circle cx="226.76767676767676" cy="313.6199327765838" r="2" fill="rgb(0,0,0)"/><circle cx="231.8181818181818" cy="349.3938596843967" r="2" fill="rgb(0,0,0)"/><circle cx="236.86868686868686" cy="342.98177362345916" r="2" fill="rgb(0,0,0)"/><circle cx="241.91919191919192" cy="342.5027933711565" r="2" fill="rgb(0,0,0)"/><circle cx="246.96969696969697" cy="308.24486596920974" r="2" fill="rgb(0,0,0)"/><circle cx="252.02020202020202" cy="307.54746142683445" r="2" fill="rgb(0,0,0)"/><circle cx="257.07070707070704" cy="307.464844061874" r="2" fill="rgb(0,0,0)"/><circle cx="262.1212121212121" cy="307.7707668554143" r="2" fill="rgb(0,0,0)"/><circle cx="267.1717171717172" cy="392.0736227335509" r="2" fill="rgb(0,0,0)"/><circle cx="272.2222222222222" cy="303.59594470045533" r="2" fill="rgb(0,0,0)"/><circle cx="277.27272727272725" cy="350.129691605821" r="2" fill="rgb(0,0,0)"/><circle cx="282.32323232323233" cy="398.68405443552945" r="2" fill="rgb(0,0,0)"/><circle cx="287.3737373737374" cy="398.78189347723867" r="2" fill="rgb(0,0,0)"/><circle cx="292.42424242424244" cy="187.45501239028715" r="2" fill="rgb(0,0,0)"/><circle cx="297.47474747474746" cy="353.64166800489545" r="2" fill="rgb(0,0,0)"/><circle cx="302.52525252525254" cy="353.64166800489545" r="2" fill="rgb(0,0,0)"/><circle cx="307.57575757575756" cy="375.93193439920697" r="2" fill="rgb(0,0,0)"/><circle cx="312.62626262626264" cy="316.48522642916726" r="2" fill="rgb(0,0,0)"/><circle cx="317.67676767676767" cy="367.5004393624132" r="2" fill="rgb(0,0,0)"/><circle cx="322.7272727272727" cy="226.82252974116102" r="2" fill="rgb(0,0,0)"/><circle cx="327.77777777777777" cy="348.78418246807746" r="2" fill="rgb(0,0,0)"/><circle cx="332.8282828282828" cy="405.3800339434971" r="2" fill="rgb(0,0,0)"/><circle cx="337.8787878787879" cy="244.82162681137584" r="2" fill="rgb(0,0,0)"/><circle cx="342.92929292929296" cy="282.45383698668377" r="2" fill="rgb(0,0,0)"/><circle cx="347.979797979798" cy="375.3532858026447" r="2" fill="rgb(0,0,0)"/><circle cx="353.03030303030306" cy="306.78527189487824" r="2" fill="rgb(0,0,0)"/><circle cx="358.0808080808081" cy="373.1059351633988" r="2" fill="rgb(0,0,0)"/><circle cx="363.13131313131316" cy="260.87829746074334" r="2" fill="rgb(0,0,0)"/><circle cx="368.1818181818182" cy="401.3953523057951" r="2" fill="rgb(0,0,0)"/><circle cx="373.23232323232327" cy="399.18767883556995" r="2" fill="rgb(0,0,0)"/><circle cx="378.2828282828283" cy="399.18640838224064" r="2" fill="rgb(0,0,0)"/><circle cx="383.3333333333333" cy="410.67610710352653" r="2" fill="rgb(0,0,0)"/><circle cx="388.3838383838384" cy="410.5831463633578" r="2" fill="rgb(0,0,0)"/><circle cx="393.4343434343434" cy="313.43995406007446" r="2" fill="rgb(0,0,0)"/><circle cx="398.4848484848485" cy="376.8974532963998" r="2" fill="rgb(0,0,0)"/><circle cx="403.5353535353535" cy="409.39371787150947" r="2" fill="rgb(0,0,0)"/><circle cx="408.58585858585855" cy="409.38620650869893" r="2" fill="rgb(0,0,0)"/><circle cx="413.6363636363636" cy="395.90362763237397" r="2" fill="rgb(0,0,0)"/><circle cx="418.68686868686865" cy="412.70197305690107" r="2" fill="rgb(0,0,0)"/><circle cx="423.73737373737373" cy="394.7066571478152" r="2" fill="rgb(0,0,0)"/><circle cx="428.7878787878788" cy="406.35545117246164" r="2" fill="rgb(0,0,0)"/><circle cx="433.83838383838383" cy="406.60531538109797" r="2" fill="rgb(0,0,0)"/><circle cx="438.8888888888889" cy="354.55906058121377" r="2" fill="rgb(0,0,0)"/><circle cx="443.93939393939394" cy="354.80918071428505" r="2" fill="rgb(0,0,0)"/><circle cx="448.989898989899" cy="366.4508456600697" r="2" fill="rgb(0,0,0)"/><circle cx="454.04040404040404" cy="366.15060862748555" r="2" fill="rgb(0,0,0)"/><circle cx="459.0909090909091" cy="392.48976616995645" r="2" fill="rgb(0,0,0)"/><circle cx="464.14141414141415" cy="392.39784831081596" r="2" fill="rgb(0,0,0)"/><circle cx="469.19191919191917" cy="389.9635225650213" r="2" fill="rgb(0,0,0)"/><circle cx="474.24242424242425" cy="365.8250421339856" r="2" fill="rgb(0,0,0)"/><circle cx="479.2929292929293" cy="402.19992463156484" r="2" fill="rgb(0,0,0)"/><circle cx="484.34343434343435" cy="283.34482652762387" r="2" fill="rgb(0,0,0)"/><circle cx="489.3939393939394" cy="287.0378603179149" r="2" fill="rgb(0,0,0)"/><circle cx="494.4444444444444" cy="397.18576636538603" r="2" fill="rgb(0,0,0)"/><circle cx="499.4949494949495" cy="383.0761001189079" r="2" fill="rgb(0,0,0)"/><circle cx="504.5454545454545" cy="384.1032713628522" r="2" fill="rgb(0,0,0)"/><circle cx="509.59595959595964" cy="379.59451623067264" r="2" fill="rgb(0,0,0)"/><circle cx="514.6464646464647" cy="379.59451623067264" r="2" fill="rgb(0,0,0)"/><circle cx="519.6969696969697" cy="152.72611710071408" r="2" fill="rgb(0,0,0)"/><circle cx="524.7474747474748" cy="281.3836713398417" r="2" fill="rgb(0,0,0)"/><circle cx="529.7979797979798" cy="363.2235482850246" r="2" fill="rgb(0,0,0)"/><circle cx="534.8484848484849" cy="364.14987213311224" r="2" fill="rgb(0,0,0)"/><circle cx="539.8989898989898" cy="275.5528139761049" r="2" fill="rgb(0,0,0)"/><circle cx="544.9494949494949" cy="234.77951109760426" r="2" fill="rgb(0,0,0)"/><circle cx="550.0" cy="382.3255046452652" r="2" fill="rgb(0,0,0)"/><polyline points="50.0,211.0366112485376 55.05050505050505,187.46842692223908 60.101010101010104,164.94159316596932 65.15151515151516,142.40904094641218 70.20202020202021,147.46585229882652 75.25252525252526,128.89442102165862 80.30303030303031,125.71196577784292 85.35353535353535,110.63801929412767 90.40404040404042,102.852181265058 95.45454545454545,90.78619908888669 100.5050505050505,84.73501548735112 105.55555555555554,82.16578382146196 110.60606060606061,85.05557589176038 115.65656565656566,83.73084222754795 120.7070707070707,67.24518163230522 125.75757575757576,70.1459446152711 130.80808080808083,71.99198190494593 135.85858585858585,62.64647045612685 140.9090909090909,63.57311370273686 145.95959595959596,68.08867504551358 151.010101010101,62.675215129603544 156.06060606060606,58.16527082530331 161.1111111111111,62.924132432813906 166.16161616161617,66.15357821777087 171.21212121212122,72.87682363097423 176.26262626262627,67.86798813935923 181.31313131313132,65.15886452686766 186.36363636363635,62.25106733397632 191.4141414141414,64.91796330894698 196.46464646464648,74.22557600368214 201.51515151515153,66.53834034315537 206.56565656565658,65.4392822673019 211.61616161616163,62.41341238652711 216.66666666666666,72.54541439450259 221.7171717171717,68.15437282906771 226.76767676767676,63.90682720721077 231.8181818181818,65.98009651750215 236.86868686868686,74.49216129422564 241.91919191919192,72.23454087793465 246.96969696969697,75.71030511923362 252.02020202020202,66.69412756662189 257.07070707070704,66.88795276853403 262.1212121212121,62.788348413539666 267.1717171717172,67.34437501111614 272.2222222222222,57.94973803682143 277.27272727272725,64.01332513764385 282.32323232323233,66.68609013153116 287.3737373737374,71.0714752670583 292.42424242424244,60.01833538579075 297.47474747474746,60.10457869594188 302.52525252525254,59.78318411095262 307.57575757575756,62.25726063497916 312.62626262626264,62.961416281208926 317.67676767676767,65.31557255558982 322.7272727272727,56.6668266725668 327.77777777777777,62.10156438568106 332.8282828282828,60.70055290810325 337.8787878787879,56.12855567889102 342.92929292929296,60.09868270457042 347.979797979798,69.30059911820024 353.03030303030306,65.75760845589724 358.0808080808081,73.00732846353333 363.13131313131316,63.17897777439498 368.1818181818182,73.14645139328513 373.23232323232327,69.2868321084224 378.2828282828283,65.97424423827698 383.3333333333333,72.34574904823978 388.3838383838384,75.20976794691552 393.4343434343434,65.40085047423935 398.4848484848485,72.4342388755532 403.5353535353535,73.73047459232077 408.58585858585855,72.06054768616417 413.6363636363636,67.58176403104119 418.68686868686865,74.55574308963759 423.73737373737373,71.64781423209155 428.7878787878788,63.05635895224219 433.83838383838383,71.22095727373068 438.8888888888889,68.8847007849539 443.93939393939394,69.99234516393778 448.989898989899,71.22696382341132 454.04040404040404,70.36164856937512 459.0909090909091,77.12246555676342 464.14141414141415,70.28150776641621 469.19191919191917,64.88529241743225 474.24242424242425,61.50377952105339 479.2929292929293,61.6737597488962 484.34343434343435,56.43397259545827 489.3939393939394,56.40528931510306 494.4444444444444,73.85009322399316 499.4949494949495,65.46629642685093 504.5454545454545,64.36295690460099 509.59595959595964,62.95424470240164 514.6464646464647,66.56079192757795 519.6969696969697,55.57090240472189 524.7474747474748,59.64633941247996 529.7979797979798,66.45407854793984 534.8484848484849,74.8681616091348 539.8989898989898,59.200216550659036 544.9494949494949,57.96500474056694 550.0,63.50620777877418" fill="none" stroke="rgb(0,0,255)" stroke-width="1"/><circle cx="50.0" cy="211.0366112485376" r="2" fill="rgb(0,0,255)"/><circle cx="55.05050505050505" cy="187.46842692223908" r="2" fill="rgb(0,0,255)"/><circle cx="60.101010101010104" cy="164.94159316596932" r="2" fill="rgb(0,0,255)"/><circle cx="65.15151515151516" cy="142.40904094641218" r="2" fill="rgb(0,0,255)"/><circle cx="70.20202020202021" cy="147.46585229882652" r="2" fill="rgb(0,0,255)"/><circle cx="75.25252525252526" cy="128.89442102165862" r="2" fill="rgb(0,0,255)"/><circle cx="80.30303030303031" cy="125.71196577784292" r="2" fill="rgb(0,0,255)"/><circle cx="85.35353535353535" cy="110.63801929412767" r="2" fill="rgb(0,0,255)"/><circle cx="90.40404040404042" cy="102.852181265058" r="2" fill="rgb(0,0,255)"/><circle cx="95.45454545454545" cy="90.78619908888669" r="2" fill="rgb(0,0,255)"/><circle cx="100.5050505050505" cy="84.73501548735112" r="2" fill="rgb(0,0,255)"/><circle cx="105.55555555555554" cy="82.16578382146196" r="2" fill="rgb(0,0,255)"/><circle cx="110.60606060606061" cy="85.05557589176038" r="2" fill="rgb(0,0,255)"/><circle cx="115.65656565656566" cy="83.73084222754795" r="2" fill="rgb(0,0,255)"/><circle cx="120.7070707070707" cy="67.24518163230522" r="2" fill="rgb(0,0,255)"/><circle cx="125.75757575757576" cy="70.1459446152711" r="2" fill="rgb(0,0,255)"/><circle cx="130.80808080808083" cy="71.99198190494593" r="2" fill="rgb(0,0,255)"/><circle cx="135.85858585858585" cy="62.64647045612685" r="2" fill="rgb(0,0,255)"/><circle cx="140.9090909090909" cy="63.57311370273686" r="2" fill="rgb(0,0,255)"/><circle cx="145.95959595959596" cy="68.08867504551358" r="2" fill="rgb(0,0,255)"/><circle cx="151.010101010101" cy="62.675215129603544" r="2" fill="rgb(0,0,255)"/><circle cx="156.06060606060606" cy="58.16527082530331" r="2" fill="rgb(0,0,255)"/><circle cx="161.1111111111111" cy="62.924132432813906" r="2" fill="rgb(0,0,255)"/><circle cx="166.16161616161617" cy="66.15357821777087" r="2" fill="rgb(0,0,255)"/><circle cx="171.21212121212122" cy="72.87682363097423" r="2" fill="rgb(0,0,255)"/><circle cx="176.26262626262627" cy="67.86798813935923" r="2" fill="rgb(0,0,255)"/><circle cx="181.31313131313132" cy="65.15886452686766" r="2" fill="rgb(0,0,255)"/><circle cx="186.36363636363635" cy="62.25106733397632" r="2" fill="rgb(0,0,255)"/><circle cx="191.4141414141414" cy="64.91796330894698" r="2" fill="rgb(0,0,255)"/><circle cx="196.46464646464648" cy="74.22557600368214" r="2" fill="rgb(0,0,255)"/><circle cx="201.51515151515153" cy="66.53834034315537" r="2" fill="rgb(0,0,255)"/><circle cx="206.56565656565658" cy="65.4392822673019" r="2" fill="rgb(0,0,255)"/><circle cx="211.61616161616163" cy="62.41341238652711" r="2" fill="rgb(0,0,255)"/><circle cx="216.66666666666666" cy="72.54541439450259" r="2" fill="rgb(0,0,255)"/><circle cx="221.7171717171717" cy="68.15437282906771" r="2" fill="rgb(0,0,255)"/><circle cx="226.76767676767676" cy="63.90682720721077" r="2" fill="rgb(0,0,255)"/><circle cx="231.8181818181818" cy="65.98009651750215" r="2" fill="rgb(0,0,255)"/><circle cx="236.86868686868686" cy="74.49216129422564" r="2" fill="rgb(0,0,255)"/><circle cx="241.91919191919192" cy="72.23454087793465" r="2" fill="rgb(0,0,255)"/><circle cx="246.96969696969697" cy="75.71030511923362" r="2" fill="rgb(0,0,255)"/><circle cx="252.02020202020202" cy="66.69412756662189" r="2" fill="rgb(0,0,255)"/><circle cx="257.07070707070704" cy="66.88795276853403" r="2" fill="rgb(0,0,255)"/><circle cx="262.1212121212121" cy="62.788348413539666" r="2" fill="rgb(0,0,255)"/><circle cx="267.1717171717172" cy="67.34437501111614" r="2" fill="rgb(0,0,255)"/><circle cx="272.2222222222222" cy="57.94973803682143" r="2" fill="rgb(0,0,255)"/><circle cx="277.27272727272725" cy="64.01332513764385" r="2" fill="rgb(0,0,255)"/><circle cx="282.32323232323233" cy="66.68609013153116" r="2" fill="rgb(0,0,255)"/><circle cx="287.3737373737374" cy="71.0714752670583" r="2" fill="rgb(0,0,255)"/><circle cx="292.42424242424244" cy="60.01833538579075" r="2" fill="rgb(0,0,255)"/><circle cx="297.47474747474746" cy="60.10457869594188" r="2" fill="rgb(0,0,255)"/><circle cx="302.52525252525254" cy="59.78318411095262" r="2" fill="rgb(0,0,255)"/><circle cx="307.57575757575756" cy="62.25726063497916" r="2" fill="rgb(0,0,255)"/><circle cx="312.62626262626264" cy="62.961416281208926" r="2" fill="rgb(0,0,255)"/><circle cx="317.67676767676767" cy="65.31557255558982" r="2" fill="rgb(0,0,255)"/><circle cx="322.7272727272727" cy="56.6668266725668" r="2" fill="rgb(0,0,255)"/><circle cx="327.77777777777777" cy="62.10156438568106" r="2" fill="rgb(0,0,255)"/><circle cx="332.8282828282828" cy="60.70055290810325" r="2" fill="rgb(0,0,255)"/><circle cx="337.8787878787879" cy="56.12855567889102" r="2" fill="rgb(0,0,255)"/><circle cx="342.92929292929296" cy="60.09868270457042" r="2" fill="rgb(0,0,255)"/><circle cx="347.979797979798" cy="69.30059911820024" r="2" fill="rgb(0,0,255)"/><circle cx="353.03030303030306" cy="65.75760845589724" r="2" fill="rgb(0,0,255)"/><circle cx="358.0808080808081" cy="73.00732846353333" r="2" fill="rgb(0,0,255)"/><circle cx="363.13131313131316" cy="63.17897777439498" r="2" fill="rgb(0,0,255)"/><circle cx="368.1818181818182" cy="73.14645139328513" r="2" fill="rgb(0,0,255)"/><circle cx="373.23232323232327" cy="69.2868321084224" r="2" fill="rgb(0,0,255)"/><circle cx="378.2828282828283" cy="65.97424423827698" r="2" fill="rgb(0,0,255)"/><circle cx="383.3333333333333" cy="72.34574904823978" r="2" fill="rgb(0,0,255)"/><circle cx="388.3838383838384" cy="75.20976794691552" r="2" fill="rgb(0,0,255)"/><circle cx="393.4343434343434" cy="65.40085047423935" r="2" fill="rgb(0,0,255)"/><circle cx="398.4848484848485" cy="72.4342388755532" r="2" fill="rgb(0,0,255)"/><circle cx="403.5353535353535" cy="73.73047459232077" r="2" fill="rgb(0,0,255)"/><circle cx="408.58585858585855" cy="72.06054768616417" r="2" fill="rgb(0,0,255)"/><circle cx="413.6363636363636" cy="67.58176403104119" r="2" fill="rgb(0,0,255)"/><circle cx="418.68686868686865" cy="74.55574308963759" r="2" fill="rgb(0,0,255)"/><circle cx="423.73737373737373" cy="71.64781423209155" r="2" fill="rgb(0,0,255)"/><circle cx="428.7878787878788" cy="63.05635895224219" r="2" fill="rgb(0,0,255)"/><circle cx="433.83838383838383" cy="71.22095727373068" r="2" fill="rgb(0,0,255)"/><circle cx="438.8888888888889" cy="68.8847007849539" r="2" fill="rgb(0,0,255)"/><circle cx="443.93939393939394" cy="69.99234516393778" r="2" fill="rgb(0,0,255)"/><circle cx="448.989898989899" cy="71.22696382341132" r="2" fill="rgb(0,0,255)"/><circle cx="454.04040404040404" cy="70.36164856937512" r="2" fill="rgb(0,0,255)"/><circle cx="459.0909090909091" cy="77.12246555676342" r="2" fill="rgb(0,0,255)"/><circle cx="464.14141414141415" cy="70.28150776641621" r="2" fill="rgb(0,0,255)"/><circle cx="469.19191919191917" cy="64.88529241743225" r="2" fill="rgb(0,0,255)"/><circle cx="474.24242424242425" cy="61.50377952105339" r="2" fill="rgb(0,0,255)"/><circle cx="479.2929292929293" cy="61.6737597488962" r="2" fill="rgb(0,0,255)"/><circle cx="484.34343434343435" cy="56.43397259545827" r="2" fill="rgb(0,0,255)"/><circle cx="489.3939393939394" cy="56.40528931510306" r="2" fill="rgb(0,0,255)"/><circle cx="494.4444444444444" cy="73.85009322399316" r="2" fill="rgb(0,0,255)"/><circle cx="499.4949494949495" cy="65.46629642685093" r="2" fill="rgb(0,0,255)"/><circle cx="504.5454545454545" cy="64.36295690460099" r="2" fill="rgb(0,0,255)"/><circle cx="509.59595959595964" cy="62.95424470240164" r="2" fill="rgb(0,0,255)"/><circle cx="514.6464646464647" cy="66.56079192757795" r="2" fill="rgb(0,0,255)"/><circle cx="519.6969696969697" cy="55.57090240472189" r="2" fill="rgb(0,0,255)"/><circle cx="524.7474747474748" cy="59.64633941247996" r="2" fill="rgb(0,0,255)"/><circle cx="529.7979797979798" cy="66.45407854793984" r="2" fill="rgb(0,0,255)"/><circle cx="534.8484848484849" cy="74.8681616091348" r="2" fill="rgb(0,0,255)"/><circle cx="539.8989898989898" cy="59.200216550659036" r="2" fill="rgb(0,0,255)"/><circle cx="544.9494949494949" cy="57.96500474056694" r="2" fill="rgb(0,0,255)"/><circle cx="550.0" cy="63.50620777877418" r="2" fill="rgb(0,0,255)"/><polyline points="50.0,58.05760678015463 55.05050505050505,55.95764738372992 60.101010101010104,65.97534949736473 65.15151515151516,57.31425204321141 70.20202020202021,56.412043819490066 75.25252525252526,55.84497620865119 80.30303030303031,54.60138900022025 85.35353535353535,55.65779374419657 90.40404040404042,56.25922801465617 95.45454545454545,55.98591995677964 100.5050505050505,55.65069157731574 105.55555555555554,55.035221259470006 110.60606060606061,54.81295187083356 115.65656565656566,55.005293679502245 120.7070707070707,55.27265813066509 125.75757575757576,55.109779947384254 130.80808080808083,55.22691014073462 135.85858585858585,54.77293472823328 140.9090909090909,54.66459730300505 145.95959595959596,55.048434605913314 151.010101010101,54.421994937579086 156.06060606060606,54.2459392722796 161.1111111111111,54.354946950699116 166.16161616161617,54.1843057380766 171.21212121212122,54.16798378276388 176.26262626262627,54.32607763908578 181.31313131313132,54.37172500269753 186.36363636363635,54.51295447012865 191.4141414141414,54.482702385524135 196.46464646464648,54.442331090221046 201.51515151515153,54.41076903049458 206.56565656565658,54.06639294002525 211.61616161616163,54.00319013192836 216.66666666666666,54.18196781119502 221.7171717171717,54.055702915010215 226.76767676767676,54.12431012087427 231.8181818181818,53.84370541403882 236.86868686868686,53.81838732733394 241.91919191919192,53.73750168531984 246.96969696969697,53.68126281231969 252.02020202020202,53.68126281231969 257.07070707070704,53.68126281231969 262.1212121212121,53.81838732733394 267.1717171717172,53.68126281231969 272.2222222222222,53.68126281231969 277.27272727272725,53.75044069973188 282.32323232323233,53.68126281231969 287.3737373737374,53.75887294162999 292.42424242424244,53.67999235899026 297.47474747474746,53.61331618471769 302.52525252525254,53.67375144950921 307.57575757575756,53.67375144950921 312.62626262626264,53.67375144950921 317.67676767676767,53.67375144950921 322.7272727272727,53.63645454268374 327.77777777777777,53.67281931351664 332.8282828282828,53.67375144950921 337.8787878787879,51.633171907030544 342.92929292929296,51.50105709216132 347.979797979798,51.47127154814632 353.03030303030306,51.50105709216132 358.0808080808081,51.49978663883195 363.13131313131316,51.49978663883195 368.1818181818182,51.48338970960276 373.23232323232327,51.475878346792285 378.2828282828283,51.475878346792285 383.3333333333333,51.508568454971794 388.3838383838384,51.36655048178562 393.4343434343434,51.36655048178562 398.4848484848485,51.3644817865345 403.5353535353535,51.365280028456255 408.58585858585855,51.36655048178562 413.6363636363636,51.37072269601566 418.68686868686865,51.36655048178562 423.73737373737373,51.36655048178562 428.7878787878788,51.365280028456255 433.83838383838383,51.41313944576285 438.8888888888889,51.39673441203831 443.93939393939394,50.367631378022 448.989898989899,50.260913405873 454.04040404040404,50.23072947562031 459.0909090909091,50.31755463931955 464.14141414141415,50.3408905304878 469.19191919191917,50.29463603389729 474.24242424242425,50.22194765948046 479.2929292929293,50.2696952220129 484.34343434343435,50.22945902229094 489.3939393939394,50.234756040023115 494.4444444444444,50.145683718541534 499.4949494949495,50.0 504.5454545454545,50.00751136281053 509.59595959595964,50.12100017957863 514.6464646464647,50.12681745943587 519.6969696969697,50.06880001644885 524.7474747474748,50.06880001644885 529.7979797979798,50.06880001644885 534.8484848484849,50.11222039366561 539.8989898989898,50.065743284462485 544.9494949494949,50.12100017957863 550.0,50.12100017957863" fill="none" stroke="rgb(0,255,0)" stroke-width="1"/><circle cx="50.0" cy="58.05760678015463" r="2" fill="rgb(0,255,0)"/><circle cx="55.05050505050505" cy="55.95764738372992" r="2" fill="rgb(0,255,0)"/><circle cx="60.101010101010104" cy="65.97534949736473" r="2" fill="rgb(0,255,0)"/><circle cx="65.15151515151516" cy="57.31425204321141" r="2" fill="rgb(0,255,0)"/><circle cx="70.20202020202021" cy="56.412043819490066" r="2" fill="rgb(0,255,0)"/><circle cx="75.25252525252526" cy="55.84497620865119" r="2" fill="rgb(0,255,0)"/><circle cx="80.30303030303031" cy="54.60138900022025" r="2" fill="rgb(0,255,0)"/><circle cx="85.35353535353535" cy="55.65779374419657" r="2" fill="rgb(0,255,0)"/><circle cx="90.40404040404042" cy="56.25922801465617" r="2" fill="rgb(0,255,0)"/><circle cx="95.45454545454545" cy="55.98591995677964" r="2" fill="rgb(0,255,0)"/><circle cx="100.5050505050505" cy="55.65069157731574" r="2" fill="rgb(0,255,0)"/><circle cx="105.55555555555554" cy="55.035221259470006" r="2" fill="rgb(0,255,0)"/><circle cx="110.60606060606061" cy="54.81295187083356" r="2" fill="rgb(0,255,0)"/><circle cx="115.65656565656566" cy="55.005293679502245" r="2" fill="rgb(0,255,0)"/><circle cx="120.7070707070707" cy="55.27265813066509" r="2" fill="rgb(0,255,0)"/><circle cx="125.75757575757576" cy="55.109779947384254" r="2" fill="rgb(0,255,0)"/><circle cx="130.80808080808083" cy="55.22691014073462" r="2" fill="rgb(0,255,0)"/><circle cx="135.85858585858585" cy="54.77293472823328" r="2" fill="rgb(0,255,0)"/><circle cx="140.9090909090909" cy="54.66459730300505" r="2" fill="rgb(0,255,0)"/><circle cx="145.95959595959596" cy="55.048434605913314" r="2" fill="rgb(0,255,0)"/><circle cx="151.010101010101" cy="54.421994937579086" r="2" fill="rgb(0,255,0)"/><circle cx="156.06060606060606" cy="54.2459392722796" r="2" fill="rgb(0,255,0)"/><circle cx="161.1111111111111" cy="54.354946950699116" r="2" fill="rgb(0,255,0)"/><circle cx="166.16161616161617" cy="54.1843057380766" r="2" fill="rgb(0,255,0)"/><circle cx="171.21212121212122" cy="54.16798378276388" r="2" fill="rgb(0,255,0)"/><circle cx="176.26262626262627" cy="54.32607763908578" r="2" fill="rgb(0,255,0)"/><circle cx="181.31313131313132" cy="54.37172500269753" r="2" fill="rgb(0,255,0)"/><circle cx="186.36363636363635" cy="54.51295447012865" r="2" fill="rgb(0,255,0)"/><circle cx="191.4141414141414" cy="54.482702385524135" r="2" fill="rgb(0,255,0)"/><circle cx="196.46464646464648" cy="54.442331090221046" r="2" fill="rgb(0,255,0)"/><circle cx="201.51515151515153" cy="54.41076903049458" r="2" fill="rgb(0,255,0)"/><circle cx="206.56565656565658" cy="54.06639294002525" r="2" fill="rgb(0,255,0)"/><circle cx="211.61616161616163" cy="54.00319013192836" r="2" fill="rgb(0,255,0)"/><circle cx="216.66666666666666" cy="54.18196781119502" r="2" fill="rgb(0,255,0)"/><circle cx="221.7171717171717" cy="54.055702915010215" r="2" fill="rgb(0,255,0)"/><circle cx="226.76767676767676" cy="54.12431012087427" r="2" fill="rgb(0,255,0)"/><circle cx="231.8181818181818" cy="53.84370541403882" r="2" fill="rgb(0,255,0)"/><circle cx="236.86868686868686" cy="53.81838732733394" r="2" fill="rgb(0,255,0)"/><circle cx="241.91919191919192" cy="53.73750168531984" r="2" fill="rgb(0,255,0)"/><circle cx="246.96969696969697" cy="53.68126281231969" r="2" fill="rgb(0,255,0)"/><circle cx="252.02020202020202" cy="53.68126281231969" r="2" fill="rgb(0,255,0)"/><circle cx="257.07070707070704" cy="53.68126281231969" r="2" fill="rgb(0,255,0)"/><circle cx="262.1212121212121" cy="53.81838732733394" r="2" fill="rgb(0,255,0)"/><circle cx="267.1717171717172" cy="53.68126281231969" r="2" fill="rgb(0,255,0)"/><circle cx="272.2222222222222" cy="53.68126281231969" r="2" fill="rgb(0,255,0)"/><circle cx="277.27272727272725" cy="53.75044069973188" r="2" fill="rgb(0,255,0)"/><circle cx="282.32323232323233" cy="53.68126281231969" r="2" fill="rgb(0,255,0)"/><circle cx="287.3737373737374" cy="53.75887294162999" r="2" fill="rgb(0,255,0)"/><circle cx="292.42424242424244" cy="53.67999235899026" r="2" fill="rgb(0,255,0)"/><circle cx="297.47474747474746" cy="53.61331618471769" r="2" fill="rgb(0,255,0)"/><circle cx="302.52525252525254" cy="53.67375144950921" r="2" fill="rgb(0,255,0)"/><circle cx="307.57575757575756" cy="53.67375144950921" r="2" fill="rgb(0,255,0)"/><circle cx="312.62626262626264" cy="53.67375144950921" r="2" fill="rgb(0,255,0)"/><circle cx="317.67676767676767" cy="53.67375144950921" r="2" fill="rgb(0,255,0)"/><circle cx="322.7272727272727" cy="53.63645454268374" r="2" fill="rgb(0,255,0)"/><circle cx="327.77777777777777" cy="53.67281931351664" r="2" fill="rgb(0,255,0)"/><circle cx="332.8282828282828" cy="53.67375144950921" r="2" fill="rgb(0,255,0)"/><circle cx="337.8787878787879" cy="51.633171907030544" r="2" fill="rgb(0,255,0)"/><circle cx="342.92929292929296" cy="51.50105709216132" r="2" fill="rgb(0,255,0)"/><circle cx="347.979797979798" cy="51.47127154814632" r="2" fill="rgb(0,255,0)"/><circle cx="353.03030303030306" cy="51.50105709216132" r="2" fill="rgb(0,255,0)"/><circle cx="358.0808080808081" cy="51.49978663883195" r="2" fill="rgb(0,255,0)"/><circle cx="363.13131313131316" cy="51.49978663883195" r="2" fill="rgb(0,255,0)"/><circle cx="368.1818181818182" cy="51.48338970960276" r="2" fill="rgb(0,255,0)"/><circle cx="373.23232323232327" cy="51.475878346792285" r="2" fill="rgb(0,255,0)"/><circle cx="378.2828282828283" cy="51.475878346792285" r="2" fill="rgb(0,255,0)"/><circle cx="383.3333333333333" cy="51.508568454971794" r="2" fill="rgb(0,255,0)"/><circle cx="388.3838383838384" cy="51.36655048178562" r="2" fill="rgb(0,255,0)"/><circle cx="393.4343434343434" cy="51.36655048178562" r="2" fill="rgb(0,255,0)"/><circle cx="398.4848484848485" cy="51.3644817865345" r="2" fill="rgb(0,255,0)"/><circle cx="403.5353535353535" cy="51.365280028456255" r="2" fill="rgb(0,255,0)"/><circle cx="408.58585858585855" cy="51.36655048178562" r="2" fill="rgb(0,255,0)"/><circle cx="413.6363636363636" cy="51.37072269601566" r="2" fill="rgb(0,255,0)"/><circle cx="418.68686868686865" cy="51.36655048178562" r="2" fill="rgb(0,255,0)"/><circle cx="423.73737373737373" cy="51.36655048178562" r="2" fill="rgb(0,255,0)"/><circle cx="428.7878787878788" cy="51.365280028456255" r="2" fill="rgb(0,255,0)"/><circle cx="433.83838383838383" cy="51.41313944576285" r="2" fill="rgb(0,255,0)"/><circle cx="438.8888888888889" cy="51.39673441203831" r="2" fill="rgb(0,255,0)"/><circle cx="443.93939393939394" cy="50.367631378022" r="2" fill="rgb(0,255,0)"/><circle cx="448.989898989899" cy="50.260913405873" r="2" fill="rgb(0,255,0)"/><circle cx="454.04040404040404" cy="50.23072947562031" r="2" fill="rgb(0,255,0)"/><circle cx="459.0909090909091" cy="50.31755463931955" r="2" fill="rgb(0,255,0)"/><circle cx="464.14141414141415" cy="50.3408905304878" r="2" fill="rgb(0,255,0)"/><circle cx="469.19191919191917" cy="50.29463603389729" r="2" fill="rgb(0,255,0)"/><circle cx="474.24242424242425" cy="50.22194765948046" r="2" fill="rgb(0,255,0)"/><circle cx="479.2929292929293" cy="50.2696952220129" r="2" fill="rgb(0,255,0)"/><circle cx="484.34343434343435" cy="50.22945902229094" r="2" fill="rgb(0,255,0)"/><circle cx="489.3939393939394" cy="50.234756040023115" r="2" fill="rgb(0,255,0)"/><circle cx="494.4444444444444" cy="50.145683718541534" r="2" fill="rgb(0,255,0)"/><circle cx="499.4949494949495" cy="50.0" r="2" fill="rgb(0,255,0)"/><circle cx="504.5454545454545" cy="50.00751136281053" r="2" fill="rgb(0,255,0)"/><circle cx="509.59595959595964" cy="50.12100017957863" r="2" fill="rgb(0,255,0)"/><circle cx="514.6464646464647" cy="50.12681745943587" r="2" fill="rgb(0,255,0)"/><circle cx="519.6969696969697" cy="50.06880001644885" r="2" fill="rgb(0,255,0)"/><circle cx="524.7474747474748" cy="50.06880001644885" r="2" fill="rgb(0,255,0)"/><circle cx="529.7979797979798" cy="50.06880001644885" r="2" fill="rgb(0,255,0)"/><circle cx="534.8484848484849" cy="50.11222039366561" r="2" fill="rgb(0,255,0)"/><circle cx="539.8989898989898" cy="50.065743284462485" r="2" fill="rgb(0,255,0)"/><circle cx="544.9494949494949" cy="50.12100017957863" r="2" fill="rgb(0,255,0)"/><circle cx="550.0" cy="50.12100017957863" r="2" fill="rgb(0,255,0)"/><text x="350.0" y="20.0" text-anchor="middle" fill="rgb(0,0,0)" font-size="20.0">GA Demo</text><text x="350.0" y="575.0" text-anchor="middle" fill="rgb(0,0,0)" font-size="12.0">generation</text><text transform="rotate(-90.0 20.0 300.0)" x="20.0" y="300.0" text-anchor="middle" fill="rgb(0,0,0)" font-size="12.0">fitness</text><text x="620" y="62" fill="rgb(0,0,0)" font-size="12">min</text><text x="620" y="74" fill="rgb(0,0,255)" font-size="12">ave</text><text x="620" y="86" fill="rgb(0,255,0)" font-size="12">max</text>
      Sorry, your browser does not support inline SVG.
    </svg>