<?xml version='1.0' encoding='UTF-8'?>
<svg version="1.1" width="700.0" height="600.0" onload="init(evt)" xmlns="http://www.w3.org/2000/svg">
      <style>.caption {
  font-size: 14px;
  font-family: Georgia, serif;
}
</style>
      <script type="text/ecmascript"><![CDATA[
function init(evt) {
  if ( window.svgDocument == null ) {
    svgDocument = evt.target.ownerDocument;
  }
}

function RectHover(evt, i, c) {
  rect = svgDocument.getElementById('rect' + i);
  if( c != null ) {
    rect.setAttributeNS(null, "fill", c)  
  }
  tooltiptext = svgDocument.getElementById('tooltiptext' + i);
  tooltipbg = svgDocument.getElementById('tooltipbg' + i);
  if( tooltipbg != null) {
    tbb = tooltiptext.getBBox();
    tooltipbg.setAttributeNS(null, "width", tbb.width);
    tooltipbg.setAttributeNS(null, "height", tbb.height);
    tooltipbg.setAttributeNS(null, "x", tbb.x);
    tooltipbg.setAttributeNS(null, "y", tbb.y);
    tooltipbg.setAttributeNS(null, "visibility", "visible");
  }
  tooltiptext.setAttributeNS(null,"visibility","visible");
}

function RectUnhover(evt, i, c) {
  rect = svgDocument.getElementById('rect' + i);
  if( c != null ) {
    rect.setAttributeNS(null, "fill", c)  
  }
  tooltiptext = svgDocument.getElementById('tooltiptext' + i);
  tooltiptext.setAttributeNS(null,"visibility","hidden");
  tooltipbg = svgDocument.getElementById('tooltipbg' + i);
  if( tooltipbg != null ) {
    tooltipbg.setAttributeNS(null,"visibility","hidden");
  }
}
]]></script>
      <line x1="50.0" y1="550.0" x2="550.0" y2="550.0" stroke="rgb(0,0,0)" stroke-width="1"/><line x1="50.0" y1="550.0" x2="50.0" y2="50.0" stroke="rgb(0,0,0)" stroke-width="1"/><line x1="50.0" y1="550.0" x2="50.0" y2="50.0" stroke="rgb(192,192,192)" stroke-width="1"/><line x1="50.0" y1="548.0" x2="50.0" y2="552.0" stroke="rgb(192,192,192)" stroke-width="1"/><text text-anchor="middle" alignment-baseline="hanging" x="50.0" y="553.0" font-size="12.0">0</text><line x1="100.5050505050505" y1="550.0" x2="100.5050505050505" y2="50.0" stroke="rgb(192,192,192)" stroke-width="1"/><line x1="100.5050505050505" y1="548.0" x2="100.5050505050505" y2="552.0" stroke="rgb(192,192,192)" stroke-width="1"/><text text-anchor="middle" alignment-baseline="hanging" x="100.5050505050505" y="553.0" font-size="12.0">10</text><line x1="151.010101010101" y1="550.0" x2="151.010101010101" y2="50.0" stroke="rgb(192,192,192)" stroke-width="1"/><line x1="151.010101010101" y1="548.0" x2="151.010101010101" y2="552.0" stroke="rgb(192,192,192)" stroke-width="1"/><text text-anchor="middle" alignment-baseline="hanging" x="151.010101010101" y="553.0" font-size="12.0">20</text><line x1="201.51515151515153" y1="550.0" x2="201.51515151515153" y2="50.0" stroke="rgb(192,192,192)" stroke-width="1"/><line x1="201.51515151515153" y1="548.0" x2="201.51515151515153" y2="552.0" stroke="rgb(192,192,192)" stroke-width="1"/><text text-anchor="middle" alignment-baseline="hanging" x="201.51515151515153" y="553.0" font-size="12.0">30</text><line x1="252.02020202020202" y1="550.0" x2="252.02020202020202" y2="50.0" stroke="rgb(192,192,192)" stroke-width="1"/><line x1="252.02020202020202" y1="548.0" x2="252.02020202020202" y2="552.0" stroke="rgb(192,192,192)" stroke-width="1"/><text text-anchor="middle" alignment-baseline="hanging" x="252.02020202020202" y="553.0" font-size="12.0">40</text><line x1="302.52525252525254" y1="550.0" x2="302.52525252525254" y2="50.0" stroke="rgb(192,192,192)" stroke-width="1"/><line x1="302.52525252525254" y1="548.0" x2="302.52525252525254" y2="552.0" stroke="rgb(192,192,192)" stroke-width="1"/><text text-anchor="middle" alignment-baseline="hanging" x="302.52525252525254" y="553.0" font-size="12.0">50</text><line x1="353.03030303030306" y1="550.0" x2="353.03030303030306" y2="50.0" stroke="rgb(192,192,192)" stroke-width="1"/><line x1="353.03030303030306" y1="548.0" x2="353.03030303030306" y2="552.0" stroke="rgb(192,192,192)" stroke-width="1"/><text text-anchor="middle" alignment-baseline="hanging" x="353.03030303030306" y="553.0" font-size="12.0">60</text><line x1="403.5353535353535" y1="550.0" x2="403.5353535353535" y2="50.0" stroke="rgb(192,192,192)" stroke-width="1"/><line x1="403.5353535353535" y1="548.0" x2="403.5353535353535" y2="552.0" stroke="rgb(192,192,192)" stroke-width="1"/><text text-anchor="middle" alignment-baseline="hanging" x="403.5353535353535" y="553.0" font-size="12.0">70</text><line x1="454.04040404040404" y1="550.0" x2="454.04040404040404" y2="50.0" stroke="rgb(192,192,192)" stroke-width="1"/><line x1="454.04040404040404" y1="548.0" x2="454.04040404040404" y2="552.0" stroke="rgb(192,192,192)" stroke-width="1"/><text text-anchor="middle" alignment-baseline="hanging" x="454.04040404040404" y="553.0" font-size="12.0">80</text><line x1="504.5454545454545" y1="550.0" x2="504.5454545454545" y2="50.0" stroke="rgb(192,192,192)" stroke-width="1"/><line x1="504.5454545454545" y1="548.0" x2="504.5454545454545" y2="552.0" stroke="rgb(192,192,192)" stroke-width="1"/><text text-anchor="middle" alignment-baseline="hanging" x="504.5454545454545" y="553.0" font-size="12.0">90</text><line x1="50.0" y1="550.0" x2="550.0" y2="550.0" stroke="rgb(192,192,192)" stroke-width="1"/><text text-anchor="end" alignment-baseline="middle" x="45.0" y="550.0" font-size="12.0">0.0</text><line x1="48.0" y1="550.0" x2="52.0" y2="550.0" stroke="rgb(192,192,192)" stroke-width="1"/><line x1="50.0" y1="368.077929835305" x2="550.0" y2="368.077929835305" stroke="rgb(192,192,192)" stroke-width="1"/><text text-anchor="end" alignment-baseline="middle" x="45.0" y="368.077929835305" font-size="12.0">1000.0</text><line x1="48.0" y1="368.077929835305" x2="52.0" y2="368.077929835305" stroke="rgb(192,192,192)" stroke-width="1"/><line x1="50.0" y1="186.15585967061003" x2="550.0" y2="186.15585967061003" stroke="rgb(192,192,192)" stroke-width="1"/><text text-anchor="end" alignment-baseline="middle" x="45.0" y="186.15585967061003" font-size="12.0">2000.0</text><line x1="48.0" y1="186.15585967061003" x2="52.0" y2="186.15585967061003" stroke="rgb(192,192,192)" stroke-width="1"/><polyline points="50.0,417.66593597512207 55.05050505050505,385.2165470598307 60.101010101010104,372.7392070911494 65.15151515151516,398.96523619396606 70.20202020202021,385.9798053243883 75.25252525252526,383.66331019535517 80.30303030303031,330.33588975339376 85.35353535353535,362.4480165693385 90.40404040404042,337.5382917050392 95.45454545454545,386.0717235645593 100.5050505050505,422.0306089423604 105.55555555555554,406.5784007040139 110.60606060606061,407.699414737639 115.65656565656566,389.63365790378435 120.7070707070707,311.09226680902316 125.75757575757576,388.6941000002105 130.80808080808083,361.19844762784226 135.85858585858585,377.06716352988076 140.9090909090909,385.1318815014964 145.95959595959596,385.47921234264214 151.010101010101,410.3475968331608 156.06060606060606,411.7820913168037 161.1111111111111,198.9814171433501 166.16161616161617,305.4811008930972 171.21212121212122,74.47145832559858 176.26262626262627,291.00910674251446 181.31313131313132,361.7358580187091 186.36363636363635,362.17175221650047 191.4141414141414,332.9930621809491 196.46464646464648,359.39323679603626 201.51515151515153,394.48844572576206 206.56565656565658,282.5212532420618 211.61616161616163,346.80158960358176 216.66666666666666,347.17439330532045 221.7171717171717,346.58885692114575 226.76767676767676,383.12423418868775 231.8181818181818,411.0793674461329 236.86868686868686,56.85988605017832 241.91919191919192,223.50139242136015 246.96969696969697,265.2561907612348 252.02020202020202,306.0189577444529 257.07070707070704,412.0814588032563 262.1212121212121,412.6550848675855 267.1717171717172,321.350034636158 272.2222222222222,366.3342202099067 277.27272727272725,349.1908416006206 282.32323232323233,398.0532028246055 287.3737373737374,267.5488818568013 292.42424242424244,251.2214984970056 297.47474747474746,270.0017044712774 302.52525252525254,322.4587554135838 307.57575757575756,398.1357499824159 312.62626262626264,343.56169115987063 317.67676767676767,389.49386770324975 322.7272727272727,389.56772136223935 327.77777777777777,277.23663009870654 332.8282828282828,288.87604451411875 337.8787878787879,349.49288096829 342.92929292929296,351.4646384902626 347.979797979798,296.4352095009765 353.03030303030306,390.6054893165941 358.0808080808081,404.47677286109405 363.13131313131316,404.59342870811304 368.1818181818182,299.63321790666026 373.23232323232327,322.8285242320743 378.2828282828283,353.6021689726429 383.3333333333333,386.06141460827143 388.3838383838384,386.93056580347996 393.4343434343434,387.92187119121957 398.4848484848485,387.2272330536932 403.5353535353535,348.24323995106886 408.58585858585855,169.6672151644873 413.6363636363636,307.1896042150007 418.68686868686865,403.27696851095357 423.73737373737373,403.3655136001167 428.7878787878788,403.4201855736124 433.83838383838383,366.45444596467394 438.8888888888889,340.7013410589733 443.93939393939394,264.0689433063844 448.989898989899,375.21749819954755 454.04040404040404,375.4744406194929 459.0909090909091,329.2756980257433 464.14141414141415,281.42735046215853 469.19191919191917,380.8535050058123 474.24242424242425,98.75094775686847 479.2929292929293,366.7236576846302 484.34343434343435,291.19710352145125 489.3939393939394,326.93172293080465 494.4444444444444,400.93265435153364 499.4949494949495,400.93025338392397 504.5454545454545,349.1664809313618 509.59595959595964,393.3025403895516 514.6464646464647,393.37745997296844 519.6969696969697,291.44298226643417 524.7474747474748,364.4103631023411 529.7979797979798,368.32287725945923 534.8484848484849,368.32287725945923 539.8989898989898,380.56887029489764 544.9494949494949,339.04530462242644 550.0,361.6826456791524" fill="none" stroke="rgb(0,0,0)" stroke-width="1"/><circle cx="50.0" cy="417.66593597512207" r="2" fill="rgb(0,0,0)"/><circle cx="55.05050505050505" cy="385.2165470598307" r="2" fill="rgb(0,0,0)"/><circle cx="60.101010101010104" cy="372.7392070911494" r="2" fill="rgb(0,0,0)"/><circle cx="65.15151515151516" cy="398.96523619396606" r="2" fill="rgb(0,0,0)"/><circle cx="70.20202020202021" cy="385.9798053243883" r="2" fill="rgb(0,0,0)"/><circle cx="75.25252525252526" cy="383.66331019535517" r="2" fill="rgb(0,0,0)"/><circle cx="80.30303030303031" cy="330.33588975339376" r="2" fill="rgb(0,0,0)"/><circle cx="85.35353535353535" cy="362.4480165693385" r="2" fill="rgb(0,0,0)"/><circle cx="90.40404040404042" cy="337.5382917050392" r="2" fill="rgb(0,0,0)"/><circle cx="95.45454545454545" cy="386.0717235645593" r="2" fill="rgb(0,0,0)"/><circle cx="100.5050505050505" cy="422.0306089423604" r="2" fill="rgb(0,0,0)"/><circle cx="105.55555555555554" cy="406.5784007040139" r="2" fill="rgb(0,0,0)"/><circle cx="110.60606060606061" cy="407.699414737639" r="2" fill="rgb(0,0,0)"/><circle cx="115.65656565656566" cy="389.63365790378435" r="2" fill="rgb(0,0,0)"/><circle cx="120.7070707070707" cy="311.09226680902316" r="2" fill="rgb(0,0,0)"/><circle cx="125.75757575757576" cy="388.6941000002105" r="2" fill="rgb(0,0,0)"/><circle cx="130.80808080808083" cy="361.19844762784226" r="2" fill="rgb(0,0,0)"/><circle cx="135.85858585858585" cy="377.06716352988076" r="2" fill="rgb(0,0,0)"/><circle cx="140.9090909090909" cy="385.1318815014964" r="2" fill="rgb(0,0,0)"/><circle cx="145.95959595959596" cy="385.47921234264214" r="2" fill="rgb(0,0,0)"/><circle cx="151.010101010101" cy="410.3475968331608" r="2" fill="rgb(0,0,0)"/><circle cx="156.06060606060606" cy="411.7820913168037" r="2" fill="rgb(0,0,0)"/><circle cx="161.1111111111111" cy="198.9814171433501" r="2" fill="rgb(0,0,0)"/><circle cx="166.16161616161617" cy="305.4811008930972" r="2" fill="rgb(0,0,0)"/><circle cx="171.21212121212122" cy="74.47145832559858" r="2" fill="rgb(0,0,0)"/><circle cx="176.26262626262627" cy="291.00910674251446" r="2" fill="rgb(0,0,0)"/><circle cx="181.31313131313132" cy="361.7358580187091" r="2" fill="rgb(0,0,0)"/><circle cx="186.36363636363635" cy="362.17175221650047" r="2" fill="rgb(0,0,0)"/><circle cx="191.4141414141414" cy="332.9930621809491" r="2" fill="rgb(0,0,0)"/><circle cx="196.46464646464648" cy="359.39323679603626" r="2" fill="rgb(0,0,0)"/><circle cx="201.51515151515153" cy="394.48844572576206" r="2" fill="rgb(0,0,0)"/><circle cx="206.56565656565658" cy="282.5212532420618" r="2" fill="rgb(0,0,0)"/><circle cx="211.61616161616163" cy="346.80158960358176" r="2" fill="rgb(0,0,0)"/><circle cx="216.66666666666666" cy="347.17439330532045" r="2" fill="rgb(0,0,0)"/><circle cx="221.7171717171717" cy="346.58885692114575" r="2" fill="rgb(0,0,0)"/><circle cx="226.76767676767676" cy="383.12423418868775" r="2" fill="rgb(0,0,0)"/><circle cx="231.8181818181818" cy="411.0793674461329" r="2" fill="rgb(0,0,0)"/><circle cx="236.86868686868686" cy="56.85988605017832" r="2" fill="rgb(0,0,0)"/><circle cx="241.91919191919192" cy="223.50139242136015" r="2" fill="rgb(0,0,0)"/><circle cx="246.96969696969697" cy="265.2561907612348" r="2" fill="rgb(0,0,0)"/><circle cx="252.02020202020202" cy="306.0189577444529" r="2" fill="rgb(0,0,0)"/><circle cx="257.07070707070704" cy="412.0814588032563" r="2" fill="rgb(0,0,0)"/><circle cx="262.1212121212121" cy="412.6550848675855" r="2" fill="rgb(0,0,0)"/><circle cx="267.1717171717172" cy="321.350034636158" r="2" fill="rgb(0,0,0)"/><circle cx="272.2222222222222" cy="366.3342202099067" r="2" fill="rgb(0,0,0)"/><circle cx="277.27272727272725" cy="349.1908416006206" r="2" fill="rgb(0,0,0)"/><circle cx="282.32323232323233" cy="398.0532028246055" r="2" fill="rgb(0,0,0)"/><circle cx="287.3737373737374" cy="267.5488818568013" r="2" fill="rgb(0,0,0)"/><circle cx="292.42424242424244" cy="251.2214984970056" r="2" fill="rgb(0,0,0)"/><circle cx="297.47474747474746" cy="270.0017044712774" r="2" fill="rgb(0,0,0)"/><circle cx="302.52525252525254" cy="322.4587554135838" r="2" fill="rgb(0,0,0)"/><circle cx="307.57575757575756" cy="398.1357499824159" r="2" fill="rgb(0,0,0)"/><circle cx="312.62626262626264" cy="343.56169115987063" r="2" fill="rgb(0,0,0)"/><circle cx="317.67676767676767" cy="389.49386770324975" r="2" fill="rgb(0,0,0)"/><circle cx="322.7272727272727" cy="389.56772136223935" r="2" fill="rgb(0,0,0)"/><circle cx="327.77777777777777" cy="277.23663009870654" r="2" fill="rgb(0,0,0)"/><circle cx="332.8282828282828" cy="288.87604451411875" r="2" fill="rgb(0,0,0)"/><circle cx="337.8787878787879" cy="349.49288096829" r="2" fill="rgb(0,0,0)"/><circle cx="342.92929292929296" cy="351.4646384902626" r="2" fill="rgb(0,0,0)"/><circle cx="347.979797979798" cy="296.4352095009765" r="2" fill="rgb(0,0,0)"/><circle cx="353.03030303030306" cy="390.6054893165941" r="2" fill="rgb(0,0,0)"/><circle cx="358.0808080808081" cy="404.47677286109405" r="2" fill="rgb(0,0,0)"/><circle cx="363.13131313131316" cy="404.59342870811304" r="2" fill="rgb(0,0,0)"/><circle cx="368.1818181818182" cy="299.63321790666026" r="2" fill="rgb(0,0,0)"/><circle cx="373.23232323232327" cy="322.8285242320743" r="2" fill="rgb(0,0,0)"/><circle cx="378.2828282828283" cy="353.6021689726429" r="2" fill="rgb(0,0,0)"/><circle cx="383.3333333333333" cy="386.06141460827143" r="2" fill="rgb(0,0,0)"/><circle cx="388.3838383838384" cy="386.93056580347996" r="2" fill="rgb(0,0,0)"/><circle cx="393.4343434343434" cy="387.92187119121957" r="2" fill="rgb(0,0,0)"/><circle cx="398.4848484848485" cy="387.2272330536932" r="2" fill="rgb(0,0,0)"/><circle cx="403.5353535353535" cy="348.24323995106886" r="2" fill="rgb(0,0,0)"/><circle cx="408.58585858585855" cy="169.6672151644873" r="2" fill="rgb(0,0,0)"/><circle cx="413.6363636363636" cy="307.1896042150007" r="2" fill="rgb(0,0,0)"/><circle cx="418.68686868686865" cy="403.27696851095357" r="2" fill="rgb(0,0,0)"/><circle cx="423.73737373737373" cy="403.3655136001167" r="2" fill="rgb(0,0,0)"/><circle cx="428.7878787878788" cy="403.4201855736124" r="2" fill="rgb(0,0,0)"/><circle cx="433.83838383838383" cy="366.45444596467394" r="2" fill="rgb(0,0,0)"/><circle cx="438.8888888888889" cy="340.7013410589733" r="2" fill="rgb(0,0,0)"/><circle cx="443.93939393939394" cy="264.0689433063844" r="2" fill="rgb(0,0,0)"/><circle cx="448.989898989899" cy="375.21749819954755" r="2" fill="rgb(0,0,0)"/><circle cx="454.04040404040404" cy="375.4744406194929" r="2" fill="rgb(0,0,0)"/><circle cx="459.0909090909091" cy="329.2756980257433" r="2" fill="rgb(0,0,0)"/><circle cx="464.14141414141415" cy="281.42735046215853" r="2" fill="rgb(0,0,0)"/><circle cx="469.19191919191917" cy="380.8535050058123" r="2" fill="rgb(0,0,0)"/><circle cx="474.24242424242425" cy="98.75094775686847" r="2" fill="rgb(0,0,0)"/><circle cx="479.2929292929293" cy="366.7236576846302" r="2" fill="rgb(0,0,0)"/><circle cx="484.34343434343435" cy="291.19710352145125" r="2" fill="rgb(0,0,0)"/><circle cx="489.3939393939394" cy="326.93172293080465" r="2" fill="rgb(0,0,0)"/><circle cx="494.4444444444444" cy="400.93265435153364" r="2" fill="rgb(0,0,0)"/><circle cx="499.4949494949495" cy="400.93025338392397" r="2" fill="rgb(0,0,0)"/><circle cx="504.5454545454545" cy="349.1664809313618" r="2" fill="rgb(0,0,0)"/><circle cx="509.59595959595964" cy="393.3025403895516" r="2" fill="rgb(0,0,0)"/><circle cx="514.6464646464647" cy="393.37745997296844" r="2" fill="rgb(0,0,0)"/><circle cx="519.6969696969697" cy="291.44298226643417" r="2" fill="rgb(0,0,0)"/><circle cx="524.7474747474748" cy="364.4103631023411" r="2" fill="rgb(0,0,0)"/><circle cx="529.7979797979798" cy="368.32287725945923" r="2" fill="rgb(0,0,0)"/><circle cx="534.8484848484849" cy="368.32287725945923" r="2" fill="rgb(0,0,0)"/><circle cx="539.8989898989898" cy="380.56887029489764" r="2" fill="rgb(0,0,0)"/><circle cx="544.9494949494949" cy="339.04530462242644" r="2" fill="rgb(0,0,0)"/><circle cx="550.0" cy="361.6826456791524" r="2" fill="rgb(0,0,0)"/><polyline points="50.0,205.12742381876393 55.05050505050505,156.95536636779093 60.101010101010104,133.05220102762917 65.15151515151516,143.4069743753621 70.20202020202021,141.36356315079036 75.25252525252526,122.54086163848234 80.30303030303031,106.95850418310869 85.35353535353535,101.13687257230623 90.40404040404042,92.45082014828864 95.45454545454545,93.4149057872321 100.5050505050505,91.17650235789381 105.55555555555554,80.2441864640349 110.60606060606061,77.642687928491 115.65656565656566,80.00090753407892 120.7070707070707,74.81726885627108 125.75757575757576,76.85764316783332 130.80808080808083,72.77586735380834 135.85858585858585,64.27377248784126 140.9090909090909,67.91172424542594 145.95959595959596,70.89611587363811 151.010101010101,68.97283923446508 156.06060606060606,64.94673701410363 161.1111111111111,58.918699951618805 166.16161616161617,63.62940398075153 171.21212121212122,56.10497009527364 176.26262626262627,58.595903868495384 181.31313131313132,70.37543142317776 186.36363636363635,68.61622154044761 191.4141414141414,68.92099353233704 196.46464646464648,67.73067863424563 201.51515151515153,67.60975767636796 206.56565656565658,64.7173781566002 211.61616161616163,65.1807956583171 216.66666666666666,66.9407531649868 221.7171717171717,65.87510869077016 226.76767676767676,77.2372172647888 231.8181818181818,63.40194923594555 236.86868686868686,54.631168760681135 241.91919191919192,56.351020183656544 246.96969696969697,58.23823422413079 252.02020202020202,57.76857981560141 257.07070707070704,58.21919278242598 262.1212121212121,63.48928498569359 267.1717171717172,67.26852199683458 272.2222222222222,60.258617884204114 277.27272727272725,65.97929442559831 282.32323232323233,68.29894475516528 287.3737373737374,65.86348127810737 292.42424242424244,59.50521577259627 297.47474747474746,62.51525590824497 302.52525252525254,60.64412632248576 307.57575757575756,62.026328604353466 312.62626262626264,64.08779178645494 317.67676767676767,71.99246261752296 322.7272727272727,69.31488701129223 327.77777777777777,63.253203812729225 332.8282828282828,64.83247472941287 337.8787878787879,66.55425672258531 342.92929292929296,63.46564151236055 347.979797979798,58.85697303304704 353.03030303030306,62.131473896528746 358.0808080808081,61.74220800826322 363.13131313131316,67.1325185482321 368.1818181818182,58.51017344664291 373.23232323232327,57.08200828053566 378.2828282828283,57.39715436197207 383.3333333333333,66.82003490461443 388.3838383838384,65.5938107703854 393.4343434343434,70.86148739982599 398.4848484848485,66.44404210323557 403.5353535353535,56.48989759071259 408.58585858585855,54.67246559313463 413.6363636363636,60.13045474348809 418.68686868686865,60.37989915034933 423.73737373737373,64.38078149436848 428.7878787878788,64.35780190505426 433.83838383838383,60.88244140326151 438.8888888888889,62.115455803395776 443.93939393939394,58.78742361877784 448.989898989899,56.88466072089432 454.04040404040404,58.64516120830609 459.0909090909091,58.351125324718 464.14141414141415,56.78552012836349 469.19191919191917,55.1227285315598 474.24242424242425,51.13585271842817 479.2929292929293,57.75008852709112 484.34343434343435,64.92648477430612 489.3939393939394,75.33140231235484 494.4444444444444,87.96205886161835 499.4949494949495,77.54086888406118 504.5454545454545,65.0299640817313 509.59595959595964,65.35947995563265 514.6464646464647,64.40283239887998 519.6969696969697,68.44716955960081 524.7474747474748,67.77533640841835 529.7979797979798,66.13616085025836 534.8484848484849,62.17230000833223 539.8989898989898,70.4842039011694 544.9494949494949,63.68958554666898 550.0,61.53706554260094" fill="none" stroke="rgb(0,0,255)" stroke-width="1"/><circle cx="50.0" cy="205.12742381876393" r="2" fill="rgb(0,0,255)"/><circle cx="55.05050505050505" cy="156.95536636779093" r="2" fill="rgb(0,0,255)"/><circle cx="60.101010101010104" cy="133.05220102762917" r="2" fill="rgb(0,0,255)"/><circle cx="65.15151515151516" cy="143.4069743753621" r="2" fill="rgb(0,0,255)"/><circle cx="70.20202020202021" cy="141.36356315079036" r="2" fill="rgb(0,0,255)"/><circle cx="75.25252525252526" cy="122.54086163848234" r="2" fill="rgb(0,0,255)"/><circle cx="80.30303030303031" cy="106.95850418310869" r="2" fill="rgb(0,0,255)"/><circle cx="85.35353535353535" cy="101.13687257230623" r="2" fill="rgb(0,0,255)"/><circle cx="90.40404040404042" cy="92.45082014828864" r="2" fill="rgb(0,0,255)"/><circle cx="95.45454545454545" cy="93.4149057872321" r="2" fill="rgb(0,0,255)"/><circle cx="100.5050505050505" cy="91.17650235789381" r="2" fill="rgb(0,0,255)"/><circle cx="105.55555555555554" cy="80.2441864640349" r="2" fill="rgb(0,0,255)"/><circle cx="110.60606060606061" cy="77.642687928491" r="2" fill="rgb(0,0,255)"/><circle cx="115.65656565656566" cy="80.00090753407892" r="2" fill="rgb(0,0,255)"/><circle cx="120.7070707070707" cy="74.81726885627108" r="2" fill="rgb(0,0,255)"/><circle cx="125.75757575757576" cy="76.85764316783332" r="2" fill="rgb(0,0,255)"/><circle cx="130.80808080808083" cy="72.77586735380834" r="2" fill="rgb(0,0,255)"/><circle cx="135.85858585858585" cy="64.27377248784126" r="2" fill="rgb(0,0,255)"/><circle cx="140.9090909090909" cy="67.91172424542594" r="2" fill="rgb(0,0,255)"/><circle cx="145.95959595959596" cy="70.89611587363811" r="2" fill="rgb(0,0,255)"/><circle cx="151.010101010101" cy="68.97283923446508" r="2" fill="rgb(0,0,255)"/><circle cx="156.06060606060606" cy="64.94673701410363" r="2" fill="rgb(0,0,255)"/><circle cx="161.1111111111111" cy="58.918699951618805" r="2" fill="rgb(0,0,255)"/><circle cx="166.16161616161617" cy="63.62940398075153" r="2" fill="rgb(0,0,255)"/><circle cx="171.21212121212122" cy="56.10497009527364" r="2" fill="rgb(0,0,255)"/><circle cx="176.26262626262627" cy="58.595903868495384" r="2" fill="rgb(0,0,255)"/><circle cx="181.31313131313132" cy="70.37543142317776" r="2" fill="rgb(0,0,255)"/><circle cx="186.36363636363635" cy="68.61622154044761" r="2" fill="rgb(0,0,255)"/><circle cx="191.4141414141414" cy="68.92099353233704" r="2" fill="rgb(0,0,255)"/><circle cx="196.46464646464648" cy="67.73067863424563" r="2" fill="rgb(0,0,255)"/><circle cx="201.51515151515153" cy="67.60975767636796" r="2" fill="rgb(0,0,255)"/><circle cx="206.56565656565658" cy="64.7173781566002" r="2" fill="rgb(0,0,255)"/><circle cx="211.61616161616163" cy="65.1807956583171" r="2" fill="rgb(0,0,255)"/><circle cx="216.66666666666666" cy="66.9407531649868" r="2" fill="rgb(0,0,255)"/><circle cx="221.7171717171717" cy="65.87510869077016" r="2" fill="rgb(0,0,255)"/><circle cx="226.76767676767676" cy="77.2372172647888" r="2" fill="rgb(0,0,255)"/><circle cx="231.8181818181818" cy="63.40194923594555" r="2" fill="rgb(0,0,255)"/><circle cx="236.86868686868686" cy="54.631168760681135" r="2" fill="rgb(0,0,255)"/><circle cx="241.91919191919192" cy="56.351020183656544" r="2" fill="rgb(0,0,255)"/><circle cx="246.96969696969697" cy="58.23823422413079" r="2" fill="rgb(0,0,255)"/><circle cx="252.02020202020202" cy="57.76857981560141" r="2" fill="rgb(0,0,255)"/><circle cx="257.07070707070704" cy="58.21919278242598" r="2" fill="rgb(0,0,255)"/><circle cx="262.1212121212121" cy="63.48928498569359" r="2" fill="rgb(0,0,255)"/><circle cx="267.1717171717172" cy="67.26852199683458" r="2" fill="rgb(0,0,255)"/><circle cx="272.2222222222222" cy="60.258617884204114" r="2" fill="rgb(0,0,255)"/><circle cx="277.27272727272725" cy="65.97929442559831" r="2" fill="rgb(0,0,255)"/><circle cx="282.32323232323233" cy="68.29894475516528" r="2" fill="rgb(0,0,255)"/><circle cx="287.3737373737374" cy="65.86348127810737" r="2" fill="rgb(0,0,255)"/><circle cx="292.42424242424244" cy="59.50521577259627" r="2" fill="rgb(0,0,255)"/><circle cx="297.47474747474746" cy="62.51525590824497" r="2" fill="rgb(0,0,255)"/><circle cx="302.52525252525254" cy="60.64412632248576" r="2" fill="rgb(0,0,255)"/><circle cx="307.57575757575756" cy="62.026328604353466" r="2" fill="rgb(0,0,255)"/><circle cx="312.62626262626264" cy="64.08779178645494" r="2" fill="rgb(0,0,255)"/><circle cx="317.67676767676767" cy="71.99246261752296" r="2" fill="rgb(0,0,255)"/><circle cx="322.7272727272727" cy="69.31488701129223" r="2" fill="rgb(0,0,255)"/><circle cx="327.77777777777777" cy="63.253203812729225" r="2" fill="rgb(0,0,255)"/><circle cx="332.8282828282828" cy="64.83247472941287" r="2" fill="rgb(0,0,255)"/><circle cx="337.8787878787879" cy="66.55425672258531" r="2" fill="rgb(0,0,255)"/><circle cx="342.92929292929296" cy="63.46564151236055" r="2" fill="rgb(0,0,255)"/><circle cx="347.979797979798" cy="58.85697303304704" r="2" fill="rgb(0,0,255)"/><circle cx="353.03030303030306" cy="62.131473896528746" r="2" fill="rgb(0,0,255)"/><circle cx="358.0808080808081" cy="61.74220800826322" r="2" fill="rgb(0,0,255)"/><circle cx="363.13131313131316" cy="67.1325185482321" r="2" fill="rgb(0,0,255)"/><circle cx="368.1818181818182" cy="58.51017344664291" r="2" fill="rgb(0,0,255)"/><circle cx="373.23232323232327" cy="57.08200828053566" r="2" fill="rgb(0,0,255)"/><circle cx="378.2828282828283" cy="57.39715436197207" r="2" fill="rgb(0,0,255)"/><circle cx="383.3333333333333" cy="66.82003490461443" r="2" fill="rgb(0,0,255)"/><circle cx="388.3838383838384" cy="65.5938107703854" r="2" fill="rgb(0,0,255)"/><circle cx="393.4343434343434" cy="70.86148739982599" r="2" fill="rgb(0,0,255)"/><circle cx="398.4848484848485" cy="66.44404210323557" r="2" fill="rgb(0,0,255)"/><circle cx="403.5353535353535" cy="56.48989759071259" r="2" fill="rgb(0,0,255)"/><circle cx="408.58585858585855" cy="54.67246559313463" r="2" fill="rgb(0,0,255)"/><circle cx="413.6363636363636" cy="60.13045474348809" r="2" fill="rgb(0,0,255)"/><circle cx="418.68686868686865" cy="60.37989915034933" r="2" fill="rgb(0,0,255)"/><circle cx="423.73737373737373" cy="64.38078149436848" r="2" fill="rgb(0,0,255)"/><circle cx="428.7878787878788" cy="64.35780190505426" r="2" fill="rgb(0,0,255)"/><circle cx="433.83838383838383" cy="60.88244140326151" r="2" fill="rgb(0,0,255)"/><circle cx="438.8888888888889" cy="62.115455803395776" r="2" fill="rgb(0,0,255)"/><circle cx="443.93939393939394" cy="58.78742361877784" r="2" fill="rgb(0,0,255)"/><circle cx="448.989898989899" cy="56.88466072089432" r="2" fill="rgb(0,0,255)"/><circle cx="454.04040404040404" cy="58.64516120830609" r="2" fill="rgb(0,0,255)"/><circle cx="459.0909090909091" cy="58.351125324718" r="2" fill="rgb(0,0,255)"/><circle cx="464.14141414141415" cy="56.78552012836349" r="2" fill="rgb(0,0,255)"/><circle cx="469.19191919191917" cy="55.1227285315598" r="2" fill="rgb(0,0,255)"/><circle cx="474.24242424242425" cy="51.13585271842817" r="2" fill="rgb(0,0,255)"/><circle cx="479.2929292929293" cy="57.75008852709112" r="2" fill="rgb(0,0,255)"/><circle cx="484.34343434343435" cy="64.92648477430612" r="2" fill="rgb(0,0,255)"/><circle cx="489.3939393939394" cy="75.33140231235484" r="2" fill="rgb(0,0,255)"/><circle cx="494.4444444444444" cy="87.96205886161835" r="2" fill="rgb(0,0,255)"/><circle cx="499.4949494949495" cy="77.54086888406118" r="2" fill="rgb(0,0,255)"/><circle cx="504.5454545454545" cy="65.0299640817313" r="2" fill="rgb(0,0,255)"/><circle cx="509.59595959595964" cy="65.35947995563265" r="2" fill="rgb(0,0,255)"/><circle cx="514.6464646464647" cy="64.40283239887998" r="2" fill="rgb(0,0,255)"/><circle cx="519.6969696969697" cy="68.44716955960081" r="2" fill="rgb(0,0,255)"/><circle cx="524.7474747474748" cy="67.77533640841835" r="2" fill="rgb(0,0,255)"/><circle cx="529.7979797979798" cy="66.13616085025836" r="2" fill="rgb(0,0,255)"/><circle cx="534.8484848484849" cy="62.17230000833223" r="2" fill="rgb(0,0,255)"/><circle cx="539.8989898989898" cy="70.4842039011694" r="2" fill="rgb(0,0,255)"/><circle cx="544.9494949494949" cy="63.68958554666898" r="2" fill="rgb(0,0,255)"/><circle cx="550.0" cy="61.53706554260094" r="2" fill="rgb(0,0,255)"/><polyline points="50.0,57.6831411657588 55.05050505050505,56.11517972325129 60.101010101010104,55.76627506175049 65.15151515151516,56.023629408902366 70.20202020202021,56.53162374902132 75.25252525252526,56.44484666533708 80.30303030303031,56.22226797130378 85.35353535353535,56.39299931022606 90.40404040404042,55.717110337376255 95.45454545454545,55.05849348219476 100.5050505050505,55.1586772189375 105.55555555555554,54.81376841691281 110.60606060606061,54.60054051366649 115.65656565656566,54.47834785048326 120.7070707070707,55.33225886218173 125.75757575757576,54.94321407737675 130.80808080808083,54.67862104972846 135.85858585858585,54.32826543770085 140.9090909090909,54.43190822248209 145.95959595959596,54.44000921334833 151.010101010101,54.82134662138577 156.06060606060606,54.483728931014525 161.1111111111111,54.114345632311085 166.16161616161617,53.48458087033026 171.21212121212122,53.78827799642636 176.26262626262627,53.904933843445406 181.31313131313132,53.45272925119639 186.36363636363635,53.89027243830134 191.4141414141414,53.77974989580207 196.46464646464648,53.62886122821084 201.51515151515153,53.78827799642636 206.56565656565658,53.62886122821084 211.61616161616163,53.75691106777765 216.66666666666666,52.66744926265255 221.7171717171717,53.739698567743176 226.76767676767676,53.614417905628216 231.8181818181818,53.614417905628216 236.86868686868686,53.60602240018642 241.91919191919192,53.60602240018642 246.96969696969697,53.5975592117959 252.02020202020202,53.62640780596644 257.07070707070704,53.60602240018642 262.1212121212121,53.60602240018642 267.1717171717172,53.61334259510426 272.2222222222222,53.54543910069145 277.27272727272725,53.56622198882934 282.32323232323233,53.75691106777765 287.3737373737374,53.56622198882934 292.42424242424244,53.56622198882934 297.47474747474746,53.60602240018642 302.52525252525254,53.63530315825864 307.57575757575756,53.63530315825864 312.62626262626264,53.6377041258682 317.67676767676767,50.659386792343014 322.7272727272727,51.563724967395615 327.77777777777777,50.61265184250152 332.8282828282828,50.3849501804234 337.8787878787879,50.22691630277774 342.92929292929296,50.450834106676325 347.979797979798,50.229317270387355 353.03030303030306,50.22691630277774 358.0808080808081,50.32891074465272 363.13131313131316,50.22691630277774 368.1818181818182,50.22691630277774 373.23232323232327,50.229317270387355 378.2828282828283,50.149004876386186 383.3333333333333,50.22089505050582 388.3838383838384,50.22089505050582 393.4343434343434,50.22691630277774 398.4848484848485,50.154397686970526 403.5353535353535,50.15199671936085 408.58585858585855,50.084447568346434 413.6363636363636,50.15199671936085 418.68686868686865,50.15199671936085 423.73737373737373,50.15199671936085 428.7878787878788,50.116639513022506 433.83838383838383,50.15199671936085 438.8888888888889,50.132823891538294 443.93939393939394,50.08029150563641 448.989898989899,50.15199671936085 454.04040404040404,50.15199671936085 459.0909090909091,50.15199671936085 464.14141414141415,50.15199671936085 469.19191919191917,50.15199671936085 474.24242424242425,50.15199671936085 479.2929292929293,50.15199671936085 484.34343434343435,50.148021870593425 489.3939393939394,50.15179553047727 494.4444444444444,50.149394562867656 499.4949494949495,50.15179553047727 504.5454545454545,50.15199671936085 509.59595959595964,50.00988452994517 514.6464646464647,50.15199671936085 519.6969696969697,50.15199671936085 524.7474747474748,50.15199671936085 529.7979797979798,50.15199671936085 534.8484848484849,50.15199671936085 539.8989898989898,50.0 544.9494949494949,50.0 550.0,50.15199671936085" fill="none" stroke="rgb(0,255,0)" stroke-width="1"/><circle cx="50.0" cy="57.6831411657588" r="2" fill="rgb(0,255,0)"/><circle cx="55.05050505050505" cy="56.11517972325129" r="2" fill="rgb(0,255,0)"/><circle cx="60.101010101010104" cy="55.76627506175049" r="2" fill="rgb(0,255,0)"/><circle cx="65.15151515151516" cy="56.023629408902366" r="2" fill="rgb(0,255,0)"/><circle cx="70.20202020202021" cy="56.53162374902132" r="2" fill="rgb(0,255,0)"/><circle cx="75.25252525252526" cy="56.44484666533708" r="2" fill="rgb(0,255,0)"/><circle cx="80.30303030303031" cy="56.22226797130378" r="2" fill="rgb(0,255,0)"/><circle cx="85.35353535353535" cy="56.39299931022606" r="2" fill="rgb(0,255,0)"/><circle cx="90.40404040404042" cy="55.717110337376255" r="2" fill="rgb(0,255,0)"/><circle cx="95.45454545454545" cy="55.05849348219476" r="2" fill="rgb(0,255,0)"/><circle cx="100.5050505050505" cy="55.1586772189375" r="2" fill="rgb(0,255,0)"/><circle cx="105.55555555555554" cy="54.81376841691281" r="2" fill="rgb(0,255,0)"/><circle cx="110.60606060606061" cy="54.60054051366649" r="2" fill="rgb(0,255,0)"/><circle cx="115.65656565656566" cy="54.47834785048326" r="2" fill="rgb(0,255,0)"/><circle cx="120.7070707070707" cy="55.33225886218173" r="2" fill="rgb(0,255,0)"/><circle cx="125.75757575757576" cy="54.94321407737675" r="2" fill="rgb(0,255,0)"/><circle cx="130.80808080808083" cy="54.67862104972846" r="2" fill="rgb(0,255,0)"/><circle cx="135.85858585858585" cy="54.32826543770085" r="2" fill="rgb(0,255,0)"/><circle cx="140.9090909090909" cy="54.43190822248209" r="2" fill="rgb(0,255,0)"/><circle cx="145.95959595959596" cy="54.44000921334833" r="2" fill="rgb(0,255,0)"/><circle cx="151.010101010101" cy="54.82134662138577" r="2" fill="rgb(0,255,0)"/><circle cx="156.06060606060606" cy="54.483728931014525" r="2" fill="rgb(0,255,0)"/><circle cx="161.1111111111111" cy="54.114345632311085" r="2" fill="rgb(0,255,0)"/><circle cx="166.16161616161617" cy="53.48458087033026" r="2" fill="rgb(0,255,0)"/><circle cx="171.21212121212122" cy="53.78827799642636" r="2" fill="rgb(0,255,0)"/><circle cx="176.26262626262627" cy="53.904933843445406" r="2" fill="rgb(0,255,0)"/><circle cx="181.31313131313132" cy="53.45272925119639" r="2" fill="rgb(0,255,0)"/><circle cx="186.36363636363635" cy="53.89027243830134" r="2" fill="rgb(0,255,0)"/><circle cx="191.4141414141414" cy="53.77974989580207" r="2" fill="rgb(0,255,0)"/><circle cx="196.46464646464648" cy="53.62886122821084" r="2" fill="rgb(0,255,0)"/><circle cx="201.51515151515153" cy="53.78827799642636" r="2" fill="rgb(0,255,0)"/><circle cx="206.56565656565658" cy="53.62886122821084" r="2" fill="rgb(0,255,0)"/><circle cx="211.61616161616163" cy="53.75691106777765" r="2" fill="rgb(0,255,0)"/><circle cx="216.66666666666666" cy="52.66744926265255" r="2" fill="rgb(0,255,0)"/><circle cx="221.7171717171717" cy="53.739698567743176" r="2" fill="rgb(0,255,0)"/><circle cx="226.76767676767676" cy="53.614417905628216" r="2" fill="rgb(0,255,0)"/><circle cx="231.8181818181818" cy="53.614417905628216" r="2" fill="rgb(0,255,0)"/><circle cx="236.86868686868686" cy="53.60602240018642" r="2" fill="rgb(0,255,0)"/><circle cx="241.91919191919192" cy="53.60602240018642" r="2" fill="rgb(0,255,0)"/><circle cx="246.96969696969697" cy="53.5975592117959" r="2" fill="rgb(0,255,0)"/><circle cx="252.02020202020202" cy="53.62640780596644" r="2" fill="rgb(0,255,0)"/><circle cx="257.07070707070704" cy="53.60602240018642" r="2" fill="rgb(0,255,0)"/><circle cx="262.1212121212121" cy="53.60602240018642" r="2" fill="rgb(0,255,0)"/><circle cx="267.1717171717172" cy="53.61334259510426" r="2" fill="rgb(0,255,0)"/><circle cx="272.2222222222222" cy="53.54543910069145" r="2" fill="rgb(0,255,0)"/><circle cx="277.27272727272725" cy="53.56622198882934" r="2" fill="rgb(0,255,0)"/><circle cx="282.32323232323233" cy="53.75691106777765" r="2" fill="rgb(0,255,0)"/><circle cx="287.3737373737374" cy="53.56622198882934" r="2" fill="rgb(0,255,0)"/><circle cx="292.42424242424244" cy="53.56622198882934" r="2" fill="rgb(0,255,0)"/><circle cx="297.47474747474746" cy="53.60602240018642" r="2" fill="rgb(0,255,0)"/><circle cx="302.52525252525254" cy="53.63530315825864" r="2" fill="rgb(0,255,0)"/><circle cx="307.57575757575756" cy="53.63530315825864" r="2" fill="rgb(0,255,0)"/><circle cx="312.62626262626264" cy="53.6377041258682" r="2" fill="rgb(0,255,0)"/><circle cx="317.67676767676767" cy="50.659386792343014" r="2" fill="rgb(0,255,0)"/><circle cx="322.7272727272727" cy="51.563724967395615" r="2" fill="rgb(0,255,0)"/><circle cx="327.77777777777777" cy="50.61265184250152" r="2" fill="rgb(0,255,0)"/><circle cx="332.8282828282828" cy="50.3849501804234" r="2" fill="rgb(0,255,0)"/><circle cx="337.8787878787879" cy="50.22691630277774" r="2" fill="rgb(0,255,0)"/><circle cx="342.92929292929296" cy="50.450834106676325" r="2" fill="rgb(0,255,0)"/><circle cx="347.979797979798" cy="50.229317270387355" r="2" fill="rgb(0,255,0)"/><circle cx="353.03030303030306" cy="50.22691630277774" r="2" fill="rgb(0,255,0)"/><circle cx="358.0808080808081" cy="50.32891074465272" r="2" fill="rgb(0,255,0)"/><circle cx="363.13131313131316" cy="50.22691630277774" r="2" fill="rgb(0,255,0)"/><circle cx="368.1818181818182" cy="50.22691630277774" r="2" fill="rgb(0,255,0)"/><circle cx="373.23232323232327" cy="50.229317270387355" r="2" fill="rgb(0,255,0)"/><circle cx="378.2828282828283" cy="50.149004876386186" r="2" fill="rgb(0,255,0)"/><circle cx="383.3333333333333" cy="50.22089505050582" r="2" fill="rgb(0,255,0)"/><circle cx="388.3838383838384" cy="50.22089505050582" r="2" fill="rgb(0,255,0)"/><circle cx="393.4343434343434" cy="50.22691630277774" r="2" fill="rgb(0,255,0)"/><circle cx="398.4848484848485" cy="50.154397686970526" r="2" fill="rgb(0,255,0)"/><circle cx="403.5353535353535" cy="50.15199671936085" r="2" fill="rgb(0,255,0)"/><circle cx="408.58585858585855" cy="50.084447568346434" r="2" fill="rgb(0,255,0)"/><circle cx="413.6363636363636" cy="50.15199671936085" r="2" fill="rgb(0,255,0)"/><circle cx="418.68686868686865" cy="50.15199671936085" r="2" fill="rgb(0,255,0)"/><circle cx="423.73737373737373" cy="50.15199671936085" r="2" fill="rgb(0,255,0)"/><circle cx="428.7878787878788" cy="50.116639513022506" r="2" fill="rgb(0,255,0)"/><circle cx="433.83838383838383" cy="50.15199671936085" r="2" fill="rgb(0,255,0)"/><circle cx="438.8888888888889" cy="50.132823891538294" r="2" fill="rgb(0,255,0)"/><circle cx="443.93939393939394" cy="50.08029150563641" r="2" fill="rgb(0,255,0)"/><circle cx="448.989898989899" cy="50.15199671936085" r="2" fill="rgb(0,255,0)"/><circle cx="454.04040404040404" cy="50.15199671936085" r="2" fill="rgb(0,255,0)"/><circle cx="459.0909090909091" cy="50.15199671936085" r="2" fill="rgb(0,255,0)"/><circle cx="464.14141414141415" cy="50.15199671936085" r="2" fill="rgb(0,255,0)"/><circle cx="469.19191919191917" cy="50.15199671936085" r="2" fill="rgb(0,255,0)"/><circle cx="474.24242424242425" cy="50.15199671936085" r="2" fill="rgb(0,255,0)"/><circle cx="479.2929292929293" cy="50.15199671936085" r="2" fill="rgb(0,255,0)"/><circle cx="484.34343434343435" cy="50.148021870593425" r="2" fill="rgb(0,255,0)"/><circle cx="489.3939393939394" cy="50.15179553047727" r="2" fill="rgb(0,255,0)"/><circle cx="494.4444444444444" cy="50.149394562867656" r="2" fill="rgb(0,255,0)"/><circle cx="499.4949494949495" cy="50.15179553047727" r="2" fill="rgb(0,255,0)"/><circle cx="504.5454545454545" cy="50.15199671936085" r="2" fill="rgb(0,255,0)"/><circle cx="509.59595959595964" cy="50.00988452994517" r="2" fill="rgb(0,255,0)"/><circle cx="514.6464646464647" cy="50.15199671936085" r="2" fill="rgb(0,255,0)"/><circle cx="519.6969696969697" cy="50.15199671936085" r="2" fill="rgb(0,255,0)"/><circle cx="524.7474747474748" cy="50.15199671936085" r="2" fill="rgb(0,255,0)"/><circle cx="529.7979797979798" cy="50.15199671936085" r="2" fill="rgb(0,255,0)"/><circle cx="534.8484848484849" cy="50.15199671936085" r="2" fill="rgb(0,255,0)"/><circle cx="539.8989898989898" cy="50.0" r="2" fill="rgb(0,255,0)"/><circle cx="544.9494949494949" cy="50.0" r="2" fill="rgb(0,255,0)"/><circle cx="550.0" cy="50.15199671936085" r="2" fill="rgb(0,255,0)"/><text x="350.0" y="20.0" text-anchor="middle" fill="rgb(0,0,0)" font-size="20.0">GA Demo</text><text x="350.0" y="575.0" text-anchor="middle" fill="rgb(0,0,0)" font-size="12.0">generation</text><text transform="rotate(-90.0 20.0 300.0)" x="20.0" y="300.0" text-anchor="middle" fill="rgb(0,0,0)" font-size="12.0">fitness</text><text x="620" y="62" fill="rgb(0,0,0)" font-size="12">min</text><text x="620" y="74" fill="rgb(0,0,255)" font-size="12">ave</text><text x="620" y="86" fill="rgb(0,255,0)" font-size="12">max</text>
      Sorry, your browser does not support inline SVG.
    </svg>