<?xml version='1.0' encoding='UTF-8'?>
<svg version="1.1" width="700.0" height="600.0" onload="init(evt)" xmlns="http://www.w3.org/2000/svg">
      <style>.caption {
  font-size: 14px;
  font-family: Georgia, serif;
}
</style>
      <script type="text/ecmascript"><![CDATA[
function init(evt) {
  if ( window.svgDocument == null ) {
    svgDocument = evt.target.ownerDocument;
  }
}

function RectHover(evt, i, c) {
  rect = svgDocument.getElementById('rect' + i);
  if( c != null ) {
    rect.setAttributeNS(null, "fill", c)  
  }
  tooltiptext = svgDocument.getElementById('tooltiptext' + i);
  tooltipbg = svgDocument.getElementById('tooltipbg' + i);
  if( tooltipbg != null) {
    tbb = tooltiptext.getBBox();
    tooltipbg.setAttributeNS(null, "width", tbb.width);
    tooltipbg.setAttributeNS(null, "height", tbb.height);
    tooltipbg.setAttributeNS(null, "x", tbb.x);
    tooltipbg.setAttributeNS(null, "y", tbb.y);
    tooltipbg.setAttributeNS(null, "visibility", "visible");
  }
  tooltiptext.setAttributeNS(null,"visibility","visible");
}

function RectUnhover(evt, i, c) {
  rect = svgDocument.getElementById('rect' + i);
  if( c != null ) {
    rect.setAttributeNS(null, "fill", c)  
  }
  tooltiptext = svgDocument.getElementById('tooltiptext' + i);
  tooltiptext.setAttributeNS(null,"visibility","hidden");
  tooltipbg = svgDocument.getElementById('tooltipbg' + i);
  if( tooltipbg != null ) {
    tooltipbg.setAttributeNS(null,"visibility","hidden");
  }
}
]]></script>
      <line x1="50.0" y1="550.0" x2="550.0" y2="550.0" stroke="rgb(0,0,0)" stroke-width="1"/><line x1="50.0" y1="550.0" x2="50.0" y2="50.0" stroke="rgb(0,0,0)" stroke-width="1"/><line x1="50.0" y1="550.0" x2="50.0" y2="50.0" stroke="rgb(192,192,192)" stroke-width="1"/><line x1="50.0" y1="548.0" x2="50.0" y2="552.0" stroke="rgb(192,192,192)" stroke-width="1"/><text text-anchor="middle" alignment-baseline="hanging" x="50.0" y="553.0" font-size="12.0">0</text><line x1="100.5050505050505" y1="550.0" x2="100.5050505050505" y2="50.0" stroke="rgb(192,192,192)" stroke-width="1"/><line x1="100.5050505050505" y1="548.0" x2="100.5050505050505" y2="552.0" stroke="rgb(192,192,192)" stroke-width="1"/><text text-anchor="middle" alignment-baseline="hanging" x="100.5050505050505" y="553.0" font-size="12.0">10</text><line x1="151.010101010101" y1="550.0" x2="151.010101010101" y2="50.0" stroke="rgb(192,192,192)" stroke-width="1"/><line x1="151.010101010101" y1="548.0" x2="151.010101010101" y2="552.0" stroke="rgb(192,192,192)" stroke-width="1"/><text text-anchor="middle" alignment-baseline="hanging" x="151.010101010101" y="553.0" font-size="12.0">20</text><line x1="201.51515151515153" y1="550.0" x2="201.51515151515153" y2="50.0" stroke="rgb(192,192,192)" stroke-width="1"/><line x1="201.51515151515153" y1="548.0" x2="201.51515151515153" y2="552.0" stroke="rgb(192,192,192)" stroke-width="1"/><text text-anchor="middle" alignment-baseline="hanging" x="201.51515151515153" y="553.0" font-size="12.0">30</text><line x1="252.02020202020202" y1="550.0" x2="252.02020202020202" y2="50.0" stroke="rgb(192,192,192)" stroke-width="1"/><line x1="252.02020202020202" y1="548.0" x2="252.02020202020202" y2="552.0" stroke="rgb(192,192,192)" stroke-width="1"/><text text-anchor="middle" alignment-baseline="hanging" x="252.02020202020202" y="553.0" font-size="12.0">40</text><line x1="302.52525252525254" y1="550.0" x2="302.52525252525254" y2="50.0" stroke="rgb(192,192,192)" stroke-width="1"/><line x1="302.52525252525254" y1="548.0" x2="302.52525252525254" y2="552.0" stroke="rgb(192,192,192)" stroke-width="1"/><text text-anchor="middle" alignment-baseline="hanging" x="302.52525252525254" y="553.0" font-size="12.0">50</text><line x1="353.03030303030306" y1="550.0" x2="353.03030303030306" y2="50.0" stroke="rgb(192,192,192)" stroke-width="1"/><line x1="353.03030303030306" y1="548.0" x2="353.03030303030306" y2="552.0" stroke="rgb(192,192,192)" stroke-width="1"/><text text-anchor="middle" alignment-baseline="hanging" x="353.03030303030306" y="553.0" font-size="12.0">60</text><line x1="403.5353535353535" y1="550.0" x2="403.5353535353535" y2="50.0" stroke="rgb(192,192,192)" stroke-width="1"/><line x1="403.5353535353535" y1="548.0" x2="403.5353535353535" y2="552.0" stroke="rgb(192,192,192)" stroke-width="1"/><text text-anchor="middle" alignment-baseline="hanging" x="403.5353535353535" y="553.0" font-size="12.0">70</text><line x1="454.04040404040404" y1="550.0" x2="454.04040404040404" y2="50.0" stroke="rgb(192,192,192)" stroke-width="1"/><line x1="454.04040404040404" y1="548.0" x2="454.04040404040404" y2="552.0" stroke="rgb(192,192,192)" stroke-width="1"/><text text-anchor="middle" alignment-baseline="hanging" x="454.04040404040404" y="553.0" font-size="12.0">80</text><line x1="504.5454545454545" y1="550.0" x2="504.5454545454545" y2="50.0" stroke="rgb(192,192,192)" stroke-width="1"/><line x1="504.5454545454545" y1="548.0" x2="504.5454545454545" y2="552.0" stroke="rgb(192,192,192)" stroke-width="1"/><text text-anchor="middle" alignment-baseline="hanging" x="504.5454545454545" y="553.0" font-size="12.0">90</text><line x1="50.0" y1="550.0" x2="550.0" y2="550.0" stroke="rgb(192,192,192)" stroke-width="1"/><text text-anchor="end" alignment-baseline="middle" x="45.0" y="550.0" font-size="12.0">0.0</text><line x1="48.0" y1="550.0" x2="52.0" y2="550.0" stroke="rgb(192,192,192)" stroke-width="1"/><line x1="50.0" y1="368.0018935635828" x2="550.0" y2="368.0018935635828" stroke="rgb(192,192,192)" stroke-width="1"/><text text-anchor="end" alignment-baseline="middle" x="45.0" y="368.0018935635828" font-size="12.0">1000.0</text><line x1="48.0" y1="368.0018935635828" x2="52.0" y2="368.0018935635828" stroke="rgb(192,192,192)" stroke-width="1"/><line x1="50.0" y1="186.00378712716565" x2="550.0" y2="186.00378712716565" stroke="rgb(192,192,192)" stroke-width="1"/><text text-anchor="end" alignment-baseline="middle" x="45.0" y="186.00378712716565" font-size="12.0">2000.0</text><line x1="48.0" y1="186.00378712716565" x2="52.0" y2="186.00378712716565" stroke="rgb(192,192,192)" stroke-width="1"/><polyline points="50.0,432.6957005348705 55.05050505050505,411.3468646904065 60.101010101010104,408.7565511500044 65.15151515151516,407.7475641426689 70.20202020202021,356.15103639484573 75.25252525252526,356.6465407478544 80.30303030303031,393.1750632766643 85.35353535353535,370.43958906552854 90.40404040404042,370.627202554632 95.45454545454545,372.8789168094179 100.5050505050505,406.1765494367075 105.55555555555554,424.25894267368693 110.60606060606061,211.3313580306036 115.65656565656566,354.4257625278417 120.7070707070707,352.6295446374584 125.75757575757576,369.87687231548466 130.80808080808083,394.99110004083377 135.85858585858585,343.7130607700733 140.9090909090909,330.0009580615474 145.95959595959596,339.1336548889836 151.010101010101,339.40507389098866 156.06060606060606,350.2490426307036 161.1111111111111,395.8854552690598 166.16161616161617,363.597362196634 171.21212121212122,193.3766279659024 176.26262626262627,281.12565911172055 181.31313131313132,294.45365217072197 186.36363636363635,403.6436115414664 191.4141414141414,399.16338380255576 196.46464646464648,415.1680506356851 201.51515151515153,398.21831922198373 206.56565656565658,392.34415874636704 211.61616161616163,393.2754797407056 216.66666666666666,387.874196250359 221.7171717171717,407.19019737358724 226.76767676767676,369.86611566401393 231.8181818181818,296.25597156337335 236.86868686868686,353.3267141146047 241.91919191919192,322.9810953400146 246.96969696969697,405.010612533148 252.02020202020202,259.7644673945659 257.07070707070704,401.7740294952585 262.1212121212121,352.47772915343535 267.1717171717172,351.72371796631984 272.2222222222222,350.5850902816002 277.27272727272725,409.1512871717216 282.32323232323233,350.8685693898125 287.3737373737374,356.8637621070233 292.42424242424244,351.3940079932771 297.47474747474746,390.4562681108299 302.52525252525254,269.7816712949208 307.57575757575756,217.42295926130055 312.62626262626264,337.58834459571267 317.67676767676767,338.24367841498065 322.7272727272727,385.13786926416356 327.77777777777777,385.13786926416356 332.8282828282828,274.6358681416885 337.8787878787879,298.7742778704387 342.92929292929296,274.5068087828519 347.979797979798,274.2653501564557 353.03030303030306,268.1877581523586 358.0808080808081,318.2063044637702 363.13131313131316,379.86329777450965 368.1818181818182,340.67259869759266 373.23232323232327,343.4820848953433 378.2828282828283,313.6843255881405 383.3333333333333,313.8381957285892 388.3838383838384,392.05232721969674 393.4343434343434,374.47636621899863 398.4848484848485,392.6761768626403 403.5353535353535,394.7811178549154 408.58585858585855,281.12675929273 413.6363636363636,325.612958645303 418.68686868686865,347.6053912135333 423.73737373737373,346.9732640006385 428.7878787878788,226.1545353276221 433.83838383838383,335.7338570623072 438.8888888888889,373.03060569417966 443.93939393939394,364.0016044663266 448.989898989899,396.3947316590327 454.04040404040404,395.3059724789824 459.0909090909091,211.60378722623528 464.14141414141415,235.02739123205384 469.19191919191917,298.09041541116466 474.24242424242425,301.16895320449805 479.2929292929293,288.18889119306516 484.34343434343435,328.82949526079835 489.3939393939394,410.8004513596235 494.4444444444444,411.8027961380561 499.4949494949495,411.18931010526296 504.5454545454545,412.7847095030022 509.59595959595964,410.5832326074311 514.6464646464647,406.36707102412765 519.6969696969697,232.81873346096336 524.7474747474748,398.8326655182548 529.7979797979798,217.2965941471665 534.8484848484849,381.1495473774525 539.8989898989898,381.16643677802836 544.9494949494949,381.23904810883454 550.0,385.8184244305853" fill="none" stroke="rgb(0,0,0)" stroke-width="1"/><circle cx="50.0" cy="432.6957005348705" r="2" fill="rgb(0,0,0)"/><circle cx="55.05050505050505" cy="411.3468646904065" r="2" fill="rgb(0,0,0)"/><circle cx="60.101010101010104" cy="408.7565511500044" r="2" fill="rgb(0,0,0)"/><circle cx="65.15151515151516" cy="407.7475641426689" r="2" fill="rgb(0,0,0)"/><circle cx="70.20202020202021" cy="356.15103639484573" r="2" fill="rgb(0,0,0)"/><circle cx="75.25252525252526" cy="356.6465407478544" r="2" fill="rgb(0,0,0)"/><circle cx="80.30303030303031" cy="393.1750632766643" r="2" fill="rgb(0,0,0)"/><circle cx="85.35353535353535" cy="370.43958906552854" r="2" fill="rgb(0,0,0)"/><circle cx="90.40404040404042" cy="370.627202554632" r="2" fill="rgb(0,0,0)"/><circle cx="95.45454545454545" cy="372.8789168094179" r="2" fill="rgb(0,0,0)"/><circle cx="100.5050505050505" cy="406.1765494367075" r="2" fill="rgb(0,0,0)"/><circle cx="105.55555555555554" cy="424.25894267368693" r="2" fill="rgb(0,0,0)"/><circle cx="110.60606060606061" cy="211.3313580306036" r="2" fill="rgb(0,0,0)"/><circle cx="115.65656565656566" cy="354.4257625278417" r="2" fill="rgb(0,0,0)"/><circle cx="120.7070707070707" cy="352.6295446374584" r="2" fill="rgb(0,0,0)"/><circle cx="125.75757575757576" cy="369.87687231548466" r="2" fill="rgb(0,0,0)"/><circle cx="130.80808080808083" cy="394.99110004083377" r="2" fill="rgb(0,0,0)"/><circle cx="135.85858585858585" cy="343.7130607700733" r="2" fill="rgb(0,0,0)"/><circle cx="140.9090909090909" cy="330.0009580615474" r="2" fill="rgb(0,0,0)"/><circle cx="145.95959595959596" cy="339.1336548889836" r="2" fill="rgb(0,0,0)"/><circle cx="151.010101010101" cy="339.40507389098866" r="2" fill="rgb(0,0,0)"/><circle cx="156.06060606060606" cy="350.2490426307036" r="2" fill="rgb(0,0,0)"/><circle cx="161.1111111111111" cy="395.8854552690598" r="2" fill="rgb(0,0,0)"/><circle cx="166.16161616161617" cy="363.597362196634" r="2" fill="rgb(0,0,0)"/><circle cx="171.21212121212122" cy="193.3766279659024" r="2" fill="rgb(0,0,0)"/><circle cx="176.26262626262627" cy="281.12565911172055" r="2" fill="rgb(0,0,0)"/><circle cx="181.31313131313132" cy="294.45365217072197" r="2" fill="rgb(0,0,0)"/><circle cx="186.36363636363635" cy="403.6436115414664" r="2" fill="rgb(0,0,0)"/><circle cx="191.4141414141414" cy="399.16338380255576" r="2" fill="rgb(0,0,0)"/><circle cx="196.46464646464648" cy="415.1680506356851" r="2" fill="rgb(0,0,0)"/><circle cx="201.51515151515153" cy="398.21831922198373" r="2" fill="rgb(0,0,0)"/><circle cx="206.56565656565658" cy="392.34415874636704" r="2" fill="rgb(0,0,0)"/><circle cx="211.61616161616163" cy="393.2754797407056" r="2" fill="rgb(0,0,0)"/><circle cx="216.66666666666666" cy="387.874196250359" r="2" fill="rgb(0,0,0)"/><circle cx="221.7171717171717" cy="407.19019737358724" r="2" fill="rgb(0,0,0)"/><circle cx="226.76767676767676" cy="369.86611566401393" r="2" fill="rgb(0,0,0)"/><circle cx="231.8181818181818" cy="296.25597156337335" r="2" fill="rgb(0,0,0)"/><circle cx="236.86868686868686" cy="353.3267141146047" r="2" fill="rgb(0,0,0)"/><circle cx="241.91919191919192" cy="322.9810953400146" r="2" fill="rgb(0,0,0)"/><circle cx="246.96969696969697" cy="405.010612533148" r="2" fill="rgb(0,0,0)"/><circle cx="252.02020202020202" cy="259.7644673945659" r="2" fill="rgb(0,0,0)"/><circle cx="257.07070707070704" cy="401.7740294952585" r="2" fill="rgb(0,0,0)"/><circle cx="262.1212121212121" cy="352.47772915343535" r="2" fill="rgb(0,0,0)"/><circle cx="267.1717171717172" cy="351.72371796631984" r="2" fill="rgb(0,0,0)"/><circle cx="272.2222222222222" cy="350.5850902816002" r="2" fill="rgb(0,0,0)"/><circle cx="277.27272727272725" cy="409.1512871717216" r="2" fill="rgb(0,0,0)"/><circle cx="282.32323232323233" cy="350.8685693898125" r="2" fill="rgb(0,0,0)"/><circle cx="287.3737373737374" cy="356.8637621070233" r="2" fill="rgb(0,0,0)"/><circle cx="292.42424242424244" cy="351.3940079932771" r="2" fill="rgb(0,0,0)"/><circle cx="297.47474747474746" cy="390.4562681108299" r="2" fill="rgb(0,0,0)"/><circle cx="302.52525252525254" cy="269.7816712949208" r="2" fill="rgb(0,0,0)"/><circle cx="307.57575757575756" cy="217.42295926130055" r="2" fill="rgb(0,0,0)"/><circle cx="312.62626262626264" cy="337.58834459571267" r="2" fill="rgb(0,0,0)"/><circle cx="317.67676767676767" cy="338.24367841498065" r="2" fill="rgb(0,0,0)"/><circle cx="322.7272727272727" cy="385.13786926416356" r="2" fill="rgb(0,0,0)"/><circle cx="327.77777777777777" cy="385.13786926416356" r="2" fill="rgb(0,0,0)"/><circle cx="332.8282828282828" cy="274.6358681416885" r="2" fill="rgb(0,0,0)"/><circle cx="337.8787878787879" cy="298.7742778704387" r="2" fill="rgb(0,0,0)"/><circle cx="342.92929292929296" cy="274.5068087828519" r="2" fill="rgb(0,0,0)"/><circle cx="347.979797979798" cy="274.2653501564557" r="2" fill="rgb(0,0,0)"/><circle cx="353.03030303030306" cy="268.1877581523586" r="2" fill="rgb(0,0,0)"/><circle cx="358.0808080808081" cy="318.2063044637702" r="2" fill="rgb(0,0,0)"/><circle cx="363.13131313131316" cy="379.86329777450965" r="2" fill="rgb(0,0,0)"/><circle cx="368.1818181818182" cy="340.67259869759266" r="2" fill="rgb(0,0,0)"/><circle cx="373.23232323232327" cy="343.4820848953433" r="2" fill="rgb(0,0,0)"/><circle cx="378.2828282828283" cy="313.6843255881405" r="2" fill="rgb(0,0,0)"/><circle cx="383.3333333333333" cy="313.8381957285892" r="2" fill="rgb(0,0,0)"/><circle cx="388.3838383838384" cy="392.05232721969674" r="2" fill="rgb(0,0,0)"/><circle cx="393.4343434343434" cy="374.47636621899863" r="2" fill="rgb(0,0,0)"/><circle cx="398.4848484848485" cy="392.6761768626403" r="2" fill="rgb(0,0,0)"/><circle cx="403.5353535353535" cy="394.7811178549154" r="2" fill="rgb(0,0,0)"/><circle cx="408.58585858585855" cy="281.12675929273" r="2" fill="rgb(0,0,0)"/><circle cx="413.6363636363636" cy="325.612958645303" r="2" fill="rgb(0,0,0)"/><circle cx="418.68686868686865" cy="347.6053912135333" r="2" fill="rgb(0,0,0)"/><circle cx="423.73737373737373" cy="346.9732640006385" r="2" fill="rgb(0,0,0)"/><circle cx="428.7878787878788" cy="226.1545353276221" r="2" fill="rgb(0,0,0)"/><circle cx="433.83838383838383" cy="335.7338570623072" r="2" fill="rgb(0,0,0)"/><circle cx="438.8888888888889" cy="373.03060569417966" r="2" fill="rgb(0,0,0)"/><circle cx="443.93939393939394" cy="364.0016044663266" r="2" fill="rgb(0,0,0)"/><circle cx="448.989898989899" cy="396.3947316590327" r="2" fill="rgb(0,0,0)"/><circle cx="454.04040404040404" cy="395.3059724789824" r="2" fill="rgb(0,0,0)"/><circle cx="459.0909090909091" cy="211.60378722623528" r="2" fill="rgb(0,0,0)"/><circle cx="464.14141414141415" cy="235.02739123205384" r="2" fill="rgb(0,0,0)"/><circle cx="469.19191919191917" cy="298.09041541116466" r="2" fill="rgb(0,0,0)"/><circle cx="474.24242424242425" cy="301.16895320449805" r="2" fill="rgb(0,0,0)"/><circle cx="479.2929292929293" cy="288.18889119306516" r="2" fill="rgb(0,0,0)"/><circle cx="484.34343434343435" cy="328.82949526079835" r="2" fill="rgb(0,0,0)"/><circle cx="489.3939393939394" cy="410.8004513596235" r="2" fill="rgb(0,0,0)"/><circle cx="494.4444444444444" cy="411.8027961380561" r="2" fill="rgb(0,0,0)"/><circle cx="499.4949494949495" cy="411.18931010526296" r="2" fill="rgb(0,0,0)"/><circle cx="504.5454545454545" cy="412.7847095030022" r="2" fill="rgb(0,0,0)"/><circle cx="509.59595959595964" cy="410.5832326074311" r="2" fill="rgb(0,0,0)"/><circle cx="514.6464646464647" cy="406.36707102412765" r="2" fill="rgb(0,0,0)"/><circle cx="519.6969696969697" cy="232.81873346096336" r="2" fill="rgb(0,0,0)"/><circle cx="524.7474747474748" cy="398.8326655182548" r="2" fill="rgb(0,0,0)"/><circle cx="529.7979797979798" cy="217.2965941471665" r="2" fill="rgb(0,0,0)"/><circle cx="534.8484848484849" cy="381.1495473774525" r="2" fill="rgb(0,0,0)"/><circle cx="539.8989898989898" cy="381.16643677802836" r="2" fill="rgb(0,0,0)"/><circle cx="544.9494949494949" cy="381.23904810883454" r="2" fill="rgb(0,0,0)"/><circle cx="550.0" cy="385.8184244305853" r="2" fill="rgb(0,0,0)"/><polyline points="50.0,202.74519735370524 55.05050505050505,186.323916444495 60.101010101010104,168.03533689246882 65.15151515151516,138.25787247897074 70.20202020202021,120.49035833630023 75.25252525252526,111.26995378661513 80.30303030303031,99.36085429422508 85.35353535353535,98.44090388393118 90.40404040404042,94.83730284664108 95.45454545454545,95.03972670024638 100.5050505050505,96.67987545908323 105.55555555555554,95.72927119950452 110.60606060606061,77.47455456848729 115.65656565656566,75.39862171873216 120.7070707070707,74.54879058638494 125.75757575757576,87.6757714275235 130.80808080808083,85.81405652748867 135.85858585858585,76.12925707243608 140.9090909090909,73.69670974894564 145.95959595959596,72.50332684780568 151.010101010101,66.40340836713608 156.06060606060606,67.11822955806741 161.1111111111111,66.44165745149388 166.16161616161617,69.47588765769706 171.21212121212122,58.45754340237113 176.26262626262627,65.00273286127629 181.31313131313132,71.78257192439474 186.36363636363635,75.46584575468535 191.4141414141414,76.14775964044009 196.46464646464648,81.54075800234409 201.51515151515153,68.63617008761508 206.56565656565658,67.28746194261083 211.61616161616163,74.15426957785138 216.66666666666666,62.03815811051561 221.7171717171717,64.71560925225282 226.76767676767676,62.4338128269473 231.8181818181818,61.17373398268728 236.86868686868686,62.022481212839295 241.91919191919192,59.995454787819995 246.96969696969697,63.80568500085565 252.02020202020202,56.92186173544292 257.07070707070704,67.89739632208727 262.1212121212121,65.41306363626609 267.1717171717172,75.97498136970574 272.2222222222222,65.85203981960109 277.27272727272725,72.52425379387705 282.32323232323233,65.04719537773758 287.3737373737374,68.94315970922855 292.42424242424244,62.77555054548236 297.47474747474746,63.1295113823648 302.52525252525254,60.521361651321115 307.57575757575756,57.19772838185378 312.62626262626264,57.917030640194014 317.67676767676767,59.12030324598351 322.7272727272727,64.46192668795277 327.77777777777777,62.05571309079994 332.8282828282828,64.01494840804628 337.8787878787879,63.971762150595396 342.92929292929296,60.934401717397975 347.979797979798,63.36038454122399 353.03030303030306,62.79417034091017 358.0808080808081,64.99121800067854 363.13131313131316,72.11805911976893 368.1818181818182,70.38096443191193 373.23232323232327,72.13288264814219 378.2828282828283,63.27107475807492 383.3333333333333,64.08392176694838 388.3838383838384,65.9572965493686 393.4343434343434,63.488999375777894 398.4848484848485,57.83242946261248 403.5353535353535,68.76558114806983 408.58585858585855,58.42339978930835 413.6363636363636,64.30373606717785 418.68686868686865,69.16019678857975 423.73737373737373,64.36069845688911 428.7878787878788,55.14203713050091 433.83838383838383,60.072045953808924 438.8888888888889,62.440432905236435 443.93939393939394,60.917460436181784 448.989898989899,60.46003091341714 454.04040404040404,61.210068045777234 459.0909090909091,53.62071763151505 464.14141414141415,55.443199074986524 469.19191919191917,59.26238834937459 474.24242424242425,59.97613976538787 479.2929292929293,58.87846061408641 484.34343434343435,62.809844610089556 489.3939393939394,69.88986441954063 494.4444444444444,71.03768286790023 499.4949494949495,67.42364245238838 504.5454545454545,64.78743074879606 509.59595959595964,66.88682807532393 514.6464646464647,67.25595655254193 519.6969696969697,61.64815286398817 524.7474747474748,60.3544103410494 529.7979797979798,55.13659438578054 534.8484848484849,64.05677682057171 539.8989898989898,68.54315560884828 544.9494949494949,70.40654952272234 550.0,70.24620161509813" fill="none" stroke="rgb(0,0,255)" stroke-width="1"/><circle cx="50.0" cy="202.74519735370524" r="2" fill="rgb(0,0,255)"/><circle cx="55.05050505050505" cy="186.323916444495" r="2" fill="rgb(0,0,255)"/><circle cx="60.101010101010104" cy="168.03533689246882" r="2" fill="rgb(0,0,255)"/><circle cx="65.15151515151516" cy="138.25787247897074" r="2" fill="rgb(0,0,255)"/><circle cx="70.20202020202021" cy="120.49035833630023" r="2" fill="rgb(0,0,255)"/><circle cx="75.25252525252526" cy="111.26995378661513" r="2" fill="rgb(0,0,255)"/><circle cx="80.30303030303031" cy="99.36085429422508" r="2" fill="rgb(0,0,255)"/><circle cx="85.35353535353535" cy="98.44090388393118" r="2" fill="rgb(0,0,255)"/><circle cx="90.40404040404042" cy="94.83730284664108" r="2" fill="rgb(0,0,255)"/><circle cx="95.45454545454545" cy="95.03972670024638" r="2" fill="rgb(0,0,255)"/><circle cx="100.5050505050505" cy="96.67987545908323" r="2" fill="rgb(0,0,255)"/><circle cx="105.55555555555554" cy="95.72927119950452" r="2" fill="rgb(0,0,255)"/><circle cx="110.60606060606061" cy="77.47455456848729" r="2" fill="rgb(0,0,255)"/><circle cx="115.65656565656566" cy="75.39862171873216" r="2" fill="rgb(0,0,255)"/><circle cx="120.7070707070707" cy="74.54879058638494" r="2" fill="rgb(0,0,255)"/><circle cx="125.75757575757576" cy="87.6757714275235" r="2" fill="rgb(0,0,255)"/><circle cx="130.80808080808083" cy="85.81405652748867" r="2" fill="rgb(0,0,255)"/><circle cx="135.85858585858585" cy="76.12925707243608" r="2" fill="rgb(0,0,255)"/><circle cx="140.9090909090909" cy="73.69670974894564" r="2" fill="rgb(0,0,255)"/><circle cx="145.95959595959596" cy="72.50332684780568" r="2" fill="rgb(0,0,255)"/><circle cx="151.010101010101" cy="66.40340836713608" r="2" fill="rgb(0,0,255)"/><circle cx="156.06060606060606" cy="67.11822955806741" r="2" fill="rgb(0,0,255)"/><circle cx="161.1111111111111" cy="66.44165745149388" r="2" fill="rgb(0,0,255)"/><circle cx="166.16161616161617" cy="69.47588765769706" r="2" fill="rgb(0,0,255)"/><circle cx="171.21212121212122" cy="58.45754340237113" r="2" fill="rgb(0,0,255)"/><circle cx="176.26262626262627" cy="65.00273286127629" r="2" fill="rgb(0,0,255)"/><circle cx="181.31313131313132" cy="71.78257192439474" r="2" fill="rgb(0,0,255)"/><circle cx="186.36363636363635" cy="75.46584575468535" r="2" fill="rgb(0,0,255)"/><circle cx="191.4141414141414" cy="76.14775964044009" r="2" fill="rgb(0,0,255)"/><circle cx="196.46464646464648" cy="81.54075800234409" r="2" fill="rgb(0,0,255)"/><circle cx="201.51515151515153" cy="68.63617008761508" r="2" fill="rgb(0,0,255)"/><circle cx="206.56565656565658" cy="67.28746194261083" r="2" fill="rgb(0,0,255)"/><circle cx="211.61616161616163" cy="74.15426957785138" r="2" fill="rgb(0,0,255)"/><circle cx="216.66666666666666" cy="62.03815811051561" r="2" fill="rgb(0,0,255)"/><circle cx="221.7171717171717" cy="64.71560925225282" r="2" fill="rgb(0,0,255)"/><circle cx="226.76767676767676" cy="62.4338128269473" r="2" fill="rgb(0,0,255)"/><circle cx="231.8181818181818" cy="61.17373398268728" r="2" fill="rgb(0,0,255)"/><circle cx="236.86868686868686" cy="62.022481212839295" r="2" fill="rgb(0,0,255)"/><circle cx="241.91919191919192" cy="59.995454787819995" r="2" fill="rgb(0,0,255)"/><circle cx="246.96969696969697" cy="63.80568500085565" r="2" fill="rgb(0,0,255)"/><circle cx="252.02020202020202" cy="56.92186173544292" r="2" fill="rgb(0,0,255)"/><circle cx="257.07070707070704" cy="67.89739632208727" r="2" fill="rgb(0,0,255)"/><circle cx="262.1212121212121" cy="65.41306363626609" r="2" fill="rgb(0,0,255)"/><circle cx="267.1717171717172" cy="75.97498136970574" r="2" fill="rgb(0,0,255)"/><circle cx="272.2222222222222" cy="65.85203981960109" r="2" fill="rgb(0,0,255)"/><circle cx="277.27272727272725" cy="72.52425379387705" r="2" fill="rgb(0,0,255)"/><circle cx="282.32323232323233" cy="65.04719537773758" r="2" fill="rgb(0,0,255)"/><circle cx="287.3737373737374" cy="68.94315970922855" r="2" fill="rgb(0,0,255)"/><circle cx="292.42424242424244" cy="62.77555054548236" r="2" fill="rgb(0,0,255)"/><circle cx="297.47474747474746" cy="63.1295113823648" r="2" fill="rgb(0,0,255)"/><circle cx="302.52525252525254" cy="60.521361651321115" r="2" fill="rgb(0,0,255)"/><circle cx="307.57575757575756" cy="57.19772838185378" r="2" fill="rgb(0,0,255)"/><circle cx="312.62626262626264" cy="57.917030640194014" r="2" fill="rgb(0,0,255)"/><circle cx="317.67676767676767" cy="59.12030324598351" r="2" fill="rgb(0,0,255)"/><circle cx="322.7272727272727" cy="64.46192668795277" r="2" fill="rgb(0,0,255)"/><circle cx="327.77777777777777" cy="62.05571309079994" r="2" fill="rgb(0,0,255)"/><circle cx="332.8282828282828" cy="64.01494840804628" r="2" fill="rgb(0,0,255)"/><circle cx="337.8787878787879" cy="63.971762150595396" r="2" fill="rgb(0,0,255)"/><circle cx="342.92929292929296" cy="60.934401717397975" r="2" fill="rgb(0,0,255)"/><circle cx="347.979797979798" cy="63.36038454122399" r="2" fill="rgb(0,0,255)"/><circle cx="353.03030303030306" cy="62.79417034091017" r="2" fill="rgb(0,0,255)"/><circle cx="358.0808080808081" cy="64.99121800067854" r="2" fill="rgb(0,0,255)"/><circle cx="363.13131313131316" cy="72.11805911976893" r="2" fill="rgb(0,0,255)"/><circle cx="368.1818181818182" cy="70.38096443191193" r="2" fill="rgb(0,0,255)"/><circle cx="373.23232323232327" cy="72.13288264814219" r="2" fill="rgb(0,0,255)"/><circle cx="378.2828282828283" cy="63.27107475807492" r="2" fill="rgb(0,0,255)"/><circle cx="383.3333333333333" cy="64.08392176694838" r="2" fill="rgb(0,0,255)"/><circle cx="388.3838383838384" cy="65.9572965493686" r="2" fill="rgb(0,0,255)"/><circle cx="393.4343434343434" cy="63.488999375777894" r="2" fill="rgb(0,0,255)"/><circle cx="398.4848484848485" cy="57.83242946261248" r="2" fill="rgb(0,0,255)"/><circle cx="403.5353535353535" cy="68.76558114806983" r="2" fill="rgb(0,0,255)"/><circle cx="408.58585858585855" cy="58.42339978930835" r="2" fill="rgb(0,0,255)"/><circle cx="413.6363636363636" cy="64.30373606717785" r="2" fill="rgb(0,0,255)"/><circle cx="418.68686868686865" cy="69.16019678857975" r="2" fill="rgb(0,0,255)"/><circle cx="423.73737373737373" cy="64.36069845688911" r="2" fill="rgb(0,0,255)"/><circle cx="428.7878787878788" cy="55.14203713050091" r="2" fill="rgb(0,0,255)"/><circle cx="433.83838383838383" cy="60.072045953808924" r="2" fill="rgb(0,0,255)"/><circle cx="438.8888888888889" cy="62.440432905236435" r="2" fill="rgb(0,0,255)"/><circle cx="443.93939393939394" cy="60.917460436181784" r="2" fill="rgb(0,0,255)"/><circle cx="448.989898989899" cy="60.46003091341714" r="2" fill="rgb(0,0,255)"/><circle cx="454.04040404040404" cy="61.210068045777234" r="2" fill="rgb(0,0,255)"/><circle cx="459.0909090909091" cy="53.62071763151505" r="2" fill="rgb(0,0,255)"/><circle cx="464.14141414141415" cy="55.443199074986524" r="2" fill="rgb(0,0,255)"/><circle cx="469.19191919191917" cy="59.26238834937459" r="2" fill="rgb(0,0,255)"/><circle cx="474.24242424242425" cy="59.97613976538787" r="2" fill="rgb(0,0,255)"/><circle cx="479.2929292929293" cy="58.87846061408641" r="2" fill="rgb(0,0,255)"/><circle cx="484.34343434343435" cy="62.809844610089556" r="2" fill="rgb(0,0,255)"/><circle cx="489.3939393939394" cy="69.88986441954063" r="2" fill="rgb(0,0,255)"/><circle cx="494.4444444444444" cy="71.03768286790023" r="2" fill="rgb(0,0,255)"/><circle cx="499.4949494949495" cy="67.42364245238838" r="2" fill="rgb(0,0,255)"/><circle cx="504.5454545454545" cy="64.78743074879606" r="2" fill="rgb(0,0,255)"/><circle cx="509.59595959595964" cy="66.88682807532393" r="2" fill="rgb(0,0,255)"/><circle cx="514.6464646464647" cy="67.25595655254193" r="2" fill="rgb(0,0,255)"/><circle cx="519.6969696969697" cy="61.64815286398817" r="2" fill="rgb(0,0,255)"/><circle cx="524.7474747474748" cy="60.3544103410494" r="2" fill="rgb(0,0,255)"/><circle cx="529.7979797979798" cy="55.13659438578054" r="2" fill="rgb(0,0,255)"/><circle cx="534.8484848484849" cy="64.05677682057171" r="2" fill="rgb(0,0,255)"/><circle cx="539.8989898989898" cy="68.54315560884828" r="2" fill="rgb(0,0,255)"/><circle cx="544.9494949494949" cy="70.40654952272234" r="2" fill="rgb(0,0,255)"/><circle cx="550.0" cy="70.24620161509813" r="2" fill="rgb(0,0,255)"/><polyline points="50.0,56.51362631652859 55.05050505050505,56.735848307638435 60.101010101010104,56.95850231445149 65.15151515151516,55.5295657387781 70.20202020202021,56.264660460712776 75.25252525252526,55.07430979671693 80.30303030303031,55.606262027842945 85.35353535353535,56.46017886137861 90.40404040404042,54.7508483039482 95.45454545454545,54.980343615511 100.5050505050505,55.37916261299438 105.55555555555554,56.544998335664104 110.60606060606061,55.409344751820015 115.65656565656566,54.837377991482526 120.7070707070707,54.1852391803057 125.75757575757576,54.1852391803057 130.80808080808083,55.026421517237225 135.85858585858585,54.85597339477346 140.9090909090909,54.805578015059325 145.95959595959596,54.90734083914697 151.010101010101,54.023170642445734 156.06060606060606,53.8817885111614 161.1111111111111,53.8817885111614 166.16161616161617,54.265571879030574 171.21212121212122,54.038338671311124 176.26262626262627,53.971951821571224 181.31313131313132,53.68022169320159 186.36363636363635,53.59944956363216 191.4141414141414,53.51061391742843 196.46464646464648,53.38715296462226 201.51515151515153,53.96465995902156 206.56565656565658,53.781819497470565 211.61616161616163,53.582655121619325 216.66666666666666,53.3697081023181 221.7171717171717,53.61588444125783 226.76767676767676,53.43351450741949 231.8181818181818,53.415885910353495 236.86868686868686,51.266526571429495 241.91919191919192,53.20300477376287 246.96969696969697,53.06912648631612 252.02020202020202,53.06912648631612 257.07070707070704,53.32620403803526 262.1212121212121,53.28674265535915 267.1717171717172,53.30976533486137 272.2222222222222,53.13641790979352 277.27272727272725,53.13760204115937 282.32323232323233,53.13760204115937 287.3737373737374,53.06912648631612 292.42424242424244,53.34447332127496 297.47474747474746,53.31057629492159 302.52525252525254,53.2182671005159 307.57575757575756,53.06912648631612 312.62626262626264,53.181513908384545 317.67676767676767,53.14989861588555 322.7272727272727,53.14989861588555 327.77777777777777,53.138536865395906 332.8282828282828,53.05776473582648 337.8787878787879,53.05776473582648 342.92929292929296,53.181513908384545 347.979797979798,53.06912648631612 353.03030303030306,53.12162293135265 358.0808080808081,53.102189634635295 363.13131313131316,53.05776473582648 368.1818181818182,53.02699699490785 373.23232323232327,53.02699699490785 378.2828282828283,52.853309153541204 383.3333333333333,50.18974911083171 388.3838383838384,50.2194204801844 393.4343434343434,50.38128821560298 398.4848484848485,50.24030711528138 403.5353535353535,50.20805872969481 408.58585858585855,50.252483628503626 413.6363636363636,50.20805872969481 418.68686868686865,50.20805872969481 423.73737373737373,50.20805872969481 428.7878787878788,50.17729098877612 433.83838383838383,50.17729098877612 438.8888888888889,50.17729098877612 443.93939393939394,50.17729098877612 448.989898989899,50.17729098877612 454.04040404040404,50.11704619826145 459.0909090909091,50.14781393918014 464.14141414141415,50.17729098877612 469.19191919191917,50.130041851951546 474.24242424242425,50.12886354489319 479.2929292929293,50.14781393918014 484.34343434343435,50.11855799831278 489.3939393939394,50.11855799831278 494.4444444444444,50.058313207798165 499.4949494949495,50.05188345494537 504.5454545454545,50.05188345494537 509.59595959595964,50.00345601106238 514.6464646464647,50.00551700477354 519.6969696969697,50.05188345494537 524.7474747474748,50.03936281351122 529.7979797979798,50.03936281351122 534.8484848484849,50.02548447316826 539.8989898989898,50.02548447316826 544.9494949494949,50.01733435140528 550.0,50.0" fill="none" stroke="rgb(0,255,0)" stroke-width="1"/><circle cx="50.0" cy="56.51362631652859" r="2" fill="rgb(0,255,0)"/><circle cx="55.05050505050505" cy="56.735848307638435" r="2" fill="rgb(0,255,0)"/><circle cx="60.101010101010104" cy="56.95850231445149" r="2" fill="rgb(0,255,0)"/><circle cx="65.15151515151516" cy="55.5295657387781" r="2" fill="rgb(0,255,0)"/><circle cx="70.20202020202021" cy="56.264660460712776" r="2" fill="rgb(0,255,0)"/><circle cx="75.25252525252526" cy="55.07430979671693" r="2" fill="rgb(0,255,0)"/><circle cx="80.30303030303031" cy="55.606262027842945" r="2" fill="rgb(0,255,0)"/><circle cx="85.35353535353535" cy="56.46017886137861" r="2" fill="rgb(0,255,0)"/><circle cx="90.40404040404042" cy="54.7508483039482" r="2" fill="rgb(0,255,0)"/><circle cx="95.45454545454545" cy="54.980343615511" r="2" fill="rgb(0,255,0)"/><circle cx="100.5050505050505" cy="55.37916261299438" r="2" fill="rgb(0,255,0)"/><circle cx="105.55555555555554" cy="56.544998335664104" r="2" fill="rgb(0,255,0)"/><circle cx="110.60606060606061" cy="55.409344751820015" r="2" fill="rgb(0,255,0)"/><circle cx="115.65656565656566" cy="54.837377991482526" r="2" fill="rgb(0,255,0)"/><circle cx="120.7070707070707" cy="54.1852391803057" r="2" fill="rgb(0,255,0)"/><circle cx="125.75757575757576" cy="54.1852391803057" r="2" fill="rgb(0,255,0)"/><circle cx="130.80808080808083" cy="55.026421517237225" r="2" fill="rgb(0,255,0)"/><circle cx="135.85858585858585" cy="54.85597339477346" r="2" fill="rgb(0,255,0)"/><circle cx="140.9090909090909" cy="54.805578015059325" r="2" fill="rgb(0,255,0)"/><circle cx="145.95959595959596" cy="54.90734083914697" r="2" fill="rgb(0,255,0)"/><circle cx="151.010101010101" cy="54.023170642445734" r="2" fill="rgb(0,255,0)"/><circle cx="156.06060606060606" cy="53.8817885111614" r="2" fill="rgb(0,255,0)"/><circle cx="161.1111111111111" cy="53.8817885111614" r="2" fill="rgb(0,255,0)"/><circle cx="166.16161616161617" cy="54.265571879030574" r="2" fill="rgb(0,255,0)"/><circle cx="171.21212121212122" cy="54.038338671311124" r="2" fill="rgb(0,255,0)"/><circle cx="176.26262626262627" cy="53.971951821571224" r="2" fill="rgb(0,255,0)"/><circle cx="181.31313131313132" cy="53.68022169320159" r="2" fill="rgb(0,255,0)"/><circle cx="186.36363636363635" cy="53.59944956363216" r="2" fill="rgb(0,255,0)"/><circle cx="191.4141414141414" cy="53.51061391742843" r="2" fill="rgb(0,255,0)"/><circle cx="196.46464646464648" cy="53.38715296462226" r="2" fill="rgb(0,255,0)"/><circle cx="201.51515151515153" cy="53.96465995902156" r="2" fill="rgb(0,255,0)"/><circle cx="206.56565656565658" cy="53.781819497470565" r="2" fill="rgb(0,255,0)"/><circle cx="211.61616161616163" cy="53.582655121619325" r="2" fill="rgb(0,255,0)"/><circle cx="216.66666666666666" cy="53.3697081023181" r="2" fill="rgb(0,255,0)"/><circle cx="221.7171717171717" cy="53.61588444125783" r="2" fill="rgb(0,255,0)"/><circle cx="226.76767676767676" cy="53.43351450741949" r="2" fill="rgb(0,255,0)"/><circle cx="231.8181818181818" cy="53.415885910353495" r="2" fill="rgb(0,255,0)"/><circle cx="236.86868686868686" cy="51.266526571429495" r="2" fill="rgb(0,255,0)"/><circle cx="241.91919191919192" cy="53.20300477376287" r="2" fill="rgb(0,255,0)"/><circle cx="246.96969696969697" cy="53.06912648631612" r="2" fill="rgb(0,255,0)"/><circle cx="252.02020202020202" cy="53.06912648631612" r="2" fill="rgb(0,255,0)"/><circle cx="257.07070707070704" cy="53.32620403803526" r="2" fill="rgb(0,255,0)"/><circle cx="262.1212121212121" cy="53.28674265535915" r="2" fill="rgb(0,255,0)"/><circle cx="267.1717171717172" cy="53.30976533486137" r="2" fill="rgb(0,255,0)"/><circle cx="272.2222222222222" cy="53.13641790979352" r="2" fill="rgb(0,255,0)"/><circle cx="277.27272727272725" cy="53.13760204115937" r="2" fill="rgb(0,255,0)"/><circle cx="282.32323232323233" cy="53.13760204115937" r="2" fill="rgb(0,255,0)"/><circle cx="287.3737373737374" cy="53.06912648631612" r="2" fill="rgb(0,255,0)"/><circle cx="292.42424242424244" cy="53.34447332127496" r="2" fill="rgb(0,255,0)"/><circle cx="297.47474747474746" cy="53.31057629492159" r="2" fill="rgb(0,255,0)"/><circle cx="302.52525252525254" cy="53.2182671005159" r="2" fill="rgb(0,255,0)"/><circle cx="307.57575757575756" cy="53.06912648631612" r="2" fill="rgb(0,255,0)"/><circle cx="312.62626262626264" cy="53.181513908384545" r="2" fill="rgb(0,255,0)"/><circle cx="317.67676767676767" cy="53.14989861588555" r="2" fill="rgb(0,255,0)"/><circle cx="322.7272727272727" cy="53.14989861588555" r="2" fill="rgb(0,255,0)"/><circle cx="327.77777777777777" cy="53.138536865395906" r="2" fill="rgb(0,255,0)"/><circle cx="332.8282828282828" cy="53.05776473582648" r="2" fill="rgb(0,255,0)"/><circle cx="337.8787878787879" cy="53.05776473582648" r="2" fill="rgb(0,255,0)"/><circle cx="342.92929292929296" cy="53.181513908384545" r="2" fill="rgb(0,255,0)"/><circle cx="347.979797979798" cy="53.06912648631612" r="2" fill="rgb(0,255,0)"/><circle cx="353.03030303030306" cy="53.12162293135265" r="2" fill="rgb(0,255,0)"/><circle cx="358.0808080808081" cy="53.102189634635295" r="2" fill="rgb(0,255,0)"/><circle cx="363.13131313131316" cy="53.05776473582648" r="2" fill="rgb(0,255,0)"/><circle cx="368.1818181818182" cy="53.02699699490785" r="2" fill="rgb(0,255,0)"/><circle cx="373.23232323232327" cy="53.02699699490785" r="2" fill="rgb(0,255,0)"/><circle cx="378.2828282828283" cy="52.853309153541204" r="2" fill="rgb(0,255,0)"/><circle cx="383.3333333333333" cy="50.18974911083171" r="2" fill="rgb(0,255,0)"/><circle cx="388.3838383838384" cy="50.2194204801844" r="2" fill="rgb(0,255,0)"/><circle cx="393.4343434343434" cy="50.38128821560298" r="2" fill="rgb(0,255,0)"/><circle cx="398.4848484848485" cy="50.24030711528138" r="2" fill="rgb(0,255,0)"/><circle cx="403.5353535353535" cy="50.20805872969481" r="2" fill="rgb(0,255,0)"/><circle cx="408.58585858585855" cy="50.252483628503626" r="2" fill="rgb(0,255,0)"/><circle cx="413.6363636363636" cy="50.20805872969481" r="2" fill="rgb(0,255,0)"/><circle cx="418.68686868686865" cy="50.20805872969481" r="2" fill="rgb(0,255,0)"/><circle cx="423.73737373737373" cy="50.20805872969481" r="2" fill="rgb(0,255,0)"/><circle cx="428.7878787878788" cy="50.17729098877612" r="2" fill="rgb(0,255,0)"/><circle cx="433.83838383838383" cy="50.17729098877612" r="2" fill="rgb(0,255,0)"/><circle cx="438.8888888888889" cy="50.17729098877612" r="2" fill="rgb(0,255,0)"/><circle cx="443.93939393939394" cy="50.17729098877612" r="2" fill="rgb(0,255,0)"/><circle cx="448.989898989899" cy="50.17729098877612" r="2" fill="rgb(0,255,0)"/><circle cx="454.04040404040404" cy="50.11704619826145" r="2" fill="rgb(0,255,0)"/><circle cx="459.0909090909091" cy="50.14781393918014" r="2" fill="rgb(0,255,0)"/><circle cx="464.14141414141415" cy="50.17729098877612" r="2" fill="rgb(0,255,0)"/><circle cx="469.19191919191917" cy="50.130041851951546" r="2" fill="rgb(0,255,0)"/><circle cx="474.24242424242425" cy="50.12886354489319" r="2" fill="rgb(0,255,0)"/><circle cx="479.2929292929293" cy="50.14781393918014" r="2" fill="rgb(0,255,0)"/><circle cx="484.34343434343435" cy="50.11855799831278" r="2" fill="rgb(0,255,0)"/><circle cx="489.3939393939394" cy="50.11855799831278" r="2" fill="rgb(0,255,0)"/><circle cx="494.4444444444444" cy="50.058313207798165" r="2" fill="rgb(0,255,0)"/><circle cx="499.4949494949495" cy="50.05188345494537" r="2" fill="rgb(0,255,0)"/><circle cx="504.5454545454545" cy="50.05188345494537" r="2" fill="rgb(0,255,0)"/><circle cx="509.59595959595964" cy="50.00345601106238" r="2" fill="rgb(0,255,0)"/><circle cx="514.6464646464647" cy="50.00551700477354" r="2" fill="rgb(0,255,0)"/><circle cx="519.6969696969697" cy="50.05188345494537" r="2" fill="rgb(0,255,0)"/><circle cx="524.7474747474748" cy="50.03936281351122" r="2" fill="rgb(0,255,0)"/><circle cx="529.7979797979798" cy="50.03936281351122" r="2" fill="rgb(0,255,0)"/><circle cx="534.8484848484849" cy="50.02548447316826" r="2" fill="rgb(0,255,0)"/><circle cx="539.8989898989898" cy="50.02548447316826" r="2" fill="rgb(0,255,0)"/><circle cx="544.9494949494949" cy="50.01733435140528" r="2" fill="rgb(0,255,0)"/><circle cx="550.0" cy="50.0" r="2" fill="rgb(0,255,0)"/><text x="350.0" y="20.0" text-anchor="middle" fill="rgb(0,0,0)" font-size="20.0">GA Demo</text><text x="350.0" y="575.0" text-anchor="middle" fill="rgb(0,0,0)" font-size="12.0">generation</text><text transform="rotate(-90.0 20.0 300.0)" x="20.0" y="300.0" text-anchor="middle" fill="rgb(0,0,0)" font-size="12.0">fitness</text><text x="620" y="62" fill="rgb(0,0,0)" font-size="12">min</text><text x="620" y="74" fill="rgb(0,0,255)" font-size="12">ave</text><text x="620" y="86" fill="rgb(0,255,0)" font-size="12">max</text>
      Sorry, your browser does not support inline SVG.
    </svg>