<?xml version='1.0' encoding='UTF-8'?>
<svg version="1.1" width="700.0" height="600.0" onload="init(evt)" xmlns="http://www.w3.org/2000/svg">
      <style>.caption {
  font-size: 14px;
  font-family: Georgia, serif;
}
</style>
      <script type="text/ecmascript"><![CDATA[
function init(evt) {
  if ( window.svgDocument == null ) {
    svgDocument = evt.target.ownerDocument;
  }
}

function RectHover(evt, i, c) {
  rect = svgDocument.getElementById('rect' + i);
  if( c != null ) {
    rect.setAttributeNS(null, "fill", c)  
  }
  tooltiptext = svgDocument.getElementById('tooltiptext' + i);
  tooltipbg = svgDocument.getElementById('tooltipbg' + i);
  if( tooltipbg != null) {
    tbb = tooltiptext.getBBox();
    tooltipbg.setAttributeNS(null, "width", tbb.width);
    tooltipbg.setAttributeNS(null, "height", tbb.height);
    tooltipbg.setAttributeNS(null, "x", tbb.x);
    tooltipbg.setAttributeNS(null, "y", tbb.y);
    tooltipbg.setAttributeNS(null, "visibility", "visible");
  }
  tooltiptext.setAttributeNS(null,"visibility","visible");
}

function RectUnhover(evt, i, c) {
  rect = svgDocument.getElementById('rect' + i);
  if( c != null ) {
    rect.setAttributeNS(null, "fill", c)  
  }
  tooltiptext = svgDocument.getElementById('tooltiptext' + i);
  tooltiptext.setAttributeNS(null,"visibility","hidden");
  tooltipbg = svgDocument.getElementById('tooltipbg' + i);
  if( tooltipbg != null ) {
    tooltipbg.setAttributeNS(null,"visibility","hidden");
  }
}
]]></script>
      <line x1="50.0" y1="550.0" x2="550.0" y2="550.0" stroke="rgb(0,0,0)" stroke-width="1"/><line x1="50.0" y1="550.0" x2="50.0" y2="50.0" stroke="rgb(0,0,0)" stroke-width="1"/><line x1="50.0" y1="550.0" x2="50.0" y2="50.0" stroke="rgb(192,192,192)" stroke-width="1"/><line x1="50.0" y1="548.0" x2="50.0" y2="552.0" stroke="rgb(192,192,192)" stroke-width="1"/><text text-anchor="middle" alignment-baseline="hanging" x="50.0" y="553.0" font-size="12.0">0</text><line x1="100.5050505050505" y1="550.0" x2="100.5050505050505" y2="50.0" stroke="rgb(192,192,192)" stroke-width="1"/><line x1="100.5050505050505" y1="548.0" x2="100.5050505050505" y2="552.0" stroke="rgb(192,192,192)" stroke-width="1"/><text text-anchor="middle" alignment-baseline="hanging" x="100.5050505050505" y="553.0" font-size="12.0">10</text><line x1="151.010101010101" y1="550.0" x2="151.010101010101" y2="50.0" stroke="rgb(192,192,192)" stroke-width="1"/><line x1="151.010101010101" y1="548.0" x2="151.010101010101" y2="552.0" stroke="rgb(192,192,192)" stroke-width="1"/><text text-anchor="middle" alignment-baseline="hanging" x="151.010101010101" y="553.0" font-size="12.0">20</text><line x1="201.51515151515153" y1="550.0" x2="201.51515151515153" y2="50.0" stroke="rgb(192,192,192)" stroke-width="1"/><line x1="201.51515151515153" y1="548.0" x2="201.51515151515153" y2="552.0" stroke="rgb(192,192,192)" stroke-width="1"/><text text-anchor="middle" alignment-baseline="hanging" x="201.51515151515153" y="553.0" font-size="12.0">30</text><line x1="252.02020202020202" y1="550.0" x2="252.02020202020202" y2="50.0" stroke="rgb(192,192,192)" stroke-width="1"/><line x1="252.02020202020202" y1="548.0" x2="252.02020202020202" y2="552.0" stroke="rgb(192,192,192)" stroke-width="1"/><text text-anchor="middle" alignment-baseline="hanging" x="252.02020202020202" y="553.0" font-size="12.0">40</text><line x1="302.52525252525254" y1="550.0" x2="302.52525252525254" y2="50.0" stroke="rgb(192,192,192)" stroke-width="1"/><line x1="302.52525252525254" y1="548.0" x2="302.52525252525254" y2="552.0" stroke="rgb(192,192,192)" stroke-width="1"/><text text-anchor="middle" alignment-baseline="hanging" x="302.52525252525254" y="553.0" font-size="12.0">50</text><line x1="353.03030303030306" y1="550.0" x2="353.03030303030306" y2="50.0" stroke="rgb(192,192,192)" stroke-width="1"/><line x1="353.03030303030306" y1="548.0" x2="353.03030303030306" y2="552.0" stroke="rgb(192,192,192)" stroke-width="1"/><text text-anchor="middle" alignment-baseline="hanging" x="353.03030303030306" y="553.0" font-size="12.0">60</text><line x1="403.5353535353535" y1="550.0" x2="403.5353535353535" y2="50.0" stroke="rgb(192,192,192)" stroke-width="1"/><line x1="403.5353535353535" y1="548.0" x2="403.5353535353535" y2="552.0" stroke="rgb(192,192,192)" stroke-width="1"/><text text-anchor="middle" alignment-baseline="hanging" x="403.5353535353535" y="553.0" font-size="12.0">70</text><line x1="454.04040404040404" y1="550.0" x2="454.04040404040404" y2="50.0" stroke="rgb(192,192,192)" stroke-width="1"/><line x1="454.04040404040404" y1="548.0" x2="454.04040404040404" y2="552.0" stroke="rgb(192,192,192)" stroke-width="1"/><text text-anchor="middle" alignment-baseline="hanging" x="454.04040404040404" y="553.0" font-size="12.0">80</text><line x1="504.5454545454545" y1="550.0" x2="504.5454545454545" y2="50.0" stroke="rgb(192,192,192)" stroke-width="1"/><line x1="504.5454545454545" y1="548.0" x2="504.5454545454545" y2="552.0" stroke="rgb(192,192,192)" stroke-width="1"/><text text-anchor="middle" alignment-baseline="hanging" x="504.5454545454545" y="553.0" font-size="12.0">90</text><line x1="50.0" y1="550.0" x2="550.0" y2="550.0" stroke="rgb(192,192,192)" stroke-width="1"/><text text-anchor="end" alignment-baseline="middle" x="45.0" y="550.0" font-size="12.0">0.0</text><line x1="48.0" y1="550.0" x2="52.0" y2="550.0" stroke="rgb(192,192,192)" stroke-width="1"/><line x1="50.0" y1="367.5176485652497" x2="550.0" y2="367.5176485652497" stroke="rgb(192,192,192)" stroke-width="1"/><text text-anchor="end" alignment-baseline="middle" x="45.0" y="367.5176485652497" font-size="12.0">1000.0</text><line x1="48.0" y1="367.5176485652497" x2="52.0" y2="367.5176485652497" stroke="rgb(192,192,192)" stroke-width="1"/><line x1="50.0" y1="185.0352971304995" x2="550.0" y2="185.0352971304995" stroke="rgb(192,192,192)" stroke-width="1"/><text text-anchor="end" alignment-baseline="middle" x="45.0" y="185.0352971304995" font-size="12.0">2000.0</text><line x1="48.0" y1="185.0352971304995" x2="52.0" y2="185.0352971304995" stroke="rgb(192,192,192)" stroke-width="1"/><polyline points="50.0,391.375700015329 55.05050505050505,385.6898994735158 60.101010101010104,386.1828950440944 65.15151515151516,375.77682805118593 70.20202020202021,376.66149474382655 75.25252525252526,374.9647461980993 80.30303030303031,409.96720839689056 85.35353535353535,391.5139943869144 90.40404040404042,379.2118296809989 95.45454545454545,357.9748494054269 100.5050505050505,276.1397923598694 105.55555555555554,275.10808734423284 110.60606060606061,398.89208009909044 115.65656565656566,397.82613492496114 120.7070707070707,374.99748798591236 125.75757575757576,359.4322840273105 130.80808080808083,402.5890982332039 135.85858585858585,405.12026826721285 140.9090909090909,248.92874112802133 145.95959595959596,113.19643433600083 151.010101010101,410.84443271318 156.06060606060606,156.7875066447101 161.1111111111111,319.48414734126936 166.16161616161617,350.1527346341447 171.21212121212122,349.95412893599246 176.26262626262627,317.32592115103864 181.31313131313132,253.32064087375937 186.36363636363635,404.2790537996593 191.4141414141414,380.178510202971 196.46464646464648,283.6642493804009 201.51515151515153,395.119116839345 206.56565656565658,395.1352250802813 211.61616161616163,394.0219020471641 216.66666666666666,116.00364209290933 221.7171717171717,154.06014250158552 226.76767676767676,342.01433427332665 231.8181818181818,342.51464863158776 236.86868686868686,342.0240447914433 241.91919191919192,381.4128433794519 246.96969696969697,381.45679557177203 252.02020202020202,374.37699680211017 257.07070707070704,336.89600915193625 262.1212121212121,406.7881689660859 267.1717171717172,406.547222603019 272.2222222222222,406.5263936476954 277.27272727272725,256.51162968527467 282.32323232323233,275.0086620143007 287.3737373737374,274.65545041468863 292.42424242424244,413.2857922674451 297.47474747474746,412.28913412018454 302.52525252525254,412.28913412018454 307.57575757575756,412.08053869147784 312.62626262626264,412.0337463295921 317.67676767676767,220.1156860720438 322.7272727272727,160.85397803602086 327.77777777777777,237.37116974596807 332.8282828282828,306.6262195456877 337.8787878787879,404.87132391273985 342.92929292929296,295.9452326508076 347.979797979798,367.73748155102635 353.03030303030306,367.74007315066007 358.0808080808081,367.2420519085865 363.13131313131316,327.3048162848788 368.1818181818182,328.2104667778865 373.23232323232327,328.33052022721085 378.2828282828283,406.0981759201778 383.3333333333333,272.30301871413707 388.3838383838384,373.46247737746785 393.4343434343434,407.7059429882462 398.4848484848485,377.16119675313183 403.5353535353535,238.4107677936306 408.58585858585855,354.3276361977885 413.6363636363636,353.75598166234744 418.68686868686865,303.2289569657755 423.73737373737373,286.69801056530446 428.7878787878788,287.36827031846207 433.83838383838383,402.95246668262484 438.8888888888889,335.27347067491905 443.93939393939394,352.5898491057647 448.989898989899,246.50251210528614 454.04040404040404,247.60738800456068 459.0909090909091,295.6497138762781 464.14141414141415,249.0822760447715 469.19191919191917,254.31240437994234 474.24242424242425,379.48284867292955 479.2929292929293,250.20069315389844 484.34343434343435,390.55655874398644 489.3939393939394,313.66409354474865 494.4444444444444,313.66409354474865 499.4949494949495,401.1713708568392 504.5454545454545,397.3136461881735 509.59595959595964,314.43877275986637 514.6464646464647,350.5900253542182 519.6969696969697,325.0961237419109 524.7474747474748,254.03311059439943 529.7979797979798,353.42760747949615 534.8484848484849,354.43204914741807 539.8989898989898,353.42760747949615 544.9494949494949,361.2519719899068 550.0,325.2207738682429" fill="none" stroke="rgb(0,0,0)" stroke-width="1"/><circle cx="50.0" cy="391.375700015329" r="2" fill="rgb(0,0,0)"/><circle cx="55.05050505050505" cy="385.6898994735158" r="2" fill="rgb(0,0,0)"/><circle cx="60.101010101010104" cy="386.1828950440944" r="2" fill="rgb(0,0,0)"/><circle cx="65.15151515151516" cy="375.77682805118593" r="2" fill="rgb(0,0,0)"/><circle cx="70.20202020202021" cy="376.66149474382655" r="2" fill="rgb(0,0,0)"/><circle cx="75.25252525252526" cy="374.9647461980993" r="2" fill="rgb(0,0,0)"/><circle cx="80.30303030303031" cy="409.96720839689056" r="2" fill="rgb(0,0,0)"/><circle cx="85.35353535353535" cy="391.5139943869144" r="2" fill="rgb(0,0,0)"/><circle cx="90.40404040404042" cy="379.2118296809989" r="2" fill="rgb(0,0,0)"/><circle cx="95.45454545454545" cy="357.9748494054269" r="2" fill="rgb(0,0,0)"/><circle cx="100.5050505050505" cy="276.1397923598694" r="2" fill="rgb(0,0,0)"/><circle cx="105.55555555555554" cy="275.10808734423284" r="2" fill="rgb(0,0,0)"/><circle cx="110.60606060606061" cy="398.89208009909044" r="2" fill="rgb(0,0,0)"/><circle cx="115.65656565656566" cy="397.82613492496114" r="2" fill="rgb(0,0,0)"/><circle cx="120.7070707070707" cy="374.99748798591236" r="2" fill="rgb(0,0,0)"/><circle cx="125.75757575757576" cy="359.4322840273105" r="2" fill="rgb(0,0,0)"/><circle cx="130.80808080808083" cy="402.5890982332039" r="2" fill="rgb(0,0,0)"/><circle cx="135.85858585858585" cy="405.12026826721285" r="2" fill="rgb(0,0,0)"/><circle cx="140.9090909090909" cy="248.92874112802133" r="2" fill="rgb(0,0,0)"/><circle cx="145.95959595959596" cy="113.19643433600083" r="2" fill="rgb(0,0,0)"/><circle cx="151.010101010101" cy="410.84443271318" r="2" fill="rgb(0,0,0)"/><circle cx="156.06060606060606" cy="156.7875066447101" r="2" fill="rgb(0,0,0)"/><circle cx="161.1111111111111" cy="319.48414734126936" r="2" fill="rgb(0,0,0)"/><circle cx="166.16161616161617" cy="350.1527346341447" r="2" fill="rgb(0,0,0)"/><circle cx="171.21212121212122" cy="349.95412893599246" r="2" fill="rgb(0,0,0)"/><circle cx="176.26262626262627" cy="317.32592115103864" r="2" fill="rgb(0,0,0)"/><circle cx="181.31313131313132" cy="253.32064087375937" r="2" fill="rgb(0,0,0)"/><circle cx="186.36363636363635" cy="404.2790537996593" r="2" fill="rgb(0,0,0)"/><circle cx="191.4141414141414" cy="380.178510202971" r="2" fill="rgb(0,0,0)"/><circle cx="196.46464646464648" cy="283.6642493804009" r="2" fill="rgb(0,0,0)"/><circle cx="201.51515151515153" cy="395.119116839345" r="2" fill="rgb(0,0,0)"/><circle cx="206.56565656565658" cy="395.1352250802813" r="2" fill="rgb(0,0,0)"/><circle cx="211.61616161616163" cy="394.0219020471641" r="2" fill="rgb(0,0,0)"/><circle cx="216.66666666666666" cy="116.00364209290933" r="2" fill="rgb(0,0,0)"/><circle cx="221.7171717171717" cy="154.06014250158552" r="2" fill="rgb(0,0,0)"/><circle cx="226.76767676767676" cy="342.01433427332665" r="2" fill="rgb(0,0,0)"/><circle cx="231.8181818181818" cy="342.51464863158776" r="2" fill="rgb(0,0,0)"/><circle cx="236.86868686868686" cy="342.0240447914433" r="2" fill="rgb(0,0,0)"/><circle cx="241.91919191919192" cy="381.4128433794519" r="2" fill="rgb(0,0,0)"/><circle cx="246.96969696969697" cy="381.45679557177203" r="2" fill="rgb(0,0,0)"/><circle cx="252.02020202020202" cy="374.37699680211017" r="2" fill="rgb(0,0,0)"/><circle cx="257.07070707070704" cy="336.89600915193625" r="2" fill="rgb(0,0,0)"/><circle cx="262.1212121212121" cy="406.7881689660859" r="2" fill="rgb(0,0,0)"/><circle cx="267.1717171717172" cy="406.547222603019" r="2" fill="rgb(0,0,0)"/><circle cx="272.2222222222222" cy="406.5263936476954" r="2" fill="rgb(0,0,0)"/><circle cx="277.27272727272725" cy="256.51162968527467" r="2" fill="rgb(0,0,0)"/><circle cx="282.32323232323233" cy="275.0086620143007" r="2" fill="rgb(0,0,0)"/><circle cx="287.3737373737374" cy="274.65545041468863" r="2" fill="rgb(0,0,0)"/><circle cx="292.42424242424244" cy="413.2857922674451" r="2" fill="rgb(0,0,0)"/><circle cx="297.47474747474746" cy="412.28913412018454" r="2" fill="rgb(0,0,0)"/><circle cx="302.52525252525254" cy="412.28913412018454" r="2" fill="rgb(0,0,0)"/><circle cx="307.57575757575756" cy="412.08053869147784" r="2" fill="rgb(0,0,0)"/><circle cx="312.62626262626264" cy="412.0337463295921" r="2" fill="rgb(0,0,0)"/><circle cx="317.67676767676767" cy="220.1156860720438" r="2" fill="rgb(0,0,0)"/><circle cx="322.7272727272727" cy="160.85397803602086" r="2" fill="rgb(0,0,0)"/><circle cx="327.77777777777777" cy="237.37116974596807" r="2" fill="rgb(0,0,0)"/><circle cx="332.8282828282828" cy="306.6262195456877" r="2" fill="rgb(0,0,0)"/><circle cx="337.8787878787879" cy="404.87132391273985" r="2" fill="rgb(0,0,0)"/><circle cx="342.92929292929296" cy="295.9452326508076" r="2" fill="rgb(0,0,0)"/><circle cx="347.979797979798" cy="367.73748155102635" r="2" fill="rgb(0,0,0)"/><circle cx="353.03030303030306" cy="367.74007315066007" r="2" fill="rgb(0,0,0)"/><circle cx="358.0808080808081" cy="367.2420519085865" r="2" fill="rgb(0,0,0)"/><circle cx="363.13131313131316" cy="327.3048162848788" r="2" fill="rgb(0,0,0)"/><circle cx="368.1818181818182" cy="328.2104667778865" r="2" fill="rgb(0,0,0)"/><circle cx="373.23232323232327" cy="328.33052022721085" r="2" fill="rgb(0,0,0)"/><circle cx="378.2828282828283" cy="406.0981759201778" r="2" fill="rgb(0,0,0)"/><circle cx="383.3333333333333" cy="272.30301871413707" r="2" fill="rgb(0,0,0)"/><circle cx="388.3838383838384" cy="373.46247737746785" r="2" fill="rgb(0,0,0)"/><circle cx="393.4343434343434" cy="407.7059429882462" r="2" fill="rgb(0,0,0)"/><circle cx="398.4848484848485" cy="377.16119675313183" r="2" fill="rgb(0,0,0)"/><circle cx="403.5353535353535" cy="238.4107677936306" r="2" fill="rgb(0,0,0)"/><circle cx="408.58585858585855" cy="354.3276361977885" r="2" fill="rgb(0,0,0)"/><circle cx="413.6363636363636" cy="353.75598166234744" r="2" fill="rgb(0,0,0)"/><circle cx="418.68686868686865" cy="303.2289569657755" r="2" fill="rgb(0,0,0)"/><circle cx="423.73737373737373" cy="286.69801056530446" r="2" fill="rgb(0,0,0)"/><circle cx="428.7878787878788" cy="287.36827031846207" r="2" fill="rgb(0,0,0)"/><circle cx="433.83838383838383" cy="402.95246668262484" r="2" fill="rgb(0,0,0)"/><circle cx="438.8888888888889" cy="335.27347067491905" r="2" fill="rgb(0,0,0)"/><circle cx="443.93939393939394" cy="352.5898491057647" r="2" fill="rgb(0,0,0)"/><circle cx="448.989898989899" cy="246.50251210528614" r="2" fill="rgb(0,0,0)"/><circle cx="454.04040404040404" cy="247.60738800456068" r="2" fill="rgb(0,0,0)"/><circle cx="459.0909090909091" cy="295.6497138762781" r="2" fill="rgb(0,0,0)"/><circle cx="464.14141414141415" cy="249.0822760447715" r="2" fill="rgb(0,0,0)"/><circle cx="469.19191919191917" cy="254.31240437994234" r="2" fill="rgb(0,0,0)"/><circle cx="474.24242424242425" cy="379.48284867292955" r="2" fill="rgb(0,0,0)"/><circle cx="479.2929292929293" cy="250.20069315389844" r="2" fill="rgb(0,0,0)"/><circle cx="484.34343434343435" cy="390.55655874398644" r="2" fill="rgb(0,0,0)"/><circle cx="489.3939393939394" cy="313.66409354474865" r="2" fill="rgb(0,0,0)"/><circle cx="494.4444444444444" cy="313.66409354474865" r="2" fill="rgb(0,0,0)"/><circle cx="499.4949494949495" cy="401.1713708568392" r="2" fill="rgb(0,0,0)"/><circle cx="504.5454545454545" cy="397.3136461881735" r="2" fill="rgb(0,0,0)"/><circle cx="509.59595959595964" cy="314.43877275986637" r="2" fill="rgb(0,0,0)"/><circle cx="514.6464646464647" cy="350.5900253542182" r="2" fill="rgb(0,0,0)"/><circle cx="519.6969696969697" cy="325.0961237419109" r="2" fill="rgb(0,0,0)"/><circle cx="524.7474747474748" cy="254.03311059439943" r="2" fill="rgb(0,0,0)"/><circle cx="529.7979797979798" cy="353.42760747949615" r="2" fill="rgb(0,0,0)"/><circle cx="534.8484848484849" cy="354.43204914741807" r="2" fill="rgb(0,0,0)"/><circle cx="539.8989898989898" cy="353.42760747949615" r="2" fill="rgb(0,0,0)"/><circle cx="544.9494949494949" cy="361.2519719899068" r="2" fill="rgb(0,0,0)"/><circle cx="550.0" cy="325.2207738682429" r="2" fill="rgb(0,0,0)"/><polyline points="50.0,196.25107278118503 55.05050505050505,171.91298586586146 60.101010101010104,153.0147537909345 65.15151515151516,134.73337418840492 70.20202020202021,131.15648666452063 75.25252525252526,112.2019945203865 80.30303030303031,107.74464419248363 85.35353535353535,93.34410650559795 90.40404040404042,94.23952062001376 95.45454545454545,82.50149570618356 100.5050505050505,75.67823023083093 105.55555555555554,70.98383143264647 110.60606060606061,74.70142322532826 115.65656565656566,72.67905400296985 120.7070707070707,70.3514197785878 125.75757575757576,71.04771677580419 130.80808080808083,74.96935879363366 135.85858585858585,70.44502825106969 140.9090909090909,68.85531658727564 145.95959595959596,64.10310668303123 151.010101010101,69.75585913285238 156.06060606060606,65.02029926330914 161.1111111111111,67.43745104220909 166.16161616161617,74.39144178502039 171.21212121212122,75.34570150289903 176.26262626262627,71.98442801680073 181.31313131313132,64.4096373866883 186.36363636363635,67.70444595836847 191.4141414141414,68.70309088283705 196.46464646464648,64.7580974210407 201.51515151515153,69.01049961720025 206.56565656565658,68.21068719677237 211.61616161616163,65.43274724897799 216.66666666666666,60.77074484114678 221.7171717171717,61.84583705507356 226.76767676767676,66.30727754523832 231.8181818181818,72.67580680058052 236.86868686868686,65.77671043430058 241.91919191919192,66.00646543647025 246.96969696969697,70.64040526106254 252.02020202020202,68.24202512624345 257.07070707070704,65.79045147029052 262.1212121212121,71.64480339097611 267.1717171717172,76.63769479011677 272.2222222222222,72.28044727898362 277.27272727272725,63.63164317346212 282.32323232323233,64.08612836022314 287.3737373737374,67.83668522943333 292.42424242424244,68.67234450761333 297.47474747474746,68.2635799791355 302.52525252525254,74.41488704487494 307.57575757575756,69.38884830995062 312.62626262626264,68.00619793894538 317.67676767676767,60.28951076199235 322.7272727272727,60.644244062025905 327.77777777777777,65.2320508005871 332.8282828282828,63.96612587856919 337.8787878787879,64.8496298744501 342.92929292929296,60.335361064342635 347.979797979798,67.28274667897983 353.03030303030306,67.3962751089067 358.0808080808081,68.68514855849344 363.13131313131316,72.55772222643014 368.1818181818182,66.80423097720234 373.23232323232327,65.28021322156968 378.2828282828283,66.34108221518062 383.3333333333333,59.46208529997904 388.3838383838384,67.9223839752413 393.4343434343434,69.27412622327336 398.4848484848485,69.66060246254835 403.5353535353535,62.38851358886183 408.58585858585855,66.68238801294177 413.6363636363636,67.63264840688731 418.68686868686865,69.23021158810224 423.73737373737373,60.539291492989264 428.7878787878788,57.78371762475871 433.83838383838383,61.54914888577372 438.8888888888889,61.823037264873676 443.93939393939394,59.20519786820944 448.989898989899,57.0541247392307 454.04040404040404,57.48113969764154 459.0909090909091,57.5059525425595 464.14141414141415,59.88399140189654 469.19191919191917,66.45801470799256 474.24242424242425,62.79210501337121 479.2929292929293,58.906013741150616 484.34343434343435,71.2069292058095 489.3939393939394,60.79912703103895 494.4444444444444,65.15108471823072 499.4949494949495,72.39851198837187 504.5454545454545,76.16464249587347 509.59595959595964,60.62817888004082 514.6464646464647,61.9250506367527 519.6969696969697,55.37412225214149 524.7474747474748,55.1540017009026 529.7979797979798,59.00039813680314 534.8484848484849,67.41154479286843 539.8989898989898,64.00922651261806 544.9494949494949,65.26201030928507 550.0,60.753737929909164" fill="none" stroke="rgb(0,0,255)" stroke-width="1"/><circle cx="50.0" cy="196.25107278118503" r="2" fill="rgb(0,0,255)"/><circle cx="55.05050505050505" cy="171.91298586586146" r="2" fill="rgb(0,0,255)"/><circle cx="60.101010101010104" cy="153.0147537909345" r="2" fill="rgb(0,0,255)"/><circle cx="65.15151515151516" cy="134.73337418840492" r="2" fill="rgb(0,0,255)"/><circle cx="70.20202020202021" cy="131.15648666452063" r="2" fill="rgb(0,0,255)"/><circle cx="75.25252525252526" cy="112.2019945203865" r="2" fill="rgb(0,0,255)"/><circle cx="80.30303030303031" cy="107.74464419248363" r="2" fill="rgb(0,0,255)"/><circle cx="85.35353535353535" cy="93.34410650559795" r="2" fill="rgb(0,0,255)"/><circle cx="90.40404040404042" cy="94.23952062001376" r="2" fill="rgb(0,0,255)"/><circle cx="95.45454545454545" cy="82.50149570618356" r="2" fill="rgb(0,0,255)"/><circle cx="100.5050505050505" cy="75.67823023083093" r="2" fill="rgb(0,0,255)"/><circle cx="105.55555555555554" cy="70.98383143264647" r="2" fill="rgb(0,0,255)"/><circle cx="110.60606060606061" cy="74.70142322532826" r="2" fill="rgb(0,0,255)"/><circle cx="115.65656565656566" cy="72.67905400296985" r="2" fill="rgb(0,0,255)"/><circle cx="120.7070707070707" cy="70.3514197785878" r="2" fill="rgb(0,0,255)"/><circle cx="125.75757575757576" cy="71.04771677580419" r="2" fill="rgb(0,0,255)"/><circle cx="130.80808080808083" cy="74.96935879363366" r="2" fill="rgb(0,0,255)"/><circle cx="135.85858585858585" cy="70.44502825106969" r="2" fill="rgb(0,0,255)"/><circle cx="140.9090909090909" cy="68.85531658727564" r="2" fill="rgb(0,0,255)"/><circle cx="145.95959595959596" cy="64.10310668303123" r="2" fill="rgb(0,0,255)"/><circle cx="151.010101010101" cy="69.75585913285238" r="2" fill="rgb(0,0,255)"/><circle cx="156.06060606060606" cy="65.02029926330914" r="2" fill="rgb(0,0,255)"/><circle cx="161.1111111111111" cy="67.43745104220909" r="2" fill="rgb(0,0,255)"/><circle cx="166.16161616161617" cy="74.39144178502039" r="2" fill="rgb(0,0,255)"/><circle cx="171.21212121212122" cy="75.34570150289903" r="2" fill="rgb(0,0,255)"/><circle cx="176.26262626262627" cy="71.98442801680073" r="2" fill="rgb(0,0,255)"/><circle cx="181.31313131313132" cy="64.4096373866883" r="2" fill="rgb(0,0,255)"/><circle cx="186.36363636363635" cy="67.70444595836847" r="2" fill="rgb(0,0,255)"/><circle cx="191.4141414141414" cy="68.70309088283705" r="2" fill="rgb(0,0,255)"/><circle cx="196.46464646464648" cy="64.7580974210407" r="2" fill="rgb(0,0,255)"/><circle cx="201.51515151515153" cy="69.01049961720025" r="2" fill="rgb(0,0,255)"/><circle cx="206.56565656565658" cy="68.21068719677237" r="2" fill="rgb(0,0,255)"/><circle cx="211.61616161616163" cy="65.43274724897799" r="2" fill="rgb(0,0,255)"/><circle cx="216.66666666666666" cy="60.77074484114678" r="2" fill="rgb(0,0,255)"/><circle cx="221.7171717171717" cy="61.84583705507356" r="2" fill="rgb(0,0,255)"/><circle cx="226.76767676767676" cy="66.30727754523832" r="2" fill="rgb(0,0,255)"/><circle cx="231.8181818181818" cy="72.67580680058052" r="2" fill="rgb(0,0,255)"/><circle cx="236.86868686868686" cy="65.77671043430058" r="2" fill="rgb(0,0,255)"/><circle cx="241.91919191919192" cy="66.00646543647025" r="2" fill="rgb(0,0,255)"/><circle cx="246.96969696969697" cy="70.64040526106254" r="2" fill="rgb(0,0,255)"/><circle cx="252.02020202020202" cy="68.24202512624345" r="2" fill="rgb(0,0,255)"/><circle cx="257.07070707070704" cy="65.79045147029052" r="2" fill="rgb(0,0,255)"/><circle cx="262.1212121212121" cy="71.64480339097611" r="2" fill="rgb(0,0,255)"/><circle cx="267.1717171717172" cy="76.63769479011677" r="2" fill="rgb(0,0,255)"/><circle cx="272.2222222222222" cy="72.28044727898362" r="2" fill="rgb(0,0,255)"/><circle cx="277.27272727272725" cy="63.63164317346212" r="2" fill="rgb(0,0,255)"/><circle cx="282.32323232323233" cy="64.08612836022314" r="2" fill="rgb(0,0,255)"/><circle cx="287.3737373737374" cy="67.83668522943333" r="2" fill="rgb(0,0,255)"/><circle cx="292.42424242424244" cy="68.67234450761333" r="2" fill="rgb(0,0,255)"/><circle cx="297.47474747474746" cy="68.2635799791355" r="2" fill="rgb(0,0,255)"/><circle cx="302.52525252525254" cy="74.41488704487494" r="2" fill="rgb(0,0,255)"/><circle cx="307.57575757575756" cy="69.38884830995062" r="2" fill="rgb(0,0,255)"/><circle cx="312.62626262626264" cy="68.00619793894538" r="2" fill="rgb(0,0,255)"/><circle cx="317.67676767676767" cy="60.28951076199235" r="2" fill="rgb(0,0,255)"/><circle cx="322.7272727272727" cy="60.644244062025905" r="2" fill="rgb(0,0,255)"/><circle cx="327.77777777777777" cy="65.2320508005871" r="2" fill="rgb(0,0,255)"/><circle cx="332.8282828282828" cy="63.96612587856919" r="2" fill="rgb(0,0,255)"/><circle cx="337.8787878787879" cy="64.8496298744501" r="2" fill="rgb(0,0,255)"/><circle cx="342.92929292929296" cy="60.335361064342635" r="2" fill="rgb(0,0,255)"/><circle cx="347.979797979798" cy="67.28274667897983" r="2" fill="rgb(0,0,255)"/><circle cx="353.03030303030306" cy="67.3962751089067" r="2" fill="rgb(0,0,255)"/><circle cx="358.0808080808081" cy="68.68514855849344" r="2" fill="rgb(0,0,255)"/><circle cx="363.13131313131316" cy="72.55772222643014" r="2" fill="rgb(0,0,255)"/><circle cx="368.1818181818182" cy="66.80423097720234" r="2" fill="rgb(0,0,255)"/><circle cx="373.23232323232327" cy="65.28021322156968" r="2" fill="rgb(0,0,255)"/><circle cx="378.2828282828283" cy="66.34108221518062" r="2" fill="rgb(0,0,255)"/><circle cx="383.3333333333333" cy="59.46208529997904" r="2" fill="rgb(0,0,255)"/><circle cx="388.3838383838384" cy="67.9223839752413" r="2" fill="rgb(0,0,255)"/><circle cx="393.4343434343434" cy="69.27412622327336" r="2" fill="rgb(0,0,255)"/><circle cx="398.4848484848485" cy="69.66060246254835" r="2" fill="rgb(0,0,255)"/><circle cx="403.5353535353535" cy="62.38851358886183" r="2" fill="rgb(0,0,255)"/><circle cx="408.58585858585855" cy="66.68238801294177" r="2" fill="rgb(0,0,255)"/><circle cx="413.6363636363636" cy="67.63264840688731" r="2" fill="rgb(0,0,255)"/><circle cx="418.68686868686865" cy="69.23021158810224" r="2" fill="rgb(0,0,255)"/><circle cx="423.73737373737373" cy="60.539291492989264" r="2" fill="rgb(0,0,255)"/><circle cx="428.7878787878788" cy="57.78371762475871" r="2" fill="rgb(0,0,255)"/><circle cx="433.83838383838383" cy="61.54914888577372" r="2" fill="rgb(0,0,255)"/><circle cx="438.8888888888889" cy="61.823037264873676" r="2" fill="rgb(0,0,255)"/><circle cx="443.93939393939394" cy="59.20519786820944" r="2" fill="rgb(0,0,255)"/><circle cx="448.989898989899" cy="57.0541247392307" r="2" fill="rgb(0,0,255)"/><circle cx="454.04040404040404" cy="57.48113969764154" r="2" fill="rgb(0,0,255)"/><circle cx="459.0909090909091" cy="57.5059525425595" r="2" fill="rgb(0,0,255)"/><circle cx="464.14141414141415" cy="59.88399140189654" r="2" fill="rgb(0,0,255)"/><circle cx="469.19191919191917" cy="66.45801470799256" r="2" fill="rgb(0,0,255)"/><circle cx="474.24242424242425" cy="62.79210501337121" r="2" fill="rgb(0,0,255)"/><circle cx="479.2929292929293" cy="58.906013741150616" r="2" fill="rgb(0,0,255)"/><circle cx="484.34343434343435" cy="71.2069292058095" r="2" fill="rgb(0,0,255)"/><circle cx="489.3939393939394" cy="60.79912703103895" r="2" fill="rgb(0,0,255)"/><circle cx="494.4444444444444" cy="65.15108471823072" r="2" fill="rgb(0,0,255)"/><circle cx="499.4949494949495" cy="72.39851198837187" r="2" fill="rgb(0,0,255)"/><circle cx="504.5454545454545" cy="76.16464249587347" r="2" fill="rgb(0,0,255)"/><circle cx="509.59595959595964" cy="60.62817888004082" r="2" fill="rgb(0,0,255)"/><circle cx="514.6464646464647" cy="61.9250506367527" r="2" fill="rgb(0,0,255)"/><circle cx="519.6969696969697" cy="55.37412225214149" r="2" fill="rgb(0,0,255)"/><circle cx="524.7474747474748" cy="55.1540017009026" r="2" fill="rgb(0,0,255)"/><circle cx="529.7979797979798" cy="59.00039813680314" r="2" fill="rgb(0,0,255)"/><circle cx="534.8484848484849" cy="67.41154479286843" r="2" fill="rgb(0,0,255)"/><circle cx="539.8989898989898" cy="64.00922651261806" r="2" fill="rgb(0,0,255)"/><circle cx="544.9494949494949" cy="65.26201030928507" r="2" fill="rgb(0,0,255)"/><circle cx="550.0" cy="60.753737929909164" r="2" fill="rgb(0,0,255)"/><polyline points="50.0,63.991645581142166 55.05050505050505,63.24439676526151 60.101010101010104,62.31277643190907 65.15151515151516,61.891383534424335 70.20202020202021,62.6728499249088 75.25252525252526,60.987828464997506 80.30303030303031,61.732728350317586 85.35353535353535,60.80887894330766 90.40404040404042,61.653205308105726 95.45454545454545,62.58932035384885 100.5050505050505,61.69947676418656 105.55555555555554,61.17127584042902 110.60606060606061,59.854503136333165 115.65656565656566,54.19053303863268 120.7070707070707,53.32006754951169 125.75757575757576,54.41779896252285 130.80808080808083,60.185676553777796 135.85858585858585,60.017557678555875 140.9090909090909,60.30068063821079 145.95959595959596,59.4763192507225 151.010101010101,59.0376426272083 156.06060606060606,59.42496072322729 161.1111111111111,59.24489977632197 166.16161616161617,59.54300388193576 171.21212121212122,59.402402586775395 176.26262626262627,58.715741497165595 181.31313131313132,58.72572639118067 186.36363636363635,57.451339956669585 191.4141414141414,57.86993023209345 196.46464646464648,57.571896498039735 201.51515151515153,56.92241895190881 206.56565656565658,56.65604605077891 211.61616161616163,56.578877959764554 216.66666666666666,56.4549277183562 221.7171717171717,56.399160739864044 226.76767676767676,56.127648795856544 231.8181818181818,56.17075453025552 236.86868686868686,56.20772652582946 241.91919191919192,56.087769404033054 246.96969696969697,56.21702447585875 252.02020202020202,56.12446431281228 257.07070707070704,56.06620664864016 262.1212121212121,56.06620664864016 267.1717171717172,56.06620664864016 272.2222222222222,56.049434920536726 277.27272727272725,56.01875079958728 282.32323232323233,56.00264255865096 287.3737373737374,55.981444055939676 292.42424242424244,55.9903027388109 297.47474747474746,56.02575333752736 302.52525252525254,56.01875079958728 307.57575757575756,56.02575333752736 312.62626262626264,56.02575333752736 317.67676767676767,56.065543161473045 322.7272727272727,55.9903027388109 327.77777777777777,55.98635375337358 332.8282828282828,56.0331461152594 337.8787878787879,55.983645773197 342.92929292929296,55.9903027388109 347.979797979798,55.9903027388109 353.03030303030306,53.45337356002176 358.0808080808081,53.45773888911026 363.13131313131316,53.20864661795463 368.1818181818182,53.198770717640116 373.23232323232327,53.36698706252969 378.2828282828283,50.0 383.3333333333333,50.43340420850291 388.3838383838384,50.98738289109491 393.4343434343434,50.47398105873282 398.4848484848485,50.274140888501165 403.5353535353535,50.0 408.58585858585855,50.58945227646791 413.6363636363636,50.585399643497965 418.68686868686865,51.457628714774046 423.73737373737373,51.024529106432226 428.7878787878788,50.754262612494756 433.83838383838383,50.74438671218036 438.8888888888889,50.943476683261565 443.93939393939394,50.943476683261565 448.989898989899,50.74438671218036 454.04040404040404,50.70576642888204 459.0909090909091,50.74438671218036 464.14141414141415,50.74438671218036 469.19191919191917,50.74438671218036 474.24242424242425,50.74438671218036 479.2929292929293,50.81213616139149 484.34343434343435,50.67394346941916 489.3939393939394,50.74438671218036 494.4444444444444,50.74438671218036 499.4949494949495,50.72073583130498 504.5454545454545,50.74438671218036 509.59595959595964,50.74438671218036 514.6464646464647,50.74438671218036 519.6969696969697,50.74438671218036 524.7474747474748,50.70576642888204 529.7979797979798,50.70576642888204 534.8484848484849,50.70576642888204 539.8989898989898,50.71912433579354 544.9494949494949,50.70101938082644 550.0,50.70101938082644" fill="none" stroke="rgb(0,255,0)" stroke-width="1"/><circle cx="50.0" cy="63.991645581142166" r="2" fill="rgb(0,255,0)"/><circle cx="55.05050505050505" cy="63.24439676526151" r="2" fill="rgb(0,255,0)"/><circle cx="60.101010101010104" cy="62.31277643190907" r="2" fill="rgb(0,255,0)"/><circle cx="65.15151515151516" cy="61.891383534424335" r="2" fill="rgb(0,255,0)"/><circle cx="70.20202020202021" cy="62.6728499249088" r="2" fill="rgb(0,255,0)"/><circle cx="75.25252525252526" cy="60.987828464997506" r="2" fill="rgb(0,255,0)"/><circle cx="80.30303030303031" cy="61.732728350317586" r="2" fill="rgb(0,255,0)"/><circle cx="85.35353535353535" cy="60.80887894330766" r="2" fill="rgb(0,255,0)"/><circle cx="90.40404040404042" cy="61.653205308105726" r="2" fill="rgb(0,255,0)"/><circle cx="95.45454545454545" cy="62.58932035384885" r="2" fill="rgb(0,255,0)"/><circle cx="100.5050505050505" cy="61.69947676418656" r="2" fill="rgb(0,255,0)"/><circle cx="105.55555555555554" cy="61.17127584042902" r="2" fill="rgb(0,255,0)"/><circle cx="110.60606060606061" cy="59.854503136333165" r="2" fill="rgb(0,255,0)"/><circle cx="115.65656565656566" cy="54.19053303863268" r="2" fill="rgb(0,255,0)"/><circle cx="120.7070707070707" cy="53.32006754951169" r="2" fill="rgb(0,255,0)"/><circle cx="125.75757575757576" cy="54.41779896252285" r="2" fill="rgb(0,255,0)"/><circle cx="130.80808080808083" cy="60.185676553777796" r="2" fill="rgb(0,255,0)"/><circle cx="135.85858585858585" cy="60.017557678555875" r="2" fill="rgb(0,255,0)"/><circle cx="140.9090909090909" cy="60.30068063821079" r="2" fill="rgb(0,255,0)"/><circle cx="145.95959595959596" cy="59.4763192507225" r="2" fill="rgb(0,255,0)"/><circle cx="151.010101010101" cy="59.0376426272083" r="2" fill="rgb(0,255,0)"/><circle cx="156.06060606060606" cy="59.42496072322729" r="2" fill="rgb(0,255,0)"/><circle cx="161.1111111111111" cy="59.24489977632197" r="2" fill="rgb(0,255,0)"/><circle cx="166.16161616161617" cy="59.54300388193576" r="2" fill="rgb(0,255,0)"/><circle cx="171.21212121212122" cy="59.402402586775395" r="2" fill="rgb(0,255,0)"/><circle cx="176.26262626262627" cy="58.715741497165595" r="2" fill="rgb(0,255,0)"/><circle cx="181.31313131313132" cy="58.72572639118067" r="2" fill="rgb(0,255,0)"/><circle cx="186.36363636363635" cy="57.451339956669585" r="2" fill="rgb(0,255,0)"/><circle cx="191.4141414141414" cy="57.86993023209345" r="2" fill="rgb(0,255,0)"/><circle cx="196.46464646464648" cy="57.571896498039735" r="2" fill="rgb(0,255,0)"/><circle cx="201.51515151515153" cy="56.92241895190881" r="2" fill="rgb(0,255,0)"/><circle cx="206.56565656565658" cy="56.65604605077891" r="2" fill="rgb(0,255,0)"/><circle cx="211.61616161616163" cy="56.578877959764554" r="2" fill="rgb(0,255,0)"/><circle cx="216.66666666666666" cy="56.4549277183562" r="2" fill="rgb(0,255,0)"/><circle cx="221.7171717171717" cy="56.399160739864044" r="2" fill="rgb(0,255,0)"/><circle cx="226.76767676767676" cy="56.127648795856544" r="2" fill="rgb(0,255,0)"/><circle cx="231.8181818181818" cy="56.17075453025552" r="2" fill="rgb(0,255,0)"/><circle cx="236.86868686868686" cy="56.20772652582946" r="2" fill="rgb(0,255,0)"/><circle cx="241.91919191919192" cy="56.087769404033054" r="2" fill="rgb(0,255,0)"/><circle cx="246.96969696969697" cy="56.21702447585875" r="2" fill="rgb(0,255,0)"/><circle cx="252.02020202020202" cy="56.12446431281228" r="2" fill="rgb(0,255,0)"/><circle cx="257.07070707070704" cy="56.06620664864016" r="2" fill="rgb(0,255,0)"/><circle cx="262.1212121212121" cy="56.06620664864016" r="2" fill="rgb(0,255,0)"/><circle cx="267.1717171717172" cy="56.06620664864016" r="2" fill="rgb(0,255,0)"/><circle cx="272.2222222222222" cy="56.049434920536726" r="2" fill="rgb(0,255,0)"/><circle cx="277.27272727272725" cy="56.01875079958728" r="2" fill="rgb(0,255,0)"/><circle cx="282.32323232323233" cy="56.00264255865096" r="2" fill="rgb(0,255,0)"/><circle cx="287.3737373737374" cy="55.981444055939676" r="2" fill="rgb(0,255,0)"/><circle cx="292.42424242424244" cy="55.9903027388109" r="2" fill="rgb(0,255,0)"/><circle cx="297.47474747474746" cy="56.02575333752736" r="2" fill="rgb(0,255,0)"/><circle cx="302.52525252525254" cy="56.01875079958728" r="2" fill="rgb(0,255,0)"/><circle cx="307.57575757575756" cy="56.02575333752736" r="2" fill="rgb(0,255,0)"/><circle cx="312.62626262626264" cy="56.02575333752736" r="2" fill="rgb(0,255,0)"/><circle cx="317.67676767676767" cy="56.065543161473045" r="2" fill="rgb(0,255,0)"/><circle cx="322.7272727272727" cy="55.9903027388109" r="2" fill="rgb(0,255,0)"/><circle cx="327.77777777777777" cy="55.98635375337358" r="2" fill="rgb(0,255,0)"/><circle cx="332.8282828282828" cy="56.0331461152594" r="2" fill="rgb(0,255,0)"/><circle cx="337.8787878787879" cy="55.983645773197" r="2" fill="rgb(0,255,0)"/><circle cx="342.92929292929296" cy="55.9903027388109" r="2" fill="rgb(0,255,0)"/><circle cx="347.979797979798" cy="55.9903027388109" r="2" fill="rgb(0,255,0)"/><circle cx="353.03030303030306" cy="53.45337356002176" r="2" fill="rgb(0,255,0)"/><circle cx="358.0808080808081" cy="53.45773888911026" r="2" fill="rgb(0,255,0)"/><circle cx="363.13131313131316" cy="53.20864661795463" r="2" fill="rgb(0,255,0)"/><circle cx="368.1818181818182" cy="53.198770717640116" r="2" fill="rgb(0,255,0)"/><circle cx="373.23232323232327" cy="53.36698706252969" r="2" fill="rgb(0,255,0)"/><circle cx="378.2828282828283" cy="50.0" r="2" fill="rgb(0,255,0)"/><circle cx="383.3333333333333" cy="50.43340420850291" r="2" fill="rgb(0,255,0)"/><circle cx="388.3838383838384" cy="50.98738289109491" r="2" fill="rgb(0,255,0)"/><circle cx="393.4343434343434" cy="50.47398105873282" r="2" fill="rgb(0,255,0)"/><circle cx="398.4848484848485" cy="50.274140888501165" r="2" fill="rgb(0,255,0)"/><circle cx="403.5353535353535" cy="50.0" r="2" fill="rgb(0,255,0)"/><circle cx="408.58585858585855" cy="50.58945227646791" r="2" fill="rgb(0,255,0)"/><circle cx="413.6363636363636" cy="50.585399643497965" r="2" fill="rgb(0,255,0)"/><circle cx="418.68686868686865" cy="51.457628714774046" r="2" fill="rgb(0,255,0)"/><circle cx="423.73737373737373" cy="51.024529106432226" r="2" fill="rgb(0,255,0)"/><circle cx="428.7878787878788" cy="50.754262612494756" r="2" fill="rgb(0,255,0)"/><circle cx="433.83838383838383" cy="50.74438671218036" r="2" fill="rgb(0,255,0)"/><circle cx="438.8888888888889" cy="50.943476683261565" r="2" fill="rgb(0,255,0)"/><circle cx="443.93939393939394" cy="50.943476683261565" r="2" fill="rgb(0,255,0)"/><circle cx="448.989898989899" cy="50.74438671218036" r="2" fill="rgb(0,255,0)"/><circle cx="454.04040404040404" cy="50.70576642888204" r="2" fill="rgb(0,255,0)"/><circle cx="459.0909090909091" cy="50.74438671218036" r="2" fill="rgb(0,255,0)"/><circle cx="464.14141414141415" cy="50.74438671218036" r="2" fill="rgb(0,255,0)"/><circle cx="469.19191919191917" cy="50.74438671218036" r="2" fill="rgb(0,255,0)"/><circle cx="474.24242424242425" cy="50.74438671218036" r="2" fill="rgb(0,255,0)"/><circle cx="479.2929292929293" cy="50.81213616139149" r="2" fill="rgb(0,255,0)"/><circle cx="484.34343434343435" cy="50.67394346941916" r="2" fill="rgb(0,255,0)"/><circle cx="489.3939393939394" cy="50.74438671218036" r="2" fill="rgb(0,255,0)"/><circle cx="494.4444444444444" cy="50.74438671218036" r="2" fill="rgb(0,255,0)"/><circle cx="499.4949494949495" cy="50.72073583130498" r="2" fill="rgb(0,255,0)"/><circle cx="504.5454545454545" cy="50.74438671218036" r="2" fill="rgb(0,255,0)"/><circle cx="509.59595959595964" cy="50.74438671218036" r="2" fill="rgb(0,255,0)"/><circle cx="514.6464646464647" cy="50.74438671218036" r="2" fill="rgb(0,255,0)"/><circle cx="519.6969696969697" cy="50.74438671218036" r="2" fill="rgb(0,255,0)"/><circle cx="524.7474747474748" cy="50.70576642888204" r="2" fill="rgb(0,255,0)"/><circle cx="529.7979797979798" cy="50.70576642888204" r="2" fill="rgb(0,255,0)"/><circle cx="534.8484848484849" cy="50.70576642888204" r="2" fill="rgb(0,255,0)"/><circle cx="539.8989898989898" cy="50.71912433579354" r="2" fill="rgb(0,255,0)"/><circle cx="544.9494949494949" cy="50.70101938082644" r="2" fill="rgb(0,255,0)"/><circle cx="550.0" cy="50.70101938082644" r="2" fill="rgb(0,255,0)"/><text x="350.0" y="20.0" text-anchor="middle" fill="rgb(0,0,0)" font-size="20.0">GA Demo</text><text x="350.0" y="575.0" text-anchor="middle" fill="rgb(0,0,0)" font-size="12.0">generation</text><text transform="rotate(-90.0 20.0 300.0)" x="20.0" y="300.0" text-anchor="middle" fill="rgb(0,0,0)" font-size="12.0">fitness</text><text x="620" y="62" fill="rgb(0,0,0)" font-size="12">min</text><text x="620" y="74" fill="rgb(0,0,255)" font-size="12">ave</text><text x="620" y="86" fill="rgb(0,255,0)" font-size="12">max</text>
      Sorry, your browser does not support inline SVG.
    </svg>