<?xml version='1.0' encoding='UTF-8'?>
<svg version="1.1" width="700.0" height="600.0" onload="init(evt)" xmlns="http://www.w3.org/2000/svg">
      <style>.caption {
  font-size: 14px;
  font-family: Georgia, serif;
}
</style>
      <script type="text/ecmascript"><![CDATA[
function init(evt) {
  if ( window.svgDocument == null ) {
    svgDocument = evt.target.ownerDocument;
  }
}

function RectHover(evt, i, c) {
  rect = svgDocument.getElementById('rect' + i);
  if( c != null ) {
    rect.setAttributeNS(null, "fill", c)  
  }
  tooltiptext = svgDocument.getElementById('tooltiptext' + i);
  tooltipbg = svgDocument.getElementById('tooltipbg' + i);
  if( tooltipbg != null) {
    tbb = tooltiptext.getBBox();
    tooltipbg.setAttributeNS(null, "width", tbb.width);
    tooltipbg.setAttributeNS(null, "height", tbb.height);
    tooltipbg.setAttributeNS(null, "x", tbb.x);
    tooltipbg.setAttributeNS(null, "y", tbb.y);
    tooltipbg.setAttributeNS(null, "visibility", "visible");
  }
  tooltiptext.setAttributeNS(null,"visibility","visible");
}

function RectUnhover(evt, i, c) {
  rect = svgDocument.getElementById('rect' + i);
  if( c != null ) {
    rect.setAttributeNS(null, "fill", c)  
  }
  tooltiptext = svgDocument.getElementById('tooltiptext' + i);
  tooltiptext.setAttributeNS(null,"visibility","hidden");
  tooltipbg = svgDocument.getElementById('tooltipbg' + i);
  if( tooltipbg != null ) {
    tooltipbg.setAttributeNS(null,"visibility","hidden");
  }
}
]]></script>
      <line x1="50.0" y1="550.0" x2="550.0" y2="550.0" stroke="rgb(0,0,0)" stroke-width="1"/><line x1="50.0" y1="550.0" x2="50.0" y2="50.0" stroke="rgb(0,0,0)" stroke-width="1"/><line x1="50.0" y1="550.0" x2="50.0" y2="50.0" stroke="rgb(192,192,192)" stroke-width="1"/><line x1="50.0" y1="548.0" x2="50.0" y2="552.0" stroke="rgb(192,192,192)" stroke-width="1"/><text text-anchor="middle" alignment-baseline="hanging" x="50.0" y="553.0" font-size="12.0">0</text><line x1="100.5050505050505" y1="550.0" x2="100.5050505050505" y2="50.0" stroke="rgb(192,192,192)" stroke-width="1"/><line x1="100.5050505050505" y1="548.0" x2="100.5050505050505" y2="552.0" stroke="rgb(192,192,192)" stroke-width="1"/><text text-anchor="middle" alignment-baseline="hanging" x="100.5050505050505" y="553.0" font-size="12.0">10</text><line x1="151.010101010101" y1="550.0" x2="151.010101010101" y2="50.0" stroke="rgb(192,192,192)" stroke-width="1"/><line x1="151.010101010101" y1="548.0" x2="151.010101010101" y2="552.0" stroke="rgb(192,192,192)" stroke-width="1"/><text text-anchor="middle" alignment-baseline="hanging" x="151.010101010101" y="553.0" font-size="12.0">20</text><line x1="201.51515151515153" y1="550.0" x2="201.51515151515153" y2="50.0" stroke="rgb(192,192,192)" stroke-width="1"/><line x1="201.51515151515153" y1="548.0" x2="201.51515151515153" y2="552.0" stroke="rgb(192,192,192)" stroke-width="1"/><text text-anchor="middle" alignment-baseline="hanging" x="201.51515151515153" y="553.0" font-size="12.0">30</text><line x1="252.02020202020202" y1="550.0" x2="252.02020202020202" y2="50.0" stroke="rgb(192,192,192)" stroke-width="1"/><line x1="252.02020202020202" y1="548.0" x2="252.02020202020202" y2="552.0" stroke="rgb(192,192,192)" stroke-width="1"/><text text-anchor="middle" alignment-baseline="hanging" x="252.02020202020202" y="553.0" font-size="12.0">40</text><line x1="302.52525252525254" y1="550.0" x2="302.52525252525254" y2="50.0" stroke="rgb(192,192,192)" stroke-width="1"/><line x1="302.52525252525254" y1="548.0" x2="302.52525252525254" y2="552.0" stroke="rgb(192,192,192)" stroke-width="1"/><text text-anchor="middle" alignment-baseline="hanging" x="302.52525252525254" y="553.0" font-size="12.0">50</text><line x1="353.03030303030306" y1="550.0" x2="353.03030303030306" y2="50.0" stroke="rgb(192,192,192)" stroke-width="1"/><line x1="353.03030303030306" y1="548.0" x2="353.03030303030306" y2="552.0" stroke="rgb(192,192,192)" stroke-width="1"/><text text-anchor="middle" alignment-baseline="hanging" x="353.03030303030306" y="553.0" font-size="12.0">60</text><line x1="403.5353535353535" y1="550.0" x2="403.5353535353535" y2="50.0" stroke="rgb(192,192,192)" stroke-width="1"/><line x1="403.5353535353535" y1="548.0" x2="403.5353535353535" y2="552.0" stroke="rgb(192,192,192)" stroke-width="1"/><text text-anchor="middle" alignment-baseline="hanging" x="403.5353535353535" y="553.0" font-size="12.0">70</text><line x1="454.04040404040404" y1="550.0" x2="454.04040404040404" y2="50.0" stroke="rgb(192,192,192)" stroke-width="1"/><line x1="454.04040404040404" y1="548.0" x2="454.04040404040404" y2="552.0" stroke="rgb(192,192,192)" stroke-width="1"/><text text-anchor="middle" alignment-baseline="hanging" x="454.04040404040404" y="553.0" font-size="12.0">80</text><line x1="504.5454545454545" y1="550.0" x2="504.5454545454545" y2="50.0" stroke="rgb(192,192,192)" stroke-width="1"/><line x1="504.5454545454545" y1="548.0" x2="504.5454545454545" y2="552.0" stroke="rgb(192,192,192)" stroke-width="1"/><text text-anchor="middle" alignment-baseline="hanging" x="504.5454545454545" y="553.0" font-size="12.0">90</text><line x1="50.0" y1="550.0" x2="550.0" y2="550.0" stroke="rgb(192,192,192)" stroke-width="1"/><text text-anchor="end" alignment-baseline="middle" x="45.0" y="550.0" font-size="12.0">0.0</text><line x1="48.0" y1="550.0" x2="52.0" y2="550.0" stroke="rgb(192,192,192)" stroke-width="1"/><line x1="50.0" y1="367.87727569259397" x2="550.0" y2="367.87727569259397" stroke="rgb(192,192,192)" stroke-width="1"/><text text-anchor="end" alignment-baseline="middle" x="45.0" y="367.87727569259397" font-size="12.0">1000.0</text><line x1="48.0" y1="367.87727569259397" x2="52.0" y2="367.87727569259397" stroke="rgb(192,192,192)" stroke-width="1"/><line x1="50.0" y1="185.75455138518794" x2="550.0" y2="185.75455138518794" stroke="rgb(192,192,192)" stroke-width="1"/><text text-anchor="end" alignment-baseline="middle" x="45.0" y="185.75455138518794" font-size="12.0">2000.0</text><line x1="48.0" y1="185.75455138518794" x2="52.0" y2="185.75455138518794" stroke="rgb(192,192,192)" stroke-width="1"/><polyline points="50.0,431.24199815380524 55.05050505050505,423.9771336720525 60.101010101010104,423.5659783057971 65.15151515151516,317.9636108943479 70.20202020202021,335.7181442082856 75.25252525252526,336.85556612020207 80.30303030303031,357.8344410255846 85.35353535353535,300.5244005436472 90.40404040404042,434.4699638664888 95.45454545454545,433.4470443976374 100.5050505050505,433.2189976488702 105.55555555555554,369.95922147605694 110.60606060606061,368.9804738214468 115.65656565656566,367.98976825727414 120.7070707070707,394.0372537185914 125.75757575757576,110.2552171872735 130.80808080808083,178.7259684358575 135.85858585858585,178.61011602098375 140.9090909090909,273.3750631437829 145.95959595959596,249.2881473521631 151.010101010101,211.04453743696178 156.06060606060606,236.2466004029352 161.1111111111111,289.1515859528583 166.16161616161617,288.7892376499238 171.21212121212122,344.0679059015108 176.26262626262627,393.7977597678647 181.31313131313132,364.4067990572161 186.36363636363635,385.6365906290752 191.4141414141414,385.4788166080481 196.46464646464648,346.57473564542335 201.51515151515153,367.5365971639203 206.56565656565658,372.0291597620473 211.61616161616163,369.6367767916655 216.66666666666666,393.6936416719172 221.7171717171717,393.6936416719172 226.76767676767676,393.95516897917906 231.8181818181818,378.0982597902946 236.86868686868686,352.1117300359527 241.91919191919192,351.84704223815544 246.96969696969697,352.0804072619345 252.02020202020202,246.59108638402932 257.07070707070704,246.669157469555 262.1212121212121,399.37811205447093 267.1717171717172,399.3448328057226 272.2222222222222,417.5887529194766 277.27272727272725,397.57188220462433 282.32323232323233,397.8402621797027 287.3737373737374,326.32073010167846 292.42424242424244,316.9760601718836 297.47474747474746,333.85463087821654 302.52525252525254,361.6151221596624 307.57575757575756,291.4076610454364 312.62626262626264,377.3853968593239 317.67676767676767,375.41978447044886 322.7272727272727,246.20127700212214 327.77777777777777,237.9547937712914 332.8282828282828,395.3088286115917 337.8787878787879,393.38232432640547 342.92929292929296,306.7781996252749 347.979797979798,386.9960473360359 353.03030303030306,405.10212905726866 358.0808080808081,402.2250624582041 363.13131313131316,385.52818009067755 368.1818181818182,405.0897152501868 373.23232323232327,386.59383713109764 378.2828282828283,182.82270394593405 383.3333333333333,380.46342394913756 388.3838383838384,233.2105475939614 393.4343434343434,309.4308427586825 398.4848484848485,343.7632381862427 403.5353535353535,364.23257531160596 408.58585858585855,364.18604835973395 413.6363636363636,365.225029108341 418.68686868686865,377.0538119599548 423.73737373737373,383.4322985105296 428.7878787878788,329.58380446090484 433.83838383838383,283.78028534594165 438.8888888888889,363.4881266726768 443.93939393939394,412.5730878338427 448.989898989899,278.35583976557433 454.04040404040404,277.01533023583187 459.0909090909091,359.45277065839826 464.14141414141415,311.84519328005496 469.19191919191917,359.69140540612636 474.24242424242425,408.662089000159 479.2929292929293,408.66865928811933 484.34343434343435,317.94608748621124 489.3939393939394,336.4814010954825 494.4444444444444,399.1650688118415 499.4949494949495,402.60055798900567 504.5454545454545,338.4913931657582 509.59595959595964,196.04103688455223 514.6464646464647,406.80359959971076 519.6969696969697,366.924487853369 524.7474747474748,405.11965329611985 529.7979797979798,350.43151457213344 534.8484848484849,345.75936037637814 539.8989898989898,412.0421227317978 544.9494949494949,391.4824947218613 550.0,391.4824947218613" fill="none" stroke="rgb(0,0,0)" stroke-width="1"/><circle cx="50.0" cy="431.24199815380524" r="2" fill="rgb(0,0,0)"/><circle cx="55.05050505050505" cy="423.9771336720525" r="2" fill="rgb(0,0,0)"/><circle cx="60.101010101010104" cy="423.5659783057971" r="2" fill="rgb(0,0,0)"/><circle cx="65.15151515151516" cy="317.9636108943479" r="2" fill="rgb(0,0,0)"/><circle cx="70.20202020202021" cy="335.7181442082856" r="2" fill="rgb(0,0,0)"/><circle cx="75.25252525252526" cy="336.85556612020207" r="2" fill="rgb(0,0,0)"/><circle cx="80.30303030303031" cy="357.8344410255846" r="2" fill="rgb(0,0,0)"/><circle cx="85.35353535353535" cy="300.5244005436472" r="2" fill="rgb(0,0,0)"/><circle cx="90.40404040404042" cy="434.4699638664888" r="2" fill="rgb(0,0,0)"/><circle cx="95.45454545454545" cy="433.4470443976374" r="2" fill="rgb(0,0,0)"/><circle cx="100.5050505050505" cy="433.2189976488702" r="2" fill="rgb(0,0,0)"/><circle cx="105.55555555555554" cy="369.95922147605694" r="2" fill="rgb(0,0,0)"/><circle cx="110.60606060606061" cy="368.9804738214468" r="2" fill="rgb(0,0,0)"/><circle cx="115.65656565656566" cy="367.98976825727414" r="2" fill="rgb(0,0,0)"/><circle cx="120.7070707070707" cy="394.0372537185914" r="2" fill="rgb(0,0,0)"/><circle cx="125.75757575757576" cy="110.2552171872735" r="2" fill="rgb(0,0,0)"/><circle cx="130.80808080808083" cy="178.7259684358575" r="2" fill="rgb(0,0,0)"/><circle cx="135.85858585858585" cy="178.61011602098375" r="2" fill="rgb(0,0,0)"/><circle cx="140.9090909090909" cy="273.3750631437829" r="2" fill="rgb(0,0,0)"/><circle cx="145.95959595959596" cy="249.2881473521631" r="2" fill="rgb(0,0,0)"/><circle cx="151.010101010101" cy="211.04453743696178" r="2" fill="rgb(0,0,0)"/><circle cx="156.06060606060606" cy="236.2466004029352" r="2" fill="rgb(0,0,0)"/><circle cx="161.1111111111111" cy="289.1515859528583" r="2" fill="rgb(0,0,0)"/><circle cx="166.16161616161617" cy="288.7892376499238" r="2" fill="rgb(0,0,0)"/><circle cx="171.21212121212122" cy="344.0679059015108" r="2" fill="rgb(0,0,0)"/><circle cx="176.26262626262627" cy="393.7977597678647" r="2" fill="rgb(0,0,0)"/><circle cx="181.31313131313132" cy="364.4067990572161" r="2" fill="rgb(0,0,0)"/><circle cx="186.36363636363635" cy="385.6365906290752" r="2" fill="rgb(0,0,0)"/><circle cx="191.4141414141414" cy="385.4788166080481" r="2" fill="rgb(0,0,0)"/><circle cx="196.46464646464648" cy="346.57473564542335" r="2" fill="rgb(0,0,0)"/><circle cx="201.51515151515153" cy="367.5365971639203" r="2" fill="rgb(0,0,0)"/><circle cx="206.56565656565658" cy="372.0291597620473" r="2" fill="rgb(0,0,0)"/><circle cx="211.61616161616163" cy="369.6367767916655" r="2" fill="rgb(0,0,0)"/><circle cx="216.66666666666666" cy="393.6936416719172" r="2" fill="rgb(0,0,0)"/><circle cx="221.7171717171717" cy="393.6936416719172" r="2" fill="rgb(0,0,0)"/><circle cx="226.76767676767676" cy="393.95516897917906" r="2" fill="rgb(0,0,0)"/><circle cx="231.8181818181818" cy="378.0982597902946" r="2" fill="rgb(0,0,0)"/><circle cx="236.86868686868686" cy="352.1117300359527" r="2" fill="rgb(0,0,0)"/><circle cx="241.91919191919192" cy="351.84704223815544" r="2" fill="rgb(0,0,0)"/><circle cx="246.96969696969697" cy="352.0804072619345" r="2" fill="rgb(0,0,0)"/><circle cx="252.02020202020202" cy="246.59108638402932" r="2" fill="rgb(0,0,0)"/><circle cx="257.07070707070704" cy="246.669157469555" r="2" fill="rgb(0,0,0)"/><circle cx="262.1212121212121" cy="399.37811205447093" r="2" fill="rgb(0,0,0)"/><circle cx="267.1717171717172" cy="399.3448328057226" r="2" fill="rgb(0,0,0)"/><circle cx="272.2222222222222" cy="417.5887529194766" r="2" fill="rgb(0,0,0)"/><circle cx="277.27272727272725" cy="397.57188220462433" r="2" fill="rgb(0,0,0)"/><circle cx="282.32323232323233" cy="397.8402621797027" r="2" fill="rgb(0,0,0)"/><circle cx="287.3737373737374" cy="326.32073010167846" r="2" fill="rgb(0,0,0)"/><circle cx="292.42424242424244" cy="316.9760601718836" r="2" fill="rgb(0,0,0)"/><circle cx="297.47474747474746" cy="333.85463087821654" r="2" fill="rgb(0,0,0)"/><circle cx="302.52525252525254" cy="361.6151221596624" r="2" fill="rgb(0,0,0)"/><circle cx="307.57575757575756" cy="291.4076610454364" r="2" fill="rgb(0,0,0)"/><circle cx="312.62626262626264" cy="377.3853968593239" r="2" fill="rgb(0,0,0)"/><circle cx="317.67676767676767" cy="375.41978447044886" r="2" fill="rgb(0,0,0)"/><circle cx="322.7272727272727" cy="246.20127700212214" r="2" fill="rgb(0,0,0)"/><circle cx="327.77777777777777" cy="237.9547937712914" r="2" fill="rgb(0,0,0)"/><circle cx="332.8282828282828" cy="395.3088286115917" r="2" fill="rgb(0,0,0)"/><circle cx="337.8787878787879" cy="393.38232432640547" r="2" fill="rgb(0,0,0)"/><circle cx="342.92929292929296" cy="306.7781996252749" r="2" fill="rgb(0,0,0)"/><circle cx="347.979797979798" cy="386.9960473360359" r="2" fill="rgb(0,0,0)"/><circle cx="353.03030303030306" cy="405.10212905726866" r="2" fill="rgb(0,0,0)"/><circle cx="358.0808080808081" cy="402.2250624582041" r="2" fill="rgb(0,0,0)"/><circle cx="363.13131313131316" cy="385.52818009067755" r="2" fill="rgb(0,0,0)"/><circle cx="368.1818181818182" cy="405.0897152501868" r="2" fill="rgb(0,0,0)"/><circle cx="373.23232323232327" cy="386.59383713109764" r="2" fill="rgb(0,0,0)"/><circle cx="378.2828282828283" cy="182.82270394593405" r="2" fill="rgb(0,0,0)"/><circle cx="383.3333333333333" cy="380.46342394913756" r="2" fill="rgb(0,0,0)"/><circle cx="388.3838383838384" cy="233.2105475939614" r="2" fill="rgb(0,0,0)"/><circle cx="393.4343434343434" cy="309.4308427586825" r="2" fill="rgb(0,0,0)"/><circle cx="398.4848484848485" cy="343.7632381862427" r="2" fill="rgb(0,0,0)"/><circle cx="403.5353535353535" cy="364.23257531160596" r="2" fill="rgb(0,0,0)"/><circle cx="408.58585858585855" cy="364.18604835973395" r="2" fill="rgb(0,0,0)"/><circle cx="413.6363636363636" cy="365.225029108341" r="2" fill="rgb(0,0,0)"/><circle cx="418.68686868686865" cy="377.0538119599548" r="2" fill="rgb(0,0,0)"/><circle cx="423.73737373737373" cy="383.4322985105296" r="2" fill="rgb(0,0,0)"/><circle cx="428.7878787878788" cy="329.58380446090484" r="2" fill="rgb(0,0,0)"/><circle cx="433.83838383838383" cy="283.78028534594165" r="2" fill="rgb(0,0,0)"/><circle cx="438.8888888888889" cy="363.4881266726768" r="2" fill="rgb(0,0,0)"/><circle cx="443.93939393939394" cy="412.5730878338427" r="2" fill="rgb(0,0,0)"/><circle cx="448.989898989899" cy="278.35583976557433" r="2" fill="rgb(0,0,0)"/><circle cx="454.04040404040404" cy="277.01533023583187" r="2" fill="rgb(0,0,0)"/><circle cx="459.0909090909091" cy="359.45277065839826" r="2" fill="rgb(0,0,0)"/><circle cx="464.14141414141415" cy="311.84519328005496" r="2" fill="rgb(0,0,0)"/><circle cx="469.19191919191917" cy="359.69140540612636" r="2" fill="rgb(0,0,0)"/><circle cx="474.24242424242425" cy="408.662089000159" r="2" fill="rgb(0,0,0)"/><circle cx="479.2929292929293" cy="408.66865928811933" r="2" fill="rgb(0,0,0)"/><circle cx="484.34343434343435" cy="317.94608748621124" r="2" fill="rgb(0,0,0)"/><circle cx="489.3939393939394" cy="336.4814010954825" r="2" fill="rgb(0,0,0)"/><circle cx="494.4444444444444" cy="399.1650688118415" r="2" fill="rgb(0,0,0)"/><circle cx="499.4949494949495" cy="402.60055798900567" r="2" fill="rgb(0,0,0)"/><circle cx="504.5454545454545" cy="338.4913931657582" r="2" fill="rgb(0,0,0)"/><circle cx="509.59595959595964" cy="196.04103688455223" r="2" fill="rgb(0,0,0)"/><circle cx="514.6464646464647" cy="406.80359959971076" r="2" fill="rgb(0,0,0)"/><circle cx="519.6969696969697" cy="366.924487853369" r="2" fill="rgb(0,0,0)"/><circle cx="524.7474747474748" cy="405.11965329611985" r="2" fill="rgb(0,0,0)"/><circle cx="529.7979797979798" cy="350.43151457213344" r="2" fill="rgb(0,0,0)"/><circle cx="534.8484848484849" cy="345.75936037637814" r="2" fill="rgb(0,0,0)"/><circle cx="539.8989898989898" cy="412.0421227317978" r="2" fill="rgb(0,0,0)"/><circle cx="544.9494949494949" cy="391.4824947218613" r="2" fill="rgb(0,0,0)"/><circle cx="550.0" cy="391.4824947218613" r="2" fill="rgb(0,0,0)"/><polyline points="50.0,231.6696364249678 55.05050505050505,205.9730530088503 60.101010101010104,180.44407475300721 65.15151515151516,141.2430573019127 70.20202020202021,130.71383640302838 75.25252525252526,128.81098723350186 80.30303030303031,117.31403849335373 85.35353535353535,106.5502736451212 90.40404040404042,118.78887362537779 95.45454545454545,116.6135544022705 100.5050505050505,102.66751212792519 105.55555555555554,95.3673726648135 110.60606060606061,88.93238830010796 115.65656565656566,77.20834356795734 120.7070707070707,70.63056782508613 125.75757575757576,62.517660058054844 130.80808080808083,61.332644320352244 135.85858585858585,58.05951846883153 140.9090909090909,60.67627581375706 145.95959595959596,58.149588640861396 151.010101010101,56.876202887947386 156.06060606060606,55.74842685688401 161.1111111111111,62.0618460908446 166.16161616161617,63.61942449470632 171.21212121212122,61.468716848198824 176.26262626262627,63.15389102408966 181.31313131313132,65.67338655838813 186.36363636363635,69.76201207360782 191.4141414141414,67.74030198619619 196.46464646464648,65.04232694305347 201.51515151515153,60.168897675584674 206.56565656565658,68.81900999607393 211.61616161616163,61.099845506964016 216.66666666666666,61.274003444418724 221.7171717171717,67.5309625014886 226.76767676767676,68.27633150369178 231.8181818181818,73.09644103623907 236.86868686868686,58.118965112957824 241.91919191919192,59.45712893395404 246.96969696969697,65.41958042198951 252.02020202020202,56.50903784448599 257.07070707070704,59.243019450554925 262.1212121212121,56.699952910903164 267.1717171717172,61.190030553622705 272.2222222222222,64.70897320735997 277.27272727272725,58.32479796051223 282.32323232323233,64.13733810654281 287.3737373737374,58.20529195998171 292.42424242424244,57.816383435634066 297.47474747474746,59.26380497753627 302.52525252525254,63.80895201800121 307.57575757575756,60.9144087160189 312.62626262626264,58.81531194555987 317.67676767676767,58.2929288420886 322.7272727272727,53.97352828111286 327.77777777777777,54.36604229487375 332.8282828282828,63.871743660314735 337.8787878787879,60.888392940901156 342.92929292929296,60.84668944505711 347.979797979798,67.39320727643889 353.03030303030306,67.89312041524738 358.0808080808081,67.49192379276332 363.13131313131316,67.18378904961497 368.1818181818182,67.21221341771201 373.23232323232327,60.376010346190014 378.2828282828283,52.8773459388392 383.3333333333333,63.56230647671259 388.3838383838384,59.34266655017376 393.4343434343434,56.23528588686435 398.4848484848485,63.370661037063996 403.5353535353535,69.14809880204996 408.58585858585855,70.4465841096901 413.6363636363636,64.55151373100045 418.68686868686865,72.44291213974304 423.73737373737373,70.3042509635697 428.7878787878788,61.99597326994552 433.83838383838383,56.74913649006612 438.8888888888889,60.03161894008275 443.93939393939394,67.7678156213525 448.989898989899,61.32202432252882 454.04040404040404,55.86060688260193 459.0909090909091,61.07488374809941 464.14141414141415,56.58051880472016 469.19191919191917,59.94287464643196 474.24242424242425,62.09076460648561 479.2929292929293,63.635802271419664 484.34343434343435,58.74650275492371 489.3939393939394,60.18638618339759 494.4444444444444,61.205558355749815 499.4949494949495,58.47494811693008 504.5454545454545,55.3286431482079 509.59595959595964,54.35894034927475 514.6464646464647,59.22900453096349 519.6969696969697,54.974536474335196 524.7474747474748,61.174026138267664 529.7979797979798,64.40708918410996 534.8484848484849,62.12311002561552 539.8989898989898,76.60023776625872 544.9494949494949,73.70589884175479 550.0,68.58119060402396" fill="none" stroke="rgb(0,0,255)" stroke-width="1"/><circle cx="50.0" cy="231.6696364249678" r="2" fill="rgb(0,0,255)"/><circle cx="55.05050505050505" cy="205.9730530088503" r="2" fill="rgb(0,0,255)"/><circle cx="60.101010101010104" cy="180.44407475300721" r="2" fill="rgb(0,0,255)"/><circle cx="65.15151515151516" cy="141.2430573019127" r="2" fill="rgb(0,0,255)"/><circle cx="70.20202020202021" cy="130.71383640302838" r="2" fill="rgb(0,0,255)"/><circle cx="75.25252525252526" cy="128.81098723350186" r="2" fill="rgb(0,0,255)"/><circle cx="80.30303030303031" cy="117.31403849335373" r="2" fill="rgb(0,0,255)"/><circle cx="85.35353535353535" cy="106.5502736451212" r="2" fill="rgb(0,0,255)"/><circle cx="90.40404040404042" cy="118.78887362537779" r="2" fill="rgb(0,0,255)"/><circle cx="95.45454545454545" cy="116.6135544022705" r="2" fill="rgb(0,0,255)"/><circle cx="100.5050505050505" cy="102.66751212792519" r="2" fill="rgb(0,0,255)"/><circle cx="105.55555555555554" cy="95.3673726648135" r="2" fill="rgb(0,0,255)"/><circle cx="110.60606060606061" cy="88.93238830010796" r="2" fill="rgb(0,0,255)"/><circle cx="115.65656565656566" cy="77.20834356795734" r="2" fill="rgb(0,0,255)"/><circle cx="120.7070707070707" cy="70.63056782508613" r="2" fill="rgb(0,0,255)"/><circle cx="125.75757575757576" cy="62.517660058054844" r="2" fill="rgb(0,0,255)"/><circle cx="130.80808080808083" cy="61.332644320352244" r="2" fill="rgb(0,0,255)"/><circle cx="135.85858585858585" cy="58.05951846883153" r="2" fill="rgb(0,0,255)"/><circle cx="140.9090909090909" cy="60.67627581375706" r="2" fill="rgb(0,0,255)"/><circle cx="145.95959595959596" cy="58.149588640861396" r="2" fill="rgb(0,0,255)"/><circle cx="151.010101010101" cy="56.876202887947386" r="2" fill="rgb(0,0,255)"/><circle cx="156.06060606060606" cy="55.74842685688401" r="2" fill="rgb(0,0,255)"/><circle cx="161.1111111111111" cy="62.0618460908446" r="2" fill="rgb(0,0,255)"/><circle cx="166.16161616161617" cy="63.61942449470632" r="2" fill="rgb(0,0,255)"/><circle cx="171.21212121212122" cy="61.468716848198824" r="2" fill="rgb(0,0,255)"/><circle cx="176.26262626262627" cy="63.15389102408966" r="2" fill="rgb(0,0,255)"/><circle cx="181.31313131313132" cy="65.67338655838813" r="2" fill="rgb(0,0,255)"/><circle cx="186.36363636363635" cy="69.76201207360782" r="2" fill="rgb(0,0,255)"/><circle cx="191.4141414141414" cy="67.74030198619619" r="2" fill="rgb(0,0,255)"/><circle cx="196.46464646464648" cy="65.04232694305347" r="2" fill="rgb(0,0,255)"/><circle cx="201.51515151515153" cy="60.168897675584674" r="2" fill="rgb(0,0,255)"/><circle cx="206.56565656565658" cy="68.81900999607393" r="2" fill="rgb(0,0,255)"/><circle cx="211.61616161616163" cy="61.099845506964016" r="2" fill="rgb(0,0,255)"/><circle cx="216.66666666666666" cy="61.274003444418724" r="2" fill="rgb(0,0,255)"/><circle cx="221.7171717171717" cy="67.5309625014886" r="2" fill="rgb(0,0,255)"/><circle cx="226.76767676767676" cy="68.27633150369178" r="2" fill="rgb(0,0,255)"/><circle cx="231.8181818181818" cy="73.09644103623907" r="2" fill="rgb(0,0,255)"/><circle cx="236.86868686868686" cy="58.118965112957824" r="2" fill="rgb(0,0,255)"/><circle cx="241.91919191919192" cy="59.45712893395404" r="2" fill="rgb(0,0,255)"/><circle cx="246.96969696969697" cy="65.41958042198951" r="2" fill="rgb(0,0,255)"/><circle cx="252.02020202020202" cy="56.50903784448599" r="2" fill="rgb(0,0,255)"/><circle cx="257.07070707070704" cy="59.243019450554925" r="2" fill="rgb(0,0,255)"/><circle cx="262.1212121212121" cy="56.699952910903164" r="2" fill="rgb(0,0,255)"/><circle cx="267.1717171717172" cy="61.190030553622705" r="2" fill="rgb(0,0,255)"/><circle cx="272.2222222222222" cy="64.70897320735997" r="2" fill="rgb(0,0,255)"/><circle cx="277.27272727272725" cy="58.32479796051223" r="2" fill="rgb(0,0,255)"/><circle cx="282.32323232323233" cy="64.13733810654281" r="2" fill="rgb(0,0,255)"/><circle cx="287.3737373737374" cy="58.20529195998171" r="2" fill="rgb(0,0,255)"/><circle cx="292.42424242424244" cy="57.816383435634066" r="2" fill="rgb(0,0,255)"/><circle cx="297.47474747474746" cy="59.26380497753627" r="2" fill="rgb(0,0,255)"/><circle cx="302.52525252525254" cy="63.80895201800121" r="2" fill="rgb(0,0,255)"/><circle cx="307.57575757575756" cy="60.9144087160189" r="2" fill="rgb(0,0,255)"/><circle cx="312.62626262626264" cy="58.81531194555987" r="2" fill="rgb(0,0,255)"/><circle cx="317.67676767676767" cy="58.2929288420886" r="2" fill="rgb(0,0,255)"/><circle cx="322.7272727272727" cy="53.97352828111286" r="2" fill="rgb(0,0,255)"/><circle cx="327.77777777777777" cy="54.36604229487375" r="2" fill="rgb(0,0,255)"/><circle cx="332.8282828282828" cy="63.871743660314735" r="2" fill="rgb(0,0,255)"/><circle cx="337.8787878787879" cy="60.888392940901156" r="2" fill="rgb(0,0,255)"/><circle cx="342.92929292929296" cy="60.84668944505711" r="2" fill="rgb(0,0,255)"/><circle cx="347.979797979798" cy="67.39320727643889" r="2" fill="rgb(0,0,255)"/><circle cx="353.03030303030306" cy="67.89312041524738" r="2" fill="rgb(0,0,255)"/><circle cx="358.0808080808081" cy="67.49192379276332" r="2" fill="rgb(0,0,255)"/><circle cx="363.13131313131316" cy="67.18378904961497" r="2" fill="rgb(0,0,255)"/><circle cx="368.1818181818182" cy="67.21221341771201" r="2" fill="rgb(0,0,255)"/><circle cx="373.23232323232327" cy="60.376010346190014" r="2" fill="rgb(0,0,255)"/><circle cx="378.2828282828283" cy="52.8773459388392" r="2" fill="rgb(0,0,255)"/><circle cx="383.3333333333333" cy="63.56230647671259" r="2" fill="rgb(0,0,255)"/><circle cx="388.3838383838384" cy="59.34266655017376" r="2" fill="rgb(0,0,255)"/><circle cx="393.4343434343434" cy="56.23528588686435" r="2" fill="rgb(0,0,255)"/><circle cx="398.4848484848485" cy="63.370661037063996" r="2" fill="rgb(0,0,255)"/><circle cx="403.5353535353535" cy="69.14809880204996" r="2" fill="rgb(0,0,255)"/><circle cx="408.58585858585855" cy="70.4465841096901" r="2" fill="rgb(0,0,255)"/><circle cx="413.6363636363636" cy="64.55151373100045" r="2" fill="rgb(0,0,255)"/><circle cx="418.68686868686865" cy="72.44291213974304" r="2" fill="rgb(0,0,255)"/><circle cx="423.73737373737373" cy="70.3042509635697" r="2" fill="rgb(0,0,255)"/><circle cx="428.7878787878788" cy="61.99597326994552" r="2" fill="rgb(0,0,255)"/><circle cx="433.83838383838383" cy="56.74913649006612" r="2" fill="rgb(0,0,255)"/><circle cx="438.8888888888889" cy="60.03161894008275" r="2" fill="rgb(0,0,255)"/><circle cx="443.93939393939394" cy="67.7678156213525" r="2" fill="rgb(0,0,255)"/><circle cx="448.989898989899" cy="61.32202432252882" r="2" fill="rgb(0,0,255)"/><circle cx="454.04040404040404" cy="55.86060688260193" r="2" fill="rgb(0,0,255)"/><circle cx="459.0909090909091" cy="61.07488374809941" r="2" fill="rgb(0,0,255)"/><circle cx="464.14141414141415" cy="56.58051880472016" r="2" fill="rgb(0,0,255)"/><circle cx="469.19191919191917" cy="59.94287464643196" r="2" fill="rgb(0,0,255)"/><circle cx="474.24242424242425" cy="62.09076460648561" r="2" fill="rgb(0,0,255)"/><circle cx="479.2929292929293" cy="63.635802271419664" r="2" fill="rgb(0,0,255)"/><circle cx="484.34343434343435" cy="58.74650275492371" r="2" fill="rgb(0,0,255)"/><circle cx="489.3939393939394" cy="60.18638618339759" r="2" fill="rgb(0,0,255)"/><circle cx="494.4444444444444" cy="61.205558355749815" r="2" fill="rgb(0,0,255)"/><circle cx="499.4949494949495" cy="58.47494811693008" r="2" fill="rgb(0,0,255)"/><circle cx="504.5454545454545" cy="55.3286431482079" r="2" fill="rgb(0,0,255)"/><circle cx="509.59595959595964" cy="54.35894034927475" r="2" fill="rgb(0,0,255)"/><circle cx="514.6464646464647" cy="59.22900453096349" r="2" fill="rgb(0,0,255)"/><circle cx="519.6969696969697" cy="54.974536474335196" r="2" fill="rgb(0,0,255)"/><circle cx="524.7474747474748" cy="61.174026138267664" r="2" fill="rgb(0,0,255)"/><circle cx="529.7979797979798" cy="64.40708918410996" r="2" fill="rgb(0,0,255)"/><circle cx="534.8484848484849" cy="62.12311002561552" r="2" fill="rgb(0,0,255)"/><circle cx="539.8989898989898" cy="76.60023776625872" r="2" fill="rgb(0,0,255)"/><circle cx="544.9494949494949" cy="73.70589884175479" r="2" fill="rgb(0,0,255)"/><circle cx="550.0" cy="68.58119060402396" r="2" fill="rgb(0,0,255)"/><polyline points="50.0,71.26768512781837 55.05050505050505,71.37773185443336 60.101010101010104,54.572415137784844 65.15151515151516,53.98640115064586 70.20202020202021,55.345884799691476 75.25252525252526,54.590539923949905 80.30303030303031,54.58435469238816 85.35353535353535,68.16320656577523 90.40404040404042,68.92265740438341 95.45454545454545,54.95345105624858 100.5050505050505,52.78976561705457 105.55555555555554,53.78070652474986 110.60606060606061,52.87213291388974 115.65656565656566,52.003002267157 120.7070707070707,51.8808625359805 125.75757575757576,51.8808625359805 130.80808080808083,52.84217563091761 135.85858585858585,52.25815884621505 140.9090909090909,51.83383243172858 145.95959595959596,51.58079065213951 151.010101010101,52.130357752156215 156.06060606060606,51.41313004336621 161.1111111111111,51.379787765601804 166.16161616161617,50.97087170666623 171.21212121212122,50.92143706223624 176.26262626262627,50.92143706223624 181.31313131313132,51.19232550950761 186.36363636363635,51.39972000215704 191.4141414141414,51.14645496469052 196.46464646464648,50.99455289495177 201.51515151515153,50.881767166893326 206.56565656565658,51.14645496469052 211.61616161616163,50.881767166893326 216.66666666666666,50.84385294207499 221.7171717171717,51.068601968864016 226.76767676767676,50.69176060218405 231.8181818181818,50.78575347616237 236.86868686868686,50.79953476190252 241.91919191919192,50.58311711046338 246.96969696969697,50.65381033362763 252.02020202020202,50.8732420498269 257.07070707070704,50.8732420498269 262.1212121212121,50.75756902041968 267.1717171717172,50.742854392874904 272.2222222222222,50.73805085679311 277.27272727272725,50.749218181971685 282.32323232323233,50.605204812129216 287.3737373737374,50.70788168797901 292.42424242424244,50.585726939995425 297.47474747474746,50.44145653155556 302.52525252525254,50.21694508026599 307.57575757575756,50.48019465535657 312.62626262626264,50.48019465535657 317.67676767676767,50.544798650416965 322.7272727272727,50.46323050404493 327.77777777777777,50.46323050404493 332.8282828282828,50.32274923330431 337.8787878787879,50.35742635100655 342.92929292929296,50.16398397630104 347.979797979798,50.16398397630104 353.03030303030306,50.16398397630104 358.0808080808081,50.16398397630104 363.13131313131316,50.14100869956752 368.1818181818182,50.14100869956752 373.23232323232327,50.13939751407867 378.2828282828283,50.14100869956752 383.3333333333333,50.092870562206656 388.3838383838384,50.09448174769551 393.4343434343434,50.09448174769551 398.4848484848485,50.092870562206656 403.5353535353535,50.092870562206656 408.58585858585855,50.129489838815516 413.6363636363636,50.14100869956752 418.68686868686865,50.137233394761495 423.73737373737373,50.09448174769551 428.7878787878788,50.092870562206656 433.83838383838383,50.12539062724983 438.8888888888889,50.12539062724983 443.93939393939394,50.09448174769551 448.989898989899,50.09448174769551 454.04040404040404,50.09448174769551 459.0909090909091,50.09448174769551 464.14141414141415,50.09448174769551 469.19191919191917,50.095598657125095 474.24242424242425,50.09448174769551 479.2929292929293,50.05748822993331 484.34343434343435,50.09448174769551 489.3939393939394,50.09448174769551 494.4444444444444,50.06653601429059 499.4949494949495,50.06653601429059 504.5454545454545,50.02657935037894 509.59595959595964,50.06653601429059 514.6464646464647,50.09448174769551 519.6969696969697,50.09448174769551 524.7474747474748,50.061017806521534 529.7979797979798,50.061017806521534 534.8484848484849,50.061017806521534 539.8989898989898,50.00657028796036 544.9494949494949,50.0 550.0,50.03863051417551" fill="none" stroke="rgb(0,255,0)" stroke-width="1"/><circle cx="50.0" cy="71.26768512781837" r="2" fill="rgb(0,255,0)"/><circle cx="55.05050505050505" cy="71.37773185443336" r="2" fill="rgb(0,255,0)"/><circle cx="60.101010101010104" cy="54.572415137784844" r="2" fill="rgb(0,255,0)"/><circle cx="65.15151515151516" cy="53.98640115064586" r="2" fill="rgb(0,255,0)"/><circle cx="70.20202020202021" cy="55.345884799691476" r="2" fill="rgb(0,255,0)"/><circle cx="75.25252525252526" cy="54.590539923949905" r="2" fill="rgb(0,255,0)"/><circle cx="80.30303030303031" cy="54.58435469238816" r="2" fill="rgb(0,255,0)"/><circle cx="85.35353535353535" cy="68.16320656577523" r="2" fill="rgb(0,255,0)"/><circle cx="90.40404040404042" cy="68.92265740438341" r="2" fill="rgb(0,255,0)"/><circle cx="95.45454545454545" cy="54.95345105624858" r="2" fill="rgb(0,255,0)"/><circle cx="100.5050505050505" cy="52.78976561705457" r="2" fill="rgb(0,255,0)"/><circle cx="105.55555555555554" cy="53.78070652474986" r="2" fill="rgb(0,255,0)"/><circle cx="110.60606060606061" cy="52.87213291388974" r="2" fill="rgb(0,255,0)"/><circle cx="115.65656565656566" cy="52.003002267157" r="2" fill="rgb(0,255,0)"/><circle cx="120.7070707070707" cy="51.8808625359805" r="2" fill="rgb(0,255,0)"/><circle cx="125.75757575757576" cy="51.8808625359805" r="2" fill="rgb(0,255,0)"/><circle cx="130.80808080808083" cy="52.84217563091761" r="2" fill="rgb(0,255,0)"/><circle cx="135.85858585858585" cy="52.25815884621505" r="2" fill="rgb(0,255,0)"/><circle cx="140.9090909090909" cy="51.83383243172858" r="2" fill="rgb(0,255,0)"/><circle cx="145.95959595959596" cy="51.58079065213951" r="2" fill="rgb(0,255,0)"/><circle cx="151.010101010101" cy="52.130357752156215" r="2" fill="rgb(0,255,0)"/><circle cx="156.06060606060606" cy="51.41313004336621" r="2" fill="rgb(0,255,0)"/><circle cx="161.1111111111111" cy="51.379787765601804" r="2" fill="rgb(0,255,0)"/><circle cx="166.16161616161617" cy="50.97087170666623" r="2" fill="rgb(0,255,0)"/><circle cx="171.21212121212122" cy="50.92143706223624" r="2" fill="rgb(0,255,0)"/><circle cx="176.26262626262627" cy="50.92143706223624" r="2" fill="rgb(0,255,0)"/><circle cx="181.31313131313132" cy="51.19232550950761" r="2" fill="rgb(0,255,0)"/><circle cx="186.36363636363635" cy="51.39972000215704" r="2" fill="rgb(0,255,0)"/><circle cx="191.4141414141414" cy="51.14645496469052" r="2" fill="rgb(0,255,0)"/><circle cx="196.46464646464648" cy="50.99455289495177" r="2" fill="rgb(0,255,0)"/><circle cx="201.51515151515153" cy="50.881767166893326" r="2" fill="rgb(0,255,0)"/><circle cx="206.56565656565658" cy="51.14645496469052" r="2" fill="rgb(0,255,0)"/><circle cx="211.61616161616163" cy="50.881767166893326" r="2" fill="rgb(0,255,0)"/><circle cx="216.66666666666666" cy="50.84385294207499" r="2" fill="rgb(0,255,0)"/><circle cx="221.7171717171717" cy="51.068601968864016" r="2" fill="rgb(0,255,0)"/><circle cx="226.76767676767676" cy="50.69176060218405" r="2" fill="rgb(0,255,0)"/><circle cx="231.8181818181818" cy="50.78575347616237" r="2" fill="rgb(0,255,0)"/><circle cx="236.86868686868686" cy="50.79953476190252" r="2" fill="rgb(0,255,0)"/><circle cx="241.91919191919192" cy="50.58311711046338" r="2" fill="rgb(0,255,0)"/><circle cx="246.96969696969697" cy="50.65381033362763" r="2" fill="rgb(0,255,0)"/><circle cx="252.02020202020202" cy="50.8732420498269" r="2" fill="rgb(0,255,0)"/><circle cx="257.07070707070704" cy="50.8732420498269" r="2" fill="rgb(0,255,0)"/><circle cx="262.1212121212121" cy="50.75756902041968" r="2" fill="rgb(0,255,0)"/><circle cx="267.1717171717172" cy="50.742854392874904" r="2" fill="rgb(0,255,0)"/><circle cx="272.2222222222222" cy="50.73805085679311" r="2" fill="rgb(0,255,0)"/><circle cx="277.27272727272725" cy="50.749218181971685" r="2" fill="rgb(0,255,0)"/><circle cx="282.32323232323233" cy="50.605204812129216" r="2" fill="rgb(0,255,0)"/><circle cx="287.3737373737374" cy="50.70788168797901" r="2" fill="rgb(0,255,0)"/><circle cx="292.42424242424244" cy="50.585726939995425" r="2" fill="rgb(0,255,0)"/><circle cx="297.47474747474746" cy="50.44145653155556" r="2" fill="rgb(0,255,0)"/><circle cx="302.52525252525254" cy="50.21694508026599" r="2" fill="rgb(0,255,0)"/><circle cx="307.57575757575756" cy="50.48019465535657" r="2" fill="rgb(0,255,0)"/><circle cx="312.62626262626264" cy="50.48019465535657" r="2" fill="rgb(0,255,0)"/><circle cx="317.67676767676767" cy="50.544798650416965" r="2" fill="rgb(0,255,0)"/><circle cx="322.7272727272727" cy="50.46323050404493" r="2" fill="rgb(0,255,0)"/><circle cx="327.77777777777777" cy="50.46323050404493" r="2" fill="rgb(0,255,0)"/><circle cx="332.8282828282828" cy="50.32274923330431" r="2" fill="rgb(0,255,0)"/><circle cx="337.8787878787879" cy="50.35742635100655" r="2" fill="rgb(0,255,0)"/><circle cx="342.92929292929296" cy="50.16398397630104" r="2" fill="rgb(0,255,0)"/><circle cx="347.979797979798" cy="50.16398397630104" r="2" fill="rgb(0,255,0)"/><circle cx="353.03030303030306" cy="50.16398397630104" r="2" fill="rgb(0,255,0)"/><circle cx="358.0808080808081" cy="50.16398397630104" r="2" fill="rgb(0,255,0)"/><circle cx="363.13131313131316" cy="50.14100869956752" r="2" fill="rgb(0,255,0)"/><circle cx="368.1818181818182" cy="50.14100869956752" r="2" fill="rgb(0,255,0)"/><circle cx="373.23232323232327" cy="50.13939751407867" r="2" fill="rgb(0,255,0)"/><circle cx="378.2828282828283" cy="50.14100869956752" r="2" fill="rgb(0,255,0)"/><circle cx="383.3333333333333" cy="50.092870562206656" r="2" fill="rgb(0,255,0)"/><circle cx="388.3838383838384" cy="50.09448174769551" r="2" fill="rgb(0,255,0)"/><circle cx="393.4343434343434" cy="50.09448174769551" r="2" fill="rgb(0,255,0)"/><circle cx="398.4848484848485" cy="50.092870562206656" r="2" fill="rgb(0,255,0)"/><circle cx="403.5353535353535" cy="50.092870562206656" r="2" fill="rgb(0,255,0)"/><circle cx="408.58585858585855" cy="50.129489838815516" r="2" fill="rgb(0,255,0)"/><circle cx="413.6363636363636" cy="50.14100869956752" r="2" fill="rgb(0,255,0)"/><circle cx="418.68686868686865" cy="50.137233394761495" r="2" fill="rgb(0,255,0)"/><circle cx="423.73737373737373" cy="50.09448174769551" r="2" fill="rgb(0,255,0)"/><circle cx="428.7878787878788" cy="50.092870562206656" r="2" fill="rgb(0,255,0)"/><circle cx="433.83838383838383" cy="50.12539062724983" r="2" fill="rgb(0,255,0)"/><circle cx="438.8888888888889" cy="50.12539062724983" r="2" fill="rgb(0,255,0)"/><circle cx="443.93939393939394" cy="50.09448174769551" r="2" fill="rgb(0,255,0)"/><circle cx="448.989898989899" cy="50.09448174769551" r="2" fill="rgb(0,255,0)"/><circle cx="454.04040404040404" cy="50.09448174769551" r="2" fill="rgb(0,255,0)"/><circle cx="459.0909090909091" cy="50.09448174769551" r="2" fill="rgb(0,255,0)"/><circle cx="464.14141414141415" cy="50.09448174769551" r="2" fill="rgb(0,255,0)"/><circle cx="469.19191919191917" cy="50.095598657125095" r="2" fill="rgb(0,255,0)"/><circle cx="474.24242424242425" cy="50.09448174769551" r="2" fill="rgb(0,255,0)"/><circle cx="479.2929292929293" cy="50.05748822993331" r="2" fill="rgb(0,255,0)"/><circle cx="484.34343434343435" cy="50.09448174769551" r="2" fill="rgb(0,255,0)"/><circle cx="489.3939393939394" cy="50.09448174769551" r="2" fill="rgb(0,255,0)"/><circle cx="494.4444444444444" cy="50.06653601429059" r="2" fill="rgb(0,255,0)"/><circle cx="499.4949494949495" cy="50.06653601429059" r="2" fill="rgb(0,255,0)"/><circle cx="504.5454545454545" cy="50.02657935037894" r="2" fill="rgb(0,255,0)"/><circle cx="509.59595959595964" cy="50.06653601429059" r="2" fill="rgb(0,255,0)"/><circle cx="514.6464646464647" cy="50.09448174769551" r="2" fill="rgb(0,255,0)"/><circle cx="519.6969696969697" cy="50.09448174769551" r="2" fill="rgb(0,255,0)"/><circle cx="524.7474747474748" cy="50.061017806521534" r="2" fill="rgb(0,255,0)"/><circle cx="529.7979797979798" cy="50.061017806521534" r="2" fill="rgb(0,255,0)"/><circle cx="534.8484848484849" cy="50.061017806521534" r="2" fill="rgb(0,255,0)"/><circle cx="539.8989898989898" cy="50.00657028796036" r="2" fill="rgb(0,255,0)"/><circle cx="544.9494949494949" cy="50.0" r="2" fill="rgb(0,255,0)"/><circle cx="550.0" cy="50.03863051417551" r="2" fill="rgb(0,255,0)"/><text x="350.0" y="20.0" text-anchor="middle" fill="rgb(0,0,0)" font-size="20.0">GA Demo</text><text x="350.0" y="575.0" text-anchor="middle" fill="rgb(0,0,0)" font-size="12.0">generation</text><text transform="rotate(-90.0 20.0 300.0)" x="20.0" y="300.0" text-anchor="middle" fill="rgb(0,0,0)" font-size="12.0">fitness</text><text x="620" y="62" fill="rgb(0,0,0)" font-size="12">min</text><text x="620" y="74" fill="rgb(0,0,255)" font-size="12">ave</text><text x="620" y="86" fill="rgb(0,255,0)" font-size="12">max</text>
      Sorry, your browser does not support inline SVG.
    </svg>