<?xml version='1.0' encoding='UTF-8'?>
<svg version="1.1" width="700.0" height="600.0" onload="init(evt)" xmlns="http://www.w3.org/2000/svg">
      <style>.caption {
  font-size: 14px;
  font-family: Georgia, serif;
}
</style>
      <script type="text/ecmascript"><![CDATA[
function init(evt) {
  if ( window.svgDocument == null ) {
    svgDocument = evt.target.ownerDocument;
  }
}

function RectHover(evt, i, c) {
  rect = svgDocument.getElementById('rect' + i);
  if( c != null ) {
    rect.setAttributeNS(null, "fill", c)  
  }
  tooltiptext = svgDocument.getElementById('tooltiptext' + i);
  tooltipbg = svgDocument.getElementById('tooltipbg' + i);
  if( tooltipbg != null) {
    tbb = tooltiptext.getBBox();
    tooltipbg.setAttributeNS(null, "width", tbb.width);
    tooltipbg.setAttributeNS(null, "height", tbb.height);
    tooltipbg.setAttributeNS(null, "x", tbb.x);
    tooltipbg.setAttributeNS(null, "y", tbb.y);
    tooltipbg.setAttributeNS(null, "visibility", "visible");
  }
  tooltiptext.setAttributeNS(null,"visibility","visible");
}

function RectUnhover(evt, i, c) {
  rect = svgDocument.getElementById('rect' + i);
  if( c != null ) {
    rect.setAttributeNS(null, "fill", c)  
  }
  tooltiptext = svgDocument.getElementById('tooltiptext' + i);
  tooltiptext.setAttributeNS(null,"visibility","hidden");
  tooltipbg = svgDocument.getElementById('tooltipbg' + i);
  if( tooltipbg != null ) {
    tooltipbg.setAttributeNS(null,"visibility","hidden");
  }
}
]]></script>
      <line x1="50.0" y1="550.0" x2="550.0" y2="550.0" stroke="rgb(0,0,0)" stroke-width="1"/><line x1="50.0" y1="550.0" x2="50.0" y2="50.0" stroke="rgb(0,0,0)" stroke-width="1"/><line x1="50.0" y1="550.0" x2="50.0" y2="50.0" stroke="rgb(192,192,192)" stroke-width="1"/><line x1="50.0" y1="548.0" x2="50.0" y2="552.0" stroke="rgb(192,192,192)" stroke-width="1"/><text text-anchor="middle" alignment-baseline="hanging" x="50.0" y="553.0" font-size="12.0">0</text><line x1="100.5050505050505" y1="550.0" x2="100.5050505050505" y2="50.0" stroke="rgb(192,192,192)" stroke-width="1"/><line x1="100.5050505050505" y1="548.0" x2="100.5050505050505" y2="552.0" stroke="rgb(192,192,192)" stroke-width="1"/><text text-anchor="middle" alignment-baseline="hanging" x="100.5050505050505" y="553.0" font-size="12.0">10</text><line x1="151.010101010101" y1="550.0" x2="151.010101010101" y2="50.0" stroke="rgb(192,192,192)" stroke-width="1"/><line x1="151.010101010101" y1="548.0" x2="151.010101010101" y2="552.0" stroke="rgb(192,192,192)" stroke-width="1"/><text text-anchor="middle" alignment-baseline="hanging" x="151.010101010101" y="553.0" font-size="12.0">20</text><line x1="201.51515151515153" y1="550.0" x2="201.51515151515153" y2="50.0" stroke="rgb(192,192,192)" stroke-width="1"/><line x1="201.51515151515153" y1="548.0" x2="201.51515151515153" y2="552.0" stroke="rgb(192,192,192)" stroke-width="1"/><text text-anchor="middle" alignment-baseline="hanging" x="201.51515151515153" y="553.0" font-size="12.0">30</text><line x1="252.02020202020202" y1="550.0" x2="252.02020202020202" y2="50.0" stroke="rgb(192,192,192)" stroke-width="1"/><line x1="252.02020202020202" y1="548.0" x2="252.02020202020202" y2="552.0" stroke="rgb(192,192,192)" stroke-width="1"/><text text-anchor="middle" alignment-baseline="hanging" x="252.02020202020202" y="553.0" font-size="12.0">40</text><line x1="302.52525252525254" y1="550.0" x2="302.52525252525254" y2="50.0" stroke="rgb(192,192,192)" stroke-width="1"/><line x1="302.52525252525254" y1="548.0" x2="302.52525252525254" y2="552.0" stroke="rgb(192,192,192)" stroke-width="1"/><text text-anchor="middle" alignment-baseline="hanging" x="302.52525252525254" y="553.0" font-size="12.0">50</text><line x1="353.03030303030306" y1="550.0" x2="353.03030303030306" y2="50.0" stroke="rgb(192,192,192)" stroke-width="1"/><line x1="353.03030303030306" y1="548.0" x2="353.03030303030306" y2="552.0" stroke="rgb(192,192,192)" stroke-width="1"/><text text-anchor="middle" alignment-baseline="hanging" x="353.03030303030306" y="553.0" font-size="12.0">60</text><line x1="403.5353535353535" y1="550.0" x2="403.5353535353535" y2="50.0" stroke="rgb(192,192,192)" stroke-width="1"/><line x1="403.5353535353535" y1="548.0" x2="403.5353535353535" y2="552.0" stroke="rgb(192,192,192)" stroke-width="1"/><text text-anchor="middle" alignment-baseline="hanging" x="403.5353535353535" y="553.0" font-size="12.0">70</text><line x1="454.04040404040404" y1="550.0" x2="454.04040404040404" y2="50.0" stroke="rgb(192,192,192)" stroke-width="1"/><line x1="454.04040404040404" y1="548.0" x2="454.04040404040404" y2="552.0" stroke="rgb(192,192,192)" stroke-width="1"/><text text-anchor="middle" alignment-baseline="hanging" x="454.04040404040404" y="553.0" font-size="12.0">80</text><line x1="504.5454545454545" y1="550.0" x2="504.5454545454545" y2="50.0" stroke="rgb(192,192,192)" stroke-width="1"/><line x1="504.5454545454545" y1="548.0" x2="504.5454545454545" y2="552.0" stroke="rgb(192,192,192)" stroke-width="1"/><text text-anchor="middle" alignment-baseline="hanging" x="504.5454545454545" y="553.0" font-size="12.0">90</text><line x1="50.0" y1="550.0" x2="550.0" y2="550.0" stroke="rgb(192,192,192)" stroke-width="1"/><text text-anchor="end" alignment-baseline="middle" x="45.0" y="550.0" font-size="12.0">0.0</text><line x1="48.0" y1="550.0" x2="52.0" y2="550.0" stroke="rgb(192,192,192)" stroke-width="1"/><line x1="50.0" y1="368.1043131415354" x2="550.0" y2="368.1043131415354" stroke="rgb(192,192,192)" stroke-width="1"/><text text-anchor="end" alignment-baseline="middle" x="45.0" y="368.1043131415354" font-size="12.0">1000.0</text><line x1="48.0" y1="368.1043131415354" x2="52.0" y2="368.1043131415354" stroke="rgb(192,192,192)" stroke-width="1"/><line x1="50.0" y1="186.20862628307083" x2="550.0" y2="186.20862628307083" stroke="rgb(192,192,192)" stroke-width="1"/><text text-anchor="end" alignment-baseline="middle" x="45.0" y="186.20862628307083" font-size="12.0">2000.0</text><line x1="48.0" y1="186.20862628307083" x2="52.0" y2="186.20862628307083" stroke="rgb(192,192,192)" stroke-width="1"/><polyline points="50.0,421.2161080337565 55.05050505050505,360.5106620545338 60.101010101010104,331.7468462691571 65.15151515151516,331.25107834604603 70.20202020202021,280.25745514611566 75.25252525252526,305.3221427670351 80.30303030303031,386.3671948587595 85.35353535353535,361.0430732553981 90.40404040404042,361.28989739404665 95.45454545454545,378.5324977511782 100.5050505050505,389.7581408897305 105.55555555555554,424.69918692693074 110.60606060606061,409.460884113014 115.65656565656566,411.0893010985935 120.7070707070707,408.8584026228229 125.75757575757576,419.6643309412523 130.80808080808083,393.3820453541188 135.85858585858585,409.5616155715526 140.9090909090909,410.43148674421855 145.95959595959596,412.5906892340195 151.010101010101,410.12440421272436 156.06060606060606,353.3589224656496 161.1111111111111,386.33803538693553 166.16161616161617,386.96604536207803 171.21212121212122,386.60920689970925 176.26262626262627,386.60920689970925 181.31313131313132,386.76348677188463 186.36363636363635,386.3943551759719 191.4141414141414,386.55769929052025 196.46464646464648,385.7348057875821 201.51515151515153,245.32840715578237 206.56565656565658,361.87282653818863 211.61616161616163,409.8845032291075 216.66666666666666,408.69939882326463 221.7171717171717,391.68359346191875 226.76767676767676,391.4636657207062 231.8181818181818,361.86385072450076 236.86868686868686,361.8720744127731 241.91919191919192,364.89763861767017 246.96969696969697,192.89640991398397 252.02020202020202,376.1727885674376 257.07070707070704,375.9552275745873 262.1212121212121,329.1776032644541 267.1717171717172,294.1581049363141 272.2222222222222,407.23718913741027 277.27272727272725,407.23718913741027 282.32323232323233,246.99056100855324 287.3737373737374,311.25755700065827 292.42424242424244,311.4774986106004 297.47474747474746,148.5823163531989 302.52525252525254,274.399017053683 307.57575757575756,159.83497941088405 312.62626262626264,279.50682611636495 317.67676767676767,400.4622742909597 322.7272727272727,399.46016007155157 327.77777777777777,399.51012113234196 332.8282828282828,400.164651371433 337.8787878787879,401.35832271984214 342.92929292929296,401.35832271984214 347.979797979798,401.3461431751715 353.03030303030306,401.521037843979 358.0808080808081,401.37532885332377 363.13131313131316,399.79208724785065 368.1818181818182,382.96546333474384 373.23232323232327,393.4727823898827 378.2828282828283,393.41884926447506 383.3333333333333,409.2952845469551 388.3838383838384,383.9160963967441 393.4343434343434,286.2971418987571 398.4848484848485,397.5423315833177 403.5353535353535,397.54086893589584 408.58585858585855,415.628386621 413.6363636363636,260.8037188483955 418.68686868686865,413.11035059898745 423.73737373737373,311.67298097268304 428.7878787878788,283.38775998078256 433.83838383838383,253.57250373791902 438.8888888888889,372.1177252509436 443.93939393939394,371.3234375935525 448.989898989899,288.98373280463767 454.04040404040404,382.5203212123062 459.0909090909091,288.90874068062436 464.14141414141415,197.07404310011833 469.19191919191917,325.1591182296237 474.24242424242425,257.53775003190833 479.2929292929293,339.2522540692024 484.34343434343435,336.78854647033575 489.3939393939394,336.3550035254226 494.4444444444444,367.1991784286878 499.4949494949495,354.2097297436869 504.5454545454545,411.81138763272156 509.59595959595964,412.14609248310245 514.6464646464647,412.23417892116663 519.6969696969697,412.4885035651604 524.7474747474748,382.64321401657344 529.7979797979798,382.50509884890795 534.8484848484849,393.3891583022336 539.8989898989898,382.50509884890795 544.9494949494949,363.815416333273 550.0,339.4880912987463" fill="none" stroke="rgb(0,0,0)" stroke-width="1"/><circle cx="50.0" cy="421.2161080337565" r="2" fill="rgb(0,0,0)"/><circle cx="55.05050505050505" cy="360.5106620545338" r="2" fill="rgb(0,0,0)"/><circle cx="60.101010101010104" cy="331.7468462691571" r="2" fill="rgb(0,0,0)"/><circle cx="65.15151515151516" cy="331.25107834604603" r="2" fill="rgb(0,0,0)"/><circle cx="70.20202020202021" cy="280.25745514611566" r="2" fill="rgb(0,0,0)"/><circle cx="75.25252525252526" cy="305.3221427670351" r="2" fill="rgb(0,0,0)"/><circle cx="80.30303030303031" cy="386.3671948587595" r="2" fill="rgb(0,0,0)"/><circle cx="85.35353535353535" cy="361.0430732553981" r="2" fill="rgb(0,0,0)"/><circle cx="90.40404040404042" cy="361.28989739404665" r="2" fill="rgb(0,0,0)"/><circle cx="95.45454545454545" cy="378.5324977511782" r="2" fill="rgb(0,0,0)"/><circle cx="100.5050505050505" cy="389.7581408897305" r="2" fill="rgb(0,0,0)"/><circle cx="105.55555555555554" cy="424.69918692693074" r="2" fill="rgb(0,0,0)"/><circle cx="110.60606060606061" cy="409.460884113014" r="2" fill="rgb(0,0,0)"/><circle cx="115.65656565656566" cy="411.0893010985935" r="2" fill="rgb(0,0,0)"/><circle cx="120.7070707070707" cy="408.8584026228229" r="2" fill="rgb(0,0,0)"/><circle cx="125.75757575757576" cy="419.6643309412523" r="2" fill="rgb(0,0,0)"/><circle cx="130.80808080808083" cy="393.3820453541188" r="2" fill="rgb(0,0,0)"/><circle cx="135.85858585858585" cy="409.5616155715526" r="2" fill="rgb(0,0,0)"/><circle cx="140.9090909090909" cy="410.43148674421855" r="2" fill="rgb(0,0,0)"/><circle cx="145.95959595959596" cy="412.5906892340195" r="2" fill="rgb(0,0,0)"/><circle cx="151.010101010101" cy="410.12440421272436" r="2" fill="rgb(0,0,0)"/><circle cx="156.06060606060606" cy="353.3589224656496" r="2" fill="rgb(0,0,0)"/><circle cx="161.1111111111111" cy="386.33803538693553" r="2" fill="rgb(0,0,0)"/><circle cx="166.16161616161617" cy="386.96604536207803" r="2" fill="rgb(0,0,0)"/><circle cx="171.21212121212122" cy="386.60920689970925" r="2" fill="rgb(0,0,0)"/><circle cx="176.26262626262627" cy="386.60920689970925" r="2" fill="rgb(0,0,0)"/><circle cx="181.31313131313132" cy="386.76348677188463" r="2" fill="rgb(0,0,0)"/><circle cx="186.36363636363635" cy="386.3943551759719" r="2" fill="rgb(0,0,0)"/><circle cx="191.4141414141414" cy="386.55769929052025" r="2" fill="rgb(0,0,0)"/><circle cx="196.46464646464648" cy="385.7348057875821" r="2" fill="rgb(0,0,0)"/><circle cx="201.51515151515153" cy="245.32840715578237" r="2" fill="rgb(0,0,0)"/><circle cx="206.56565656565658" cy="361.87282653818863" r="2" fill="rgb(0,0,0)"/><circle cx="211.61616161616163" cy="409.8845032291075" r="2" fill="rgb(0,0,0)"/><circle cx="216.66666666666666" cy="408.69939882326463" r="2" fill="rgb(0,0,0)"/><circle cx="221.7171717171717" cy="391.68359346191875" r="2" fill="rgb(0,0,0)"/><circle cx="226.76767676767676" cy="391.4636657207062" r="2" fill="rgb(0,0,0)"/><circle cx="231.8181818181818" cy="361.86385072450076" r="2" fill="rgb(0,0,0)"/><circle cx="236.86868686868686" cy="361.8720744127731" r="2" fill="rgb(0,0,0)"/><circle cx="241.91919191919192" cy="364.89763861767017" r="2" fill="rgb(0,0,0)"/><circle cx="246.96969696969697" cy="192.89640991398397" r="2" fill="rgb(0,0,0)"/><circle cx="252.02020202020202" cy="376.1727885674376" r="2" fill="rgb(0,0,0)"/><circle cx="257.07070707070704" cy="375.9552275745873" r="2" fill="rgb(0,0,0)"/><circle cx="262.1212121212121" cy="329.1776032644541" r="2" fill="rgb(0,0,0)"/><circle cx="267.1717171717172" cy="294.1581049363141" r="2" fill="rgb(0,0,0)"/><circle cx="272.2222222222222" cy="407.23718913741027" r="2" fill="rgb(0,0,0)"/><circle cx="277.27272727272725" cy="407.23718913741027" r="2" fill="rgb(0,0,0)"/><circle cx="282.32323232323233" cy="246.99056100855324" r="2" fill="rgb(0,0,0)"/><circle cx="287.3737373737374" cy="311.25755700065827" r="2" fill="rgb(0,0,0)"/><circle cx="292.42424242424244" cy="311.4774986106004" r="2" fill="rgb(0,0,0)"/><circle cx="297.47474747474746" cy="148.5823163531989" r="2" fill="rgb(0,0,0)"/><circle cx="302.52525252525254" cy="274.399017053683" r="2" fill="rgb(0,0,0)"/><circle cx="307.57575757575756" cy="159.83497941088405" r="2" fill="rgb(0,0,0)"/><circle cx="312.62626262626264" cy="279.50682611636495" r="2" fill="rgb(0,0,0)"/><circle cx="317.67676767676767" cy="400.4622742909597" r="2" fill="rgb(0,0,0)"/><circle cx="322.7272727272727" cy="399.46016007155157" r="2" fill="rgb(0,0,0)"/><circle cx="327.77777777777777" cy="399.51012113234196" r="2" fill="rgb(0,0,0)"/><circle cx="332.8282828282828" cy="400.164651371433" r="2" fill="rgb(0,0,0)"/><circle cx="337.8787878787879" cy="401.35832271984214" r="2" fill="rgb(0,0,0)"/><circle cx="342.92929292929296" cy="401.35832271984214" r="2" fill="rgb(0,0,0)"/><circle cx="347.979797979798" cy="401.3461431751715" r="2" fill="rgb(0,0,0)"/><circle cx="353.03030303030306" cy="401.521037843979" r="2" fill="rgb(0,0,0)"/><circle cx="358.0808080808081" cy="401.37532885332377" r="2" fill="rgb(0,0,0)"/><circle cx="363.13131313131316" cy="399.79208724785065" r="2" fill="rgb(0,0,0)"/><circle cx="368.1818181818182" cy="382.96546333474384" r="2" fill="rgb(0,0,0)"/><circle cx="373.23232323232327" cy="393.4727823898827" r="2" fill="rgb(0,0,0)"/><circle cx="378.2828282828283" cy="393.41884926447506" r="2" fill="rgb(0,0,0)"/><circle cx="383.3333333333333" cy="409.2952845469551" r="2" fill="rgb(0,0,0)"/><circle cx="388.3838383838384" cy="383.9160963967441" r="2" fill="rgb(0,0,0)"/><circle cx="393.4343434343434" cy="286.2971418987571" r="2" fill="rgb(0,0,0)"/><circle cx="398.4848484848485" cy="397.5423315833177" r="2" fill="rgb(0,0,0)"/><circle cx="403.5353535353535" cy="397.54086893589584" r="2" fill="rgb(0,0,0)"/><circle cx="408.58585858585855" cy="415.628386621" r="2" fill="rgb(0,0,0)"/><circle cx="413.6363636363636" cy="260.8037188483955" r="2" fill="rgb(0,0,0)"/><circle cx="418.68686868686865" cy="413.11035059898745" r="2" fill="rgb(0,0,0)"/><circle cx="423.73737373737373" cy="311.67298097268304" r="2" fill="rgb(0,0,0)"/><circle cx="428.7878787878788" cy="283.38775998078256" r="2" fill="rgb(0,0,0)"/><circle cx="433.83838383838383" cy="253.57250373791902" r="2" fill="rgb(0,0,0)"/><circle cx="438.8888888888889" cy="372.1177252509436" r="2" fill="rgb(0,0,0)"/><circle cx="443.93939393939394" cy="371.3234375935525" r="2" fill="rgb(0,0,0)"/><circle cx="448.989898989899" cy="288.98373280463767" r="2" fill="rgb(0,0,0)"/><circle cx="454.04040404040404" cy="382.5203212123062" r="2" fill="rgb(0,0,0)"/><circle cx="459.0909090909091" cy="288.90874068062436" r="2" fill="rgb(0,0,0)"/><circle cx="464.14141414141415" cy="197.07404310011833" r="2" fill="rgb(0,0,0)"/><circle cx="469.19191919191917" cy="325.1591182296237" r="2" fill="rgb(0,0,0)"/><circle cx="474.24242424242425" cy="257.53775003190833" r="2" fill="rgb(0,0,0)"/><circle cx="479.2929292929293" cy="339.2522540692024" r="2" fill="rgb(0,0,0)"/><circle cx="484.34343434343435" cy="336.78854647033575" r="2" fill="rgb(0,0,0)"/><circle cx="489.3939393939394" cy="336.3550035254226" r="2" fill="rgb(0,0,0)"/><circle cx="494.4444444444444" cy="367.1991784286878" r="2" fill="rgb(0,0,0)"/><circle cx="499.4949494949495" cy="354.2097297436869" r="2" fill="rgb(0,0,0)"/><circle cx="504.5454545454545" cy="411.81138763272156" r="2" fill="rgb(0,0,0)"/><circle cx="509.59595959595964" cy="412.14609248310245" r="2" fill="rgb(0,0,0)"/><circle cx="514.6464646464647" cy="412.23417892116663" r="2" fill="rgb(0,0,0)"/><circle cx="519.6969696969697" cy="412.4885035651604" r="2" fill="rgb(0,0,0)"/><circle cx="524.7474747474748" cy="382.64321401657344" r="2" fill="rgb(0,0,0)"/><circle cx="529.7979797979798" cy="382.50509884890795" r="2" fill="rgb(0,0,0)"/><circle cx="534.8484848484849" cy="393.3891583022336" r="2" fill="rgb(0,0,0)"/><circle cx="539.8989898989898" cy="382.50509884890795" r="2" fill="rgb(0,0,0)"/><circle cx="544.9494949494949" cy="363.815416333273" r="2" fill="rgb(0,0,0)"/><circle cx="550.0" cy="339.4880912987463" r="2" fill="rgb(0,0,0)"/><polyline points="50.0,213.22349090338997 55.05050505050505,173.83550319202436 60.101010101010104,161.65544759571418 65.15151515151516,144.93580871027183 70.20202020202021,138.18294853391603 75.25252525252526,129.7239143718657 80.30303030303031,115.63614144991402 85.35353535353535,101.86824490854053 90.40404040404042,97.32035575718163 95.45454545454545,88.54103141190575 100.5050505050505,93.55235812828215 105.55555555555554,88.60001059476667 110.60606060606061,86.07222028592213 115.65656565656566,88.70427661677184 120.7070707070707,80.19768939764583 125.75757575757576,79.99596646369707 130.80808080808083,75.60622374425174 135.85858585858585,78.91110009953871 140.9090909090909,71.51084699497608 145.95959595959596,79.73854601023623 151.010101010101,68.86303064578226 156.06060606060606,63.35687253809738 161.1111111111111,63.884328918904146 166.16161616161617,65.33662121304707 171.21212121212122,62.6412168017647 176.26262626262627,61.88854104025222 181.31313131313132,63.11044270216934 186.36363636363635,60.98464441421345 191.4141414141414,61.507417860695284 196.46464646464648,59.55294899049045 201.51515151515153,56.49120723772256 206.56565656565658,59.54385511603613 211.61616161616163,65.65146165619086 216.66666666666666,69.6045488114815 221.7171717171717,70.52943161952322 226.76767676767676,60.96952028608439 231.8181818181818,66.30675115845389 236.86868686868686,66.3107444744362 241.91919191919192,59.20495872143158 246.96969696969697,55.16586510514219 252.02020202020202,62.429846533833825 257.07070707070704,63.77589908540449 262.1212121212121,59.101651454971375 267.1717171717172,58.1817349613018 272.2222222222222,61.72767646286576 277.27272727272725,71.59314824829994 282.32323232323233,63.43702483084428 287.3737373737374,62.45544020060049 292.42424242424244,59.863333041846204 297.47474747474746,54.575736309249066 302.52525252525254,56.05780262173249 307.57575757575756,53.59376885843807 312.62626262626264,57.64507961813848 317.67676767676767,63.304086024921446 322.7272727272727,64.44982950156805 327.77777777777777,57.721927149009275 332.8282828282828,67.5762522210976 337.8787878787879,66.66584058810298 342.92929292929296,60.64546020297922 347.979797979798,58.496033908149116 353.03030303030306,64.28034409993035 358.0808080808081,73.54793433787927 363.13131313131316,68.08750125649397 368.1818181818182,63.39114627799364 373.23232323232327,68.66899746202625 378.2828282828283,71.75612981664813 383.3333333333333,68.49487000275019 388.3838383838384,64.40861633118743 393.4343434343434,64.37869139860555 398.4848484848485,64.11769186242697 403.5353535353535,60.09974018835055 408.58585858585855,65.75075255298736 413.6363636363636,56.09165859447131 418.68686868686865,57.54306675804003 423.73737373737373,59.53985872939285 428.7878787878788,58.43692332424189 433.83838383838383,56.35588907667642 438.8888888888889,59.94913866238818 443.93939393939394,64.87556021592741 448.989898989899,72.17559079183007 454.04040404040404,70.93116292518317 459.0909090909091,61.29804270724776 464.14141414141415,53.99106381365493 469.19191919191917,56.77534909574132 474.24242424242425,55.08689639667722 479.2929292929293,56.42766121349581 484.34343434343435,56.01271779537882 489.3939393939394,61.45775727458761 494.4444444444444,66.9584003642023 499.4949494949495,58.38070321487231 504.5454545454545,68.70044827132654 509.59595959595964,72.00032232871484 514.6464646464647,63.92380659738666 519.6969696969697,67.28866135137218 524.7474747474748,64.25246019441624 529.7979797979798,69.60876772498455 534.8484848484849,78.7803340735428 539.8989898989898,73.73190865481621 544.9494949494949,71.89285858293209 550.0,62.9339142611808" fill="none" stroke="rgb(0,0,255)" stroke-width="1"/><circle cx="50.0" cy="213.22349090338997" r="2" fill="rgb(0,0,255)"/><circle cx="55.05050505050505" cy="173.83550319202436" r="2" fill="rgb(0,0,255)"/><circle cx="60.101010101010104" cy="161.65544759571418" r="2" fill="rgb(0,0,255)"/><circle cx="65.15151515151516" cy="144.93580871027183" r="2" fill="rgb(0,0,255)"/><circle cx="70.20202020202021" cy="138.18294853391603" r="2" fill="rgb(0,0,255)"/><circle cx="75.25252525252526" cy="129.7239143718657" r="2" fill="rgb(0,0,255)"/><circle cx="80.30303030303031" cy="115.63614144991402" r="2" fill="rgb(0,0,255)"/><circle cx="85.35353535353535" cy="101.86824490854053" r="2" fill="rgb(0,0,255)"/><circle cx="90.40404040404042" cy="97.32035575718163" r="2" fill="rgb(0,0,255)"/><circle cx="95.45454545454545" cy="88.54103141190575" r="2" fill="rgb(0,0,255)"/><circle cx="100.5050505050505" cy="93.55235812828215" r="2" fill="rgb(0,0,255)"/><circle cx="105.55555555555554" cy="88.60001059476667" r="2" fill="rgb(0,0,255)"/><circle cx="110.60606060606061" cy="86.07222028592213" r="2" fill="rgb(0,0,255)"/><circle cx="115.65656565656566" cy="88.70427661677184" r="2" fill="rgb(0,0,255)"/><circle cx="120.7070707070707" cy="80.19768939764583" r="2" fill="rgb(0,0,255)"/><circle cx="125.75757575757576" cy="79.99596646369707" r="2" fill="rgb(0,0,255)"/><circle cx="130.80808080808083" cy="75.60622374425174" r="2" fill="rgb(0,0,255)"/><circle cx="135.85858585858585" cy="78.91110009953871" r="2" fill="rgb(0,0,255)"/><circle cx="140.9090909090909" cy="71.51084699497608" r="2" fill="rgb(0,0,255)"/><circle cx="145.95959595959596" cy="79.73854601023623" r="2" fill="rgb(0,0,255)"/><circle cx="151.010101010101" cy="68.86303064578226" r="2" fill="rgb(0,0,255)"/><circle cx="156.06060606060606" cy="63.35687253809738" r="2" fill="rgb(0,0,255)"/><circle cx="161.1111111111111" cy="63.884328918904146" r="2" fill="rgb(0,0,255)"/><circle cx="166.16161616161617" cy="65.33662121304707" r="2" fill="rgb(0,0,255)"/><circle cx="171.21212121212122" cy="62.6412168017647" r="2" fill="rgb(0,0,255)"/><circle cx="176.26262626262627" cy="61.88854104025222" r="2" fill="rgb(0,0,255)"/><circle cx="181.31313131313132" cy="63.11044270216934" r="2" fill="rgb(0,0,255)"/><circle cx="186.36363636363635" cy="60.98464441421345" r="2" fill="rgb(0,0,255)"/><circle cx="191.4141414141414" cy="61.507417860695284" r="2" fill="rgb(0,0,255)"/><circle cx="196.46464646464648" cy="59.55294899049045" r="2" fill="rgb(0,0,255)"/><circle cx="201.51515151515153" cy="56.49120723772256" r="2" fill="rgb(0,0,255)"/><circle cx="206.56565656565658" cy="59.54385511603613" r="2" fill="rgb(0,0,255)"/><circle cx="211.61616161616163" cy="65.65146165619086" r="2" fill="rgb(0,0,255)"/><circle cx="216.66666666666666" cy="69.6045488114815" r="2" fill="rgb(0,0,255)"/><circle cx="221.7171717171717" cy="70.52943161952322" r="2" fill="rgb(0,0,255)"/><circle cx="226.76767676767676" cy="60.96952028608439" r="2" fill="rgb(0,0,255)"/><circle cx="231.8181818181818" cy="66.30675115845389" r="2" fill="rgb(0,0,255)"/><circle cx="236.86868686868686" cy="66.3107444744362" r="2" fill="rgb(0,0,255)"/><circle cx="241.91919191919192" cy="59.20495872143158" r="2" fill="rgb(0,0,255)"/><circle cx="246.96969696969697" cy="55.16586510514219" r="2" fill="rgb(0,0,255)"/><circle cx="252.02020202020202" cy="62.429846533833825" r="2" fill="rgb(0,0,255)"/><circle cx="257.07070707070704" cy="63.77589908540449" r="2" fill="rgb(0,0,255)"/><circle cx="262.1212121212121" cy="59.101651454971375" r="2" fill="rgb(0,0,255)"/><circle cx="267.1717171717172" cy="58.1817349613018" r="2" fill="rgb(0,0,255)"/><circle cx="272.2222222222222" cy="61.72767646286576" r="2" fill="rgb(0,0,255)"/><circle cx="277.27272727272725" cy="71.59314824829994" r="2" fill="rgb(0,0,255)"/><circle cx="282.32323232323233" cy="63.43702483084428" r="2" fill="rgb(0,0,255)"/><circle cx="287.3737373737374" cy="62.45544020060049" r="2" fill="rgb(0,0,255)"/><circle cx="292.42424242424244" cy="59.863333041846204" r="2" fill="rgb(0,0,255)"/><circle cx="297.47474747474746" cy="54.575736309249066" r="2" fill="rgb(0,0,255)"/><circle cx="302.52525252525254" cy="56.05780262173249" r="2" fill="rgb(0,0,255)"/><circle cx="307.57575757575756" cy="53.59376885843807" r="2" fill="rgb(0,0,255)"/><circle cx="312.62626262626264" cy="57.64507961813848" r="2" fill="rgb(0,0,255)"/><circle cx="317.67676767676767" cy="63.304086024921446" r="2" fill="rgb(0,0,255)"/><circle cx="322.7272727272727" cy="64.44982950156805" r="2" fill="rgb(0,0,255)"/><circle cx="327.77777777777777" cy="57.721927149009275" r="2" fill="rgb(0,0,255)"/><circle cx="332.8282828282828" cy="67.5762522210976" r="2" fill="rgb(0,0,255)"/><circle cx="337.8787878787879" cy="66.66584058810298" r="2" fill="rgb(0,0,255)"/><circle cx="342.92929292929296" cy="60.64546020297922" r="2" fill="rgb(0,0,255)"/><circle cx="347.979797979798" cy="58.496033908149116" r="2" fill="rgb(0,0,255)"/><circle cx="353.03030303030306" cy="64.28034409993035" r="2" fill="rgb(0,0,255)"/><circle cx="358.0808080808081" cy="73.54793433787927" r="2" fill="rgb(0,0,255)"/><circle cx="363.13131313131316" cy="68.08750125649397" r="2" fill="rgb(0,0,255)"/><circle cx="368.1818181818182" cy="63.39114627799364" r="2" fill="rgb(0,0,255)"/><circle cx="373.23232323232327" cy="68.66899746202625" r="2" fill="rgb(0,0,255)"/><circle cx="378.2828282828283" cy="71.75612981664813" r="2" fill="rgb(0,0,255)"/><circle cx="383.3333333333333" cy="68.49487000275019" r="2" fill="rgb(0,0,255)"/><circle cx="388.3838383838384" cy="64.40861633118743" r="2" fill="rgb(0,0,255)"/><circle cx="393.4343434343434" cy="64.37869139860555" r="2" fill="rgb(0,0,255)"/><circle cx="398.4848484848485" cy="64.11769186242697" r="2" fill="rgb(0,0,255)"/><circle cx="403.5353535353535" cy="60.09974018835055" r="2" fill="rgb(0,0,255)"/><circle cx="408.58585858585855" cy="65.75075255298736" r="2" fill="rgb(0,0,255)"/><circle cx="413.6363636363636" cy="56.09165859447131" r="2" fill="rgb(0,0,255)"/><circle cx="418.68686868686865" cy="57.54306675804003" r="2" fill="rgb(0,0,255)"/><circle cx="423.73737373737373" cy="59.53985872939285" r="2" fill="rgb(0,0,255)"/><circle cx="428.7878787878788" cy="58.43692332424189" r="2" fill="rgb(0,0,255)"/><circle cx="433.83838383838383" cy="56.35588907667642" r="2" fill="rgb(0,0,255)"/><circle cx="438.8888888888889" cy="59.94913866238818" r="2" fill="rgb(0,0,255)"/><circle cx="443.93939393939394" cy="64.87556021592741" r="2" fill="rgb(0,0,255)"/><circle cx="448.989898989899" cy="72.17559079183007" r="2" fill="rgb(0,0,255)"/><circle cx="454.04040404040404" cy="70.93116292518317" r="2" fill="rgb(0,0,255)"/><circle cx="459.0909090909091" cy="61.29804270724776" r="2" fill="rgb(0,0,255)"/><circle cx="464.14141414141415" cy="53.99106381365493" r="2" fill="rgb(0,0,255)"/><circle cx="469.19191919191917" cy="56.77534909574132" r="2" fill="rgb(0,0,255)"/><circle cx="474.24242424242425" cy="55.08689639667722" r="2" fill="rgb(0,0,255)"/><circle cx="479.2929292929293" cy="56.42766121349581" r="2" fill="rgb(0,0,255)"/><circle cx="484.34343434343435" cy="56.01271779537882" r="2" fill="rgb(0,0,255)"/><circle cx="489.3939393939394" cy="61.45775727458761" r="2" fill="rgb(0,0,255)"/><circle cx="494.4444444444444" cy="66.9584003642023" r="2" fill="rgb(0,0,255)"/><circle cx="499.4949494949495" cy="58.38070321487231" r="2" fill="rgb(0,0,255)"/><circle cx="504.5454545454545" cy="68.70044827132654" r="2" fill="rgb(0,0,255)"/><circle cx="509.59595959595964" cy="72.00032232871484" r="2" fill="rgb(0,0,255)"/><circle cx="514.6464646464647" cy="63.92380659738666" r="2" fill="rgb(0,0,255)"/><circle cx="519.6969696969697" cy="67.28866135137218" r="2" fill="rgb(0,0,255)"/><circle cx="524.7474747474748" cy="64.25246019441624" r="2" fill="rgb(0,0,255)"/><circle cx="529.7979797979798" cy="69.60876772498455" r="2" fill="rgb(0,0,255)"/><circle cx="534.8484848484849" cy="78.7803340735428" r="2" fill="rgb(0,0,255)"/><circle cx="539.8989898989898" cy="73.73190865481621" r="2" fill="rgb(0,0,255)"/><circle cx="544.9494949494949" cy="71.89285858293209" r="2" fill="rgb(0,0,255)"/><circle cx="550.0" cy="62.9339142611808" r="2" fill="rgb(0,0,255)"/><polyline points="50.0,54.990260576448634 55.05050505050505,54.72846158220659 60.101010101010104,54.76160060635823 65.15151515151516,55.29684733899114 70.20202020202021,54.740128809746466 75.25252525252526,72.59499944267998 80.30303030303031,55.02636799852496 85.35353535353535,56.08333365702509 90.40404040404042,55.10909562515525 95.45454545454545,55.10909562515525 100.5050505050505,53.73528102547937 105.55555555555554,54.53885726186161 110.60606060606061,54.42445005620419 115.65656565656566,53.67668454013176 120.7070707070707,52.844853531231934 125.75757575757576,52.951392577407205 130.80808080808083,52.51633221590731 135.85858585858585,53.168650281541545 140.9090909090909,52.97928651734679 145.95959595959596,52.25537539193033 151.010101010101,52.704930011005274 156.06060606060606,52.5140822289938 161.1111111111111,52.312411929997495 166.16161616161617,52.25387519561491 171.21212121212122,52.24601711636012 176.26262626262627,52.17620037910552 181.31313131313132,52.20041566497383 186.36363636363635,52.06762201467478 191.4141414141414,52.05205981272195 196.46464646464648,51.90040102401446 201.51515151515153,51.90040102401446 206.56565656565658,51.61355802914653 211.61616161616163,51.61355802914653 216.66666666666666,51.66464572872252 221.7171717171717,51.739637852735825 226.76767676767676,51.5502593206258 231.8181818181818,51.62525144463916 236.86868686868686,51.66190738147236 241.91919191919192,51.71185605344539 246.96969696969697,51.457142118041475 252.02020202020202,51.57810366144116 257.07070707070704,51.457142118041475 262.1212121212121,51.589364606870674 267.1717171717172,51.5663303502792 272.2222222222222,50.9579422205577 277.27272727272725,51.143021376834895 282.32323232323233,50.82086856640325 287.3737373737374,50.83185855344112 292.42424242424244,50.69263032333686 297.47474747474746,50.67769478227933 302.52525252525254,50.193156855662664 307.57575757575756,50.207169951356605 312.62626262626264,50.4692953839799 317.67676767676767,50.294169326078304 322.7272727272727,50.3011860573821 327.77777777777777,50.27875998975935 332.8282828282828,50.20586255774418 337.8787878787879,50.20586255774418 342.92929292929296,50.17412411086514 347.979797979798,50.22596254427464 353.03030303030306,50.23820994686247 358.0808080808081,50.16050508931437 363.13131313131316,50.147132275257604 368.1818181818182,50.162729213485136 373.23232323232327,50.13537348203374 378.2828282828283,50.15594387127544 383.3333333333333,50.09032039083394 388.3838383838384,50.130877025356256 393.4343434343434,50.09998449205949 398.4848484848485,50.09998449205949 403.5353535353535,50.147132275257604 408.58585858585855,50.122058837712984 413.6363636363636,50.09032039083394 418.68686868686865,50.09032039083394 423.73737373737373,50.07047934870923 428.7878787878788,50.07047934870923 433.83838383838383,50.07047934870923 438.8888888888889,50.07214015124424 443.93939393939394,50.01933388679629 448.989898989899,50.00115364720665 454.04040404040404,50.07214015124424 459.0909090909091,50.09032039083394 464.14141414141415,50.1181647316493 469.19191919191917,50.04796844706118 474.24242424242425,50.07214015124424 479.2929292929293,50.06178204664906 484.34343434343435,50.07206721246507 489.3939393939394,50.07214015124424 494.4444444444444,50.02978820747148 499.4949494949495,50.02978820747148 504.5454545454545,50.05763254828673 509.59595959595964,50.02978820747148 514.6464646464647,50.02978820747148 519.6969696969697,50.07214015124424 524.7474747474748,50.02978820747148 529.7979797979798,50.04796844706118 534.8484848484849,50.02978820747148 539.8989898989898,50.02978820747148 544.9494949494949,50.0 550.0,50.02978820747148" fill="none" stroke="rgb(0,255,0)" stroke-width="1"/><circle cx="50.0" cy="54.990260576448634" r="2" fill="rgb(0,255,0)"/><circle cx="55.05050505050505" cy="54.72846158220659" r="2" fill="rgb(0,255,0)"/><circle cx="60.101010101010104" cy="54.76160060635823" r="2" fill="rgb(0,255,0)"/><circle cx="65.15151515151516" cy="55.29684733899114" r="2" fill="rgb(0,255,0)"/><circle cx="70.20202020202021" cy="54.740128809746466" r="2" fill="rgb(0,255,0)"/><circle cx="75.25252525252526" cy="72.59499944267998" r="2" fill="rgb(0,255,0)"/><circle cx="80.30303030303031" cy="55.02636799852496" r="2" fill="rgb(0,255,0)"/><circle cx="85.35353535353535" cy="56.08333365702509" r="2" fill="rgb(0,255,0)"/><circle cx="90.40404040404042" cy="55.10909562515525" r="2" fill="rgb(0,255,0)"/><circle cx="95.45454545454545" cy="55.10909562515525" r="2" fill="rgb(0,255,0)"/><circle cx="100.5050505050505" cy="53.73528102547937" r="2" fill="rgb(0,255,0)"/><circle cx="105.55555555555554" cy="54.53885726186161" r="2" fill="rgb(0,255,0)"/><circle cx="110.60606060606061" cy="54.42445005620419" r="2" fill="rgb(0,255,0)"/><circle cx="115.65656565656566" cy="53.67668454013176" r="2" fill="rgb(0,255,0)"/><circle cx="120.7070707070707" cy="52.844853531231934" r="2" fill="rgb(0,255,0)"/><circle cx="125.75757575757576" cy="52.951392577407205" r="2" fill="rgb(0,255,0)"/><circle cx="130.80808080808083" cy="52.51633221590731" r="2" fill="rgb(0,255,0)"/><circle cx="135.85858585858585" cy="53.168650281541545" r="2" fill="rgb(0,255,0)"/><circle cx="140.9090909090909" cy="52.97928651734679" r="2" fill="rgb(0,255,0)"/><circle cx="145.95959595959596" cy="52.25537539193033" r="2" fill="rgb(0,255,0)"/><circle cx="151.010101010101" cy="52.704930011005274" r="2" fill="rgb(0,255,0)"/><circle cx="156.06060606060606" cy="52.5140822289938" r="2" fill="rgb(0,255,0)"/><circle cx="161.1111111111111" cy="52.312411929997495" r="2" fill="rgb(0,255,0)"/><circle cx="166.16161616161617" cy="52.25387519561491" r="2" fill="rgb(0,255,0)"/><circle cx="171.21212121212122" cy="52.24601711636012" r="2" fill="rgb(0,255,0)"/><circle cx="176.26262626262627" cy="52.17620037910552" r="2" fill="rgb(0,255,0)"/><circle cx="181.31313131313132" cy="52.20041566497383" r="2" fill="rgb(0,255,0)"/><circle cx="186.36363636363635" cy="52.06762201467478" r="2" fill="rgb(0,255,0)"/><circle cx="191.4141414141414" cy="52.05205981272195" r="2" fill="rgb(0,255,0)"/><circle cx="196.46464646464648" cy="51.90040102401446" r="2" fill="rgb(0,255,0)"/><circle cx="201.51515151515153" cy="51.90040102401446" r="2" fill="rgb(0,255,0)"/><circle cx="206.56565656565658" cy="51.61355802914653" r="2" fill="rgb(0,255,0)"/><circle cx="211.61616161616163" cy="51.61355802914653" r="2" fill="rgb(0,255,0)"/><circle cx="216.66666666666666" cy="51.66464572872252" r="2" fill="rgb(0,255,0)"/><circle cx="221.7171717171717" cy="51.739637852735825" r="2" fill="rgb(0,255,0)"/><circle cx="226.76767676767676" cy="51.5502593206258" r="2" fill="rgb(0,255,0)"/><circle cx="231.8181818181818" cy="51.62525144463916" r="2" fill="rgb(0,255,0)"/><circle cx="236.86868686868686" cy="51.66190738147236" r="2" fill="rgb(0,255,0)"/><circle cx="241.91919191919192" cy="51.71185605344539" r="2" fill="rgb(0,255,0)"/><circle cx="246.96969696969697" cy="51.457142118041475" r="2" fill="rgb(0,255,0)"/><circle cx="252.02020202020202" cy="51.57810366144116" r="2" fill="rgb(0,255,0)"/><circle cx="257.07070707070704" cy="51.457142118041475" r="2" fill="rgb(0,255,0)"/><circle cx="262.1212121212121" cy="51.589364606870674" r="2" fill="rgb(0,255,0)"/><circle cx="267.1717171717172" cy="51.5663303502792" r="2" fill="rgb(0,255,0)"/><circle cx="272.2222222222222" cy="50.9579422205577" r="2" fill="rgb(0,255,0)"/><circle cx="277.27272727272725" cy="51.143021376834895" r="2" fill="rgb(0,255,0)"/><circle cx="282.32323232323233" cy="50.82086856640325" r="2" fill="rgb(0,255,0)"/><circle cx="287.3737373737374" cy="50.83185855344112" r="2" fill="rgb(0,255,0)"/><circle cx="292.42424242424244" cy="50.69263032333686" r="2" fill="rgb(0,255,0)"/><circle cx="297.47474747474746" cy="50.67769478227933" r="2" fill="rgb(0,255,0)"/><circle cx="302.52525252525254" cy="50.193156855662664" r="2" fill="rgb(0,255,0)"/><circle cx="307.57575757575756" cy="50.207169951356605" r="2" fill="rgb(0,255,0)"/><circle cx="312.62626262626264" cy="50.4692953839799" r="2" fill="rgb(0,255,0)"/><circle cx="317.67676767676767" cy="50.294169326078304" r="2" fill="rgb(0,255,0)"/><circle cx="322.7272727272727" cy="50.3011860573821" r="2" fill="rgb(0,255,0)"/><circle cx="327.77777777777777" cy="50.27875998975935" r="2" fill="rgb(0,255,0)"/><circle cx="332.8282828282828" cy="50.20586255774418" r="2" fill="rgb(0,255,0)"/><circle cx="337.8787878787879" cy="50.20586255774418" r="2" fill="rgb(0,255,0)"/><circle cx="342.92929292929296" cy="50.17412411086514" r="2" fill="rgb(0,255,0)"/><circle cx="347.979797979798" cy="50.22596254427464" r="2" fill="rgb(0,255,0)"/><circle cx="353.03030303030306" cy="50.23820994686247" r="2" fill="rgb(0,255,0)"/><circle cx="358.0808080808081" cy="50.16050508931437" r="2" fill="rgb(0,255,0)"/><circle cx="363.13131313131316" cy="50.147132275257604" r="2" fill="rgb(0,255,0)"/><circle cx="368.1818181818182" cy="50.162729213485136" r="2" fill="rgb(0,255,0)"/><circle cx="373.23232323232327" cy="50.13537348203374" r="2" fill="rgb(0,255,0)"/><circle cx="378.2828282828283" cy="50.15594387127544" r="2" fill="rgb(0,255,0)"/><circle cx="383.3333333333333" cy="50.09032039083394" r="2" fill="rgb(0,255,0)"/><circle cx="388.3838383838384" cy="50.130877025356256" r="2" fill="rgb(0,255,0)"/><circle cx="393.4343434343434" cy="50.09998449205949" r="2" fill="rgb(0,255,0)"/><circle cx="398.4848484848485" cy="50.09998449205949" r="2" fill="rgb(0,255,0)"/><circle cx="403.5353535353535" cy="50.147132275257604" r="2" fill="rgb(0,255,0)"/><circle cx="408.58585858585855" cy="50.122058837712984" r="2" fill="rgb(0,255,0)"/><circle cx="413.6363636363636" cy="50.09032039083394" r="2" fill="rgb(0,255,0)"/><circle cx="418.68686868686865" cy="50.09032039083394" r="2" fill="rgb(0,255,0)"/><circle cx="423.73737373737373" cy="50.07047934870923" r="2" fill="rgb(0,255,0)"/><circle cx="428.7878787878788" cy="50.07047934870923" r="2" fill="rgb(0,255,0)"/><circle cx="433.83838383838383" cy="50.07047934870923" r="2" fill="rgb(0,255,0)"/><circle cx="438.8888888888889" cy="50.07214015124424" r="2" fill="rgb(0,255,0)"/><circle cx="443.93939393939394" cy="50.01933388679629" r="2" fill="rgb(0,255,0)"/><circle cx="448.989898989899" cy="50.00115364720665" r="2" fill="rgb(0,255,0)"/><circle cx="454.04040404040404" cy="50.07214015124424" r="2" fill="rgb(0,255,0)"/><circle cx="459.0909090909091" cy="50.09032039083394" r="2" fill="rgb(0,255,0)"/><circle cx="464.14141414141415" cy="50.1181647316493" r="2" fill="rgb(0,255,0)"/><circle cx="469.19191919191917" cy="50.04796844706118" r="2" fill="rgb(0,255,0)"/><circle cx="474.24242424242425" cy="50.07214015124424" r="2" fill="rgb(0,255,0)"/><circle cx="479.2929292929293" cy="50.06178204664906" r="2" fill="rgb(0,255,0)"/><circle cx="484.34343434343435" cy="50.07206721246507" r="2" fill="rgb(0,255,0)"/><circle cx="489.3939393939394" cy="50.07214015124424" r="2" fill="rgb(0,255,0)"/><circle cx="494.4444444444444" cy="50.02978820747148" r="2" fill="rgb(0,255,0)"/><circle cx="499.4949494949495" cy="50.02978820747148" r="2" fill="rgb(0,255,0)"/><circle cx="504.5454545454545" cy="50.05763254828673" r="2" fill="rgb(0,255,0)"/><circle cx="509.59595959595964" cy="50.02978820747148" r="2" fill="rgb(0,255,0)"/><circle cx="514.6464646464647" cy="50.02978820747148" r="2" fill="rgb(0,255,0)"/><circle cx="519.6969696969697" cy="50.07214015124424" r="2" fill="rgb(0,255,0)"/><circle cx="524.7474747474748" cy="50.02978820747148" r="2" fill="rgb(0,255,0)"/><circle cx="529.7979797979798" cy="50.04796844706118" r="2" fill="rgb(0,255,0)"/><circle cx="534.8484848484849" cy="50.02978820747148" r="2" fill="rgb(0,255,0)"/><circle cx="539.8989898989898" cy="50.02978820747148" r="2" fill="rgb(0,255,0)"/><circle cx="544.9494949494949" cy="50.0" r="2" fill="rgb(0,255,0)"/><circle cx="550.0" cy="50.02978820747148" r="2" fill="rgb(0,255,0)"/><text x="350.0" y="20.0" text-anchor="middle" fill="rgb(0,0,0)" font-size="20.0">GA Demo</text><text x="350.0" y="575.0" text-anchor="middle" fill="rgb(0,0,0)" font-size="12.0">generation</text><text transform="rotate(-90.0 20.0 300.0)" x="20.0" y="300.0" text-anchor="middle" fill="rgb(0,0,0)" font-size="12.0">fitness</text><text x="620" y="62" fill="rgb(0,0,0)" font-size="12">min</text><text x="620" y="74" fill="rgb(0,0,255)" font-size="12">ave</text><text x="620" y="86" fill="rgb(0,255,0)" font-size="12">max</text>
      Sorry, your browser does not support inline SVG.
    </svg>