<?xml version='1.0' encoding='UTF-8'?>
<svg version="1.1" width="700.0" height="600.0" onload="init(evt)" xmlns="http://www.w3.org/2000/svg">
      <style>.caption {
  font-size: 14px;
  font-family: Georgia, serif;
}
</style>
      <script type="text/ecmascript"><![CDATA[
function init(evt) {
  if ( window.svgDocument == null ) {
    svgDocument = evt.target.ownerDocument;
  }
}

function RectHover(evt, i, c) {
  rect = svgDocument.getElementById('rect' + i);
  if( c != null ) {
    rect.setAttributeNS(null, "fill", c)  
  }
  tooltiptext = svgDocument.getElementById('tooltiptext' + i);
  tooltipbg = svgDocument.getElementById('tooltipbg' + i);
  if( tooltipbg != null) {
    tbb = tooltiptext.getBBox();
    tooltipbg.setAttributeNS(null, "width", tbb.width);
    tooltipbg.setAttributeNS(null, "height", tbb.height);
    tooltipbg.setAttributeNS(null, "x", tbb.x);
    tooltipbg.setAttributeNS(null, "y", tbb.y);
    tooltipbg.setAttributeNS(null, "visibility", "visible");
  }
  tooltiptext.setAttributeNS(null,"visibility","visible");
}

function RectUnhover(evt, i, c) {
  rect = svgDocument.getElementById('rect' + i);
  if( c != null ) {
    rect.setAttributeNS(null, "fill", c)  
  }
  tooltiptext = svgDocument.getElementById('tooltiptext' + i);
  tooltiptext.setAttributeNS(null,"visibility","hidden");
  tooltipbg = svgDocument.getElementById('tooltipbg' + i);
  if( tooltipbg != null ) {
    tooltipbg.setAttributeNS(null,"visibility","hidden");
  }
}
]]></script>
      <line x1="50.0" y1="550.0" x2="550.0" y2="550.0" stroke="rgb(0,0,0)" stroke-width="1"/><line x1="50.0" y1="550.0" x2="50.0" y2="50.0" stroke="rgb(0,0,0)" stroke-width="1"/><line x1="50.0" y1="550.0" x2="50.0" y2="50.0" stroke="rgb(192,192,192)" stroke-width="1"/><line x1="50.0" y1="548.0" x2="50.0" y2="552.0" stroke="rgb(192,192,192)" stroke-width="1"/><text text-anchor="middle" alignment-baseline="hanging" x="50.0" y="553.0" font-size="12.0">0</text><line x1="100.5050505050505" y1="550.0" x2="100.5050505050505" y2="50.0" stroke="rgb(192,192,192)" stroke-width="1"/><line x1="100.5050505050505" y1="548.0" x2="100.5050505050505" y2="552.0" stroke="rgb(192,192,192)" stroke-width="1"/><text text-anchor="middle" alignment-baseline="hanging" x="100.5050505050505" y="553.0" font-size="12.0">10</text><line x1="151.010101010101" y1="550.0" x2="151.010101010101" y2="50.0" stroke="rgb(192,192,192)" stroke-width="1"/><line x1="151.010101010101" y1="548.0" x2="151.010101010101" y2="552.0" stroke="rgb(192,192,192)" stroke-width="1"/><text text-anchor="middle" alignment-baseline="hanging" x="151.010101010101" y="553.0" font-size="12.0">20</text><line x1="201.51515151515153" y1="550.0" x2="201.51515151515153" y2="50.0" stroke="rgb(192,192,192)" stroke-width="1"/><line x1="201.51515151515153" y1="548.0" x2="201.51515151515153" y2="552.0" stroke="rgb(192,192,192)" stroke-width="1"/><text text-anchor="middle" alignment-baseline="hanging" x="201.51515151515153" y="553.0" font-size="12.0">30</text><line x1="252.02020202020202" y1="550.0" x2="252.02020202020202" y2="50.0" stroke="rgb(192,192,192)" stroke-width="1"/><line x1="252.02020202020202" y1="548.0" x2="252.02020202020202" y2="552.0" stroke="rgb(192,192,192)" stroke-width="1"/><text text-anchor="middle" alignment-baseline="hanging" x="252.02020202020202" y="553.0" font-size="12.0">40</text><line x1="302.52525252525254" y1="550.0" x2="302.52525252525254" y2="50.0" stroke="rgb(192,192,192)" stroke-width="1"/><line x1="302.52525252525254" y1="548.0" x2="302.52525252525254" y2="552.0" stroke="rgb(192,192,192)" stroke-width="1"/><text text-anchor="middle" alignment-baseline="hanging" x="302.52525252525254" y="553.0" font-size="12.0">50</text><line x1="353.03030303030306" y1="550.0" x2="353.03030303030306" y2="50.0" stroke="rgb(192,192,192)" stroke-width="1"/><line x1="353.03030303030306" y1="548.0" x2="353.03030303030306" y2="552.0" stroke="rgb(192,192,192)" stroke-width="1"/><text text-anchor="middle" alignment-baseline="hanging" x="353.03030303030306" y="553.0" font-size="12.0">60</text><line x1="403.5353535353535" y1="550.0" x2="403.5353535353535" y2="50.0" stroke="rgb(192,192,192)" stroke-width="1"/><line x1="403.5353535353535" y1="548.0" x2="403.5353535353535" y2="552.0" stroke="rgb(192,192,192)" stroke-width="1"/><text text-anchor="middle" alignment-baseline="hanging" x="403.5353535353535" y="553.0" font-size="12.0">70</text><line x1="454.04040404040404" y1="550.0" x2="454.04040404040404" y2="50.0" stroke="rgb(192,192,192)" stroke-width="1"/><line x1="454.04040404040404" y1="548.0" x2="454.04040404040404" y2="552.0" stroke="rgb(192,192,192)" stroke-width="1"/><text text-anchor="middle" alignment-baseline="hanging" x="454.04040404040404" y="553.0" font-size="12.0">80</text><line x1="504.5454545454545" y1="550.0" x2="504.5454545454545" y2="50.0" stroke="rgb(192,192,192)" stroke-width="1"/><line x1="504.5454545454545" y1="548.0" x2="504.5454545454545" y2="552.0" stroke="rgb(192,192,192)" stroke-width="1"/><text text-anchor="middle" alignment-baseline="hanging" x="504.5454545454545" y="553.0" font-size="12.0">90</text><line x1="50.0" y1="550.0" x2="550.0" y2="550.0" stroke="rgb(192,192,192)" stroke-width="1"/><text text-anchor="end" alignment-baseline="middle" x="45.0" y="550.0" font-size="12.0">0.0</text><line x1="48.0" y1="550.0" x2="52.0" y2="550.0" stroke="rgb(192,192,192)" stroke-width="1"/><line x1="50.0" y1="367.3820155560936" x2="550.0" y2="367.3820155560936" stroke="rgb(192,192,192)" stroke-width="1"/><text text-anchor="end" alignment-baseline="middle" x="45.0" y="367.3820155560936" font-size="12.0">1000.0</text><line x1="48.0" y1="367.3820155560936" x2="52.0" y2="367.3820155560936" stroke="rgb(192,192,192)" stroke-width="1"/><line x1="50.0" y1="184.7640311121873" x2="550.0" y2="184.7640311121873" stroke="rgb(192,192,192)" stroke-width="1"/><text text-anchor="end" alignment-baseline="middle" x="45.0" y="184.7640311121873" font-size="12.0">2000.0</text><line x1="48.0" y1="184.7640311121873" x2="52.0" y2="184.7640311121873" stroke="rgb(192,192,192)" stroke-width="1"/><polyline points="50.0,431.6308231916116 55.05050505050505,433.169522026252 60.101010101010104,433.5213231272513 65.15151515151516,432.93767682999214 70.20202020202021,432.0348781720333 75.25252525252526,433.25883506090844 80.30303030303031,432.51523347708905 85.35353535353535,324.8116320764591 90.40404040404042,322.58324733096174 95.45454545454545,349.99265747104977 100.5050505050505,397.0645573359261 105.55555555555554,390.27367188471396 110.60606060606061,137.11726136390575 115.65656565656566,241.32468135385113 120.7070707070707,241.96238175222055 125.75757575757576,349.5658879323511 130.80808080808083,350.1556420335962 135.85858585858585,350.1556420335962 140.9090909090909,350.19767444259924 145.95959595959596,317.2067654164251 151.010101010101,409.16406650525937 156.06060606060606,400.4192823720436 161.1111111111111,399.56981786323377 166.16161616161617,364.2624927107326 171.21212121212122,87.45361151910868 176.26262626262627,231.01190774277552 181.31313131313132,398.46678370798975 186.36363636363635,411.355636151051 191.4141414141414,403.81390959641976 196.46464646464648,404.16502283624504 201.51515151515153,403.48663726609635 206.56565656565658,403.98858404412425 211.61616161616163,403.2016381874763 216.66666666666666,403.5448499118787 221.7171717171717,374.0272240728829 226.76767676767676,372.6267551320502 231.8181818181818,372.67512377052543 236.86868686868686,372.5004161671262 241.91919191919192,379.918545452536 246.96969696969697,398.61346686649324 252.02020202020202,406.832778551112 257.07070707070704,325.3421550089187 262.1212121212121,324.35957606947477 267.1717171717172,135.31776304337893 272.2222222222222,310.7898583085095 277.27272727272725,134.66850708254992 282.32323232323233,263.93541375739244 287.3737373737374,264.3473475538938 292.42424242424244,369.26969129921986 297.47474747474746,280.71576002742563 302.52525252525254,421.94762561981486 307.57575757575756,321.46073715180654 312.62626262626264,376.28103424759684 317.67676767676767,375.7147845342007 322.7272727272727,374.9424292182954 327.77777777777777,250.25951932686382 332.8282828282828,293.4709103028762 337.8787878787879,361.3695168909694 342.92929292929296,396.96349966830235 347.979797979798,396.7513848365082 353.03030303030306,398.96450996987824 358.0808080808081,412.84983565918026 363.13131313131316,413.42545152160756 368.1818181818182,412.9498161883596 373.23232323232327,430.3987888113497 378.2828282828283,311.24872682018895 383.3333333333333,311.24872682018895 388.3838383838384,379.2284663327935 393.4343434343434,308.774417201078 398.4848484848485,215.97378975773648 403.5353535353535,262.103159658855 408.58585858585855,360.776956584541 413.6363636363636,305.0145305845311 418.68686868686865,201.78880424447567 423.73737373737373,156.38505038630205 428.7878787878788,306.3151470648936 433.83838383838383,353.26510342807194 438.8888888888889,352.95965484820726 443.93939393939394,366.2987912294624 448.989898989899,310.2855231441375 454.04040404040404,295.0568394662164 459.0909090909091,229.99978945636656 464.14141414141415,206.44582069376327 469.19191919191917,391.87382986873337 474.24242424242425,373.5096210549322 479.2929292929293,377.4719250447346 484.34343434343435,377.4719250447346 489.3939393939394,378.23767810611156 494.4444444444444,388.8626434017241 499.4949494949495,388.3360887915291 504.5454545454545,346.33540017517834 509.59595959595964,277.9642602638226 514.6464646464647,320.0654508556769 519.6969696969697,356.78447229768676 524.7474747474748,344.5544225271733 529.7979797979798,371.2466407743341 534.8484848484849,408.1108144889481 539.8989898989898,278.83549105619517 544.9494949494949,349.24690415084183 550.0,349.64659609244757" fill="none" stroke="rgb(0,0,0)" stroke-width="1"/><circle cx="50.0" cy="431.6308231916116" r="2" fill="rgb(0,0,0)"/><circle cx="55.05050505050505" cy="433.169522026252" r="2" fill="rgb(0,0,0)"/><circle cx="60.101010101010104" cy="433.5213231272513" r="2" fill="rgb(0,0,0)"/><circle cx="65.15151515151516" cy="432.93767682999214" r="2" fill="rgb(0,0,0)"/><circle cx="70.20202020202021" cy="432.0348781720333" r="2" fill="rgb(0,0,0)"/><circle cx="75.25252525252526" cy="433.25883506090844" r="2" fill="rgb(0,0,0)"/><circle cx="80.30303030303031" cy="432.51523347708905" r="2" fill="rgb(0,0,0)"/><circle cx="85.35353535353535" cy="324.8116320764591" r="2" fill="rgb(0,0,0)"/><circle cx="90.40404040404042" cy="322.58324733096174" r="2" fill="rgb(0,0,0)"/><circle cx="95.45454545454545" cy="349.99265747104977" r="2" fill="rgb(0,0,0)"/><circle cx="100.5050505050505" cy="397.0645573359261" r="2" fill="rgb(0,0,0)"/><circle cx="105.55555555555554" cy="390.27367188471396" r="2" fill="rgb(0,0,0)"/><circle cx="110.60606060606061" cy="137.11726136390575" r="2" fill="rgb(0,0,0)"/><circle cx="115.65656565656566" cy="241.32468135385113" r="2" fill="rgb(0,0,0)"/><circle cx="120.7070707070707" cy="241.96238175222055" r="2" fill="rgb(0,0,0)"/><circle cx="125.75757575757576" cy="349.5658879323511" r="2" fill="rgb(0,0,0)"/><circle cx="130.80808080808083" cy="350.1556420335962" r="2" fill="rgb(0,0,0)"/><circle cx="135.85858585858585" cy="350.1556420335962" r="2" fill="rgb(0,0,0)"/><circle cx="140.9090909090909" cy="350.19767444259924" r="2" fill="rgb(0,0,0)"/><circle cx="145.95959595959596" cy="317.2067654164251" r="2" fill="rgb(0,0,0)"/><circle cx="151.010101010101" cy="409.16406650525937" r="2" fill="rgb(0,0,0)"/><circle cx="156.06060606060606" cy="400.4192823720436" r="2" fill="rgb(0,0,0)"/><circle cx="161.1111111111111" cy="399.56981786323377" r="2" fill="rgb(0,0,0)"/><circle cx="166.16161616161617" cy="364.2624927107326" r="2" fill="rgb(0,0,0)"/><circle cx="171.21212121212122" cy="87.45361151910868" r="2" fill="rgb(0,0,0)"/><circle cx="176.26262626262627" cy="231.01190774277552" r="2" fill="rgb(0,0,0)"/><circle cx="181.31313131313132" cy="398.46678370798975" r="2" fill="rgb(0,0,0)"/><circle cx="186.36363636363635" cy="411.355636151051" r="2" fill="rgb(0,0,0)"/><circle cx="191.4141414141414" cy="403.81390959641976" r="2" fill="rgb(0,0,0)"/><circle cx="196.46464646464648" cy="404.16502283624504" r="2" fill="rgb(0,0,0)"/><circle cx="201.51515151515153" cy="403.48663726609635" r="2" fill="rgb(0,0,0)"/><circle cx="206.56565656565658" cy="403.98858404412425" r="2" fill="rgb(0,0,0)"/><circle cx="211.61616161616163" cy="403.2016381874763" r="2" fill="rgb(0,0,0)"/><circle cx="216.66666666666666" cy="403.5448499118787" r="2" fill="rgb(0,0,0)"/><circle cx="221.7171717171717" cy="374.0272240728829" r="2" fill="rgb(0,0,0)"/><circle cx="226.76767676767676" cy="372.6267551320502" r="2" fill="rgb(0,0,0)"/><circle cx="231.8181818181818" cy="372.67512377052543" r="2" fill="rgb(0,0,0)"/><circle cx="236.86868686868686" cy="372.5004161671262" r="2" fill="rgb(0,0,0)"/><circle cx="241.91919191919192" cy="379.918545452536" r="2" fill="rgb(0,0,0)"/><circle cx="246.96969696969697" cy="398.61346686649324" r="2" fill="rgb(0,0,0)"/><circle cx="252.02020202020202" cy="406.832778551112" r="2" fill="rgb(0,0,0)"/><circle cx="257.07070707070704" cy="325.3421550089187" r="2" fill="rgb(0,0,0)"/><circle cx="262.1212121212121" cy="324.35957606947477" r="2" fill="rgb(0,0,0)"/><circle cx="267.1717171717172" cy="135.31776304337893" r="2" fill="rgb(0,0,0)"/><circle cx="272.2222222222222" cy="310.7898583085095" r="2" fill="rgb(0,0,0)"/><circle cx="277.27272727272725" cy="134.66850708254992" r="2" fill="rgb(0,0,0)"/><circle cx="282.32323232323233" cy="263.93541375739244" r="2" fill="rgb(0,0,0)"/><circle cx="287.3737373737374" cy="264.3473475538938" r="2" fill="rgb(0,0,0)"/><circle cx="292.42424242424244" cy="369.26969129921986" r="2" fill="rgb(0,0,0)"/><circle cx="297.47474747474746" cy="280.71576002742563" r="2" fill="rgb(0,0,0)"/><circle cx="302.52525252525254" cy="421.94762561981486" r="2" fill="rgb(0,0,0)"/><circle cx="307.57575757575756" cy="321.46073715180654" r="2" fill="rgb(0,0,0)"/><circle cx="312.62626262626264" cy="376.28103424759684" r="2" fill="rgb(0,0,0)"/><circle cx="317.67676767676767" cy="375.7147845342007" r="2" fill="rgb(0,0,0)"/><circle cx="322.7272727272727" cy="374.9424292182954" r="2" fill="rgb(0,0,0)"/><circle cx="327.77777777777777" cy="250.25951932686382" r="2" fill="rgb(0,0,0)"/><circle cx="332.8282828282828" cy="293.4709103028762" r="2" fill="rgb(0,0,0)"/><circle cx="337.8787878787879" cy="361.3695168909694" r="2" fill="rgb(0,0,0)"/><circle cx="342.92929292929296" cy="396.96349966830235" r="2" fill="rgb(0,0,0)"/><circle cx="347.979797979798" cy="396.7513848365082" r="2" fill="rgb(0,0,0)"/><circle cx="353.03030303030306" cy="398.96450996987824" r="2" fill="rgb(0,0,0)"/><circle cx="358.0808080808081" cy="412.84983565918026" r="2" fill="rgb(0,0,0)"/><circle cx="363.13131313131316" cy="413.42545152160756" r="2" fill="rgb(0,0,0)"/><circle cx="368.1818181818182" cy="412.9498161883596" r="2" fill="rgb(0,0,0)"/><circle cx="373.23232323232327" cy="430.3987888113497" r="2" fill="rgb(0,0,0)"/><circle cx="378.2828282828283" cy="311.24872682018895" r="2" fill="rgb(0,0,0)"/><circle cx="383.3333333333333" cy="311.24872682018895" r="2" fill="rgb(0,0,0)"/><circle cx="388.3838383838384" cy="379.2284663327935" r="2" fill="rgb(0,0,0)"/><circle cx="393.4343434343434" cy="308.774417201078" r="2" fill="rgb(0,0,0)"/><circle cx="398.4848484848485" cy="215.97378975773648" r="2" fill="rgb(0,0,0)"/><circle cx="403.5353535353535" cy="262.103159658855" r="2" fill="rgb(0,0,0)"/><circle cx="408.58585858585855" cy="360.776956584541" r="2" fill="rgb(0,0,0)"/><circle cx="413.6363636363636" cy="305.0145305845311" r="2" fill="rgb(0,0,0)"/><circle cx="418.68686868686865" cy="201.78880424447567" r="2" fill="rgb(0,0,0)"/><circle cx="423.73737373737373" cy="156.38505038630205" r="2" fill="rgb(0,0,0)"/><circle cx="428.7878787878788" cy="306.3151470648936" r="2" fill="rgb(0,0,0)"/><circle cx="433.83838383838383" cy="353.26510342807194" r="2" fill="rgb(0,0,0)"/><circle cx="438.8888888888889" cy="352.95965484820726" r="2" fill="rgb(0,0,0)"/><circle cx="443.93939393939394" cy="366.2987912294624" r="2" fill="rgb(0,0,0)"/><circle cx="448.989898989899" cy="310.2855231441375" r="2" fill="rgb(0,0,0)"/><circle cx="454.04040404040404" cy="295.0568394662164" r="2" fill="rgb(0,0,0)"/><circle cx="459.0909090909091" cy="229.99978945636656" r="2" fill="rgb(0,0,0)"/><circle cx="464.14141414141415" cy="206.44582069376327" r="2" fill="rgb(0,0,0)"/><circle cx="469.19191919191917" cy="391.87382986873337" r="2" fill="rgb(0,0,0)"/><circle cx="474.24242424242425" cy="373.5096210549322" r="2" fill="rgb(0,0,0)"/><circle cx="479.2929292929293" cy="377.4719250447346" r="2" fill="rgb(0,0,0)"/><circle cx="484.34343434343435" cy="377.4719250447346" r="2" fill="rgb(0,0,0)"/><circle cx="489.3939393939394" cy="378.23767810611156" r="2" fill="rgb(0,0,0)"/><circle cx="494.4444444444444" cy="388.8626434017241" r="2" fill="rgb(0,0,0)"/><circle cx="499.4949494949495" cy="388.3360887915291" r="2" fill="rgb(0,0,0)"/><circle cx="504.5454545454545" cy="346.33540017517834" r="2" fill="rgb(0,0,0)"/><circle cx="509.59595959595964" cy="277.9642602638226" r="2" fill="rgb(0,0,0)"/><circle cx="514.6464646464647" cy="320.0654508556769" r="2" fill="rgb(0,0,0)"/><circle cx="519.6969696969697" cy="356.78447229768676" r="2" fill="rgb(0,0,0)"/><circle cx="524.7474747474748" cy="344.5544225271733" r="2" fill="rgb(0,0,0)"/><circle cx="529.7979797979798" cy="371.2466407743341" r="2" fill="rgb(0,0,0)"/><circle cx="534.8484848484849" cy="408.1108144889481" r="2" fill="rgb(0,0,0)"/><circle cx="539.8989898989898" cy="278.83549105619517" r="2" fill="rgb(0,0,0)"/><circle cx="544.9494949494949" cy="349.24690415084183" r="2" fill="rgb(0,0,0)"/><circle cx="550.0" cy="349.64659609244757" r="2" fill="rgb(0,0,0)"/><polyline points="50.0,232.85985654043526 55.05050505050505,213.09597350444494 60.101010101010104,198.14350455929508 65.15151515151516,189.9831630788296 70.20202020202021,189.55238126329795 75.25252525252526,165.78104842029518 80.30303030303031,145.08463125413653 85.35353535353535,133.4210904828622 90.40404040404042,118.67741241058059 95.45454545454545,109.57606784758832 100.5050505050505,107.31134003857994 105.55555555555554,88.84446524560695 110.60606060606061,76.09367633060418 115.65656565656566,72.68151582575325 120.7070707070707,69.36718914638317 125.75757575757576,69.54198628810013 130.80808080808083,70.31753484770366 135.85858585858585,69.17318664530484 140.9090909090909,67.23790235583664 145.95959595959596,64.34215638400713 151.010101010101,75.3267888439521 156.06060606060606,70.43467924496531 161.1111111111111,70.56591077670873 166.16161616161617,71.95729536156784 171.21212121212122,58.33847381361869 176.26262626262627,61.76739279323914 181.31313131313132,64.72157746780499 186.36363636363635,74.48346633735292 191.4141414141414,65.49021844929689 196.46464646464648,69.72773752495561 201.51515151515153,66.98883672533492 206.56565656565658,64.76000015911762 211.61616161616163,69.80145261955687 216.66666666666666,72.8948371355039 221.7171717171717,68.39751256228544 226.76767676767676,70.0798036724911 231.8181818181818,67.7338407948211 236.86868686868686,66.61557729275563 241.91919191919192,67.49445125792073 246.96969696969697,67.02452988102851 252.02020202020202,80.12508987521448 257.07070707070704,69.26962720982652 262.1212121212121,66.09805542653402 267.1717171717172,56.53691987549604 272.2222222222222,59.11855748757682 277.27272727272725,56.57301258194116 282.32323232323233,58.164781367866624 287.3737373737374,58.23386634497581 292.42424242424244,60.31729430908433 297.47474747474746,61.25318507250756 302.52525252525254,69.7899343470707 307.57575757575756,66.28311336183964 312.62626262626264,72.06109511929708 317.67676767676767,66.74049151407786 322.7272727272727,63.857869528708704 327.77777777777777,60.0944032613649 332.8282828282828,60.37937237131064 337.8787878787879,60.60571713690422 342.92929292929296,66.41560076733617 347.979797979798,73.67200664112352 353.03030303030306,73.6087203208578 358.0808080808081,76.94862537876111 363.13131313131316,65.56992356105468 368.1818181818182,65.43329881485272 373.23232323232327,68.16106657719058 378.2828282828283,63.36524983639231 383.3333333333333,62.49287597028143 388.3838383838384,62.367821799924286 393.4343434343434,61.300021213672665 398.4848484848485,60.91418742851869 403.5353535353535,61.599067295946384 408.58585858585855,65.9647742781205 413.6363636363636,62.5745199901159 418.68686868686865,59.951408447959295 423.73737373737373,56.9977950426221 428.7878787878788,57.68974386022302 433.83838383838383,68.07168185715528 438.8888888888889,64.5673407222427 443.93939393939394,62.4237809662327 448.989898989899,63.354325577219356 454.04040404040404,69.66366259171082 459.0909090909091,63.996102084815846 464.14141414141415,60.46186237256734 469.19191919191917,59.151559826811024 474.24242424242425,63.04646723018999 479.2929292929293,70.76880694436448 484.34343434343435,66.99436929709924 489.3939393939394,64.27791437396195 494.4444444444444,65.96162937182805 499.4949494949495,64.74846147775605 504.5454545454545,64.46825260680237 509.59595959595964,56.64512398973153 514.6464646464647,57.55544344692231 519.6969696969697,62.65629584537112 524.7474747474748,67.97452291913453 529.7979797979798,63.67387014798362 534.8484848484849,64.85365085697157 539.8989898989898,61.64243013262251 544.9494949494949,61.56441547483274 550.0,65.74089995219919" fill="none" stroke="rgb(0,0,255)" stroke-width="1"/><circle cx="50.0" cy="232.85985654043526" r="2" fill="rgb(0,0,255)"/><circle cx="55.05050505050505" cy="213.09597350444494" r="2" fill="rgb(0,0,255)"/><circle cx="60.101010101010104" cy="198.14350455929508" r="2" fill="rgb(0,0,255)"/><circle cx="65.15151515151516" cy="189.9831630788296" r="2" fill="rgb(0,0,255)"/><circle cx="70.20202020202021" cy="189.55238126329795" r="2" fill="rgb(0,0,255)"/><circle cx="75.25252525252526" cy="165.78104842029518" r="2" fill="rgb(0,0,255)"/><circle cx="80.30303030303031" cy="145.08463125413653" r="2" fill="rgb(0,0,255)"/><circle cx="85.35353535353535" cy="133.4210904828622" r="2" fill="rgb(0,0,255)"/><circle cx="90.40404040404042" cy="118.67741241058059" r="2" fill="rgb(0,0,255)"/><circle cx="95.45454545454545" cy="109.57606784758832" r="2" fill="rgb(0,0,255)"/><circle cx="100.5050505050505" cy="107.31134003857994" r="2" fill="rgb(0,0,255)"/><circle cx="105.55555555555554" cy="88.84446524560695" r="2" fill="rgb(0,0,255)"/><circle cx="110.60606060606061" cy="76.09367633060418" r="2" fill="rgb(0,0,255)"/><circle cx="115.65656565656566" cy="72.68151582575325" r="2" fill="rgb(0,0,255)"/><circle cx="120.7070707070707" cy="69.36718914638317" r="2" fill="rgb(0,0,255)"/><circle cx="125.75757575757576" cy="69.54198628810013" r="2" fill="rgb(0,0,255)"/><circle cx="130.80808080808083" cy="70.31753484770366" r="2" fill="rgb(0,0,255)"/><circle cx="135.85858585858585" cy="69.17318664530484" r="2" fill="rgb(0,0,255)"/><circle cx="140.9090909090909" cy="67.23790235583664" r="2" fill="rgb(0,0,255)"/><circle cx="145.95959595959596" cy="64.34215638400713" r="2" fill="rgb(0,0,255)"/><circle cx="151.010101010101" cy="75.3267888439521" r="2" fill="rgb(0,0,255)"/><circle cx="156.06060606060606" cy="70.43467924496531" r="2" fill="rgb(0,0,255)"/><circle cx="161.1111111111111" cy="70.56591077670873" r="2" fill="rgb(0,0,255)"/><circle cx="166.16161616161617" cy="71.95729536156784" r="2" fill="rgb(0,0,255)"/><circle cx="171.21212121212122" cy="58.33847381361869" r="2" fill="rgb(0,0,255)"/><circle cx="176.26262626262627" cy="61.76739279323914" r="2" fill="rgb(0,0,255)"/><circle cx="181.31313131313132" cy="64.72157746780499" r="2" fill="rgb(0,0,255)"/><circle cx="186.36363636363635" cy="74.48346633735292" r="2" fill="rgb(0,0,255)"/><circle cx="191.4141414141414" cy="65.49021844929689" r="2" fill="rgb(0,0,255)"/><circle cx="196.46464646464648" cy="69.72773752495561" r="2" fill="rgb(0,0,255)"/><circle cx="201.51515151515153" cy="66.98883672533492" r="2" fill="rgb(0,0,255)"/><circle cx="206.56565656565658" cy="64.76000015911762" r="2" fill="rgb(0,0,255)"/><circle cx="211.61616161616163" cy="69.80145261955687" r="2" fill="rgb(0,0,255)"/><circle cx="216.66666666666666" cy="72.8948371355039" r="2" fill="rgb(0,0,255)"/><circle cx="221.7171717171717" cy="68.39751256228544" r="2" fill="rgb(0,0,255)"/><circle cx="226.76767676767676" cy="70.0798036724911" r="2" fill="rgb(0,0,255)"/><circle cx="231.8181818181818" cy="67.7338407948211" r="2" fill="rgb(0,0,255)"/><circle cx="236.86868686868686" cy="66.61557729275563" r="2" fill="rgb(0,0,255)"/><circle cx="241.91919191919192" cy="67.49445125792073" r="2" fill="rgb(0,0,255)"/><circle cx="246.96969696969697" cy="67.02452988102851" r="2" fill="rgb(0,0,255)"/><circle cx="252.02020202020202" cy="80.12508987521448" r="2" fill="rgb(0,0,255)"/><circle cx="257.07070707070704" cy="69.26962720982652" r="2" fill="rgb(0,0,255)"/><circle cx="262.1212121212121" cy="66.09805542653402" r="2" fill="rgb(0,0,255)"/><circle cx="267.1717171717172" cy="56.53691987549604" r="2" fill="rgb(0,0,255)"/><circle cx="272.2222222222222" cy="59.11855748757682" r="2" fill="rgb(0,0,255)"/><circle cx="277.27272727272725" cy="56.57301258194116" r="2" fill="rgb(0,0,255)"/><circle cx="282.32323232323233" cy="58.164781367866624" r="2" fill="rgb(0,0,255)"/><circle cx="287.3737373737374" cy="58.23386634497581" r="2" fill="rgb(0,0,255)"/><circle cx="292.42424242424244" cy="60.31729430908433" r="2" fill="rgb(0,0,255)"/><circle cx="297.47474747474746" cy="61.25318507250756" r="2" fill="rgb(0,0,255)"/><circle cx="302.52525252525254" cy="69.7899343470707" r="2" fill="rgb(0,0,255)"/><circle cx="307.57575757575756" cy="66.28311336183964" r="2" fill="rgb(0,0,255)"/><circle cx="312.62626262626264" cy="72.06109511929708" r="2" fill="rgb(0,0,255)"/><circle cx="317.67676767676767" cy="66.74049151407786" r="2" fill="rgb(0,0,255)"/><circle cx="322.7272727272727" cy="63.857869528708704" r="2" fill="rgb(0,0,255)"/><circle cx="327.77777777777777" cy="60.0944032613649" r="2" fill="rgb(0,0,255)"/><circle cx="332.8282828282828" cy="60.37937237131064" r="2" fill="rgb(0,0,255)"/><circle cx="337.8787878787879" cy="60.60571713690422" r="2" fill="rgb(0,0,255)"/><circle cx="342.92929292929296" cy="66.41560076733617" r="2" fill="rgb(0,0,255)"/><circle cx="347.979797979798" cy="73.67200664112352" r="2" fill="rgb(0,0,255)"/><circle cx="353.03030303030306" cy="73.6087203208578" r="2" fill="rgb(0,0,255)"/><circle cx="358.0808080808081" cy="76.94862537876111" r="2" fill="rgb(0,0,255)"/><circle cx="363.13131313131316" cy="65.56992356105468" r="2" fill="rgb(0,0,255)"/><circle cx="368.1818181818182" cy="65.43329881485272" r="2" fill="rgb(0,0,255)"/><circle cx="373.23232323232327" cy="68.16106657719058" r="2" fill="rgb(0,0,255)"/><circle cx="378.2828282828283" cy="63.36524983639231" r="2" fill="rgb(0,0,255)"/><circle cx="383.3333333333333" cy="62.49287597028143" r="2" fill="rgb(0,0,255)"/><circle cx="388.3838383838384" cy="62.367821799924286" r="2" fill="rgb(0,0,255)"/><circle cx="393.4343434343434" cy="61.300021213672665" r="2" fill="rgb(0,0,255)"/><circle cx="398.4848484848485" cy="60.91418742851869" r="2" fill="rgb(0,0,255)"/><circle cx="403.5353535353535" cy="61.599067295946384" r="2" fill="rgb(0,0,255)"/><circle cx="408.58585858585855" cy="65.9647742781205" r="2" fill="rgb(0,0,255)"/><circle cx="413.6363636363636" cy="62.5745199901159" r="2" fill="rgb(0,0,255)"/><circle cx="418.68686868686865" cy="59.951408447959295" r="2" fill="rgb(0,0,255)"/><circle cx="423.73737373737373" cy="56.9977950426221" r="2" fill="rgb(0,0,255)"/><circle cx="428.7878787878788" cy="57.68974386022302" r="2" fill="rgb(0,0,255)"/><circle cx="433.83838383838383" cy="68.07168185715528" r="2" fill="rgb(0,0,255)"/><circle cx="438.8888888888889" cy="64.5673407222427" r="2" fill="rgb(0,0,255)"/><circle cx="443.93939393939394" cy="62.4237809662327" r="2" fill="rgb(0,0,255)"/><circle cx="448.989898989899" cy="63.354325577219356" r="2" fill="rgb(0,0,255)"/><circle cx="454.04040404040404" cy="69.66366259171082" r="2" fill="rgb(0,0,255)"/><circle cx="459.0909090909091" cy="63.996102084815846" r="2" fill="rgb(0,0,255)"/><circle cx="464.14141414141415" cy="60.46186237256734" r="2" fill="rgb(0,0,255)"/><circle cx="469.19191919191917" cy="59.151559826811024" r="2" fill="rgb(0,0,255)"/><circle cx="474.24242424242425" cy="63.04646723018999" r="2" fill="rgb(0,0,255)"/><circle cx="479.2929292929293" cy="70.76880694436448" r="2" fill="rgb(0,0,255)"/><circle cx="484.34343434343435" cy="66.99436929709924" r="2" fill="rgb(0,0,255)"/><circle cx="489.3939393939394" cy="64.27791437396195" r="2" fill="rgb(0,0,255)"/><circle cx="494.4444444444444" cy="65.96162937182805" r="2" fill="rgb(0,0,255)"/><circle cx="499.4949494949495" cy="64.74846147775605" r="2" fill="rgb(0,0,255)"/><circle cx="504.5454545454545" cy="64.46825260680237" r="2" fill="rgb(0,0,255)"/><circle cx="509.59595959595964" cy="56.64512398973153" r="2" fill="rgb(0,0,255)"/><circle cx="514.6464646464647" cy="57.55544344692231" r="2" fill="rgb(0,0,255)"/><circle cx="519.6969696969697" cy="62.65629584537112" r="2" fill="rgb(0,0,255)"/><circle cx="524.7474747474748" cy="67.97452291913453" r="2" fill="rgb(0,0,255)"/><circle cx="529.7979797979798" cy="63.67387014798362" r="2" fill="rgb(0,0,255)"/><circle cx="534.8484848484849" cy="64.85365085697157" r="2" fill="rgb(0,0,255)"/><circle cx="539.8989898989898" cy="61.64243013262251" r="2" fill="rgb(0,0,255)"/><circle cx="544.9494949494949" cy="61.56441547483274" r="2" fill="rgb(0,0,255)"/><circle cx="550.0" cy="65.74089995219919" r="2" fill="rgb(0,0,255)"/><polyline points="50.0,59.03646007737916 55.05050505050505,58.62696104161256 60.101010101010104,57.58610689783853 65.15151515151516,58.65250313914015 70.20202020202021,57.52697388026337 75.25252525252526,56.744630884589185 80.30303030303031,57.62420152876757 85.35353535353535,56.17741268863688 90.40404040404042,55.47823276964425 95.45454545454545,55.46289254885329 100.5050505050505,53.87888073456651 105.55555555555554,55.51794818341642 110.60606060606061,55.15660461977433 115.65656565656566,55.15660461977433 120.7070707070707,55.12848748647258 125.75757575757576,55.81974887372212 130.80808080808083,55.10024905644099 135.85858585858585,55.926080050077246 140.9090909090909,55.926080050077246 145.95959595959596,55.987058895856535 151.010101010101,55.987058895856535 156.06060606060606,55.08177394320887 161.1111111111111,54.895431188878604 166.16161616161617,54.91029175667262 171.21212121212122,55.380858960644446 176.26262626262627,54.80439549738941 181.31313131313132,54.94367183258407 186.36363636363635,54.71809286516776 191.4141414141414,54.92585282014733 196.46464646464648,55.38910907433308 201.51515151515153,54.86347525465186 206.56565656565658,54.43892063900074 211.61616161616163,54.43201882794574 216.66666666666666,54.43201882794574 221.7171717171717,54.195423724978525 226.76767676767676,54.63268751680175 231.8181818181818,54.700760425868964 236.86868686868686,54.51072105969757 241.91919191919192,54.44424703686718 246.96969696969697,54.51563136950915 252.02020202020202,54.327998390468224 257.07070707070704,54.28291594743382 262.1212121212121,54.35154464773717 267.1717171717172,54.3011957817381 272.2222222222222,54.005598755279664 277.27272727272725,54.165022169239194 282.32323232323233,54.075298698915276 287.3737373737374,53.85141833052552 292.42424242424244,53.846961338041694 297.47474747474746,53.846961338041694 302.52525252525254,53.956935288248815 307.57575757575756,53.956935288248815 312.62626262626264,53.956935288248815 317.67676767676767,53.956935288248815 322.7272727272727,53.956935288248815 327.77777777777777,53.94987979513422 332.8282828282828,53.89828864016454 337.8787878787879,53.86974204581611 342.92929292929296,53.87222235558892 347.979797979798,53.87222235558892 353.03030303030306,53.89828864016454 358.0808080808081,53.89828864016454 363.13131313131316,53.882878395124465 368.1818181818182,53.88119880998613 373.23232323232327,53.880956602559195 378.2828282828283,53.93377027730094 383.3333333333333,53.86997739038958 388.3838383838384,53.90545902752598 393.4343434343434,53.96457263074416 398.4848484848485,53.8439111058139 403.5353535353535,53.8138184836526 408.58585858585855,53.79814891241085 413.6363636363636,53.80177718305333 418.68686868686865,53.78859535315888 423.73737373737373,53.80177718305333 428.7878787878788,53.80177718305333 433.83838383838383,53.80177718305333 438.8888888888889,53.80177718305333 443.93939393939394,53.775710898477655 448.989898989899,53.775710898477655 454.04040404040404,53.80177718305333 459.0909090909091,53.80177718305333 464.14141414141415,53.80177718305333 469.19191919191917,53.80177718305333 474.24242424242425,53.79972890695876 479.2929292929293,53.79972890695876 484.34343434343435,53.80177718305333 489.3939393939394,50.16833993508993 494.4444444444444,50.422645865225036 499.4949494949495,50.0 504.5454545454545,50.0 509.59595959595964,50.0 514.6464646464647,50.0 519.6969696969697,51.39061394081597 524.7474747474748,50.08992365134833 529.7979797979798,50.42213478079884 534.8484848484849,50.01122141959655 539.8989898989898,50.0 544.9494949494949,50.0 550.0,50.0" fill="none" stroke="rgb(0,255,0)" stroke-width="1"/><circle cx="50.0" cy="59.03646007737916" r="2" fill="rgb(0,255,0)"/><circle cx="55.05050505050505" cy="58.62696104161256" r="2" fill="rgb(0,255,0)"/><circle cx="60.101010101010104" cy="57.58610689783853" r="2" fill="rgb(0,255,0)"/><circle cx="65.15151515151516" cy="58.65250313914015" r="2" fill="rgb(0,255,0)"/><circle cx="70.20202020202021" cy="57.52697388026337" r="2" fill="rgb(0,255,0)"/><circle cx="75.25252525252526" cy="56.744630884589185" r="2" fill="rgb(0,255,0)"/><circle cx="80.30303030303031" cy="57.62420152876757" r="2" fill="rgb(0,255,0)"/><circle cx="85.35353535353535" cy="56.17741268863688" r="2" fill="rgb(0,255,0)"/><circle cx="90.40404040404042" cy="55.47823276964425" r="2" fill="rgb(0,255,0)"/><circle cx="95.45454545454545" cy="55.46289254885329" r="2" fill="rgb(0,255,0)"/><circle cx="100.5050505050505" cy="53.87888073456651" r="2" fill="rgb(0,255,0)"/><circle cx="105.55555555555554" cy="55.51794818341642" r="2" fill="rgb(0,255,0)"/><circle cx="110.60606060606061" cy="55.15660461977433" r="2" fill="rgb(0,255,0)"/><circle cx="115.65656565656566" cy="55.15660461977433" r="2" fill="rgb(0,255,0)"/><circle cx="120.7070707070707" cy="55.12848748647258" r="2" fill="rgb(0,255,0)"/><circle cx="125.75757575757576" cy="55.81974887372212" r="2" fill="rgb(0,255,0)"/><circle cx="130.80808080808083" cy="55.10024905644099" r="2" fill="rgb(0,255,0)"/><circle cx="135.85858585858585" cy="55.926080050077246" r="2" fill="rgb(0,255,0)"/><circle cx="140.9090909090909" cy="55.926080050077246" r="2" fill="rgb(0,255,0)"/><circle cx="145.95959595959596" cy="55.987058895856535" r="2" fill="rgb(0,255,0)"/><circle cx="151.010101010101" cy="55.987058895856535" r="2" fill="rgb(0,255,0)"/><circle cx="156.06060606060606" cy="55.08177394320887" r="2" fill="rgb(0,255,0)"/><circle cx="161.1111111111111" cy="54.895431188878604" r="2" fill="rgb(0,255,0)"/><circle cx="166.16161616161617" cy="54.91029175667262" r="2" fill="rgb(0,255,0)"/><circle cx="171.21212121212122" cy="55.380858960644446" r="2" fill="rgb(0,255,0)"/><circle cx="176.26262626262627" cy="54.80439549738941" r="2" fill="rgb(0,255,0)"/><circle cx="181.31313131313132" cy="54.94367183258407" r="2" fill="rgb(0,255,0)"/><circle cx="186.36363636363635" cy="54.71809286516776" r="2" fill="rgb(0,255,0)"/><circle cx="191.4141414141414" cy="54.92585282014733" r="2" fill="rgb(0,255,0)"/><circle cx="196.46464646464648" cy="55.38910907433308" r="2" fill="rgb(0,255,0)"/><circle cx="201.51515151515153" cy="54.86347525465186" r="2" fill="rgb(0,255,0)"/><circle cx="206.56565656565658" cy="54.43892063900074" r="2" fill="rgb(0,255,0)"/><circle cx="211.61616161616163" cy="54.43201882794574" r="2" fill="rgb(0,255,0)"/><circle cx="216.66666666666666" cy="54.43201882794574" r="2" fill="rgb(0,255,0)"/><circle cx="221.7171717171717" cy="54.195423724978525" r="2" fill="rgb(0,255,0)"/><circle cx="226.76767676767676" cy="54.63268751680175" r="2" fill="rgb(0,255,0)"/><circle cx="231.8181818181818" cy="54.700760425868964" r="2" fill="rgb(0,255,0)"/><circle cx="236.86868686868686" cy="54.51072105969757" r="2" fill="rgb(0,255,0)"/><circle cx="241.91919191919192" cy="54.44424703686718" r="2" fill="rgb(0,255,0)"/><circle cx="246.96969696969697" cy="54.51563136950915" r="2" fill="rgb(0,255,0)"/><circle cx="252.02020202020202" cy="54.327998390468224" r="2" fill="rgb(0,255,0)"/><circle cx="257.07070707070704" cy="54.28291594743382" r="2" fill="rgb(0,255,0)"/><circle cx="262.1212121212121" cy="54.35154464773717" r="2" fill="rgb(0,255,0)"/><circle cx="267.1717171717172" cy="54.3011957817381" r="2" fill="rgb(0,255,0)"/><circle cx="272.2222222222222" cy="54.005598755279664" r="2" fill="rgb(0,255,0)"/><circle cx="277.27272727272725" cy="54.165022169239194" r="2" fill="rgb(0,255,0)"/><circle cx="282.32323232323233" cy="54.075298698915276" r="2" fill="rgb(0,255,0)"/><circle cx="287.3737373737374" cy="53.85141833052552" r="2" fill="rgb(0,255,0)"/><circle cx="292.42424242424244" cy="53.846961338041694" r="2" fill="rgb(0,255,0)"/><circle cx="297.47474747474746" cy="53.846961338041694" r="2" fill="rgb(0,255,0)"/><circle cx="302.52525252525254" cy="53.956935288248815" r="2" fill="rgb(0,255,0)"/><circle cx="307.57575757575756" cy="53.956935288248815" r="2" fill="rgb(0,255,0)"/><circle cx="312.62626262626264" cy="53.956935288248815" r="2" fill="rgb(0,255,0)"/><circle cx="317.67676767676767" cy="53.956935288248815" r="2" fill="rgb(0,255,0)"/><circle cx="322.7272727272727" cy="53.956935288248815" r="2" fill="rgb(0,255,0)"/><circle cx="327.77777777777777" cy="53.94987979513422" r="2" fill="rgb(0,255,0)"/><circle cx="332.8282828282828" cy="53.89828864016454" r="2" fill="rgb(0,255,0)"/><circle cx="337.8787878787879" cy="53.86974204581611" r="2" fill="rgb(0,255,0)"/><circle cx="342.92929292929296" cy="53.87222235558892" r="2" fill="rgb(0,255,0)"/><circle cx="347.979797979798" cy="53.87222235558892" r="2" fill="rgb(0,255,0)"/><circle cx="353.03030303030306" cy="53.89828864016454" r="2" fill="rgb(0,255,0)"/><circle cx="358.0808080808081" cy="53.89828864016454" r="2" fill="rgb(0,255,0)"/><circle cx="363.13131313131316" cy="53.882878395124465" r="2" fill="rgb(0,255,0)"/><circle cx="368.1818181818182" cy="53.88119880998613" r="2" fill="rgb(0,255,0)"/><circle cx="373.23232323232327" cy="53.880956602559195" r="2" fill="rgb(0,255,0)"/><circle cx="378.2828282828283" cy="53.93377027730094" r="2" fill="rgb(0,255,0)"/><circle cx="383.3333333333333" cy="53.86997739038958" r="2" fill="rgb(0,255,0)"/><circle cx="388.3838383838384" cy="53.90545902752598" r="2" fill="rgb(0,255,0)"/><circle cx="393.4343434343434" cy="53.96457263074416" r="2" fill="rgb(0,255,0)"/><circle cx="398.4848484848485" cy="53.8439111058139" r="2" fill="rgb(0,255,0)"/><circle cx="403.5353535353535" cy="53.8138184836526" r="2" fill="rgb(0,255,0)"/><circle cx="408.58585858585855" cy="53.79814891241085" r="2" fill="rgb(0,255,0)"/><circle cx="413.6363636363636" cy="53.80177718305333" r="2" fill="rgb(0,255,0)"/><circle cx="418.68686868686865" cy="53.78859535315888" r="2" fill="rgb(0,255,0)"/><circle cx="423.73737373737373" cy="53.80177718305333" r="2" fill="rgb(0,255,0)"/><circle cx="428.7878787878788" cy="53.80177718305333" r="2" fill="rgb(0,255,0)"/><circle cx="433.83838383838383" cy="53.80177718305333" r="2" fill="rgb(0,255,0)"/><circle cx="438.8888888888889" cy="53.80177718305333" r="2" fill="rgb(0,255,0)"/><circle cx="443.93939393939394" cy="53.775710898477655" r="2" fill="rgb(0,255,0)"/><circle cx="448.989898989899" cy="53.775710898477655" r="2" fill="rgb(0,255,0)"/><circle cx="454.04040404040404" cy="53.80177718305333" r="2" fill="rgb(0,255,0)"/><circle cx="459.0909090909091" cy="53.80177718305333" r="2" fill="rgb(0,255,0)"/><circle cx="464.14141414141415" cy="53.80177718305333" r="2" fill="rgb(0,255,0)"/><circle cx="469.19191919191917" cy="53.80177718305333" r="2" fill="rgb(0,255,0)"/><circle cx="474.24242424242425" cy="53.79972890695876" r="2" fill="rgb(0,255,0)"/><circle cx="479.2929292929293" cy="53.79972890695876" r="2" fill="rgb(0,255,0)"/><circle cx="484.34343434343435" cy="53.80177718305333" r="2" fill="rgb(0,255,0)"/><circle cx="489.3939393939394" cy="50.16833993508993" r="2" fill="rgb(0,255,0)"/><circle cx="494.4444444444444" cy="50.422645865225036" r="2" fill="rgb(0,255,0)"/><circle cx="499.4949494949495" cy="50.0" r="2" fill="rgb(0,255,0)"/><circle cx="504.5454545454545" cy="50.0" r="2" fill="rgb(0,255,0)"/><circle cx="509.59595959595964" cy="50.0" r="2" fill="rgb(0,255,0)"/><circle cx="514.6464646464647" cy="50.0" r="2" fill="rgb(0,255,0)"/><circle cx="519.6969696969697" cy="51.39061394081597" r="2" fill="rgb(0,255,0)"/><circle cx="524.7474747474748" cy="50.08992365134833" r="2" fill="rgb(0,255,0)"/><circle cx="529.7979797979798" cy="50.42213478079884" r="2" fill="rgb(0,255,0)"/><circle cx="534.8484848484849" cy="50.01122141959655" r="2" fill="rgb(0,255,0)"/><circle cx="539.8989898989898" cy="50.0" r="2" fill="rgb(0,255,0)"/><circle cx="544.9494949494949" cy="50.0" r="2" fill="rgb(0,255,0)"/><circle cx="550.0" cy="50.0" r="2" fill="rgb(0,255,0)"/><text x="350.0" y="20.0" text-anchor="middle" fill="rgb(0,0,0)" font-size="20.0">GA Demo</text><text x="350.0" y="575.0" text-anchor="middle" fill="rgb(0,0,0)" font-size="12.0">generation</text><text transform="rotate(-90.0 20.0 300.0)" x="20.0" y="300.0" text-anchor="middle" fill="rgb(0,0,0)" font-size="12.0">fitness</text><text x="620" y="62" fill="rgb(0,0,0)" font-size="12">min</text><text x="620" y="74" fill="rgb(0,0,255)" font-size="12">ave</text><text x="620" y="86" fill="rgb(0,255,0)" font-size="12">max</text>
      Sorry, your browser does not support inline SVG.
    </svg>