<?xml version='1.0' encoding='UTF-8'?>
<svg version="1.1" width="700.0" height="600.0" onload="init(evt)" xmlns="http://www.w3.org/2000/svg">
      <style>.caption {
  font-size: 14px;
  font-family: Georgia, serif;
}
</style>
      <script type="text/ecmascript"><![CDATA[
function init(evt) {
  if ( window.svgDocument == null ) {
    svgDocument = evt.target.ownerDocument;
  }
}

function RectHover(evt, i, c) {
  rect = svgDocument.getElementById('rect' + i);
  if( c != null ) {
    rect.setAttributeNS(null, "fill", c)  
  }
  tooltiptext = svgDocument.getElementById('tooltiptext' + i);
  tooltipbg = svgDocument.getElementById('tooltipbg' + i);
  if( tooltipbg != null) {
    tbb = tooltiptext.getBBox();
    tooltipbg.setAttributeNS(null, "width", tbb.width);
    tooltipbg.setAttributeNS(null, "height", tbb.height);
    tooltipbg.setAttributeNS(null, "x", tbb.x);
    tooltipbg.setAttributeNS(null, "y", tbb.y);
    tooltipbg.setAttributeNS(null, "visibility", "visible");
  }
  tooltiptext.setAttributeNS(null,"visibility","visible");
}

function RectUnhover(evt, i, c) {
  rect = svgDocument.getElementById('rect' + i);
  if( c != null ) {
    rect.setAttributeNS(null, "fill", c)  
  }
  tooltiptext = svgDocument.getElementById('tooltiptext' + i);
  tooltiptext.setAttributeNS(null,"visibility","hidden");
  tooltipbg = svgDocument.getElementById('tooltipbg' + i);
  if( tooltipbg != null ) {
    tooltipbg.setAttributeNS(null,"visibility","hidden");
  }
}
]]></script>
      <line x1="50.0" y1="550.0" x2="550.0" y2="550.0" stroke="rgb(0,0,0)" stroke-width="1"/><line x1="50.0" y1="550.0" x2="50.0" y2="50.0" stroke="rgb(0,0,0)" stroke-width="1"/><line x1="50.0" y1="550.0" x2="50.0" y2="50.0" stroke="rgb(192,192,192)" stroke-width="1"/><line x1="50.0" y1="548.0" x2="50.0" y2="552.0" stroke="rgb(192,192,192)" stroke-width="1"/><text text-anchor="middle" alignment-baseline="hanging" x="50.0" y="553.0" font-size="12.0">0</text><line x1="100.5050505050505" y1="550.0" x2="100.5050505050505" y2="50.0" stroke="rgb(192,192,192)" stroke-width="1"/><line x1="100.5050505050505" y1="548.0" x2="100.5050505050505" y2="552.0" stroke="rgb(192,192,192)" stroke-width="1"/><text text-anchor="middle" alignment-baseline="hanging" x="100.5050505050505" y="553.0" font-size="12.0">10</text><line x1="151.010101010101" y1="550.0" x2="151.010101010101" y2="50.0" stroke="rgb(192,192,192)" stroke-width="1"/><line x1="151.010101010101" y1="548.0" x2="151.010101010101" y2="552.0" stroke="rgb(192,192,192)" stroke-width="1"/><text text-anchor="middle" alignment-baseline="hanging" x="151.010101010101" y="553.0" font-size="12.0">20</text><line x1="201.51515151515153" y1="550.0" x2="201.51515151515153" y2="50.0" stroke="rgb(192,192,192)" stroke-width="1"/><line x1="201.51515151515153" y1="548.0" x2="201.51515151515153" y2="552.0" stroke="rgb(192,192,192)" stroke-width="1"/><text text-anchor="middle" alignment-baseline="hanging" x="201.51515151515153" y="553.0" font-size="12.0">30</text><line x1="252.02020202020202" y1="550.0" x2="252.02020202020202" y2="50.0" stroke="rgb(192,192,192)" stroke-width="1"/><line x1="252.02020202020202" y1="548.0" x2="252.02020202020202" y2="552.0" stroke="rgb(192,192,192)" stroke-width="1"/><text text-anchor="middle" alignment-baseline="hanging" x="252.02020202020202" y="553.0" font-size="12.0">40</text><line x1="302.52525252525254" y1="550.0" x2="302.52525252525254" y2="50.0" stroke="rgb(192,192,192)" stroke-width="1"/><line x1="302.52525252525254" y1="548.0" x2="302.52525252525254" y2="552.0" stroke="rgb(192,192,192)" stroke-width="1"/><text text-anchor="middle" alignment-baseline="hanging" x="302.52525252525254" y="553.0" font-size="12.0">50</text><line x1="353.03030303030306" y1="550.0" x2="353.03030303030306" y2="50.0" stroke="rgb(192,192,192)" stroke-width="1"/><line x1="353.03030303030306" y1="548.0" x2="353.03030303030306" y2="552.0" stroke="rgb(192,192,192)" stroke-width="1"/><text text-anchor="middle" alignment-baseline="hanging" x="353.03030303030306" y="553.0" font-size="12.0">60</text><line x1="403.5353535353535" y1="550.0" x2="403.5353535353535" y2="50.0" stroke="rgb(192,192,192)" stroke-width="1"/><line x1="403.5353535353535" y1="548.0" x2="403.5353535353535" y2="552.0" stroke="rgb(192,192,192)" stroke-width="1"/><text text-anchor="middle" alignment-baseline="hanging" x="403.5353535353535" y="553.0" font-size="12.0">70</text><line x1="454.04040404040404" y1="550.0" x2="454.04040404040404" y2="50.0" stroke="rgb(192,192,192)" stroke-width="1"/><line x1="454.04040404040404" y1="548.0" x2="454.04040404040404" y2="552.0" stroke="rgb(192,192,192)" stroke-width="1"/><text text-anchor="middle" alignment-baseline="hanging" x="454.04040404040404" y="553.0" font-size="12.0">80</text><line x1="504.5454545454545" y1="550.0" x2="504.5454545454545" y2="50.0" stroke="rgb(192,192,192)" stroke-width="1"/><line x1="504.5454545454545" y1="548.0" x2="504.5454545454545" y2="552.0" stroke="rgb(192,192,192)" stroke-width="1"/><text text-anchor="middle" alignment-baseline="hanging" x="504.5454545454545" y="553.0" font-size="12.0">90</text><line x1="50.0" y1="550.0" x2="550.0" y2="550.0" stroke="rgb(192,192,192)" stroke-width="1"/><text text-anchor="end" alignment-baseline="middle" x="45.0" y="550.0" font-size="12.0">0.0</text><line x1="48.0" y1="550.0" x2="52.0" y2="550.0" stroke="rgb(192,192,192)" stroke-width="1"/><line x1="50.0" y1="367.8838442564245" x2="550.0" y2="367.8838442564245" stroke="rgb(192,192,192)" stroke-width="1"/><text text-anchor="end" alignment-baseline="middle" x="45.0" y="367.8838442564245" font-size="12.0">1000.0</text><line x1="48.0" y1="367.8838442564245" x2="52.0" y2="367.8838442564245" stroke="rgb(192,192,192)" stroke-width="1"/><line x1="50.0" y1="185.76768851284896" x2="550.0" y2="185.76768851284896" stroke="rgb(192,192,192)" stroke-width="1"/><text text-anchor="end" alignment-baseline="middle" x="45.0" y="185.76768851284896" font-size="12.0">2000.0</text><line x1="48.0" y1="185.76768851284896" x2="52.0" y2="185.76768851284896" stroke="rgb(192,192,192)" stroke-width="1"/><polyline points="50.0,420.56178333321867 55.05050505050505,431.92431512057203 60.101010101010104,425.98841008126055 65.15151515151516,369.2222530688289 70.20202020202021,413.1814347403088 75.25252525252526,397.2524426245106 80.30303030303031,411.66307410634636 85.35353535353535,383.67037178968167 90.40404040404042,382.84498073876125 95.45454545454545,391.6908028232578 100.5050505050505,293.6439564471415 105.55555555555554,218.41823592197971 110.60606060606061,263.86826707341226 115.65656565656566,364.1875803571962 120.7070707070707,387.31386548198066 125.75757575757576,283.54842953536513 130.80808080808083,372.48812741539916 135.85858585858585,285.2871635048967 140.9090909090909,284.2464450770842 145.95959595959596,409.9478514339208 151.010101010101,408.9054577510102 156.06060606060606,409.33678853107267 161.1111111111111,410.2500684566131 166.16161616161617,407.80604075197664 171.21212121212122,407.3984715315892 176.26262626262627,389.58349593114417 181.31313131313132,389.3148477583578 186.36363636363635,398.0196830721493 191.4141414141414,398.0196830721493 196.46464646464648,397.10500240477904 201.51515151515153,397.48282517953123 206.56565656565658,394.93024740215174 211.61616161616163,317.03591028942634 216.66666666666666,328.37688132533606 221.7171717171717,307.04424371838763 226.76767676767676,404.8012329536251 231.8181818181818,382.9435200729413 236.86868686868686,290.484757969631 241.91919191919192,353.702614419907 246.96969696969697,354.29437244797066 252.02020202020202,375.032267054342 257.07070707070704,356.79091821243685 262.1212121212121,357.0359705384046 267.1717171717172,256.1461944567605 272.2222222222222,316.641172465896 277.27272727272725,385.55276858996456 282.32323232323233,385.55276858996456 287.3737373737374,386.1819800289417 292.42424242424244,396.0703391782791 297.47474747474746,391.7428960026203 302.52525252525254,391.9765129135084 307.57575757575756,235.06359287284124 312.62626262626264,252.998834641847 317.67676767676767,234.76734125403124 322.7272727272727,411.3238187368195 327.77777777777777,54.02265300505917 332.8282828282828,350.7158001398716 337.8787878787879,387.67306827081006 342.92929292929296,396.94325177205224 347.979797979798,397.11152280031445 353.03030303030306,413.01601025349396 358.0808080808081,396.7896446645521 363.13131313131316,396.83140108825967 368.1818181818182,359.52795732289513 373.23232323232327,388.31172449269746 378.2828282828283,389.0424879248134 383.3333333333333,389.0036044351434 388.3838383838384,402.8105366324347 393.4343434343434,303.175459234079 398.4848484848485,389.65462566314204 403.5353535353535,389.8308464163259 408.58585858585855,353.0834325645437 413.6363636363636,376.9325913259938 418.68686868686865,377.2671467369541 423.73737373737373,377.47706840114495 428.7878787878788,306.2105563655197 433.83838383838383,196.98936128219225 438.8888888888889,235.4957666647706 443.93939393939394,410.0012663843825 448.989898989899,391.84227611955595 454.04040404040404,392.8786371724582 459.0909090909091,159.68263977078698 464.14141414141415,225.85971142998312 469.19191919191917,406.4144535072413 474.24242424242425,405.7056556117502 479.2929292929293,363.51238229616365 484.34343434343435,342.27575922799656 489.3939393939394,398.6774700554438 494.4444444444444,372.990659609194 499.4949494949495,373.71968677721355 504.5454545454545,380.3373694776883 509.59595959595964,413.9700625462386 514.6464646464647,412.861346135068 519.6969696969697,409.16515130378633 524.7474747474748,408.26359209566124 529.7979797979798,410.29076922197527 534.8484848484849,227.22465029904725 539.8989898989898,413.66708054688775 544.9494949494949,263.5124310811385 550.0,190.71877362084047" fill="none" stroke="rgb(0,0,0)" stroke-width="1"/><circle cx="50.0" cy="420.56178333321867" r="2" fill="rgb(0,0,0)"/><circle cx="55.05050505050505" cy="431.92431512057203" r="2" fill="rgb(0,0,0)"/><circle cx="60.101010101010104" cy="425.98841008126055" r="2" fill="rgb(0,0,0)"/><circle cx="65.15151515151516" cy="369.2222530688289" r="2" fill="rgb(0,0,0)"/><circle cx="70.20202020202021" cy="413.1814347403088" r="2" fill="rgb(0,0,0)"/><circle cx="75.25252525252526" cy="397.2524426245106" r="2" fill="rgb(0,0,0)"/><circle cx="80.30303030303031" cy="411.66307410634636" r="2" fill="rgb(0,0,0)"/><circle cx="85.35353535353535" cy="383.67037178968167" r="2" fill="rgb(0,0,0)"/><circle cx="90.40404040404042" cy="382.84498073876125" r="2" fill="rgb(0,0,0)"/><circle cx="95.45454545454545" cy="391.6908028232578" r="2" fill="rgb(0,0,0)"/><circle cx="100.5050505050505" cy="293.6439564471415" r="2" fill="rgb(0,0,0)"/><circle cx="105.55555555555554" cy="218.41823592197971" r="2" fill="rgb(0,0,0)"/><circle cx="110.60606060606061" cy="263.86826707341226" r="2" fill="rgb(0,0,0)"/><circle cx="115.65656565656566" cy="364.1875803571962" r="2" fill="rgb(0,0,0)"/><circle cx="120.7070707070707" cy="387.31386548198066" r="2" fill="rgb(0,0,0)"/><circle cx="125.75757575757576" cy="283.54842953536513" r="2" fill="rgb(0,0,0)"/><circle cx="130.80808080808083" cy="372.48812741539916" r="2" fill="rgb(0,0,0)"/><circle cx="135.85858585858585" cy="285.2871635048967" r="2" fill="rgb(0,0,0)"/><circle cx="140.9090909090909" cy="284.2464450770842" r="2" fill="rgb(0,0,0)"/><circle cx="145.95959595959596" cy="409.9478514339208" r="2" fill="rgb(0,0,0)"/><circle cx="151.010101010101" cy="408.9054577510102" r="2" fill="rgb(0,0,0)"/><circle cx="156.06060606060606" cy="409.33678853107267" r="2" fill="rgb(0,0,0)"/><circle cx="161.1111111111111" cy="410.2500684566131" r="2" fill="rgb(0,0,0)"/><circle cx="166.16161616161617" cy="407.80604075197664" r="2" fill="rgb(0,0,0)"/><circle cx="171.21212121212122" cy="407.3984715315892" r="2" fill="rgb(0,0,0)"/><circle cx="176.26262626262627" cy="389.58349593114417" r="2" fill="rgb(0,0,0)"/><circle cx="181.31313131313132" cy="389.3148477583578" r="2" fill="rgb(0,0,0)"/><circle cx="186.36363636363635" cy="398.0196830721493" r="2" fill="rgb(0,0,0)"/><circle cx="191.4141414141414" cy="398.0196830721493" r="2" fill="rgb(0,0,0)"/><circle cx="196.46464646464648" cy="397.10500240477904" r="2" fill="rgb(0,0,0)"/><circle cx="201.51515151515153" cy="397.48282517953123" r="2" fill="rgb(0,0,0)"/><circle cx="206.56565656565658" cy="394.93024740215174" r="2" fill="rgb(0,0,0)"/><circle cx="211.61616161616163" cy="317.03591028942634" r="2" fill="rgb(0,0,0)"/><circle cx="216.66666666666666" cy="328.37688132533606" r="2" fill="rgb(0,0,0)"/><circle cx="221.7171717171717" cy="307.04424371838763" r="2" fill="rgb(0,0,0)"/><circle cx="226.76767676767676" cy="404.8012329536251" r="2" fill="rgb(0,0,0)"/><circle cx="231.8181818181818" cy="382.9435200729413" r="2" fill="rgb(0,0,0)"/><circle cx="236.86868686868686" cy="290.484757969631" r="2" fill="rgb(0,0,0)"/><circle cx="241.91919191919192" cy="353.702614419907" r="2" fill="rgb(0,0,0)"/><circle cx="246.96969696969697" cy="354.29437244797066" r="2" fill="rgb(0,0,0)"/><circle cx="252.02020202020202" cy="375.032267054342" r="2" fill="rgb(0,0,0)"/><circle cx="257.07070707070704" cy="356.79091821243685" r="2" fill="rgb(0,0,0)"/><circle cx="262.1212121212121" cy="357.0359705384046" r="2" fill="rgb(0,0,0)"/><circle cx="267.1717171717172" cy="256.1461944567605" r="2" fill="rgb(0,0,0)"/><circle cx="272.2222222222222" cy="316.641172465896" r="2" fill="rgb(0,0,0)"/><circle cx="277.27272727272725" cy="385.55276858996456" r="2" fill="rgb(0,0,0)"/><circle cx="282.32323232323233" cy="385.55276858996456" r="2" fill="rgb(0,0,0)"/><circle cx="287.3737373737374" cy="386.1819800289417" r="2" fill="rgb(0,0,0)"/><circle cx="292.42424242424244" cy="396.0703391782791" r="2" fill="rgb(0,0,0)"/><circle cx="297.47474747474746" cy="391.7428960026203" r="2" fill="rgb(0,0,0)"/><circle cx="302.52525252525254" cy="391.9765129135084" r="2" fill="rgb(0,0,0)"/><circle cx="307.57575757575756" cy="235.06359287284124" r="2" fill="rgb(0,0,0)"/><circle cx="312.62626262626264" cy="252.998834641847" r="2" fill="rgb(0,0,0)"/><circle cx="317.67676767676767" cy="234.76734125403124" r="2" fill="rgb(0,0,0)"/><circle cx="322.7272727272727" cy="411.3238187368195" r="2" fill="rgb(0,0,0)"/><circle cx="327.77777777777777" cy="54.02265300505917" r="2" fill="rgb(0,0,0)"/><circle cx="332.8282828282828" cy="350.7158001398716" r="2" fill="rgb(0,0,0)"/><circle cx="337.8787878787879" cy="387.67306827081006" r="2" fill="rgb(0,0,0)"/><circle cx="342.92929292929296" cy="396.94325177205224" r="2" fill="rgb(0,0,0)"/><circle cx="347.979797979798" cy="397.11152280031445" r="2" fill="rgb(0,0,0)"/><circle cx="353.03030303030306" cy="413.01601025349396" r="2" fill="rgb(0,0,0)"/><circle cx="358.0808080808081" cy="396.7896446645521" r="2" fill="rgb(0,0,0)"/><circle cx="363.13131313131316" cy="396.83140108825967" r="2" fill="rgb(0,0,0)"/><circle cx="368.1818181818182" cy="359.52795732289513" r="2" fill="rgb(0,0,0)"/><circle cx="373.23232323232327" cy="388.31172449269746" r="2" fill="rgb(0,0,0)"/><circle cx="378.2828282828283" cy="389.0424879248134" r="2" fill="rgb(0,0,0)"/><circle cx="383.3333333333333" cy="389.0036044351434" r="2" fill="rgb(0,0,0)"/><circle cx="388.3838383838384" cy="402.8105366324347" r="2" fill="rgb(0,0,0)"/><circle cx="393.4343434343434" cy="303.175459234079" r="2" fill="rgb(0,0,0)"/><circle cx="398.4848484848485" cy="389.65462566314204" r="2" fill="rgb(0,0,0)"/><circle cx="403.5353535353535" cy="389.8308464163259" r="2" fill="rgb(0,0,0)"/><circle cx="408.58585858585855" cy="353.0834325645437" r="2" fill="rgb(0,0,0)"/><circle cx="413.6363636363636" cy="376.9325913259938" r="2" fill="rgb(0,0,0)"/><circle cx="418.68686868686865" cy="377.2671467369541" r="2" fill="rgb(0,0,0)"/><circle cx="423.73737373737373" cy="377.47706840114495" r="2" fill="rgb(0,0,0)"/><circle cx="428.7878787878788" cy="306.2105563655197" r="2" fill="rgb(0,0,0)"/><circle cx="433.83838383838383" cy="196.98936128219225" r="2" fill="rgb(0,0,0)"/><circle cx="438.8888888888889" cy="235.4957666647706" r="2" fill="rgb(0,0,0)"/><circle cx="443.93939393939394" cy="410.0012663843825" r="2" fill="rgb(0,0,0)"/><circle cx="448.989898989899" cy="391.84227611955595" r="2" fill="rgb(0,0,0)"/><circle cx="454.04040404040404" cy="392.8786371724582" r="2" fill="rgb(0,0,0)"/><circle cx="459.0909090909091" cy="159.68263977078698" r="2" fill="rgb(0,0,0)"/><circle cx="464.14141414141415" cy="225.85971142998312" r="2" fill="rgb(0,0,0)"/><circle cx="469.19191919191917" cy="406.4144535072413" r="2" fill="rgb(0,0,0)"/><circle cx="474.24242424242425" cy="405.7056556117502" r="2" fill="rgb(0,0,0)"/><circle cx="479.2929292929293" cy="363.51238229616365" r="2" fill="rgb(0,0,0)"/><circle cx="484.34343434343435" cy="342.27575922799656" r="2" fill="rgb(0,0,0)"/><circle cx="489.3939393939394" cy="398.6774700554438" r="2" fill="rgb(0,0,0)"/><circle cx="494.4444444444444" cy="372.990659609194" r="2" fill="rgb(0,0,0)"/><circle cx="499.4949494949495" cy="373.71968677721355" r="2" fill="rgb(0,0,0)"/><circle cx="504.5454545454545" cy="380.3373694776883" r="2" fill="rgb(0,0,0)"/><circle cx="509.59595959595964" cy="413.9700625462386" r="2" fill="rgb(0,0,0)"/><circle cx="514.6464646464647" cy="412.861346135068" r="2" fill="rgb(0,0,0)"/><circle cx="519.6969696969697" cy="409.16515130378633" r="2" fill="rgb(0,0,0)"/><circle cx="524.7474747474748" cy="408.26359209566124" r="2" fill="rgb(0,0,0)"/><circle cx="529.7979797979798" cy="410.29076922197527" r="2" fill="rgb(0,0,0)"/><circle cx="534.8484848484849" cy="227.22465029904725" r="2" fill="rgb(0,0,0)"/><circle cx="539.8989898989898" cy="413.66708054688775" r="2" fill="rgb(0,0,0)"/><circle cx="544.9494949494949" cy="263.5124310811385" r="2" fill="rgb(0,0,0)"/><circle cx="550.0" cy="190.71877362084047" r="2" fill="rgb(0,0,0)"/><polyline points="50.0,215.95817722499157 55.05050505050505,194.76756458603666 60.101010101010104,176.8308203283931 65.15151515151516,146.26213011255027 70.20202020202021,130.19912111494403 75.25252525252526,114.8026947175419 80.30303030303031,103.88118874640537 85.35353535353535,88.01674929353152 90.40404040404042,88.33148669719947 95.45454545454545,73.09524810079978 100.5050505050505,67.18721969133719 105.55555555555554,58.910011795417006 110.60606060606061,64.01264732048094 115.65656565656566,64.45166406304406 120.7070707070707,63.93188264760994 125.75757575757576,62.968957997325276 130.80808080808083,70.677023459211 135.85858585858585,63.47965689814663 140.9090909090909,63.30634354209229 145.95959595959596,73.70268374694535 151.010101010101,70.32435625537397 156.06060606060606,70.64693702961551 161.1111111111111,69.5901315802717 166.16161616161617,75.78095613559498 171.21212121212122,73.94909626975414 176.26262626262627,71.66074275530411 181.31313131313132,79.28605975299632 186.36363636363635,68.63747616914037 191.4141414141414,71.96692762620506 196.46464646464648,70.06380296244566 201.51515151515153,66.18836976956914 206.56565656565658,73.4991190336695 211.61616161616163,67.24868881859317 216.66666666666666,66.7005339225052 221.7171717171717,58.86107933481628 226.76767676767676,64.04749847926303 231.8181818181818,67.25554898054304 236.86868686868686,61.1187572806312 241.91919191919192,71.57790868066462 246.96969696969697,66.22689415697562 252.02020202020202,74.7981884617094 257.07070707070704,69.3300606658915 262.1212121212121,70.32527690284547 267.1717171717172,61.228925859825154 272.2222222222222,59.16307843979803 277.27272727272725,62.00378571084917 282.32323232323233,61.580154789112726 287.3737373737374,58.62962089268234 292.42424242424244,59.762961040034554 297.47474747474746,58.19182845670025 302.52525252525254,60.9139381774516 307.57575757575756,56.243888255735726 312.62626262626264,60.693855466054174 317.67676767676767,60.15272579382889 322.7272727272727,57.92594895029538 327.77777777777777,51.71295143053186 332.8282828282828,59.76946338027125 337.8787878787879,55.14964255266631 342.92929292929296,62.41906962904034 347.979797979798,67.33052555525876 353.03030303030306,66.37989945529836 358.0808080808081,61.36369757349877 363.13131313131316,73.25884289632711 368.1818181818182,61.24686492517043 373.23232323232327,61.23747008279537 378.2828282828283,62.38885038571402 383.3333333333333,73.65149134011011 388.3838383838384,59.57073589556853 393.4343434343434,57.069318569127574 398.4848484848485,63.56139596483706 403.5353535353535,61.54429583661249 408.58585858585855,62.64982633817084 413.6363636363636,58.55035256267644 418.68686868686865,58.55965646870169 423.73737373737373,64.6480137388238 428.7878787878788,64.67916561059826 433.83838383838383,60.889933095716685 438.8888888888889,58.85369550583141 443.93939393939394,60.60545780014644 448.989898989899,65.0204939299245 454.04040404040404,64.61409881973015 459.0909090909091,54.63474368463869 464.14141414141415,58.54845365943305 469.19191919191917,64.11914477750713 474.24242424242425,59.48396625960265 479.2929292929293,61.5299578738701 484.34343434343435,59.008769076188116 489.3939393939394,67.06757845714088 494.4444444444444,60.225728031817994 499.4949494949495,64.03306690317027 504.5454545454545,66.16897631300981 509.59595959595964,64.28754749545698 514.6464646464647,64.87497112150089 519.6969696969697,55.76342583497649 524.7474747474748,55.86506784639221 529.7979797979798,67.90516165091509 534.8484848484849,55.36109781468292 539.8989898989898,57.98939007308542 544.9494949494949,55.33394952706146 550.0,59.528329085587245" fill="none" stroke="rgb(0,0,255)" stroke-width="1"/><circle cx="50.0" cy="215.95817722499157" r="2" fill="rgb(0,0,255)"/><circle cx="55.05050505050505" cy="194.76756458603666" r="2" fill="rgb(0,0,255)"/><circle cx="60.101010101010104" cy="176.8308203283931" r="2" fill="rgb(0,0,255)"/><circle cx="65.15151515151516" cy="146.26213011255027" r="2" fill="rgb(0,0,255)"/><circle cx="70.20202020202021" cy="130.19912111494403" r="2" fill="rgb(0,0,255)"/><circle cx="75.25252525252526" cy="114.8026947175419" r="2" fill="rgb(0,0,255)"/><circle cx="80.30303030303031" cy="103.88118874640537" r="2" fill="rgb(0,0,255)"/><circle cx="85.35353535353535" cy="88.01674929353152" r="2" fill="rgb(0,0,255)"/><circle cx="90.40404040404042" cy="88.33148669719947" r="2" fill="rgb(0,0,255)"/><circle cx="95.45454545454545" cy="73.09524810079978" r="2" fill="rgb(0,0,255)"/><circle cx="100.5050505050505" cy="67.18721969133719" r="2" fill="rgb(0,0,255)"/><circle cx="105.55555555555554" cy="58.910011795417006" r="2" fill="rgb(0,0,255)"/><circle cx="110.60606060606061" cy="64.01264732048094" r="2" fill="rgb(0,0,255)"/><circle cx="115.65656565656566" cy="64.45166406304406" r="2" fill="rgb(0,0,255)"/><circle cx="120.7070707070707" cy="63.93188264760994" r="2" fill="rgb(0,0,255)"/><circle cx="125.75757575757576" cy="62.968957997325276" r="2" fill="rgb(0,0,255)"/><circle cx="130.80808080808083" cy="70.677023459211" r="2" fill="rgb(0,0,255)"/><circle cx="135.85858585858585" cy="63.47965689814663" r="2" fill="rgb(0,0,255)"/><circle cx="140.9090909090909" cy="63.30634354209229" r="2" fill="rgb(0,0,255)"/><circle cx="145.95959595959596" cy="73.70268374694535" r="2" fill="rgb(0,0,255)"/><circle cx="151.010101010101" cy="70.32435625537397" r="2" fill="rgb(0,0,255)"/><circle cx="156.06060606060606" cy="70.64693702961551" r="2" fill="rgb(0,0,255)"/><circle cx="161.1111111111111" cy="69.5901315802717" r="2" fill="rgb(0,0,255)"/><circle cx="166.16161616161617" cy="75.78095613559498" r="2" fill="rgb(0,0,255)"/><circle cx="171.21212121212122" cy="73.94909626975414" r="2" fill="rgb(0,0,255)"/><circle cx="176.26262626262627" cy="71.66074275530411" r="2" fill="rgb(0,0,255)"/><circle cx="181.31313131313132" cy="79.28605975299632" r="2" fill="rgb(0,0,255)"/><circle cx="186.36363636363635" cy="68.63747616914037" r="2" fill="rgb(0,0,255)"/><circle cx="191.4141414141414" cy="71.96692762620506" r="2" fill="rgb(0,0,255)"/><circle cx="196.46464646464648" cy="70.06380296244566" r="2" fill="rgb(0,0,255)"/><circle cx="201.51515151515153" cy="66.18836976956914" r="2" fill="rgb(0,0,255)"/><circle cx="206.56565656565658" cy="73.4991190336695" r="2" fill="rgb(0,0,255)"/><circle cx="211.61616161616163" cy="67.24868881859317" r="2" fill="rgb(0,0,255)"/><circle cx="216.66666666666666" cy="66.7005339225052" r="2" fill="rgb(0,0,255)"/><circle cx="221.7171717171717" cy="58.86107933481628" r="2" fill="rgb(0,0,255)"/><circle cx="226.76767676767676" cy="64.04749847926303" r="2" fill="rgb(0,0,255)"/><circle cx="231.8181818181818" cy="67.25554898054304" r="2" fill="rgb(0,0,255)"/><circle cx="236.86868686868686" cy="61.1187572806312" r="2" fill="rgb(0,0,255)"/><circle cx="241.91919191919192" cy="71.57790868066462" r="2" fill="rgb(0,0,255)"/><circle cx="246.96969696969697" cy="66.22689415697562" r="2" fill="rgb(0,0,255)"/><circle cx="252.02020202020202" cy="74.7981884617094" r="2" fill="rgb(0,0,255)"/><circle cx="257.07070707070704" cy="69.3300606658915" r="2" fill="rgb(0,0,255)"/><circle cx="262.1212121212121" cy="70.32527690284547" r="2" fill="rgb(0,0,255)"/><circle cx="267.1717171717172" cy="61.228925859825154" r="2" fill="rgb(0,0,255)"/><circle cx="272.2222222222222" cy="59.16307843979803" r="2" fill="rgb(0,0,255)"/><circle cx="277.27272727272725" cy="62.00378571084917" r="2" fill="rgb(0,0,255)"/><circle cx="282.32323232323233" cy="61.580154789112726" r="2" fill="rgb(0,0,255)"/><circle cx="287.3737373737374" cy="58.62962089268234" r="2" fill="rgb(0,0,255)"/><circle cx="292.42424242424244" cy="59.762961040034554" r="2" fill="rgb(0,0,255)"/><circle cx="297.47474747474746" cy="58.19182845670025" r="2" fill="rgb(0,0,255)"/><circle cx="302.52525252525254" cy="60.9139381774516" r="2" fill="rgb(0,0,255)"/><circle cx="307.57575757575756" cy="56.243888255735726" r="2" fill="rgb(0,0,255)"/><circle cx="312.62626262626264" cy="60.693855466054174" r="2" fill="rgb(0,0,255)"/><circle cx="317.67676767676767" cy="60.15272579382889" r="2" fill="rgb(0,0,255)"/><circle cx="322.7272727272727" cy="57.92594895029538" r="2" fill="rgb(0,0,255)"/><circle cx="327.77777777777777" cy="51.71295143053186" r="2" fill="rgb(0,0,255)"/><circle cx="332.8282828282828" cy="59.76946338027125" r="2" fill="rgb(0,0,255)"/><circle cx="337.8787878787879" cy="55.14964255266631" r="2" fill="rgb(0,0,255)"/><circle cx="342.92929292929296" cy="62.41906962904034" r="2" fill="rgb(0,0,255)"/><circle cx="347.979797979798" cy="67.33052555525876" r="2" fill="rgb(0,0,255)"/><circle cx="353.03030303030306" cy="66.37989945529836" r="2" fill="rgb(0,0,255)"/><circle cx="358.0808080808081" cy="61.36369757349877" r="2" fill="rgb(0,0,255)"/><circle cx="363.13131313131316" cy="73.25884289632711" r="2" fill="rgb(0,0,255)"/><circle cx="368.1818181818182" cy="61.24686492517043" r="2" fill="rgb(0,0,255)"/><circle cx="373.23232323232327" cy="61.23747008279537" r="2" fill="rgb(0,0,255)"/><circle cx="378.2828282828283" cy="62.38885038571402" r="2" fill="rgb(0,0,255)"/><circle cx="383.3333333333333" cy="73.65149134011011" r="2" fill="rgb(0,0,255)"/><circle cx="388.3838383838384" cy="59.57073589556853" r="2" fill="rgb(0,0,255)"/><circle cx="393.4343434343434" cy="57.069318569127574" r="2" fill="rgb(0,0,255)"/><circle cx="398.4848484848485" cy="63.56139596483706" r="2" fill="rgb(0,0,255)"/><circle cx="403.5353535353535" cy="61.54429583661249" r="2" fill="rgb(0,0,255)"/><circle cx="408.58585858585855" cy="62.64982633817084" r="2" fill="rgb(0,0,255)"/><circle cx="413.6363636363636" cy="58.55035256267644" r="2" fill="rgb(0,0,255)"/><circle cx="418.68686868686865" cy="58.55965646870169" r="2" fill="rgb(0,0,255)"/><circle cx="423.73737373737373" cy="64.6480137388238" r="2" fill="rgb(0,0,255)"/><circle cx="428.7878787878788" cy="64.67916561059826" r="2" fill="rgb(0,0,255)"/><circle cx="433.83838383838383" cy="60.889933095716685" r="2" fill="rgb(0,0,255)"/><circle cx="438.8888888888889" cy="58.85369550583141" r="2" fill="rgb(0,0,255)"/><circle cx="443.93939393939394" cy="60.60545780014644" r="2" fill="rgb(0,0,255)"/><circle cx="448.989898989899" cy="65.0204939299245" r="2" fill="rgb(0,0,255)"/><circle cx="454.04040404040404" cy="64.61409881973015" r="2" fill="rgb(0,0,255)"/><circle cx="459.0909090909091" cy="54.63474368463869" r="2" fill="rgb(0,0,255)"/><circle cx="464.14141414141415" cy="58.54845365943305" r="2" fill="rgb(0,0,255)"/><circle cx="469.19191919191917" cy="64.11914477750713" r="2" fill="rgb(0,0,255)"/><circle cx="474.24242424242425" cy="59.48396625960265" r="2" fill="rgb(0,0,255)"/><circle cx="479.2929292929293" cy="61.5299578738701" r="2" fill="rgb(0,0,255)"/><circle cx="484.34343434343435" cy="59.008769076188116" r="2" fill="rgb(0,0,255)"/><circle cx="489.3939393939394" cy="67.06757845714088" r="2" fill="rgb(0,0,255)"/><circle cx="494.4444444444444" cy="60.225728031817994" r="2" fill="rgb(0,0,255)"/><circle cx="499.4949494949495" cy="64.03306690317027" r="2" fill="rgb(0,0,255)"/><circle cx="504.5454545454545" cy="66.16897631300981" r="2" fill="rgb(0,0,255)"/><circle cx="509.59595959595964" cy="64.28754749545698" r="2" fill="rgb(0,0,255)"/><circle cx="514.6464646464647" cy="64.87497112150089" r="2" fill="rgb(0,0,255)"/><circle cx="519.6969696969697" cy="55.76342583497649" r="2" fill="rgb(0,0,255)"/><circle cx="524.7474747474748" cy="55.86506784639221" r="2" fill="rgb(0,0,255)"/><circle cx="529.7979797979798" cy="67.90516165091509" r="2" fill="rgb(0,0,255)"/><circle cx="534.8484848484849" cy="55.36109781468292" r="2" fill="rgb(0,0,255)"/><circle cx="539.8989898989898" cy="57.98939007308542" r="2" fill="rgb(0,0,255)"/><circle cx="544.9494949494949" cy="55.33394952706146" r="2" fill="rgb(0,0,255)"/><circle cx="550.0" cy="59.528329085587245" r="2" fill="rgb(0,0,255)"/><polyline points="50.0,56.29719272230733 55.05050505050505,55.27034267149213 60.101010101010104,54.750374514324335 65.15151515151516,54.235228705048655 70.20202020202021,54.30571898346119 75.25252525252526,53.18306835782812 80.30303030303031,52.455865967542195 85.35353535353535,53.70367405543294 90.40404040404042,52.50752502204847 95.45454545454545,52.78379507825923 100.5050505050505,52.88152995812737 105.55555555555554,52.3782312973957 110.60606060606061,52.01265920777547 115.65656565656566,52.307122238191766 120.7070707070707,51.89459623261706 125.75757575757576,51.27708034152522 130.80808080808083,51.404593272127556 135.85858585858585,51.70103175895116 140.9090909090909,51.76655690403254 145.95959595959596,51.26891143338656 151.010101010101,51.5561030560292 156.06060606060606,51.88282926857556 161.1111111111111,51.45577900738073 166.16161616161617,51.37795096787909 171.21212121212122,51.465173022109866 176.26262626262627,51.334422297947526 181.31313131313132,51.37410605885003 186.36363636363635,51.24577412384605 191.4141414141414,51.42023470152378 196.46464646464648,51.31286083814928 201.51515151515153,51.20272088080486 206.56565656565658,51.20272088080486 211.61616161616163,51.17754515295354 216.66666666666666,51.24734707397772 221.7171717171717,51.010124297297466 226.76767676767676,51.06763074806827 231.8181818181818,51.25170288215264 236.86868686868686,51.24734707397772 241.91919191919192,51.08625259037353 246.96969696969697,51.061399872990535 252.02020202020202,51.01385052067917 257.07070707070704,51.16936749950719 262.1212121212121,51.01385052067917 267.1717171717172,51.164655613327284 272.2222222222222,50.94072085014909 277.27272727272725,50.97045411769659 282.32323232323233,50.869978191163455 287.3737373737374,50.756229674078156 292.42424242424244,50.95668966200458 297.47474747474746,50.86646342171878 302.52525252525254,50.77709570294593 307.57575757575756,50.86646342171878 312.62626262626264,50.84259687221237 317.67676767676767,50.876035187936395 322.7272727272727,50.7463909208318 327.77777777777777,50.86646342171878 332.8282828282828,50.837983396349614 337.8787878787879,50.84658560826057 342.92929292929296,50.84122750470959 347.979797979798,50.84122750470959 353.03030303030306,50.85615737447819 358.0808080808081,50.79999611792465 363.13131313131316,50.837983396349614 368.1818181818182,50.876035187936395 373.23232323232327,50.79649020008799 378.2828282828283,50.8133144552973 383.3333333333333,50.8133144552973 388.3838383838384,50.861684764094946 393.4343434343434,50.84618319132733 398.4848484848485,50.78349159715481 403.5353535353535,50.78349159715481 408.58585858585855,50.78349159715481 413.6363636363636,50.73857156417762 418.68686868686865,50.73857156417762 423.73737373737373,50.0 428.7878787878788,50.73857156417762 433.83838383838383,50.73857156417762 438.8888888888889,50.73857156417762 443.93939393939394,50.73857156417762 448.989898989899,50.728701979498226 454.04040404040404,50.73796471237904 459.0909090909091,50.75783155670268 464.14141414141415,50.758438408501206 469.19191919191917,50.73857156417762 474.24242424242425,50.73857156417762 479.2929292929293,50.72364904784166 484.34343434343435,50.73857156417762 489.3939393939394,50.73857156417762 494.4444444444444,50.73857156417762 499.4949494949495,50.70939130703613 504.5454545454545,50.73857156417762 509.59595959595964,50.73857156417762 514.6464646464647,50.73857156417762 519.6969696969697,50.73857156417762 524.7474747474748,50.73857156417762 529.7979797979798,50.73857156417762 534.8484848484849,50.73857156417762 539.8989898989898,50.73857156417762 544.9494949494949,50.73857156417762 550.0,50.73857156417762" fill="none" stroke="rgb(0,255,0)" stroke-width="1"/><circle cx="50.0" cy="56.29719272230733" r="2" fill="rgb(0,255,0)"/><circle cx="55.05050505050505" cy="55.27034267149213" r="2" fill="rgb(0,255,0)"/><circle cx="60.101010101010104" cy="54.750374514324335" r="2" fill="rgb(0,255,0)"/><circle cx="65.15151515151516" cy="54.235228705048655" r="2" fill="rgb(0,255,0)"/><circle cx="70.20202020202021" cy="54.30571898346119" r="2" fill="rgb(0,255,0)"/><circle cx="75.25252525252526" cy="53.18306835782812" r="2" fill="rgb(0,255,0)"/><circle cx="80.30303030303031" cy="52.455865967542195" r="2" fill="rgb(0,255,0)"/><circle cx="85.35353535353535" cy="53.70367405543294" r="2" fill="rgb(0,255,0)"/><circle cx="90.40404040404042" cy="52.50752502204847" r="2" fill="rgb(0,255,0)"/><circle cx="95.45454545454545" cy="52.78379507825923" r="2" fill="rgb(0,255,0)"/><circle cx="100.5050505050505" cy="52.88152995812737" r="2" fill="rgb(0,255,0)"/><circle cx="105.55555555555554" cy="52.3782312973957" r="2" fill="rgb(0,255,0)"/><circle cx="110.60606060606061" cy="52.01265920777547" r="2" fill="rgb(0,255,0)"/><circle cx="115.65656565656566" cy="52.307122238191766" r="2" fill="rgb(0,255,0)"/><circle cx="120.7070707070707" cy="51.89459623261706" r="2" fill="rgb(0,255,0)"/><circle cx="125.75757575757576" cy="51.27708034152522" r="2" fill="rgb(0,255,0)"/><circle cx="130.80808080808083" cy="51.404593272127556" r="2" fill="rgb(0,255,0)"/><circle cx="135.85858585858585" cy="51.70103175895116" r="2" fill="rgb(0,255,0)"/><circle cx="140.9090909090909" cy="51.76655690403254" r="2" fill="rgb(0,255,0)"/><circle cx="145.95959595959596" cy="51.26891143338656" r="2" fill="rgb(0,255,0)"/><circle cx="151.010101010101" cy="51.5561030560292" r="2" fill="rgb(0,255,0)"/><circle cx="156.06060606060606" cy="51.88282926857556" r="2" fill="rgb(0,255,0)"/><circle cx="161.1111111111111" cy="51.45577900738073" r="2" fill="rgb(0,255,0)"/><circle cx="166.16161616161617" cy="51.37795096787909" r="2" fill="rgb(0,255,0)"/><circle cx="171.21212121212122" cy="51.465173022109866" r="2" fill="rgb(0,255,0)"/><circle cx="176.26262626262627" cy="51.334422297947526" r="2" fill="rgb(0,255,0)"/><circle cx="181.31313131313132" cy="51.37410605885003" r="2" fill="rgb(0,255,0)"/><circle cx="186.36363636363635" cy="51.24577412384605" r="2" fill="rgb(0,255,0)"/><circle cx="191.4141414141414" cy="51.42023470152378" r="2" fill="rgb(0,255,0)"/><circle cx="196.46464646464648" cy="51.31286083814928" r="2" fill="rgb(0,255,0)"/><circle cx="201.51515151515153" cy="51.20272088080486" r="2" fill="rgb(0,255,0)"/><circle cx="206.56565656565658" cy="51.20272088080486" r="2" fill="rgb(0,255,0)"/><circle cx="211.61616161616163" cy="51.17754515295354" r="2" fill="rgb(0,255,0)"/><circle cx="216.66666666666666" cy="51.24734707397772" r="2" fill="rgb(0,255,0)"/><circle cx="221.7171717171717" cy="51.010124297297466" r="2" fill="rgb(0,255,0)"/><circle cx="226.76767676767676" cy="51.06763074806827" r="2" fill="rgb(0,255,0)"/><circle cx="231.8181818181818" cy="51.25170288215264" r="2" fill="rgb(0,255,0)"/><circle cx="236.86868686868686" cy="51.24734707397772" r="2" fill="rgb(0,255,0)"/><circle cx="241.91919191919192" cy="51.08625259037353" r="2" fill="rgb(0,255,0)"/><circle cx="246.96969696969697" cy="51.061399872990535" r="2" fill="rgb(0,255,0)"/><circle cx="252.02020202020202" cy="51.01385052067917" r="2" fill="rgb(0,255,0)"/><circle cx="257.07070707070704" cy="51.16936749950719" r="2" fill="rgb(0,255,0)"/><circle cx="262.1212121212121" cy="51.01385052067917" r="2" fill="rgb(0,255,0)"/><circle cx="267.1717171717172" cy="51.164655613327284" r="2" fill="rgb(0,255,0)"/><circle cx="272.2222222222222" cy="50.94072085014909" r="2" fill="rgb(0,255,0)"/><circle cx="277.27272727272725" cy="50.97045411769659" r="2" fill="rgb(0,255,0)"/><circle cx="282.32323232323233" cy="50.869978191163455" r="2" fill="rgb(0,255,0)"/><circle cx="287.3737373737374" cy="50.756229674078156" r="2" fill="rgb(0,255,0)"/><circle cx="292.42424242424244" cy="50.95668966200458" r="2" fill="rgb(0,255,0)"/><circle cx="297.47474747474746" cy="50.86646342171878" r="2" fill="rgb(0,255,0)"/><circle cx="302.52525252525254" cy="50.77709570294593" r="2" fill="rgb(0,255,0)"/><circle cx="307.57575757575756" cy="50.86646342171878" r="2" fill="rgb(0,255,0)"/><circle cx="312.62626262626264" cy="50.84259687221237" r="2" fill="rgb(0,255,0)"/><circle cx="317.67676767676767" cy="50.876035187936395" r="2" fill="rgb(0,255,0)"/><circle cx="322.7272727272727" cy="50.7463909208318" r="2" fill="rgb(0,255,0)"/><circle cx="327.77777777777777" cy="50.86646342171878" r="2" fill="rgb(0,255,0)"/><circle cx="332.8282828282828" cy="50.837983396349614" r="2" fill="rgb(0,255,0)"/><circle cx="337.8787878787879" cy="50.84658560826057" r="2" fill="rgb(0,255,0)"/><circle cx="342.92929292929296" cy="50.84122750470959" r="2" fill="rgb(0,255,0)"/><circle cx="347.979797979798" cy="50.84122750470959" r="2" fill="rgb(0,255,0)"/><circle cx="353.03030303030306" cy="50.85615737447819" r="2" fill="rgb(0,255,0)"/><circle cx="358.0808080808081" cy="50.79999611792465" r="2" fill="rgb(0,255,0)"/><circle cx="363.13131313131316" cy="50.837983396349614" r="2" fill="rgb(0,255,0)"/><circle cx="368.1818181818182" cy="50.876035187936395" r="2" fill="rgb(0,255,0)"/><circle cx="373.23232323232327" cy="50.79649020008799" r="2" fill="rgb(0,255,0)"/><circle cx="378.2828282828283" cy="50.8133144552973" r="2" fill="rgb(0,255,0)"/><circle cx="383.3333333333333" cy="50.8133144552973" r="2" fill="rgb(0,255,0)"/><circle cx="388.3838383838384" cy="50.861684764094946" r="2" fill="rgb(0,255,0)"/><circle cx="393.4343434343434" cy="50.84618319132733" r="2" fill="rgb(0,255,0)"/><circle cx="398.4848484848485" cy="50.78349159715481" r="2" fill="rgb(0,255,0)"/><circle cx="403.5353535353535" cy="50.78349159715481" r="2" fill="rgb(0,255,0)"/><circle cx="408.58585858585855" cy="50.78349159715481" r="2" fill="rgb(0,255,0)"/><circle cx="413.6363636363636" cy="50.73857156417762" r="2" fill="rgb(0,255,0)"/><circle cx="418.68686868686865" cy="50.73857156417762" r="2" fill="rgb(0,255,0)"/><circle cx="423.73737373737373" cy="50.0" r="2" fill="rgb(0,255,0)"/><circle cx="428.7878787878788" cy="50.73857156417762" r="2" fill="rgb(0,255,0)"/><circle cx="433.83838383838383" cy="50.73857156417762" r="2" fill="rgb(0,255,0)"/><circle cx="438.8888888888889" cy="50.73857156417762" r="2" fill="rgb(0,255,0)"/><circle cx="443.93939393939394" cy="50.73857156417762" r="2" fill="rgb(0,255,0)"/><circle cx="448.989898989899" cy="50.728701979498226" r="2" fill="rgb(0,255,0)"/><circle cx="454.04040404040404" cy="50.73796471237904" r="2" fill="rgb(0,255,0)"/><circle cx="459.0909090909091" cy="50.75783155670268" r="2" fill="rgb(0,255,0)"/><circle cx="464.14141414141415" cy="50.758438408501206" r="2" fill="rgb(0,255,0)"/><circle cx="469.19191919191917" cy="50.73857156417762" r="2" fill="rgb(0,255,0)"/><circle cx="474.24242424242425" cy="50.73857156417762" r="2" fill="rgb(0,255,0)"/><circle cx="479.2929292929293" cy="50.72364904784166" r="2" fill="rgb(0,255,0)"/><circle cx="484.34343434343435" cy="50.73857156417762" r="2" fill="rgb(0,255,0)"/><circle cx="489.3939393939394" cy="50.73857156417762" r="2" fill="rgb(0,255,0)"/><circle cx="494.4444444444444" cy="50.73857156417762" r="2" fill="rgb(0,255,0)"/><circle cx="499.4949494949495" cy="50.70939130703613" r="2" fill="rgb(0,255,0)"/><circle cx="504.5454545454545" cy="50.73857156417762" r="2" fill="rgb(0,255,0)"/><circle cx="509.59595959595964" cy="50.73857156417762" r="2" fill="rgb(0,255,0)"/><circle cx="514.6464646464647" cy="50.73857156417762" r="2" fill="rgb(0,255,0)"/><circle cx="519.6969696969697" cy="50.73857156417762" r="2" fill="rgb(0,255,0)"/><circle cx="524.7474747474748" cy="50.73857156417762" r="2" fill="rgb(0,255,0)"/><circle cx="529.7979797979798" cy="50.73857156417762" r="2" fill="rgb(0,255,0)"/><circle cx="534.8484848484849" cy="50.73857156417762" r="2" fill="rgb(0,255,0)"/><circle cx="539.8989898989898" cy="50.73857156417762" r="2" fill="rgb(0,255,0)"/><circle cx="544.9494949494949" cy="50.73857156417762" r="2" fill="rgb(0,255,0)"/><circle cx="550.0" cy="50.73857156417762" r="2" fill="rgb(0,255,0)"/><text x="350.0" y="20.0" text-anchor="middle" fill="rgb(0,0,0)" font-size="20.0">GA Demo</text><text x="350.0" y="575.0" text-anchor="middle" fill="rgb(0,0,0)" font-size="12.0">generation</text><text transform="rotate(-90.0 20.0 300.0)" x="20.0" y="300.0" text-anchor="middle" fill="rgb(0,0,0)" font-size="12.0">fitness</text><text x="620" y="62" fill="rgb(0,0,0)" font-size="12">min</text><text x="620" y="74" fill="rgb(0,0,255)" font-size="12">ave</text><text x="620" y="86" fill="rgb(0,255,0)" font-size="12">max</text>
      Sorry, your browser does not support inline SVG.
    </svg>