<?xml version='1.0' encoding='UTF-8'?>
<svg version="1.1" width="700.0" height="600.0" onload="init(evt)" xmlns="http://www.w3.org/2000/svg">
      <style>.caption {
  font-size: 14px;
  font-family: Georgia, serif;
}
</style>
      <script type="text/ecmascript"><![CDATA[
function init(evt) {
  if ( window.svgDocument == null ) {
    svgDocument = evt.target.ownerDocument;
  }
}

function RectHover(evt, i, c) {
  rect = svgDocument.getElementById('rect' + i);
  if( c != null ) {
    rect.setAttributeNS(null, "fill", c)  
  }
  tooltiptext = svgDocument.getElementById('tooltiptext' + i);
  tooltipbg = svgDocument.getElementById('tooltipbg' + i);
  if( tooltipbg != null) {
    tbb = tooltiptext.getBBox();
    tooltipbg.setAttributeNS(null, "width", tbb.width);
    tooltipbg.setAttributeNS(null, "height", tbb.height);
    tooltipbg.setAttributeNS(null, "x", tbb.x);
    tooltipbg.setAttributeNS(null, "y", tbb.y);
    tooltipbg.setAttributeNS(null, "visibility", "visible");
  }
  tooltiptext.setAttributeNS(null,"visibility","visible");
}

function RectUnhover(evt, i, c) {
  rect = svgDocument.getElementById('rect' + i);
  if( c != null ) {
    rect.setAttributeNS(null, "fill", c)  
  }
  tooltiptext = svgDocument.getElementById('tooltiptext' + i);
  tooltiptext.setAttributeNS(null,"visibility","hidden");
  tooltipbg = svgDocument.getElementById('tooltipbg' + i);
  if( tooltipbg != null ) {
    tooltipbg.setAttributeNS(null,"visibility","hidden");
  }
}
]]></script>
      <line x1="50.0" y1="550.0" x2="550.0" y2="550.0" stroke="rgb(0,0,0)" stroke-width="1"/><line x1="50.0" y1="550.0" x2="50.0" y2="50.0" stroke="rgb(0,0,0)" stroke-width="1"/><line x1="50.0" y1="550.0" x2="50.0" y2="50.0" stroke="rgb(192,192,192)" stroke-width="1"/><line x1="50.0" y1="548.0" x2="50.0" y2="552.0" stroke="rgb(192,192,192)" stroke-width="1"/><text text-anchor="middle" alignment-baseline="hanging" x="50.0" y="553.0" font-size="12.0">0</text><line x1="100.5050505050505" y1="550.0" x2="100.5050505050505" y2="50.0" stroke="rgb(192,192,192)" stroke-width="1"/><line x1="100.5050505050505" y1="548.0" x2="100.5050505050505" y2="552.0" stroke="rgb(192,192,192)" stroke-width="1"/><text text-anchor="middle" alignment-baseline="hanging" x="100.5050505050505" y="553.0" font-size="12.0">10</text><line x1="151.010101010101" y1="550.0" x2="151.010101010101" y2="50.0" stroke="rgb(192,192,192)" stroke-width="1"/><line x1="151.010101010101" y1="548.0" x2="151.010101010101" y2="552.0" stroke="rgb(192,192,192)" stroke-width="1"/><text text-anchor="middle" alignment-baseline="hanging" x="151.010101010101" y="553.0" font-size="12.0">20</text><line x1="201.51515151515153" y1="550.0" x2="201.51515151515153" y2="50.0" stroke="rgb(192,192,192)" stroke-width="1"/><line x1="201.51515151515153" y1="548.0" x2="201.51515151515153" y2="552.0" stroke="rgb(192,192,192)" stroke-width="1"/><text text-anchor="middle" alignment-baseline="hanging" x="201.51515151515153" y="553.0" font-size="12.0">30</text><line x1="252.02020202020202" y1="550.0" x2="252.02020202020202" y2="50.0" stroke="rgb(192,192,192)" stroke-width="1"/><line x1="252.02020202020202" y1="548.0" x2="252.02020202020202" y2="552.0" stroke="rgb(192,192,192)" stroke-width="1"/><text text-anchor="middle" alignment-baseline="hanging" x="252.02020202020202" y="553.0" font-size="12.0">40</text><line x1="302.52525252525254" y1="550.0" x2="302.52525252525254" y2="50.0" stroke="rgb(192,192,192)" stroke-width="1"/><line x1="302.52525252525254" y1="548.0" x2="302.52525252525254" y2="552.0" stroke="rgb(192,192,192)" stroke-width="1"/><text text-anchor="middle" alignment-baseline="hanging" x="302.52525252525254" y="553.0" font-size="12.0">50</text><line x1="353.03030303030306" y1="550.0" x2="353.03030303030306" y2="50.0" stroke="rgb(192,192,192)" stroke-width="1"/><line x1="353.03030303030306" y1="548.0" x2="353.03030303030306" y2="552.0" stroke="rgb(192,192,192)" stroke-width="1"/><text text-anchor="middle" alignment-baseline="hanging" x="353.03030303030306" y="553.0" font-size="12.0">60</text><line x1="403.5353535353535" y1="550.0" x2="403.5353535353535" y2="50.0" stroke="rgb(192,192,192)" stroke-width="1"/><line x1="403.5353535353535" y1="548.0" x2="403.5353535353535" y2="552.0" stroke="rgb(192,192,192)" stroke-width="1"/><text text-anchor="middle" alignment-baseline="hanging" x="403.5353535353535" y="553.0" font-size="12.0">70</text><line x1="454.04040404040404" y1="550.0" x2="454.04040404040404" y2="50.0" stroke="rgb(192,192,192)" stroke-width="1"/><line x1="454.04040404040404" y1="548.0" x2="454.04040404040404" y2="552.0" stroke="rgb(192,192,192)" stroke-width="1"/><text text-anchor="middle" alignment-baseline="hanging" x="454.04040404040404" y="553.0" font-size="12.0">80</text><line x1="504.5454545454545" y1="550.0" x2="504.5454545454545" y2="50.0" stroke="rgb(192,192,192)" stroke-width="1"/><line x1="504.5454545454545" y1="548.0" x2="504.5454545454545" y2="552.0" stroke="rgb(192,192,192)" stroke-width="1"/><text text-anchor="middle" alignment-baseline="hanging" x="504.5454545454545" y="553.0" font-size="12.0">90</text><line x1="50.0" y1="550.0" x2="550.0" y2="550.0" stroke="rgb(192,192,192)" stroke-width="1"/><text text-anchor="end" alignment-baseline="middle" x="45.0" y="550.0" font-size="12.0">0.0</text><line x1="48.0" y1="550.0" x2="52.0" y2="550.0" stroke="rgb(192,192,192)" stroke-width="1"/><line x1="50.0" y1="367.68604330488245" x2="550.0" y2="367.68604330488245" stroke="rgb(192,192,192)" stroke-width="1"/><text text-anchor="end" alignment-baseline="middle" x="45.0" y="367.68604330488245" font-size="12.0">1000.0</text><line x1="48.0" y1="367.68604330488245" x2="52.0" y2="367.68604330488245" stroke="rgb(192,192,192)" stroke-width="1"/><line x1="50.0" y1="185.37208660976484" x2="550.0" y2="185.37208660976484" stroke="rgb(192,192,192)" stroke-width="1"/><text text-anchor="end" alignment-baseline="middle" x="45.0" y="185.37208660976484" font-size="12.0">2000.0</text><line x1="48.0" y1="185.37208660976484" x2="52.0" y2="185.37208660976484" stroke="rgb(192,192,192)" stroke-width="1"/><polyline points="50.0,407.93126804028435 55.05050505050505,409.0197745130803 60.101010101010104,417.1779285981272 65.15151515151516,366.78612767883135 70.20202020202021,411.6039367515204 75.25252525252526,365.3185322788445 80.30303030303031,395.63729724731417 85.35353535353535,268.5039592629356 90.40404040404042,213.65059357684095 95.45454545454545,336.61225095315524 100.5050505050505,334.9048766005768 105.55555555555554,380.05039739437495 110.60606060606061,289.0512410116763 115.65656565656566,299.5547151302268 120.7070707070707,237.9590589521507 125.75757575757576,370.7958393027818 130.80808080808083,414.1207179448409 135.85858585858585,371.11600804819307 140.9090909090909,348.9630654278584 145.95959595959596,296.8336422503544 151.010101010101,382.69285082462545 156.06060606060606,382.98040567176355 161.1111111111111,383.5686396130824 166.16161616161617,409.0992973861059 171.21212121212122,385.31544403394275 176.26262626262627,379.54372913440915 181.31313131313132,321.13562754050645 186.36363636363635,250.861628350483 191.4141414141414,404.05429524848944 196.46464646464648,403.4194497199728 201.51515151515153,410.19778150469506 206.56565656565658,409.99937853484016 211.61616161616163,346.76129853075565 216.66666666666666,348.7967295031848 221.7171717171717,399.2833312771805 226.76767676767676,400.98274027917086 231.8181818181818,400.26453172897004 236.86868686868686,377.8871914341594 241.91919191919192,177.40035576267803 246.96969696969697,362.18232848952687 252.02020202020202,71.11880789923254 257.07070707070704,334.102357536675 262.1212121212121,333.4355948108355 267.1717171717172,361.1015602508403 272.2222222222222,390.2414949068217 277.27272727272725,390.2414949068217 282.32323232323233,244.96837744399983 287.3737373737374,353.01093198413935 292.42424242424244,354.7844005560707 297.47474747474746,277.63216170566295 302.52525252525254,395.06279336708644 307.57575757575756,367.7556360577618 312.62626262626264,392.66674328445043 317.67676767676767,323.8033292684137 322.7272727272727,363.9581203891723 327.77777777777777,364.4812617410648 332.8282828282828,365.2871615401058 337.8787878787879,295.2331084541275 342.92929292929296,295.3399130414276 347.979797979798,409.40492406866576 353.03030303030306,409.90157330668706 358.0808080808081,342.0304037185233 363.13131313131316,342.75044992201754 368.1818181818182,398.0554529135261 373.23232323232327,397.7925047712986 378.2828282828283,416.365502066366 383.3333333333333,410.1916715277723 388.3838383838384,257.2778465044127 393.4343434343434,392.52958209709635 398.4848484848485,412.0171930608236 403.5353535353535,338.7040567368432 408.58585858585855,338.25810461707783 413.6363636363636,354.37631602443713 418.68686868686865,336.1571514760811 423.73737373737373,257.882821300107 428.7878787878788,278.86201904649306 433.83838383838383,282.55813166547324 438.8888888888889,279.6969881568897 443.93939393939394,249.58810210207093 448.989898989899,246.87335585047362 454.04040404040404,243.18412367526298 459.0909090909091,290.94894432598966 464.14141414141415,402.83560559288003 469.19191919191917,338.8204354991402 474.24242424242425,338.8764943939064 479.2929292929293,338.80647822240394 484.34343434343435,339.041136997963 489.3939393939394,374.3580982528223 494.4444444444444,263.12671403416556 499.4949494949495,401.2578769753798 504.5454545454545,351.35475325166925 509.59595959595964,393.68446912895683 514.6464646464647,382.0651273679346 519.6969696969697,380.86280058263867 524.7474747474748,263.63359215763097 529.7979797979798,365.1464634912443 534.8484848484849,367.2069534865336 539.8989898989898,406.04009991965233 544.9494949494949,405.84484323607506 550.0,166.5525115949976" fill="none" stroke="rgb(0,0,0)" stroke-width="1"/><circle cx="50.0" cy="407.93126804028435" r="2" fill="rgb(0,0,0)"/><circle cx="55.05050505050505" cy="409.0197745130803" r="2" fill="rgb(0,0,0)"/><circle cx="60.101010101010104" cy="417.1779285981272" r="2" fill="rgb(0,0,0)"/><circle cx="65.15151515151516" cy="366.78612767883135" r="2" fill="rgb(0,0,0)"/><circle cx="70.20202020202021" cy="411.6039367515204" r="2" fill="rgb(0,0,0)"/><circle cx="75.25252525252526" cy="365.3185322788445" r="2" fill="rgb(0,0,0)"/><circle cx="80.30303030303031" cy="395.63729724731417" r="2" fill="rgb(0,0,0)"/><circle cx="85.35353535353535" cy="268.5039592629356" r="2" fill="rgb(0,0,0)"/><circle cx="90.40404040404042" cy="213.65059357684095" r="2" fill="rgb(0,0,0)"/><circle cx="95.45454545454545" cy="336.61225095315524" r="2" fill="rgb(0,0,0)"/><circle cx="100.5050505050505" cy="334.9048766005768" r="2" fill="rgb(0,0,0)"/><circle cx="105.55555555555554" cy="380.05039739437495" r="2" fill="rgb(0,0,0)"/><circle cx="110.60606060606061" cy="289.0512410116763" r="2" fill="rgb(0,0,0)"/><circle cx="115.65656565656566" cy="299.5547151302268" r="2" fill="rgb(0,0,0)"/><circle cx="120.7070707070707" cy="237.9590589521507" r="2" fill="rgb(0,0,0)"/><circle cx="125.75757575757576" cy="370.7958393027818" r="2" fill="rgb(0,0,0)"/><circle cx="130.80808080808083" cy="414.1207179448409" r="2" fill="rgb(0,0,0)"/><circle cx="135.85858585858585" cy="371.11600804819307" r="2" fill="rgb(0,0,0)"/><circle cx="140.9090909090909" cy="348.9630654278584" r="2" fill="rgb(0,0,0)"/><circle cx="145.95959595959596" cy="296.8336422503544" r="2" fill="rgb(0,0,0)"/><circle cx="151.010101010101" cy="382.69285082462545" r="2" fill="rgb(0,0,0)"/><circle cx="156.06060606060606" cy="382.98040567176355" r="2" fill="rgb(0,0,0)"/><circle cx="161.1111111111111" cy="383.5686396130824" r="2" fill="rgb(0,0,0)"/><circle cx="166.16161616161617" cy="409.0992973861059" r="2" fill="rgb(0,0,0)"/><circle cx="171.21212121212122" cy="385.31544403394275" r="2" fill="rgb(0,0,0)"/><circle cx="176.26262626262627" cy="379.54372913440915" r="2" fill="rgb(0,0,0)"/><circle cx="181.31313131313132" cy="321.13562754050645" r="2" fill="rgb(0,0,0)"/><circle cx="186.36363636363635" cy="250.861628350483" r="2" fill="rgb(0,0,0)"/><circle cx="191.4141414141414" cy="404.05429524848944" r="2" fill="rgb(0,0,0)"/><circle cx="196.46464646464648" cy="403.4194497199728" r="2" fill="rgb(0,0,0)"/><circle cx="201.51515151515153" cy="410.19778150469506" r="2" fill="rgb(0,0,0)"/><circle cx="206.56565656565658" cy="409.99937853484016" r="2" fill="rgb(0,0,0)"/><circle cx="211.61616161616163" cy="346.76129853075565" r="2" fill="rgb(0,0,0)"/><circle cx="216.66666666666666" cy="348.7967295031848" r="2" fill="rgb(0,0,0)"/><circle cx="221.7171717171717" cy="399.2833312771805" r="2" fill="rgb(0,0,0)"/><circle cx="226.76767676767676" cy="400.98274027917086" r="2" fill="rgb(0,0,0)"/><circle cx="231.8181818181818" cy="400.26453172897004" r="2" fill="rgb(0,0,0)"/><circle cx="236.86868686868686" cy="377.8871914341594" r="2" fill="rgb(0,0,0)"/><circle cx="241.91919191919192" cy="177.40035576267803" r="2" fill="rgb(0,0,0)"/><circle cx="246.96969696969697" cy="362.18232848952687" r="2" fill="rgb(0,0,0)"/><circle cx="252.02020202020202" cy="71.11880789923254" r="2" fill="rgb(0,0,0)"/><circle cx="257.07070707070704" cy="334.102357536675" r="2" fill="rgb(0,0,0)"/><circle cx="262.1212121212121" cy="333.4355948108355" r="2" fill="rgb(0,0,0)"/><circle cx="267.1717171717172" cy="361.1015602508403" r="2" fill="rgb(0,0,0)"/><circle cx="272.2222222222222" cy="390.2414949068217" r="2" fill="rgb(0,0,0)"/><circle cx="277.27272727272725" cy="390.2414949068217" r="2" fill="rgb(0,0,0)"/><circle cx="282.32323232323233" cy="244.96837744399983" r="2" fill="rgb(0,0,0)"/><circle cx="287.3737373737374" cy="353.01093198413935" r="2" fill="rgb(0,0,0)"/><circle cx="292.42424242424244" cy="354.7844005560707" r="2" fill="rgb(0,0,0)"/><circle cx="297.47474747474746" cy="277.63216170566295" r="2" fill="rgb(0,0,0)"/><circle cx="302.52525252525254" cy="395.06279336708644" r="2" fill="rgb(0,0,0)"/><circle cx="307.57575757575756" cy="367.7556360577618" r="2" fill="rgb(0,0,0)"/><circle cx="312.62626262626264" cy="392.66674328445043" r="2" fill="rgb(0,0,0)"/><circle cx="317.67676767676767" cy="323.8033292684137" r="2" fill="rgb(0,0,0)"/><circle cx="322.7272727272727" cy="363.9581203891723" r="2" fill="rgb(0,0,0)"/><circle cx="327.77777777777777" cy="364.4812617410648" r="2" fill="rgb(0,0,0)"/><circle cx="332.8282828282828" cy="365.2871615401058" r="2" fill="rgb(0,0,0)"/><circle cx="337.8787878787879" cy="295.2331084541275" r="2" fill="rgb(0,0,0)"/><circle cx="342.92929292929296" cy="295.3399130414276" r="2" fill="rgb(0,0,0)"/><circle cx="347.979797979798" cy="409.40492406866576" r="2" fill="rgb(0,0,0)"/><circle cx="353.03030303030306" cy="409.90157330668706" r="2" fill="rgb(0,0,0)"/><circle cx="358.0808080808081" cy="342.0304037185233" r="2" fill="rgb(0,0,0)"/><circle cx="363.13131313131316" cy="342.75044992201754" r="2" fill="rgb(0,0,0)"/><circle cx="368.1818181818182" cy="398.0554529135261" r="2" fill="rgb(0,0,0)"/><circle cx="373.23232323232327" cy="397.7925047712986" r="2" fill="rgb(0,0,0)"/><circle cx="378.2828282828283" cy="416.365502066366" r="2" fill="rgb(0,0,0)"/><circle cx="383.3333333333333" cy="410.1916715277723" r="2" fill="rgb(0,0,0)"/><circle cx="388.3838383838384" cy="257.2778465044127" r="2" fill="rgb(0,0,0)"/><circle cx="393.4343434343434" cy="392.52958209709635" r="2" fill="rgb(0,0,0)"/><circle cx="398.4848484848485" cy="412.0171930608236" r="2" fill="rgb(0,0,0)"/><circle cx="403.5353535353535" cy="338.7040567368432" r="2" fill="rgb(0,0,0)"/><circle cx="408.58585858585855" cy="338.25810461707783" r="2" fill="rgb(0,0,0)"/><circle cx="413.6363636363636" cy="354.37631602443713" r="2" fill="rgb(0,0,0)"/><circle cx="418.68686868686865" cy="336.1571514760811" r="2" fill="rgb(0,0,0)"/><circle cx="423.73737373737373" cy="257.882821300107" r="2" fill="rgb(0,0,0)"/><circle cx="428.7878787878788" cy="278.86201904649306" r="2" fill="rgb(0,0,0)"/><circle cx="433.83838383838383" cy="282.55813166547324" r="2" fill="rgb(0,0,0)"/><circle cx="438.8888888888889" cy="279.6969881568897" r="2" fill="rgb(0,0,0)"/><circle cx="443.93939393939394" cy="249.58810210207093" r="2" fill="rgb(0,0,0)"/><circle cx="448.989898989899" cy="246.87335585047362" r="2" fill="rgb(0,0,0)"/><circle cx="454.04040404040404" cy="243.18412367526298" r="2" fill="rgb(0,0,0)"/><circle cx="459.0909090909091" cy="290.94894432598966" r="2" fill="rgb(0,0,0)"/><circle cx="464.14141414141415" cy="402.83560559288003" r="2" fill="rgb(0,0,0)"/><circle cx="469.19191919191917" cy="338.8204354991402" r="2" fill="rgb(0,0,0)"/><circle cx="474.24242424242425" cy="338.8764943939064" r="2" fill="rgb(0,0,0)"/><circle cx="479.2929292929293" cy="338.80647822240394" r="2" fill="rgb(0,0,0)"/><circle cx="484.34343434343435" cy="339.041136997963" r="2" fill="rgb(0,0,0)"/><circle cx="489.3939393939394" cy="374.3580982528223" r="2" fill="rgb(0,0,0)"/><circle cx="494.4444444444444" cy="263.12671403416556" r="2" fill="rgb(0,0,0)"/><circle cx="499.4949494949495" cy="401.2578769753798" r="2" fill="rgb(0,0,0)"/><circle cx="504.5454545454545" cy="351.35475325166925" r="2" fill="rgb(0,0,0)"/><circle cx="509.59595959595964" cy="393.68446912895683" r="2" fill="rgb(0,0,0)"/><circle cx="514.6464646464647" cy="382.0651273679346" r="2" fill="rgb(0,0,0)"/><circle cx="519.6969696969697" cy="380.86280058263867" r="2" fill="rgb(0,0,0)"/><circle cx="524.7474747474748" cy="263.63359215763097" r="2" fill="rgb(0,0,0)"/><circle cx="529.7979797979798" cy="365.1464634912443" r="2" fill="rgb(0,0,0)"/><circle cx="534.8484848484849" cy="367.2069534865336" r="2" fill="rgb(0,0,0)"/><circle cx="539.8989898989898" cy="406.04009991965233" r="2" fill="rgb(0,0,0)"/><circle cx="544.9494949494949" cy="405.84484323607506" r="2" fill="rgb(0,0,0)"/><circle cx="550.0" cy="166.5525115949976" r="2" fill="rgb(0,0,0)"/><polyline points="50.0,210.44155783116065 55.05050505050505,196.83976905445672 60.101010101010104,162.62506655055 65.15151515151516,163.43748740900463 70.20202020202021,139.34289980245154 75.25252525252526,129.319337355293 80.30303030303031,113.5018461741405 85.35353535353535,91.58939283999291 90.40404040404042,84.320500319176 95.45454545454545,79.63692017790981 100.5050505050505,78.88476615380353 105.55555555555554,78.89270135713986 110.60606060606061,73.09854413023385 115.65656565656566,70.57731225901512 120.7070707070707,68.88104583579207 125.75757575757576,65.02842073268505 130.80808080808083,68.33273491719592 135.85858585858585,68.82475401675055 140.9090909090909,72.22911094150214 145.95959595959596,71.03343768484547 151.010101010101,81.72770101404018 156.06060606060606,71.21837572367423 161.1111111111111,81.04638984942187 166.16161616161617,74.19001534608464 171.21212121212122,66.88627859812766 176.26262626262627,63.59970029120535 181.31313131313132,58.130416936216875 186.36363636363635,61.156338254600485 191.4141414141414,62.71792835582289 196.46464646464648,62.72101417092756 201.51515151515153,76.72276929373527 206.56565656565658,71.45331384437338 211.61616161616163,61.11858177246967 216.66666666666666,66.64902837818619 221.7171717171717,67.75789309981388 226.76767676767676,67.5532954579835 231.8181818181818,73.52548912729083 236.86868686868686,59.81970394625239 241.91919191919192,58.29533346411347 246.96969696969697,65.54074763745342 252.02020202020202,53.26338201525169 257.07070707070704,65.1099614038489 262.1212121212121,69.37127048942375 267.1717171717172,70.21106551587388 272.2222222222222,68.26790463393598 277.27272727272725,63.544298190466975 282.32323232323233,56.263926419595236 287.3737373737374,58.7662486894273 292.42424242424244,63.88832075641932 297.47474747474746,54.965223141397814 302.52525252525254,60.657641375485525 307.57575757575756,63.270139251736 312.62626262626264,67.85751983908517 317.67676767676767,55.4470843702851 322.7272727272727,62.559126977893925 327.77777777777777,70.4697184110612 332.8282828282828,78.60517084218367 337.8787878787879,64.58137244653301 342.92929292929296,61.67276849365254 347.979797979798,67.21417595588133 353.03030303030306,75.32210410302793 358.0808080808081,70.23322492827805 363.13131313131316,73.21744017206157 368.1818181818182,63.57761307928024 373.23232323232327,62.50232446554901 378.2828282828283,60.51678444137764 383.3333333333333,59.89253661916854 388.3838383838384,59.026011643145466 393.4343434343434,59.520504002308655 398.4848484848485,57.598457538598154 403.5353535353535,58.148336200655365 408.58585858585855,67.77238821806037 413.6363636363636,62.477082850386466 418.68686868686865,54.6599600288788 423.73737373737373,56.47923453122081 428.7878787878788,58.857297742106994 433.83838383838383,63.0713245048658 438.8888888888889,63.547615487206485 443.93939393939394,56.141416982516944 448.989898989899,57.40429145754331 454.04040404040404,54.93536035591313 459.0909090909091,55.03491711428467 464.14141414141415,57.62328376590659 469.19191919191917,56.69683154569549 474.24242424242425,58.90245276699193 479.2929292929293,60.341181123871934 484.34343434343435,61.2194069175618 489.3939393939394,60.26847550125399 494.4444444444444,55.510902800533984 499.4949494949495,57.344019544015225 504.5454545454545,56.23897938068086 509.59595959595964,60.25811930833868 514.6464646464647,63.34634655559006 519.6969696969697,57.98193209856208 524.7474747474748,55.99038495586501 529.7979797979798,58.71610937890648 534.8484848484849,65.01275568261394 539.8989898989898,71.71896101696484 544.9494949494949,64.05747698001642 550.0,55.23243096497714" fill="none" stroke="rgb(0,0,255)" stroke-width="1"/><circle cx="50.0" cy="210.44155783116065" r="2" fill="rgb(0,0,255)"/><circle cx="55.05050505050505" cy="196.83976905445672" r="2" fill="rgb(0,0,255)"/><circle cx="60.101010101010104" cy="162.62506655055" r="2" fill="rgb(0,0,255)"/><circle cx="65.15151515151516" cy="163.43748740900463" r="2" fill="rgb(0,0,255)"/><circle cx="70.20202020202021" cy="139.34289980245154" r="2" fill="rgb(0,0,255)"/><circle cx="75.25252525252526" cy="129.319337355293" r="2" fill="rgb(0,0,255)"/><circle cx="80.30303030303031" cy="113.5018461741405" r="2" fill="rgb(0,0,255)"/><circle cx="85.35353535353535" cy="91.58939283999291" r="2" fill="rgb(0,0,255)"/><circle cx="90.40404040404042" cy="84.320500319176" r="2" fill="rgb(0,0,255)"/><circle cx="95.45454545454545" cy="79.63692017790981" r="2" fill="rgb(0,0,255)"/><circle cx="100.5050505050505" cy="78.88476615380353" r="2" fill="rgb(0,0,255)"/><circle cx="105.55555555555554" cy="78.89270135713986" r="2" fill="rgb(0,0,255)"/><circle cx="110.60606060606061" cy="73.09854413023385" r="2" fill="rgb(0,0,255)"/><circle cx="115.65656565656566" cy="70.57731225901512" r="2" fill="rgb(0,0,255)"/><circle cx="120.7070707070707" cy="68.88104583579207" r="2" fill="rgb(0,0,255)"/><circle cx="125.75757575757576" cy="65.02842073268505" r="2" fill="rgb(0,0,255)"/><circle cx="130.80808080808083" cy="68.33273491719592" r="2" fill="rgb(0,0,255)"/><circle cx="135.85858585858585" cy="68.82475401675055" r="2" fill="rgb(0,0,255)"/><circle cx="140.9090909090909" cy="72.22911094150214" r="2" fill="rgb(0,0,255)"/><circle cx="145.95959595959596" cy="71.03343768484547" r="2" fill="rgb(0,0,255)"/><circle cx="151.010101010101" cy="81.72770101404018" r="2" fill="rgb(0,0,255)"/><circle cx="156.06060606060606" cy="71.21837572367423" r="2" fill="rgb(0,0,255)"/><circle cx="161.1111111111111" cy="81.04638984942187" r="2" fill="rgb(0,0,255)"/><circle cx="166.16161616161617" cy="74.19001534608464" r="2" fill="rgb(0,0,255)"/><circle cx="171.21212121212122" cy="66.88627859812766" r="2" fill="rgb(0,0,255)"/><circle cx="176.26262626262627" cy="63.59970029120535" r="2" fill="rgb(0,0,255)"/><circle cx="181.31313131313132" cy="58.130416936216875" r="2" fill="rgb(0,0,255)"/><circle cx="186.36363636363635" cy="61.156338254600485" r="2" fill="rgb(0,0,255)"/><circle cx="191.4141414141414" cy="62.71792835582289" r="2" fill="rgb(0,0,255)"/><circle cx="196.46464646464648" cy="62.72101417092756" r="2" fill="rgb(0,0,255)"/><circle cx="201.51515151515153" cy="76.72276929373527" r="2" fill="rgb(0,0,255)"/><circle cx="206.56565656565658" cy="71.45331384437338" r="2" fill="rgb(0,0,255)"/><circle cx="211.61616161616163" cy="61.11858177246967" r="2" fill="rgb(0,0,255)"/><circle cx="216.66666666666666" cy="66.64902837818619" r="2" fill="rgb(0,0,255)"/><circle cx="221.7171717171717" cy="67.75789309981388" r="2" fill="rgb(0,0,255)"/><circle cx="226.76767676767676" cy="67.5532954579835" r="2" fill="rgb(0,0,255)"/><circle cx="231.8181818181818" cy="73.52548912729083" r="2" fill="rgb(0,0,255)"/><circle cx="236.86868686868686" cy="59.81970394625239" r="2" fill="rgb(0,0,255)"/><circle cx="241.91919191919192" cy="58.29533346411347" r="2" fill="rgb(0,0,255)"/><circle cx="246.96969696969697" cy="65.54074763745342" r="2" fill="rgb(0,0,255)"/><circle cx="252.02020202020202" cy="53.26338201525169" r="2" fill="rgb(0,0,255)"/><circle cx="257.07070707070704" cy="65.1099614038489" r="2" fill="rgb(0,0,255)"/><circle cx="262.1212121212121" cy="69.37127048942375" r="2" fill="rgb(0,0,255)"/><circle cx="267.1717171717172" cy="70.21106551587388" r="2" fill="rgb(0,0,255)"/><circle cx="272.2222222222222" cy="68.26790463393598" r="2" fill="rgb(0,0,255)"/><circle cx="277.27272727272725" cy="63.544298190466975" r="2" fill="rgb(0,0,255)"/><circle cx="282.32323232323233" cy="56.263926419595236" r="2" fill="rgb(0,0,255)"/><circle cx="287.3737373737374" cy="58.7662486894273" r="2" fill="rgb(0,0,255)"/><circle cx="292.42424242424244" cy="63.88832075641932" r="2" fill="rgb(0,0,255)"/><circle cx="297.47474747474746" cy="54.965223141397814" r="2" fill="rgb(0,0,255)"/><circle cx="302.52525252525254" cy="60.657641375485525" r="2" fill="rgb(0,0,255)"/><circle cx="307.57575757575756" cy="63.270139251736" r="2" fill="rgb(0,0,255)"/><circle cx="312.62626262626264" cy="67.85751983908517" r="2" fill="rgb(0,0,255)"/><circle cx="317.67676767676767" cy="55.4470843702851" r="2" fill="rgb(0,0,255)"/><circle cx="322.7272727272727" cy="62.559126977893925" r="2" fill="rgb(0,0,255)"/><circle cx="327.77777777777777" cy="70.4697184110612" r="2" fill="rgb(0,0,255)"/><circle cx="332.8282828282828" cy="78.60517084218367" r="2" fill="rgb(0,0,255)"/><circle cx="337.8787878787879" cy="64.58137244653301" r="2" fill="rgb(0,0,255)"/><circle cx="342.92929292929296" cy="61.67276849365254" r="2" fill="rgb(0,0,255)"/><circle cx="347.979797979798" cy="67.21417595588133" r="2" fill="rgb(0,0,255)"/><circle cx="353.03030303030306" cy="75.32210410302793" r="2" fill="rgb(0,0,255)"/><circle cx="358.0808080808081" cy="70.23322492827805" r="2" fill="rgb(0,0,255)"/><circle cx="363.13131313131316" cy="73.21744017206157" r="2" fill="rgb(0,0,255)"/><circle cx="368.1818181818182" cy="63.57761307928024" r="2" fill="rgb(0,0,255)"/><circle cx="373.23232323232327" cy="62.50232446554901" r="2" fill="rgb(0,0,255)"/><circle cx="378.2828282828283" cy="60.51678444137764" r="2" fill="rgb(0,0,255)"/><circle cx="383.3333333333333" cy="59.89253661916854" r="2" fill="rgb(0,0,255)"/><circle cx="388.3838383838384" cy="59.026011643145466" r="2" fill="rgb(0,0,255)"/><circle cx="393.4343434343434" cy="59.520504002308655" r="2" fill="rgb(0,0,255)"/><circle cx="398.4848484848485" cy="57.598457538598154" r="2" fill="rgb(0,0,255)"/><circle cx="403.5353535353535" cy="58.148336200655365" r="2" fill="rgb(0,0,255)"/><circle cx="408.58585858585855" cy="67.77238821806037" r="2" fill="rgb(0,0,255)"/><circle cx="413.6363636363636" cy="62.477082850386466" r="2" fill="rgb(0,0,255)"/><circle cx="418.68686868686865" cy="54.6599600288788" r="2" fill="rgb(0,0,255)"/><circle cx="423.73737373737373" cy="56.47923453122081" r="2" fill="rgb(0,0,255)"/><circle cx="428.7878787878788" cy="58.857297742106994" r="2" fill="rgb(0,0,255)"/><circle cx="433.83838383838383" cy="63.0713245048658" r="2" fill="rgb(0,0,255)"/><circle cx="438.8888888888889" cy="63.547615487206485" r="2" fill="rgb(0,0,255)"/><circle cx="443.93939393939394" cy="56.141416982516944" r="2" fill="rgb(0,0,255)"/><circle cx="448.989898989899" cy="57.40429145754331" r="2" fill="rgb(0,0,255)"/><circle cx="454.04040404040404" cy="54.93536035591313" r="2" fill="rgb(0,0,255)"/><circle cx="459.0909090909091" cy="55.03491711428467" r="2" fill="rgb(0,0,255)"/><circle cx="464.14141414141415" cy="57.62328376590659" r="2" fill="rgb(0,0,255)"/><circle cx="469.19191919191917" cy="56.69683154569549" r="2" fill="rgb(0,0,255)"/><circle cx="474.24242424242425" cy="58.90245276699193" r="2" fill="rgb(0,0,255)"/><circle cx="479.2929292929293" cy="60.341181123871934" r="2" fill="rgb(0,0,255)"/><circle cx="484.34343434343435" cy="61.2194069175618" r="2" fill="rgb(0,0,255)"/><circle cx="489.3939393939394" cy="60.26847550125399" r="2" fill="rgb(0,0,255)"/><circle cx="494.4444444444444" cy="55.510902800533984" r="2" fill="rgb(0,0,255)"/><circle cx="499.4949494949495" cy="57.344019544015225" r="2" fill="rgb(0,0,255)"/><circle cx="504.5454545454545" cy="56.23897938068086" r="2" fill="rgb(0,0,255)"/><circle cx="509.59595959595964" cy="60.25811930833868" r="2" fill="rgb(0,0,255)"/><circle cx="514.6464646464647" cy="63.34634655559006" r="2" fill="rgb(0,0,255)"/><circle cx="519.6969696969697" cy="57.98193209856208" r="2" fill="rgb(0,0,255)"/><circle cx="524.7474747474748" cy="55.99038495586501" r="2" fill="rgb(0,0,255)"/><circle cx="529.7979797979798" cy="58.71610937890648" r="2" fill="rgb(0,0,255)"/><circle cx="534.8484848484849" cy="65.01275568261394" r="2" fill="rgb(0,0,255)"/><circle cx="539.8989898989898" cy="71.71896101696484" r="2" fill="rgb(0,0,255)"/><circle cx="544.9494949494949" cy="64.05747698001642" r="2" fill="rgb(0,0,255)"/><circle cx="550.0" cy="55.23243096497714" r="2" fill="rgb(0,0,255)"/><polyline points="50.0,55.48763017065437 55.05050505050505,54.966777912003465 60.101010101010104,53.963884167482945 65.15151515151516,53.990382990754085 70.20202020202021,53.563090842605334 75.25252525252526,53.563090842605334 80.30303030303031,54.460646542128075 85.35353535353535,53.64290923252338 90.40404040404042,53.379467348713774 95.45454545454545,53.11298089721578 100.5050505050505,52.92756519125311 105.55555555555554,52.82288034369736 110.60606060606061,53.205865141321624 115.65656565656566,53.15211861039609 120.7070707070707,52.840886802489536 125.75757575757576,52.60837869292641 130.80808080808083,52.076957582556076 135.85858585858585,51.65597372313033 140.9090909090909,51.85114455494573 145.95959595959596,51.95760695534415 151.010101010101,51.83862889368521 156.06060606060606,51.865685703463555 161.1111111111111,52.07830658962911 166.16161616161617,52.07830658962911 171.21212121212122,51.660504571267154 176.26262626262627,51.84705133773264 181.31313131313132,51.81946163147592 186.36363636363635,51.71684149981843 191.4141414141414,51.76497358151272 196.46464646464648,51.58579020429528 201.51515151515153,51.58579020429528 206.56565656565658,51.76497358151272 211.61616161616163,51.81946163147592 216.66666666666666,51.638037605538386 221.7171717171717,51.64025847119876 226.76767676767676,51.64025847119876 231.8181818181818,51.589102106088944 236.86868686868686,51.60818975238345 241.91919191919192,51.60818975238345 246.96969696969697,51.60818975238345 252.02020202020202,51.56986693016432 257.07070707070704,51.61923937564654 262.1212121212121,51.56673622110458 267.1717171717172,51.573639167983345 272.2222222222222,51.530001873620904 277.27272727272725,51.50138516508332 282.32323232323233,51.40943593827552 287.3737373737374,51.40943593827552 292.42424242424244,51.47721722708519 297.47474747474746,51.47721722708519 302.52525252525254,51.381005812843625 307.57575757575756,51.381005812843625 312.62626262626264,51.2779042434741 317.67676767676767,50.994808029532635 322.7272727272727,50.39136371154922 327.77777777777777,50.33018465201013 332.8282828282828,50.23843255738336 337.8787878787879,50.29837722614593 342.92929292929296,50.23843255738336 347.979797979798,50.41302757801884 353.03030303030306,50.103905814626785 358.0808080808081,50.22252664289118 363.13131313131316,50.01065068836823 368.1818181818182,50.11772391652363 373.23232323232327,50.131681193259965 378.2828282828283,50.162581974128614 383.3333333333333,50.11546251071155 388.3838383838384,50.15167964077858 393.4343434343434,50.10037589955385 398.4848484848485,50.131681193259965 403.5353535353535,50.131681193259965 408.58585858585855,50.11772391652363 413.6363636363636,50.13416437677347 418.68686868686865,50.131681193259965 423.73737373737373,50.11772391652363 428.7878787878788,50.131681193259965 433.83838383838383,50.131681193259965 438.8888888888889,50.07243582039922 443.93939393939394,50.131902970961335 448.989898989899,50.131681193259965 454.04040404040404,50.05994466876257 459.0909090909091,50.0 464.14141414141415,50.01644046024984 469.19191919191917,50.030397736986174 474.24242424242425,50.013957276736335 479.2929292929293,50.013957276736335 484.34343434343435,50.013957276736335 489.3939393939394,50.012813262188104 494.4444444444444,50.02124343599934 499.4949494949495,50.007286159263 504.5454545454545,50.0 509.59595959595964,50.007286159263 514.6464646464647,50.0 519.6969696969697,50.0 524.7474747474748,50.0 529.7979797979798,50.0 534.8484848484849,50.0 539.8989898989898,50.0 544.9494949494949,50.013957276736335 550.0,50.0" fill="none" stroke="rgb(0,255,0)" stroke-width="1"/><circle cx="50.0" cy="55.48763017065437" r="2" fill="rgb(0,255,0)"/><circle cx="55.05050505050505" cy="54.966777912003465" r="2" fill="rgb(0,255,0)"/><circle cx="60.101010101010104" cy="53.963884167482945" r="2" fill="rgb(0,255,0)"/><circle cx="65.15151515151516" cy="53.990382990754085" r="2" fill="rgb(0,255,0)"/><circle cx="70.20202020202021" cy="53.563090842605334" r="2" fill="rgb(0,255,0)"/><circle cx="75.25252525252526" cy="53.563090842605334" r="2" fill="rgb(0,255,0)"/><circle cx="80.30303030303031" cy="54.460646542128075" r="2" fill="rgb(0,255,0)"/><circle cx="85.35353535353535" cy="53.64290923252338" r="2" fill="rgb(0,255,0)"/><circle cx="90.40404040404042" cy="53.379467348713774" r="2" fill="rgb(0,255,0)"/><circle cx="95.45454545454545" cy="53.11298089721578" r="2" fill="rgb(0,255,0)"/><circle cx="100.5050505050505" cy="52.92756519125311" r="2" fill="rgb(0,255,0)"/><circle cx="105.55555555555554" cy="52.82288034369736" r="2" fill="rgb(0,255,0)"/><circle cx="110.60606060606061" cy="53.205865141321624" r="2" fill="rgb(0,255,0)"/><circle cx="115.65656565656566" cy="53.15211861039609" r="2" fill="rgb(0,255,0)"/><circle cx="120.7070707070707" cy="52.840886802489536" r="2" fill="rgb(0,255,0)"/><circle cx="125.75757575757576" cy="52.60837869292641" r="2" fill="rgb(0,255,0)"/><circle cx="130.80808080808083" cy="52.076957582556076" r="2" fill="rgb(0,255,0)"/><circle cx="135.85858585858585" cy="51.65597372313033" r="2" fill="rgb(0,255,0)"/><circle cx="140.9090909090909" cy="51.85114455494573" r="2" fill="rgb(0,255,0)"/><circle cx="145.95959595959596" cy="51.95760695534415" r="2" fill="rgb(0,255,0)"/><circle cx="151.010101010101" cy="51.83862889368521" r="2" fill="rgb(0,255,0)"/><circle cx="156.06060606060606" cy="51.865685703463555" r="2" fill="rgb(0,255,0)"/><circle cx="161.1111111111111" cy="52.07830658962911" r="2" fill="rgb(0,255,0)"/><circle cx="166.16161616161617" cy="52.07830658962911" r="2" fill="rgb(0,255,0)"/><circle cx="171.21212121212122" cy="51.660504571267154" r="2" fill="rgb(0,255,0)"/><circle cx="176.26262626262627" cy="51.84705133773264" r="2" fill="rgb(0,255,0)"/><circle cx="181.31313131313132" cy="51.81946163147592" r="2" fill="rgb(0,255,0)"/><circle cx="186.36363636363635" cy="51.71684149981843" r="2" fill="rgb(0,255,0)"/><circle cx="191.4141414141414" cy="51.76497358151272" r="2" fill="rgb(0,255,0)"/><circle cx="196.46464646464648" cy="51.58579020429528" r="2" fill="rgb(0,255,0)"/><circle cx="201.51515151515153" cy="51.58579020429528" r="2" fill="rgb(0,255,0)"/><circle cx="206.56565656565658" cy="51.76497358151272" r="2" fill="rgb(0,255,0)"/><circle cx="211.61616161616163" cy="51.81946163147592" r="2" fill="rgb(0,255,0)"/><circle cx="216.66666666666666" cy="51.638037605538386" r="2" fill="rgb(0,255,0)"/><circle cx="221.7171717171717" cy="51.64025847119876" r="2" fill="rgb(0,255,0)"/><circle cx="226.76767676767676" cy="51.64025847119876" r="2" fill="rgb(0,255,0)"/><circle cx="231.8181818181818" cy="51.589102106088944" r="2" fill="rgb(0,255,0)"/><circle cx="236.86868686868686" cy="51.60818975238345" r="2" fill="rgb(0,255,0)"/><circle cx="241.91919191919192" cy="51.60818975238345" r="2" fill="rgb(0,255,0)"/><circle cx="246.96969696969697" cy="51.60818975238345" r="2" fill="rgb(0,255,0)"/><circle cx="252.02020202020202" cy="51.56986693016432" r="2" fill="rgb(0,255,0)"/><circle cx="257.07070707070704" cy="51.61923937564654" r="2" fill="rgb(0,255,0)"/><circle cx="262.1212121212121" cy="51.56673622110458" r="2" fill="rgb(0,255,0)"/><circle cx="267.1717171717172" cy="51.573639167983345" r="2" fill="rgb(0,255,0)"/><circle cx="272.2222222222222" cy="51.530001873620904" r="2" fill="rgb(0,255,0)"/><circle cx="277.27272727272725" cy="51.50138516508332" r="2" fill="rgb(0,255,0)"/><circle cx="282.32323232323233" cy="51.40943593827552" r="2" fill="rgb(0,255,0)"/><circle cx="287.3737373737374" cy="51.40943593827552" r="2" fill="rgb(0,255,0)"/><circle cx="292.42424242424244" cy="51.47721722708519" r="2" fill="rgb(0,255,0)"/><circle cx="297.47474747474746" cy="51.47721722708519" r="2" fill="rgb(0,255,0)"/><circle cx="302.52525252525254" cy="51.381005812843625" r="2" fill="rgb(0,255,0)"/><circle cx="307.57575757575756" cy="51.381005812843625" r="2" fill="rgb(0,255,0)"/><circle cx="312.62626262626264" cy="51.2779042434741" r="2" fill="rgb(0,255,0)"/><circle cx="317.67676767676767" cy="50.994808029532635" r="2" fill="rgb(0,255,0)"/><circle cx="322.7272727272727" cy="50.39136371154922" r="2" fill="rgb(0,255,0)"/><circle cx="327.77777777777777" cy="50.33018465201013" r="2" fill="rgb(0,255,0)"/><circle cx="332.8282828282828" cy="50.23843255738336" r="2" fill="rgb(0,255,0)"/><circle cx="337.8787878787879" cy="50.29837722614593" r="2" fill="rgb(0,255,0)"/><circle cx="342.92929292929296" cy="50.23843255738336" r="2" fill="rgb(0,255,0)"/><circle cx="347.979797979798" cy="50.41302757801884" r="2" fill="rgb(0,255,0)"/><circle cx="353.03030303030306" cy="50.103905814626785" r="2" fill="rgb(0,255,0)"/><circle cx="358.0808080808081" cy="50.22252664289118" r="2" fill="rgb(0,255,0)"/><circle cx="363.13131313131316" cy="50.01065068836823" r="2" fill="rgb(0,255,0)"/><circle cx="368.1818181818182" cy="50.11772391652363" r="2" fill="rgb(0,255,0)"/><circle cx="373.23232323232327" cy="50.131681193259965" r="2" fill="rgb(0,255,0)"/><circle cx="378.2828282828283" cy="50.162581974128614" r="2" fill="rgb(0,255,0)"/><circle cx="383.3333333333333" cy="50.11546251071155" r="2" fill="rgb(0,255,0)"/><circle cx="388.3838383838384" cy="50.15167964077858" r="2" fill="rgb(0,255,0)"/><circle cx="393.4343434343434" cy="50.10037589955385" r="2" fill="rgb(0,255,0)"/><circle cx="398.4848484848485" cy="50.131681193259965" r="2" fill="rgb(0,255,0)"/><circle cx="403.5353535353535" cy="50.131681193259965" r="2" fill="rgb(0,255,0)"/><circle cx="408.58585858585855" cy="50.11772391652363" r="2" fill="rgb(0,255,0)"/><circle cx="413.6363636363636" cy="50.13416437677347" r="2" fill="rgb(0,255,0)"/><circle cx="418.68686868686865" cy="50.131681193259965" r="2" fill="rgb(0,255,0)"/><circle cx="423.73737373737373" cy="50.11772391652363" r="2" fill="rgb(0,255,0)"/><circle cx="428.7878787878788" cy="50.131681193259965" r="2" fill="rgb(0,255,0)"/><circle cx="433.83838383838383" cy="50.131681193259965" r="2" fill="rgb(0,255,0)"/><circle cx="438.8888888888889" cy="50.07243582039922" r="2" fill="rgb(0,255,0)"/><circle cx="443.93939393939394" cy="50.131902970961335" r="2" fill="rgb(0,255,0)"/><circle cx="448.989898989899" cy="50.131681193259965" r="2" fill="rgb(0,255,0)"/><circle cx="454.04040404040404" cy="50.05994466876257" r="2" fill="rgb(0,255,0)"/><circle cx="459.0909090909091" cy="50.0" r="2" fill="rgb(0,255,0)"/><circle cx="464.14141414141415" cy="50.01644046024984" r="2" fill="rgb(0,255,0)"/><circle cx="469.19191919191917" cy="50.030397736986174" r="2" fill="rgb(0,255,0)"/><circle cx="474.24242424242425" cy="50.013957276736335" r="2" fill="rgb(0,255,0)"/><circle cx="479.2929292929293" cy="50.013957276736335" r="2" fill="rgb(0,255,0)"/><circle cx="484.34343434343435" cy="50.013957276736335" r="2" fill="rgb(0,255,0)"/><circle cx="489.3939393939394" cy="50.012813262188104" r="2" fill="rgb(0,255,0)"/><circle cx="494.4444444444444" cy="50.02124343599934" r="2" fill="rgb(0,255,0)"/><circle cx="499.4949494949495" cy="50.007286159263" r="2" fill="rgb(0,255,0)"/><circle cx="504.5454545454545" cy="50.0" r="2" fill="rgb(0,255,0)"/><circle cx="509.59595959595964" cy="50.007286159263" r="2" fill="rgb(0,255,0)"/><circle cx="514.6464646464647" cy="50.0" r="2" fill="rgb(0,255,0)"/><circle cx="519.6969696969697" cy="50.0" r="2" fill="rgb(0,255,0)"/><circle cx="524.7474747474748" cy="50.0" r="2" fill="rgb(0,255,0)"/><circle cx="529.7979797979798" cy="50.0" r="2" fill="rgb(0,255,0)"/><circle cx="534.8484848484849" cy="50.0" r="2" fill="rgb(0,255,0)"/><circle cx="539.8989898989898" cy="50.0" r="2" fill="rgb(0,255,0)"/><circle cx="544.9494949494949" cy="50.013957276736335" r="2" fill="rgb(0,255,0)"/><circle cx="550.0" cy="50.0" r="2" fill="rgb(0,255,0)"/><text x="350.0" y="20.0" text-anchor="middle" fill="rgb(0,0,0)" font-size="20.0">GA Demo</text><text x="350.0" y="575.0" text-anchor="middle" fill="rgb(0,0,0)" font-size="12.0">generation</text><text transform="rotate(-90.0 20.0 300.0)" x="20.0" y="300.0" text-anchor="middle" fill="rgb(0,0,0)" font-size="12.0">fitness</text><text x="620" y="62" fill="rgb(0,0,0)" font-size="12">min</text><text x="620" y="74" fill="rgb(0,0,255)" font-size="12">ave</text><text x="620" y="86" fill="rgb(0,255,0)" font-size="12">max</text>
      Sorry, your browser does not support inline SVG.
    </svg>