<?xml version='1.0' encoding='UTF-8'?>
<svg version="1.1" width="700.0" height="600.0" onload="init(evt)" xmlns="http://www.w3.org/2000/svg">
      <style>.caption {
  font-size: 14px;
  font-family: Georgia, serif;
}
</style>
      <script type="text/ecmascript"><![CDATA[
function init(evt) {
  if ( window.svgDocument == null ) {
    svgDocument = evt.target.ownerDocument;
  }
}

function RectHover(evt, i, c) {
  rect = svgDocument.getElementById('rect' + i);
  if( c != null ) {
    rect.setAttributeNS(null, "fill", c)  
  }
  tooltiptext = svgDocument.getElementById('tooltiptext' + i);
  tooltipbg = svgDocument.getElementById('tooltipbg' + i);
  if( tooltipbg != null) {
    tbb = tooltiptext.getBBox();
    tooltipbg.setAttributeNS(null, "width", tbb.width);
    tooltipbg.setAttributeNS(null, "height", tbb.height);
    tooltipbg.setAttributeNS(null, "x", tbb.x);
    tooltipbg.setAttributeNS(null, "y", tbb.y);
    tooltipbg.setAttributeNS(null, "visibility", "visible");
  }
  tooltiptext.setAttributeNS(null,"visibility","visible");
}

function RectUnhover(evt, i, c) {
  rect = svgDocument.getElementById('rect' + i);
  if( c != null ) {
    rect.setAttributeNS(null, "fill", c)  
  }
  tooltiptext = svgDocument.getElementById('tooltiptext' + i);
  tooltiptext.setAttributeNS(null,"visibility","hidden");
  tooltipbg = svgDocument.getElementById('tooltipbg' + i);
  if( tooltipbg != null ) {
    tooltipbg.setAttributeNS(null,"visibility","hidden");
  }
}
]]></script>
      <line x1="50.0" y1="550.0" x2="550.0" y2="550.0" stroke="rgb(0,0,0)" stroke-width="1"/><line x1="50.0" y1="550.0" x2="50.0" y2="50.0" stroke="rgb(0,0,0)" stroke-width="1"/><line x1="50.0" y1="550.0" x2="50.0" y2="50.0" stroke="rgb(192,192,192)" stroke-width="1"/><line x1="50.0" y1="548.0" x2="50.0" y2="552.0" stroke="rgb(192,192,192)" stroke-width="1"/><text text-anchor="middle" alignment-baseline="hanging" x="50.0" y="553.0" font-size="12.0">0</text><line x1="100.5050505050505" y1="550.0" x2="100.5050505050505" y2="50.0" stroke="rgb(192,192,192)" stroke-width="1"/><line x1="100.5050505050505" y1="548.0" x2="100.5050505050505" y2="552.0" stroke="rgb(192,192,192)" stroke-width="1"/><text text-anchor="middle" alignment-baseline="hanging" x="100.5050505050505" y="553.0" font-size="12.0">10</text><line x1="151.010101010101" y1="550.0" x2="151.010101010101" y2="50.0" stroke="rgb(192,192,192)" stroke-width="1"/><line x1="151.010101010101" y1="548.0" x2="151.010101010101" y2="552.0" stroke="rgb(192,192,192)" stroke-width="1"/><text text-anchor="middle" alignment-baseline="hanging" x="151.010101010101" y="553.0" font-size="12.0">20</text><line x1="201.51515151515153" y1="550.0" x2="201.51515151515153" y2="50.0" stroke="rgb(192,192,192)" stroke-width="1"/><line x1="201.51515151515153" y1="548.0" x2="201.51515151515153" y2="552.0" stroke="rgb(192,192,192)" stroke-width="1"/><text text-anchor="middle" alignment-baseline="hanging" x="201.51515151515153" y="553.0" font-size="12.0">30</text><line x1="252.02020202020202" y1="550.0" x2="252.02020202020202" y2="50.0" stroke="rgb(192,192,192)" stroke-width="1"/><line x1="252.02020202020202" y1="548.0" x2="252.02020202020202" y2="552.0" stroke="rgb(192,192,192)" stroke-width="1"/><text text-anchor="middle" alignment-baseline="hanging" x="252.02020202020202" y="553.0" font-size="12.0">40</text><line x1="302.52525252525254" y1="550.0" x2="302.52525252525254" y2="50.0" stroke="rgb(192,192,192)" stroke-width="1"/><line x1="302.52525252525254" y1="548.0" x2="302.52525252525254" y2="552.0" stroke="rgb(192,192,192)" stroke-width="1"/><text text-anchor="middle" alignment-baseline="hanging" x="302.52525252525254" y="553.0" font-size="12.0">50</text><line x1="353.03030303030306" y1="550.0" x2="353.03030303030306" y2="50.0" stroke="rgb(192,192,192)" stroke-width="1"/><line x1="353.03030303030306" y1="548.0" x2="353.03030303030306" y2="552.0" stroke="rgb(192,192,192)" stroke-width="1"/><text text-anchor="middle" alignment-baseline="hanging" x="353.03030303030306" y="553.0" font-size="12.0">60</text><line x1="403.5353535353535" y1="550.0" x2="403.5353535353535" y2="50.0" stroke="rgb(192,192,192)" stroke-width="1"/><line x1="403.5353535353535" y1="548.0" x2="403.5353535353535" y2="552.0" stroke="rgb(192,192,192)" stroke-width="1"/><text text-anchor="middle" alignment-baseline="hanging" x="403.5353535353535" y="553.0" font-size="12.0">70</text><line x1="454.04040404040404" y1="550.0" x2="454.04040404040404" y2="50.0" stroke="rgb(192,192,192)" stroke-width="1"/><line x1="454.04040404040404" y1="548.0" x2="454.04040404040404" y2="552.0" stroke="rgb(192,192,192)" stroke-width="1"/><text text-anchor="middle" alignment-baseline="hanging" x="454.04040404040404" y="553.0" font-size="12.0">80</text><line x1="504.5454545454545" y1="550.0" x2="504.5454545454545" y2="50.0" stroke="rgb(192,192,192)" stroke-width="1"/><line x1="504.5454545454545" y1="548.0" x2="504.5454545454545" y2="552.0" stroke="rgb(192,192,192)" stroke-width="1"/><text text-anchor="middle" alignment-baseline="hanging" x="504.5454545454545" y="553.0" font-size="12.0">90</text><line x1="50.0" y1="550.0" x2="550.0" y2="550.0" stroke="rgb(192,192,192)" stroke-width="1"/><text text-anchor="end" alignment-baseline="middle" x="45.0" y="550.0" font-size="12.0">0.0</text><line x1="48.0" y1="550.0" x2="52.0" y2="550.0" stroke="rgb(192,192,192)" stroke-width="1"/><line x1="50.0" y1="367.7881650198244" x2="550.0" y2="367.7881650198244" stroke="rgb(192,192,192)" stroke-width="1"/><text text-anchor="end" alignment-baseline="middle" x="45.0" y="367.7881650198244" font-size="12.0">1000.0</text><line x1="48.0" y1="367.7881650198244" x2="52.0" y2="367.7881650198244" stroke="rgb(192,192,192)" stroke-width="1"/><line x1="50.0" y1="185.57633003964884" x2="550.0" y2="185.57633003964884" stroke="rgb(192,192,192)" stroke-width="1"/><text text-anchor="end" alignment-baseline="middle" x="45.0" y="185.57633003964884" font-size="12.0">2000.0</text><line x1="48.0" y1="185.57633003964884" x2="52.0" y2="185.57633003964884" stroke="rgb(192,192,192)" stroke-width="1"/><polyline points="50.0,416.28453113631997 55.05050505050505,407.8421112379575 60.101010101010104,419.7700280335612 65.15151515151516,421.6308858093702 70.20202020202021,421.2399261910012 75.25252525252526,415.0204022955893 80.30303030303031,355.3356465562781 85.35353535353535,337.88362535604114 90.40404040404042,351.8149915810288 95.45454545454545,344.8237220355983 100.5050505050505,345.9575096885775 105.55555555555554,350.58092971808827 110.60606060606061,410.32414739597345 115.65656565656566,409.93451918493463 120.7070707070707,410.61266810370245 125.75757575757576,412.5472713997465 130.80808080808083,408.78131487026684 135.85858585858585,313.15440612621546 140.9090909090909,407.028541808802 145.95959595959596,199.1389365662905 151.010101010101,349.06791505638404 156.06060606060606,403.7500088889067 161.1111111111111,261.0490291394066 166.16161616161617,360.1837239005083 171.21212121212122,397.1287929325356 176.26262626262627,398.03447174847423 181.31313131313132,397.8221119724106 186.36363636363635,398.02089803374895 191.4141414141414,397.1571489471329 196.46464646464648,397.4692941848741 201.51515151515153,396.9039181544347 206.56565656565658,397.3807702334929 211.61616161616163,397.89981365942685 216.66666666666666,389.05511620326 221.7171717171717,361.73576197154455 226.76767676767676,305.32275260298616 231.8181818181818,371.9057159985378 236.86868686868686,389.25670022375834 241.91919191919192,396.65847951226897 246.96969696969697,416.8241599206657 252.02020202020202,390.22173015199644 257.07070707070704,279.49384746442723 262.1212121212121,325.9345337515059 267.1717171717172,274.06255494265025 272.2222222222222,412.9030476812493 277.27272727272725,274.3644128099279 282.32323232323233,167.29544314624934 287.3737373737374,397.2902206987789 292.42424242424244,399.4871001001371 297.47474747474746,399.38952357503183 302.52525252525254,376.0285646568886 307.57575757575756,375.9466144587234 312.62626262626264,355.9999751302693 317.67676767676767,349.5136601738855 322.7272727272727,351.2646555701576 327.77777777777777,351.13938145163695 332.8282828282828,387.3373726893105 337.8787878787879,387.88001565123506 342.92929292929296,245.13626108159076 347.979797979798,244.0660972735373 353.03030303030306,321.9013833161039 358.0808080808081,322.1319626267667 363.13131313131316,195.5752938377649 368.1818181818182,213.13153920654167 373.23232323232327,286.68841033822997 378.2828282828283,286.00385905992493 383.3333333333333,370.89752274688556 388.3838383838384,407.0189018752699 393.4343434343434,328.0020786763063 398.4848484848485,408.46976878371055 403.5353535353535,408.3808661615093 408.58585858585855,409.83803679262564 413.6363636363636,409.6094860545671 418.68686868686865,197.41664491587971 423.73737373737373,223.3090308717131 428.7878787878788,264.20022361355166 433.83838383838383,398.00446858574026 438.8888888888889,306.5885586823518 443.93939393939394,330.8374458890554 448.989898989899,358.22262079940526 454.04040404040404,316.96079095834693 459.0909090909091,402.82879259951494 464.14141414141415,402.82373772738015 469.19191919191917,313.5099483268484 474.24242424242425,355.1572140080905 479.2929292929293,349.4912220733181 484.34343434343435,406.3104485411014 489.3939393939394,371.71508036634793 494.4444444444444,372.09550543679023 499.4949494949495,374.3850916374902 504.5454545454545,360.55779636413877 509.59595959595964,279.66717750477227 514.6464646464647,355.7707703017923 519.6969696969697,316.69947080165286 524.7474747474748,406.1145053705238 529.7979797979798,245.104431076803 534.8484848484849,357.8404564944191 539.8989898989898,357.8404564944191 544.9494949494949,339.5430512209251 550.0,339.6607375891879" fill="none" stroke="rgb(0,0,0)" stroke-width="1"/><circle cx="50.0" cy="416.28453113631997" r="2" fill="rgb(0,0,0)"/><circle cx="55.05050505050505" cy="407.8421112379575" r="2" fill="rgb(0,0,0)"/><circle cx="60.101010101010104" cy="419.7700280335612" r="2" fill="rgb(0,0,0)"/><circle cx="65.15151515151516" cy="421.6308858093702" r="2" fill="rgb(0,0,0)"/><circle cx="70.20202020202021" cy="421.2399261910012" r="2" fill="rgb(0,0,0)"/><circle cx="75.25252525252526" cy="415.0204022955893" r="2" fill="rgb(0,0,0)"/><circle cx="80.30303030303031" cy="355.3356465562781" r="2" fill="rgb(0,0,0)"/><circle cx="85.35353535353535" cy="337.88362535604114" r="2" fill="rgb(0,0,0)"/><circle cx="90.40404040404042" cy="351.8149915810288" r="2" fill="rgb(0,0,0)"/><circle cx="95.45454545454545" cy="344.8237220355983" r="2" fill="rgb(0,0,0)"/><circle cx="100.5050505050505" cy="345.9575096885775" r="2" fill="rgb(0,0,0)"/><circle cx="105.55555555555554" cy="350.58092971808827" r="2" fill="rgb(0,0,0)"/><circle cx="110.60606060606061" cy="410.32414739597345" r="2" fill="rgb(0,0,0)"/><circle cx="115.65656565656566" cy="409.93451918493463" r="2" fill="rgb(0,0,0)"/><circle cx="120.7070707070707" cy="410.61266810370245" r="2" fill="rgb(0,0,0)"/><circle cx="125.75757575757576" cy="412.5472713997465" r="2" fill="rgb(0,0,0)"/><circle cx="130.80808080808083" cy="408.78131487026684" r="2" fill="rgb(0,0,0)"/><circle cx="135.85858585858585" cy="313.15440612621546" r="2" fill="rgb(0,0,0)"/><circle cx="140.9090909090909" cy="407.028541808802" r="2" fill="rgb(0,0,0)"/><circle cx="145.95959595959596" cy="199.1389365662905" r="2" fill="rgb(0,0,0)"/><circle cx="151.010101010101" cy="349.06791505638404" r="2" fill="rgb(0,0,0)"/><circle cx="156.06060606060606" cy="403.7500088889067" r="2" fill="rgb(0,0,0)"/><circle cx="161.1111111111111" cy="261.0490291394066" r="2" fill="rgb(0,0,0)"/><circle cx="166.16161616161617" cy="360.1837239005083" r="2" fill="rgb(0,0,0)"/><circle cx="171.21212121212122" cy="397.1287929325356" r="2" fill="rgb(0,0,0)"/><circle cx="176.26262626262627" cy="398.03447174847423" r="2" fill="rgb(0,0,0)"/><circle cx="181.31313131313132" cy="397.8221119724106" r="2" fill="rgb(0,0,0)"/><circle cx="186.36363636363635" cy="398.02089803374895" r="2" fill="rgb(0,0,0)"/><circle cx="191.4141414141414" cy="397.1571489471329" r="2" fill="rgb(0,0,0)"/><circle cx="196.46464646464648" cy="397.4692941848741" r="2" fill="rgb(0,0,0)"/><circle cx="201.51515151515153" cy="396.9039181544347" r="2" fill="rgb(0,0,0)"/><circle cx="206.56565656565658" cy="397.3807702334929" r="2" fill="rgb(0,0,0)"/><circle cx="211.61616161616163" cy="397.89981365942685" r="2" fill="rgb(0,0,0)"/><circle cx="216.66666666666666" cy="389.05511620326" r="2" fill="rgb(0,0,0)"/><circle cx="221.7171717171717" cy="361.73576197154455" r="2" fill="rgb(0,0,0)"/><circle cx="226.76767676767676" cy="305.32275260298616" r="2" fill="rgb(0,0,0)"/><circle cx="231.8181818181818" cy="371.9057159985378" r="2" fill="rgb(0,0,0)"/><circle cx="236.86868686868686" cy="389.25670022375834" r="2" fill="rgb(0,0,0)"/><circle cx="241.91919191919192" cy="396.65847951226897" r="2" fill="rgb(0,0,0)"/><circle cx="246.96969696969697" cy="416.8241599206657" r="2" fill="rgb(0,0,0)"/><circle cx="252.02020202020202" cy="390.22173015199644" r="2" fill="rgb(0,0,0)"/><circle cx="257.07070707070704" cy="279.49384746442723" r="2" fill="rgb(0,0,0)"/><circle cx="262.1212121212121" cy="325.9345337515059" r="2" fill="rgb(0,0,0)"/><circle cx="267.1717171717172" cy="274.06255494265025" r="2" fill="rgb(0,0,0)"/><circle cx="272.2222222222222" cy="412.9030476812493" r="2" fill="rgb(0,0,0)"/><circle cx="277.27272727272725" cy="274.3644128099279" r="2" fill="rgb(0,0,0)"/><circle cx="282.32323232323233" cy="167.29544314624934" r="2" fill="rgb(0,0,0)"/><circle cx="287.3737373737374" cy="397.2902206987789" r="2" fill="rgb(0,0,0)"/><circle cx="292.42424242424244" cy="399.4871001001371" r="2" fill="rgb(0,0,0)"/><circle cx="297.47474747474746" cy="399.38952357503183" r="2" fill="rgb(0,0,0)"/><circle cx="302.52525252525254" cy="376.0285646568886" r="2" fill="rgb(0,0,0)"/><circle cx="307.57575757575756" cy="375.9466144587234" r="2" fill="rgb(0,0,0)"/><circle cx="312.62626262626264" cy="355.9999751302693" r="2" fill="rgb(0,0,0)"/><circle cx="317.67676767676767" cy="349.5136601738855" r="2" fill="rgb(0,0,0)"/><circle cx="322.7272727272727" cy="351.2646555701576" r="2" fill="rgb(0,0,0)"/><circle cx="327.77777777777777" cy="351.13938145163695" r="2" fill="rgb(0,0,0)"/><circle cx="332.8282828282828" cy="387.3373726893105" r="2" fill="rgb(0,0,0)"/><circle cx="337.8787878787879" cy="387.88001565123506" r="2" fill="rgb(0,0,0)"/><circle cx="342.92929292929296" cy="245.13626108159076" r="2" fill="rgb(0,0,0)"/><circle cx="347.979797979798" cy="244.0660972735373" r="2" fill="rgb(0,0,0)"/><circle cx="353.03030303030306" cy="321.9013833161039" r="2" fill="rgb(0,0,0)"/><circle cx="358.0808080808081" cy="322.1319626267667" r="2" fill="rgb(0,0,0)"/><circle cx="363.13131313131316" cy="195.5752938377649" r="2" fill="rgb(0,0,0)"/><circle cx="368.1818181818182" cy="213.13153920654167" r="2" fill="rgb(0,0,0)"/><circle cx="373.23232323232327" cy="286.68841033822997" r="2" fill="rgb(0,0,0)"/><circle cx="378.2828282828283" cy="286.00385905992493" r="2" fill="rgb(0,0,0)"/><circle cx="383.3333333333333" cy="370.89752274688556" r="2" fill="rgb(0,0,0)"/><circle cx="388.3838383838384" cy="407.0189018752699" r="2" fill="rgb(0,0,0)"/><circle cx="393.4343434343434" cy="328.0020786763063" r="2" fill="rgb(0,0,0)"/><circle cx="398.4848484848485" cy="408.46976878371055" r="2" fill="rgb(0,0,0)"/><circle cx="403.5353535353535" cy="408.3808661615093" r="2" fill="rgb(0,0,0)"/><circle cx="408.58585858585855" cy="409.83803679262564" r="2" fill="rgb(0,0,0)"/><circle cx="413.6363636363636" cy="409.6094860545671" r="2" fill="rgb(0,0,0)"/><circle cx="418.68686868686865" cy="197.41664491587971" r="2" fill="rgb(0,0,0)"/><circle cx="423.73737373737373" cy="223.3090308717131" r="2" fill="rgb(0,0,0)"/><circle cx="428.7878787878788" cy="264.20022361355166" r="2" fill="rgb(0,0,0)"/><circle cx="433.83838383838383" cy="398.00446858574026" r="2" fill="rgb(0,0,0)"/><circle cx="438.8888888888889" cy="306.5885586823518" r="2" fill="rgb(0,0,0)"/><circle cx="443.93939393939394" cy="330.8374458890554" r="2" fill="rgb(0,0,0)"/><circle cx="448.989898989899" cy="358.22262079940526" r="2" fill="rgb(0,0,0)"/><circle cx="454.04040404040404" cy="316.96079095834693" r="2" fill="rgb(0,0,0)"/><circle cx="459.0909090909091" cy="402.82879259951494" r="2" fill="rgb(0,0,0)"/><circle cx="464.14141414141415" cy="402.82373772738015" r="2" fill="rgb(0,0,0)"/><circle cx="469.19191919191917" cy="313.5099483268484" r="2" fill="rgb(0,0,0)"/><circle cx="474.24242424242425" cy="355.1572140080905" r="2" fill="rgb(0,0,0)"/><circle cx="479.2929292929293" cy="349.4912220733181" r="2" fill="rgb(0,0,0)"/><circle cx="484.34343434343435" cy="406.3104485411014" r="2" fill="rgb(0,0,0)"/><circle cx="489.3939393939394" cy="371.71508036634793" r="2" fill="rgb(0,0,0)"/><circle cx="494.4444444444444" cy="372.09550543679023" r="2" fill="rgb(0,0,0)"/><circle cx="499.4949494949495" cy="374.3850916374902" r="2" fill="rgb(0,0,0)"/><circle cx="504.5454545454545" cy="360.55779636413877" r="2" fill="rgb(0,0,0)"/><circle cx="509.59595959595964" cy="279.66717750477227" r="2" fill="rgb(0,0,0)"/><circle cx="514.6464646464647" cy="355.7707703017923" r="2" fill="rgb(0,0,0)"/><circle cx="519.6969696969697" cy="316.69947080165286" r="2" fill="rgb(0,0,0)"/><circle cx="524.7474747474748" cy="406.1145053705238" r="2" fill="rgb(0,0,0)"/><circle cx="529.7979797979798" cy="245.104431076803" r="2" fill="rgb(0,0,0)"/><circle cx="534.8484848484849" cy="357.8404564944191" r="2" fill="rgb(0,0,0)"/><circle cx="539.8989898989898" cy="357.8404564944191" r="2" fill="rgb(0,0,0)"/><circle cx="544.9494949494949" cy="339.5430512209251" r="2" fill="rgb(0,0,0)"/><circle cx="550.0" cy="339.6607375891879" r="2" fill="rgb(0,0,0)"/><polyline points="50.0,229.80169951129943 55.05050505050505,210.9954110910585 60.101010101010104,211.22879238108408 65.15151515151516,190.87153061800257 70.20202020202021,164.29938707186346 75.25252525252526,134.18831262360032 80.30303030303031,120.99526071688888 85.35353535353535,111.31611809064896 90.40404040404042,98.2412655173938 95.45454545454545,90.02150488740557 100.5050505050505,86.03097293654247 105.55555555555554,77.53507820237388 110.60606060606061,80.05540420577125 115.65656565656566,76.04527003762928 120.7070707070707,68.35078797181956 125.75757575757576,76.2262444839796 130.80808080808083,85.00474273712445 135.85858585858585,71.85410265353335 140.9090909090909,66.02619322524379 145.95959595959596,61.114136195030994 151.010101010101,67.10282502069333 156.06060606060606,66.20127351558875 161.1111111111111,60.63830613877491 166.16161616161617,66.98170669647715 171.21212121212122,72.29665089955103 176.26262626262627,68.21020756044601 181.31313131313132,78.371135820262 186.36363636363635,80.2314643273653 191.4141414141414,64.8338465995181 196.46464646464648,67.71988558862813 201.51515151515153,74.52922447734005 206.56565656565658,74.8549125836816 211.61616161616163,75.4026288181692 216.66666666666666,67.17842354768351 221.7171717171717,73.09959518965422 226.76767676767676,64.2345020837015 231.8181818181818,66.02236353463508 236.86868686868686,63.91386325087922 241.91919191919192,65.01389346348134 246.96969696969697,69.8464067722798 252.02020202020202,59.22340040744592 257.07070707070704,62.43969821710499 262.1212121212121,64.46334290877724 267.1717171717172,68.65518702925829 272.2222222222222,77.69127074468275 277.27272727272725,63.26605945361672 282.32323232323233,53.52888532802234 287.3737373737374,63.80178482266962 292.42424242424244,63.98836783079696 297.47474747474746,70.8504862275712 302.52525252525254,69.83056121910795 307.57575757575756,64.66191519897382 312.62626262626264,67.97426081729265 317.67676767676767,58.26625118776258 322.7272727272727,64.68655066221669 327.77777777777777,64.14886324094016 332.8282828282828,69.76719909811709 337.8787878787879,67.0907299005325 342.92929292929296,57.45103689997865 347.979797979798,55.91729932173513 353.03030303030306,59.49346153815634 358.0808080808081,57.81004695140325 363.13131313131316,56.179115413739225 368.1818181818182,57.788782347197014 373.23232323232327,59.66007886667501 378.2828282828283,66.63704163892976 383.3333333333333,69.91704702956065 388.3838383838384,69.82551558619377 393.4343434343434,59.93930010736716 398.4848484848485,64.87417432538177 403.5353535353535,62.04812746022367 408.58585858585855,69.75662153767638 413.6363636363636,58.62150291858035 418.68686868686865,53.24526798797302 423.73737373737373,53.896281043220085 428.7878787878788,61.48008707060467 433.83838383838383,71.02014785638488 438.8888888888889,76.87090972813269 443.93939393939394,68.41487154997532 448.989898989899,68.31217701326108 454.04040404040404,58.389753375753344 459.0909090909091,61.12547040650361 464.14141414141415,62.94094448147092 469.19191919191917,64.68695232370686 474.24242424242425,68.2053619746685 479.2929292929293,62.97809036001007 484.34343434343435,58.22569409057286 489.3939393939394,63.8977736291817 494.4444444444444,58.19144444939138 499.4949494949495,63.58336641334881 504.5454545454545,65.1673511609473 509.59595959595964,53.69258099481607 514.6464646464647,63.80205667754694 519.6969696969697,61.80733258280941 524.7474747474748,64.95718108448807 529.7979797979798,60.42840595182673 534.8484848484849,55.95166812339562 539.8989898989898,65.18094055649243 544.9494949494949,56.75612661332309 550.0,60.97396430448282" fill="none" stroke="rgb(0,0,255)" stroke-width="1"/><circle cx="50.0" cy="229.80169951129943" r="2" fill="rgb(0,0,255)"/><circle cx="55.05050505050505" cy="210.9954110910585" r="2" fill="rgb(0,0,255)"/><circle cx="60.101010101010104" cy="211.22879238108408" r="2" fill="rgb(0,0,255)"/><circle cx="65.15151515151516" cy="190.87153061800257" r="2" fill="rgb(0,0,255)"/><circle cx="70.20202020202021" cy="164.29938707186346" r="2" fill="rgb(0,0,255)"/><circle cx="75.25252525252526" cy="134.18831262360032" r="2" fill="rgb(0,0,255)"/><circle cx="80.30303030303031" cy="120.99526071688888" r="2" fill="rgb(0,0,255)"/><circle cx="85.35353535353535" cy="111.31611809064896" r="2" fill="rgb(0,0,255)"/><circle cx="90.40404040404042" cy="98.2412655173938" r="2" fill="rgb(0,0,255)"/><circle cx="95.45454545454545" cy="90.02150488740557" r="2" fill="rgb(0,0,255)"/><circle cx="100.5050505050505" cy="86.03097293654247" r="2" fill="rgb(0,0,255)"/><circle cx="105.55555555555554" cy="77.53507820237388" r="2" fill="rgb(0,0,255)"/><circle cx="110.60606060606061" cy="80.05540420577125" r="2" fill="rgb(0,0,255)"/><circle cx="115.65656565656566" cy="76.04527003762928" r="2" fill="rgb(0,0,255)"/><circle cx="120.7070707070707" cy="68.35078797181956" r="2" fill="rgb(0,0,255)"/><circle cx="125.75757575757576" cy="76.2262444839796" r="2" fill="rgb(0,0,255)"/><circle cx="130.80808080808083" cy="85.00474273712445" r="2" fill="rgb(0,0,255)"/><circle cx="135.85858585858585" cy="71.85410265353335" r="2" fill="rgb(0,0,255)"/><circle cx="140.9090909090909" cy="66.02619322524379" r="2" fill="rgb(0,0,255)"/><circle cx="145.95959595959596" cy="61.114136195030994" r="2" fill="rgb(0,0,255)"/><circle cx="151.010101010101" cy="67.10282502069333" r="2" fill="rgb(0,0,255)"/><circle cx="156.06060606060606" cy="66.20127351558875" r="2" fill="rgb(0,0,255)"/><circle cx="161.1111111111111" cy="60.63830613877491" r="2" fill="rgb(0,0,255)"/><circle cx="166.16161616161617" cy="66.98170669647715" r="2" fill="rgb(0,0,255)"/><circle cx="171.21212121212122" cy="72.29665089955103" r="2" fill="rgb(0,0,255)"/><circle cx="176.26262626262627" cy="68.21020756044601" r="2" fill="rgb(0,0,255)"/><circle cx="181.31313131313132" cy="78.371135820262" r="2" fill="rgb(0,0,255)"/><circle cx="186.36363636363635" cy="80.2314643273653" r="2" fill="rgb(0,0,255)"/><circle cx="191.4141414141414" cy="64.8338465995181" r="2" fill="rgb(0,0,255)"/><circle cx="196.46464646464648" cy="67.71988558862813" r="2" fill="rgb(0,0,255)"/><circle cx="201.51515151515153" cy="74.52922447734005" r="2" fill="rgb(0,0,255)"/><circle cx="206.56565656565658" cy="74.8549125836816" r="2" fill="rgb(0,0,255)"/><circle cx="211.61616161616163" cy="75.4026288181692" r="2" fill="rgb(0,0,255)"/><circle cx="216.66666666666666" cy="67.17842354768351" r="2" fill="rgb(0,0,255)"/><circle cx="221.7171717171717" cy="73.09959518965422" r="2" fill="rgb(0,0,255)"/><circle cx="226.76767676767676" cy="64.2345020837015" r="2" fill="rgb(0,0,255)"/><circle cx="231.8181818181818" cy="66.02236353463508" r="2" fill="rgb(0,0,255)"/><circle cx="236.86868686868686" cy="63.91386325087922" r="2" fill="rgb(0,0,255)"/><circle cx="241.91919191919192" cy="65.01389346348134" r="2" fill="rgb(0,0,255)"/><circle cx="246.96969696969697" cy="69.8464067722798" r="2" fill="rgb(0,0,255)"/><circle cx="252.02020202020202" cy="59.22340040744592" r="2" fill="rgb(0,0,255)"/><circle cx="257.07070707070704" cy="62.43969821710499" r="2" fill="rgb(0,0,255)"/><circle cx="262.1212121212121" cy="64.46334290877724" r="2" fill="rgb(0,0,255)"/><circle cx="267.1717171717172" cy="68.65518702925829" r="2" fill="rgb(0,0,255)"/><circle cx="272.2222222222222" cy="77.69127074468275" r="2" fill="rgb(0,0,255)"/><circle cx="277.27272727272725" cy="63.26605945361672" r="2" fill="rgb(0,0,255)"/><circle cx="282.32323232323233" cy="53.52888532802234" r="2" fill="rgb(0,0,255)"/><circle cx="287.3737373737374" cy="63.80178482266962" r="2" fill="rgb(0,0,255)"/><circle cx="292.42424242424244" cy="63.98836783079696" r="2" fill="rgb(0,0,255)"/><circle cx="297.47474747474746" cy="70.8504862275712" r="2" fill="rgb(0,0,255)"/><circle cx="302.52525252525254" cy="69.83056121910795" r="2" fill="rgb(0,0,255)"/><circle cx="307.57575757575756" cy="64.66191519897382" r="2" fill="rgb(0,0,255)"/><circle cx="312.62626262626264" cy="67.97426081729265" r="2" fill="rgb(0,0,255)"/><circle cx="317.67676767676767" cy="58.26625118776258" r="2" fill="rgb(0,0,255)"/><circle cx="322.7272727272727" cy="64.68655066221669" r="2" fill="rgb(0,0,255)"/><circle cx="327.77777777777777" cy="64.14886324094016" r="2" fill="rgb(0,0,255)"/><circle cx="332.8282828282828" cy="69.76719909811709" r="2" fill="rgb(0,0,255)"/><circle cx="337.8787878787879" cy="67.0907299005325" r="2" fill="rgb(0,0,255)"/><circle cx="342.92929292929296" cy="57.45103689997865" r="2" fill="rgb(0,0,255)"/><circle cx="347.979797979798" cy="55.91729932173513" r="2" fill="rgb(0,0,255)"/><circle cx="353.03030303030306" cy="59.49346153815634" r="2" fill="rgb(0,0,255)"/><circle cx="358.0808080808081" cy="57.81004695140325" r="2" fill="rgb(0,0,255)"/><circle cx="363.13131313131316" cy="56.179115413739225" r="2" fill="rgb(0,0,255)"/><circle cx="368.1818181818182" cy="57.788782347197014" r="2" fill="rgb(0,0,255)"/><circle cx="373.23232323232327" cy="59.66007886667501" r="2" fill="rgb(0,0,255)"/><circle cx="378.2828282828283" cy="66.63704163892976" r="2" fill="rgb(0,0,255)"/><circle cx="383.3333333333333" cy="69.91704702956065" r="2" fill="rgb(0,0,255)"/><circle cx="388.3838383838384" cy="69.82551558619377" r="2" fill="rgb(0,0,255)"/><circle cx="393.4343434343434" cy="59.93930010736716" r="2" fill="rgb(0,0,255)"/><circle cx="398.4848484848485" cy="64.87417432538177" r="2" fill="rgb(0,0,255)"/><circle cx="403.5353535353535" cy="62.04812746022367" r="2" fill="rgb(0,0,255)"/><circle cx="408.58585858585855" cy="69.75662153767638" r="2" fill="rgb(0,0,255)"/><circle cx="413.6363636363636" cy="58.62150291858035" r="2" fill="rgb(0,0,255)"/><circle cx="418.68686868686865" cy="53.24526798797302" r="2" fill="rgb(0,0,255)"/><circle cx="423.73737373737373" cy="53.896281043220085" r="2" fill="rgb(0,0,255)"/><circle cx="428.7878787878788" cy="61.48008707060467" r="2" fill="rgb(0,0,255)"/><circle cx="433.83838383838383" cy="71.02014785638488" r="2" fill="rgb(0,0,255)"/><circle cx="438.8888888888889" cy="76.87090972813269" r="2" fill="rgb(0,0,255)"/><circle cx="443.93939393939394" cy="68.41487154997532" r="2" fill="rgb(0,0,255)"/><circle cx="448.989898989899" cy="68.31217701326108" r="2" fill="rgb(0,0,255)"/><circle cx="454.04040404040404" cy="58.389753375753344" r="2" fill="rgb(0,0,255)"/><circle cx="459.0909090909091" cy="61.12547040650361" r="2" fill="rgb(0,0,255)"/><circle cx="464.14141414141415" cy="62.94094448147092" r="2" fill="rgb(0,0,255)"/><circle cx="469.19191919191917" cy="64.68695232370686" r="2" fill="rgb(0,0,255)"/><circle cx="474.24242424242425" cy="68.2053619746685" r="2" fill="rgb(0,0,255)"/><circle cx="479.2929292929293" cy="62.97809036001007" r="2" fill="rgb(0,0,255)"/><circle cx="484.34343434343435" cy="58.22569409057286" r="2" fill="rgb(0,0,255)"/><circle cx="489.3939393939394" cy="63.8977736291817" r="2" fill="rgb(0,0,255)"/><circle cx="494.4444444444444" cy="58.19144444939138" r="2" fill="rgb(0,0,255)"/><circle cx="499.4949494949495" cy="63.58336641334881" r="2" fill="rgb(0,0,255)"/><circle cx="504.5454545454545" cy="65.1673511609473" r="2" fill="rgb(0,0,255)"/><circle cx="509.59595959595964" cy="53.69258099481607" r="2" fill="rgb(0,0,255)"/><circle cx="514.6464646464647" cy="63.80205667754694" r="2" fill="rgb(0,0,255)"/><circle cx="519.6969696969697" cy="61.80733258280941" r="2" fill="rgb(0,0,255)"/><circle cx="524.7474747474748" cy="64.95718108448807" r="2" fill="rgb(0,0,255)"/><circle cx="529.7979797979798" cy="60.42840595182673" r="2" fill="rgb(0,0,255)"/><circle cx="534.8484848484849" cy="55.95166812339562" r="2" fill="rgb(0,0,255)"/><circle cx="539.8989898989898" cy="65.18094055649243" r="2" fill="rgb(0,0,255)"/><circle cx="544.9494949494949" cy="56.75612661332309" r="2" fill="rgb(0,0,255)"/><circle cx="550.0" cy="60.97396430448282" r="2" fill="rgb(0,0,255)"/><polyline points="50.0,62.661723508840566 55.05050505050505,62.40682770473461 60.101010101010104,61.36367246139008 65.15151515151516,58.06118898010038 70.20202020202021,57.62246357543199 75.25252525252526,58.09961757374583 80.30303030303031,57.5665989447715 85.35353535353535,57.651633285503806 90.40404040404042,56.567131883106526 95.45454545454545,57.554684267188065 100.5050505050505,56.93178785986123 105.55555555555554,56.3141641933654 110.60606060606061,56.690925712525996 115.65656565656566,56.11132048634744 120.7070707070707,56.766705201647994 125.75757575757576,56.850317657745336 130.80808080808083,56.47056629819264 135.85858585858585,56.833192130369184 140.9090909090909,56.94992868957394 145.95959595959596,56.450427484561544 151.010101010101,52.572892266812005 156.06060606060606,53.09923202203862 161.1111111111111,52.79426831227107 166.16161616161617,51.828067869347194 171.21212121212122,51.87548325113687 176.26262626262627,52.23334775498421 181.31313131313132,51.303431948655316 186.36363636363635,51.50828940691861 191.4141414141414,50.88070965652213 196.46464646464648,50.617913544065004 201.51515151515153,50.617913544065004 206.56565656565658,50.661237464420424 211.61616161616163,50.743187662585626 216.66666666666666,50.788181236641606 221.7171717171717,50.74910090350784 226.76767676767676,50.32662618881807 231.8181818181818,50.63651855060033 236.86868686868686,50.217345064150095 241.91919191919192,50.42373406389214 246.96969696969697,50.20322615145534 252.02020202020202,50.42373406389214 257.07070707070704,50.62844487776323 262.1212121212121,50.53143514291071 267.1717171717172,50.356070119331775 272.2222222222222,50.35524577151665 277.27272727272725,50.331207547494216 282.32323232323233,50.19819929141465 287.3737373737374,50.2478411325547 292.42424242424244,50.28734957913389 297.47474747474746,50.26112001072323 302.52525252525254,50.30283124916508 307.57575757575756,50.16500866916954 312.62626262626264,50.25542724069987 317.67676767676767,50.219221549856115 322.7272727272727,50.22223751543709 327.77777777777777,50.22421163158862 332.8282828282828,50.19819929141465 337.8787878787879,50.205254724059785 342.92929292929296,50.19819929141465 347.979797979798,50.22223751543709 353.03030303030306,50.20451699326958 358.0808080808081,50.22936044407311 363.13131313131316,50.19315475322935 368.1818181818182,50.17181754139091 373.23232323232327,50.14363250838272 378.2828282828283,50.167670732405156 383.3333333333333,50.14363250838272 388.3838383838384,50.14363250838272 393.4343434343434,50.09144895692873 398.4848484848485,50.09144895692873 403.5353535353535,50.067410732906296 408.58585858585855,50.09984518958839 413.6363636363636,50.097855565932434 418.68686868686865,50.04104854289562 423.73737373737373,50.04104854289562 428.7878787878788,50.032437902905826 433.83838383838383,50.04104854289562 438.8888888888889,50.09559576591448 443.93939393939394,50.06952896928772 448.989898989899,50.06952896928772 454.04040404040404,50.06952896928772 459.0909090909091,50.06743029291931 464.14141414141415,50.03824768989841 469.19191919191917,50.03319281776356 474.24242424242425,50.064314486525234 479.2929292929293,50.03824768989841 484.34343434343435,50.064314486525234 489.3939393939394,50.064314486525234 494.4444444444444,50.064314486525234 499.4949494949495,50.04104854289562 504.5454545454545,50.06447409715287 509.59595959595964,50.06447409715287 514.6464646464647,50.04805541979039 519.6969696969697,50.04805541979039 524.7474747474748,50.06447409715287 529.7979797979798,50.06447409715287 534.8484848484849,50.06447409715287 539.8989898989898,50.0198703867822 544.9494949494949,50.0 550.0,50.0" fill="none" stroke="rgb(0,255,0)" stroke-width="1"/><circle cx="50.0" cy="62.661723508840566" r="2" fill="rgb(0,255,0)"/><circle cx="55.05050505050505" cy="62.40682770473461" r="2" fill="rgb(0,255,0)"/><circle cx="60.101010101010104" cy="61.36367246139008" r="2" fill="rgb(0,255,0)"/><circle cx="65.15151515151516" cy="58.06118898010038" r="2" fill="rgb(0,255,0)"/><circle cx="70.20202020202021" cy="57.62246357543199" r="2" fill="rgb(0,255,0)"/><circle cx="75.25252525252526" cy="58.09961757374583" r="2" fill="rgb(0,255,0)"/><circle cx="80.30303030303031" cy="57.5665989447715" r="2" fill="rgb(0,255,0)"/><circle cx="85.35353535353535" cy="57.651633285503806" r="2" fill="rgb(0,255,0)"/><circle cx="90.40404040404042" cy="56.567131883106526" r="2" fill="rgb(0,255,0)"/><circle cx="95.45454545454545" cy="57.554684267188065" r="2" fill="rgb(0,255,0)"/><circle cx="100.5050505050505" cy="56.93178785986123" r="2" fill="rgb(0,255,0)"/><circle cx="105.55555555555554" cy="56.3141641933654" r="2" fill="rgb(0,255,0)"/><circle cx="110.60606060606061" cy="56.690925712525996" r="2" fill="rgb(0,255,0)"/><circle cx="115.65656565656566" cy="56.11132048634744" r="2" fill="rgb(0,255,0)"/><circle cx="120.7070707070707" cy="56.766705201647994" r="2" fill="rgb(0,255,0)"/><circle cx="125.75757575757576" cy="56.850317657745336" r="2" fill="rgb(0,255,0)"/><circle cx="130.80808080808083" cy="56.47056629819264" r="2" fill="rgb(0,255,0)"/><circle cx="135.85858585858585" cy="56.833192130369184" r="2" fill="rgb(0,255,0)"/><circle cx="140.9090909090909" cy="56.94992868957394" r="2" fill="rgb(0,255,0)"/><circle cx="145.95959595959596" cy="56.450427484561544" r="2" fill="rgb(0,255,0)"/><circle cx="151.010101010101" cy="52.572892266812005" r="2" fill="rgb(0,255,0)"/><circle cx="156.06060606060606" cy="53.09923202203862" r="2" fill="rgb(0,255,0)"/><circle cx="161.1111111111111" cy="52.79426831227107" r="2" fill="rgb(0,255,0)"/><circle cx="166.16161616161617" cy="51.828067869347194" r="2" fill="rgb(0,255,0)"/><circle cx="171.21212121212122" cy="51.87548325113687" r="2" fill="rgb(0,255,0)"/><circle cx="176.26262626262627" cy="52.23334775498421" r="2" fill="rgb(0,255,0)"/><circle cx="181.31313131313132" cy="51.303431948655316" r="2" fill="rgb(0,255,0)"/><circle cx="186.36363636363635" cy="51.50828940691861" r="2" fill="rgb(0,255,0)"/><circle cx="191.4141414141414" cy="50.88070965652213" r="2" fill="rgb(0,255,0)"/><circle cx="196.46464646464648" cy="50.617913544065004" r="2" fill="rgb(0,255,0)"/><circle cx="201.51515151515153" cy="50.617913544065004" r="2" fill="rgb(0,255,0)"/><circle cx="206.56565656565658" cy="50.661237464420424" r="2" fill="rgb(0,255,0)"/><circle cx="211.61616161616163" cy="50.743187662585626" r="2" fill="rgb(0,255,0)"/><circle cx="216.66666666666666" cy="50.788181236641606" r="2" fill="rgb(0,255,0)"/><circle cx="221.7171717171717" cy="50.74910090350784" r="2" fill="rgb(0,255,0)"/><circle cx="226.76767676767676" cy="50.32662618881807" r="2" fill="rgb(0,255,0)"/><circle cx="231.8181818181818" cy="50.63651855060033" r="2" fill="rgb(0,255,0)"/><circle cx="236.86868686868686" cy="50.217345064150095" r="2" fill="rgb(0,255,0)"/><circle cx="241.91919191919192" cy="50.42373406389214" r="2" fill="rgb(0,255,0)"/><circle cx="246.96969696969697" cy="50.20322615145534" r="2" fill="rgb(0,255,0)"/><circle cx="252.02020202020202" cy="50.42373406389214" r="2" fill="rgb(0,255,0)"/><circle cx="257.07070707070704" cy="50.62844487776323" r="2" fill="rgb(0,255,0)"/><circle cx="262.1212121212121" cy="50.53143514291071" r="2" fill="rgb(0,255,0)"/><circle cx="267.1717171717172" cy="50.356070119331775" r="2" fill="rgb(0,255,0)"/><circle cx="272.2222222222222" cy="50.35524577151665" r="2" fill="rgb(0,255,0)"/><circle cx="277.27272727272725" cy="50.331207547494216" r="2" fill="rgb(0,255,0)"/><circle cx="282.32323232323233" cy="50.19819929141465" r="2" fill="rgb(0,255,0)"/><circle cx="287.3737373737374" cy="50.2478411325547" r="2" fill="rgb(0,255,0)"/><circle cx="292.42424242424244" cy="50.28734957913389" r="2" fill="rgb(0,255,0)"/><circle cx="297.47474747474746" cy="50.26112001072323" r="2" fill="rgb(0,255,0)"/><circle cx="302.52525252525254" cy="50.30283124916508" r="2" fill="rgb(0,255,0)"/><circle cx="307.57575757575756" cy="50.16500866916954" r="2" fill="rgb(0,255,0)"/><circle cx="312.62626262626264" cy="50.25542724069987" r="2" fill="rgb(0,255,0)"/><circle cx="317.67676767676767" cy="50.219221549856115" r="2" fill="rgb(0,255,0)"/><circle cx="322.7272727272727" cy="50.22223751543709" r="2" fill="rgb(0,255,0)"/><circle cx="327.77777777777777" cy="50.22421163158862" r="2" fill="rgb(0,255,0)"/><circle cx="332.8282828282828" cy="50.19819929141465" r="2" fill="rgb(0,255,0)"/><circle cx="337.8787878787879" cy="50.205254724059785" r="2" fill="rgb(0,255,0)"/><circle cx="342.92929292929296" cy="50.19819929141465" r="2" fill="rgb(0,255,0)"/><circle cx="347.979797979798" cy="50.22223751543709" r="2" fill="rgb(0,255,0)"/><circle cx="353.03030303030306" cy="50.20451699326958" r="2" fill="rgb(0,255,0)"/><circle cx="358.0808080808081" cy="50.22936044407311" r="2" fill="rgb(0,255,0)"/><circle cx="363.13131313131316" cy="50.19315475322935" r="2" fill="rgb(0,255,0)"/><circle cx="368.1818181818182" cy="50.17181754139091" r="2" fill="rgb(0,255,0)"/><circle cx="373.23232323232327" cy="50.14363250838272" r="2" fill="rgb(0,255,0)"/><circle cx="378.2828282828283" cy="50.167670732405156" r="2" fill="rgb(0,255,0)"/><circle cx="383.3333333333333" cy="50.14363250838272" r="2" fill="rgb(0,255,0)"/><circle cx="388.3838383838384" cy="50.14363250838272" r="2" fill="rgb(0,255,0)"/><circle cx="393.4343434343434" cy="50.09144895692873" r="2" fill="rgb(0,255,0)"/><circle cx="398.4848484848485" cy="50.09144895692873" r="2" fill="rgb(0,255,0)"/><circle cx="403.5353535353535" cy="50.067410732906296" r="2" fill="rgb(0,255,0)"/><circle cx="408.58585858585855" cy="50.09984518958839" r="2" fill="rgb(0,255,0)"/><circle cx="413.6363636363636" cy="50.097855565932434" r="2" fill="rgb(0,255,0)"/><circle cx="418.68686868686865" cy="50.04104854289562" r="2" fill="rgb(0,255,0)"/><circle cx="423.73737373737373" cy="50.04104854289562" r="2" fill="rgb(0,255,0)"/><circle cx="428.7878787878788" cy="50.032437902905826" r="2" fill="rgb(0,255,0)"/><circle cx="433.83838383838383" cy="50.04104854289562" r="2" fill="rgb(0,255,0)"/><circle cx="438.8888888888889" cy="50.09559576591448" r="2" fill="rgb(0,255,0)"/><circle cx="443.93939393939394" cy="50.06952896928772" r="2" fill="rgb(0,255,0)"/><circle cx="448.989898989899" cy="50.06952896928772" r="2" fill="rgb(0,255,0)"/><circle cx="454.04040404040404" cy="50.06952896928772" r="2" fill="rgb(0,255,0)"/><circle cx="459.0909090909091" cy="50.06743029291931" r="2" fill="rgb(0,255,0)"/><circle cx="464.14141414141415" cy="50.03824768989841" r="2" fill="rgb(0,255,0)"/><circle cx="469.19191919191917" cy="50.03319281776356" r="2" fill="rgb(0,255,0)"/><circle cx="474.24242424242425" cy="50.064314486525234" r="2" fill="rgb(0,255,0)"/><circle cx="479.2929292929293" cy="50.03824768989841" r="2" fill="rgb(0,255,0)"/><circle cx="484.34343434343435" cy="50.064314486525234" r="2" fill="rgb(0,255,0)"/><circle cx="489.3939393939394" cy="50.064314486525234" r="2" fill="rgb(0,255,0)"/><circle cx="494.4444444444444" cy="50.064314486525234" r="2" fill="rgb(0,255,0)"/><circle cx="499.4949494949495" cy="50.04104854289562" r="2" fill="rgb(0,255,0)"/><circle cx="504.5454545454545" cy="50.06447409715287" r="2" fill="rgb(0,255,0)"/><circle cx="509.59595959595964" cy="50.06447409715287" r="2" fill="rgb(0,255,0)"/><circle cx="514.6464646464647" cy="50.04805541979039" r="2" fill="rgb(0,255,0)"/><circle cx="519.6969696969697" cy="50.04805541979039" r="2" fill="rgb(0,255,0)"/><circle cx="524.7474747474748" cy="50.06447409715287" r="2" fill="rgb(0,255,0)"/><circle cx="529.7979797979798" cy="50.06447409715287" r="2" fill="rgb(0,255,0)"/><circle cx="534.8484848484849" cy="50.06447409715287" r="2" fill="rgb(0,255,0)"/><circle cx="539.8989898989898" cy="50.0198703867822" r="2" fill="rgb(0,255,0)"/><circle cx="544.9494949494949" cy="50.0" r="2" fill="rgb(0,255,0)"/><circle cx="550.0" cy="50.0" r="2" fill="rgb(0,255,0)"/><text x="350.0" y="20.0" text-anchor="middle" fill="rgb(0,0,0)" font-size="20.0">GA Demo</text><text x="350.0" y="575.0" text-anchor="middle" fill="rgb(0,0,0)" font-size="12.0">generation</text><text transform="rotate(-90.0 20.0 300.0)" x="20.0" y="300.0" text-anchor="middle" fill="rgb(0,0,0)" font-size="12.0">fitness</text><text x="620" y="62" fill="rgb(0,0,0)" font-size="12">min</text><text x="620" y="74" fill="rgb(0,0,255)" font-size="12">ave</text><text x="620" y="86" fill="rgb(0,255,0)" font-size="12">max</text>
      Sorry, your browser does not support inline SVG.
    </svg>