<?xml version='1.0' encoding='UTF-8'?>
<svg version="1.1" width="700.0" height="600.0" onload="init(evt)" xmlns="http://www.w3.org/2000/svg">
      <style>.caption {
  font-size: 14px;
  font-family: Georgia, serif;
}
</style>
      <script type="text/ecmascript"><![CDATA[
function init(evt) {
  if ( window.svgDocument == null ) {
    svgDocument = evt.target.ownerDocument;
  }
}

function RectHover(evt, i, c) {
  rect = svgDocument.getElementById('rect' + i);
  if( c != null ) {
    rect.setAttributeNS(null, "fill", c)  
  }
  tooltiptext = svgDocument.getElementById('tooltiptext' + i);
  tooltipbg = svgDocument.getElementById('tooltipbg' + i);
  if( tooltipbg != null) {
    tbb = tooltiptext.getBBox();
    tooltipbg.setAttributeNS(null, "width", tbb.width);
    tooltipbg.setAttributeNS(null, "height", tbb.height);
    tooltipbg.setAttributeNS(null, "x", tbb.x);
    tooltipbg.setAttributeNS(null, "y", tbb.y);
    tooltipbg.setAttributeNS(null, "visibility", "visible");
  }
  tooltiptext.setAttributeNS(null,"visibility","visible");
}

function RectUnhover(evt, i, c) {
  rect = svgDocument.getElementById('rect' + i);
  if( c != null ) {
    rect.setAttributeNS(null, "fill", c)  
  }
  tooltiptext = svgDocument.getElementById('tooltiptext' + i);
  tooltiptext.setAttributeNS(null,"visibility","hidden");
  tooltipbg = svgDocument.getElementById('tooltipbg' + i);
  if( tooltipbg != null ) {
    tooltipbg.setAttributeNS(null,"visibility","hidden");
  }
}
]]></script>
      <line x1="50.0" y1="550.0" x2="550.0" y2="550.0" stroke="rgb(0,0,0)" stroke-width="1"/><line x1="50.0" y1="550.0" x2="50.0" y2="50.0" stroke="rgb(0,0,0)" stroke-width="1"/><line x1="50.0" y1="550.0" x2="50.0" y2="50.0" stroke="rgb(192,192,192)" stroke-width="1"/><line x1="50.0" y1="548.0" x2="50.0" y2="552.0" stroke="rgb(192,192,192)" stroke-width="1"/><text text-anchor="middle" alignment-baseline="hanging" x="50.0" y="553.0" font-size="12.0">0</text><line x1="100.5050505050505" y1="550.0" x2="100.5050505050505" y2="50.0" stroke="rgb(192,192,192)" stroke-width="1"/><line x1="100.5050505050505" y1="548.0" x2="100.5050505050505" y2="552.0" stroke="rgb(192,192,192)" stroke-width="1"/><text text-anchor="middle" alignment-baseline="hanging" x="100.5050505050505" y="553.0" font-size="12.0">10</text><line x1="151.010101010101" y1="550.0" x2="151.010101010101" y2="50.0" stroke="rgb(192,192,192)" stroke-width="1"/><line x1="151.010101010101" y1="548.0" x2="151.010101010101" y2="552.0" stroke="rgb(192,192,192)" stroke-width="1"/><text text-anchor="middle" alignment-baseline="hanging" x="151.010101010101" y="553.0" font-size="12.0">20</text><line x1="201.51515151515153" y1="550.0" x2="201.51515151515153" y2="50.0" stroke="rgb(192,192,192)" stroke-width="1"/><line x1="201.51515151515153" y1="548.0" x2="201.51515151515153" y2="552.0" stroke="rgb(192,192,192)" stroke-width="1"/><text text-anchor="middle" alignment-baseline="hanging" x="201.51515151515153" y="553.0" font-size="12.0">30</text><line x1="252.02020202020202" y1="550.0" x2="252.02020202020202" y2="50.0" stroke="rgb(192,192,192)" stroke-width="1"/><line x1="252.02020202020202" y1="548.0" x2="252.02020202020202" y2="552.0" stroke="rgb(192,192,192)" stroke-width="1"/><text text-anchor="middle" alignment-baseline="hanging" x="252.02020202020202" y="553.0" font-size="12.0">40</text><line x1="302.52525252525254" y1="550.0" x2="302.52525252525254" y2="50.0" stroke="rgb(192,192,192)" stroke-width="1"/><line x1="302.52525252525254" y1="548.0" x2="302.52525252525254" y2="552.0" stroke="rgb(192,192,192)" stroke-width="1"/><text text-anchor="middle" alignment-baseline="hanging" x="302.52525252525254" y="553.0" font-size="12.0">50</text><line x1="353.03030303030306" y1="550.0" x2="353.03030303030306" y2="50.0" stroke="rgb(192,192,192)" stroke-width="1"/><line x1="353.03030303030306" y1="548.0" x2="353.03030303030306" y2="552.0" stroke="rgb(192,192,192)" stroke-width="1"/><text text-anchor="middle" alignment-baseline="hanging" x="353.03030303030306" y="553.0" font-size="12.0">60</text><line x1="403.5353535353535" y1="550.0" x2="403.5353535353535" y2="50.0" stroke="rgb(192,192,192)" stroke-width="1"/><line x1="403.5353535353535" y1="548.0" x2="403.5353535353535" y2="552.0" stroke="rgb(192,192,192)" stroke-width="1"/><text text-anchor="middle" alignment-baseline="hanging" x="403.5353535353535" y="553.0" font-size="12.0">70</text><line x1="454.04040404040404" y1="550.0" x2="454.04040404040404" y2="50.0" stroke="rgb(192,192,192)" stroke-width="1"/><line x1="454.04040404040404" y1="548.0" x2="454.04040404040404" y2="552.0" stroke="rgb(192,192,192)" stroke-width="1"/><text text-anchor="middle" alignment-baseline="hanging" x="454.04040404040404" y="553.0" font-size="12.0">80</text><line x1="504.5454545454545" y1="550.0" x2="504.5454545454545" y2="50.0" stroke="rgb(192,192,192)" stroke-width="1"/><line x1="504.5454545454545" y1="548.0" x2="504.5454545454545" y2="552.0" stroke="rgb(192,192,192)" stroke-width="1"/><text text-anchor="middle" alignment-baseline="hanging" x="504.5454545454545" y="553.0" font-size="12.0">90</text><line x1="50.0" y1="550.0" x2="550.0" y2="550.0" stroke="rgb(192,192,192)" stroke-width="1"/><text text-anchor="end" alignment-baseline="middle" x="45.0" y="550.0" font-size="12.0">0.0</text><line x1="48.0" y1="550.0" x2="52.0" y2="550.0" stroke="rgb(192,192,192)" stroke-width="1"/><line x1="50.0" y1="367.09760022539535" x2="550.0" y2="367.09760022539535" stroke="rgb(192,192,192)" stroke-width="1"/><text text-anchor="end" alignment-baseline="middle" x="45.0" y="367.09760022539535" font-size="12.0">1000.0</text><line x1="48.0" y1="367.09760022539535" x2="52.0" y2="367.09760022539535" stroke="rgb(192,192,192)" stroke-width="1"/><line x1="50.0" y1="184.1952004507907" x2="550.0" y2="184.1952004507907" stroke="rgb(192,192,192)" stroke-width="1"/><text text-anchor="end" alignment-baseline="middle" x="45.0" y="184.1952004507907" font-size="12.0">2000.0</text><line x1="48.0" y1="184.1952004507907" x2="52.0" y2="184.1952004507907" stroke="rgb(192,192,192)" stroke-width="1"/><polyline points="50.0,436.2921116030421 55.05050505050505,395.14353007865907 60.101010101010104,409.7282430786304 65.15151515151516,396.1865772112527 70.20202020202021,380.1851763036586 75.25252525252526,393.45226345645585 80.30303030303031,393.4754785371443 85.35353535353535,396.75672106491766 90.40404040404042,394.6648655939965 95.45454545454545,405.7001389989201 100.5050505050505,354.41504394301523 105.55555555555554,297.3488817737308 110.60606060606061,365.205698486593 115.65656565656566,386.30286232588077 120.7070707070707,324.9068717358153 125.75757575757576,359.6665906132001 130.80808080808083,323.32369480467923 135.85858585858585,322.35936542475486 140.9090909090909,408.4206335322318 145.95959595959596,407.55909497052073 151.010101010101,391.8969112701425 156.06060606060606,242.99219996574175 161.1111111111111,212.48350455123017 166.16161616161617,211.8542385239541 171.21212121212122,320.80780924895294 176.26262626262627,394.3905055992228 181.31313131313132,373.6219848013794 186.36363636363635,367.6164563504542 191.4141414141414,368.17079497285 196.46464646464648,366.5408718779367 201.51515151515153,366.9331502797261 206.56565656565658,409.0051846898093 211.61616161616163,408.8000260264806 216.66666666666666,399.87840727059165 221.7171717171717,400.0239328425064 226.76767676767676,377.9491356864204 231.8181818181818,377.28722052221156 236.86868686868686,392.8041279097758 241.91919191919192,376.5011231146883 246.96969696969697,398.524428206725 252.02020202020202,392.6458063171544 257.07070707070704,392.7992234484551 262.1212121212121,392.4707696805332 267.1717171717172,357.9406830665142 272.2222222222222,375.1221117539583 277.27272727272725,375.0746605566679 282.32323232323233,375.70410896074395 287.3737373737374,185.3653744774938 292.42424242424244,311.5923950338213 297.47474747474746,325.0454532503203 302.52525252525254,348.44716246317273 307.57575757575756,315.2071290009351 312.62626262626264,315.2071290009351 317.67676767676767,243.89732356700733 322.7272727272727,393.2572465080758 327.77777777777777,393.91895707357617 332.8282828282828,393.94781179046475 337.8787878787879,357.11007638319785 342.92929292929296,289.2995643606044 347.979797979798,365.7259450778611 353.03030303030306,245.2566393003388 358.0808080808081,383.90993515163166 363.13131313131316,383.87704972002024 368.1818181818182,373.8217997557483 373.23232323232327,70.06713059440324 378.2828282828283,120.05289794488885 383.3333333333333,230.57536334792565 388.3838383838384,188.94956800991866 393.4343434343434,198.1153430870898 398.4848484848485,273.0741368190768 403.5353535353535,394.1311346996896 408.58585858585855,307.9265264204514 413.6363636363636,307.4420456568732 418.68686868686865,370.60576198714466 423.73737373737373,370.642995645797 428.7878787878788,370.47977574112105 433.83838383838383,382.95816400066815 438.8888888888889,382.80659855820693 443.93939393939394,382.80659855820693 448.989898989899,321.23583903512815 454.04040404040404,410.48342918805076 459.0909090909091,410.62897614365176 464.14141414141415,410.48211353280897 469.19191919191917,410.5611804516956 474.24242424242425,410.4064743100115 479.2929292929293,368.38445906396714 484.34343434343435,367.75040993996845 489.3939393939394,331.8209768384949 494.4444444444444,390.1219100313764 499.4949494949495,324.5624221295657 504.5454545454545,316.3391558041649 509.59595959595964,317.2597807476347 514.6464646464647,372.13749502217553 519.6969696969697,372.1967039949799 524.7474747474748,381.25661253211643 529.7979797979798,338.1571850167421 534.8484848484849,364.3556581023663 539.8989898989898,338.2190942577548 544.9494949494949,367.420162920171 550.0,337.8211703220012" fill="none" stroke="rgb(0,0,0)" stroke-width="1"/><circle cx="50.0" cy="436.2921116030421" r="2" fill="rgb(0,0,0)"/><circle cx="55.05050505050505" cy="395.14353007865907" r="2" fill="rgb(0,0,0)"/><circle cx="60.101010101010104" cy="409.7282430786304" r="2" fill="rgb(0,0,0)"/><circle cx="65.15151515151516" cy="396.1865772112527" r="2" fill="rgb(0,0,0)"/><circle cx="70.20202020202021" cy="380.1851763036586" r="2" fill="rgb(0,0,0)"/><circle cx="75.25252525252526" cy="393.45226345645585" r="2" fill="rgb(0,0,0)"/><circle cx="80.30303030303031" cy="393.4754785371443" r="2" fill="rgb(0,0,0)"/><circle cx="85.35353535353535" cy="396.75672106491766" r="2" fill="rgb(0,0,0)"/><circle cx="90.40404040404042" cy="394.6648655939965" r="2" fill="rgb(0,0,0)"/><circle cx="95.45454545454545" cy="405.7001389989201" r="2" fill="rgb(0,0,0)"/><circle cx="100.5050505050505" cy="354.41504394301523" r="2" fill="rgb(0,0,0)"/><circle cx="105.55555555555554" cy="297.3488817737308" r="2" fill="rgb(0,0,0)"/><circle cx="110.60606060606061" cy="365.205698486593" r="2" fill="rgb(0,0,0)"/><circle cx="115.65656565656566" cy="386.30286232588077" r="2" fill="rgb(0,0,0)"/><circle cx="120.7070707070707" cy="324.9068717358153" r="2" fill="rgb(0,0,0)"/><circle cx="125.75757575757576" cy="359.6665906132001" r="2" fill="rgb(0,0,0)"/><circle cx="130.80808080808083" cy="323.32369480467923" r="2" fill="rgb(0,0,0)"/><circle cx="135.85858585858585" cy="322.35936542475486" r="2" fill="rgb(0,0,0)"/><circle cx="140.9090909090909" cy="408.4206335322318" r="2" fill="rgb(0,0,0)"/><circle cx="145.95959595959596" cy="407.55909497052073" r="2" fill="rgb(0,0,0)"/><circle cx="151.010101010101" cy="391.8969112701425" r="2" fill="rgb(0,0,0)"/><circle cx="156.06060606060606" cy="242.99219996574175" r="2" fill="rgb(0,0,0)"/><circle cx="161.1111111111111" cy="212.48350455123017" r="2" fill="rgb(0,0,0)"/><circle cx="166.16161616161617" cy="211.8542385239541" r="2" fill="rgb(0,0,0)"/><circle cx="171.21212121212122" cy="320.80780924895294" r="2" fill="rgb(0,0,0)"/><circle cx="176.26262626262627" cy="394.3905055992228" r="2" fill="rgb(0,0,0)"/><circle cx="181.31313131313132" cy="373.6219848013794" r="2" fill="rgb(0,0,0)"/><circle cx="186.36363636363635" cy="367.6164563504542" r="2" fill="rgb(0,0,0)"/><circle cx="191.4141414141414" cy="368.17079497285" r="2" fill="rgb(0,0,0)"/><circle cx="196.46464646464648" cy="366.5408718779367" r="2" fill="rgb(0,0,0)"/><circle cx="201.51515151515153" cy="366.9331502797261" r="2" fill="rgb(0,0,0)"/><circle cx="206.56565656565658" cy="409.0051846898093" r="2" fill="rgb(0,0,0)"/><circle cx="211.61616161616163" cy="408.8000260264806" r="2" fill="rgb(0,0,0)"/><circle cx="216.66666666666666" cy="399.87840727059165" r="2" fill="rgb(0,0,0)"/><circle cx="221.7171717171717" cy="400.0239328425064" r="2" fill="rgb(0,0,0)"/><circle cx="226.76767676767676" cy="377.9491356864204" r="2" fill="rgb(0,0,0)"/><circle cx="231.8181818181818" cy="377.28722052221156" r="2" fill="rgb(0,0,0)"/><circle cx="236.86868686868686" cy="392.8041279097758" r="2" fill="rgb(0,0,0)"/><circle cx="241.91919191919192" cy="376.5011231146883" r="2" fill="rgb(0,0,0)"/><circle cx="246.96969696969697" cy="398.524428206725" r="2" fill="rgb(0,0,0)"/><circle cx="252.02020202020202" cy="392.6458063171544" r="2" fill="rgb(0,0,0)"/><circle cx="257.07070707070704" cy="392.7992234484551" r="2" fill="rgb(0,0,0)"/><circle cx="262.1212121212121" cy="392.4707696805332" r="2" fill="rgb(0,0,0)"/><circle cx="267.1717171717172" cy="357.9406830665142" r="2" fill="rgb(0,0,0)"/><circle cx="272.2222222222222" cy="375.1221117539583" r="2" fill="rgb(0,0,0)"/><circle cx="277.27272727272725" cy="375.0746605566679" r="2" fill="rgb(0,0,0)"/><circle cx="282.32323232323233" cy="375.70410896074395" r="2" fill="rgb(0,0,0)"/><circle cx="287.3737373737374" cy="185.3653744774938" r="2" fill="rgb(0,0,0)"/><circle cx="292.42424242424244" cy="311.5923950338213" r="2" fill="rgb(0,0,0)"/><circle cx="297.47474747474746" cy="325.0454532503203" r="2" fill="rgb(0,0,0)"/><circle cx="302.52525252525254" cy="348.44716246317273" r="2" fill="rgb(0,0,0)"/><circle cx="307.57575757575756" cy="315.2071290009351" r="2" fill="rgb(0,0,0)"/><circle cx="312.62626262626264" cy="315.2071290009351" r="2" fill="rgb(0,0,0)"/><circle cx="317.67676767676767" cy="243.89732356700733" r="2" fill="rgb(0,0,0)"/><circle cx="322.7272727272727" cy="393.2572465080758" r="2" fill="rgb(0,0,0)"/><circle cx="327.77777777777777" cy="393.91895707357617" r="2" fill="rgb(0,0,0)"/><circle cx="332.8282828282828" cy="393.94781179046475" r="2" fill="rgb(0,0,0)"/><circle cx="337.8787878787879" cy="357.11007638319785" r="2" fill="rgb(0,0,0)"/><circle cx="342.92929292929296" cy="289.2995643606044" r="2" fill="rgb(0,0,0)"/><circle cx="347.979797979798" cy="365.7259450778611" r="2" fill="rgb(0,0,0)"/><circle cx="353.03030303030306" cy="245.2566393003388" r="2" fill="rgb(0,0,0)"/><circle cx="358.0808080808081" cy="383.90993515163166" r="2" fill="rgb(0,0,0)"/><circle cx="363.13131313131316" cy="383.87704972002024" r="2" fill="rgb(0,0,0)"/><circle cx="368.1818181818182" cy="373.8217997557483" r="2" fill="rgb(0,0,0)"/><circle cx="373.23232323232327" cy="70.06713059440324" r="2" fill="rgb(0,0,0)"/><circle cx="378.2828282828283" cy="120.05289794488885" r="2" fill="rgb(0,0,0)"/><circle cx="383.3333333333333" cy="230.57536334792565" r="2" fill="rgb(0,0,0)"/><circle cx="388.3838383838384" cy="188.94956800991866" r="2" fill="rgb(0,0,0)"/><circle cx="393.4343434343434" cy="198.1153430870898" r="2" fill="rgb(0,0,0)"/><circle cx="398.4848484848485" cy="273.0741368190768" r="2" fill="rgb(0,0,0)"/><circle cx="403.5353535353535" cy="394.1311346996896" r="2" fill="rgb(0,0,0)"/><circle cx="408.58585858585855" cy="307.9265264204514" r="2" fill="rgb(0,0,0)"/><circle cx="413.6363636363636" cy="307.4420456568732" r="2" fill="rgb(0,0,0)"/><circle cx="418.68686868686865" cy="370.60576198714466" r="2" fill="rgb(0,0,0)"/><circle cx="423.73737373737373" cy="370.642995645797" r="2" fill="rgb(0,0,0)"/><circle cx="428.7878787878788" cy="370.47977574112105" r="2" fill="rgb(0,0,0)"/><circle cx="433.83838383838383" cy="382.95816400066815" r="2" fill="rgb(0,0,0)"/><circle cx="438.8888888888889" cy="382.80659855820693" r="2" fill="rgb(0,0,0)"/><circle cx="443.93939393939394" cy="382.80659855820693" r="2" fill="rgb(0,0,0)"/><circle cx="448.989898989899" cy="321.23583903512815" r="2" fill="rgb(0,0,0)"/><circle cx="454.04040404040404" cy="410.48342918805076" r="2" fill="rgb(0,0,0)"/><circle cx="459.0909090909091" cy="410.62897614365176" r="2" fill="rgb(0,0,0)"/><circle cx="464.14141414141415" cy="410.48211353280897" r="2" fill="rgb(0,0,0)"/><circle cx="469.19191919191917" cy="410.5611804516956" r="2" fill="rgb(0,0,0)"/><circle cx="474.24242424242425" cy="410.4064743100115" r="2" fill="rgb(0,0,0)"/><circle cx="479.2929292929293" cy="368.38445906396714" r="2" fill="rgb(0,0,0)"/><circle cx="484.34343434343435" cy="367.75040993996845" r="2" fill="rgb(0,0,0)"/><circle cx="489.3939393939394" cy="331.8209768384949" r="2" fill="rgb(0,0,0)"/><circle cx="494.4444444444444" cy="390.1219100313764" r="2" fill="rgb(0,0,0)"/><circle cx="499.4949494949495" cy="324.5624221295657" r="2" fill="rgb(0,0,0)"/><circle cx="504.5454545454545" cy="316.3391558041649" r="2" fill="rgb(0,0,0)"/><circle cx="509.59595959595964" cy="317.2597807476347" r="2" fill="rgb(0,0,0)"/><circle cx="514.6464646464647" cy="372.13749502217553" r="2" fill="rgb(0,0,0)"/><circle cx="519.6969696969697" cy="372.1967039949799" r="2" fill="rgb(0,0,0)"/><circle cx="524.7474747474748" cy="381.25661253211643" r="2" fill="rgb(0,0,0)"/><circle cx="529.7979797979798" cy="338.1571850167421" r="2" fill="rgb(0,0,0)"/><circle cx="534.8484848484849" cy="364.3556581023663" r="2" fill="rgb(0,0,0)"/><circle cx="539.8989898989898" cy="338.2190942577548" r="2" fill="rgb(0,0,0)"/><circle cx="544.9494949494949" cy="367.420162920171" r="2" fill="rgb(0,0,0)"/><circle cx="550.0" cy="337.8211703220012" r="2" fill="rgb(0,0,0)"/><polyline points="50.0,218.57819496532875 55.05050505050505,193.82029128271176 60.101010101010104,175.29014535947687 65.15151515151516,146.42652461177647 70.20202020202021,134.57169745373335 75.25252525252526,118.84355516196774 80.30303030303031,116.80377185308174 85.35353535353535,104.20268156562179 90.40404040404042,97.85915458707984 95.45454545454545,95.76875170056195 100.5050505050505,84.2776786289084 105.55555555555554,80.00164025874898 110.60606060606061,83.31557090240977 115.65656565656566,89.20478600153103 120.7070707070707,84.42170497616013 125.75757575757576,85.33761166787036 130.80808080808083,83.16751193285734 135.85858585858585,82.92827932880186 140.9090909090909,83.96691149234954 145.95959595959596,82.76187811149725 151.010101010101,84.75777038260509 156.06060606060606,76.23480118641947 161.1111111111111,71.672967428265 166.16161616161617,69.96525302605744 171.21212121212122,71.15024297884872 176.26262626262627,79.61279892867248 181.31313131313132,82.55511281385805 186.36363636363635,79.88033334763458 191.4141414141414,78.99469548233952 196.46464646464648,77.7948884350377 201.51515151515153,81.7213937276594 206.56565656565658,80.82290475019482 211.61616161616163,72.32706733420412 216.66666666666666,71.19182703685505 221.7171717171717,69.29974656866511 226.76767676767676,67.5400797383515 231.8181818181818,66.3438869412567 236.86868686868686,61.0107016602787 241.91919191919192,61.089814417086586 246.96969696969697,62.102005212182064 252.02020202020202,68.85503019220994 257.07070707070704,59.59088104968919 262.1212121212121,57.48116903387768 267.1717171717172,58.51488759612698 272.2222222222222,69.16073387246195 277.27272727272725,75.42258065018063 282.32323232323233,58.331461436643394 287.3737373737374,54.43645132135657 292.42424242424244,58.317448236087785 297.47474747474746,61.13184760741166 302.52525252525254,66.36031800043457 307.57575757575756,60.36728970848003 312.62626262626264,63.35063919776434 317.67676767676767,59.72197865202662 322.7272727272727,71.83547398064894 327.77777777777777,70.7689434207332 332.8282828282828,72.26018791508136 337.8787878787879,64.61684019161686 342.92929292929296,62.66658327572736 347.979797979798,68.8778096859221 353.03030303030306,58.964845897201144 358.0808080808081,59.70981749244237 363.13131313131316,59.55326945318217 368.1818181818182,61.59377564537442 373.23232323232327,52.57587410685392 378.2828282828283,54.056448226367195 383.3333333333333,56.246440175267935 388.3838383838384,55.64882078824013 393.4343434343434,59.43867315914514 398.4848484848485,62.19953194388074 403.5353535353535,78.37586483619214 408.58585858585855,69.00150776107466 413.6363636363636,63.99256296577818 418.68686868686865,68.28931438976298 423.73737373737373,62.67986035839618 428.7878787878788,67.3405158670999 433.83838383838383,66.67189548237764 438.8888888888889,71.48887745053327 443.93939393939394,63.693239158810286 448.989898989899,63.18322722338502 454.04040404040404,67.743029123969 459.0909090909091,64.96009855774241 464.14141414141415,71.49317290662856 469.19191919191917,65.58489031293402 474.24242424242425,73.16539351451706 479.2929292929293,73.25169207310375 484.34343434343435,68.46405005245089 489.3939393939394,61.909630882918236 494.4444444444444,64.22585053435239 499.4949494949495,67.4707654471352 504.5454545454545,67.94371147099491 509.59595959595964,63.62717221413027 514.6464646464647,65.59698956875076 519.6969696969697,62.17117766084499 524.7474747474748,63.75107364725653 529.7979797979798,59.223480252092315 534.8484848484849,67.38933560670745 539.8989898989898,59.685389179090635 544.9494949494949,62.067519680997975 550.0,57.999865972875114" fill="none" stroke="rgb(0,0,255)" stroke-width="1"/><circle cx="50.0" cy="218.57819496532875" r="2" fill="rgb(0,0,255)"/><circle cx="55.05050505050505" cy="193.82029128271176" r="2" fill="rgb(0,0,255)"/><circle cx="60.101010101010104" cy="175.29014535947687" r="2" fill="rgb(0,0,255)"/><circle cx="65.15151515151516" cy="146.42652461177647" r="2" fill="rgb(0,0,255)"/><circle cx="70.20202020202021" cy="134.57169745373335" r="2" fill="rgb(0,0,255)"/><circle cx="75.25252525252526" cy="118.84355516196774" r="2" fill="rgb(0,0,255)"/><circle cx="80.30303030303031" cy="116.80377185308174" r="2" fill="rgb(0,0,255)"/><circle cx="85.35353535353535" cy="104.20268156562179" r="2" fill="rgb(0,0,255)"/><circle cx="90.40404040404042" cy="97.85915458707984" r="2" fill="rgb(0,0,255)"/><circle cx="95.45454545454545" cy="95.76875170056195" r="2" fill="rgb(0,0,255)"/><circle cx="100.5050505050505" cy="84.2776786289084" r="2" fill="rgb(0,0,255)"/><circle cx="105.55555555555554" cy="80.00164025874898" r="2" fill="rgb(0,0,255)"/><circle cx="110.60606060606061" cy="83.31557090240977" r="2" fill="rgb(0,0,255)"/><circle cx="115.65656565656566" cy="89.20478600153103" r="2" fill="rgb(0,0,255)"/><circle cx="120.7070707070707" cy="84.42170497616013" r="2" fill="rgb(0,0,255)"/><circle cx="125.75757575757576" cy="85.33761166787036" r="2" fill="rgb(0,0,255)"/><circle cx="130.80808080808083" cy="83.16751193285734" r="2" fill="rgb(0,0,255)"/><circle cx="135.85858585858585" cy="82.92827932880186" r="2" fill="rgb(0,0,255)"/><circle cx="140.9090909090909" cy="83.96691149234954" r="2" fill="rgb(0,0,255)"/><circle cx="145.95959595959596" cy="82.76187811149725" r="2" fill="rgb(0,0,255)"/><circle cx="151.010101010101" cy="84.75777038260509" r="2" fill="rgb(0,0,255)"/><circle cx="156.06060606060606" cy="76.23480118641947" r="2" fill="rgb(0,0,255)"/><circle cx="161.1111111111111" cy="71.672967428265" r="2" fill="rgb(0,0,255)"/><circle cx="166.16161616161617" cy="69.96525302605744" r="2" fill="rgb(0,0,255)"/><circle cx="171.21212121212122" cy="71.15024297884872" r="2" fill="rgb(0,0,255)"/><circle cx="176.26262626262627" cy="79.61279892867248" r="2" fill="rgb(0,0,255)"/><circle cx="181.31313131313132" cy="82.55511281385805" r="2" fill="rgb(0,0,255)"/><circle cx="186.36363636363635" cy="79.88033334763458" r="2" fill="rgb(0,0,255)"/><circle cx="191.4141414141414" cy="78.99469548233952" r="2" fill="rgb(0,0,255)"/><circle cx="196.46464646464648" cy="77.7948884350377" r="2" fill="rgb(0,0,255)"/><circle cx="201.51515151515153" cy="81.7213937276594" r="2" fill="rgb(0,0,255)"/><circle cx="206.56565656565658" cy="80.82290475019482" r="2" fill="rgb(0,0,255)"/><circle cx="211.61616161616163" cy="72.32706733420412" r="2" fill="rgb(0,0,255)"/><circle cx="216.66666666666666" cy="71.19182703685505" r="2" fill="rgb(0,0,255)"/><circle cx="221.7171717171717" cy="69.29974656866511" r="2" fill="rgb(0,0,255)"/><circle cx="226.76767676767676" cy="67.5400797383515" r="2" fill="rgb(0,0,255)"/><circle cx="231.8181818181818" cy="66.3438869412567" r="2" fill="rgb(0,0,255)"/><circle cx="236.86868686868686" cy="61.0107016602787" r="2" fill="rgb(0,0,255)"/><circle cx="241.91919191919192" cy="61.089814417086586" r="2" fill="rgb(0,0,255)"/><circle cx="246.96969696969697" cy="62.102005212182064" r="2" fill="rgb(0,0,255)"/><circle cx="252.02020202020202" cy="68.85503019220994" r="2" fill="rgb(0,0,255)"/><circle cx="257.07070707070704" cy="59.59088104968919" r="2" fill="rgb(0,0,255)"/><circle cx="262.1212121212121" cy="57.48116903387768" r="2" fill="rgb(0,0,255)"/><circle cx="267.1717171717172" cy="58.51488759612698" r="2" fill="rgb(0,0,255)"/><circle cx="272.2222222222222" cy="69.16073387246195" r="2" fill="rgb(0,0,255)"/><circle cx="277.27272727272725" cy="75.42258065018063" r="2" fill="rgb(0,0,255)"/><circle cx="282.32323232323233" cy="58.331461436643394" r="2" fill="rgb(0,0,255)"/><circle cx="287.3737373737374" cy="54.43645132135657" r="2" fill="rgb(0,0,255)"/><circle cx="292.42424242424244" cy="58.317448236087785" r="2" fill="rgb(0,0,255)"/><circle cx="297.47474747474746" cy="61.13184760741166" r="2" fill="rgb(0,0,255)"/><circle cx="302.52525252525254" cy="66.36031800043457" r="2" fill="rgb(0,0,255)"/><circle cx="307.57575757575756" cy="60.36728970848003" r="2" fill="rgb(0,0,255)"/><circle cx="312.62626262626264" cy="63.35063919776434" r="2" fill="rgb(0,0,255)"/><circle cx="317.67676767676767" cy="59.72197865202662" r="2" fill="rgb(0,0,255)"/><circle cx="322.7272727272727" cy="71.83547398064894" r="2" fill="rgb(0,0,255)"/><circle cx="327.77777777777777" cy="70.7689434207332" r="2" fill="rgb(0,0,255)"/><circle cx="332.8282828282828" cy="72.26018791508136" r="2" fill="rgb(0,0,255)"/><circle cx="337.8787878787879" cy="64.61684019161686" r="2" fill="rgb(0,0,255)"/><circle cx="342.92929292929296" cy="62.66658327572736" r="2" fill="rgb(0,0,255)"/><circle cx="347.979797979798" cy="68.8778096859221" r="2" fill="rgb(0,0,255)"/><circle cx="353.03030303030306" cy="58.964845897201144" r="2" fill="rgb(0,0,255)"/><circle cx="358.0808080808081" cy="59.70981749244237" r="2" fill="rgb(0,0,255)"/><circle cx="363.13131313131316" cy="59.55326945318217" r="2" fill="rgb(0,0,255)"/><circle cx="368.1818181818182" cy="61.59377564537442" r="2" fill="rgb(0,0,255)"/><circle cx="373.23232323232327" cy="52.57587410685392" r="2" fill="rgb(0,0,255)"/><circle cx="378.2828282828283" cy="54.056448226367195" r="2" fill="rgb(0,0,255)"/><circle cx="383.3333333333333" cy="56.246440175267935" r="2" fill="rgb(0,0,255)"/><circle cx="388.3838383838384" cy="55.64882078824013" r="2" fill="rgb(0,0,255)"/><circle cx="393.4343434343434" cy="59.43867315914514" r="2" fill="rgb(0,0,255)"/><circle cx="398.4848484848485" cy="62.19953194388074" r="2" fill="rgb(0,0,255)"/><circle cx="403.5353535353535" cy="78.37586483619214" r="2" fill="rgb(0,0,255)"/><circle cx="408.58585858585855" cy="69.00150776107466" r="2" fill="rgb(0,0,255)"/><circle cx="413.6363636363636" cy="63.99256296577818" r="2" fill="rgb(0,0,255)"/><circle cx="418.68686868686865" cy="68.28931438976298" r="2" fill="rgb(0,0,255)"/><circle cx="423.73737373737373" cy="62.67986035839618" r="2" fill="rgb(0,0,255)"/><circle cx="428.7878787878788" cy="67.3405158670999" r="2" fill="rgb(0,0,255)"/><circle cx="433.83838383838383" cy="66.67189548237764" r="2" fill="rgb(0,0,255)"/><circle cx="438.8888888888889" cy="71.48887745053327" r="2" fill="rgb(0,0,255)"/><circle cx="443.93939393939394" cy="63.693239158810286" r="2" fill="rgb(0,0,255)"/><circle cx="448.989898989899" cy="63.18322722338502" r="2" fill="rgb(0,0,255)"/><circle cx="454.04040404040404" cy="67.743029123969" r="2" fill="rgb(0,0,255)"/><circle cx="459.0909090909091" cy="64.96009855774241" r="2" fill="rgb(0,0,255)"/><circle cx="464.14141414141415" cy="71.49317290662856" r="2" fill="rgb(0,0,255)"/><circle cx="469.19191919191917" cy="65.58489031293402" r="2" fill="rgb(0,0,255)"/><circle cx="474.24242424242425" cy="73.16539351451706" r="2" fill="rgb(0,0,255)"/><circle cx="479.2929292929293" cy="73.25169207310375" r="2" fill="rgb(0,0,255)"/><circle cx="484.34343434343435" cy="68.46405005245089" r="2" fill="rgb(0,0,255)"/><circle cx="489.3939393939394" cy="61.909630882918236" r="2" fill="rgb(0,0,255)"/><circle cx="494.4444444444444" cy="64.22585053435239" r="2" fill="rgb(0,0,255)"/><circle cx="499.4949494949495" cy="67.4707654471352" r="2" fill="rgb(0,0,255)"/><circle cx="504.5454545454545" cy="67.94371147099491" r="2" fill="rgb(0,0,255)"/><circle cx="509.59595959595964" cy="63.62717221413027" r="2" fill="rgb(0,0,255)"/><circle cx="514.6464646464647" cy="65.59698956875076" r="2" fill="rgb(0,0,255)"/><circle cx="519.6969696969697" cy="62.17117766084499" r="2" fill="rgb(0,0,255)"/><circle cx="524.7474747474748" cy="63.75107364725653" r="2" fill="rgb(0,0,255)"/><circle cx="529.7979797979798" cy="59.223480252092315" r="2" fill="rgb(0,0,255)"/><circle cx="534.8484848484849" cy="67.38933560670745" r="2" fill="rgb(0,0,255)"/><circle cx="539.8989898989898" cy="59.685389179090635" r="2" fill="rgb(0,0,255)"/><circle cx="544.9494949494949" cy="62.067519680997975" r="2" fill="rgb(0,0,255)"/><circle cx="550.0" cy="57.999865972875114" r="2" fill="rgb(0,0,255)"/><polyline points="50.0,75.76531050576307 55.05050505050505,74.38330509431063 60.101010101010104,73.35078057035213 65.15151515151516,72.78481852224957 70.20202020202021,72.57675998513696 75.25252525252526,73.02552280774057 80.30303030303031,72.99890828991352 85.35353535353535,72.9267010356308 90.40404040404042,72.41793126243584 95.45454545454545,73.274674393922 100.5050505050505,72.46825780667837 105.55555555555554,72.37822827193065 110.60606060606061,57.907460630315654 115.65656565656566,58.13314203441547 120.7070707070707,60.31183302018218 125.75757575757576,60.3290915901253 130.80808080808083,59.21309964537585 135.85858585858585,57.574746141890614 140.9090909090909,57.313105386880295 145.95959595959596,56.81736735635087 151.010101010101,56.20554280160832 156.06060606060606,56.15504317178505 161.1111111111111,52.05130395484531 166.16161616161617,51.834615548115664 171.21212121212122,52.654004002477734 176.26262626262627,52.90351582352861 181.31313131313132,52.96653363290608 186.36363636363635,52.89185859875056 191.4141414141414,52.71535213158904 196.46464646464648,52.26159053365723 201.51515151515153,52.02741324444548 206.56565656565658,51.87940195266003 211.61616161616163,51.64919545400386 216.66666666666666,51.75606648702734 221.7171717171717,52.00569226054745 226.76767676767676,51.60930221774788 231.8181818181818,51.487714615613925 236.86868686868686,51.47514469322027 241.91919191919192,51.31666069896488 246.96969696969697,51.33245707232146 252.02020202020202,50.0 257.07070707070704,50.98465909078095 262.1212121212121,51.162931412767875 267.1717171717172,51.075408890840436 272.2222222222222,51.14519746271577 277.27272727272725,51.14519746271577 282.32323232323233,51.43604987253667 287.3737373737374,51.294924654796375 292.42424242424244,51.18575891432522 297.47474747474746,51.11927140557532 302.52525252525254,51.125647543670254 307.57575757575756,51.09966473446684 312.62626262626264,51.08659597987929 317.67676767676767,51.27276471242283 322.7272727272727,51.11820536429474 327.77777777777777,51.189044910824634 332.8282828282828,51.21471823038161 337.8787878787879,51.074354327848766 342.92929292929296,51.15470336706585 347.979797979798,51.06096221310645 353.03030303030306,50.99874934458421 358.0808080808081,51.02760406147286 363.13131313131316,51.02760406147286 368.1818181818182,51.046887372426625 373.23232323232327,50.96452702501159 378.2828282828283,51.02760406147286 383.3333333333333,50.96775856223644 388.3838383838384,51.02760406147286 393.4343434343434,50.931851599315564 398.4848484848485,50.96452702501159 403.5353535353535,50.91653706006764 408.58585858585855,50.99415059098891 413.6363636363636,51.01471529533046 418.68686868686865,50.96452702501159 423.73737373737373,50.91653706006764 428.7878787878788,50.94064496046252 433.83838383838383,50.92725284572032 438.8888888888889,50.90337078117119 443.93939393939394,50.90314494532544 448.989898989899,50.896202895499925 454.04040404040404,50.925057612388514 459.0909090909091,50.902486292443484 464.14141414141415,50.842471429127784 469.19191919191917,50.879262880776366 474.24242424242425,50.86657932952261 479.2929292929293,50.904936200333395 484.34343434343435,50.86657932952261 489.3939393939394,50.85331911466113 494.4444444444444,50.862508844232764 499.4949494949495,50.862508844232764 504.5454545454545,50.862508844232764 509.59595959595964,50.83862677968369 514.6464646464647,50.818589364578656 519.6969696969697,50.818589364578656 524.7474747474748,50.818589364578656 529.7979797979798,50.818589364578656 534.8484848484849,50.818589364578656 539.8989898989898,50.818589364578656 544.9494949494949,50.818589364578656 550.0,50.818589364578656" fill="none" stroke="rgb(0,255,0)" stroke-width="1"/><circle cx="50.0" cy="75.76531050576307" r="2" fill="rgb(0,255,0)"/><circle cx="55.05050505050505" cy="74.38330509431063" r="2" fill="rgb(0,255,0)"/><circle cx="60.101010101010104" cy="73.35078057035213" r="2" fill="rgb(0,255,0)"/><circle cx="65.15151515151516" cy="72.78481852224957" r="2" fill="rgb(0,255,0)"/><circle cx="70.20202020202021" cy="72.57675998513696" r="2" fill="rgb(0,255,0)"/><circle cx="75.25252525252526" cy="73.02552280774057" r="2" fill="rgb(0,255,0)"/><circle cx="80.30303030303031" cy="72.99890828991352" r="2" fill="rgb(0,255,0)"/><circle cx="85.35353535353535" cy="72.9267010356308" r="2" fill="rgb(0,255,0)"/><circle cx="90.40404040404042" cy="72.41793126243584" r="2" fill="rgb(0,255,0)"/><circle cx="95.45454545454545" cy="73.274674393922" r="2" fill="rgb(0,255,0)"/><circle cx="100.5050505050505" cy="72.46825780667837" r="2" fill="rgb(0,255,0)"/><circle cx="105.55555555555554" cy="72.37822827193065" r="2" fill="rgb(0,255,0)"/><circle cx="110.60606060606061" cy="57.907460630315654" r="2" fill="rgb(0,255,0)"/><circle cx="115.65656565656566" cy="58.13314203441547" r="2" fill="rgb(0,255,0)"/><circle cx="120.7070707070707" cy="60.31183302018218" r="2" fill="rgb(0,255,0)"/><circle cx="125.75757575757576" cy="60.3290915901253" r="2" fill="rgb(0,255,0)"/><circle cx="130.80808080808083" cy="59.21309964537585" r="2" fill="rgb(0,255,0)"/><circle cx="135.85858585858585" cy="57.574746141890614" r="2" fill="rgb(0,255,0)"/><circle cx="140.9090909090909" cy="57.313105386880295" r="2" fill="rgb(0,255,0)"/><circle cx="145.95959595959596" cy="56.81736735635087" r="2" fill="rgb(0,255,0)"/><circle cx="151.010101010101" cy="56.20554280160832" r="2" fill="rgb(0,255,0)"/><circle cx="156.06060606060606" cy="56.15504317178505" r="2" fill="rgb(0,255,0)"/><circle cx="161.1111111111111" cy="52.05130395484531" r="2" fill="rgb(0,255,0)"/><circle cx="166.16161616161617" cy="51.834615548115664" r="2" fill="rgb(0,255,0)"/><circle cx="171.21212121212122" cy="52.654004002477734" r="2" fill="rgb(0,255,0)"/><circle cx="176.26262626262627" cy="52.90351582352861" r="2" fill="rgb(0,255,0)"/><circle cx="181.31313131313132" cy="52.96653363290608" r="2" fill="rgb(0,255,0)"/><circle cx="186.36363636363635" cy="52.89185859875056" r="2" fill="rgb(0,255,0)"/><circle cx="191.4141414141414" cy="52.71535213158904" r="2" fill="rgb(0,255,0)"/><circle cx="196.46464646464648" cy="52.26159053365723" r="2" fill="rgb(0,255,0)"/><circle cx="201.51515151515153" cy="52.02741324444548" r="2" fill="rgb(0,255,0)"/><circle cx="206.56565656565658" cy="51.87940195266003" r="2" fill="rgb(0,255,0)"/><circle cx="211.61616161616163" cy="51.64919545400386" r="2" fill="rgb(0,255,0)"/><circle cx="216.66666666666666" cy="51.75606648702734" r="2" fill="rgb(0,255,0)"/><circle cx="221.7171717171717" cy="52.00569226054745" r="2" fill="rgb(0,255,0)"/><circle cx="226.76767676767676" cy="51.60930221774788" r="2" fill="rgb(0,255,0)"/><circle cx="231.8181818181818" cy="51.487714615613925" r="2" fill="rgb(0,255,0)"/><circle cx="236.86868686868686" cy="51.47514469322027" r="2" fill="rgb(0,255,0)"/><circle cx="241.91919191919192" cy="51.31666069896488" r="2" fill="rgb(0,255,0)"/><circle cx="246.96969696969697" cy="51.33245707232146" r="2" fill="rgb(0,255,0)"/><circle cx="252.02020202020202" cy="50.0" r="2" fill="rgb(0,255,0)"/><circle cx="257.07070707070704" cy="50.98465909078095" r="2" fill="rgb(0,255,0)"/><circle cx="262.1212121212121" cy="51.162931412767875" r="2" fill="rgb(0,255,0)"/><circle cx="267.1717171717172" cy="51.075408890840436" r="2" fill="rgb(0,255,0)"/><circle cx="272.2222222222222" cy="51.14519746271577" r="2" fill="rgb(0,255,0)"/><circle cx="277.27272727272725" cy="51.14519746271577" r="2" fill="rgb(0,255,0)"/><circle cx="282.32323232323233" cy="51.43604987253667" r="2" fill="rgb(0,255,0)"/><circle cx="287.3737373737374" cy="51.294924654796375" r="2" fill="rgb(0,255,0)"/><circle cx="292.42424242424244" cy="51.18575891432522" r="2" fill="rgb(0,255,0)"/><circle cx="297.47474747474746" cy="51.11927140557532" r="2" fill="rgb(0,255,0)"/><circle cx="302.52525252525254" cy="51.125647543670254" r="2" fill="rgb(0,255,0)"/><circle cx="307.57575757575756" cy="51.09966473446684" r="2" fill="rgb(0,255,0)"/><circle cx="312.62626262626264" cy="51.08659597987929" r="2" fill="rgb(0,255,0)"/><circle cx="317.67676767676767" cy="51.27276471242283" r="2" fill="rgb(0,255,0)"/><circle cx="322.7272727272727" cy="51.11820536429474" r="2" fill="rgb(0,255,0)"/><circle cx="327.77777777777777" cy="51.189044910824634" r="2" fill="rgb(0,255,0)"/><circle cx="332.8282828282828" cy="51.21471823038161" r="2" fill="rgb(0,255,0)"/><circle cx="337.8787878787879" cy="51.074354327848766" r="2" fill="rgb(0,255,0)"/><circle cx="342.92929292929296" cy="51.15470336706585" r="2" fill="rgb(0,255,0)"/><circle cx="347.979797979798" cy="51.06096221310645" r="2" fill="rgb(0,255,0)"/><circle cx="353.03030303030306" cy="50.99874934458421" r="2" fill="rgb(0,255,0)"/><circle cx="358.0808080808081" cy="51.02760406147286" r="2" fill="rgb(0,255,0)"/><circle cx="363.13131313131316" cy="51.02760406147286" r="2" fill="rgb(0,255,0)"/><circle cx="368.1818181818182" cy="51.046887372426625" r="2" fill="rgb(0,255,0)"/><circle cx="373.23232323232327" cy="50.96452702501159" r="2" fill="rgb(0,255,0)"/><circle cx="378.2828282828283" cy="51.02760406147286" r="2" fill="rgb(0,255,0)"/><circle cx="383.3333333333333" cy="50.96775856223644" r="2" fill="rgb(0,255,0)"/><circle cx="388.3838383838384" cy="51.02760406147286" r="2" fill="rgb(0,255,0)"/><circle cx="393.4343434343434" cy="50.931851599315564" r="2" fill="rgb(0,255,0)"/><circle cx="398.4848484848485" cy="50.96452702501159" r="2" fill="rgb(0,255,0)"/><circle cx="403.5353535353535" cy="50.91653706006764" r="2" fill="rgb(0,255,0)"/><circle cx="408.58585858585855" cy="50.99415059098891" r="2" fill="rgb(0,255,0)"/><circle cx="413.6363636363636" cy="51.01471529533046" r="2" fill="rgb(0,255,0)"/><circle cx="418.68686868686865" cy="50.96452702501159" r="2" fill="rgb(0,255,0)"/><circle cx="423.73737373737373" cy="50.91653706006764" r="2" fill="rgb(0,255,0)"/><circle cx="428.7878787878788" cy="50.94064496046252" r="2" fill="rgb(0,255,0)"/><circle cx="433.83838383838383" cy="50.92725284572032" r="2" fill="rgb(0,255,0)"/><circle cx="438.8888888888889" cy="50.90337078117119" r="2" fill="rgb(0,255,0)"/><circle cx="443.93939393939394" cy="50.90314494532544" r="2" fill="rgb(0,255,0)"/><circle cx="448.989898989899" cy="50.896202895499925" r="2" fill="rgb(0,255,0)"/><circle cx="454.04040404040404" cy="50.925057612388514" r="2" fill="rgb(0,255,0)"/><circle cx="459.0909090909091" cy="50.902486292443484" r="2" fill="rgb(0,255,0)"/><circle cx="464.14141414141415" cy="50.842471429127784" r="2" fill="rgb(0,255,0)"/><circle cx="469.19191919191917" cy="50.879262880776366" r="2" fill="rgb(0,255,0)"/><circle cx="474.24242424242425" cy="50.86657932952261" r="2" fill="rgb(0,255,0)"/><circle cx="479.2929292929293" cy="50.904936200333395" r="2" fill="rgb(0,255,0)"/><circle cx="484.34343434343435" cy="50.86657932952261" r="2" fill="rgb(0,255,0)"/><circle cx="489.3939393939394" cy="50.85331911466113" r="2" fill="rgb(0,255,0)"/><circle cx="494.4444444444444" cy="50.862508844232764" r="2" fill="rgb(0,255,0)"/><circle cx="499.4949494949495" cy="50.862508844232764" r="2" fill="rgb(0,255,0)"/><circle cx="504.5454545454545" cy="50.862508844232764" r="2" fill="rgb(0,255,0)"/><circle cx="509.59595959595964" cy="50.83862677968369" r="2" fill="rgb(0,255,0)"/><circle cx="514.6464646464647" cy="50.818589364578656" r="2" fill="rgb(0,255,0)"/><circle cx="519.6969696969697" cy="50.818589364578656" r="2" fill="rgb(0,255,0)"/><circle cx="524.7474747474748" cy="50.818589364578656" r="2" fill="rgb(0,255,0)"/><circle cx="529.7979797979798" cy="50.818589364578656" r="2" fill="rgb(0,255,0)"/><circle cx="534.8484848484849" cy="50.818589364578656" r="2" fill="rgb(0,255,0)"/><circle cx="539.8989898989898" cy="50.818589364578656" r="2" fill="rgb(0,255,0)"/><circle cx="544.9494949494949" cy="50.818589364578656" r="2" fill="rgb(0,255,0)"/><circle cx="550.0" cy="50.818589364578656" r="2" fill="rgb(0,255,0)"/><text x="350.0" y="20.0" text-anchor="middle" fill="rgb(0,0,0)" font-size="20.0">GA Demo</text><text x="350.0" y="575.0" text-anchor="middle" fill="rgb(0,0,0)" font-size="12.0">generation</text><text transform="rotate(-90.0 20.0 300.0)" x="20.0" y="300.0" text-anchor="middle" fill="rgb(0,0,0)" font-size="12.0">fitness</text><text x="620" y="62" fill="rgb(0,0,0)" font-size="12">min</text><text x="620" y="74" fill="rgb(0,0,255)" font-size="12">ave</text><text x="620" y="86" fill="rgb(0,255,0)" font-size="12">max</text>
      Sorry, your browser does not support inline SVG.
    </svg>