<?xml version='1.0' encoding='UTF-8'?>
<svg version="1.1" width="700.0" height="600.0" onload="init(evt)" xmlns="http://www.w3.org/2000/svg">
      <style>.caption {
  font-size: 14px;
  font-family: Georgia, serif;
}
</style>
      <script type="text/ecmascript"><![CDATA[
function init(evt) {
  if ( window.svgDocument == null ) {
    svgDocument = evt.target.ownerDocument;
  }
}

function RectHover(evt, i, c) {
  rect = svgDocument.getElementById('rect' + i);
  if( c != null ) {
    rect.setAttributeNS(null, "fill", c)  
  }
  tooltiptext = svgDocument.getElementById('tooltiptext' + i);
  tooltipbg = svgDocument.getElementById('tooltipbg' + i);
  if( tooltipbg != null) {
    tbb = tooltiptext.getBBox();
    tooltipbg.setAttributeNS(null, "width", tbb.width);
    tooltipbg.setAttributeNS(null, "height", tbb.height);
    tooltipbg.setAttributeNS(null, "x", tbb.x);
    tooltipbg.setAttributeNS(null, "y", tbb.y);
    tooltipbg.setAttributeNS(null, "visibility", "visible");
  }
  tooltiptext.setAttributeNS(null,"visibility","visible");
}

function RectUnhover(evt, i, c) {
  rect = svgDocument.getElementById('rect' + i);
  if( c != null ) {
    rect.setAttributeNS(null, "fill", c)  
  }
  tooltiptext = svgDocument.getElementById('tooltiptext' + i);
  tooltiptext.setAttributeNS(null,"visibility","hidden");
  tooltipbg = svgDocument.getElementById('tooltipbg' + i);
  if( tooltipbg != null ) {
    tooltipbg.setAttributeNS(null,"visibility","hidden");
  }
}
]]></script>
      <line x1="50.0" y1="550.0" x2="550.0" y2="550.0" stroke="rgb(0,0,0)" stroke-width="1"/><line x1="50.0" y1="550.0" x2="50.0" y2="50.0" stroke="rgb(0,0,0)" stroke-width="1"/><line x1="50.0" y1="550.0" x2="50.0" y2="50.0" stroke="rgb(192,192,192)" stroke-width="1"/><line x1="50.0" y1="548.0" x2="50.0" y2="552.0" stroke="rgb(192,192,192)" stroke-width="1"/><text text-anchor="middle" alignment-baseline="hanging" x="50.0" y="553.0" font-size="12.0">0</text><line x1="100.5050505050505" y1="550.0" x2="100.5050505050505" y2="50.0" stroke="rgb(192,192,192)" stroke-width="1"/><line x1="100.5050505050505" y1="548.0" x2="100.5050505050505" y2="552.0" stroke="rgb(192,192,192)" stroke-width="1"/><text text-anchor="middle" alignment-baseline="hanging" x="100.5050505050505" y="553.0" font-size="12.0">10</text><line x1="151.010101010101" y1="550.0" x2="151.010101010101" y2="50.0" stroke="rgb(192,192,192)" stroke-width="1"/><line x1="151.010101010101" y1="548.0" x2="151.010101010101" y2="552.0" stroke="rgb(192,192,192)" stroke-width="1"/><text text-anchor="middle" alignment-baseline="hanging" x="151.010101010101" y="553.0" font-size="12.0">20</text><line x1="201.51515151515153" y1="550.0" x2="201.51515151515153" y2="50.0" stroke="rgb(192,192,192)" stroke-width="1"/><line x1="201.51515151515153" y1="548.0" x2="201.51515151515153" y2="552.0" stroke="rgb(192,192,192)" stroke-width="1"/><text text-anchor="middle" alignment-baseline="hanging" x="201.51515151515153" y="553.0" font-size="12.0">30</text><line x1="252.02020202020202" y1="550.0" x2="252.02020202020202" y2="50.0" stroke="rgb(192,192,192)" stroke-width="1"/><line x1="252.02020202020202" y1="548.0" x2="252.02020202020202" y2="552.0" stroke="rgb(192,192,192)" stroke-width="1"/><text text-anchor="middle" alignment-baseline="hanging" x="252.02020202020202" y="553.0" font-size="12.0">40</text><line x1="302.52525252525254" y1="550.0" x2="302.52525252525254" y2="50.0" stroke="rgb(192,192,192)" stroke-width="1"/><line x1="302.52525252525254" y1="548.0" x2="302.52525252525254" y2="552.0" stroke="rgb(192,192,192)" stroke-width="1"/><text text-anchor="middle" alignment-baseline="hanging" x="302.52525252525254" y="553.0" font-size="12.0">50</text><line x1="353.03030303030306" y1="550.0" x2="353.03030303030306" y2="50.0" stroke="rgb(192,192,192)" stroke-width="1"/><line x1="353.03030303030306" y1="548.0" x2="353.03030303030306" y2="552.0" stroke="rgb(192,192,192)" stroke-width="1"/><text text-anchor="middle" alignment-baseline="hanging" x="353.03030303030306" y="553.0" font-size="12.0">60</text><line x1="403.5353535353535" y1="550.0" x2="403.5353535353535" y2="50.0" stroke="rgb(192,192,192)" stroke-width="1"/><line x1="403.5353535353535" y1="548.0" x2="403.5353535353535" y2="552.0" stroke="rgb(192,192,192)" stroke-width="1"/><text text-anchor="middle" alignment-baseline="hanging" x="403.5353535353535" y="553.0" font-size="12.0">70</text><line x1="454.04040404040404" y1="550.0" x2="454.04040404040404" y2="50.0" stroke="rgb(192,192,192)" stroke-width="1"/><line x1="454.04040404040404" y1="548.0" x2="454.04040404040404" y2="552.0" stroke="rgb(192,192,192)" stroke-width="1"/><text text-anchor="middle" alignment-baseline="hanging" x="454.04040404040404" y="553.0" font-size="12.0">80</text><line x1="504.5454545454545" y1="550.0" x2="504.5454545454545" y2="50.0" stroke="rgb(192,192,192)" stroke-width="1"/><line x1="504.5454545454545" y1="548.0" x2="504.5454545454545" y2="552.0" stroke="rgb(192,192,192)" stroke-width="1"/><text text-anchor="middle" alignment-baseline="hanging" x="504.5454545454545" y="553.0" font-size="12.0">90</text><line x1="50.0" y1="550.0" x2="550.0" y2="550.0" stroke="rgb(192,192,192)" stroke-width="1"/><text text-anchor="end" alignment-baseline="middle" x="45.0" y="550.0" font-size="12.0">0.0</text><line x1="48.0" y1="550.0" x2="52.0" y2="550.0" stroke="rgb(192,192,192)" stroke-width="1"/><line x1="50.0" y1="367.0888889153257" x2="550.0" y2="367.0888889153257" stroke="rgb(192,192,192)" stroke-width="1"/><text text-anchor="end" alignment-baseline="middle" x="45.0" y="367.0888889153257" font-size="12.0">1000.0</text><line x1="48.0" y1="367.0888889153257" x2="52.0" y2="367.0888889153257" stroke="rgb(192,192,192)" stroke-width="1"/><line x1="50.0" y1="184.1777778306514" x2="550.0" y2="184.1777778306514" stroke="rgb(192,192,192)" stroke-width="1"/><text text-anchor="end" alignment-baseline="middle" x="45.0" y="184.1777778306514" font-size="12.0">2000.0</text><line x1="48.0" y1="184.1777778306514" x2="52.0" y2="184.1777778306514" stroke="rgb(192,192,192)" stroke-width="1"/><polyline points="50.0,400.1245682175223 55.05050505050505,399.5387160790581 60.101010101010104,412.0416459856293 65.15151515151516,398.0981934507507 70.20202020202021,307.3270558512355 75.25252525252526,271.16333982070853 80.30303030303031,337.35872938733144 85.35353535353535,373.1680107018478 90.40404040404042,262.08679500005087 95.45454545454545,263.270136713177 100.5050505050505,391.13483092760816 105.55555555555554,302.8944921583409 110.60606060606061,321.9148553210558 115.65656565656566,322.73231873034666 120.7070707070707,406.64316252196795 125.75757575757576,376.3731943734264 130.80808080808083,386.02240926079696 135.85858585858585,357.7066564677003 140.9090909090909,358.4705002919358 145.95959595959596,410.51527332093315 151.010101010101,358.28677870216336 156.06060606060606,359.4555322994174 161.1111111111111,374.10928226969844 166.16161616161617,375.32184126638117 171.21212121212122,356.9943164024237 176.26262626262627,389.2122927721558 181.31313131313132,388.0916986560486 186.36363636363635,363.0888770036512 191.4141414141414,364.18759261869263 196.46464646464648,357.6915687818419 201.51515151515153,366.56484813462055 206.56565656565658,378.1940870129091 211.61616161616163,365.8478527811963 216.66666666666666,367.34011023154375 221.7171717171717,386.1806593997576 226.76767676767676,395.9531566522627 231.8181818181818,276.1554854845779 236.86868686868686,289.3737256330259 241.91919191919192,297.55470926599367 246.96969696969697,400.9312957728568 252.02020202020202,377.65033058576364 257.07070707070704,377.7360309577621 262.1212121212121,377.4920797673868 267.1717171717172,371.61566909656494 272.2222222222222,321.0828500468811 277.27272727272725,250.26320565290985 282.32323232323233,353.8598314144872 287.3737373737374,238.68203400318492 292.42424242424244,323.01633749541054 297.47474747474746,323.68693704931866 302.52525252525254,391.6130169589593 307.57575757575756,372.6867034293325 312.62626262626264,381.05665069017596 317.67676767676767,344.21094973463903 322.7272727272727,413.8299988597006 327.77777777777777,414.1396978514124 332.8282828282828,323.27567250466336 337.8787878787879,367.21982439176895 342.92929292929296,331.78399655264036 347.979797979798,367.7561909219818 353.03030303030306,368.8890093609404 358.0808080808081,384.7588354956839 363.13131313131316,369.803088452596 368.1818181818182,399.2353888344545 373.23232323232327,399.2353888344545 378.2828282828283,333.23567117488744 383.3333333333333,376.88892334068294 388.3838383838384,411.5109396567691 393.4343434343434,393.18107915350316 398.4848484848485,283.1941869771725 403.5353535353535,397.86814872995836 408.58585858585855,317.57545305826136 413.6363636363636,393.8696238679896 418.68686868686865,400.3176039199254 423.73737373737373,393.5890632278772 428.7878787878788,393.5605674378013 433.83838383838383,253.62178873692977 438.8888888888889,333.05636279056193 443.93939393939394,273.7982787831131 448.989898989899,159.4295974127295 454.04040404040404,401.00767318537584 459.0909090909091,401.25009174157105 464.14141414141415,400.5216977060418 469.19191919191917,400.53225502596314 474.24242424242425,376.58894274123816 479.2929292929293,270.0115329343137 484.34343434343435,193.0081585577048 489.3939393939394,191.81271904714828 494.4444444444444,133.18737386068608 499.4949494949495,369.668950581276 504.5454545454545,138.3779675139241 509.59595959595964,376.87998314678384 514.6464646464647,201.08764797772568 519.6969696969697,311.05382426182985 524.7474747474748,355.3778871577896 529.7979797979798,203.8681426954103 534.8484848484849,419.17950531335697 539.8989898989898,419.18230058703074 544.9494949494949,378.00294081270374 550.0,377.7058770749451" fill="none" stroke="rgb(0,0,0)" stroke-width="1"/><circle cx="50.0" cy="400.1245682175223" r="2" fill="rgb(0,0,0)"/><circle cx="55.05050505050505" cy="399.5387160790581" r="2" fill="rgb(0,0,0)"/><circle cx="60.101010101010104" cy="412.0416459856293" r="2" fill="rgb(0,0,0)"/><circle cx="65.15151515151516" cy="398.0981934507507" r="2" fill="rgb(0,0,0)"/><circle cx="70.20202020202021" cy="307.3270558512355" r="2" fill="rgb(0,0,0)"/><circle cx="75.25252525252526" cy="271.16333982070853" r="2" fill="rgb(0,0,0)"/><circle cx="80.30303030303031" cy="337.35872938733144" r="2" fill="rgb(0,0,0)"/><circle cx="85.35353535353535" cy="373.1680107018478" r="2" fill="rgb(0,0,0)"/><circle cx="90.40404040404042" cy="262.08679500005087" r="2" fill="rgb(0,0,0)"/><circle cx="95.45454545454545" cy="263.270136713177" r="2" fill="rgb(0,0,0)"/><circle cx="100.5050505050505" cy="391.13483092760816" r="2" fill="rgb(0,0,0)"/><circle cx="105.55555555555554" cy="302.8944921583409" r="2" fill="rgb(0,0,0)"/><circle cx="110.60606060606061" cy="321.9148553210558" r="2" fill="rgb(0,0,0)"/><circle cx="115.65656565656566" cy="322.73231873034666" r="2" fill="rgb(0,0,0)"/><circle cx="120.7070707070707" cy="406.64316252196795" r="2" fill="rgb(0,0,0)"/><circle cx="125.75757575757576" cy="376.3731943734264" r="2" fill="rgb(0,0,0)"/><circle cx="130.80808080808083" cy="386.02240926079696" r="2" fill="rgb(0,0,0)"/><circle cx="135.85858585858585" cy="357.7066564677003" r="2" fill="rgb(0,0,0)"/><circle cx="140.9090909090909" cy="358.4705002919358" r="2" fill="rgb(0,0,0)"/><circle cx="145.95959595959596" cy="410.51527332093315" r="2" fill="rgb(0,0,0)"/><circle cx="151.010101010101" cy="358.28677870216336" r="2" fill="rgb(0,0,0)"/><circle cx="156.06060606060606" cy="359.4555322994174" r="2" fill="rgb(0,0,0)"/><circle cx="161.1111111111111" cy="374.10928226969844" r="2" fill="rgb(0,0,0)"/><circle cx="166.16161616161617" cy="375.32184126638117" r="2" fill="rgb(0,0,0)"/><circle cx="171.21212121212122" cy="356.9943164024237" r="2" fill="rgb(0,0,0)"/><circle cx="176.26262626262627" cy="389.2122927721558" r="2" fill="rgb(0,0,0)"/><circle cx="181.31313131313132" cy="388.0916986560486" r="2" fill="rgb(0,0,0)"/><circle cx="186.36363636363635" cy="363.0888770036512" r="2" fill="rgb(0,0,0)"/><circle cx="191.4141414141414" cy="364.18759261869263" r="2" fill="rgb(0,0,0)"/><circle cx="196.46464646464648" cy="357.6915687818419" r="2" fill="rgb(0,0,0)"/><circle cx="201.51515151515153" cy="366.56484813462055" r="2" fill="rgb(0,0,0)"/><circle cx="206.56565656565658" cy="378.1940870129091" r="2" fill="rgb(0,0,0)"/><circle cx="211.61616161616163" cy="365.8478527811963" r="2" fill="rgb(0,0,0)"/><circle cx="216.66666666666666" cy="367.34011023154375" r="2" fill="rgb(0,0,0)"/><circle cx="221.7171717171717" cy="386.1806593997576" r="2" fill="rgb(0,0,0)"/><circle cx="226.76767676767676" cy="395.9531566522627" r="2" fill="rgb(0,0,0)"/><circle cx="231.8181818181818" cy="276.1554854845779" r="2" fill="rgb(0,0,0)"/><circle cx="236.86868686868686" cy="289.3737256330259" r="2" fill="rgb(0,0,0)"/><circle cx="241.91919191919192" cy="297.55470926599367" r="2" fill="rgb(0,0,0)"/><circle cx="246.96969696969697" cy="400.9312957728568" r="2" fill="rgb(0,0,0)"/><circle cx="252.02020202020202" cy="377.65033058576364" r="2" fill="rgb(0,0,0)"/><circle cx="257.07070707070704" cy="377.7360309577621" r="2" fill="rgb(0,0,0)"/><circle cx="262.1212121212121" cy="377.4920797673868" r="2" fill="rgb(0,0,0)"/><circle cx="267.1717171717172" cy="371.61566909656494" r="2" fill="rgb(0,0,0)"/><circle cx="272.2222222222222" cy="321.0828500468811" r="2" fill="rgb(0,0,0)"/><circle cx="277.27272727272725" cy="250.26320565290985" r="2" fill="rgb(0,0,0)"/><circle cx="282.32323232323233" cy="353.8598314144872" r="2" fill="rgb(0,0,0)"/><circle cx="287.3737373737374" cy="238.68203400318492" r="2" fill="rgb(0,0,0)"/><circle cx="292.42424242424244" cy="323.01633749541054" r="2" fill="rgb(0,0,0)"/><circle cx="297.47474747474746" cy="323.68693704931866" r="2" fill="rgb(0,0,0)"/><circle cx="302.52525252525254" cy="391.6130169589593" r="2" fill="rgb(0,0,0)"/><circle cx="307.57575757575756" cy="372.6867034293325" r="2" fill="rgb(0,0,0)"/><circle cx="312.62626262626264" cy="381.05665069017596" r="2" fill="rgb(0,0,0)"/><circle cx="317.67676767676767" cy="344.21094973463903" r="2" fill="rgb(0,0,0)"/><circle cx="322.7272727272727" cy="413.8299988597006" r="2" fill="rgb(0,0,0)"/><circle cx="327.77777777777777" cy="414.1396978514124" r="2" fill="rgb(0,0,0)"/><circle cx="332.8282828282828" cy="323.27567250466336" r="2" fill="rgb(0,0,0)"/><circle cx="337.8787878787879" cy="367.21982439176895" r="2" fill="rgb(0,0,0)"/><circle cx="342.92929292929296" cy="331.78399655264036" r="2" fill="rgb(0,0,0)"/><circle cx="347.979797979798" cy="367.7561909219818" r="2" fill="rgb(0,0,0)"/><circle cx="353.03030303030306" cy="368.8890093609404" r="2" fill="rgb(0,0,0)"/><circle cx="358.0808080808081" cy="384.7588354956839" r="2" fill="rgb(0,0,0)"/><circle cx="363.13131313131316" cy="369.803088452596" r="2" fill="rgb(0,0,0)"/><circle cx="368.1818181818182" cy="399.2353888344545" r="2" fill="rgb(0,0,0)"/><circle cx="373.23232323232327" cy="399.2353888344545" r="2" fill="rgb(0,0,0)"/><circle cx="378.2828282828283" cy="333.23567117488744" r="2" fill="rgb(0,0,0)"/><circle cx="383.3333333333333" cy="376.88892334068294" r="2" fill="rgb(0,0,0)"/><circle cx="388.3838383838384" cy="411.5109396567691" r="2" fill="rgb(0,0,0)"/><circle cx="393.4343434343434" cy="393.18107915350316" r="2" fill="rgb(0,0,0)"/><circle cx="398.4848484848485" cy="283.1941869771725" r="2" fill="rgb(0,0,0)"/><circle cx="403.5353535353535" cy="397.86814872995836" r="2" fill="rgb(0,0,0)"/><circle cx="408.58585858585855" cy="317.57545305826136" r="2" fill="rgb(0,0,0)"/><circle cx="413.6363636363636" cy="393.8696238679896" r="2" fill="rgb(0,0,0)"/><circle cx="418.68686868686865" cy="400.3176039199254" r="2" fill="rgb(0,0,0)"/><circle cx="423.73737373737373" cy="393.5890632278772" r="2" fill="rgb(0,0,0)"/><circle cx="428.7878787878788" cy="393.5605674378013" r="2" fill="rgb(0,0,0)"/><circle cx="433.83838383838383" cy="253.62178873692977" r="2" fill="rgb(0,0,0)"/><circle cx="438.8888888888889" cy="333.05636279056193" r="2" fill="rgb(0,0,0)"/><circle cx="443.93939393939394" cy="273.7982787831131" r="2" fill="rgb(0,0,0)"/><circle cx="448.989898989899" cy="159.4295974127295" r="2" fill="rgb(0,0,0)"/><circle cx="454.04040404040404" cy="401.00767318537584" r="2" fill="rgb(0,0,0)"/><circle cx="459.0909090909091" cy="401.25009174157105" r="2" fill="rgb(0,0,0)"/><circle cx="464.14141414141415" cy="400.5216977060418" r="2" fill="rgb(0,0,0)"/><circle cx="469.19191919191917" cy="400.53225502596314" r="2" fill="rgb(0,0,0)"/><circle cx="474.24242424242425" cy="376.58894274123816" r="2" fill="rgb(0,0,0)"/><circle cx="479.2929292929293" cy="270.0115329343137" r="2" fill="rgb(0,0,0)"/><circle cx="484.34343434343435" cy="193.0081585577048" r="2" fill="rgb(0,0,0)"/><circle cx="489.3939393939394" cy="191.81271904714828" r="2" fill="rgb(0,0,0)"/><circle cx="494.4444444444444" cy="133.18737386068608" r="2" fill="rgb(0,0,0)"/><circle cx="499.4949494949495" cy="369.668950581276" r="2" fill="rgb(0,0,0)"/><circle cx="504.5454545454545" cy="138.3779675139241" r="2" fill="rgb(0,0,0)"/><circle cx="509.59595959595964" cy="376.87998314678384" r="2" fill="rgb(0,0,0)"/><circle cx="514.6464646464647" cy="201.08764797772568" r="2" fill="rgb(0,0,0)"/><circle cx="519.6969696969697" cy="311.05382426182985" r="2" fill="rgb(0,0,0)"/><circle cx="524.7474747474748" cy="355.3778871577896" r="2" fill="rgb(0,0,0)"/><circle cx="529.7979797979798" cy="203.8681426954103" r="2" fill="rgb(0,0,0)"/><circle cx="534.8484848484849" cy="419.17950531335697" r="2" fill="rgb(0,0,0)"/><circle cx="539.8989898989898" cy="419.18230058703074" r="2" fill="rgb(0,0,0)"/><circle cx="544.9494949494949" cy="378.00294081270374" r="2" fill="rgb(0,0,0)"/><circle cx="550.0" cy="377.7058770749451" r="2" fill="rgb(0,0,0)"/><polyline points="50.0,197.75931600656241 55.05050505050505,179.10594698965514 60.101010101010104,157.2254633130308 65.15151515151516,134.25802742715 70.20202020202021,117.33935424450311 75.25252525252526,100.79980656009116 80.30303030303031,97.41031355985064 85.35353535353535,87.50462679607705 90.40404040404042,82.7202807440512 95.45454545454545,78.86735095169263 100.5050505050505,81.11971514806862 105.55555555555554,78.74135407374666 110.60606060606061,83.38868485494874 115.65656565656566,81.65158803369769 120.7070707070707,79.87046442449741 125.75757575757576,75.36259232439022 130.80808080808083,80.21332742253355 135.85858585858585,73.55141982629169 140.9090909090909,77.2568877177867 145.95959595959596,81.99365661539537 151.010101010101,82.46376938427699 156.06060606060606,75.69066725767493 161.1111111111111,71.5256537936429 166.16161616161617,76.13414991625524 171.21212121212122,77.910209197261 176.26262626262627,82.07642793741132 181.31313131313132,72.72268189981952 186.36363636363635,73.79819835602092 191.4141414141414,76.87211227457806 196.46464646464648,74.1320740588979 201.51515151515153,80.58708778979667 206.56565656565658,83.2442748758009 211.61616161616163,74.05831260974423 216.66666666666666,72.35819102849433 221.7171717171717,76.26249281785846 226.76767676767676,73.21654231765848 231.8181818181818,67.7983472522389 236.86868686868686,69.01601692259266 241.91919191919192,69.59751350493389 246.96969696969697,68.94290854525599 252.02020202020202,67.42774422303296 257.07070707070704,69.07711208949002 262.1212121212121,73.62041678406467 267.1717171717172,65.91918384505635 272.2222222222222,65.75584414800915 277.27272727272725,62.26685708789188 282.32323232323233,68.72915866391253 287.3737373737374,63.56570323673026 292.42424242424244,65.38147032076489 297.47474747474746,67.42984829805022 302.52525252525254,71.11705309907381 307.57575757575756,73.39674132636162 312.62626262626264,79.04948329848128 317.67676767676767,69.17323609185576 322.7272727272727,68.89950945209671 327.77777777777777,70.99866294052674 332.8282828282828,67.94202818433251 337.8787878787879,72.14117604120128 342.92929292929296,64.8361588302688 347.979797979798,65.09002827945665 353.03030303030306,68.97275560479375 358.0808080808081,71.06451373256766 363.13131313131316,71.82714801293804 368.1818181818182,70.92011703528749 373.23232323232327,72.1067283301806 378.2828282828283,65.2052757555735 383.3333333333333,68.88327828494431 388.3838383838384,71.85111088771595 393.4343434343434,73.98263984767163 398.4848484848485,59.125042375872795 403.5353535353535,62.21991984764696 408.58585858585855,58.817241273665616 413.6363636363636,59.152322301614504 418.68686868686865,68.14688811283531 423.73737373737373,69.56479034837179 428.7878787878788,63.67797408712289 433.83838383838383,55.76328992708426 438.8888888888889,54.930038258551235 443.93939393939394,55.30474278869747 448.989898989899,54.103846243493706 454.04040404040404,62.185352176522144 459.0909090909091,64.05208018321787 464.14141414141415,55.558736960029364 469.19191919191917,62.25543839089892 474.24242424242425,67.35820957147519 479.2929292929293,61.46384431705252 484.34343434343435,55.52185778785639 489.3939393939394,54.734670440336345 494.4444444444444,53.08581876782853 499.4949494949495,62.050165787234334 504.5454545454545,55.7352665537403 509.59595959595964,55.216348578808265 514.6464646464647,53.47062226128156 519.6969696969697,60.36667481527468 524.7474747474748,58.25546508766422 529.7979797979798,57.44253681776257 534.8484848484849,66.99977794168814 539.8989898989898,66.78516961651769 544.9494949494949,73.6363524366746 550.0,72.76935366476073" fill="none" stroke="rgb(0,0,255)" stroke-width="1"/><circle cx="50.0" cy="197.75931600656241" r="2" fill="rgb(0,0,255)"/><circle cx="55.05050505050505" cy="179.10594698965514" r="2" fill="rgb(0,0,255)"/><circle cx="60.101010101010104" cy="157.2254633130308" r="2" fill="rgb(0,0,255)"/><circle cx="65.15151515151516" cy="134.25802742715" r="2" fill="rgb(0,0,255)"/><circle cx="70.20202020202021" cy="117.33935424450311" r="2" fill="rgb(0,0,255)"/><circle cx="75.25252525252526" cy="100.79980656009116" r="2" fill="rgb(0,0,255)"/><circle cx="80.30303030303031" cy="97.41031355985064" r="2" fill="rgb(0,0,255)"/><circle cx="85.35353535353535" cy="87.50462679607705" r="2" fill="rgb(0,0,255)"/><circle cx="90.40404040404042" cy="82.7202807440512" r="2" fill="rgb(0,0,255)"/><circle cx="95.45454545454545" cy="78.86735095169263" r="2" fill="rgb(0,0,255)"/><circle cx="100.5050505050505" cy="81.11971514806862" r="2" fill="rgb(0,0,255)"/><circle cx="105.55555555555554" cy="78.74135407374666" r="2" fill="rgb(0,0,255)"/><circle cx="110.60606060606061" cy="83.38868485494874" r="2" fill="rgb(0,0,255)"/><circle cx="115.65656565656566" cy="81.65158803369769" r="2" fill="rgb(0,0,255)"/><circle cx="120.7070707070707" cy="79.87046442449741" r="2" fill="rgb(0,0,255)"/><circle cx="125.75757575757576" cy="75.36259232439022" r="2" fill="rgb(0,0,255)"/><circle cx="130.80808080808083" cy="80.21332742253355" r="2" fill="rgb(0,0,255)"/><circle cx="135.85858585858585" cy="73.55141982629169" r="2" fill="rgb(0,0,255)"/><circle cx="140.9090909090909" cy="77.2568877177867" r="2" fill="rgb(0,0,255)"/><circle cx="145.95959595959596" cy="81.99365661539537" r="2" fill="rgb(0,0,255)"/><circle cx="151.010101010101" cy="82.46376938427699" r="2" fill="rgb(0,0,255)"/><circle cx="156.06060606060606" cy="75.69066725767493" r="2" fill="rgb(0,0,255)"/><circle cx="161.1111111111111" cy="71.5256537936429" r="2" fill="rgb(0,0,255)"/><circle cx="166.16161616161617" cy="76.13414991625524" r="2" fill="rgb(0,0,255)"/><circle cx="171.21212121212122" cy="77.910209197261" r="2" fill="rgb(0,0,255)"/><circle cx="176.26262626262627" cy="82.07642793741132" r="2" fill="rgb(0,0,255)"/><circle cx="181.31313131313132" cy="72.72268189981952" r="2" fill="rgb(0,0,255)"/><circle cx="186.36363636363635" cy="73.79819835602092" r="2" fill="rgb(0,0,255)"/><circle cx="191.4141414141414" cy="76.87211227457806" r="2" fill="rgb(0,0,255)"/><circle cx="196.46464646464648" cy="74.1320740588979" r="2" fill="rgb(0,0,255)"/><circle cx="201.51515151515153" cy="80.58708778979667" r="2" fill="rgb(0,0,255)"/><circle cx="206.56565656565658" cy="83.2442748758009" r="2" fill="rgb(0,0,255)"/><circle cx="211.61616161616163" cy="74.05831260974423" r="2" fill="rgb(0,0,255)"/><circle cx="216.66666666666666" cy="72.35819102849433" r="2" fill="rgb(0,0,255)"/><circle cx="221.7171717171717" cy="76.26249281785846" r="2" fill="rgb(0,0,255)"/><circle cx="226.76767676767676" cy="73.21654231765848" r="2" fill="rgb(0,0,255)"/><circle cx="231.8181818181818" cy="67.7983472522389" r="2" fill="rgb(0,0,255)"/><circle cx="236.86868686868686" cy="69.01601692259266" r="2" fill="rgb(0,0,255)"/><circle cx="241.91919191919192" cy="69.59751350493389" r="2" fill="rgb(0,0,255)"/><circle cx="246.96969696969697" cy="68.94290854525599" r="2" fill="rgb(0,0,255)"/><circle cx="252.02020202020202" cy="67.42774422303296" r="2" fill="rgb(0,0,255)"/><circle cx="257.07070707070704" cy="69.07711208949002" r="2" fill="rgb(0,0,255)"/><circle cx="262.1212121212121" cy="73.62041678406467" r="2" fill="rgb(0,0,255)"/><circle cx="267.1717171717172" cy="65.91918384505635" r="2" fill="rgb(0,0,255)"/><circle cx="272.2222222222222" cy="65.75584414800915" r="2" fill="rgb(0,0,255)"/><circle cx="277.27272727272725" cy="62.26685708789188" r="2" fill="rgb(0,0,255)"/><circle cx="282.32323232323233" cy="68.72915866391253" r="2" fill="rgb(0,0,255)"/><circle cx="287.3737373737374" cy="63.56570323673026" r="2" fill="rgb(0,0,255)"/><circle cx="292.42424242424244" cy="65.38147032076489" r="2" fill="rgb(0,0,255)"/><circle cx="297.47474747474746" cy="67.42984829805022" r="2" fill="rgb(0,0,255)"/><circle cx="302.52525252525254" cy="71.11705309907381" r="2" fill="rgb(0,0,255)"/><circle cx="307.57575757575756" cy="73.39674132636162" r="2" fill="rgb(0,0,255)"/><circle cx="312.62626262626264" cy="79.04948329848128" r="2" fill="rgb(0,0,255)"/><circle cx="317.67676767676767" cy="69.17323609185576" r="2" fill="rgb(0,0,255)"/><circle cx="322.7272727272727" cy="68.89950945209671" r="2" fill="rgb(0,0,255)"/><circle cx="327.77777777777777" cy="70.99866294052674" r="2" fill="rgb(0,0,255)"/><circle cx="332.8282828282828" cy="67.94202818433251" r="2" fill="rgb(0,0,255)"/><circle cx="337.8787878787879" cy="72.14117604120128" r="2" fill="rgb(0,0,255)"/><circle cx="342.92929292929296" cy="64.8361588302688" r="2" fill="rgb(0,0,255)"/><circle cx="347.979797979798" cy="65.09002827945665" r="2" fill="rgb(0,0,255)"/><circle cx="353.03030303030306" cy="68.97275560479375" r="2" fill="rgb(0,0,255)"/><circle cx="358.0808080808081" cy="71.06451373256766" r="2" fill="rgb(0,0,255)"/><circle cx="363.13131313131316" cy="71.82714801293804" r="2" fill="rgb(0,0,255)"/><circle cx="368.1818181818182" cy="70.92011703528749" r="2" fill="rgb(0,0,255)"/><circle cx="373.23232323232327" cy="72.1067283301806" r="2" fill="rgb(0,0,255)"/><circle cx="378.2828282828283" cy="65.2052757555735" r="2" fill="rgb(0,0,255)"/><circle cx="383.3333333333333" cy="68.88327828494431" r="2" fill="rgb(0,0,255)"/><circle cx="388.3838383838384" cy="71.85111088771595" r="2" fill="rgb(0,0,255)"/><circle cx="393.4343434343434" cy="73.98263984767163" r="2" fill="rgb(0,0,255)"/><circle cx="398.4848484848485" cy="59.125042375872795" r="2" fill="rgb(0,0,255)"/><circle cx="403.5353535353535" cy="62.21991984764696" r="2" fill="rgb(0,0,255)"/><circle cx="408.58585858585855" cy="58.817241273665616" r="2" fill="rgb(0,0,255)"/><circle cx="413.6363636363636" cy="59.152322301614504" r="2" fill="rgb(0,0,255)"/><circle cx="418.68686868686865" cy="68.14688811283531" r="2" fill="rgb(0,0,255)"/><circle cx="423.73737373737373" cy="69.56479034837179" r="2" fill="rgb(0,0,255)"/><circle cx="428.7878787878788" cy="63.67797408712289" r="2" fill="rgb(0,0,255)"/><circle cx="433.83838383838383" cy="55.76328992708426" r="2" fill="rgb(0,0,255)"/><circle cx="438.8888888888889" cy="54.930038258551235" r="2" fill="rgb(0,0,255)"/><circle cx="443.93939393939394" cy="55.30474278869747" r="2" fill="rgb(0,0,255)"/><circle cx="448.989898989899" cy="54.103846243493706" r="2" fill="rgb(0,0,255)"/><circle cx="454.04040404040404" cy="62.185352176522144" r="2" fill="rgb(0,0,255)"/><circle cx="459.0909090909091" cy="64.05208018321787" r="2" fill="rgb(0,0,255)"/><circle cx="464.14141414141415" cy="55.558736960029364" r="2" fill="rgb(0,0,255)"/><circle cx="469.19191919191917" cy="62.25543839089892" r="2" fill="rgb(0,0,255)"/><circle cx="474.24242424242425" cy="67.35820957147519" r="2" fill="rgb(0,0,255)"/><circle cx="479.2929292929293" cy="61.46384431705252" r="2" fill="rgb(0,0,255)"/><circle cx="484.34343434343435" cy="55.52185778785639" r="2" fill="rgb(0,0,255)"/><circle cx="489.3939393939394" cy="54.734670440336345" r="2" fill="rgb(0,0,255)"/><circle cx="494.4444444444444" cy="53.08581876782853" r="2" fill="rgb(0,0,255)"/><circle cx="499.4949494949495" cy="62.050165787234334" r="2" fill="rgb(0,0,255)"/><circle cx="504.5454545454545" cy="55.7352665537403" r="2" fill="rgb(0,0,255)"/><circle cx="509.59595959595964" cy="55.216348578808265" r="2" fill="rgb(0,0,255)"/><circle cx="514.6464646464647" cy="53.47062226128156" r="2" fill="rgb(0,0,255)"/><circle cx="519.6969696969697" cy="60.36667481527468" r="2" fill="rgb(0,0,255)"/><circle cx="524.7474747474748" cy="58.25546508766422" r="2" fill="rgb(0,0,255)"/><circle cx="529.7979797979798" cy="57.44253681776257" r="2" fill="rgb(0,0,255)"/><circle cx="534.8484848484849" cy="66.99977794168814" r="2" fill="rgb(0,0,255)"/><circle cx="539.8989898989898" cy="66.78516961651769" r="2" fill="rgb(0,0,255)"/><circle cx="544.9494949494949" cy="73.6363524366746" r="2" fill="rgb(0,0,255)"/><circle cx="550.0" cy="72.76935366476073" r="2" fill="rgb(0,0,255)"/><polyline points="50.0,68.05273672412989 55.05050505050505,65.06757969699129 60.101010101010104,65.06757969699129 65.15151515151516,66.51207778017334 70.20202020202021,65.13851234374124 75.25252525252526,63.91114076118532 80.30303030303031,64.89307949864468 85.35353535353535,65.4801396444065 90.40404040404042,64.37505695044223 95.45454545454545,62.377389877937105 100.5050505050505,63.268074042559476 105.55555555555554,61.21251030532278 110.60606060606061,62.560989138178286 115.65656565656566,63.33661693029666 120.7070707070707,62.06736104989176 125.75757575757576,61.15608278908314 130.80808080808083,59.270040192962256 135.85858585858585,60.29362553754771 140.9090909090909,60.44210762909859 145.95959595959596,60.43928966746131 151.010101010101,60.38349063176071 156.06060606060606,59.165643346790375 161.1111111111111,59.42046385395264 166.16161616161617,59.806913779080844 171.21212121212122,58.99719801358532 176.26262626262627,59.5198795088545 181.31313131313132,59.042538657209775 186.36363636363635,59.33325469689299 191.4141414141414,57.723905616036745 196.46464646464648,58.90690682376214 201.51515151515153,58.90690682376214 206.56565656565658,58.992888552054694 211.61616161616163,59.041795553296936 216.66666666666666,58.94771555199628 221.7171717171717,58.880648694197646 226.76767676767676,58.92153712720375 231.8181818181818,58.741900055592794 236.86868686868686,58.80798982930946 241.91919191919192,58.73134273567132 246.96969696969697,58.69994172758186 252.02020202020202,58.69994172758186 257.07070707070704,58.771552428960035 262.1212121212121,58.642331616433125 267.1717171717172,58.75327768275105 272.2222222222222,58.655786900944975 277.27272727272725,58.655786900944975 282.32323232323233,58.6452295810235 287.3737373737374,58.63569293409148 292.42424242424244,58.66839215942315 297.47474747474746,58.66839215942315 302.52525252525254,58.66839215942315 307.57575757575756,58.68174475301839 312.62626262626264,58.6452295810235 317.67676767676767,58.6452295810235 322.7272727272727,57.123505843473595 327.77777777777777,56.88758429607293 332.8282828282828,56.945715581171896 337.8787878787879,56.81220531022137 342.92929292929296,56.864554635013576 347.979797979798,56.80163746456532 353.03030303030306,50.68961658499421 358.0808080808081,50.68961658499421 363.13131313131316,50.72213534737591 368.1818181818182,50.7346920721717 373.23232323232327,50.7346920721717 378.2828282828283,50.57294625350187 383.3333333333333,50.491352855435935 388.3838383838384,50.43808605018302 393.4343434343434,50.568581303352175 398.4848484848485,50.43808605018302 403.5353535353535,50.406204001205765 408.58585858585855,50.495593470415145 413.6363636363636,50.36560285783122 418.68686868686865,50.27927907723199 423.73737373737373,50.27927907723199 428.7878787878788,50.22869592927208 433.83838383838383,50.425514317524915 438.8888888888889,50.43607163744633 443.93939393939394,50.42014758002853 448.989898989899,50.31631814019181 454.04040404040404,50.14046989905569 459.0909090909091,50.18098794849982 464.14141414141415,50.10996716845972 469.19191919191917,50.084242841355206 474.24242424242425,50.06840599729878 479.2929292929293,50.12991257913427 484.34343434343435,50.12991257913427 489.3939393939394,50.03329357944119 494.4444444444444,50.055053403703596 499.4949494949495,50.055053403703596 504.5454545454545,50.055053403703596 509.59595959595964,50.06840599729878 514.6464646464647,50.06561072362507 519.6969696969697,50.084242841355206 524.7474747474748,50.06840599729878 529.7979797979798,50.03329357944119 534.8484848484849,50.0 539.8989898989898,50.02273625951983 544.9494949494949,50.084242841355206 550.0,50.03539241994412" fill="none" stroke="rgb(0,255,0)" stroke-width="1"/><circle cx="50.0" cy="68.05273672412989" r="2" fill="rgb(0,255,0)"/><circle cx="55.05050505050505" cy="65.06757969699129" r="2" fill="rgb(0,255,0)"/><circle cx="60.101010101010104" cy="65.06757969699129" r="2" fill="rgb(0,255,0)"/><circle cx="65.15151515151516" cy="66.51207778017334" r="2" fill="rgb(0,255,0)"/><circle cx="70.20202020202021" cy="65.13851234374124" r="2" fill="rgb(0,255,0)"/><circle cx="75.25252525252526" cy="63.91114076118532" r="2" fill="rgb(0,255,0)"/><circle cx="80.30303030303031" cy="64.89307949864468" r="2" fill="rgb(0,255,0)"/><circle cx="85.35353535353535" cy="65.4801396444065" r="2" fill="rgb(0,255,0)"/><circle cx="90.40404040404042" cy="64.37505695044223" r="2" fill="rgb(0,255,0)"/><circle cx="95.45454545454545" cy="62.377389877937105" r="2" fill="rgb(0,255,0)"/><circle cx="100.5050505050505" cy="63.268074042559476" r="2" fill="rgb(0,255,0)"/><circle cx="105.55555555555554" cy="61.21251030532278" r="2" fill="rgb(0,255,0)"/><circle cx="110.60606060606061" cy="62.560989138178286" r="2" fill="rgb(0,255,0)"/><circle cx="115.65656565656566" cy="63.33661693029666" r="2" fill="rgb(0,255,0)"/><circle cx="120.7070707070707" cy="62.06736104989176" r="2" fill="rgb(0,255,0)"/><circle cx="125.75757575757576" cy="61.15608278908314" r="2" fill="rgb(0,255,0)"/><circle cx="130.80808080808083" cy="59.270040192962256" r="2" fill="rgb(0,255,0)"/><circle cx="135.85858585858585" cy="60.29362553754771" r="2" fill="rgb(0,255,0)"/><circle cx="140.9090909090909" cy="60.44210762909859" r="2" fill="rgb(0,255,0)"/><circle cx="145.95959595959596" cy="60.43928966746131" r="2" fill="rgb(0,255,0)"/><circle cx="151.010101010101" cy="60.38349063176071" r="2" fill="rgb(0,255,0)"/><circle cx="156.06060606060606" cy="59.165643346790375" r="2" fill="rgb(0,255,0)"/><circle cx="161.1111111111111" cy="59.42046385395264" r="2" fill="rgb(0,255,0)"/><circle cx="166.16161616161617" cy="59.806913779080844" r="2" fill="rgb(0,255,0)"/><circle cx="171.21212121212122" cy="58.99719801358532" r="2" fill="rgb(0,255,0)"/><circle cx="176.26262626262627" cy="59.5198795088545" r="2" fill="rgb(0,255,0)"/><circle cx="181.31313131313132" cy="59.042538657209775" r="2" fill="rgb(0,255,0)"/><circle cx="186.36363636363635" cy="59.33325469689299" r="2" fill="rgb(0,255,0)"/><circle cx="191.4141414141414" cy="57.723905616036745" r="2" fill="rgb(0,255,0)"/><circle cx="196.46464646464648" cy="58.90690682376214" r="2" fill="rgb(0,255,0)"/><circle cx="201.51515151515153" cy="58.90690682376214" r="2" fill="rgb(0,255,0)"/><circle cx="206.56565656565658" cy="58.992888552054694" r="2" fill="rgb(0,255,0)"/><circle cx="211.61616161616163" cy="59.041795553296936" r="2" fill="rgb(0,255,0)"/><circle cx="216.66666666666666" cy="58.94771555199628" r="2" fill="rgb(0,255,0)"/><circle cx="221.7171717171717" cy="58.880648694197646" r="2" fill="rgb(0,255,0)"/><circle cx="226.76767676767676" cy="58.92153712720375" r="2" fill="rgb(0,255,0)"/><circle cx="231.8181818181818" cy="58.741900055592794" r="2" fill="rgb(0,255,0)"/><circle cx="236.86868686868686" cy="58.80798982930946" r="2" fill="rgb(0,255,0)"/><circle cx="241.91919191919192" cy="58.73134273567132" r="2" fill="rgb(0,255,0)"/><circle cx="246.96969696969697" cy="58.69994172758186" r="2" fill="rgb(0,255,0)"/><circle cx="252.02020202020202" cy="58.69994172758186" r="2" fill="rgb(0,255,0)"/><circle cx="257.07070707070704" cy="58.771552428960035" r="2" fill="rgb(0,255,0)"/><circle cx="262.1212121212121" cy="58.642331616433125" r="2" fill="rgb(0,255,0)"/><circle cx="267.1717171717172" cy="58.75327768275105" r="2" fill="rgb(0,255,0)"/><circle cx="272.2222222222222" cy="58.655786900944975" r="2" fill="rgb(0,255,0)"/><circle cx="277.27272727272725" cy="58.655786900944975" r="2" fill="rgb(0,255,0)"/><circle cx="282.32323232323233" cy="58.6452295810235" r="2" fill="rgb(0,255,0)"/><circle cx="287.3737373737374" cy="58.63569293409148" r="2" fill="rgb(0,255,0)"/><circle cx="292.42424242424244" cy="58.66839215942315" r="2" fill="rgb(0,255,0)"/><circle cx="297.47474747474746" cy="58.66839215942315" r="2" fill="rgb(0,255,0)"/><circle cx="302.52525252525254" cy="58.66839215942315" r="2" fill="rgb(0,255,0)"/><circle cx="307.57575757575756" cy="58.68174475301839" r="2" fill="rgb(0,255,0)"/><circle cx="312.62626262626264" cy="58.6452295810235" r="2" fill="rgb(0,255,0)"/><circle cx="317.67676767676767" cy="58.6452295810235" r="2" fill="rgb(0,255,0)"/><circle cx="322.7272727272727" cy="57.123505843473595" r="2" fill="rgb(0,255,0)"/><circle cx="327.77777777777777" cy="56.88758429607293" r="2" fill="rgb(0,255,0)"/><circle cx="332.8282828282828" cy="56.945715581171896" r="2" fill="rgb(0,255,0)"/><circle cx="337.8787878787879" cy="56.81220531022137" r="2" fill="rgb(0,255,0)"/><circle cx="342.92929292929296" cy="56.864554635013576" r="2" fill="rgb(0,255,0)"/><circle cx="347.979797979798" cy="56.80163746456532" r="2" fill="rgb(0,255,0)"/><circle cx="353.03030303030306" cy="50.68961658499421" r="2" fill="rgb(0,255,0)"/><circle cx="358.0808080808081" cy="50.68961658499421" r="2" fill="rgb(0,255,0)"/><circle cx="363.13131313131316" cy="50.72213534737591" r="2" fill="rgb(0,255,0)"/><circle cx="368.1818181818182" cy="50.7346920721717" r="2" fill="rgb(0,255,0)"/><circle cx="373.23232323232327" cy="50.7346920721717" r="2" fill="rgb(0,255,0)"/><circle cx="378.2828282828283" cy="50.57294625350187" r="2" fill="rgb(0,255,0)"/><circle cx="383.3333333333333" cy="50.491352855435935" r="2" fill="rgb(0,255,0)"/><circle cx="388.3838383838384" cy="50.43808605018302" r="2" fill="rgb(0,255,0)"/><circle cx="393.4343434343434" cy="50.568581303352175" r="2" fill="rgb(0,255,0)"/><circle cx="398.4848484848485" cy="50.43808605018302" r="2" fill="rgb(0,255,0)"/><circle cx="403.5353535353535" cy="50.406204001205765" r="2" fill="rgb(0,255,0)"/><circle cx="408.58585858585855" cy="50.495593470415145" r="2" fill="rgb(0,255,0)"/><circle cx="413.6363636363636" cy="50.36560285783122" r="2" fill="rgb(0,255,0)"/><circle cx="418.68686868686865" cy="50.27927907723199" r="2" fill="rgb(0,255,0)"/><circle cx="423.73737373737373" cy="50.27927907723199" r="2" fill="rgb(0,255,0)"/><circle cx="428.7878787878788" cy="50.22869592927208" r="2" fill="rgb(0,255,0)"/><circle cx="433.83838383838383" cy="50.425514317524915" r="2" fill="rgb(0,255,0)"/><circle cx="438.8888888888889" cy="50.43607163744633" r="2" fill="rgb(0,255,0)"/><circle cx="443.93939393939394" cy="50.42014758002853" r="2" fill="rgb(0,255,0)"/><circle cx="448.989898989899" cy="50.31631814019181" r="2" fill="rgb(0,255,0)"/><circle cx="454.04040404040404" cy="50.14046989905569" r="2" fill="rgb(0,255,0)"/><circle cx="459.0909090909091" cy="50.18098794849982" r="2" fill="rgb(0,255,0)"/><circle cx="464.14141414141415" cy="50.10996716845972" r="2" fill="rgb(0,255,0)"/><circle cx="469.19191919191917" cy="50.084242841355206" r="2" fill="rgb(0,255,0)"/><circle cx="474.24242424242425" cy="50.06840599729878" r="2" fill="rgb(0,255,0)"/><circle cx="479.2929292929293" cy="50.12991257913427" r="2" fill="rgb(0,255,0)"/><circle cx="484.34343434343435" cy="50.12991257913427" r="2" fill="rgb(0,255,0)"/><circle cx="489.3939393939394" cy="50.03329357944119" r="2" fill="rgb(0,255,0)"/><circle cx="494.4444444444444" cy="50.055053403703596" r="2" fill="rgb(0,255,0)"/><circle cx="499.4949494949495" cy="50.055053403703596" r="2" fill="rgb(0,255,0)"/><circle cx="504.5454545454545" cy="50.055053403703596" r="2" fill="rgb(0,255,0)"/><circle cx="509.59595959595964" cy="50.06840599729878" r="2" fill="rgb(0,255,0)"/><circle cx="514.6464646464647" cy="50.06561072362507" r="2" fill="rgb(0,255,0)"/><circle cx="519.6969696969697" cy="50.084242841355206" r="2" fill="rgb(0,255,0)"/><circle cx="524.7474747474748" cy="50.06840599729878" r="2" fill="rgb(0,255,0)"/><circle cx="529.7979797979798" cy="50.03329357944119" r="2" fill="rgb(0,255,0)"/><circle cx="534.8484848484849" cy="50.0" r="2" fill="rgb(0,255,0)"/><circle cx="539.8989898989898" cy="50.02273625951983" r="2" fill="rgb(0,255,0)"/><circle cx="544.9494949494949" cy="50.084242841355206" r="2" fill="rgb(0,255,0)"/><circle cx="550.0" cy="50.03539241994412" r="2" fill="rgb(0,255,0)"/><text x="350.0" y="20.0" text-anchor="middle" fill="rgb(0,0,0)" font-size="20.0">GA Demo</text><text x="350.0" y="575.0" text-anchor="middle" fill="rgb(0,0,0)" font-size="12.0">generation</text><text transform="rotate(-90.0 20.0 300.0)" x="20.0" y="300.0" text-anchor="middle" fill="rgb(0,0,0)" font-size="12.0">fitness</text><text x="620" y="62" fill="rgb(0,0,0)" font-size="12">min</text><text x="620" y="74" fill="rgb(0,0,255)" font-size="12">ave</text><text x="620" y="86" fill="rgb(0,255,0)" font-size="12">max</text>
      Sorry, your browser does not support inline SVG.
    </svg>