<?xml version='1.0' encoding='UTF-8'?>
<svg version="1.1" width="700.0" height="600.0" onload="init(evt)" xmlns="http://www.w3.org/2000/svg">
      <style>.caption {
  font-size: 14px;
  font-family: Georgia, serif;
}
</style>
      <script type="text/ecmascript"><![CDATA[
function init(evt) {
  if ( window.svgDocument == null ) {
    svgDocument = evt.target.ownerDocument;
  }
}

function RectHover(evt, i, c) {
  rect = svgDocument.getElementById('rect' + i);
  if( c != null ) {
    rect.setAttributeNS(null, "fill", c)  
  }
  tooltiptext = svgDocument.getElementById('tooltiptext' + i);
  tooltipbg = svgDocument.getElementById('tooltipbg' + i);
  if( tooltipbg != null) {
    tbb = tooltiptext.getBBox();
    tooltipbg.setAttributeNS(null, "width", tbb.width);
    tooltipbg.setAttributeNS(null, "height", tbb.height);
    tooltipbg.setAttributeNS(null, "x", tbb.x);
    tooltipbg.setAttributeNS(null, "y", tbb.y);
    tooltipbg.setAttributeNS(null, "visibility", "visible");
  }
  tooltiptext.setAttributeNS(null,"visibility","visible");
}

function RectUnhover(evt, i, c) {
  rect = svgDocument.getElementById('rect' + i);
  if( c != null ) {
    rect.setAttributeNS(null, "fill", c)  
  }
  tooltiptext = svgDocument.getElementById('tooltiptext' + i);
  tooltiptext.setAttributeNS(null,"visibility","hidden");
  tooltipbg = svgDocument.getElementById('tooltipbg' + i);
  if( tooltipbg != null ) {
    tooltipbg.setAttributeNS(null,"visibility","hidden");
  }
}
]]></script>
      <line x1="50.0" y1="550.0" x2="550.0" y2="550.0" stroke="rgb(0,0,0)" stroke-width="1"/><line x1="50.0" y1="550.0" x2="50.0" y2="50.0" stroke="rgb(0,0,0)" stroke-width="1"/><line x1="50.0" y1="550.0" x2="50.0" y2="50.0" stroke="rgb(192,192,192)" stroke-width="1"/><line x1="50.0" y1="548.0" x2="50.0" y2="552.0" stroke="rgb(192,192,192)" stroke-width="1"/><text text-anchor="middle" alignment-baseline="hanging" x="50.0" y="553.0" font-size="12.0">0</text><line x1="100.5050505050505" y1="550.0" x2="100.5050505050505" y2="50.0" stroke="rgb(192,192,192)" stroke-width="1"/><line x1="100.5050505050505" y1="548.0" x2="100.5050505050505" y2="552.0" stroke="rgb(192,192,192)" stroke-width="1"/><text text-anchor="middle" alignment-baseline="hanging" x="100.5050505050505" y="553.0" font-size="12.0">10</text><line x1="151.010101010101" y1="550.0" x2="151.010101010101" y2="50.0" stroke="rgb(192,192,192)" stroke-width="1"/><line x1="151.010101010101" y1="548.0" x2="151.010101010101" y2="552.0" stroke="rgb(192,192,192)" stroke-width="1"/><text text-anchor="middle" alignment-baseline="hanging" x="151.010101010101" y="553.0" font-size="12.0">20</text><line x1="201.51515151515153" y1="550.0" x2="201.51515151515153" y2="50.0" stroke="rgb(192,192,192)" stroke-width="1"/><line x1="201.51515151515153" y1="548.0" x2="201.51515151515153" y2="552.0" stroke="rgb(192,192,192)" stroke-width="1"/><text text-anchor="middle" alignment-baseline="hanging" x="201.51515151515153" y="553.0" font-size="12.0">30</text><line x1="252.02020202020202" y1="550.0" x2="252.02020202020202" y2="50.0" stroke="rgb(192,192,192)" stroke-width="1"/><line x1="252.02020202020202" y1="548.0" x2="252.02020202020202" y2="552.0" stroke="rgb(192,192,192)" stroke-width="1"/><text text-anchor="middle" alignment-baseline="hanging" x="252.02020202020202" y="553.0" font-size="12.0">40</text><line x1="302.52525252525254" y1="550.0" x2="302.52525252525254" y2="50.0" stroke="rgb(192,192,192)" stroke-width="1"/><line x1="302.52525252525254" y1="548.0" x2="302.52525252525254" y2="552.0" stroke="rgb(192,192,192)" stroke-width="1"/><text text-anchor="middle" alignment-baseline="hanging" x="302.52525252525254" y="553.0" font-size="12.0">50</text><line x1="353.03030303030306" y1="550.0" x2="353.03030303030306" y2="50.0" stroke="rgb(192,192,192)" stroke-width="1"/><line x1="353.03030303030306" y1="548.0" x2="353.03030303030306" y2="552.0" stroke="rgb(192,192,192)" stroke-width="1"/><text text-anchor="middle" alignment-baseline="hanging" x="353.03030303030306" y="553.0" font-size="12.0">60</text><line x1="403.5353535353535" y1="550.0" x2="403.5353535353535" y2="50.0" stroke="rgb(192,192,192)" stroke-width="1"/><line x1="403.5353535353535" y1="548.0" x2="403.5353535353535" y2="552.0" stroke="rgb(192,192,192)" stroke-width="1"/><text text-anchor="middle" alignment-baseline="hanging" x="403.5353535353535" y="553.0" font-size="12.0">70</text><line x1="454.04040404040404" y1="550.0" x2="454.04040404040404" y2="50.0" stroke="rgb(192,192,192)" stroke-width="1"/><line x1="454.04040404040404" y1="548.0" x2="454.04040404040404" y2="552.0" stroke="rgb(192,192,192)" stroke-width="1"/><text text-anchor="middle" alignment-baseline="hanging" x="454.04040404040404" y="553.0" font-size="12.0">80</text><line x1="504.5454545454545" y1="550.0" x2="504.5454545454545" y2="50.0" stroke="rgb(192,192,192)" stroke-width="1"/><line x1="504.5454545454545" y1="548.0" x2="504.5454545454545" y2="552.0" stroke="rgb(192,192,192)" stroke-width="1"/><text text-anchor="middle" alignment-baseline="hanging" x="504.5454545454545" y="553.0" font-size="12.0">90</text><line x1="50.0" y1="550.0" x2="550.0" y2="550.0" stroke="rgb(192,192,192)" stroke-width="1"/><text text-anchor="end" alignment-baseline="middle" x="45.0" y="550.0" font-size="12.0">0.0</text><line x1="48.0" y1="550.0" x2="52.0" y2="550.0" stroke="rgb(192,192,192)" stroke-width="1"/><line x1="50.0" y1="368.13381919783575" x2="550.0" y2="368.13381919783575" stroke="rgb(192,192,192)" stroke-width="1"/><text text-anchor="end" alignment-baseline="middle" x="45.0" y="368.13381919783575" font-size="12.0">1000.0</text><line x1="48.0" y1="368.13381919783575" x2="52.0" y2="368.13381919783575" stroke="rgb(192,192,192)" stroke-width="1"/><line x1="50.0" y1="186.2676383956715" x2="550.0" y2="186.2676383956715" stroke="rgb(192,192,192)" stroke-width="1"/><text text-anchor="end" alignment-baseline="middle" x="45.0" y="186.2676383956715" font-size="12.0">2000.0</text><line x1="48.0" y1="186.2676383956715" x2="52.0" y2="186.2676383956715" stroke="rgb(192,192,192)" stroke-width="1"/><polyline points="50.0,418.84075675763154 55.05050505050505,415.5457765143025 60.101010101010104,353.9228667647204 65.15151515151516,314.1195955458105 70.20202020202021,306.81823014561166 75.25252525252526,304.7644536285667 80.30303030303031,305.7092188578871 85.35353535353535,150.63576102583556 90.40404040404042,422.65510260160147 95.45454545454545,258.9426266544772 100.5050505050505,322.0562552220458 105.55555555555554,417.72408912756504 110.60606060606061,397.0121656781025 115.65656565656566,377.37123822208923 120.7070707070707,378.4709221009416 125.75757575757576,377.70196790611874 130.80808080808083,235.16612047746514 135.85858585858585,396.8717520191176 140.9090909090909,314.68621176723804 145.95959595959596,315.25553438481074 151.010101010101,404.472076853968 156.06060606060606,405.71637364434963 161.1111111111111,346.82606051357897 166.16161616161617,367.3706207086424 171.21212121212122,285.37172391492845 176.26262626262627,362.5719468073446 181.31313131313132,296.150036257922 186.36363636363635,405.5408534294429 191.4141414141414,404.96941496602483 196.46464646464648,361.46414772822243 201.51515151515153,387.1025498864762 206.56565656565658,372.2721224208502 211.61616161616163,337.6991091056126 216.66666666666666,348.2379609062293 221.7171717171717,348.64541323476476 226.76767676767676,349.2609701404939 231.8181818181818,371.49677213394443 236.86868686868686,348.78292770752125 241.91919191919192,147.4462856528558 246.96969696969697,248.0353902586229 252.02020202020202,79.5195919077832 257.07070707070704,365.859759752773 262.1212121212121,374.0328506580179 267.1717171717172,374.0328506580179 272.2222222222222,374.0328506580179 277.27272727272725,373.98289447748175 282.32323232323233,373.7335125603606 287.3737373737374,253.89088536984565 292.42424242424244,205.14518917586946 297.47474747474746,279.61217237702806 302.52525252525254,392.1421153127059 307.57575757575756,335.3250022935214 312.62626262626264,320.3687552243052 317.67676767676767,246.77323457715852 322.7272727272727,175.98180501128286 327.77777777777777,223.97650282413048 332.8282828282828,395.23967704768387 337.8787878787879,398.2044707945778 342.92929292929296,361.41879550381935 347.979797979798,362.3667667021885 353.03030303030306,345.8638736147202 358.0808080808081,411.4913864023555 363.13131313131316,353.61251118882547 368.1818181818182,352.6910402676989 373.23232323232327,352.6910402676989 378.2828282828283,381.4191024445753 383.3333333333333,381.3348455810104 388.3838383838384,373.536457244872 393.4343434343434,376.158384110851 398.4848484848485,374.3683065666832 403.5353535353535,99.26691359398939 408.58585858585855,302.49894949700587 413.6363636363636,353.3721805060701 418.68686868686865,346.56674743397696 423.73737373737373,345.66572936060425 428.7878787878788,332.45949329225505 433.83838383838383,406.13563886322333 438.8888888888889,413.37857532071433 443.93939393939394,413.37857532071433 448.989898989899,352.1612283867155 454.04040404040404,387.25704996577156 459.0909090909091,387.25704996577156 464.14141414141415,386.5474968498676 469.19191919191917,388.0019210606763 474.24242424242425,405.1716155936773 479.2929292929293,409.99295294136846 484.34343434343435,284.0326493965667 489.3939393939394,378.5175474652798 494.4444444444444,378.5175474652798 499.4949494949495,360.5093979323538 504.5454545454545,360.4514095979038 509.59595959595964,389.81529420029375 514.6464646464647,389.81529420029375 519.6969696969697,390.0367070395871 524.7474747474748,389.81529420029375 529.7979797979798,389.81529420029375 534.8484848484849,389.81529420029375 539.8989898989898,368.1647590097167 544.9494949494949,369.39160232205313 550.0,363.80421386095634" fill="none" stroke="rgb(0,0,0)" stroke-width="1"/><circle cx="50.0" cy="418.84075675763154" r="2" fill="rgb(0,0,0)"/><circle cx="55.05050505050505" cy="415.5457765143025" r="2" fill="rgb(0,0,0)"/><circle cx="60.101010101010104" cy="353.9228667647204" r="2" fill="rgb(0,0,0)"/><circle cx="65.15151515151516" cy="314.1195955458105" r="2" fill="rgb(0,0,0)"/><circle cx="70.20202020202021" cy="306.81823014561166" r="2" fill="rgb(0,0,0)"/><circle cx="75.25252525252526" cy="304.7644536285667" r="2" fill="rgb(0,0,0)"/><circle cx="80.30303030303031" cy="305.7092188578871" r="2" fill="rgb(0,0,0)"/><circle cx="85.35353535353535" cy="150.63576102583556" r="2" fill="rgb(0,0,0)"/><circle cx="90.40404040404042" cy="422.65510260160147" r="2" fill="rgb(0,0,0)"/><circle cx="95.45454545454545" cy="258.9426266544772" r="2" fill="rgb(0,0,0)"/><circle cx="100.5050505050505" cy="322.0562552220458" r="2" fill="rgb(0,0,0)"/><circle cx="105.55555555555554" cy="417.72408912756504" r="2" fill="rgb(0,0,0)"/><circle cx="110.60606060606061" cy="397.0121656781025" r="2" fill="rgb(0,0,0)"/><circle cx="115.65656565656566" cy="377.37123822208923" r="2" fill="rgb(0,0,0)"/><circle cx="120.7070707070707" cy="378.4709221009416" r="2" fill="rgb(0,0,0)"/><circle cx="125.75757575757576" cy="377.70196790611874" r="2" fill="rgb(0,0,0)"/><circle cx="130.80808080808083" cy="235.16612047746514" r="2" fill="rgb(0,0,0)"/><circle cx="135.85858585858585" cy="396.8717520191176" r="2" fill="rgb(0,0,0)"/><circle cx="140.9090909090909" cy="314.68621176723804" r="2" fill="rgb(0,0,0)"/><circle cx="145.95959595959596" cy="315.25553438481074" r="2" fill="rgb(0,0,0)"/><circle cx="151.010101010101" cy="404.472076853968" r="2" fill="rgb(0,0,0)"/><circle cx="156.06060606060606" cy="405.71637364434963" r="2" fill="rgb(0,0,0)"/><circle cx="161.1111111111111" cy="346.82606051357897" r="2" fill="rgb(0,0,0)"/><circle cx="166.16161616161617" cy="367.3706207086424" r="2" fill="rgb(0,0,0)"/><circle cx="171.21212121212122" cy="285.37172391492845" r="2" fill="rgb(0,0,0)"/><circle cx="176.26262626262627" cy="362.5719468073446" r="2" fill="rgb(0,0,0)"/><circle cx="181.31313131313132" cy="296.150036257922" r="2" fill="rgb(0,0,0)"/><circle cx="186.36363636363635" cy="405.5408534294429" r="2" fill="rgb(0,0,0)"/><circle cx="191.4141414141414" cy="404.96941496602483" r="2" fill="rgb(0,0,0)"/><circle cx="196.46464646464648" cy="361.46414772822243" r="2" fill="rgb(0,0,0)"/><circle cx="201.51515151515153" cy="387.1025498864762" r="2" fill="rgb(0,0,0)"/><circle cx="206.56565656565658" cy="372.2721224208502" r="2" fill="rgb(0,0,0)"/><circle cx="211.61616161616163" cy="337.6991091056126" r="2" fill="rgb(0,0,0)"/><circle cx="216.66666666666666" cy="348.2379609062293" r="2" fill="rgb(0,0,0)"/><circle cx="221.7171717171717" cy="348.64541323476476" r="2" fill="rgb(0,0,0)"/><circle cx="226.76767676767676" cy="349.2609701404939" r="2" fill="rgb(0,0,0)"/><circle cx="231.8181818181818" cy="371.49677213394443" r="2" fill="rgb(0,0,0)"/><circle cx="236.86868686868686" cy="348.78292770752125" r="2" fill="rgb(0,0,0)"/><circle cx="241.91919191919192" cy="147.4462856528558" r="2" fill="rgb(0,0,0)"/><circle cx="246.96969696969697" cy="248.0353902586229" r="2" fill="rgb(0,0,0)"/><circle cx="252.02020202020202" cy="79.5195919077832" r="2" fill="rgb(0,0,0)"/><circle cx="257.07070707070704" cy="365.859759752773" r="2" fill="rgb(0,0,0)"/><circle cx="262.1212121212121" cy="374.0328506580179" r="2" fill="rgb(0,0,0)"/><circle cx="267.1717171717172" cy="374.0328506580179" r="2" fill="rgb(0,0,0)"/><circle cx="272.2222222222222" cy="374.0328506580179" r="2" fill="rgb(0,0,0)"/><circle cx="277.27272727272725" cy="373.98289447748175" r="2" fill="rgb(0,0,0)"/><circle cx="282.32323232323233" cy="373.7335125603606" r="2" fill="rgb(0,0,0)"/><circle cx="287.3737373737374" cy="253.89088536984565" r="2" fill="rgb(0,0,0)"/><circle cx="292.42424242424244" cy="205.14518917586946" r="2" fill="rgb(0,0,0)"/><circle cx="297.47474747474746" cy="279.61217237702806" r="2" fill="rgb(0,0,0)"/><circle cx="302.52525252525254" cy="392.1421153127059" r="2" fill="rgb(0,0,0)"/><circle cx="307.57575757575756" cy="335.3250022935214" r="2" fill="rgb(0,0,0)"/><circle cx="312.62626262626264" cy="320.3687552243052" r="2" fill="rgb(0,0,0)"/><circle cx="317.67676767676767" cy="246.77323457715852" r="2" fill="rgb(0,0,0)"/><circle cx="322.7272727272727" cy="175.98180501128286" r="2" fill="rgb(0,0,0)"/><circle cx="327.77777777777777" cy="223.97650282413048" r="2" fill="rgb(0,0,0)"/><circle cx="332.8282828282828" cy="395.23967704768387" r="2" fill="rgb(0,0,0)"/><circle cx="337.8787878787879" cy="398.2044707945778" r="2" fill="rgb(0,0,0)"/><circle cx="342.92929292929296" cy="361.41879550381935" r="2" fill="rgb(0,0,0)"/><circle cx="347.979797979798" cy="362.3667667021885" r="2" fill="rgb(0,0,0)"/><circle cx="353.03030303030306" cy="345.8638736147202" r="2" fill="rgb(0,0,0)"/><circle cx="358.0808080808081" cy="411.4913864023555" r="2" fill="rgb(0,0,0)"/><circle cx="363.13131313131316" cy="353.61251118882547" r="2" fill="rgb(0,0,0)"/><circle cx="368.1818181818182" cy="352.6910402676989" r="2" fill="rgb(0,0,0)"/><circle cx="373.23232323232327" cy="352.6910402676989" r="2" fill="rgb(0,0,0)"/><circle cx="378.2828282828283" cy="381.4191024445753" r="2" fill="rgb(0,0,0)"/><circle cx="383.3333333333333" cy="381.3348455810104" r="2" fill="rgb(0,0,0)"/><circle cx="388.3838383838384" cy="373.536457244872" r="2" fill="rgb(0,0,0)"/><circle cx="393.4343434343434" cy="376.158384110851" r="2" fill="rgb(0,0,0)"/><circle cx="398.4848484848485" cy="374.3683065666832" r="2" fill="rgb(0,0,0)"/><circle cx="403.5353535353535" cy="99.26691359398939" r="2" fill="rgb(0,0,0)"/><circle cx="408.58585858585855" cy="302.49894949700587" r="2" fill="rgb(0,0,0)"/><circle cx="413.6363636363636" cy="353.3721805060701" r="2" fill="rgb(0,0,0)"/><circle cx="418.68686868686865" cy="346.56674743397696" r="2" fill="rgb(0,0,0)"/><circle cx="423.73737373737373" cy="345.66572936060425" r="2" fill="rgb(0,0,0)"/><circle cx="428.7878787878788" cy="332.45949329225505" r="2" fill="rgb(0,0,0)"/><circle cx="433.83838383838383" cy="406.13563886322333" r="2" fill="rgb(0,0,0)"/><circle cx="438.8888888888889" cy="413.37857532071433" r="2" fill="rgb(0,0,0)"/><circle cx="443.93939393939394" cy="413.37857532071433" r="2" fill="rgb(0,0,0)"/><circle cx="448.989898989899" cy="352.1612283867155" r="2" fill="rgb(0,0,0)"/><circle cx="454.04040404040404" cy="387.25704996577156" r="2" fill="rgb(0,0,0)"/><circle cx="459.0909090909091" cy="387.25704996577156" r="2" fill="rgb(0,0,0)"/><circle cx="464.14141414141415" cy="386.5474968498676" r="2" fill="rgb(0,0,0)"/><circle cx="469.19191919191917" cy="388.0019210606763" r="2" fill="rgb(0,0,0)"/><circle cx="474.24242424242425" cy="405.1716155936773" r="2" fill="rgb(0,0,0)"/><circle cx="479.2929292929293" cy="409.99295294136846" r="2" fill="rgb(0,0,0)"/><circle cx="484.34343434343435" cy="284.0326493965667" r="2" fill="rgb(0,0,0)"/><circle cx="489.3939393939394" cy="378.5175474652798" r="2" fill="rgb(0,0,0)"/><circle cx="494.4444444444444" cy="378.5175474652798" r="2" fill="rgb(0,0,0)"/><circle cx="499.4949494949495" cy="360.5093979323538" r="2" fill="rgb(0,0,0)"/><circle cx="504.5454545454545" cy="360.4514095979038" r="2" fill="rgb(0,0,0)"/><circle cx="509.59595959595964" cy="389.81529420029375" r="2" fill="rgb(0,0,0)"/><circle cx="514.6464646464647" cy="389.81529420029375" r="2" fill="rgb(0,0,0)"/><circle cx="519.6969696969697" cy="390.0367070395871" r="2" fill="rgb(0,0,0)"/><circle cx="524.7474747474748" cy="389.81529420029375" r="2" fill="rgb(0,0,0)"/><circle cx="529.7979797979798" cy="389.81529420029375" r="2" fill="rgb(0,0,0)"/><circle cx="534.8484848484849" cy="389.81529420029375" r="2" fill="rgb(0,0,0)"/><circle cx="539.8989898989898" cy="368.1647590097167" r="2" fill="rgb(0,0,0)"/><circle cx="544.9494949494949" cy="369.39160232205313" r="2" fill="rgb(0,0,0)"/><circle cx="550.0" cy="363.80421386095634" r="2" fill="rgb(0,0,0)"/><polyline points="50.0,204.13465465349435 55.05050505050505,186.98544440660618 60.101010101010104,160.9224168521846 65.15151515151516,130.90545642531282 70.20202020202021,114.18097409694934 75.25252525252526,96.2469502188008 80.30303030303031,89.29868752468514 85.35353535353535,76.07240140100538 90.40404040404042,82.53805730618922 95.45454545454545,74.03487437918898 100.5050505050505,75.7135412067442 105.55555555555554,71.46691439274957 110.60606060606061,69.53775895051649 115.65656565656566,72.83713765839792 120.7070707070707,82.01278801987712 125.75757575757576,79.08244483529364 130.80808080808083,72.4325384742508 135.85858585858585,80.47472733555884 140.9090909090909,74.87482164766845 145.95959595959596,71.59943862260934 151.010101010101,74.59158914868584 156.06060606060606,73.51922007709112 161.1111111111111,69.8942141032768 166.16161616161617,68.814631617038 171.21212121212122,63.29837985986268 176.26262626262627,60.8102187034828 181.31313131313132,59.74324803921428 186.36363636363635,62.0464393816913 191.4141414141414,57.16494596262794 196.46464646464648,57.494876240144265 201.51515151515153,64.30970262208268 206.56565656565658,60.571244812263274 211.61616161616163,63.529266839950935 216.66666666666666,60.84373001147503 221.7171717171717,64.95124366818726 226.76767676767676,60.54898070928664 231.8181818181818,63.58834359403113 236.86868686868686,60.80391806497096 241.91919191919192,53.28083732542876 246.96969696969697,55.67095106890264 252.02020202020202,51.83550110916144 257.07070707070704,60.407237805472846 262.1212121212121,67.20858097470762 267.1717171717172,72.15408033392958 272.2222222222222,69.0229157107405 277.27272727272725,69.91742771624058 282.32323232323233,62.95993761125851 287.3737373737374,57.970610406528465 292.42424242424244,56.54636396502457 297.47474747474746,58.42170942965447 302.52525252525254,59.979414870081655 307.57575757575756,60.15226888516378 312.62626262626264,58.02485633611843 317.67676767676767,57.033594194127716 322.7272727272727,53.738284030936484 327.77777777777777,55.98642641409714 332.8282828282828,58.94032642229388 337.8787878787879,61.23135031831714 342.92929292929296,61.326470432635006 347.979797979798,61.101806445498596 353.03030303030306,68.15763910551516 358.0808080808081,70.68064164475976 363.13131313131316,61.38423103055209 368.1818181818182,60.74020330145453 373.23232323232327,62.69925996538393 378.2828282828283,68.16332591966659 383.3333333333333,65.86675106036711 388.3838383838384,67.18674568435318 393.4343434343434,63.82540673203982 398.4848484848485,59.94830425658813 403.5353535353535,52.10007850210735 408.58585858585855,59.829081682998265 413.6363636363636,64.64053239291104 418.68686868686865,63.463855691980484 423.73737373737373,59.96989849109906 428.7878787878788,55.53055693271847 433.83838383838383,57.43012601789343 438.8888888888889,65.12664949054107 443.93939393939394,61.34477052283131 448.989898989899,62.912384928903464 454.04040404040404,66.38899235548854 459.0909090909091,71.6950288954506 464.14141414141415,62.314940813726366 469.19191919191917,63.27896934448512 474.24242424242425,66.69045996263986 479.2929292929293,60.708174484958136 484.34343434343435,55.551781937569444 489.3939393939394,60.718784290793735 494.4444444444444,70.67533829305108 499.4949494949495,61.83558256940802 504.5454545454545,54.884301828563764 509.59595959595964,62.185823884054344 514.6464646464647,62.86702124053028 519.6969696969697,64.11634589316628 524.7474747474748,65.6213937939799 529.7979797979798,65.67857187476199 534.8484848484849,77.36202284018185 539.8989898989898,60.51729428822489 544.9494949494949,63.67668712468242 550.0,64.19692854867606" fill="none" stroke="rgb(0,0,255)" stroke-width="1"/><circle cx="50.0" cy="204.13465465349435" r="2" fill="rgb(0,0,255)"/><circle cx="55.05050505050505" cy="186.98544440660618" r="2" fill="rgb(0,0,255)"/><circle cx="60.101010101010104" cy="160.9224168521846" r="2" fill="rgb(0,0,255)"/><circle cx="65.15151515151516" cy="130.90545642531282" r="2" fill="rgb(0,0,255)"/><circle cx="70.20202020202021" cy="114.18097409694934" r="2" fill="rgb(0,0,255)"/><circle cx="75.25252525252526" cy="96.2469502188008" r="2" fill="rgb(0,0,255)"/><circle cx="80.30303030303031" cy="89.29868752468514" r="2" fill="rgb(0,0,255)"/><circle cx="85.35353535353535" cy="76.07240140100538" r="2" fill="rgb(0,0,255)"/><circle cx="90.40404040404042" cy="82.53805730618922" r="2" fill="rgb(0,0,255)"/><circle cx="95.45454545454545" cy="74.03487437918898" r="2" fill="rgb(0,0,255)"/><circle cx="100.5050505050505" cy="75.7135412067442" r="2" fill="rgb(0,0,255)"/><circle cx="105.55555555555554" cy="71.46691439274957" r="2" fill="rgb(0,0,255)"/><circle cx="110.60606060606061" cy="69.53775895051649" r="2" fill="rgb(0,0,255)"/><circle cx="115.65656565656566" cy="72.83713765839792" r="2" fill="rgb(0,0,255)"/><circle cx="120.7070707070707" cy="82.01278801987712" r="2" fill="rgb(0,0,255)"/><circle cx="125.75757575757576" cy="79.08244483529364" r="2" fill="rgb(0,0,255)"/><circle cx="130.80808080808083" cy="72.4325384742508" r="2" fill="rgb(0,0,255)"/><circle cx="135.85858585858585" cy="80.47472733555884" r="2" fill="rgb(0,0,255)"/><circle cx="140.9090909090909" cy="74.87482164766845" r="2" fill="rgb(0,0,255)"/><circle cx="145.95959595959596" cy="71.59943862260934" r="2" fill="rgb(0,0,255)"/><circle cx="151.010101010101" cy="74.59158914868584" r="2" fill="rgb(0,0,255)"/><circle cx="156.06060606060606" cy="73.51922007709112" r="2" fill="rgb(0,0,255)"/><circle cx="161.1111111111111" cy="69.8942141032768" r="2" fill="rgb(0,0,255)"/><circle cx="166.16161616161617" cy="68.814631617038" r="2" fill="rgb(0,0,255)"/><circle cx="171.21212121212122" cy="63.29837985986268" r="2" fill="rgb(0,0,255)"/><circle cx="176.26262626262627" cy="60.8102187034828" r="2" fill="rgb(0,0,255)"/><circle cx="181.31313131313132" cy="59.74324803921428" r="2" fill="rgb(0,0,255)"/><circle cx="186.36363636363635" cy="62.0464393816913" r="2" fill="rgb(0,0,255)"/><circle cx="191.4141414141414" cy="57.16494596262794" r="2" fill="rgb(0,0,255)"/><circle cx="196.46464646464648" cy="57.494876240144265" r="2" fill="rgb(0,0,255)"/><circle cx="201.51515151515153" cy="64.30970262208268" r="2" fill="rgb(0,0,255)"/><circle cx="206.56565656565658" cy="60.571244812263274" r="2" fill="rgb(0,0,255)"/><circle cx="211.61616161616163" cy="63.529266839950935" r="2" fill="rgb(0,0,255)"/><circle cx="216.66666666666666" cy="60.84373001147503" r="2" fill="rgb(0,0,255)"/><circle cx="221.7171717171717" cy="64.95124366818726" r="2" fill="rgb(0,0,255)"/><circle cx="226.76767676767676" cy="60.54898070928664" r="2" fill="rgb(0,0,255)"/><circle cx="231.8181818181818" cy="63.58834359403113" r="2" fill="rgb(0,0,255)"/><circle cx="236.86868686868686" cy="60.80391806497096" r="2" fill="rgb(0,0,255)"/><circle cx="241.91919191919192" cy="53.28083732542876" r="2" fill="rgb(0,0,255)"/><circle cx="246.96969696969697" cy="55.67095106890264" r="2" fill="rgb(0,0,255)"/><circle cx="252.02020202020202" cy="51.83550110916144" r="2" fill="rgb(0,0,255)"/><circle cx="257.07070707070704" cy="60.407237805472846" r="2" fill="rgb(0,0,255)"/><circle cx="262.1212121212121" cy="67.20858097470762" r="2" fill="rgb(0,0,255)"/><circle cx="267.1717171717172" cy="72.15408033392958" r="2" fill="rgb(0,0,255)"/><circle cx="272.2222222222222" cy="69.0229157107405" r="2" fill="rgb(0,0,255)"/><circle cx="277.27272727272725" cy="69.91742771624058" r="2" fill="rgb(0,0,255)"/><circle cx="282.32323232323233" cy="62.95993761125851" r="2" fill="rgb(0,0,255)"/><circle cx="287.3737373737374" cy="57.970610406528465" r="2" fill="rgb(0,0,255)"/><circle cx="292.42424242424244" cy="56.54636396502457" r="2" fill="rgb(0,0,255)"/><circle cx="297.47474747474746" cy="58.42170942965447" r="2" fill="rgb(0,0,255)"/><circle cx="302.52525252525254" cy="59.979414870081655" r="2" fill="rgb(0,0,255)"/><circle cx="307.57575757575756" cy="60.15226888516378" r="2" fill="rgb(0,0,255)"/><circle cx="312.62626262626264" cy="58.02485633611843" r="2" fill="rgb(0,0,255)"/><circle cx="317.67676767676767" cy="57.033594194127716" r="2" fill="rgb(0,0,255)"/><circle cx="322.7272727272727" cy="53.738284030936484" r="2" fill="rgb(0,0,255)"/><circle cx="327.77777777777777" cy="55.98642641409714" r="2" fill="rgb(0,0,255)"/><circle cx="332.8282828282828" cy="58.94032642229388" r="2" fill="rgb(0,0,255)"/><circle cx="337.8787878787879" cy="61.23135031831714" r="2" fill="rgb(0,0,255)"/><circle cx="342.92929292929296" cy="61.326470432635006" r="2" fill="rgb(0,0,255)"/><circle cx="347.979797979798" cy="61.101806445498596" r="2" fill="rgb(0,0,255)"/><circle cx="353.03030303030306" cy="68.15763910551516" r="2" fill="rgb(0,0,255)"/><circle cx="358.0808080808081" cy="70.68064164475976" r="2" fill="rgb(0,0,255)"/><circle cx="363.13131313131316" cy="61.38423103055209" r="2" fill="rgb(0,0,255)"/><circle cx="368.1818181818182" cy="60.74020330145453" r="2" fill="rgb(0,0,255)"/><circle cx="373.23232323232327" cy="62.69925996538393" r="2" fill="rgb(0,0,255)"/><circle cx="378.2828282828283" cy="68.16332591966659" r="2" fill="rgb(0,0,255)"/><circle cx="383.3333333333333" cy="65.86675106036711" r="2" fill="rgb(0,0,255)"/><circle cx="388.3838383838384" cy="67.18674568435318" r="2" fill="rgb(0,0,255)"/><circle cx="393.4343434343434" cy="63.82540673203982" r="2" fill="rgb(0,0,255)"/><circle cx="398.4848484848485" cy="59.94830425658813" r="2" fill="rgb(0,0,255)"/><circle cx="403.5353535353535" cy="52.10007850210735" r="2" fill="rgb(0,0,255)"/><circle cx="408.58585858585855" cy="59.829081682998265" r="2" fill="rgb(0,0,255)"/><circle cx="413.6363636363636" cy="64.64053239291104" r="2" fill="rgb(0,0,255)"/><circle cx="418.68686868686865" cy="63.463855691980484" r="2" fill="rgb(0,0,255)"/><circle cx="423.73737373737373" cy="59.96989849109906" r="2" fill="rgb(0,0,255)"/><circle cx="428.7878787878788" cy="55.53055693271847" r="2" fill="rgb(0,0,255)"/><circle cx="433.83838383838383" cy="57.43012601789343" r="2" fill="rgb(0,0,255)"/><circle cx="438.8888888888889" cy="65.12664949054107" r="2" fill="rgb(0,0,255)"/><circle cx="443.93939393939394" cy="61.34477052283131" r="2" fill="rgb(0,0,255)"/><circle cx="448.989898989899" cy="62.912384928903464" r="2" fill="rgb(0,0,255)"/><circle cx="454.04040404040404" cy="66.38899235548854" r="2" fill="rgb(0,0,255)"/><circle cx="459.0909090909091" cy="71.6950288954506" r="2" fill="rgb(0,0,255)"/><circle cx="464.14141414141415" cy="62.314940813726366" r="2" fill="rgb(0,0,255)"/><circle cx="469.19191919191917" cy="63.27896934448512" r="2" fill="rgb(0,0,255)"/><circle cx="474.24242424242425" cy="66.69045996263986" r="2" fill="rgb(0,0,255)"/><circle cx="479.2929292929293" cy="60.708174484958136" r="2" fill="rgb(0,0,255)"/><circle cx="484.34343434343435" cy="55.551781937569444" r="2" fill="rgb(0,0,255)"/><circle cx="489.3939393939394" cy="60.718784290793735" r="2" fill="rgb(0,0,255)"/><circle cx="494.4444444444444" cy="70.67533829305108" r="2" fill="rgb(0,0,255)"/><circle cx="499.4949494949495" cy="61.83558256940802" r="2" fill="rgb(0,0,255)"/><circle cx="504.5454545454545" cy="54.884301828563764" r="2" fill="rgb(0,0,255)"/><circle cx="509.59595959595964" cy="62.185823884054344" r="2" fill="rgb(0,0,255)"/><circle cx="514.6464646464647" cy="62.86702124053028" r="2" fill="rgb(0,0,255)"/><circle cx="519.6969696969697" cy="64.11634589316628" r="2" fill="rgb(0,0,255)"/><circle cx="524.7474747474748" cy="65.6213937939799" r="2" fill="rgb(0,0,255)"/><circle cx="529.7979797979798" cy="65.67857187476199" r="2" fill="rgb(0,0,255)"/><circle cx="534.8484848484849" cy="77.36202284018185" r="2" fill="rgb(0,0,255)"/><circle cx="539.8989898989898" cy="60.51729428822489" r="2" fill="rgb(0,0,255)"/><circle cx="544.9494949494949" cy="63.67668712468242" r="2" fill="rgb(0,0,255)"/><circle cx="550.0" cy="64.19692854867606" r="2" fill="rgb(0,0,255)"/><polyline points="50.0,59.47948674330644 55.05050505050505,59.9983950109812 60.101010101010104,58.592115835325615 65.15151515151516,57.09960051680628 70.20202020202021,57.395269984370884 75.25252525252526,57.61939070283415 80.30303030303031,58.26426193873999 85.35353535353535,57.100689165204415 90.40404040404042,56.606354923093136 95.45454545454545,52.90290399560644 100.5050505050505,52.44192187934317 105.55555555555554,53.746042393348716 110.60606060606061,52.89702053926044 115.65656565656566,52.90407586464539 120.7070707070707,52.77895474310003 125.75757575757576,52.55261957126595 130.80808080808083,53.85702297412155 135.85858585858585,53.50480474024323 140.9090909090909,53.07047490728138 145.95959595959596,51.55351361782215 151.010101010101,51.55351361782215 156.06060606060606,52.097235391891275 161.1111111111111,51.55664476933532 166.16161616161617,51.77133374720819 171.21212121212122,50.82466712440811 176.26262626262627,51.52673921652081 181.31313131313132,50.799686271224346 186.36363636363635,51.13479218640134 191.4141414141414,50.93191924395785 196.46464646464648,50.34986901831212 201.51515151515153,50.43878387937241 206.56565656565658,50.34986901831212 211.61616161616163,50.636845226899254 216.66666666666666,50.21106300299937 221.7171717171717,50.21106300299937 226.76767676767676,50.21106300299937 231.8181818181818,50.21106300299937 236.86868686868686,50.21106300299937 241.91919191919192,50.21106300299937 246.96969696969697,50.14985196180885 252.02020202020202,50.14985196180885 257.07070707070704,50.21106300299937 262.1212121212121,50.182112177282306 267.1717171717172,50.182112177282306 272.2222222222222,50.182112177282306 277.27272727272725,50.182112177282306 282.32323232323233,50.21106300299937 287.3737373737374,50.21106300299937 292.42424242424244,50.21106300299937 297.47474747474746,50.173412929331846 302.52525252525254,50.182112177282306 307.57575757575756,50.153711628995495 312.62626262626264,50.16162745124274 317.67676767676767,50.153711628995495 322.7272727272727,50.153711628995495 327.77777777777777,50.153711628995495 332.8282828282828,50.153711628995495 337.8787878787879,50.20391982476042 342.92929292929296,50.179543850763196 347.979797979798,50.19668300703762 353.03030303030306,50.21106300299937 358.0808080808081,50.21106300299937 363.13131313131316,50.056496556939294 368.1818181818182,50.056496556939294 373.23232323232327,50.056496556939294 378.2828282828283,50.056496556939294 383.3333333333333,50.21106300299937 388.3838383838384,50.16295670492718 393.4343434343434,50.16295670492718 398.4848484848485,50.21106300299937 403.5353535353535,50.21106300299937 408.58585858585855,50.21106300299937 413.6363636363636,50.21106300299937 418.68686868686865,50.032864297097206 423.73737373737373,50.0 428.7878787878788,50.0 433.83838383838383,50.0 438.8888888888889,50.153074668549436 443.93939393939394,50.153074668549436 448.989898989899,50.153074668549436 454.04040404040404,50.153074668549436 459.0909090909091,50.153074668549436 464.14141414141415,50.153074668549436 469.19191919191917,50.09207834878595 474.24242424242425,50.09207834878595 479.2929292929293,50.09207834878595 484.34343434343435,50.032056837530035 489.3939393939394,50.03409001433596 494.4444444444444,50.09207834878595 499.4949494949495,50.09207834878595 504.5454545454545,50.03409001433596 509.59595959595964,50.03409001433596 514.6464646464647,50.09207834878595 519.6969696969697,50.03409001433596 524.7474747474748,50.09207834878595 529.7979797979798,50.03409001433596 534.8484848484849,50.03409001433596 539.8989898989898,50.03409001433596 544.9494949494949,50.03409001433596 550.0,50.03409001433596" fill="none" stroke="rgb(0,255,0)" stroke-width="1"/><circle cx="50.0" cy="59.47948674330644" r="2" fill="rgb(0,255,0)"/><circle cx="55.05050505050505" cy="59.9983950109812" r="2" fill="rgb(0,255,0)"/><circle cx="60.101010101010104" cy="58.592115835325615" r="2" fill="rgb(0,255,0)"/><circle cx="65.15151515151516" cy="57.09960051680628" r="2" fill="rgb(0,255,0)"/><circle cx="70.20202020202021" cy="57.395269984370884" r="2" fill="rgb(0,255,0)"/><circle cx="75.25252525252526" cy="57.61939070283415" r="2" fill="rgb(0,255,0)"/><circle cx="80.30303030303031" cy="58.26426193873999" r="2" fill="rgb(0,255,0)"/><circle cx="85.35353535353535" cy="57.100689165204415" r="2" fill="rgb(0,255,0)"/><circle cx="90.40404040404042" cy="56.606354923093136" r="2" fill="rgb(0,255,0)"/><circle cx="95.45454545454545" cy="52.90290399560644" r="2" fill="rgb(0,255,0)"/><circle cx="100.5050505050505" cy="52.44192187934317" r="2" fill="rgb(0,255,0)"/><circle cx="105.55555555555554" cy="53.746042393348716" r="2" fill="rgb(0,255,0)"/><circle cx="110.60606060606061" cy="52.89702053926044" r="2" fill="rgb(0,255,0)"/><circle cx="115.65656565656566" cy="52.90407586464539" r="2" fill="rgb(0,255,0)"/><circle cx="120.7070707070707" cy="52.77895474310003" r="2" fill="rgb(0,255,0)"/><circle cx="125.75757575757576" cy="52.55261957126595" r="2" fill="rgb(0,255,0)"/><circle cx="130.80808080808083" cy="53.85702297412155" r="2" fill="rgb(0,255,0)"/><circle cx="135.85858585858585" cy="53.50480474024323" r="2" fill="rgb(0,255,0)"/><circle cx="140.9090909090909" cy="53.07047490728138" r="2" fill="rgb(0,255,0)"/><circle cx="145.95959595959596" cy="51.55351361782215" r="2" fill="rgb(0,255,0)"/><circle cx="151.010101010101" cy="51.55351361782215" r="2" fill="rgb(0,255,0)"/><circle cx="156.06060606060606" cy="52.097235391891275" r="2" fill="rgb(0,255,0)"/><circle cx="161.1111111111111" cy="51.55664476933532" r="2" fill="rgb(0,255,0)"/><circle cx="166.16161616161617" cy="51.77133374720819" r="2" fill="rgb(0,255,0)"/><circle cx="171.21212121212122" cy="50.82466712440811" r="2" fill="rgb(0,255,0)"/><circle cx="176.26262626262627" cy="51.52673921652081" r="2" fill="rgb(0,255,0)"/><circle cx="181.31313131313132" cy="50.799686271224346" r="2" fill="rgb(0,255,0)"/><circle cx="186.36363636363635" cy="51.13479218640134" r="2" fill="rgb(0,255,0)"/><circle cx="191.4141414141414" cy="50.93191924395785" r="2" fill="rgb(0,255,0)"/><circle cx="196.46464646464648" cy="50.34986901831212" r="2" fill="rgb(0,255,0)"/><circle cx="201.51515151515153" cy="50.43878387937241" r="2" fill="rgb(0,255,0)"/><circle cx="206.56565656565658" cy="50.34986901831212" r="2" fill="rgb(0,255,0)"/><circle cx="211.61616161616163" cy="50.636845226899254" r="2" fill="rgb(0,255,0)"/><circle cx="216.66666666666666" cy="50.21106300299937" r="2" fill="rgb(0,255,0)"/><circle cx="221.7171717171717" cy="50.21106300299937" r="2" fill="rgb(0,255,0)"/><circle cx="226.76767676767676" cy="50.21106300299937" r="2" fill="rgb(0,255,0)"/><circle cx="231.8181818181818" cy="50.21106300299937" r="2" fill="rgb(0,255,0)"/><circle cx="236.86868686868686" cy="50.21106300299937" r="2" fill="rgb(0,255,0)"/><circle cx="241.91919191919192" cy="50.21106300299937" r="2" fill="rgb(0,255,0)"/><circle cx="246.96969696969697" cy="50.14985196180885" r="2" fill="rgb(0,255,0)"/><circle cx="252.02020202020202" cy="50.14985196180885" r="2" fill="rgb(0,255,0)"/><circle cx="257.07070707070704" cy="50.21106300299937" r="2" fill="rgb(0,255,0)"/><circle cx="262.1212121212121" cy="50.182112177282306" r="2" fill="rgb(0,255,0)"/><circle cx="267.1717171717172" cy="50.182112177282306" r="2" fill="rgb(0,255,0)"/><circle cx="272.2222222222222" cy="50.182112177282306" r="2" fill="rgb(0,255,0)"/><circle cx="277.27272727272725" cy="50.182112177282306" r="2" fill="rgb(0,255,0)"/><circle cx="282.32323232323233" cy="50.21106300299937" r="2" fill="rgb(0,255,0)"/><circle cx="287.3737373737374" cy="50.21106300299937" r="2" fill="rgb(0,255,0)"/><circle cx="292.42424242424244" cy="50.21106300299937" r="2" fill="rgb(0,255,0)"/><circle cx="297.47474747474746" cy="50.173412929331846" r="2" fill="rgb(0,255,0)"/><circle cx="302.52525252525254" cy="50.182112177282306" r="2" fill="rgb(0,255,0)"/><circle cx="307.57575757575756" cy="50.153711628995495" r="2" fill="rgb(0,255,0)"/><circle cx="312.62626262626264" cy="50.16162745124274" r="2" fill="rgb(0,255,0)"/><circle cx="317.67676767676767" cy="50.153711628995495" r="2" fill="rgb(0,255,0)"/><circle cx="322.7272727272727" cy="50.153711628995495" r="2" fill="rgb(0,255,0)"/><circle cx="327.77777777777777" cy="50.153711628995495" r="2" fill="rgb(0,255,0)"/><circle cx="332.8282828282828" cy="50.153711628995495" r="2" fill="rgb(0,255,0)"/><circle cx="337.8787878787879" cy="50.20391982476042" r="2" fill="rgb(0,255,0)"/><circle cx="342.92929292929296" cy="50.179543850763196" r="2" fill="rgb(0,255,0)"/><circle cx="347.979797979798" cy="50.19668300703762" r="2" fill="rgb(0,255,0)"/><circle cx="353.03030303030306" cy="50.21106300299937" r="2" fill="rgb(0,255,0)"/><circle cx="358.0808080808081" cy="50.21106300299937" r="2" fill="rgb(0,255,0)"/><circle cx="363.13131313131316" cy="50.056496556939294" r="2" fill="rgb(0,255,0)"/><circle cx="368.1818181818182" cy="50.056496556939294" r="2" fill="rgb(0,255,0)"/><circle cx="373.23232323232327" cy="50.056496556939294" r="2" fill="rgb(0,255,0)"/><circle cx="378.2828282828283" cy="50.056496556939294" r="2" fill="rgb(0,255,0)"/><circle cx="383.3333333333333" cy="50.21106300299937" r="2" fill="rgb(0,255,0)"/><circle cx="388.3838383838384" cy="50.16295670492718" r="2" fill="rgb(0,255,0)"/><circle cx="393.4343434343434" cy="50.16295670492718" r="2" fill="rgb(0,255,0)"/><circle cx="398.4848484848485" cy="50.21106300299937" r="2" fill="rgb(0,255,0)"/><circle cx="403.5353535353535" cy="50.21106300299937" r="2" fill="rgb(0,255,0)"/><circle cx="408.58585858585855" cy="50.21106300299937" r="2" fill="rgb(0,255,0)"/><circle cx="413.6363636363636" cy="50.21106300299937" r="2" fill="rgb(0,255,0)"/><circle cx="418.68686868686865" cy="50.032864297097206" r="2" fill="rgb(0,255,0)"/><circle cx="423.73737373737373" cy="50.0" r="2" fill="rgb(0,255,0)"/><circle cx="428.7878787878788" cy="50.0" r="2" fill="rgb(0,255,0)"/><circle cx="433.83838383838383" cy="50.0" r="2" fill="rgb(0,255,0)"/><circle cx="438.8888888888889" cy="50.153074668549436" r="2" fill="rgb(0,255,0)"/><circle cx="443.93939393939394" cy="50.153074668549436" r="2" fill="rgb(0,255,0)"/><circle cx="448.989898989899" cy="50.153074668549436" r="2" fill="rgb(0,255,0)"/><circle cx="454.04040404040404" cy="50.153074668549436" r="2" fill="rgb(0,255,0)"/><circle cx="459.0909090909091" cy="50.153074668549436" r="2" fill="rgb(0,255,0)"/><circle cx="464.14141414141415" cy="50.153074668549436" r="2" fill="rgb(0,255,0)"/><circle cx="469.19191919191917" cy="50.09207834878595" r="2" fill="rgb(0,255,0)"/><circle cx="474.24242424242425" cy="50.09207834878595" r="2" fill="rgb(0,255,0)"/><circle cx="479.2929292929293" cy="50.09207834878595" r="2" fill="rgb(0,255,0)"/><circle cx="484.34343434343435" cy="50.032056837530035" r="2" fill="rgb(0,255,0)"/><circle cx="489.3939393939394" cy="50.03409001433596" r="2" fill="rgb(0,255,0)"/><circle cx="494.4444444444444" cy="50.09207834878595" r="2" fill="rgb(0,255,0)"/><circle cx="499.4949494949495" cy="50.09207834878595" r="2" fill="rgb(0,255,0)"/><circle cx="504.5454545454545" cy="50.03409001433596" r="2" fill="rgb(0,255,0)"/><circle cx="509.59595959595964" cy="50.03409001433596" r="2" fill="rgb(0,255,0)"/><circle cx="514.6464646464647" cy="50.09207834878595" r="2" fill="rgb(0,255,0)"/><circle cx="519.6969696969697" cy="50.03409001433596" r="2" fill="rgb(0,255,0)"/><circle cx="524.7474747474748" cy="50.09207834878595" r="2" fill="rgb(0,255,0)"/><circle cx="529.7979797979798" cy="50.03409001433596" r="2" fill="rgb(0,255,0)"/><circle cx="534.8484848484849" cy="50.03409001433596" r="2" fill="rgb(0,255,0)"/><circle cx="539.8989898989898" cy="50.03409001433596" r="2" fill="rgb(0,255,0)"/><circle cx="544.9494949494949" cy="50.03409001433596" r="2" fill="rgb(0,255,0)"/><circle cx="550.0" cy="50.03409001433596" r="2" fill="rgb(0,255,0)"/><text x="350.0" y="20.0" text-anchor="middle" fill="rgb(0,0,0)" font-size="20.0">GA Demo</text><text x="350.0" y="575.0" text-anchor="middle" fill="rgb(0,0,0)" font-size="12.0">generation</text><text transform="rotate(-90.0 20.0 300.0)" x="20.0" y="300.0" text-anchor="middle" fill="rgb(0,0,0)" font-size="12.0">fitness</text><text x="620" y="62" fill="rgb(0,0,0)" font-size="12">min</text><text x="620" y="74" fill="rgb(0,0,255)" font-size="12">ave</text><text x="620" y="86" fill="rgb(0,255,0)" font-size="12">max</text>
      Sorry, your browser does not support inline SVG.
    </svg>