<?xml version='1.0' encoding='UTF-8'?>
<svg version="1.1" width="700.0" height="600.0" onload="init(evt)" xmlns="http://www.w3.org/2000/svg">
      <style>.caption {
  font-size: 14px;
  font-family: Georgia, serif;
}
</style>
      <script type="text/ecmascript"><![CDATA[
function init(evt) {
  if ( window.svgDocument == null ) {
    svgDocument = evt.target.ownerDocument;
  }
}

function RectHover(evt, i, c) {
  rect = svgDocument.getElementById('rect' + i);
  if( c != null ) {
    rect.setAttributeNS(null, "fill", c)  
  }
  tooltiptext = svgDocument.getElementById('tooltiptext' + i);
  tooltipbg = svgDocument.getElementById('tooltipbg' + i);
  if( tooltipbg != null) {
    tbb = tooltiptext.getBBox();
    tooltipbg.setAttributeNS(null, "width", tbb.width);
    tooltipbg.setAttributeNS(null, "height", tbb.height);
    tooltipbg.setAttributeNS(null, "x", tbb.x);
    tooltipbg.setAttributeNS(null, "y", tbb.y);
    tooltipbg.setAttributeNS(null, "visibility", "visible");
  }
  tooltiptext.setAttributeNS(null,"visibility","visible");
}

function RectUnhover(evt, i, c) {
  rect = svgDocument.getElementById('rect' + i);
  if( c != null ) {
    rect.setAttributeNS(null, "fill", c)  
  }
  tooltiptext = svgDocument.getElementById('tooltiptext' + i);
  tooltiptext.setAttributeNS(null,"visibility","hidden");
  tooltipbg = svgDocument.getElementById('tooltipbg' + i);
  if( tooltipbg != null ) {
    tooltipbg.setAttributeNS(null,"visibility","hidden");
  }
}
]]></script>
      <line x1="50.0" y1="550.0" x2="550.0" y2="550.0" stroke="rgb(0,0,0)" stroke-width="1"/><line x1="50.0" y1="550.0" x2="50.0" y2="50.0" stroke="rgb(0,0,0)" stroke-width="1"/><line x1="50.0" y1="550.0" x2="50.0" y2="50.0" stroke="rgb(192,192,192)" stroke-width="1"/><line x1="50.0" y1="548.0" x2="50.0" y2="552.0" stroke="rgb(192,192,192)" stroke-width="1"/><text text-anchor="middle" alignment-baseline="hanging" x="50.0" y="553.0" font-size="12.0">0</text><line x1="100.5050505050505" y1="550.0" x2="100.5050505050505" y2="50.0" stroke="rgb(192,192,192)" stroke-width="1"/><line x1="100.5050505050505" y1="548.0" x2="100.5050505050505" y2="552.0" stroke="rgb(192,192,192)" stroke-width="1"/><text text-anchor="middle" alignment-baseline="hanging" x="100.5050505050505" y="553.0" font-size="12.0">10</text><line x1="151.010101010101" y1="550.0" x2="151.010101010101" y2="50.0" stroke="rgb(192,192,192)" stroke-width="1"/><line x1="151.010101010101" y1="548.0" x2="151.010101010101" y2="552.0" stroke="rgb(192,192,192)" stroke-width="1"/><text text-anchor="middle" alignment-baseline="hanging" x="151.010101010101" y="553.0" font-size="12.0">20</text><line x1="201.51515151515153" y1="550.0" x2="201.51515151515153" y2="50.0" stroke="rgb(192,192,192)" stroke-width="1"/><line x1="201.51515151515153" y1="548.0" x2="201.51515151515153" y2="552.0" stroke="rgb(192,192,192)" stroke-width="1"/><text text-anchor="middle" alignment-baseline="hanging" x="201.51515151515153" y="553.0" font-size="12.0">30</text><line x1="252.02020202020202" y1="550.0" x2="252.02020202020202" y2="50.0" stroke="rgb(192,192,192)" stroke-width="1"/><line x1="252.02020202020202" y1="548.0" x2="252.02020202020202" y2="552.0" stroke="rgb(192,192,192)" stroke-width="1"/><text text-anchor="middle" alignment-baseline="hanging" x="252.02020202020202" y="553.0" font-size="12.0">40</text><line x1="302.52525252525254" y1="550.0" x2="302.52525252525254" y2="50.0" stroke="rgb(192,192,192)" stroke-width="1"/><line x1="302.52525252525254" y1="548.0" x2="302.52525252525254" y2="552.0" stroke="rgb(192,192,192)" stroke-width="1"/><text text-anchor="middle" alignment-baseline="hanging" x="302.52525252525254" y="553.0" font-size="12.0">50</text><line x1="353.03030303030306" y1="550.0" x2="353.03030303030306" y2="50.0" stroke="rgb(192,192,192)" stroke-width="1"/><line x1="353.03030303030306" y1="548.0" x2="353.03030303030306" y2="552.0" stroke="rgb(192,192,192)" stroke-width="1"/><text text-anchor="middle" alignment-baseline="hanging" x="353.03030303030306" y="553.0" font-size="12.0">60</text><line x1="403.5353535353535" y1="550.0" x2="403.5353535353535" y2="50.0" stroke="rgb(192,192,192)" stroke-width="1"/><line x1="403.5353535353535" y1="548.0" x2="403.5353535353535" y2="552.0" stroke="rgb(192,192,192)" stroke-width="1"/><text text-anchor="middle" alignment-baseline="hanging" x="403.5353535353535" y="553.0" font-size="12.0">70</text><line x1="454.04040404040404" y1="550.0" x2="454.04040404040404" y2="50.0" stroke="rgb(192,192,192)" stroke-width="1"/><line x1="454.04040404040404" y1="548.0" x2="454.04040404040404" y2="552.0" stroke="rgb(192,192,192)" stroke-width="1"/><text text-anchor="middle" alignment-baseline="hanging" x="454.04040404040404" y="553.0" font-size="12.0">80</text><line x1="504.5454545454545" y1="550.0" x2="504.5454545454545" y2="50.0" stroke="rgb(192,192,192)" stroke-width="1"/><line x1="504.5454545454545" y1="548.0" x2="504.5454545454545" y2="552.0" stroke="rgb(192,192,192)" stroke-width="1"/><text text-anchor="middle" alignment-baseline="hanging" x="504.5454545454545" y="553.0" font-size="12.0">90</text><line x1="50.0" y1="550.0" x2="550.0" y2="550.0" stroke="rgb(192,192,192)" stroke-width="1"/><text text-anchor="end" alignment-baseline="middle" x="45.0" y="550.0" font-size="12.0">0.0</text><line x1="48.0" y1="550.0" x2="52.0" y2="550.0" stroke="rgb(192,192,192)" stroke-width="1"/><line x1="50.0" y1="367.2757923046646" x2="550.0" y2="367.2757923046646" stroke="rgb(192,192,192)" stroke-width="1"/><text text-anchor="end" alignment-baseline="middle" x="45.0" y="367.2757923046646" font-size="12.0">1000.0</text><line x1="48.0" y1="367.2757923046646" x2="52.0" y2="367.2757923046646" stroke="rgb(192,192,192)" stroke-width="1"/><line x1="50.0" y1="184.55158460932915" x2="550.0" y2="184.55158460932915" stroke="rgb(192,192,192)" stroke-width="1"/><text text-anchor="end" alignment-baseline="middle" x="45.0" y="184.55158460932915" font-size="12.0">2000.0</text><line x1="48.0" y1="184.55158460932915" x2="52.0" y2="184.55158460932915" stroke="rgb(192,192,192)" stroke-width="1"/><polyline points="50.0,413.87595831152373 55.05050505050505,413.78606646749677 60.101010101010104,409.37060632181215 65.15151515151516,407.1154751873587 70.20202020202021,389.67485140681015 75.25252525252526,390.9022278046268 80.30303030303031,392.1640159080806 85.35353535353535,392.278786516193 90.40404040404042,373.6885412349311 95.45454545454545,373.1611690191843 100.5050505050505,295.89728269764396 105.55555555555554,355.5843044585356 110.60606060606061,419.9906791744537 115.65656565656566,163.20778901753772 120.7070707070707,183.6284418232529 125.75757575757576,368.7483908334275 130.80808080808083,393.01887629085195 135.85858585858585,392.91969285007224 140.9090909090909,405.92350190230434 145.95959595959596,404.95601913742144 151.010101010101,385.4787884604971 156.06060606060606,383.04893927482556 161.1111111111111,386.2894824033284 166.16161616161617,384.97292712106366 171.21212121212122,383.5232338123916 176.26262626262627,380.8174822456582 181.31313131313132,380.8153016011761 186.36363636363635,412.8386683300776 191.4141414141414,211.85409480790344 196.46464646464648,382.5356259544477 201.51515151515153,408.92119739907474 206.56565656565658,411.0691749778655 211.61616161616163,367.1353757881512 216.66666666666666,336.49255599253416 221.7171717171717,411.7411726598615 226.76767676767676,412.20420312355174 231.8181818181818,291.264593382468 236.86868686868686,366.59933025314706 241.91919191919192,365.9064097925472 246.96969696969697,384.4834821556266 252.02020202020202,388.0973876564064 257.07070707070704,278.1543355113954 262.1212121212121,333.74787864315465 267.1717171717172,278.17901816051483 272.2222222222222,296.02038952904263 277.27272727272725,395.9231799133794 282.32323232323233,230.5500116155984 287.3737373737374,339.1779086949673 292.42424242424244,344.6841868045727 297.47474747474746,384.1771830164902 302.52525252525254,373.70670287543703 307.57575757575756,407.83862272036026 312.62626262626264,374.60454518467805 317.67676767676767,359.33549857153196 322.7272727272727,359.3112722780443 327.77777777777777,370.15295756326424 332.8282828282828,369.9512322210293 337.8787878787879,255.81342045651058 342.92929292929296,355.7440707170053 347.979797979798,228.65975641507032 353.03030303030306,194.7286872667661 358.0808080808081,331.42982233380076 363.13131313131316,264.8113464279484 368.1818181818182,238.07755193840495 373.23232323232327,237.49400196785172 378.2828282828283,194.66412006990373 383.3333333333333,311.8331307359945 388.3838383838384,311.8099933898202 393.4343434343434,373.78980688383973 398.4848484848485,386.95394913517015 403.5353535353535,374.4062894586833 408.58585858585855,196.86521891335798 413.6363636363636,312.39358321270925 418.68686868686865,404.20107420824405 423.73737373737373,328.00420957070287 428.7878787878788,328.00420957070287 433.83838383838383,265.79355483751004 438.8888888888889,324.73486869315263 443.93939393939394,324.6066001930319 448.989898989899,395.0900983844766 454.04040404040404,396.88929465809554 459.0909090909091,396.47967623581457 464.14141414141415,414.3954389095642 469.19191919191917,414.43007645881835 474.24242424242425,412.7402711188723 479.2929292929293,414.4197094238971 484.34343434343435,401.61597839682764 489.3939393939394,394.49123051823494 494.4444444444444,393.67898377458505 499.4949494949495,396.54774950518885 504.5454545454545,396.4233637375054 509.59595959595964,393.5927537447873 514.6464646464647,386.81150543303033 519.6969696969697,369.71670965319913 524.7474747474748,341.90169681353353 529.7979797979798,215.20718851869157 534.8484848484849,369.44201211550825 539.8989898989898,269.1850684734839 544.9494949494949,386.5623966701387 550.0,406.44124425192206" fill="none" stroke="rgb(0,0,0)" stroke-width="1"/><circle cx="50.0" cy="413.87595831152373" r="2" fill="rgb(0,0,0)"/><circle cx="55.05050505050505" cy="413.78606646749677" r="2" fill="rgb(0,0,0)"/><circle cx="60.101010101010104" cy="409.37060632181215" r="2" fill="rgb(0,0,0)"/><circle cx="65.15151515151516" cy="407.1154751873587" r="2" fill="rgb(0,0,0)"/><circle cx="70.20202020202021" cy="389.67485140681015" r="2" fill="rgb(0,0,0)"/><circle cx="75.25252525252526" cy="390.9022278046268" r="2" fill="rgb(0,0,0)"/><circle cx="80.30303030303031" cy="392.1640159080806" r="2" fill="rgb(0,0,0)"/><circle cx="85.35353535353535" cy="392.278786516193" r="2" fill="rgb(0,0,0)"/><circle cx="90.40404040404042" cy="373.6885412349311" r="2" fill="rgb(0,0,0)"/><circle cx="95.45454545454545" cy="373.1611690191843" r="2" fill="rgb(0,0,0)"/><circle cx="100.5050505050505" cy="295.89728269764396" r="2" fill="rgb(0,0,0)"/><circle cx="105.55555555555554" cy="355.5843044585356" r="2" fill="rgb(0,0,0)"/><circle cx="110.60606060606061" cy="419.9906791744537" r="2" fill="rgb(0,0,0)"/><circle cx="115.65656565656566" cy="163.20778901753772" r="2" fill="rgb(0,0,0)"/><circle cx="120.7070707070707" cy="183.6284418232529" r="2" fill="rgb(0,0,0)"/><circle cx="125.75757575757576" cy="368.7483908334275" r="2" fill="rgb(0,0,0)"/><circle cx="130.80808080808083" cy="393.01887629085195" r="2" fill="rgb(0,0,0)"/><circle cx="135.85858585858585" cy="392.91969285007224" r="2" fill="rgb(0,0,0)"/><circle cx="140.9090909090909" cy="405.92350190230434" r="2" fill="rgb(0,0,0)"/><circle cx="145.95959595959596" cy="404.95601913742144" r="2" fill="rgb(0,0,0)"/><circle cx="151.010101010101" cy="385.4787884604971" r="2" fill="rgb(0,0,0)"/><circle cx="156.06060606060606" cy="383.04893927482556" r="2" fill="rgb(0,0,0)"/><circle cx="161.1111111111111" cy="386.2894824033284" r="2" fill="rgb(0,0,0)"/><circle cx="166.16161616161617" cy="384.97292712106366" r="2" fill="rgb(0,0,0)"/><circle cx="171.21212121212122" cy="383.5232338123916" r="2" fill="rgb(0,0,0)"/><circle cx="176.26262626262627" cy="380.8174822456582" r="2" fill="rgb(0,0,0)"/><circle cx="181.31313131313132" cy="380.8153016011761" r="2" fill="rgb(0,0,0)"/><circle cx="186.36363636363635" cy="412.8386683300776" r="2" fill="rgb(0,0,0)"/><circle cx="191.4141414141414" cy="211.85409480790344" r="2" fill="rgb(0,0,0)"/><circle cx="196.46464646464648" cy="382.5356259544477" r="2" fill="rgb(0,0,0)"/><circle cx="201.51515151515153" cy="408.92119739907474" r="2" fill="rgb(0,0,0)"/><circle cx="206.56565656565658" cy="411.0691749778655" r="2" fill="rgb(0,0,0)"/><circle cx="211.61616161616163" cy="367.1353757881512" r="2" fill="rgb(0,0,0)"/><circle cx="216.66666666666666" cy="336.49255599253416" r="2" fill="rgb(0,0,0)"/><circle cx="221.7171717171717" cy="411.7411726598615" r="2" fill="rgb(0,0,0)"/><circle cx="226.76767676767676" cy="412.20420312355174" r="2" fill="rgb(0,0,0)"/><circle cx="231.8181818181818" cy="291.264593382468" r="2" fill="rgb(0,0,0)"/><circle cx="236.86868686868686" cy="366.59933025314706" r="2" fill="rgb(0,0,0)"/><circle cx="241.91919191919192" cy="365.9064097925472" r="2" fill="rgb(0,0,0)"/><circle cx="246.96969696969697" cy="384.4834821556266" r="2" fill="rgb(0,0,0)"/><circle cx="252.02020202020202" cy="388.0973876564064" r="2" fill="rgb(0,0,0)"/><circle cx="257.07070707070704" cy="278.1543355113954" r="2" fill="rgb(0,0,0)"/><circle cx="262.1212121212121" cy="333.74787864315465" r="2" fill="rgb(0,0,0)"/><circle cx="267.1717171717172" cy="278.17901816051483" r="2" fill="rgb(0,0,0)"/><circle cx="272.2222222222222" cy="296.02038952904263" r="2" fill="rgb(0,0,0)"/><circle cx="277.27272727272725" cy="395.9231799133794" r="2" fill="rgb(0,0,0)"/><circle cx="282.32323232323233" cy="230.5500116155984" r="2" fill="rgb(0,0,0)"/><circle cx="287.3737373737374" cy="339.1779086949673" r="2" fill="rgb(0,0,0)"/><circle cx="292.42424242424244" cy="344.6841868045727" r="2" fill="rgb(0,0,0)"/><circle cx="297.47474747474746" cy="384.1771830164902" r="2" fill="rgb(0,0,0)"/><circle cx="302.52525252525254" cy="373.70670287543703" r="2" fill="rgb(0,0,0)"/><circle cx="307.57575757575756" cy="407.83862272036026" r="2" fill="rgb(0,0,0)"/><circle cx="312.62626262626264" cy="374.60454518467805" r="2" fill="rgb(0,0,0)"/><circle cx="317.67676767676767" cy="359.33549857153196" r="2" fill="rgb(0,0,0)"/><circle cx="322.7272727272727" cy="359.3112722780443" r="2" fill="rgb(0,0,0)"/><circle cx="327.77777777777777" cy="370.15295756326424" r="2" fill="rgb(0,0,0)"/><circle cx="332.8282828282828" cy="369.9512322210293" r="2" fill="rgb(0,0,0)"/><circle cx="337.8787878787879" cy="255.81342045651058" r="2" fill="rgb(0,0,0)"/><circle cx="342.92929292929296" cy="355.7440707170053" r="2" fill="rgb(0,0,0)"/><circle cx="347.979797979798" cy="228.65975641507032" r="2" fill="rgb(0,0,0)"/><circle cx="353.03030303030306" cy="194.7286872667661" r="2" fill="rgb(0,0,0)"/><circle cx="358.0808080808081" cy="331.42982233380076" r="2" fill="rgb(0,0,0)"/><circle cx="363.13131313131316" cy="264.8113464279484" r="2" fill="rgb(0,0,0)"/><circle cx="368.1818181818182" cy="238.07755193840495" r="2" fill="rgb(0,0,0)"/><circle cx="373.23232323232327" cy="237.49400196785172" r="2" fill="rgb(0,0,0)"/><circle cx="378.2828282828283" cy="194.66412006990373" r="2" fill="rgb(0,0,0)"/><circle cx="383.3333333333333" cy="311.8331307359945" r="2" fill="rgb(0,0,0)"/><circle cx="388.3838383838384" cy="311.8099933898202" r="2" fill="rgb(0,0,0)"/><circle cx="393.4343434343434" cy="373.78980688383973" r="2" fill="rgb(0,0,0)"/><circle cx="398.4848484848485" cy="386.95394913517015" r="2" fill="rgb(0,0,0)"/><circle cx="403.5353535353535" cy="374.4062894586833" r="2" fill="rgb(0,0,0)"/><circle cx="408.58585858585855" cy="196.86521891335798" r="2" fill="rgb(0,0,0)"/><circle cx="413.6363636363636" cy="312.39358321270925" r="2" fill="rgb(0,0,0)"/><circle cx="418.68686868686865" cy="404.20107420824405" r="2" fill="rgb(0,0,0)"/><circle cx="423.73737373737373" cy="328.00420957070287" r="2" fill="rgb(0,0,0)"/><circle cx="428.7878787878788" cy="328.00420957070287" r="2" fill="rgb(0,0,0)"/><circle cx="433.83838383838383" cy="265.79355483751004" r="2" fill="rgb(0,0,0)"/><circle cx="438.8888888888889" cy="324.73486869315263" r="2" fill="rgb(0,0,0)"/><circle cx="443.93939393939394" cy="324.6066001930319" r="2" fill="rgb(0,0,0)"/><circle cx="448.989898989899" cy="395.0900983844766" r="2" fill="rgb(0,0,0)"/><circle cx="454.04040404040404" cy="396.88929465809554" r="2" fill="rgb(0,0,0)"/><circle cx="459.0909090909091" cy="396.47967623581457" r="2" fill="rgb(0,0,0)"/><circle cx="464.14141414141415" cy="414.3954389095642" r="2" fill="rgb(0,0,0)"/><circle cx="469.19191919191917" cy="414.43007645881835" r="2" fill="rgb(0,0,0)"/><circle cx="474.24242424242425" cy="412.7402711188723" r="2" fill="rgb(0,0,0)"/><circle cx="479.2929292929293" cy="414.4197094238971" r="2" fill="rgb(0,0,0)"/><circle cx="484.34343434343435" cy="401.61597839682764" r="2" fill="rgb(0,0,0)"/><circle cx="489.3939393939394" cy="394.49123051823494" r="2" fill="rgb(0,0,0)"/><circle cx="494.4444444444444" cy="393.67898377458505" r="2" fill="rgb(0,0,0)"/><circle cx="499.4949494949495" cy="396.54774950518885" r="2" fill="rgb(0,0,0)"/><circle cx="504.5454545454545" cy="396.4233637375054" r="2" fill="rgb(0,0,0)"/><circle cx="509.59595959595964" cy="393.5927537447873" r="2" fill="rgb(0,0,0)"/><circle cx="514.6464646464647" cy="386.81150543303033" r="2" fill="rgb(0,0,0)"/><circle cx="519.6969696969697" cy="369.71670965319913" r="2" fill="rgb(0,0,0)"/><circle cx="524.7474747474748" cy="341.90169681353353" r="2" fill="rgb(0,0,0)"/><circle cx="529.7979797979798" cy="215.20718851869157" r="2" fill="rgb(0,0,0)"/><circle cx="534.8484848484849" cy="369.44201211550825" r="2" fill="rgb(0,0,0)"/><circle cx="539.8989898989898" cy="269.1850684734839" r="2" fill="rgb(0,0,0)"/><circle cx="544.9494949494949" cy="386.5623966701387" r="2" fill="rgb(0,0,0)"/><circle cx="550.0" cy="406.44124425192206" r="2" fill="rgb(0,0,0)"/><polyline points="50.0,209.612980947167 55.05050505050505,177.26570078400835 60.101010101010104,171.88710271008512 65.15151515151516,142.2084563954091 70.20202020202021,125.85525011945464 75.25252525252526,112.73889049538474 80.30303030303031,103.4079593134121 85.35353535353535,104.50832142955625 90.40404040404042,103.97351898676203 95.45454545454545,88.68471631845927 100.5050505050505,81.32100036890245 105.55555555555554,77.0729713947411 110.60606060606061,79.49420202025351 115.65656565656566,69.76163099634704 120.7070707070707,68.28398683487296 125.75757575757576,72.68662827051202 130.80808080808083,84.55579850472685 135.85858585858585,81.0067319368693 140.9090909090909,78.47095375995906 145.95959595959596,72.40404047035264 151.010101010101,70.50484834568545 156.06060606060606,72.08783527313273 161.1111111111111,76.27774957211892 166.16161616161617,75.5803019471906 171.21212121212122,79.14928110838804 176.26262626262627,80.63119427832873 181.31313131313132,82.29303860778242 186.36363636363635,73.94356679271715 191.4141414141414,61.13826340202655 196.46464646464648,66.73879467744877 201.51515151515153,69.38322557735626 206.56565656565658,68.89631661406582 211.61616161616163,66.65974446760202 216.66666666666666,64.84462138989966 221.7171717171717,66.85035979518062 226.76767676767676,70.62895856290118 231.8181818181818,61.21654934809209 236.86868686868686,63.52220873956486 241.91919191919192,65.2311841862101 246.96969696969697,66.91280180720412 252.02020202020202,67.23181622678607 257.07070707070704,65.0844584192917 262.1212121212121,69.5316026721992 267.1717171717172,60.67628942958021 272.2222222222222,59.644723180666574 277.27272727272725,65.81973642605828 282.32323232323233,59.49705087764238 287.3737373737374,61.25928919179904 292.42424242424244,64.5756886816032 297.47474747474746,71.57054322158439 302.52525252525254,71.43922954676458 307.57575757575756,80.56758541794767 312.62626262626264,75.1316565401055 317.67676767676767,71.47254377384382 322.7272727272727,68.19210348335929 327.77777777777777,74.74151066628605 332.8282828282828,67.35945432101568 337.8787878787879,59.90829865237447 342.92929292929296,69.10394997549457 347.979797979798,59.52098665894766 353.03030303030306,58.89993852529801 358.0808080808081,65.23504403252224 363.13131313131316,63.78113072905427 368.1818181818182,64.05684196560253 373.23232323232327,64.39278144440829 378.2828282828283,55.80253466338388 383.3333333333333,60.49907339176383 388.3838383838384,57.66258916154976 393.4343434343434,68.63618856503734 398.4848484848485,62.95591331989726 403.5353535353535,58.11265120890681 408.58585858585855,55.6844598282712 413.6363636363636,60.21898110985086 418.68686868686865,61.59995169271281 423.73737373737373,62.89911107828931 428.7878787878788,66.98401580507596 433.83838383838383,61.49663620837265 438.8888888888889,66.72378272946622 443.93939393939394,71.25508267840075 448.989898989899,85.81851696552445 454.04040404040404,85.86028983499068 459.0909090909091,76.84329007254559 464.14141414141415,69.91910323922184 469.19191919191917,61.40081109161349 474.24242424242425,65.83625294213437 479.2929292929293,70.08241184485348 484.34343434343435,65.27275093161302 489.3939393939394,61.01090204920371 494.4444444444444,63.73593034803372 499.4949494949495,73.0796085270361 504.5454545454545,82.33174314496313 509.59595959595964,73.32222915706808 514.6464646464647,60.64910068099772 519.6969696969697,67.59075707029132 524.7474747474748,69.0340535781404 529.7979797979798,56.42047500372422 534.8484848484849,62.20260844306682 539.8989898989898,58.70646737174525 544.9494949494949,60.153693221599156 550.0,60.56181408585411" fill="none" stroke="rgb(0,0,255)" stroke-width="1"/><circle cx="50.0" cy="209.612980947167" r="2" fill="rgb(0,0,255)"/><circle cx="55.05050505050505" cy="177.26570078400835" r="2" fill="rgb(0,0,255)"/><circle cx="60.101010101010104" cy="171.88710271008512" r="2" fill="rgb(0,0,255)"/><circle cx="65.15151515151516" cy="142.2084563954091" r="2" fill="rgb(0,0,255)"/><circle cx="70.20202020202021" cy="125.85525011945464" r="2" fill="rgb(0,0,255)"/><circle cx="75.25252525252526" cy="112.73889049538474" r="2" fill="rgb(0,0,255)"/><circle cx="80.30303030303031" cy="103.4079593134121" r="2" fill="rgb(0,0,255)"/><circle cx="85.35353535353535" cy="104.50832142955625" r="2" fill="rgb(0,0,255)"/><circle cx="90.40404040404042" cy="103.97351898676203" r="2" fill="rgb(0,0,255)"/><circle cx="95.45454545454545" cy="88.68471631845927" r="2" fill="rgb(0,0,255)"/><circle cx="100.5050505050505" cy="81.32100036890245" r="2" fill="rgb(0,0,255)"/><circle cx="105.55555555555554" cy="77.0729713947411" r="2" fill="rgb(0,0,255)"/><circle cx="110.60606060606061" cy="79.49420202025351" r="2" fill="rgb(0,0,255)"/><circle cx="115.65656565656566" cy="69.76163099634704" r="2" fill="rgb(0,0,255)"/><circle cx="120.7070707070707" cy="68.28398683487296" r="2" fill="rgb(0,0,255)"/><circle cx="125.75757575757576" cy="72.68662827051202" r="2" fill="rgb(0,0,255)"/><circle cx="130.80808080808083" cy="84.55579850472685" r="2" fill="rgb(0,0,255)"/><circle cx="135.85858585858585" cy="81.0067319368693" r="2" fill="rgb(0,0,255)"/><circle cx="140.9090909090909" cy="78.47095375995906" r="2" fill="rgb(0,0,255)"/><circle cx="145.95959595959596" cy="72.40404047035264" r="2" fill="rgb(0,0,255)"/><circle cx="151.010101010101" cy="70.50484834568545" r="2" fill="rgb(0,0,255)"/><circle cx="156.06060606060606" cy="72.08783527313273" r="2" fill="rgb(0,0,255)"/><circle cx="161.1111111111111" cy="76.27774957211892" r="2" fill="rgb(0,0,255)"/><circle cx="166.16161616161617" cy="75.5803019471906" r="2" fill="rgb(0,0,255)"/><circle cx="171.21212121212122" cy="79.14928110838804" r="2" fill="rgb(0,0,255)"/><circle cx="176.26262626262627" cy="80.63119427832873" r="2" fill="rgb(0,0,255)"/><circle cx="181.31313131313132" cy="82.29303860778242" r="2" fill="rgb(0,0,255)"/><circle cx="186.36363636363635" cy="73.94356679271715" r="2" fill="rgb(0,0,255)"/><circle cx="191.4141414141414" cy="61.13826340202655" r="2" fill="rgb(0,0,255)"/><circle cx="196.46464646464648" cy="66.73879467744877" r="2" fill="rgb(0,0,255)"/><circle cx="201.51515151515153" cy="69.38322557735626" r="2" fill="rgb(0,0,255)"/><circle cx="206.56565656565658" cy="68.89631661406582" r="2" fill="rgb(0,0,255)"/><circle cx="211.61616161616163" cy="66.65974446760202" r="2" fill="rgb(0,0,255)"/><circle cx="216.66666666666666" cy="64.84462138989966" r="2" fill="rgb(0,0,255)"/><circle cx="221.7171717171717" cy="66.85035979518062" r="2" fill="rgb(0,0,255)"/><circle cx="226.76767676767676" cy="70.62895856290118" r="2" fill="rgb(0,0,255)"/><circle cx="231.8181818181818" cy="61.21654934809209" r="2" fill="rgb(0,0,255)"/><circle cx="236.86868686868686" cy="63.52220873956486" r="2" fill="rgb(0,0,255)"/><circle cx="241.91919191919192" cy="65.2311841862101" r="2" fill="rgb(0,0,255)"/><circle cx="246.96969696969697" cy="66.91280180720412" r="2" fill="rgb(0,0,255)"/><circle cx="252.02020202020202" cy="67.23181622678607" r="2" fill="rgb(0,0,255)"/><circle cx="257.07070707070704" cy="65.0844584192917" r="2" fill="rgb(0,0,255)"/><circle cx="262.1212121212121" cy="69.5316026721992" r="2" fill="rgb(0,0,255)"/><circle cx="267.1717171717172" cy="60.67628942958021" r="2" fill="rgb(0,0,255)"/><circle cx="272.2222222222222" cy="59.644723180666574" r="2" fill="rgb(0,0,255)"/><circle cx="277.27272727272725" cy="65.81973642605828" r="2" fill="rgb(0,0,255)"/><circle cx="282.32323232323233" cy="59.49705087764238" r="2" fill="rgb(0,0,255)"/><circle cx="287.3737373737374" cy="61.25928919179904" r="2" fill="rgb(0,0,255)"/><circle cx="292.42424242424244" cy="64.5756886816032" r="2" fill="rgb(0,0,255)"/><circle cx="297.47474747474746" cy="71.57054322158439" r="2" fill="rgb(0,0,255)"/><circle cx="302.52525252525254" cy="71.43922954676458" r="2" fill="rgb(0,0,255)"/><circle cx="307.57575757575756" cy="80.56758541794767" r="2" fill="rgb(0,0,255)"/><circle cx="312.62626262626264" cy="75.1316565401055" r="2" fill="rgb(0,0,255)"/><circle cx="317.67676767676767" cy="71.47254377384382" r="2" fill="rgb(0,0,255)"/><circle cx="322.7272727272727" cy="68.19210348335929" r="2" fill="rgb(0,0,255)"/><circle cx="327.77777777777777" cy="74.74151066628605" r="2" fill="rgb(0,0,255)"/><circle cx="332.8282828282828" cy="67.35945432101568" r="2" fill="rgb(0,0,255)"/><circle cx="337.8787878787879" cy="59.90829865237447" r="2" fill="rgb(0,0,255)"/><circle cx="342.92929292929296" cy="69.10394997549457" r="2" fill="rgb(0,0,255)"/><circle cx="347.979797979798" cy="59.52098665894766" r="2" fill="rgb(0,0,255)"/><circle cx="353.03030303030306" cy="58.89993852529801" r="2" fill="rgb(0,0,255)"/><circle cx="358.0808080808081" cy="65.23504403252224" r="2" fill="rgb(0,0,255)"/><circle cx="363.13131313131316" cy="63.78113072905427" r="2" fill="rgb(0,0,255)"/><circle cx="368.1818181818182" cy="64.05684196560253" r="2" fill="rgb(0,0,255)"/><circle cx="373.23232323232327" cy="64.39278144440829" r="2" fill="rgb(0,0,255)"/><circle cx="378.2828282828283" cy="55.80253466338388" r="2" fill="rgb(0,0,255)"/><circle cx="383.3333333333333" cy="60.49907339176383" r="2" fill="rgb(0,0,255)"/><circle cx="388.3838383838384" cy="57.66258916154976" r="2" fill="rgb(0,0,255)"/><circle cx="393.4343434343434" cy="68.63618856503734" r="2" fill="rgb(0,0,255)"/><circle cx="398.4848484848485" cy="62.95591331989726" r="2" fill="rgb(0,0,255)"/><circle cx="403.5353535353535" cy="58.11265120890681" r="2" fill="rgb(0,0,255)"/><circle cx="408.58585858585855" cy="55.6844598282712" r="2" fill="rgb(0,0,255)"/><circle cx="413.6363636363636" cy="60.21898110985086" r="2" fill="rgb(0,0,255)"/><circle cx="418.68686868686865" cy="61.59995169271281" r="2" fill="rgb(0,0,255)"/><circle cx="423.73737373737373" cy="62.89911107828931" r="2" fill="rgb(0,0,255)"/><circle cx="428.7878787878788" cy="66.98401580507596" r="2" fill="rgb(0,0,255)"/><circle cx="433.83838383838383" cy="61.49663620837265" r="2" fill="rgb(0,0,255)"/><circle cx="438.8888888888889" cy="66.72378272946622" r="2" fill="rgb(0,0,255)"/><circle cx="443.93939393939394" cy="71.25508267840075" r="2" fill="rgb(0,0,255)"/><circle cx="448.989898989899" cy="85.81851696552445" r="2" fill="rgb(0,0,255)"/><circle cx="454.04040404040404" cy="85.86028983499068" r="2" fill="rgb(0,0,255)"/><circle cx="459.0909090909091" cy="76.84329007254559" r="2" fill="rgb(0,0,255)"/><circle cx="464.14141414141415" cy="69.91910323922184" r="2" fill="rgb(0,0,255)"/><circle cx="469.19191919191917" cy="61.40081109161349" r="2" fill="rgb(0,0,255)"/><circle cx="474.24242424242425" cy="65.83625294213437" r="2" fill="rgb(0,0,255)"/><circle cx="479.2929292929293" cy="70.08241184485348" r="2" fill="rgb(0,0,255)"/><circle cx="484.34343434343435" cy="65.27275093161302" r="2" fill="rgb(0,0,255)"/><circle cx="489.3939393939394" cy="61.01090204920371" r="2" fill="rgb(0,0,255)"/><circle cx="494.4444444444444" cy="63.73593034803372" r="2" fill="rgb(0,0,255)"/><circle cx="499.4949494949495" cy="73.0796085270361" r="2" fill="rgb(0,0,255)"/><circle cx="504.5454545454545" cy="82.33174314496313" r="2" fill="rgb(0,0,255)"/><circle cx="509.59595959595964" cy="73.32222915706808" r="2" fill="rgb(0,0,255)"/><circle cx="514.6464646464647" cy="60.64910068099772" r="2" fill="rgb(0,0,255)"/><circle cx="519.6969696969697" cy="67.59075707029132" r="2" fill="rgb(0,0,255)"/><circle cx="524.7474747474748" cy="69.0340535781404" r="2" fill="rgb(0,0,255)"/><circle cx="529.7979797979798" cy="56.42047500372422" r="2" fill="rgb(0,0,255)"/><circle cx="534.8484848484849" cy="62.20260844306682" r="2" fill="rgb(0,0,255)"/><circle cx="539.8989898989898" cy="58.70646737174525" r="2" fill="rgb(0,0,255)"/><circle cx="544.9494949494949" cy="60.153693221599156" r="2" fill="rgb(0,0,255)"/><circle cx="550.0" cy="60.56181408585411" r="2" fill="rgb(0,0,255)"/><polyline points="50.0,62.19716144655706 55.05050505050505,60.87602227907337 60.101010101010104,61.91280593538113 65.15151515151516,60.39688162898142 70.20202020202021,59.93694666554626 75.25252525252526,59.96815520064882 80.30303030303031,59.784510311644624 85.35353535353535,60.52342884502991 90.40404040404042,60.478105974026676 95.45454545454545,59.823224506327506 100.5050505050505,60.165740942910304 105.55555555555554,60.553547013339085 110.60606060606061,59.757477861089114 115.65656565656566,59.80319611155079 120.7070707070707,59.2582495738132 125.75757575757576,59.72900479782061 130.80808080808083,59.622184135457246 135.85858585858585,59.38809162782809 140.9090909090909,58.98738388668522 145.95959595959596,58.44537057301244 151.010101010101,58.12812357356273 156.06060606060606,58.7659949740891 161.1111111111111,58.37818890366026 166.16161616161617,58.361106793579324 171.21212121212122,57.70292731438758 176.26262626262627,57.72302314989031 181.31313131313132,56.103096075483904 186.36363636363635,55.90505154108382 191.4141414141414,56.061114915087785 196.46464646464648,55.44539044191038 201.51515151515153,54.15702597585636 206.56565656565658,54.24109591989384 211.61616161616163,54.24109591989384 216.66666666666666,54.28412353368998 221.7171717171717,54.30834982717761 226.76767676767676,54.19987410230834 231.8181818181818,54.31525881003756 236.86868686868686,54.015264751159464 241.91919191919192,53.92022245908987 246.96969696969697,54.00346701476849 252.02020202020202,53.9779048514996 257.07070707070704,53.92022245908987 262.1212121212121,53.78218925018484 267.1717171717172,53.924296642369995 272.2222222222222,54.00446007807267 277.27272727272725,53.78218925018484 282.32323232323233,53.83942496837358 287.3737373737374,53.83942496837358 292.42424242424244,53.77133132019725 297.47474747474746,53.922944809495505 302.52525252525254,53.829013712607036 307.57575757575756,53.77133132019725 312.62626262626264,53.77133132019725 317.67676767676767,53.77133132019725 322.7272727272727,53.80369319326684 327.77777777777777,53.80369319326684 332.8282828282828,53.783818379387185 337.8787878787879,53.74710502670962 342.92929292929296,53.77946689977921 347.979797979798,53.77946689977921 353.03030303030306,50.90716085520933 358.0808080808081,50.03769585887602 363.13131313131316,50.17078355465145 368.1818181818182,51.68194383793423 373.23232323232327,51.273085109465 378.2828282828283,51.28655347199441 383.3333333333333,51.181452495708925 388.3838383838384,51.295255400086376 393.4343434343434,51.162167704311 398.4848484848485,51.24051078054856 403.5353535353535,50.564195669553044 408.58585858585855,50.564195669553044 413.6363636363636,50.50651327714331 418.68686868686865,50.51900033633319 423.73737373737373,51.142292890431406 428.7878787878788,50.48228698365568 433.83838383838383,50.427431332846254 438.8888888888889,50.335518469503995 443.93939393939394,50.34919928788025 448.989898989899,50.35790121597222 454.04040404040404,50.273947818515296 459.0909090909091,50.38156116094984 464.14141414141415,50.335518469503995 469.19191919191917,50.31564365562434 474.24242424242425,50.38156116094984 479.2929292929293,50.34919928788025 484.34343434343435,50.35790121597222 489.3939393939394,50.198307738039716 494.4444444444444,50.289484517899666 499.4949494949495,50.23730057938684 504.5454545454545,50.22481352019685 509.59595959595964,50.198307738039716 514.6464646464647,50.25717539326644 519.6969696969697,50.22481352019685 524.7474747474748,50.23066961110925 529.7979797979798,50.25945106945102 534.8484848484849,50.222534031527346 539.8989898989898,50.11609434561609 544.9494949494949,50.0 550.0,50.11609434561609" fill="none" stroke="rgb(0,255,0)" stroke-width="1"/><circle cx="50.0" cy="62.19716144655706" r="2" fill="rgb(0,255,0)"/><circle cx="55.05050505050505" cy="60.87602227907337" r="2" fill="rgb(0,255,0)"/><circle cx="60.101010101010104" cy="61.91280593538113" r="2" fill="rgb(0,255,0)"/><circle cx="65.15151515151516" cy="60.39688162898142" r="2" fill="rgb(0,255,0)"/><circle cx="70.20202020202021" cy="59.93694666554626" r="2" fill="rgb(0,255,0)"/><circle cx="75.25252525252526" cy="59.96815520064882" r="2" fill="rgb(0,255,0)"/><circle cx="80.30303030303031" cy="59.784510311644624" r="2" fill="rgb(0,255,0)"/><circle cx="85.35353535353535" cy="60.52342884502991" r="2" fill="rgb(0,255,0)"/><circle cx="90.40404040404042" cy="60.478105974026676" r="2" fill="rgb(0,255,0)"/><circle cx="95.45454545454545" cy="59.823224506327506" r="2" fill="rgb(0,255,0)"/><circle cx="100.5050505050505" cy="60.165740942910304" r="2" fill="rgb(0,255,0)"/><circle cx="105.55555555555554" cy="60.553547013339085" r="2" fill="rgb(0,255,0)"/><circle cx="110.60606060606061" cy="59.757477861089114" r="2" fill="rgb(0,255,0)"/><circle cx="115.65656565656566" cy="59.80319611155079" r="2" fill="rgb(0,255,0)"/><circle cx="120.7070707070707" cy="59.2582495738132" r="2" fill="rgb(0,255,0)"/><circle cx="125.75757575757576" cy="59.72900479782061" r="2" fill="rgb(0,255,0)"/><circle cx="130.80808080808083" cy="59.622184135457246" r="2" fill="rgb(0,255,0)"/><circle cx="135.85858585858585" cy="59.38809162782809" r="2" fill="rgb(0,255,0)"/><circle cx="140.9090909090909" cy="58.98738388668522" r="2" fill="rgb(0,255,0)"/><circle cx="145.95959595959596" cy="58.44537057301244" r="2" fill="rgb(0,255,0)"/><circle cx="151.010101010101" cy="58.12812357356273" r="2" fill="rgb(0,255,0)"/><circle cx="156.06060606060606" cy="58.7659949740891" r="2" fill="rgb(0,255,0)"/><circle cx="161.1111111111111" cy="58.37818890366026" r="2" fill="rgb(0,255,0)"/><circle cx="166.16161616161617" cy="58.361106793579324" r="2" fill="rgb(0,255,0)"/><circle cx="171.21212121212122" cy="57.70292731438758" r="2" fill="rgb(0,255,0)"/><circle cx="176.26262626262627" cy="57.72302314989031" r="2" fill="rgb(0,255,0)"/><circle cx="181.31313131313132" cy="56.103096075483904" r="2" fill="rgb(0,255,0)"/><circle cx="186.36363636363635" cy="55.90505154108382" r="2" fill="rgb(0,255,0)"/><circle cx="191.4141414141414" cy="56.061114915087785" r="2" fill="rgb(0,255,0)"/><circle cx="196.46464646464648" cy="55.44539044191038" r="2" fill="rgb(0,255,0)"/><circle cx="201.51515151515153" cy="54.15702597585636" r="2" fill="rgb(0,255,0)"/><circle cx="206.56565656565658" cy="54.24109591989384" r="2" fill="rgb(0,255,0)"/><circle cx="211.61616161616163" cy="54.24109591989384" r="2" fill="rgb(0,255,0)"/><circle cx="216.66666666666666" cy="54.28412353368998" r="2" fill="rgb(0,255,0)"/><circle cx="221.7171717171717" cy="54.30834982717761" r="2" fill="rgb(0,255,0)"/><circle cx="226.76767676767676" cy="54.19987410230834" r="2" fill="rgb(0,255,0)"/><circle cx="231.8181818181818" cy="54.31525881003756" r="2" fill="rgb(0,255,0)"/><circle cx="236.86868686868686" cy="54.015264751159464" r="2" fill="rgb(0,255,0)"/><circle cx="241.91919191919192" cy="53.92022245908987" r="2" fill="rgb(0,255,0)"/><circle cx="246.96969696969697" cy="54.00346701476849" r="2" fill="rgb(0,255,0)"/><circle cx="252.02020202020202" cy="53.9779048514996" r="2" fill="rgb(0,255,0)"/><circle cx="257.07070707070704" cy="53.92022245908987" r="2" fill="rgb(0,255,0)"/><circle cx="262.1212121212121" cy="53.78218925018484" r="2" fill="rgb(0,255,0)"/><circle cx="267.1717171717172" cy="53.924296642369995" r="2" fill="rgb(0,255,0)"/><circle cx="272.2222222222222" cy="54.00446007807267" r="2" fill="rgb(0,255,0)"/><circle cx="277.27272727272725" cy="53.78218925018484" r="2" fill="rgb(0,255,0)"/><circle cx="282.32323232323233" cy="53.83942496837358" r="2" fill="rgb(0,255,0)"/><circle cx="287.3737373737374" cy="53.83942496837358" r="2" fill="rgb(0,255,0)"/><circle cx="292.42424242424244" cy="53.77133132019725" r="2" fill="rgb(0,255,0)"/><circle cx="297.47474747474746" cy="53.922944809495505" r="2" fill="rgb(0,255,0)"/><circle cx="302.52525252525254" cy="53.829013712607036" r="2" fill="rgb(0,255,0)"/><circle cx="307.57575757575756" cy="53.77133132019725" r="2" fill="rgb(0,255,0)"/><circle cx="312.62626262626264" cy="53.77133132019725" r="2" fill="rgb(0,255,0)"/><circle cx="317.67676767676767" cy="53.77133132019725" r="2" fill="rgb(0,255,0)"/><circle cx="322.7272727272727" cy="53.80369319326684" r="2" fill="rgb(0,255,0)"/><circle cx="327.77777777777777" cy="53.80369319326684" r="2" fill="rgb(0,255,0)"/><circle cx="332.8282828282828" cy="53.783818379387185" r="2" fill="rgb(0,255,0)"/><circle cx="337.8787878787879" cy="53.74710502670962" r="2" fill="rgb(0,255,0)"/><circle cx="342.92929292929296" cy="53.77946689977921" r="2" fill="rgb(0,255,0)"/><circle cx="347.979797979798" cy="53.77946689977921" r="2" fill="rgb(0,255,0)"/><circle cx="353.03030303030306" cy="50.90716085520933" r="2" fill="rgb(0,255,0)"/><circle cx="358.0808080808081" cy="50.03769585887602" r="2" fill="rgb(0,255,0)"/><circle cx="363.13131313131316" cy="50.17078355465145" r="2" fill="rgb(0,255,0)"/><circle cx="368.1818181818182" cy="51.68194383793423" r="2" fill="rgb(0,255,0)"/><circle cx="373.23232323232327" cy="51.273085109465" r="2" fill="rgb(0,255,0)"/><circle cx="378.2828282828283" cy="51.28655347199441" r="2" fill="rgb(0,255,0)"/><circle cx="383.3333333333333" cy="51.181452495708925" r="2" fill="rgb(0,255,0)"/><circle cx="388.3838383838384" cy="51.295255400086376" r="2" fill="rgb(0,255,0)"/><circle cx="393.4343434343434" cy="51.162167704311" r="2" fill="rgb(0,255,0)"/><circle cx="398.4848484848485" cy="51.24051078054856" r="2" fill="rgb(0,255,0)"/><circle cx="403.5353535353535" cy="50.564195669553044" r="2" fill="rgb(0,255,0)"/><circle cx="408.58585858585855" cy="50.564195669553044" r="2" fill="rgb(0,255,0)"/><circle cx="413.6363636363636" cy="50.50651327714331" r="2" fill="rgb(0,255,0)"/><circle cx="418.68686868686865" cy="50.51900033633319" r="2" fill="rgb(0,255,0)"/><circle cx="423.73737373737373" cy="51.142292890431406" r="2" fill="rgb(0,255,0)"/><circle cx="428.7878787878788" cy="50.48228698365568" r="2" fill="rgb(0,255,0)"/><circle cx="433.83838383838383" cy="50.427431332846254" r="2" fill="rgb(0,255,0)"/><circle cx="438.8888888888889" cy="50.335518469503995" r="2" fill="rgb(0,255,0)"/><circle cx="443.93939393939394" cy="50.34919928788025" r="2" fill="rgb(0,255,0)"/><circle cx="448.989898989899" cy="50.35790121597222" r="2" fill="rgb(0,255,0)"/><circle cx="454.04040404040404" cy="50.273947818515296" r="2" fill="rgb(0,255,0)"/><circle cx="459.0909090909091" cy="50.38156116094984" r="2" fill="rgb(0,255,0)"/><circle cx="464.14141414141415" cy="50.335518469503995" r="2" fill="rgb(0,255,0)"/><circle cx="469.19191919191917" cy="50.31564365562434" r="2" fill="rgb(0,255,0)"/><circle cx="474.24242424242425" cy="50.38156116094984" r="2" fill="rgb(0,255,0)"/><circle cx="479.2929292929293" cy="50.34919928788025" r="2" fill="rgb(0,255,0)"/><circle cx="484.34343434343435" cy="50.35790121597222" r="2" fill="rgb(0,255,0)"/><circle cx="489.3939393939394" cy="50.198307738039716" r="2" fill="rgb(0,255,0)"/><circle cx="494.4444444444444" cy="50.289484517899666" r="2" fill="rgb(0,255,0)"/><circle cx="499.4949494949495" cy="50.23730057938684" r="2" fill="rgb(0,255,0)"/><circle cx="504.5454545454545" cy="50.22481352019685" r="2" fill="rgb(0,255,0)"/><circle cx="509.59595959595964" cy="50.198307738039716" r="2" fill="rgb(0,255,0)"/><circle cx="514.6464646464647" cy="50.25717539326644" r="2" fill="rgb(0,255,0)"/><circle cx="519.6969696969697" cy="50.22481352019685" r="2" fill="rgb(0,255,0)"/><circle cx="524.7474747474748" cy="50.23066961110925" r="2" fill="rgb(0,255,0)"/><circle cx="529.7979797979798" cy="50.25945106945102" r="2" fill="rgb(0,255,0)"/><circle cx="534.8484848484849" cy="50.222534031527346" r="2" fill="rgb(0,255,0)"/><circle cx="539.8989898989898" cy="50.11609434561609" r="2" fill="rgb(0,255,0)"/><circle cx="544.9494949494949" cy="50.0" r="2" fill="rgb(0,255,0)"/><circle cx="550.0" cy="50.11609434561609" r="2" fill="rgb(0,255,0)"/><text x="350.0" y="20.0" text-anchor="middle" fill="rgb(0,0,0)" font-size="20.0">GA Demo</text><text x="350.0" y="575.0" text-anchor="middle" fill="rgb(0,0,0)" font-size="12.0">generation</text><text transform="rotate(-90.0 20.0 300.0)" x="20.0" y="300.0" text-anchor="middle" fill="rgb(0,0,0)" font-size="12.0">fitness</text><text x="620" y="62" fill="rgb(0,0,0)" font-size="12">min</text><text x="620" y="74" fill="rgb(0,0,255)" font-size="12">ave</text><text x="620" y="86" fill="rgb(0,255,0)" font-size="12">max</text>
      Sorry, your browser does not support inline SVG.
    </svg>