<?xml version='1.0' encoding='UTF-8'?>
<svg version="1.1" width="700.0" height="600.0" onload="init(evt)" xmlns="http://www.w3.org/2000/svg">
      <style>.caption {
  font-size: 14px;
  font-family: Georgia, serif;
}
</style>
      <script type="text/ecmascript"><![CDATA[
function init(evt) {
  if ( window.svgDocument == null ) {
    svgDocument = evt.target.ownerDocument;
  }
}

function RectHover(evt, i, c) {
  rect = svgDocument.getElementById('rect' + i);
  if( c != null ) {
    rect.setAttributeNS(null, "fill", c)  
  }
  tooltiptext = svgDocument.getElementById('tooltiptext' + i);
  tooltipbg = svgDocument.getElementById('tooltipbg' + i);
  if( tooltipbg != null) {
    tbb = tooltiptext.getBBox();
    tooltipbg.setAttributeNS(null, "width", tbb.width);
    tooltipbg.setAttributeNS(null, "height", tbb.height);
    tooltipbg.setAttributeNS(null, "x", tbb.x);
    tooltipbg.setAttributeNS(null, "y", tbb.y);
    tooltipbg.setAttributeNS(null, "visibility", "visible");
  }
  tooltiptext.setAttributeNS(null,"visibility","visible");
}

function RectUnhover(evt, i, c) {
  rect = svgDocument.getElementById('rect' + i);
  if( c != null ) {
    rect.setAttributeNS(null, "fill", c)  
  }
  tooltiptext = svgDocument.getElementById('tooltiptext' + i);
  tooltiptext.setAttributeNS(null,"visibility","hidden");
  tooltipbg = svgDocument.getElementById('tooltipbg' + i);
  if( tooltipbg != null ) {
    tooltipbg.setAttributeNS(null,"visibility","hidden");
  }
}
]]></script>
      <line x1="50.0" y1="550.0" x2="550.0" y2="550.0" stroke="rgb(0,0,0)" stroke-width="1"/><line x1="50.0" y1="550.0" x2="50.0" y2="50.0" stroke="rgb(0,0,0)" stroke-width="1"/><line x1="50.0" y1="550.0" x2="50.0" y2="50.0" stroke="rgb(192,192,192)" stroke-width="1"/><line x1="50.0" y1="548.0" x2="50.0" y2="552.0" stroke="rgb(192,192,192)" stroke-width="1"/><text text-anchor="middle" alignment-baseline="hanging" x="50.0" y="553.0" font-size="12.0">0</text><line x1="100.5050505050505" y1="550.0" x2="100.5050505050505" y2="50.0" stroke="rgb(192,192,192)" stroke-width="1"/><line x1="100.5050505050505" y1="548.0" x2="100.5050505050505" y2="552.0" stroke="rgb(192,192,192)" stroke-width="1"/><text text-anchor="middle" alignment-baseline="hanging" x="100.5050505050505" y="553.0" font-size="12.0">10</text><line x1="151.010101010101" y1="550.0" x2="151.010101010101" y2="50.0" stroke="rgb(192,192,192)" stroke-width="1"/><line x1="151.010101010101" y1="548.0" x2="151.010101010101" y2="552.0" stroke="rgb(192,192,192)" stroke-width="1"/><text text-anchor="middle" alignment-baseline="hanging" x="151.010101010101" y="553.0" font-size="12.0">20</text><line x1="201.51515151515153" y1="550.0" x2="201.51515151515153" y2="50.0" stroke="rgb(192,192,192)" stroke-width="1"/><line x1="201.51515151515153" y1="548.0" x2="201.51515151515153" y2="552.0" stroke="rgb(192,192,192)" stroke-width="1"/><text text-anchor="middle" alignment-baseline="hanging" x="201.51515151515153" y="553.0" font-size="12.0">30</text><line x1="252.02020202020202" y1="550.0" x2="252.02020202020202" y2="50.0" stroke="rgb(192,192,192)" stroke-width="1"/><line x1="252.02020202020202" y1="548.0" x2="252.02020202020202" y2="552.0" stroke="rgb(192,192,192)" stroke-width="1"/><text text-anchor="middle" alignment-baseline="hanging" x="252.02020202020202" y="553.0" font-size="12.0">40</text><line x1="302.52525252525254" y1="550.0" x2="302.52525252525254" y2="50.0" stroke="rgb(192,192,192)" stroke-width="1"/><line x1="302.52525252525254" y1="548.0" x2="302.52525252525254" y2="552.0" stroke="rgb(192,192,192)" stroke-width="1"/><text text-anchor="middle" alignment-baseline="hanging" x="302.52525252525254" y="553.0" font-size="12.0">50</text><line x1="353.03030303030306" y1="550.0" x2="353.03030303030306" y2="50.0" stroke="rgb(192,192,192)" stroke-width="1"/><line x1="353.03030303030306" y1="548.0" x2="353.03030303030306" y2="552.0" stroke="rgb(192,192,192)" stroke-width="1"/><text text-anchor="middle" alignment-baseline="hanging" x="353.03030303030306" y="553.0" font-size="12.0">60</text><line x1="403.5353535353535" y1="550.0" x2="403.5353535353535" y2="50.0" stroke="rgb(192,192,192)" stroke-width="1"/><line x1="403.5353535353535" y1="548.0" x2="403.5353535353535" y2="552.0" stroke="rgb(192,192,192)" stroke-width="1"/><text text-anchor="middle" alignment-baseline="hanging" x="403.5353535353535" y="553.0" font-size="12.0">70</text><line x1="454.04040404040404" y1="550.0" x2="454.04040404040404" y2="50.0" stroke="rgb(192,192,192)" stroke-width="1"/><line x1="454.04040404040404" y1="548.0" x2="454.04040404040404" y2="552.0" stroke="rgb(192,192,192)" stroke-width="1"/><text text-anchor="middle" alignment-baseline="hanging" x="454.04040404040404" y="553.0" font-size="12.0">80</text><line x1="504.5454545454545" y1="550.0" x2="504.5454545454545" y2="50.0" stroke="rgb(192,192,192)" stroke-width="1"/><line x1="504.5454545454545" y1="548.0" x2="504.5454545454545" y2="552.0" stroke="rgb(192,192,192)" stroke-width="1"/><text text-anchor="middle" alignment-baseline="hanging" x="504.5454545454545" y="553.0" font-size="12.0">90</text><line x1="50.0" y1="550.0" x2="550.0" y2="550.0" stroke="rgb(192,192,192)" stroke-width="1"/><text text-anchor="end" alignment-baseline="middle" x="45.0" y="550.0" font-size="12.0">0.0</text><line x1="48.0" y1="550.0" x2="52.0" y2="550.0" stroke="rgb(192,192,192)" stroke-width="1"/><line x1="50.0" y1="367.90755220134344" x2="550.0" y2="367.90755220134344" stroke="rgb(192,192,192)" stroke-width="1"/><text text-anchor="end" alignment-baseline="middle" x="45.0" y="367.90755220134344" font-size="12.0">1000.0</text><line x1="48.0" y1="367.90755220134344" x2="52.0" y2="367.90755220134344" stroke="rgb(192,192,192)" stroke-width="1"/><line x1="50.0" y1="185.81510440268687" x2="550.0" y2="185.81510440268687" stroke="rgb(192,192,192)" stroke-width="1"/><text text-anchor="end" alignment-baseline="middle" x="45.0" y="185.81510440268687" font-size="12.0">2000.0</text><line x1="48.0" y1="185.81510440268687" x2="52.0" y2="185.81510440268687" stroke="rgb(192,192,192)" stroke-width="1"/><polyline points="50.0,430.03074840319056 55.05050505050505,432.12563654440737 60.101010101010104,369.2615638214167 65.15151515151516,368.00580646347044 70.20202020202021,348.7529800708704 75.25252525252526,416.50491038415555 80.30303030303031,416.3769736805542 85.35353535353535,416.7956911634791 90.40404040404042,405.5537081211344 95.45454545454545,405.71295826592143 100.5050505050505,401.65289255395896 105.55555555555554,397.71359835464307 110.60606060606061,398.3749292359584 115.65656565656566,366.0297814774233 120.7070707070707,368.36578823562354 125.75757575757576,366.88609092260026 130.80808080808083,367.71118165249266 135.85858585858585,367.10995551295355 140.9090909090909,368.45139906495 145.95959595959596,192.3597139213698 151.010101010101,302.77222179353157 156.06060606060606,373.6222493934019 161.1111111111111,301.40423871542055 166.16161616161617,303.7339050141619 171.21212121212122,303.220994824003 176.26262626262627,354.57468538771855 181.31313131313132,409.1496542430226 186.36363636363635,410.7384771399013 191.4141414141414,177.77076840250442 196.46464646464648,283.08397413062323 201.51515151515153,228.61400875332436 206.56565656565658,229.0707944411667 211.61616161616163,392.0944612699965 216.66666666666666,373.0541089368086 221.7171717171717,363.46651414686835 226.76767676767676,363.46651414686835 231.8181818181818,265.47494291994985 236.86868686868686,373.0793118857134 241.91919191919192,374.78668775358915 246.96969696969697,388.2808708187688 252.02020202020202,329.01897364904454 257.07070707070704,373.1349432625934 262.1212121212121,302.4869652483161 267.1717171717172,317.13988533000673 272.2222222222222,214.94797658404235 277.27272727272725,265.01156695181373 282.32323232323233,387.937782082358 287.3737373737374,364.98676857639333 292.42424242424244,366.3951125792509 297.47474747474746,366.16776876764084 302.52525252525254,366.26674539448646 307.57575757575756,215.75022653732083 312.62626262626264,215.36560125847785 317.67676767676767,324.84255382314893 322.7272727272727,414.2396244108104 327.77777777777777,414.30307138120895 332.8282828282828,415.45954054144937 337.8787878787879,369.3958125443486 342.92929292929296,370.5692747817755 347.979797979798,353.54820550399484 353.03030303030306,353.43832958074876 358.0808080808081,197.18043938500512 363.13131313131316,224.06625327576717 368.1818181818182,359.95844446490423 373.23232323232327,384.8271075414981 378.2828282828283,386.15391894629283 383.3333333333333,309.3249617147821 388.3838383838384,388.43671954666127 393.4343434343434,290.673697363675 398.4848484848485,289.2138225713955 403.5353535353535,256.65769179001006 408.58585858585855,329.6617234134854 413.6363636363636,323.25816845240433 418.68686868686865,323.82278555298586 423.73737373737373,391.6925601995038 428.7878787878788,253.2416357680147 433.83838383838383,330.57645152203236 438.8888888888889,330.57645152203236 443.93939393939394,365.91752563245086 448.989898989899,365.91752563245086 454.04040404040404,362.3115423884261 459.0909090909091,336.3384385304051 464.14141414141415,386.9406451112352 469.19191919191917,401.0751709767982 474.24242424242425,401.0751709767982 479.2929292929293,419.7618840415555 484.34343434343435,379.5015806834077 489.3939393939394,352.3358111058627 494.4444444444444,412.69683004529094 499.4949494949495,405.0797437789477 504.5454545454545,359.9941066026247 509.59595959595964,400.3531115714911 514.6464646464647,400.2158372279934 519.6969696969697,369.3639796127969 524.7474747474748,239.62592836106285 529.7979797979798,371.336235074658 534.8484848484849,369.6385266046442 539.8989898989898,399.77292960434 544.9494949494949,391.82397335270605 550.0,369.67233746293414" fill="none" stroke="rgb(0,0,0)" stroke-width="1"/><circle cx="50.0" cy="430.03074840319056" r="2" fill="rgb(0,0,0)"/><circle cx="55.05050505050505" cy="432.12563654440737" r="2" fill="rgb(0,0,0)"/><circle cx="60.101010101010104" cy="369.2615638214167" r="2" fill="rgb(0,0,0)"/><circle cx="65.15151515151516" cy="368.00580646347044" r="2" fill="rgb(0,0,0)"/><circle cx="70.20202020202021" cy="348.7529800708704" r="2" fill="rgb(0,0,0)"/><circle cx="75.25252525252526" cy="416.50491038415555" r="2" fill="rgb(0,0,0)"/><circle cx="80.30303030303031" cy="416.3769736805542" r="2" fill="rgb(0,0,0)"/><circle cx="85.35353535353535" cy="416.7956911634791" r="2" fill="rgb(0,0,0)"/><circle cx="90.40404040404042" cy="405.5537081211344" r="2" fill="rgb(0,0,0)"/><circle cx="95.45454545454545" cy="405.71295826592143" r="2" fill="rgb(0,0,0)"/><circle cx="100.5050505050505" cy="401.65289255395896" r="2" fill="rgb(0,0,0)"/><circle cx="105.55555555555554" cy="397.71359835464307" r="2" fill="rgb(0,0,0)"/><circle cx="110.60606060606061" cy="398.3749292359584" r="2" fill="rgb(0,0,0)"/><circle cx="115.65656565656566" cy="366.0297814774233" r="2" fill="rgb(0,0,0)"/><circle cx="120.7070707070707" cy="368.36578823562354" r="2" fill="rgb(0,0,0)"/><circle cx="125.75757575757576" cy="366.88609092260026" r="2" fill="rgb(0,0,0)"/><circle cx="130.80808080808083" cy="367.71118165249266" r="2" fill="rgb(0,0,0)"/><circle cx="135.85858585858585" cy="367.10995551295355" r="2" fill="rgb(0,0,0)"/><circle cx="140.9090909090909" cy="368.45139906495" r="2" fill="rgb(0,0,0)"/><circle cx="145.95959595959596" cy="192.3597139213698" r="2" fill="rgb(0,0,0)"/><circle cx="151.010101010101" cy="302.77222179353157" r="2" fill="rgb(0,0,0)"/><circle cx="156.06060606060606" cy="373.6222493934019" r="2" fill="rgb(0,0,0)"/><circle cx="161.1111111111111" cy="301.40423871542055" r="2" fill="rgb(0,0,0)"/><circle cx="166.16161616161617" cy="303.7339050141619" r="2" fill="rgb(0,0,0)"/><circle cx="171.21212121212122" cy="303.220994824003" r="2" fill="rgb(0,0,0)"/><circle cx="176.26262626262627" cy="354.57468538771855" r="2" fill="rgb(0,0,0)"/><circle cx="181.31313131313132" cy="409.1496542430226" r="2" fill="rgb(0,0,0)"/><circle cx="186.36363636363635" cy="410.7384771399013" r="2" fill="rgb(0,0,0)"/><circle cx="191.4141414141414" cy="177.77076840250442" r="2" fill="rgb(0,0,0)"/><circle cx="196.46464646464648" cy="283.08397413062323" r="2" fill="rgb(0,0,0)"/><circle cx="201.51515151515153" cy="228.61400875332436" r="2" fill="rgb(0,0,0)"/><circle cx="206.56565656565658" cy="229.0707944411667" r="2" fill="rgb(0,0,0)"/><circle cx="211.61616161616163" cy="392.0944612699965" r="2" fill="rgb(0,0,0)"/><circle cx="216.66666666666666" cy="373.0541089368086" r="2" fill="rgb(0,0,0)"/><circle cx="221.7171717171717" cy="363.46651414686835" r="2" fill="rgb(0,0,0)"/><circle cx="226.76767676767676" cy="363.46651414686835" r="2" fill="rgb(0,0,0)"/><circle cx="231.8181818181818" cy="265.47494291994985" r="2" fill="rgb(0,0,0)"/><circle cx="236.86868686868686" cy="373.0793118857134" r="2" fill="rgb(0,0,0)"/><circle cx="241.91919191919192" cy="374.78668775358915" r="2" fill="rgb(0,0,0)"/><circle cx="246.96969696969697" cy="388.2808708187688" r="2" fill="rgb(0,0,0)"/><circle cx="252.02020202020202" cy="329.01897364904454" r="2" fill="rgb(0,0,0)"/><circle cx="257.07070707070704" cy="373.1349432625934" r="2" fill="rgb(0,0,0)"/><circle cx="262.1212121212121" cy="302.4869652483161" r="2" fill="rgb(0,0,0)"/><circle cx="267.1717171717172" cy="317.13988533000673" r="2" fill="rgb(0,0,0)"/><circle cx="272.2222222222222" cy="214.94797658404235" r="2" fill="rgb(0,0,0)"/><circle cx="277.27272727272725" cy="265.01156695181373" r="2" fill="rgb(0,0,0)"/><circle cx="282.32323232323233" cy="387.937782082358" r="2" fill="rgb(0,0,0)"/><circle cx="287.3737373737374" cy="364.98676857639333" r="2" fill="rgb(0,0,0)"/><circle cx="292.42424242424244" cy="366.3951125792509" r="2" fill="rgb(0,0,0)"/><circle cx="297.47474747474746" cy="366.16776876764084" r="2" fill="rgb(0,0,0)"/><circle cx="302.52525252525254" cy="366.26674539448646" r="2" fill="rgb(0,0,0)"/><circle cx="307.57575757575756" cy="215.75022653732083" r="2" fill="rgb(0,0,0)"/><circle cx="312.62626262626264" cy="215.36560125847785" r="2" fill="rgb(0,0,0)"/><circle cx="317.67676767676767" cy="324.84255382314893" r="2" fill="rgb(0,0,0)"/><circle cx="322.7272727272727" cy="414.2396244108104" r="2" fill="rgb(0,0,0)"/><circle cx="327.77777777777777" cy="414.30307138120895" r="2" fill="rgb(0,0,0)"/><circle cx="332.8282828282828" cy="415.45954054144937" r="2" fill="rgb(0,0,0)"/><circle cx="337.8787878787879" cy="369.3958125443486" r="2" fill="rgb(0,0,0)"/><circle cx="342.92929292929296" cy="370.5692747817755" r="2" fill="rgb(0,0,0)"/><circle cx="347.979797979798" cy="353.54820550399484" r="2" fill="rgb(0,0,0)"/><circle cx="353.03030303030306" cy="353.43832958074876" r="2" fill="rgb(0,0,0)"/><circle cx="358.0808080808081" cy="197.18043938500512" r="2" fill="rgb(0,0,0)"/><circle cx="363.13131313131316" cy="224.06625327576717" r="2" fill="rgb(0,0,0)"/><circle cx="368.1818181818182" cy="359.95844446490423" r="2" fill="rgb(0,0,0)"/><circle cx="373.23232323232327" cy="384.8271075414981" r="2" fill="rgb(0,0,0)"/><circle cx="378.2828282828283" cy="386.15391894629283" r="2" fill="rgb(0,0,0)"/><circle cx="383.3333333333333" cy="309.3249617147821" r="2" fill="rgb(0,0,0)"/><circle cx="388.3838383838384" cy="388.43671954666127" r="2" fill="rgb(0,0,0)"/><circle cx="393.4343434343434" cy="290.673697363675" r="2" fill="rgb(0,0,0)"/><circle cx="398.4848484848485" cy="289.2138225713955" r="2" fill="rgb(0,0,0)"/><circle cx="403.5353535353535" cy="256.65769179001006" r="2" fill="rgb(0,0,0)"/><circle cx="408.58585858585855" cy="329.6617234134854" r="2" fill="rgb(0,0,0)"/><circle cx="413.6363636363636" cy="323.25816845240433" r="2" fill="rgb(0,0,0)"/><circle cx="418.68686868686865" cy="323.82278555298586" r="2" fill="rgb(0,0,0)"/><circle cx="423.73737373737373" cy="391.6925601995038" r="2" fill="rgb(0,0,0)"/><circle cx="428.7878787878788" cy="253.2416357680147" r="2" fill="rgb(0,0,0)"/><circle cx="433.83838383838383" cy="330.57645152203236" r="2" fill="rgb(0,0,0)"/><circle cx="438.8888888888889" cy="330.57645152203236" r="2" fill="rgb(0,0,0)"/><circle cx="443.93939393939394" cy="365.91752563245086" r="2" fill="rgb(0,0,0)"/><circle cx="448.989898989899" cy="365.91752563245086" r="2" fill="rgb(0,0,0)"/><circle cx="454.04040404040404" cy="362.3115423884261" r="2" fill="rgb(0,0,0)"/><circle cx="459.0909090909091" cy="336.3384385304051" r="2" fill="rgb(0,0,0)"/><circle cx="464.14141414141415" cy="386.9406451112352" r="2" fill="rgb(0,0,0)"/><circle cx="469.19191919191917" cy="401.0751709767982" r="2" fill="rgb(0,0,0)"/><circle cx="474.24242424242425" cy="401.0751709767982" r="2" fill="rgb(0,0,0)"/><circle cx="479.2929292929293" cy="419.7618840415555" r="2" fill="rgb(0,0,0)"/><circle cx="484.34343434343435" cy="379.5015806834077" r="2" fill="rgb(0,0,0)"/><circle cx="489.3939393939394" cy="352.3358111058627" r="2" fill="rgb(0,0,0)"/><circle cx="494.4444444444444" cy="412.69683004529094" r="2" fill="rgb(0,0,0)"/><circle cx="499.4949494949495" cy="405.0797437789477" r="2" fill="rgb(0,0,0)"/><circle cx="504.5454545454545" cy="359.9941066026247" r="2" fill="rgb(0,0,0)"/><circle cx="509.59595959595964" cy="400.3531115714911" r="2" fill="rgb(0,0,0)"/><circle cx="514.6464646464647" cy="400.2158372279934" r="2" fill="rgb(0,0,0)"/><circle cx="519.6969696969697" cy="369.3639796127969" r="2" fill="rgb(0,0,0)"/><circle cx="524.7474747474748" cy="239.62592836106285" r="2" fill="rgb(0,0,0)"/><circle cx="529.7979797979798" cy="371.336235074658" r="2" fill="rgb(0,0,0)"/><circle cx="534.8484848484849" cy="369.6385266046442" r="2" fill="rgb(0,0,0)"/><circle cx="539.8989898989898" cy="399.77292960434" r="2" fill="rgb(0,0,0)"/><circle cx="544.9494949494949" cy="391.82397335270605" r="2" fill="rgb(0,0,0)"/><circle cx="550.0" cy="369.67233746293414" r="2" fill="rgb(0,0,0)"/><polyline points="50.0,224.11147208994197 55.05050505050505,193.57947111675833 60.101010101010104,160.58989545798914 65.15151515151516,138.69273572355712 70.20202020202021,125.2704623373238 75.25252525252526,115.28549616545382 80.30303030303031,117.77375652621907 85.35353535353535,93.43428890011012 90.40404040404042,102.4837921556105 95.45454545454545,97.4892448729857 100.5050505050505,92.00213541702453 105.55555555555554,86.54185147690185 110.60606060606061,87.19967173683477 115.65656565656566,71.78112376928942 120.7070707070707,69.7766632440804 125.75757575757576,68.77062047237081 130.80808080808083,73.20094450351354 135.85858585858585,72.44080458095539 140.9090909090909,65.50770279322552 145.95959595959596,61.341258085310244 151.010101010101,62.260255828968354 156.06060606060606,68.37777678446741 161.1111111111111,66.87193866223868 166.16161616161617,68.87254871676794 171.21212121212122,66.87444873849137 176.26262626262627,70.26605198076606 181.31313131313132,65.08133838531501 186.36363636363635,63.06752524137289 191.4141414141414,60.05755406345264 196.46464646464648,61.82261744029387 201.51515151515153,62.092452425256624 206.56565656565658,60.47287942111666 211.61616161616163,65.91568726444501 216.66666666666666,63.336702605811354 221.7171717171717,61.588599326335896 226.76767676767676,65.12434779894767 231.8181818181818,60.45187970247514 236.86868686868686,68.15317326137813 241.91919191919192,78.90320000857662 246.96969696969697,74.09330771170477 252.02020202020202,71.20136098466975 257.07070707070704,78.9069697620609 262.1212121212121,61.82516083652399 267.1717171717172,64.59960785322778 272.2222222222222,57.42879109210571 277.27272727272725,59.66459132155899 282.32323232323233,70.29771761556026 287.3737373737374,67.42314530337 292.42424242424244,70.66750392141 297.47474747474746,65.40436928772743 302.52525252525254,67.50063392965245 307.57575757575756,58.98752771574584 312.62626262626264,61.63183651330718 317.67676767676767,63.07334091491231 322.7272727272727,64.59361558905312 327.77777777777777,64.13989119812692 332.8282828282828,64.14584918116827 337.8787878787879,64.52406088861932 342.92929292929296,69.81620908817456 347.979797979798,68.34893751013834 353.03030303030306,62.35348166211884 358.0808080808081,57.0851060570688 363.13131313131316,58.54939837106036 368.1818181818182,62.65649518653322 373.23232323232327,73.89273693117775 378.2828282828283,71.73871032266806 383.3333333333333,62.924862392474154 388.3838383838384,63.78216450108346 393.4343434343434,65.94077929551594 398.4848484848485,62.16464440354213 403.5353535353535,57.744292530518806 408.58585858585855,67.56872357199825 413.6363636363636,66.83807068183148 418.68686868686865,69.5260088609769 423.73737373737373,70.2862582886537 428.7878787878788,56.09459974460697 433.83838383838383,59.02043279585206 438.8888888888889,64.11358477842992 443.93939393939394,62.10949040706316 448.989898989899,64.17615843227378 454.04040404040404,67.10812240733884 459.0909090909091,63.53417472701972 464.14141414141415,66.74445912993411 469.19191919191917,65.35634376109249 474.24242424242425,65.43034820086422 479.2929292929293,73.03177735926607 484.34343434343435,64.29838243994845 489.3939393939394,59.225065229601626 494.4444444444444,60.40133364223749 499.4949494949495,64.92045411077925 504.5454545454545,62.780702664570356 509.59595959595964,63.635176688815534 514.6464646464647,67.32777864422638 519.6969696969697,59.656948519237005 524.7474747474748,54.816892094802654 529.7979797979798,62.46659889857989 534.8484848484849,64.32846934863107 539.8989898989898,78.85063086193753 544.9494949494949,75.73002764498932 550.0,58.59583351355144" fill="none" stroke="rgb(0,0,255)" stroke-width="1"/><circle cx="50.0" cy="224.11147208994197" r="2" fill="rgb(0,0,255)"/><circle cx="55.05050505050505" cy="193.57947111675833" r="2" fill="rgb(0,0,255)"/><circle cx="60.101010101010104" cy="160.58989545798914" r="2" fill="rgb(0,0,255)"/><circle cx="65.15151515151516" cy="138.69273572355712" r="2" fill="rgb(0,0,255)"/><circle cx="70.20202020202021" cy="125.2704623373238" r="2" fill="rgb(0,0,255)"/><circle cx="75.25252525252526" cy="115.28549616545382" r="2" fill="rgb(0,0,255)"/><circle cx="80.30303030303031" cy="117.77375652621907" r="2" fill="rgb(0,0,255)"/><circle cx="85.35353535353535" cy="93.43428890011012" r="2" fill="rgb(0,0,255)"/><circle cx="90.40404040404042" cy="102.4837921556105" r="2" fill="rgb(0,0,255)"/><circle cx="95.45454545454545" cy="97.4892448729857" r="2" fill="rgb(0,0,255)"/><circle cx="100.5050505050505" cy="92.00213541702453" r="2" fill="rgb(0,0,255)"/><circle cx="105.55555555555554" cy="86.54185147690185" r="2" fill="rgb(0,0,255)"/><circle cx="110.60606060606061" cy="87.19967173683477" r="2" fill="rgb(0,0,255)"/><circle cx="115.65656565656566" cy="71.78112376928942" r="2" fill="rgb(0,0,255)"/><circle cx="120.7070707070707" cy="69.7766632440804" r="2" fill="rgb(0,0,255)"/><circle cx="125.75757575757576" cy="68.77062047237081" r="2" fill="rgb(0,0,255)"/><circle cx="130.80808080808083" cy="73.20094450351354" r="2" fill="rgb(0,0,255)"/><circle cx="135.85858585858585" cy="72.44080458095539" r="2" fill="rgb(0,0,255)"/><circle cx="140.9090909090909" cy="65.50770279322552" r="2" fill="rgb(0,0,255)"/><circle cx="145.95959595959596" cy="61.341258085310244" r="2" fill="rgb(0,0,255)"/><circle cx="151.010101010101" cy="62.260255828968354" r="2" fill="rgb(0,0,255)"/><circle cx="156.06060606060606" cy="68.37777678446741" r="2" fill="rgb(0,0,255)"/><circle cx="161.1111111111111" cy="66.87193866223868" r="2" fill="rgb(0,0,255)"/><circle cx="166.16161616161617" cy="68.87254871676794" r="2" fill="rgb(0,0,255)"/><circle cx="171.21212121212122" cy="66.87444873849137" r="2" fill="rgb(0,0,255)"/><circle cx="176.26262626262627" cy="70.26605198076606" r="2" fill="rgb(0,0,255)"/><circle cx="181.31313131313132" cy="65.08133838531501" r="2" fill="rgb(0,0,255)"/><circle cx="186.36363636363635" cy="63.06752524137289" r="2" fill="rgb(0,0,255)"/><circle cx="191.4141414141414" cy="60.05755406345264" r="2" fill="rgb(0,0,255)"/><circle cx="196.46464646464648" cy="61.82261744029387" r="2" fill="rgb(0,0,255)"/><circle cx="201.51515151515153" cy="62.092452425256624" r="2" fill="rgb(0,0,255)"/><circle cx="206.56565656565658" cy="60.47287942111666" r="2" fill="rgb(0,0,255)"/><circle cx="211.61616161616163" cy="65.91568726444501" r="2" fill="rgb(0,0,255)"/><circle cx="216.66666666666666" cy="63.336702605811354" r="2" fill="rgb(0,0,255)"/><circle cx="221.7171717171717" cy="61.588599326335896" r="2" fill="rgb(0,0,255)"/><circle cx="226.76767676767676" cy="65.12434779894767" r="2" fill="rgb(0,0,255)"/><circle cx="231.8181818181818" cy="60.45187970247514" r="2" fill="rgb(0,0,255)"/><circle cx="236.86868686868686" cy="68.15317326137813" r="2" fill="rgb(0,0,255)"/><circle cx="241.91919191919192" cy="78.90320000857662" r="2" fill="rgb(0,0,255)"/><circle cx="246.96969696969697" cy="74.09330771170477" r="2" fill="rgb(0,0,255)"/><circle cx="252.02020202020202" cy="71.20136098466975" r="2" fill="rgb(0,0,255)"/><circle cx="257.07070707070704" cy="78.9069697620609" r="2" fill="rgb(0,0,255)"/><circle cx="262.1212121212121" cy="61.82516083652399" r="2" fill="rgb(0,0,255)"/><circle cx="267.1717171717172" cy="64.59960785322778" r="2" fill="rgb(0,0,255)"/><circle cx="272.2222222222222" cy="57.42879109210571" r="2" fill="rgb(0,0,255)"/><circle cx="277.27272727272725" cy="59.66459132155899" r="2" fill="rgb(0,0,255)"/><circle cx="282.32323232323233" cy="70.29771761556026" r="2" fill="rgb(0,0,255)"/><circle cx="287.3737373737374" cy="67.42314530337" r="2" fill="rgb(0,0,255)"/><circle cx="292.42424242424244" cy="70.66750392141" r="2" fill="rgb(0,0,255)"/><circle cx="297.47474747474746" cy="65.40436928772743" r="2" fill="rgb(0,0,255)"/><circle cx="302.52525252525254" cy="67.50063392965245" r="2" fill="rgb(0,0,255)"/><circle cx="307.57575757575756" cy="58.98752771574584" r="2" fill="rgb(0,0,255)"/><circle cx="312.62626262626264" cy="61.63183651330718" r="2" fill="rgb(0,0,255)"/><circle cx="317.67676767676767" cy="63.07334091491231" r="2" fill="rgb(0,0,255)"/><circle cx="322.7272727272727" cy="64.59361558905312" r="2" fill="rgb(0,0,255)"/><circle cx="327.77777777777777" cy="64.13989119812692" r="2" fill="rgb(0,0,255)"/><circle cx="332.8282828282828" cy="64.14584918116827" r="2" fill="rgb(0,0,255)"/><circle cx="337.8787878787879" cy="64.52406088861932" r="2" fill="rgb(0,0,255)"/><circle cx="342.92929292929296" cy="69.81620908817456" r="2" fill="rgb(0,0,255)"/><circle cx="347.979797979798" cy="68.34893751013834" r="2" fill="rgb(0,0,255)"/><circle cx="353.03030303030306" cy="62.35348166211884" r="2" fill="rgb(0,0,255)"/><circle cx="358.0808080808081" cy="57.0851060570688" r="2" fill="rgb(0,0,255)"/><circle cx="363.13131313131316" cy="58.54939837106036" r="2" fill="rgb(0,0,255)"/><circle cx="368.1818181818182" cy="62.65649518653322" r="2" fill="rgb(0,0,255)"/><circle cx="373.23232323232327" cy="73.89273693117775" r="2" fill="rgb(0,0,255)"/><circle cx="378.2828282828283" cy="71.73871032266806" r="2" fill="rgb(0,0,255)"/><circle cx="383.3333333333333" cy="62.924862392474154" r="2" fill="rgb(0,0,255)"/><circle cx="388.3838383838384" cy="63.78216450108346" r="2" fill="rgb(0,0,255)"/><circle cx="393.4343434343434" cy="65.94077929551594" r="2" fill="rgb(0,0,255)"/><circle cx="398.4848484848485" cy="62.16464440354213" r="2" fill="rgb(0,0,255)"/><circle cx="403.5353535353535" cy="57.744292530518806" r="2" fill="rgb(0,0,255)"/><circle cx="408.58585858585855" cy="67.56872357199825" r="2" fill="rgb(0,0,255)"/><circle cx="413.6363636363636" cy="66.83807068183148" r="2" fill="rgb(0,0,255)"/><circle cx="418.68686868686865" cy="69.5260088609769" r="2" fill="rgb(0,0,255)"/><circle cx="423.73737373737373" cy="70.2862582886537" r="2" fill="rgb(0,0,255)"/><circle cx="428.7878787878788" cy="56.09459974460697" r="2" fill="rgb(0,0,255)"/><circle cx="433.83838383838383" cy="59.02043279585206" r="2" fill="rgb(0,0,255)"/><circle cx="438.8888888888889" cy="64.11358477842992" r="2" fill="rgb(0,0,255)"/><circle cx="443.93939393939394" cy="62.10949040706316" r="2" fill="rgb(0,0,255)"/><circle cx="448.989898989899" cy="64.17615843227378" r="2" fill="rgb(0,0,255)"/><circle cx="454.04040404040404" cy="67.10812240733884" r="2" fill="rgb(0,0,255)"/><circle cx="459.0909090909091" cy="63.53417472701972" r="2" fill="rgb(0,0,255)"/><circle cx="464.14141414141415" cy="66.74445912993411" r="2" fill="rgb(0,0,255)"/><circle cx="469.19191919191917" cy="65.35634376109249" r="2" fill="rgb(0,0,255)"/><circle cx="474.24242424242425" cy="65.43034820086422" r="2" fill="rgb(0,0,255)"/><circle cx="479.2929292929293" cy="73.03177735926607" r="2" fill="rgb(0,0,255)"/><circle cx="484.34343434343435" cy="64.29838243994845" r="2" fill="rgb(0,0,255)"/><circle cx="489.3939393939394" cy="59.225065229601626" r="2" fill="rgb(0,0,255)"/><circle cx="494.4444444444444" cy="60.40133364223749" r="2" fill="rgb(0,0,255)"/><circle cx="499.4949494949495" cy="64.92045411077925" r="2" fill="rgb(0,0,255)"/><circle cx="504.5454545454545" cy="62.780702664570356" r="2" fill="rgb(0,0,255)"/><circle cx="509.59595959595964" cy="63.635176688815534" r="2" fill="rgb(0,0,255)"/><circle cx="514.6464646464647" cy="67.32777864422638" r="2" fill="rgb(0,0,255)"/><circle cx="519.6969696969697" cy="59.656948519237005" r="2" fill="rgb(0,0,255)"/><circle cx="524.7474747474748" cy="54.816892094802654" r="2" fill="rgb(0,0,255)"/><circle cx="529.7979797979798" cy="62.46659889857989" r="2" fill="rgb(0,0,255)"/><circle cx="534.8484848484849" cy="64.32846934863107" r="2" fill="rgb(0,0,255)"/><circle cx="539.8989898989898" cy="78.85063086193753" r="2" fill="rgb(0,0,255)"/><circle cx="544.9494949494949" cy="75.73002764498932" r="2" fill="rgb(0,0,255)"/><circle cx="550.0" cy="58.59583351355144" r="2" fill="rgb(0,0,255)"/><polyline points="50.0,56.210291443111714 55.05050505050505,54.0552735129001 60.101010101010104,58.56304093027916 65.15151515151516,59.276492033744375 70.20202020202021,59.19345098344354 75.25252525252526,58.304516826502834 80.30303030303031,58.063111301192805 85.35353535353535,56.37798398754711 90.40404040404042,55.92879013405417 95.45454545454545,55.170985707596515 100.5050505050505,56.12081568282201 105.55555555555554,55.34684235063668 110.60606060606061,55.78128875729635 115.65656565656566,55.764320629500276 120.7070707070707,54.78784876338591 125.75757575757576,54.929870227900835 130.80808080808083,55.70075951294319 135.85858585858585,54.717991575362646 140.9090909090909,54.66928149889736 145.95959595959596,54.33615601673091 151.010101010101,54.31998711100317 156.06060606060606,54.33615601673091 161.1111111111111,54.016616645608224 166.16161616161617,54.480734477723274 171.21212121212122,54.473382235541635 176.26262626262627,54.032785551335905 181.31313131313132,54.032785551335905 186.36363636363635,54.089145197668074 191.4141414141414,54.17424185914422 196.46464646464648,54.14438743763435 201.51515151515153,53.97132079678147 206.56565656565658,54.01390455346217 211.61616161616163,54.084798338386236 216.66666666666666,54.04543982994994 221.7171717171717,53.9464632031042 226.76767676767676,53.91764001876254 231.8181818181818,53.864921560283676 236.86868686868686,53.820524184254 241.91919191919192,53.77669084113279 246.96969696969697,53.86639539947015 252.02020202020202,53.624144622382346 257.07070707070704,53.84354184934534 262.1212121212121,53.735574131976364 267.1717171717172,53.82122834081912 272.2222222222222,53.862542477451484 277.27272727272725,53.82360742365131 282.32323232323233,53.864921560283676 287.3737373737374,53.74039473445259 292.42424242424244,53.67677392486905 297.47474747474746,53.67677392486905 302.52525252525254,53.700839783310585 307.57575757575756,53.61332695447055 312.62626262626264,53.605605976649656 317.67676767676767,53.62336090778666 322.7272727272727,53.614305821537585 327.77777777777777,53.53531515090492 332.8282828282828,53.38838164992984 337.8787878787879,53.5513336491706 342.92929292929296,53.41405930567288 347.979797979798,53.44699101988755 353.03030303030306,53.5513336491706 358.0808080808081,53.28460317511218 363.13131313131316,53.29103717180578 368.1818181818182,53.242105856148385 373.23232323232327,53.29103717180578 378.2828282828283,53.29103717180578 383.3333333333333,53.29103717180578 388.3838383838384,53.3777209413729 393.4343434343434,53.41065265558751 398.4848484848485,53.41065265558751 403.5353535353535,53.41065265558751 408.58585858585855,53.3777209413729 413.6363636363636,53.41405930567288 418.68686868686865,53.41405930567288 423.73737373737373,53.41405930567288 428.7878787878788,53.29987039982228 433.83838383838383,53.2933415742466 438.8888888888889,53.2933415742466 443.93939393939394,53.29987039982228 448.989898989899,50.336318471506786 454.04040404040404,50.336318471506786 459.0909090909091,50.35459287946912 464.14141414141415,50.336318471506786 469.19191919191917,50.336318471506786 474.24242424242425,50.336318471506786 479.2929292929293,50.19904412800912 484.34343434343435,50.09451185231461 489.3939393939394,50.09451185231461 494.4444444444444,50.06552748981517 499.4949494949495,50.09451185231461 504.5454545454545,50.0 509.59595959595964,50.09451185231461 514.6464646464647,50.09451185231461 519.6969696969697,50.09451185231461 524.7474747474748,50.09447610966441 529.7979797979798,50.056479521240874 534.8484848484849,50.08346771941041 539.8989898989898,50.08346771941041 544.9494949494949,50.05550477486054 550.0,50.056479521240874" fill="none" stroke="rgb(0,255,0)" stroke-width="1"/><circle cx="50.0" cy="56.210291443111714" r="2" fill="rgb(0,255,0)"/><circle cx="55.05050505050505" cy="54.0552735129001" r="2" fill="rgb(0,255,0)"/><circle cx="60.101010101010104" cy="58.56304093027916" r="2" fill="rgb(0,255,0)"/><circle cx="65.15151515151516" cy="59.276492033744375" r="2" fill="rgb(0,255,0)"/><circle cx="70.20202020202021" cy="59.19345098344354" r="2" fill="rgb(0,255,0)"/><circle cx="75.25252525252526" cy="58.304516826502834" r="2" fill="rgb(0,255,0)"/><circle cx="80.30303030303031" cy="58.063111301192805" r="2" fill="rgb(0,255,0)"/><circle cx="85.35353535353535" cy="56.37798398754711" r="2" fill="rgb(0,255,0)"/><circle cx="90.40404040404042" cy="55.92879013405417" r="2" fill="rgb(0,255,0)"/><circle cx="95.45454545454545" cy="55.170985707596515" r="2" fill="rgb(0,255,0)"/><circle cx="100.5050505050505" cy="56.12081568282201" r="2" fill="rgb(0,255,0)"/><circle cx="105.55555555555554" cy="55.34684235063668" r="2" fill="rgb(0,255,0)"/><circle cx="110.60606060606061" cy="55.78128875729635" r="2" fill="rgb(0,255,0)"/><circle cx="115.65656565656566" cy="55.764320629500276" r="2" fill="rgb(0,255,0)"/><circle cx="120.7070707070707" cy="54.78784876338591" r="2" fill="rgb(0,255,0)"/><circle cx="125.75757575757576" cy="54.929870227900835" r="2" fill="rgb(0,255,0)"/><circle cx="130.80808080808083" cy="55.70075951294319" r="2" fill="rgb(0,255,0)"/><circle cx="135.85858585858585" cy="54.717991575362646" r="2" fill="rgb(0,255,0)"/><circle cx="140.9090909090909" cy="54.66928149889736" r="2" fill="rgb(0,255,0)"/><circle cx="145.95959595959596" cy="54.33615601673091" r="2" fill="rgb(0,255,0)"/><circle cx="151.010101010101" cy="54.31998711100317" r="2" fill="rgb(0,255,0)"/><circle cx="156.06060606060606" cy="54.33615601673091" r="2" fill="rgb(0,255,0)"/><circle cx="161.1111111111111" cy="54.016616645608224" r="2" fill="rgb(0,255,0)"/><circle cx="166.16161616161617" cy="54.480734477723274" r="2" fill="rgb(0,255,0)"/><circle cx="171.21212121212122" cy="54.473382235541635" r="2" fill="rgb(0,255,0)"/><circle cx="176.26262626262627" cy="54.032785551335905" r="2" fill="rgb(0,255,0)"/><circle cx="181.31313131313132" cy="54.032785551335905" r="2" fill="rgb(0,255,0)"/><circle cx="186.36363636363635" cy="54.089145197668074" r="2" fill="rgb(0,255,0)"/><circle cx="191.4141414141414" cy="54.17424185914422" r="2" fill="rgb(0,255,0)"/><circle cx="196.46464646464648" cy="54.14438743763435" r="2" fill="rgb(0,255,0)"/><circle cx="201.51515151515153" cy="53.97132079678147" r="2" fill="rgb(0,255,0)"/><circle cx="206.56565656565658" cy="54.01390455346217" r="2" fill="rgb(0,255,0)"/><circle cx="211.61616161616163" cy="54.084798338386236" r="2" fill="rgb(0,255,0)"/><circle cx="216.66666666666666" cy="54.04543982994994" r="2" fill="rgb(0,255,0)"/><circle cx="221.7171717171717" cy="53.9464632031042" r="2" fill="rgb(0,255,0)"/><circle cx="226.76767676767676" cy="53.91764001876254" r="2" fill="rgb(0,255,0)"/><circle cx="231.8181818181818" cy="53.864921560283676" r="2" fill="rgb(0,255,0)"/><circle cx="236.86868686868686" cy="53.820524184254" r="2" fill="rgb(0,255,0)"/><circle cx="241.91919191919192" cy="53.77669084113279" r="2" fill="rgb(0,255,0)"/><circle cx="246.96969696969697" cy="53.86639539947015" r="2" fill="rgb(0,255,0)"/><circle cx="252.02020202020202" cy="53.624144622382346" r="2" fill="rgb(0,255,0)"/><circle cx="257.07070707070704" cy="53.84354184934534" r="2" fill="rgb(0,255,0)"/><circle cx="262.1212121212121" cy="53.735574131976364" r="2" fill="rgb(0,255,0)"/><circle cx="267.1717171717172" cy="53.82122834081912" r="2" fill="rgb(0,255,0)"/><circle cx="272.2222222222222" cy="53.862542477451484" r="2" fill="rgb(0,255,0)"/><circle cx="277.27272727272725" cy="53.82360742365131" r="2" fill="rgb(0,255,0)"/><circle cx="282.32323232323233" cy="53.864921560283676" r="2" fill="rgb(0,255,0)"/><circle cx="287.3737373737374" cy="53.74039473445259" r="2" fill="rgb(0,255,0)"/><circle cx="292.42424242424244" cy="53.67677392486905" r="2" fill="rgb(0,255,0)"/><circle cx="297.47474747474746" cy="53.67677392486905" r="2" fill="rgb(0,255,0)"/><circle cx="302.52525252525254" cy="53.700839783310585" r="2" fill="rgb(0,255,0)"/><circle cx="307.57575757575756" cy="53.61332695447055" r="2" fill="rgb(0,255,0)"/><circle cx="312.62626262626264" cy="53.605605976649656" r="2" fill="rgb(0,255,0)"/><circle cx="317.67676767676767" cy="53.62336090778666" r="2" fill="rgb(0,255,0)"/><circle cx="322.7272727272727" cy="53.614305821537585" r="2" fill="rgb(0,255,0)"/><circle cx="327.77777777777777" cy="53.53531515090492" r="2" fill="rgb(0,255,0)"/><circle cx="332.8282828282828" cy="53.38838164992984" r="2" fill="rgb(0,255,0)"/><circle cx="337.8787878787879" cy="53.5513336491706" r="2" fill="rgb(0,255,0)"/><circle cx="342.92929292929296" cy="53.41405930567288" r="2" fill="rgb(0,255,0)"/><circle cx="347.979797979798" cy="53.44699101988755" r="2" fill="rgb(0,255,0)"/><circle cx="353.03030303030306" cy="53.5513336491706" r="2" fill="rgb(0,255,0)"/><circle cx="358.0808080808081" cy="53.28460317511218" r="2" fill="rgb(0,255,0)"/><circle cx="363.13131313131316" cy="53.29103717180578" r="2" fill="rgb(0,255,0)"/><circle cx="368.1818181818182" cy="53.242105856148385" r="2" fill="rgb(0,255,0)"/><circle cx="373.23232323232327" cy="53.29103717180578" r="2" fill="rgb(0,255,0)"/><circle cx="378.2828282828283" cy="53.29103717180578" r="2" fill="rgb(0,255,0)"/><circle cx="383.3333333333333" cy="53.29103717180578" r="2" fill="rgb(0,255,0)"/><circle cx="388.3838383838384" cy="53.3777209413729" r="2" fill="rgb(0,255,0)"/><circle cx="393.4343434343434" cy="53.41065265558751" r="2" fill="rgb(0,255,0)"/><circle cx="398.4848484848485" cy="53.41065265558751" r="2" fill="rgb(0,255,0)"/><circle cx="403.5353535353535" cy="53.41065265558751" r="2" fill="rgb(0,255,0)"/><circle cx="408.58585858585855" cy="53.3777209413729" r="2" fill="rgb(0,255,0)"/><circle cx="413.6363636363636" cy="53.41405930567288" r="2" fill="rgb(0,255,0)"/><circle cx="418.68686868686865" cy="53.41405930567288" r="2" fill="rgb(0,255,0)"/><circle cx="423.73737373737373" cy="53.41405930567288" r="2" fill="rgb(0,255,0)"/><circle cx="428.7878787878788" cy="53.29987039982228" r="2" fill="rgb(0,255,0)"/><circle cx="433.83838383838383" cy="53.2933415742466" r="2" fill="rgb(0,255,0)"/><circle cx="438.8888888888889" cy="53.2933415742466" r="2" fill="rgb(0,255,0)"/><circle cx="443.93939393939394" cy="53.29987039982228" r="2" fill="rgb(0,255,0)"/><circle cx="448.989898989899" cy="50.336318471506786" r="2" fill="rgb(0,255,0)"/><circle cx="454.04040404040404" cy="50.336318471506786" r="2" fill="rgb(0,255,0)"/><circle cx="459.0909090909091" cy="50.35459287946912" r="2" fill="rgb(0,255,0)"/><circle cx="464.14141414141415" cy="50.336318471506786" r="2" fill="rgb(0,255,0)"/><circle cx="469.19191919191917" cy="50.336318471506786" r="2" fill="rgb(0,255,0)"/><circle cx="474.24242424242425" cy="50.336318471506786" r="2" fill="rgb(0,255,0)"/><circle cx="479.2929292929293" cy="50.19904412800912" r="2" fill="rgb(0,255,0)"/><circle cx="484.34343434343435" cy="50.09451185231461" r="2" fill="rgb(0,255,0)"/><circle cx="489.3939393939394" cy="50.09451185231461" r="2" fill="rgb(0,255,0)"/><circle cx="494.4444444444444" cy="50.06552748981517" r="2" fill="rgb(0,255,0)"/><circle cx="499.4949494949495" cy="50.09451185231461" r="2" fill="rgb(0,255,0)"/><circle cx="504.5454545454545" cy="50.0" r="2" fill="rgb(0,255,0)"/><circle cx="509.59595959595964" cy="50.09451185231461" r="2" fill="rgb(0,255,0)"/><circle cx="514.6464646464647" cy="50.09451185231461" r="2" fill="rgb(0,255,0)"/><circle cx="519.6969696969697" cy="50.09451185231461" r="2" fill="rgb(0,255,0)"/><circle cx="524.7474747474748" cy="50.09447610966441" r="2" fill="rgb(0,255,0)"/><circle cx="529.7979797979798" cy="50.056479521240874" r="2" fill="rgb(0,255,0)"/><circle cx="534.8484848484849" cy="50.08346771941041" r="2" fill="rgb(0,255,0)"/><circle cx="539.8989898989898" cy="50.08346771941041" r="2" fill="rgb(0,255,0)"/><circle cx="544.9494949494949" cy="50.05550477486054" r="2" fill="rgb(0,255,0)"/><circle cx="550.0" cy="50.056479521240874" r="2" fill="rgb(0,255,0)"/><text x="350.0" y="20.0" text-anchor="middle" fill="rgb(0,0,0)" font-size="20.0">GA Demo</text><text x="350.0" y="575.0" text-anchor="middle" fill="rgb(0,0,0)" font-size="12.0">generation</text><text transform="rotate(-90.0 20.0 300.0)" x="20.0" y="300.0" text-anchor="middle" fill="rgb(0,0,0)" font-size="12.0">fitness</text><text x="620" y="62" fill="rgb(0,0,0)" font-size="12">min</text><text x="620" y="74" fill="rgb(0,0,255)" font-size="12">ave</text><text x="620" y="86" fill="rgb(0,255,0)" font-size="12">max</text>
      Sorry, your browser does not support inline SVG.
    </svg>