<?xml version='1.0' encoding='UTF-8'?>
<svg version="1.1" width="700.0" height="600.0" onload="init(evt)" xmlns="http://www.w3.org/2000/svg">
      <style>.caption {
  font-size: 14px;
  font-family: Georgia, serif;
}
</style>
      <script type="text/ecmascript"><![CDATA[
function init(evt) {
  if ( window.svgDocument == null ) {
    svgDocument = evt.target.ownerDocument;
  }
}

function RectHover(evt, i, c) {
  rect = svgDocument.getElementById('rect' + i);
  if( c != null ) {
    rect.setAttributeNS(null, "fill", c)  
  }
  tooltiptext = svgDocument.getElementById('tooltiptext' + i);
  tooltipbg = svgDocument.getElementById('tooltipbg' + i);
  if( tooltipbg != null) {
    tbb = tooltiptext.getBBox();
    tooltipbg.setAttributeNS(null, "width", tbb.width);
    tooltipbg.setAttributeNS(null, "height", tbb.height);
    tooltipbg.setAttributeNS(null, "x", tbb.x);
    tooltipbg.setAttributeNS(null, "y", tbb.y);
    tooltipbg.setAttributeNS(null, "visibility", "visible");
  }
  tooltiptext.setAttributeNS(null,"visibility","visible");
}

function RectUnhover(evt, i, c) {
  rect = svgDocument.getElementById('rect' + i);
  if( c != null ) {
    rect.setAttributeNS(null, "fill", c)  
  }
  tooltiptext = svgDocument.getElementById('tooltiptext' + i);
  tooltiptext.setAttributeNS(null,"visibility","hidden");
  tooltipbg = svgDocument.getElementById('tooltipbg' + i);
  if( tooltipbg != null ) {
    tooltipbg.setAttributeNS(null,"visibility","hidden");
  }
}
]]></script>
      <line x1="50.0" y1="550.0" x2="550.0" y2="550.0" stroke="rgb(0,0,0)" stroke-width="1"/><line x1="50.0" y1="550.0" x2="50.0" y2="50.0" stroke="rgb(0,0,0)" stroke-width="1"/><line x1="50.0" y1="550.0" x2="50.0" y2="50.0" stroke="rgb(192,192,192)" stroke-width="1"/><line x1="50.0" y1="548.0" x2="50.0" y2="552.0" stroke="rgb(192,192,192)" stroke-width="1"/><text text-anchor="middle" alignment-baseline="hanging" x="50.0" y="553.0" font-size="12.0">0</text><line x1="100.5050505050505" y1="550.0" x2="100.5050505050505" y2="50.0" stroke="rgb(192,192,192)" stroke-width="1"/><line x1="100.5050505050505" y1="548.0" x2="100.5050505050505" y2="552.0" stroke="rgb(192,192,192)" stroke-width="1"/><text text-anchor="middle" alignment-baseline="hanging" x="100.5050505050505" y="553.0" font-size="12.0">10</text><line x1="151.010101010101" y1="550.0" x2="151.010101010101" y2="50.0" stroke="rgb(192,192,192)" stroke-width="1"/><line x1="151.010101010101" y1="548.0" x2="151.010101010101" y2="552.0" stroke="rgb(192,192,192)" stroke-width="1"/><text text-anchor="middle" alignment-baseline="hanging" x="151.010101010101" y="553.0" font-size="12.0">20</text><line x1="201.51515151515153" y1="550.0" x2="201.51515151515153" y2="50.0" stroke="rgb(192,192,192)" stroke-width="1"/><line x1="201.51515151515153" y1="548.0" x2="201.51515151515153" y2="552.0" stroke="rgb(192,192,192)" stroke-width="1"/><text text-anchor="middle" alignment-baseline="hanging" x="201.51515151515153" y="553.0" font-size="12.0">30</text><line x1="252.02020202020202" y1="550.0" x2="252.02020202020202" y2="50.0" stroke="rgb(192,192,192)" stroke-width="1"/><line x1="252.02020202020202" y1="548.0" x2="252.02020202020202" y2="552.0" stroke="rgb(192,192,192)" stroke-width="1"/><text text-anchor="middle" alignment-baseline="hanging" x="252.02020202020202" y="553.0" font-size="12.0">40</text><line x1="302.52525252525254" y1="550.0" x2="302.52525252525254" y2="50.0" stroke="rgb(192,192,192)" stroke-width="1"/><line x1="302.52525252525254" y1="548.0" x2="302.52525252525254" y2="552.0" stroke="rgb(192,192,192)" stroke-width="1"/><text text-anchor="middle" alignment-baseline="hanging" x="302.52525252525254" y="553.0" font-size="12.0">50</text><line x1="353.03030303030306" y1="550.0" x2="353.03030303030306" y2="50.0" stroke="rgb(192,192,192)" stroke-width="1"/><line x1="353.03030303030306" y1="548.0" x2="353.03030303030306" y2="552.0" stroke="rgb(192,192,192)" stroke-width="1"/><text text-anchor="middle" alignment-baseline="hanging" x="353.03030303030306" y="553.0" font-size="12.0">60</text><line x1="403.5353535353535" y1="550.0" x2="403.5353535353535" y2="50.0" stroke="rgb(192,192,192)" stroke-width="1"/><line x1="403.5353535353535" y1="548.0" x2="403.5353535353535" y2="552.0" stroke="rgb(192,192,192)" stroke-width="1"/><text text-anchor="middle" alignment-baseline="hanging" x="403.5353535353535" y="553.0" font-size="12.0">70</text><line x1="454.04040404040404" y1="550.0" x2="454.04040404040404" y2="50.0" stroke="rgb(192,192,192)" stroke-width="1"/><line x1="454.04040404040404" y1="548.0" x2="454.04040404040404" y2="552.0" stroke="rgb(192,192,192)" stroke-width="1"/><text text-anchor="middle" alignment-baseline="hanging" x="454.04040404040404" y="553.0" font-size="12.0">80</text><line x1="504.5454545454545" y1="550.0" x2="504.5454545454545" y2="50.0" stroke="rgb(192,192,192)" stroke-width="1"/><line x1="504.5454545454545" y1="548.0" x2="504.5454545454545" y2="552.0" stroke="rgb(192,192,192)" stroke-width="1"/><text text-anchor="middle" alignment-baseline="hanging" x="504.5454545454545" y="553.0" font-size="12.0">90</text><line x1="50.0" y1="550.0" x2="550.0" y2="550.0" stroke="rgb(192,192,192)" stroke-width="1"/><text text-anchor="end" alignment-baseline="middle" x="45.0" y="550.0" font-size="12.0">0.0</text><line x1="48.0" y1="550.0" x2="52.0" y2="550.0" stroke="rgb(192,192,192)" stroke-width="1"/><line x1="50.0" y1="367.1659259628716" x2="550.0" y2="367.1659259628716" stroke="rgb(192,192,192)" stroke-width="1"/><text text-anchor="end" alignment-baseline="middle" x="45.0" y="367.1659259628716" font-size="12.0">1000.0</text><line x1="48.0" y1="367.1659259628716" x2="52.0" y2="367.1659259628716" stroke="rgb(192,192,192)" stroke-width="1"/><line x1="50.0" y1="184.3318519257432" x2="550.0" y2="184.3318519257432" stroke="rgb(192,192,192)" stroke-width="1"/><text text-anchor="end" alignment-baseline="middle" x="45.0" y="184.3318519257432" font-size="12.0">2000.0</text><line x1="48.0" y1="184.3318519257432" x2="52.0" y2="184.3318519257432" stroke="rgb(192,192,192)" stroke-width="1"/><polyline points="50.0,406.0737396640561 55.05050505050505,423.5581803384512 60.101010101010104,429.26540766861007 65.15151515151516,425.46226226938114 70.20202020202021,406.79966718070546 75.25252525252526,386.1249400094634 80.30303030303031,299.3018543998679 85.35353535353535,269.3396257696506 90.40404040404042,403.79691629749993 95.45454545454545,361.2594421185744 100.5050505050505,411.9713982937685 105.55555555555554,340.689673166985 110.60606060606061,267.8064696342096 115.65656565656566,275.2626058489771 120.7070707070707,278.80570215013506 125.75757575757576,331.4746392466949 130.80808080808083,277.0468598614692 135.85858585858585,370.23248918143224 140.9090909090909,240.75366452233862 145.95959595959596,403.38095139219695 151.010101010101,351.45233438256344 156.06060606060606,351.09428432856396 161.1111111111111,271.2179539750389 166.16161616161617,290.5762199790683 171.21212121212122,267.8863867495974 176.26262626262627,367.6699763543704 181.31313131313132,267.5110742035253 186.36363636363635,315.05966309428976 191.4141414141414,252.6918922659022 196.46464646464648,367.91121038330766 201.51515151515153,379.20866249969373 206.56565656565658,250.35249862283536 211.61616161616163,347.5738407490434 216.66666666666666,347.51410140085113 221.7171717171717,349.04230437735123 226.76767676767676,348.1181756946444 231.8181818181818,416.93135769049786 236.86868686868686,417.0021022614749 241.91919191919192,391.244489576841 246.96969696969697,408.05193195392224 252.02020202020202,391.79163354408604 257.07070707070704,405.6964243133517 262.1212121212121,374.05274100847316 267.1717171717172,307.4852129539092 272.2222222222222,254.33539112721405 277.27272727272725,300.79396826620996 282.32323232323233,300.9769159677141 287.3737373737374,386.06108309784133 292.42424242424244,311.8620332691292 297.47474747474746,302.3382077455327 302.52525252525254,397.56846189669886 307.57575757575756,378.26617912817443 312.62626262626264,377.2760156739687 317.67676767676767,322.2564913895089 322.7272727272727,322.03416970542617 327.77777777777777,322.4081052792867 332.8282828282828,364.6783317943799 337.8787878787879,367.30164468434964 342.92929292929296,355.6762468740676 347.979797979798,354.8732853772342 353.03030303030306,331.84480352751973 358.0808080808081,330.89074373637163 363.13131313131316,367.0524959699211 368.1818181818182,362.4027469996329 373.23232323232327,355.91580578371827 378.2828282828283,354.65181260185943 383.3333333333333,354.45319682268826 388.3838383838384,332.6791363406775 393.4343434343434,358.33981828046365 398.4848484848485,354.2123419842249 403.5353535353535,386.25838656340045 408.58585858585855,385.1115199344564 413.6363636363636,258.62099938828584 418.68686868686865,287.7935198862593 423.73737373737373,376.2411459505905 428.7878787878788,401.2340189147649 433.83838383838383,376.6132652513379 438.8888888888889,382.6678934935344 443.93939393939394,390.3102458579699 448.989898989899,390.2350615454508 454.04040404040404,371.64423886375425 459.0909090909091,390.86171361920026 464.14141414141415,392.0273791263691 469.19191919191917,336.73100467591144 474.24242424242425,347.4836597898422 479.2929292929293,336.95369505060137 484.34343434343435,371.6055250984997 489.3939393939394,371.4576742040905 494.4444444444444,371.55889085002417 499.4949494949495,172.88634344497973 504.5454545454545,308.3800452183708 509.59595959595964,380.89961565344515 514.6464646464647,344.779794373969 519.6969696969697,342.28851265599144 524.7474747474748,399.10105317503917 529.7979797979798,367.55404947325036 534.8484848484849,367.63754011091504 539.8989898989898,392.9983289811755 544.9494949494949,405.1548895398914 550.0,412.0792298237117" fill="none" stroke="rgb(0,0,0)" stroke-width="1"/><circle cx="50.0" cy="406.0737396640561" r="2" fill="rgb(0,0,0)"/><circle cx="55.05050505050505" cy="423.5581803384512" r="2" fill="rgb(0,0,0)"/><circle cx="60.101010101010104" cy="429.26540766861007" r="2" fill="rgb(0,0,0)"/><circle cx="65.15151515151516" cy="425.46226226938114" r="2" fill="rgb(0,0,0)"/><circle cx="70.20202020202021" cy="406.79966718070546" r="2" fill="rgb(0,0,0)"/><circle cx="75.25252525252526" cy="386.1249400094634" r="2" fill="rgb(0,0,0)"/><circle cx="80.30303030303031" cy="299.3018543998679" r="2" fill="rgb(0,0,0)"/><circle cx="85.35353535353535" cy="269.3396257696506" r="2" fill="rgb(0,0,0)"/><circle cx="90.40404040404042" cy="403.79691629749993" r="2" fill="rgb(0,0,0)"/><circle cx="95.45454545454545" cy="361.2594421185744" r="2" fill="rgb(0,0,0)"/><circle cx="100.5050505050505" cy="411.9713982937685" r="2" fill="rgb(0,0,0)"/><circle cx="105.55555555555554" cy="340.689673166985" r="2" fill="rgb(0,0,0)"/><circle cx="110.60606060606061" cy="267.8064696342096" r="2" fill="rgb(0,0,0)"/><circle cx="115.65656565656566" cy="275.2626058489771" r="2" fill="rgb(0,0,0)"/><circle cx="120.7070707070707" cy="278.80570215013506" r="2" fill="rgb(0,0,0)"/><circle cx="125.75757575757576" cy="331.4746392466949" r="2" fill="rgb(0,0,0)"/><circle cx="130.80808080808083" cy="277.0468598614692" r="2" fill="rgb(0,0,0)"/><circle cx="135.85858585858585" cy="370.23248918143224" r="2" fill="rgb(0,0,0)"/><circle cx="140.9090909090909" cy="240.75366452233862" r="2" fill="rgb(0,0,0)"/><circle cx="145.95959595959596" cy="403.38095139219695" r="2" fill="rgb(0,0,0)"/><circle cx="151.010101010101" cy="351.45233438256344" r="2" fill="rgb(0,0,0)"/><circle cx="156.06060606060606" cy="351.09428432856396" r="2" fill="rgb(0,0,0)"/><circle cx="161.1111111111111" cy="271.2179539750389" r="2" fill="rgb(0,0,0)"/><circle cx="166.16161616161617" cy="290.5762199790683" r="2" fill="rgb(0,0,0)"/><circle cx="171.21212121212122" cy="267.8863867495974" r="2" fill="rgb(0,0,0)"/><circle cx="176.26262626262627" cy="367.6699763543704" r="2" fill="rgb(0,0,0)"/><circle cx="181.31313131313132" cy="267.5110742035253" r="2" fill="rgb(0,0,0)"/><circle cx="186.36363636363635" cy="315.05966309428976" r="2" fill="rgb(0,0,0)"/><circle cx="191.4141414141414" cy="252.6918922659022" r="2" fill="rgb(0,0,0)"/><circle cx="196.46464646464648" cy="367.91121038330766" r="2" fill="rgb(0,0,0)"/><circle cx="201.51515151515153" cy="379.20866249969373" r="2" fill="rgb(0,0,0)"/><circle cx="206.56565656565658" cy="250.35249862283536" r="2" fill="rgb(0,0,0)"/><circle cx="211.61616161616163" cy="347.5738407490434" r="2" fill="rgb(0,0,0)"/><circle cx="216.66666666666666" cy="347.51410140085113" r="2" fill="rgb(0,0,0)"/><circle cx="221.7171717171717" cy="349.04230437735123" r="2" fill="rgb(0,0,0)"/><circle cx="226.76767676767676" cy="348.1181756946444" r="2" fill="rgb(0,0,0)"/><circle cx="231.8181818181818" cy="416.93135769049786" r="2" fill="rgb(0,0,0)"/><circle cx="236.86868686868686" cy="417.0021022614749" r="2" fill="rgb(0,0,0)"/><circle cx="241.91919191919192" cy="391.244489576841" r="2" fill="rgb(0,0,0)"/><circle cx="246.96969696969697" cy="408.05193195392224" r="2" fill="rgb(0,0,0)"/><circle cx="252.02020202020202" cy="391.79163354408604" r="2" fill="rgb(0,0,0)"/><circle cx="257.07070707070704" cy="405.6964243133517" r="2" fill="rgb(0,0,0)"/><circle cx="262.1212121212121" cy="374.05274100847316" r="2" fill="rgb(0,0,0)"/><circle cx="267.1717171717172" cy="307.4852129539092" r="2" fill="rgb(0,0,0)"/><circle cx="272.2222222222222" cy="254.33539112721405" r="2" fill="rgb(0,0,0)"/><circle cx="277.27272727272725" cy="300.79396826620996" r="2" fill="rgb(0,0,0)"/><circle cx="282.32323232323233" cy="300.9769159677141" r="2" fill="rgb(0,0,0)"/><circle cx="287.3737373737374" cy="386.06108309784133" r="2" fill="rgb(0,0,0)"/><circle cx="292.42424242424244" cy="311.8620332691292" r="2" fill="rgb(0,0,0)"/><circle cx="297.47474747474746" cy="302.3382077455327" r="2" fill="rgb(0,0,0)"/><circle cx="302.52525252525254" cy="397.56846189669886" r="2" fill="rgb(0,0,0)"/><circle cx="307.57575757575756" cy="378.26617912817443" r="2" fill="rgb(0,0,0)"/><circle cx="312.62626262626264" cy="377.2760156739687" r="2" fill="rgb(0,0,0)"/><circle cx="317.67676767676767" cy="322.2564913895089" r="2" fill="rgb(0,0,0)"/><circle cx="322.7272727272727" cy="322.03416970542617" r="2" fill="rgb(0,0,0)"/><circle cx="327.77777777777777" cy="322.4081052792867" r="2" fill="rgb(0,0,0)"/><circle cx="332.8282828282828" cy="364.6783317943799" r="2" fill="rgb(0,0,0)"/><circle cx="337.8787878787879" cy="367.30164468434964" r="2" fill="rgb(0,0,0)"/><circle cx="342.92929292929296" cy="355.6762468740676" r="2" fill="rgb(0,0,0)"/><circle cx="347.979797979798" cy="354.8732853772342" r="2" fill="rgb(0,0,0)"/><circle cx="353.03030303030306" cy="331.84480352751973" r="2" fill="rgb(0,0,0)"/><circle cx="358.0808080808081" cy="330.89074373637163" r="2" fill="rgb(0,0,0)"/><circle cx="363.13131313131316" cy="367.0524959699211" r="2" fill="rgb(0,0,0)"/><circle cx="368.1818181818182" cy="362.4027469996329" r="2" fill="rgb(0,0,0)"/><circle cx="373.23232323232327" cy="355.91580578371827" r="2" fill="rgb(0,0,0)"/><circle cx="378.2828282828283" cy="354.65181260185943" r="2" fill="rgb(0,0,0)"/><circle cx="383.3333333333333" cy="354.45319682268826" r="2" fill="rgb(0,0,0)"/><circle cx="388.3838383838384" cy="332.6791363406775" r="2" fill="rgb(0,0,0)"/><circle cx="393.4343434343434" cy="358.33981828046365" r="2" fill="rgb(0,0,0)"/><circle cx="398.4848484848485" cy="354.2123419842249" r="2" fill="rgb(0,0,0)"/><circle cx="403.5353535353535" cy="386.25838656340045" r="2" fill="rgb(0,0,0)"/><circle cx="408.58585858585855" cy="385.1115199344564" r="2" fill="rgb(0,0,0)"/><circle cx="413.6363636363636" cy="258.62099938828584" r="2" fill="rgb(0,0,0)"/><circle cx="418.68686868686865" cy="287.7935198862593" r="2" fill="rgb(0,0,0)"/><circle cx="423.73737373737373" cy="376.2411459505905" r="2" fill="rgb(0,0,0)"/><circle cx="428.7878787878788" cy="401.2340189147649" r="2" fill="rgb(0,0,0)"/><circle cx="433.83838383838383" cy="376.6132652513379" r="2" fill="rgb(0,0,0)"/><circle cx="438.8888888888889" cy="382.6678934935344" r="2" fill="rgb(0,0,0)"/><circle cx="443.93939393939394" cy="390.3102458579699" r="2" fill="rgb(0,0,0)"/><circle cx="448.989898989899" cy="390.2350615454508" r="2" fill="rgb(0,0,0)"/><circle cx="454.04040404040404" cy="371.64423886375425" r="2" fill="rgb(0,0,0)"/><circle cx="459.0909090909091" cy="390.86171361920026" r="2" fill="rgb(0,0,0)"/><circle cx="464.14141414141415" cy="392.0273791263691" r="2" fill="rgb(0,0,0)"/><circle cx="469.19191919191917" cy="336.73100467591144" r="2" fill="rgb(0,0,0)"/><circle cx="474.24242424242425" cy="347.4836597898422" r="2" fill="rgb(0,0,0)"/><circle cx="479.2929292929293" cy="336.95369505060137" r="2" fill="rgb(0,0,0)"/><circle cx="484.34343434343435" cy="371.6055250984997" r="2" fill="rgb(0,0,0)"/><circle cx="489.3939393939394" cy="371.4576742040905" r="2" fill="rgb(0,0,0)"/><circle cx="494.4444444444444" cy="371.55889085002417" r="2" fill="rgb(0,0,0)"/><circle cx="499.4949494949495" cy="172.88634344497973" r="2" fill="rgb(0,0,0)"/><circle cx="504.5454545454545" cy="308.3800452183708" r="2" fill="rgb(0,0,0)"/><circle cx="509.59595959595964" cy="380.89961565344515" r="2" fill="rgb(0,0,0)"/><circle cx="514.6464646464647" cy="344.779794373969" r="2" fill="rgb(0,0,0)"/><circle cx="519.6969696969697" cy="342.28851265599144" r="2" fill="rgb(0,0,0)"/><circle cx="524.7474747474748" cy="399.10105317503917" r="2" fill="rgb(0,0,0)"/><circle cx="529.7979797979798" cy="367.55404947325036" r="2" fill="rgb(0,0,0)"/><circle cx="534.8484848484849" cy="367.63754011091504" r="2" fill="rgb(0,0,0)"/><circle cx="539.8989898989898" cy="392.9983289811755" r="2" fill="rgb(0,0,0)"/><circle cx="544.9494949494949" cy="405.1548895398914" r="2" fill="rgb(0,0,0)"/><circle cx="550.0" cy="412.0792298237117" r="2" fill="rgb(0,0,0)"/><polyline points="50.0,210.9003164558223 55.05050505050505,197.91199543588948 60.101010101010104,168.67044875401308 65.15151515151516,131.35662576260108 70.20202020202021,128.95720769770952 75.25252525252526,112.2118230164184 80.30303030303031,96.69237473567955 85.35353535353535,88.87068574159991 90.40404040404042,90.64830275838796 95.45454545454545,83.0300544430695 100.5050505050505,81.91364747933233 105.55555555555554,75.32107158417523 110.60606060606061,69.01690256941777 115.65656565656566,71.89287903838976 120.7070707070707,69.35963195463768 125.75757575757576,64.74590358944727 130.80808080808083,64.41445498820758 135.85858585858585,71.38454103896152 140.9090909090909,62.90934654431578 145.95959595959596,70.93575285604669 151.010101010101,72.3919678304348 156.06060606060606,67.25045954940788 161.1111111111111,67.61194673636999 166.16161616161617,68.34948389200036 171.21212121212122,62.59096529939279 176.26262626262627,67.17127802373744 181.31313131313132,63.26877408384087 186.36363636363635,62.1166462840867 191.4141414141414,62.8299526890425 196.46464646464648,67.43415926944971 201.51515151515153,68.8745882460459 206.56565656565658,63.49780349572677 211.61616161616163,70.84435371465958 216.66666666666666,73.71689050867553 221.7171717171717,73.39974495766046 226.76767676767676,69.01492685836439 231.8181818181818,79.47210556805675 236.86868686868686,74.87995801086237 241.91919191919192,74.91285928669157 246.96969696969697,74.64272435609752 252.02020202020202,69.60450575650543 257.07070707070704,76.7370259011173 262.1212121212121,69.79755014468412 267.1717171717172,67.25041050281169 272.2222222222222,63.3930848854655 277.27272727272725,59.47337288536795 282.32323232323233,64.0891394148365 287.3737373737374,68.31665675228828 292.42424242424244,66.73836363373863 297.47474747474746,68.32073353880662 302.52525252525254,68.23440848546909 307.57575757575756,66.57448568704388 312.62626262626264,71.4918309621861 317.67676767676767,61.67783742604348 322.7272727272727,60.854936814819666 327.77777777777777,59.67504867708385 332.8282828282828,67.433922810698 337.8787878787879,70.68807870417561 342.92929292929296,68.4293434489258 347.979797979798,67.51681992777952 353.03030303030306,67.4943753828839 358.0808080808081,63.103523570113396 363.13131313131316,65.8104239812917 368.1818181818182,68.03397204419696 373.23232323232327,71.17379510508573 378.2828282828283,78.12378273228938 383.3333333333333,85.55120141039959 388.3838383838384,71.48705098380708 393.4343434343434,66.53616099783534 398.4848484848485,65.66970396479456 403.5353535353535,69.10731732495208 408.58585858585855,72.05956541406277 413.6363636363636,66.05848605857824 418.68686868686865,64.55709049747725 423.73737373737373,68.10327758545372 428.7878787878788,72.39188022101013 433.83838383838383,66.25050456818985 438.8888888888889,73.61323916413488 443.93939393939394,66.77782268532326 448.989898989899,72.51105675591543 454.04040404040404,62.51702839314328 459.0909090909091,66.6480083937654 464.14141414141415,72.60957354510418 469.19191919191917,64.96811658793268 474.24242424242425,65.86203862831974 479.2929292929293,60.46032156435581 484.34343434343435,71.0553070399477 489.3939393939394,72.00414649053073 494.4444444444444,64.4039892194844 499.4949494949495,55.53223777917975 504.5454545454545,58.06743145493721 509.59595959595964,66.57269136620016 514.6464646464647,62.52733749577112 519.6969696969697,59.30953664562213 524.7474747474748,66.69197415691013 529.7979797979798,62.080994286039584 534.8484848484849,73.16192663817873 539.8989898989898,67.48460493875166 544.9494949494949,67.86966858491871 550.0,65.78150468114666" fill="none" stroke="rgb(0,0,255)" stroke-width="1"/><circle cx="50.0" cy="210.9003164558223" r="2" fill="rgb(0,0,255)"/><circle cx="55.05050505050505" cy="197.91199543588948" r="2" fill="rgb(0,0,255)"/><circle cx="60.101010101010104" cy="168.67044875401308" r="2" fill="rgb(0,0,255)"/><circle cx="65.15151515151516" cy="131.35662576260108" r="2" fill="rgb(0,0,255)"/><circle cx="70.20202020202021" cy="128.95720769770952" r="2" fill="rgb(0,0,255)"/><circle cx="75.25252525252526" cy="112.2118230164184" r="2" fill="rgb(0,0,255)"/><circle cx="80.30303030303031" cy="96.69237473567955" r="2" fill="rgb(0,0,255)"/><circle cx="85.35353535353535" cy="88.87068574159991" r="2" fill="rgb(0,0,255)"/><circle cx="90.40404040404042" cy="90.64830275838796" r="2" fill="rgb(0,0,255)"/><circle cx="95.45454545454545" cy="83.0300544430695" r="2" fill="rgb(0,0,255)"/><circle cx="100.5050505050505" cy="81.91364747933233" r="2" fill="rgb(0,0,255)"/><circle cx="105.55555555555554" cy="75.32107158417523" r="2" fill="rgb(0,0,255)"/><circle cx="110.60606060606061" cy="69.01690256941777" r="2" fill="rgb(0,0,255)"/><circle cx="115.65656565656566" cy="71.89287903838976" r="2" fill="rgb(0,0,255)"/><circle cx="120.7070707070707" cy="69.35963195463768" r="2" fill="rgb(0,0,255)"/><circle cx="125.75757575757576" cy="64.74590358944727" r="2" fill="rgb(0,0,255)"/><circle cx="130.80808080808083" cy="64.41445498820758" r="2" fill="rgb(0,0,255)"/><circle cx="135.85858585858585" cy="71.38454103896152" r="2" fill="rgb(0,0,255)"/><circle cx="140.9090909090909" cy="62.90934654431578" r="2" fill="rgb(0,0,255)"/><circle cx="145.95959595959596" cy="70.93575285604669" r="2" fill="rgb(0,0,255)"/><circle cx="151.010101010101" cy="72.3919678304348" r="2" fill="rgb(0,0,255)"/><circle cx="156.06060606060606" cy="67.25045954940788" r="2" fill="rgb(0,0,255)"/><circle cx="161.1111111111111" cy="67.61194673636999" r="2" fill="rgb(0,0,255)"/><circle cx="166.16161616161617" cy="68.34948389200036" r="2" fill="rgb(0,0,255)"/><circle cx="171.21212121212122" cy="62.59096529939279" r="2" fill="rgb(0,0,255)"/><circle cx="176.26262626262627" cy="67.17127802373744" r="2" fill="rgb(0,0,255)"/><circle cx="181.31313131313132" cy="63.26877408384087" r="2" fill="rgb(0,0,255)"/><circle cx="186.36363636363635" cy="62.1166462840867" r="2" fill="rgb(0,0,255)"/><circle cx="191.4141414141414" cy="62.8299526890425" r="2" fill="rgb(0,0,255)"/><circle cx="196.46464646464648" cy="67.43415926944971" r="2" fill="rgb(0,0,255)"/><circle cx="201.51515151515153" cy="68.8745882460459" r="2" fill="rgb(0,0,255)"/><circle cx="206.56565656565658" cy="63.49780349572677" r="2" fill="rgb(0,0,255)"/><circle cx="211.61616161616163" cy="70.84435371465958" r="2" fill="rgb(0,0,255)"/><circle cx="216.66666666666666" cy="73.71689050867553" r="2" fill="rgb(0,0,255)"/><circle cx="221.7171717171717" cy="73.39974495766046" r="2" fill="rgb(0,0,255)"/><circle cx="226.76767676767676" cy="69.01492685836439" r="2" fill="rgb(0,0,255)"/><circle cx="231.8181818181818" cy="79.47210556805675" r="2" fill="rgb(0,0,255)"/><circle cx="236.86868686868686" cy="74.87995801086237" r="2" fill="rgb(0,0,255)"/><circle cx="241.91919191919192" cy="74.91285928669157" r="2" fill="rgb(0,0,255)"/><circle cx="246.96969696969697" cy="74.64272435609752" r="2" fill="rgb(0,0,255)"/><circle cx="252.02020202020202" cy="69.60450575650543" r="2" fill="rgb(0,0,255)"/><circle cx="257.07070707070704" cy="76.7370259011173" r="2" fill="rgb(0,0,255)"/><circle cx="262.1212121212121" cy="69.79755014468412" r="2" fill="rgb(0,0,255)"/><circle cx="267.1717171717172" cy="67.25041050281169" r="2" fill="rgb(0,0,255)"/><circle cx="272.2222222222222" cy="63.3930848854655" r="2" fill="rgb(0,0,255)"/><circle cx="277.27272727272725" cy="59.47337288536795" r="2" fill="rgb(0,0,255)"/><circle cx="282.32323232323233" cy="64.0891394148365" r="2" fill="rgb(0,0,255)"/><circle cx="287.3737373737374" cy="68.31665675228828" r="2" fill="rgb(0,0,255)"/><circle cx="292.42424242424244" cy="66.73836363373863" r="2" fill="rgb(0,0,255)"/><circle cx="297.47474747474746" cy="68.32073353880662" r="2" fill="rgb(0,0,255)"/><circle cx="302.52525252525254" cy="68.23440848546909" r="2" fill="rgb(0,0,255)"/><circle cx="307.57575757575756" cy="66.57448568704388" r="2" fill="rgb(0,0,255)"/><circle cx="312.62626262626264" cy="71.4918309621861" r="2" fill="rgb(0,0,255)"/><circle cx="317.67676767676767" cy="61.67783742604348" r="2" fill="rgb(0,0,255)"/><circle cx="322.7272727272727" cy="60.854936814819666" r="2" fill="rgb(0,0,255)"/><circle cx="327.77777777777777" cy="59.67504867708385" r="2" fill="rgb(0,0,255)"/><circle cx="332.8282828282828" cy="67.433922810698" r="2" fill="rgb(0,0,255)"/><circle cx="337.8787878787879" cy="70.68807870417561" r="2" fill="rgb(0,0,255)"/><circle cx="342.92929292929296" cy="68.4293434489258" r="2" fill="rgb(0,0,255)"/><circle cx="347.979797979798" cy="67.51681992777952" r="2" fill="rgb(0,0,255)"/><circle cx="353.03030303030306" cy="67.4943753828839" r="2" fill="rgb(0,0,255)"/><circle cx="358.0808080808081" cy="63.103523570113396" r="2" fill="rgb(0,0,255)"/><circle cx="363.13131313131316" cy="65.8104239812917" r="2" fill="rgb(0,0,255)"/><circle cx="368.1818181818182" cy="68.03397204419696" r="2" fill="rgb(0,0,255)"/><circle cx="373.23232323232327" cy="71.17379510508573" r="2" fill="rgb(0,0,255)"/><circle cx="378.2828282828283" cy="78.12378273228938" r="2" fill="rgb(0,0,255)"/><circle cx="383.3333333333333" cy="85.55120141039959" r="2" fill="rgb(0,0,255)"/><circle cx="388.3838383838384" cy="71.48705098380708" r="2" fill="rgb(0,0,255)"/><circle cx="393.4343434343434" cy="66.53616099783534" r="2" fill="rgb(0,0,255)"/><circle cx="398.4848484848485" cy="65.66970396479456" r="2" fill="rgb(0,0,255)"/><circle cx="403.5353535353535" cy="69.10731732495208" r="2" fill="rgb(0,0,255)"/><circle cx="408.58585858585855" cy="72.05956541406277" r="2" fill="rgb(0,0,255)"/><circle cx="413.6363636363636" cy="66.05848605857824" r="2" fill="rgb(0,0,255)"/><circle cx="418.68686868686865" cy="64.55709049747725" r="2" fill="rgb(0,0,255)"/><circle cx="423.73737373737373" cy="68.10327758545372" r="2" fill="rgb(0,0,255)"/><circle cx="428.7878787878788" cy="72.39188022101013" r="2" fill="rgb(0,0,255)"/><circle cx="433.83838383838383" cy="66.25050456818985" r="2" fill="rgb(0,0,255)"/><circle cx="438.8888888888889" cy="73.61323916413488" r="2" fill="rgb(0,0,255)"/><circle cx="443.93939393939394" cy="66.77782268532326" r="2" fill="rgb(0,0,255)"/><circle cx="448.989898989899" cy="72.51105675591543" r="2" fill="rgb(0,0,255)"/><circle cx="454.04040404040404" cy="62.51702839314328" r="2" fill="rgb(0,0,255)"/><circle cx="459.0909090909091" cy="66.6480083937654" r="2" fill="rgb(0,0,255)"/><circle cx="464.14141414141415" cy="72.60957354510418" r="2" fill="rgb(0,0,255)"/><circle cx="469.19191919191917" cy="64.96811658793268" r="2" fill="rgb(0,0,255)"/><circle cx="474.24242424242425" cy="65.86203862831974" r="2" fill="rgb(0,0,255)"/><circle cx="479.2929292929293" cy="60.46032156435581" r="2" fill="rgb(0,0,255)"/><circle cx="484.34343434343435" cy="71.0553070399477" r="2" fill="rgb(0,0,255)"/><circle cx="489.3939393939394" cy="72.00414649053073" r="2" fill="rgb(0,0,255)"/><circle cx="494.4444444444444" cy="64.4039892194844" r="2" fill="rgb(0,0,255)"/><circle cx="499.4949494949495" cy="55.53223777917975" r="2" fill="rgb(0,0,255)"/><circle cx="504.5454545454545" cy="58.06743145493721" r="2" fill="rgb(0,0,255)"/><circle cx="509.59595959595964" cy="66.57269136620016" r="2" fill="rgb(0,0,255)"/><circle cx="514.6464646464647" cy="62.52733749577112" r="2" fill="rgb(0,0,255)"/><circle cx="519.6969696969697" cy="59.30953664562213" r="2" fill="rgb(0,0,255)"/><circle cx="524.7474747474748" cy="66.69197415691013" r="2" fill="rgb(0,0,255)"/><circle cx="529.7979797979798" cy="62.080994286039584" r="2" fill="rgb(0,0,255)"/><circle cx="534.8484848484849" cy="73.16192663817873" r="2" fill="rgb(0,0,255)"/><circle cx="539.8989898989898" cy="67.48460493875166" r="2" fill="rgb(0,0,255)"/><circle cx="544.9494949494949" cy="67.86966858491871" r="2" fill="rgb(0,0,255)"/><circle cx="550.0" cy="65.78150468114666" r="2" fill="rgb(0,0,255)"/><polyline points="50.0,62.38608729142652 55.05050505050505,58.298876602124324 60.101010101010104,57.03130066544469 65.15151515151516,57.83002198395417 70.20202020202021,57.23632814226346 75.25252525252526,57.181732636188826 80.30303030303031,57.028096916996276 85.35353535353535,57.028096916996276 90.40404040404042,56.924969883810604 95.45454545454545,56.82947482218492 100.5050505050505,56.61551705506258 105.55555555555554,56.34346968391446 110.60606060606061,56.38993678231611 115.65656565656566,56.33068689747648 120.7070707070707,56.19520822665373 125.75757575757576,53.21043998496822 130.80808080808083,55.481833591485554 135.85858585858585,55.43752637520868 140.9090909090909,55.55060625200548 145.95959595959596,55.7621236655782 151.010101010101,55.75055416566522 156.06060606060606,56.005089764561035 161.1111111111111,55.34917302811135 166.16161616161617,55.32915745099007 171.21212121212122,55.73723187689404 176.26262626262627,55.408086397369914 181.31313131313132,55.33874474229975 186.36363636363635,55.167601065416875 191.4141414141414,55.24648820065829 196.46464646464648,55.03737373540332 201.51515151515153,54.838000591177035 206.56565656565658,55.09612409536288 211.61616161616163,55.07989437173842 216.66666666666666,55.02433380956688 221.7171717171717,55.217753073583765 226.76767676767676,54.977634387211026 231.8181818181818,55.06990217917439 236.86868686868686,54.86953080850395 241.91919191919192,54.95395826357844 246.96969696969697,54.89737693468834 252.02020202020202,54.87947788891853 257.07070707070704,54.87947788891853 262.1212121212121,54.86953080850395 267.1717171717172,54.86614513664091 272.2222222222222,54.8329153634682 277.27272727272725,54.80757221250826 282.32323232323233,54.77490814377484 287.3737373737374,54.76496106336026 292.42424242424244,54.73981164764314 297.47474747474746,54.73981164764314 302.52525252525254,54.73981164764314 307.57575757575756,54.67369149784116 312.62626262626264,54.67369149784116 317.67676767676767,54.67369149784116 322.7272727272727,54.67369149784116 327.77777777777777,54.67369149784116 332.8282828282828,54.67369149784116 337.8787878787879,54.67369149784116 342.92929292929296,53.466105944246976 347.979797979798,54.67369149784116 353.03030303030306,54.6893180014178 358.0808080808081,54.67369149784116 363.13131313131316,54.67369149784116 368.1818181818182,54.67369149784116 373.23232323232327,54.6893180014178 378.2828282828283,54.75543815121989 383.3333333333333,54.67369149784116 388.3838383838384,54.67369149784116 393.4343434343434,54.67369149784116 398.4848484848485,54.61948189936663 403.5353535353535,54.59850718532198 408.58585858585855,54.59850718532198 413.6363636363636,54.67369149784116 418.68686868686865,54.59850718532198 423.73737373737373,54.59850718532198 428.7878787878788,54.59850718532198 433.83838383838383,54.59850718532198 438.8888888888889,54.59850718532198 443.93939393939394,54.54429758684745 448.989898989899,54.61948189936663 454.04040404040404,54.59850718532198 459.0909090909091,54.59354149302851 464.14141414141415,54.59850718532198 469.19191919191917,50.56418857473528 474.24242424242425,50.138593786157855 479.2929292929293,50.06340947363873 484.34343434343435,50.06340947363873 489.3939393939394,50.06340947363873 494.4444444444444,50.138593786157855 499.4949494949495,50.06340947363873 504.5454545454545,50.12952962344076 509.59595959595964,50.009199875164256 514.6464646464647,50.009199875164256 519.6969696969697,50.009199875164256 524.7474747474748,50.009199875164256 529.7979797979798,50.0 534.8484848484849,50.06340947363873 539.8989898989898,50.009199875164256 544.9494949494949,50.07518431251924 550.0,50.009199875164256" fill="none" stroke="rgb(0,255,0)" stroke-width="1"/><circle cx="50.0" cy="62.38608729142652" r="2" fill="rgb(0,255,0)"/><circle cx="55.05050505050505" cy="58.298876602124324" r="2" fill="rgb(0,255,0)"/><circle cx="60.101010101010104" cy="57.03130066544469" r="2" fill="rgb(0,255,0)"/><circle cx="65.15151515151516" cy="57.83002198395417" r="2" fill="rgb(0,255,0)"/><circle cx="70.20202020202021" cy="57.23632814226346" r="2" fill="rgb(0,255,0)"/><circle cx="75.25252525252526" cy="57.181732636188826" r="2" fill="rgb(0,255,0)"/><circle cx="80.30303030303031" cy="57.028096916996276" r="2" fill="rgb(0,255,0)"/><circle cx="85.35353535353535" cy="57.028096916996276" r="2" fill="rgb(0,255,0)"/><circle cx="90.40404040404042" cy="56.924969883810604" r="2" fill="rgb(0,255,0)"/><circle cx="95.45454545454545" cy="56.82947482218492" r="2" fill="rgb(0,255,0)"/><circle cx="100.5050505050505" cy="56.61551705506258" r="2" fill="rgb(0,255,0)"/><circle cx="105.55555555555554" cy="56.34346968391446" r="2" fill="rgb(0,255,0)"/><circle cx="110.60606060606061" cy="56.38993678231611" r="2" fill="rgb(0,255,0)"/><circle cx="115.65656565656566" cy="56.33068689747648" r="2" fill="rgb(0,255,0)"/><circle cx="120.7070707070707" cy="56.19520822665373" r="2" fill="rgb(0,255,0)"/><circle cx="125.75757575757576" cy="53.21043998496822" r="2" fill="rgb(0,255,0)"/><circle cx="130.80808080808083" cy="55.481833591485554" r="2" fill="rgb(0,255,0)"/><circle cx="135.85858585858585" cy="55.43752637520868" r="2" fill="rgb(0,255,0)"/><circle cx="140.9090909090909" cy="55.55060625200548" r="2" fill="rgb(0,255,0)"/><circle cx="145.95959595959596" cy="55.7621236655782" r="2" fill="rgb(0,255,0)"/><circle cx="151.010101010101" cy="55.75055416566522" r="2" fill="rgb(0,255,0)"/><circle cx="156.06060606060606" cy="56.005089764561035" r="2" fill="rgb(0,255,0)"/><circle cx="161.1111111111111" cy="55.34917302811135" r="2" fill="rgb(0,255,0)"/><circle cx="166.16161616161617" cy="55.32915745099007" r="2" fill="rgb(0,255,0)"/><circle cx="171.21212121212122" cy="55.73723187689404" r="2" fill="rgb(0,255,0)"/><circle cx="176.26262626262627" cy="55.408086397369914" r="2" fill="rgb(0,255,0)"/><circle cx="181.31313131313132" cy="55.33874474229975" r="2" fill="rgb(0,255,0)"/><circle cx="186.36363636363635" cy="55.167601065416875" r="2" fill="rgb(0,255,0)"/><circle cx="191.4141414141414" cy="55.24648820065829" r="2" fill="rgb(0,255,0)"/><circle cx="196.46464646464648" cy="55.03737373540332" r="2" fill="rgb(0,255,0)"/><circle cx="201.51515151515153" cy="54.838000591177035" r="2" fill="rgb(0,255,0)"/><circle cx="206.56565656565658" cy="55.09612409536288" r="2" fill="rgb(0,255,0)"/><circle cx="211.61616161616163" cy="55.07989437173842" r="2" fill="rgb(0,255,0)"/><circle cx="216.66666666666666" cy="55.02433380956688" r="2" fill="rgb(0,255,0)"/><circle cx="221.7171717171717" cy="55.217753073583765" r="2" fill="rgb(0,255,0)"/><circle cx="226.76767676767676" cy="54.977634387211026" r="2" fill="rgb(0,255,0)"/><circle cx="231.8181818181818" cy="55.06990217917439" r="2" fill="rgb(0,255,0)"/><circle cx="236.86868686868686" cy="54.86953080850395" r="2" fill="rgb(0,255,0)"/><circle cx="241.91919191919192" cy="54.95395826357844" r="2" fill="rgb(0,255,0)"/><circle cx="246.96969696969697" cy="54.89737693468834" r="2" fill="rgb(0,255,0)"/><circle cx="252.02020202020202" cy="54.87947788891853" r="2" fill="rgb(0,255,0)"/><circle cx="257.07070707070704" cy="54.87947788891853" r="2" fill="rgb(0,255,0)"/><circle cx="262.1212121212121" cy="54.86953080850395" r="2" fill="rgb(0,255,0)"/><circle cx="267.1717171717172" cy="54.86614513664091" r="2" fill="rgb(0,255,0)"/><circle cx="272.2222222222222" cy="54.8329153634682" r="2" fill="rgb(0,255,0)"/><circle cx="277.27272727272725" cy="54.80757221250826" r="2" fill="rgb(0,255,0)"/><circle cx="282.32323232323233" cy="54.77490814377484" r="2" fill="rgb(0,255,0)"/><circle cx="287.3737373737374" cy="54.76496106336026" r="2" fill="rgb(0,255,0)"/><circle cx="292.42424242424244" cy="54.73981164764314" r="2" fill="rgb(0,255,0)"/><circle cx="297.47474747474746" cy="54.73981164764314" r="2" fill="rgb(0,255,0)"/><circle cx="302.52525252525254" cy="54.73981164764314" r="2" fill="rgb(0,255,0)"/><circle cx="307.57575757575756" cy="54.67369149784116" r="2" fill="rgb(0,255,0)"/><circle cx="312.62626262626264" cy="54.67369149784116" r="2" fill="rgb(0,255,0)"/><circle cx="317.67676767676767" cy="54.67369149784116" r="2" fill="rgb(0,255,0)"/><circle cx="322.7272727272727" cy="54.67369149784116" r="2" fill="rgb(0,255,0)"/><circle cx="327.77777777777777" cy="54.67369149784116" r="2" fill="rgb(0,255,0)"/><circle cx="332.8282828282828" cy="54.67369149784116" r="2" fill="rgb(0,255,0)"/><circle cx="337.8787878787879" cy="54.67369149784116" r="2" fill="rgb(0,255,0)"/><circle cx="342.92929292929296" cy="53.466105944246976" r="2" fill="rgb(0,255,0)"/><circle cx="347.979797979798" cy="54.67369149784116" r="2" fill="rgb(0,255,0)"/><circle cx="353.03030303030306" cy="54.6893180014178" r="2" fill="rgb(0,255,0)"/><circle cx="358.0808080808081" cy="54.67369149784116" r="2" fill="rgb(0,255,0)"/><circle cx="363.13131313131316" cy="54.67369149784116" r="2" fill="rgb(0,255,0)"/><circle cx="368.1818181818182" cy="54.67369149784116" r="2" fill="rgb(0,255,0)"/><circle cx="373.23232323232327" cy="54.6893180014178" r="2" fill="rgb(0,255,0)"/><circle cx="378.2828282828283" cy="54.75543815121989" r="2" fill="rgb(0,255,0)"/><circle cx="383.3333333333333" cy="54.67369149784116" r="2" fill="rgb(0,255,0)"/><circle cx="388.3838383838384" cy="54.67369149784116" r="2" fill="rgb(0,255,0)"/><circle cx="393.4343434343434" cy="54.67369149784116" r="2" fill="rgb(0,255,0)"/><circle cx="398.4848484848485" cy="54.61948189936663" r="2" fill="rgb(0,255,0)"/><circle cx="403.5353535353535" cy="54.59850718532198" r="2" fill="rgb(0,255,0)"/><circle cx="408.58585858585855" cy="54.59850718532198" r="2" fill="rgb(0,255,0)"/><circle cx="413.6363636363636" cy="54.67369149784116" r="2" fill="rgb(0,255,0)"/><circle cx="418.68686868686865" cy="54.59850718532198" r="2" fill="rgb(0,255,0)"/><circle cx="423.73737373737373" cy="54.59850718532198" r="2" fill="rgb(0,255,0)"/><circle cx="428.7878787878788" cy="54.59850718532198" r="2" fill="rgb(0,255,0)"/><circle cx="433.83838383838383" cy="54.59850718532198" r="2" fill="rgb(0,255,0)"/><circle cx="438.8888888888889" cy="54.59850718532198" r="2" fill="rgb(0,255,0)"/><circle cx="443.93939393939394" cy="54.54429758684745" r="2" fill="rgb(0,255,0)"/><circle cx="448.989898989899" cy="54.61948189936663" r="2" fill="rgb(0,255,0)"/><circle cx="454.04040404040404" cy="54.59850718532198" r="2" fill="rgb(0,255,0)"/><circle cx="459.0909090909091" cy="54.59354149302851" r="2" fill="rgb(0,255,0)"/><circle cx="464.14141414141415" cy="54.59850718532198" r="2" fill="rgb(0,255,0)"/><circle cx="469.19191919191917" cy="50.56418857473528" r="2" fill="rgb(0,255,0)"/><circle cx="474.24242424242425" cy="50.138593786157855" r="2" fill="rgb(0,255,0)"/><circle cx="479.2929292929293" cy="50.06340947363873" r="2" fill="rgb(0,255,0)"/><circle cx="484.34343434343435" cy="50.06340947363873" r="2" fill="rgb(0,255,0)"/><circle cx="489.3939393939394" cy="50.06340947363873" r="2" fill="rgb(0,255,0)"/><circle cx="494.4444444444444" cy="50.138593786157855" r="2" fill="rgb(0,255,0)"/><circle cx="499.4949494949495" cy="50.06340947363873" r="2" fill="rgb(0,255,0)"/><circle cx="504.5454545454545" cy="50.12952962344076" r="2" fill="rgb(0,255,0)"/><circle cx="509.59595959595964" cy="50.009199875164256" r="2" fill="rgb(0,255,0)"/><circle cx="514.6464646464647" cy="50.009199875164256" r="2" fill="rgb(0,255,0)"/><circle cx="519.6969696969697" cy="50.009199875164256" r="2" fill="rgb(0,255,0)"/><circle cx="524.7474747474748" cy="50.009199875164256" r="2" fill="rgb(0,255,0)"/><circle cx="529.7979797979798" cy="50.0" r="2" fill="rgb(0,255,0)"/><circle cx="534.8484848484849" cy="50.06340947363873" r="2" fill="rgb(0,255,0)"/><circle cx="539.8989898989898" cy="50.009199875164256" r="2" fill="rgb(0,255,0)"/><circle cx="544.9494949494949" cy="50.07518431251924" r="2" fill="rgb(0,255,0)"/><circle cx="550.0" cy="50.009199875164256" r="2" fill="rgb(0,255,0)"/><text x="350.0" y="20.0" text-anchor="middle" fill="rgb(0,0,0)" font-size="20.0">GA Demo</text><text x="350.0" y="575.0" text-anchor="middle" fill="rgb(0,0,0)" font-size="12.0">generation</text><text transform="rotate(-90.0 20.0 300.0)" x="20.0" y="300.0" text-anchor="middle" fill="rgb(0,0,0)" font-size="12.0">fitness</text><text x="620" y="62" fill="rgb(0,0,0)" font-size="12">min</text><text x="620" y="74" fill="rgb(0,0,255)" font-size="12">ave</text><text x="620" y="86" fill="rgb(0,255,0)" font-size="12">max</text>
      Sorry, your browser does not support inline SVG.
    </svg>