<?xml version='1.0' encoding='UTF-8'?>
<svg version="1.1" width="700.0" height="600.0" onload="init(evt)" xmlns="http://www.w3.org/2000/svg">
      <style>.caption {
  font-size: 14px;
  font-family: Georgia, serif;
}
</style>
      <script type="text/ecmascript"><![CDATA[
function init(evt) {
  if ( window.svgDocument == null ) {
    svgDocument = evt.target.ownerDocument;
  }
}

function RectHover(evt, i, c) {
  rect = svgDocument.getElementById('rect' + i);
  if( c != null ) {
    rect.setAttributeNS(null, "fill", c)  
  }
  tooltiptext = svgDocument.getElementById('tooltiptext' + i);
  tooltipbg = svgDocument.getElementById('tooltipbg' + i);
  if( tooltipbg != null) {
    tbb = tooltiptext.getBBox();
    tooltipbg.setAttributeNS(null, "width", tbb.width);
    tooltipbg.setAttributeNS(null, "height", tbb.height);
    tooltipbg.setAttributeNS(null, "x", tbb.x);
    tooltipbg.setAttributeNS(null, "y", tbb.y);
    tooltipbg.setAttributeNS(null, "visibility", "visible");
  }
  tooltiptext.setAttributeNS(null,"visibility","visible");
}

function RectUnhover(evt, i, c) {
  rect = svgDocument.getElementById('rect' + i);
  if( c != null ) {
    rect.setAttributeNS(null, "fill", c)  
  }
  tooltiptext = svgDocument.getElementById('tooltiptext' + i);
  tooltiptext.setAttributeNS(null,"visibility","hidden");
  tooltipbg = svgDocument.getElementById('tooltipbg' + i);
  if( tooltipbg != null ) {
    tooltipbg.setAttributeNS(null,"visibility","hidden");
  }
}
]]></script>
      <line x1="50.0" y1="550.0" x2="550.0" y2="550.0" stroke="rgb(0,0,0)" stroke-width="1"/><line x1="50.0" y1="550.0" x2="50.0" y2="50.0" stroke="rgb(0,0,0)" stroke-width="1"/><line x1="50.0" y1="550.0" x2="50.0" y2="50.0" stroke="rgb(192,192,192)" stroke-width="1"/><line x1="50.0" y1="548.0" x2="50.0" y2="552.0" stroke="rgb(192,192,192)" stroke-width="1"/><text text-anchor="middle" alignment-baseline="hanging" x="50.0" y="553.0" font-size="12.0">0</text><line x1="100.5050505050505" y1="550.0" x2="100.5050505050505" y2="50.0" stroke="rgb(192,192,192)" stroke-width="1"/><line x1="100.5050505050505" y1="548.0" x2="100.5050505050505" y2="552.0" stroke="rgb(192,192,192)" stroke-width="1"/><text text-anchor="middle" alignment-baseline="hanging" x="100.5050505050505" y="553.0" font-size="12.0">10</text><line x1="151.010101010101" y1="550.0" x2="151.010101010101" y2="50.0" stroke="rgb(192,192,192)" stroke-width="1"/><line x1="151.010101010101" y1="548.0" x2="151.010101010101" y2="552.0" stroke="rgb(192,192,192)" stroke-width="1"/><text text-anchor="middle" alignment-baseline="hanging" x="151.010101010101" y="553.0" font-size="12.0">20</text><line x1="201.51515151515153" y1="550.0" x2="201.51515151515153" y2="50.0" stroke="rgb(192,192,192)" stroke-width="1"/><line x1="201.51515151515153" y1="548.0" x2="201.51515151515153" y2="552.0" stroke="rgb(192,192,192)" stroke-width="1"/><text text-anchor="middle" alignment-baseline="hanging" x="201.51515151515153" y="553.0" font-size="12.0">30</text><line x1="252.02020202020202" y1="550.0" x2="252.02020202020202" y2="50.0" stroke="rgb(192,192,192)" stroke-width="1"/><line x1="252.02020202020202" y1="548.0" x2="252.02020202020202" y2="552.0" stroke="rgb(192,192,192)" stroke-width="1"/><text text-anchor="middle" alignment-baseline="hanging" x="252.02020202020202" y="553.0" font-size="12.0">40</text><line x1="302.52525252525254" y1="550.0" x2="302.52525252525254" y2="50.0" stroke="rgb(192,192,192)" stroke-width="1"/><line x1="302.52525252525254" y1="548.0" x2="302.52525252525254" y2="552.0" stroke="rgb(192,192,192)" stroke-width="1"/><text text-anchor="middle" alignment-baseline="hanging" x="302.52525252525254" y="553.0" font-size="12.0">50</text><line x1="353.03030303030306" y1="550.0" x2="353.03030303030306" y2="50.0" stroke="rgb(192,192,192)" stroke-width="1"/><line x1="353.03030303030306" y1="548.0" x2="353.03030303030306" y2="552.0" stroke="rgb(192,192,192)" stroke-width="1"/><text text-anchor="middle" alignment-baseline="hanging" x="353.03030303030306" y="553.0" font-size="12.0">60</text><line x1="403.5353535353535" y1="550.0" x2="403.5353535353535" y2="50.0" stroke="rgb(192,192,192)" stroke-width="1"/><line x1="403.5353535353535" y1="548.0" x2="403.5353535353535" y2="552.0" stroke="rgb(192,192,192)" stroke-width="1"/><text text-anchor="middle" alignment-baseline="hanging" x="403.5353535353535" y="553.0" font-size="12.0">70</text><line x1="454.04040404040404" y1="550.0" x2="454.04040404040404" y2="50.0" stroke="rgb(192,192,192)" stroke-width="1"/><line x1="454.04040404040404" y1="548.0" x2="454.04040404040404" y2="552.0" stroke="rgb(192,192,192)" stroke-width="1"/><text text-anchor="middle" alignment-baseline="hanging" x="454.04040404040404" y="553.0" font-size="12.0">80</text><line x1="504.5454545454545" y1="550.0" x2="504.5454545454545" y2="50.0" stroke="rgb(192,192,192)" stroke-width="1"/><line x1="504.5454545454545" y1="548.0" x2="504.5454545454545" y2="552.0" stroke="rgb(192,192,192)" stroke-width="1"/><text text-anchor="middle" alignment-baseline="hanging" x="504.5454545454545" y="553.0" font-size="12.0">90</text><line x1="50.0" y1="550.0" x2="550.0" y2="550.0" stroke="rgb(192,192,192)" stroke-width="1"/><text text-anchor="end" alignment-baseline="middle" x="45.0" y="550.0" font-size="12.0">0.0</text><line x1="48.0" y1="550.0" x2="52.0" y2="550.0" stroke="rgb(192,192,192)" stroke-width="1"/><line x1="50.0" y1="366.71484509413335" x2="550.0" y2="366.71484509413335" stroke="rgb(192,192,192)" stroke-width="1"/><text text-anchor="end" alignment-baseline="middle" x="45.0" y="366.71484509413335" font-size="12.0">1000.0</text><line x1="48.0" y1="366.71484509413335" x2="52.0" y2="366.71484509413335" stroke="rgb(192,192,192)" stroke-width="1"/><line x1="50.0" y1="183.42969018826665" x2="550.0" y2="183.42969018826665" stroke="rgb(192,192,192)" stroke-width="1"/><text text-anchor="end" alignment-baseline="middle" x="45.0" y="183.42969018826665" font-size="12.0">2000.0</text><line x1="48.0" y1="183.42969018826665" x2="52.0" y2="183.42969018826665" stroke="rgb(192,192,192)" stroke-width="1"/><polyline points="50.0,410.3218074300014 55.05050505050505,414.8345131840731 60.101010101010104,415.5847539136479 65.15151515151516,374.00144104288285 70.20202020202021,372.51055040902014 75.25252525252526,391.9410675963349 80.30303030303031,391.91825062840644 85.35353535353535,306.4098498234807 90.40404040404042,306.11913174719075 95.45454545454545,323.8760109043483 100.5050505050505,323.65481458047395 105.55555555555554,353.57841651378106 110.60606060606061,403.8263985136191 115.65656565656566,400.0139591204816 120.7070707070707,337.276442214624 125.75757575757576,320.10489659010995 130.80808080808083,393.64980520791687 135.85858585858585,395.05076713630115 140.9090909090909,393.5021094640621 145.95959595959596,83.29745528908546 151.010101010101,386.9189064194114 156.06060606060606,387.5856293698645 161.1111111111111,349.24904446615614 166.16161616161617,350.0724369294378 171.21212121212122,299.5889359404076 176.26262626262627,300.0264394597659 181.31313131313132,303.84043815177097 186.36363636363635,327.5015838799271 191.4141414141414,385.7100236189089 196.46464646464648,347.6465921575403 201.51515151515153,347.6465921575403 206.56565656565658,397.05496328687786 211.61616161616163,363.700794031595 216.66666666666666,334.7257655427745 221.7171717171717,309.0763227767311 226.76767676767676,342.2010316310752 231.8181818181818,354.8813217992112 236.86868686868686,357.11323164046416 241.91919191919192,381.33120130384754 246.96969696969697,394.0076138492039 252.02020202020202,394.1257613484345 257.07070707070704,393.8092839111863 262.1212121212121,339.04649585373795 267.1717171717172,398.5508011272144 272.2222222222222,285.93858807836153 277.27272727272725,353.75485434816994 282.32323232323233,249.81594701820774 287.3737373737374,399.3859020077033 292.42424242424244,399.3859020077033 297.47474747474746,362.76016552582223 302.52525252525254,400.383978499539 307.57575757575756,400.9337994145246 312.62626262626264,396.4893844658221 317.67676767676767,396.2474855412155 322.7272727272727,397.16575309412815 327.77777777777777,370.8710249197598 332.8282828282828,308.9896968767654 337.8787878787879,308.7477979521588 342.92929292929296,315.1352623240183 347.979797979798,346.8370898208191 353.03030303030306,245.28425136519616 358.0808080808081,374.0524977221621 363.13131313131316,395.6096459438729 368.1818181818182,396.5889463926909 373.23232323232327,339.8812190449361 378.2828282828283,410.9228782877004 383.3333333333333,403.75723878395024 388.3838383838384,276.4266387715305 393.4343434343434,364.478137508885 398.4848484848485,413.291822944628 403.5353535353535,412.2872039341918 408.58585858585855,413.0850045871291 413.6363636363636,389.81184510994535 418.68686868686865,371.45945791877995 423.73737373737373,355.45585546263396 428.7878787878788,367.920061177781 433.83838383838383,393.3217406195334 438.8888888888889,396.37809465629306 443.93939393939394,363.4284348013711 448.989898989899,333.19614658020924 454.04040404040404,333.1358413106183 459.0909090909091,282.66624316696914 464.14141414141415,357.0508317583106 469.19191919191917,356.866415381129 474.24242424242425,325.1756124316555 479.2929292929293,405.93997920003414 484.34343434343435,406.0259172987021 489.3939393939394,352.8577190353325 494.4444444444444,269.94084138283165 499.4949494949495,346.18436635648766 504.5454545454545,343.7897061405853 509.59595959595964,345.92059836172746 514.6464646464647,335.6161477206753 519.6969696969697,346.10090781915244 524.7474747474748,346.279407193357 529.7979797979798,378.8566055705902 534.8484848484849,379.51969816423144 539.8989898989898,378.7543545492074 544.9494949494949,378.44664394198264 550.0,352.28807683060654" fill="none" stroke="rgb(0,0,0)" stroke-width="1"/><circle cx="50.0" cy="410.3218074300014" r="2" fill="rgb(0,0,0)"/><circle cx="55.05050505050505" cy="414.8345131840731" r="2" fill="rgb(0,0,0)"/><circle cx="60.101010101010104" cy="415.5847539136479" r="2" fill="rgb(0,0,0)"/><circle cx="65.15151515151516" cy="374.00144104288285" r="2" fill="rgb(0,0,0)"/><circle cx="70.20202020202021" cy="372.51055040902014" r="2" fill="rgb(0,0,0)"/><circle cx="75.25252525252526" cy="391.9410675963349" r="2" fill="rgb(0,0,0)"/><circle cx="80.30303030303031" cy="391.91825062840644" r="2" fill="rgb(0,0,0)"/><circle cx="85.35353535353535" cy="306.4098498234807" r="2" fill="rgb(0,0,0)"/><circle cx="90.40404040404042" cy="306.11913174719075" r="2" fill="rgb(0,0,0)"/><circle cx="95.45454545454545" cy="323.8760109043483" r="2" fill="rgb(0,0,0)"/><circle cx="100.5050505050505" cy="323.65481458047395" r="2" fill="rgb(0,0,0)"/><circle cx="105.55555555555554" cy="353.57841651378106" r="2" fill="rgb(0,0,0)"/><circle cx="110.60606060606061" cy="403.8263985136191" r="2" fill="rgb(0,0,0)"/><circle cx="115.65656565656566" cy="400.0139591204816" r="2" fill="rgb(0,0,0)"/><circle cx="120.7070707070707" cy="337.276442214624" r="2" fill="rgb(0,0,0)"/><circle cx="125.75757575757576" cy="320.10489659010995" r="2" fill="rgb(0,0,0)"/><circle cx="130.80808080808083" cy="393.64980520791687" r="2" fill="rgb(0,0,0)"/><circle cx="135.85858585858585" cy="395.05076713630115" r="2" fill="rgb(0,0,0)"/><circle cx="140.9090909090909" cy="393.5021094640621" r="2" fill="rgb(0,0,0)"/><circle cx="145.95959595959596" cy="83.29745528908546" r="2" fill="rgb(0,0,0)"/><circle cx="151.010101010101" cy="386.9189064194114" r="2" fill="rgb(0,0,0)"/><circle cx="156.06060606060606" cy="387.5856293698645" r="2" fill="rgb(0,0,0)"/><circle cx="161.1111111111111" cy="349.24904446615614" r="2" fill="rgb(0,0,0)"/><circle cx="166.16161616161617" cy="350.0724369294378" r="2" fill="rgb(0,0,0)"/><circle cx="171.21212121212122" cy="299.5889359404076" r="2" fill="rgb(0,0,0)"/><circle cx="176.26262626262627" cy="300.0264394597659" r="2" fill="rgb(0,0,0)"/><circle cx="181.31313131313132" cy="303.84043815177097" r="2" fill="rgb(0,0,0)"/><circle cx="186.36363636363635" cy="327.5015838799271" r="2" fill="rgb(0,0,0)"/><circle cx="191.4141414141414" cy="385.7100236189089" r="2" fill="rgb(0,0,0)"/><circle cx="196.46464646464648" cy="347.6465921575403" r="2" fill="rgb(0,0,0)"/><circle cx="201.51515151515153" cy="347.6465921575403" r="2" fill="rgb(0,0,0)"/><circle cx="206.56565656565658" cy="397.05496328687786" r="2" fill="rgb(0,0,0)"/><circle cx="211.61616161616163" cy="363.700794031595" r="2" fill="rgb(0,0,0)"/><circle cx="216.66666666666666" cy="334.7257655427745" r="2" fill="rgb(0,0,0)"/><circle cx="221.7171717171717" cy="309.0763227767311" r="2" fill="rgb(0,0,0)"/><circle cx="226.76767676767676" cy="342.2010316310752" r="2" fill="rgb(0,0,0)"/><circle cx="231.8181818181818" cy="354.8813217992112" r="2" fill="rgb(0,0,0)"/><circle cx="236.86868686868686" cy="357.11323164046416" r="2" fill="rgb(0,0,0)"/><circle cx="241.91919191919192" cy="381.33120130384754" r="2" fill="rgb(0,0,0)"/><circle cx="246.96969696969697" cy="394.0076138492039" r="2" fill="rgb(0,0,0)"/><circle cx="252.02020202020202" cy="394.1257613484345" r="2" fill="rgb(0,0,0)"/><circle cx="257.07070707070704" cy="393.8092839111863" r="2" fill="rgb(0,0,0)"/><circle cx="262.1212121212121" cy="339.04649585373795" r="2" fill="rgb(0,0,0)"/><circle cx="267.1717171717172" cy="398.5508011272144" r="2" fill="rgb(0,0,0)"/><circle cx="272.2222222222222" cy="285.93858807836153" r="2" fill="rgb(0,0,0)"/><circle cx="277.27272727272725" cy="353.75485434816994" r="2" fill="rgb(0,0,0)"/><circle cx="282.32323232323233" cy="249.81594701820774" r="2" fill="rgb(0,0,0)"/><circle cx="287.3737373737374" cy="399.3859020077033" r="2" fill="rgb(0,0,0)"/><circle cx="292.42424242424244" cy="399.3859020077033" r="2" fill="rgb(0,0,0)"/><circle cx="297.47474747474746" cy="362.76016552582223" r="2" fill="rgb(0,0,0)"/><circle cx="302.52525252525254" cy="400.383978499539" r="2" fill="rgb(0,0,0)"/><circle cx="307.57575757575756" cy="400.9337994145246" r="2" fill="rgb(0,0,0)"/><circle cx="312.62626262626264" cy="396.4893844658221" r="2" fill="rgb(0,0,0)"/><circle cx="317.67676767676767" cy="396.2474855412155" r="2" fill="rgb(0,0,0)"/><circle cx="322.7272727272727" cy="397.16575309412815" r="2" fill="rgb(0,0,0)"/><circle cx="327.77777777777777" cy="370.8710249197598" r="2" fill="rgb(0,0,0)"/><circle cx="332.8282828282828" cy="308.9896968767654" r="2" fill="rgb(0,0,0)"/><circle cx="337.8787878787879" cy="308.7477979521588" r="2" fill="rgb(0,0,0)"/><circle cx="342.92929292929296" cy="315.1352623240183" r="2" fill="rgb(0,0,0)"/><circle cx="347.979797979798" cy="346.8370898208191" r="2" fill="rgb(0,0,0)"/><circle cx="353.03030303030306" cy="245.28425136519616" r="2" fill="rgb(0,0,0)"/><circle cx="358.0808080808081" cy="374.0524977221621" r="2" fill="rgb(0,0,0)"/><circle cx="363.13131313131316" cy="395.6096459438729" r="2" fill="rgb(0,0,0)"/><circle cx="368.1818181818182" cy="396.5889463926909" r="2" fill="rgb(0,0,0)"/><circle cx="373.23232323232327" cy="339.8812190449361" r="2" fill="rgb(0,0,0)"/><circle cx="378.2828282828283" cy="410.9228782877004" r="2" fill="rgb(0,0,0)"/><circle cx="383.3333333333333" cy="403.75723878395024" r="2" fill="rgb(0,0,0)"/><circle cx="388.3838383838384" cy="276.4266387715305" r="2" fill="rgb(0,0,0)"/><circle cx="393.4343434343434" cy="364.478137508885" r="2" fill="rgb(0,0,0)"/><circle cx="398.4848484848485" cy="413.291822944628" r="2" fill="rgb(0,0,0)"/><circle cx="403.5353535353535" cy="412.2872039341918" r="2" fill="rgb(0,0,0)"/><circle cx="408.58585858585855" cy="413.0850045871291" r="2" fill="rgb(0,0,0)"/><circle cx="413.6363636363636" cy="389.81184510994535" r="2" fill="rgb(0,0,0)"/><circle cx="418.68686868686865" cy="371.45945791877995" r="2" fill="rgb(0,0,0)"/><circle cx="423.73737373737373" cy="355.45585546263396" r="2" fill="rgb(0,0,0)"/><circle cx="428.7878787878788" cy="367.920061177781" r="2" fill="rgb(0,0,0)"/><circle cx="433.83838383838383" cy="393.3217406195334" r="2" fill="rgb(0,0,0)"/><circle cx="438.8888888888889" cy="396.37809465629306" r="2" fill="rgb(0,0,0)"/><circle cx="443.93939393939394" cy="363.4284348013711" r="2" fill="rgb(0,0,0)"/><circle cx="448.989898989899" cy="333.19614658020924" r="2" fill="rgb(0,0,0)"/><circle cx="454.04040404040404" cy="333.1358413106183" r="2" fill="rgb(0,0,0)"/><circle cx="459.0909090909091" cy="282.66624316696914" r="2" fill="rgb(0,0,0)"/><circle cx="464.14141414141415" cy="357.0508317583106" r="2" fill="rgb(0,0,0)"/><circle cx="469.19191919191917" cy="356.866415381129" r="2" fill="rgb(0,0,0)"/><circle cx="474.24242424242425" cy="325.1756124316555" r="2" fill="rgb(0,0,0)"/><circle cx="479.2929292929293" cy="405.93997920003414" r="2" fill="rgb(0,0,0)"/><circle cx="484.34343434343435" cy="406.0259172987021" r="2" fill="rgb(0,0,0)"/><circle cx="489.3939393939394" cy="352.8577190353325" r="2" fill="rgb(0,0,0)"/><circle cx="494.4444444444444" cy="269.94084138283165" r="2" fill="rgb(0,0,0)"/><circle cx="499.4949494949495" cy="346.18436635648766" r="2" fill="rgb(0,0,0)"/><circle cx="504.5454545454545" cy="343.7897061405853" r="2" fill="rgb(0,0,0)"/><circle cx="509.59595959595964" cy="345.92059836172746" r="2" fill="rgb(0,0,0)"/><circle cx="514.6464646464647" cy="335.6161477206753" r="2" fill="rgb(0,0,0)"/><circle cx="519.6969696969697" cy="346.10090781915244" r="2" fill="rgb(0,0,0)"/><circle cx="524.7474747474748" cy="346.279407193357" r="2" fill="rgb(0,0,0)"/><circle cx="529.7979797979798" cy="378.8566055705902" r="2" fill="rgb(0,0,0)"/><circle cx="534.8484848484849" cy="379.51969816423144" r="2" fill="rgb(0,0,0)"/><circle cx="539.8989898989898" cy="378.7543545492074" r="2" fill="rgb(0,0,0)"/><circle cx="544.9494949494949" cy="378.44664394198264" r="2" fill="rgb(0,0,0)"/><circle cx="550.0" cy="352.28807683060654" r="2" fill="rgb(0,0,0)"/><polyline points="50.0,219.44675159733436 55.05050505050505,197.4802132901575 60.101010101010104,165.3236028212645 65.15151515151516,148.90281925691642 70.20202020202021,125.84345654936465 75.25252525252526,110.26359720538198 80.30303030303031,105.21370955622558 85.35353535353535,96.57157177112231 90.40404040404042,87.25984773470094 95.45454545454545,86.60451776975924 100.5050505050505,83.08856618594791 105.55555555555554,79.72000424590374 110.60606060606061,99.89365715101235 115.65656565656566,85.39569594295807 120.7070707070707,72.96730376843686 125.75757575757576,69.56742187468484 130.80808080808083,75.01531203242911 135.85858585858585,75.0056061188505 140.9090909090909,75.68263539212319 145.95959595959596,62.64356825985067 151.010101010101,67.34078934271145 156.06060606060606,71.36323976233422 161.1111111111111,68.39967510301096 166.16161616161617,70.32378331924377 171.21212121212122,69.6931160326663 176.26262626262627,67.7647841355427 181.31313131313132,73.69882905599007 186.36363636363635,68.02249541652083 191.4141414141414,71.8627122274819 196.46464646464648,64.65526603656241 201.51515151515153,67.24535331919662 206.56565656565658,75.50534176461127 211.61616161616163,77.45388629846764 216.66666666666666,72.9483357168557 221.7171717171717,68.65500732281083 226.76767676767676,74.39231510849919 231.8181818181818,77.8588259016829 236.86868686868686,82.56386505519538 241.91919191919192,74.7065152253 246.96969696969697,67.44335623838509 252.02020202020202,67.00626300352542 257.07070707070704,70.14690332454933 262.1212121212121,64.82760762107677 267.1717171717172,72.03515670509574 272.2222222222222,60.03407241298714 277.27272727272725,59.89092892697073 282.32323232323233,59.45441674544156 287.3737373737374,63.738459658102784 292.42424242424244,67.63845097864532 297.47474747474746,64.3946724917904 302.52525252525254,72.12162499904741 307.57575757575756,69.69497838336258 312.62626262626264,63.23365581272054 317.67676767676767,65.70539714052592 322.7272727272727,76.03639829283651 327.77777777777777,60.75899265066761 332.8282828282828,56.35438767814537 337.8787878787879,59.817189178887986 342.92929292929296,60.79370219646779 347.979797979798,66.035484967522 353.03030303030306,55.95496648822234 358.0808080808081,67.26467651219644 363.13131313131316,65.20902412431559 368.1818181818182,68.39067185565699 373.23232323232327,57.03911181471756 378.2828282828283,63.31505106965744 383.3333333333333,60.94428403728756 388.3838383838384,57.93964162899147 393.4343434343434,60.97722670261487 398.4848484848485,57.26326219279895 403.5353535353535,60.46872490439796 408.58585858585855,67.84720275337258 413.6363636363636,59.608925882565416 418.68686868686865,63.108868508498745 423.73737373737373,58.757393407021084 428.7878787878788,62.87250181337686 433.83838383838383,66.97539825870291 438.8888888888889,75.60849423341483 443.93939393939394,80.10786918587041 448.989898989899,78.33915745284054 454.04040404040404,66.10653731962822 459.0909090909091,57.50981885522674 464.14141414141415,62.71724172188544 469.19191919191917,66.04237997902533 474.24242424242425,69.304927287172 479.2929292929293,73.91743354551289 484.34343434343435,65.6690832915433 489.3939393939394,61.2003740302236 494.4444444444444,57.0056885994336 499.4949494949495,58.51958116900204 504.5454545454545,63.113644229616796 509.59595959595964,62.30056363667296 514.6464646464647,57.72446642669888 519.6969696969697,56.94387267234856 524.7474747474748,71.80696744010231 529.7979797979798,70.5668852697687 534.8484848484849,73.63720977995041 539.8989898989898,62.87419758298421 544.9494949494949,61.75517946160812 550.0,61.16969723137146" fill="none" stroke="rgb(0,0,255)" stroke-width="1"/><circle cx="50.0" cy="219.44675159733436" r="2" fill="rgb(0,0,255)"/><circle cx="55.05050505050505" cy="197.4802132901575" r="2" fill="rgb(0,0,255)"/><circle cx="60.101010101010104" cy="165.3236028212645" r="2" fill="rgb(0,0,255)"/><circle cx="65.15151515151516" cy="148.90281925691642" r="2" fill="rgb(0,0,255)"/><circle cx="70.20202020202021" cy="125.84345654936465" r="2" fill="rgb(0,0,255)"/><circle cx="75.25252525252526" cy="110.26359720538198" r="2" fill="rgb(0,0,255)"/><circle cx="80.30303030303031" cy="105.21370955622558" r="2" fill="rgb(0,0,255)"/><circle cx="85.35353535353535" cy="96.57157177112231" r="2" fill="rgb(0,0,255)"/><circle cx="90.40404040404042" cy="87.25984773470094" r="2" fill="rgb(0,0,255)"/><circle cx="95.45454545454545" cy="86.60451776975924" r="2" fill="rgb(0,0,255)"/><circle cx="100.5050505050505" cy="83.08856618594791" r="2" fill="rgb(0,0,255)"/><circle cx="105.55555555555554" cy="79.72000424590374" r="2" fill="rgb(0,0,255)"/><circle cx="110.60606060606061" cy="99.89365715101235" r="2" fill="rgb(0,0,255)"/><circle cx="115.65656565656566" cy="85.39569594295807" r="2" fill="rgb(0,0,255)"/><circle cx="120.7070707070707" cy="72.96730376843686" r="2" fill="rgb(0,0,255)"/><circle cx="125.75757575757576" cy="69.56742187468484" r="2" fill="rgb(0,0,255)"/><circle cx="130.80808080808083" cy="75.01531203242911" r="2" fill="rgb(0,0,255)"/><circle cx="135.85858585858585" cy="75.0056061188505" r="2" fill="rgb(0,0,255)"/><circle cx="140.9090909090909" cy="75.68263539212319" r="2" fill="rgb(0,0,255)"/><circle cx="145.95959595959596" cy="62.64356825985067" r="2" fill="rgb(0,0,255)"/><circle cx="151.010101010101" cy="67.34078934271145" r="2" fill="rgb(0,0,255)"/><circle cx="156.06060606060606" cy="71.36323976233422" r="2" fill="rgb(0,0,255)"/><circle cx="161.1111111111111" cy="68.39967510301096" r="2" fill="rgb(0,0,255)"/><circle cx="166.16161616161617" cy="70.32378331924377" r="2" fill="rgb(0,0,255)"/><circle cx="171.21212121212122" cy="69.6931160326663" r="2" fill="rgb(0,0,255)"/><circle cx="176.26262626262627" cy="67.7647841355427" r="2" fill="rgb(0,0,255)"/><circle cx="181.31313131313132" cy="73.69882905599007" r="2" fill="rgb(0,0,255)"/><circle cx="186.36363636363635" cy="68.02249541652083" r="2" fill="rgb(0,0,255)"/><circle cx="191.4141414141414" cy="71.8627122274819" r="2" fill="rgb(0,0,255)"/><circle cx="196.46464646464648" cy="64.65526603656241" r="2" fill="rgb(0,0,255)"/><circle cx="201.51515151515153" cy="67.24535331919662" r="2" fill="rgb(0,0,255)"/><circle cx="206.56565656565658" cy="75.50534176461127" r="2" fill="rgb(0,0,255)"/><circle cx="211.61616161616163" cy="77.45388629846764" r="2" fill="rgb(0,0,255)"/><circle cx="216.66666666666666" cy="72.9483357168557" r="2" fill="rgb(0,0,255)"/><circle cx="221.7171717171717" cy="68.65500732281083" r="2" fill="rgb(0,0,255)"/><circle cx="226.76767676767676" cy="74.39231510849919" r="2" fill="rgb(0,0,255)"/><circle cx="231.8181818181818" cy="77.8588259016829" r="2" fill="rgb(0,0,255)"/><circle cx="236.86868686868686" cy="82.56386505519538" r="2" fill="rgb(0,0,255)"/><circle cx="241.91919191919192" cy="74.7065152253" r="2" fill="rgb(0,0,255)"/><circle cx="246.96969696969697" cy="67.44335623838509" r="2" fill="rgb(0,0,255)"/><circle cx="252.02020202020202" cy="67.00626300352542" r="2" fill="rgb(0,0,255)"/><circle cx="257.07070707070704" cy="70.14690332454933" r="2" fill="rgb(0,0,255)"/><circle cx="262.1212121212121" cy="64.82760762107677" r="2" fill="rgb(0,0,255)"/><circle cx="267.1717171717172" cy="72.03515670509574" r="2" fill="rgb(0,0,255)"/><circle cx="272.2222222222222" cy="60.03407241298714" r="2" fill="rgb(0,0,255)"/><circle cx="277.27272727272725" cy="59.89092892697073" r="2" fill="rgb(0,0,255)"/><circle cx="282.32323232323233" cy="59.45441674544156" r="2" fill="rgb(0,0,255)"/><circle cx="287.3737373737374" cy="63.738459658102784" r="2" fill="rgb(0,0,255)"/><circle cx="292.42424242424244" cy="67.63845097864532" r="2" fill="rgb(0,0,255)"/><circle cx="297.47474747474746" cy="64.3946724917904" r="2" fill="rgb(0,0,255)"/><circle cx="302.52525252525254" cy="72.12162499904741" r="2" fill="rgb(0,0,255)"/><circle cx="307.57575757575756" cy="69.69497838336258" r="2" fill="rgb(0,0,255)"/><circle cx="312.62626262626264" cy="63.23365581272054" r="2" fill="rgb(0,0,255)"/><circle cx="317.67676767676767" cy="65.70539714052592" r="2" fill="rgb(0,0,255)"/><circle cx="322.7272727272727" cy="76.03639829283651" r="2" fill="rgb(0,0,255)"/><circle cx="327.77777777777777" cy="60.75899265066761" r="2" fill="rgb(0,0,255)"/><circle cx="332.8282828282828" cy="56.35438767814537" r="2" fill="rgb(0,0,255)"/><circle cx="337.8787878787879" cy="59.817189178887986" r="2" fill="rgb(0,0,255)"/><circle cx="342.92929292929296" cy="60.79370219646779" r="2" fill="rgb(0,0,255)"/><circle cx="347.979797979798" cy="66.035484967522" r="2" fill="rgb(0,0,255)"/><circle cx="353.03030303030306" cy="55.95496648822234" r="2" fill="rgb(0,0,255)"/><circle cx="358.0808080808081" cy="67.26467651219644" r="2" fill="rgb(0,0,255)"/><circle cx="363.13131313131316" cy="65.20902412431559" r="2" fill="rgb(0,0,255)"/><circle cx="368.1818181818182" cy="68.39067185565699" r="2" fill="rgb(0,0,255)"/><circle cx="373.23232323232327" cy="57.03911181471756" r="2" fill="rgb(0,0,255)"/><circle cx="378.2828282828283" cy="63.31505106965744" r="2" fill="rgb(0,0,255)"/><circle cx="383.3333333333333" cy="60.94428403728756" r="2" fill="rgb(0,0,255)"/><circle cx="388.3838383838384" cy="57.93964162899147" r="2" fill="rgb(0,0,255)"/><circle cx="393.4343434343434" cy="60.97722670261487" r="2" fill="rgb(0,0,255)"/><circle cx="398.4848484848485" cy="57.26326219279895" r="2" fill="rgb(0,0,255)"/><circle cx="403.5353535353535" cy="60.46872490439796" r="2" fill="rgb(0,0,255)"/><circle cx="408.58585858585855" cy="67.84720275337258" r="2" fill="rgb(0,0,255)"/><circle cx="413.6363636363636" cy="59.608925882565416" r="2" fill="rgb(0,0,255)"/><circle cx="418.68686868686865" cy="63.108868508498745" r="2" fill="rgb(0,0,255)"/><circle cx="423.73737373737373" cy="58.757393407021084" r="2" fill="rgb(0,0,255)"/><circle cx="428.7878787878788" cy="62.87250181337686" r="2" fill="rgb(0,0,255)"/><circle cx="433.83838383838383" cy="66.97539825870291" r="2" fill="rgb(0,0,255)"/><circle cx="438.8888888888889" cy="75.60849423341483" r="2" fill="rgb(0,0,255)"/><circle cx="443.93939393939394" cy="80.10786918587041" r="2" fill="rgb(0,0,255)"/><circle cx="448.989898989899" cy="78.33915745284054" r="2" fill="rgb(0,0,255)"/><circle cx="454.04040404040404" cy="66.10653731962822" r="2" fill="rgb(0,0,255)"/><circle cx="459.0909090909091" cy="57.50981885522674" r="2" fill="rgb(0,0,255)"/><circle cx="464.14141414141415" cy="62.71724172188544" r="2" fill="rgb(0,0,255)"/><circle cx="469.19191919191917" cy="66.04237997902533" r="2" fill="rgb(0,0,255)"/><circle cx="474.24242424242425" cy="69.304927287172" r="2" fill="rgb(0,0,255)"/><circle cx="479.2929292929293" cy="73.91743354551289" r="2" fill="rgb(0,0,255)"/><circle cx="484.34343434343435" cy="65.6690832915433" r="2" fill="rgb(0,0,255)"/><circle cx="489.3939393939394" cy="61.2003740302236" r="2" fill="rgb(0,0,255)"/><circle cx="494.4444444444444" cy="57.0056885994336" r="2" fill="rgb(0,0,255)"/><circle cx="499.4949494949495" cy="58.51958116900204" r="2" fill="rgb(0,0,255)"/><circle cx="504.5454545454545" cy="63.113644229616796" r="2" fill="rgb(0,0,255)"/><circle cx="509.59595959595964" cy="62.30056363667296" r="2" fill="rgb(0,0,255)"/><circle cx="514.6464646464647" cy="57.72446642669888" r="2" fill="rgb(0,0,255)"/><circle cx="519.6969696969697" cy="56.94387267234856" r="2" fill="rgb(0,0,255)"/><circle cx="524.7474747474748" cy="71.80696744010231" r="2" fill="rgb(0,0,255)"/><circle cx="529.7979797979798" cy="70.5668852697687" r="2" fill="rgb(0,0,255)"/><circle cx="534.8484848484849" cy="73.63720977995041" r="2" fill="rgb(0,0,255)"/><circle cx="539.8989898989898" cy="62.87419758298421" r="2" fill="rgb(0,0,255)"/><circle cx="544.9494949494949" cy="61.75517946160812" r="2" fill="rgb(0,0,255)"/><circle cx="550.0" cy="61.16969723137146" r="2" fill="rgb(0,0,255)"/><polyline points="50.0,59.46855817641142 55.05050505050505,62.90750501785459 60.101010101010104,61.70176466281271 65.15151515151516,60.57438598145029 70.20202020202021,61.086785593350555 75.25252525252526,60.84852190690947 80.30303030303031,60.36447399895553 85.35353535353535,62.33923079948795 90.40404040404042,61.347504555263754 95.45454545454545,61.56745567562484 100.5050505050505,61.42814162961923 105.55555555555554,61.07722678348205 110.60606060606061,57.63322342914472 115.65656565656566,56.517429983526426 120.7070707070707,56.84108663384035 125.75757575757576,56.56200402851084 130.80808080808083,59.89885607361464 135.85858585858585,59.66664137757567 140.9090909090909,59.35972076401396 145.95959595959596,58.68114424552931 151.010101010101,58.79438206861607 156.06060606060606,58.548172419828404 161.1111111111111,58.548172419828404 166.16161616161617,58.008071878383475 171.21212121212122,58.55633927168759 176.26262626262627,58.228262686447465 181.31313131313132,58.664321297647746 186.36363636363635,58.3671640985022 191.4141414141414,58.49245096481343 196.46464646464648,58.121628220168475 201.51515151515153,58.093362541273734 206.56565656565658,58.03183049406795 211.61616161616163,58.16170785800455 216.66666666666666,58.07979227053619 221.7171717171717,57.92374351250186 226.76767676767676,51.18669362844247 231.8181818181818,51.8510958849393 236.86868686868686,51.315951688046084 241.91919191919192,50.86185904789994 246.96969696969697,51.02458137048552 252.02020202020202,50.59823020264804 257.07070707070704,50.79896574466733 262.1212121212121,50.40610395754169 267.1717171717172,50.31638494743498 272.2222222222222,50.397236622941534 277.27272727272725,50.531478364147176 282.32323232323233,50.41513469323945 287.3737373737374,50.322632122311006 292.42424242424244,50.364397280577066 297.47474747474746,50.38967454707051 302.52525252525254,50.40993982922362 307.57575757575756,50.37241442031308 312.62626262626264,50.43324353365955 317.67676767676767,50.31911861768566 322.7272727272727,50.520469804774734 327.77777777777777,50.561464752923314 332.8282828282828,50.28862541261009 337.8787878787879,50.307542928403734 342.92929292929296,50.26861989563747 347.979797979798,50.45976164876788 353.03030303030306,50.515385530954006 358.0808080808081,50.40243535299243 363.13131313131316,50.40243535299243 368.1818181818182,50.2860916820847 373.23232323232327,50.2860916820847 378.2828282828283,50.37132840373812 383.3333333333333,50.15467265349139 388.3838383838384,50.299867939667365 393.4343434343434,50.300126065178006 398.4848484848485,50.25581205823454 403.5353535353535,50.25581205823454 408.58585858585855,50.27857088016822 413.6363636363636,50.22939677862195 418.68686868686865,50.06760383688328 423.73737373737373,50.26379727125527 428.7878787878788,50.3020349507492 433.83838383838383,50.23527437788482 438.8888888888889,50.13413497314161 443.93939393939394,50.23527437788482 448.989898989899,50.142904563009324 454.04040404040404,50.04176515826612 459.0909090909091,50.19039566142999 464.14141414141415,50.0 469.19191919191917,50.10113940474321 474.24242424242425,50.133797508262376 479.2929292929293,50.10558227555515 484.34343434343435,50.004442870811886 489.3939393939394,50.04176515826612 494.4444444444444,50.04176515826612 499.4949494949495,50.04176515826612 504.5454545454545,50.04176515826612 509.59595959595964,50.09236981487555 514.6464646464647,50.04176515826612 519.6969696969697,50.10113940474321 524.7474747474748,50.04176515826612 529.7979797979798,50.0 534.8484848484849,50.0 539.8989898989898,50.015201306075255 544.9494949494949,50.038353666572846 550.0,50.0" fill="none" stroke="rgb(0,255,0)" stroke-width="1"/><circle cx="50.0" cy="59.46855817641142" r="2" fill="rgb(0,255,0)"/><circle cx="55.05050505050505" cy="62.90750501785459" r="2" fill="rgb(0,255,0)"/><circle cx="60.101010101010104" cy="61.70176466281271" r="2" fill="rgb(0,255,0)"/><circle cx="65.15151515151516" cy="60.57438598145029" r="2" fill="rgb(0,255,0)"/><circle cx="70.20202020202021" cy="61.086785593350555" r="2" fill="rgb(0,255,0)"/><circle cx="75.25252525252526" cy="60.84852190690947" r="2" fill="rgb(0,255,0)"/><circle cx="80.30303030303031" cy="60.36447399895553" r="2" fill="rgb(0,255,0)"/><circle cx="85.35353535353535" cy="62.33923079948795" r="2" fill="rgb(0,255,0)"/><circle cx="90.40404040404042" cy="61.347504555263754" r="2" fill="rgb(0,255,0)"/><circle cx="95.45454545454545" cy="61.56745567562484" r="2" fill="rgb(0,255,0)"/><circle cx="100.5050505050505" cy="61.42814162961923" r="2" fill="rgb(0,255,0)"/><circle cx="105.55555555555554" cy="61.07722678348205" r="2" fill="rgb(0,255,0)"/><circle cx="110.60606060606061" cy="57.63322342914472" r="2" fill="rgb(0,255,0)"/><circle cx="115.65656565656566" cy="56.517429983526426" r="2" fill="rgb(0,255,0)"/><circle cx="120.7070707070707" cy="56.84108663384035" r="2" fill="rgb(0,255,0)"/><circle cx="125.75757575757576" cy="56.56200402851084" r="2" fill="rgb(0,255,0)"/><circle cx="130.80808080808083" cy="59.89885607361464" r="2" fill="rgb(0,255,0)"/><circle cx="135.85858585858585" cy="59.66664137757567" r="2" fill="rgb(0,255,0)"/><circle cx="140.9090909090909" cy="59.35972076401396" r="2" fill="rgb(0,255,0)"/><circle cx="145.95959595959596" cy="58.68114424552931" r="2" fill="rgb(0,255,0)"/><circle cx="151.010101010101" cy="58.79438206861607" r="2" fill="rgb(0,255,0)"/><circle cx="156.06060606060606" cy="58.548172419828404" r="2" fill="rgb(0,255,0)"/><circle cx="161.1111111111111" cy="58.548172419828404" r="2" fill="rgb(0,255,0)"/><circle cx="166.16161616161617" cy="58.008071878383475" r="2" fill="rgb(0,255,0)"/><circle cx="171.21212121212122" cy="58.55633927168759" r="2" fill="rgb(0,255,0)"/><circle cx="176.26262626262627" cy="58.228262686447465" r="2" fill="rgb(0,255,0)"/><circle cx="181.31313131313132" cy="58.664321297647746" r="2" fill="rgb(0,255,0)"/><circle cx="186.36363636363635" cy="58.3671640985022" r="2" fill="rgb(0,255,0)"/><circle cx="191.4141414141414" cy="58.49245096481343" r="2" fill="rgb(0,255,0)"/><circle cx="196.46464646464648" cy="58.121628220168475" r="2" fill="rgb(0,255,0)"/><circle cx="201.51515151515153" cy="58.093362541273734" r="2" fill="rgb(0,255,0)"/><circle cx="206.56565656565658" cy="58.03183049406795" r="2" fill="rgb(0,255,0)"/><circle cx="211.61616161616163" cy="58.16170785800455" r="2" fill="rgb(0,255,0)"/><circle cx="216.66666666666666" cy="58.07979227053619" r="2" fill="rgb(0,255,0)"/><circle cx="221.7171717171717" cy="57.92374351250186" r="2" fill="rgb(0,255,0)"/><circle cx="226.76767676767676" cy="51.18669362844247" r="2" fill="rgb(0,255,0)"/><circle cx="231.8181818181818" cy="51.8510958849393" r="2" fill="rgb(0,255,0)"/><circle cx="236.86868686868686" cy="51.315951688046084" r="2" fill="rgb(0,255,0)"/><circle cx="241.91919191919192" cy="50.86185904789994" r="2" fill="rgb(0,255,0)"/><circle cx="246.96969696969697" cy="51.02458137048552" r="2" fill="rgb(0,255,0)"/><circle cx="252.02020202020202" cy="50.59823020264804" r="2" fill="rgb(0,255,0)"/><circle cx="257.07070707070704" cy="50.79896574466733" r="2" fill="rgb(0,255,0)"/><circle cx="262.1212121212121" cy="50.40610395754169" r="2" fill="rgb(0,255,0)"/><circle cx="267.1717171717172" cy="50.31638494743498" r="2" fill="rgb(0,255,0)"/><circle cx="272.2222222222222" cy="50.397236622941534" r="2" fill="rgb(0,255,0)"/><circle cx="277.27272727272725" cy="50.531478364147176" r="2" fill="rgb(0,255,0)"/><circle cx="282.32323232323233" cy="50.41513469323945" r="2" fill="rgb(0,255,0)"/><circle cx="287.3737373737374" cy="50.322632122311006" r="2" fill="rgb(0,255,0)"/><circle cx="292.42424242424244" cy="50.364397280577066" r="2" fill="rgb(0,255,0)"/><circle cx="297.47474747474746" cy="50.38967454707051" r="2" fill="rgb(0,255,0)"/><circle cx="302.52525252525254" cy="50.40993982922362" r="2" fill="rgb(0,255,0)"/><circle cx="307.57575757575756" cy="50.37241442031308" r="2" fill="rgb(0,255,0)"/><circle cx="312.62626262626264" cy="50.43324353365955" r="2" fill="rgb(0,255,0)"/><circle cx="317.67676767676767" cy="50.31911861768566" r="2" fill="rgb(0,255,0)"/><circle cx="322.7272727272727" cy="50.520469804774734" r="2" fill="rgb(0,255,0)"/><circle cx="327.77777777777777" cy="50.561464752923314" r="2" fill="rgb(0,255,0)"/><circle cx="332.8282828282828" cy="50.28862541261009" r="2" fill="rgb(0,255,0)"/><circle cx="337.8787878787879" cy="50.307542928403734" r="2" fill="rgb(0,255,0)"/><circle cx="342.92929292929296" cy="50.26861989563747" r="2" fill="rgb(0,255,0)"/><circle cx="347.979797979798" cy="50.45976164876788" r="2" fill="rgb(0,255,0)"/><circle cx="353.03030303030306" cy="50.515385530954006" r="2" fill="rgb(0,255,0)"/><circle cx="358.0808080808081" cy="50.40243535299243" r="2" fill="rgb(0,255,0)"/><circle cx="363.13131313131316" cy="50.40243535299243" r="2" fill="rgb(0,255,0)"/><circle cx="368.1818181818182" cy="50.2860916820847" r="2" fill="rgb(0,255,0)"/><circle cx="373.23232323232327" cy="50.2860916820847" r="2" fill="rgb(0,255,0)"/><circle cx="378.2828282828283" cy="50.37132840373812" r="2" fill="rgb(0,255,0)"/><circle cx="383.3333333333333" cy="50.15467265349139" r="2" fill="rgb(0,255,0)"/><circle cx="388.3838383838384" cy="50.299867939667365" r="2" fill="rgb(0,255,0)"/><circle cx="393.4343434343434" cy="50.300126065178006" r="2" fill="rgb(0,255,0)"/><circle cx="398.4848484848485" cy="50.25581205823454" r="2" fill="rgb(0,255,0)"/><circle cx="403.5353535353535" cy="50.25581205823454" r="2" fill="rgb(0,255,0)"/><circle cx="408.58585858585855" cy="50.27857088016822" r="2" fill="rgb(0,255,0)"/><circle cx="413.6363636363636" cy="50.22939677862195" r="2" fill="rgb(0,255,0)"/><circle cx="418.68686868686865" cy="50.06760383688328" r="2" fill="rgb(0,255,0)"/><circle cx="423.73737373737373" cy="50.26379727125527" r="2" fill="rgb(0,255,0)"/><circle cx="428.7878787878788" cy="50.3020349507492" r="2" fill="rgb(0,255,0)"/><circle cx="433.83838383838383" cy="50.23527437788482" r="2" fill="rgb(0,255,0)"/><circle cx="438.8888888888889" cy="50.13413497314161" r="2" fill="rgb(0,255,0)"/><circle cx="443.93939393939394" cy="50.23527437788482" r="2" fill="rgb(0,255,0)"/><circle cx="448.989898989899" cy="50.142904563009324" r="2" fill="rgb(0,255,0)"/><circle cx="454.04040404040404" cy="50.04176515826612" r="2" fill="rgb(0,255,0)"/><circle cx="459.0909090909091" cy="50.19039566142999" r="2" fill="rgb(0,255,0)"/><circle cx="464.14141414141415" cy="50.0" r="2" fill="rgb(0,255,0)"/><circle cx="469.19191919191917" cy="50.10113940474321" r="2" fill="rgb(0,255,0)"/><circle cx="474.24242424242425" cy="50.133797508262376" r="2" fill="rgb(0,255,0)"/><circle cx="479.2929292929293" cy="50.10558227555515" r="2" fill="rgb(0,255,0)"/><circle cx="484.34343434343435" cy="50.004442870811886" r="2" fill="rgb(0,255,0)"/><circle cx="489.3939393939394" cy="50.04176515826612" r="2" fill="rgb(0,255,0)"/><circle cx="494.4444444444444" cy="50.04176515826612" r="2" fill="rgb(0,255,0)"/><circle cx="499.4949494949495" cy="50.04176515826612" r="2" fill="rgb(0,255,0)"/><circle cx="504.5454545454545" cy="50.04176515826612" r="2" fill="rgb(0,255,0)"/><circle cx="509.59595959595964" cy="50.09236981487555" r="2" fill="rgb(0,255,0)"/><circle cx="514.6464646464647" cy="50.04176515826612" r="2" fill="rgb(0,255,0)"/><circle cx="519.6969696969697" cy="50.10113940474321" r="2" fill="rgb(0,255,0)"/><circle cx="524.7474747474748" cy="50.04176515826612" r="2" fill="rgb(0,255,0)"/><circle cx="529.7979797979798" cy="50.0" r="2" fill="rgb(0,255,0)"/><circle cx="534.8484848484849" cy="50.0" r="2" fill="rgb(0,255,0)"/><circle cx="539.8989898989898" cy="50.015201306075255" r="2" fill="rgb(0,255,0)"/><circle cx="544.9494949494949" cy="50.038353666572846" r="2" fill="rgb(0,255,0)"/><circle cx="550.0" cy="50.0" r="2" fill="rgb(0,255,0)"/><text x="350.0" y="20.0" text-anchor="middle" fill="rgb(0,0,0)" font-size="20.0">GA Demo</text><text x="350.0" y="575.0" text-anchor="middle" fill="rgb(0,0,0)" font-size="12.0">generation</text><text transform="rotate(-90.0 20.0 300.0)" x="20.0" y="300.0" text-anchor="middle" fill="rgb(0,0,0)" font-size="12.0">fitness</text><text x="620" y="62" fill="rgb(0,0,0)" font-size="12">min</text><text x="620" y="74" fill="rgb(0,0,255)" font-size="12">ave</text><text x="620" y="86" fill="rgb(0,255,0)" font-size="12">max</text>
      Sorry, your browser does not support inline SVG.
    </svg>