<?xml version='1.0' encoding='UTF-8'?>
<svg version="1.1" width="700.0" height="600.0" onload="init(evt)" xmlns="http://www.w3.org/2000/svg">
      <style>.caption {
  font-size: 14px;
  font-family: Georgia, serif;
}
</style>
      <script type="text/ecmascript"><![CDATA[
function init(evt) {
  if ( window.svgDocument == null ) {
    svgDocument = evt.target.ownerDocument;
  }
}

function RectHover(evt, i, c) {
  rect = svgDocument.getElementById('rect' + i);
  if( c != null ) {
    rect.setAttributeNS(null, "fill", c)  
  }
  tooltiptext = svgDocument.getElementById('tooltiptext' + i);
  tooltipbg = svgDocument.getElementById('tooltipbg' + i);
  if( tooltipbg != null) {
    tbb = tooltiptext.getBBox();
    tooltipbg.setAttributeNS(null, "width", tbb.width);
    tooltipbg.setAttributeNS(null, "height", tbb.height);
    tooltipbg.setAttributeNS(null, "x", tbb.x);
    tooltipbg.setAttributeNS(null, "y", tbb.y);
    tooltipbg.setAttributeNS(null, "visibility", "visible");
  }
  tooltiptext.setAttributeNS(null,"visibility","visible");
}

function RectUnhover(evt, i, c) {
  rect = svgDocument.getElementById('rect' + i);
  if( c != null ) {
    rect.setAttributeNS(null, "fill", c)  
  }
  tooltiptext = svgDocument.getElementById('tooltiptext' + i);
  tooltiptext.setAttributeNS(null,"visibility","hidden");
  tooltipbg = svgDocument.getElementById('tooltipbg' + i);
  if( tooltipbg != null ) {
    tooltipbg.setAttributeNS(null,"visibility","hidden");
  }
}
]]></script>
      <line x1="50.0" y1="550.0" x2="550.0" y2="550.0" stroke="rgb(0,0,0)" stroke-width="1"/><line x1="50.0" y1="550.0" x2="50.0" y2="50.0" stroke="rgb(0,0,0)" stroke-width="1"/><line x1="50.0" y1="550.0" x2="50.0" y2="50.0" stroke="rgb(192,192,192)" stroke-width="1"/><line x1="50.0" y1="548.0" x2="50.0" y2="552.0" stroke="rgb(192,192,192)" stroke-width="1"/><text text-anchor="middle" alignment-baseline="hanging" x="50.0" y="553.0" font-size="12.0">0</text><line x1="100.5050505050505" y1="550.0" x2="100.5050505050505" y2="50.0" stroke="rgb(192,192,192)" stroke-width="1"/><line x1="100.5050505050505" y1="548.0" x2="100.5050505050505" y2="552.0" stroke="rgb(192,192,192)" stroke-width="1"/><text text-anchor="middle" alignment-baseline="hanging" x="100.5050505050505" y="553.0" font-size="12.0">10</text><line x1="151.010101010101" y1="550.0" x2="151.010101010101" y2="50.0" stroke="rgb(192,192,192)" stroke-width="1"/><line x1="151.010101010101" y1="548.0" x2="151.010101010101" y2="552.0" stroke="rgb(192,192,192)" stroke-width="1"/><text text-anchor="middle" alignment-baseline="hanging" x="151.010101010101" y="553.0" font-size="12.0">20</text><line x1="201.51515151515153" y1="550.0" x2="201.51515151515153" y2="50.0" stroke="rgb(192,192,192)" stroke-width="1"/><line x1="201.51515151515153" y1="548.0" x2="201.51515151515153" y2="552.0" stroke="rgb(192,192,192)" stroke-width="1"/><text text-anchor="middle" alignment-baseline="hanging" x="201.51515151515153" y="553.0" font-size="12.0">30</text><line x1="252.02020202020202" y1="550.0" x2="252.02020202020202" y2="50.0" stroke="rgb(192,192,192)" stroke-width="1"/><line x1="252.02020202020202" y1="548.0" x2="252.02020202020202" y2="552.0" stroke="rgb(192,192,192)" stroke-width="1"/><text text-anchor="middle" alignment-baseline="hanging" x="252.02020202020202" y="553.0" font-size="12.0">40</text><line x1="302.52525252525254" y1="550.0" x2="302.52525252525254" y2="50.0" stroke="rgb(192,192,192)" stroke-width="1"/><line x1="302.52525252525254" y1="548.0" x2="302.52525252525254" y2="552.0" stroke="rgb(192,192,192)" stroke-width="1"/><text text-anchor="middle" alignment-baseline="hanging" x="302.52525252525254" y="553.0" font-size="12.0">50</text><line x1="353.03030303030306" y1="550.0" x2="353.03030303030306" y2="50.0" stroke="rgb(192,192,192)" stroke-width="1"/><line x1="353.03030303030306" y1="548.0" x2="353.03030303030306" y2="552.0" stroke="rgb(192,192,192)" stroke-width="1"/><text text-anchor="middle" alignment-baseline="hanging" x="353.03030303030306" y="553.0" font-size="12.0">60</text><line x1="403.5353535353535" y1="550.0" x2="403.5353535353535" y2="50.0" stroke="rgb(192,192,192)" stroke-width="1"/><line x1="403.5353535353535" y1="548.0" x2="403.5353535353535" y2="552.0" stroke="rgb(192,192,192)" stroke-width="1"/><text text-anchor="middle" alignment-baseline="hanging" x="403.5353535353535" y="553.0" font-size="12.0">70</text><line x1="454.04040404040404" y1="550.0" x2="454.04040404040404" y2="50.0" stroke="rgb(192,192,192)" stroke-width="1"/><line x1="454.04040404040404" y1="548.0" x2="454.04040404040404" y2="552.0" stroke="rgb(192,192,192)" stroke-width="1"/><text text-anchor="middle" alignment-baseline="hanging" x="454.04040404040404" y="553.0" font-size="12.0">80</text><line x1="504.5454545454545" y1="550.0" x2="504.5454545454545" y2="50.0" stroke="rgb(192,192,192)" stroke-width="1"/><line x1="504.5454545454545" y1="548.0" x2="504.5454545454545" y2="552.0" stroke="rgb(192,192,192)" stroke-width="1"/><text text-anchor="middle" alignment-baseline="hanging" x="504.5454545454545" y="553.0" font-size="12.0">90</text><line x1="50.0" y1="550.0" x2="550.0" y2="550.0" stroke="rgb(192,192,192)" stroke-width="1"/><text text-anchor="end" alignment-baseline="middle" x="45.0" y="550.0" font-size="12.0">0.0</text><line x1="48.0" y1="550.0" x2="52.0" y2="550.0" stroke="rgb(192,192,192)" stroke-width="1"/><line x1="50.0" y1="367.8428553156567" x2="550.0" y2="367.8428553156567" stroke="rgb(192,192,192)" stroke-width="1"/><text text-anchor="end" alignment-baseline="middle" x="45.0" y="367.8428553156567" font-size="12.0">1000.0</text><line x1="48.0" y1="367.8428553156567" x2="52.0" y2="367.8428553156567" stroke="rgb(192,192,192)" stroke-width="1"/><line x1="50.0" y1="185.68571063131338" x2="550.0" y2="185.68571063131338" stroke="rgb(192,192,192)" stroke-width="1"/><text text-anchor="end" alignment-baseline="middle" x="45.0" y="185.68571063131338" font-size="12.0">2000.0</text><line x1="48.0" y1="185.68571063131338" x2="52.0" y2="185.68571063131338" stroke="rgb(192,192,192)" stroke-width="1"/><polyline points="50.0,410.2266781883435 55.05050505050505,427.8756403382176 60.101010101010104,403.95893937802987 65.15151515151516,381.89401444913244 70.20202020202021,342.74210372785933 75.25252525252526,271.0820329578864 80.30303030303031,370.53409903040216 85.35353535353535,312.3208580417561 90.40404040404042,346.15841183839007 95.45454545454545,342.7626397210368 100.5050505050505,236.25545964955586 105.55555555555554,358.81055240196304 110.60606060606061,411.0414799480493 115.65656565656566,254.2575985682177 120.7070707070707,364.2714717483842 125.75757575757576,312.83161398561464 130.80808080808083,347.48273757557104 135.85858585858585,328.42802183561537 140.9090909090909,337.1818323757667 145.95959595959596,338.8729003755791 151.010101010101,401.75957165772013 156.06060606060606,404.89610359224196 161.1111111111111,404.30665579011827 166.16161616161617,405.44242824208686 171.21212121212122,405.9006523657014 176.26262626262627,400.77626916872043 181.31313131313132,410.3620631088135 186.36363636363635,370.6202029268991 191.4141414141414,363.2764837629802 196.46464646464648,256.3145470901108 201.51515151515153,400.7127594019571 206.56565656565658,399.63269030113725 211.61616161616163,256.2330747302781 216.66666666666666,291.021354145069 221.7171717171717,384.5246198962981 226.76767676767676,289.4218341295129 231.8181818181818,332.4616016173226 236.86868686868686,306.6457359471401 241.91919191919192,307.0466226140098 246.96969696969697,396.35270962230663 252.02020202020202,372.80493312224655 257.07070707070704,237.7775414124451 262.1212121212121,338.74304721372215 267.1717171717172,372.8020591401914 272.2222222222222,337.58758419457035 277.27272727272725,388.8556010912822 282.32323232323233,304.98771612751193 287.3737373737374,380.20357093683776 292.42424242424244,352.3911622828317 297.47474747474746,282.3177279601296 302.52525252525254,282.4000016168628 307.57575757575756,405.1177660639757 312.62626262626264,404.15293936963644 317.67676767676767,354.69978538328377 322.7272727272727,406.4122780530678 327.77777777777777,406.53169120872735 332.8282828282828,407.5603932862953 337.8787878787879,325.62314043056165 342.92929292929296,191.0740823320113 347.979797979798,371.1293930180482 353.03030303030306,290.42026200013265 358.0808080808081,388.60011957097555 363.13131313131316,388.3387392067766 368.1818181818182,353.13840587216134 373.23232323232327,412.3598780466648 378.2828282828283,430.254409358906 383.3333333333333,353.5651875187629 388.3838383838384,406.601553656992 393.4343434343434,406.601553656992 398.4848484848485,389.8830785991768 403.5353535353535,406.57887473265225 408.58585858585855,405.7043645976129 413.6363636363636,410.226745769732 418.68686868686865,408.082724649876 423.73737373737373,296.4249671112598 428.7878787878788,308.65206146422497 433.83838383838383,404.2439593426791 438.8888888888889,350.6991206297163 443.93939393939394,186.48023438878374 448.989898989899,411.0973681380635 454.04040404040404,340.07894749245077 459.0909090909091,409.7171364545401 464.14141414141415,369.23407926598344 469.19191919191917,364.6953199354149 474.24242424242425,364.6953199354149 479.2929292929293,354.0618504080311 484.34343434343435,313.3435790239254 489.3939393939394,283.29443469261935 494.4444444444444,340.4767548068346 499.4949494949495,370.09946148285644 504.5454545454545,370.09946148285644 509.59595959595964,340.4604841000141 514.6464646464647,392.7985873347593 519.6969696969697,361.0749187607205 524.7474747474748,388.8951943696791 529.7979797979798,339.642601440982 534.8484848484849,339.5245776609652 539.8989898989898,413.96360019533444 544.9494949494949,411.9373224164002 550.0,412.238842319754" fill="none" stroke="rgb(0,0,0)" stroke-width="1"/><circle cx="50.0" cy="410.2266781883435" r="2" fill="rgb(0,0,0)"/><circle cx="55.05050505050505" cy="427.8756403382176" r="2" fill="rgb(0,0,0)"/><circle cx="60.101010101010104" cy="403.95893937802987" r="2" fill="rgb(0,0,0)"/><circle cx="65.15151515151516" cy="381.89401444913244" r="2" fill="rgb(0,0,0)"/><circle cx="70.20202020202021" cy="342.74210372785933" r="2" fill="rgb(0,0,0)"/><circle cx="75.25252525252526" cy="271.0820329578864" r="2" fill="rgb(0,0,0)"/><circle cx="80.30303030303031" cy="370.53409903040216" r="2" fill="rgb(0,0,0)"/><circle cx="85.35353535353535" cy="312.3208580417561" r="2" fill="rgb(0,0,0)"/><circle cx="90.40404040404042" cy="346.15841183839007" r="2" fill="rgb(0,0,0)"/><circle cx="95.45454545454545" cy="342.7626397210368" r="2" fill="rgb(0,0,0)"/><circle cx="100.5050505050505" cy="236.25545964955586" r="2" fill="rgb(0,0,0)"/><circle cx="105.55555555555554" cy="358.81055240196304" r="2" fill="rgb(0,0,0)"/><circle cx="110.60606060606061" cy="411.0414799480493" r="2" fill="rgb(0,0,0)"/><circle cx="115.65656565656566" cy="254.2575985682177" r="2" fill="rgb(0,0,0)"/><circle cx="120.7070707070707" cy="364.2714717483842" r="2" fill="rgb(0,0,0)"/><circle cx="125.75757575757576" cy="312.83161398561464" r="2" fill="rgb(0,0,0)"/><circle cx="130.80808080808083" cy="347.48273757557104" r="2" fill="rgb(0,0,0)"/><circle cx="135.85858585858585" cy="328.42802183561537" r="2" fill="rgb(0,0,0)"/><circle cx="140.9090909090909" cy="337.1818323757667" r="2" fill="rgb(0,0,0)"/><circle cx="145.95959595959596" cy="338.8729003755791" r="2" fill="rgb(0,0,0)"/><circle cx="151.010101010101" cy="401.75957165772013" r="2" fill="rgb(0,0,0)"/><circle cx="156.06060606060606" cy="404.89610359224196" r="2" fill="rgb(0,0,0)"/><circle cx="161.1111111111111" cy="404.30665579011827" r="2" fill="rgb(0,0,0)"/><circle cx="166.16161616161617" cy="405.44242824208686" r="2" fill="rgb(0,0,0)"/><circle cx="171.21212121212122" cy="405.9006523657014" r="2" fill="rgb(0,0,0)"/><circle cx="176.26262626262627" cy="400.77626916872043" r="2" fill="rgb(0,0,0)"/><circle cx="181.31313131313132" cy="410.3620631088135" r="2" fill="rgb(0,0,0)"/><circle cx="186.36363636363635" cy="370.6202029268991" r="2" fill="rgb(0,0,0)"/><circle cx="191.4141414141414" cy="363.2764837629802" r="2" fill="rgb(0,0,0)"/><circle cx="196.46464646464648" cy="256.3145470901108" r="2" fill="rgb(0,0,0)"/><circle cx="201.51515151515153" cy="400.7127594019571" r="2" fill="rgb(0,0,0)"/><circle cx="206.56565656565658" cy="399.63269030113725" r="2" fill="rgb(0,0,0)"/><circle cx="211.61616161616163" cy="256.2330747302781" r="2" fill="rgb(0,0,0)"/><circle cx="216.66666666666666" cy="291.021354145069" r="2" fill="rgb(0,0,0)"/><circle cx="221.7171717171717" cy="384.5246198962981" r="2" fill="rgb(0,0,0)"/><circle cx="226.76767676767676" cy="289.4218341295129" r="2" fill="rgb(0,0,0)"/><circle cx="231.8181818181818" cy="332.4616016173226" r="2" fill="rgb(0,0,0)"/><circle cx="236.86868686868686" cy="306.6457359471401" r="2" fill="rgb(0,0,0)"/><circle cx="241.91919191919192" cy="307.0466226140098" r="2" fill="rgb(0,0,0)"/><circle cx="246.96969696969697" cy="396.35270962230663" r="2" fill="rgb(0,0,0)"/><circle cx="252.02020202020202" cy="372.80493312224655" r="2" fill="rgb(0,0,0)"/><circle cx="257.07070707070704" cy="237.7775414124451" r="2" fill="rgb(0,0,0)"/><circle cx="262.1212121212121" cy="338.74304721372215" r="2" fill="rgb(0,0,0)"/><circle cx="267.1717171717172" cy="372.8020591401914" r="2" fill="rgb(0,0,0)"/><circle cx="272.2222222222222" cy="337.58758419457035" r="2" fill="rgb(0,0,0)"/><circle cx="277.27272727272725" cy="388.8556010912822" r="2" fill="rgb(0,0,0)"/><circle cx="282.32323232323233" cy="304.98771612751193" r="2" fill="rgb(0,0,0)"/><circle cx="287.3737373737374" cy="380.20357093683776" r="2" fill="rgb(0,0,0)"/><circle cx="292.42424242424244" cy="352.3911622828317" r="2" fill="rgb(0,0,0)"/><circle cx="297.47474747474746" cy="282.3177279601296" r="2" fill="rgb(0,0,0)"/><circle cx="302.52525252525254" cy="282.4000016168628" r="2" fill="rgb(0,0,0)"/><circle cx="307.57575757575756" cy="405.1177660639757" r="2" fill="rgb(0,0,0)"/><circle cx="312.62626262626264" cy="404.15293936963644" r="2" fill="rgb(0,0,0)"/><circle cx="317.67676767676767" cy="354.69978538328377" r="2" fill="rgb(0,0,0)"/><circle cx="322.7272727272727" cy="406.4122780530678" r="2" fill="rgb(0,0,0)"/><circle cx="327.77777777777777" cy="406.53169120872735" r="2" fill="rgb(0,0,0)"/><circle cx="332.8282828282828" cy="407.5603932862953" r="2" fill="rgb(0,0,0)"/><circle cx="337.8787878787879" cy="325.62314043056165" r="2" fill="rgb(0,0,0)"/><circle cx="342.92929292929296" cy="191.0740823320113" r="2" fill="rgb(0,0,0)"/><circle cx="347.979797979798" cy="371.1293930180482" r="2" fill="rgb(0,0,0)"/><circle cx="353.03030303030306" cy="290.42026200013265" r="2" fill="rgb(0,0,0)"/><circle cx="358.0808080808081" cy="388.60011957097555" r="2" fill="rgb(0,0,0)"/><circle cx="363.13131313131316" cy="388.3387392067766" r="2" fill="rgb(0,0,0)"/><circle cx="368.1818181818182" cy="353.13840587216134" r="2" fill="rgb(0,0,0)"/><circle cx="373.23232323232327" cy="412.3598780466648" r="2" fill="rgb(0,0,0)"/><circle cx="378.2828282828283" cy="430.254409358906" r="2" fill="rgb(0,0,0)"/><circle cx="383.3333333333333" cy="353.5651875187629" r="2" fill="rgb(0,0,0)"/><circle cx="388.3838383838384" cy="406.601553656992" r="2" fill="rgb(0,0,0)"/><circle cx="393.4343434343434" cy="406.601553656992" r="2" fill="rgb(0,0,0)"/><circle cx="398.4848484848485" cy="389.8830785991768" r="2" fill="rgb(0,0,0)"/><circle cx="403.5353535353535" cy="406.57887473265225" r="2" fill="rgb(0,0,0)"/><circle cx="408.58585858585855" cy="405.7043645976129" r="2" fill="rgb(0,0,0)"/><circle cx="413.6363636363636" cy="410.226745769732" r="2" fill="rgb(0,0,0)"/><circle cx="418.68686868686865" cy="408.082724649876" r="2" fill="rgb(0,0,0)"/><circle cx="423.73737373737373" cy="296.4249671112598" r="2" fill="rgb(0,0,0)"/><circle cx="428.7878787878788" cy="308.65206146422497" r="2" fill="rgb(0,0,0)"/><circle cx="433.83838383838383" cy="404.2439593426791" r="2" fill="rgb(0,0,0)"/><circle cx="438.8888888888889" cy="350.6991206297163" r="2" fill="rgb(0,0,0)"/><circle cx="443.93939393939394" cy="186.48023438878374" r="2" fill="rgb(0,0,0)"/><circle cx="448.989898989899" cy="411.0973681380635" r="2" fill="rgb(0,0,0)"/><circle cx="454.04040404040404" cy="340.07894749245077" r="2" fill="rgb(0,0,0)"/><circle cx="459.0909090909091" cy="409.7171364545401" r="2" fill="rgb(0,0,0)"/><circle cx="464.14141414141415" cy="369.23407926598344" r="2" fill="rgb(0,0,0)"/><circle cx="469.19191919191917" cy="364.6953199354149" r="2" fill="rgb(0,0,0)"/><circle cx="474.24242424242425" cy="364.6953199354149" r="2" fill="rgb(0,0,0)"/><circle cx="479.2929292929293" cy="354.0618504080311" r="2" fill="rgb(0,0,0)"/><circle cx="484.34343434343435" cy="313.3435790239254" r="2" fill="rgb(0,0,0)"/><circle cx="489.3939393939394" cy="283.29443469261935" r="2" fill="rgb(0,0,0)"/><circle cx="494.4444444444444" cy="340.4767548068346" r="2" fill="rgb(0,0,0)"/><circle cx="499.4949494949495" cy="370.09946148285644" r="2" fill="rgb(0,0,0)"/><circle cx="504.5454545454545" cy="370.09946148285644" r="2" fill="rgb(0,0,0)"/><circle cx="509.59595959595964" cy="340.4604841000141" r="2" fill="rgb(0,0,0)"/><circle cx="514.6464646464647" cy="392.7985873347593" r="2" fill="rgb(0,0,0)"/><circle cx="519.6969696969697" cy="361.0749187607205" r="2" fill="rgb(0,0,0)"/><circle cx="524.7474747474748" cy="388.8951943696791" r="2" fill="rgb(0,0,0)"/><circle cx="529.7979797979798" cy="339.642601440982" r="2" fill="rgb(0,0,0)"/><circle cx="534.8484848484849" cy="339.5245776609652" r="2" fill="rgb(0,0,0)"/><circle cx="539.8989898989898" cy="413.96360019533444" r="2" fill="rgb(0,0,0)"/><circle cx="544.9494949494949" cy="411.9373224164002" r="2" fill="rgb(0,0,0)"/><circle cx="550.0" cy="412.238842319754" r="2" fill="rgb(0,0,0)"/><polyline points="50.0,205.6015922218661 55.05050505050505,198.97366449408696 60.101010101010104,172.5809017819334 65.15151515151516,158.90332248404837 70.20202020202021,135.9972995868182 75.25252525252526,112.05388122673742 80.30303030303031,103.29408102794639 85.35353535353535,91.71946580807116 90.40404040404042,89.0834512684383 95.45454545454545,78.61052546723198 100.5050505050505,69.90792637042131 105.55555555555554,68.39704303974207 110.60606060606061,69.82648654465117 115.65656565656566,61.43378030404472 120.7070707070707,62.904289288865414 125.75757575757576,63.81089561890548 130.80808080808083,67.38998186566533 135.85858585858585,66.70368856825007 140.9090909090909,65.10303805560102 145.95959595959596,61.202966931577464 151.010101010101,64.48755471153163 156.06060606060606,70.3951548168481 161.1111111111111,71.37788206838201 166.16161616161617,74.68495859117849 171.21212121212122,76.3885396103073 176.26262626262627,65.38272617460433 181.31313131313132,68.69080178470199 186.36363636363635,69.27154697230827 191.4141414141414,71.87204225503024 196.46464646464648,60.4436520270836 201.51515151515153,64.48782152122345 206.56565656565658,70.68900954277484 211.61616161616163,58.41820423328579 216.66666666666666,56.419003259756835 221.7171717171717,60.68743324827852 226.76767676767676,57.149444106955 231.8181818181818,61.559537948120465 236.86868686868686,62.60842997705498 241.91919191919192,58.99680227249496 246.96969696969697,59.77879354910431 252.02020202020202,61.76962662364218 257.07070707070704,54.859807211451766 262.1212121212121,60.79709344378642 267.1717171717172,57.83619584041958 272.2222222222222,56.87603231448202 277.27272727272725,57.037801142020726 282.32323232323233,57.17422432108435 287.3737373737374,62.085336028789015 292.42424242424244,61.219665482863945 297.47474747474746,57.35193461253567 302.52525252525254,62.373592948764724 307.57575757575756,63.88024185055576 312.62626262626264,60.93245923384012 317.67676767676767,58.30366166618393 322.7272727272727,63.12308150868745 327.77777777777777,62.84484453316492 332.8282828282828,63.3056344389729 337.8787878787879,59.51010535895483 342.92929292929296,52.83646651576669 347.979797979798,67.77425316667694 353.03030303030306,68.21370592645178 358.0808080808081,61.41301650299897 363.13131313131316,62.252931339397946 368.1818181818182,58.98686931760301 373.23232323232327,70.14102637175216 378.2828282828283,63.49143838569046 383.3333333333333,58.322009898796466 388.3838383838384,73.18458276762999 393.4343434343434,74.34197817759457 398.4848484848485,66.6922838388578 403.5353535353535,71.85040421168372 408.58585858585855,62.362717194086315 413.6363636363636,70.47685954664598 418.68686868686865,60.7705289326571 423.73737373737373,56.466560160926065 428.7878787878788,58.11450867963657 433.83838383838383,58.63520525161164 438.8888888888889,59.89853554028775 443.93939393939394,56.705031055289965 448.989898989899,63.03369255796525 454.04040404040404,63.089715888816954 459.0909090909091,62.14507706790198 464.14141414141415,61.2705183063872 469.19191919191917,60.58193331244928 474.24242424242425,69.29204750894445 479.2929292929293,61.29596601395184 484.34343434343435,58.56761944090101 489.3939393939394,55.45100621236452 494.4444444444444,60.399061154596495 499.4949494949495,58.233137801549674 504.5454545454545,58.30735505906131 509.59595959595964,62.695392683842556 514.6464646464647,63.730974579551 519.6969696969697,59.791584361569676 524.7474747474748,73.18976503890372 529.7979797979798,69.42189527930338 534.8484848484849,71.34966076312395 539.8989898989898,65.70151110217671 544.9494949494949,64.11391070515594 550.0,62.93248389800607" fill="none" stroke="rgb(0,0,255)" stroke-width="1"/><circle cx="50.0" cy="205.6015922218661" r="2" fill="rgb(0,0,255)"/><circle cx="55.05050505050505" cy="198.97366449408696" r="2" fill="rgb(0,0,255)"/><circle cx="60.101010101010104" cy="172.5809017819334" r="2" fill="rgb(0,0,255)"/><circle cx="65.15151515151516" cy="158.90332248404837" r="2" fill="rgb(0,0,255)"/><circle cx="70.20202020202021" cy="135.9972995868182" r="2" fill="rgb(0,0,255)"/><circle cx="75.25252525252526" cy="112.05388122673742" r="2" fill="rgb(0,0,255)"/><circle cx="80.30303030303031" cy="103.29408102794639" r="2" fill="rgb(0,0,255)"/><circle cx="85.35353535353535" cy="91.71946580807116" r="2" fill="rgb(0,0,255)"/><circle cx="90.40404040404042" cy="89.0834512684383" r="2" fill="rgb(0,0,255)"/><circle cx="95.45454545454545" cy="78.61052546723198" r="2" fill="rgb(0,0,255)"/><circle cx="100.5050505050505" cy="69.90792637042131" r="2" fill="rgb(0,0,255)"/><circle cx="105.55555555555554" cy="68.39704303974207" r="2" fill="rgb(0,0,255)"/><circle cx="110.60606060606061" cy="69.82648654465117" r="2" fill="rgb(0,0,255)"/><circle cx="115.65656565656566" cy="61.43378030404472" r="2" fill="rgb(0,0,255)"/><circle cx="120.7070707070707" cy="62.904289288865414" r="2" fill="rgb(0,0,255)"/><circle cx="125.75757575757576" cy="63.81089561890548" r="2" fill="rgb(0,0,255)"/><circle cx="130.80808080808083" cy="67.38998186566533" r="2" fill="rgb(0,0,255)"/><circle cx="135.85858585858585" cy="66.70368856825007" r="2" fill="rgb(0,0,255)"/><circle cx="140.9090909090909" cy="65.10303805560102" r="2" fill="rgb(0,0,255)"/><circle cx="145.95959595959596" cy="61.202966931577464" r="2" fill="rgb(0,0,255)"/><circle cx="151.010101010101" cy="64.48755471153163" r="2" fill="rgb(0,0,255)"/><circle cx="156.06060606060606" cy="70.3951548168481" r="2" fill="rgb(0,0,255)"/><circle cx="161.1111111111111" cy="71.37788206838201" r="2" fill="rgb(0,0,255)"/><circle cx="166.16161616161617" cy="74.68495859117849" r="2" fill="rgb(0,0,255)"/><circle cx="171.21212121212122" cy="76.3885396103073" r="2" fill="rgb(0,0,255)"/><circle cx="176.26262626262627" cy="65.38272617460433" r="2" fill="rgb(0,0,255)"/><circle cx="181.31313131313132" cy="68.69080178470199" r="2" fill="rgb(0,0,255)"/><circle cx="186.36363636363635" cy="69.27154697230827" r="2" fill="rgb(0,0,255)"/><circle cx="191.4141414141414" cy="71.87204225503024" r="2" fill="rgb(0,0,255)"/><circle cx="196.46464646464648" cy="60.4436520270836" r="2" fill="rgb(0,0,255)"/><circle cx="201.51515151515153" cy="64.48782152122345" r="2" fill="rgb(0,0,255)"/><circle cx="206.56565656565658" cy="70.68900954277484" r="2" fill="rgb(0,0,255)"/><circle cx="211.61616161616163" cy="58.41820423328579" r="2" fill="rgb(0,0,255)"/><circle cx="216.66666666666666" cy="56.419003259756835" r="2" fill="rgb(0,0,255)"/><circle cx="221.7171717171717" cy="60.68743324827852" r="2" fill="rgb(0,0,255)"/><circle cx="226.76767676767676" cy="57.149444106955" r="2" fill="rgb(0,0,255)"/><circle cx="231.8181818181818" cy="61.559537948120465" r="2" fill="rgb(0,0,255)"/><circle cx="236.86868686868686" cy="62.60842997705498" r="2" fill="rgb(0,0,255)"/><circle cx="241.91919191919192" cy="58.99680227249496" r="2" fill="rgb(0,0,255)"/><circle cx="246.96969696969697" cy="59.77879354910431" r="2" fill="rgb(0,0,255)"/><circle cx="252.02020202020202" cy="61.76962662364218" r="2" fill="rgb(0,0,255)"/><circle cx="257.07070707070704" cy="54.859807211451766" r="2" fill="rgb(0,0,255)"/><circle cx="262.1212121212121" cy="60.79709344378642" r="2" fill="rgb(0,0,255)"/><circle cx="267.1717171717172" cy="57.83619584041958" r="2" fill="rgb(0,0,255)"/><circle cx="272.2222222222222" cy="56.87603231448202" r="2" fill="rgb(0,0,255)"/><circle cx="277.27272727272725" cy="57.037801142020726" r="2" fill="rgb(0,0,255)"/><circle cx="282.32323232323233" cy="57.17422432108435" r="2" fill="rgb(0,0,255)"/><circle cx="287.3737373737374" cy="62.085336028789015" r="2" fill="rgb(0,0,255)"/><circle cx="292.42424242424244" cy="61.219665482863945" r="2" fill="rgb(0,0,255)"/><circle cx="297.47474747474746" cy="57.35193461253567" r="2" fill="rgb(0,0,255)"/><circle cx="302.52525252525254" cy="62.373592948764724" r="2" fill="rgb(0,0,255)"/><circle cx="307.57575757575756" cy="63.88024185055576" r="2" fill="rgb(0,0,255)"/><circle cx="312.62626262626264" cy="60.93245923384012" r="2" fill="rgb(0,0,255)"/><circle cx="317.67676767676767" cy="58.30366166618393" r="2" fill="rgb(0,0,255)"/><circle cx="322.7272727272727" cy="63.12308150868745" r="2" fill="rgb(0,0,255)"/><circle cx="327.77777777777777" cy="62.84484453316492" r="2" fill="rgb(0,0,255)"/><circle cx="332.8282828282828" cy="63.3056344389729" r="2" fill="rgb(0,0,255)"/><circle cx="337.8787878787879" cy="59.51010535895483" r="2" fill="rgb(0,0,255)"/><circle cx="342.92929292929296" cy="52.83646651576669" r="2" fill="rgb(0,0,255)"/><circle cx="347.979797979798" cy="67.77425316667694" r="2" fill="rgb(0,0,255)"/><circle cx="353.03030303030306" cy="68.21370592645178" r="2" fill="rgb(0,0,255)"/><circle cx="358.0808080808081" cy="61.41301650299897" r="2" fill="rgb(0,0,255)"/><circle cx="363.13131313131316" cy="62.252931339397946" r="2" fill="rgb(0,0,255)"/><circle cx="368.1818181818182" cy="58.98686931760301" r="2" fill="rgb(0,0,255)"/><circle cx="373.23232323232327" cy="70.14102637175216" r="2" fill="rgb(0,0,255)"/><circle cx="378.2828282828283" cy="63.49143838569046" r="2" fill="rgb(0,0,255)"/><circle cx="383.3333333333333" cy="58.322009898796466" r="2" fill="rgb(0,0,255)"/><circle cx="388.3838383838384" cy="73.18458276762999" r="2" fill="rgb(0,0,255)"/><circle cx="393.4343434343434" cy="74.34197817759457" r="2" fill="rgb(0,0,255)"/><circle cx="398.4848484848485" cy="66.6922838388578" r="2" fill="rgb(0,0,255)"/><circle cx="403.5353535353535" cy="71.85040421168372" r="2" fill="rgb(0,0,255)"/><circle cx="408.58585858585855" cy="62.362717194086315" r="2" fill="rgb(0,0,255)"/><circle cx="413.6363636363636" cy="70.47685954664598" r="2" fill="rgb(0,0,255)"/><circle cx="418.68686868686865" cy="60.7705289326571" r="2" fill="rgb(0,0,255)"/><circle cx="423.73737373737373" cy="56.466560160926065" r="2" fill="rgb(0,0,255)"/><circle cx="428.7878787878788" cy="58.11450867963657" r="2" fill="rgb(0,0,255)"/><circle cx="433.83838383838383" cy="58.63520525161164" r="2" fill="rgb(0,0,255)"/><circle cx="438.8888888888889" cy="59.89853554028775" r="2" fill="rgb(0,0,255)"/><circle cx="443.93939393939394" cy="56.705031055289965" r="2" fill="rgb(0,0,255)"/><circle cx="448.989898989899" cy="63.03369255796525" r="2" fill="rgb(0,0,255)"/><circle cx="454.04040404040404" cy="63.089715888816954" r="2" fill="rgb(0,0,255)"/><circle cx="459.0909090909091" cy="62.14507706790198" r="2" fill="rgb(0,0,255)"/><circle cx="464.14141414141415" cy="61.2705183063872" r="2" fill="rgb(0,0,255)"/><circle cx="469.19191919191917" cy="60.58193331244928" r="2" fill="rgb(0,0,255)"/><circle cx="474.24242424242425" cy="69.29204750894445" r="2" fill="rgb(0,0,255)"/><circle cx="479.2929292929293" cy="61.29596601395184" r="2" fill="rgb(0,0,255)"/><circle cx="484.34343434343435" cy="58.56761944090101" r="2" fill="rgb(0,0,255)"/><circle cx="489.3939393939394" cy="55.45100621236452" r="2" fill="rgb(0,0,255)"/><circle cx="494.4444444444444" cy="60.399061154596495" r="2" fill="rgb(0,0,255)"/><circle cx="499.4949494949495" cy="58.233137801549674" r="2" fill="rgb(0,0,255)"/><circle cx="504.5454545454545" cy="58.30735505906131" r="2" fill="rgb(0,0,255)"/><circle cx="509.59595959595964" cy="62.695392683842556" r="2" fill="rgb(0,0,255)"/><circle cx="514.6464646464647" cy="63.730974579551" r="2" fill="rgb(0,0,255)"/><circle cx="519.6969696969697" cy="59.791584361569676" r="2" fill="rgb(0,0,255)"/><circle cx="524.7474747474748" cy="73.18976503890372" r="2" fill="rgb(0,0,255)"/><circle cx="529.7979797979798" cy="69.42189527930338" r="2" fill="rgb(0,0,255)"/><circle cx="534.8484848484849" cy="71.34966076312395" r="2" fill="rgb(0,0,255)"/><circle cx="539.8989898989898" cy="65.70151110217671" r="2" fill="rgb(0,0,255)"/><circle cx="544.9494949494949" cy="64.11391070515594" r="2" fill="rgb(0,0,255)"/><circle cx="550.0" cy="62.93248389800607" r="2" fill="rgb(0,0,255)"/><polyline points="50.0,53.1562395900948 55.05050505050505,56.19959282308213 60.101010101010104,55.06846527851104 65.15151515151516,55.559249486612146 70.20202020202021,56.23267540711589 75.25252525252526,55.36962668977509 80.30303030303031,56.10519172842163 85.35353535353535,55.11589761996811 90.40404040404042,55.929663471035155 95.45454545454545,55.138088881228725 100.5050505050505,54.75119195398884 105.55555555555554,53.30924862050773 110.60606060606061,53.28428281241429 115.65656565656566,52.98320537806626 120.7070707070707,52.412463029209846 125.75757575757576,52.301903393629345 130.80808080808083,51.75989398838021 135.85858585858585,51.855051715028196 140.9090909090909,51.49476429649775 145.95959595959596,51.38922213944721 151.010101010101,51.41371509813064 156.06060606060606,51.1305315069572 161.1111111111111,51.018406307723524 166.16161616161617,51.03106803543915 171.21212121212122,50.74513432366268 176.26262626262627,50.692472111035784 181.31313131313132,50.77243692989697 186.36363636363635,51.008212827166176 191.4141414141414,50.883710147739464 196.46464646464648,50.88016501929235 201.51515151515153,50.83827310411789 206.56565656565658,50.85725952289641 211.61616161616163,50.887992077748095 216.66666666666666,50.8367152487848 221.7171717171717,50.61337174602727 226.76767676767676,50.65855504744292 231.8181818181818,50.71561436990811 236.86868686868686,50.525198602506464 241.91919191919192,50.525198602506464 246.96969696969697,50.42531551832752 252.02020202020202,50.39062065094856 257.07070707070704,50.47672336459743 262.1212121212121,50.47672336459743 267.1717171717172,50.456983264366045 272.2222222222222,50.399923941900795 277.27272727272725,50.319222003236064 282.32323232323233,50.35075873196797 287.3737373737374,50.404321051739146 292.42424242424244,50.270735977533036 297.47474747474746,50.270735977533036 302.52525252525254,50.14082039384175 307.57575757575756,50.15554020840432 312.62626262626264,50.10287799577742 317.67676767676767,50.1541548247406 322.7272727272727,50.13441472450933 327.77777777777777,50.13580010817293 332.8282828282828,50.08313789554603 337.8787878787879,50.10095153886488 342.92929292929296,50.08313789554603 347.979797979798,50.08313789554603 353.03030303030306,50.10287799577742 358.0808080808081,50.08238580847831 363.13131313131316,50.05535978510284 368.1818181818182,50.062645708246976 373.23232323232327,50.062645708246976 378.2828282828283,50.062645708246976 383.3333333333333,50.10287799577742 388.3838383838384,50.08238580847831 393.4343434343434,50.10287799577742 398.4848484848485,50.10287799577742 403.5353535353535,50.062645708246976 408.58585858585855,50.062645708246976 413.6363636363636,50.08238580847831 418.68686868686865,50.095388214287595 423.73737373737373,50.08238580847831 428.7878787878788,50.082357994218455 433.83838383838383,50.08238580847831 438.8888888888889,50.02972359585141 443.93939393939394,50.08238580847831 448.989898989899,50.08051831018889 454.04040404040404,50.04061975891034 459.0909090909091,50.04061975891034 464.14141414141415,50.05843340222924 469.19191919191917,50.04061975891034 474.24242424242425,50.04061975891034 479.2929292929293,50.04061975891034 484.34343434343435,50.04061975891034 489.3939393939394,50.0 494.4444444444444,50.0 499.4949494949495,50.02032646607603 504.5454545454545,50.04003875204751 509.59595959595964,50.02032646607603 514.6464646464647,50.02032646607603 519.6969696969697,50.08238580847831 524.7474747474748,50.08009479637212 529.7979797979798,50.08009479637212 534.8484848484849,50.08238580847831 539.8989898989898,50.08238580847831 544.9494949494949,50.08009479637212 550.0,50.08009479637212" fill="none" stroke="rgb(0,255,0)" stroke-width="1"/><circle cx="50.0" cy="53.1562395900948" r="2" fill="rgb(0,255,0)"/><circle cx="55.05050505050505" cy="56.19959282308213" r="2" fill="rgb(0,255,0)"/><circle cx="60.101010101010104" cy="55.06846527851104" r="2" fill="rgb(0,255,0)"/><circle cx="65.15151515151516" cy="55.559249486612146" r="2" fill="rgb(0,255,0)"/><circle cx="70.20202020202021" cy="56.23267540711589" r="2" fill="rgb(0,255,0)"/><circle cx="75.25252525252526" cy="55.36962668977509" r="2" fill="rgb(0,255,0)"/><circle cx="80.30303030303031" cy="56.10519172842163" r="2" fill="rgb(0,255,0)"/><circle cx="85.35353535353535" cy="55.11589761996811" r="2" fill="rgb(0,255,0)"/><circle cx="90.40404040404042" cy="55.929663471035155" r="2" fill="rgb(0,255,0)"/><circle cx="95.45454545454545" cy="55.138088881228725" r="2" fill="rgb(0,255,0)"/><circle cx="100.5050505050505" cy="54.75119195398884" r="2" fill="rgb(0,255,0)"/><circle cx="105.55555555555554" cy="53.30924862050773" r="2" fill="rgb(0,255,0)"/><circle cx="110.60606060606061" cy="53.28428281241429" r="2" fill="rgb(0,255,0)"/><circle cx="115.65656565656566" cy="52.98320537806626" r="2" fill="rgb(0,255,0)"/><circle cx="120.7070707070707" cy="52.412463029209846" r="2" fill="rgb(0,255,0)"/><circle cx="125.75757575757576" cy="52.301903393629345" r="2" fill="rgb(0,255,0)"/><circle cx="130.80808080808083" cy="51.75989398838021" r="2" fill="rgb(0,255,0)"/><circle cx="135.85858585858585" cy="51.855051715028196" r="2" fill="rgb(0,255,0)"/><circle cx="140.9090909090909" cy="51.49476429649775" r="2" fill="rgb(0,255,0)"/><circle cx="145.95959595959596" cy="51.38922213944721" r="2" fill="rgb(0,255,0)"/><circle cx="151.010101010101" cy="51.41371509813064" r="2" fill="rgb(0,255,0)"/><circle cx="156.06060606060606" cy="51.1305315069572" r="2" fill="rgb(0,255,0)"/><circle cx="161.1111111111111" cy="51.018406307723524" r="2" fill="rgb(0,255,0)"/><circle cx="166.16161616161617" cy="51.03106803543915" r="2" fill="rgb(0,255,0)"/><circle cx="171.21212121212122" cy="50.74513432366268" r="2" fill="rgb(0,255,0)"/><circle cx="176.26262626262627" cy="50.692472111035784" r="2" fill="rgb(0,255,0)"/><circle cx="181.31313131313132" cy="50.77243692989697" r="2" fill="rgb(0,255,0)"/><circle cx="186.36363636363635" cy="51.008212827166176" r="2" fill="rgb(0,255,0)"/><circle cx="191.4141414141414" cy="50.883710147739464" r="2" fill="rgb(0,255,0)"/><circle cx="196.46464646464648" cy="50.88016501929235" r="2" fill="rgb(0,255,0)"/><circle cx="201.51515151515153" cy="50.83827310411789" r="2" fill="rgb(0,255,0)"/><circle cx="206.56565656565658" cy="50.85725952289641" r="2" fill="rgb(0,255,0)"/><circle cx="211.61616161616163" cy="50.887992077748095" r="2" fill="rgb(0,255,0)"/><circle cx="216.66666666666666" cy="50.8367152487848" r="2" fill="rgb(0,255,0)"/><circle cx="221.7171717171717" cy="50.61337174602727" r="2" fill="rgb(0,255,0)"/><circle cx="226.76767676767676" cy="50.65855504744292" r="2" fill="rgb(0,255,0)"/><circle cx="231.8181818181818" cy="50.71561436990811" r="2" fill="rgb(0,255,0)"/><circle cx="236.86868686868686" cy="50.525198602506464" r="2" fill="rgb(0,255,0)"/><circle cx="241.91919191919192" cy="50.525198602506464" r="2" fill="rgb(0,255,0)"/><circle cx="246.96969696969697" cy="50.42531551832752" r="2" fill="rgb(0,255,0)"/><circle cx="252.02020202020202" cy="50.39062065094856" r="2" fill="rgb(0,255,0)"/><circle cx="257.07070707070704" cy="50.47672336459743" r="2" fill="rgb(0,255,0)"/><circle cx="262.1212121212121" cy="50.47672336459743" r="2" fill="rgb(0,255,0)"/><circle cx="267.1717171717172" cy="50.456983264366045" r="2" fill="rgb(0,255,0)"/><circle cx="272.2222222222222" cy="50.399923941900795" r="2" fill="rgb(0,255,0)"/><circle cx="277.27272727272725" cy="50.319222003236064" r="2" fill="rgb(0,255,0)"/><circle cx="282.32323232323233" cy="50.35075873196797" r="2" fill="rgb(0,255,0)"/><circle cx="287.3737373737374" cy="50.404321051739146" r="2" fill="rgb(0,255,0)"/><circle cx="292.42424242424244" cy="50.270735977533036" r="2" fill="rgb(0,255,0)"/><circle cx="297.47474747474746" cy="50.270735977533036" r="2" fill="rgb(0,255,0)"/><circle cx="302.52525252525254" cy="50.14082039384175" r="2" fill="rgb(0,255,0)"/><circle cx="307.57575757575756" cy="50.15554020840432" r="2" fill="rgb(0,255,0)"/><circle cx="312.62626262626264" cy="50.10287799577742" r="2" fill="rgb(0,255,0)"/><circle cx="317.67676767676767" cy="50.1541548247406" r="2" fill="rgb(0,255,0)"/><circle cx="322.7272727272727" cy="50.13441472450933" r="2" fill="rgb(0,255,0)"/><circle cx="327.77777777777777" cy="50.13580010817293" r="2" fill="rgb(0,255,0)"/><circle cx="332.8282828282828" cy="50.08313789554603" r="2" fill="rgb(0,255,0)"/><circle cx="337.8787878787879" cy="50.10095153886488" r="2" fill="rgb(0,255,0)"/><circle cx="342.92929292929296" cy="50.08313789554603" r="2" fill="rgb(0,255,0)"/><circle cx="347.979797979798" cy="50.08313789554603" r="2" fill="rgb(0,255,0)"/><circle cx="353.03030303030306" cy="50.10287799577742" r="2" fill="rgb(0,255,0)"/><circle cx="358.0808080808081" cy="50.08238580847831" r="2" fill="rgb(0,255,0)"/><circle cx="363.13131313131316" cy="50.05535978510284" r="2" fill="rgb(0,255,0)"/><circle cx="368.1818181818182" cy="50.062645708246976" r="2" fill="rgb(0,255,0)"/><circle cx="373.23232323232327" cy="50.062645708246976" r="2" fill="rgb(0,255,0)"/><circle cx="378.2828282828283" cy="50.062645708246976" r="2" fill="rgb(0,255,0)"/><circle cx="383.3333333333333" cy="50.10287799577742" r="2" fill="rgb(0,255,0)"/><circle cx="388.3838383838384" cy="50.08238580847831" r="2" fill="rgb(0,255,0)"/><circle cx="393.4343434343434" cy="50.10287799577742" r="2" fill="rgb(0,255,0)"/><circle cx="398.4848484848485" cy="50.10287799577742" r="2" fill="rgb(0,255,0)"/><circle cx="403.5353535353535" cy="50.062645708246976" r="2" fill="rgb(0,255,0)"/><circle cx="408.58585858585855" cy="50.062645708246976" r="2" fill="rgb(0,255,0)"/><circle cx="413.6363636363636" cy="50.08238580847831" r="2" fill="rgb(0,255,0)"/><circle cx="418.68686868686865" cy="50.095388214287595" r="2" fill="rgb(0,255,0)"/><circle cx="423.73737373737373" cy="50.08238580847831" r="2" fill="rgb(0,255,0)"/><circle cx="428.7878787878788" cy="50.082357994218455" r="2" fill="rgb(0,255,0)"/><circle cx="433.83838383838383" cy="50.08238580847831" r="2" fill="rgb(0,255,0)"/><circle cx="438.8888888888889" cy="50.02972359585141" r="2" fill="rgb(0,255,0)"/><circle cx="443.93939393939394" cy="50.08238580847831" r="2" fill="rgb(0,255,0)"/><circle cx="448.989898989899" cy="50.08051831018889" r="2" fill="rgb(0,255,0)"/><circle cx="454.04040404040404" cy="50.04061975891034" r="2" fill="rgb(0,255,0)"/><circle cx="459.0909090909091" cy="50.04061975891034" r="2" fill="rgb(0,255,0)"/><circle cx="464.14141414141415" cy="50.05843340222924" r="2" fill="rgb(0,255,0)"/><circle cx="469.19191919191917" cy="50.04061975891034" r="2" fill="rgb(0,255,0)"/><circle cx="474.24242424242425" cy="50.04061975891034" r="2" fill="rgb(0,255,0)"/><circle cx="479.2929292929293" cy="50.04061975891034" r="2" fill="rgb(0,255,0)"/><circle cx="484.34343434343435" cy="50.04061975891034" r="2" fill="rgb(0,255,0)"/><circle cx="489.3939393939394" cy="50.0" r="2" fill="rgb(0,255,0)"/><circle cx="494.4444444444444" cy="50.0" r="2" fill="rgb(0,255,0)"/><circle cx="499.4949494949495" cy="50.02032646607603" r="2" fill="rgb(0,255,0)"/><circle cx="504.5454545454545" cy="50.04003875204751" r="2" fill="rgb(0,255,0)"/><circle cx="509.59595959595964" cy="50.02032646607603" r="2" fill="rgb(0,255,0)"/><circle cx="514.6464646464647" cy="50.02032646607603" r="2" fill="rgb(0,255,0)"/><circle cx="519.6969696969697" cy="50.08238580847831" r="2" fill="rgb(0,255,0)"/><circle cx="524.7474747474748" cy="50.08009479637212" r="2" fill="rgb(0,255,0)"/><circle cx="529.7979797979798" cy="50.08009479637212" r="2" fill="rgb(0,255,0)"/><circle cx="534.8484848484849" cy="50.08238580847831" r="2" fill="rgb(0,255,0)"/><circle cx="539.8989898989898" cy="50.08238580847831" r="2" fill="rgb(0,255,0)"/><circle cx="544.9494949494949" cy="50.08009479637212" r="2" fill="rgb(0,255,0)"/><circle cx="550.0" cy="50.08009479637212" r="2" fill="rgb(0,255,0)"/><text x="350.0" y="20.0" text-anchor="middle" fill="rgb(0,0,0)" font-size="20.0">GA Demo</text><text x="350.0" y="575.0" text-anchor="middle" fill="rgb(0,0,0)" font-size="12.0">generation</text><text transform="rotate(-90.0 20.0 300.0)" x="20.0" y="300.0" text-anchor="middle" fill="rgb(0,0,0)" font-size="12.0">fitness</text><text x="620" y="62" fill="rgb(0,0,0)" font-size="12">min</text><text x="620" y="74" fill="rgb(0,0,255)" font-size="12">ave</text><text x="620" y="86" fill="rgb(0,255,0)" font-size="12">max</text>
      Sorry, your browser does not support inline SVG.
    </svg>