<?xml version='1.0' encoding='UTF-8'?>
<svg version="1.1" width="700.0" height="600.0" onload="init(evt)" xmlns="http://www.w3.org/2000/svg">
      <style>.caption {
  font-size: 14px;
  font-family: Georgia, serif;
}
</style>
      <script type="text/ecmascript"><![CDATA[
function init(evt) {
  if ( window.svgDocument == null ) {
    svgDocument = evt.target.ownerDocument;
  }
}

function RectHover(evt, i, c) {
  rect = svgDocument.getElementById('rect' + i);
  if( c != null ) {
    rect.setAttributeNS(null, "fill", c)  
  }
  tooltiptext = svgDocument.getElementById('tooltiptext' + i);
  tooltipbg = svgDocument.getElementById('tooltipbg' + i);
  if( tooltipbg != null) {
    tbb = tooltiptext.getBBox();
    tooltipbg.setAttributeNS(null, "width", tbb.width);
    tooltipbg.setAttributeNS(null, "height", tbb.height);
    tooltipbg.setAttributeNS(null, "x", tbb.x);
    tooltipbg.setAttributeNS(null, "y", tbb.y);
    tooltipbg.setAttributeNS(null, "visibility", "visible");
  }
  tooltiptext.setAttributeNS(null,"visibility","visible");
}

function RectUnhover(evt, i, c) {
  rect = svgDocument.getElementById('rect' + i);
  if( c != null ) {
    rect.setAttributeNS(null, "fill", c)  
  }
  tooltiptext = svgDocument.getElementById('tooltiptext' + i);
  tooltiptext.setAttributeNS(null,"visibility","hidden");
  tooltipbg = svgDocument.getElementById('tooltipbg' + i);
  if( tooltipbg != null ) {
    tooltipbg.setAttributeNS(null,"visibility","hidden");
  }
}
]]></script>
      <line x1="50.0" y1="550.0" x2="550.0" y2="550.0" stroke="rgb(0,0,0)" stroke-width="1"/><line x1="50.0" y1="550.0" x2="50.0" y2="50.0" stroke="rgb(0,0,0)" stroke-width="1"/><line x1="50.0" y1="550.0" x2="50.0" y2="50.0" stroke="rgb(192,192,192)" stroke-width="1"/><line x1="50.0" y1="548.0" x2="50.0" y2="552.0" stroke="rgb(192,192,192)" stroke-width="1"/><text text-anchor="middle" alignment-baseline="hanging" x="50.0" y="553.0" font-size="12.0">0</text><line x1="100.5050505050505" y1="550.0" x2="100.5050505050505" y2="50.0" stroke="rgb(192,192,192)" stroke-width="1"/><line x1="100.5050505050505" y1="548.0" x2="100.5050505050505" y2="552.0" stroke="rgb(192,192,192)" stroke-width="1"/><text text-anchor="middle" alignment-baseline="hanging" x="100.5050505050505" y="553.0" font-size="12.0">10</text><line x1="151.010101010101" y1="550.0" x2="151.010101010101" y2="50.0" stroke="rgb(192,192,192)" stroke-width="1"/><line x1="151.010101010101" y1="548.0" x2="151.010101010101" y2="552.0" stroke="rgb(192,192,192)" stroke-width="1"/><text text-anchor="middle" alignment-baseline="hanging" x="151.010101010101" y="553.0" font-size="12.0">20</text><line x1="201.51515151515153" y1="550.0" x2="201.51515151515153" y2="50.0" stroke="rgb(192,192,192)" stroke-width="1"/><line x1="201.51515151515153" y1="548.0" x2="201.51515151515153" y2="552.0" stroke="rgb(192,192,192)" stroke-width="1"/><text text-anchor="middle" alignment-baseline="hanging" x="201.51515151515153" y="553.0" font-size="12.0">30</text><line x1="252.02020202020202" y1="550.0" x2="252.02020202020202" y2="50.0" stroke="rgb(192,192,192)" stroke-width="1"/><line x1="252.02020202020202" y1="548.0" x2="252.02020202020202" y2="552.0" stroke="rgb(192,192,192)" stroke-width="1"/><text text-anchor="middle" alignment-baseline="hanging" x="252.02020202020202" y="553.0" font-size="12.0">40</text><line x1="302.52525252525254" y1="550.0" x2="302.52525252525254" y2="50.0" stroke="rgb(192,192,192)" stroke-width="1"/><line x1="302.52525252525254" y1="548.0" x2="302.52525252525254" y2="552.0" stroke="rgb(192,192,192)" stroke-width="1"/><text text-anchor="middle" alignment-baseline="hanging" x="302.52525252525254" y="553.0" font-size="12.0">50</text><line x1="353.03030303030306" y1="550.0" x2="353.03030303030306" y2="50.0" stroke="rgb(192,192,192)" stroke-width="1"/><line x1="353.03030303030306" y1="548.0" x2="353.03030303030306" y2="552.0" stroke="rgb(192,192,192)" stroke-width="1"/><text text-anchor="middle" alignment-baseline="hanging" x="353.03030303030306" y="553.0" font-size="12.0">60</text><line x1="403.5353535353535" y1="550.0" x2="403.5353535353535" y2="50.0" stroke="rgb(192,192,192)" stroke-width="1"/><line x1="403.5353535353535" y1="548.0" x2="403.5353535353535" y2="552.0" stroke="rgb(192,192,192)" stroke-width="1"/><text text-anchor="middle" alignment-baseline="hanging" x="403.5353535353535" y="553.0" font-size="12.0">70</text><line x1="454.04040404040404" y1="550.0" x2="454.04040404040404" y2="50.0" stroke="rgb(192,192,192)" stroke-width="1"/><line x1="454.04040404040404" y1="548.0" x2="454.04040404040404" y2="552.0" stroke="rgb(192,192,192)" stroke-width="1"/><text text-anchor="middle" alignment-baseline="hanging" x="454.04040404040404" y="553.0" font-size="12.0">80</text><line x1="504.5454545454545" y1="550.0" x2="504.5454545454545" y2="50.0" stroke="rgb(192,192,192)" stroke-width="1"/><line x1="504.5454545454545" y1="548.0" x2="504.5454545454545" y2="552.0" stroke="rgb(192,192,192)" stroke-width="1"/><text text-anchor="middle" alignment-baseline="hanging" x="504.5454545454545" y="553.0" font-size="12.0">90</text><line x1="50.0" y1="550.0" x2="550.0" y2="550.0" stroke="rgb(192,192,192)" stroke-width="1"/><text text-anchor="end" alignment-baseline="middle" x="45.0" y="550.0" font-size="12.0">0.0</text><line x1="48.0" y1="550.0" x2="52.0" y2="550.0" stroke="rgb(192,192,192)" stroke-width="1"/><line x1="50.0" y1="367.87211362849615" x2="550.0" y2="367.87211362849615" stroke="rgb(192,192,192)" stroke-width="1"/><text text-anchor="end" alignment-baseline="middle" x="45.0" y="367.87211362849615" font-size="12.0">1000.0</text><line x1="48.0" y1="367.87211362849615" x2="52.0" y2="367.87211362849615" stroke="rgb(192,192,192)" stroke-width="1"/><line x1="50.0" y1="185.7442272569923" x2="550.0" y2="185.7442272569923" stroke="rgb(192,192,192)" stroke-width="1"/><text text-anchor="end" alignment-baseline="middle" x="45.0" y="185.7442272569923" font-size="12.0">2000.0</text><line x1="48.0" y1="185.7442272569923" x2="52.0" y2="185.7442272569923" stroke="rgb(192,192,192)" stroke-width="1"/><polyline points="50.0,417.8475324093398 55.05050505050505,417.9984392920128 60.101010101010104,418.6864887325933 65.15151515151516,399.50366643193183 70.20202020202021,405.139130324861 75.25252525252526,407.2077472310101 80.30303030303031,339.00404391782547 85.35353535353535,339.3996422739757 90.40404040404042,417.010074220349 95.45454545454545,419.362291322745 100.5050505050505,411.1965373000549 105.55555555555554,430.3600572663751 110.60606060606061,411.5250873129832 115.65656565656566,419.43222660692084 120.7070707070707,420.2636364457775 125.75757575757576,399.8060436732679 130.80808080808083,400.6538808207048 135.85858585858585,365.12498487703203 140.9090909090909,364.53970326674755 145.95959595959596,363.97370365453804 151.010101010101,405.62277120791816 156.06060606060606,354.4484131303493 161.1111111111111,365.42350560344073 166.16161616161617,273.4888932416578 171.21212121212122,346.5656384317182 176.26262626262627,377.68137095111365 181.31313131313132,376.61901239190183 186.36363636363635,91.32111366222722 191.4141414141414,378.07423426565947 196.46464646464648,378.96072796094876 201.51515151515153,378.9879869665899 206.56565656565658,378.3046681270037 211.61616161616163,364.1479249053718 216.66666666666666,411.3143450153291 221.7171717171717,409.2407609398946 226.76767676767676,308.109668122724 231.8181818181818,193.41475148009295 236.86868686868686,374.29044505194395 241.91919191919192,411.501380658629 246.96969696969697,411.100970326928 252.02020202020202,410.5078192203804 257.07070707070704,411.05478486540767 262.1212121212121,410.5159449779703 267.1717171717172,409.8798279720605 272.2222222222222,410.6790076414078 277.27272727272725,410.34526634984695 282.32323232323233,337.0300779544465 287.3737373737374,414.2210940666205 292.42424242424244,413.67597121529377 297.47474747474746,371.18083006192114 302.52525252525254,377.95525780275034 307.57575757575756,393.6597826741805 312.62626262626264,360.0638442082531 317.67676767676767,360.02944493237885 322.7272727272727,401.28278236732405 327.77777777777777,387.4971543878744 332.8282828282828,333.45789514567804 337.8787878787879,313.77340097908456 342.92929292929296,336.9649163907992 347.979797979798,296.5984244946782 353.03030303030306,321.351979755696 358.0808080808081,250.02648970238835 363.13131313131316,392.51558401695206 368.1818181818182,296.6153571527731 373.23232323232327,356.47651286958126 378.2828282828283,342.589905778346 383.3333333333333,237.67947034043533 388.3838383838384,304.11667924862127 393.4343434343434,238.10372603686085 398.4848484848485,412.2017907974539 403.5353535353535,291.41964747270714 408.58585858585855,409.56752477878604 413.6363636363636,372.16108268054603 418.68686868686865,230.74129625453338 423.73737373737373,403.2834513541171 428.7878787878788,362.3519952859057 433.83838383838383,352.4023026948626 438.8888888888889,378.8307389964995 443.93939393939394,354.08713989921506 448.989898989899,354.08713989921506 454.04040404040404,304.7278684570378 459.0909090909091,304.3764359439675 464.14141414141415,351.9697333599528 469.19191919191917,217.55754933499804 474.24242424242425,274.0893396396235 479.2929292929293,343.30781770316116 484.34343434343435,164.37197576617558 489.3939393939394,301.54751379427796 494.4444444444444,302.69681117716925 499.4949494949495,302.69068164548366 504.5454545454545,340.05571760544893 509.59595959595964,339.61698975885287 514.6464646464647,360.27410269486245 519.6969696969697,340.80327473241005 524.7474747474748,407.3925658482384 529.7979797979798,407.49516615749735 534.8484848484849,407.49516615749735 539.8989898989898,317.68045671865855 544.9494949494949,213.08872109955456 550.0,387.8045100183482" fill="none" stroke="rgb(0,0,0)" stroke-width="1"/><circle cx="50.0" cy="417.8475324093398" r="2" fill="rgb(0,0,0)"/><circle cx="55.05050505050505" cy="417.9984392920128" r="2" fill="rgb(0,0,0)"/><circle cx="60.101010101010104" cy="418.6864887325933" r="2" fill="rgb(0,0,0)"/><circle cx="65.15151515151516" cy="399.50366643193183" r="2" fill="rgb(0,0,0)"/><circle cx="70.20202020202021" cy="405.139130324861" r="2" fill="rgb(0,0,0)"/><circle cx="75.25252525252526" cy="407.2077472310101" r="2" fill="rgb(0,0,0)"/><circle cx="80.30303030303031" cy="339.00404391782547" r="2" fill="rgb(0,0,0)"/><circle cx="85.35353535353535" cy="339.3996422739757" r="2" fill="rgb(0,0,0)"/><circle cx="90.40404040404042" cy="417.010074220349" r="2" fill="rgb(0,0,0)"/><circle cx="95.45454545454545" cy="419.362291322745" r="2" fill="rgb(0,0,0)"/><circle cx="100.5050505050505" cy="411.1965373000549" r="2" fill="rgb(0,0,0)"/><circle cx="105.55555555555554" cy="430.3600572663751" r="2" fill="rgb(0,0,0)"/><circle cx="110.60606060606061" cy="411.5250873129832" r="2" fill="rgb(0,0,0)"/><circle cx="115.65656565656566" cy="419.43222660692084" r="2" fill="rgb(0,0,0)"/><circle cx="120.7070707070707" cy="420.2636364457775" r="2" fill="rgb(0,0,0)"/><circle cx="125.75757575757576" cy="399.8060436732679" r="2" fill="rgb(0,0,0)"/><circle cx="130.80808080808083" cy="400.6538808207048" r="2" fill="rgb(0,0,0)"/><circle cx="135.85858585858585" cy="365.12498487703203" r="2" fill="rgb(0,0,0)"/><circle cx="140.9090909090909" cy="364.53970326674755" r="2" fill="rgb(0,0,0)"/><circle cx="145.95959595959596" cy="363.97370365453804" r="2" fill="rgb(0,0,0)"/><circle cx="151.010101010101" cy="405.62277120791816" r="2" fill="rgb(0,0,0)"/><circle cx="156.06060606060606" cy="354.4484131303493" r="2" fill="rgb(0,0,0)"/><circle cx="161.1111111111111" cy="365.42350560344073" r="2" fill="rgb(0,0,0)"/><circle cx="166.16161616161617" cy="273.4888932416578" r="2" fill="rgb(0,0,0)"/><circle cx="171.21212121212122" cy="346.5656384317182" r="2" fill="rgb(0,0,0)"/><circle cx="176.26262626262627" cy="377.68137095111365" r="2" fill="rgb(0,0,0)"/><circle cx="181.31313131313132" cy="376.61901239190183" r="2" fill="rgb(0,0,0)"/><circle cx="186.36363636363635" cy="91.32111366222722" r="2" fill="rgb(0,0,0)"/><circle cx="191.4141414141414" cy="378.07423426565947" r="2" fill="rgb(0,0,0)"/><circle cx="196.46464646464648" cy="378.96072796094876" r="2" fill="rgb(0,0,0)"/><circle cx="201.51515151515153" cy="378.9879869665899" r="2" fill="rgb(0,0,0)"/><circle cx="206.56565656565658" cy="378.3046681270037" r="2" fill="rgb(0,0,0)"/><circle cx="211.61616161616163" cy="364.1479249053718" r="2" fill="rgb(0,0,0)"/><circle cx="216.66666666666666" cy="411.3143450153291" r="2" fill="rgb(0,0,0)"/><circle cx="221.7171717171717" cy="409.2407609398946" r="2" fill="rgb(0,0,0)"/><circle cx="226.76767676767676" cy="308.109668122724" r="2" fill="rgb(0,0,0)"/><circle cx="231.8181818181818" cy="193.41475148009295" r="2" fill="rgb(0,0,0)"/><circle cx="236.86868686868686" cy="374.29044505194395" r="2" fill="rgb(0,0,0)"/><circle cx="241.91919191919192" cy="411.501380658629" r="2" fill="rgb(0,0,0)"/><circle cx="246.96969696969697" cy="411.100970326928" r="2" fill="rgb(0,0,0)"/><circle cx="252.02020202020202" cy="410.5078192203804" r="2" fill="rgb(0,0,0)"/><circle cx="257.07070707070704" cy="411.05478486540767" r="2" fill="rgb(0,0,0)"/><circle cx="262.1212121212121" cy="410.5159449779703" r="2" fill="rgb(0,0,0)"/><circle cx="267.1717171717172" cy="409.8798279720605" r="2" fill="rgb(0,0,0)"/><circle cx="272.2222222222222" cy="410.6790076414078" r="2" fill="rgb(0,0,0)"/><circle cx="277.27272727272725" cy="410.34526634984695" r="2" fill="rgb(0,0,0)"/><circle cx="282.32323232323233" cy="337.0300779544465" r="2" fill="rgb(0,0,0)"/><circle cx="287.3737373737374" cy="414.2210940666205" r="2" fill="rgb(0,0,0)"/><circle cx="292.42424242424244" cy="413.67597121529377" r="2" fill="rgb(0,0,0)"/><circle cx="297.47474747474746" cy="371.18083006192114" r="2" fill="rgb(0,0,0)"/><circle cx="302.52525252525254" cy="377.95525780275034" r="2" fill="rgb(0,0,0)"/><circle cx="307.57575757575756" cy="393.6597826741805" r="2" fill="rgb(0,0,0)"/><circle cx="312.62626262626264" cy="360.0638442082531" r="2" fill="rgb(0,0,0)"/><circle cx="317.67676767676767" cy="360.02944493237885" r="2" fill="rgb(0,0,0)"/><circle cx="322.7272727272727" cy="401.28278236732405" r="2" fill="rgb(0,0,0)"/><circle cx="327.77777777777777" cy="387.4971543878744" r="2" fill="rgb(0,0,0)"/><circle cx="332.8282828282828" cy="333.45789514567804" r="2" fill="rgb(0,0,0)"/><circle cx="337.8787878787879" cy="313.77340097908456" r="2" fill="rgb(0,0,0)"/><circle cx="342.92929292929296" cy="336.9649163907992" r="2" fill="rgb(0,0,0)"/><circle cx="347.979797979798" cy="296.5984244946782" r="2" fill="rgb(0,0,0)"/><circle cx="353.03030303030306" cy="321.351979755696" r="2" fill="rgb(0,0,0)"/><circle cx="358.0808080808081" cy="250.02648970238835" r="2" fill="rgb(0,0,0)"/><circle cx="363.13131313131316" cy="392.51558401695206" r="2" fill="rgb(0,0,0)"/><circle cx="368.1818181818182" cy="296.6153571527731" r="2" fill="rgb(0,0,0)"/><circle cx="373.23232323232327" cy="356.47651286958126" r="2" fill="rgb(0,0,0)"/><circle cx="378.2828282828283" cy="342.589905778346" r="2" fill="rgb(0,0,0)"/><circle cx="383.3333333333333" cy="237.67947034043533" r="2" fill="rgb(0,0,0)"/><circle cx="388.3838383838384" cy="304.11667924862127" r="2" fill="rgb(0,0,0)"/><circle cx="393.4343434343434" cy="238.10372603686085" r="2" fill="rgb(0,0,0)"/><circle cx="398.4848484848485" cy="412.2017907974539" r="2" fill="rgb(0,0,0)"/><circle cx="403.5353535353535" cy="291.41964747270714" r="2" fill="rgb(0,0,0)"/><circle cx="408.58585858585855" cy="409.56752477878604" r="2" fill="rgb(0,0,0)"/><circle cx="413.6363636363636" cy="372.16108268054603" r="2" fill="rgb(0,0,0)"/><circle cx="418.68686868686865" cy="230.74129625453338" r="2" fill="rgb(0,0,0)"/><circle cx="423.73737373737373" cy="403.2834513541171" r="2" fill="rgb(0,0,0)"/><circle cx="428.7878787878788" cy="362.3519952859057" r="2" fill="rgb(0,0,0)"/><circle cx="433.83838383838383" cy="352.4023026948626" r="2" fill="rgb(0,0,0)"/><circle cx="438.8888888888889" cy="378.8307389964995" r="2" fill="rgb(0,0,0)"/><circle cx="443.93939393939394" cy="354.08713989921506" r="2" fill="rgb(0,0,0)"/><circle cx="448.989898989899" cy="354.08713989921506" r="2" fill="rgb(0,0,0)"/><circle cx="454.04040404040404" cy="304.7278684570378" r="2" fill="rgb(0,0,0)"/><circle cx="459.0909090909091" cy="304.3764359439675" r="2" fill="rgb(0,0,0)"/><circle cx="464.14141414141415" cy="351.9697333599528" r="2" fill="rgb(0,0,0)"/><circle cx="469.19191919191917" cy="217.55754933499804" r="2" fill="rgb(0,0,0)"/><circle cx="474.24242424242425" cy="274.0893396396235" r="2" fill="rgb(0,0,0)"/><circle cx="479.2929292929293" cy="343.30781770316116" r="2" fill="rgb(0,0,0)"/><circle cx="484.34343434343435" cy="164.37197576617558" r="2" fill="rgb(0,0,0)"/><circle cx="489.3939393939394" cy="301.54751379427796" r="2" fill="rgb(0,0,0)"/><circle cx="494.4444444444444" cy="302.69681117716925" r="2" fill="rgb(0,0,0)"/><circle cx="499.4949494949495" cy="302.69068164548366" r="2" fill="rgb(0,0,0)"/><circle cx="504.5454545454545" cy="340.05571760544893" r="2" fill="rgb(0,0,0)"/><circle cx="509.59595959595964" cy="339.61698975885287" r="2" fill="rgb(0,0,0)"/><circle cx="514.6464646464647" cy="360.27410269486245" r="2" fill="rgb(0,0,0)"/><circle cx="519.6969696969697" cy="340.80327473241005" r="2" fill="rgb(0,0,0)"/><circle cx="524.7474747474748" cy="407.3925658482384" r="2" fill="rgb(0,0,0)"/><circle cx="529.7979797979798" cy="407.49516615749735" r="2" fill="rgb(0,0,0)"/><circle cx="534.8484848484849" cy="407.49516615749735" r="2" fill="rgb(0,0,0)"/><circle cx="539.8989898989898" cy="317.68045671865855" r="2" fill="rgb(0,0,0)"/><circle cx="544.9494949494949" cy="213.08872109955456" r="2" fill="rgb(0,0,0)"/><circle cx="550.0" cy="387.8045100183482" r="2" fill="rgb(0,0,0)"/><polyline points="50.0,225.45115429737126 55.05050505050505,191.17490103891453 60.101010101010104,154.31855397967365 65.15151515151516,127.36813428002614 70.20202020202021,112.75698498473247 75.25252525252526,101.86981645291405 80.30303030303031,101.81890533483784 85.35353535353535,91.90882991861821 90.40404040404042,95.05179824843708 95.45454545454545,81.82474152937414 100.5050505050505,83.45777291012837 105.55555555555554,91.4884369237929 110.60606060606061,92.1469158180895 115.65656565656566,82.5282951624589 120.7070707070707,79.354528588378 125.75757575757576,79.90441168964458 130.80808080808083,72.8764252509975 135.85858585858585,66.10185997673716 140.9090909090909,68.78626125832619 145.95959595959596,68.05373706005298 151.010101010101,70.2569217136816 156.06060606060606,65.51486024379437 161.1111111111111,65.00982067162005 166.16161616161617,65.53949518997752 171.21212121212122,70.1939235669683 176.26262626262627,65.8001926297822 181.31313131313132,66.12028364692992 186.36363636363635,58.93379555753921 191.4141414141414,65.5876120195905 196.46464646464648,66.26773473830997 201.51515151515153,68.7968396683209 206.56565656565658,67.16511788243605 211.61616161616163,59.13592216364566 216.66666666666666,72.13702321366549 221.7171717171717,65.9137621886947 226.76767676767676,59.91501466420169 231.8181818181818,56.1486518241702 236.86868686868686,61.66485218996979 241.91919191919192,56.44035114316614 246.96969696969697,65.89204275097552 252.02020202020202,72.75592494385756 257.07070707070704,69.6973818073422 262.1212121212121,63.26618164264727 267.1717171717172,65.77819438278982 272.2222222222222,59.42233291425168 277.27272727272725,67.5732170186746 282.32323232323233,72.30108108626854 287.3737373737374,78.91665100407045 292.42424242424244,74.14786409268407 297.47474747474746,67.53956850586542 302.52525252525254,63.15456861270741 307.57575757575756,67.31362124521576 312.62626262626264,59.33179938445534 317.67676767676767,58.20140019274993 322.7272727272727,62.30453993357952 327.77777777777777,66.25606552922505 332.8282828282828,69.68747351119197 337.8787878787879,55.97837654674413 342.92929292929296,57.94322570332639 347.979797979798,55.73610268422135 353.03030303030306,61.697485555530704 358.0808080808081,53.10421659403369 363.13131313131316,57.12192204604531 368.1818181818182,57.649490814543185 373.23232323232327,58.23319970861462 378.2828282828283,61.091896183146844 383.3333333333333,55.29249272313609 388.3838383838384,55.15611160330627 393.4343434343434,55.85555930028738 398.4848484848485,68.98334884345229 403.5353535353535,65.53353339250225 408.58585858585855,71.36105283483187 413.6363636363636,64.42580168781689 418.68686868686865,56.749057692512 423.73737373737373,57.10231313727735 428.7878787878788,57.83306972136347 433.83838383838383,57.33676231584673 438.8888888888889,63.09977362283183 443.93939393939394,64.89512831302477 448.989898989899,70.92795856471975 454.04040404040404,57.365732650637824 459.0909090909091,53.57466060335827 464.14141414141415,54.44935211988411 469.19191919191917,56.337942166457424 474.24242424242425,59.155889345515675 479.2929292929293,58.89262248519486 484.34343434343435,52.75785899888365 489.3939393939394,58.22682316198285 494.4444444444444,59.52885804705875 499.4949494949495,60.052108421413436 504.5454545454545,66.74423838719332 509.59595959595964,65.6046441611316 514.6464646464647,64.3456260506054 519.6969696969697,64.93015131557456 524.7474747474748,64.4775812999298 529.7979797979798,65.32287739050957 534.8484848484849,64.5809527793491 539.8989898989898,62.606977924486955 544.9494949494949,57.10838116309253 550.0,60.244092500446186" fill="none" stroke="rgb(0,0,255)" stroke-width="1"/><circle cx="50.0" cy="225.45115429737126" r="2" fill="rgb(0,0,255)"/><circle cx="55.05050505050505" cy="191.17490103891453" r="2" fill="rgb(0,0,255)"/><circle cx="60.101010101010104" cy="154.31855397967365" r="2" fill="rgb(0,0,255)"/><circle cx="65.15151515151516" cy="127.36813428002614" r="2" fill="rgb(0,0,255)"/><circle cx="70.20202020202021" cy="112.75698498473247" r="2" fill="rgb(0,0,255)"/><circle cx="75.25252525252526" cy="101.86981645291405" r="2" fill="rgb(0,0,255)"/><circle cx="80.30303030303031" cy="101.81890533483784" r="2" fill="rgb(0,0,255)"/><circle cx="85.35353535353535" cy="91.90882991861821" r="2" fill="rgb(0,0,255)"/><circle cx="90.40404040404042" cy="95.05179824843708" r="2" fill="rgb(0,0,255)"/><circle cx="95.45454545454545" cy="81.82474152937414" r="2" fill="rgb(0,0,255)"/><circle cx="100.5050505050505" cy="83.45777291012837" r="2" fill="rgb(0,0,255)"/><circle cx="105.55555555555554" cy="91.4884369237929" r="2" fill="rgb(0,0,255)"/><circle cx="110.60606060606061" cy="92.1469158180895" r="2" fill="rgb(0,0,255)"/><circle cx="115.65656565656566" cy="82.5282951624589" r="2" fill="rgb(0,0,255)"/><circle cx="120.7070707070707" cy="79.354528588378" r="2" fill="rgb(0,0,255)"/><circle cx="125.75757575757576" cy="79.90441168964458" r="2" fill="rgb(0,0,255)"/><circle cx="130.80808080808083" cy="72.8764252509975" r="2" fill="rgb(0,0,255)"/><circle cx="135.85858585858585" cy="66.10185997673716" r="2" fill="rgb(0,0,255)"/><circle cx="140.9090909090909" cy="68.78626125832619" r="2" fill="rgb(0,0,255)"/><circle cx="145.95959595959596" cy="68.05373706005298" r="2" fill="rgb(0,0,255)"/><circle cx="151.010101010101" cy="70.2569217136816" r="2" fill="rgb(0,0,255)"/><circle cx="156.06060606060606" cy="65.51486024379437" r="2" fill="rgb(0,0,255)"/><circle cx="161.1111111111111" cy="65.00982067162005" r="2" fill="rgb(0,0,255)"/><circle cx="166.16161616161617" cy="65.53949518997752" r="2" fill="rgb(0,0,255)"/><circle cx="171.21212121212122" cy="70.1939235669683" r="2" fill="rgb(0,0,255)"/><circle cx="176.26262626262627" cy="65.8001926297822" r="2" fill="rgb(0,0,255)"/><circle cx="181.31313131313132" cy="66.12028364692992" r="2" fill="rgb(0,0,255)"/><circle cx="186.36363636363635" cy="58.93379555753921" r="2" fill="rgb(0,0,255)"/><circle cx="191.4141414141414" cy="65.5876120195905" r="2" fill="rgb(0,0,255)"/><circle cx="196.46464646464648" cy="66.26773473830997" r="2" fill="rgb(0,0,255)"/><circle cx="201.51515151515153" cy="68.7968396683209" r="2" fill="rgb(0,0,255)"/><circle cx="206.56565656565658" cy="67.16511788243605" r="2" fill="rgb(0,0,255)"/><circle cx="211.61616161616163" cy="59.13592216364566" r="2" fill="rgb(0,0,255)"/><circle cx="216.66666666666666" cy="72.13702321366549" r="2" fill="rgb(0,0,255)"/><circle cx="221.7171717171717" cy="65.9137621886947" r="2" fill="rgb(0,0,255)"/><circle cx="226.76767676767676" cy="59.91501466420169" r="2" fill="rgb(0,0,255)"/><circle cx="231.8181818181818" cy="56.1486518241702" r="2" fill="rgb(0,0,255)"/><circle cx="236.86868686868686" cy="61.66485218996979" r="2" fill="rgb(0,0,255)"/><circle cx="241.91919191919192" cy="56.44035114316614" r="2" fill="rgb(0,0,255)"/><circle cx="246.96969696969697" cy="65.89204275097552" r="2" fill="rgb(0,0,255)"/><circle cx="252.02020202020202" cy="72.75592494385756" r="2" fill="rgb(0,0,255)"/><circle cx="257.07070707070704" cy="69.6973818073422" r="2" fill="rgb(0,0,255)"/><circle cx="262.1212121212121" cy="63.26618164264727" r="2" fill="rgb(0,0,255)"/><circle cx="267.1717171717172" cy="65.77819438278982" r="2" fill="rgb(0,0,255)"/><circle cx="272.2222222222222" cy="59.42233291425168" r="2" fill="rgb(0,0,255)"/><circle cx="277.27272727272725" cy="67.5732170186746" r="2" fill="rgb(0,0,255)"/><circle cx="282.32323232323233" cy="72.30108108626854" r="2" fill="rgb(0,0,255)"/><circle cx="287.3737373737374" cy="78.91665100407045" r="2" fill="rgb(0,0,255)"/><circle cx="292.42424242424244" cy="74.14786409268407" r="2" fill="rgb(0,0,255)"/><circle cx="297.47474747474746" cy="67.53956850586542" r="2" fill="rgb(0,0,255)"/><circle cx="302.52525252525254" cy="63.15456861270741" r="2" fill="rgb(0,0,255)"/><circle cx="307.57575757575756" cy="67.31362124521576" r="2" fill="rgb(0,0,255)"/><circle cx="312.62626262626264" cy="59.33179938445534" r="2" fill="rgb(0,0,255)"/><circle cx="317.67676767676767" cy="58.20140019274993" r="2" fill="rgb(0,0,255)"/><circle cx="322.7272727272727" cy="62.30453993357952" r="2" fill="rgb(0,0,255)"/><circle cx="327.77777777777777" cy="66.25606552922505" r="2" fill="rgb(0,0,255)"/><circle cx="332.8282828282828" cy="69.68747351119197" r="2" fill="rgb(0,0,255)"/><circle cx="337.8787878787879" cy="55.97837654674413" r="2" fill="rgb(0,0,255)"/><circle cx="342.92929292929296" cy="57.94322570332639" r="2" fill="rgb(0,0,255)"/><circle cx="347.979797979798" cy="55.73610268422135" r="2" fill="rgb(0,0,255)"/><circle cx="353.03030303030306" cy="61.697485555530704" r="2" fill="rgb(0,0,255)"/><circle cx="358.0808080808081" cy="53.10421659403369" r="2" fill="rgb(0,0,255)"/><circle cx="363.13131313131316" cy="57.12192204604531" r="2" fill="rgb(0,0,255)"/><circle cx="368.1818181818182" cy="57.649490814543185" r="2" fill="rgb(0,0,255)"/><circle cx="373.23232323232327" cy="58.23319970861462" r="2" fill="rgb(0,0,255)"/><circle cx="378.2828282828283" cy="61.091896183146844" r="2" fill="rgb(0,0,255)"/><circle cx="383.3333333333333" cy="55.29249272313609" r="2" fill="rgb(0,0,255)"/><circle cx="388.3838383838384" cy="55.15611160330627" r="2" fill="rgb(0,0,255)"/><circle cx="393.4343434343434" cy="55.85555930028738" r="2" fill="rgb(0,0,255)"/><circle cx="398.4848484848485" cy="68.98334884345229" r="2" fill="rgb(0,0,255)"/><circle cx="403.5353535353535" cy="65.53353339250225" r="2" fill="rgb(0,0,255)"/><circle cx="408.58585858585855" cy="71.36105283483187" r="2" fill="rgb(0,0,255)"/><circle cx="413.6363636363636" cy="64.42580168781689" r="2" fill="rgb(0,0,255)"/><circle cx="418.68686868686865" cy="56.749057692512" r="2" fill="rgb(0,0,255)"/><circle cx="423.73737373737373" cy="57.10231313727735" r="2" fill="rgb(0,0,255)"/><circle cx="428.7878787878788" cy="57.83306972136347" r="2" fill="rgb(0,0,255)"/><circle cx="433.83838383838383" cy="57.33676231584673" r="2" fill="rgb(0,0,255)"/><circle cx="438.8888888888889" cy="63.09977362283183" r="2" fill="rgb(0,0,255)"/><circle cx="443.93939393939394" cy="64.89512831302477" r="2" fill="rgb(0,0,255)"/><circle cx="448.989898989899" cy="70.92795856471975" r="2" fill="rgb(0,0,255)"/><circle cx="454.04040404040404" cy="57.365732650637824" r="2" fill="rgb(0,0,255)"/><circle cx="459.0909090909091" cy="53.57466060335827" r="2" fill="rgb(0,0,255)"/><circle cx="464.14141414141415" cy="54.44935211988411" r="2" fill="rgb(0,0,255)"/><circle cx="469.19191919191917" cy="56.337942166457424" r="2" fill="rgb(0,0,255)"/><circle cx="474.24242424242425" cy="59.155889345515675" r="2" fill="rgb(0,0,255)"/><circle cx="479.2929292929293" cy="58.89262248519486" r="2" fill="rgb(0,0,255)"/><circle cx="484.34343434343435" cy="52.75785899888365" r="2" fill="rgb(0,0,255)"/><circle cx="489.3939393939394" cy="58.22682316198285" r="2" fill="rgb(0,0,255)"/><circle cx="494.4444444444444" cy="59.52885804705875" r="2" fill="rgb(0,0,255)"/><circle cx="499.4949494949495" cy="60.052108421413436" r="2" fill="rgb(0,0,255)"/><circle cx="504.5454545454545" cy="66.74423838719332" r="2" fill="rgb(0,0,255)"/><circle cx="509.59595959595964" cy="65.6046441611316" r="2" fill="rgb(0,0,255)"/><circle cx="514.6464646464647" cy="64.3456260506054" r="2" fill="rgb(0,0,255)"/><circle cx="519.6969696969697" cy="64.93015131557456" r="2" fill="rgb(0,0,255)"/><circle cx="524.7474747474748" cy="64.4775812999298" r="2" fill="rgb(0,0,255)"/><circle cx="529.7979797979798" cy="65.32287739050957" r="2" fill="rgb(0,0,255)"/><circle cx="534.8484848484849" cy="64.5809527793491" r="2" fill="rgb(0,0,255)"/><circle cx="539.8989898989898" cy="62.606977924486955" r="2" fill="rgb(0,0,255)"/><circle cx="544.9494949494949" cy="57.10838116309253" r="2" fill="rgb(0,0,255)"/><circle cx="550.0" cy="60.244092500446186" r="2" fill="rgb(0,0,255)"/><polyline points="50.0,68.91799845386709 55.05050505050505,62.40766786367419 60.101010101010104,60.57720390271936 65.15151515151516,60.57720390271936 70.20202020202021,60.374877185478 75.25252525252526,60.07701702424703 80.30303030303031,57.457724388805616 85.35353535353535,58.42263522227768 90.40404040404042,59.08482440498915 95.45454545454545,59.792529243592696 100.5050505050505,59.70360361268803 105.55555555555554,59.3144021856225 110.60606060606061,58.82011014858483 115.65656565656566,58.95485458576417 120.7070707070707,58.48700395027714 125.75757575757576,58.25885553375008 130.80808080808083,58.52120932806247 135.85858585858585,52.427672587471875 140.9090909090909,53.14799666843123 145.95959595959596,52.4910092390453 151.010101010101,52.33786119404175 156.06060606060606,53.40101260831335 161.1111111111111,52.273899756159665 166.16161616161617,51.466086877079476 171.21212121212122,52.05239508228681 176.26262626262627,51.350616829266244 181.31313131313132,51.082993210567906 186.36363636363635,51.247815633264736 191.4141414141414,51.56301027258263 196.46464646464648,51.55588009399827 201.51515151515153,51.04292597484948 206.56565656565658,50.58974223477912 211.61616161616163,51.390881623166194 216.66666666666666,50.83025629903699 221.7171717171717,50.70202567891266 226.76767676767676,50.83025629903699 231.8181818181818,50.57367162239558 236.86868686868686,50.242725043859764 241.91919191919192,50.242725043859764 246.96969696969697,50.56365760506975 252.02020202020202,50.242725043859764 257.07070707070704,50.242725043859764 262.1212121212121,50.19182566174425 267.1717171717172,50.39211224623142 272.2222222222222,50.27020735148784 277.27272727272725,50.373452266470224 282.32323232323233,50.42557960585509 287.3737373737374,50.28022136881367 292.42424242424244,50.45300506523671 297.47474747474746,50.3393562300721 302.52525252525254,50.27020735148784 307.57575757575756,50.27020735148784 312.62626262626264,50.25583611026531 317.67676767676767,50.24582209293942 322.7272727272727,50.25583611026531 327.77777777777777,50.20372426045185 332.8282828282828,50.09468918478581 337.8787878787879,50.09468918478581 342.92929292929296,50.09468918478581 347.979797979798,50.10334103169822 353.03030303030306,50.10334103169822 358.0808080808081,50.10294567826679 363.13131313131316,50.19371024312602 368.1818181818182,50.32222763569655 373.23232323232327,50.13687794418394 378.2828282828283,50.13687794418394 383.3333333333333,50.20402068105193 388.3838383838384,50.23411846123838 393.4343434343434,50.23411846123838 398.4848484848485,50.13687794418394 403.5353535353535,50.119484580709525 408.58585858585855,50.10334103169822 413.6363636363636,50.10334103169822 418.68686868686865,50.03395989316522 423.73737373737373,50.10334103169822 428.7878787878788,50.0 433.83838383838383,50.006129531685474 438.8888888888889,50.04008942485075 443.93939393939394,50.03007540752486 448.989898989899,50.04008942485075 454.04040404040404,50.08241360465638 459.0909090909091,50.08241360465638 464.14141414141415,50.10093380851481 469.19191919191917,50.072399587330494 474.24242424242425,50.06627005564508 479.2929292929293,50.06627005564508 484.34343434343435,50.06284302479418 489.3939393939394,50.06627005564508 494.4444444444444,50.06627005564508 499.4949494949495,50.072399587330494 504.5454545454545,50.072399587330494 509.59595959595964,50.072399587330494 514.6464646464647,50.072399587330494 519.6969696969697,50.072399587330494 524.7474747474748,50.072399587330494 529.7979797979798,50.03635584324513 534.8484848484849,50.03635584324513 539.8989898989898,50.072399587330494 544.9494949494949,50.072399587330494 550.0,50.05773320147421" fill="none" stroke="rgb(0,255,0)" stroke-width="1"/><circle cx="50.0" cy="68.91799845386709" r="2" fill="rgb(0,255,0)"/><circle cx="55.05050505050505" cy="62.40766786367419" r="2" fill="rgb(0,255,0)"/><circle cx="60.101010101010104" cy="60.57720390271936" r="2" fill="rgb(0,255,0)"/><circle cx="65.15151515151516" cy="60.57720390271936" r="2" fill="rgb(0,255,0)"/><circle cx="70.20202020202021" cy="60.374877185478" r="2" fill="rgb(0,255,0)"/><circle cx="75.25252525252526" cy="60.07701702424703" r="2" fill="rgb(0,255,0)"/><circle cx="80.30303030303031" cy="57.457724388805616" r="2" fill="rgb(0,255,0)"/><circle cx="85.35353535353535" cy="58.42263522227768" r="2" fill="rgb(0,255,0)"/><circle cx="90.40404040404042" cy="59.08482440498915" r="2" fill="rgb(0,255,0)"/><circle cx="95.45454545454545" cy="59.792529243592696" r="2" fill="rgb(0,255,0)"/><circle cx="100.5050505050505" cy="59.70360361268803" r="2" fill="rgb(0,255,0)"/><circle cx="105.55555555555554" cy="59.3144021856225" r="2" fill="rgb(0,255,0)"/><circle cx="110.60606060606061" cy="58.82011014858483" r="2" fill="rgb(0,255,0)"/><circle cx="115.65656565656566" cy="58.95485458576417" r="2" fill="rgb(0,255,0)"/><circle cx="120.7070707070707" cy="58.48700395027714" r="2" fill="rgb(0,255,0)"/><circle cx="125.75757575757576" cy="58.25885553375008" r="2" fill="rgb(0,255,0)"/><circle cx="130.80808080808083" cy="58.52120932806247" r="2" fill="rgb(0,255,0)"/><circle cx="135.85858585858585" cy="52.427672587471875" r="2" fill="rgb(0,255,0)"/><circle cx="140.9090909090909" cy="53.14799666843123" r="2" fill="rgb(0,255,0)"/><circle cx="145.95959595959596" cy="52.4910092390453" r="2" fill="rgb(0,255,0)"/><circle cx="151.010101010101" cy="52.33786119404175" r="2" fill="rgb(0,255,0)"/><circle cx="156.06060606060606" cy="53.40101260831335" r="2" fill="rgb(0,255,0)"/><circle cx="161.1111111111111" cy="52.273899756159665" r="2" fill="rgb(0,255,0)"/><circle cx="166.16161616161617" cy="51.466086877079476" r="2" fill="rgb(0,255,0)"/><circle cx="171.21212121212122" cy="52.05239508228681" r="2" fill="rgb(0,255,0)"/><circle cx="176.26262626262627" cy="51.350616829266244" r="2" fill="rgb(0,255,0)"/><circle cx="181.31313131313132" cy="51.082993210567906" r="2" fill="rgb(0,255,0)"/><circle cx="186.36363636363635" cy="51.247815633264736" r="2" fill="rgb(0,255,0)"/><circle cx="191.4141414141414" cy="51.56301027258263" r="2" fill="rgb(0,255,0)"/><circle cx="196.46464646464648" cy="51.55588009399827" r="2" fill="rgb(0,255,0)"/><circle cx="201.51515151515153" cy="51.04292597484948" r="2" fill="rgb(0,255,0)"/><circle cx="206.56565656565658" cy="50.58974223477912" r="2" fill="rgb(0,255,0)"/><circle cx="211.61616161616163" cy="51.390881623166194" r="2" fill="rgb(0,255,0)"/><circle cx="216.66666666666666" cy="50.83025629903699" r="2" fill="rgb(0,255,0)"/><circle cx="221.7171717171717" cy="50.70202567891266" r="2" fill="rgb(0,255,0)"/><circle cx="226.76767676767676" cy="50.83025629903699" r="2" fill="rgb(0,255,0)"/><circle cx="231.8181818181818" cy="50.57367162239558" r="2" fill="rgb(0,255,0)"/><circle cx="236.86868686868686" cy="50.242725043859764" r="2" fill="rgb(0,255,0)"/><circle cx="241.91919191919192" cy="50.242725043859764" r="2" fill="rgb(0,255,0)"/><circle cx="246.96969696969697" cy="50.56365760506975" r="2" fill="rgb(0,255,0)"/><circle cx="252.02020202020202" cy="50.242725043859764" r="2" fill="rgb(0,255,0)"/><circle cx="257.07070707070704" cy="50.242725043859764" r="2" fill="rgb(0,255,0)"/><circle cx="262.1212121212121" cy="50.19182566174425" r="2" fill="rgb(0,255,0)"/><circle cx="267.1717171717172" cy="50.39211224623142" r="2" fill="rgb(0,255,0)"/><circle cx="272.2222222222222" cy="50.27020735148784" r="2" fill="rgb(0,255,0)"/><circle cx="277.27272727272725" cy="50.373452266470224" r="2" fill="rgb(0,255,0)"/><circle cx="282.32323232323233" cy="50.42557960585509" r="2" fill="rgb(0,255,0)"/><circle cx="287.3737373737374" cy="50.28022136881367" r="2" fill="rgb(0,255,0)"/><circle cx="292.42424242424244" cy="50.45300506523671" r="2" fill="rgb(0,255,0)"/><circle cx="297.47474747474746" cy="50.3393562300721" r="2" fill="rgb(0,255,0)"/><circle cx="302.52525252525254" cy="50.27020735148784" r="2" fill="rgb(0,255,0)"/><circle cx="307.57575757575756" cy="50.27020735148784" r="2" fill="rgb(0,255,0)"/><circle cx="312.62626262626264" cy="50.25583611026531" r="2" fill="rgb(0,255,0)"/><circle cx="317.67676767676767" cy="50.24582209293942" r="2" fill="rgb(0,255,0)"/><circle cx="322.7272727272727" cy="50.25583611026531" r="2" fill="rgb(0,255,0)"/><circle cx="327.77777777777777" cy="50.20372426045185" r="2" fill="rgb(0,255,0)"/><circle cx="332.8282828282828" cy="50.09468918478581" r="2" fill="rgb(0,255,0)"/><circle cx="337.8787878787879" cy="50.09468918478581" r="2" fill="rgb(0,255,0)"/><circle cx="342.92929292929296" cy="50.09468918478581" r="2" fill="rgb(0,255,0)"/><circle cx="347.979797979798" cy="50.10334103169822" r="2" fill="rgb(0,255,0)"/><circle cx="353.03030303030306" cy="50.10334103169822" r="2" fill="rgb(0,255,0)"/><circle cx="358.0808080808081" cy="50.10294567826679" r="2" fill="rgb(0,255,0)"/><circle cx="363.13131313131316" cy="50.19371024312602" r="2" fill="rgb(0,255,0)"/><circle cx="368.1818181818182" cy="50.32222763569655" r="2" fill="rgb(0,255,0)"/><circle cx="373.23232323232327" cy="50.13687794418394" r="2" fill="rgb(0,255,0)"/><circle cx="378.2828282828283" cy="50.13687794418394" r="2" fill="rgb(0,255,0)"/><circle cx="383.3333333333333" cy="50.20402068105193" r="2" fill="rgb(0,255,0)"/><circle cx="388.3838383838384" cy="50.23411846123838" r="2" fill="rgb(0,255,0)"/><circle cx="393.4343434343434" cy="50.23411846123838" r="2" fill="rgb(0,255,0)"/><circle cx="398.4848484848485" cy="50.13687794418394" r="2" fill="rgb(0,255,0)"/><circle cx="403.5353535353535" cy="50.119484580709525" r="2" fill="rgb(0,255,0)"/><circle cx="408.58585858585855" cy="50.10334103169822" r="2" fill="rgb(0,255,0)"/><circle cx="413.6363636363636" cy="50.10334103169822" r="2" fill="rgb(0,255,0)"/><circle cx="418.68686868686865" cy="50.03395989316522" r="2" fill="rgb(0,255,0)"/><circle cx="423.73737373737373" cy="50.10334103169822" r="2" fill="rgb(0,255,0)"/><circle cx="428.7878787878788" cy="50.0" r="2" fill="rgb(0,255,0)"/><circle cx="433.83838383838383" cy="50.006129531685474" r="2" fill="rgb(0,255,0)"/><circle cx="438.8888888888889" cy="50.04008942485075" r="2" fill="rgb(0,255,0)"/><circle cx="443.93939393939394" cy="50.03007540752486" r="2" fill="rgb(0,255,0)"/><circle cx="448.989898989899" cy="50.04008942485075" r="2" fill="rgb(0,255,0)"/><circle cx="454.04040404040404" cy="50.08241360465638" r="2" fill="rgb(0,255,0)"/><circle cx="459.0909090909091" cy="50.08241360465638" r="2" fill="rgb(0,255,0)"/><circle cx="464.14141414141415" cy="50.10093380851481" r="2" fill="rgb(0,255,0)"/><circle cx="469.19191919191917" cy="50.072399587330494" r="2" fill="rgb(0,255,0)"/><circle cx="474.24242424242425" cy="50.06627005564508" r="2" fill="rgb(0,255,0)"/><circle cx="479.2929292929293" cy="50.06627005564508" r="2" fill="rgb(0,255,0)"/><circle cx="484.34343434343435" cy="50.06284302479418" r="2" fill="rgb(0,255,0)"/><circle cx="489.3939393939394" cy="50.06627005564508" r="2" fill="rgb(0,255,0)"/><circle cx="494.4444444444444" cy="50.06627005564508" r="2" fill="rgb(0,255,0)"/><circle cx="499.4949494949495" cy="50.072399587330494" r="2" fill="rgb(0,255,0)"/><circle cx="504.5454545454545" cy="50.072399587330494" r="2" fill="rgb(0,255,0)"/><circle cx="509.59595959595964" cy="50.072399587330494" r="2" fill="rgb(0,255,0)"/><circle cx="514.6464646464647" cy="50.072399587330494" r="2" fill="rgb(0,255,0)"/><circle cx="519.6969696969697" cy="50.072399587330494" r="2" fill="rgb(0,255,0)"/><circle cx="524.7474747474748" cy="50.072399587330494" r="2" fill="rgb(0,255,0)"/><circle cx="529.7979797979798" cy="50.03635584324513" r="2" fill="rgb(0,255,0)"/><circle cx="534.8484848484849" cy="50.03635584324513" r="2" fill="rgb(0,255,0)"/><circle cx="539.8989898989898" cy="50.072399587330494" r="2" fill="rgb(0,255,0)"/><circle cx="544.9494949494949" cy="50.072399587330494" r="2" fill="rgb(0,255,0)"/><circle cx="550.0" cy="50.05773320147421" r="2" fill="rgb(0,255,0)"/><text x="350.0" y="20.0" text-anchor="middle" fill="rgb(0,0,0)" font-size="20.0">GA Demo</text><text x="350.0" y="575.0" text-anchor="middle" fill="rgb(0,0,0)" font-size="12.0">generation</text><text transform="rotate(-90.0 20.0 300.0)" x="20.0" y="300.0" text-anchor="middle" fill="rgb(0,0,0)" font-size="12.0">fitness</text><text x="620" y="62" fill="rgb(0,0,0)" font-size="12">min</text><text x="620" y="74" fill="rgb(0,0,255)" font-size="12">ave</text><text x="620" y="86" fill="rgb(0,255,0)" font-size="12">max</text>
      Sorry, your browser does not support inline SVG.
    </svg>