<?xml version='1.0' encoding='UTF-8'?>
<svg version="1.1" width="700.0" height="600.0" onload="init(evt)" xmlns="http://www.w3.org/2000/svg">
      <style>.caption {
  font-size: 14px;
  font-family: Georgia, serif;
}
</style>
      <script type="text/ecmascript"><![CDATA[
function init(evt) {
  if ( window.svgDocument == null ) {
    svgDocument = evt.target.ownerDocument;
  }
}

function RectHover(evt, i, c) {
  rect = svgDocument.getElementById('rect' + i);
  if( c != null ) {
    rect.setAttributeNS(null, "fill", c)  
  }
  tooltiptext = svgDocument.getElementById('tooltiptext' + i);
  tooltipbg = svgDocument.getElementById('tooltipbg' + i);
  if( tooltipbg != null) {
    tbb = tooltiptext.getBBox();
    tooltipbg.setAttributeNS(null, "width", tbb.width);
    tooltipbg.setAttributeNS(null, "height", tbb.height);
    tooltipbg.setAttributeNS(null, "x", tbb.x);
    tooltipbg.setAttributeNS(null, "y", tbb.y);
    tooltipbg.setAttributeNS(null, "visibility", "visible");
  }
  tooltiptext.setAttributeNS(null,"visibility","visible");
}

function RectUnhover(evt, i, c) {
  rect = svgDocument.getElementById('rect' + i);
  if( c != null ) {
    rect.setAttributeNS(null, "fill", c)  
  }
  tooltiptext = svgDocument.getElementById('tooltiptext' + i);
  tooltiptext.setAttributeNS(null,"visibility","hidden");
  tooltipbg = svgDocument.getElementById('tooltipbg' + i);
  if( tooltipbg != null ) {
    tooltipbg.setAttributeNS(null,"visibility","hidden");
  }
}
]]></script>
      <line x1="50.0" y1="550.0" x2="550.0" y2="550.0" stroke="rgb(0,0,0)" stroke-width="1"/><line x1="50.0" y1="550.0" x2="50.0" y2="50.0" stroke="rgb(0,0,0)" stroke-width="1"/><line x1="50.0" y1="550.0" x2="50.0" y2="50.0" stroke="rgb(192,192,192)" stroke-width="1"/><line x1="50.0" y1="548.0" x2="50.0" y2="552.0" stroke="rgb(192,192,192)" stroke-width="1"/><text text-anchor="middle" alignment-baseline="hanging" x="50.0" y="553.0" font-size="12.0">0</text><line x1="100.5050505050505" y1="550.0" x2="100.5050505050505" y2="50.0" stroke="rgb(192,192,192)" stroke-width="1"/><line x1="100.5050505050505" y1="548.0" x2="100.5050505050505" y2="552.0" stroke="rgb(192,192,192)" stroke-width="1"/><text text-anchor="middle" alignment-baseline="hanging" x="100.5050505050505" y="553.0" font-size="12.0">10</text><line x1="151.010101010101" y1="550.0" x2="151.010101010101" y2="50.0" stroke="rgb(192,192,192)" stroke-width="1"/><line x1="151.010101010101" y1="548.0" x2="151.010101010101" y2="552.0" stroke="rgb(192,192,192)" stroke-width="1"/><text text-anchor="middle" alignment-baseline="hanging" x="151.010101010101" y="553.0" font-size="12.0">20</text><line x1="201.51515151515153" y1="550.0" x2="201.51515151515153" y2="50.0" stroke="rgb(192,192,192)" stroke-width="1"/><line x1="201.51515151515153" y1="548.0" x2="201.51515151515153" y2="552.0" stroke="rgb(192,192,192)" stroke-width="1"/><text text-anchor="middle" alignment-baseline="hanging" x="201.51515151515153" y="553.0" font-size="12.0">30</text><line x1="252.02020202020202" y1="550.0" x2="252.02020202020202" y2="50.0" stroke="rgb(192,192,192)" stroke-width="1"/><line x1="252.02020202020202" y1="548.0" x2="252.02020202020202" y2="552.0" stroke="rgb(192,192,192)" stroke-width="1"/><text text-anchor="middle" alignment-baseline="hanging" x="252.02020202020202" y="553.0" font-size="12.0">40</text><line x1="302.52525252525254" y1="550.0" x2="302.52525252525254" y2="50.0" stroke="rgb(192,192,192)" stroke-width="1"/><line x1="302.52525252525254" y1="548.0" x2="302.52525252525254" y2="552.0" stroke="rgb(192,192,192)" stroke-width="1"/><text text-anchor="middle" alignment-baseline="hanging" x="302.52525252525254" y="553.0" font-size="12.0">50</text><line x1="353.03030303030306" y1="550.0" x2="353.03030303030306" y2="50.0" stroke="rgb(192,192,192)" stroke-width="1"/><line x1="353.03030303030306" y1="548.0" x2="353.03030303030306" y2="552.0" stroke="rgb(192,192,192)" stroke-width="1"/><text text-anchor="middle" alignment-baseline="hanging" x="353.03030303030306" y="553.0" font-size="12.0">60</text><line x1="403.5353535353535" y1="550.0" x2="403.5353535353535" y2="50.0" stroke="rgb(192,192,192)" stroke-width="1"/><line x1="403.5353535353535" y1="548.0" x2="403.5353535353535" y2="552.0" stroke="rgb(192,192,192)" stroke-width="1"/><text text-anchor="middle" alignment-baseline="hanging" x="403.5353535353535" y="553.0" font-size="12.0">70</text><line x1="454.04040404040404" y1="550.0" x2="454.04040404040404" y2="50.0" stroke="rgb(192,192,192)" stroke-width="1"/><line x1="454.04040404040404" y1="548.0" x2="454.04040404040404" y2="552.0" stroke="rgb(192,192,192)" stroke-width="1"/><text text-anchor="middle" alignment-baseline="hanging" x="454.04040404040404" y="553.0" font-size="12.0">80</text><line x1="504.5454545454545" y1="550.0" x2="504.5454545454545" y2="50.0" stroke="rgb(192,192,192)" stroke-width="1"/><line x1="504.5454545454545" y1="548.0" x2="504.5454545454545" y2="552.0" stroke="rgb(192,192,192)" stroke-width="1"/><text text-anchor="middle" alignment-baseline="hanging" x="504.5454545454545" y="553.0" font-size="12.0">90</text><line x1="50.0" y1="550.0" x2="550.0" y2="550.0" stroke="rgb(192,192,192)" stroke-width="1"/><text text-anchor="end" alignment-baseline="middle" x="45.0" y="550.0" font-size="12.0">0.0</text><line x1="48.0" y1="550.0" x2="52.0" y2="550.0" stroke="rgb(192,192,192)" stroke-width="1"/><line x1="50.0" y1="367.2415090518477" x2="550.0" y2="367.2415090518477" stroke="rgb(192,192,192)" stroke-width="1"/><text text-anchor="end" alignment-baseline="middle" x="45.0" y="367.2415090518477" font-size="12.0">1000.0</text><line x1="48.0" y1="367.2415090518477" x2="52.0" y2="367.2415090518477" stroke="rgb(192,192,192)" stroke-width="1"/><line x1="50.0" y1="184.48301810369537" x2="550.0" y2="184.48301810369537" stroke="rgb(192,192,192)" stroke-width="1"/><text text-anchor="end" alignment-baseline="middle" x="45.0" y="184.48301810369537" font-size="12.0">2000.0</text><line x1="48.0" y1="184.48301810369537" x2="52.0" y2="184.48301810369537" stroke="rgb(192,192,192)" stroke-width="1"/><polyline points="50.0,431.88992397024276 55.05050505050505,374.28902782526075 60.101010101010104,406.8420860982883 65.15151515151516,388.66023345300846 70.20202020202021,429.3574080432706 75.25252525252526,403.85687112235206 80.30303030303031,401.84013475767335 85.35353535353535,401.84013475767335 90.40404040404042,414.7808672602844 95.45454545454545,414.20008550993873 100.5050505050505,379.3329571699208 105.55555555555554,378.65150816845266 110.60606060606061,374.88263585387773 115.65656565656566,375.704118968482 120.7070707070707,375.7183502503698 125.75757575757576,387.49509281463304 130.80808080808083,333.72127385796614 135.85858585858585,333.27311696057984 140.9090909090909,334.90749405900806 145.95959595959596,332.3452266040005 151.010101010101,297.9815069923452 156.06060606060606,347.00410718900764 161.1111111111111,270.70879620532577 166.16161616161617,220.78697570593005 171.21212121212122,404.47669387480573 176.26262626262627,232.14137998367272 181.31313131313132,281.22054070797975 186.36363636363635,298.10188875146827 191.4141414141414,299.109867285723 196.46464646464648,298.3457576943175 201.51515151515153,297.1427985982507 206.56565656565658,375.05271436584053 211.61616161616163,219.96981664704026 216.66666666666666,276.4342593567544 221.7171717171717,301.52910361089687 226.76767676767676,365.21560805372496 231.8181818181818,300.94224626520395 236.86868686868686,185.45823182072257 241.91919191919192,306.07938648024447 246.96969696969697,386.3963789092024 252.02020202020202,410.7735947766289 257.07070707070704,411.01543088820927 262.1212121212121,378.33256560166177 267.1717171717172,378.4214728767255 272.2222222222222,396.235740013806 277.27272727272725,369.24371736180757 282.32323232323233,172.8579111358389 287.3737373737374,353.1336396091708 292.42424242424244,388.22823548090173 297.47474747474746,387.2536430338231 302.52525252525254,387.69836780445655 307.57575757575756,381.4111142207506 312.62626262626264,400.04544809714054 317.67676767676767,360.9158234209952 322.7272727272727,409.5013836649272 327.77777777777777,358.6490980566701 332.8282828282828,370.36405111405685 337.8787878787879,370.0342766817693 342.92929292929296,370.0865273984548 347.979797979798,389.670205929445 353.03030303030306,311.5627768891079 358.0808080808081,311.58402122063444 363.13131313131316,334.16472201669137 368.1818181818182,372.16604522342874 373.23232323232327,407.56777762668605 378.2828282828283,301.33032572983757 383.3333333333333,301.8006294537887 388.3838383838384,413.68019628945683 393.4343434343434,345.8966594440902 398.4848484848485,400.2180549395983 403.5353535353535,399.72708487850264 408.58585858585855,317.9956244198831 413.6363636363636,182.01631702967535 418.68686868686865,406.73589146725567 423.73737373737373,408.8346248665774 428.7878787878788,322.1383436609667 433.83838383838383,191.71378655726346 438.8888888888889,229.29912259144874 443.93939393939394,180.69616676606188 448.989898989899,231.88350013158828 454.04040404040404,296.2192910181843 459.0909090909091,387.79579354064475 464.14141414141415,388.1229820711104 469.19191919191917,357.12800700871225 474.24242424242425,336.55976609444906 479.2929292929293,336.1149674753063 484.34343434343435,375.92767230548134 489.3939393939394,339.81395796239315 494.4444444444444,350.0230425258187 499.4949494949495,414.5708810425151 504.5454545454545,414.37689906274613 509.59595959595964,388.8085575698298 514.6464646464647,347.5507788414954 519.6969696969697,286.30751361850565 524.7474747474748,242.22646871711913 529.7979797979798,241.64558735141145 534.8484848484849,339.85455348404366 539.8989898989898,360.4171343148273 544.9494949494949,384.8297843137965 550.0,319.895015843406" fill="none" stroke="rgb(0,0,0)" stroke-width="1"/><circle cx="50.0" cy="431.88992397024276" r="2" fill="rgb(0,0,0)"/><circle cx="55.05050505050505" cy="374.28902782526075" r="2" fill="rgb(0,0,0)"/><circle cx="60.101010101010104" cy="406.8420860982883" r="2" fill="rgb(0,0,0)"/><circle cx="65.15151515151516" cy="388.66023345300846" r="2" fill="rgb(0,0,0)"/><circle cx="70.20202020202021" cy="429.3574080432706" r="2" fill="rgb(0,0,0)"/><circle cx="75.25252525252526" cy="403.85687112235206" r="2" fill="rgb(0,0,0)"/><circle cx="80.30303030303031" cy="401.84013475767335" r="2" fill="rgb(0,0,0)"/><circle cx="85.35353535353535" cy="401.84013475767335" r="2" fill="rgb(0,0,0)"/><circle cx="90.40404040404042" cy="414.7808672602844" r="2" fill="rgb(0,0,0)"/><circle cx="95.45454545454545" cy="414.20008550993873" r="2" fill="rgb(0,0,0)"/><circle cx="100.5050505050505" cy="379.3329571699208" r="2" fill="rgb(0,0,0)"/><circle cx="105.55555555555554" cy="378.65150816845266" r="2" fill="rgb(0,0,0)"/><circle cx="110.60606060606061" cy="374.88263585387773" r="2" fill="rgb(0,0,0)"/><circle cx="115.65656565656566" cy="375.704118968482" r="2" fill="rgb(0,0,0)"/><circle cx="120.7070707070707" cy="375.7183502503698" r="2" fill="rgb(0,0,0)"/><circle cx="125.75757575757576" cy="387.49509281463304" r="2" fill="rgb(0,0,0)"/><circle cx="130.80808080808083" cy="333.72127385796614" r="2" fill="rgb(0,0,0)"/><circle cx="135.85858585858585" cy="333.27311696057984" r="2" fill="rgb(0,0,0)"/><circle cx="140.9090909090909" cy="334.90749405900806" r="2" fill="rgb(0,0,0)"/><circle cx="145.95959595959596" cy="332.3452266040005" r="2" fill="rgb(0,0,0)"/><circle cx="151.010101010101" cy="297.9815069923452" r="2" fill="rgb(0,0,0)"/><circle cx="156.06060606060606" cy="347.00410718900764" r="2" fill="rgb(0,0,0)"/><circle cx="161.1111111111111" cy="270.70879620532577" r="2" fill="rgb(0,0,0)"/><circle cx="166.16161616161617" cy="220.78697570593005" r="2" fill="rgb(0,0,0)"/><circle cx="171.21212121212122" cy="404.47669387480573" r="2" fill="rgb(0,0,0)"/><circle cx="176.26262626262627" cy="232.14137998367272" r="2" fill="rgb(0,0,0)"/><circle cx="181.31313131313132" cy="281.22054070797975" r="2" fill="rgb(0,0,0)"/><circle cx="186.36363636363635" cy="298.10188875146827" r="2" fill="rgb(0,0,0)"/><circle cx="191.4141414141414" cy="299.109867285723" r="2" fill="rgb(0,0,0)"/><circle cx="196.46464646464648" cy="298.3457576943175" r="2" fill="rgb(0,0,0)"/><circle cx="201.51515151515153" cy="297.1427985982507" r="2" fill="rgb(0,0,0)"/><circle cx="206.56565656565658" cy="375.05271436584053" r="2" fill="rgb(0,0,0)"/><circle cx="211.61616161616163" cy="219.96981664704026" r="2" fill="rgb(0,0,0)"/><circle cx="216.66666666666666" cy="276.4342593567544" r="2" fill="rgb(0,0,0)"/><circle cx="221.7171717171717" cy="301.52910361089687" r="2" fill="rgb(0,0,0)"/><circle cx="226.76767676767676" cy="365.21560805372496" r="2" fill="rgb(0,0,0)"/><circle cx="231.8181818181818" cy="300.94224626520395" r="2" fill="rgb(0,0,0)"/><circle cx="236.86868686868686" cy="185.45823182072257" r="2" fill="rgb(0,0,0)"/><circle cx="241.91919191919192" cy="306.07938648024447" r="2" fill="rgb(0,0,0)"/><circle cx="246.96969696969697" cy="386.3963789092024" r="2" fill="rgb(0,0,0)"/><circle cx="252.02020202020202" cy="410.7735947766289" r="2" fill="rgb(0,0,0)"/><circle cx="257.07070707070704" cy="411.01543088820927" r="2" fill="rgb(0,0,0)"/><circle cx="262.1212121212121" cy="378.33256560166177" r="2" fill="rgb(0,0,0)"/><circle cx="267.1717171717172" cy="378.4214728767255" r="2" fill="rgb(0,0,0)"/><circle cx="272.2222222222222" cy="396.235740013806" r="2" fill="rgb(0,0,0)"/><circle cx="277.27272727272725" cy="369.24371736180757" r="2" fill="rgb(0,0,0)"/><circle cx="282.32323232323233" cy="172.8579111358389" r="2" fill="rgb(0,0,0)"/><circle cx="287.3737373737374" cy="353.1336396091708" r="2" fill="rgb(0,0,0)"/><circle cx="292.42424242424244" cy="388.22823548090173" r="2" fill="rgb(0,0,0)"/><circle cx="297.47474747474746" cy="387.2536430338231" r="2" fill="rgb(0,0,0)"/><circle cx="302.52525252525254" cy="387.69836780445655" r="2" fill="rgb(0,0,0)"/><circle cx="307.57575757575756" cy="381.4111142207506" r="2" fill="rgb(0,0,0)"/><circle cx="312.62626262626264" cy="400.04544809714054" r="2" fill="rgb(0,0,0)"/><circle cx="317.67676767676767" cy="360.9158234209952" r="2" fill="rgb(0,0,0)"/><circle cx="322.7272727272727" cy="409.5013836649272" r="2" fill="rgb(0,0,0)"/><circle cx="327.77777777777777" cy="358.6490980566701" r="2" fill="rgb(0,0,0)"/><circle cx="332.8282828282828" cy="370.36405111405685" r="2" fill="rgb(0,0,0)"/><circle cx="337.8787878787879" cy="370.0342766817693" r="2" fill="rgb(0,0,0)"/><circle cx="342.92929292929296" cy="370.0865273984548" r="2" fill="rgb(0,0,0)"/><circle cx="347.979797979798" cy="389.670205929445" r="2" fill="rgb(0,0,0)"/><circle cx="353.03030303030306" cy="311.5627768891079" r="2" fill="rgb(0,0,0)"/><circle cx="358.0808080808081" cy="311.58402122063444" r="2" fill="rgb(0,0,0)"/><circle cx="363.13131313131316" cy="334.16472201669137" r="2" fill="rgb(0,0,0)"/><circle cx="368.1818181818182" cy="372.16604522342874" r="2" fill="rgb(0,0,0)"/><circle cx="373.23232323232327" cy="407.56777762668605" r="2" fill="rgb(0,0,0)"/><circle cx="378.2828282828283" cy="301.33032572983757" r="2" fill="rgb(0,0,0)"/><circle cx="383.3333333333333" cy="301.8006294537887" r="2" fill="rgb(0,0,0)"/><circle cx="388.3838383838384" cy="413.68019628945683" r="2" fill="rgb(0,0,0)"/><circle cx="393.4343434343434" cy="345.8966594440902" r="2" fill="rgb(0,0,0)"/><circle cx="398.4848484848485" cy="400.2180549395983" r="2" fill="rgb(0,0,0)"/><circle cx="403.5353535353535" cy="399.72708487850264" r="2" fill="rgb(0,0,0)"/><circle cx="408.58585858585855" cy="317.9956244198831" r="2" fill="rgb(0,0,0)"/><circle cx="413.6363636363636" cy="182.01631702967535" r="2" fill="rgb(0,0,0)"/><circle cx="418.68686868686865" cy="406.73589146725567" r="2" fill="rgb(0,0,0)"/><circle cx="423.73737373737373" cy="408.8346248665774" r="2" fill="rgb(0,0,0)"/><circle cx="428.7878787878788" cy="322.1383436609667" r="2" fill="rgb(0,0,0)"/><circle cx="433.83838383838383" cy="191.71378655726346" r="2" fill="rgb(0,0,0)"/><circle cx="438.8888888888889" cy="229.29912259144874" r="2" fill="rgb(0,0,0)"/><circle cx="443.93939393939394" cy="180.69616676606188" r="2" fill="rgb(0,0,0)"/><circle cx="448.989898989899" cy="231.88350013158828" r="2" fill="rgb(0,0,0)"/><circle cx="454.04040404040404" cy="296.2192910181843" r="2" fill="rgb(0,0,0)"/><circle cx="459.0909090909091" cy="387.79579354064475" r="2" fill="rgb(0,0,0)"/><circle cx="464.14141414141415" cy="388.1229820711104" r="2" fill="rgb(0,0,0)"/><circle cx="469.19191919191917" cy="357.12800700871225" r="2" fill="rgb(0,0,0)"/><circle cx="474.24242424242425" cy="336.55976609444906" r="2" fill="rgb(0,0,0)"/><circle cx="479.2929292929293" cy="336.1149674753063" r="2" fill="rgb(0,0,0)"/><circle cx="484.34343434343435" cy="375.92767230548134" r="2" fill="rgb(0,0,0)"/><circle cx="489.3939393939394" cy="339.81395796239315" r="2" fill="rgb(0,0,0)"/><circle cx="494.4444444444444" cy="350.0230425258187" r="2" fill="rgb(0,0,0)"/><circle cx="499.4949494949495" cy="414.5708810425151" r="2" fill="rgb(0,0,0)"/><circle cx="504.5454545454545" cy="414.37689906274613" r="2" fill="rgb(0,0,0)"/><circle cx="509.59595959595964" cy="388.8085575698298" r="2" fill="rgb(0,0,0)"/><circle cx="514.6464646464647" cy="347.5507788414954" r="2" fill="rgb(0,0,0)"/><circle cx="519.6969696969697" cy="286.30751361850565" r="2" fill="rgb(0,0,0)"/><circle cx="524.7474747474748" cy="242.22646871711913" r="2" fill="rgb(0,0,0)"/><circle cx="529.7979797979798" cy="241.64558735141145" r="2" fill="rgb(0,0,0)"/><circle cx="534.8484848484849" cy="339.85455348404366" r="2" fill="rgb(0,0,0)"/><circle cx="539.8989898989898" cy="360.4171343148273" r="2" fill="rgb(0,0,0)"/><circle cx="544.9494949494949" cy="384.8297843137965" r="2" fill="rgb(0,0,0)"/><circle cx="550.0" cy="319.895015843406" r="2" fill="rgb(0,0,0)"/><polyline points="50.0,219.47331845797845 55.05050505050505,194.4847515260841 60.101010101010104,178.97608950242716 65.15151515151516,172.7210448497708 70.20202020202021,147.90873609509453 75.25252525252526,126.95924836883353 80.30303030303031,114.82719058821061 85.35353535353535,108.59762979843237 90.40404040404042,93.8361397096931 95.45454545454545,94.0529864412855 100.5050505050505,85.569724045204 105.55555555555554,82.64338253055371 110.60606060606061,76.95060184485993 115.65656565656566,74.14181229779797 120.7070707070707,72.9730072409119 125.75757575757576,75.44603084411904 130.80808080808083,78.7415851200563 135.85858585858585,78.65158678284013 140.9090909090909,79.44398166714637 145.95959595959596,87.66984173917558 151.010101010101,68.22490020680812 156.06060606060606,69.60325543809051 161.1111111111111,67.03855096005287 166.16161616161617,65.39299429549743 171.21212121212122,71.79178513961153 176.26262626262627,66.01842283720953 181.31313131313132,70.06495412260989 186.36363636363635,72.70999646320149 191.4141414141414,68.6460868232187 196.46464646464648,76.27672789154326 201.51515151515153,78.82922244490635 206.56565656565658,72.36516814500584 211.61616161616163,67.49260817351927 216.66666666666666,64.01883561540939 221.7171717171717,66.22142361861427 226.76767676767676,67.13970102922843 231.8181818181818,64.18002418569432 236.86868686868686,61.28984022077094 241.91919191919192,68.4968029884808 246.96969696969697,69.89066730337822 252.02020202020202,70.92865264878117 257.07070707070704,72.62819210231328 262.1212121212121,75.94008857324206 267.1717171717172,70.87438872211186 272.2222222222222,70.30512071621968 277.27272727272725,65.83626318675857 282.32323232323233,60.503837422580204 287.3737373737374,64.17598142233521 292.42424242424244,71.39612479383203 297.47474747474746,77.30188392721448 302.52525252525254,88.10119472098484 307.57575757575756,82.01419316096542 312.62626262626264,88.58898330644678 317.67676767676767,82.4068839112411 322.7272727272727,73.09395455266434 327.77777777777777,67.00524726621688 332.8282828282828,81.78160294655578 337.8787878787879,77.60616286866218 342.92929292929296,70.22292360129768 347.979797979798,74.88395224309943 353.03030303030306,62.32558664889581 358.0808080808081,62.35835538097234 363.13131313131316,65.14404040801935 368.1818181818182,65.0147094631817 373.23232323232327,72.53184707154998 378.2828282828283,66.41623018749675 383.3333333333333,68.70233851060937 388.3838383838384,70.4417860455523 393.4343434343434,72.71126569728159 398.4848484848485,76.38414038426288 403.5353535353535,67.2605067367503 408.58585858585855,65.86161769304192 413.6363636363636,58.88382203231606 418.68686868686865,66.44478288730221 423.73737373737373,71.00513447324204 428.7878787878788,62.95881357837777 433.83838383838383,57.670445079268234 438.8888888888889,58.49797168683301 443.93939393939394,56.24961741216612 448.989898989899,55.60177046409211 454.04040404040404,55.05664646103736 459.0909090909091,59.75390484232639 464.14141414141415,73.23004518510396 469.19191919191917,64.3680419677022 474.24242424242425,59.97916711439774 479.2929292929293,65.0126701777549 484.34343434343435,68.06700868579134 489.3939393939394,59.209211999358786 494.4444444444444,66.66471740165412 499.4949494949495,69.98147233389119 504.5454545454545,65.30975622332289 509.59595959595964,57.726047838530064 514.6464646464647,57.49279904981654 519.6969696969697,56.74825349110006 524.7474747474748,57.57739066811297 529.7979797979798,54.63491728558972 534.8484848484849,56.716243051034894 539.8989898989898,65.5108461877254 544.9494949494949,64.05577590884576 550.0,58.027564822281306" fill="none" stroke="rgb(0,0,255)" stroke-width="1"/><circle cx="50.0" cy="219.47331845797845" r="2" fill="rgb(0,0,255)"/><circle cx="55.05050505050505" cy="194.4847515260841" r="2" fill="rgb(0,0,255)"/><circle cx="60.101010101010104" cy="178.97608950242716" r="2" fill="rgb(0,0,255)"/><circle cx="65.15151515151516" cy="172.7210448497708" r="2" fill="rgb(0,0,255)"/><circle cx="70.20202020202021" cy="147.90873609509453" r="2" fill="rgb(0,0,255)"/><circle cx="75.25252525252526" cy="126.95924836883353" r="2" fill="rgb(0,0,255)"/><circle cx="80.30303030303031" cy="114.82719058821061" r="2" fill="rgb(0,0,255)"/><circle cx="85.35353535353535" cy="108.59762979843237" r="2" fill="rgb(0,0,255)"/><circle cx="90.40404040404042" cy="93.8361397096931" r="2" fill="rgb(0,0,255)"/><circle cx="95.45454545454545" cy="94.0529864412855" r="2" fill="rgb(0,0,255)"/><circle cx="100.5050505050505" cy="85.569724045204" r="2" fill="rgb(0,0,255)"/><circle cx="105.55555555555554" cy="82.64338253055371" r="2" fill="rgb(0,0,255)"/><circle cx="110.60606060606061" cy="76.95060184485993" r="2" fill="rgb(0,0,255)"/><circle cx="115.65656565656566" cy="74.14181229779797" r="2" fill="rgb(0,0,255)"/><circle cx="120.7070707070707" cy="72.9730072409119" r="2" fill="rgb(0,0,255)"/><circle cx="125.75757575757576" cy="75.44603084411904" r="2" fill="rgb(0,0,255)"/><circle cx="130.80808080808083" cy="78.7415851200563" r="2" fill="rgb(0,0,255)"/><circle cx="135.85858585858585" cy="78.65158678284013" r="2" fill="rgb(0,0,255)"/><circle cx="140.9090909090909" cy="79.44398166714637" r="2" fill="rgb(0,0,255)"/><circle cx="145.95959595959596" cy="87.66984173917558" r="2" fill="rgb(0,0,255)"/><circle cx="151.010101010101" cy="68.22490020680812" r="2" fill="rgb(0,0,255)"/><circle cx="156.06060606060606" cy="69.60325543809051" r="2" fill="rgb(0,0,255)"/><circle cx="161.1111111111111" cy="67.03855096005287" r="2" fill="rgb(0,0,255)"/><circle cx="166.16161616161617" cy="65.39299429549743" r="2" fill="rgb(0,0,255)"/><circle cx="171.21212121212122" cy="71.79178513961153" r="2" fill="rgb(0,0,255)"/><circle cx="176.26262626262627" cy="66.01842283720953" r="2" fill="rgb(0,0,255)"/><circle cx="181.31313131313132" cy="70.06495412260989" r="2" fill="rgb(0,0,255)"/><circle cx="186.36363636363635" cy="72.70999646320149" r="2" fill="rgb(0,0,255)"/><circle cx="191.4141414141414" cy="68.6460868232187" r="2" fill="rgb(0,0,255)"/><circle cx="196.46464646464648" cy="76.27672789154326" r="2" fill="rgb(0,0,255)"/><circle cx="201.51515151515153" cy="78.82922244490635" r="2" fill="rgb(0,0,255)"/><circle cx="206.56565656565658" cy="72.36516814500584" r="2" fill="rgb(0,0,255)"/><circle cx="211.61616161616163" cy="67.49260817351927" r="2" fill="rgb(0,0,255)"/><circle cx="216.66666666666666" cy="64.01883561540939" r="2" fill="rgb(0,0,255)"/><circle cx="221.7171717171717" cy="66.22142361861427" r="2" fill="rgb(0,0,255)"/><circle cx="226.76767676767676" cy="67.13970102922843" r="2" fill="rgb(0,0,255)"/><circle cx="231.8181818181818" cy="64.18002418569432" r="2" fill="rgb(0,0,255)"/><circle cx="236.86868686868686" cy="61.28984022077094" r="2" fill="rgb(0,0,255)"/><circle cx="241.91919191919192" cy="68.4968029884808" r="2" fill="rgb(0,0,255)"/><circle cx="246.96969696969697" cy="69.89066730337822" r="2" fill="rgb(0,0,255)"/><circle cx="252.02020202020202" cy="70.92865264878117" r="2" fill="rgb(0,0,255)"/><circle cx="257.07070707070704" cy="72.62819210231328" r="2" fill="rgb(0,0,255)"/><circle cx="262.1212121212121" cy="75.94008857324206" r="2" fill="rgb(0,0,255)"/><circle cx="267.1717171717172" cy="70.87438872211186" r="2" fill="rgb(0,0,255)"/><circle cx="272.2222222222222" cy="70.30512071621968" r="2" fill="rgb(0,0,255)"/><circle cx="277.27272727272725" cy="65.83626318675857" r="2" fill="rgb(0,0,255)"/><circle cx="282.32323232323233" cy="60.503837422580204" r="2" fill="rgb(0,0,255)"/><circle cx="287.3737373737374" cy="64.17598142233521" r="2" fill="rgb(0,0,255)"/><circle cx="292.42424242424244" cy="71.39612479383203" r="2" fill="rgb(0,0,255)"/><circle cx="297.47474747474746" cy="77.30188392721448" r="2" fill="rgb(0,0,255)"/><circle cx="302.52525252525254" cy="88.10119472098484" r="2" fill="rgb(0,0,255)"/><circle cx="307.57575757575756" cy="82.01419316096542" r="2" fill="rgb(0,0,255)"/><circle cx="312.62626262626264" cy="88.58898330644678" r="2" fill="rgb(0,0,255)"/><circle cx="317.67676767676767" cy="82.4068839112411" r="2" fill="rgb(0,0,255)"/><circle cx="322.7272727272727" cy="73.09395455266434" r="2" fill="rgb(0,0,255)"/><circle cx="327.77777777777777" cy="67.00524726621688" r="2" fill="rgb(0,0,255)"/><circle cx="332.8282828282828" cy="81.78160294655578" r="2" fill="rgb(0,0,255)"/><circle cx="337.8787878787879" cy="77.60616286866218" r="2" fill="rgb(0,0,255)"/><circle cx="342.92929292929296" cy="70.22292360129768" r="2" fill="rgb(0,0,255)"/><circle cx="347.979797979798" cy="74.88395224309943" r="2" fill="rgb(0,0,255)"/><circle cx="353.03030303030306" cy="62.32558664889581" r="2" fill="rgb(0,0,255)"/><circle cx="358.0808080808081" cy="62.35835538097234" r="2" fill="rgb(0,0,255)"/><circle cx="363.13131313131316" cy="65.14404040801935" r="2" fill="rgb(0,0,255)"/><circle cx="368.1818181818182" cy="65.0147094631817" r="2" fill="rgb(0,0,255)"/><circle cx="373.23232323232327" cy="72.53184707154998" r="2" fill="rgb(0,0,255)"/><circle cx="378.2828282828283" cy="66.41623018749675" r="2" fill="rgb(0,0,255)"/><circle cx="383.3333333333333" cy="68.70233851060937" r="2" fill="rgb(0,0,255)"/><circle cx="388.3838383838384" cy="70.4417860455523" r="2" fill="rgb(0,0,255)"/><circle cx="393.4343434343434" cy="72.71126569728159" r="2" fill="rgb(0,0,255)"/><circle cx="398.4848484848485" cy="76.38414038426288" r="2" fill="rgb(0,0,255)"/><circle cx="403.5353535353535" cy="67.2605067367503" r="2" fill="rgb(0,0,255)"/><circle cx="408.58585858585855" cy="65.86161769304192" r="2" fill="rgb(0,0,255)"/><circle cx="413.6363636363636" cy="58.88382203231606" r="2" fill="rgb(0,0,255)"/><circle cx="418.68686868686865" cy="66.44478288730221" r="2" fill="rgb(0,0,255)"/><circle cx="423.73737373737373" cy="71.00513447324204" r="2" fill="rgb(0,0,255)"/><circle cx="428.7878787878788" cy="62.95881357837777" r="2" fill="rgb(0,0,255)"/><circle cx="433.83838383838383" cy="57.670445079268234" r="2" fill="rgb(0,0,255)"/><circle cx="438.8888888888889" cy="58.49797168683301" r="2" fill="rgb(0,0,255)"/><circle cx="443.93939393939394" cy="56.24961741216612" r="2" fill="rgb(0,0,255)"/><circle cx="448.989898989899" cy="55.60177046409211" r="2" fill="rgb(0,0,255)"/><circle cx="454.04040404040404" cy="55.05664646103736" r="2" fill="rgb(0,0,255)"/><circle cx="459.0909090909091" cy="59.75390484232639" r="2" fill="rgb(0,0,255)"/><circle cx="464.14141414141415" cy="73.23004518510396" r="2" fill="rgb(0,0,255)"/><circle cx="469.19191919191917" cy="64.3680419677022" r="2" fill="rgb(0,0,255)"/><circle cx="474.24242424242425" cy="59.97916711439774" r="2" fill="rgb(0,0,255)"/><circle cx="479.2929292929293" cy="65.0126701777549" r="2" fill="rgb(0,0,255)"/><circle cx="484.34343434343435" cy="68.06700868579134" r="2" fill="rgb(0,0,255)"/><circle cx="489.3939393939394" cy="59.209211999358786" r="2" fill="rgb(0,0,255)"/><circle cx="494.4444444444444" cy="66.66471740165412" r="2" fill="rgb(0,0,255)"/><circle cx="499.4949494949495" cy="69.98147233389119" r="2" fill="rgb(0,0,255)"/><circle cx="504.5454545454545" cy="65.30975622332289" r="2" fill="rgb(0,0,255)"/><circle cx="509.59595959595964" cy="57.726047838530064" r="2" fill="rgb(0,0,255)"/><circle cx="514.6464646464647" cy="57.49279904981654" r="2" fill="rgb(0,0,255)"/><circle cx="519.6969696969697" cy="56.74825349110006" r="2" fill="rgb(0,0,255)"/><circle cx="524.7474747474748" cy="57.57739066811297" r="2" fill="rgb(0,0,255)"/><circle cx="529.7979797979798" cy="54.63491728558972" r="2" fill="rgb(0,0,255)"/><circle cx="534.8484848484849" cy="56.716243051034894" r="2" fill="rgb(0,0,255)"/><circle cx="539.8989898989898" cy="65.5108461877254" r="2" fill="rgb(0,0,255)"/><circle cx="544.9494949494949" cy="64.05577590884576" r="2" fill="rgb(0,0,255)"/><circle cx="550.0" cy="58.027564822281306" r="2" fill="rgb(0,0,255)"/><polyline points="50.0,62.047607939090824 55.05050505050505,63.4378662239389 60.101010101010104,62.08037933052077 65.15151515151516,61.513279528832356 70.20202020202021,60.42249089163806 75.25252525252526,60.6059318290159 80.30303030303031,60.42127793902938 85.35353535353535,60.55569817383724 90.40404040404042,59.93588500045678 95.45454545454545,60.02581470801823 100.5050505050505,59.77237279387492 105.55555555555554,60.610577781337895 110.60606060606061,59.95941012452482 115.65656565656566,59.21187535336429 120.7070707070707,60.468314168592826 125.75757575757576,59.170296455935954 130.80808080808083,59.7693512665324 135.85858585858585,59.965096750420344 140.9090909090909,59.40898911849217 145.95959595959596,59.1050190699998 151.010101010101,58.716193800243275 156.06060606060606,58.85583293326795 161.1111111111111,58.670780245138474 166.16161616161617,58.65200201494423 171.21212121212122,58.81897620503764 176.26262626262627,58.65200201494423 181.31313131313132,58.320532695481006 186.36363636363635,58.51582083532048 191.4141414141414,58.252480016519485 196.46464646464648,58.35079396760875 201.51515151515153,58.48048966799598 206.56565656565658,58.1633681879423 211.61616161616163,58.1633681879423 216.66666666666666,58.35079396760875 221.7171717171717,58.1633681879423 226.76767676767676,58.09035182406035 231.8181818181818,58.252480016519485 236.86868686868686,58.23132914507261 241.91919191919192,58.05249224050942 246.96969696969697,58.15716705869738 252.02020202020202,58.15716705869738 257.07070707070704,58.036025553654895 262.1212121212121,58.07388513720588 267.1717171717172,58.1304887560849 272.2222222222222,58.23132914507261 277.27272727272725,57.998409010849514 282.32323232323233,58.26918872862365 287.3737373737374,58.23132914507261 292.42424242424244,58.02673434360372 297.47474747474746,58.02673434360372 302.52525252525254,58.12119754603373 307.57575757575756,58.12040685721297 312.62626262626264,58.23132914507261 317.67676767676767,58.042405576453575 322.7272727272727,58.23132914507261 327.77777777777777,58.247795831927135 332.8282828282828,58.247795831927135 337.8787878787879,58.18331704602883 342.92929292929296,58.23132914507261 347.979797979798,58.247795831927135 353.03030303030306,58.23132914507261 358.0808080808081,58.23132914507261 363.13131313131316,58.23132914507261 368.1818181818182,58.03171653098923 373.23232323232327,58.03171653098923 378.2828282828283,57.71109310204156 383.3333333333333,57.74696413781271 388.3838383838384,51.797933733544994 393.4343434343434,50.510632884909796 398.4848484848485,50.5408039713426 403.5353535353535,50.4549575018479 408.58585858585855,50.4549575018479 413.6363636363636,50.4549575018479 418.68686868686865,50.43849081499337 423.73737373737373,50.438342249823506 428.7878787878788,50.42551789662002 433.83838383838383,50.17882595733704 438.8888888888889,50.23542957621606 443.93939393939394,50.40063123144239 448.989898989899,50.368690473971014 454.04040404040404,50.33083089042009 459.0909090909091,50.22723340166294 464.14141414141415,50.22723340166294 469.19191919191917,50.34344233543942 474.24242424242425,50.210766714808415 479.2929292929293,50.26509298521387 484.34343434343435,50.28396778447666 489.3939393939394,50.30382828297138 494.4444444444444,50.31090138849271 499.4949494949495,50.22723340166294 504.5454545454545,50.14610600990949 509.59595959595964,50.23281839120358 514.6464646464647,50.222421908186334 519.6969696969697,50.16878868342667 524.7474747474748,50.12331861723783 529.7979797979798,50.16878868342667 534.8484848484849,50.03862973957075 539.8989898989898,50.03862973957075 544.9494949494949,50.03862973957075 550.0,50.0" fill="none" stroke="rgb(0,255,0)" stroke-width="1"/><circle cx="50.0" cy="62.047607939090824" r="2" fill="rgb(0,255,0)"/><circle cx="55.05050505050505" cy="63.4378662239389" r="2" fill="rgb(0,255,0)"/><circle cx="60.101010101010104" cy="62.08037933052077" r="2" fill="rgb(0,255,0)"/><circle cx="65.15151515151516" cy="61.513279528832356" r="2" fill="rgb(0,255,0)"/><circle cx="70.20202020202021" cy="60.42249089163806" r="2" fill="rgb(0,255,0)"/><circle cx="75.25252525252526" cy="60.6059318290159" r="2" fill="rgb(0,255,0)"/><circle cx="80.30303030303031" cy="60.42127793902938" r="2" fill="rgb(0,255,0)"/><circle cx="85.35353535353535" cy="60.55569817383724" r="2" fill="rgb(0,255,0)"/><circle cx="90.40404040404042" cy="59.93588500045678" r="2" fill="rgb(0,255,0)"/><circle cx="95.45454545454545" cy="60.02581470801823" r="2" fill="rgb(0,255,0)"/><circle cx="100.5050505050505" cy="59.77237279387492" r="2" fill="rgb(0,255,0)"/><circle cx="105.55555555555554" cy="60.610577781337895" r="2" fill="rgb(0,255,0)"/><circle cx="110.60606060606061" cy="59.95941012452482" r="2" fill="rgb(0,255,0)"/><circle cx="115.65656565656566" cy="59.21187535336429" r="2" fill="rgb(0,255,0)"/><circle cx="120.7070707070707" cy="60.468314168592826" r="2" fill="rgb(0,255,0)"/><circle cx="125.75757575757576" cy="59.170296455935954" r="2" fill="rgb(0,255,0)"/><circle cx="130.80808080808083" cy="59.7693512665324" r="2" fill="rgb(0,255,0)"/><circle cx="135.85858585858585" cy="59.965096750420344" r="2" fill="rgb(0,255,0)"/><circle cx="140.9090909090909" cy="59.40898911849217" r="2" fill="rgb(0,255,0)"/><circle cx="145.95959595959596" cy="59.1050190699998" r="2" fill="rgb(0,255,0)"/><circle cx="151.010101010101" cy="58.716193800243275" r="2" fill="rgb(0,255,0)"/><circle cx="156.06060606060606" cy="58.85583293326795" r="2" fill="rgb(0,255,0)"/><circle cx="161.1111111111111" cy="58.670780245138474" r="2" fill="rgb(0,255,0)"/><circle cx="166.16161616161617" cy="58.65200201494423" r="2" fill="rgb(0,255,0)"/><circle cx="171.21212121212122" cy="58.81897620503764" r="2" fill="rgb(0,255,0)"/><circle cx="176.26262626262627" cy="58.65200201494423" r="2" fill="rgb(0,255,0)"/><circle cx="181.31313131313132" cy="58.320532695481006" r="2" fill="rgb(0,255,0)"/><circle cx="186.36363636363635" cy="58.51582083532048" r="2" fill="rgb(0,255,0)"/><circle cx="191.4141414141414" cy="58.252480016519485" r="2" fill="rgb(0,255,0)"/><circle cx="196.46464646464648" cy="58.35079396760875" r="2" fill="rgb(0,255,0)"/><circle cx="201.51515151515153" cy="58.48048966799598" r="2" fill="rgb(0,255,0)"/><circle cx="206.56565656565658" cy="58.1633681879423" r="2" fill="rgb(0,255,0)"/><circle cx="211.61616161616163" cy="58.1633681879423" r="2" fill="rgb(0,255,0)"/><circle cx="216.66666666666666" cy="58.35079396760875" r="2" fill="rgb(0,255,0)"/><circle cx="221.7171717171717" cy="58.1633681879423" r="2" fill="rgb(0,255,0)"/><circle cx="226.76767676767676" cy="58.09035182406035" r="2" fill="rgb(0,255,0)"/><circle cx="231.8181818181818" cy="58.252480016519485" r="2" fill="rgb(0,255,0)"/><circle cx="236.86868686868686" cy="58.23132914507261" r="2" fill="rgb(0,255,0)"/><circle cx="241.91919191919192" cy="58.05249224050942" r="2" fill="rgb(0,255,0)"/><circle cx="246.96969696969697" cy="58.15716705869738" r="2" fill="rgb(0,255,0)"/><circle cx="252.02020202020202" cy="58.15716705869738" r="2" fill="rgb(0,255,0)"/><circle cx="257.07070707070704" cy="58.036025553654895" r="2" fill="rgb(0,255,0)"/><circle cx="262.1212121212121" cy="58.07388513720588" r="2" fill="rgb(0,255,0)"/><circle cx="267.1717171717172" cy="58.1304887560849" r="2" fill="rgb(0,255,0)"/><circle cx="272.2222222222222" cy="58.23132914507261" r="2" fill="rgb(0,255,0)"/><circle cx="277.27272727272725" cy="57.998409010849514" r="2" fill="rgb(0,255,0)"/><circle cx="282.32323232323233" cy="58.26918872862365" r="2" fill="rgb(0,255,0)"/><circle cx="287.3737373737374" cy="58.23132914507261" r="2" fill="rgb(0,255,0)"/><circle cx="292.42424242424244" cy="58.02673434360372" r="2" fill="rgb(0,255,0)"/><circle cx="297.47474747474746" cy="58.02673434360372" r="2" fill="rgb(0,255,0)"/><circle cx="302.52525252525254" cy="58.12119754603373" r="2" fill="rgb(0,255,0)"/><circle cx="307.57575757575756" cy="58.12040685721297" r="2" fill="rgb(0,255,0)"/><circle cx="312.62626262626264" cy="58.23132914507261" r="2" fill="rgb(0,255,0)"/><circle cx="317.67676767676767" cy="58.042405576453575" r="2" fill="rgb(0,255,0)"/><circle cx="322.7272727272727" cy="58.23132914507261" r="2" fill="rgb(0,255,0)"/><circle cx="327.77777777777777" cy="58.247795831927135" r="2" fill="rgb(0,255,0)"/><circle cx="332.8282828282828" cy="58.247795831927135" r="2" fill="rgb(0,255,0)"/><circle cx="337.8787878787879" cy="58.18331704602883" r="2" fill="rgb(0,255,0)"/><circle cx="342.92929292929296" cy="58.23132914507261" r="2" fill="rgb(0,255,0)"/><circle cx="347.979797979798" cy="58.247795831927135" r="2" fill="rgb(0,255,0)"/><circle cx="353.03030303030306" cy="58.23132914507261" r="2" fill="rgb(0,255,0)"/><circle cx="358.0808080808081" cy="58.23132914507261" r="2" fill="rgb(0,255,0)"/><circle cx="363.13131313131316" cy="58.23132914507261" r="2" fill="rgb(0,255,0)"/><circle cx="368.1818181818182" cy="58.03171653098923" r="2" fill="rgb(0,255,0)"/><circle cx="373.23232323232327" cy="58.03171653098923" r="2" fill="rgb(0,255,0)"/><circle cx="378.2828282828283" cy="57.71109310204156" r="2" fill="rgb(0,255,0)"/><circle cx="383.3333333333333" cy="57.74696413781271" r="2" fill="rgb(0,255,0)"/><circle cx="388.3838383838384" cy="51.797933733544994" r="2" fill="rgb(0,255,0)"/><circle cx="393.4343434343434" cy="50.510632884909796" r="2" fill="rgb(0,255,0)"/><circle cx="398.4848484848485" cy="50.5408039713426" r="2" fill="rgb(0,255,0)"/><circle cx="403.5353535353535" cy="50.4549575018479" r="2" fill="rgb(0,255,0)"/><circle cx="408.58585858585855" cy="50.4549575018479" r="2" fill="rgb(0,255,0)"/><circle cx="413.6363636363636" cy="50.4549575018479" r="2" fill="rgb(0,255,0)"/><circle cx="418.68686868686865" cy="50.43849081499337" r="2" fill="rgb(0,255,0)"/><circle cx="423.73737373737373" cy="50.438342249823506" r="2" fill="rgb(0,255,0)"/><circle cx="428.7878787878788" cy="50.42551789662002" r="2" fill="rgb(0,255,0)"/><circle cx="433.83838383838383" cy="50.17882595733704" r="2" fill="rgb(0,255,0)"/><circle cx="438.8888888888889" cy="50.23542957621606" r="2" fill="rgb(0,255,0)"/><circle cx="443.93939393939394" cy="50.40063123144239" r="2" fill="rgb(0,255,0)"/><circle cx="448.989898989899" cy="50.368690473971014" r="2" fill="rgb(0,255,0)"/><circle cx="454.04040404040404" cy="50.33083089042009" r="2" fill="rgb(0,255,0)"/><circle cx="459.0909090909091" cy="50.22723340166294" r="2" fill="rgb(0,255,0)"/><circle cx="464.14141414141415" cy="50.22723340166294" r="2" fill="rgb(0,255,0)"/><circle cx="469.19191919191917" cy="50.34344233543942" r="2" fill="rgb(0,255,0)"/><circle cx="474.24242424242425" cy="50.210766714808415" r="2" fill="rgb(0,255,0)"/><circle cx="479.2929292929293" cy="50.26509298521387" r="2" fill="rgb(0,255,0)"/><circle cx="484.34343434343435" cy="50.28396778447666" r="2" fill="rgb(0,255,0)"/><circle cx="489.3939393939394" cy="50.30382828297138" r="2" fill="rgb(0,255,0)"/><circle cx="494.4444444444444" cy="50.31090138849271" r="2" fill="rgb(0,255,0)"/><circle cx="499.4949494949495" cy="50.22723340166294" r="2" fill="rgb(0,255,0)"/><circle cx="504.5454545454545" cy="50.14610600990949" r="2" fill="rgb(0,255,0)"/><circle cx="509.59595959595964" cy="50.23281839120358" r="2" fill="rgb(0,255,0)"/><circle cx="514.6464646464647" cy="50.222421908186334" r="2" fill="rgb(0,255,0)"/><circle cx="519.6969696969697" cy="50.16878868342667" r="2" fill="rgb(0,255,0)"/><circle cx="524.7474747474748" cy="50.12331861723783" r="2" fill="rgb(0,255,0)"/><circle cx="529.7979797979798" cy="50.16878868342667" r="2" fill="rgb(0,255,0)"/><circle cx="534.8484848484849" cy="50.03862973957075" r="2" fill="rgb(0,255,0)"/><circle cx="539.8989898989898" cy="50.03862973957075" r="2" fill="rgb(0,255,0)"/><circle cx="544.9494949494949" cy="50.03862973957075" r="2" fill="rgb(0,255,0)"/><circle cx="550.0" cy="50.0" r="2" fill="rgb(0,255,0)"/><text x="350.0" y="20.0" text-anchor="middle" fill="rgb(0,0,0)" font-size="20.0">GA Demo</text><text x="350.0" y="575.0" text-anchor="middle" fill="rgb(0,0,0)" font-size="12.0">generation</text><text transform="rotate(-90.0 20.0 300.0)" x="20.0" y="300.0" text-anchor="middle" fill="rgb(0,0,0)" font-size="12.0">fitness</text><text x="620" y="62" fill="rgb(0,0,0)" font-size="12">min</text><text x="620" y="74" fill="rgb(0,0,255)" font-size="12">ave</text><text x="620" y="86" fill="rgb(0,255,0)" font-size="12">max</text>
      Sorry, your browser does not support inline SVG.
    </svg>