<?xml version='1.0' encoding='UTF-8'?>
<svg version="1.1" width="700.0" height="600.0" onload="init(evt)" xmlns="http://www.w3.org/2000/svg">
      <style>.caption {
  font-size: 14px;
  font-family: Georgia, serif;
}
</style>
      <script type="text/ecmascript"><![CDATA[
function init(evt) {
  if ( window.svgDocument == null ) {
    svgDocument = evt.target.ownerDocument;
  }
}

function RectHover(evt, i, c) {
  rect = svgDocument.getElementById('rect' + i);
  if( c != null ) {
    rect.setAttributeNS(null, "fill", c)  
  }
  tooltiptext = svgDocument.getElementById('tooltiptext' + i);
  tooltipbg = svgDocument.getElementById('tooltipbg' + i);
  if( tooltipbg != null) {
    tbb = tooltiptext.getBBox();
    tooltipbg.setAttributeNS(null, "width", tbb.width);
    tooltipbg.setAttributeNS(null, "height", tbb.height);
    tooltipbg.setAttributeNS(null, "x", tbb.x);
    tooltipbg.setAttributeNS(null, "y", tbb.y);
    tooltipbg.setAttributeNS(null, "visibility", "visible");
  }
  tooltiptext.setAttributeNS(null,"visibility","visible");
}

function RectUnhover(evt, i, c) {
  rect = svgDocument.getElementById('rect' + i);
  if( c != null ) {
    rect.setAttributeNS(null, "fill", c)  
  }
  tooltiptext = svgDocument.getElementById('tooltiptext' + i);
  tooltiptext.setAttributeNS(null,"visibility","hidden");
  tooltipbg = svgDocument.getElementById('tooltipbg' + i);
  if( tooltipbg != null ) {
    tooltipbg.setAttributeNS(null,"visibility","hidden");
  }
}
]]></script>
      <line x1="50.0" y1="550.0" x2="550.0" y2="550.0" stroke="rgb(0,0,0)" stroke-width="1"/><line x1="50.0" y1="550.0" x2="50.0" y2="50.0" stroke="rgb(0,0,0)" stroke-width="1"/><line x1="50.0" y1="550.0" x2="50.0" y2="50.0" stroke="rgb(192,192,192)" stroke-width="1"/><line x1="50.0" y1="548.0" x2="50.0" y2="552.0" stroke="rgb(192,192,192)" stroke-width="1"/><text text-anchor="middle" alignment-baseline="hanging" x="50.0" y="553.0" font-size="12.0">0</text><line x1="100.5050505050505" y1="550.0" x2="100.5050505050505" y2="50.0" stroke="rgb(192,192,192)" stroke-width="1"/><line x1="100.5050505050505" y1="548.0" x2="100.5050505050505" y2="552.0" stroke="rgb(192,192,192)" stroke-width="1"/><text text-anchor="middle" alignment-baseline="hanging" x="100.5050505050505" y="553.0" font-size="12.0">10</text><line x1="151.010101010101" y1="550.0" x2="151.010101010101" y2="50.0" stroke="rgb(192,192,192)" stroke-width="1"/><line x1="151.010101010101" y1="548.0" x2="151.010101010101" y2="552.0" stroke="rgb(192,192,192)" stroke-width="1"/><text text-anchor="middle" alignment-baseline="hanging" x="151.010101010101" y="553.0" font-size="12.0">20</text><line x1="201.51515151515153" y1="550.0" x2="201.51515151515153" y2="50.0" stroke="rgb(192,192,192)" stroke-width="1"/><line x1="201.51515151515153" y1="548.0" x2="201.51515151515153" y2="552.0" stroke="rgb(192,192,192)" stroke-width="1"/><text text-anchor="middle" alignment-baseline="hanging" x="201.51515151515153" y="553.0" font-size="12.0">30</text><line x1="252.02020202020202" y1="550.0" x2="252.02020202020202" y2="50.0" stroke="rgb(192,192,192)" stroke-width="1"/><line x1="252.02020202020202" y1="548.0" x2="252.02020202020202" y2="552.0" stroke="rgb(192,192,192)" stroke-width="1"/><text text-anchor="middle" alignment-baseline="hanging" x="252.02020202020202" y="553.0" font-size="12.0">40</text><line x1="302.52525252525254" y1="550.0" x2="302.52525252525254" y2="50.0" stroke="rgb(192,192,192)" stroke-width="1"/><line x1="302.52525252525254" y1="548.0" x2="302.52525252525254" y2="552.0" stroke="rgb(192,192,192)" stroke-width="1"/><text text-anchor="middle" alignment-baseline="hanging" x="302.52525252525254" y="553.0" font-size="12.0">50</text><line x1="353.03030303030306" y1="550.0" x2="353.03030303030306" y2="50.0" stroke="rgb(192,192,192)" stroke-width="1"/><line x1="353.03030303030306" y1="548.0" x2="353.03030303030306" y2="552.0" stroke="rgb(192,192,192)" stroke-width="1"/><text text-anchor="middle" alignment-baseline="hanging" x="353.03030303030306" y="553.0" font-size="12.0">60</text><line x1="403.5353535353535" y1="550.0" x2="403.5353535353535" y2="50.0" stroke="rgb(192,192,192)" stroke-width="1"/><line x1="403.5353535353535" y1="548.0" x2="403.5353535353535" y2="552.0" stroke="rgb(192,192,192)" stroke-width="1"/><text text-anchor="middle" alignment-baseline="hanging" x="403.5353535353535" y="553.0" font-size="12.0">70</text><line x1="454.04040404040404" y1="550.0" x2="454.04040404040404" y2="50.0" stroke="rgb(192,192,192)" stroke-width="1"/><line x1="454.04040404040404" y1="548.0" x2="454.04040404040404" y2="552.0" stroke="rgb(192,192,192)" stroke-width="1"/><text text-anchor="middle" alignment-baseline="hanging" x="454.04040404040404" y="553.0" font-size="12.0">80</text><line x1="504.5454545454545" y1="550.0" x2="504.5454545454545" y2="50.0" stroke="rgb(192,192,192)" stroke-width="1"/><line x1="504.5454545454545" y1="548.0" x2="504.5454545454545" y2="552.0" stroke="rgb(192,192,192)" stroke-width="1"/><text text-anchor="middle" alignment-baseline="hanging" x="504.5454545454545" y="553.0" font-size="12.0">90</text><line x1="50.0" y1="550.0" x2="550.0" y2="550.0" stroke="rgb(192,192,192)" stroke-width="1"/><text text-anchor="end" alignment-baseline="middle" x="45.0" y="550.0" font-size="12.0">0.0</text><line x1="48.0" y1="550.0" x2="52.0" y2="550.0" stroke="rgb(192,192,192)" stroke-width="1"/><line x1="50.0" y1="367.7610281554445" x2="550.0" y2="367.7610281554445" stroke="rgb(192,192,192)" stroke-width="1"/><text text-anchor="end" alignment-baseline="middle" x="45.0" y="367.7610281554445" font-size="12.0">1000.0</text><line x1="48.0" y1="367.7610281554445" x2="52.0" y2="367.7610281554445" stroke="rgb(192,192,192)" stroke-width="1"/><line x1="50.0" y1="185.5220563108889" x2="550.0" y2="185.5220563108889" stroke="rgb(192,192,192)" stroke-width="1"/><text text-anchor="end" alignment-baseline="middle" x="45.0" y="185.5220563108889" font-size="12.0">2000.0</text><line x1="48.0" y1="185.5220563108889" x2="52.0" y2="185.5220563108889" stroke="rgb(192,192,192)" stroke-width="1"/><polyline points="50.0,433.0803836227208 55.05050505050505,415.46591593335916 60.101010101010104,422.65611462899244 65.15151515151516,421.04046731158326 70.20202020202021,404.36835830224686 75.25252525252526,413.2092609106354 80.30303030303031,426.8998353599653 85.35353535353535,426.76261607426824 90.40404040404042,428.1708800928873 95.45454545454545,424.9261817866106 100.5050505050505,412.0533992505383 105.55555555555554,429.7163601491236 110.60606060606061,429.3335364938562 115.65656565656566,429.57374798096333 120.7070707070707,254.1182912943612 125.75757575757576,389.41658505252127 130.80808080808083,256.8018649418169 135.85858585858585,383.2976813735577 140.9090909090909,386.3263757651895 145.95959595959596,395.60617505155034 151.010101010101,316.1701717980666 156.06060606060606,326.3199796925078 161.1111111111111,277.3144074106156 166.16161616161617,403.4705687814486 171.21212121212122,381.52485930585453 176.26262626262627,372.6389586269597 181.31313131313132,414.2191226121092 186.36363636363635,274.546364244483 191.4141414141414,398.2470343683836 196.46464646464648,354.59215445128365 201.51515151515153,413.78474926471597 206.56565656565658,413.5611448646124 211.61616161616163,365.8642608847159 216.66666666666666,338.55793962496057 221.7171717171717,382.7766093111394 226.76767676767676,382.8015801472129 231.8181818181818,406.63068647596646 236.86868686868686,406.22058351539783 241.91919191919192,406.27564729490757 246.96969696969697,396.0532037926442 252.02020202020202,372.472607430052 257.07070707070704,384.013405786641 262.1212121212121,385.50846902133344 267.1717171717172,384.6896005134506 272.2222222222222,357.53618297836675 277.27272727272725,332.74358349784603 282.32323232323233,410.72866773047707 287.3737373737374,411.23362472865745 292.42424242424244,342.6544374634005 297.47474747474746,344.49424760689317 302.52525252525254,320.86415156854974 307.57575757575756,306.682083380282 312.62626262626264,395.07691662742445 317.67676767676767,394.97071052479777 322.7272727272727,416.13357401440504 327.77777777777777,341.55426442842224 332.8282828282828,343.98252752189404 337.8787878787879,383.6383413574275 342.92929292929296,383.0175085418506 347.979797979798,382.6929310030464 353.03030303030306,408.64679727621456 358.0808080808081,379.61446861557783 363.13131313131316,293.1049368564721 368.1818181818182,293.21114295909877 373.23232323232327,292.85518886191596 378.2828282828283,291.30533638264643 383.3333333333333,369.37666898334965 388.3838383838384,369.41218509041806 393.4343434343434,287.8153944463914 398.4848484848485,287.14480086856764 403.5353535353535,312.2481235146285 408.58585858585855,312.6845387557522 413.6363636363636,388.3634872553514 418.68686868686865,396.071522101403 423.73737373737373,278.86835329902385 428.7878787878788,345.96006964087553 433.83838383838383,345.9379020258898 438.8888888888889,403.1815044194349 443.93939393939394,312.6622526707679 448.989898989899,383.8519303721254 454.04040404040404,332.86637057508165 459.0909090909091,277.139414628856 464.14141414141415,400.16524759424954 469.19191919191917,379.1758383191123 474.24242424242425,379.4116307446536 479.2929292929293,364.1947301424798 484.34343434343435,355.71526912991635 489.3939393939394,353.9277670923798 494.4444444444444,316.8819717448614 499.4949494949495,288.6869902926328 504.5454545454545,411.5199272714512 509.59595959595964,397.2602492985543 514.6464646464647,222.55993236586704 519.6969696969697,404.98433302312776 524.7474747474748,318.1193984848096 529.7979797979798,318.1193984848096 534.8484848484849,322.7278155278033 539.8989898989898,390.581326964018 544.9494949494949,390.53999489738317 550.0,305.67288646749245" fill="none" stroke="rgb(0,0,0)" stroke-width="1"/><circle cx="50.0" cy="433.0803836227208" r="2" fill="rgb(0,0,0)"/><circle cx="55.05050505050505" cy="415.46591593335916" r="2" fill="rgb(0,0,0)"/><circle cx="60.101010101010104" cy="422.65611462899244" r="2" fill="rgb(0,0,0)"/><circle cx="65.15151515151516" cy="421.04046731158326" r="2" fill="rgb(0,0,0)"/><circle cx="70.20202020202021" cy="404.36835830224686" r="2" fill="rgb(0,0,0)"/><circle cx="75.25252525252526" cy="413.2092609106354" r="2" fill="rgb(0,0,0)"/><circle cx="80.30303030303031" cy="426.8998353599653" r="2" fill="rgb(0,0,0)"/><circle cx="85.35353535353535" cy="426.76261607426824" r="2" fill="rgb(0,0,0)"/><circle cx="90.40404040404042" cy="428.1708800928873" r="2" fill="rgb(0,0,0)"/><circle cx="95.45454545454545" cy="424.9261817866106" r="2" fill="rgb(0,0,0)"/><circle cx="100.5050505050505" cy="412.0533992505383" r="2" fill="rgb(0,0,0)"/><circle cx="105.55555555555554" cy="429.7163601491236" r="2" fill="rgb(0,0,0)"/><circle cx="110.60606060606061" cy="429.3335364938562" r="2" fill="rgb(0,0,0)"/><circle cx="115.65656565656566" cy="429.57374798096333" r="2" fill="rgb(0,0,0)"/><circle cx="120.7070707070707" cy="254.1182912943612" r="2" fill="rgb(0,0,0)"/><circle cx="125.75757575757576" cy="389.41658505252127" r="2" fill="rgb(0,0,0)"/><circle cx="130.80808080808083" cy="256.8018649418169" r="2" fill="rgb(0,0,0)"/><circle cx="135.85858585858585" cy="383.2976813735577" r="2" fill="rgb(0,0,0)"/><circle cx="140.9090909090909" cy="386.3263757651895" r="2" fill="rgb(0,0,0)"/><circle cx="145.95959595959596" cy="395.60617505155034" r="2" fill="rgb(0,0,0)"/><circle cx="151.010101010101" cy="316.1701717980666" r="2" fill="rgb(0,0,0)"/><circle cx="156.06060606060606" cy="326.3199796925078" r="2" fill="rgb(0,0,0)"/><circle cx="161.1111111111111" cy="277.3144074106156" r="2" fill="rgb(0,0,0)"/><circle cx="166.16161616161617" cy="403.4705687814486" r="2" fill="rgb(0,0,0)"/><circle cx="171.21212121212122" cy="381.52485930585453" r="2" fill="rgb(0,0,0)"/><circle cx="176.26262626262627" cy="372.6389586269597" r="2" fill="rgb(0,0,0)"/><circle cx="181.31313131313132" cy="414.2191226121092" r="2" fill="rgb(0,0,0)"/><circle cx="186.36363636363635" cy="274.546364244483" r="2" fill="rgb(0,0,0)"/><circle cx="191.4141414141414" cy="398.2470343683836" r="2" fill="rgb(0,0,0)"/><circle cx="196.46464646464648" cy="354.59215445128365" r="2" fill="rgb(0,0,0)"/><circle cx="201.51515151515153" cy="413.78474926471597" r="2" fill="rgb(0,0,0)"/><circle cx="206.56565656565658" cy="413.5611448646124" r="2" fill="rgb(0,0,0)"/><circle cx="211.61616161616163" cy="365.8642608847159" r="2" fill="rgb(0,0,0)"/><circle cx="216.66666666666666" cy="338.55793962496057" r="2" fill="rgb(0,0,0)"/><circle cx="221.7171717171717" cy="382.7766093111394" r="2" fill="rgb(0,0,0)"/><circle cx="226.76767676767676" cy="382.8015801472129" r="2" fill="rgb(0,0,0)"/><circle cx="231.8181818181818" cy="406.63068647596646" r="2" fill="rgb(0,0,0)"/><circle cx="236.86868686868686" cy="406.22058351539783" r="2" fill="rgb(0,0,0)"/><circle cx="241.91919191919192" cy="406.27564729490757" r="2" fill="rgb(0,0,0)"/><circle cx="246.96969696969697" cy="396.0532037926442" r="2" fill="rgb(0,0,0)"/><circle cx="252.02020202020202" cy="372.472607430052" r="2" fill="rgb(0,0,0)"/><circle cx="257.07070707070704" cy="384.013405786641" r="2" fill="rgb(0,0,0)"/><circle cx="262.1212121212121" cy="385.50846902133344" r="2" fill="rgb(0,0,0)"/><circle cx="267.1717171717172" cy="384.6896005134506" r="2" fill="rgb(0,0,0)"/><circle cx="272.2222222222222" cy="357.53618297836675" r="2" fill="rgb(0,0,0)"/><circle cx="277.27272727272725" cy="332.74358349784603" r="2" fill="rgb(0,0,0)"/><circle cx="282.32323232323233" cy="410.72866773047707" r="2" fill="rgb(0,0,0)"/><circle cx="287.3737373737374" cy="411.23362472865745" r="2" fill="rgb(0,0,0)"/><circle cx="292.42424242424244" cy="342.6544374634005" r="2" fill="rgb(0,0,0)"/><circle cx="297.47474747474746" cy="344.49424760689317" r="2" fill="rgb(0,0,0)"/><circle cx="302.52525252525254" cy="320.86415156854974" r="2" fill="rgb(0,0,0)"/><circle cx="307.57575757575756" cy="306.682083380282" r="2" fill="rgb(0,0,0)"/><circle cx="312.62626262626264" cy="395.07691662742445" r="2" fill="rgb(0,0,0)"/><circle cx="317.67676767676767" cy="394.97071052479777" r="2" fill="rgb(0,0,0)"/><circle cx="322.7272727272727" cy="416.13357401440504" r="2" fill="rgb(0,0,0)"/><circle cx="327.77777777777777" cy="341.55426442842224" r="2" fill="rgb(0,0,0)"/><circle cx="332.8282828282828" cy="343.98252752189404" r="2" fill="rgb(0,0,0)"/><circle cx="337.8787878787879" cy="383.6383413574275" r="2" fill="rgb(0,0,0)"/><circle cx="342.92929292929296" cy="383.0175085418506" r="2" fill="rgb(0,0,0)"/><circle cx="347.979797979798" cy="382.6929310030464" r="2" fill="rgb(0,0,0)"/><circle cx="353.03030303030306" cy="408.64679727621456" r="2" fill="rgb(0,0,0)"/><circle cx="358.0808080808081" cy="379.61446861557783" r="2" fill="rgb(0,0,0)"/><circle cx="363.13131313131316" cy="293.1049368564721" r="2" fill="rgb(0,0,0)"/><circle cx="368.1818181818182" cy="293.21114295909877" r="2" fill="rgb(0,0,0)"/><circle cx="373.23232323232327" cy="292.85518886191596" r="2" fill="rgb(0,0,0)"/><circle cx="378.2828282828283" cy="291.30533638264643" r="2" fill="rgb(0,0,0)"/><circle cx="383.3333333333333" cy="369.37666898334965" r="2" fill="rgb(0,0,0)"/><circle cx="388.3838383838384" cy="369.41218509041806" r="2" fill="rgb(0,0,0)"/><circle cx="393.4343434343434" cy="287.8153944463914" r="2" fill="rgb(0,0,0)"/><circle cx="398.4848484848485" cy="287.14480086856764" r="2" fill="rgb(0,0,0)"/><circle cx="403.5353535353535" cy="312.2481235146285" r="2" fill="rgb(0,0,0)"/><circle cx="408.58585858585855" cy="312.6845387557522" r="2" fill="rgb(0,0,0)"/><circle cx="413.6363636363636" cy="388.3634872553514" r="2" fill="rgb(0,0,0)"/><circle cx="418.68686868686865" cy="396.071522101403" r="2" fill="rgb(0,0,0)"/><circle cx="423.73737373737373" cy="278.86835329902385" r="2" fill="rgb(0,0,0)"/><circle cx="428.7878787878788" cy="345.96006964087553" r="2" fill="rgb(0,0,0)"/><circle cx="433.83838383838383" cy="345.9379020258898" r="2" fill="rgb(0,0,0)"/><circle cx="438.8888888888889" cy="403.1815044194349" r="2" fill="rgb(0,0,0)"/><circle cx="443.93939393939394" cy="312.6622526707679" r="2" fill="rgb(0,0,0)"/><circle cx="448.989898989899" cy="383.8519303721254" r="2" fill="rgb(0,0,0)"/><circle cx="454.04040404040404" cy="332.86637057508165" r="2" fill="rgb(0,0,0)"/><circle cx="459.0909090909091" cy="277.139414628856" r="2" fill="rgb(0,0,0)"/><circle cx="464.14141414141415" cy="400.16524759424954" r="2" fill="rgb(0,0,0)"/><circle cx="469.19191919191917" cy="379.1758383191123" r="2" fill="rgb(0,0,0)"/><circle cx="474.24242424242425" cy="379.4116307446536" r="2" fill="rgb(0,0,0)"/><circle cx="479.2929292929293" cy="364.1947301424798" r="2" fill="rgb(0,0,0)"/><circle cx="484.34343434343435" cy="355.71526912991635" r="2" fill="rgb(0,0,0)"/><circle cx="489.3939393939394" cy="353.9277670923798" r="2" fill="rgb(0,0,0)"/><circle cx="494.4444444444444" cy="316.8819717448614" r="2" fill="rgb(0,0,0)"/><circle cx="499.4949494949495" cy="288.6869902926328" r="2" fill="rgb(0,0,0)"/><circle cx="504.5454545454545" cy="411.5199272714512" r="2" fill="rgb(0,0,0)"/><circle cx="509.59595959595964" cy="397.2602492985543" r="2" fill="rgb(0,0,0)"/><circle cx="514.6464646464647" cy="222.55993236586704" r="2" fill="rgb(0,0,0)"/><circle cx="519.6969696969697" cy="404.98433302312776" r="2" fill="rgb(0,0,0)"/><circle cx="524.7474747474748" cy="318.1193984848096" r="2" fill="rgb(0,0,0)"/><circle cx="529.7979797979798" cy="318.1193984848096" r="2" fill="rgb(0,0,0)"/><circle cx="534.8484848484849" cy="322.7278155278033" r="2" fill="rgb(0,0,0)"/><circle cx="539.8989898989898" cy="390.581326964018" r="2" fill="rgb(0,0,0)"/><circle cx="544.9494949494949" cy="390.53999489738317" r="2" fill="rgb(0,0,0)"/><circle cx="550.0" cy="305.67288646749245" r="2" fill="rgb(0,0,0)"/><polyline points="50.0,250.3655377064564 55.05050505050505,234.23577676320502 60.101010101010104,214.42593374923746 65.15151515151516,188.56574936160456 70.20202020202021,175.9488706806805 75.25252525252526,150.25482510307694 80.30303030303031,142.17787324105592 85.35353535353535,137.60098732762083 90.40404040404042,140.53131801684935 95.45454545454545,126.88173137584681 100.5050505050505,134.09718605626534 105.55555555555554,115.39208831350868 110.60606060606061,106.41455311987642 115.65656565656566,98.89237370613392 120.7070707070707,89.97181003577901 125.75757575757576,87.53628724861153 130.80808080808083,84.57738096750177 135.85858585858585,86.85933351182075 140.9090909090909,95.11764504682128 145.95959595959596,103.7801635413528 151.010101010101,90.46216121696222 156.06060606060606,86.59704549843985 161.1111111111111,83.23087557907257 166.16161616161617,92.99084878001133 171.21212121212122,87.28795782815456 176.26262626262627,89.93222721975309 181.31313131313132,91.05724981465772 186.36363636363635,78.85155850590945 191.4141414141414,82.09292243166294 196.46464646464648,80.03375873890326 201.51515151515153,91.40740918254875 206.56565656565658,93.6505909743529 211.61616161616163,91.0740029587136 216.66666666666666,81.3657793411212 221.7171717171717,82.2582850392227 226.76767676767676,84.01836931884628 231.8181818181818,90.56693469245744 236.86868686868686,84.10935532530306 241.91919191919192,92.32831103587768 246.96969696969697,85.20312586110958 252.02020202020202,88.82791029855377 257.07070707070704,82.68750300003495 262.1212121212121,86.27719176069411 267.1717171717172,79.17482045307935 272.2222222222222,80.77162630748802 277.27272727272725,74.78997798542201 282.32323232323233,78.78367630437208 287.3737373737374,69.17471677656425 292.42424242424244,67.51048613286821 297.47474747474746,71.88546174885386 302.52525252525254,65.39244412725844 307.57575757575756,66.25090559405783 312.62626262626264,72.45974407172048 317.67676767676767,68.71034437461248 322.7272727272727,67.47670211342643 327.77777777777777,61.727592951339204 332.8282828282828,59.219800187171245 337.8787878787879,73.09994902174901 342.92929292929296,64.27201358795355 347.979797979798,67.60036492885462 353.03030303030306,66.02631366681476 358.0808080808081,62.491932581039464 363.13131313131316,57.39050855146235 368.1818181818182,57.519769964195575 373.23232323232327,57.12715605577296 378.2828282828283,56.767435008589075 383.3333333333333,67.7626080760607 388.3838383838384,67.7946308627869 393.4343434343434,59.112636851897605 398.4848484848485,63.06241788011096 403.5353535353535,68.34279181248434 408.58585858585855,66.45097275314049 413.6363636363636,66.96199633866303 418.68686868686865,74.2112762402881 423.73737373737373,61.718284252135675 428.7878787878788,69.93204932455842 433.83838383838383,61.31905920349027 438.8888888888889,64.77640948067807 443.93939393939394,59.738193612783675 448.989898989899,63.99823783471629 454.04040404040404,59.324558920147695 459.0909090909091,59.44726341042252 464.14141414141415,63.52790042863438 469.19191919191917,58.62005679570939 474.24242424242425,59.24078822568413 479.2929292929293,60.23488264808293 484.34343434343435,69.42545410789796 489.3939393939394,63.256950728185586 494.4444444444444,64.78241471203461 499.4949494949495,62.5677761275432 504.5454545454545,65.17592832944052 509.59595959595964,67.60034429398365 514.6464646464647,61.54894791960362 519.6969696969697,63.73143945760762 524.7474747474748,56.66515936578361 529.7979797979798,56.404624002111404 534.8484848484849,55.221658282094324 539.8989898989898,62.1170692542791 544.9494949494949,65.02870971431832 550.0,62.53081731329456" fill="none" stroke="rgb(0,0,255)" stroke-width="1"/><circle cx="50.0" cy="250.3655377064564" r="2" fill="rgb(0,0,255)"/><circle cx="55.05050505050505" cy="234.23577676320502" r="2" fill="rgb(0,0,255)"/><circle cx="60.101010101010104" cy="214.42593374923746" r="2" fill="rgb(0,0,255)"/><circle cx="65.15151515151516" cy="188.56574936160456" r="2" fill="rgb(0,0,255)"/><circle cx="70.20202020202021" cy="175.9488706806805" r="2" fill="rgb(0,0,255)"/><circle cx="75.25252525252526" cy="150.25482510307694" r="2" fill="rgb(0,0,255)"/><circle cx="80.30303030303031" cy="142.17787324105592" r="2" fill="rgb(0,0,255)"/><circle cx="85.35353535353535" cy="137.60098732762083" r="2" fill="rgb(0,0,255)"/><circle cx="90.40404040404042" cy="140.53131801684935" r="2" fill="rgb(0,0,255)"/><circle cx="95.45454545454545" cy="126.88173137584681" r="2" fill="rgb(0,0,255)"/><circle cx="100.5050505050505" cy="134.09718605626534" r="2" fill="rgb(0,0,255)"/><circle cx="105.55555555555554" cy="115.39208831350868" r="2" fill="rgb(0,0,255)"/><circle cx="110.60606060606061" cy="106.41455311987642" r="2" fill="rgb(0,0,255)"/><circle cx="115.65656565656566" cy="98.89237370613392" r="2" fill="rgb(0,0,255)"/><circle cx="120.7070707070707" cy="89.97181003577901" r="2" fill="rgb(0,0,255)"/><circle cx="125.75757575757576" cy="87.53628724861153" r="2" fill="rgb(0,0,255)"/><circle cx="130.80808080808083" cy="84.57738096750177" r="2" fill="rgb(0,0,255)"/><circle cx="135.85858585858585" cy="86.85933351182075" r="2" fill="rgb(0,0,255)"/><circle cx="140.9090909090909" cy="95.11764504682128" r="2" fill="rgb(0,0,255)"/><circle cx="145.95959595959596" cy="103.7801635413528" r="2" fill="rgb(0,0,255)"/><circle cx="151.010101010101" cy="90.46216121696222" r="2" fill="rgb(0,0,255)"/><circle cx="156.06060606060606" cy="86.59704549843985" r="2" fill="rgb(0,0,255)"/><circle cx="161.1111111111111" cy="83.23087557907257" r="2" fill="rgb(0,0,255)"/><circle cx="166.16161616161617" cy="92.99084878001133" r="2" fill="rgb(0,0,255)"/><circle cx="171.21212121212122" cy="87.28795782815456" r="2" fill="rgb(0,0,255)"/><circle cx="176.26262626262627" cy="89.93222721975309" r="2" fill="rgb(0,0,255)"/><circle cx="181.31313131313132" cy="91.05724981465772" r="2" fill="rgb(0,0,255)"/><circle cx="186.36363636363635" cy="78.85155850590945" r="2" fill="rgb(0,0,255)"/><circle cx="191.4141414141414" cy="82.09292243166294" r="2" fill="rgb(0,0,255)"/><circle cx="196.46464646464648" cy="80.03375873890326" r="2" fill="rgb(0,0,255)"/><circle cx="201.51515151515153" cy="91.40740918254875" r="2" fill="rgb(0,0,255)"/><circle cx="206.56565656565658" cy="93.6505909743529" r="2" fill="rgb(0,0,255)"/><circle cx="211.61616161616163" cy="91.0740029587136" r="2" fill="rgb(0,0,255)"/><circle cx="216.66666666666666" cy="81.3657793411212" r="2" fill="rgb(0,0,255)"/><circle cx="221.7171717171717" cy="82.2582850392227" r="2" fill="rgb(0,0,255)"/><circle cx="226.76767676767676" cy="84.01836931884628" r="2" fill="rgb(0,0,255)"/><circle cx="231.8181818181818" cy="90.56693469245744" r="2" fill="rgb(0,0,255)"/><circle cx="236.86868686868686" cy="84.10935532530306" r="2" fill="rgb(0,0,255)"/><circle cx="241.91919191919192" cy="92.32831103587768" r="2" fill="rgb(0,0,255)"/><circle cx="246.96969696969697" cy="85.20312586110958" r="2" fill="rgb(0,0,255)"/><circle cx="252.02020202020202" cy="88.82791029855377" r="2" fill="rgb(0,0,255)"/><circle cx="257.07070707070704" cy="82.68750300003495" r="2" fill="rgb(0,0,255)"/><circle cx="262.1212121212121" cy="86.27719176069411" r="2" fill="rgb(0,0,255)"/><circle cx="267.1717171717172" cy="79.17482045307935" r="2" fill="rgb(0,0,255)"/><circle cx="272.2222222222222" cy="80.77162630748802" r="2" fill="rgb(0,0,255)"/><circle cx="277.27272727272725" cy="74.78997798542201" r="2" fill="rgb(0,0,255)"/><circle cx="282.32323232323233" cy="78.78367630437208" r="2" fill="rgb(0,0,255)"/><circle cx="287.3737373737374" cy="69.17471677656425" r="2" fill="rgb(0,0,255)"/><circle cx="292.42424242424244" cy="67.51048613286821" r="2" fill="rgb(0,0,255)"/><circle cx="297.47474747474746" cy="71.88546174885386" r="2" fill="rgb(0,0,255)"/><circle cx="302.52525252525254" cy="65.39244412725844" r="2" fill="rgb(0,0,255)"/><circle cx="307.57575757575756" cy="66.25090559405783" r="2" fill="rgb(0,0,255)"/><circle cx="312.62626262626264" cy="72.45974407172048" r="2" fill="rgb(0,0,255)"/><circle cx="317.67676767676767" cy="68.71034437461248" r="2" fill="rgb(0,0,255)"/><circle cx="322.7272727272727" cy="67.47670211342643" r="2" fill="rgb(0,0,255)"/><circle cx="327.77777777777777" cy="61.727592951339204" r="2" fill="rgb(0,0,255)"/><circle cx="332.8282828282828" cy="59.219800187171245" r="2" fill="rgb(0,0,255)"/><circle cx="337.8787878787879" cy="73.09994902174901" r="2" fill="rgb(0,0,255)"/><circle cx="342.92929292929296" cy="64.27201358795355" r="2" fill="rgb(0,0,255)"/><circle cx="347.979797979798" cy="67.60036492885462" r="2" fill="rgb(0,0,255)"/><circle cx="353.03030303030306" cy="66.02631366681476" r="2" fill="rgb(0,0,255)"/><circle cx="358.0808080808081" cy="62.491932581039464" r="2" fill="rgb(0,0,255)"/><circle cx="363.13131313131316" cy="57.39050855146235" r="2" fill="rgb(0,0,255)"/><circle cx="368.1818181818182" cy="57.519769964195575" r="2" fill="rgb(0,0,255)"/><circle cx="373.23232323232327" cy="57.12715605577296" r="2" fill="rgb(0,0,255)"/><circle cx="378.2828282828283" cy="56.767435008589075" r="2" fill="rgb(0,0,255)"/><circle cx="383.3333333333333" cy="67.7626080760607" r="2" fill="rgb(0,0,255)"/><circle cx="388.3838383838384" cy="67.7946308627869" r="2" fill="rgb(0,0,255)"/><circle cx="393.4343434343434" cy="59.112636851897605" r="2" fill="rgb(0,0,255)"/><circle cx="398.4848484848485" cy="63.06241788011096" r="2" fill="rgb(0,0,255)"/><circle cx="403.5353535353535" cy="68.34279181248434" r="2" fill="rgb(0,0,255)"/><circle cx="408.58585858585855" cy="66.45097275314049" r="2" fill="rgb(0,0,255)"/><circle cx="413.6363636363636" cy="66.96199633866303" r="2" fill="rgb(0,0,255)"/><circle cx="418.68686868686865" cy="74.2112762402881" r="2" fill="rgb(0,0,255)"/><circle cx="423.73737373737373" cy="61.718284252135675" r="2" fill="rgb(0,0,255)"/><circle cx="428.7878787878788" cy="69.93204932455842" r="2" fill="rgb(0,0,255)"/><circle cx="433.83838383838383" cy="61.31905920349027" r="2" fill="rgb(0,0,255)"/><circle cx="438.8888888888889" cy="64.77640948067807" r="2" fill="rgb(0,0,255)"/><circle cx="443.93939393939394" cy="59.738193612783675" r="2" fill="rgb(0,0,255)"/><circle cx="448.989898989899" cy="63.99823783471629" r="2" fill="rgb(0,0,255)"/><circle cx="454.04040404040404" cy="59.324558920147695" r="2" fill="rgb(0,0,255)"/><circle cx="459.0909090909091" cy="59.44726341042252" r="2" fill="rgb(0,0,255)"/><circle cx="464.14141414141415" cy="63.52790042863438" r="2" fill="rgb(0,0,255)"/><circle cx="469.19191919191917" cy="58.62005679570939" r="2" fill="rgb(0,0,255)"/><circle cx="474.24242424242425" cy="59.24078822568413" r="2" fill="rgb(0,0,255)"/><circle cx="479.2929292929293" cy="60.23488264808293" r="2" fill="rgb(0,0,255)"/><circle cx="484.34343434343435" cy="69.42545410789796" r="2" fill="rgb(0,0,255)"/><circle cx="489.3939393939394" cy="63.256950728185586" r="2" fill="rgb(0,0,255)"/><circle cx="494.4444444444444" cy="64.78241471203461" r="2" fill="rgb(0,0,255)"/><circle cx="499.4949494949495" cy="62.5677761275432" r="2" fill="rgb(0,0,255)"/><circle cx="504.5454545454545" cy="65.17592832944052" r="2" fill="rgb(0,0,255)"/><circle cx="509.59595959595964" cy="67.60034429398365" r="2" fill="rgb(0,0,255)"/><circle cx="514.6464646464647" cy="61.54894791960362" r="2" fill="rgb(0,0,255)"/><circle cx="519.6969696969697" cy="63.73143945760762" r="2" fill="rgb(0,0,255)"/><circle cx="524.7474747474748" cy="56.66515936578361" r="2" fill="rgb(0,0,255)"/><circle cx="529.7979797979798" cy="56.404624002111404" r="2" fill="rgb(0,0,255)"/><circle cx="534.8484848484849" cy="55.221658282094324" r="2" fill="rgb(0,0,255)"/><circle cx="539.8989898989898" cy="62.1170692542791" r="2" fill="rgb(0,0,255)"/><circle cx="544.9494949494949" cy="65.02870971431832" r="2" fill="rgb(0,0,255)"/><circle cx="550.0" cy="62.53081731329456" r="2" fill="rgb(0,0,255)"/><polyline points="50.0,58.7300864679396 55.05050505050505,78.25532876495328 60.101010101010104,79.37614838985866 65.15151515151516,79.56765967244189 70.20202020202021,78.81148838434336 75.25252525252526,78.77833364693316 80.30303030303031,78.16723225123275 85.35353535353535,78.16723225123275 90.40404040404042,78.4840801980638 95.45454545454545,78.73882318858563 100.5050505050505,77.59044713709602 105.55555555555554,78.08154711004846 110.60606060606061,78.53637464988185 115.65656565656566,77.72907584272764 120.7070707070707,77.69610273243381 125.75757575757576,64.90731440754149 130.80808080808083,65.07402048490928 135.85858585858585,66.65523868888846 140.9090909090909,68.28000990611315 145.95959595959596,68.28000990611315 151.010101010101,67.23436826876258 156.06060606060606,67.13317306320204 161.1111111111111,67.69780669956452 166.16161616161617,67.76112450836854 171.21212121212122,67.52291851792063 176.26262626262627,67.05179044051408 181.31313131313132,67.24284509961217 186.36363636363635,66.86407473537764 191.4141414141414,66.78146305512735 196.46464646464648,66.89288203124062 201.51515151515153,66.89288203124062 206.56565656565658,66.78569852657586 211.61616161616163,66.57373404799716 216.66666666666666,66.5456578704127 221.7171717171717,66.5456578704127 226.76767676767676,66.5715982583726 231.8181818181818,66.47244403324169 236.86868686868686,66.57373404799716 241.91919191919192,66.54642487610232 246.96969696969697,66.50890505509523 252.02020202020202,66.50890505509523 257.07070707070704,66.45894867057939 262.1212121212121,66.45894867057939 267.1717171717172,52.748995097265095 272.2222222222222,50.62070766319124 277.27272727272725,50.502053584182136 282.32323232323233,50.380219280353174 287.3737373737374,50.1902683497442 292.42424242424244,50.480189660941335 297.47474747474746,50.24372795052244 302.52525252525254,50.24372795052244 307.57575757575756,50.41352633780218 312.62626262626264,50.41352633780218 317.67676767676767,50.277212774732845 322.7272727272727,50.282647275438364 327.77777777777777,50.25996433081468 332.8282828282828,50.23728446535597 337.8787878787879,50.173208919547335 342.92929292929296,50.134545650252505 347.979797979798,50.13107836272923 353.03030303030306,50.166594469797644 358.0808080808081,50.13107836272923 363.13131313131316,50.13107836272923 368.1818181818182,50.13107836272923 373.23232323232327,50.18956112301066 378.2828282828283,50.20743935257832 383.3333333333333,50.13107836272923 388.3838383838384,50.14276735093557 393.4343434343434,50.16921057359394 398.4848484848485,50.166594469797644 403.5353535353535,50.13107836272923 408.58585858585855,50.06902246488278 413.6363636363636,50.05122981574601 418.68686868686865,50.06902246488278 423.73737373737373,50.040578765504165 428.7878787878788,50.06889552889726 433.83838383838383,50.06889552889726 438.8888888888889,50.046854849897045 443.93939393939394,50.046854849897045 448.989898989899,50.046854849897045 454.04040404040404,50.118150881357906 459.0909090909091,50.06889552889726 464.14141414141415,50.046727913911525 469.19191919191917,50.046727913911525 474.24242424242425,50.046727913911525 479.2929292929293,50.06889552889726 484.34343434343435,50.046727913911525 489.3939393939394,50.02216761498579 494.4444444444444,50.00936706959993 499.4949494949495,50.02216761498579 504.5454545454545,50.00053058922123 509.59595959595964,50.00012693598552 514.6464646464647,50.0 519.6969696969697,50.00936706959993 524.7474747474748,50.05609498351146 529.7979797979798,50.05609498351146 534.8484848484849,50.046727913911525 539.8989898989898,50.05609498351146 544.9494949494949,50.05609498351146 550.0,50.05609498351146" fill="none" stroke="rgb(0,255,0)" stroke-width="1"/><circle cx="50.0" cy="58.7300864679396" r="2" fill="rgb(0,255,0)"/><circle cx="55.05050505050505" cy="78.25532876495328" r="2" fill="rgb(0,255,0)"/><circle cx="60.101010101010104" cy="79.37614838985866" r="2" fill="rgb(0,255,0)"/><circle cx="65.15151515151516" cy="79.56765967244189" r="2" fill="rgb(0,255,0)"/><circle cx="70.20202020202021" cy="78.81148838434336" r="2" fill="rgb(0,255,0)"/><circle cx="75.25252525252526" cy="78.77833364693316" r="2" fill="rgb(0,255,0)"/><circle cx="80.30303030303031" cy="78.16723225123275" r="2" fill="rgb(0,255,0)"/><circle cx="85.35353535353535" cy="78.16723225123275" r="2" fill="rgb(0,255,0)"/><circle cx="90.40404040404042" cy="78.4840801980638" r="2" fill="rgb(0,255,0)"/><circle cx="95.45454545454545" cy="78.73882318858563" r="2" fill="rgb(0,255,0)"/><circle cx="100.5050505050505" cy="77.59044713709602" r="2" fill="rgb(0,255,0)"/><circle cx="105.55555555555554" cy="78.08154711004846" r="2" fill="rgb(0,255,0)"/><circle cx="110.60606060606061" cy="78.53637464988185" r="2" fill="rgb(0,255,0)"/><circle cx="115.65656565656566" cy="77.72907584272764" r="2" fill="rgb(0,255,0)"/><circle cx="120.7070707070707" cy="77.69610273243381" r="2" fill="rgb(0,255,0)"/><circle cx="125.75757575757576" cy="64.90731440754149" r="2" fill="rgb(0,255,0)"/><circle cx="130.80808080808083" cy="65.07402048490928" r="2" fill="rgb(0,255,0)"/><circle cx="135.85858585858585" cy="66.65523868888846" r="2" fill="rgb(0,255,0)"/><circle cx="140.9090909090909" cy="68.28000990611315" r="2" fill="rgb(0,255,0)"/><circle cx="145.95959595959596" cy="68.28000990611315" r="2" fill="rgb(0,255,0)"/><circle cx="151.010101010101" cy="67.23436826876258" r="2" fill="rgb(0,255,0)"/><circle cx="156.06060606060606" cy="67.13317306320204" r="2" fill="rgb(0,255,0)"/><circle cx="161.1111111111111" cy="67.69780669956452" r="2" fill="rgb(0,255,0)"/><circle cx="166.16161616161617" cy="67.76112450836854" r="2" fill="rgb(0,255,0)"/><circle cx="171.21212121212122" cy="67.52291851792063" r="2" fill="rgb(0,255,0)"/><circle cx="176.26262626262627" cy="67.05179044051408" r="2" fill="rgb(0,255,0)"/><circle cx="181.31313131313132" cy="67.24284509961217" r="2" fill="rgb(0,255,0)"/><circle cx="186.36363636363635" cy="66.86407473537764" r="2" fill="rgb(0,255,0)"/><circle cx="191.4141414141414" cy="66.78146305512735" r="2" fill="rgb(0,255,0)"/><circle cx="196.46464646464648" cy="66.89288203124062" r="2" fill="rgb(0,255,0)"/><circle cx="201.51515151515153" cy="66.89288203124062" r="2" fill="rgb(0,255,0)"/><circle cx="206.56565656565658" cy="66.78569852657586" r="2" fill="rgb(0,255,0)"/><circle cx="211.61616161616163" cy="66.57373404799716" r="2" fill="rgb(0,255,0)"/><circle cx="216.66666666666666" cy="66.5456578704127" r="2" fill="rgb(0,255,0)"/><circle cx="221.7171717171717" cy="66.5456578704127" r="2" fill="rgb(0,255,0)"/><circle cx="226.76767676767676" cy="66.5715982583726" r="2" fill="rgb(0,255,0)"/><circle cx="231.8181818181818" cy="66.47244403324169" r="2" fill="rgb(0,255,0)"/><circle cx="236.86868686868686" cy="66.57373404799716" r="2" fill="rgb(0,255,0)"/><circle cx="241.91919191919192" cy="66.54642487610232" r="2" fill="rgb(0,255,0)"/><circle cx="246.96969696969697" cy="66.50890505509523" r="2" fill="rgb(0,255,0)"/><circle cx="252.02020202020202" cy="66.50890505509523" r="2" fill="rgb(0,255,0)"/><circle cx="257.07070707070704" cy="66.45894867057939" r="2" fill="rgb(0,255,0)"/><circle cx="262.1212121212121" cy="66.45894867057939" r="2" fill="rgb(0,255,0)"/><circle cx="267.1717171717172" cy="52.748995097265095" r="2" fill="rgb(0,255,0)"/><circle cx="272.2222222222222" cy="50.62070766319124" r="2" fill="rgb(0,255,0)"/><circle cx="277.27272727272725" cy="50.502053584182136" r="2" fill="rgb(0,255,0)"/><circle cx="282.32323232323233" cy="50.380219280353174" r="2" fill="rgb(0,255,0)"/><circle cx="287.3737373737374" cy="50.1902683497442" r="2" fill="rgb(0,255,0)"/><circle cx="292.42424242424244" cy="50.480189660941335" r="2" fill="rgb(0,255,0)"/><circle cx="297.47474747474746" cy="50.24372795052244" r="2" fill="rgb(0,255,0)"/><circle cx="302.52525252525254" cy="50.24372795052244" r="2" fill="rgb(0,255,0)"/><circle cx="307.57575757575756" cy="50.41352633780218" r="2" fill="rgb(0,255,0)"/><circle cx="312.62626262626264" cy="50.41352633780218" r="2" fill="rgb(0,255,0)"/><circle cx="317.67676767676767" cy="50.277212774732845" r="2" fill="rgb(0,255,0)"/><circle cx="322.7272727272727" cy="50.282647275438364" r="2" fill="rgb(0,255,0)"/><circle cx="327.77777777777777" cy="50.25996433081468" r="2" fill="rgb(0,255,0)"/><circle cx="332.8282828282828" cy="50.23728446535597" r="2" fill="rgb(0,255,0)"/><circle cx="337.8787878787879" cy="50.173208919547335" r="2" fill="rgb(0,255,0)"/><circle cx="342.92929292929296" cy="50.134545650252505" r="2" fill="rgb(0,255,0)"/><circle cx="347.979797979798" cy="50.13107836272923" r="2" fill="rgb(0,255,0)"/><circle cx="353.03030303030306" cy="50.166594469797644" r="2" fill="rgb(0,255,0)"/><circle cx="358.0808080808081" cy="50.13107836272923" r="2" fill="rgb(0,255,0)"/><circle cx="363.13131313131316" cy="50.13107836272923" r="2" fill="rgb(0,255,0)"/><circle cx="368.1818181818182" cy="50.13107836272923" r="2" fill="rgb(0,255,0)"/><circle cx="373.23232323232327" cy="50.18956112301066" r="2" fill="rgb(0,255,0)"/><circle cx="378.2828282828283" cy="50.20743935257832" r="2" fill="rgb(0,255,0)"/><circle cx="383.3333333333333" cy="50.13107836272923" r="2" fill="rgb(0,255,0)"/><circle cx="388.3838383838384" cy="50.14276735093557" r="2" fill="rgb(0,255,0)"/><circle cx="393.4343434343434" cy="50.16921057359394" r="2" fill="rgb(0,255,0)"/><circle cx="398.4848484848485" cy="50.166594469797644" r="2" fill="rgb(0,255,0)"/><circle cx="403.5353535353535" cy="50.13107836272923" r="2" fill="rgb(0,255,0)"/><circle cx="408.58585858585855" cy="50.06902246488278" r="2" fill="rgb(0,255,0)"/><circle cx="413.6363636363636" cy="50.05122981574601" r="2" fill="rgb(0,255,0)"/><circle cx="418.68686868686865" cy="50.06902246488278" r="2" fill="rgb(0,255,0)"/><circle cx="423.73737373737373" cy="50.040578765504165" r="2" fill="rgb(0,255,0)"/><circle cx="428.7878787878788" cy="50.06889552889726" r="2" fill="rgb(0,255,0)"/><circle cx="433.83838383838383" cy="50.06889552889726" r="2" fill="rgb(0,255,0)"/><circle cx="438.8888888888889" cy="50.046854849897045" r="2" fill="rgb(0,255,0)"/><circle cx="443.93939393939394" cy="50.046854849897045" r="2" fill="rgb(0,255,0)"/><circle cx="448.989898989899" cy="50.046854849897045" r="2" fill="rgb(0,255,0)"/><circle cx="454.04040404040404" cy="50.118150881357906" r="2" fill="rgb(0,255,0)"/><circle cx="459.0909090909091" cy="50.06889552889726" r="2" fill="rgb(0,255,0)"/><circle cx="464.14141414141415" cy="50.046727913911525" r="2" fill="rgb(0,255,0)"/><circle cx="469.19191919191917" cy="50.046727913911525" r="2" fill="rgb(0,255,0)"/><circle cx="474.24242424242425" cy="50.046727913911525" r="2" fill="rgb(0,255,0)"/><circle cx="479.2929292929293" cy="50.06889552889726" r="2" fill="rgb(0,255,0)"/><circle cx="484.34343434343435" cy="50.046727913911525" r="2" fill="rgb(0,255,0)"/><circle cx="489.3939393939394" cy="50.02216761498579" r="2" fill="rgb(0,255,0)"/><circle cx="494.4444444444444" cy="50.00936706959993" r="2" fill="rgb(0,255,0)"/><circle cx="499.4949494949495" cy="50.02216761498579" r="2" fill="rgb(0,255,0)"/><circle cx="504.5454545454545" cy="50.00053058922123" r="2" fill="rgb(0,255,0)"/><circle cx="509.59595959595964" cy="50.00012693598552" r="2" fill="rgb(0,255,0)"/><circle cx="514.6464646464647" cy="50.0" r="2" fill="rgb(0,255,0)"/><circle cx="519.6969696969697" cy="50.00936706959993" r="2" fill="rgb(0,255,0)"/><circle cx="524.7474747474748" cy="50.05609498351146" r="2" fill="rgb(0,255,0)"/><circle cx="529.7979797979798" cy="50.05609498351146" r="2" fill="rgb(0,255,0)"/><circle cx="534.8484848484849" cy="50.046727913911525" r="2" fill="rgb(0,255,0)"/><circle cx="539.8989898989898" cy="50.05609498351146" r="2" fill="rgb(0,255,0)"/><circle cx="544.9494949494949" cy="50.05609498351146" r="2" fill="rgb(0,255,0)"/><circle cx="550.0" cy="50.05609498351146" r="2" fill="rgb(0,255,0)"/><text x="350.0" y="20.0" text-anchor="middle" fill="rgb(0,0,0)" font-size="20.0">GA Demo</text><text x="350.0" y="575.0" text-anchor="middle" fill="rgb(0,0,0)" font-size="12.0">generation</text><text transform="rotate(-90.0 20.0 300.0)" x="20.0" y="300.0" text-anchor="middle" fill="rgb(0,0,0)" font-size="12.0">fitness</text><text x="620" y="62" fill="rgb(0,0,0)" font-size="12">min</text><text x="620" y="74" fill="rgb(0,0,255)" font-size="12">ave</text><text x="620" y="86" fill="rgb(0,255,0)" font-size="12">max</text>
      Sorry, your browser does not support inline SVG.
    </svg>