<?xml version='1.0' encoding='UTF-8'?>
<svg version="1.1" width="700.0" height="600.0" onload="init(evt)" xmlns="http://www.w3.org/2000/svg">
      <style>.caption {
  font-size: 14px;
  font-family: Georgia, serif;
}
</style>
      <script type="text/ecmascript"><![CDATA[
function init(evt) {
  if ( window.svgDocument == null ) {
    svgDocument = evt.target.ownerDocument;
  }
}

function RectHover(evt, i, c) {
  rect = svgDocument.getElementById('rect' + i);
  if( c != null ) {
    rect.setAttributeNS(null, "fill", c)  
  }
  tooltiptext = svgDocument.getElementById('tooltiptext' + i);
  tooltipbg = svgDocument.getElementById('tooltipbg' + i);
  if( tooltipbg != null) {
    tbb = tooltiptext.getBBox();
    tooltipbg.setAttributeNS(null, "width", tbb.width);
    tooltipbg.setAttributeNS(null, "height", tbb.height);
    tooltipbg.setAttributeNS(null, "x", tbb.x);
    tooltipbg.setAttributeNS(null, "y", tbb.y);
    tooltipbg.setAttributeNS(null, "visibility", "visible");
  }
  tooltiptext.setAttributeNS(null,"visibility","visible");
}

function RectUnhover(evt, i, c) {
  rect = svgDocument.getElementById('rect' + i);
  if( c != null ) {
    rect.setAttributeNS(null, "fill", c)  
  }
  tooltiptext = svgDocument.getElementById('tooltiptext' + i);
  tooltiptext.setAttributeNS(null,"visibility","hidden");
  tooltipbg = svgDocument.getElementById('tooltipbg' + i);
  if( tooltipbg != null ) {
    tooltipbg.setAttributeNS(null,"visibility","hidden");
  }
}
]]></script>
      <line x1="50.0" y1="550.0" x2="550.0" y2="550.0" stroke="rgb(0,0,0)" stroke-width="1"/><line x1="50.0" y1="550.0" x2="50.0" y2="50.0" stroke="rgb(0,0,0)" stroke-width="1"/><line x1="50.0" y1="550.0" x2="50.0" y2="50.0" stroke="rgb(192,192,192)" stroke-width="1"/><line x1="50.0" y1="548.0" x2="50.0" y2="552.0" stroke="rgb(192,192,192)" stroke-width="1"/><text text-anchor="middle" alignment-baseline="hanging" x="50.0" y="553.0" font-size="12.0">0</text><line x1="100.5050505050505" y1="550.0" x2="100.5050505050505" y2="50.0" stroke="rgb(192,192,192)" stroke-width="1"/><line x1="100.5050505050505" y1="548.0" x2="100.5050505050505" y2="552.0" stroke="rgb(192,192,192)" stroke-width="1"/><text text-anchor="middle" alignment-baseline="hanging" x="100.5050505050505" y="553.0" font-size="12.0">10</text><line x1="151.010101010101" y1="550.0" x2="151.010101010101" y2="50.0" stroke="rgb(192,192,192)" stroke-width="1"/><line x1="151.010101010101" y1="548.0" x2="151.010101010101" y2="552.0" stroke="rgb(192,192,192)" stroke-width="1"/><text text-anchor="middle" alignment-baseline="hanging" x="151.010101010101" y="553.0" font-size="12.0">20</text><line x1="201.51515151515153" y1="550.0" x2="201.51515151515153" y2="50.0" stroke="rgb(192,192,192)" stroke-width="1"/><line x1="201.51515151515153" y1="548.0" x2="201.51515151515153" y2="552.0" stroke="rgb(192,192,192)" stroke-width="1"/><text text-anchor="middle" alignment-baseline="hanging" x="201.51515151515153" y="553.0" font-size="12.0">30</text><line x1="252.02020202020202" y1="550.0" x2="252.02020202020202" y2="50.0" stroke="rgb(192,192,192)" stroke-width="1"/><line x1="252.02020202020202" y1="548.0" x2="252.02020202020202" y2="552.0" stroke="rgb(192,192,192)" stroke-width="1"/><text text-anchor="middle" alignment-baseline="hanging" x="252.02020202020202" y="553.0" font-size="12.0">40</text><line x1="302.52525252525254" y1="550.0" x2="302.52525252525254" y2="50.0" stroke="rgb(192,192,192)" stroke-width="1"/><line x1="302.52525252525254" y1="548.0" x2="302.52525252525254" y2="552.0" stroke="rgb(192,192,192)" stroke-width="1"/><text text-anchor="middle" alignment-baseline="hanging" x="302.52525252525254" y="553.0" font-size="12.0">50</text><line x1="353.03030303030306" y1="550.0" x2="353.03030303030306" y2="50.0" stroke="rgb(192,192,192)" stroke-width="1"/><line x1="353.03030303030306" y1="548.0" x2="353.03030303030306" y2="552.0" stroke="rgb(192,192,192)" stroke-width="1"/><text text-anchor="middle" alignment-baseline="hanging" x="353.03030303030306" y="553.0" font-size="12.0">60</text><line x1="403.5353535353535" y1="550.0" x2="403.5353535353535" y2="50.0" stroke="rgb(192,192,192)" stroke-width="1"/><line x1="403.5353535353535" y1="548.0" x2="403.5353535353535" y2="552.0" stroke="rgb(192,192,192)" stroke-width="1"/><text text-anchor="middle" alignment-baseline="hanging" x="403.5353535353535" y="553.0" font-size="12.0">70</text><line x1="454.04040404040404" y1="550.0" x2="454.04040404040404" y2="50.0" stroke="rgb(192,192,192)" stroke-width="1"/><line x1="454.04040404040404" y1="548.0" x2="454.04040404040404" y2="552.0" stroke="rgb(192,192,192)" stroke-width="1"/><text text-anchor="middle" alignment-baseline="hanging" x="454.04040404040404" y="553.0" font-size="12.0">80</text><line x1="504.5454545454545" y1="550.0" x2="504.5454545454545" y2="50.0" stroke="rgb(192,192,192)" stroke-width="1"/><line x1="504.5454545454545" y1="548.0" x2="504.5454545454545" y2="552.0" stroke="rgb(192,192,192)" stroke-width="1"/><text text-anchor="middle" alignment-baseline="hanging" x="504.5454545454545" y="553.0" font-size="12.0">90</text><line x1="50.0" y1="550.0" x2="550.0" y2="550.0" stroke="rgb(192,192,192)" stroke-width="1"/><text text-anchor="end" alignment-baseline="middle" x="45.0" y="550.0" font-size="12.0">0.0</text><line x1="48.0" y1="550.0" x2="52.0" y2="550.0" stroke="rgb(192,192,192)" stroke-width="1"/><line x1="50.0" y1="365.7144761057775" x2="550.0" y2="365.7144761057775" stroke="rgb(192,192,192)" stroke-width="1"/><text text-anchor="end" alignment-baseline="middle" x="45.0" y="365.7144761057775" font-size="12.0">1000.0</text><line x1="48.0" y1="365.7144761057775" x2="52.0" y2="365.7144761057775" stroke="rgb(192,192,192)" stroke-width="1"/><line x1="50.0" y1="181.42895221155504" x2="550.0" y2="181.42895221155504" stroke="rgb(192,192,192)" stroke-width="1"/><text text-anchor="end" alignment-baseline="middle" x="45.0" y="181.42895221155504" font-size="12.0">2000.0</text><line x1="48.0" y1="181.42895221155504" x2="52.0" y2="181.42895221155504" stroke="rgb(192,192,192)" stroke-width="1"/><polyline points="50.0,415.5074538863712 55.05050505050505,408.80385759307325 60.101010101010104,407.29942171313775 65.15151515151516,407.73062147176034 70.20202020202021,407.92104858269226 75.25252525252526,432.07962232505497 80.30303030303031,407.592420048849 85.35353535353535,359.9658242240774 90.40404040404042,408.747920262471 95.45454545454545,376.85202701930103 100.5050505050505,377.0530795144516 105.55555555555554,333.64438825639377 110.60606060606061,383.3714007774009 115.65656565656566,214.1238984048419 120.7070707070707,324.6797869192646 125.75757575757576,403.04680946255314 130.80808080808083,341.4092105262238 135.85858585858585,408.11015902551526 140.9090909090909,406.51461559205654 145.95959595959596,376.4705727979569 151.010101010101,376.0928555029976 156.06060606060606,410.4661429033524 161.1111111111111,354.7434339326479 166.16161616161617,379.2938686898668 171.21212121212122,355.1003655807612 176.26262626262627,332.292297483187 181.31313131313132,280.97584294489855 186.36363636363635,71.45352179730679 191.4141414141414,401.18323610569826 196.46464646464648,400.50351927185744 201.51515151515153,353.2794483948171 206.56565656565658,273.71573056904214 211.61616161616163,354.3880270172034 216.66666666666666,363.76418736723053 221.7171717171717,378.93291839488967 226.76767676767676,362.44362239304525 231.8181818181818,361.7415032799329 236.86868686868686,366.2314692747625 241.91919191919192,367.41299858418347 246.96969696969697,304.3603904539071 252.02020202020202,278.86859265544035 257.07070707070704,130.45979452252095 262.1212121212121,405.9603992347095 267.1717171717172,405.9772235686118 272.2222222222222,405.6790523658218 277.27272727272725,334.2908577836461 282.32323232323233,334.6075699523934 287.3737373737374,410.92010323406606 292.42424242424244,410.6939686683326 297.47474747474746,401.34206969253455 302.52525252525254,220.30201884529185 307.57575757575756,373.6164944106929 312.62626262626264,375.2276472039894 317.67676767676767,367.20070744222386 322.7272727272727,395.65778516145815 327.77777777777777,395.65778516145815 332.8282828282828,240.83575448478695 337.8787878787879,317.65740000460846 342.92929292929296,401.32002223327714 347.979797979798,401.1885356136954 353.03030303030306,401.25540468613065 358.0808080808081,369.29213892187977 363.13131313131316,211.48286464291175 368.1818181818182,238.31518800778838 373.23232323232327,249.82345599659402 378.2828282828283,333.25472713384914 383.3333333333333,279.0621621764387 388.3838383838384,351.9923624672006 393.4343434343434,405.0430684072902 398.4848484848485,266.06849536868424 403.5353535353535,343.9283335679936 408.58585858585855,400.78674381702024 413.6363636363636,360.8388406363911 418.68686868686865,350.3585800150801 423.73737373737373,359.82839895793217 428.7878787878788,406.2612475992537 433.83838383838383,406.06524499347404 438.8888888888889,406.16315959708686 443.93939393939394,405.9917578512103 448.989898989899,327.4930316129009 454.04040404040404,325.92867071431374 459.0909090909091,298.32736124483984 464.14141414141415,330.4579405884742 469.19191919191917,384.9053460865145 474.24242424242425,283.72195174948257 479.2929292929293,372.40872339038447 484.34343434343435,371.28755340517836 489.3939393939394,371.2709480137812 494.4444444444444,374.3885427879812 499.4949494949495,408.6001401517698 504.5454545454545,407.16426324852443 509.59595959595964,304.2981333497462 514.6464646464647,363.16554891480916 519.6969696969697,363.16554891480916 524.7474747474748,365.2415927562322 529.7979797979798,264.46025257889136 534.8484848484849,264.47068476938216 539.8989898989898,264.46025257889136 544.9494949494949,264.42836925636686 550.0,379.443409730121" fill="none" stroke="rgb(0,0,0)" stroke-width="1"/><circle cx="50.0" cy="415.5074538863712" r="2" fill="rgb(0,0,0)"/><circle cx="55.05050505050505" cy="408.80385759307325" r="2" fill="rgb(0,0,0)"/><circle cx="60.101010101010104" cy="407.29942171313775" r="2" fill="rgb(0,0,0)"/><circle cx="65.15151515151516" cy="407.73062147176034" r="2" fill="rgb(0,0,0)"/><circle cx="70.20202020202021" cy="407.92104858269226" r="2" fill="rgb(0,0,0)"/><circle cx="75.25252525252526" cy="432.07962232505497" r="2" fill="rgb(0,0,0)"/><circle cx="80.30303030303031" cy="407.592420048849" r="2" fill="rgb(0,0,0)"/><circle cx="85.35353535353535" cy="359.9658242240774" r="2" fill="rgb(0,0,0)"/><circle cx="90.40404040404042" cy="408.747920262471" r="2" fill="rgb(0,0,0)"/><circle cx="95.45454545454545" cy="376.85202701930103" r="2" fill="rgb(0,0,0)"/><circle cx="100.5050505050505" cy="377.0530795144516" r="2" fill="rgb(0,0,0)"/><circle cx="105.55555555555554" cy="333.64438825639377" r="2" fill="rgb(0,0,0)"/><circle cx="110.60606060606061" cy="383.3714007774009" r="2" fill="rgb(0,0,0)"/><circle cx="115.65656565656566" cy="214.1238984048419" r="2" fill="rgb(0,0,0)"/><circle cx="120.7070707070707" cy="324.6797869192646" r="2" fill="rgb(0,0,0)"/><circle cx="125.75757575757576" cy="403.04680946255314" r="2" fill="rgb(0,0,0)"/><circle cx="130.80808080808083" cy="341.4092105262238" r="2" fill="rgb(0,0,0)"/><circle cx="135.85858585858585" cy="408.11015902551526" r="2" fill="rgb(0,0,0)"/><circle cx="140.9090909090909" cy="406.51461559205654" r="2" fill="rgb(0,0,0)"/><circle cx="145.95959595959596" cy="376.4705727979569" r="2" fill="rgb(0,0,0)"/><circle cx="151.010101010101" cy="376.0928555029976" r="2" fill="rgb(0,0,0)"/><circle cx="156.06060606060606" cy="410.4661429033524" r="2" fill="rgb(0,0,0)"/><circle cx="161.1111111111111" cy="354.7434339326479" r="2" fill="rgb(0,0,0)"/><circle cx="166.16161616161617" cy="379.2938686898668" r="2" fill="rgb(0,0,0)"/><circle cx="171.21212121212122" cy="355.1003655807612" r="2" fill="rgb(0,0,0)"/><circle cx="176.26262626262627" cy="332.292297483187" r="2" fill="rgb(0,0,0)"/><circle cx="181.31313131313132" cy="280.97584294489855" r="2" fill="rgb(0,0,0)"/><circle cx="186.36363636363635" cy="71.45352179730679" r="2" fill="rgb(0,0,0)"/><circle cx="191.4141414141414" cy="401.18323610569826" r="2" fill="rgb(0,0,0)"/><circle cx="196.46464646464648" cy="400.50351927185744" r="2" fill="rgb(0,0,0)"/><circle cx="201.51515151515153" cy="353.2794483948171" r="2" fill="rgb(0,0,0)"/><circle cx="206.56565656565658" cy="273.71573056904214" r="2" fill="rgb(0,0,0)"/><circle cx="211.61616161616163" cy="354.3880270172034" r="2" fill="rgb(0,0,0)"/><circle cx="216.66666666666666" cy="363.76418736723053" r="2" fill="rgb(0,0,0)"/><circle cx="221.7171717171717" cy="378.93291839488967" r="2" fill="rgb(0,0,0)"/><circle cx="226.76767676767676" cy="362.44362239304525" r="2" fill="rgb(0,0,0)"/><circle cx="231.8181818181818" cy="361.7415032799329" r="2" fill="rgb(0,0,0)"/><circle cx="236.86868686868686" cy="366.2314692747625" r="2" fill="rgb(0,0,0)"/><circle cx="241.91919191919192" cy="367.41299858418347" r="2" fill="rgb(0,0,0)"/><circle cx="246.96969696969697" cy="304.3603904539071" r="2" fill="rgb(0,0,0)"/><circle cx="252.02020202020202" cy="278.86859265544035" r="2" fill="rgb(0,0,0)"/><circle cx="257.07070707070704" cy="130.45979452252095" r="2" fill="rgb(0,0,0)"/><circle cx="262.1212121212121" cy="405.9603992347095" r="2" fill="rgb(0,0,0)"/><circle cx="267.1717171717172" cy="405.9772235686118" r="2" fill="rgb(0,0,0)"/><circle cx="272.2222222222222" cy="405.6790523658218" r="2" fill="rgb(0,0,0)"/><circle cx="277.27272727272725" cy="334.2908577836461" r="2" fill="rgb(0,0,0)"/><circle cx="282.32323232323233" cy="334.6075699523934" r="2" fill="rgb(0,0,0)"/><circle cx="287.3737373737374" cy="410.92010323406606" r="2" fill="rgb(0,0,0)"/><circle cx="292.42424242424244" cy="410.6939686683326" r="2" fill="rgb(0,0,0)"/><circle cx="297.47474747474746" cy="401.34206969253455" r="2" fill="rgb(0,0,0)"/><circle cx="302.52525252525254" cy="220.30201884529185" r="2" fill="rgb(0,0,0)"/><circle cx="307.57575757575756" cy="373.6164944106929" r="2" fill="rgb(0,0,0)"/><circle cx="312.62626262626264" cy="375.2276472039894" r="2" fill="rgb(0,0,0)"/><circle cx="317.67676767676767" cy="367.20070744222386" r="2" fill="rgb(0,0,0)"/><circle cx="322.7272727272727" cy="395.65778516145815" r="2" fill="rgb(0,0,0)"/><circle cx="327.77777777777777" cy="395.65778516145815" r="2" fill="rgb(0,0,0)"/><circle cx="332.8282828282828" cy="240.83575448478695" r="2" fill="rgb(0,0,0)"/><circle cx="337.8787878787879" cy="317.65740000460846" r="2" fill="rgb(0,0,0)"/><circle cx="342.92929292929296" cy="401.32002223327714" r="2" fill="rgb(0,0,0)"/><circle cx="347.979797979798" cy="401.1885356136954" r="2" fill="rgb(0,0,0)"/><circle cx="353.03030303030306" cy="401.25540468613065" r="2" fill="rgb(0,0,0)"/><circle cx="358.0808080808081" cy="369.29213892187977" r="2" fill="rgb(0,0,0)"/><circle cx="363.13131313131316" cy="211.48286464291175" r="2" fill="rgb(0,0,0)"/><circle cx="368.1818181818182" cy="238.31518800778838" r="2" fill="rgb(0,0,0)"/><circle cx="373.23232323232327" cy="249.82345599659402" r="2" fill="rgb(0,0,0)"/><circle cx="378.2828282828283" cy="333.25472713384914" r="2" fill="rgb(0,0,0)"/><circle cx="383.3333333333333" cy="279.0621621764387" r="2" fill="rgb(0,0,0)"/><circle cx="388.3838383838384" cy="351.9923624672006" r="2" fill="rgb(0,0,0)"/><circle cx="393.4343434343434" cy="405.0430684072902" r="2" fill="rgb(0,0,0)"/><circle cx="398.4848484848485" cy="266.06849536868424" r="2" fill="rgb(0,0,0)"/><circle cx="403.5353535353535" cy="343.9283335679936" r="2" fill="rgb(0,0,0)"/><circle cx="408.58585858585855" cy="400.78674381702024" r="2" fill="rgb(0,0,0)"/><circle cx="413.6363636363636" cy="360.8388406363911" r="2" fill="rgb(0,0,0)"/><circle cx="418.68686868686865" cy="350.3585800150801" r="2" fill="rgb(0,0,0)"/><circle cx="423.73737373737373" cy="359.82839895793217" r="2" fill="rgb(0,0,0)"/><circle cx="428.7878787878788" cy="406.2612475992537" r="2" fill="rgb(0,0,0)"/><circle cx="433.83838383838383" cy="406.06524499347404" r="2" fill="rgb(0,0,0)"/><circle cx="438.8888888888889" cy="406.16315959708686" r="2" fill="rgb(0,0,0)"/><circle cx="443.93939393939394" cy="405.9917578512103" r="2" fill="rgb(0,0,0)"/><circle cx="448.989898989899" cy="327.4930316129009" r="2" fill="rgb(0,0,0)"/><circle cx="454.04040404040404" cy="325.92867071431374" r="2" fill="rgb(0,0,0)"/><circle cx="459.0909090909091" cy="298.32736124483984" r="2" fill="rgb(0,0,0)"/><circle cx="464.14141414141415" cy="330.4579405884742" r="2" fill="rgb(0,0,0)"/><circle cx="469.19191919191917" cy="384.9053460865145" r="2" fill="rgb(0,0,0)"/><circle cx="474.24242424242425" cy="283.72195174948257" r="2" fill="rgb(0,0,0)"/><circle cx="479.2929292929293" cy="372.40872339038447" r="2" fill="rgb(0,0,0)"/><circle cx="484.34343434343435" cy="371.28755340517836" r="2" fill="rgb(0,0,0)"/><circle cx="489.3939393939394" cy="371.2709480137812" r="2" fill="rgb(0,0,0)"/><circle cx="494.4444444444444" cy="374.3885427879812" r="2" fill="rgb(0,0,0)"/><circle cx="499.4949494949495" cy="408.6001401517698" r="2" fill="rgb(0,0,0)"/><circle cx="504.5454545454545" cy="407.16426324852443" r="2" fill="rgb(0,0,0)"/><circle cx="509.59595959595964" cy="304.2981333497462" r="2" fill="rgb(0,0,0)"/><circle cx="514.6464646464647" cy="363.16554891480916" r="2" fill="rgb(0,0,0)"/><circle cx="519.6969696969697" cy="363.16554891480916" r="2" fill="rgb(0,0,0)"/><circle cx="524.7474747474748" cy="365.2415927562322" r="2" fill="rgb(0,0,0)"/><circle cx="529.7979797979798" cy="264.46025257889136" r="2" fill="rgb(0,0,0)"/><circle cx="534.8484848484849" cy="264.47068476938216" r="2" fill="rgb(0,0,0)"/><circle cx="539.8989898989898" cy="264.46025257889136" r="2" fill="rgb(0,0,0)"/><circle cx="544.9494949494949" cy="264.42836925636686" r="2" fill="rgb(0,0,0)"/><circle cx="550.0" cy="379.443409730121" r="2" fill="rgb(0,0,0)"/><polyline points="50.0,185.0689883795971 55.05050505050505,167.29785163402676 60.101010101010104,139.64223620053576 65.15151515151516,125.66575135548726 70.20202020202021,110.02452418407921 75.25252525252526,98.23601034329585 80.30303030303031,90.3383808042438 85.35353535353535,83.01930953016165 90.40404040404042,78.34654494621242 95.45454545454545,81.3172571179129 100.5050505050505,73.6636210754894 105.55555555555554,68.84487873714295 110.60606060606061,69.35479520888993 115.65656565656566,59.881904563651574 120.7070707070707,59.54349042708418 125.75757575757576,61.273316140821464 130.80808080808083,61.242674765412914 135.85858585858585,67.02968345630035 140.9090909090909,64.57736856202393 145.95959595959596,68.4112269429375 151.010101010101,67.23364132919522 156.06060606060606,62.054442301385336 161.1111111111111,71.93168600375213 166.16161616161617,71.05155545491743 171.21212121212122,63.911859092817224 176.26262626262627,62.36465393581386 181.31313131313132,55.76799296642429 186.36363636363635,52.98899079272786 191.4141414141414,62.22248400664421 196.46464646464648,63.62523820858365 201.51515151515153,62.25482893239678 206.56565656565658,60.22889564425128 211.61616161616163,63.08225835225636 216.66666666666666,77.25833597357166 221.7171717171717,72.99024359812734 226.76767676767676,67.0811220803231 231.8181818181818,72.04794554003973 236.86868686868686,68.06032982317663 241.91919191919192,65.85147086145435 246.96969696969697,59.63669398991874 252.02020202020202,56.13287548677988 257.07070707070704,52.43296197495823 262.1212121212121,59.27782734040818 267.1717171717172,59.62659496597945 272.2222222222222,63.318512296643235 277.27272727272725,58.27959729892166 282.32323232323233,55.78781477092127 287.3737373737374,54.72584143524506 292.42424242424244,56.87971217054172 297.47474747474746,61.16034192099869 302.52525252525254,53.256173769805855 307.57575757575756,57.70816732856457 312.62626262626264,65.0713160863167 317.67676767676767,59.11902654675299 322.7272727272727,56.72062974592234 327.77777777777777,59.71301563506216 332.8282828282828,55.6673742356424 337.8787878787879,60.72425913060994 342.92929292929296,61.24504198587914 347.979797979798,58.277065832754715 353.03030303030306,61.261854348084796 358.0808080808081,58.51235924224977 363.13131313131316,55.34594921514014 368.1818181818182,52.9727287129561 373.23232323232327,55.03959835070441 378.2828282828283,55.40460399388269 383.3333333333333,53.47335385625547 388.3838383838384,59.45390673883884 393.4343434343434,70.0822170470475 398.4848484848485,57.05467414870333 403.5353535353535,57.88170462870454 408.58585858585855,66.2458555808563 413.6363636363636,61.56830992149281 418.68686868686865,68.1980521831768 423.73737373737373,68.13763221740408 428.7878787878788,78.03082063582741 433.83838383838383,78.82242607999143 438.8888888888889,62.48330330871323 443.93939393939394,56.72617428124403 448.989898989899,60.060783851632436 454.04040404040404,64.9313803162351 459.0909090909091,59.07181387887675 464.14141414141415,59.19680715885926 469.19191919191917,59.86880610901068 474.24242424242425,60.968231923796395 479.2929292929293,60.5316394978999 484.34343434343435,59.69298253473477 489.3939393939394,67.87338621877615 494.4444444444444,63.924499108892405 499.4949494949495,60.70802255843512 504.5454545454545,62.60155798023436 509.59595959595964,56.13308782792768 514.6464646464647,53.86067447948875 519.6969696969697,70.28350552113966 524.7474747474748,67.14075029957957 529.7979797979798,67.61244495943754 534.8484848484849,62.08981750964824 539.8989898989898,63.308186937357334 544.9494949494949,57.26541558612786 550.0,60.23312434326266" fill="none" stroke="rgb(0,0,255)" stroke-width="1"/><circle cx="50.0" cy="185.0689883795971" r="2" fill="rgb(0,0,255)"/><circle cx="55.05050505050505" cy="167.29785163402676" r="2" fill="rgb(0,0,255)"/><circle cx="60.101010101010104" cy="139.64223620053576" r="2" fill="rgb(0,0,255)"/><circle cx="65.15151515151516" cy="125.66575135548726" r="2" fill="rgb(0,0,255)"/><circle cx="70.20202020202021" cy="110.02452418407921" r="2" fill="rgb(0,0,255)"/><circle cx="75.25252525252526" cy="98.23601034329585" r="2" fill="rgb(0,0,255)"/><circle cx="80.30303030303031" cy="90.3383808042438" r="2" fill="rgb(0,0,255)"/><circle cx="85.35353535353535" cy="83.01930953016165" r="2" fill="rgb(0,0,255)"/><circle cx="90.40404040404042" cy="78.34654494621242" r="2" fill="rgb(0,0,255)"/><circle cx="95.45454545454545" cy="81.3172571179129" r="2" fill="rgb(0,0,255)"/><circle cx="100.5050505050505" cy="73.6636210754894" r="2" fill="rgb(0,0,255)"/><circle cx="105.55555555555554" cy="68.84487873714295" r="2" fill="rgb(0,0,255)"/><circle cx="110.60606060606061" cy="69.35479520888993" r="2" fill="rgb(0,0,255)"/><circle cx="115.65656565656566" cy="59.881904563651574" r="2" fill="rgb(0,0,255)"/><circle cx="120.7070707070707" cy="59.54349042708418" r="2" fill="rgb(0,0,255)"/><circle cx="125.75757575757576" cy="61.273316140821464" r="2" fill="rgb(0,0,255)"/><circle cx="130.80808080808083" cy="61.242674765412914" r="2" fill="rgb(0,0,255)"/><circle cx="135.85858585858585" cy="67.02968345630035" r="2" fill="rgb(0,0,255)"/><circle cx="140.9090909090909" cy="64.57736856202393" r="2" fill="rgb(0,0,255)"/><circle cx="145.95959595959596" cy="68.4112269429375" r="2" fill="rgb(0,0,255)"/><circle cx="151.010101010101" cy="67.23364132919522" r="2" fill="rgb(0,0,255)"/><circle cx="156.06060606060606" cy="62.054442301385336" r="2" fill="rgb(0,0,255)"/><circle cx="161.1111111111111" cy="71.93168600375213" r="2" fill="rgb(0,0,255)"/><circle cx="166.16161616161617" cy="71.05155545491743" r="2" fill="rgb(0,0,255)"/><circle cx="171.21212121212122" cy="63.911859092817224" r="2" fill="rgb(0,0,255)"/><circle cx="176.26262626262627" cy="62.36465393581386" r="2" fill="rgb(0,0,255)"/><circle cx="181.31313131313132" cy="55.76799296642429" r="2" fill="rgb(0,0,255)"/><circle cx="186.36363636363635" cy="52.98899079272786" r="2" fill="rgb(0,0,255)"/><circle cx="191.4141414141414" cy="62.22248400664421" r="2" fill="rgb(0,0,255)"/><circle cx="196.46464646464648" cy="63.62523820858365" r="2" fill="rgb(0,0,255)"/><circle cx="201.51515151515153" cy="62.25482893239678" r="2" fill="rgb(0,0,255)"/><circle cx="206.56565656565658" cy="60.22889564425128" r="2" fill="rgb(0,0,255)"/><circle cx="211.61616161616163" cy="63.08225835225636" r="2" fill="rgb(0,0,255)"/><circle cx="216.66666666666666" cy="77.25833597357166" r="2" fill="rgb(0,0,255)"/><circle cx="221.7171717171717" cy="72.99024359812734" r="2" fill="rgb(0,0,255)"/><circle cx="226.76767676767676" cy="67.0811220803231" r="2" fill="rgb(0,0,255)"/><circle cx="231.8181818181818" cy="72.04794554003973" r="2" fill="rgb(0,0,255)"/><circle cx="236.86868686868686" cy="68.06032982317663" r="2" fill="rgb(0,0,255)"/><circle cx="241.91919191919192" cy="65.85147086145435" r="2" fill="rgb(0,0,255)"/><circle cx="246.96969696969697" cy="59.63669398991874" r="2" fill="rgb(0,0,255)"/><circle cx="252.02020202020202" cy="56.13287548677988" r="2" fill="rgb(0,0,255)"/><circle cx="257.07070707070704" cy="52.43296197495823" r="2" fill="rgb(0,0,255)"/><circle cx="262.1212121212121" cy="59.27782734040818" r="2" fill="rgb(0,0,255)"/><circle cx="267.1717171717172" cy="59.62659496597945" r="2" fill="rgb(0,0,255)"/><circle cx="272.2222222222222" cy="63.318512296643235" r="2" fill="rgb(0,0,255)"/><circle cx="277.27272727272725" cy="58.27959729892166" r="2" fill="rgb(0,0,255)"/><circle cx="282.32323232323233" cy="55.78781477092127" r="2" fill="rgb(0,0,255)"/><circle cx="287.3737373737374" cy="54.72584143524506" r="2" fill="rgb(0,0,255)"/><circle cx="292.42424242424244" cy="56.87971217054172" r="2" fill="rgb(0,0,255)"/><circle cx="297.47474747474746" cy="61.16034192099869" r="2" fill="rgb(0,0,255)"/><circle cx="302.52525252525254" cy="53.256173769805855" r="2" fill="rgb(0,0,255)"/><circle cx="307.57575757575756" cy="57.70816732856457" r="2" fill="rgb(0,0,255)"/><circle cx="312.62626262626264" cy="65.0713160863167" r="2" fill="rgb(0,0,255)"/><circle cx="317.67676767676767" cy="59.11902654675299" r="2" fill="rgb(0,0,255)"/><circle cx="322.7272727272727" cy="56.72062974592234" r="2" fill="rgb(0,0,255)"/><circle cx="327.77777777777777" cy="59.71301563506216" r="2" fill="rgb(0,0,255)"/><circle cx="332.8282828282828" cy="55.6673742356424" r="2" fill="rgb(0,0,255)"/><circle cx="337.8787878787879" cy="60.72425913060994" r="2" fill="rgb(0,0,255)"/><circle cx="342.92929292929296" cy="61.24504198587914" r="2" fill="rgb(0,0,255)"/><circle cx="347.979797979798" cy="58.277065832754715" r="2" fill="rgb(0,0,255)"/><circle cx="353.03030303030306" cy="61.261854348084796" r="2" fill="rgb(0,0,255)"/><circle cx="358.0808080808081" cy="58.51235924224977" r="2" fill="rgb(0,0,255)"/><circle cx="363.13131313131316" cy="55.34594921514014" r="2" fill="rgb(0,0,255)"/><circle cx="368.1818181818182" cy="52.9727287129561" r="2" fill="rgb(0,0,255)"/><circle cx="373.23232323232327" cy="55.03959835070441" r="2" fill="rgb(0,0,255)"/><circle cx="378.2828282828283" cy="55.40460399388269" r="2" fill="rgb(0,0,255)"/><circle cx="383.3333333333333" cy="53.47335385625547" r="2" fill="rgb(0,0,255)"/><circle cx="388.3838383838384" cy="59.45390673883884" r="2" fill="rgb(0,0,255)"/><circle cx="393.4343434343434" cy="70.0822170470475" r="2" fill="rgb(0,0,255)"/><circle cx="398.4848484848485" cy="57.05467414870333" r="2" fill="rgb(0,0,255)"/><circle cx="403.5353535353535" cy="57.88170462870454" r="2" fill="rgb(0,0,255)"/><circle cx="408.58585858585855" cy="66.2458555808563" r="2" fill="rgb(0,0,255)"/><circle cx="413.6363636363636" cy="61.56830992149281" r="2" fill="rgb(0,0,255)"/><circle cx="418.68686868686865" cy="68.1980521831768" r="2" fill="rgb(0,0,255)"/><circle cx="423.73737373737373" cy="68.13763221740408" r="2" fill="rgb(0,0,255)"/><circle cx="428.7878787878788" cy="78.03082063582741" r="2" fill="rgb(0,0,255)"/><circle cx="433.83838383838383" cy="78.82242607999143" r="2" fill="rgb(0,0,255)"/><circle cx="438.8888888888889" cy="62.48330330871323" r="2" fill="rgb(0,0,255)"/><circle cx="443.93939393939394" cy="56.72617428124403" r="2" fill="rgb(0,0,255)"/><circle cx="448.989898989899" cy="60.060783851632436" r="2" fill="rgb(0,0,255)"/><circle cx="454.04040404040404" cy="64.9313803162351" r="2" fill="rgb(0,0,255)"/><circle cx="459.0909090909091" cy="59.07181387887675" r="2" fill="rgb(0,0,255)"/><circle cx="464.14141414141415" cy="59.19680715885926" r="2" fill="rgb(0,0,255)"/><circle cx="469.19191919191917" cy="59.86880610901068" r="2" fill="rgb(0,0,255)"/><circle cx="474.24242424242425" cy="60.968231923796395" r="2" fill="rgb(0,0,255)"/><circle cx="479.2929292929293" cy="60.5316394978999" r="2" fill="rgb(0,0,255)"/><circle cx="484.34343434343435" cy="59.69298253473477" r="2" fill="rgb(0,0,255)"/><circle cx="489.3939393939394" cy="67.87338621877615" r="2" fill="rgb(0,0,255)"/><circle cx="494.4444444444444" cy="63.924499108892405" r="2" fill="rgb(0,0,255)"/><circle cx="499.4949494949495" cy="60.70802255843512" r="2" fill="rgb(0,0,255)"/><circle cx="504.5454545454545" cy="62.60155798023436" r="2" fill="rgb(0,0,255)"/><circle cx="509.59595959595964" cy="56.13308782792768" r="2" fill="rgb(0,0,255)"/><circle cx="514.6464646464647" cy="53.86067447948875" r="2" fill="rgb(0,0,255)"/><circle cx="519.6969696969697" cy="70.28350552113966" r="2" fill="rgb(0,0,255)"/><circle cx="524.7474747474748" cy="67.14075029957957" r="2" fill="rgb(0,0,255)"/><circle cx="529.7979797979798" cy="67.61244495943754" r="2" fill="rgb(0,0,255)"/><circle cx="534.8484848484849" cy="62.08981750964824" r="2" fill="rgb(0,0,255)"/><circle cx="539.8989898989898" cy="63.308186937357334" r="2" fill="rgb(0,0,255)"/><circle cx="544.9494949494949" cy="57.26541558612786" r="2" fill="rgb(0,0,255)"/><circle cx="550.0" cy="60.23312434326266" r="2" fill="rgb(0,0,255)"/><polyline points="50.0,50.44166690025531 55.05050505050505,55.0632275002655 60.101010101010104,55.33133322609541 65.15151515151516,53.1904885918903 70.20202020202021,53.1904885918903 75.25252525252526,52.018644255534866 80.30303030303031,52.92923375061815 85.35353535353535,53.14977801205134 90.40404040404042,52.97868348988385 95.45454545454545,52.60980990820275 100.5050505050505,52.27667096146456 105.55555555555554,53.08373042181171 110.60606060606061,52.48821322151878 115.65656565656566,52.392736499605746 120.7070707070707,51.91290675821932 125.75757575757576,51.72284648140777 130.80808080808083,51.65872266544943 135.85858585858585,51.68673940971422 140.9090909090909,51.594035262291015 145.95959595959596,51.05581627704606 151.010101010101,51.03510841137256 156.06060606060606,50.9885956028034 161.1111111111111,50.96426410867457 166.16161616161617,50.571235666232724 171.21212121212122,50.5095002095664 176.26262626262627,50.81368618120854 181.31313131313132,50.81368618120854 186.36363636363635,50.42821990236877 191.4141414141414,50.42821990236877 196.46464646464648,50.44651359169302 201.51515151515153,50.50438597489165 206.56565656565658,50.39540164069177 211.61616161616163,50.413302396657855 216.66666666666666,50.61715600365761 221.7171717171717,50.413302396657855 226.76767676767676,50.42821990236877 231.8181818181818,50.140913152588894 236.86868686868686,50.42821990236877 241.91919191919192,50.416320168569655 246.96969696969697,50.42821990236877 252.02020202020202,50.413302396657855 257.07070707070704,50.42529943880214 262.1212121212121,50.413302396657855 267.1717171717172,50.39540164069177 272.2222222222222,50.413302396657855 277.27272727272725,50.42821990236877 282.32323232323233,50.42204670146248 287.3737373737374,50.38469795842968 292.42424242424244,50.33683481238785 297.47474747474746,50.36765279917978 302.52525252525254,50.110874045766934 307.57575757575756,50.110874045766934 312.62626262626264,50.110874045766934 317.67676767676767,50.09600517365516 322.7272727272727,50.06735210182791 327.77777777777777,50.08395749322506 332.8282828282828,50.09600517365516 337.8787878787879,50.122921726197035 342.92929292929296,50.122921726197035 347.979797979798,50.09833679619504 353.03030303030306,50.122921726197035 358.0808080808081,50.122921726197035 363.13131313131316,50.110874045766934 368.1818181818182,50.1102569122948 373.23232323232327,50.1102569122948 378.2828282828283,50.110874045766934 383.3333333333333,50.122921726197035 388.3838383838384,50.110874045766934 393.4343434343434,50.122921726197035 398.4848484848485,50.07342271370726 403.5353535353535,50.0854703941373 408.58585858585855,50.0750382036465 413.6363636363636,50.110874045766934 418.68686868686865,50.110874045766934 423.73737373737373,50.110874045766934 428.7878787878788,50.127479437164084 433.83838383838383,50.12130623625785 438.8888888888889,50.122921726197035 443.93939393939394,50.04552640817059 448.989898989899,50.081297164481214 454.04040404040404,50.081297164481214 459.0909090909091,50.102545418592456 464.14141414141415,50.102545418592456 469.19191919191917,50.102545418592456 474.24242424242425,50.11209405992645 479.2929292929293,50.110874045766934 484.34343434343435,50.102545418592456 489.3939393939394,50.122921726197035 494.4444444444444,50.102545418592456 499.4949494949495,50.073892346765206 504.5454545454545,50.073892346765206 509.59595959595964,50.073892346765206 514.6464646464647,50.085940027195306 519.6969696969697,50.090497738162355 524.7474747474748,50.09103840367254 529.7979797979798,50.085940027195306 534.8484848484849,50.01660539139715 539.8989898989898,50.0 544.9494949494949,50.0 550.0,50.0" fill="none" stroke="rgb(0,255,0)" stroke-width="1"/><circle cx="50.0" cy="50.44166690025531" r="2" fill="rgb(0,255,0)"/><circle cx="55.05050505050505" cy="55.0632275002655" r="2" fill="rgb(0,255,0)"/><circle cx="60.101010101010104" cy="55.33133322609541" r="2" fill="rgb(0,255,0)"/><circle cx="65.15151515151516" cy="53.1904885918903" r="2" fill="rgb(0,255,0)"/><circle cx="70.20202020202021" cy="53.1904885918903" r="2" fill="rgb(0,255,0)"/><circle cx="75.25252525252526" cy="52.018644255534866" r="2" fill="rgb(0,255,0)"/><circle cx="80.30303030303031" cy="52.92923375061815" r="2" fill="rgb(0,255,0)"/><circle cx="85.35353535353535" cy="53.14977801205134" r="2" fill="rgb(0,255,0)"/><circle cx="90.40404040404042" cy="52.97868348988385" r="2" fill="rgb(0,255,0)"/><circle cx="95.45454545454545" cy="52.60980990820275" r="2" fill="rgb(0,255,0)"/><circle cx="100.5050505050505" cy="52.27667096146456" r="2" fill="rgb(0,255,0)"/><circle cx="105.55555555555554" cy="53.08373042181171" r="2" fill="rgb(0,255,0)"/><circle cx="110.60606060606061" cy="52.48821322151878" r="2" fill="rgb(0,255,0)"/><circle cx="115.65656565656566" cy="52.392736499605746" r="2" fill="rgb(0,255,0)"/><circle cx="120.7070707070707" cy="51.91290675821932" r="2" fill="rgb(0,255,0)"/><circle cx="125.75757575757576" cy="51.72284648140777" r="2" fill="rgb(0,255,0)"/><circle cx="130.80808080808083" cy="51.65872266544943" r="2" fill="rgb(0,255,0)"/><circle cx="135.85858585858585" cy="51.68673940971422" r="2" fill="rgb(0,255,0)"/><circle cx="140.9090909090909" cy="51.594035262291015" r="2" fill="rgb(0,255,0)"/><circle cx="145.95959595959596" cy="51.05581627704606" r="2" fill="rgb(0,255,0)"/><circle cx="151.010101010101" cy="51.03510841137256" r="2" fill="rgb(0,255,0)"/><circle cx="156.06060606060606" cy="50.9885956028034" r="2" fill="rgb(0,255,0)"/><circle cx="161.1111111111111" cy="50.96426410867457" r="2" fill="rgb(0,255,0)"/><circle cx="166.16161616161617" cy="50.571235666232724" r="2" fill="rgb(0,255,0)"/><circle cx="171.21212121212122" cy="50.5095002095664" r="2" fill="rgb(0,255,0)"/><circle cx="176.26262626262627" cy="50.81368618120854" r="2" fill="rgb(0,255,0)"/><circle cx="181.31313131313132" cy="50.81368618120854" r="2" fill="rgb(0,255,0)"/><circle cx="186.36363636363635" cy="50.42821990236877" r="2" fill="rgb(0,255,0)"/><circle cx="191.4141414141414" cy="50.42821990236877" r="2" fill="rgb(0,255,0)"/><circle cx="196.46464646464648" cy="50.44651359169302" r="2" fill="rgb(0,255,0)"/><circle cx="201.51515151515153" cy="50.50438597489165" r="2" fill="rgb(0,255,0)"/><circle cx="206.56565656565658" cy="50.39540164069177" r="2" fill="rgb(0,255,0)"/><circle cx="211.61616161616163" cy="50.413302396657855" r="2" fill="rgb(0,255,0)"/><circle cx="216.66666666666666" cy="50.61715600365761" r="2" fill="rgb(0,255,0)"/><circle cx="221.7171717171717" cy="50.413302396657855" r="2" fill="rgb(0,255,0)"/><circle cx="226.76767676767676" cy="50.42821990236877" r="2" fill="rgb(0,255,0)"/><circle cx="231.8181818181818" cy="50.140913152588894" r="2" fill="rgb(0,255,0)"/><circle cx="236.86868686868686" cy="50.42821990236877" r="2" fill="rgb(0,255,0)"/><circle cx="241.91919191919192" cy="50.416320168569655" r="2" fill="rgb(0,255,0)"/><circle cx="246.96969696969697" cy="50.42821990236877" r="2" fill="rgb(0,255,0)"/><circle cx="252.02020202020202" cy="50.413302396657855" r="2" fill="rgb(0,255,0)"/><circle cx="257.07070707070704" cy="50.42529943880214" r="2" fill="rgb(0,255,0)"/><circle cx="262.1212121212121" cy="50.413302396657855" r="2" fill="rgb(0,255,0)"/><circle cx="267.1717171717172" cy="50.39540164069177" r="2" fill="rgb(0,255,0)"/><circle cx="272.2222222222222" cy="50.413302396657855" r="2" fill="rgb(0,255,0)"/><circle cx="277.27272727272725" cy="50.42821990236877" r="2" fill="rgb(0,255,0)"/><circle cx="282.32323232323233" cy="50.42204670146248" r="2" fill="rgb(0,255,0)"/><circle cx="287.3737373737374" cy="50.38469795842968" r="2" fill="rgb(0,255,0)"/><circle cx="292.42424242424244" cy="50.33683481238785" r="2" fill="rgb(0,255,0)"/><circle cx="297.47474747474746" cy="50.36765279917978" r="2" fill="rgb(0,255,0)"/><circle cx="302.52525252525254" cy="50.110874045766934" r="2" fill="rgb(0,255,0)"/><circle cx="307.57575757575756" cy="50.110874045766934" r="2" fill="rgb(0,255,0)"/><circle cx="312.62626262626264" cy="50.110874045766934" r="2" fill="rgb(0,255,0)"/><circle cx="317.67676767676767" cy="50.09600517365516" r="2" fill="rgb(0,255,0)"/><circle cx="322.7272727272727" cy="50.06735210182791" r="2" fill="rgb(0,255,0)"/><circle cx="327.77777777777777" cy="50.08395749322506" r="2" fill="rgb(0,255,0)"/><circle cx="332.8282828282828" cy="50.09600517365516" r="2" fill="rgb(0,255,0)"/><circle cx="337.8787878787879" cy="50.122921726197035" r="2" fill="rgb(0,255,0)"/><circle cx="342.92929292929296" cy="50.122921726197035" r="2" fill="rgb(0,255,0)"/><circle cx="347.979797979798" cy="50.09833679619504" r="2" fill="rgb(0,255,0)"/><circle cx="353.03030303030306" cy="50.122921726197035" r="2" fill="rgb(0,255,0)"/><circle cx="358.0808080808081" cy="50.122921726197035" r="2" fill="rgb(0,255,0)"/><circle cx="363.13131313131316" cy="50.110874045766934" r="2" fill="rgb(0,255,0)"/><circle cx="368.1818181818182" cy="50.1102569122948" r="2" fill="rgb(0,255,0)"/><circle cx="373.23232323232327" cy="50.1102569122948" r="2" fill="rgb(0,255,0)"/><circle cx="378.2828282828283" cy="50.110874045766934" r="2" fill="rgb(0,255,0)"/><circle cx="383.3333333333333" cy="50.122921726197035" r="2" fill="rgb(0,255,0)"/><circle cx="388.3838383838384" cy="50.110874045766934" r="2" fill="rgb(0,255,0)"/><circle cx="393.4343434343434" cy="50.122921726197035" r="2" fill="rgb(0,255,0)"/><circle cx="398.4848484848485" cy="50.07342271370726" r="2" fill="rgb(0,255,0)"/><circle cx="403.5353535353535" cy="50.0854703941373" r="2" fill="rgb(0,255,0)"/><circle cx="408.58585858585855" cy="50.0750382036465" r="2" fill="rgb(0,255,0)"/><circle cx="413.6363636363636" cy="50.110874045766934" r="2" fill="rgb(0,255,0)"/><circle cx="418.68686868686865" cy="50.110874045766934" r="2" fill="rgb(0,255,0)"/><circle cx="423.73737373737373" cy="50.110874045766934" r="2" fill="rgb(0,255,0)"/><circle cx="428.7878787878788" cy="50.127479437164084" r="2" fill="rgb(0,255,0)"/><circle cx="433.83838383838383" cy="50.12130623625785" r="2" fill="rgb(0,255,0)"/><circle cx="438.8888888888889" cy="50.122921726197035" r="2" fill="rgb(0,255,0)"/><circle cx="443.93939393939394" cy="50.04552640817059" r="2" fill="rgb(0,255,0)"/><circle cx="448.989898989899" cy="50.081297164481214" r="2" fill="rgb(0,255,0)"/><circle cx="454.04040404040404" cy="50.081297164481214" r="2" fill="rgb(0,255,0)"/><circle cx="459.0909090909091" cy="50.102545418592456" r="2" fill="rgb(0,255,0)"/><circle cx="464.14141414141415" cy="50.102545418592456" r="2" fill="rgb(0,255,0)"/><circle cx="469.19191919191917" cy="50.102545418592456" r="2" fill="rgb(0,255,0)"/><circle cx="474.24242424242425" cy="50.11209405992645" r="2" fill="rgb(0,255,0)"/><circle cx="479.2929292929293" cy="50.110874045766934" r="2" fill="rgb(0,255,0)"/><circle cx="484.34343434343435" cy="50.102545418592456" r="2" fill="rgb(0,255,0)"/><circle cx="489.3939393939394" cy="50.122921726197035" r="2" fill="rgb(0,255,0)"/><circle cx="494.4444444444444" cy="50.102545418592456" r="2" fill="rgb(0,255,0)"/><circle cx="499.4949494949495" cy="50.073892346765206" r="2" fill="rgb(0,255,0)"/><circle cx="504.5454545454545" cy="50.073892346765206" r="2" fill="rgb(0,255,0)"/><circle cx="509.59595959595964" cy="50.073892346765206" r="2" fill="rgb(0,255,0)"/><circle cx="514.6464646464647" cy="50.085940027195306" r="2" fill="rgb(0,255,0)"/><circle cx="519.6969696969697" cy="50.090497738162355" r="2" fill="rgb(0,255,0)"/><circle cx="524.7474747474748" cy="50.09103840367254" r="2" fill="rgb(0,255,0)"/><circle cx="529.7979797979798" cy="50.085940027195306" r="2" fill="rgb(0,255,0)"/><circle cx="534.8484848484849" cy="50.01660539139715" r="2" fill="rgb(0,255,0)"/><circle cx="539.8989898989898" cy="50.0" r="2" fill="rgb(0,255,0)"/><circle cx="544.9494949494949" cy="50.0" r="2" fill="rgb(0,255,0)"/><circle cx="550.0" cy="50.0" r="2" fill="rgb(0,255,0)"/><text x="350.0" y="20.0" text-anchor="middle" fill="rgb(0,0,0)" font-size="20.0">GA Demo</text><text x="350.0" y="575.0" text-anchor="middle" fill="rgb(0,0,0)" font-size="12.0">generation</text><text transform="rotate(-90.0 20.0 300.0)" x="20.0" y="300.0" text-anchor="middle" fill="rgb(0,0,0)" font-size="12.0">fitness</text><text x="620" y="62" fill="rgb(0,0,0)" font-size="12">min</text><text x="620" y="74" fill="rgb(0,0,255)" font-size="12">ave</text><text x="620" y="86" fill="rgb(0,255,0)" font-size="12">max</text>
      Sorry, your browser does not support inline SVG.
    </svg>