<?xml version='1.0' encoding='UTF-8'?>
<svg version="1.1" width="700.0" height="600.0" onload="init(evt)" xmlns="http://www.w3.org/2000/svg">
      <style>.caption {
  font-size: 14px;
  font-family: Georgia, serif;
}
</style>
      <script type="text/ecmascript"><![CDATA[
function init(evt) {
  if ( window.svgDocument == null ) {
    svgDocument = evt.target.ownerDocument;
  }
}

function RectHover(evt, i, c) {
  rect = svgDocument.getElementById('rect' + i);
  if( c != null ) {
    rect.setAttributeNS(null, "fill", c)  
  }
  tooltiptext = svgDocument.getElementById('tooltiptext' + i);
  tooltipbg = svgDocument.getElementById('tooltipbg' + i);
  if( tooltipbg != null) {
    tbb = tooltiptext.getBBox();
    tooltipbg.setAttributeNS(null, "width", tbb.width);
    tooltipbg.setAttributeNS(null, "height", tbb.height);
    tooltipbg.setAttributeNS(null, "x", tbb.x);
    tooltipbg.setAttributeNS(null, "y", tbb.y);
    tooltipbg.setAttributeNS(null, "visibility", "visible");
  }
  tooltiptext.setAttributeNS(null,"visibility","visible");
}

function RectUnhover(evt, i, c) {
  rect = svgDocument.getElementById('rect' + i);
  if( c != null ) {
    rect.setAttributeNS(null, "fill", c)  
  }
  tooltiptext = svgDocument.getElementById('tooltiptext' + i);
  tooltiptext.setAttributeNS(null,"visibility","hidden");
  tooltipbg = svgDocument.getElementById('tooltipbg' + i);
  if( tooltipbg != null ) {
    tooltipbg.setAttributeNS(null,"visibility","hidden");
  }
}
]]></script>
      <line x1="50.0" y1="550.0" x2="550.0" y2="550.0" stroke="rgb(0,0,0)" stroke-width="1"/><line x1="50.0" y1="550.0" x2="50.0" y2="50.0" stroke="rgb(0,0,0)" stroke-width="1"/><line x1="50.0" y1="550.0" x2="50.0" y2="50.0" stroke="rgb(192,192,192)" stroke-width="1"/><line x1="50.0" y1="548.0" x2="50.0" y2="552.0" stroke="rgb(192,192,192)" stroke-width="1"/><text text-anchor="middle" alignment-baseline="hanging" x="50.0" y="553.0" font-size="12.0">0</text><line x1="100.5050505050505" y1="550.0" x2="100.5050505050505" y2="50.0" stroke="rgb(192,192,192)" stroke-width="1"/><line x1="100.5050505050505" y1="548.0" x2="100.5050505050505" y2="552.0" stroke="rgb(192,192,192)" stroke-width="1"/><text text-anchor="middle" alignment-baseline="hanging" x="100.5050505050505" y="553.0" font-size="12.0">10</text><line x1="151.010101010101" y1="550.0" x2="151.010101010101" y2="50.0" stroke="rgb(192,192,192)" stroke-width="1"/><line x1="151.010101010101" y1="548.0" x2="151.010101010101" y2="552.0" stroke="rgb(192,192,192)" stroke-width="1"/><text text-anchor="middle" alignment-baseline="hanging" x="151.010101010101" y="553.0" font-size="12.0">20</text><line x1="201.51515151515153" y1="550.0" x2="201.51515151515153" y2="50.0" stroke="rgb(192,192,192)" stroke-width="1"/><line x1="201.51515151515153" y1="548.0" x2="201.51515151515153" y2="552.0" stroke="rgb(192,192,192)" stroke-width="1"/><text text-anchor="middle" alignment-baseline="hanging" x="201.51515151515153" y="553.0" font-size="12.0">30</text><line x1="252.02020202020202" y1="550.0" x2="252.02020202020202" y2="50.0" stroke="rgb(192,192,192)" stroke-width="1"/><line x1="252.02020202020202" y1="548.0" x2="252.02020202020202" y2="552.0" stroke="rgb(192,192,192)" stroke-width="1"/><text text-anchor="middle" alignment-baseline="hanging" x="252.02020202020202" y="553.0" font-size="12.0">40</text><line x1="302.52525252525254" y1="550.0" x2="302.52525252525254" y2="50.0" stroke="rgb(192,192,192)" stroke-width="1"/><line x1="302.52525252525254" y1="548.0" x2="302.52525252525254" y2="552.0" stroke="rgb(192,192,192)" stroke-width="1"/><text text-anchor="middle" alignment-baseline="hanging" x="302.52525252525254" y="553.0" font-size="12.0">50</text><line x1="353.03030303030306" y1="550.0" x2="353.03030303030306" y2="50.0" stroke="rgb(192,192,192)" stroke-width="1"/><line x1="353.03030303030306" y1="548.0" x2="353.03030303030306" y2="552.0" stroke="rgb(192,192,192)" stroke-width="1"/><text text-anchor="middle" alignment-baseline="hanging" x="353.03030303030306" y="553.0" font-size="12.0">60</text><line x1="403.5353535353535" y1="550.0" x2="403.5353535353535" y2="50.0" stroke="rgb(192,192,192)" stroke-width="1"/><line x1="403.5353535353535" y1="548.0" x2="403.5353535353535" y2="552.0" stroke="rgb(192,192,192)" stroke-width="1"/><text text-anchor="middle" alignment-baseline="hanging" x="403.5353535353535" y="553.0" font-size="12.0">70</text><line x1="454.04040404040404" y1="550.0" x2="454.04040404040404" y2="50.0" stroke="rgb(192,192,192)" stroke-width="1"/><line x1="454.04040404040404" y1="548.0" x2="454.04040404040404" y2="552.0" stroke="rgb(192,192,192)" stroke-width="1"/><text text-anchor="middle" alignment-baseline="hanging" x="454.04040404040404" y="553.0" font-size="12.0">80</text><line x1="504.5454545454545" y1="550.0" x2="504.5454545454545" y2="50.0" stroke="rgb(192,192,192)" stroke-width="1"/><line x1="504.5454545454545" y1="548.0" x2="504.5454545454545" y2="552.0" stroke="rgb(192,192,192)" stroke-width="1"/><text text-anchor="middle" alignment-baseline="hanging" x="504.5454545454545" y="553.0" font-size="12.0">90</text><line x1="50.0" y1="550.0" x2="550.0" y2="550.0" stroke="rgb(192,192,192)" stroke-width="1"/><text text-anchor="end" alignment-baseline="middle" x="45.0" y="550.0" font-size="12.0">0.0</text><line x1="48.0" y1="550.0" x2="52.0" y2="550.0" stroke="rgb(192,192,192)" stroke-width="1"/><line x1="50.0" y1="367.02005372067015" x2="550.0" y2="367.02005372067015" stroke="rgb(192,192,192)" stroke-width="1"/><text text-anchor="end" alignment-baseline="middle" x="45.0" y="367.02005372067015" font-size="12.0">1000.0</text><line x1="48.0" y1="367.02005372067015" x2="52.0" y2="367.02005372067015" stroke="rgb(192,192,192)" stroke-width="1"/><line x1="50.0" y1="184.04010744134035" x2="550.0" y2="184.04010744134035" stroke="rgb(192,192,192)" stroke-width="1"/><text text-anchor="end" alignment-baseline="middle" x="45.0" y="184.04010744134035" font-size="12.0">2000.0</text><line x1="48.0" y1="184.04010744134035" x2="52.0" y2="184.04010744134035" stroke="rgb(192,192,192)" stroke-width="1"/><polyline points="50.0,418.99557753474994 55.05050505050505,408.1937047482412 60.101010101010104,390.51104665450487 65.15151515151516,389.2488670684028 70.20202020202021,274.98980691549485 75.25252525252526,417.4022437525695 80.30303030303031,416.1149107214203 85.35353535353535,351.6862446868562 90.40404040404042,141.02156591733137 95.45454545454545,323.7438612777803 100.5050505050505,319.14677618787425 105.55555555555554,415.2894469338105 110.60606060606061,415.6768765127659 115.65656565656566,380.82991788705203 120.7070707070707,387.11049203609093 125.75757575757576,337.51987399328146 130.80808080808083,268.15324222412914 135.85858585858585,391.80069664536325 140.9090909090909,391.8168793677677 145.95959595959596,307.55821733934926 151.010101010101,308.45153712854255 156.06060606060606,302.22974265346033 161.1111111111111,380.6956025714236 166.16161616161617,322.55944292325813 171.21212121212122,322.2310318025608 176.26262626262627,401.99755623168517 181.31313131313132,345.46393656339325 186.36363636363635,253.86306028156713 191.4141414141414,253.22716811891604 196.46464646464648,321.62538796477077 201.51515151515153,182.74350708189985 206.56565656565658,360.5676465511968 211.61616161616163,71.79972680861835 216.66666666666666,379.65589766920607 221.7171717171717,401.01914492289006 226.76767676767676,399.653838059857 231.8181818181818,409.37587600788106 236.86868686868686,399.00467132355845 241.91919191919192,409.7561201179901 246.96969696969697,354.6441728394713 252.02020202020202,354.69961030085864 257.07070707070704,355.20430949559307 262.1212121212121,379.9159839051933 267.1717171717172,200.78812933467486 272.2222222222222,200.46388133512943 277.27272727272725,371.14014986113165 282.32323232323233,406.1081700529778 287.3737373737374,85.22907475060651 292.42424242424244,143.4395991576995 297.47474747474746,201.705820020205 302.52525252525254,230.23368489684708 307.57575757575756,426.5041393535746 312.62626262626264,398.43033517524935 317.67676767676767,355.8101498248292 322.7272727272727,375.5982145776966 327.77777777777777,317.5779825625317 332.8282828282828,312.4397320506665 337.8787878787879,312.60167524138876 342.92929292929296,372.47061253980377 347.979797979798,321.42097835185206 353.03030303030306,284.4930279619592 358.0808080808081,317.9118712219238 363.13131313131316,351.22048964551476 368.1818181818182,385.0733122218444 373.23232323232327,411.6050059088658 378.2828282828283,410.28667642464416 383.3333333333333,411.05060531298136 388.3838383838384,410.78413773875343 393.4343434343434,225.0354268903693 398.4848484848485,300.15408518663844 403.5353535353535,282.01933318336205 408.58585858585855,318.2852124175276 413.6363636363636,411.0779905177835 418.68686868686865,341.3018134731751 423.73737373737373,347.49514464746017 428.7878787878788,293.81691033025646 433.83838383838383,267.7226023766116 438.8888888888889,401.5834152528711 443.93939393939394,334.3366479073395 448.989898989899,352.6090234719481 454.04040404040404,334.31102884401514 459.0909090909091,359.33423232575666 464.14141414141415,359.3246180555377 469.19191919191917,378.6409684689207 474.24242424242425,399.2961498322161 479.2929292929293,334.40466253632394 484.34343434343435,338.1915202868867 489.3939393939394,381.6511552129532 494.4444444444444,373.6023209053077 499.4949494949495,373.6023209053077 504.5454545454545,384.5485163007528 509.59595959595964,428.89094266847167 514.6464646464647,387.6298555606802 519.6969696969697,352.875581045076 524.7474747474748,296.0141799612537 529.7979797979798,296.0141799612537 534.8484848484849,296.3016854040402 539.8989898989898,296.3016854040402 544.9494949494949,381.96393429810576 550.0,381.7837528904631" fill="none" stroke="rgb(0,0,0)" stroke-width="1"/><circle cx="50.0" cy="418.99557753474994" r="2" fill="rgb(0,0,0)"/><circle cx="55.05050505050505" cy="408.1937047482412" r="2" fill="rgb(0,0,0)"/><circle cx="60.101010101010104" cy="390.51104665450487" r="2" fill="rgb(0,0,0)"/><circle cx="65.15151515151516" cy="389.2488670684028" r="2" fill="rgb(0,0,0)"/><circle cx="70.20202020202021" cy="274.98980691549485" r="2" fill="rgb(0,0,0)"/><circle cx="75.25252525252526" cy="417.4022437525695" r="2" fill="rgb(0,0,0)"/><circle cx="80.30303030303031" cy="416.1149107214203" r="2" fill="rgb(0,0,0)"/><circle cx="85.35353535353535" cy="351.6862446868562" r="2" fill="rgb(0,0,0)"/><circle cx="90.40404040404042" cy="141.02156591733137" r="2" fill="rgb(0,0,0)"/><circle cx="95.45454545454545" cy="323.7438612777803" r="2" fill="rgb(0,0,0)"/><circle cx="100.5050505050505" cy="319.14677618787425" r="2" fill="rgb(0,0,0)"/><circle cx="105.55555555555554" cy="415.2894469338105" r="2" fill="rgb(0,0,0)"/><circle cx="110.60606060606061" cy="415.6768765127659" r="2" fill="rgb(0,0,0)"/><circle cx="115.65656565656566" cy="380.82991788705203" r="2" fill="rgb(0,0,0)"/><circle cx="120.7070707070707" cy="387.11049203609093" r="2" fill="rgb(0,0,0)"/><circle cx="125.75757575757576" cy="337.51987399328146" r="2" fill="rgb(0,0,0)"/><circle cx="130.80808080808083" cy="268.15324222412914" r="2" fill="rgb(0,0,0)"/><circle cx="135.85858585858585" cy="391.80069664536325" r="2" fill="rgb(0,0,0)"/><circle cx="140.9090909090909" cy="391.8168793677677" r="2" fill="rgb(0,0,0)"/><circle cx="145.95959595959596" cy="307.55821733934926" r="2" fill="rgb(0,0,0)"/><circle cx="151.010101010101" cy="308.45153712854255" r="2" fill="rgb(0,0,0)"/><circle cx="156.06060606060606" cy="302.22974265346033" r="2" fill="rgb(0,0,0)"/><circle cx="161.1111111111111" cy="380.6956025714236" r="2" fill="rgb(0,0,0)"/><circle cx="166.16161616161617" cy="322.55944292325813" r="2" fill="rgb(0,0,0)"/><circle cx="171.21212121212122" cy="322.2310318025608" r="2" fill="rgb(0,0,0)"/><circle cx="176.26262626262627" cy="401.99755623168517" r="2" fill="rgb(0,0,0)"/><circle cx="181.31313131313132" cy="345.46393656339325" r="2" fill="rgb(0,0,0)"/><circle cx="186.36363636363635" cy="253.86306028156713" r="2" fill="rgb(0,0,0)"/><circle cx="191.4141414141414" cy="253.22716811891604" r="2" fill="rgb(0,0,0)"/><circle cx="196.46464646464648" cy="321.62538796477077" r="2" fill="rgb(0,0,0)"/><circle cx="201.51515151515153" cy="182.74350708189985" r="2" fill="rgb(0,0,0)"/><circle cx="206.56565656565658" cy="360.5676465511968" r="2" fill="rgb(0,0,0)"/><circle cx="211.61616161616163" cy="71.79972680861835" r="2" fill="rgb(0,0,0)"/><circle cx="216.66666666666666" cy="379.65589766920607" r="2" fill="rgb(0,0,0)"/><circle cx="221.7171717171717" cy="401.01914492289006" r="2" fill="rgb(0,0,0)"/><circle cx="226.76767676767676" cy="399.653838059857" r="2" fill="rgb(0,0,0)"/><circle cx="231.8181818181818" cy="409.37587600788106" r="2" fill="rgb(0,0,0)"/><circle cx="236.86868686868686" cy="399.00467132355845" r="2" fill="rgb(0,0,0)"/><circle cx="241.91919191919192" cy="409.7561201179901" r="2" fill="rgb(0,0,0)"/><circle cx="246.96969696969697" cy="354.6441728394713" r="2" fill="rgb(0,0,0)"/><circle cx="252.02020202020202" cy="354.69961030085864" r="2" fill="rgb(0,0,0)"/><circle cx="257.07070707070704" cy="355.20430949559307" r="2" fill="rgb(0,0,0)"/><circle cx="262.1212121212121" cy="379.9159839051933" r="2" fill="rgb(0,0,0)"/><circle cx="267.1717171717172" cy="200.78812933467486" r="2" fill="rgb(0,0,0)"/><circle cx="272.2222222222222" cy="200.46388133512943" r="2" fill="rgb(0,0,0)"/><circle cx="277.27272727272725" cy="371.14014986113165" r="2" fill="rgb(0,0,0)"/><circle cx="282.32323232323233" cy="406.1081700529778" r="2" fill="rgb(0,0,0)"/><circle cx="287.3737373737374" cy="85.22907475060651" r="2" fill="rgb(0,0,0)"/><circle cx="292.42424242424244" cy="143.4395991576995" r="2" fill="rgb(0,0,0)"/><circle cx="297.47474747474746" cy="201.705820020205" r="2" fill="rgb(0,0,0)"/><circle cx="302.52525252525254" cy="230.23368489684708" r="2" fill="rgb(0,0,0)"/><circle cx="307.57575757575756" cy="426.5041393535746" r="2" fill="rgb(0,0,0)"/><circle cx="312.62626262626264" cy="398.43033517524935" r="2" fill="rgb(0,0,0)"/><circle cx="317.67676767676767" cy="355.8101498248292" r="2" fill="rgb(0,0,0)"/><circle cx="322.7272727272727" cy="375.5982145776966" r="2" fill="rgb(0,0,0)"/><circle cx="327.77777777777777" cy="317.5779825625317" r="2" fill="rgb(0,0,0)"/><circle cx="332.8282828282828" cy="312.4397320506665" r="2" fill="rgb(0,0,0)"/><circle cx="337.8787878787879" cy="312.60167524138876" r="2" fill="rgb(0,0,0)"/><circle cx="342.92929292929296" cy="372.47061253980377" r="2" fill="rgb(0,0,0)"/><circle cx="347.979797979798" cy="321.42097835185206" r="2" fill="rgb(0,0,0)"/><circle cx="353.03030303030306" cy="284.4930279619592" r="2" fill="rgb(0,0,0)"/><circle cx="358.0808080808081" cy="317.9118712219238" r="2" fill="rgb(0,0,0)"/><circle cx="363.13131313131316" cy="351.22048964551476" r="2" fill="rgb(0,0,0)"/><circle cx="368.1818181818182" cy="385.0733122218444" r="2" fill="rgb(0,0,0)"/><circle cx="373.23232323232327" cy="411.6050059088658" r="2" fill="rgb(0,0,0)"/><circle cx="378.2828282828283" cy="410.28667642464416" r="2" fill="rgb(0,0,0)"/><circle cx="383.3333333333333" cy="411.05060531298136" r="2" fill="rgb(0,0,0)"/><circle cx="388.3838383838384" cy="410.78413773875343" r="2" fill="rgb(0,0,0)"/><circle cx="393.4343434343434" cy="225.0354268903693" r="2" fill="rgb(0,0,0)"/><circle cx="398.4848484848485" cy="300.15408518663844" r="2" fill="rgb(0,0,0)"/><circle cx="403.5353535353535" cy="282.01933318336205" r="2" fill="rgb(0,0,0)"/><circle cx="408.58585858585855" cy="318.2852124175276" r="2" fill="rgb(0,0,0)"/><circle cx="413.6363636363636" cy="411.0779905177835" r="2" fill="rgb(0,0,0)"/><circle cx="418.68686868686865" cy="341.3018134731751" r="2" fill="rgb(0,0,0)"/><circle cx="423.73737373737373" cy="347.49514464746017" r="2" fill="rgb(0,0,0)"/><circle cx="428.7878787878788" cy="293.81691033025646" r="2" fill="rgb(0,0,0)"/><circle cx="433.83838383838383" cy="267.7226023766116" r="2" fill="rgb(0,0,0)"/><circle cx="438.8888888888889" cy="401.5834152528711" r="2" fill="rgb(0,0,0)"/><circle cx="443.93939393939394" cy="334.3366479073395" r="2" fill="rgb(0,0,0)"/><circle cx="448.989898989899" cy="352.6090234719481" r="2" fill="rgb(0,0,0)"/><circle cx="454.04040404040404" cy="334.31102884401514" r="2" fill="rgb(0,0,0)"/><circle cx="459.0909090909091" cy="359.33423232575666" r="2" fill="rgb(0,0,0)"/><circle cx="464.14141414141415" cy="359.3246180555377" r="2" fill="rgb(0,0,0)"/><circle cx="469.19191919191917" cy="378.6409684689207" r="2" fill="rgb(0,0,0)"/><circle cx="474.24242424242425" cy="399.2961498322161" r="2" fill="rgb(0,0,0)"/><circle cx="479.2929292929293" cy="334.40466253632394" r="2" fill="rgb(0,0,0)"/><circle cx="484.34343434343435" cy="338.1915202868867" r="2" fill="rgb(0,0,0)"/><circle cx="489.3939393939394" cy="381.6511552129532" r="2" fill="rgb(0,0,0)"/><circle cx="494.4444444444444" cy="373.6023209053077" r="2" fill="rgb(0,0,0)"/><circle cx="499.4949494949495" cy="373.6023209053077" r="2" fill="rgb(0,0,0)"/><circle cx="504.5454545454545" cy="384.5485163007528" r="2" fill="rgb(0,0,0)"/><circle cx="509.59595959595964" cy="428.89094266847167" r="2" fill="rgb(0,0,0)"/><circle cx="514.6464646464647" cy="387.6298555606802" r="2" fill="rgb(0,0,0)"/><circle cx="519.6969696969697" cy="352.875581045076" r="2" fill="rgb(0,0,0)"/><circle cx="524.7474747474748" cy="296.0141799612537" r="2" fill="rgb(0,0,0)"/><circle cx="529.7979797979798" cy="296.0141799612537" r="2" fill="rgb(0,0,0)"/><circle cx="534.8484848484849" cy="296.3016854040402" r="2" fill="rgb(0,0,0)"/><circle cx="539.8989898989898" cy="296.3016854040402" r="2" fill="rgb(0,0,0)"/><circle cx="544.9494949494949" cy="381.96393429810576" r="2" fill="rgb(0,0,0)"/><circle cx="550.0" cy="381.7837528904631" r="2" fill="rgb(0,0,0)"/><polyline points="50.0,182.28732395820168 55.05050505050505,147.91787753074175 60.101010101010104,133.39513304829478 65.15151515151516,107.86918365082971 70.20202020202021,86.55724994442193 75.25252525252526,85.66093870716458 80.30303030303031,84.73820897843348 85.35353535353535,76.48368649817434 90.40404040404042,66.41935844645127 95.45454545454545,67.99867633675603 100.5050505050505,65.24988504392894 105.55555555555554,70.67884729308088 110.60606060606061,79.84358393193202 115.65656565656566,70.13705693608426 120.7070707070707,67.65164190964634 125.75757575757576,68.20597101203856 130.80808080808083,67.14354861397044 135.85858585858585,74.48635955749018 140.9090909090909,75.63105218176884 145.95959595959596,68.0055689406799 151.010101010101,67.69546759436923 156.06060606060606,67.03571039254155 161.1111111111111,66.5783883476073 166.16161616161617,64.81087004978195 171.21212121212122,62.900798684183655 176.26262626262627,66.8285166536931 181.31313131313132,60.93451086036305 186.36363636363635,60.26564860558227 191.4141414141414,58.67796799328562 196.46464646464648,58.93261153188058 201.51515151515153,56.79608619276661 206.56565656565658,58.53710612599207 211.61616161616163,54.02295478057988 216.66666666666666,59.80833970735813 221.7171717171717,70.336930672878 226.76767676767676,64.0108987947491 231.8181818181818,67.28772003842164 236.86868686868686,70.45248848630098 241.91919191919192,73.32057173603937 246.96969696969697,69.35142457304244 252.02020202020202,73.26445936424733 257.07070707070704,67.70988742690628 262.1212121212121,67.24666744031532 267.1717171717172,63.29282272971517 272.2222222222222,55.820290569091696 277.27272727272725,61.99604941208912 282.32323232323233,65.55042809340927 287.3737373737374,53.33625425134261 292.42424242424244,53.711776948931515 297.47474747474746,54.68916004726384 302.52525252525254,55.937862441050754 307.57575757575756,66.76627543211833 312.62626262626264,61.88120888973481 317.67676767676767,65.4263170531774 322.7272727272727,72.23336669482529 327.77777777777777,58.88910716371828 332.8282828282828,59.02434733717041 337.8787878787879,60.8318318974097 342.92929292929296,64.31857018026881 347.979797979798,58.69254883417352 353.03030303030306,59.45418315116905 358.0808080808081,63.98927224972209 363.13131313131316,66.2592036709894 368.1818181818182,72.94473485705345 373.23232323232327,76.550950706528 378.2828282828283,61.425030060685515 383.3333333333333,58.90697801742181 388.3838383838384,57.92358956129726 393.4343434343434,54.38498526336866 398.4848484848485,58.35957225671831 403.5353535353535,57.10172029919909 408.58585858585855,57.37107116327081 413.6363636363636,65.42053533358074 418.68686868686865,64.21627122991748 423.73737373737373,62.40732983885658 428.7878787878788,57.10171057763711 433.83838383838383,55.34148752058576 438.8888888888889,66.29126152643079 443.93939393939394,66.02612341300977 448.989898989899,63.62088786517688 454.04040404040404,61.49636342931956 459.0909090909091,65.68979389833987 464.14141414141415,75.71099481644575 469.19191919191917,68.00543415388051 474.24242424242425,67.67992631814542 479.2929292929293,62.01006649994184 484.34343434343435,57.06139504365666 489.3939393939394,66.17648164257264 494.4444444444444,71.83099930272226 499.4949494949495,59.68700065364868 504.5454545454545,66.66090283929515 509.59595959595964,71.42033626789919 514.6464646464647,68.47812097065139 519.6969696969697,68.3868207545263 524.7474747474748,54.88011418588087 529.7979797979798,61.01992436005304 534.8484848484849,53.450189462459605 539.8989898989898,60.66720628824078 544.9494949494949,63.98699404991487 550.0,71.61578646273858" fill="none" stroke="rgb(0,0,255)" stroke-width="1"/><circle cx="50.0" cy="182.28732395820168" r="2" fill="rgb(0,0,255)"/><circle cx="55.05050505050505" cy="147.91787753074175" r="2" fill="rgb(0,0,255)"/><circle cx="60.101010101010104" cy="133.39513304829478" r="2" fill="rgb(0,0,255)"/><circle cx="65.15151515151516" cy="107.86918365082971" r="2" fill="rgb(0,0,255)"/><circle cx="70.20202020202021" cy="86.55724994442193" r="2" fill="rgb(0,0,255)"/><circle cx="75.25252525252526" cy="85.66093870716458" r="2" fill="rgb(0,0,255)"/><circle cx="80.30303030303031" cy="84.73820897843348" r="2" fill="rgb(0,0,255)"/><circle cx="85.35353535353535" cy="76.48368649817434" r="2" fill="rgb(0,0,255)"/><circle cx="90.40404040404042" cy="66.41935844645127" r="2" fill="rgb(0,0,255)"/><circle cx="95.45454545454545" cy="67.99867633675603" r="2" fill="rgb(0,0,255)"/><circle cx="100.5050505050505" cy="65.24988504392894" r="2" fill="rgb(0,0,255)"/><circle cx="105.55555555555554" cy="70.67884729308088" r="2" fill="rgb(0,0,255)"/><circle cx="110.60606060606061" cy="79.84358393193202" r="2" fill="rgb(0,0,255)"/><circle cx="115.65656565656566" cy="70.13705693608426" r="2" fill="rgb(0,0,255)"/><circle cx="120.7070707070707" cy="67.65164190964634" r="2" fill="rgb(0,0,255)"/><circle cx="125.75757575757576" cy="68.20597101203856" r="2" fill="rgb(0,0,255)"/><circle cx="130.80808080808083" cy="67.14354861397044" r="2" fill="rgb(0,0,255)"/><circle cx="135.85858585858585" cy="74.48635955749018" r="2" fill="rgb(0,0,255)"/><circle cx="140.9090909090909" cy="75.63105218176884" r="2" fill="rgb(0,0,255)"/><circle cx="145.95959595959596" cy="68.0055689406799" r="2" fill="rgb(0,0,255)"/><circle cx="151.010101010101" cy="67.69546759436923" r="2" fill="rgb(0,0,255)"/><circle cx="156.06060606060606" cy="67.03571039254155" r="2" fill="rgb(0,0,255)"/><circle cx="161.1111111111111" cy="66.5783883476073" r="2" fill="rgb(0,0,255)"/><circle cx="166.16161616161617" cy="64.81087004978195" r="2" fill="rgb(0,0,255)"/><circle cx="171.21212121212122" cy="62.900798684183655" r="2" fill="rgb(0,0,255)"/><circle cx="176.26262626262627" cy="66.8285166536931" r="2" fill="rgb(0,0,255)"/><circle cx="181.31313131313132" cy="60.93451086036305" r="2" fill="rgb(0,0,255)"/><circle cx="186.36363636363635" cy="60.26564860558227" r="2" fill="rgb(0,0,255)"/><circle cx="191.4141414141414" cy="58.67796799328562" r="2" fill="rgb(0,0,255)"/><circle cx="196.46464646464648" cy="58.93261153188058" r="2" fill="rgb(0,0,255)"/><circle cx="201.51515151515153" cy="56.79608619276661" r="2" fill="rgb(0,0,255)"/><circle cx="206.56565656565658" cy="58.53710612599207" r="2" fill="rgb(0,0,255)"/><circle cx="211.61616161616163" cy="54.02295478057988" r="2" fill="rgb(0,0,255)"/><circle cx="216.66666666666666" cy="59.80833970735813" r="2" fill="rgb(0,0,255)"/><circle cx="221.7171717171717" cy="70.336930672878" r="2" fill="rgb(0,0,255)"/><circle cx="226.76767676767676" cy="64.0108987947491" r="2" fill="rgb(0,0,255)"/><circle cx="231.8181818181818" cy="67.28772003842164" r="2" fill="rgb(0,0,255)"/><circle cx="236.86868686868686" cy="70.45248848630098" r="2" fill="rgb(0,0,255)"/><circle cx="241.91919191919192" cy="73.32057173603937" r="2" fill="rgb(0,0,255)"/><circle cx="246.96969696969697" cy="69.35142457304244" r="2" fill="rgb(0,0,255)"/><circle cx="252.02020202020202" cy="73.26445936424733" r="2" fill="rgb(0,0,255)"/><circle cx="257.07070707070704" cy="67.70988742690628" r="2" fill="rgb(0,0,255)"/><circle cx="262.1212121212121" cy="67.24666744031532" r="2" fill="rgb(0,0,255)"/><circle cx="267.1717171717172" cy="63.29282272971517" r="2" fill="rgb(0,0,255)"/><circle cx="272.2222222222222" cy="55.820290569091696" r="2" fill="rgb(0,0,255)"/><circle cx="277.27272727272725" cy="61.99604941208912" r="2" fill="rgb(0,0,255)"/><circle cx="282.32323232323233" cy="65.55042809340927" r="2" fill="rgb(0,0,255)"/><circle cx="287.3737373737374" cy="53.33625425134261" r="2" fill="rgb(0,0,255)"/><circle cx="292.42424242424244" cy="53.711776948931515" r="2" fill="rgb(0,0,255)"/><circle cx="297.47474747474746" cy="54.68916004726384" r="2" fill="rgb(0,0,255)"/><circle cx="302.52525252525254" cy="55.937862441050754" r="2" fill="rgb(0,0,255)"/><circle cx="307.57575757575756" cy="66.76627543211833" r="2" fill="rgb(0,0,255)"/><circle cx="312.62626262626264" cy="61.88120888973481" r="2" fill="rgb(0,0,255)"/><circle cx="317.67676767676767" cy="65.4263170531774" r="2" fill="rgb(0,0,255)"/><circle cx="322.7272727272727" cy="72.23336669482529" r="2" fill="rgb(0,0,255)"/><circle cx="327.77777777777777" cy="58.88910716371828" r="2" fill="rgb(0,0,255)"/><circle cx="332.8282828282828" cy="59.02434733717041" r="2" fill="rgb(0,0,255)"/><circle cx="337.8787878787879" cy="60.8318318974097" r="2" fill="rgb(0,0,255)"/><circle cx="342.92929292929296" cy="64.31857018026881" r="2" fill="rgb(0,0,255)"/><circle cx="347.979797979798" cy="58.69254883417352" r="2" fill="rgb(0,0,255)"/><circle cx="353.03030303030306" cy="59.45418315116905" r="2" fill="rgb(0,0,255)"/><circle cx="358.0808080808081" cy="63.98927224972209" r="2" fill="rgb(0,0,255)"/><circle cx="363.13131313131316" cy="66.2592036709894" r="2" fill="rgb(0,0,255)"/><circle cx="368.1818181818182" cy="72.94473485705345" r="2" fill="rgb(0,0,255)"/><circle cx="373.23232323232327" cy="76.550950706528" r="2" fill="rgb(0,0,255)"/><circle cx="378.2828282828283" cy="61.425030060685515" r="2" fill="rgb(0,0,255)"/><circle cx="383.3333333333333" cy="58.90697801742181" r="2" fill="rgb(0,0,255)"/><circle cx="388.3838383838384" cy="57.92358956129726" r="2" fill="rgb(0,0,255)"/><circle cx="393.4343434343434" cy="54.38498526336866" r="2" fill="rgb(0,0,255)"/><circle cx="398.4848484848485" cy="58.35957225671831" r="2" fill="rgb(0,0,255)"/><circle cx="403.5353535353535" cy="57.10172029919909" r="2" fill="rgb(0,0,255)"/><circle cx="408.58585858585855" cy="57.37107116327081" r="2" fill="rgb(0,0,255)"/><circle cx="413.6363636363636" cy="65.42053533358074" r="2" fill="rgb(0,0,255)"/><circle cx="418.68686868686865" cy="64.21627122991748" r="2" fill="rgb(0,0,255)"/><circle cx="423.73737373737373" cy="62.40732983885658" r="2" fill="rgb(0,0,255)"/><circle cx="428.7878787878788" cy="57.10171057763711" r="2" fill="rgb(0,0,255)"/><circle cx="433.83838383838383" cy="55.34148752058576" r="2" fill="rgb(0,0,255)"/><circle cx="438.8888888888889" cy="66.29126152643079" r="2" fill="rgb(0,0,255)"/><circle cx="443.93939393939394" cy="66.02612341300977" r="2" fill="rgb(0,0,255)"/><circle cx="448.989898989899" cy="63.62088786517688" r="2" fill="rgb(0,0,255)"/><circle cx="454.04040404040404" cy="61.49636342931956" r="2" fill="rgb(0,0,255)"/><circle cx="459.0909090909091" cy="65.68979389833987" r="2" fill="rgb(0,0,255)"/><circle cx="464.14141414141415" cy="75.71099481644575" r="2" fill="rgb(0,0,255)"/><circle cx="469.19191919191917" cy="68.00543415388051" r="2" fill="rgb(0,0,255)"/><circle cx="474.24242424242425" cy="67.67992631814542" r="2" fill="rgb(0,0,255)"/><circle cx="479.2929292929293" cy="62.01006649994184" r="2" fill="rgb(0,0,255)"/><circle cx="484.34343434343435" cy="57.06139504365666" r="2" fill="rgb(0,0,255)"/><circle cx="489.3939393939394" cy="66.17648164257264" r="2" fill="rgb(0,0,255)"/><circle cx="494.4444444444444" cy="71.83099930272226" r="2" fill="rgb(0,0,255)"/><circle cx="499.4949494949495" cy="59.68700065364868" r="2" fill="rgb(0,0,255)"/><circle cx="504.5454545454545" cy="66.66090283929515" r="2" fill="rgb(0,0,255)"/><circle cx="509.59595959595964" cy="71.42033626789919" r="2" fill="rgb(0,0,255)"/><circle cx="514.6464646464647" cy="68.47812097065139" r="2" fill="rgb(0,0,255)"/><circle cx="519.6969696969697" cy="68.3868207545263" r="2" fill="rgb(0,0,255)"/><circle cx="524.7474747474748" cy="54.88011418588087" r="2" fill="rgb(0,0,255)"/><circle cx="529.7979797979798" cy="61.01992436005304" r="2" fill="rgb(0,0,255)"/><circle cx="534.8484848484849" cy="53.450189462459605" r="2" fill="rgb(0,0,255)"/><circle cx="539.8989898989898" cy="60.66720628824078" r="2" fill="rgb(0,0,255)"/><circle cx="544.9494949494949" cy="63.98699404991487" r="2" fill="rgb(0,0,255)"/><circle cx="550.0" cy="71.61578646273858" r="2" fill="rgb(0,0,255)"/><polyline points="50.0,59.21999028958044 55.05050505050505,58.82633873731271 60.101010101010104,58.91776263760579 65.15151515151516,58.646126788679794 70.20202020202021,58.421929230550234 75.25252525252526,58.62195933128214 80.30303030303031,57.5573369201789 85.35353535353535,57.96603559332647 90.40404040404042,57.46399114834895 95.45454545454545,57.05290236725307 100.5050505050505,57.098550135914365 105.55555555555554,57.061878013105684 110.60606060606061,56.94869994675986 115.65656565656566,56.86342923955334 120.7070707070707,56.70628385157926 125.75757575757576,56.26999970906161 130.80808080808083,56.30673988537063 135.85858585858585,56.103808448865834 140.9090909090909,54.42160615400246 145.95959595959596,53.32000575219831 151.010101010101,53.91792626784019 156.06060606060606,52.775655522830334 161.1111111111111,52.529118778162456 166.16161616161617,51.86033671297844 171.21212121212122,52.253042066095475 176.26262626262627,52.025381745913535 181.31313131313132,51.65846385028948 186.36363636363635,51.67586789809184 191.4141414141414,51.909099781369264 196.46464646464648,51.74869888350969 201.51515151515153,51.69338909288325 206.56565656565658,51.5300187974658 211.61616161616163,51.5300187974658 216.66666666666666,51.69033319844402 221.7171717171717,51.62667643175661 226.76767676767676,51.54627477565214 231.8181818181818,51.58136366054322 236.86868686868686,51.66942322978332 241.91919191919192,51.56126072418385 246.96969696969697,51.56126072418385 252.02020202020202,51.56126072418385 257.07070707070704,51.45488351351861 262.1212121212121,51.54627477565214 267.1717171717172,51.549049644230536 272.2222222222222,51.56126072418385 277.27272727272725,51.49330077434581 282.32323232323233,51.50582326279641 287.3737373737374,51.5337356076148 292.42424242424244,51.517496309015144 297.47474747474746,51.49083731426475 302.52525252525254,51.50582326279641 307.57575757575756,51.5300187974658 312.62626262626264,51.51503284893414 317.67676767676767,51.5300187974658 322.7272727272727,51.54627477565214 327.77777777777777,51.50275657625423 332.8282828282828,51.54627477565214 337.8787878787879,51.54627477565214 342.92929292929296,51.49083731426475 347.979797979798,51.50300953672672 353.03030303030306,50.60528275152183 358.0808080808081,50.60528275152183 363.13131313131316,50.32489999893528 368.1818181818182,50.32489999893528 373.23232323232327,50.403791691677554 378.2828282828283,50.34396970319136 383.3333333333333,50.25318246368573 388.3838383838384,50.31272777647331 393.4343434343434,50.28853224180392 398.4848484848485,50.28853224180392 403.5353535353535,50.210915104059325 408.58585858585855,50.19526115457637 413.6363636363636,50.20718041656579 418.68686868686865,50.19572687759796 423.73737373737373,50.17153134292869 428.7878787878788,50.18345060491811 433.83838383838383,50.17153134292869 438.8888888888889,50.07826025570108 443.93939393939394,50.07826025570108 448.989898989899,50.07826025570108 454.04040404040404,50.07826025570108 459.0909090909091,50.07826025570108 464.14141414141415,50.07826025570108 469.19191919191917,50.07826025570108 474.24242424242425,50.07826025570108 479.2929292929293,50.07826025570108 484.34343434343435,50.02629274094079 489.3939393939394,50.02629274094079 494.4444444444444,50.02629274094079 499.4949494949495,50.02629274094079 504.5454545454545,50.02285080215756 509.59595959595964,50.02629274094079 514.6464646464647,50.02629274094079 519.6969696969697,50.02629274094079 524.7474747474748,50.02285080215756 529.7979797979798,50.02629274094079 534.8484848484849,50.02629274094079 539.8989898989898,50.0 544.9494949494949,50.02629274094079 550.0,50.0" fill="none" stroke="rgb(0,255,0)" stroke-width="1"/><circle cx="50.0" cy="59.21999028958044" r="2" fill="rgb(0,255,0)"/><circle cx="55.05050505050505" cy="58.82633873731271" r="2" fill="rgb(0,255,0)"/><circle cx="60.101010101010104" cy="58.91776263760579" r="2" fill="rgb(0,255,0)"/><circle cx="65.15151515151516" cy="58.646126788679794" r="2" fill="rgb(0,255,0)"/><circle cx="70.20202020202021" cy="58.421929230550234" r="2" fill="rgb(0,255,0)"/><circle cx="75.25252525252526" cy="58.62195933128214" r="2" fill="rgb(0,255,0)"/><circle cx="80.30303030303031" cy="57.5573369201789" r="2" fill="rgb(0,255,0)"/><circle cx="85.35353535353535" cy="57.96603559332647" r="2" fill="rgb(0,255,0)"/><circle cx="90.40404040404042" cy="57.46399114834895" r="2" fill="rgb(0,255,0)"/><circle cx="95.45454545454545" cy="57.05290236725307" r="2" fill="rgb(0,255,0)"/><circle cx="100.5050505050505" cy="57.098550135914365" r="2" fill="rgb(0,255,0)"/><circle cx="105.55555555555554" cy="57.061878013105684" r="2" fill="rgb(0,255,0)"/><circle cx="110.60606060606061" cy="56.94869994675986" r="2" fill="rgb(0,255,0)"/><circle cx="115.65656565656566" cy="56.86342923955334" r="2" fill="rgb(0,255,0)"/><circle cx="120.7070707070707" cy="56.70628385157926" r="2" fill="rgb(0,255,0)"/><circle cx="125.75757575757576" cy="56.26999970906161" r="2" fill="rgb(0,255,0)"/><circle cx="130.80808080808083" cy="56.30673988537063" r="2" fill="rgb(0,255,0)"/><circle cx="135.85858585858585" cy="56.103808448865834" r="2" fill="rgb(0,255,0)"/><circle cx="140.9090909090909" cy="54.42160615400246" r="2" fill="rgb(0,255,0)"/><circle cx="145.95959595959596" cy="53.32000575219831" r="2" fill="rgb(0,255,0)"/><circle cx="151.010101010101" cy="53.91792626784019" r="2" fill="rgb(0,255,0)"/><circle cx="156.06060606060606" cy="52.775655522830334" r="2" fill="rgb(0,255,0)"/><circle cx="161.1111111111111" cy="52.529118778162456" r="2" fill="rgb(0,255,0)"/><circle cx="166.16161616161617" cy="51.86033671297844" r="2" fill="rgb(0,255,0)"/><circle cx="171.21212121212122" cy="52.253042066095475" r="2" fill="rgb(0,255,0)"/><circle cx="176.26262626262627" cy="52.025381745913535" r="2" fill="rgb(0,255,0)"/><circle cx="181.31313131313132" cy="51.65846385028948" r="2" fill="rgb(0,255,0)"/><circle cx="186.36363636363635" cy="51.67586789809184" r="2" fill="rgb(0,255,0)"/><circle cx="191.4141414141414" cy="51.909099781369264" r="2" fill="rgb(0,255,0)"/><circle cx="196.46464646464648" cy="51.74869888350969" r="2" fill="rgb(0,255,0)"/><circle cx="201.51515151515153" cy="51.69338909288325" r="2" fill="rgb(0,255,0)"/><circle cx="206.56565656565658" cy="51.5300187974658" r="2" fill="rgb(0,255,0)"/><circle cx="211.61616161616163" cy="51.5300187974658" r="2" fill="rgb(0,255,0)"/><circle cx="216.66666666666666" cy="51.69033319844402" r="2" fill="rgb(0,255,0)"/><circle cx="221.7171717171717" cy="51.62667643175661" r="2" fill="rgb(0,255,0)"/><circle cx="226.76767676767676" cy="51.54627477565214" r="2" fill="rgb(0,255,0)"/><circle cx="231.8181818181818" cy="51.58136366054322" r="2" fill="rgb(0,255,0)"/><circle cx="236.86868686868686" cy="51.66942322978332" r="2" fill="rgb(0,255,0)"/><circle cx="241.91919191919192" cy="51.56126072418385" r="2" fill="rgb(0,255,0)"/><circle cx="246.96969696969697" cy="51.56126072418385" r="2" fill="rgb(0,255,0)"/><circle cx="252.02020202020202" cy="51.56126072418385" r="2" fill="rgb(0,255,0)"/><circle cx="257.07070707070704" cy="51.45488351351861" r="2" fill="rgb(0,255,0)"/><circle cx="262.1212121212121" cy="51.54627477565214" r="2" fill="rgb(0,255,0)"/><circle cx="267.1717171717172" cy="51.549049644230536" r="2" fill="rgb(0,255,0)"/><circle cx="272.2222222222222" cy="51.56126072418385" r="2" fill="rgb(0,255,0)"/><circle cx="277.27272727272725" cy="51.49330077434581" r="2" fill="rgb(0,255,0)"/><circle cx="282.32323232323233" cy="51.50582326279641" r="2" fill="rgb(0,255,0)"/><circle cx="287.3737373737374" cy="51.5337356076148" r="2" fill="rgb(0,255,0)"/><circle cx="292.42424242424244" cy="51.517496309015144" r="2" fill="rgb(0,255,0)"/><circle cx="297.47474747474746" cy="51.49083731426475" r="2" fill="rgb(0,255,0)"/><circle cx="302.52525252525254" cy="51.50582326279641" r="2" fill="rgb(0,255,0)"/><circle cx="307.57575757575756" cy="51.5300187974658" r="2" fill="rgb(0,255,0)"/><circle cx="312.62626262626264" cy="51.51503284893414" r="2" fill="rgb(0,255,0)"/><circle cx="317.67676767676767" cy="51.5300187974658" r="2" fill="rgb(0,255,0)"/><circle cx="322.7272727272727" cy="51.54627477565214" r="2" fill="rgb(0,255,0)"/><circle cx="327.77777777777777" cy="51.50275657625423" r="2" fill="rgb(0,255,0)"/><circle cx="332.8282828282828" cy="51.54627477565214" r="2" fill="rgb(0,255,0)"/><circle cx="337.8787878787879" cy="51.54627477565214" r="2" fill="rgb(0,255,0)"/><circle cx="342.92929292929296" cy="51.49083731426475" r="2" fill="rgb(0,255,0)"/><circle cx="347.979797979798" cy="51.50300953672672" r="2" fill="rgb(0,255,0)"/><circle cx="353.03030303030306" cy="50.60528275152183" r="2" fill="rgb(0,255,0)"/><circle cx="358.0808080808081" cy="50.60528275152183" r="2" fill="rgb(0,255,0)"/><circle cx="363.13131313131316" cy="50.32489999893528" r="2" fill="rgb(0,255,0)"/><circle cx="368.1818181818182" cy="50.32489999893528" r="2" fill="rgb(0,255,0)"/><circle cx="373.23232323232327" cy="50.403791691677554" r="2" fill="rgb(0,255,0)"/><circle cx="378.2828282828283" cy="50.34396970319136" r="2" fill="rgb(0,255,0)"/><circle cx="383.3333333333333" cy="50.25318246368573" r="2" fill="rgb(0,255,0)"/><circle cx="388.3838383838384" cy="50.31272777647331" r="2" fill="rgb(0,255,0)"/><circle cx="393.4343434343434" cy="50.28853224180392" r="2" fill="rgb(0,255,0)"/><circle cx="398.4848484848485" cy="50.28853224180392" r="2" fill="rgb(0,255,0)"/><circle cx="403.5353535353535" cy="50.210915104059325" r="2" fill="rgb(0,255,0)"/><circle cx="408.58585858585855" cy="50.19526115457637" r="2" fill="rgb(0,255,0)"/><circle cx="413.6363636363636" cy="50.20718041656579" r="2" fill="rgb(0,255,0)"/><circle cx="418.68686868686865" cy="50.19572687759796" r="2" fill="rgb(0,255,0)"/><circle cx="423.73737373737373" cy="50.17153134292869" r="2" fill="rgb(0,255,0)"/><circle cx="428.7878787878788" cy="50.18345060491811" r="2" fill="rgb(0,255,0)"/><circle cx="433.83838383838383" cy="50.17153134292869" r="2" fill="rgb(0,255,0)"/><circle cx="438.8888888888889" cy="50.07826025570108" r="2" fill="rgb(0,255,0)"/><circle cx="443.93939393939394" cy="50.07826025570108" r="2" fill="rgb(0,255,0)"/><circle cx="448.989898989899" cy="50.07826025570108" r="2" fill="rgb(0,255,0)"/><circle cx="454.04040404040404" cy="50.07826025570108" r="2" fill="rgb(0,255,0)"/><circle cx="459.0909090909091" cy="50.07826025570108" r="2" fill="rgb(0,255,0)"/><circle cx="464.14141414141415" cy="50.07826025570108" r="2" fill="rgb(0,255,0)"/><circle cx="469.19191919191917" cy="50.07826025570108" r="2" fill="rgb(0,255,0)"/><circle cx="474.24242424242425" cy="50.07826025570108" r="2" fill="rgb(0,255,0)"/><circle cx="479.2929292929293" cy="50.07826025570108" r="2" fill="rgb(0,255,0)"/><circle cx="484.34343434343435" cy="50.02629274094079" r="2" fill="rgb(0,255,0)"/><circle cx="489.3939393939394" cy="50.02629274094079" r="2" fill="rgb(0,255,0)"/><circle cx="494.4444444444444" cy="50.02629274094079" r="2" fill="rgb(0,255,0)"/><circle cx="499.4949494949495" cy="50.02629274094079" r="2" fill="rgb(0,255,0)"/><circle cx="504.5454545454545" cy="50.02285080215756" r="2" fill="rgb(0,255,0)"/><circle cx="509.59595959595964" cy="50.02629274094079" r="2" fill="rgb(0,255,0)"/><circle cx="514.6464646464647" cy="50.02629274094079" r="2" fill="rgb(0,255,0)"/><circle cx="519.6969696969697" cy="50.02629274094079" r="2" fill="rgb(0,255,0)"/><circle cx="524.7474747474748" cy="50.02285080215756" r="2" fill="rgb(0,255,0)"/><circle cx="529.7979797979798" cy="50.02629274094079" r="2" fill="rgb(0,255,0)"/><circle cx="534.8484848484849" cy="50.02629274094079" r="2" fill="rgb(0,255,0)"/><circle cx="539.8989898989898" cy="50.0" r="2" fill="rgb(0,255,0)"/><circle cx="544.9494949494949" cy="50.02629274094079" r="2" fill="rgb(0,255,0)"/><circle cx="550.0" cy="50.0" r="2" fill="rgb(0,255,0)"/><text x="350.0" y="20.0" text-anchor="middle" fill="rgb(0,0,0)" font-size="20.0">GA Demo</text><text x="350.0" y="575.0" text-anchor="middle" fill="rgb(0,0,0)" font-size="12.0">generation</text><text transform="rotate(-90.0 20.0 300.0)" x="20.0" y="300.0" text-anchor="middle" fill="rgb(0,0,0)" font-size="12.0">fitness</text><text x="620" y="62" fill="rgb(0,0,0)" font-size="12">min</text><text x="620" y="74" fill="rgb(0,0,255)" font-size="12">ave</text><text x="620" y="86" fill="rgb(0,255,0)" font-size="12">max</text>
      Sorry, your browser does not support inline SVG.
    </svg>