<?xml version='1.0' encoding='UTF-8'?>
<svg version="1.1" width="700.0" height="600.0" onload="init(evt)" xmlns="http://www.w3.org/2000/svg">
      <style>.caption {
  font-size: 14px;
  font-family: Georgia, serif;
}
</style>
      <script type="text/ecmascript"><![CDATA[
function init(evt) {
  if ( window.svgDocument == null ) {
    svgDocument = evt.target.ownerDocument;
  }
}

function RectHover(evt, i, c) {
  rect = svgDocument.getElementById('rect' + i);
  if( c != null ) {
    rect.setAttributeNS(null, "fill", c)  
  }
  tooltiptext = svgDocument.getElementById('tooltiptext' + i);
  tooltipbg = svgDocument.getElementById('tooltipbg' + i);
  if( tooltipbg != null) {
    tbb = tooltiptext.getBBox();
    tooltipbg.setAttributeNS(null, "width", tbb.width);
    tooltipbg.setAttributeNS(null, "height", tbb.height);
    tooltipbg.setAttributeNS(null, "x", tbb.x);
    tooltipbg.setAttributeNS(null, "y", tbb.y);
    tooltipbg.setAttributeNS(null, "visibility", "visible");
  }
  tooltiptext.setAttributeNS(null,"visibility","visible");
}

function RectUnhover(evt, i, c) {
  rect = svgDocument.getElementById('rect' + i);
  if( c != null ) {
    rect.setAttributeNS(null, "fill", c)  
  }
  tooltiptext = svgDocument.getElementById('tooltiptext' + i);
  tooltiptext.setAttributeNS(null,"visibility","hidden");
  tooltipbg = svgDocument.getElementById('tooltipbg' + i);
  if( tooltipbg != null ) {
    tooltipbg.setAttributeNS(null,"visibility","hidden");
  }
}
]]></script>
      <line x1="50.0" y1="550.0" x2="550.0" y2="550.0" stroke="rgb(0,0,0)" stroke-width="1"/><line x1="50.0" y1="550.0" x2="50.0" y2="50.0" stroke="rgb(0,0,0)" stroke-width="1"/><line x1="50.0" y1="550.0" x2="50.0" y2="50.0" stroke="rgb(192,192,192)" stroke-width="1"/><line x1="50.0" y1="548.0" x2="50.0" y2="552.0" stroke="rgb(192,192,192)" stroke-width="1"/><text text-anchor="middle" alignment-baseline="hanging" x="50.0" y="553.0" font-size="12.0">0</text><line x1="313.1578947368421" y1="550.0" x2="313.1578947368421" y2="50.0" stroke="rgb(192,192,192)" stroke-width="1"/><line x1="313.1578947368421" y1="548.0" x2="313.1578947368421" y2="552.0" stroke="rgb(192,192,192)" stroke-width="1"/><text text-anchor="middle" alignment-baseline="hanging" x="313.1578947368421" y="553.0" font-size="12.0">10</text><line x1="50.0" y1="550.0" x2="550.0" y2="550.0" stroke="rgb(192,192,192)" stroke-width="1"/><text text-anchor="end" alignment-baseline="middle" x="45.0" y="550.0" font-size="12.0">0.0</text><line x1="48.0" y1="550.0" x2="52.0" y2="550.0" stroke="rgb(192,192,192)" stroke-width="1"/><line x1="50.0" y1="327.4382100555822" x2="550.0" y2="327.4382100555822" stroke="rgb(192,192,192)" stroke-width="1"/><text text-anchor="end" alignment-baseline="middle" x="45.0" y="327.4382100555822" font-size="12.0">0.1</text><line x1="48.0" y1="327.4382100555822" x2="52.0" y2="327.4382100555822" stroke="rgb(192,192,192)" stroke-width="1"/><line x1="50.0" y1="104.87642011116446" x2="550.0" y2="104.87642011116446" stroke="rgb(192,192,192)" stroke-width="1"/><text text-anchor="end" alignment-baseline="middle" x="45.0" y="104.87642011116446" font-size="12.0">0.2</text><line x1="48.0" y1="104.87642011116446" x2="52.0" y2="104.87642011116446" stroke="rgb(192,192,192)" stroke-width="1"/><polyline points="50.0,55.38618000046779 76.3157894736842,219.81642111080572 102.63157894736841,228.2833487488623 128.94736842105263,297.2117201070919 155.26315789473682,358.41515959242645 181.57894736842104,455.1319004877044 207.89473684210526,469.4496200123779 234.21052631578945,507.939435619067 260.52631578947364,515.8508142088928 286.8421052631579,541.6704940130157 313.1578947368421,537.7311016947326 339.4736842105263,523.1145080043581 365.7894736842105,506.2093599047332 392.10526315789474,506.2093599047332 418.4210526315789,506.2093599047332 444.7368421052632,506.2093599047332 471.05263157894734,506.2093599047332 497.36842105263156,506.2093599047332 523.6842105263158,506.2093599047332 550.0,506.2093599047332" fill="none" stroke="rgb(255,0,0)" stroke-width="1"/><circle cx="50.0" cy="55.38618000046779" r="2" fill="rgb(255,0,0)"/><circle cx="76.3157894736842" cy="219.81642111080572" r="2" fill="rgb(255,0,0)"/><circle cx="102.63157894736841" cy="228.2833487488623" r="2" fill="rgb(255,0,0)"/><circle cx="128.94736842105263" cy="297.2117201070919" r="2" fill="rgb(255,0,0)"/><circle cx="155.26315789473682" cy="358.41515959242645" r="2" fill="rgb(255,0,0)"/><circle cx="181.57894736842104" cy="455.1319004877044" r="2" fill="rgb(255,0,0)"/><circle cx="207.89473684210526" cy="469.4496200123779" r="2" fill="rgb(255,0,0)"/><circle cx="234.21052631578945" cy="507.939435619067" r="2" fill="rgb(255,0,0)"/><circle cx="260.52631578947364" cy="515.8508142088928" r="2" fill="rgb(255,0,0)"/><circle cx="286.8421052631579" cy="541.6704940130157" r="2" fill="rgb(255,0,0)"/><circle cx="313.1578947368421" cy="537.7311016947326" r="2" fill="rgb(255,0,0)"/><circle cx="339.4736842105263" cy="523.1145080043581" r="2" fill="rgb(255,0,0)"/><circle cx="365.7894736842105" cy="506.2093599047332" r="2" fill="rgb(255,0,0)"/><circle cx="392.10526315789474" cy="506.2093599047332" r="2" fill="rgb(255,0,0)"/><circle cx="418.4210526315789" cy="506.2093599047332" r="2" fill="rgb(255,0,0)"/><circle cx="444.7368421052632" cy="506.2093599047332" r="2" fill="rgb(255,0,0)"/><circle cx="471.05263157894734" cy="506.2093599047332" r="2" fill="rgb(255,0,0)"/><circle cx="497.36842105263156" cy="506.2093599047332" r="2" fill="rgb(255,0,0)"/><circle cx="523.6842105263158" cy="506.2093599047332" r="2" fill="rgb(255,0,0)"/><circle cx="550.0" cy="506.2093599047332" r="2" fill="rgb(255,0,0)"/><polyline points="50.0,140.84557398019 76.3157894736842,394.6558762229523 102.63157894736841,426.75704489281384 128.94736842105263,450.0621692930218 155.26315789473682,431.99736319616403 181.57894736842104,403.1022911482749 207.89473684210526,375.33035221832824 234.21052631578945,328.9631805010997 260.52631578947364,310.1720491801988 286.8421052631579,273.25837995650085 313.1578947368421,253.5984048769156 339.4736842105263,266.439815167197 365.7894736842105,285.36119795570045 392.10526315789474,285.36119795570045 418.4210526315789,285.36119795570045 444.7368421052632,285.36119795570045 471.05263157894734,285.36119795570045 497.36842105263156,285.36119795570045 523.6842105263158,285.36119795570045 550.0,285.36119795570045" fill="none" stroke="rgb(0,0,255)" stroke-width="1"/><circle cx="50.0" cy="140.84557398019" r="2" fill="rgb(0,0,255)"/><circle cx="76.3157894736842" cy="394.6558762229523" r="2" fill="rgb(0,0,255)"/><circle cx="102.63157894736841" cy="426.75704489281384" r="2" fill="rgb(0,0,255)"/><circle cx="128.94736842105263" cy="450.0621692930218" r="2" fill="rgb(0,0,255)"/><circle cx="155.26315789473682" cy="431.99736319616403" r="2" fill="rgb(0,0,255)"/><circle cx="181.57894736842104" cy="403.1022911482749" r="2" fill="rgb(0,0,255)"/><circle cx="207.89473684210526" cy="375.33035221832824" r="2" fill="rgb(0,0,255)"/><circle cx="234.21052631578945" cy="328.9631805010997" r="2" fill="rgb(0,0,255)"/><circle cx="260.52631578947364" cy="310.1720491801988" r="2" fill="rgb(0,0,255)"/><circle cx="286.8421052631579" cy="273.25837995650085" r="2" fill="rgb(0,0,255)"/><circle cx="313.1578947368421" cy="253.5984048769156" r="2" fill="rgb(0,0,255)"/><circle cx="339.4736842105263" cy="266.439815167197" r="2" fill="rgb(0,0,255)"/><circle cx="365.7894736842105" cy="285.36119795570045" r="2" fill="rgb(0,0,255)"/><circle cx="392.10526315789474" cy="285.36119795570045" r="2" fill="rgb(0,0,255)"/><circle cx="418.4210526315789" cy="285.36119795570045" r="2" fill="rgb(0,0,255)"/><circle cx="444.7368421052632" cy="285.36119795570045" r="2" fill="rgb(0,0,255)"/><circle cx="471.05263157894734" cy="285.36119795570045" r="2" fill="rgb(0,0,255)"/><circle cx="497.36842105263156" cy="285.36119795570045" r="2" fill="rgb(0,0,255)"/><circle cx="523.6842105263158" cy="285.36119795570045" r="2" fill="rgb(0,0,255)"/><circle cx="550.0" cy="285.36119795570045" r="2" fill="rgb(0,0,255)"/><polyline points="50.0,50.0 76.3157894736842,292.9729716555435 102.63157894736841,320.0850002047275 128.94736842105263,331.2498884732652 155.26315789473682,304.6067095718745 181.57894736842104,270.59542597470664 207.89473684210526,253.03690908080978 234.21052631578945,292.54229675174423 260.52631578947364,300.8606985173511 286.8421052631579,325.96206108906244 313.1578947368421,342.99889307269746 339.4736842105263,358.0582891758901 365.7894736842105,376.1845836572859 392.10526315789474,376.1845836572859 418.4210526315789,376.1845836572859 444.7368421052632,376.1845836572859 471.05263157894734,376.1845836572859 497.36842105263156,376.1845836572859 523.6842105263158,376.1845836572859 550.0,376.1845836572859" fill="none" stroke="rgb(0,255,0)" stroke-width="1"/><circle cx="50.0" cy="50.0" r="2" fill="rgb(0,255,0)"/><circle cx="76.3157894736842" cy="292.9729716555435" r="2" fill="rgb(0,255,0)"/><circle cx="102.63157894736841" cy="320.0850002047275" r="2" fill="rgb(0,255,0)"/><circle cx="128.94736842105263" cy="331.2498884732652" r="2" fill="rgb(0,255,0)"/><circle cx="155.26315789473682" cy="304.6067095718745" r="2" fill="rgb(0,255,0)"/><circle cx="181.57894736842104" cy="270.59542597470664" r="2" fill="rgb(0,255,0)"/><circle cx="207.89473684210526" cy="253.03690908080978" r="2" fill="rgb(0,255,0)"/><circle cx="234.21052631578945" cy="292.54229675174423" r="2" fill="rgb(0,255,0)"/><circle cx="260.52631578947364" cy="300.8606985173511" r="2" fill="rgb(0,255,0)"/><circle cx="286.8421052631579" cy="325.96206108906244" r="2" fill="rgb(0,255,0)"/><circle cx="313.1578947368421" cy="342.99889307269746" r="2" fill="rgb(0,255,0)"/><circle cx="339.4736842105263" cy="358.0582891758901" r="2" fill="rgb(0,255,0)"/><circle cx="365.7894736842105" cy="376.1845836572859" r="2" fill="rgb(0,255,0)"/><circle cx="392.10526315789474" cy="376.1845836572859" r="2" fill="rgb(0,255,0)"/><circle cx="418.4210526315789" cy="376.1845836572859" r="2" fill="rgb(0,255,0)"/><circle cx="444.7368421052632" cy="376.1845836572859" r="2" fill="rgb(0,255,0)"/><circle cx="471.05263157894734" cy="376.1845836572859" r="2" fill="rgb(0,255,0)"/><circle cx="497.36842105263156" cy="376.1845836572859" r="2" fill="rgb(0,255,0)"/><circle cx="523.6842105263158" cy="376.1845836572859" r="2" fill="rgb(0,255,0)"/><circle cx="550.0" cy="376.1845836572859" r="2" fill="rgb(0,255,0)"/><text x="350.0" y="20.0" text-anchor="middle" fill="rgb(0,0,0)" font-size="20.0">KMeans Mean Centroid Distances</text><text x="350.0" y="575.0" text-anchor="middle" fill="rgb(0,0,0)" font-size="12.0">step</text><text transform="rotate(-90.0 20.0 300.0)" x="20.0" y="300.0" text-anchor="middle" fill="rgb(0,0,0)" font-size="12.0">average distance to centroid</text><text x="620" y="62" fill="rgb(255,0,0)" font-size="12">0</text><text x="620" y="74" fill="rgb(0,0,255)" font-size="12">1</text><text x="620" y="86" fill="rgb(0,255,0)" font-size="12">2</text>
      Sorry, your browser does not support inline SVG.
    </svg>