<?xml version='1.0' encoding='UTF-8'?>
<svg version="1.1" width="700.0" height="600.0" onload="init(evt)" xmlns="http://www.w3.org/2000/svg">
      <style>.caption {
  font-size: 14px;
  font-family: Georgia, serif;
}
</style>
      <script type="text/ecmascript"><![CDATA[
function init(evt) {
  if ( window.svgDocument == null ) {
    svgDocument = evt.target.ownerDocument;
  }
}

function RectHover(evt, i, c) {
  rect = svgDocument.getElementById('rect' + i);
  if( c != null ) {
    rect.setAttributeNS(null, "fill", c)  
  }
  tooltiptext = svgDocument.getElementById('tooltiptext' + i);
  tooltipbg = svgDocument.getElementById('tooltipbg' + i);
  if( tooltipbg != null) {
    tbb = tooltiptext.getBBox();
    tooltipbg.setAttributeNS(null, "width", tbb.width);
    tooltipbg.setAttributeNS(null, "height", tbb.height);
    tooltipbg.setAttributeNS(null, "x", tbb.x);
    tooltipbg.setAttributeNS(null, "y", tbb.y);
    tooltipbg.setAttributeNS(null, "visibility", "visible");
  }
  tooltiptext.setAttributeNS(null,"visibility","visible");
}

function RectUnhover(evt, i, c) {
  rect = svgDocument.getElementById('rect' + i);
  if( c != null ) {
    rect.setAttributeNS(null, "fill", c)  
  }
  tooltiptext = svgDocument.getElementById('tooltiptext' + i);
  tooltiptext.setAttributeNS(null,"visibility","hidden");
  tooltipbg = svgDocument.getElementById('tooltipbg' + i);
  if( tooltipbg != null ) {
    tooltipbg.setAttributeNS(null,"visibility","hidden");
  }
}
]]></script>
      <line x1="50.0" y1="550.0" x2="550.0" y2="550.0" stroke="rgb(0,0,0)" stroke-width="1"/><line x1="50.0" y1="550.0" x2="50.0" y2="50.0" stroke="rgb(0,0,0)" stroke-width="1"/><line x1="50.0" y1="550.0" x2="50.0" y2="50.0" stroke="rgb(192,192,192)" stroke-width="1"/><line x1="50.0" y1="548.0" x2="50.0" y2="552.0" stroke="rgb(192,192,192)" stroke-width="1"/><text text-anchor="middle" alignment-baseline="hanging" x="50.0" y="553.0" font-size="12.0">0</text><line x1="313.1578947368421" y1="550.0" x2="313.1578947368421" y2="50.0" stroke="rgb(192,192,192)" stroke-width="1"/><line x1="313.1578947368421" y1="548.0" x2="313.1578947368421" y2="552.0" stroke="rgb(192,192,192)" stroke-width="1"/><text text-anchor="middle" alignment-baseline="hanging" x="313.1578947368421" y="553.0" font-size="12.0">10</text><line x1="50.0" y1="550.0" x2="550.0" y2="550.0" stroke="rgb(192,192,192)" stroke-width="1"/><text text-anchor="end" alignment-baseline="middle" x="45.0" y="550.0" font-size="12.0">0.00</text><line x1="48.0" y1="550.0" x2="52.0" y2="550.0" stroke="rgb(192,192,192)" stroke-width="1"/><line x1="50.0" y1="512.0134887805906" x2="550.0" y2="512.0134887805906" stroke="rgb(192,192,192)" stroke-width="1"/><text text-anchor="end" alignment-baseline="middle" x="45.0" y="512.0134887805906" font-size="12.0">0.01</text><line x1="48.0" y1="512.0134887805906" x2="52.0" y2="512.0134887805906" stroke="rgb(192,192,192)" stroke-width="1"/><line x1="50.0" y1="474.0269775611812" x2="550.0" y2="474.0269775611812" stroke="rgb(192,192,192)" stroke-width="1"/><text text-anchor="end" alignment-baseline="middle" x="45.0" y="474.0269775611812" font-size="12.0">0.02</text><line x1="48.0" y1="474.0269775611812" x2="52.0" y2="474.0269775611812" stroke="rgb(192,192,192)" stroke-width="1"/><line x1="50.0" y1="436.0404663417718" x2="550.0" y2="436.0404663417718" stroke="rgb(192,192,192)" stroke-width="1"/><text text-anchor="end" alignment-baseline="middle" x="45.0" y="436.0404663417718" font-size="12.0">0.03</text><line x1="48.0" y1="436.0404663417718" x2="52.0" y2="436.0404663417718" stroke="rgb(192,192,192)" stroke-width="1"/><line x1="50.0" y1="398.05395512236237" x2="550.0" y2="398.05395512236237" stroke="rgb(192,192,192)" stroke-width="1"/><text text-anchor="end" alignment-baseline="middle" x="45.0" y="398.05395512236237" font-size="12.0">0.04</text><line x1="48.0" y1="398.05395512236237" x2="52.0" y2="398.05395512236237" stroke="rgb(192,192,192)" stroke-width="1"/><line x1="50.0" y1="360.0674439029529" x2="550.0" y2="360.0674439029529" stroke="rgb(192,192,192)" stroke-width="1"/><text text-anchor="end" alignment-baseline="middle" x="45.0" y="360.0674439029529" font-size="12.0">0.05</text><line x1="48.0" y1="360.0674439029529" x2="52.0" y2="360.0674439029529" stroke="rgb(192,192,192)" stroke-width="1"/><line x1="50.0" y1="322.08093268354355" x2="550.0" y2="322.08093268354355" stroke="rgb(192,192,192)" stroke-width="1"/><text text-anchor="end" alignment-baseline="middle" x="45.0" y="322.08093268354355" font-size="12.0">0.06</text><line x1="48.0" y1="322.08093268354355" x2="52.0" y2="322.08093268354355" stroke="rgb(192,192,192)" stroke-width="1"/><line x1="50.0" y1="284.0944214641341" x2="550.0" y2="284.0944214641341" stroke="rgb(192,192,192)" stroke-width="1"/><text text-anchor="end" alignment-baseline="middle" x="45.0" y="284.0944214641341" font-size="12.0">0.07</text><line x1="48.0" y1="284.0944214641341" x2="52.0" y2="284.0944214641341" stroke="rgb(192,192,192)" stroke-width="1"/><line x1="50.0" y1="246.10791024472468" x2="550.0" y2="246.10791024472468" stroke="rgb(192,192,192)" stroke-width="1"/><text text-anchor="end" alignment-baseline="middle" x="45.0" y="246.10791024472468" font-size="12.0">0.08</text><line x1="48.0" y1="246.10791024472468" x2="52.0" y2="246.10791024472468" stroke="rgb(192,192,192)" stroke-width="1"/><line x1="50.0" y1="208.12139902531533" x2="550.0" y2="208.12139902531533" stroke="rgb(192,192,192)" stroke-width="1"/><text text-anchor="end" alignment-baseline="middle" x="45.0" y="208.12139902531533" font-size="12.0">0.09</text><line x1="48.0" y1="208.12139902531533" x2="52.0" y2="208.12139902531533" stroke="rgb(192,192,192)" stroke-width="1"/><line x1="50.0" y1="170.1348878059058" x2="550.0" y2="170.1348878059058" stroke="rgb(192,192,192)" stroke-width="1"/><text text-anchor="end" alignment-baseline="middle" x="45.0" y="170.1348878059058" font-size="12.0">0.10</text><line x1="48.0" y1="170.1348878059058" x2="52.0" y2="170.1348878059058" stroke="rgb(192,192,192)" stroke-width="1"/><line x1="50.0" y1="132.14837658649645" x2="550.0" y2="132.14837658649645" stroke="rgb(192,192,192)" stroke-width="1"/><text text-anchor="end" alignment-baseline="middle" x="45.0" y="132.14837658649645" font-size="12.0">0.11</text><line x1="48.0" y1="132.14837658649645" x2="52.0" y2="132.14837658649645" stroke="rgb(192,192,192)" stroke-width="1"/><line x1="50.0" y1="94.16186536708705" x2="550.0" y2="94.16186536708705" stroke="rgb(192,192,192)" stroke-width="1"/><text text-anchor="end" alignment-baseline="middle" x="45.0" y="94.16186536708705" font-size="12.0">0.12</text><line x1="48.0" y1="94.16186536708705" x2="52.0" y2="94.16186536708705" stroke="rgb(192,192,192)" stroke-width="1"/><line x1="50.0" y1="56.17535414767764" x2="550.0" y2="56.17535414767764" stroke="rgb(192,192,192)" stroke-width="1"/><text text-anchor="end" alignment-baseline="middle" x="45.0" y="56.17535414767764" font-size="12.0">0.13</text><line x1="48.0" y1="56.17535414767764" x2="52.0" y2="56.17535414767764" stroke="rgb(192,192,192)" stroke-width="1"/><polyline points="50.0,130.31433155847066 76.3157894736842,540.2398681757785 102.63157894736841,529.0596290927016 128.94736842105263,510.8463709364792 155.26315789473682,480.24445657331273 181.57894736842104,480.24445657331273 207.89473684210526,475.25879479584523 234.21052631578945,475.25879479584523 260.52631578947364,475.25879479584523 286.8421052631579,475.25879479584523 313.1578947368421,475.25879479584523 339.4736842105263,475.25879479584523 365.7894736842105,475.25879479584523 392.10526315789474,475.25879479584523 418.4210526315789,475.25879479584523 444.7368421052632,475.25879479584523 471.05263157894734,475.25879479584523 497.36842105263156,475.25879479584523 523.6842105263158,475.25879479584523 550.0,475.25879479584523" fill="none" stroke="rgb(255,0,0)" stroke-width="1"/><circle cx="50.0" cy="130.31433155847066" r="2" fill="rgb(255,0,0)"/><circle cx="76.3157894736842" cy="540.2398681757785" r="2" fill="rgb(255,0,0)"/><circle cx="102.63157894736841" cy="529.0596290927016" r="2" fill="rgb(255,0,0)"/><circle cx="128.94736842105263" cy="510.8463709364792" r="2" fill="rgb(255,0,0)"/><circle cx="155.26315789473682" cy="480.24445657331273" r="2" fill="rgb(255,0,0)"/><circle cx="181.57894736842104" cy="480.24445657331273" r="2" fill="rgb(255,0,0)"/><circle cx="207.89473684210526" cy="475.25879479584523" r="2" fill="rgb(255,0,0)"/><circle cx="234.21052631578945" cy="475.25879479584523" r="2" fill="rgb(255,0,0)"/><circle cx="260.52631578947364" cy="475.25879479584523" r="2" fill="rgb(255,0,0)"/><circle cx="286.8421052631579" cy="475.25879479584523" r="2" fill="rgb(255,0,0)"/><circle cx="313.1578947368421" cy="475.25879479584523" r="2" fill="rgb(255,0,0)"/><circle cx="339.4736842105263" cy="475.25879479584523" r="2" fill="rgb(255,0,0)"/><circle cx="365.7894736842105" cy="475.25879479584523" r="2" fill="rgb(255,0,0)"/><circle cx="392.10526315789474" cy="475.25879479584523" r="2" fill="rgb(255,0,0)"/><circle cx="418.4210526315789" cy="475.25879479584523" r="2" fill="rgb(255,0,0)"/><circle cx="444.7368421052632" cy="475.25879479584523" r="2" fill="rgb(255,0,0)"/><circle cx="471.05263157894734" cy="475.25879479584523" r="2" fill="rgb(255,0,0)"/><circle cx="497.36842105263156" cy="475.25879479584523" r="2" fill="rgb(255,0,0)"/><circle cx="523.6842105263158" cy="475.25879479584523" r="2" fill="rgb(255,0,0)"/><circle cx="550.0" cy="475.25879479584523" r="2" fill="rgb(255,0,0)"/><polyline points="50.0,550.0 76.3157894736842,112.58328660222179 102.63157894736841,50.0 128.94736842105263,65.83738864687871 155.26315789473682,97.58686282441619 181.57894736842104,97.58686282441619 207.89473684210526,98.31847706394711 234.21052631578945,98.31847706394711 260.52631578947364,98.31847706394711 286.8421052631579,98.31847706394711 313.1578947368421,98.31847706394711 339.4736842105263,98.31847706394711 365.7894736842105,98.31847706394711 392.10526315789474,98.31847706394711 418.4210526315789,98.31847706394711 444.7368421052632,98.31847706394711 471.05263157894734,98.31847706394711 497.36842105263156,98.31847706394711 523.6842105263158,98.31847706394711 550.0,98.31847706394711" fill="none" stroke="rgb(0,0,255)" stroke-width="1"/><circle cx="50.0" cy="550.0" r="2" fill="rgb(0,0,255)"/><circle cx="76.3157894736842" cy="112.58328660222179" r="2" fill="rgb(0,0,255)"/><circle cx="102.63157894736841" cy="50.0" r="2" fill="rgb(0,0,255)"/><circle cx="128.94736842105263" cy="65.83738864687871" r="2" fill="rgb(0,0,255)"/><circle cx="155.26315789473682" cy="97.58686282441619" r="2" fill="rgb(0,0,255)"/><circle cx="181.57894736842104" cy="97.58686282441619" r="2" fill="rgb(0,0,255)"/><circle cx="207.89473684210526" cy="98.31847706394711" r="2" fill="rgb(0,0,255)"/><circle cx="234.21052631578945" cy="98.31847706394711" r="2" fill="rgb(0,0,255)"/><circle cx="260.52631578947364" cy="98.31847706394711" r="2" fill="rgb(0,0,255)"/><circle cx="286.8421052631579" cy="98.31847706394711" r="2" fill="rgb(0,0,255)"/><circle cx="313.1578947368421" cy="98.31847706394711" r="2" fill="rgb(0,0,255)"/><circle cx="339.4736842105263" cy="98.31847706394711" r="2" fill="rgb(0,0,255)"/><circle cx="365.7894736842105" cy="98.31847706394711" r="2" fill="rgb(0,0,255)"/><circle cx="392.10526315789474" cy="98.31847706394711" r="2" fill="rgb(0,0,255)"/><circle cx="418.4210526315789" cy="98.31847706394711" r="2" fill="rgb(0,0,255)"/><circle cx="444.7368421052632" cy="98.31847706394711" r="2" fill="rgb(0,0,255)"/><circle cx="471.05263157894734" cy="98.31847706394711" r="2" fill="rgb(0,0,255)"/><circle cx="497.36842105263156" cy="98.31847706394711" r="2" fill="rgb(0,0,255)"/><circle cx="523.6842105263158" cy="98.31847706394711" r="2" fill="rgb(0,0,255)"/><circle cx="550.0" cy="98.31847706394711" r="2" fill="rgb(0,0,255)"/><polyline points="50.0,403.0267608806272 76.3157894736842,172.22954070924214 102.63157894736841,196.69362729838292 128.94736842105263,217.64641609466366 155.26315789473682,247.95503979377975 181.57894736842104,247.95503979377975 207.89473684210526,253.33446434548534 234.21052631578945,253.33446434548534 260.52631578947364,253.33446434548534 286.8421052631579,253.33446434548534 313.1578947368421,253.33446434548534 339.4736842105263,253.33446434548534 365.7894736842105,253.33446434548534 392.10526315789474,253.33446434548534 418.4210526315789,253.33446434548534 444.7368421052632,253.33446434548534 471.05263157894734,253.33446434548534 497.36842105263156,253.33446434548534 523.6842105263158,253.33446434548534 550.0,253.33446434548534" fill="none" stroke="rgb(0,255,0)" stroke-width="1"/><circle cx="50.0" cy="403.0267608806272" r="2" fill="rgb(0,255,0)"/><circle cx="76.3157894736842" cy="172.22954070924214" r="2" fill="rgb(0,255,0)"/><circle cx="102.63157894736841" cy="196.69362729838292" r="2" fill="rgb(0,255,0)"/><circle cx="128.94736842105263" cy="217.64641609466366" r="2" fill="rgb(0,255,0)"/><circle cx="155.26315789473682" cy="247.95503979377975" r="2" fill="rgb(0,255,0)"/><circle cx="181.57894736842104" cy="247.95503979377975" r="2" fill="rgb(0,255,0)"/><circle cx="207.89473684210526" cy="253.33446434548534" r="2" fill="rgb(0,255,0)"/><circle cx="234.21052631578945" cy="253.33446434548534" r="2" fill="rgb(0,255,0)"/><circle cx="260.52631578947364" cy="253.33446434548534" r="2" fill="rgb(0,255,0)"/><circle cx="286.8421052631579" cy="253.33446434548534" r="2" fill="rgb(0,255,0)"/><circle cx="313.1578947368421" cy="253.33446434548534" r="2" fill="rgb(0,255,0)"/><circle cx="339.4736842105263" cy="253.33446434548534" r="2" fill="rgb(0,255,0)"/><circle cx="365.7894736842105" cy="253.33446434548534" r="2" fill="rgb(0,255,0)"/><circle cx="392.10526315789474" cy="253.33446434548534" r="2" fill="rgb(0,255,0)"/><circle cx="418.4210526315789" cy="253.33446434548534" r="2" fill="rgb(0,255,0)"/><circle cx="444.7368421052632" cy="253.33446434548534" r="2" fill="rgb(0,255,0)"/><circle cx="471.05263157894734" cy="253.33446434548534" r="2" fill="rgb(0,255,0)"/><circle cx="497.36842105263156" cy="253.33446434548534" r="2" fill="rgb(0,255,0)"/><circle cx="523.6842105263158" cy="253.33446434548534" r="2" fill="rgb(0,255,0)"/><circle cx="550.0" cy="253.33446434548534" r="2" fill="rgb(0,255,0)"/><text x="350.0" y="20.0" text-anchor="middle" fill="rgb(0,0,0)" font-size="20.0">KMeans Mean Centroid Distances</text><text x="350.0" y="575.0" text-anchor="middle" fill="rgb(0,0,0)" font-size="12.0">step</text><text transform="rotate(-90.0 20.0 300.0)" x="20.0" y="300.0" text-anchor="middle" fill="rgb(0,0,0)" font-size="12.0">average distance to centroid</text><text x="620" y="62" fill="rgb(255,0,0)" font-size="12">0</text><text x="620" y="74" fill="rgb(0,0,255)" font-size="12">1</text><text x="620" y="86" fill="rgb(0,255,0)" font-size="12">2</text>
      Sorry, your browser does not support inline SVG.
    </svg>