<?xml version='1.0' encoding='UTF-8'?>
<svg version="1.1" width="700.0" height="600.0" onload="init(evt)" xmlns="http://www.w3.org/2000/svg">
      <style>.caption {
  font-size: 14px;
  font-family: Georgia, serif;
}
</style>
      <script type="text/ecmascript"><![CDATA[
function init(evt) {
  if ( window.svgDocument == null ) {
    svgDocument = evt.target.ownerDocument;
  }
}

function RectHover(evt, i, c) {
  rect = svgDocument.getElementById('rect' + i);
  if( c != null ) {
    rect.setAttributeNS(null, "fill", c)  
  }
  tooltiptext = svgDocument.getElementById('tooltiptext' + i);
  tooltipbg = svgDocument.getElementById('tooltipbg' + i);
  if( tooltipbg != null) {
    tbb = tooltiptext.getBBox();
    tooltipbg.setAttributeNS(null, "width", tbb.width);
    tooltipbg.setAttributeNS(null, "height", tbb.height);
    tooltipbg.setAttributeNS(null, "x", tbb.x);
    tooltipbg.setAttributeNS(null, "y", tbb.y);
    tooltipbg.setAttributeNS(null, "visibility", "visible");
  }
  tooltiptext.setAttributeNS(null,"visibility","visible");
}

function RectUnhover(evt, i, c) {
  rect = svgDocument.getElementById('rect' + i);
  if( c != null ) {
    rect.setAttributeNS(null, "fill", c)  
  }
  tooltiptext = svgDocument.getElementById('tooltiptext' + i);
  tooltiptext.setAttributeNS(null,"visibility","hidden");
  tooltipbg = svgDocument.getElementById('tooltipbg' + i);
  if( tooltipbg != null ) {
    tooltipbg.setAttributeNS(null,"visibility","hidden");
  }
}
]]></script>
      <line x1="50.0" y1="550.0" x2="550.0" y2="550.0" stroke="rgb(0,0,0)" stroke-width="1"/><line x1="50.0" y1="550.0" x2="50.0" y2="50.0" stroke="rgb(0,0,0)" stroke-width="1"/><line x1="50.0" y1="550.0" x2="50.0" y2="50.0" stroke="rgb(192,192,192)" stroke-width="1"/><line x1="50.0" y1="548.0" x2="50.0" y2="552.0" stroke="rgb(192,192,192)" stroke-width="1"/><text text-anchor="middle" alignment-baseline="hanging" x="50.0" y="553.0" font-size="12.0">0</text><line x1="313.1578947368421" y1="550.0" x2="313.1578947368421" y2="50.0" stroke="rgb(192,192,192)" stroke-width="1"/><line x1="313.1578947368421" y1="548.0" x2="313.1578947368421" y2="552.0" stroke="rgb(192,192,192)" stroke-width="1"/><text text-anchor="middle" alignment-baseline="hanging" x="313.1578947368421" y="553.0" font-size="12.0">10</text><line x1="50.0" y1="550.0" x2="550.0" y2="550.0" stroke="rgb(192,192,192)" stroke-width="1"/><text text-anchor="end" alignment-baseline="middle" x="45.0" y="550.0" font-size="12.0">0.0</text><line x1="48.0" y1="550.0" x2="52.0" y2="550.0" stroke="rgb(192,192,192)" stroke-width="1"/><line x1="50.0" y1="379.825741794751" x2="550.0" y2="379.825741794751" stroke="rgb(192,192,192)" stroke-width="1"/><text text-anchor="end" alignment-baseline="middle" x="45.0" y="379.825741794751" font-size="12.0">0.1</text><line x1="48.0" y1="379.825741794751" x2="52.0" y2="379.825741794751" stroke="rgb(192,192,192)" stroke-width="1"/><line x1="50.0" y1="209.6514835895021" x2="550.0" y2="209.6514835895021" stroke="rgb(192,192,192)" stroke-width="1"/><text text-anchor="end" alignment-baseline="middle" x="45.0" y="209.6514835895021" font-size="12.0">0.2</text><line x1="48.0" y1="209.6514835895021" x2="52.0" y2="209.6514835895021" stroke="rgb(192,192,192)" stroke-width="1"/><polyline points="50.0,122.86945248134788 76.3157894736842,407.7488715849063 102.63157894736841,504.56974149875117 128.94736842105263,515.9841814307161 155.26315789473682,514.1741573051576 181.57894736842104,516.5169852542698 207.89473684210526,516.5169852542698 234.21052631578945,516.5169852542698 260.52631578947364,516.5169852542698 286.8421052631579,516.5169852542698 313.1578947368421,516.5169852542698 339.4736842105263,516.5169852542698 365.7894736842105,516.5169852542698 392.10526315789474,516.5169852542698 418.4210526315789,516.5169852542698 444.7368421052632,516.5169852542698 471.05263157894734,516.5169852542698 497.36842105263156,516.5169852542698 523.6842105263158,516.5169852542698 550.0,516.5169852542698" fill="none" stroke="rgb(255,0,0)" stroke-width="1"/><circle cx="50.0" cy="122.86945248134788" r="2" fill="rgb(255,0,0)"/><circle cx="76.3157894736842" cy="407.7488715849063" r="2" fill="rgb(255,0,0)"/><circle cx="102.63157894736841" cy="504.56974149875117" r="2" fill="rgb(255,0,0)"/><circle cx="128.94736842105263" cy="515.9841814307161" r="2" fill="rgb(255,0,0)"/><circle cx="155.26315789473682" cy="514.1741573051576" r="2" fill="rgb(255,0,0)"/><circle cx="181.57894736842104" cy="516.5169852542698" r="2" fill="rgb(255,0,0)"/><circle cx="207.89473684210526" cy="516.5169852542698" r="2" fill="rgb(255,0,0)"/><circle cx="234.21052631578945" cy="516.5169852542698" r="2" fill="rgb(255,0,0)"/><circle cx="260.52631578947364" cy="516.5169852542698" r="2" fill="rgb(255,0,0)"/><circle cx="286.8421052631579" cy="516.5169852542698" r="2" fill="rgb(255,0,0)"/><circle cx="313.1578947368421" cy="516.5169852542698" r="2" fill="rgb(255,0,0)"/><circle cx="339.4736842105263" cy="516.5169852542698" r="2" fill="rgb(255,0,0)"/><circle cx="365.7894736842105" cy="516.5169852542698" r="2" fill="rgb(255,0,0)"/><circle cx="392.10526315789474" cy="516.5169852542698" r="2" fill="rgb(255,0,0)"/><circle cx="418.4210526315789" cy="516.5169852542698" r="2" fill="rgb(255,0,0)"/><circle cx="444.7368421052632" cy="516.5169852542698" r="2" fill="rgb(255,0,0)"/><circle cx="471.05263157894734" cy="516.5169852542698" r="2" fill="rgb(255,0,0)"/><circle cx="497.36842105263156" cy="516.5169852542698" r="2" fill="rgb(255,0,0)"/><circle cx="523.6842105263158" cy="516.5169852542698" r="2" fill="rgb(255,0,0)"/><circle cx="550.0" cy="516.5169852542698" r="2" fill="rgb(255,0,0)"/><polyline points="50.0,97.61904761904759 76.3157894736842,271.16524189742705 102.63157894736841,314.96192054760746 128.94736842105263,350.9129790764879 155.26315789473682,351.3600323785039 181.57894736842104,347.65299406757424 207.89473684210526,347.65299406757424 234.21052631578945,347.65299406757424 260.52631578947364,347.65299406757424 286.8421052631579,347.65299406757424 313.1578947368421,347.65299406757424 339.4736842105263,347.65299406757424 365.7894736842105,347.65299406757424 392.10526315789474,347.65299406757424 418.4210526315789,347.65299406757424 444.7368421052632,347.65299406757424 471.05263157894734,347.65299406757424 497.36842105263156,347.65299406757424 523.6842105263158,347.65299406757424 550.0,347.65299406757424" fill="none" stroke="rgb(0,0,255)" stroke-width="1"/><circle cx="50.0" cy="97.61904761904759" r="2" fill="rgb(0,0,255)"/><circle cx="76.3157894736842" cy="271.16524189742705" r="2" fill="rgb(0,0,255)"/><circle cx="102.63157894736841" cy="314.96192054760746" r="2" fill="rgb(0,0,255)"/><circle cx="128.94736842105263" cy="350.9129790764879" r="2" fill="rgb(0,0,255)"/><circle cx="155.26315789473682" cy="351.3600323785039" r="2" fill="rgb(0,0,255)"/><circle cx="181.57894736842104" cy="347.65299406757424" r="2" fill="rgb(0,0,255)"/><circle cx="207.89473684210526" cy="347.65299406757424" r="2" fill="rgb(0,0,255)"/><circle cx="234.21052631578945" cy="347.65299406757424" r="2" fill="rgb(0,0,255)"/><circle cx="260.52631578947364" cy="347.65299406757424" r="2" fill="rgb(0,0,255)"/><circle cx="286.8421052631579" cy="347.65299406757424" r="2" fill="rgb(0,0,255)"/><circle cx="313.1578947368421" cy="347.65299406757424" r="2" fill="rgb(0,0,255)"/><circle cx="339.4736842105263" cy="347.65299406757424" r="2" fill="rgb(0,0,255)"/><circle cx="365.7894736842105" cy="347.65299406757424" r="2" fill="rgb(0,0,255)"/><circle cx="392.10526315789474" cy="347.65299406757424" r="2" fill="rgb(0,0,255)"/><circle cx="418.4210526315789" cy="347.65299406757424" r="2" fill="rgb(0,0,255)"/><circle cx="444.7368421052632" cy="347.65299406757424" r="2" fill="rgb(0,0,255)"/><circle cx="471.05263157894734" cy="347.65299406757424" r="2" fill="rgb(0,0,255)"/><circle cx="497.36842105263156" cy="347.65299406757424" r="2" fill="rgb(0,0,255)"/><circle cx="523.6842105263158" cy="347.65299406757424" r="2" fill="rgb(0,0,255)"/><circle cx="550.0" cy="347.65299406757424" r="2" fill="rgb(0,0,255)"/><polyline points="50.0,50.0 76.3157894736842,282.94234638481356 102.63157894736841,362.50490340489114 128.94736842105263,416.79616055430756 155.26315789473682,419.31100321737426 181.57894736842104,417.09798861635295 207.89473684210526,417.09798861635295 234.21052631578945,417.09798861635295 260.52631578947364,417.09798861635295 286.8421052631579,417.09798861635295 313.1578947368421,417.09798861635295 339.4736842105263,417.09798861635295 365.7894736842105,417.09798861635295 392.10526315789474,417.09798861635295 418.4210526315789,417.09798861635295 444.7368421052632,417.09798861635295 471.05263157894734,417.09798861635295 497.36842105263156,417.09798861635295 523.6842105263158,417.09798861635295 550.0,417.09798861635295" fill="none" stroke="rgb(0,255,0)" stroke-width="1"/><circle cx="50.0" cy="50.0" r="2" fill="rgb(0,255,0)"/><circle cx="76.3157894736842" cy="282.94234638481356" r="2" fill="rgb(0,255,0)"/><circle cx="102.63157894736841" cy="362.50490340489114" r="2" fill="rgb(0,255,0)"/><circle cx="128.94736842105263" cy="416.79616055430756" r="2" fill="rgb(0,255,0)"/><circle cx="155.26315789473682" cy="419.31100321737426" r="2" fill="rgb(0,255,0)"/><circle cx="181.57894736842104" cy="417.09798861635295" r="2" fill="rgb(0,255,0)"/><circle cx="207.89473684210526" cy="417.09798861635295" r="2" fill="rgb(0,255,0)"/><circle cx="234.21052631578945" cy="417.09798861635295" r="2" fill="rgb(0,255,0)"/><circle cx="260.52631578947364" cy="417.09798861635295" r="2" fill="rgb(0,255,0)"/><circle cx="286.8421052631579" cy="417.09798861635295" r="2" fill="rgb(0,255,0)"/><circle cx="313.1578947368421" cy="417.09798861635295" r="2" fill="rgb(0,255,0)"/><circle cx="339.4736842105263" cy="417.09798861635295" r="2" fill="rgb(0,255,0)"/><circle cx="365.7894736842105" cy="417.09798861635295" r="2" fill="rgb(0,255,0)"/><circle cx="392.10526315789474" cy="417.09798861635295" r="2" fill="rgb(0,255,0)"/><circle cx="418.4210526315789" cy="417.09798861635295" r="2" fill="rgb(0,255,0)"/><circle cx="444.7368421052632" cy="417.09798861635295" r="2" fill="rgb(0,255,0)"/><circle cx="471.05263157894734" cy="417.09798861635295" r="2" fill="rgb(0,255,0)"/><circle cx="497.36842105263156" cy="417.09798861635295" r="2" fill="rgb(0,255,0)"/><circle cx="523.6842105263158" cy="417.09798861635295" r="2" fill="rgb(0,255,0)"/><circle cx="550.0" cy="417.09798861635295" r="2" fill="rgb(0,255,0)"/><text x="350.0" y="20.0" text-anchor="middle" fill="rgb(0,0,0)" font-size="20.0">KMeans Mean Centroid Distances</text><text x="350.0" y="575.0" text-anchor="middle" fill="rgb(0,0,0)" font-size="12.0">step</text><text transform="rotate(-90.0 20.0 300.0)" x="20.0" y="300.0" text-anchor="middle" fill="rgb(0,0,0)" font-size="12.0">average distance to centroid</text><text x="620" y="62" fill="rgb(255,0,0)" font-size="12">0</text><text x="620" y="74" fill="rgb(0,0,255)" font-size="12">1</text><text x="620" y="86" fill="rgb(0,255,0)" font-size="12">2</text>
      Sorry, your browser does not support inline SVG.
    </svg>