<?xml version='1.0' encoding='UTF-8'?>
<svg version="1.1" width="700.0" height="600.0" onload="init(evt)" xmlns="http://www.w3.org/2000/svg">
      <style>.caption {
  font-size: 14px;
  font-family: Georgia, serif;
}
</style>
      <script type="text/ecmascript"><![CDATA[
function init(evt) {
  if ( window.svgDocument == null ) {
    svgDocument = evt.target.ownerDocument;
  }
}

function RectHover(evt, i, c) {
  rect = svgDocument.getElementById('rect' + i);
  if( c != null ) {
    rect.setAttributeNS(null, "fill", c)  
  }
  tooltiptext = svgDocument.getElementById('tooltiptext' + i);
  tooltipbg = svgDocument.getElementById('tooltipbg' + i);
  if( tooltipbg != null) {
    tbb = tooltiptext.getBBox();
    tooltipbg.setAttributeNS(null, "width", tbb.width);
    tooltipbg.setAttributeNS(null, "height", tbb.height);
    tooltipbg.setAttributeNS(null, "x", tbb.x);
    tooltipbg.setAttributeNS(null, "y", tbb.y);
    tooltipbg.setAttributeNS(null, "visibility", "visible");
  }
  tooltiptext.setAttributeNS(null,"visibility","visible");
}

function RectUnhover(evt, i, c) {
  rect = svgDocument.getElementById('rect' + i);
  if( c != null ) {
    rect.setAttributeNS(null, "fill", c)  
  }
  tooltiptext = svgDocument.getElementById('tooltiptext' + i);
  tooltiptext.setAttributeNS(null,"visibility","hidden");
  tooltipbg = svgDocument.getElementById('tooltipbg' + i);
  if( tooltipbg != null ) {
    tooltipbg.setAttributeNS(null,"visibility","hidden");
  }
}
]]></script>
      <line x1="50.0" y1="550.0" x2="550.0" y2="550.0" stroke="rgb(0,0,0)" stroke-width="1"/><line x1="50.0" y1="550.0" x2="50.0" y2="50.0" stroke="rgb(0,0,0)" stroke-width="1"/><line x1="50.0" y1="550.0" x2="50.0" y2="50.0" stroke="rgb(192,192,192)" stroke-width="1"/><line x1="50.0" y1="548.0" x2="50.0" y2="552.0" stroke="rgb(192,192,192)" stroke-width="1"/><text text-anchor="middle" alignment-baseline="hanging" x="50.0" y="553.0" font-size="12.0">0</text><line x1="313.1578947368421" y1="550.0" x2="313.1578947368421" y2="50.0" stroke="rgb(192,192,192)" stroke-width="1"/><line x1="313.1578947368421" y1="548.0" x2="313.1578947368421" y2="552.0" stroke="rgb(192,192,192)" stroke-width="1"/><text text-anchor="middle" alignment-baseline="hanging" x="313.1578947368421" y="553.0" font-size="12.0">10</text><line x1="50.0" y1="550.0" x2="550.0" y2="550.0" stroke="rgb(192,192,192)" stroke-width="1"/><text text-anchor="end" alignment-baseline="middle" x="45.0" y="550.0" font-size="12.0">0.00</text><line x1="48.0" y1="550.0" x2="52.0" y2="550.0" stroke="rgb(192,192,192)" stroke-width="1"/><line x1="50.0" y1="510.4933667429838" x2="550.0" y2="510.4933667429838" stroke="rgb(192,192,192)" stroke-width="1"/><text text-anchor="end" alignment-baseline="middle" x="45.0" y="510.4933667429838" font-size="12.0">0.01</text><line x1="48.0" y1="510.4933667429838" x2="52.0" y2="510.4933667429838" stroke="rgb(192,192,192)" stroke-width="1"/><line x1="50.0" y1="470.98673348596765" x2="550.0" y2="470.98673348596765" stroke="rgb(192,192,192)" stroke-width="1"/><text text-anchor="end" alignment-baseline="middle" x="45.0" y="470.98673348596765" font-size="12.0">0.02</text><line x1="48.0" y1="470.98673348596765" x2="52.0" y2="470.98673348596765" stroke="rgb(192,192,192)" stroke-width="1"/><line x1="50.0" y1="431.48010022895147" x2="550.0" y2="431.48010022895147" stroke="rgb(192,192,192)" stroke-width="1"/><text text-anchor="end" alignment-baseline="middle" x="45.0" y="431.48010022895147" font-size="12.0">0.03</text><line x1="48.0" y1="431.48010022895147" x2="52.0" y2="431.48010022895147" stroke="rgb(192,192,192)" stroke-width="1"/><line x1="50.0" y1="391.9734669719353" x2="550.0" y2="391.9734669719353" stroke="rgb(192,192,192)" stroke-width="1"/><text text-anchor="end" alignment-baseline="middle" x="45.0" y="391.9734669719353" font-size="12.0">0.04</text><line x1="48.0" y1="391.9734669719353" x2="52.0" y2="391.9734669719353" stroke="rgb(192,192,192)" stroke-width="1"/><line x1="50.0" y1="352.46683371491906" x2="550.0" y2="352.46683371491906" stroke="rgb(192,192,192)" stroke-width="1"/><text text-anchor="end" alignment-baseline="middle" x="45.0" y="352.46683371491906" font-size="12.0">0.05</text><line x1="48.0" y1="352.46683371491906" x2="52.0" y2="352.46683371491906" stroke="rgb(192,192,192)" stroke-width="1"/><line x1="50.0" y1="312.96020045790294" x2="550.0" y2="312.96020045790294" stroke="rgb(192,192,192)" stroke-width="1"/><text text-anchor="end" alignment-baseline="middle" x="45.0" y="312.96020045790294" font-size="12.0">0.06</text><line x1="48.0" y1="312.96020045790294" x2="52.0" y2="312.96020045790294" stroke="rgb(192,192,192)" stroke-width="1"/><line x1="50.0" y1="273.4535672008867" x2="550.0" y2="273.4535672008867" stroke="rgb(192,192,192)" stroke-width="1"/><text text-anchor="end" alignment-baseline="middle" x="45.0" y="273.4535672008867" font-size="12.0">0.07</text><line x1="48.0" y1="273.4535672008867" x2="52.0" y2="273.4535672008867" stroke="rgb(192,192,192)" stroke-width="1"/><line x1="50.0" y1="233.9469339438706" x2="550.0" y2="233.9469339438706" stroke="rgb(192,192,192)" stroke-width="1"/><text text-anchor="end" alignment-baseline="middle" x="45.0" y="233.9469339438706" font-size="12.0">0.08</text><line x1="48.0" y1="233.9469339438706" x2="52.0" y2="233.9469339438706" stroke="rgb(192,192,192)" stroke-width="1"/><line x1="50.0" y1="194.44030068685436" x2="550.0" y2="194.44030068685436" stroke="rgb(192,192,192)" stroke-width="1"/><text text-anchor="end" alignment-baseline="middle" x="45.0" y="194.44030068685436" font-size="12.0">0.09</text><line x1="48.0" y1="194.44030068685436" x2="52.0" y2="194.44030068685436" stroke="rgb(192,192,192)" stroke-width="1"/><line x1="50.0" y1="154.93366742983818" x2="550.0" y2="154.93366742983818" stroke="rgb(192,192,192)" stroke-width="1"/><text text-anchor="end" alignment-baseline="middle" x="45.0" y="154.93366742983818" font-size="12.0">0.10</text><line x1="48.0" y1="154.93366742983818" x2="52.0" y2="154.93366742983818" stroke="rgb(192,192,192)" stroke-width="1"/><line x1="50.0" y1="115.427034172822" x2="550.0" y2="115.427034172822" stroke="rgb(192,192,192)" stroke-width="1"/><text text-anchor="end" alignment-baseline="middle" x="45.0" y="115.427034172822" font-size="12.0">0.11</text><line x1="48.0" y1="115.427034172822" x2="52.0" y2="115.427034172822" stroke="rgb(192,192,192)" stroke-width="1"/><line x1="50.0" y1="75.92040091580583" x2="550.0" y2="75.92040091580583" stroke="rgb(192,192,192)" stroke-width="1"/><text text-anchor="end" alignment-baseline="middle" x="45.0" y="75.92040091580583" font-size="12.0">0.12</text><line x1="48.0" y1="75.92040091580583" x2="52.0" y2="75.92040091580583" stroke="rgb(192,192,192)" stroke-width="1"/><polyline points="50.0,50.0 76.3157894736842,472.267844863858 102.63157894736841,472.267844863858 128.94736842105263,466.8288762709566 155.26315789473682,466.8288762709566 181.57894736842104,472.267844863858 207.89473684210526,472.267844863858 234.21052631578945,472.267844863858 260.52631578947364,472.267844863858 286.8421052631579,472.267844863858 313.1578947368421,472.267844863858 339.4736842105263,472.267844863858 365.7894736842105,472.267844863858 392.10526315789474,472.267844863858 418.4210526315789,472.267844863858 444.7368421052632,472.267844863858 471.05263157894734,472.267844863858 497.36842105263156,472.267844863858 523.6842105263158,472.267844863858 550.0,472.267844863858" fill="none" stroke="rgb(255,0,0)" stroke-width="1"/><circle cx="50.0" cy="50.0" r="2" fill="rgb(255,0,0)"/><circle cx="76.3157894736842" cy="472.267844863858" r="2" fill="rgb(255,0,0)"/><circle cx="102.63157894736841" cy="472.267844863858" r="2" fill="rgb(255,0,0)"/><circle cx="128.94736842105263" cy="466.8288762709566" r="2" fill="rgb(255,0,0)"/><circle cx="155.26315789473682" cy="466.8288762709566" r="2" fill="rgb(255,0,0)"/><circle cx="181.57894736842104" cy="472.267844863858" r="2" fill="rgb(255,0,0)"/><circle cx="207.89473684210526" cy="472.267844863858" r="2" fill="rgb(255,0,0)"/><circle cx="234.21052631578945" cy="472.267844863858" r="2" fill="rgb(255,0,0)"/><circle cx="260.52631578947364" cy="472.267844863858" r="2" fill="rgb(255,0,0)"/><circle cx="286.8421052631579" cy="472.267844863858" r="2" fill="rgb(255,0,0)"/><circle cx="313.1578947368421" cy="472.267844863858" r="2" fill="rgb(255,0,0)"/><circle cx="339.4736842105263" cy="472.267844863858" r="2" fill="rgb(255,0,0)"/><circle cx="365.7894736842105" cy="472.267844863858" r="2" fill="rgb(255,0,0)"/><circle cx="392.10526315789474" cy="472.267844863858" r="2" fill="rgb(255,0,0)"/><circle cx="418.4210526315789" cy="472.267844863858" r="2" fill="rgb(255,0,0)"/><circle cx="444.7368421052632" cy="472.267844863858" r="2" fill="rgb(255,0,0)"/><circle cx="471.05263157894734" cy="472.267844863858" r="2" fill="rgb(255,0,0)"/><circle cx="497.36842105263156" cy="472.267844863858" r="2" fill="rgb(255,0,0)"/><circle cx="523.6842105263158" cy="472.267844863858" r="2" fill="rgb(255,0,0)"/><circle cx="550.0" cy="472.267844863858" r="2" fill="rgb(255,0,0)"/><polyline points="50.0,202.21276089539145 76.3157894736842,80.24334947381311 102.63157894736841,80.24334947381311 128.94736842105263,88.84938687125361 155.26315789473682,88.84938687125361 181.57894736842104,80.24334947381311 207.89473684210526,80.24334947381311 234.21052631578945,80.24334947381311 260.52631578947364,80.24334947381311 286.8421052631579,80.24334947381311 313.1578947368421,80.24334947381311 339.4736842105263,80.24334947381311 365.7894736842105,80.24334947381311 392.10526315789474,80.24334947381311 418.4210526315789,80.24334947381311 444.7368421052632,80.24334947381311 471.05263157894734,80.24334947381311 497.36842105263156,80.24334947381311 523.6842105263158,80.24334947381311 550.0,80.24334947381311" fill="none" stroke="rgb(0,0,255)" stroke-width="1"/><circle cx="50.0" cy="202.21276089539145" r="2" fill="rgb(0,0,255)"/><circle cx="76.3157894736842" cy="80.24334947381311" r="2" fill="rgb(0,0,255)"/><circle cx="102.63157894736841" cy="80.24334947381311" r="2" fill="rgb(0,0,255)"/><circle cx="128.94736842105263" cy="88.84938687125361" r="2" fill="rgb(0,0,255)"/><circle cx="155.26315789473682" cy="88.84938687125361" r="2" fill="rgb(0,0,255)"/><circle cx="181.57894736842104" cy="80.24334947381311" r="2" fill="rgb(0,0,255)"/><circle cx="207.89473684210526" cy="80.24334947381311" r="2" fill="rgb(0,0,255)"/><circle cx="234.21052631578945" cy="80.24334947381311" r="2" fill="rgb(0,0,255)"/><circle cx="260.52631578947364" cy="80.24334947381311" r="2" fill="rgb(0,0,255)"/><circle cx="286.8421052631579" cy="80.24334947381311" r="2" fill="rgb(0,0,255)"/><circle cx="313.1578947368421" cy="80.24334947381311" r="2" fill="rgb(0,0,255)"/><circle cx="339.4736842105263" cy="80.24334947381311" r="2" fill="rgb(0,0,255)"/><circle cx="365.7894736842105" cy="80.24334947381311" r="2" fill="rgb(0,0,255)"/><circle cx="392.10526315789474" cy="80.24334947381311" r="2" fill="rgb(0,0,255)"/><circle cx="418.4210526315789" cy="80.24334947381311" r="2" fill="rgb(0,0,255)"/><circle cx="444.7368421052632" cy="80.24334947381311" r="2" fill="rgb(0,0,255)"/><circle cx="471.05263157894734" cy="80.24334947381311" r="2" fill="rgb(0,0,255)"/><circle cx="497.36842105263156" cy="80.24334947381311" r="2" fill="rgb(0,0,255)"/><circle cx="523.6842105263158" cy="80.24334947381311" r="2" fill="rgb(0,0,255)"/><circle cx="550.0" cy="80.24334947381311" r="2" fill="rgb(0,0,255)"/><polyline points="50.0,384.1757205077616 76.3157894736842,241.46267606932435 102.63157894736841,241.46267606932435 128.94736842105263,246.60027779340658 155.26315789473682,246.60027779340658 181.57894736842104,241.46267606932435 207.89473684210526,241.46267606932435 234.21052631578945,241.46267606932435 260.52631578947364,241.46267606932435 286.8421052631579,241.46267606932435 313.1578947368421,241.46267606932435 339.4736842105263,241.46267606932435 365.7894736842105,241.46267606932435 392.10526315789474,241.46267606932435 418.4210526315789,241.46267606932435 444.7368421052632,241.46267606932435 471.05263157894734,241.46267606932435 497.36842105263156,241.46267606932435 523.6842105263158,241.46267606932435 550.0,241.46267606932435" fill="none" stroke="rgb(0,255,0)" stroke-width="1"/><circle cx="50.0" cy="384.1757205077616" r="2" fill="rgb(0,255,0)"/><circle cx="76.3157894736842" cy="241.46267606932435" r="2" fill="rgb(0,255,0)"/><circle cx="102.63157894736841" cy="241.46267606932435" r="2" fill="rgb(0,255,0)"/><circle cx="128.94736842105263" cy="246.60027779340658" r="2" fill="rgb(0,255,0)"/><circle cx="155.26315789473682" cy="246.60027779340658" r="2" fill="rgb(0,255,0)"/><circle cx="181.57894736842104" cy="241.46267606932435" r="2" fill="rgb(0,255,0)"/><circle cx="207.89473684210526" cy="241.46267606932435" r="2" fill="rgb(0,255,0)"/><circle cx="234.21052631578945" cy="241.46267606932435" r="2" fill="rgb(0,255,0)"/><circle cx="260.52631578947364" cy="241.46267606932435" r="2" fill="rgb(0,255,0)"/><circle cx="286.8421052631579" cy="241.46267606932435" r="2" fill="rgb(0,255,0)"/><circle cx="313.1578947368421" cy="241.46267606932435" r="2" fill="rgb(0,255,0)"/><circle cx="339.4736842105263" cy="241.46267606932435" r="2" fill="rgb(0,255,0)"/><circle cx="365.7894736842105" cy="241.46267606932435" r="2" fill="rgb(0,255,0)"/><circle cx="392.10526315789474" cy="241.46267606932435" r="2" fill="rgb(0,255,0)"/><circle cx="418.4210526315789" cy="241.46267606932435" r="2" fill="rgb(0,255,0)"/><circle cx="444.7368421052632" cy="241.46267606932435" r="2" fill="rgb(0,255,0)"/><circle cx="471.05263157894734" cy="241.46267606932435" r="2" fill="rgb(0,255,0)"/><circle cx="497.36842105263156" cy="241.46267606932435" r="2" fill="rgb(0,255,0)"/><circle cx="523.6842105263158" cy="241.46267606932435" r="2" fill="rgb(0,255,0)"/><circle cx="550.0" cy="241.46267606932435" r="2" fill="rgb(0,255,0)"/><text x="350.0" y="20.0" text-anchor="middle" fill="rgb(0,0,0)" font-size="20.0">KMeans Mean Centroid Distances</text><text x="350.0" y="575.0" text-anchor="middle" fill="rgb(0,0,0)" font-size="12.0">step</text><text transform="rotate(-90.0 20.0 300.0)" x="20.0" y="300.0" text-anchor="middle" fill="rgb(0,0,0)" font-size="12.0">average distance to centroid</text><text x="620" y="62" fill="rgb(255,0,0)" font-size="12">0</text><text x="620" y="74" fill="rgb(0,0,255)" font-size="12">1</text><text x="620" y="86" fill="rgb(0,255,0)" font-size="12">2</text>
      Sorry, your browser does not support inline SVG.
    </svg>