<?xml version='1.0' encoding='UTF-8'?>
<svg version="1.1" width="700.0" height="600.0" onload="init(evt)" xmlns="http://www.w3.org/2000/svg">
      <style>.caption {
  font-size: 14px;
  font-family: Georgia, serif;
}
</style>
      <script type="text/ecmascript"><![CDATA[
function init(evt) {
  if ( window.svgDocument == null ) {
    svgDocument = evt.target.ownerDocument;
  }
}

function RectHover(evt, i, c) {
  rect = svgDocument.getElementById('rect' + i);
  if( c != null ) {
    rect.setAttributeNS(null, "fill", c)  
  }
  tooltiptext = svgDocument.getElementById('tooltiptext' + i);
  tooltipbg = svgDocument.getElementById('tooltipbg' + i);
  if( tooltipbg != null) {
    tbb = tooltiptext.getBBox();
    tooltipbg.setAttributeNS(null, "width", tbb.width);
    tooltipbg.setAttributeNS(null, "height", tbb.height);
    tooltipbg.setAttributeNS(null, "x", tbb.x);
    tooltipbg.setAttributeNS(null, "y", tbb.y);
    tooltipbg.setAttributeNS(null, "visibility", "visible");
  }
  tooltiptext.setAttributeNS(null,"visibility","visible");
}

function RectUnhover(evt, i, c) {
  rect = svgDocument.getElementById('rect' + i);
  if( c != null ) {
    rect.setAttributeNS(null, "fill", c)  
  }
  tooltiptext = svgDocument.getElementById('tooltiptext' + i);
  tooltiptext.setAttributeNS(null,"visibility","hidden");
  tooltipbg = svgDocument.getElementById('tooltipbg' + i);
  if( tooltipbg != null ) {
    tooltipbg.setAttributeNS(null,"visibility","hidden");
  }
}
]]></script>
      <line x1="50.0" y1="550.0" x2="550.0" y2="550.0" stroke="rgb(0,0,0)" stroke-width="1"/><line x1="50.0" y1="550.0" x2="50.0" y2="50.0" stroke="rgb(0,0,0)" stroke-width="1"/><line x1="50.0" y1="550.0" x2="50.0" y2="50.0" stroke="rgb(192,192,192)" stroke-width="1"/><line x1="50.0" y1="548.0" x2="50.0" y2="552.0" stroke="rgb(192,192,192)" stroke-width="1"/><text text-anchor="middle" alignment-baseline="hanging" x="50.0" y="553.0" font-size="12.0">0</text><line x1="313.1578947368421" y1="550.0" x2="313.1578947368421" y2="50.0" stroke="rgb(192,192,192)" stroke-width="1"/><line x1="313.1578947368421" y1="548.0" x2="313.1578947368421" y2="552.0" stroke="rgb(192,192,192)" stroke-width="1"/><text text-anchor="middle" alignment-baseline="hanging" x="313.1578947368421" y="553.0" font-size="12.0">10</text><line x1="50.0" y1="550.0" x2="550.0" y2="550.0" stroke="rgb(192,192,192)" stroke-width="1"/><text text-anchor="end" alignment-baseline="middle" x="45.0" y="550.0" font-size="12.0">0.0</text><line x1="48.0" y1="550.0" x2="52.0" y2="550.0" stroke="rgb(192,192,192)" stroke-width="1"/><line x1="50.0" y1="343.5763140487095" x2="550.0" y2="343.5763140487095" stroke="rgb(192,192,192)" stroke-width="1"/><text text-anchor="end" alignment-baseline="middle" x="45.0" y="343.5763140487095" font-size="12.0">0.1</text><line x1="48.0" y1="343.5763140487095" x2="52.0" y2="343.5763140487095" stroke="rgb(192,192,192)" stroke-width="1"/><line x1="50.0" y1="137.15262809741904" x2="550.0" y2="137.15262809741904" stroke="rgb(192,192,192)" stroke-width="1"/><text text-anchor="end" alignment-baseline="middle" x="45.0" y="137.15262809741904" font-size="12.0">0.2</text><line x1="48.0" y1="137.15262809741904" x2="52.0" y2="137.15262809741904" stroke="rgb(192,192,192)" stroke-width="1"/><polyline points="50.0,50.0 76.3157894736842,262.3979378758905 102.63157894736841,366.1544219923567 128.94736842105263,439.9693346163496 155.26315789473682,474.09520147624903 181.57894736842104,510.9892752261202 207.89473684210526,518.326994471979 234.21052631578945,542.2744720537338 260.52631578947364,538.6207277027771 286.8421052631579,525.0639929803749 313.1578947368421,509.3846484570023 339.4736842105263,509.3846484570023 365.7894736842105,509.3846484570023 392.10526315789474,509.3846484570023 418.4210526315789,509.3846484570023 444.7368421052632,509.3846484570023 471.05263157894734,509.3846484570023 497.36842105263156,509.3846484570023 523.6842105263158,509.3846484570023 550.0,509.3846484570023" fill="none" stroke="rgb(255,0,0)" stroke-width="1"/><circle cx="50.0" cy="50.0" r="2" fill="rgb(255,0,0)"/><circle cx="76.3157894736842" cy="262.3979378758905" r="2" fill="rgb(255,0,0)"/><circle cx="102.63157894736841" cy="366.1544219923567" r="2" fill="rgb(255,0,0)"/><circle cx="128.94736842105263" cy="439.9693346163496" r="2" fill="rgb(255,0,0)"/><circle cx="155.26315789473682" cy="474.09520147624903" r="2" fill="rgb(255,0,0)"/><circle cx="181.57894736842104" cy="510.9892752261202" r="2" fill="rgb(255,0,0)"/><circle cx="207.89473684210526" cy="518.326994471979" r="2" fill="rgb(255,0,0)"/><circle cx="234.21052631578945" cy="542.2744720537338" r="2" fill="rgb(255,0,0)"/><circle cx="260.52631578947364" cy="538.6207277027771" r="2" fill="rgb(255,0,0)"/><circle cx="286.8421052631579" cy="525.0639929803749" r="2" fill="rgb(255,0,0)"/><circle cx="313.1578947368421" cy="509.3846484570023" r="2" fill="rgb(255,0,0)"/><circle cx="339.4736842105263" cy="509.3846484570023" r="2" fill="rgb(255,0,0)"/><circle cx="365.7894736842105" cy="509.3846484570023" r="2" fill="rgb(255,0,0)"/><circle cx="392.10526315789474" cy="509.3846484570023" r="2" fill="rgb(255,0,0)"/><circle cx="418.4210526315789" cy="509.3846484570023" r="2" fill="rgb(255,0,0)"/><circle cx="444.7368421052632" cy="509.3846484570023" r="2" fill="rgb(255,0,0)"/><circle cx="471.05263157894734" cy="509.3846484570023" r="2" fill="rgb(255,0,0)"/><circle cx="497.36842105263156" cy="509.3846484570023" r="2" fill="rgb(255,0,0)"/><circle cx="523.6842105263158" cy="509.3846484570023" r="2" fill="rgb(255,0,0)"/><circle cx="550.0" cy="509.3846484570023" r="2" fill="rgb(255,0,0)"/><polyline points="50.0,224.2930926693724 76.3157894736842,390.5201110454029 102.63157894736841,410.6817255268179 128.94736842105263,403.8835586061906 155.26315789473682,387.99576500570515 181.57894736842104,344.99070786900154 207.89473684210526,327.56213402699643 234.21052631578945,293.3250996059243 260.52631578947364,275.0906824463031 286.8421052631579,287.000953502241 313.1578947368421,304.5503341909639 339.4736842105263,304.5503341909639 365.7894736842105,304.5503341909639 392.10526315789474,304.5503341909639 418.4210526315789,304.5503341909639 444.7368421052632,304.5503341909639 471.05263157894734,304.5503341909639 497.36842105263156,304.5503341909639 523.6842105263158,304.5503341909639 550.0,304.5503341909639" fill="none" stroke="rgb(0,0,255)" stroke-width="1"/><circle cx="50.0" cy="224.2930926693724" r="2" fill="rgb(0,0,255)"/><circle cx="76.3157894736842" cy="390.5201110454029" r="2" fill="rgb(0,0,255)"/><circle cx="102.63157894736841" cy="410.6817255268179" r="2" fill="rgb(0,0,255)"/><circle cx="128.94736842105263" cy="403.8835586061906" r="2" fill="rgb(0,0,255)"/><circle cx="155.26315789473682" cy="387.99576500570515" r="2" fill="rgb(0,0,255)"/><circle cx="181.57894736842104" cy="344.99070786900154" r="2" fill="rgb(0,0,255)"/><circle cx="207.89473684210526" cy="327.56213402699643" r="2" fill="rgb(0,0,255)"/><circle cx="234.21052631578945" cy="293.3250996059243" r="2" fill="rgb(0,0,255)"/><circle cx="260.52631578947364" cy="275.0906824463031" r="2" fill="rgb(0,0,255)"/><circle cx="286.8421052631579" cy="287.000953502241" r="2" fill="rgb(0,0,255)"/><circle cx="313.1578947368421" cy="304.5503341909639" r="2" fill="rgb(0,0,255)"/><circle cx="339.4736842105263" cy="304.5503341909639" r="2" fill="rgb(0,0,255)"/><circle cx="365.7894736842105" cy="304.5503341909639" r="2" fill="rgb(0,0,255)"/><circle cx="392.10526315789474" cy="304.5503341909639" r="2" fill="rgb(0,0,255)"/><circle cx="418.4210526315789" cy="304.5503341909639" r="2" fill="rgb(0,0,255)"/><circle cx="444.7368421052632" cy="304.5503341909639" r="2" fill="rgb(0,0,255)"/><circle cx="471.05263157894734" cy="304.5503341909639" r="2" fill="rgb(0,0,255)"/><circle cx="497.36842105263156" cy="304.5503341909639" r="2" fill="rgb(0,0,255)"/><circle cx="523.6842105263158" cy="304.5503341909639" r="2" fill="rgb(0,0,255)"/><circle cx="550.0" cy="304.5503341909639" r="2" fill="rgb(0,0,255)"/><polyline points="50.0,100.05033709530466 76.3157894736842,266.35900946945327 102.63157894736841,286.60307347242036 128.94736842105263,280.49253343078095 155.26315789473682,272.89003692203295 181.57894736842104,311.2107267184949 207.89473684210526,318.92595561789017 234.21052631578945,342.20720162937505 260.52631578947364,358.008681550403 286.8421052631579,371.97611078701135 313.1578947368421,388.78805555265467 339.4736842105263,388.78805555265467 365.7894736842105,388.78805555265467 392.10526315789474,388.78805555265467 418.4210526315789,388.78805555265467 444.7368421052632,388.78805555265467 471.05263157894734,388.78805555265467 497.36842105263156,388.78805555265467 523.6842105263158,388.78805555265467 550.0,388.78805555265467" fill="none" stroke="rgb(0,255,0)" stroke-width="1"/><circle cx="50.0" cy="100.05033709530466" r="2" fill="rgb(0,255,0)"/><circle cx="76.3157894736842" cy="266.35900946945327" r="2" fill="rgb(0,255,0)"/><circle cx="102.63157894736841" cy="286.60307347242036" r="2" fill="rgb(0,255,0)"/><circle cx="128.94736842105263" cy="280.49253343078095" r="2" fill="rgb(0,255,0)"/><circle cx="155.26315789473682" cy="272.89003692203295" r="2" fill="rgb(0,255,0)"/><circle cx="181.57894736842104" cy="311.2107267184949" r="2" fill="rgb(0,255,0)"/><circle cx="207.89473684210526" cy="318.92595561789017" r="2" fill="rgb(0,255,0)"/><circle cx="234.21052631578945" cy="342.20720162937505" r="2" fill="rgb(0,255,0)"/><circle cx="260.52631578947364" cy="358.008681550403" r="2" fill="rgb(0,255,0)"/><circle cx="286.8421052631579" cy="371.97611078701135" r="2" fill="rgb(0,255,0)"/><circle cx="313.1578947368421" cy="388.78805555265467" r="2" fill="rgb(0,255,0)"/><circle cx="339.4736842105263" cy="388.78805555265467" r="2" fill="rgb(0,255,0)"/><circle cx="365.7894736842105" cy="388.78805555265467" r="2" fill="rgb(0,255,0)"/><circle cx="392.10526315789474" cy="388.78805555265467" r="2" fill="rgb(0,255,0)"/><circle cx="418.4210526315789" cy="388.78805555265467" r="2" fill="rgb(0,255,0)"/><circle cx="444.7368421052632" cy="388.78805555265467" r="2" fill="rgb(0,255,0)"/><circle cx="471.05263157894734" cy="388.78805555265467" r="2" fill="rgb(0,255,0)"/><circle cx="497.36842105263156" cy="388.78805555265467" r="2" fill="rgb(0,255,0)"/><circle cx="523.6842105263158" cy="388.78805555265467" r="2" fill="rgb(0,255,0)"/><circle cx="550.0" cy="388.78805555265467" r="2" fill="rgb(0,255,0)"/><text x="350.0" y="20.0" text-anchor="middle" fill="rgb(0,0,0)" font-size="20.0">KMeans Mean Centroid Distances</text><text x="350.0" y="575.0" text-anchor="middle" fill="rgb(0,0,0)" font-size="12.0">step</text><text transform="rotate(-90.0 20.0 300.0)" x="20.0" y="300.0" text-anchor="middle" fill="rgb(0,0,0)" font-size="12.0">average distance to centroid</text><text x="620" y="62" fill="rgb(255,0,0)" font-size="12">0</text><text x="620" y="74" fill="rgb(0,0,255)" font-size="12">1</text><text x="620" y="86" fill="rgb(0,255,0)" font-size="12">2</text>
      Sorry, your browser does not support inline SVG.
    </svg>