<?xml version='1.0' encoding='UTF-8'?>
<svg version="1.1" width="700.0" height="600.0" onload="init(evt)" xmlns="http://www.w3.org/2000/svg">
      <style>.caption {
  font-size: 14px;
  font-family: Georgia, serif;
}
</style>
      <script type="text/ecmascript"><![CDATA[
function init(evt) {
  if ( window.svgDocument == null ) {
    svgDocument = evt.target.ownerDocument;
  }
}

function RectHover(evt, i, c) {
  rect = svgDocument.getElementById('rect' + i);
  if( c != null ) {
    rect.setAttributeNS(null, "fill", c)  
  }
  tooltiptext = svgDocument.getElementById('tooltiptext' + i);
  tooltipbg = svgDocument.getElementById('tooltipbg' + i);
  if( tooltipbg != null) {
    tbb = tooltiptext.getBBox();
    tooltipbg.setAttributeNS(null, "width", tbb.width);
    tooltipbg.setAttributeNS(null, "height", tbb.height);
    tooltipbg.setAttributeNS(null, "x", tbb.x);
    tooltipbg.setAttributeNS(null, "y", tbb.y);
    tooltipbg.setAttributeNS(null, "visibility", "visible");
  }
  tooltiptext.setAttributeNS(null,"visibility","visible");
}

function RectUnhover(evt, i, c) {
  rect = svgDocument.getElementById('rect' + i);
  if( c != null ) {
    rect.setAttributeNS(null, "fill", c)  
  }
  tooltiptext = svgDocument.getElementById('tooltiptext' + i);
  tooltiptext.setAttributeNS(null,"visibility","hidden");
  tooltipbg = svgDocument.getElementById('tooltipbg' + i);
  if( tooltipbg != null ) {
    tooltipbg.setAttributeNS(null,"visibility","hidden");
  }
}
]]></script>
      <line x1="50.0" y1="550.0" x2="550.0" y2="550.0" stroke="rgb(0,0,0)" stroke-width="1"/><line x1="50.0" y1="550.0" x2="50.0" y2="50.0" stroke="rgb(0,0,0)" stroke-width="1"/><line x1="50.0" y1="550.0" x2="50.0" y2="50.0" stroke="rgb(192,192,192)" stroke-width="1"/><line x1="50.0" y1="548.0" x2="50.0" y2="552.0" stroke="rgb(192,192,192)" stroke-width="1"/><text text-anchor="middle" alignment-baseline="hanging" x="50.0" y="553.0" font-size="12.0">0</text><line x1="313.1578947368421" y1="550.0" x2="313.1578947368421" y2="50.0" stroke="rgb(192,192,192)" stroke-width="1"/><line x1="313.1578947368421" y1="548.0" x2="313.1578947368421" y2="552.0" stroke="rgb(192,192,192)" stroke-width="1"/><text text-anchor="middle" alignment-baseline="hanging" x="313.1578947368421" y="553.0" font-size="12.0">10</text><line x1="50.0" y1="550.0" x2="550.0" y2="550.0" stroke="rgb(192,192,192)" stroke-width="1"/><text text-anchor="end" alignment-baseline="middle" x="45.0" y="550.0" font-size="12.0">0.0</text><line x1="48.0" y1="550.0" x2="52.0" y2="550.0" stroke="rgb(192,192,192)" stroke-width="1"/><line x1="50.0" y1="327.4382100555822" x2="550.0" y2="327.4382100555822" stroke="rgb(192,192,192)" stroke-width="1"/><text text-anchor="end" alignment-baseline="middle" x="45.0" y="327.4382100555822" font-size="12.0">0.1</text><line x1="48.0" y1="327.4382100555822" x2="52.0" y2="327.4382100555822" stroke="rgb(192,192,192)" stroke-width="1"/><line x1="50.0" y1="104.87642011116446" x2="550.0" y2="104.87642011116446" stroke="rgb(192,192,192)" stroke-width="1"/><text text-anchor="end" alignment-baseline="middle" x="45.0" y="104.87642011116446" font-size="12.0">0.2</text><line x1="48.0" y1="104.87642011116446" x2="52.0" y2="104.87642011116446" stroke="rgb(192,192,192)" stroke-width="1"/><polyline points="50.0,55.38618000046779 76.3157894736842,228.049470050389 102.63157894736841,299.6687133684683 128.94736842105263,424.30252779922006 155.26315789473682,492.1675289532228 181.57894736842104,505.51253434539217 207.89473684210526,509.13044366217935 234.21052631578945,506.2093599047332 260.52631578947364,506.2093599047332 286.8421052631579,506.2093599047332 313.1578947368421,506.2093599047332 339.4736842105263,506.2093599047332 365.7894736842105,506.2093599047332 392.10526315789474,506.2093599047332 418.4210526315789,506.2093599047332 444.7368421052632,506.2093599047332 471.05263157894734,506.2093599047332 497.36842105263156,506.2093599047332 523.6842105263158,506.2093599047332 550.0,506.2093599047332" fill="none" stroke="rgb(255,0,0)" stroke-width="1"/><circle cx="50.0" cy="55.38618000046779" r="2" fill="rgb(255,0,0)"/><circle cx="76.3157894736842" cy="228.049470050389" r="2" fill="rgb(255,0,0)"/><circle cx="102.63157894736841" cy="299.6687133684683" r="2" fill="rgb(255,0,0)"/><circle cx="128.94736842105263" cy="424.30252779922006" r="2" fill="rgb(255,0,0)"/><circle cx="155.26315789473682" cy="492.1675289532228" r="2" fill="rgb(255,0,0)"/><circle cx="181.57894736842104" cy="505.51253434539217" r="2" fill="rgb(255,0,0)"/><circle cx="207.89473684210526" cy="509.13044366217935" r="2" fill="rgb(255,0,0)"/><circle cx="234.21052631578945" cy="506.2093599047332" r="2" fill="rgb(255,0,0)"/><circle cx="260.52631578947364" cy="506.2093599047332" r="2" fill="rgb(255,0,0)"/><circle cx="286.8421052631579" cy="506.2093599047332" r="2" fill="rgb(255,0,0)"/><circle cx="313.1578947368421" cy="506.2093599047332" r="2" fill="rgb(255,0,0)"/><circle cx="339.4736842105263" cy="506.2093599047332" r="2" fill="rgb(255,0,0)"/><circle cx="365.7894736842105" cy="506.2093599047332" r="2" fill="rgb(255,0,0)"/><circle cx="392.10526315789474" cy="506.2093599047332" r="2" fill="rgb(255,0,0)"/><circle cx="418.4210526315789" cy="506.2093599047332" r="2" fill="rgb(255,0,0)"/><circle cx="444.7368421052632" cy="506.2093599047332" r="2" fill="rgb(255,0,0)"/><circle cx="471.05263157894734" cy="506.2093599047332" r="2" fill="rgb(255,0,0)"/><circle cx="497.36842105263156" cy="506.2093599047332" r="2" fill="rgb(255,0,0)"/><circle cx="523.6842105263158" cy="506.2093599047332" r="2" fill="rgb(255,0,0)"/><circle cx="550.0" cy="506.2093599047332" r="2" fill="rgb(255,0,0)"/><polyline points="50.0,140.84557398019 76.3157894736842,341.02322585435553 102.63157894736841,394.8185436779936 128.94736842105263,362.2749253799472 155.26315789473682,303.8791717960644 181.57894736842104,289.6247575940842 207.89473684210526,284.9325474440535 234.21052631578945,285.36119795570045 260.52631578947364,285.36119795570045 286.8421052631579,285.36119795570045 313.1578947368421,285.36119795570045 339.4736842105263,285.36119795570045 365.7894736842105,285.36119795570045 392.10526315789474,285.36119795570045 418.4210526315789,285.36119795570045 444.7368421052632,285.36119795570045 471.05263157894734,285.36119795570045 497.36842105263156,285.36119795570045 523.6842105263158,285.36119795570045 550.0,285.36119795570045" fill="none" stroke="rgb(0,0,255)" stroke-width="1"/><circle cx="50.0" cy="140.84557398019" r="2" fill="rgb(0,0,255)"/><circle cx="76.3157894736842" cy="341.02322585435553" r="2" fill="rgb(0,0,255)"/><circle cx="102.63157894736841" cy="394.8185436779936" r="2" fill="rgb(0,0,255)"/><circle cx="128.94736842105263" cy="362.2749253799472" r="2" fill="rgb(0,0,255)"/><circle cx="155.26315789473682" cy="303.8791717960644" r="2" fill="rgb(0,0,255)"/><circle cx="181.57894736842104" cy="289.6247575940842" r="2" fill="rgb(0,0,255)"/><circle cx="207.89473684210526" cy="284.9325474440535" r="2" fill="rgb(0,0,255)"/><circle cx="234.21052631578945" cy="285.36119795570045" r="2" fill="rgb(0,0,255)"/><circle cx="260.52631578947364" cy="285.36119795570045" r="2" fill="rgb(0,0,255)"/><circle cx="286.8421052631579" cy="285.36119795570045" r="2" fill="rgb(0,0,255)"/><circle cx="313.1578947368421" cy="285.36119795570045" r="2" fill="rgb(0,0,255)"/><circle cx="339.4736842105263" cy="285.36119795570045" r="2" fill="rgb(0,0,255)"/><circle cx="365.7894736842105" cy="285.36119795570045" r="2" fill="rgb(0,0,255)"/><circle cx="392.10526315789474" cy="285.36119795570045" r="2" fill="rgb(0,0,255)"/><circle cx="418.4210526315789" cy="285.36119795570045" r="2" fill="rgb(0,0,255)"/><circle cx="444.7368421052632" cy="285.36119795570045" r="2" fill="rgb(0,0,255)"/><circle cx="471.05263157894734" cy="285.36119795570045" r="2" fill="rgb(0,0,255)"/><circle cx="497.36842105263156" cy="285.36119795570045" r="2" fill="rgb(0,0,255)"/><circle cx="523.6842105263158" cy="285.36119795570045" r="2" fill="rgb(0,0,255)"/><circle cx="550.0" cy="285.36119795570045" r="2" fill="rgb(0,0,255)"/><polyline points="50.0,50.0 76.3157894736842,258.16823569316983 102.63157894736841,336.5712207241624 128.94736842105263,403.0793052873844 155.26315789473682,381.9423829389126 181.57894736842104,375.78983891473354 207.89473684210526,373.032795512849 234.21052631578945,376.1845836572859 260.52631578947364,376.1845836572859 286.8421052631579,376.1845836572859 313.1578947368421,376.1845836572859 339.4736842105263,376.1845836572859 365.7894736842105,376.1845836572859 392.10526315789474,376.1845836572859 418.4210526315789,376.1845836572859 444.7368421052632,376.1845836572859 471.05263157894734,376.1845836572859 497.36842105263156,376.1845836572859 523.6842105263158,376.1845836572859 550.0,376.1845836572859" fill="none" stroke="rgb(0,255,0)" stroke-width="1"/><circle cx="50.0" cy="50.0" r="2" fill="rgb(0,255,0)"/><circle cx="76.3157894736842" cy="258.16823569316983" r="2" fill="rgb(0,255,0)"/><circle cx="102.63157894736841" cy="336.5712207241624" r="2" fill="rgb(0,255,0)"/><circle cx="128.94736842105263" cy="403.0793052873844" r="2" fill="rgb(0,255,0)"/><circle cx="155.26315789473682" cy="381.9423829389126" r="2" fill="rgb(0,255,0)"/><circle cx="181.57894736842104" cy="375.78983891473354" r="2" fill="rgb(0,255,0)"/><circle cx="207.89473684210526" cy="373.032795512849" r="2" fill="rgb(0,255,0)"/><circle cx="234.21052631578945" cy="376.1845836572859" r="2" fill="rgb(0,255,0)"/><circle cx="260.52631578947364" cy="376.1845836572859" r="2" fill="rgb(0,255,0)"/><circle cx="286.8421052631579" cy="376.1845836572859" r="2" fill="rgb(0,255,0)"/><circle cx="313.1578947368421" cy="376.1845836572859" r="2" fill="rgb(0,255,0)"/><circle cx="339.4736842105263" cy="376.1845836572859" r="2" fill="rgb(0,255,0)"/><circle cx="365.7894736842105" cy="376.1845836572859" r="2" fill="rgb(0,255,0)"/><circle cx="392.10526315789474" cy="376.1845836572859" r="2" fill="rgb(0,255,0)"/><circle cx="418.4210526315789" cy="376.1845836572859" r="2" fill="rgb(0,255,0)"/><circle cx="444.7368421052632" cy="376.1845836572859" r="2" fill="rgb(0,255,0)"/><circle cx="471.05263157894734" cy="376.1845836572859" r="2" fill="rgb(0,255,0)"/><circle cx="497.36842105263156" cy="376.1845836572859" r="2" fill="rgb(0,255,0)"/><circle cx="523.6842105263158" cy="376.1845836572859" r="2" fill="rgb(0,255,0)"/><circle cx="550.0" cy="376.1845836572859" r="2" fill="rgb(0,255,0)"/><text x="350.0" y="20.0" text-anchor="middle" fill="rgb(0,0,0)" font-size="20.0">KMeans Mean Centroid Distances</text><text x="350.0" y="575.0" text-anchor="middle" fill="rgb(0,0,0)" font-size="12.0">step</text><text transform="rotate(-90.0 20.0 300.0)" x="20.0" y="300.0" text-anchor="middle" fill="rgb(0,0,0)" font-size="12.0">average distance to centroid</text><text x="620" y="62" fill="rgb(255,0,0)" font-size="12">0</text><text x="620" y="74" fill="rgb(0,0,255)" font-size="12">1</text><text x="620" y="86" fill="rgb(0,255,0)" font-size="12">2</text>
      Sorry, your browser does not support inline SVG.
    </svg>