<?xml version='1.0' encoding='UTF-8'?>
<svg version="1.1" width="700.0" height="600.0" onload="init(evt)" xmlns="http://www.w3.org/2000/svg">
      <style>.caption {
  font-size: 14px;
  font-family: Georgia, serif;
}
</style>
      <script type="text/ecmascript"><![CDATA[
function init(evt) {
  if ( window.svgDocument == null ) {
    svgDocument = evt.target.ownerDocument;
  }
}

function RectHover(evt, i, c) {
  rect = svgDocument.getElementById('rect' + i);
  if( c != null ) {
    rect.setAttributeNS(null, "fill", c)  
  }
  tooltiptext = svgDocument.getElementById('tooltiptext' + i);
  tooltipbg = svgDocument.getElementById('tooltipbg' + i);
  if( tooltipbg != null) {
    tbb = tooltiptext.getBBox();
    tooltipbg.setAttributeNS(null, "width", tbb.width);
    tooltipbg.setAttributeNS(null, "height", tbb.height);
    tooltipbg.setAttributeNS(null, "x", tbb.x);
    tooltipbg.setAttributeNS(null, "y", tbb.y);
    tooltipbg.setAttributeNS(null, "visibility", "visible");
  }
  tooltiptext.setAttributeNS(null,"visibility","visible");
}

function RectUnhover(evt, i, c) {
  rect = svgDocument.getElementById('rect' + i);
  if( c != null ) {
    rect.setAttributeNS(null, "fill", c)  
  }
  tooltiptext = svgDocument.getElementById('tooltiptext' + i);
  tooltiptext.setAttributeNS(null,"visibility","hidden");
  tooltipbg = svgDocument.getElementById('tooltipbg' + i);
  if( tooltipbg != null ) {
    tooltipbg.setAttributeNS(null,"visibility","hidden");
  }
}
]]></script>
      <line x1="50.0" y1="550.0" x2="550.0" y2="550.0" stroke="rgb(0,0,0)" stroke-width="1"/><line x1="50.0" y1="550.0" x2="50.0" y2="50.0" stroke="rgb(0,0,0)" stroke-width="1"/><line x1="50.0" y1="550.0" x2="50.0" y2="50.0" stroke="rgb(192,192,192)" stroke-width="1"/><line x1="50.0" y1="548.0" x2="50.0" y2="552.0" stroke="rgb(192,192,192)" stroke-width="1"/><text text-anchor="middle" alignment-baseline="hanging" x="50.0" y="553.0" font-size="12.0">0</text><line x1="313.1578947368421" y1="550.0" x2="313.1578947368421" y2="50.0" stroke="rgb(192,192,192)" stroke-width="1"/><line x1="313.1578947368421" y1="548.0" x2="313.1578947368421" y2="552.0" stroke="rgb(192,192,192)" stroke-width="1"/><text text-anchor="middle" alignment-baseline="hanging" x="313.1578947368421" y="553.0" font-size="12.0">10</text><line x1="50.0" y1="550.0" x2="550.0" y2="550.0" stroke="rgb(192,192,192)" stroke-width="1"/><text text-anchor="end" alignment-baseline="middle" x="45.0" y="550.0" font-size="12.0">0.00</text><line x1="48.0" y1="550.0" x2="52.0" y2="550.0" stroke="rgb(192,192,192)" stroke-width="1"/><line x1="50.0" y1="510.4933667429838" x2="550.0" y2="510.4933667429838" stroke="rgb(192,192,192)" stroke-width="1"/><text text-anchor="end" alignment-baseline="middle" x="45.0" y="510.4933667429838" font-size="12.0">0.01</text><line x1="48.0" y1="510.4933667429838" x2="52.0" y2="510.4933667429838" stroke="rgb(192,192,192)" stroke-width="1"/><line x1="50.0" y1="470.98673348596765" x2="550.0" y2="470.98673348596765" stroke="rgb(192,192,192)" stroke-width="1"/><text text-anchor="end" alignment-baseline="middle" x="45.0" y="470.98673348596765" font-size="12.0">0.02</text><line x1="48.0" y1="470.98673348596765" x2="52.0" y2="470.98673348596765" stroke="rgb(192,192,192)" stroke-width="1"/><line x1="50.0" y1="431.48010022895147" x2="550.0" y2="431.48010022895147" stroke="rgb(192,192,192)" stroke-width="1"/><text text-anchor="end" alignment-baseline="middle" x="45.0" y="431.48010022895147" font-size="12.0">0.03</text><line x1="48.0" y1="431.48010022895147" x2="52.0" y2="431.48010022895147" stroke="rgb(192,192,192)" stroke-width="1"/><line x1="50.0" y1="391.9734669719353" x2="550.0" y2="391.9734669719353" stroke="rgb(192,192,192)" stroke-width="1"/><text text-anchor="end" alignment-baseline="middle" x="45.0" y="391.9734669719353" font-size="12.0">0.04</text><line x1="48.0" y1="391.9734669719353" x2="52.0" y2="391.9734669719353" stroke="rgb(192,192,192)" stroke-width="1"/><line x1="50.0" y1="352.46683371491906" x2="550.0" y2="352.46683371491906" stroke="rgb(192,192,192)" stroke-width="1"/><text text-anchor="end" alignment-baseline="middle" x="45.0" y="352.46683371491906" font-size="12.0">0.05</text><line x1="48.0" y1="352.46683371491906" x2="52.0" y2="352.46683371491906" stroke="rgb(192,192,192)" stroke-width="1"/><line x1="50.0" y1="312.96020045790294" x2="550.0" y2="312.96020045790294" stroke="rgb(192,192,192)" stroke-width="1"/><text text-anchor="end" alignment-baseline="middle" x="45.0" y="312.96020045790294" font-size="12.0">0.06</text><line x1="48.0" y1="312.96020045790294" x2="52.0" y2="312.96020045790294" stroke="rgb(192,192,192)" stroke-width="1"/><line x1="50.0" y1="273.4535672008867" x2="550.0" y2="273.4535672008867" stroke="rgb(192,192,192)" stroke-width="1"/><text text-anchor="end" alignment-baseline="middle" x="45.0" y="273.4535672008867" font-size="12.0">0.07</text><line x1="48.0" y1="273.4535672008867" x2="52.0" y2="273.4535672008867" stroke="rgb(192,192,192)" stroke-width="1"/><line x1="50.0" y1="233.9469339438706" x2="550.0" y2="233.9469339438706" stroke="rgb(192,192,192)" stroke-width="1"/><text text-anchor="end" alignment-baseline="middle" x="45.0" y="233.9469339438706" font-size="12.0">0.08</text><line x1="48.0" y1="233.9469339438706" x2="52.0" y2="233.9469339438706" stroke="rgb(192,192,192)" stroke-width="1"/><line x1="50.0" y1="194.44030068685436" x2="550.0" y2="194.44030068685436" stroke="rgb(192,192,192)" stroke-width="1"/><text text-anchor="end" alignment-baseline="middle" x="45.0" y="194.44030068685436" font-size="12.0">0.09</text><line x1="48.0" y1="194.44030068685436" x2="52.0" y2="194.44030068685436" stroke="rgb(192,192,192)" stroke-width="1"/><line x1="50.0" y1="154.93366742983818" x2="550.0" y2="154.93366742983818" stroke="rgb(192,192,192)" stroke-width="1"/><text text-anchor="end" alignment-baseline="middle" x="45.0" y="154.93366742983818" font-size="12.0">0.10</text><line x1="48.0" y1="154.93366742983818" x2="52.0" y2="154.93366742983818" stroke="rgb(192,192,192)" stroke-width="1"/><line x1="50.0" y1="115.427034172822" x2="550.0" y2="115.427034172822" stroke="rgb(192,192,192)" stroke-width="1"/><text text-anchor="end" alignment-baseline="middle" x="45.0" y="115.427034172822" font-size="12.0">0.11</text><line x1="48.0" y1="115.427034172822" x2="52.0" y2="115.427034172822" stroke="rgb(192,192,192)" stroke-width="1"/><line x1="50.0" y1="75.92040091580583" x2="550.0" y2="75.92040091580583" stroke="rgb(192,192,192)" stroke-width="1"/><text text-anchor="end" alignment-baseline="middle" x="45.0" y="75.92040091580583" font-size="12.0">0.12</text><line x1="48.0" y1="75.92040091580583" x2="52.0" y2="75.92040091580583" stroke="rgb(192,192,192)" stroke-width="1"/><polyline points="50.0,50.0 76.3157894736842,174.339701395473 102.63157894736841,302.0330166291419 128.94736842105263,335.81874776141865 155.26315789473682,363.65716583519463 181.57894736842104,359.8248362062032 207.89473684210526,352.8118952739793 234.21052631578945,341.8567314641788 260.52631578947364,341.8567314641788 286.8421052631579,341.8567314641788 313.1578947368421,341.8567314641788 339.4736842105263,341.8567314641788 365.7894736842105,341.8567314641788 392.10526315789474,341.8567314641788 418.4210526315789,341.8567314641788 444.7368421052632,341.8567314641788 471.05263157894734,341.8567314641788 497.36842105263156,341.8567314641788 523.6842105263158,341.8567314641788 550.0,341.8567314641788" fill="none" stroke="rgb(255,0,0)" stroke-width="1"/><circle cx="50.0" cy="50.0" r="2" fill="rgb(255,0,0)"/><circle cx="76.3157894736842" cy="174.339701395473" r="2" fill="rgb(255,0,0)"/><circle cx="102.63157894736841" cy="302.0330166291419" r="2" fill="rgb(255,0,0)"/><circle cx="128.94736842105263" cy="335.81874776141865" r="2" fill="rgb(255,0,0)"/><circle cx="155.26315789473682" cy="363.65716583519463" r="2" fill="rgb(255,0,0)"/><circle cx="181.57894736842104" cy="359.8248362062032" r="2" fill="rgb(255,0,0)"/><circle cx="207.89473684210526" cy="352.8118952739793" r="2" fill="rgb(255,0,0)"/><circle cx="234.21052631578945" cy="341.8567314641788" r="2" fill="rgb(255,0,0)"/><circle cx="260.52631578947364" cy="341.8567314641788" r="2" fill="rgb(255,0,0)"/><circle cx="286.8421052631579" cy="341.8567314641788" r="2" fill="rgb(255,0,0)"/><circle cx="313.1578947368421" cy="341.8567314641788" r="2" fill="rgb(255,0,0)"/><circle cx="339.4736842105263" cy="341.8567314641788" r="2" fill="rgb(255,0,0)"/><circle cx="365.7894736842105" cy="341.8567314641788" r="2" fill="rgb(255,0,0)"/><circle cx="392.10526315789474" cy="341.8567314641788" r="2" fill="rgb(255,0,0)"/><circle cx="418.4210526315789" cy="341.8567314641788" r="2" fill="rgb(255,0,0)"/><circle cx="444.7368421052632" cy="341.8567314641788" r="2" fill="rgb(255,0,0)"/><circle cx="471.05263157894734" cy="341.8567314641788" r="2" fill="rgb(255,0,0)"/><circle cx="497.36842105263156" cy="341.8567314641788" r="2" fill="rgb(255,0,0)"/><circle cx="523.6842105263158" cy="341.8567314641788" r="2" fill="rgb(255,0,0)"/><circle cx="550.0" cy="341.8567314641788" r="2" fill="rgb(255,0,0)"/><polyline points="50.0,202.21276089539145 76.3157894736842,376.19415742782917 102.63157894736841,258.0159446976928 128.94736842105263,224.89859928823688 155.26315789473682,192.7521623670146 181.57894736842104,195.44971905695104 207.89473684210526,198.1827099431017 234.21052631578945,207.75174054203978 260.52631578947364,207.75174054203978 286.8421052631579,207.75174054203978 313.1578947368421,207.75174054203978 339.4736842105263,207.75174054203978 365.7894736842105,207.75174054203978 392.10526315789474,207.75174054203978 418.4210526315789,207.75174054203978 444.7368421052632,207.75174054203978 471.05263157894734,207.75174054203978 497.36842105263156,207.75174054203978 523.6842105263158,207.75174054203978 550.0,207.75174054203978" fill="none" stroke="rgb(0,0,255)" stroke-width="1"/><circle cx="50.0" cy="202.21276089539145" r="2" fill="rgb(0,0,255)"/><circle cx="76.3157894736842" cy="376.19415742782917" r="2" fill="rgb(0,0,255)"/><circle cx="102.63157894736841" cy="258.0159446976928" r="2" fill="rgb(0,0,255)"/><circle cx="128.94736842105263" cy="224.89859928823688" r="2" fill="rgb(0,0,255)"/><circle cx="155.26315789473682" cy="192.7521623670146" r="2" fill="rgb(0,0,255)"/><circle cx="181.57894736842104" cy="195.44971905695104" r="2" fill="rgb(0,0,255)"/><circle cx="207.89473684210526" cy="198.1827099431017" r="2" fill="rgb(0,0,255)"/><circle cx="234.21052631578945" cy="207.75174054203978" r="2" fill="rgb(0,0,255)"/><circle cx="260.52631578947364" cy="207.75174054203978" r="2" fill="rgb(0,0,255)"/><circle cx="286.8421052631579" cy="207.75174054203978" r="2" fill="rgb(0,0,255)"/><circle cx="313.1578947368421" cy="207.75174054203978" r="2" fill="rgb(0,0,255)"/><circle cx="339.4736842105263" cy="207.75174054203978" r="2" fill="rgb(0,0,255)"/><circle cx="365.7894736842105" cy="207.75174054203978" r="2" fill="rgb(0,0,255)"/><circle cx="392.10526315789474" cy="207.75174054203978" r="2" fill="rgb(0,0,255)"/><circle cx="418.4210526315789" cy="207.75174054203978" r="2" fill="rgb(0,0,255)"/><circle cx="444.7368421052632" cy="207.75174054203978" r="2" fill="rgb(0,0,255)"/><circle cx="471.05263157894734" cy="207.75174054203978" r="2" fill="rgb(0,0,255)"/><circle cx="497.36842105263156" cy="207.75174054203978" r="2" fill="rgb(0,0,255)"/><circle cx="523.6842105263158" cy="207.75174054203978" r="2" fill="rgb(0,0,255)"/><circle cx="550.0" cy="207.75174054203978" r="2" fill="rgb(0,0,255)"/><polyline points="50.0,384.1757205077616 76.3157894736842,348.91697288361814 102.63157894736841,352.9215366817346 128.94736842105263,344.5790400246376 155.26315789473682,341.0052489224273 181.57894736842104,345.94241776142917 207.89473684210526,356.4717596669931 234.21052631578945,367.30322929727953 260.52631578947364,367.30322929727953 286.8421052631579,367.30322929727953 313.1578947368421,367.30322929727953 339.4736842105263,367.30322929727953 365.7894736842105,367.30322929727953 392.10526315789474,367.30322929727953 418.4210526315789,367.30322929727953 444.7368421052632,367.30322929727953 471.05263157894734,367.30322929727953 497.36842105263156,367.30322929727953 523.6842105263158,367.30322929727953 550.0,367.30322929727953" fill="none" stroke="rgb(0,255,0)" stroke-width="1"/><circle cx="50.0" cy="384.1757205077616" r="2" fill="rgb(0,255,0)"/><circle cx="76.3157894736842" cy="348.91697288361814" r="2" fill="rgb(0,255,0)"/><circle cx="102.63157894736841" cy="352.9215366817346" r="2" fill="rgb(0,255,0)"/><circle cx="128.94736842105263" cy="344.5790400246376" r="2" fill="rgb(0,255,0)"/><circle cx="155.26315789473682" cy="341.0052489224273" r="2" fill="rgb(0,255,0)"/><circle cx="181.57894736842104" cy="345.94241776142917" r="2" fill="rgb(0,255,0)"/><circle cx="207.89473684210526" cy="356.4717596669931" r="2" fill="rgb(0,255,0)"/><circle cx="234.21052631578945" cy="367.30322929727953" r="2" fill="rgb(0,255,0)"/><circle cx="260.52631578947364" cy="367.30322929727953" r="2" fill="rgb(0,255,0)"/><circle cx="286.8421052631579" cy="367.30322929727953" r="2" fill="rgb(0,255,0)"/><circle cx="313.1578947368421" cy="367.30322929727953" r="2" fill="rgb(0,255,0)"/><circle cx="339.4736842105263" cy="367.30322929727953" r="2" fill="rgb(0,255,0)"/><circle cx="365.7894736842105" cy="367.30322929727953" r="2" fill="rgb(0,255,0)"/><circle cx="392.10526315789474" cy="367.30322929727953" r="2" fill="rgb(0,255,0)"/><circle cx="418.4210526315789" cy="367.30322929727953" r="2" fill="rgb(0,255,0)"/><circle cx="444.7368421052632" cy="367.30322929727953" r="2" fill="rgb(0,255,0)"/><circle cx="471.05263157894734" cy="367.30322929727953" r="2" fill="rgb(0,255,0)"/><circle cx="497.36842105263156" cy="367.30322929727953" r="2" fill="rgb(0,255,0)"/><circle cx="523.6842105263158" cy="367.30322929727953" r="2" fill="rgb(0,255,0)"/><circle cx="550.0" cy="367.30322929727953" r="2" fill="rgb(0,255,0)"/><text x="350.0" y="20.0" text-anchor="middle" fill="rgb(0,0,0)" font-size="20.0">KMeans Mean Centroid Distances</text><text x="350.0" y="575.0" text-anchor="middle" fill="rgb(0,0,0)" font-size="12.0">step</text><text transform="rotate(-90.0 20.0 300.0)" x="20.0" y="300.0" text-anchor="middle" fill="rgb(0,0,0)" font-size="12.0">average distance to centroid</text><text x="620" y="62" fill="rgb(255,0,0)" font-size="12">0</text><text x="620" y="74" fill="rgb(0,0,255)" font-size="12">1</text><text x="620" y="86" fill="rgb(0,255,0)" font-size="12">2</text>
      Sorry, your browser does not support inline SVG.
    </svg>