<?xml version='1.0' encoding='UTF-8'?>
<svg version="1.1" width="700.0" height="600.0" onload="init(evt)" xmlns="http://www.w3.org/2000/svg">
      <style>.caption {
  font-size: 14px;
  font-family: Georgia, serif;
}
</style>
      <script type="text/ecmascript"><![CDATA[
function init(evt) {
  if ( window.svgDocument == null ) {
    svgDocument = evt.target.ownerDocument;
  }
}

function RectHover(evt, i, c) {
  rect = svgDocument.getElementById('rect' + i);
  if( c != null ) {
    rect.setAttributeNS(null, "fill", c)  
  }
  tooltiptext = svgDocument.getElementById('tooltiptext' + i);
  tooltipbg = svgDocument.getElementById('tooltipbg' + i);
  if( tooltipbg != null) {
    tbb = tooltiptext.getBBox();
    tooltipbg.setAttributeNS(null, "width", tbb.width);
    tooltipbg.setAttributeNS(null, "height", tbb.height);
    tooltipbg.setAttributeNS(null, "x", tbb.x);
    tooltipbg.setAttributeNS(null, "y", tbb.y);
    tooltipbg.setAttributeNS(null, "visibility", "visible");
  }
  tooltiptext.setAttributeNS(null,"visibility","visible");
}

function RectUnhover(evt, i, c) {
  rect = svgDocument.getElementById('rect' + i);
  if( c != null ) {
    rect.setAttributeNS(null, "fill", c)  
  }
  tooltiptext = svgDocument.getElementById('tooltiptext' + i);
  tooltiptext.setAttributeNS(null,"visibility","hidden");
  tooltipbg = svgDocument.getElementById('tooltipbg' + i);
  if( tooltipbg != null ) {
    tooltipbg.setAttributeNS(null,"visibility","hidden");
  }
}
]]></script>
      <line x1="50.0" y1="550.0" x2="550.0" y2="550.0" stroke="rgb(0,0,0)" stroke-width="1"/><line x1="50.0" y1="550.0" x2="50.0" y2="50.0" stroke="rgb(0,0,0)" stroke-width="1"/><line x1="50.0" y1="550.0" x2="50.0" y2="50.0" stroke="rgb(192,192,192)" stroke-width="1"/><line x1="50.0" y1="548.0" x2="50.0" y2="552.0" stroke="rgb(192,192,192)" stroke-width="1"/><text text-anchor="middle" alignment-baseline="hanging" x="50.0" y="553.0" font-size="12.0">0</text><line x1="313.1578947368421" y1="550.0" x2="313.1578947368421" y2="50.0" stroke="rgb(192,192,192)" stroke-width="1"/><line x1="313.1578947368421" y1="548.0" x2="313.1578947368421" y2="552.0" stroke="rgb(192,192,192)" stroke-width="1"/><text text-anchor="middle" alignment-baseline="hanging" x="313.1578947368421" y="553.0" font-size="12.0">10</text><line x1="50.0" y1="550.0" x2="550.0" y2="550.0" stroke="rgb(192,192,192)" stroke-width="1"/><text text-anchor="end" alignment-baseline="middle" x="45.0" y="550.0" font-size="12.0">0.00</text><line x1="48.0" y1="550.0" x2="52.0" y2="550.0" stroke="rgb(192,192,192)" stroke-width="1"/><line x1="50.0" y1="519.8293952865015" x2="550.0" y2="519.8293952865015" stroke="rgb(192,192,192)" stroke-width="1"/><text text-anchor="end" alignment-baseline="middle" x="45.0" y="519.8293952865015" font-size="12.0">0.01</text><line x1="48.0" y1="519.8293952865015" x2="52.0" y2="519.8293952865015" stroke="rgb(192,192,192)" stroke-width="1"/><line x1="50.0" y1="489.6587905730029" x2="550.0" y2="489.6587905730029" stroke="rgb(192,192,192)" stroke-width="1"/><text text-anchor="end" alignment-baseline="middle" x="45.0" y="489.6587905730029" font-size="12.0">0.02</text><line x1="48.0" y1="489.6587905730029" x2="52.0" y2="489.6587905730029" stroke="rgb(192,192,192)" stroke-width="1"/><line x1="50.0" y1="459.48818585950437" x2="550.0" y2="459.48818585950437" stroke="rgb(192,192,192)" stroke-width="1"/><text text-anchor="end" alignment-baseline="middle" x="45.0" y="459.48818585950437" font-size="12.0">0.03</text><line x1="48.0" y1="459.48818585950437" x2="52.0" y2="459.48818585950437" stroke="rgb(192,192,192)" stroke-width="1"/><line x1="50.0" y1="429.3175811460058" x2="550.0" y2="429.3175811460058" stroke="rgb(192,192,192)" stroke-width="1"/><text text-anchor="end" alignment-baseline="middle" x="45.0" y="429.3175811460058" font-size="12.0">0.04</text><line x1="48.0" y1="429.3175811460058" x2="52.0" y2="429.3175811460058" stroke="rgb(192,192,192)" stroke-width="1"/><line x1="50.0" y1="399.14697643250724" x2="550.0" y2="399.14697643250724" stroke="rgb(192,192,192)" stroke-width="1"/><text text-anchor="end" alignment-baseline="middle" x="45.0" y="399.14697643250724" font-size="12.0">0.05</text><line x1="48.0" y1="399.14697643250724" x2="52.0" y2="399.14697643250724" stroke="rgb(192,192,192)" stroke-width="1"/><line x1="50.0" y1="368.9763717190087" x2="550.0" y2="368.9763717190087" stroke="rgb(192,192,192)" stroke-width="1"/><text text-anchor="end" alignment-baseline="middle" x="45.0" y="368.9763717190087" font-size="12.0">0.06</text><line x1="48.0" y1="368.9763717190087" x2="52.0" y2="368.9763717190087" stroke="rgb(192,192,192)" stroke-width="1"/><line x1="50.0" y1="338.8057670055101" x2="550.0" y2="338.8057670055101" stroke="rgb(192,192,192)" stroke-width="1"/><text text-anchor="end" alignment-baseline="middle" x="45.0" y="338.8057670055101" font-size="12.0">0.07</text><line x1="48.0" y1="338.8057670055101" x2="52.0" y2="338.8057670055101" stroke="rgb(192,192,192)" stroke-width="1"/><line x1="50.0" y1="308.6351622920116" x2="550.0" y2="308.6351622920116" stroke="rgb(192,192,192)" stroke-width="1"/><text text-anchor="end" alignment-baseline="middle" x="45.0" y="308.6351622920116" font-size="12.0">0.08</text><line x1="48.0" y1="308.6351622920116" x2="52.0" y2="308.6351622920116" stroke="rgb(192,192,192)" stroke-width="1"/><line x1="50.0" y1="278.46455757851305" x2="550.0" y2="278.46455757851305" stroke="rgb(192,192,192)" stroke-width="1"/><text text-anchor="end" alignment-baseline="middle" x="45.0" y="278.46455757851305" font-size="12.0">0.09</text><line x1="48.0" y1="278.46455757851305" x2="52.0" y2="278.46455757851305" stroke="rgb(192,192,192)" stroke-width="1"/><line x1="50.0" y1="248.29395286501443" x2="550.0" y2="248.29395286501443" stroke="rgb(192,192,192)" stroke-width="1"/><text text-anchor="end" alignment-baseline="middle" x="45.0" y="248.29395286501443" font-size="12.0">0.10</text><line x1="48.0" y1="248.29395286501443" x2="52.0" y2="248.29395286501443" stroke="rgb(192,192,192)" stroke-width="1"/><line x1="50.0" y1="218.12334815151593" x2="550.0" y2="218.12334815151593" stroke="rgb(192,192,192)" stroke-width="1"/><text text-anchor="end" alignment-baseline="middle" x="45.0" y="218.12334815151593" font-size="12.0">0.11</text><line x1="48.0" y1="218.12334815151593" x2="52.0" y2="218.12334815151593" stroke="rgb(192,192,192)" stroke-width="1"/><line x1="50.0" y1="187.95274343801736" x2="550.0" y2="187.95274343801736" stroke="rgb(192,192,192)" stroke-width="1"/><text text-anchor="end" alignment-baseline="middle" x="45.0" y="187.95274343801736" font-size="12.0">0.12</text><line x1="48.0" y1="187.95274343801736" x2="52.0" y2="187.95274343801736" stroke="rgb(192,192,192)" stroke-width="1"/><line x1="50.0" y1="157.7821387245188" x2="550.0" y2="157.7821387245188" stroke="rgb(192,192,192)" stroke-width="1"/><text text-anchor="end" alignment-baseline="middle" x="45.0" y="157.7821387245188" font-size="12.0">0.13</text><line x1="48.0" y1="157.7821387245188" x2="52.0" y2="157.7821387245188" stroke="rgb(192,192,192)" stroke-width="1"/><line x1="50.0" y1="127.61153401102024" x2="550.0" y2="127.61153401102024" stroke="rgb(192,192,192)" stroke-width="1"/><text text-anchor="end" alignment-baseline="middle" x="45.0" y="127.61153401102024" font-size="12.0">0.14</text><line x1="48.0" y1="127.61153401102024" x2="52.0" y2="127.61153401102024" stroke="rgb(192,192,192)" stroke-width="1"/><line x1="50.0" y1="97.44092929752173" x2="550.0" y2="97.44092929752173" stroke="rgb(192,192,192)" stroke-width="1"/><text text-anchor="end" alignment-baseline="middle" x="45.0" y="97.44092929752173" font-size="12.0">0.15</text><line x1="48.0" y1="97.44092929752173" x2="52.0" y2="97.44092929752173" stroke="rgb(192,192,192)" stroke-width="1"/><line x1="50.0" y1="67.27032458402317" x2="550.0" y2="67.27032458402317" stroke="rgb(192,192,192)" stroke-width="1"/><text text-anchor="end" alignment-baseline="middle" x="45.0" y="67.27032458402317" font-size="12.0">0.16</text><line x1="48.0" y1="67.27032458402317" x2="52.0" y2="67.27032458402317" stroke="rgb(192,192,192)" stroke-width="1"/><polyline points="50.0,324.065704621974 76.3157894736842,490.637155515539 102.63157894736841,490.637155515539 128.94736842105263,490.637155515539 155.26315789473682,490.637155515539 181.57894736842104,490.637155515539 207.89473684210526,490.637155515539 234.21052631578945,490.637155515539 260.52631578947364,490.637155515539 286.8421052631579,490.637155515539 313.1578947368421,490.637155515539 339.4736842105263,490.637155515539 365.7894736842105,490.637155515539 392.10526315789474,490.637155515539 418.4210526315789,490.637155515539 444.7368421052632,490.637155515539 471.05263157894734,490.637155515539 497.36842105263156,490.637155515539 523.6842105263158,490.637155515539 550.0,490.637155515539" fill="none" stroke="rgb(255,0,0)" stroke-width="1"/><circle cx="50.0" cy="324.065704621974" r="2" fill="rgb(255,0,0)"/><circle cx="76.3157894736842" cy="490.637155515539" r="2" fill="rgb(255,0,0)"/><circle cx="102.63157894736841" cy="490.637155515539" r="2" fill="rgb(255,0,0)"/><circle cx="128.94736842105263" cy="490.637155515539" r="2" fill="rgb(255,0,0)"/><circle cx="155.26315789473682" cy="490.637155515539" r="2" fill="rgb(255,0,0)"/><circle cx="181.57894736842104" cy="490.637155515539" r="2" fill="rgb(255,0,0)"/><circle cx="207.89473684210526" cy="490.637155515539" r="2" fill="rgb(255,0,0)"/><circle cx="234.21052631578945" cy="490.637155515539" r="2" fill="rgb(255,0,0)"/><circle cx="260.52631578947364" cy="490.637155515539" r="2" fill="rgb(255,0,0)"/><circle cx="286.8421052631579" cy="490.637155515539" r="2" fill="rgb(255,0,0)"/><circle cx="313.1578947368421" cy="490.637155515539" r="2" fill="rgb(255,0,0)"/><circle cx="339.4736842105263" cy="490.637155515539" r="2" fill="rgb(255,0,0)"/><circle cx="365.7894736842105" cy="490.637155515539" r="2" fill="rgb(255,0,0)"/><circle cx="392.10526315789474" cy="490.637155515539" r="2" fill="rgb(255,0,0)"/><circle cx="418.4210526315789" cy="490.637155515539" r="2" fill="rgb(255,0,0)"/><circle cx="444.7368421052632" cy="490.637155515539" r="2" fill="rgb(255,0,0)"/><circle cx="471.05263157894734" cy="490.637155515539" r="2" fill="rgb(255,0,0)"/><circle cx="497.36842105263156" cy="490.637155515539" r="2" fill="rgb(255,0,0)"/><circle cx="523.6842105263158" cy="490.637155515539" r="2" fill="rgb(255,0,0)"/><circle cx="550.0" cy="490.637155515539" r="2" fill="rgb(255,0,0)"/><polyline points="50.0,50.0 76.3157894736842,191.25411238261762 102.63157894736841,191.25411238261762 128.94736842105263,191.25411238261762 155.26315789473682,191.25411238261762 181.57894736842104,191.25411238261762 207.89473684210526,191.25411238261762 234.21052631578945,191.25411238261762 260.52631578947364,191.25411238261762 286.8421052631579,191.25411238261762 313.1578947368421,191.25411238261762 339.4736842105263,191.25411238261762 365.7894736842105,191.25411238261762 392.10526315789474,191.25411238261762 418.4210526315789,191.25411238261762 444.7368421052632,191.25411238261762 471.05263157894734,191.25411238261762 497.36842105263156,191.25411238261762 523.6842105263158,191.25411238261762 550.0,191.25411238261762" fill="none" stroke="rgb(0,0,255)" stroke-width="1"/><circle cx="50.0" cy="50.0" r="2" fill="rgb(0,0,255)"/><circle cx="76.3157894736842" cy="191.25411238261762" r="2" fill="rgb(0,0,255)"/><circle cx="102.63157894736841" cy="191.25411238261762" r="2" fill="rgb(0,0,255)"/><circle cx="128.94736842105263" cy="191.25411238261762" r="2" fill="rgb(0,0,255)"/><circle cx="155.26315789473682" cy="191.25411238261762" r="2" fill="rgb(0,0,255)"/><circle cx="181.57894736842104" cy="191.25411238261762" r="2" fill="rgb(0,0,255)"/><circle cx="207.89473684210526" cy="191.25411238261762" r="2" fill="rgb(0,0,255)"/><circle cx="234.21052631578945" cy="191.25411238261762" r="2" fill="rgb(0,0,255)"/><circle cx="260.52631578947364" cy="191.25411238261762" r="2" fill="rgb(0,0,255)"/><circle cx="286.8421052631579" cy="191.25411238261762" r="2" fill="rgb(0,0,255)"/><circle cx="313.1578947368421" cy="191.25411238261762" r="2" fill="rgb(0,0,255)"/><circle cx="339.4736842105263" cy="191.25411238261762" r="2" fill="rgb(0,0,255)"/><circle cx="365.7894736842105" cy="191.25411238261762" r="2" fill="rgb(0,0,255)"/><circle cx="392.10526315789474" cy="191.25411238261762" r="2" fill="rgb(0,0,255)"/><circle cx="418.4210526315789" cy="191.25411238261762" r="2" fill="rgb(0,0,255)"/><circle cx="444.7368421052632" cy="191.25411238261762" r="2" fill="rgb(0,0,255)"/><circle cx="471.05263157894734" cy="191.25411238261762" r="2" fill="rgb(0,0,255)"/><circle cx="497.36842105263156" cy="191.25411238261762" r="2" fill="rgb(0,0,255)"/><circle cx="523.6842105263158" cy="191.25411238261762" r="2" fill="rgb(0,0,255)"/><circle cx="550.0" cy="191.25411238261762" r="2" fill="rgb(0,0,255)"/><polyline points="50.0,224.78402415715868 76.3157894736842,314.3748182966241 102.63157894736841,314.3748182966241 128.94736842105263,314.3748182966241 155.26315789473682,314.3748182966241 181.57894736842104,314.3748182966241 207.89473684210526,314.3748182966241 234.21052631578945,314.3748182966241 260.52631578947364,314.3748182966241 286.8421052631579,314.3748182966241 313.1578947368421,314.3748182966241 339.4736842105263,314.3748182966241 365.7894736842105,314.3748182966241 392.10526315789474,314.3748182966241 418.4210526315789,314.3748182966241 444.7368421052632,314.3748182966241 471.05263157894734,314.3748182966241 497.36842105263156,314.3748182966241 523.6842105263158,314.3748182966241 550.0,314.3748182966241" fill="none" stroke="rgb(0,255,0)" stroke-width="1"/><circle cx="50.0" cy="224.78402415715868" r="2" fill="rgb(0,255,0)"/><circle cx="76.3157894736842" cy="314.3748182966241" r="2" fill="rgb(0,255,0)"/><circle cx="102.63157894736841" cy="314.3748182966241" r="2" fill="rgb(0,255,0)"/><circle cx="128.94736842105263" cy="314.3748182966241" r="2" fill="rgb(0,255,0)"/><circle cx="155.26315789473682" cy="314.3748182966241" r="2" fill="rgb(0,255,0)"/><circle cx="181.57894736842104" cy="314.3748182966241" r="2" fill="rgb(0,255,0)"/><circle cx="207.89473684210526" cy="314.3748182966241" r="2" fill="rgb(0,255,0)"/><circle cx="234.21052631578945" cy="314.3748182966241" r="2" fill="rgb(0,255,0)"/><circle cx="260.52631578947364" cy="314.3748182966241" r="2" fill="rgb(0,255,0)"/><circle cx="286.8421052631579" cy="314.3748182966241" r="2" fill="rgb(0,255,0)"/><circle cx="313.1578947368421" cy="314.3748182966241" r="2" fill="rgb(0,255,0)"/><circle cx="339.4736842105263" cy="314.3748182966241" r="2" fill="rgb(0,255,0)"/><circle cx="365.7894736842105" cy="314.3748182966241" r="2" fill="rgb(0,255,0)"/><circle cx="392.10526315789474" cy="314.3748182966241" r="2" fill="rgb(0,255,0)"/><circle cx="418.4210526315789" cy="314.3748182966241" r="2" fill="rgb(0,255,0)"/><circle cx="444.7368421052632" cy="314.3748182966241" r="2" fill="rgb(0,255,0)"/><circle cx="471.05263157894734" cy="314.3748182966241" r="2" fill="rgb(0,255,0)"/><circle cx="497.36842105263156" cy="314.3748182966241" r="2" fill="rgb(0,255,0)"/><circle cx="523.6842105263158" cy="314.3748182966241" r="2" fill="rgb(0,255,0)"/><circle cx="550.0" cy="314.3748182966241" r="2" fill="rgb(0,255,0)"/><text x="350.0" y="20.0" text-anchor="middle" fill="rgb(0,0,0)" font-size="20.0">KMeans Mean Centroid Distances</text><text x="350.0" y="575.0" text-anchor="middle" fill="rgb(0,0,0)" font-size="12.0">step</text><text transform="rotate(-90.0 20.0 300.0)" x="20.0" y="300.0" text-anchor="middle" fill="rgb(0,0,0)" font-size="12.0">average distance to centroid</text><text x="620" y="62" fill="rgb(255,0,0)" font-size="12">0</text><text x="620" y="74" fill="rgb(0,0,255)" font-size="12">1</text><text x="620" y="86" fill="rgb(0,255,0)" font-size="12">2</text>
      Sorry, your browser does not support inline SVG.
    </svg>