<?xml version='1.0' encoding='UTF-8'?>
<svg version="1.1" width="700.0" height="600.0" onload="init(evt)" xmlns="http://www.w3.org/2000/svg">
      <style>.caption {
  font-size: 14px;
  font-family: Georgia, serif;
}
</style>
      <script type="text/ecmascript"><![CDATA[
function init(evt) {
  if ( window.svgDocument == null ) {
    svgDocument = evt.target.ownerDocument;
  }
}

function RectHover(evt, i, c) {
  rect = svgDocument.getElementById('rect' + i);
  if( c != null ) {
    rect.setAttributeNS(null, "fill", c)  
  }
  tooltiptext = svgDocument.getElementById('tooltiptext' + i);
  tooltipbg = svgDocument.getElementById('tooltipbg' + i);
  if( tooltipbg != null) {
    tbb = tooltiptext.getBBox();
    tooltipbg.setAttributeNS(null, "width", tbb.width);
    tooltipbg.setAttributeNS(null, "height", tbb.height);
    tooltipbg.setAttributeNS(null, "x", tbb.x);
    tooltipbg.setAttributeNS(null, "y", tbb.y);
    tooltipbg.setAttributeNS(null, "visibility", "visible");
  }
  tooltiptext.setAttributeNS(null,"visibility","visible");
}

function RectUnhover(evt, i, c) {
  rect = svgDocument.getElementById('rect' + i);
  if( c != null ) {
    rect.setAttributeNS(null, "fill", c)  
  }
  tooltiptext = svgDocument.getElementById('tooltiptext' + i);
  tooltiptext.setAttributeNS(null,"visibility","hidden");
  tooltipbg = svgDocument.getElementById('tooltipbg' + i);
  if( tooltipbg != null ) {
    tooltipbg.setAttributeNS(null,"visibility","hidden");
  }
}
]]></script>
      <line x1="50.0" y1="550.0" x2="550.0" y2="550.0" stroke="rgb(0,0,0)" stroke-width="1"/><line x1="50.0" y1="550.0" x2="50.0" y2="50.0" stroke="rgb(0,0,0)" stroke-width="1"/><line x1="50.0" y1="550.0" x2="50.0" y2="50.0" stroke="rgb(192,192,192)" stroke-width="1"/><line x1="50.0" y1="548.0" x2="50.0" y2="552.0" stroke="rgb(192,192,192)" stroke-width="1"/><text text-anchor="middle" alignment-baseline="hanging" x="50.0" y="553.0" font-size="12.0">0</text><line x1="313.1578947368421" y1="550.0" x2="313.1578947368421" y2="50.0" stroke="rgb(192,192,192)" stroke-width="1"/><line x1="313.1578947368421" y1="548.0" x2="313.1578947368421" y2="552.0" stroke="rgb(192,192,192)" stroke-width="1"/><text text-anchor="middle" alignment-baseline="hanging" x="313.1578947368421" y="553.0" font-size="12.0">10</text><line x1="50.0" y1="550.0" x2="550.0" y2="550.0" stroke="rgb(192,192,192)" stroke-width="1"/><text text-anchor="end" alignment-baseline="middle" x="45.0" y="550.0" font-size="12.0">0.00</text><line x1="48.0" y1="550.0" x2="52.0" y2="550.0" stroke="rgb(192,192,192)" stroke-width="1"/><line x1="50.0" y1="519.727319421381" x2="550.0" y2="519.727319421381" stroke="rgb(192,192,192)" stroke-width="1"/><text text-anchor="end" alignment-baseline="middle" x="45.0" y="519.727319421381" font-size="12.0">0.01</text><line x1="48.0" y1="519.727319421381" x2="52.0" y2="519.727319421381" stroke="rgb(192,192,192)" stroke-width="1"/><line x1="50.0" y1="489.4546388427621" x2="550.0" y2="489.4546388427621" stroke="rgb(192,192,192)" stroke-width="1"/><text text-anchor="end" alignment-baseline="middle" x="45.0" y="489.4546388427621" font-size="12.0">0.02</text><line x1="48.0" y1="489.4546388427621" x2="52.0" y2="489.4546388427621" stroke="rgb(192,192,192)" stroke-width="1"/><line x1="50.0" y1="459.1819582641432" x2="550.0" y2="459.1819582641432" stroke="rgb(192,192,192)" stroke-width="1"/><text text-anchor="end" alignment-baseline="middle" x="45.0" y="459.1819582641432" font-size="12.0">0.03</text><line x1="48.0" y1="459.1819582641432" x2="52.0" y2="459.1819582641432" stroke="rgb(192,192,192)" stroke-width="1"/><line x1="50.0" y1="428.9092776855243" x2="550.0" y2="428.9092776855243" stroke="rgb(192,192,192)" stroke-width="1"/><text text-anchor="end" alignment-baseline="middle" x="45.0" y="428.9092776855243" font-size="12.0">0.04</text><line x1="48.0" y1="428.9092776855243" x2="52.0" y2="428.9092776855243" stroke="rgb(192,192,192)" stroke-width="1"/><line x1="50.0" y1="398.63659710690536" x2="550.0" y2="398.63659710690536" stroke="rgb(192,192,192)" stroke-width="1"/><text text-anchor="end" alignment-baseline="middle" x="45.0" y="398.63659710690536" font-size="12.0">0.05</text><line x1="48.0" y1="398.63659710690536" x2="52.0" y2="398.63659710690536" stroke="rgb(192,192,192)" stroke-width="1"/><line x1="50.0" y1="368.3639165282864" x2="550.0" y2="368.3639165282864" stroke="rgb(192,192,192)" stroke-width="1"/><text text-anchor="end" alignment-baseline="middle" x="45.0" y="368.3639165282864" font-size="12.0">0.06</text><line x1="48.0" y1="368.3639165282864" x2="52.0" y2="368.3639165282864" stroke="rgb(192,192,192)" stroke-width="1"/><line x1="50.0" y1="338.09123594966746" x2="550.0" y2="338.09123594966746" stroke="rgb(192,192,192)" stroke-width="1"/><text text-anchor="end" alignment-baseline="middle" x="45.0" y="338.09123594966746" font-size="12.0">0.07</text><line x1="48.0" y1="338.09123594966746" x2="52.0" y2="338.09123594966746" stroke="rgb(192,192,192)" stroke-width="1"/><line x1="50.0" y1="307.81855537104855" x2="550.0" y2="307.81855537104855" stroke="rgb(192,192,192)" stroke-width="1"/><text text-anchor="end" alignment-baseline="middle" x="45.0" y="307.81855537104855" font-size="12.0">0.08</text><line x1="48.0" y1="307.81855537104855" x2="52.0" y2="307.81855537104855" stroke="rgb(192,192,192)" stroke-width="1"/><line x1="50.0" y1="277.54587479242963" x2="550.0" y2="277.54587479242963" stroke="rgb(192,192,192)" stroke-width="1"/><text text-anchor="end" alignment-baseline="middle" x="45.0" y="277.54587479242963" font-size="12.0">0.09</text><line x1="48.0" y1="277.54587479242963" x2="52.0" y2="277.54587479242963" stroke="rgb(192,192,192)" stroke-width="1"/><line x1="50.0" y1="247.27319421381065" x2="550.0" y2="247.27319421381065" stroke="rgb(192,192,192)" stroke-width="1"/><text text-anchor="end" alignment-baseline="middle" x="45.0" y="247.27319421381065" font-size="12.0">0.10</text><line x1="48.0" y1="247.27319421381065" x2="52.0" y2="247.27319421381065" stroke="rgb(192,192,192)" stroke-width="1"/><line x1="50.0" y1="217.00051363519174" x2="550.0" y2="217.00051363519174" stroke="rgb(192,192,192)" stroke-width="1"/><text text-anchor="end" alignment-baseline="middle" x="45.0" y="217.00051363519174" font-size="12.0">0.11</text><line x1="48.0" y1="217.00051363519174" x2="52.0" y2="217.00051363519174" stroke="rgb(192,192,192)" stroke-width="1"/><line x1="50.0" y1="186.72783305657282" x2="550.0" y2="186.72783305657282" stroke="rgb(192,192,192)" stroke-width="1"/><text text-anchor="end" alignment-baseline="middle" x="45.0" y="186.72783305657282" font-size="12.0">0.12</text><line x1="48.0" y1="186.72783305657282" x2="52.0" y2="186.72783305657282" stroke="rgb(192,192,192)" stroke-width="1"/><line x1="50.0" y1="156.45515247795385" x2="550.0" y2="156.45515247795385" stroke="rgb(192,192,192)" stroke-width="1"/><text text-anchor="end" alignment-baseline="middle" x="45.0" y="156.45515247795385" font-size="12.0">0.13</text><line x1="48.0" y1="156.45515247795385" x2="52.0" y2="156.45515247795385" stroke="rgb(192,192,192)" stroke-width="1"/><line x1="50.0" y1="126.18247189933493" x2="550.0" y2="126.18247189933493" stroke="rgb(192,192,192)" stroke-width="1"/><text text-anchor="end" alignment-baseline="middle" x="45.0" y="126.18247189933493" font-size="12.0">0.14</text><line x1="48.0" y1="126.18247189933493" x2="52.0" y2="126.18247189933493" stroke="rgb(192,192,192)" stroke-width="1"/><line x1="50.0" y1="95.90979132071607" x2="550.0" y2="95.90979132071607" stroke="rgb(192,192,192)" stroke-width="1"/><text text-anchor="end" alignment-baseline="middle" x="45.0" y="95.90979132071607" font-size="12.0">0.15</text><line x1="48.0" y1="95.90979132071607" x2="52.0" y2="95.90979132071607" stroke="rgb(192,192,192)" stroke-width="1"/><line x1="50.0" y1="65.63711074209704" x2="550.0" y2="65.63711074209704" stroke="rgb(192,192,192)" stroke-width="1"/><text text-anchor="end" alignment-baseline="middle" x="45.0" y="65.63711074209704" font-size="12.0">0.16</text><line x1="48.0" y1="65.63711074209704" x2="52.0" y2="65.63711074209704" stroke="rgb(192,192,192)" stroke-width="1"/><polyline points="50.0,77.12208232151966 76.3157894736842,243.64856472665934 102.63157894736841,345.8554764150271 128.94736842105263,438.6832337333538 155.26315789473682,492.7895493301699 181.57894736842104,503.55054460461173 207.89473684210526,538.6702711105693 234.21052631578945,533.3119404934838 260.52631578947364,513.430564088007 286.8421052631579,490.4363138763243 313.1578947368421,490.4363138763243 339.4736842105263,490.4363138763243 365.7894736842105,490.4363138763243 392.10526315789474,490.4363138763243 418.4210526315789,490.4363138763243 444.7368421052632,490.4363138763243 471.05263157894734,490.4363138763243 497.36842105263156,490.4363138763243 523.6842105263158,490.4363138763243 550.0,490.4363138763243" fill="none" stroke="rgb(255,0,0)" stroke-width="1"/><circle cx="50.0" cy="77.12208232151966" r="2" fill="rgb(255,0,0)"/><circle cx="76.3157894736842" cy="243.64856472665934" r="2" fill="rgb(255,0,0)"/><circle cx="102.63157894736841" cy="345.8554764150271" r="2" fill="rgb(255,0,0)"/><circle cx="128.94736842105263" cy="438.6832337333538" r="2" fill="rgb(255,0,0)"/><circle cx="155.26315789473682" cy="492.7895493301699" r="2" fill="rgb(255,0,0)"/><circle cx="181.57894736842104" cy="503.55054460461173" r="2" fill="rgb(255,0,0)"/><circle cx="207.89473684210526" cy="538.6702711105693" r="2" fill="rgb(255,0,0)"/><circle cx="234.21052631578945" cy="533.3119404934838" r="2" fill="rgb(255,0,0)"/><circle cx="260.52631578947364" cy="513.430564088007" r="2" fill="rgb(255,0,0)"/><circle cx="286.8421052631579" cy="490.4363138763243" r="2" fill="rgb(255,0,0)"/><circle cx="313.1578947368421" cy="490.4363138763243" r="2" fill="rgb(255,0,0)"/><circle cx="339.4736842105263" cy="490.4363138763243" r="2" fill="rgb(255,0,0)"/><circle cx="365.7894736842105" cy="490.4363138763243" r="2" fill="rgb(255,0,0)"/><circle cx="392.10526315789474" cy="490.4363138763243" r="2" fill="rgb(255,0,0)"/><circle cx="418.4210526315789" cy="490.4363138763243" r="2" fill="rgb(255,0,0)"/><circle cx="444.7368421052632" cy="490.4363138763243" r="2" fill="rgb(255,0,0)"/><circle cx="471.05263157894734" cy="490.4363138763243" r="2" fill="rgb(255,0,0)"/><circle cx="497.36842105263156" cy="490.4363138763243" r="2" fill="rgb(255,0,0)"/><circle cx="523.6842105263158" cy="490.4363138763243" r="2" fill="rgb(255,0,0)"/><circle cx="550.0" cy="490.4363138763243" r="2" fill="rgb(255,0,0)"/><polyline points="50.0,212.24762135676315 76.3157894736842,366.13463373081066 102.63157894736841,350.8676071506199 128.94736842105263,312.41571136739276 155.26315789473682,249.3474470853622 181.57894736842104,223.78789724841215 207.89473684210526,173.57821311202548 234.21052631578945,146.83686879067875 260.52631578947364,164.30365462097626 286.8421052631579,190.0403714853217 313.1578947368421,190.0403714853217 339.4736842105263,190.0403714853217 365.7894736842105,190.0403714853217 392.10526315789474,190.0403714853217 418.4210526315789,190.0403714853217 444.7368421052632,190.0403714853217 471.05263157894734,190.0403714853217 497.36842105263156,190.0403714853217 523.6842105263158,190.0403714853217 550.0,190.0403714853217" fill="none" stroke="rgb(0,0,255)" stroke-width="1"/><circle cx="50.0" cy="212.24762135676315" r="2" fill="rgb(0,0,255)"/><circle cx="76.3157894736842" cy="366.13463373081066" r="2" fill="rgb(0,0,255)"/><circle cx="102.63157894736841" cy="350.8676071506199" r="2" fill="rgb(0,0,255)"/><circle cx="128.94736842105263" cy="312.41571136739276" r="2" fill="rgb(0,0,255)"/><circle cx="155.26315789473682" cy="249.3474470853622" r="2" fill="rgb(0,0,255)"/><circle cx="181.57894736842104" cy="223.78789724841215" r="2" fill="rgb(0,0,255)"/><circle cx="207.89473684210526" cy="173.57821311202548" r="2" fill="rgb(0,0,255)"/><circle cx="234.21052631578945" cy="146.83686879067875" r="2" fill="rgb(0,0,255)"/><circle cx="260.52631578947364" cy="164.30365462097626" r="2" fill="rgb(0,0,255)"/><circle cx="286.8421052631579" cy="190.0403714853217" r="2" fill="rgb(0,0,255)"/><circle cx="313.1578947368421" cy="190.0403714853217" r="2" fill="rgb(0,0,255)"/><circle cx="339.4736842105263" cy="190.0403714853217" r="2" fill="rgb(0,0,255)"/><circle cx="365.7894736842105" cy="190.0403714853217" r="2" fill="rgb(0,0,255)"/><circle cx="392.10526315789474" cy="190.0403714853217" r="2" fill="rgb(0,0,255)"/><circle cx="418.4210526315789" cy="190.0403714853217" r="2" fill="rgb(0,0,255)"/><circle cx="444.7368421052632" cy="190.0403714853217" r="2" fill="rgb(0,0,255)"/><circle cx="471.05263157894734" cy="190.0403714853217" r="2" fill="rgb(0,0,255)"/><circle cx="497.36842105263156" cy="190.0403714853217" r="2" fill="rgb(0,0,255)"/><circle cx="523.6842105263158" cy="190.0403714853217" r="2" fill="rgb(0,0,255)"/><circle cx="550.0" cy="190.0403714853217" r="2" fill="rgb(0,0,255)"/><polyline points="50.0,50.0 76.3157894736842,190.57784376316806 102.63157894736841,171.8557502431035 128.94736842105263,143.60955315022863 155.26315789473682,199.80804589656856 181.57894736842104,211.12267091093992 207.89473684210526,245.2653479361063 234.21052631578945,268.4387135367776 260.52631578947364,288.92238632053363 286.8421052631579,313.57763028879606 313.1578947368421,313.57763028879606 339.4736842105263,313.57763028879606 365.7894736842105,313.57763028879606 392.10526315789474,313.57763028879606 418.4210526315789,313.57763028879606 444.7368421052632,313.57763028879606 471.05263157894734,313.57763028879606 497.36842105263156,313.57763028879606 523.6842105263158,313.57763028879606 550.0,313.57763028879606" fill="none" stroke="rgb(0,255,0)" stroke-width="1"/><circle cx="50.0" cy="50.0" r="2" fill="rgb(0,255,0)"/><circle cx="76.3157894736842" cy="190.57784376316806" r="2" fill="rgb(0,255,0)"/><circle cx="102.63157894736841" cy="171.8557502431035" r="2" fill="rgb(0,255,0)"/><circle cx="128.94736842105263" cy="143.60955315022863" r="2" fill="rgb(0,255,0)"/><circle cx="155.26315789473682" cy="199.80804589656856" r="2" fill="rgb(0,255,0)"/><circle cx="181.57894736842104" cy="211.12267091093992" r="2" fill="rgb(0,255,0)"/><circle cx="207.89473684210526" cy="245.2653479361063" r="2" fill="rgb(0,255,0)"/><circle cx="234.21052631578945" cy="268.4387135367776" r="2" fill="rgb(0,255,0)"/><circle cx="260.52631578947364" cy="288.92238632053363" r="2" fill="rgb(0,255,0)"/><circle cx="286.8421052631579" cy="313.57763028879606" r="2" fill="rgb(0,255,0)"/><circle cx="313.1578947368421" cy="313.57763028879606" r="2" fill="rgb(0,255,0)"/><circle cx="339.4736842105263" cy="313.57763028879606" r="2" fill="rgb(0,255,0)"/><circle cx="365.7894736842105" cy="313.57763028879606" r="2" fill="rgb(0,255,0)"/><circle cx="392.10526315789474" cy="313.57763028879606" r="2" fill="rgb(0,255,0)"/><circle cx="418.4210526315789" cy="313.57763028879606" r="2" fill="rgb(0,255,0)"/><circle cx="444.7368421052632" cy="313.57763028879606" r="2" fill="rgb(0,255,0)"/><circle cx="471.05263157894734" cy="313.57763028879606" r="2" fill="rgb(0,255,0)"/><circle cx="497.36842105263156" cy="313.57763028879606" r="2" fill="rgb(0,255,0)"/><circle cx="523.6842105263158" cy="313.57763028879606" r="2" fill="rgb(0,255,0)"/><circle cx="550.0" cy="313.57763028879606" r="2" fill="rgb(0,255,0)"/><text x="350.0" y="20.0" text-anchor="middle" fill="rgb(0,0,0)" font-size="20.0">KMeans Mean Centroid Distances</text><text x="350.0" y="575.0" text-anchor="middle" fill="rgb(0,0,0)" font-size="12.0">step</text><text transform="rotate(-90.0 20.0 300.0)" x="20.0" y="300.0" text-anchor="middle" fill="rgb(0,0,0)" font-size="12.0">average distance to centroid</text><text x="620" y="62" fill="rgb(255,0,0)" font-size="12">0</text><text x="620" y="74" fill="rgb(0,0,255)" font-size="12">1</text><text x="620" y="86" fill="rgb(0,255,0)" font-size="12">2</text>
      Sorry, your browser does not support inline SVG.
    </svg>