<?xml version='1.0' encoding='UTF-8'?>
<svg version="1.1" width="700.0" height="600.0" onload="init(evt)" xmlns="http://www.w3.org/2000/svg">
      <style>.caption {
  font-size: 14px;
  font-family: Georgia, serif;
}
</style>
      <script type="text/ecmascript"><![CDATA[
function init(evt) {
  if ( window.svgDocument == null ) {
    svgDocument = evt.target.ownerDocument;
  }
}

function RectHover(evt, i, c) {
  rect = svgDocument.getElementById('rect' + i);
  if( c != null ) {
    rect.setAttributeNS(null, "fill", c)  
  }
  tooltiptext = svgDocument.getElementById('tooltiptext' + i);
  tooltipbg = svgDocument.getElementById('tooltipbg' + i);
  if( tooltipbg != null) {
    tbb = tooltiptext.getBBox();
    tooltipbg.setAttributeNS(null, "width", tbb.width);
    tooltipbg.setAttributeNS(null, "height", tbb.height);
    tooltipbg.setAttributeNS(null, "x", tbb.x);
    tooltipbg.setAttributeNS(null, "y", tbb.y);
    tooltipbg.setAttributeNS(null, "visibility", "visible");
  }
  tooltiptext.setAttributeNS(null,"visibility","visible");
}

function RectUnhover(evt, i, c) {
  rect = svgDocument.getElementById('rect' + i);
  if( c != null ) {
    rect.setAttributeNS(null, "fill", c)  
  }
  tooltiptext = svgDocument.getElementById('tooltiptext' + i);
  tooltiptext.setAttributeNS(null,"visibility","hidden");
  tooltipbg = svgDocument.getElementById('tooltipbg' + i);
  if( tooltipbg != null ) {
    tooltipbg.setAttributeNS(null,"visibility","hidden");
  }
}
]]></script>
      <line x1="50.0" y1="550.0" x2="550.0" y2="550.0" stroke="rgb(0,0,0)" stroke-width="1"/><line x1="50.0" y1="550.0" x2="50.0" y2="50.0" stroke="rgb(0,0,0)" stroke-width="1"/><line x1="50.0" y1="550.0" x2="50.0" y2="50.0" stroke="rgb(192,192,192)" stroke-width="1"/><line x1="50.0" y1="548.0" x2="50.0" y2="552.0" stroke="rgb(192,192,192)" stroke-width="1"/><text text-anchor="middle" alignment-baseline="hanging" x="50.0" y="553.0" font-size="12.0">0</text><line x1="313.1578947368421" y1="550.0" x2="313.1578947368421" y2="50.0" stroke="rgb(192,192,192)" stroke-width="1"/><line x1="313.1578947368421" y1="548.0" x2="313.1578947368421" y2="552.0" stroke="rgb(192,192,192)" stroke-width="1"/><text text-anchor="middle" alignment-baseline="hanging" x="313.1578947368421" y="553.0" font-size="12.0">10</text><line x1="50.0" y1="550.0" x2="550.0" y2="550.0" stroke="rgb(192,192,192)" stroke-width="1"/><text text-anchor="end" alignment-baseline="middle" x="45.0" y="550.0" font-size="12.0">0.00</text><line x1="48.0" y1="550.0" x2="52.0" y2="550.0" stroke="rgb(192,192,192)" stroke-width="1"/><line x1="50.0" y1="508.84219850601716" x2="550.0" y2="508.84219850601716" stroke="rgb(192,192,192)" stroke-width="1"/><text text-anchor="end" alignment-baseline="middle" x="45.0" y="508.84219850601716" font-size="12.0">0.01</text><line x1="48.0" y1="508.84219850601716" x2="52.0" y2="508.84219850601716" stroke="rgb(192,192,192)" stroke-width="1"/><line x1="50.0" y1="467.6843970120343" x2="550.0" y2="467.6843970120343" stroke="rgb(192,192,192)" stroke-width="1"/><text text-anchor="end" alignment-baseline="middle" x="45.0" y="467.6843970120343" font-size="12.0">0.02</text><line x1="48.0" y1="467.6843970120343" x2="52.0" y2="467.6843970120343" stroke="rgb(192,192,192)" stroke-width="1"/><line x1="50.0" y1="426.52659551805147" x2="550.0" y2="426.52659551805147" stroke="rgb(192,192,192)" stroke-width="1"/><text text-anchor="end" alignment-baseline="middle" x="45.0" y="426.52659551805147" font-size="12.0">0.03</text><line x1="48.0" y1="426.52659551805147" x2="52.0" y2="426.52659551805147" stroke="rgb(192,192,192)" stroke-width="1"/><line x1="50.0" y1="385.3687940240686" x2="550.0" y2="385.3687940240686" stroke="rgb(192,192,192)" stroke-width="1"/><text text-anchor="end" alignment-baseline="middle" x="45.0" y="385.3687940240686" font-size="12.0">0.04</text><line x1="48.0" y1="385.3687940240686" x2="52.0" y2="385.3687940240686" stroke="rgb(192,192,192)" stroke-width="1"/><line x1="50.0" y1="344.2109925300857" x2="550.0" y2="344.2109925300857" stroke="rgb(192,192,192)" stroke-width="1"/><text text-anchor="end" alignment-baseline="middle" x="45.0" y="344.2109925300857" font-size="12.0">0.05</text><line x1="48.0" y1="344.2109925300857" x2="52.0" y2="344.2109925300857" stroke="rgb(192,192,192)" stroke-width="1"/><line x1="50.0" y1="303.05319103610293" x2="550.0" y2="303.05319103610293" stroke="rgb(192,192,192)" stroke-width="1"/><text text-anchor="end" alignment-baseline="middle" x="45.0" y="303.05319103610293" font-size="12.0">0.06</text><line x1="48.0" y1="303.05319103610293" x2="52.0" y2="303.05319103610293" stroke="rgb(192,192,192)" stroke-width="1"/><line x1="50.0" y1="261.8953895421201" x2="550.0" y2="261.8953895421201" stroke="rgb(192,192,192)" stroke-width="1"/><text text-anchor="end" alignment-baseline="middle" x="45.0" y="261.8953895421201" font-size="12.0">0.07</text><line x1="48.0" y1="261.8953895421201" x2="52.0" y2="261.8953895421201" stroke="rgb(192,192,192)" stroke-width="1"/><line x1="50.0" y1="220.73758804813724" x2="550.0" y2="220.73758804813724" stroke="rgb(192,192,192)" stroke-width="1"/><text text-anchor="end" alignment-baseline="middle" x="45.0" y="220.73758804813724" font-size="12.0">0.08</text><line x1="48.0" y1="220.73758804813724" x2="52.0" y2="220.73758804813724" stroke="rgb(192,192,192)" stroke-width="1"/><line x1="50.0" y1="179.5797865541544" x2="550.0" y2="179.5797865541544" stroke="rgb(192,192,192)" stroke-width="1"/><text text-anchor="end" alignment-baseline="middle" x="45.0" y="179.5797865541544" font-size="12.0">0.09</text><line x1="48.0" y1="179.5797865541544" x2="52.0" y2="179.5797865541544" stroke="rgb(192,192,192)" stroke-width="1"/><line x1="50.0" y1="138.4219850601715" x2="550.0" y2="138.4219850601715" stroke="rgb(192,192,192)" stroke-width="1"/><text text-anchor="end" alignment-baseline="middle" x="45.0" y="138.4219850601715" font-size="12.0">0.10</text><line x1="48.0" y1="138.4219850601715" x2="52.0" y2="138.4219850601715" stroke="rgb(192,192,192)" stroke-width="1"/><line x1="50.0" y1="97.2641835661887" x2="550.0" y2="97.2641835661887" stroke="rgb(192,192,192)" stroke-width="1"/><text text-anchor="end" alignment-baseline="middle" x="45.0" y="97.2641835661887" font-size="12.0">0.11</text><line x1="48.0" y1="97.2641835661887" x2="52.0" y2="97.2641835661887" stroke="rgb(192,192,192)" stroke-width="1"/><line x1="50.0" y1="56.10638207220586" x2="550.0" y2="56.10638207220586" stroke="rgb(192,192,192)" stroke-width="1"/><text text-anchor="end" alignment-baseline="middle" x="45.0" y="56.10638207220586" font-size="12.0">0.12</text><line x1="48.0" y1="56.10638207220586" x2="52.0" y2="56.10638207220586" stroke="rgb(192,192,192)" stroke-width="1"/><polyline points="50.0,241.7874544393453 76.3157894736842,342.99772660543675 102.63157894736841,444.82275996594194 128.94736842105263,469.0190520670441 155.26315789473682,483.1009256629164 181.57894736842104,474.42094003111424 207.89473684210526,474.42094003111424 234.21052631578945,474.42094003111424 260.52631578947364,474.42094003111424 286.8421052631579,474.42094003111424 313.1578947368421,474.42094003111424 339.4736842105263,474.42094003111424 365.7894736842105,474.42094003111424 392.10526315789474,474.42094003111424 418.4210526315789,474.42094003111424 444.7368421052632,474.42094003111424 471.05263157894734,474.42094003111424 497.36842105263156,474.42094003111424 523.6842105263158,474.42094003111424 550.0,474.42094003111424" fill="none" stroke="rgb(255,0,0)" stroke-width="1"/><circle cx="50.0" cy="241.7874544393453" r="2" fill="rgb(255,0,0)"/><circle cx="76.3157894736842" cy="342.99772660543675" r="2" fill="rgb(255,0,0)"/><circle cx="102.63157894736841" cy="444.82275996594194" r="2" fill="rgb(255,0,0)"/><circle cx="128.94736842105263" cy="469.0190520670441" r="2" fill="rgb(255,0,0)"/><circle cx="155.26315789473682" cy="483.1009256629164" r="2" fill="rgb(255,0,0)"/><circle cx="181.57894736842104" cy="474.42094003111424" r="2" fill="rgb(255,0,0)"/><circle cx="207.89473684210526" cy="474.42094003111424" r="2" fill="rgb(255,0,0)"/><circle cx="234.21052631578945" cy="474.42094003111424" r="2" fill="rgb(255,0,0)"/><circle cx="260.52631578947364" cy="474.42094003111424" r="2" fill="rgb(255,0,0)"/><circle cx="286.8421052631579" cy="474.42094003111424" r="2" fill="rgb(255,0,0)"/><circle cx="313.1578947368421" cy="474.42094003111424" r="2" fill="rgb(255,0,0)"/><circle cx="339.4736842105263" cy="474.42094003111424" r="2" fill="rgb(255,0,0)"/><circle cx="365.7894736842105" cy="474.42094003111424" r="2" fill="rgb(255,0,0)"/><circle cx="392.10526315789474" cy="474.42094003111424" r="2" fill="rgb(255,0,0)"/><circle cx="418.4210526315789" cy="474.42094003111424" r="2" fill="rgb(255,0,0)"/><circle cx="444.7368421052632" cy="474.42094003111424" r="2" fill="rgb(255,0,0)"/><circle cx="471.05263157894734" cy="474.42094003111424" r="2" fill="rgb(255,0,0)"/><circle cx="497.36842105263156" cy="474.42094003111424" r="2" fill="rgb(255,0,0)"/><circle cx="523.6842105263158" cy="474.42094003111424" r="2" fill="rgb(255,0,0)"/><circle cx="550.0" cy="474.42094003111424" r="2" fill="rgb(255,0,0)"/><polyline points="50.0,77.39750463614371 76.3157894736842,193.66380186851376 102.63157894736841,86.27333465628891 128.94736842105263,60.6100070068253 155.26315789473682,50.0 181.57894736842104,59.817314214721875 207.89473684210526,59.817314214721875 234.21052631578945,59.817314214721875 260.52631578947364,59.817314214721875 286.8421052631579,59.817314214721875 313.1578947368421,59.817314214721875 339.4736842105263,59.817314214721875 365.7894736842105,59.817314214721875 392.10526315789474,59.817314214721875 418.4210526315789,59.817314214721875 444.7368421052632,59.817314214721875 471.05263157894734,59.817314214721875 497.36842105263156,59.817314214721875 523.6842105263158,59.817314214721875 550.0,59.817314214721875" fill="none" stroke="rgb(0,0,255)" stroke-width="1"/><circle cx="50.0" cy="77.39750463614371" r="2" fill="rgb(0,0,255)"/><circle cx="76.3157894736842" cy="193.66380186851376" r="2" fill="rgb(0,0,255)"/><circle cx="102.63157894736841" cy="86.27333465628891" r="2" fill="rgb(0,0,255)"/><circle cx="128.94736842105263" cy="60.6100070068253" r="2" fill="rgb(0,0,255)"/><circle cx="155.26315789473682" cy="50.0" r="2" fill="rgb(0,0,255)"/><circle cx="181.57894736842104" cy="59.817314214721875" r="2" fill="rgb(0,0,255)"/><circle cx="207.89473684210526" cy="59.817314214721875" r="2" fill="rgb(0,0,255)"/><circle cx="234.21052631578945" cy="59.817314214721875" r="2" fill="rgb(0,0,255)"/><circle cx="260.52631578947364" cy="59.817314214721875" r="2" fill="rgb(0,0,255)"/><circle cx="286.8421052631579" cy="59.817314214721875" r="2" fill="rgb(0,0,255)"/><circle cx="313.1578947368421" cy="59.817314214721875" r="2" fill="rgb(0,0,255)"/><circle cx="339.4736842105263" cy="59.817314214721875" r="2" fill="rgb(0,0,255)"/><circle cx="365.7894736842105" cy="59.817314214721875" r="2" fill="rgb(0,0,255)"/><circle cx="392.10526315789474" cy="59.817314214721875" r="2" fill="rgb(0,0,255)"/><circle cx="418.4210526315789" cy="59.817314214721875" r="2" fill="rgb(0,0,255)"/><circle cx="444.7368421052632" cy="59.817314214721875" r="2" fill="rgb(0,0,255)"/><circle cx="471.05263157894734" cy="59.817314214721875" r="2" fill="rgb(0,0,255)"/><circle cx="497.36842105263156" cy="59.817314214721875" r="2" fill="rgb(0,0,255)"/><circle cx="523.6842105263158" cy="59.817314214721875" r="2" fill="rgb(0,0,255)"/><circle cx="550.0" cy="59.817314214721875" r="2" fill="rgb(0,0,255)"/><polyline points="50.0,322.63851197316524 76.3157894736842,335.72887328957097 102.63157894736841,252.46525845897332 128.94736842105263,228.56744842796235 155.26315789473682,214.4793303056254 181.57894736842104,222.73892454557358 207.89473684210526,222.73892454557358 234.21052631578945,222.73892454557358 260.52631578947364,222.73892454557358 286.8421052631579,222.73892454557358 313.1578947368421,222.73892454557358 339.4736842105263,222.73892454557358 365.7894736842105,222.73892454557358 392.10526315789474,222.73892454557358 418.4210526315789,222.73892454557358 444.7368421052632,222.73892454557358 471.05263157894734,222.73892454557358 497.36842105263156,222.73892454557358 523.6842105263158,222.73892454557358 550.0,222.73892454557358" fill="none" stroke="rgb(0,255,0)" stroke-width="1"/><circle cx="50.0" cy="322.63851197316524" r="2" fill="rgb(0,255,0)"/><circle cx="76.3157894736842" cy="335.72887328957097" r="2" fill="rgb(0,255,0)"/><circle cx="102.63157894736841" cy="252.46525845897332" r="2" fill="rgb(0,255,0)"/><circle cx="128.94736842105263" cy="228.56744842796235" r="2" fill="rgb(0,255,0)"/><circle cx="155.26315789473682" cy="214.4793303056254" r="2" fill="rgb(0,255,0)"/><circle cx="181.57894736842104" cy="222.73892454557358" r="2" fill="rgb(0,255,0)"/><circle cx="207.89473684210526" cy="222.73892454557358" r="2" fill="rgb(0,255,0)"/><circle cx="234.21052631578945" cy="222.73892454557358" r="2" fill="rgb(0,255,0)"/><circle cx="260.52631578947364" cy="222.73892454557358" r="2" fill="rgb(0,255,0)"/><circle cx="286.8421052631579" cy="222.73892454557358" r="2" fill="rgb(0,255,0)"/><circle cx="313.1578947368421" cy="222.73892454557358" r="2" fill="rgb(0,255,0)"/><circle cx="339.4736842105263" cy="222.73892454557358" r="2" fill="rgb(0,255,0)"/><circle cx="365.7894736842105" cy="222.73892454557358" r="2" fill="rgb(0,255,0)"/><circle cx="392.10526315789474" cy="222.73892454557358" r="2" fill="rgb(0,255,0)"/><circle cx="418.4210526315789" cy="222.73892454557358" r="2" fill="rgb(0,255,0)"/><circle cx="444.7368421052632" cy="222.73892454557358" r="2" fill="rgb(0,255,0)"/><circle cx="471.05263157894734" cy="222.73892454557358" r="2" fill="rgb(0,255,0)"/><circle cx="497.36842105263156" cy="222.73892454557358" r="2" fill="rgb(0,255,0)"/><circle cx="523.6842105263158" cy="222.73892454557358" r="2" fill="rgb(0,255,0)"/><circle cx="550.0" cy="222.73892454557358" r="2" fill="rgb(0,255,0)"/><text x="350.0" y="20.0" text-anchor="middle" fill="rgb(0,0,0)" font-size="20.0">KMeans Mean Centroid Distances</text><text x="350.0" y="575.0" text-anchor="middle" fill="rgb(0,0,0)" font-size="12.0">step</text><text transform="rotate(-90.0 20.0 300.0)" x="20.0" y="300.0" text-anchor="middle" fill="rgb(0,0,0)" font-size="12.0">average distance to centroid</text><text x="620" y="62" fill="rgb(255,0,0)" font-size="12">0</text><text x="620" y="74" fill="rgb(0,0,255)" font-size="12">1</text><text x="620" y="86" fill="rgb(0,255,0)" font-size="12">2</text>
      Sorry, your browser does not support inline SVG.
    </svg>