<?xml version='1.0' encoding='UTF-8'?>
<svg version="1.1" width="700.0" height="600.0" onload="init(evt)" xmlns="http://www.w3.org/2000/svg">
      <style>.caption {
  font-size: 14px;
  font-family: Georgia, serif;
}
</style>
      <script type="text/ecmascript"><![CDATA[
function init(evt) {
  if ( window.svgDocument == null ) {
    svgDocument = evt.target.ownerDocument;
  }
}

function RectHover(evt, i, c) {
  rect = svgDocument.getElementById('rect' + i);
  if( c != null ) {
    rect.setAttributeNS(null, "fill", c)  
  }
  tooltiptext = svgDocument.getElementById('tooltiptext' + i);
  tooltipbg = svgDocument.getElementById('tooltipbg' + i);
  if( tooltipbg != null) {
    tbb = tooltiptext.getBBox();
    tooltipbg.setAttributeNS(null, "width", tbb.width);
    tooltipbg.setAttributeNS(null, "height", tbb.height);
    tooltipbg.setAttributeNS(null, "x", tbb.x);
    tooltipbg.setAttributeNS(null, "y", tbb.y);
    tooltipbg.setAttributeNS(null, "visibility", "visible");
  }
  tooltiptext.setAttributeNS(null,"visibility","visible");
}

function RectUnhover(evt, i, c) {
  rect = svgDocument.getElementById('rect' + i);
  if( c != null ) {
    rect.setAttributeNS(null, "fill", c)  
  }
  tooltiptext = svgDocument.getElementById('tooltiptext' + i);
  tooltiptext.setAttributeNS(null,"visibility","hidden");
  tooltipbg = svgDocument.getElementById('tooltipbg' + i);
  if( tooltipbg != null ) {
    tooltipbg.setAttributeNS(null,"visibility","hidden");
  }
}
]]></script>
      <line x1="50.0" y1="550.0" x2="550.0" y2="550.0" stroke="rgb(0,0,0)" stroke-width="1"/><line x1="50.0" y1="550.0" x2="50.0" y2="50.0" stroke="rgb(0,0,0)" stroke-width="1"/><line x1="50.0" y1="550.0" x2="50.0" y2="50.0" stroke="rgb(192,192,192)" stroke-width="1"/><line x1="50.0" y1="548.0" x2="50.0" y2="552.0" stroke="rgb(192,192,192)" stroke-width="1"/><text text-anchor="middle" alignment-baseline="hanging" x="50.0" y="553.0" font-size="12.0">0</text><line x1="313.1578947368421" y1="550.0" x2="313.1578947368421" y2="50.0" stroke="rgb(192,192,192)" stroke-width="1"/><line x1="313.1578947368421" y1="548.0" x2="313.1578947368421" y2="552.0" stroke="rgb(192,192,192)" stroke-width="1"/><text text-anchor="middle" alignment-baseline="hanging" x="313.1578947368421" y="553.0" font-size="12.0">10</text><line x1="50.0" y1="550.0" x2="550.0" y2="550.0" stroke="rgb(192,192,192)" stroke-width="1"/><text text-anchor="end" alignment-baseline="middle" x="45.0" y="550.0" font-size="12.0">0.00</text><line x1="48.0" y1="550.0" x2="52.0" y2="550.0" stroke="rgb(192,192,192)" stroke-width="1"/><line x1="50.0" y1="507.9498946818914" x2="550.0" y2="507.9498946818914" stroke="rgb(192,192,192)" stroke-width="1"/><text text-anchor="end" alignment-baseline="middle" x="45.0" y="507.9498946818914" font-size="12.0">0.01</text><line x1="48.0" y1="507.9498946818914" x2="52.0" y2="507.9498946818914" stroke="rgb(192,192,192)" stroke-width="1"/><line x1="50.0" y1="465.8997893637828" x2="550.0" y2="465.8997893637828" stroke="rgb(192,192,192)" stroke-width="1"/><text text-anchor="end" alignment-baseline="middle" x="45.0" y="465.8997893637828" font-size="12.0">0.02</text><line x1="48.0" y1="465.8997893637828" x2="52.0" y2="465.8997893637828" stroke="rgb(192,192,192)" stroke-width="1"/><line x1="50.0" y1="423.8496840456742" x2="550.0" y2="423.8496840456742" stroke="rgb(192,192,192)" stroke-width="1"/><text text-anchor="end" alignment-baseline="middle" x="45.0" y="423.8496840456742" font-size="12.0">0.03</text><line x1="48.0" y1="423.8496840456742" x2="52.0" y2="423.8496840456742" stroke="rgb(192,192,192)" stroke-width="1"/><line x1="50.0" y1="381.79957872756563" x2="550.0" y2="381.79957872756563" stroke="rgb(192,192,192)" stroke-width="1"/><text text-anchor="end" alignment-baseline="middle" x="45.0" y="381.79957872756563" font-size="12.0">0.04</text><line x1="48.0" y1="381.79957872756563" x2="52.0" y2="381.79957872756563" stroke="rgb(192,192,192)" stroke-width="1"/><line x1="50.0" y1="339.7494734094571" x2="550.0" y2="339.7494734094571" stroke="rgb(192,192,192)" stroke-width="1"/><text text-anchor="end" alignment-baseline="middle" x="45.0" y="339.7494734094571" font-size="12.0">0.05</text><line x1="48.0" y1="339.7494734094571" x2="52.0" y2="339.7494734094571" stroke="rgb(192,192,192)" stroke-width="1"/><line x1="50.0" y1="297.69936809134845" x2="550.0" y2="297.69936809134845" stroke="rgb(192,192,192)" stroke-width="1"/><text text-anchor="end" alignment-baseline="middle" x="45.0" y="297.69936809134845" font-size="12.0">0.06</text><line x1="48.0" y1="297.69936809134845" x2="52.0" y2="297.69936809134845" stroke="rgb(192,192,192)" stroke-width="1"/><line x1="50.0" y1="255.64926277323985" x2="550.0" y2="255.64926277323985" stroke="rgb(192,192,192)" stroke-width="1"/><text text-anchor="end" alignment-baseline="middle" x="45.0" y="255.64926277323985" font-size="12.0">0.07</text><line x1="48.0" y1="255.64926277323985" x2="52.0" y2="255.64926277323985" stroke="rgb(192,192,192)" stroke-width="1"/><line x1="50.0" y1="213.59915745513132" x2="550.0" y2="213.59915745513132" stroke="rgb(192,192,192)" stroke-width="1"/><text text-anchor="end" alignment-baseline="middle" x="45.0" y="213.59915745513132" font-size="12.0">0.08</text><line x1="48.0" y1="213.59915745513132" x2="52.0" y2="213.59915745513132" stroke="rgb(192,192,192)" stroke-width="1"/><line x1="50.0" y1="171.54905213702273" x2="550.0" y2="171.54905213702273" stroke="rgb(192,192,192)" stroke-width="1"/><text text-anchor="end" alignment-baseline="middle" x="45.0" y="171.54905213702273" font-size="12.0">0.09</text><line x1="48.0" y1="171.54905213702273" x2="52.0" y2="171.54905213702273" stroke="rgb(192,192,192)" stroke-width="1"/><line x1="50.0" y1="129.49894681891413" x2="550.0" y2="129.49894681891413" stroke="rgb(192,192,192)" stroke-width="1"/><text text-anchor="end" alignment-baseline="middle" x="45.0" y="129.49894681891413" font-size="12.0">0.10</text><line x1="48.0" y1="129.49894681891413" x2="52.0" y2="129.49894681891413" stroke="rgb(192,192,192)" stroke-width="1"/><line x1="50.0" y1="87.44884150080554" x2="550.0" y2="87.44884150080554" stroke="rgb(192,192,192)" stroke-width="1"/><text text-anchor="end" alignment-baseline="middle" x="45.0" y="87.44884150080554" font-size="12.0">0.11</text><line x1="48.0" y1="87.44884150080554" x2="52.0" y2="87.44884150080554" stroke="rgb(192,192,192)" stroke-width="1"/><polyline points="50.0,423.1703155945024 76.3157894736842,408.73549832411766 102.63157894736841,461.47424561644715 128.94736842105263,467.26337982754245 155.26315789473682,467.26337982754245 181.57894736842104,467.26337982754245 207.89473684210526,467.26337982754245 234.21052631578945,467.26337982754245 260.52631578947364,467.26337982754245 286.8421052631579,467.26337982754245 313.1578947368421,467.26337982754245 339.4736842105263,467.26337982754245 365.7894736842105,467.26337982754245 392.10526315789474,467.26337982754245 418.4210526315789,467.26337982754245 444.7368421052632,467.26337982754245 471.05263157894734,467.26337982754245 497.36842105263156,467.26337982754245 523.6842105263158,467.26337982754245 550.0,467.26337982754245" fill="none" stroke="rgb(255,0,0)" stroke-width="1"/><circle cx="50.0" cy="423.1703155945024" r="2" fill="rgb(255,0,0)"/><circle cx="76.3157894736842" cy="408.73549832411766" r="2" fill="rgb(255,0,0)"/><circle cx="102.63157894736841" cy="461.47424561644715" r="2" fill="rgb(255,0,0)"/><circle cx="128.94736842105263" cy="467.26337982754245" r="2" fill="rgb(255,0,0)"/><circle cx="155.26315789473682" cy="467.26337982754245" r="2" fill="rgb(255,0,0)"/><circle cx="181.57894736842104" cy="467.26337982754245" r="2" fill="rgb(255,0,0)"/><circle cx="207.89473684210526" cy="467.26337982754245" r="2" fill="rgb(255,0,0)"/><circle cx="234.21052631578945" cy="467.26337982754245" r="2" fill="rgb(255,0,0)"/><circle cx="260.52631578947364" cy="467.26337982754245" r="2" fill="rgb(255,0,0)"/><circle cx="286.8421052631579" cy="467.26337982754245" r="2" fill="rgb(255,0,0)"/><circle cx="313.1578947368421" cy="467.26337982754245" r="2" fill="rgb(255,0,0)"/><circle cx="339.4736842105263" cy="467.26337982754245" r="2" fill="rgb(255,0,0)"/><circle cx="365.7894736842105" cy="467.26337982754245" r="2" fill="rgb(255,0,0)"/><circle cx="392.10526315789474" cy="467.26337982754245" r="2" fill="rgb(255,0,0)"/><circle cx="418.4210526315789" cy="467.26337982754245" r="2" fill="rgb(255,0,0)"/><circle cx="444.7368421052632" cy="467.26337982754245" r="2" fill="rgb(255,0,0)"/><circle cx="471.05263157894734" cy="467.26337982754245" r="2" fill="rgb(255,0,0)"/><circle cx="497.36842105263156" cy="467.26337982754245" r="2" fill="rgb(255,0,0)"/><circle cx="523.6842105263158" cy="467.26337982754245" r="2" fill="rgb(255,0,0)"/><circle cx="550.0" cy="467.26337982754245" r="2" fill="rgb(255,0,0)"/><polyline points="50.0,96.73212004913927 76.3157894736842,107.69733717396906 102.63157894736841,59.16010171202544 128.94736842105263,50.0 155.26315789473682,50.0 181.57894736842104,50.0 207.89473684210526,50.0 234.21052631578945,50.0 260.52631578947364,50.0 286.8421052631579,50.0 313.1578947368421,50.0 339.4736842105263,50.0 365.7894736842105,50.0 392.10526315789474,50.0 418.4210526315789,50.0 444.7368421052632,50.0 471.05263157894734,50.0 497.36842105263156,50.0 523.6842105263158,50.0 550.0,50.0" fill="none" stroke="rgb(0,0,255)" stroke-width="1"/><circle cx="50.0" cy="96.73212004913927" r="2" fill="rgb(0,0,255)"/><circle cx="76.3157894736842" cy="107.69733717396906" r="2" fill="rgb(0,0,255)"/><circle cx="102.63157894736841" cy="59.16010171202544" r="2" fill="rgb(0,0,255)"/><circle cx="128.94736842105263" cy="50.0" r="2" fill="rgb(0,0,255)"/><circle cx="155.26315789473682" cy="50.0" r="2" fill="rgb(0,0,255)"/><circle cx="181.57894736842104" cy="50.0" r="2" fill="rgb(0,0,255)"/><circle cx="207.89473684210526" cy="50.0" r="2" fill="rgb(0,0,255)"/><circle cx="234.21052631578945" cy="50.0" r="2" fill="rgb(0,0,255)"/><circle cx="260.52631578947364" cy="50.0" r="2" fill="rgb(0,0,255)"/><circle cx="286.8421052631579" cy="50.0" r="2" fill="rgb(0,0,255)"/><circle cx="313.1578947368421" cy="50.0" r="2" fill="rgb(0,0,255)"/><circle cx="339.4736842105263" cy="50.0" r="2" fill="rgb(0,0,255)"/><circle cx="365.7894736842105" cy="50.0" r="2" fill="rgb(0,0,255)"/><circle cx="392.10526315789474" cy="50.0" r="2" fill="rgb(0,0,255)"/><circle cx="418.4210526315789" cy="50.0" r="2" fill="rgb(0,0,255)"/><circle cx="444.7368421052632" cy="50.0" r="2" fill="rgb(0,0,255)"/><circle cx="471.05263157894734" cy="50.0" r="2" fill="rgb(0,0,255)"/><circle cx="497.36842105263156" cy="50.0" r="2" fill="rgb(0,0,255)"/><circle cx="523.6842105263158" cy="50.0" r="2" fill="rgb(0,0,255)"/><circle cx="550.0" cy="50.0" r="2" fill="rgb(0,0,255)"/><polyline points="50.0,264.2555006630348 76.3157894736842,279.4789917986999 102.63157894736841,227.0671347954867 128.94736842105263,221.59876971930595 155.26315789473682,221.59876971930595 181.57894736842104,221.59876971930595 207.89473684210526,221.59876971930595 234.21052631578945,221.59876971930595 260.52631578947364,221.59876971930595 286.8421052631579,221.59876971930595 313.1578947368421,221.59876971930595 339.4736842105263,221.59876971930595 365.7894736842105,221.59876971930595 392.10526315789474,221.59876971930595 418.4210526315789,221.59876971930595 444.7368421052632,221.59876971930595 471.05263157894734,221.59876971930595 497.36842105263156,221.59876971930595 523.6842105263158,221.59876971930595 550.0,221.59876971930595" fill="none" stroke="rgb(0,255,0)" stroke-width="1"/><circle cx="50.0" cy="264.2555006630348" r="2" fill="rgb(0,255,0)"/><circle cx="76.3157894736842" cy="279.4789917986999" r="2" fill="rgb(0,255,0)"/><circle cx="102.63157894736841" cy="227.0671347954867" r="2" fill="rgb(0,255,0)"/><circle cx="128.94736842105263" cy="221.59876971930595" r="2" fill="rgb(0,255,0)"/><circle cx="155.26315789473682" cy="221.59876971930595" r="2" fill="rgb(0,255,0)"/><circle cx="181.57894736842104" cy="221.59876971930595" r="2" fill="rgb(0,255,0)"/><circle cx="207.89473684210526" cy="221.59876971930595" r="2" fill="rgb(0,255,0)"/><circle cx="234.21052631578945" cy="221.59876971930595" r="2" fill="rgb(0,255,0)"/><circle cx="260.52631578947364" cy="221.59876971930595" r="2" fill="rgb(0,255,0)"/><circle cx="286.8421052631579" cy="221.59876971930595" r="2" fill="rgb(0,255,0)"/><circle cx="313.1578947368421" cy="221.59876971930595" r="2" fill="rgb(0,255,0)"/><circle cx="339.4736842105263" cy="221.59876971930595" r="2" fill="rgb(0,255,0)"/><circle cx="365.7894736842105" cy="221.59876971930595" r="2" fill="rgb(0,255,0)"/><circle cx="392.10526315789474" cy="221.59876971930595" r="2" fill="rgb(0,255,0)"/><circle cx="418.4210526315789" cy="221.59876971930595" r="2" fill="rgb(0,255,0)"/><circle cx="444.7368421052632" cy="221.59876971930595" r="2" fill="rgb(0,255,0)"/><circle cx="471.05263157894734" cy="221.59876971930595" r="2" fill="rgb(0,255,0)"/><circle cx="497.36842105263156" cy="221.59876971930595" r="2" fill="rgb(0,255,0)"/><circle cx="523.6842105263158" cy="221.59876971930595" r="2" fill="rgb(0,255,0)"/><circle cx="550.0" cy="221.59876971930595" r="2" fill="rgb(0,255,0)"/><text x="350.0" y="20.0" text-anchor="middle" fill="rgb(0,0,0)" font-size="20.0">KMeans Mean Centroid Distances</text><text x="350.0" y="575.0" text-anchor="middle" fill="rgb(0,0,0)" font-size="12.0">step</text><text transform="rotate(-90.0 20.0 300.0)" x="20.0" y="300.0" text-anchor="middle" fill="rgb(0,0,0)" font-size="12.0">average distance to centroid</text><text x="620" y="62" fill="rgb(255,0,0)" font-size="12">0</text><text x="620" y="74" fill="rgb(0,0,255)" font-size="12">1</text><text x="620" y="86" fill="rgb(0,255,0)" font-size="12">2</text>
      Sorry, your browser does not support inline SVG.
    </svg>