<?xml version='1.0' encoding='UTF-8'?>
<svg version="1.1" width="700.0" height="600.0" onload="init(evt)" xmlns="http://www.w3.org/2000/svg">
      <style>.caption {
  font-size: 14px;
  font-family: Georgia, serif;
}
</style>
      <script type="text/ecmascript"><![CDATA[
function init(evt) {
  if ( window.svgDocument == null ) {
    svgDocument = evt.target.ownerDocument;
  }
}

function RectHover(evt, i, c) {
  rect = svgDocument.getElementById('rect' + i);
  if( c != null ) {
    rect.setAttributeNS(null, "fill", c)  
  }
  tooltiptext = svgDocument.getElementById('tooltiptext' + i);
  tooltipbg = svgDocument.getElementById('tooltipbg' + i);
  if( tooltipbg != null) {
    tbb = tooltiptext.getBBox();
    tooltipbg.setAttributeNS(null, "width", tbb.width);
    tooltipbg.setAttributeNS(null, "height", tbb.height);
    tooltipbg.setAttributeNS(null, "x", tbb.x);
    tooltipbg.setAttributeNS(null, "y", tbb.y);
    tooltipbg.setAttributeNS(null, "visibility", "visible");
  }
  tooltiptext.setAttributeNS(null,"visibility","visible");
}

function RectUnhover(evt, i, c) {
  rect = svgDocument.getElementById('rect' + i);
  if( c != null ) {
    rect.setAttributeNS(null, "fill", c)  
  }
  tooltiptext = svgDocument.getElementById('tooltiptext' + i);
  tooltiptext.setAttributeNS(null,"visibility","hidden");
  tooltipbg = svgDocument.getElementById('tooltipbg' + i);
  if( tooltipbg != null ) {
    tooltipbg.setAttributeNS(null,"visibility","hidden");
  }
}
]]></script>
      <line x1="50.0" y1="550.0" x2="550.0" y2="550.0" stroke="rgb(0,0,0)" stroke-width="1"/><line x1="50.0" y1="550.0" x2="50.0" y2="50.0" stroke="rgb(0,0,0)" stroke-width="1"/><line x1="50.0" y1="550.0" x2="50.0" y2="50.0" stroke="rgb(192,192,192)" stroke-width="1"/><line x1="50.0" y1="548.0" x2="50.0" y2="552.0" stroke="rgb(192,192,192)" stroke-width="1"/><text text-anchor="middle" alignment-baseline="hanging" x="50.0" y="553.0" font-size="12.0">0</text><line x1="313.1578947368421" y1="550.0" x2="313.1578947368421" y2="50.0" stroke="rgb(192,192,192)" stroke-width="1"/><line x1="313.1578947368421" y1="548.0" x2="313.1578947368421" y2="552.0" stroke="rgb(192,192,192)" stroke-width="1"/><text text-anchor="middle" alignment-baseline="hanging" x="313.1578947368421" y="553.0" font-size="12.0">10</text><line x1="50.0" y1="550.0" x2="550.0" y2="550.0" stroke="rgb(192,192,192)" stroke-width="1"/><text text-anchor="end" alignment-baseline="middle" x="45.0" y="550.0" font-size="12.0">0.00</text><line x1="48.0" y1="550.0" x2="52.0" y2="550.0" stroke="rgb(192,192,192)" stroke-width="1"/><line x1="50.0" y1="513.3698476158194" x2="550.0" y2="513.3698476158194" stroke="rgb(192,192,192)" stroke-width="1"/><text text-anchor="end" alignment-baseline="middle" x="45.0" y="513.3698476158194" font-size="12.0">0.01</text><line x1="48.0" y1="513.3698476158194" x2="52.0" y2="513.3698476158194" stroke="rgb(192,192,192)" stroke-width="1"/><line x1="50.0" y1="476.73969523163873" x2="550.0" y2="476.73969523163873" stroke="rgb(192,192,192)" stroke-width="1"/><text text-anchor="end" alignment-baseline="middle" x="45.0" y="476.73969523163873" font-size="12.0">0.02</text><line x1="48.0" y1="476.73969523163873" x2="52.0" y2="476.73969523163873" stroke="rgb(192,192,192)" stroke-width="1"/><line x1="50.0" y1="440.1095428474581" x2="550.0" y2="440.1095428474581" stroke="rgb(192,192,192)" stroke-width="1"/><text text-anchor="end" alignment-baseline="middle" x="45.0" y="440.1095428474581" font-size="12.0">0.03</text><line x1="48.0" y1="440.1095428474581" x2="52.0" y2="440.1095428474581" stroke="rgb(192,192,192)" stroke-width="1"/><line x1="50.0" y1="403.47939046327747" x2="550.0" y2="403.47939046327747" stroke="rgb(192,192,192)" stroke-width="1"/><text text-anchor="end" alignment-baseline="middle" x="45.0" y="403.47939046327747" font-size="12.0">0.04</text><line x1="48.0" y1="403.47939046327747" x2="52.0" y2="403.47939046327747" stroke="rgb(192,192,192)" stroke-width="1"/><line x1="50.0" y1="366.84923807909684" x2="550.0" y2="366.84923807909684" stroke="rgb(192,192,192)" stroke-width="1"/><text text-anchor="end" alignment-baseline="middle" x="45.0" y="366.84923807909684" font-size="12.0">0.05</text><line x1="48.0" y1="366.84923807909684" x2="52.0" y2="366.84923807909684" stroke="rgb(192,192,192)" stroke-width="1"/><line x1="50.0" y1="330.2190856949162" x2="550.0" y2="330.2190856949162" stroke="rgb(192,192,192)" stroke-width="1"/><text text-anchor="end" alignment-baseline="middle" x="45.0" y="330.2190856949162" font-size="12.0">0.06</text><line x1="48.0" y1="330.2190856949162" x2="52.0" y2="330.2190856949162" stroke="rgb(192,192,192)" stroke-width="1"/><line x1="50.0" y1="293.5889333107356" x2="550.0" y2="293.5889333107356" stroke="rgb(192,192,192)" stroke-width="1"/><text text-anchor="end" alignment-baseline="middle" x="45.0" y="293.5889333107356" font-size="12.0">0.07</text><line x1="48.0" y1="293.5889333107356" x2="52.0" y2="293.5889333107356" stroke="rgb(192,192,192)" stroke-width="1"/><line x1="50.0" y1="256.958780926555" x2="550.0" y2="256.958780926555" stroke="rgb(192,192,192)" stroke-width="1"/><text text-anchor="end" alignment-baseline="middle" x="45.0" y="256.958780926555" font-size="12.0">0.08</text><line x1="48.0" y1="256.958780926555" x2="52.0" y2="256.958780926555" stroke="rgb(192,192,192)" stroke-width="1"/><line x1="50.0" y1="220.32862854237442" x2="550.0" y2="220.32862854237442" stroke="rgb(192,192,192)" stroke-width="1"/><text text-anchor="end" alignment-baseline="middle" x="45.0" y="220.32862854237442" font-size="12.0">0.09</text><line x1="48.0" y1="220.32862854237442" x2="52.0" y2="220.32862854237442" stroke="rgb(192,192,192)" stroke-width="1"/><line x1="50.0" y1="183.69847615819373" x2="550.0" y2="183.69847615819373" stroke="rgb(192,192,192)" stroke-width="1"/><text text-anchor="end" alignment-baseline="middle" x="45.0" y="183.69847615819373" font-size="12.0">0.10</text><line x1="48.0" y1="183.69847615819373" x2="52.0" y2="183.69847615819373" stroke="rgb(192,192,192)" stroke-width="1"/><line x1="50.0" y1="147.06832377401315" x2="550.0" y2="147.06832377401315" stroke="rgb(192,192,192)" stroke-width="1"/><text text-anchor="end" alignment-baseline="middle" x="45.0" y="147.06832377401315" font-size="12.0">0.11</text><line x1="48.0" y1="147.06832377401315" x2="52.0" y2="147.06832377401315" stroke="rgb(192,192,192)" stroke-width="1"/><line x1="50.0" y1="110.43817138983246" x2="550.0" y2="110.43817138983246" stroke="rgb(192,192,192)" stroke-width="1"/><text text-anchor="end" alignment-baseline="middle" x="45.0" y="110.43817138983246" font-size="12.0">0.12</text><line x1="48.0" y1="110.43817138983246" x2="52.0" y2="110.43817138983246" stroke="rgb(192,192,192)" stroke-width="1"/><line x1="50.0" y1="73.80801900565183" x2="550.0" y2="73.80801900565183" stroke="rgb(192,192,192)" stroke-width="1"/><text text-anchor="end" alignment-baseline="middle" x="45.0" y="73.80801900565183" font-size="12.0">0.13</text><line x1="48.0" y1="73.80801900565183" x2="52.0" y2="73.80801900565183" stroke="rgb(192,192,192)" stroke-width="1"/><polyline points="50.0,50.0 76.3157894736842,392.5242592963182 102.63157894736841,472.88457190622927 128.94736842105263,472.88457190622927 155.26315789473682,477.92752879588954 181.57894736842104,477.92752879588954 207.89473684210526,477.92752879588954 234.21052631578945,477.92752879588954 260.52631578947364,477.92752879588954 286.8421052631579,477.92752879588954 313.1578947368421,477.92752879588954 339.4736842105263,477.92752879588954 365.7894736842105,477.92752879588954 392.10526315789474,477.92752879588954 418.4210526315789,477.92752879588954 444.7368421052632,477.92752879588954 471.05263157894734,477.92752879588954 497.36842105263156,477.92752879588954 523.6842105263158,477.92752879588954 550.0,477.92752879588954" fill="none" stroke="rgb(255,0,0)" stroke-width="1"/><circle cx="50.0" cy="50.0" r="2" fill="rgb(255,0,0)"/><circle cx="76.3157894736842" cy="392.5242592963182" r="2" fill="rgb(255,0,0)"/><circle cx="102.63157894736841" cy="472.88457190622927" r="2" fill="rgb(255,0,0)"/><circle cx="128.94736842105263" cy="472.88457190622927" r="2" fill="rgb(255,0,0)"/><circle cx="155.26315789473682" cy="477.92752879588954" r="2" fill="rgb(255,0,0)"/><circle cx="181.57894736842104" cy="477.92752879588954" r="2" fill="rgb(255,0,0)"/><circle cx="207.89473684210526" cy="477.92752879588954" r="2" fill="rgb(255,0,0)"/><circle cx="234.21052631578945" cy="477.92752879588954" r="2" fill="rgb(255,0,0)"/><circle cx="260.52631578947364" cy="477.92752879588954" r="2" fill="rgb(255,0,0)"/><circle cx="286.8421052631579" cy="477.92752879588954" r="2" fill="rgb(255,0,0)"/><circle cx="313.1578947368421" cy="477.92752879588954" r="2" fill="rgb(255,0,0)"/><circle cx="339.4736842105263" cy="477.92752879588954" r="2" fill="rgb(255,0,0)"/><circle cx="365.7894736842105" cy="477.92752879588954" r="2" fill="rgb(255,0,0)"/><circle cx="392.10526315789474" cy="477.92752879588954" r="2" fill="rgb(255,0,0)"/><circle cx="418.4210526315789" cy="477.92752879588954" r="2" fill="rgb(255,0,0)"/><circle cx="444.7368421052632" cy="477.92752879588954" r="2" fill="rgb(255,0,0)"/><circle cx="471.05263157894734" cy="477.92752879588954" r="2" fill="rgb(255,0,0)"/><circle cx="497.36842105263156" cy="477.92752879588954" r="2" fill="rgb(255,0,0)"/><circle cx="523.6842105263158" cy="477.92752879588954" r="2" fill="rgb(255,0,0)"/><circle cx="550.0" cy="477.92752879588954" r="2" fill="rgb(255,0,0)"/><polyline points="50.0,550.0 76.3157894736842,206.8238943638059 102.63157894736841,122.42579692704214 128.94736842105263,122.42579692704214 155.26315789473682,114.44636574541352 181.57894736842104,114.44636574541352 207.89473684210526,114.44636574541352 234.21052631578945,114.44636574541352 260.52631578947364,114.44636574541352 286.8421052631579,114.44636574541352 313.1578947368421,114.44636574541352 339.4736842105263,114.44636574541352 365.7894736842105,114.44636574541352 392.10526315789474,114.44636574541352 418.4210526315789,114.44636574541352 444.7368421052632,114.44636574541352 471.05263157894734,114.44636574541352 497.36842105263156,114.44636574541352 523.6842105263158,114.44636574541352 550.0,114.44636574541352" fill="none" stroke="rgb(0,0,255)" stroke-width="1"/><circle cx="50.0" cy="550.0" r="2" fill="rgb(0,0,255)"/><circle cx="76.3157894736842" cy="206.8238943638059" r="2" fill="rgb(0,0,255)"/><circle cx="102.63157894736841" cy="122.42579692704214" r="2" fill="rgb(0,0,255)"/><circle cx="128.94736842105263" cy="122.42579692704214" r="2" fill="rgb(0,0,255)"/><circle cx="155.26315789473682" cy="114.44636574541352" r="2" fill="rgb(0,0,255)"/><circle cx="181.57894736842104" cy="114.44636574541352" r="2" fill="rgb(0,0,255)"/><circle cx="207.89473684210526" cy="114.44636574541352" r="2" fill="rgb(0,0,255)"/><circle cx="234.21052631578945" cy="114.44636574541352" r="2" fill="rgb(0,0,255)"/><circle cx="260.52631578947364" cy="114.44636574541352" r="2" fill="rgb(0,0,255)"/><circle cx="286.8421052631579" cy="114.44636574541352" r="2" fill="rgb(0,0,255)"/><circle cx="313.1578947368421" cy="114.44636574541352" r="2" fill="rgb(0,0,255)"/><circle cx="339.4736842105263" cy="114.44636574541352" r="2" fill="rgb(0,0,255)"/><circle cx="365.7894736842105" cy="114.44636574541352" r="2" fill="rgb(0,0,255)"/><circle cx="392.10526315789474" cy="114.44636574541352" r="2" fill="rgb(0,0,255)"/><circle cx="418.4210526315789" cy="114.44636574541352" r="2" fill="rgb(0,0,255)"/><circle cx="444.7368421052632" cy="114.44636574541352" r="2" fill="rgb(0,0,255)"/><circle cx="471.05263157894734" cy="114.44636574541352" r="2" fill="rgb(0,0,255)"/><circle cx="497.36842105263156" cy="114.44636574541352" r="2" fill="rgb(0,0,255)"/><circle cx="523.6842105263158" cy="114.44636574541352" r="2" fill="rgb(0,0,255)"/><circle cx="550.0" cy="114.44636574541352" r="2" fill="rgb(0,0,255)"/><polyline points="50.0,329.0354801032929 76.3157894736842,334.9302376453568 102.63157894736841,268.6908338798556 128.94736842105263,268.6908338798556 155.26315789473682,263.92730131513264 181.57894736842104,263.92730131513264 207.89473684210526,263.92730131513264 234.21052631578945,263.92730131513264 260.52631578947364,263.92730131513264 286.8421052631579,263.92730131513264 313.1578947368421,263.92730131513264 339.4736842105263,263.92730131513264 365.7894736842105,263.92730131513264 392.10526315789474,263.92730131513264 418.4210526315789,263.92730131513264 444.7368421052632,263.92730131513264 471.05263157894734,263.92730131513264 497.36842105263156,263.92730131513264 523.6842105263158,263.92730131513264 550.0,263.92730131513264" fill="none" stroke="rgb(0,255,0)" stroke-width="1"/><circle cx="50.0" cy="329.0354801032929" r="2" fill="rgb(0,255,0)"/><circle cx="76.3157894736842" cy="334.9302376453568" r="2" fill="rgb(0,255,0)"/><circle cx="102.63157894736841" cy="268.6908338798556" r="2" fill="rgb(0,255,0)"/><circle cx="128.94736842105263" cy="268.6908338798556" r="2" fill="rgb(0,255,0)"/><circle cx="155.26315789473682" cy="263.92730131513264" r="2" fill="rgb(0,255,0)"/><circle cx="181.57894736842104" cy="263.92730131513264" r="2" fill="rgb(0,255,0)"/><circle cx="207.89473684210526" cy="263.92730131513264" r="2" fill="rgb(0,255,0)"/><circle cx="234.21052631578945" cy="263.92730131513264" r="2" fill="rgb(0,255,0)"/><circle cx="260.52631578947364" cy="263.92730131513264" r="2" fill="rgb(0,255,0)"/><circle cx="286.8421052631579" cy="263.92730131513264" r="2" fill="rgb(0,255,0)"/><circle cx="313.1578947368421" cy="263.92730131513264" r="2" fill="rgb(0,255,0)"/><circle cx="339.4736842105263" cy="263.92730131513264" r="2" fill="rgb(0,255,0)"/><circle cx="365.7894736842105" cy="263.92730131513264" r="2" fill="rgb(0,255,0)"/><circle cx="392.10526315789474" cy="263.92730131513264" r="2" fill="rgb(0,255,0)"/><circle cx="418.4210526315789" cy="263.92730131513264" r="2" fill="rgb(0,255,0)"/><circle cx="444.7368421052632" cy="263.92730131513264" r="2" fill="rgb(0,255,0)"/><circle cx="471.05263157894734" cy="263.92730131513264" r="2" fill="rgb(0,255,0)"/><circle cx="497.36842105263156" cy="263.92730131513264" r="2" fill="rgb(0,255,0)"/><circle cx="523.6842105263158" cy="263.92730131513264" r="2" fill="rgb(0,255,0)"/><circle cx="550.0" cy="263.92730131513264" r="2" fill="rgb(0,255,0)"/><text x="350.0" y="20.0" text-anchor="middle" fill="rgb(0,0,0)" font-size="20.0">KMeans Mean Centroid Distances</text><text x="350.0" y="575.0" text-anchor="middle" fill="rgb(0,0,0)" font-size="12.0">step</text><text transform="rotate(-90.0 20.0 300.0)" x="20.0" y="300.0" text-anchor="middle" fill="rgb(0,0,0)" font-size="12.0">average distance to centroid</text><text x="620" y="62" fill="rgb(255,0,0)" font-size="12">0</text><text x="620" y="74" fill="rgb(0,0,255)" font-size="12">1</text><text x="620" y="86" fill="rgb(0,255,0)" font-size="12">2</text>
      Sorry, your browser does not support inline SVG.
    </svg>