<?xml version='1.0' encoding='UTF-8'?>
<svg version="1.1" width="700.0" height="600.0" onload="init(evt)" xmlns="http://www.w3.org/2000/svg">
      <style>.caption {
  font-size: 14px;
  font-family: Georgia, serif;
}
</style>
      <script type="text/ecmascript"><![CDATA[
function init(evt) {
  if ( window.svgDocument == null ) {
    svgDocument = evt.target.ownerDocument;
  }
}

function RectHover(evt, i, c) {
  rect = svgDocument.getElementById('rect' + i);
  if( c != null ) {
    rect.setAttributeNS(null, "fill", c)  
  }
  tooltiptext = svgDocument.getElementById('tooltiptext' + i);
  tooltipbg = svgDocument.getElementById('tooltipbg' + i);
  if( tooltipbg != null) {
    tbb = tooltiptext.getBBox();
    tooltipbg.setAttributeNS(null, "width", tbb.width);
    tooltipbg.setAttributeNS(null, "height", tbb.height);
    tooltipbg.setAttributeNS(null, "x", tbb.x);
    tooltipbg.setAttributeNS(null, "y", tbb.y);
    tooltipbg.setAttributeNS(null, "visibility", "visible");
  }
  tooltiptext.setAttributeNS(null,"visibility","visible");
}

function RectUnhover(evt, i, c) {
  rect = svgDocument.getElementById('rect' + i);
  if( c != null ) {
    rect.setAttributeNS(null, "fill", c)  
  }
  tooltiptext = svgDocument.getElementById('tooltiptext' + i);
  tooltiptext.setAttributeNS(null,"visibility","hidden");
  tooltipbg = svgDocument.getElementById('tooltipbg' + i);
  if( tooltipbg != null ) {
    tooltipbg.setAttributeNS(null,"visibility","hidden");
  }
}
]]></script>
      <line x1="50.0" y1="550.0" x2="550.0" y2="550.0" stroke="rgb(0,0,0)" stroke-width="1"/><line x1="50.0" y1="550.0" x2="50.0" y2="50.0" stroke="rgb(0,0,0)" stroke-width="1"/><line x1="50.0" y1="550.0" x2="50.0" y2="50.0" stroke="rgb(192,192,192)" stroke-width="1"/><line x1="50.0" y1="548.0" x2="50.0" y2="552.0" stroke="rgb(192,192,192)" stroke-width="1"/><text text-anchor="middle" alignment-baseline="hanging" x="50.0" y="553.0" font-size="12.0">0</text><line x1="313.1578947368421" y1="550.0" x2="313.1578947368421" y2="50.0" stroke="rgb(192,192,192)" stroke-width="1"/><line x1="313.1578947368421" y1="548.0" x2="313.1578947368421" y2="552.0" stroke="rgb(192,192,192)" stroke-width="1"/><text text-anchor="middle" alignment-baseline="hanging" x="313.1578947368421" y="553.0" font-size="12.0">10</text><line x1="50.0" y1="550.0" x2="550.0" y2="550.0" stroke="rgb(192,192,192)" stroke-width="1"/><text text-anchor="end" alignment-baseline="middle" x="45.0" y="550.0" font-size="12.0">0.0</text><line x1="48.0" y1="550.0" x2="52.0" y2="550.0" stroke="rgb(192,192,192)" stroke-width="1"/><line x1="50.0" y1="319.1234607035477" x2="550.0" y2="319.1234607035477" stroke="rgb(192,192,192)" stroke-width="1"/><text text-anchor="end" alignment-baseline="middle" x="45.0" y="319.1234607035477" font-size="12.0">0.1</text><line x1="48.0" y1="319.1234607035477" x2="52.0" y2="319.1234607035477" stroke="rgb(192,192,192)" stroke-width="1"/><line x1="50.0" y1="88.2469214070955" x2="550.0" y2="88.2469214070955" stroke="rgb(192,192,192)" stroke-width="1"/><text text-anchor="end" alignment-baseline="middle" x="45.0" y="88.2469214070955" font-size="12.0">0.2</text><line x1="48.0" y1="88.2469214070955" x2="52.0" y2="88.2469214070955" stroke="rgb(192,192,192)" stroke-width="1"/><polyline points="50.0,284.8915038418008 76.3157894736842,526.147721088622 102.63157894736841,512.4726632511213 128.94736842105263,507.60358625703947 155.26315789473682,507.28615833604346 181.57894736842104,507.28615833604346 207.89473684210526,507.28615833604346 234.21052631578945,507.28615833604346 260.52631578947364,507.28615833604346 286.8421052631579,507.28615833604346 313.1578947368421,507.28615833604346 339.4736842105263,507.28615833604346 365.7894736842105,507.28615833604346 392.10526315789474,507.28615833604346 418.4210526315789,507.28615833604346 444.7368421052632,507.28615833604346 471.05263157894734,507.28615833604346 497.36842105263156,507.28615833604346 523.6842105263158,507.28615833604346 550.0,507.28615833604346" fill="none" stroke="rgb(255,0,0)" stroke-width="1"/><circle cx="50.0" cy="284.8915038418008" r="2" fill="rgb(255,0,0)"/><circle cx="76.3157894736842" cy="526.147721088622" r="2" fill="rgb(255,0,0)"/><circle cx="102.63157894736841" cy="512.4726632511213" r="2" fill="rgb(255,0,0)"/><circle cx="128.94736842105263" cy="507.60358625703947" r="2" fill="rgb(255,0,0)"/><circle cx="155.26315789473682" cy="507.28615833604346" r="2" fill="rgb(255,0,0)"/><circle cx="181.57894736842104" cy="507.28615833604346" r="2" fill="rgb(255,0,0)"/><circle cx="207.89473684210526" cy="507.28615833604346" r="2" fill="rgb(255,0,0)"/><circle cx="234.21052631578945" cy="507.28615833604346" r="2" fill="rgb(255,0,0)"/><circle cx="260.52631578947364" cy="507.28615833604346" r="2" fill="rgb(255,0,0)"/><circle cx="286.8421052631579" cy="507.28615833604346" r="2" fill="rgb(255,0,0)"/><circle cx="313.1578947368421" cy="507.28615833604346" r="2" fill="rgb(255,0,0)"/><circle cx="339.4736842105263" cy="507.28615833604346" r="2" fill="rgb(255,0,0)"/><circle cx="365.7894736842105" cy="507.28615833604346" r="2" fill="rgb(255,0,0)"/><circle cx="392.10526315789474" cy="507.28615833604346" r="2" fill="rgb(255,0,0)"/><circle cx="418.4210526315789" cy="507.28615833604346" r="2" fill="rgb(255,0,0)"/><circle cx="444.7368421052632" cy="507.28615833604346" r="2" fill="rgb(255,0,0)"/><circle cx="471.05263157894734" cy="507.28615833604346" r="2" fill="rgb(255,0,0)"/><circle cx="497.36842105263156" cy="507.28615833604346" r="2" fill="rgb(255,0,0)"/><circle cx="523.6842105263158" cy="507.28615833604346" r="2" fill="rgb(255,0,0)"/><circle cx="550.0" cy="507.28615833604346" r="2" fill="rgb(255,0,0)"/><polyline points="50.0,50.0 76.3157894736842,217.4572958174494 102.63157894736841,269.52275034636415 128.94736842105263,275.02981692622564 155.26315789473682,276.9582686104303 181.57894736842104,276.9582686104303 207.89473684210526,276.9582686104303 234.21052631578945,276.9582686104303 260.52631578947364,276.9582686104303 286.8421052631579,276.9582686104303 313.1578947368421,276.9582686104303 339.4736842105263,276.9582686104303 365.7894736842105,276.9582686104303 392.10526315789474,276.9582686104303 418.4210526315789,276.9582686104303 444.7368421052632,276.9582686104303 471.05263157894734,276.9582686104303 497.36842105263156,276.9582686104303 523.6842105263158,276.9582686104303 550.0,276.9582686104303" fill="none" stroke="rgb(0,0,255)" stroke-width="1"/><circle cx="50.0" cy="50.0" r="2" fill="rgb(0,0,255)"/><circle cx="76.3157894736842" cy="217.4572958174494" r="2" fill="rgb(0,0,255)"/><circle cx="102.63157894736841" cy="269.52275034636415" r="2" fill="rgb(0,0,255)"/><circle cx="128.94736842105263" cy="275.02981692622564" r="2" fill="rgb(0,0,255)"/><circle cx="155.26315789473682" cy="276.9582686104303" r="2" fill="rgb(0,0,255)"/><circle cx="181.57894736842104" cy="276.9582686104303" r="2" fill="rgb(0,0,255)"/><circle cx="207.89473684210526" cy="276.9582686104303" r="2" fill="rgb(0,0,255)"/><circle cx="234.21052631578945" cy="276.9582686104303" r="2" fill="rgb(0,0,255)"/><circle cx="260.52631578947364" cy="276.9582686104303" r="2" fill="rgb(0,0,255)"/><circle cx="286.8421052631579" cy="276.9582686104303" r="2" fill="rgb(0,0,255)"/><circle cx="313.1578947368421" cy="276.9582686104303" r="2" fill="rgb(0,0,255)"/><circle cx="339.4736842105263" cy="276.9582686104303" r="2" fill="rgb(0,0,255)"/><circle cx="365.7894736842105" cy="276.9582686104303" r="2" fill="rgb(0,0,255)"/><circle cx="392.10526315789474" cy="276.9582686104303" r="2" fill="rgb(0,0,255)"/><circle cx="418.4210526315789" cy="276.9582686104303" r="2" fill="rgb(0,0,255)"/><circle cx="444.7368421052632" cy="276.9582686104303" r="2" fill="rgb(0,0,255)"/><circle cx="471.05263157894734" cy="276.9582686104303" r="2" fill="rgb(0,0,255)"/><circle cx="497.36842105263156" cy="276.9582686104303" r="2" fill="rgb(0,0,255)"/><circle cx="523.6842105263158" cy="276.9582686104303" r="2" fill="rgb(0,0,255)"/><circle cx="550.0" cy="276.9582686104303" r="2" fill="rgb(0,0,255)"/><polyline points="50.0,62.54821180924188 76.3157894736842,314.2083255587742 102.63157894736841,361.78817072435163 128.94736842105263,366.42142727570297 155.26315789473682,365.4255133297577 181.57894736842104,365.4255133297577 207.89473684210526,365.4255133297577 234.21052631578945,365.4255133297577 260.52631578947364,365.4255133297577 286.8421052631579,365.4255133297577 313.1578947368421,365.4255133297577 339.4736842105263,365.4255133297577 365.7894736842105,365.4255133297577 392.10526315789474,365.4255133297577 418.4210526315789,365.4255133297577 444.7368421052632,365.4255133297577 471.05263157894734,365.4255133297577 497.36842105263156,365.4255133297577 523.6842105263158,365.4255133297577 550.0,365.4255133297577" fill="none" stroke="rgb(0,255,0)" stroke-width="1"/><circle cx="50.0" cy="62.54821180924188" r="2" fill="rgb(0,255,0)"/><circle cx="76.3157894736842" cy="314.2083255587742" r="2" fill="rgb(0,255,0)"/><circle cx="102.63157894736841" cy="361.78817072435163" r="2" fill="rgb(0,255,0)"/><circle cx="128.94736842105263" cy="366.42142727570297" r="2" fill="rgb(0,255,0)"/><circle cx="155.26315789473682" cy="365.4255133297577" r="2" fill="rgb(0,255,0)"/><circle cx="181.57894736842104" cy="365.4255133297577" r="2" fill="rgb(0,255,0)"/><circle cx="207.89473684210526" cy="365.4255133297577" r="2" fill="rgb(0,255,0)"/><circle cx="234.21052631578945" cy="365.4255133297577" r="2" fill="rgb(0,255,0)"/><circle cx="260.52631578947364" cy="365.4255133297577" r="2" fill="rgb(0,255,0)"/><circle cx="286.8421052631579" cy="365.4255133297577" r="2" fill="rgb(0,255,0)"/><circle cx="313.1578947368421" cy="365.4255133297577" r="2" fill="rgb(0,255,0)"/><circle cx="339.4736842105263" cy="365.4255133297577" r="2" fill="rgb(0,255,0)"/><circle cx="365.7894736842105" cy="365.4255133297577" r="2" fill="rgb(0,255,0)"/><circle cx="392.10526315789474" cy="365.4255133297577" r="2" fill="rgb(0,255,0)"/><circle cx="418.4210526315789" cy="365.4255133297577" r="2" fill="rgb(0,255,0)"/><circle cx="444.7368421052632" cy="365.4255133297577" r="2" fill="rgb(0,255,0)"/><circle cx="471.05263157894734" cy="365.4255133297577" r="2" fill="rgb(0,255,0)"/><circle cx="497.36842105263156" cy="365.4255133297577" r="2" fill="rgb(0,255,0)"/><circle cx="523.6842105263158" cy="365.4255133297577" r="2" fill="rgb(0,255,0)"/><circle cx="550.0" cy="365.4255133297577" r="2" fill="rgb(0,255,0)"/><text x="350.0" y="20.0" text-anchor="middle" fill="rgb(0,0,0)" font-size="20.0">KMeans Mean Centroid Distances</text><text x="350.0" y="575.0" text-anchor="middle" fill="rgb(0,0,0)" font-size="12.0">step</text><text transform="rotate(-90.0 20.0 300.0)" x="20.0" y="300.0" text-anchor="middle" fill="rgb(0,0,0)" font-size="12.0">average distance to centroid</text><text x="620" y="62" fill="rgb(255,0,0)" font-size="12">0</text><text x="620" y="74" fill="rgb(0,0,255)" font-size="12">1</text><text x="620" y="86" fill="rgb(0,255,0)" font-size="12">2</text>
      Sorry, your browser does not support inline SVG.
    </svg>