<?xml version='1.0' encoding='UTF-8'?>
<svg version="1.1" width="700.0" height="600.0" onload="init(evt)" xmlns="http://www.w3.org/2000/svg">
      <style>.caption {
  font-size: 14px;
  font-family: Georgia, serif;
}
</style>
      <script type="text/ecmascript"><![CDATA[
function init(evt) {
  if ( window.svgDocument == null ) {
    svgDocument = evt.target.ownerDocument;
  }
}

function RectHover(evt, i, c) {
  rect = svgDocument.getElementById('rect' + i);
  if( c != null ) {
    rect.setAttributeNS(null, "fill", c)  
  }
  tooltiptext = svgDocument.getElementById('tooltiptext' + i);
  tooltipbg = svgDocument.getElementById('tooltipbg' + i);
  if( tooltipbg != null) {
    tbb = tooltiptext.getBBox();
    tooltipbg.setAttributeNS(null, "width", tbb.width);
    tooltipbg.setAttributeNS(null, "height", tbb.height);
    tooltipbg.setAttributeNS(null, "x", tbb.x);
    tooltipbg.setAttributeNS(null, "y", tbb.y);
    tooltipbg.setAttributeNS(null, "visibility", "visible");
  }
  tooltiptext.setAttributeNS(null,"visibility","visible");
}

function RectUnhover(evt, i, c) {
  rect = svgDocument.getElementById('rect' + i);
  if( c != null ) {
    rect.setAttributeNS(null, "fill", c)  
  }
  tooltiptext = svgDocument.getElementById('tooltiptext' + i);
  tooltiptext.setAttributeNS(null,"visibility","hidden");
  tooltipbg = svgDocument.getElementById('tooltipbg' + i);
  if( tooltipbg != null ) {
    tooltipbg.setAttributeNS(null,"visibility","hidden");
  }
}
]]></script>
      <line x1="50.0" y1="550.0" x2="550.0" y2="550.0" stroke="rgb(0,0,0)" stroke-width="1"/><line x1="50.0" y1="550.0" x2="50.0" y2="50.0" stroke="rgb(0,0,0)" stroke-width="1"/><line x1="50.0" y1="550.0" x2="50.0" y2="50.0" stroke="rgb(192,192,192)" stroke-width="1"/><line x1="50.0" y1="548.0" x2="50.0" y2="552.0" stroke="rgb(192,192,192)" stroke-width="1"/><text text-anchor="middle" alignment-baseline="hanging" x="50.0" y="553.0" font-size="12.0">0</text><line x1="313.1578947368421" y1="550.0" x2="313.1578947368421" y2="50.0" stroke="rgb(192,192,192)" stroke-width="1"/><line x1="313.1578947368421" y1="548.0" x2="313.1578947368421" y2="552.0" stroke="rgb(192,192,192)" stroke-width="1"/><text text-anchor="middle" alignment-baseline="hanging" x="313.1578947368421" y="553.0" font-size="12.0">10</text><line x1="50.0" y1="550.0" x2="550.0" y2="550.0" stroke="rgb(192,192,192)" stroke-width="1"/><text text-anchor="end" alignment-baseline="middle" x="45.0" y="550.0" font-size="12.0">0.0</text><line x1="48.0" y1="550.0" x2="52.0" y2="550.0" stroke="rgb(192,192,192)" stroke-width="1"/><line x1="50.0" y1="351.06822911319284" x2="550.0" y2="351.06822911319284" stroke="rgb(192,192,192)" stroke-width="1"/><text text-anchor="end" alignment-baseline="middle" x="45.0" y="351.06822911319284" font-size="12.0">0.1</text><line x1="48.0" y1="351.06822911319284" x2="52.0" y2="351.06822911319284" stroke="rgb(192,192,192)" stroke-width="1"/><line x1="50.0" y1="152.13645822638568" x2="550.0" y2="152.13645822638568" stroke="rgb(192,192,192)" stroke-width="1"/><text text-anchor="end" alignment-baseline="middle" x="45.0" y="152.13645822638568" font-size="12.0">0.2</text><line x1="48.0" y1="152.13645822638568" x2="52.0" y2="152.13645822638568" stroke="rgb(192,192,192)" stroke-width="1"/><polyline points="50.0,50.0 76.3157894736842,372.4379505925215 102.63157894736841,465.00132323421815 128.94736842105263,512.4051255209299 155.26315789473682,542.554861384711 181.57894736842104,539.0337255675985 207.89473684210526,524.7736265077966 234.21052631578945,513.4696808483109 260.52631578947364,510.8587368721567 286.8421052631579,510.8587368721567 313.1578947368421,510.8587368721567 339.4736842105263,510.8587368721567 365.7894736842105,510.8587368721567 392.10526315789474,510.8587368721567 418.4210526315789,510.8587368721567 444.7368421052632,510.8587368721567 471.05263157894734,510.8587368721567 497.36842105263156,510.8587368721567 523.6842105263158,510.8587368721567 550.0,510.8587368721567" fill="none" stroke="rgb(255,0,0)" stroke-width="1"/><circle cx="50.0" cy="50.0" r="2" fill="rgb(255,0,0)"/><circle cx="76.3157894736842" cy="372.4379505925215" r="2" fill="rgb(255,0,0)"/><circle cx="102.63157894736841" cy="465.00132323421815" r="2" fill="rgb(255,0,0)"/><circle cx="128.94736842105263" cy="512.4051255209299" r="2" fill="rgb(255,0,0)"/><circle cx="155.26315789473682" cy="542.554861384711" r="2" fill="rgb(255,0,0)"/><circle cx="181.57894736842104" cy="539.0337255675985" r="2" fill="rgb(255,0,0)"/><circle cx="207.89473684210526" cy="524.7736265077966" r="2" fill="rgb(255,0,0)"/><circle cx="234.21052631578945" cy="513.4696808483109" r="2" fill="rgb(255,0,0)"/><circle cx="260.52631578947364" cy="510.8587368721567" r="2" fill="rgb(255,0,0)"/><circle cx="286.8421052631579" cy="510.8587368721567" r="2" fill="rgb(255,0,0)"/><circle cx="313.1578947368421" cy="510.8587368721567" r="2" fill="rgb(255,0,0)"/><circle cx="339.4736842105263" cy="510.8587368721567" r="2" fill="rgb(255,0,0)"/><circle cx="365.7894736842105" cy="510.8587368721567" r="2" fill="rgb(255,0,0)"/><circle cx="392.10526315789474" cy="510.8587368721567" r="2" fill="rgb(255,0,0)"/><circle cx="418.4210526315789" cy="510.8587368721567" r="2" fill="rgb(255,0,0)"/><circle cx="444.7368421052632" cy="510.8587368721567" r="2" fill="rgb(255,0,0)"/><circle cx="471.05263157894734" cy="510.8587368721567" r="2" fill="rgb(255,0,0)"/><circle cx="497.36842105263156" cy="510.8587368721567" r="2" fill="rgb(255,0,0)"/><circle cx="523.6842105263158" cy="510.8587368721567" r="2" fill="rgb(255,0,0)"/><circle cx="550.0" cy="510.8587368721567" r="2" fill="rgb(255,0,0)"/><polyline points="50.0,146.0954535507002 76.3157894736842,356.57199036958696 102.63157894736841,346.8404550489271 128.94736842105263,323.98521281138926 155.26315789473682,298.33027932633956 181.57894736842104,284.9688368413666 207.89473684210526,301.7309345834267 234.21052631578945,313.0755137502356 260.52631578947364,313.45865321633505 286.8421052631579,313.45865321633505 313.1578947368421,313.45865321633505 339.4736842105263,313.45865321633505 365.7894736842105,313.45865321633505 392.10526315789474,313.45865321633505 418.4210526315789,313.45865321633505 444.7368421052632,313.45865321633505 471.05263157894734,313.45865321633505 497.36842105263156,313.45865321633505 523.6842105263158,313.45865321633505 550.0,313.45865321633505" fill="none" stroke="rgb(0,0,255)" stroke-width="1"/><circle cx="50.0" cy="146.0954535507002" r="2" fill="rgb(0,0,255)"/><circle cx="76.3157894736842" cy="356.57199036958696" r="2" fill="rgb(0,0,255)"/><circle cx="102.63157894736841" cy="346.8404550489271" r="2" fill="rgb(0,0,255)"/><circle cx="128.94736842105263" cy="323.98521281138926" r="2" fill="rgb(0,0,255)"/><circle cx="155.26315789473682" cy="298.33027932633956" r="2" fill="rgb(0,0,255)"/><circle cx="181.57894736842104" cy="284.9688368413666" r="2" fill="rgb(0,0,255)"/><circle cx="207.89473684210526" cy="301.7309345834267" r="2" fill="rgb(0,0,255)"/><circle cx="234.21052631578945" cy="313.0755137502356" r="2" fill="rgb(0,0,255)"/><circle cx="260.52631578947364" cy="313.45865321633505" r="2" fill="rgb(0,0,255)"/><circle cx="286.8421052631579" cy="313.45865321633505" r="2" fill="rgb(0,0,255)"/><circle cx="313.1578947368421" cy="313.45865321633505" r="2" fill="rgb(0,0,255)"/><circle cx="339.4736842105263" cy="313.45865321633505" r="2" fill="rgb(0,0,255)"/><circle cx="365.7894736842105" cy="313.45865321633505" r="2" fill="rgb(0,0,255)"/><circle cx="392.10526315789474" cy="313.45865321633505" r="2" fill="rgb(0,0,255)"/><circle cx="418.4210526315789" cy="313.45865321633505" r="2" fill="rgb(0,0,255)"/><circle cx="444.7368421052632" cy="313.45865321633505" r="2" fill="rgb(0,0,255)"/><circle cx="471.05263157894734" cy="313.45865321633505" r="2" fill="rgb(0,0,255)"/><circle cx="497.36842105263156" cy="313.45865321633505" r="2" fill="rgb(0,0,255)"/><circle cx="523.6842105263158" cy="313.45865321633505" r="2" fill="rgb(0,0,255)"/><circle cx="550.0" cy="313.45865321633505" r="2" fill="rgb(0,0,255)"/><polyline points="50.0,56.517650541922194 76.3157894736842,257.1447693448656 102.63157894736841,273.5698659171611 128.94736842105263,319.87731430261977 155.26315789473682,349.7488070862769 181.57894736842104,364.9767901001262 207.89473684210526,380.7339082614501 234.21052631578945,391.8219075866142 260.52631578947364,394.6390614079843 286.8421052631579,394.6390614079843 313.1578947368421,394.6390614079843 339.4736842105263,394.6390614079843 365.7894736842105,394.6390614079843 392.10526315789474,394.6390614079843 418.4210526315789,394.6390614079843 444.7368421052632,394.6390614079843 471.05263157894734,394.6390614079843 497.36842105263156,394.6390614079843 523.6842105263158,394.6390614079843 550.0,394.6390614079843" fill="none" stroke="rgb(0,255,0)" stroke-width="1"/><circle cx="50.0" cy="56.517650541922194" r="2" fill="rgb(0,255,0)"/><circle cx="76.3157894736842" cy="257.1447693448656" r="2" fill="rgb(0,255,0)"/><circle cx="102.63157894736841" cy="273.5698659171611" r="2" fill="rgb(0,255,0)"/><circle cx="128.94736842105263" cy="319.87731430261977" r="2" fill="rgb(0,255,0)"/><circle cx="155.26315789473682" cy="349.7488070862769" r="2" fill="rgb(0,255,0)"/><circle cx="181.57894736842104" cy="364.9767901001262" r="2" fill="rgb(0,255,0)"/><circle cx="207.89473684210526" cy="380.7339082614501" r="2" fill="rgb(0,255,0)"/><circle cx="234.21052631578945" cy="391.8219075866142" r="2" fill="rgb(0,255,0)"/><circle cx="260.52631578947364" cy="394.6390614079843" r="2" fill="rgb(0,255,0)"/><circle cx="286.8421052631579" cy="394.6390614079843" r="2" fill="rgb(0,255,0)"/><circle cx="313.1578947368421" cy="394.6390614079843" r="2" fill="rgb(0,255,0)"/><circle cx="339.4736842105263" cy="394.6390614079843" r="2" fill="rgb(0,255,0)"/><circle cx="365.7894736842105" cy="394.6390614079843" r="2" fill="rgb(0,255,0)"/><circle cx="392.10526315789474" cy="394.6390614079843" r="2" fill="rgb(0,255,0)"/><circle cx="418.4210526315789" cy="394.6390614079843" r="2" fill="rgb(0,255,0)"/><circle cx="444.7368421052632" cy="394.6390614079843" r="2" fill="rgb(0,255,0)"/><circle cx="471.05263157894734" cy="394.6390614079843" r="2" fill="rgb(0,255,0)"/><circle cx="497.36842105263156" cy="394.6390614079843" r="2" fill="rgb(0,255,0)"/><circle cx="523.6842105263158" cy="394.6390614079843" r="2" fill="rgb(0,255,0)"/><circle cx="550.0" cy="394.6390614079843" r="2" fill="rgb(0,255,0)"/><text x="350.0" y="20.0" text-anchor="middle" fill="rgb(0,0,0)" font-size="20.0">KMeans Mean Centroid Distances</text><text x="350.0" y="575.0" text-anchor="middle" fill="rgb(0,0,0)" font-size="12.0">step</text><text transform="rotate(-90.0 20.0 300.0)" x="20.0" y="300.0" text-anchor="middle" fill="rgb(0,0,0)" font-size="12.0">average distance to centroid</text><text x="620" y="62" fill="rgb(255,0,0)" font-size="12">0</text><text x="620" y="74" fill="rgb(0,0,255)" font-size="12">1</text><text x="620" y="86" fill="rgb(0,255,0)" font-size="12">2</text>
      Sorry, your browser does not support inline SVG.
    </svg>