<?xml version='1.0' encoding='UTF-8'?>
<svg version="1.1" width="700.0" height="600.0" onload="init(evt)" xmlns="http://www.w3.org/2000/svg">
      <style>.caption {
  font-size: 14px;
  font-family: Georgia, serif;
}
</style>
      <script type="text/ecmascript"><![CDATA[
function init(evt) {
  if ( window.svgDocument == null ) {
    svgDocument = evt.target.ownerDocument;
  }
}

function RectHover(evt, i, c) {
  rect = svgDocument.getElementById('rect' + i);
  if( c != null ) {
    rect.setAttributeNS(null, "fill", c)  
  }
  tooltiptext = svgDocument.getElementById('tooltiptext' + i);
  tooltipbg = svgDocument.getElementById('tooltipbg' + i);
  if( tooltipbg != null) {
    tbb = tooltiptext.getBBox();
    tooltipbg.setAttributeNS(null, "width", tbb.width);
    tooltipbg.setAttributeNS(null, "height", tbb.height);
    tooltipbg.setAttributeNS(null, "x", tbb.x);
    tooltipbg.setAttributeNS(null, "y", tbb.y);
    tooltipbg.setAttributeNS(null, "visibility", "visible");
  }
  tooltiptext.setAttributeNS(null,"visibility","visible");
}

function RectUnhover(evt, i, c) {
  rect = svgDocument.getElementById('rect' + i);
  if( c != null ) {
    rect.setAttributeNS(null, "fill", c)  
  }
  tooltiptext = svgDocument.getElementById('tooltiptext' + i);
  tooltiptext.setAttributeNS(null,"visibility","hidden");
  tooltipbg = svgDocument.getElementById('tooltipbg' + i);
  if( tooltipbg != null ) {
    tooltipbg.setAttributeNS(null,"visibility","hidden");
  }
}
]]></script>
      <line x1="50.0" y1="550.0" x2="550.0" y2="550.0" stroke="rgb(0,0,0)" stroke-width="1"/><line x1="50.0" y1="550.0" x2="50.0" y2="50.0" stroke="rgb(0,0,0)" stroke-width="1"/><line x1="50.0" y1="550.0" x2="50.0" y2="50.0" stroke="rgb(192,192,192)" stroke-width="1"/><line x1="50.0" y1="548.0" x2="50.0" y2="552.0" stroke="rgb(192,192,192)" stroke-width="1"/><text text-anchor="middle" alignment-baseline="hanging" x="50.0" y="553.0" font-size="12.0">0</text><line x1="313.1578947368421" y1="550.0" x2="313.1578947368421" y2="50.0" stroke="rgb(192,192,192)" stroke-width="1"/><line x1="313.1578947368421" y1="548.0" x2="313.1578947368421" y2="552.0" stroke="rgb(192,192,192)" stroke-width="1"/><text text-anchor="middle" alignment-baseline="hanging" x="313.1578947368421" y="553.0" font-size="12.0">10</text><line x1="50.0" y1="550.0" x2="550.0" y2="550.0" stroke="rgb(192,192,192)" stroke-width="1"/><text text-anchor="end" alignment-baseline="middle" x="45.0" y="550.0" font-size="12.0">0.00</text><line x1="48.0" y1="550.0" x2="52.0" y2="550.0" stroke="rgb(192,192,192)" stroke-width="1"/><line x1="50.0" y1="510.81856614290075" x2="550.0" y2="510.81856614290075" stroke="rgb(192,192,192)" stroke-width="1"/><text text-anchor="end" alignment-baseline="middle" x="45.0" y="510.81856614290075" font-size="12.0">0.01</text><line x1="48.0" y1="510.81856614290075" x2="52.0" y2="510.81856614290075" stroke="rgb(192,192,192)" stroke-width="1"/><line x1="50.0" y1="471.63713228580144" x2="550.0" y2="471.63713228580144" stroke="rgb(192,192,192)" stroke-width="1"/><text text-anchor="end" alignment-baseline="middle" x="45.0" y="471.63713228580144" font-size="12.0">0.02</text><line x1="48.0" y1="471.63713228580144" x2="52.0" y2="471.63713228580144" stroke="rgb(192,192,192)" stroke-width="1"/><line x1="50.0" y1="432.4556984287022" x2="550.0" y2="432.4556984287022" stroke="rgb(192,192,192)" stroke-width="1"/><text text-anchor="end" alignment-baseline="middle" x="45.0" y="432.4556984287022" font-size="12.0">0.03</text><line x1="48.0" y1="432.4556984287022" x2="52.0" y2="432.4556984287022" stroke="rgb(192,192,192)" stroke-width="1"/><line x1="50.0" y1="393.2742645716029" x2="550.0" y2="393.2742645716029" stroke="rgb(192,192,192)" stroke-width="1"/><text text-anchor="end" alignment-baseline="middle" x="45.0" y="393.2742645716029" font-size="12.0">0.04</text><line x1="48.0" y1="393.2742645716029" x2="52.0" y2="393.2742645716029" stroke="rgb(192,192,192)" stroke-width="1"/><line x1="50.0" y1="354.09283071450363" x2="550.0" y2="354.09283071450363" stroke="rgb(192,192,192)" stroke-width="1"/><text text-anchor="end" alignment-baseline="middle" x="45.0" y="354.09283071450363" font-size="12.0">0.05</text><line x1="48.0" y1="354.09283071450363" x2="52.0" y2="354.09283071450363" stroke="rgb(192,192,192)" stroke-width="1"/><line x1="50.0" y1="314.9113968574044" x2="550.0" y2="314.9113968574044" stroke="rgb(192,192,192)" stroke-width="1"/><text text-anchor="end" alignment-baseline="middle" x="45.0" y="314.9113968574044" font-size="12.0">0.06</text><line x1="48.0" y1="314.9113968574044" x2="52.0" y2="314.9113968574044" stroke="rgb(192,192,192)" stroke-width="1"/><line x1="50.0" y1="275.7299630003051" x2="550.0" y2="275.7299630003051" stroke="rgb(192,192,192)" stroke-width="1"/><text text-anchor="end" alignment-baseline="middle" x="45.0" y="275.7299630003051" font-size="12.0">0.07</text><line x1="48.0" y1="275.7299630003051" x2="52.0" y2="275.7299630003051" stroke="rgb(192,192,192)" stroke-width="1"/><line x1="50.0" y1="236.54852914320583" x2="550.0" y2="236.54852914320583" stroke="rgb(192,192,192)" stroke-width="1"/><text text-anchor="end" alignment-baseline="middle" x="45.0" y="236.54852914320583" font-size="12.0">0.08</text><line x1="48.0" y1="236.54852914320583" x2="52.0" y2="236.54852914320583" stroke="rgb(192,192,192)" stroke-width="1"/><line x1="50.0" y1="197.36709528610658" x2="550.0" y2="197.36709528610658" stroke="rgb(192,192,192)" stroke-width="1"/><text text-anchor="end" alignment-baseline="middle" x="45.0" y="197.36709528610658" font-size="12.0">0.09</text><line x1="48.0" y1="197.36709528610658" x2="52.0" y2="197.36709528610658" stroke="rgb(192,192,192)" stroke-width="1"/><line x1="50.0" y1="158.18566142900727" x2="550.0" y2="158.18566142900727" stroke="rgb(192,192,192)" stroke-width="1"/><text text-anchor="end" alignment-baseline="middle" x="45.0" y="158.18566142900727" font-size="12.0">0.10</text><line x1="48.0" y1="158.18566142900727" x2="52.0" y2="158.18566142900727" stroke="rgb(192,192,192)" stroke-width="1"/><line x1="50.0" y1="119.00422757190802" x2="550.0" y2="119.00422757190802" stroke="rgb(192,192,192)" stroke-width="1"/><text text-anchor="end" alignment-baseline="middle" x="45.0" y="119.00422757190802" font-size="12.0">0.11</text><line x1="48.0" y1="119.00422757190802" x2="52.0" y2="119.00422757190802" stroke="rgb(192,192,192)" stroke-width="1"/><line x1="50.0" y1="79.82279371480877" x2="550.0" y2="79.82279371480877" stroke="rgb(192,192,192)" stroke-width="1"/><text text-anchor="end" alignment-baseline="middle" x="45.0" y="79.82279371480877" font-size="12.0">0.12</text><line x1="48.0" y1="79.82279371480877" x2="52.0" y2="79.82279371480877" stroke="rgb(192,192,192)" stroke-width="1"/><polyline points="50.0,495.1802351218882 76.3157894736842,511.3032749995966 102.63157894736841,472.9076981776058 128.94736842105263,467.51350053015733 155.26315789473682,472.9076981776058 181.57894736842104,472.9076981776058 207.89473684210526,472.9076981776058 234.21052631578945,472.9076981776058 260.52631578947364,472.9076981776058 286.8421052631579,472.9076981776058 313.1578947368421,472.9076981776058 339.4736842105263,472.9076981776058 365.7894736842105,472.9076981776058 392.10526315789474,472.9076981776058 418.4210526315789,472.9076981776058 444.7368421052632,472.9076981776058 471.05263157894734,472.9076981776058 497.36842105263156,472.9076981776058 523.6842105263158,472.9076981776058 550.0,472.9076981776058" fill="none" stroke="rgb(255,0,0)" stroke-width="1"/><circle cx="50.0" cy="495.1802351218882" r="2" fill="rgb(255,0,0)"/><circle cx="76.3157894736842" cy="511.3032749995966" r="2" fill="rgb(255,0,0)"/><circle cx="102.63157894736841" cy="472.9076981776058" r="2" fill="rgb(255,0,0)"/><circle cx="128.94736842105263" cy="467.51350053015733" r="2" fill="rgb(255,0,0)"/><circle cx="155.26315789473682" cy="472.9076981776058" r="2" fill="rgb(255,0,0)"/><circle cx="181.57894736842104" cy="472.9076981776058" r="2" fill="rgb(255,0,0)"/><circle cx="207.89473684210526" cy="472.9076981776058" r="2" fill="rgb(255,0,0)"/><circle cx="234.21052631578945" cy="472.9076981776058" r="2" fill="rgb(255,0,0)"/><circle cx="260.52631578947364" cy="472.9076981776058" r="2" fill="rgb(255,0,0)"/><circle cx="286.8421052631579" cy="472.9076981776058" r="2" fill="rgb(255,0,0)"/><circle cx="313.1578947368421" cy="472.9076981776058" r="2" fill="rgb(255,0,0)"/><circle cx="339.4736842105263" cy="472.9076981776058" r="2" fill="rgb(255,0,0)"/><circle cx="365.7894736842105" cy="472.9076981776058" r="2" fill="rgb(255,0,0)"/><circle cx="392.10526315789474" cy="472.9076981776058" r="2" fill="rgb(255,0,0)"/><circle cx="418.4210526315789" cy="472.9076981776058" r="2" fill="rgb(255,0,0)"/><circle cx="444.7368421052632" cy="472.9076981776058" r="2" fill="rgb(255,0,0)"/><circle cx="471.05263157894734" cy="472.9076981776058" r="2" fill="rgb(255,0,0)"/><circle cx="497.36842105263156" cy="472.9076981776058" r="2" fill="rgb(255,0,0)"/><circle cx="523.6842105263158" cy="472.9076981776058" r="2" fill="rgb(255,0,0)"/><circle cx="550.0" cy="472.9076981776058" r="2" fill="rgb(255,0,0)"/><polyline points="50.0,64.02066274422543 76.3157894736842,50.0 102.63157894736841,84.11015786176813 128.94736842105263,92.64535454293951 155.26315789473682,84.11015786176813 181.57894736842104,84.11015786176813 207.89473684210526,84.11015786176813 234.21052631578945,84.11015786176813 260.52631578947364,84.11015786176813 286.8421052631579,84.11015786176813 313.1578947368421,84.11015786176813 339.4736842105263,84.11015786176813 365.7894736842105,84.11015786176813 392.10526315789474,84.11015786176813 418.4210526315789,84.11015786176813 444.7368421052632,84.11015786176813 471.05263157894734,84.11015786176813 497.36842105263156,84.11015786176813 523.6842105263158,84.11015786176813 550.0,84.11015786176813" fill="none" stroke="rgb(0,0,255)" stroke-width="1"/><circle cx="50.0" cy="64.02066274422543" r="2" fill="rgb(0,0,255)"/><circle cx="76.3157894736842" cy="50.0" r="2" fill="rgb(0,0,255)"/><circle cx="102.63157894736841" cy="84.11015786176813" r="2" fill="rgb(0,0,255)"/><circle cx="128.94736842105263" cy="92.64535454293951" r="2" fill="rgb(0,0,255)"/><circle cx="155.26315789473682" cy="84.11015786176813" r="2" fill="rgb(0,0,255)"/><circle cx="181.57894736842104" cy="84.11015786176813" r="2" fill="rgb(0,0,255)"/><circle cx="207.89473684210526" cy="84.11015786176813" r="2" fill="rgb(0,0,255)"/><circle cx="234.21052631578945" cy="84.11015786176813" r="2" fill="rgb(0,0,255)"/><circle cx="260.52631578947364" cy="84.11015786176813" r="2" fill="rgb(0,0,255)"/><circle cx="286.8421052631579" cy="84.11015786176813" r="2" fill="rgb(0,0,255)"/><circle cx="313.1578947368421" cy="84.11015786176813" r="2" fill="rgb(0,0,255)"/><circle cx="339.4736842105263" cy="84.11015786176813" r="2" fill="rgb(0,0,255)"/><circle cx="365.7894736842105" cy="84.11015786176813" r="2" fill="rgb(0,0,255)"/><circle cx="392.10526315789474" cy="84.11015786176813" r="2" fill="rgb(0,0,255)"/><circle cx="418.4210526315789" cy="84.11015786176813" r="2" fill="rgb(0,0,255)"/><circle cx="444.7368421052632" cy="84.11015786176813" r="2" fill="rgb(0,0,255)"/><circle cx="471.05263157894734" cy="84.11015786176813" r="2" fill="rgb(0,0,255)"/><circle cx="497.36842105263156" cy="84.11015786176813" r="2" fill="rgb(0,0,255)"/><circle cx="523.6842105263158" cy="84.11015786176813" r="2" fill="rgb(0,0,255)"/><circle cx="550.0" cy="84.11015786176813" r="2" fill="rgb(0,0,255)"/><polyline points="50.0,195.46803012328604 76.3157894736842,191.67275978906656 102.63157894736841,244.00240533305265 128.94736842105263,249.09771681724487 155.26315789473682,244.00240533305265 181.57894736842104,244.00240533305265 207.89473684210526,244.00240533305265 234.21052631578945,244.00240533305265 260.52631578947364,244.00240533305265 286.8421052631579,244.00240533305265 313.1578947368421,244.00240533305265 339.4736842105263,244.00240533305265 365.7894736842105,244.00240533305265 392.10526315789474,244.00240533305265 418.4210526315789,244.00240533305265 444.7368421052632,244.00240533305265 471.05263157894734,244.00240533305265 497.36842105263156,244.00240533305265 523.6842105263158,244.00240533305265 550.0,244.00240533305265" fill="none" stroke="rgb(0,255,0)" stroke-width="1"/><circle cx="50.0" cy="195.46803012328604" r="2" fill="rgb(0,255,0)"/><circle cx="76.3157894736842" cy="191.67275978906656" r="2" fill="rgb(0,255,0)"/><circle cx="102.63157894736841" cy="244.00240533305265" r="2" fill="rgb(0,255,0)"/><circle cx="128.94736842105263" cy="249.09771681724487" r="2" fill="rgb(0,255,0)"/><circle cx="155.26315789473682" cy="244.00240533305265" r="2" fill="rgb(0,255,0)"/><circle cx="181.57894736842104" cy="244.00240533305265" r="2" fill="rgb(0,255,0)"/><circle cx="207.89473684210526" cy="244.00240533305265" r="2" fill="rgb(0,255,0)"/><circle cx="234.21052631578945" cy="244.00240533305265" r="2" fill="rgb(0,255,0)"/><circle cx="260.52631578947364" cy="244.00240533305265" r="2" fill="rgb(0,255,0)"/><circle cx="286.8421052631579" cy="244.00240533305265" r="2" fill="rgb(0,255,0)"/><circle cx="313.1578947368421" cy="244.00240533305265" r="2" fill="rgb(0,255,0)"/><circle cx="339.4736842105263" cy="244.00240533305265" r="2" fill="rgb(0,255,0)"/><circle cx="365.7894736842105" cy="244.00240533305265" r="2" fill="rgb(0,255,0)"/><circle cx="392.10526315789474" cy="244.00240533305265" r="2" fill="rgb(0,255,0)"/><circle cx="418.4210526315789" cy="244.00240533305265" r="2" fill="rgb(0,255,0)"/><circle cx="444.7368421052632" cy="244.00240533305265" r="2" fill="rgb(0,255,0)"/><circle cx="471.05263157894734" cy="244.00240533305265" r="2" fill="rgb(0,255,0)"/><circle cx="497.36842105263156" cy="244.00240533305265" r="2" fill="rgb(0,255,0)"/><circle cx="523.6842105263158" cy="244.00240533305265" r="2" fill="rgb(0,255,0)"/><circle cx="550.0" cy="244.00240533305265" r="2" fill="rgb(0,255,0)"/><text x="350.0" y="20.0" text-anchor="middle" fill="rgb(0,0,0)" font-size="20.0">KMeans Mean Centroid Distances</text><text x="350.0" y="575.0" text-anchor="middle" fill="rgb(0,0,0)" font-size="12.0">step</text><text transform="rotate(-90.0 20.0 300.0)" x="20.0" y="300.0" text-anchor="middle" fill="rgb(0,0,0)" font-size="12.0">average distance to centroid</text><text x="620" y="62" fill="rgb(255,0,0)" font-size="12">0</text><text x="620" y="74" fill="rgb(0,0,255)" font-size="12">1</text><text x="620" y="86" fill="rgb(0,255,0)" font-size="12">2</text>
      Sorry, your browser does not support inline SVG.
    </svg>