<?xml version='1.0' encoding='UTF-8'?>
<svg version="1.1" width="700.0" height="600.0" onload="init(evt)" xmlns="http://www.w3.org/2000/svg">
      <style>.caption {
  font-size: 14px;
  font-family: Georgia, serif;
}
</style>
      <script type="text/ecmascript"><![CDATA[
function init(evt) {
  if ( window.svgDocument == null ) {
    svgDocument = evt.target.ownerDocument;
  }
}

function RectHover(evt, i, c) {
  rect = svgDocument.getElementById('rect' + i);
  if( c != null ) {
    rect.setAttributeNS(null, "fill", c)  
  }
  tooltiptext = svgDocument.getElementById('tooltiptext' + i);
  tooltipbg = svgDocument.getElementById('tooltipbg' + i);
  if( tooltipbg != null) {
    tbb = tooltiptext.getBBox();
    tooltipbg.setAttributeNS(null, "width", tbb.width);
    tooltipbg.setAttributeNS(null, "height", tbb.height);
    tooltipbg.setAttributeNS(null, "x", tbb.x);
    tooltipbg.setAttributeNS(null, "y", tbb.y);
    tooltipbg.setAttributeNS(null, "visibility", "visible");
  }
  tooltiptext.setAttributeNS(null,"visibility","visible");
}

function RectUnhover(evt, i, c) {
  rect = svgDocument.getElementById('rect' + i);
  if( c != null ) {
    rect.setAttributeNS(null, "fill", c)  
  }
  tooltiptext = svgDocument.getElementById('tooltiptext' + i);
  tooltiptext.setAttributeNS(null,"visibility","hidden");
  tooltipbg = svgDocument.getElementById('tooltipbg' + i);
  if( tooltipbg != null ) {
    tooltipbg.setAttributeNS(null,"visibility","hidden");
  }
}
]]></script>
      <line x1="50.0" y1="550.0" x2="550.0" y2="550.0" stroke="rgb(0,0,0)" stroke-width="1"/><line x1="50.0" y1="550.0" x2="50.0" y2="50.0" stroke="rgb(0,0,0)" stroke-width="1"/><line x1="50.0" y1="550.0" x2="50.0" y2="50.0" stroke="rgb(192,192,192)" stroke-width="1"/><line x1="50.0" y1="548.0" x2="50.0" y2="552.0" stroke="rgb(192,192,192)" stroke-width="1"/><text text-anchor="middle" alignment-baseline="hanging" x="50.0" y="553.0" font-size="12.0">0</text><line x1="313.1578947368421" y1="550.0" x2="313.1578947368421" y2="50.0" stroke="rgb(192,192,192)" stroke-width="1"/><line x1="313.1578947368421" y1="548.0" x2="313.1578947368421" y2="552.0" stroke="rgb(192,192,192)" stroke-width="1"/><text text-anchor="middle" alignment-baseline="hanging" x="313.1578947368421" y="553.0" font-size="12.0">10</text><line x1="50.0" y1="550.0" x2="550.0" y2="550.0" stroke="rgb(192,192,192)" stroke-width="1"/><text text-anchor="end" alignment-baseline="middle" x="45.0" y="550.0" font-size="12.0">0.00</text><line x1="48.0" y1="550.0" x2="52.0" y2="550.0" stroke="rgb(192,192,192)" stroke-width="1"/><line x1="50.0" y1="520.3615960720367" x2="550.0" y2="520.3615960720367" stroke="rgb(192,192,192)" stroke-width="1"/><text text-anchor="end" alignment-baseline="middle" x="45.0" y="520.3615960720367" font-size="12.0">0.01</text><line x1="48.0" y1="520.3615960720367" x2="52.0" y2="520.3615960720367" stroke="rgb(192,192,192)" stroke-width="1"/><line x1="50.0" y1="490.72319214407344" x2="550.0" y2="490.72319214407344" stroke="rgb(192,192,192)" stroke-width="1"/><text text-anchor="end" alignment-baseline="middle" x="45.0" y="490.72319214407344" font-size="12.0">0.02</text><line x1="48.0" y1="490.72319214407344" x2="52.0" y2="490.72319214407344" stroke="rgb(192,192,192)" stroke-width="1"/><line x1="50.0" y1="461.08478821611016" x2="550.0" y2="461.08478821611016" stroke="rgb(192,192,192)" stroke-width="1"/><text text-anchor="end" alignment-baseline="middle" x="45.0" y="461.08478821611016" font-size="12.0">0.03</text><line x1="48.0" y1="461.08478821611016" x2="52.0" y2="461.08478821611016" stroke="rgb(192,192,192)" stroke-width="1"/><line x1="50.0" y1="431.4463842881469" x2="550.0" y2="431.4463842881469" stroke="rgb(192,192,192)" stroke-width="1"/><text text-anchor="end" alignment-baseline="middle" x="45.0" y="431.4463842881469" font-size="12.0">0.04</text><line x1="48.0" y1="431.4463842881469" x2="52.0" y2="431.4463842881469" stroke="rgb(192,192,192)" stroke-width="1"/><line x1="50.0" y1="401.8079803601836" x2="550.0" y2="401.8079803601836" stroke="rgb(192,192,192)" stroke-width="1"/><text text-anchor="end" alignment-baseline="middle" x="45.0" y="401.8079803601836" font-size="12.0">0.05</text><line x1="48.0" y1="401.8079803601836" x2="52.0" y2="401.8079803601836" stroke="rgb(192,192,192)" stroke-width="1"/><line x1="50.0" y1="372.1695764322203" x2="550.0" y2="372.1695764322203" stroke="rgb(192,192,192)" stroke-width="1"/><text text-anchor="end" alignment-baseline="middle" x="45.0" y="372.1695764322203" font-size="12.0">0.06</text><line x1="48.0" y1="372.1695764322203" x2="52.0" y2="372.1695764322203" stroke="rgb(192,192,192)" stroke-width="1"/><line x1="50.0" y1="342.53117250425703" x2="550.0" y2="342.53117250425703" stroke="rgb(192,192,192)" stroke-width="1"/><text text-anchor="end" alignment-baseline="middle" x="45.0" y="342.53117250425703" font-size="12.0">0.07</text><line x1="48.0" y1="342.53117250425703" x2="52.0" y2="342.53117250425703" stroke="rgb(192,192,192)" stroke-width="1"/><line x1="50.0" y1="312.89276857629375" x2="550.0" y2="312.89276857629375" stroke="rgb(192,192,192)" stroke-width="1"/><text text-anchor="end" alignment-baseline="middle" x="45.0" y="312.89276857629375" font-size="12.0">0.08</text><line x1="48.0" y1="312.89276857629375" x2="52.0" y2="312.89276857629375" stroke="rgb(192,192,192)" stroke-width="1"/><line x1="50.0" y1="283.25436464833047" x2="550.0" y2="283.25436464833047" stroke="rgb(192,192,192)" stroke-width="1"/><text text-anchor="end" alignment-baseline="middle" x="45.0" y="283.25436464833047" font-size="12.0">0.09</text><line x1="48.0" y1="283.25436464833047" x2="52.0" y2="283.25436464833047" stroke="rgb(192,192,192)" stroke-width="1"/><line x1="50.0" y1="253.61596072036713" x2="550.0" y2="253.61596072036713" stroke="rgb(192,192,192)" stroke-width="1"/><text text-anchor="end" alignment-baseline="middle" x="45.0" y="253.61596072036713" font-size="12.0">0.10</text><line x1="48.0" y1="253.61596072036713" x2="52.0" y2="253.61596072036713" stroke="rgb(192,192,192)" stroke-width="1"/><line x1="50.0" y1="223.9775567924039" x2="550.0" y2="223.9775567924039" stroke="rgb(192,192,192)" stroke-width="1"/><text text-anchor="end" alignment-baseline="middle" x="45.0" y="223.9775567924039" font-size="12.0">0.11</text><line x1="48.0" y1="223.9775567924039" x2="52.0" y2="223.9775567924039" stroke="rgb(192,192,192)" stroke-width="1"/><line x1="50.0" y1="194.33915286444062" x2="550.0" y2="194.33915286444062" stroke="rgb(192,192,192)" stroke-width="1"/><text text-anchor="end" alignment-baseline="middle" x="45.0" y="194.33915286444062" font-size="12.0">0.12</text><line x1="48.0" y1="194.33915286444062" x2="52.0" y2="194.33915286444062" stroke="rgb(192,192,192)" stroke-width="1"/><line x1="50.0" y1="164.70074893647728" x2="550.0" y2="164.70074893647728" stroke="rgb(192,192,192)" stroke-width="1"/><text text-anchor="end" alignment-baseline="middle" x="45.0" y="164.70074893647728" font-size="12.0">0.13</text><line x1="48.0" y1="164.70074893647728" x2="52.0" y2="164.70074893647728" stroke="rgb(192,192,192)" stroke-width="1"/><line x1="50.0" y1="135.062345008514" x2="550.0" y2="135.062345008514" stroke="rgb(192,192,192)" stroke-width="1"/><text text-anchor="end" alignment-baseline="middle" x="45.0" y="135.062345008514" font-size="12.0">0.14</text><line x1="48.0" y1="135.062345008514" x2="52.0" y2="135.062345008514" stroke="rgb(192,192,192)" stroke-width="1"/><line x1="50.0" y1="105.42394108055078" x2="550.0" y2="105.42394108055078" stroke="rgb(192,192,192)" stroke-width="1"/><text text-anchor="end" alignment-baseline="middle" x="45.0" y="105.42394108055078" font-size="12.0">0.15</text><line x1="48.0" y1="105.42394108055078" x2="52.0" y2="105.42394108055078" stroke="rgb(192,192,192)" stroke-width="1"/><line x1="50.0" y1="75.7855371525875" x2="550.0" y2="75.7855371525875" stroke="rgb(192,192,192)" stroke-width="1"/><text text-anchor="end" alignment-baseline="middle" x="45.0" y="75.7855371525875" font-size="12.0">0.16</text><line x1="48.0" y1="75.7855371525875" x2="52.0" y2="75.7855371525875" stroke="rgb(192,192,192)" stroke-width="1"/><polyline points="50.0,103.02972631944363 76.3157894736842,50.0 102.63157894736841,55.056023604562085 128.94736842105263,65.86682635360052 155.26315789473682,104.9187047138845 181.57894736842104,138.32881339491962 207.89473684210526,319.5405764837724 234.21052631578945,425.8726211684026 260.52631578947364,442.7316005492095 286.8421052631579,493.98822920720033 313.1578947368421,504.5237588832896 339.4736842105263,538.9076528803853 365.7894736842105,533.6615906165459 392.10526315789474,514.1967710734236 418.4210526315789,491.68429901054833 444.7368421052632,491.68429901054833 471.05263157894734,491.68429901054833 497.36842105263156,491.68429901054833 523.6842105263158,491.68429901054833 550.0,491.68429901054833" fill="none" stroke="rgb(255,0,0)" stroke-width="1"/><circle cx="50.0" cy="103.02972631944363" r="2" fill="rgb(255,0,0)"/><circle cx="76.3157894736842" cy="50.0" r="2" fill="rgb(255,0,0)"/><circle cx="102.63157894736841" cy="55.056023604562085" r="2" fill="rgb(255,0,0)"/><circle cx="128.94736842105263" cy="65.86682635360052" r="2" fill="rgb(255,0,0)"/><circle cx="155.26315789473682" cy="104.9187047138845" r="2" fill="rgb(255,0,0)"/><circle cx="181.57894736842104" cy="138.32881339491962" r="2" fill="rgb(255,0,0)"/><circle cx="207.89473684210526" cy="319.5405764837724" r="2" fill="rgb(255,0,0)"/><circle cx="234.21052631578945" cy="425.8726211684026" r="2" fill="rgb(255,0,0)"/><circle cx="260.52631578947364" cy="442.7316005492095" r="2" fill="rgb(255,0,0)"/><circle cx="286.8421052631579" cy="493.98822920720033" r="2" fill="rgb(255,0,0)"/><circle cx="313.1578947368421" cy="504.5237588832896" r="2" fill="rgb(255,0,0)"/><circle cx="339.4736842105263" cy="538.9076528803853" r="2" fill="rgb(255,0,0)"/><circle cx="365.7894736842105" cy="533.6615906165459" r="2" fill="rgb(255,0,0)"/><circle cx="392.10526315789474" cy="514.1967710734236" r="2" fill="rgb(255,0,0)"/><circle cx="418.4210526315789" cy="491.68429901054833" r="2" fill="rgb(255,0,0)"/><circle cx="444.7368421052632" cy="491.68429901054833" r="2" fill="rgb(255,0,0)"/><circle cx="471.05263157894734" cy="491.68429901054833" r="2" fill="rgb(255,0,0)"/><circle cx="497.36842105263156" cy="491.68429901054833" r="2" fill="rgb(255,0,0)"/><circle cx="523.6842105263158" cy="491.68429901054833" r="2" fill="rgb(255,0,0)"/><circle cx="550.0" cy="491.68429901054833" r="2" fill="rgb(255,0,0)"/><polyline points="50.0,259.7249583990539 76.3157894736842,307.84108053533487 102.63157894736841,325.840486760922 128.94736842105263,349.43287004393 155.26315789473682,377.67433395794706 181.57894736842104,403.7556346611683 207.89473684210526,403.41769127905775 234.21052631578945,354.3773087857044 260.52631578947364,317.39360443672103 286.8421052631579,255.64675360955727 313.1578947368421,230.62273037127574 339.4736842105263,181.4650452543284 365.7894736842105,155.2839886242591 392.10526315789474,172.38480836888436 418.4210526315789,197.58228661082916 444.7368421052632,197.58228661082916 471.05263157894734,197.58228661082916 497.36842105263156,197.58228661082916 523.6842105263158,197.58228661082916 550.0,197.58228661082916" fill="none" stroke="rgb(0,0,255)" stroke-width="1"/><circle cx="50.0" cy="259.7249583990539" r="2" fill="rgb(0,0,255)"/><circle cx="76.3157894736842" cy="307.84108053533487" r="2" fill="rgb(0,0,255)"/><circle cx="102.63157894736841" cy="325.840486760922" r="2" fill="rgb(0,0,255)"/><circle cx="128.94736842105263" cy="349.43287004393" r="2" fill="rgb(0,0,255)"/><circle cx="155.26315789473682" cy="377.67433395794706" r="2" fill="rgb(0,0,255)"/><circle cx="181.57894736842104" cy="403.7556346611683" r="2" fill="rgb(0,0,255)"/><circle cx="207.89473684210526" cy="403.41769127905775" r="2" fill="rgb(0,0,255)"/><circle cx="234.21052631578945" cy="354.3773087857044" r="2" fill="rgb(0,0,255)"/><circle cx="260.52631578947364" cy="317.39360443672103" r="2" fill="rgb(0,0,255)"/><circle cx="286.8421052631579" cy="255.64675360955727" r="2" fill="rgb(0,0,255)"/><circle cx="313.1578947368421" cy="230.62273037127574" r="2" fill="rgb(0,0,255)"/><circle cx="339.4736842105263" cy="181.4650452543284" r="2" fill="rgb(0,0,255)"/><circle cx="365.7894736842105" cy="155.2839886242591" r="2" fill="rgb(0,0,255)"/><circle cx="392.10526315789474" cy="172.38480836888436" r="2" fill="rgb(0,0,255)"/><circle cx="418.4210526315789" cy="197.58228661082916" r="2" fill="rgb(0,0,255)"/><circle cx="444.7368421052632" cy="197.58228661082916" r="2" fill="rgb(0,0,255)"/><circle cx="471.05263157894734" cy="197.58228661082916" r="2" fill="rgb(0,0,255)"/><circle cx="497.36842105263156" cy="197.58228661082916" r="2" fill="rgb(0,0,255)"/><circle cx="523.6842105263158" cy="197.58228661082916" r="2" fill="rgb(0,0,255)"/><circle cx="550.0" cy="197.58228661082916" r="2" fill="rgb(0,0,255)"/><polyline points="50.0,144.57043695054546 76.3157894736842,156.88450457446606 102.63157894736841,171.84296457775895 128.94736842105263,193.11318279214555 155.26315789473682,229.96862646020628 181.57894736842104,248.13846186912815 207.89473684210526,236.68680485469355 234.21052631578945,177.9188073410861 260.52631578947364,154.53624844778972 286.8421052631579,207.1453075955593 313.1578947368421,218.22286729822486 339.4736842105263,251.6501830665082 365.7894736842105,274.33801767234604 392.10526315789474,294.3925142114459 418.4210526315789,318.5311787005745 444.7368421052632,318.5311787005745 471.05263157894734,318.5311787005745 497.36842105263156,318.5311787005745 523.6842105263158,318.5311787005745 550.0,318.5311787005745" fill="none" stroke="rgb(0,255,0)" stroke-width="1"/><circle cx="50.0" cy="144.57043695054546" r="2" fill="rgb(0,255,0)"/><circle cx="76.3157894736842" cy="156.88450457446606" r="2" fill="rgb(0,255,0)"/><circle cx="102.63157894736841" cy="171.84296457775895" r="2" fill="rgb(0,255,0)"/><circle cx="128.94736842105263" cy="193.11318279214555" r="2" fill="rgb(0,255,0)"/><circle cx="155.26315789473682" cy="229.96862646020628" r="2" fill="rgb(0,255,0)"/><circle cx="181.57894736842104" cy="248.13846186912815" r="2" fill="rgb(0,255,0)"/><circle cx="207.89473684210526" cy="236.68680485469355" r="2" fill="rgb(0,255,0)"/><circle cx="234.21052631578945" cy="177.9188073410861" r="2" fill="rgb(0,255,0)"/><circle cx="260.52631578947364" cy="154.53624844778972" r="2" fill="rgb(0,255,0)"/><circle cx="286.8421052631579" cy="207.1453075955593" r="2" fill="rgb(0,255,0)"/><circle cx="313.1578947368421" cy="218.22286729822486" r="2" fill="rgb(0,255,0)"/><circle cx="339.4736842105263" cy="251.6501830665082" r="2" fill="rgb(0,255,0)"/><circle cx="365.7894736842105" cy="274.33801767234604" r="2" fill="rgb(0,255,0)"/><circle cx="392.10526315789474" cy="294.3925142114459" r="2" fill="rgb(0,255,0)"/><circle cx="418.4210526315789" cy="318.5311787005745" r="2" fill="rgb(0,255,0)"/><circle cx="444.7368421052632" cy="318.5311787005745" r="2" fill="rgb(0,255,0)"/><circle cx="471.05263157894734" cy="318.5311787005745" r="2" fill="rgb(0,255,0)"/><circle cx="497.36842105263156" cy="318.5311787005745" r="2" fill="rgb(0,255,0)"/><circle cx="523.6842105263158" cy="318.5311787005745" r="2" fill="rgb(0,255,0)"/><circle cx="550.0" cy="318.5311787005745" r="2" fill="rgb(0,255,0)"/><text x="350.0" y="20.0" text-anchor="middle" fill="rgb(0,0,0)" font-size="20.0">KMeans Mean Centroid Distances</text><text x="350.0" y="575.0" text-anchor="middle" fill="rgb(0,0,0)" font-size="12.0">step</text><text transform="rotate(-90.0 20.0 300.0)" x="20.0" y="300.0" text-anchor="middle" fill="rgb(0,0,0)" font-size="12.0">average distance to centroid</text><text x="620" y="62" fill="rgb(255,0,0)" font-size="12">0</text><text x="620" y="74" fill="rgb(0,0,255)" font-size="12">1</text><text x="620" y="86" fill="rgb(0,255,0)" font-size="12">2</text>
      Sorry, your browser does not support inline SVG.
    </svg>