<?xml version='1.0' encoding='UTF-8'?>
<svg version="1.1" width="700.0" height="600.0" onload="init(evt)" xmlns="http://www.w3.org/2000/svg">
      <style>.caption {
  font-size: 14px;
  font-family: Georgia, serif;
}
</style>
      <script type="text/ecmascript"><![CDATA[
function init(evt) {
  if ( window.svgDocument == null ) {
    svgDocument = evt.target.ownerDocument;
  }
}

function RectHover(evt, i, c) {
  rect = svgDocument.getElementById('rect' + i);
  if( c != null ) {
    rect.setAttributeNS(null, "fill", c)  
  }
  tooltiptext = svgDocument.getElementById('tooltiptext' + i);
  tooltipbg = svgDocument.getElementById('tooltipbg' + i);
  if( tooltipbg != null) {
    tbb = tooltiptext.getBBox();
    tooltipbg.setAttributeNS(null, "width", tbb.width);
    tooltipbg.setAttributeNS(null, "height", tbb.height);
    tooltipbg.setAttributeNS(null, "x", tbb.x);
    tooltipbg.setAttributeNS(null, "y", tbb.y);
    tooltipbg.setAttributeNS(null, "visibility", "visible");
  }
  tooltiptext.setAttributeNS(null,"visibility","visible");
}

function RectUnhover(evt, i, c) {
  rect = svgDocument.getElementById('rect' + i);
  if( c != null ) {
    rect.setAttributeNS(null, "fill", c)  
  }
  tooltiptext = svgDocument.getElementById('tooltiptext' + i);
  tooltiptext.setAttributeNS(null,"visibility","hidden");
  tooltipbg = svgDocument.getElementById('tooltipbg' + i);
  if( tooltipbg != null ) {
    tooltipbg.setAttributeNS(null,"visibility","hidden");
  }
}
]]></script>
      <line x1="50.0" y1="550.0" x2="550.0" y2="550.0" stroke="rgb(0,0,0)" stroke-width="1"/><line x1="50.0" y1="550.0" x2="50.0" y2="50.0" stroke="rgb(0,0,0)" stroke-width="1"/><line x1="50.0" y1="550.0" x2="50.0" y2="50.0" stroke="rgb(192,192,192)" stroke-width="1"/><line x1="50.0" y1="548.0" x2="50.0" y2="552.0" stroke="rgb(192,192,192)" stroke-width="1"/><text text-anchor="middle" alignment-baseline="hanging" x="50.0" y="553.0" font-size="12.0">0</text><line x1="313.1578947368421" y1="550.0" x2="313.1578947368421" y2="50.0" stroke="rgb(192,192,192)" stroke-width="1"/><line x1="313.1578947368421" y1="548.0" x2="313.1578947368421" y2="552.0" stroke="rgb(192,192,192)" stroke-width="1"/><text text-anchor="middle" alignment-baseline="hanging" x="313.1578947368421" y="553.0" font-size="12.0">10</text><line x1="50.0" y1="550.0" x2="550.0" y2="550.0" stroke="rgb(192,192,192)" stroke-width="1"/><text text-anchor="end" alignment-baseline="middle" x="45.0" y="550.0" font-size="12.0">0.0</text><line x1="48.0" y1="550.0" x2="52.0" y2="550.0" stroke="rgb(192,192,192)" stroke-width="1"/><line x1="50.0" y1="315.02310745112146" x2="550.0" y2="315.02310745112146" stroke="rgb(192,192,192)" stroke-width="1"/><text text-anchor="end" alignment-baseline="middle" x="45.0" y="315.02310745112146" font-size="12.0">0.1</text><line x1="48.0" y1="315.02310745112146" x2="52.0" y2="315.02310745112146" stroke="rgb(192,192,192)" stroke-width="1"/><line x1="50.0" y1="80.04621490224292" x2="550.0" y2="80.04621490224292" stroke="rgb(192,192,192)" stroke-width="1"/><text text-anchor="end" alignment-baseline="middle" x="45.0" y="80.04621490224292" font-size="12.0">0.2</text><line x1="48.0" y1="80.04621490224292" x2="52.0" y2="80.04621490224292" stroke="rgb(192,192,192)" stroke-width="1"/><polyline points="50.0,50.0 76.3157894736842,202.09509299448968 102.63157894736841,219.73278806397735 128.94736842105263,229.48059108893125 155.26315789473682,273.3753171818945 181.57894736842104,377.3128250517556 207.89473684210526,475.5208782211352 234.21052631578945,502.2354925052974 260.52631578947364,506.8506285355148 286.8421052631579,506.8506285355148 313.1578947368421,506.8506285355148 339.4736842105263,506.8506285355148 365.7894736842105,506.8506285355148 392.10526315789474,506.8506285355148 418.4210526315789,506.8506285355148 444.7368421052632,506.8506285355148 471.05263157894734,506.8506285355148 497.36842105263156,506.8506285355148 523.6842105263158,506.8506285355148 550.0,506.8506285355148" fill="none" stroke="rgb(255,0,0)" stroke-width="1"/><circle cx="50.0" cy="50.0" r="2" fill="rgb(255,0,0)"/><circle cx="76.3157894736842" cy="202.09509299448968" r="2" fill="rgb(255,0,0)"/><circle cx="102.63157894736841" cy="219.73278806397735" r="2" fill="rgb(255,0,0)"/><circle cx="128.94736842105263" cy="229.48059108893125" r="2" fill="rgb(255,0,0)"/><circle cx="155.26315789473682" cy="273.3753171818945" r="2" fill="rgb(255,0,0)"/><circle cx="181.57894736842104" cy="377.3128250517556" r="2" fill="rgb(255,0,0)"/><circle cx="207.89473684210526" cy="475.5208782211352" r="2" fill="rgb(255,0,0)"/><circle cx="234.21052631578945" cy="502.2354925052974" r="2" fill="rgb(255,0,0)"/><circle cx="260.52631578947364" cy="506.8506285355148" r="2" fill="rgb(255,0,0)"/><circle cx="286.8421052631579" cy="506.8506285355148" r="2" fill="rgb(255,0,0)"/><circle cx="313.1578947368421" cy="506.8506285355148" r="2" fill="rgb(255,0,0)"/><circle cx="339.4736842105263" cy="506.8506285355148" r="2" fill="rgb(255,0,0)"/><circle cx="365.7894736842105" cy="506.8506285355148" r="2" fill="rgb(255,0,0)"/><circle cx="392.10526315789474" cy="506.8506285355148" r="2" fill="rgb(255,0,0)"/><circle cx="418.4210526315789" cy="506.8506285355148" r="2" fill="rgb(255,0,0)"/><circle cx="444.7368421052632" cy="506.8506285355148" r="2" fill="rgb(255,0,0)"/><circle cx="471.05263157894734" cy="506.8506285355148" r="2" fill="rgb(255,0,0)"/><circle cx="497.36842105263156" cy="506.8506285355148" r="2" fill="rgb(255,0,0)"/><circle cx="523.6842105263158" cy="506.8506285355148" r="2" fill="rgb(255,0,0)"/><circle cx="550.0" cy="506.8506285355148" r="2" fill="rgb(255,0,0)"/><polyline points="50.0,150.52036153327668 76.3157894736842,214.58485582783635 102.63157894736841,220.75455929186575 128.94736842105263,232.47270002794198 155.26315789473682,274.87443543101153 181.57894736842104,339.16455755885704 207.89473684210526,297.6192684012956 234.21052631578945,276.86344597531865 260.52631578947364,270.1463632504102 286.8421052631579,270.1463632504102 313.1578947368421,270.1463632504102 339.4736842105263,270.1463632504102 365.7894736842105,270.1463632504102 392.10526315789474,270.1463632504102 418.4210526315789,270.1463632504102 444.7368421052632,270.1463632504102 471.05263157894734,270.1463632504102 497.36842105263156,270.1463632504102 523.6842105263158,270.1463632504102 550.0,270.1463632504102" fill="none" stroke="rgb(0,0,255)" stroke-width="1"/><circle cx="50.0" cy="150.52036153327668" r="2" fill="rgb(0,0,255)"/><circle cx="76.3157894736842" cy="214.58485582783635" r="2" fill="rgb(0,0,255)"/><circle cx="102.63157894736841" cy="220.75455929186575" r="2" fill="rgb(0,0,255)"/><circle cx="128.94736842105263" cy="232.47270002794198" r="2" fill="rgb(0,0,255)"/><circle cx="155.26315789473682" cy="274.87443543101153" r="2" fill="rgb(0,0,255)"/><circle cx="181.57894736842104" cy="339.16455755885704" r="2" fill="rgb(0,0,255)"/><circle cx="207.89473684210526" cy="297.6192684012956" r="2" fill="rgb(0,0,255)"/><circle cx="234.21052631578945" cy="276.86344597531865" r="2" fill="rgb(0,0,255)"/><circle cx="260.52631578947364" cy="270.1463632504102" r="2" fill="rgb(0,0,255)"/><circle cx="286.8421052631579" cy="270.1463632504102" r="2" fill="rgb(0,0,255)"/><circle cx="313.1578947368421" cy="270.1463632504102" r="2" fill="rgb(0,0,255)"/><circle cx="339.4736842105263" cy="270.1463632504102" r="2" fill="rgb(0,0,255)"/><circle cx="365.7894736842105" cy="270.1463632504102" r="2" fill="rgb(0,0,255)"/><circle cx="392.10526315789474" cy="270.1463632504102" r="2" fill="rgb(0,0,255)"/><circle cx="418.4210526315789" cy="270.1463632504102" r="2" fill="rgb(0,0,255)"/><circle cx="444.7368421052632" cy="270.1463632504102" r="2" fill="rgb(0,0,255)"/><circle cx="471.05263157894734" cy="270.1463632504102" r="2" fill="rgb(0,0,255)"/><circle cx="497.36842105263156" cy="270.1463632504102" r="2" fill="rgb(0,0,255)"/><circle cx="523.6842105263158" cy="270.1463632504102" r="2" fill="rgb(0,0,255)"/><circle cx="550.0" cy="270.1463632504102" r="2" fill="rgb(0,0,255)"/><polyline points="50.0,52.68245314362713 76.3157894736842,156.64229910021868 102.63157894736841,168.49383956135057 128.94736842105263,180.99810726064624 155.26315789473682,231.53593413119944 181.57894736842104,341.997807418937 207.89473684210526,366.7772386979009 234.21052631578945,364.8586966542092 260.52631578947364,363.1610830240105 286.8421052631579,363.1610830240105 313.1578947368421,363.1610830240105 339.4736842105263,363.1610830240105 365.7894736842105,363.1610830240105 392.10526315789474,363.1610830240105 418.4210526315789,363.1610830240105 444.7368421052632,363.1610830240105 471.05263157894734,363.1610830240105 497.36842105263156,363.1610830240105 523.6842105263158,363.1610830240105 550.0,363.1610830240105" fill="none" stroke="rgb(0,255,0)" stroke-width="1"/><circle cx="50.0" cy="52.68245314362713" r="2" fill="rgb(0,255,0)"/><circle cx="76.3157894736842" cy="156.64229910021868" r="2" fill="rgb(0,255,0)"/><circle cx="102.63157894736841" cy="168.49383956135057" r="2" fill="rgb(0,255,0)"/><circle cx="128.94736842105263" cy="180.99810726064624" r="2" fill="rgb(0,255,0)"/><circle cx="155.26315789473682" cy="231.53593413119944" r="2" fill="rgb(0,255,0)"/><circle cx="181.57894736842104" cy="341.997807418937" r="2" fill="rgb(0,255,0)"/><circle cx="207.89473684210526" cy="366.7772386979009" r="2" fill="rgb(0,255,0)"/><circle cx="234.21052631578945" cy="364.8586966542092" r="2" fill="rgb(0,255,0)"/><circle cx="260.52631578947364" cy="363.1610830240105" r="2" fill="rgb(0,255,0)"/><circle cx="286.8421052631579" cy="363.1610830240105" r="2" fill="rgb(0,255,0)"/><circle cx="313.1578947368421" cy="363.1610830240105" r="2" fill="rgb(0,255,0)"/><circle cx="339.4736842105263" cy="363.1610830240105" r="2" fill="rgb(0,255,0)"/><circle cx="365.7894736842105" cy="363.1610830240105" r="2" fill="rgb(0,255,0)"/><circle cx="392.10526315789474" cy="363.1610830240105" r="2" fill="rgb(0,255,0)"/><circle cx="418.4210526315789" cy="363.1610830240105" r="2" fill="rgb(0,255,0)"/><circle cx="444.7368421052632" cy="363.1610830240105" r="2" fill="rgb(0,255,0)"/><circle cx="471.05263157894734" cy="363.1610830240105" r="2" fill="rgb(0,255,0)"/><circle cx="497.36842105263156" cy="363.1610830240105" r="2" fill="rgb(0,255,0)"/><circle cx="523.6842105263158" cy="363.1610830240105" r="2" fill="rgb(0,255,0)"/><circle cx="550.0" cy="363.1610830240105" r="2" fill="rgb(0,255,0)"/><text x="350.0" y="20.0" text-anchor="middle" fill="rgb(0,0,0)" font-size="20.0">KMeans Mean Centroid Distances</text><text x="350.0" y="575.0" text-anchor="middle" fill="rgb(0,0,0)" font-size="12.0">step</text><text transform="rotate(-90.0 20.0 300.0)" x="20.0" y="300.0" text-anchor="middle" fill="rgb(0,0,0)" font-size="12.0">average distance to centroid</text><text x="620" y="62" fill="rgb(255,0,0)" font-size="12">0</text><text x="620" y="74" fill="rgb(0,0,255)" font-size="12">1</text><text x="620" y="86" fill="rgb(0,255,0)" font-size="12">2</text>
      Sorry, your browser does not support inline SVG.
    </svg>