<?xml version='1.0' encoding='UTF-8'?>
<svg version="1.1" width="700.0" height="600.0" onload="init(evt)" xmlns="http://www.w3.org/2000/svg">
      <style>.caption {
  font-size: 14px;
  font-family: Georgia, serif;
}
</style>
      <script type="text/ecmascript"><![CDATA[
function init(evt) {
  if ( window.svgDocument == null ) {
    svgDocument = evt.target.ownerDocument;
  }
}

function RectHover(evt, i, c) {
  rect = svgDocument.getElementById('rect' + i);
  if( c != null ) {
    rect.setAttributeNS(null, "fill", c)  
  }
  tooltiptext = svgDocument.getElementById('tooltiptext' + i);
  tooltipbg = svgDocument.getElementById('tooltipbg' + i);
  if( tooltipbg != null) {
    tbb = tooltiptext.getBBox();
    tooltipbg.setAttributeNS(null, "width", tbb.width);
    tooltipbg.setAttributeNS(null, "height", tbb.height);
    tooltipbg.setAttributeNS(null, "x", tbb.x);
    tooltipbg.setAttributeNS(null, "y", tbb.y);
    tooltipbg.setAttributeNS(null, "visibility", "visible");
  }
  tooltiptext.setAttributeNS(null,"visibility","visible");
}

function RectUnhover(evt, i, c) {
  rect = svgDocument.getElementById('rect' + i);
  if( c != null ) {
    rect.setAttributeNS(null, "fill", c)  
  }
  tooltiptext = svgDocument.getElementById('tooltiptext' + i);
  tooltiptext.setAttributeNS(null,"visibility","hidden");
  tooltipbg = svgDocument.getElementById('tooltipbg' + i);
  if( tooltipbg != null ) {
    tooltipbg.setAttributeNS(null,"visibility","hidden");
  }
}
]]></script>
      <line x1="50.0" y1="550.0" x2="550.0" y2="550.0" stroke="rgb(0,0,0)" stroke-width="1"/><line x1="50.0" y1="550.0" x2="50.0" y2="50.0" stroke="rgb(0,0,0)" stroke-width="1"/><line x1="50.0" y1="550.0" x2="50.0" y2="50.0" stroke="rgb(192,192,192)" stroke-width="1"/><line x1="50.0" y1="548.0" x2="50.0" y2="552.0" stroke="rgb(192,192,192)" stroke-width="1"/><text text-anchor="middle" alignment-baseline="hanging" x="50.0" y="553.0" font-size="12.0">0</text><line x1="313.1578947368421" y1="550.0" x2="313.1578947368421" y2="50.0" stroke="rgb(192,192,192)" stroke-width="1"/><line x1="313.1578947368421" y1="548.0" x2="313.1578947368421" y2="552.0" stroke="rgb(192,192,192)" stroke-width="1"/><text text-anchor="middle" alignment-baseline="hanging" x="313.1578947368421" y="553.0" font-size="12.0">10</text><line x1="50.0" y1="550.0" x2="550.0" y2="550.0" stroke="rgb(192,192,192)" stroke-width="1"/><text text-anchor="end" alignment-baseline="middle" x="45.0" y="550.0" font-size="12.0">0.00</text><line x1="48.0" y1="550.0" x2="52.0" y2="550.0" stroke="rgb(192,192,192)" stroke-width="1"/><line x1="50.0" y1="520.555004537255" x2="550.0" y2="520.555004537255" stroke="rgb(192,192,192)" stroke-width="1"/><text text-anchor="end" alignment-baseline="middle" x="45.0" y="520.555004537255" font-size="12.0">0.01</text><line x1="48.0" y1="520.555004537255" x2="52.0" y2="520.555004537255" stroke="rgb(192,192,192)" stroke-width="1"/><line x1="50.0" y1="491.11000907451" x2="550.0" y2="491.11000907451" stroke="rgb(192,192,192)" stroke-width="1"/><text text-anchor="end" alignment-baseline="middle" x="45.0" y="491.11000907451" font-size="12.0">0.02</text><line x1="48.0" y1="491.11000907451" x2="52.0" y2="491.11000907451" stroke="rgb(192,192,192)" stroke-width="1"/><line x1="50.0" y1="461.66501361176495" x2="550.0" y2="461.66501361176495" stroke="rgb(192,192,192)" stroke-width="1"/><text text-anchor="end" alignment-baseline="middle" x="45.0" y="461.66501361176495" font-size="12.0">0.03</text><line x1="48.0" y1="461.66501361176495" x2="52.0" y2="461.66501361176495" stroke="rgb(192,192,192)" stroke-width="1"/><line x1="50.0" y1="432.22001814901995" x2="550.0" y2="432.22001814901995" stroke="rgb(192,192,192)" stroke-width="1"/><text text-anchor="end" alignment-baseline="middle" x="45.0" y="432.22001814901995" font-size="12.0">0.04</text><line x1="48.0" y1="432.22001814901995" x2="52.0" y2="432.22001814901995" stroke="rgb(192,192,192)" stroke-width="1"/><line x1="50.0" y1="402.77502268627495" x2="550.0" y2="402.77502268627495" stroke="rgb(192,192,192)" stroke-width="1"/><text text-anchor="end" alignment-baseline="middle" x="45.0" y="402.77502268627495" font-size="12.0">0.05</text><line x1="48.0" y1="402.77502268627495" x2="52.0" y2="402.77502268627495" stroke="rgb(192,192,192)" stroke-width="1"/><line x1="50.0" y1="373.3300272235299" x2="550.0" y2="373.3300272235299" stroke="rgb(192,192,192)" stroke-width="1"/><text text-anchor="end" alignment-baseline="middle" x="45.0" y="373.3300272235299" font-size="12.0">0.06</text><line x1="48.0" y1="373.3300272235299" x2="52.0" y2="373.3300272235299" stroke="rgb(192,192,192)" stroke-width="1"/><line x1="50.0" y1="343.88503176078495" x2="550.0" y2="343.88503176078495" stroke="rgb(192,192,192)" stroke-width="1"/><text text-anchor="end" alignment-baseline="middle" x="45.0" y="343.88503176078495" font-size="12.0">0.07</text><line x1="48.0" y1="343.88503176078495" x2="52.0" y2="343.88503176078495" stroke="rgb(192,192,192)" stroke-width="1"/><line x1="50.0" y1="314.4400362980399" x2="550.0" y2="314.4400362980399" stroke="rgb(192,192,192)" stroke-width="1"/><text text-anchor="end" alignment-baseline="middle" x="45.0" y="314.4400362980399" font-size="12.0">0.08</text><line x1="48.0" y1="314.4400362980399" x2="52.0" y2="314.4400362980399" stroke="rgb(192,192,192)" stroke-width="1"/><line x1="50.0" y1="284.99504083529496" x2="550.0" y2="284.99504083529496" stroke="rgb(192,192,192)" stroke-width="1"/><text text-anchor="end" alignment-baseline="middle" x="45.0" y="284.99504083529496" font-size="12.0">0.09</text><line x1="48.0" y1="284.99504083529496" x2="52.0" y2="284.99504083529496" stroke="rgb(192,192,192)" stroke-width="1"/><line x1="50.0" y1="255.5500453725499" x2="550.0" y2="255.5500453725499" stroke="rgb(192,192,192)" stroke-width="1"/><text text-anchor="end" alignment-baseline="middle" x="45.0" y="255.5500453725499" font-size="12.0">0.10</text><line x1="48.0" y1="255.5500453725499" x2="52.0" y2="255.5500453725499" stroke="rgb(192,192,192)" stroke-width="1"/><line x1="50.0" y1="226.1050499098049" x2="550.0" y2="226.1050499098049" stroke="rgb(192,192,192)" stroke-width="1"/><text text-anchor="end" alignment-baseline="middle" x="45.0" y="226.1050499098049" font-size="12.0">0.11</text><line x1="48.0" y1="226.1050499098049" x2="52.0" y2="226.1050499098049" stroke="rgb(192,192,192)" stroke-width="1"/><line x1="50.0" y1="196.66005444705985" x2="550.0" y2="196.66005444705985" stroke="rgb(192,192,192)" stroke-width="1"/><text text-anchor="end" alignment-baseline="middle" x="45.0" y="196.66005444705985" font-size="12.0">0.12</text><line x1="48.0" y1="196.66005444705985" x2="52.0" y2="196.66005444705985" stroke="rgb(192,192,192)" stroke-width="1"/><line x1="50.0" y1="167.2150589843149" x2="550.0" y2="167.2150589843149" stroke="rgb(192,192,192)" stroke-width="1"/><text text-anchor="end" alignment-baseline="middle" x="45.0" y="167.2150589843149" font-size="12.0">0.13</text><line x1="48.0" y1="167.2150589843149" x2="52.0" y2="167.2150589843149" stroke="rgb(192,192,192)" stroke-width="1"/><line x1="50.0" y1="137.77006352156985" x2="550.0" y2="137.77006352156985" stroke="rgb(192,192,192)" stroke-width="1"/><text text-anchor="end" alignment-baseline="middle" x="45.0" y="137.77006352156985" font-size="12.0">0.14</text><line x1="48.0" y1="137.77006352156985" x2="52.0" y2="137.77006352156985" stroke="rgb(192,192,192)" stroke-width="1"/><line x1="50.0" y1="108.32506805882485" x2="550.0" y2="108.32506805882485" stroke="rgb(192,192,192)" stroke-width="1"/><text text-anchor="end" alignment-baseline="middle" x="45.0" y="108.32506805882485" font-size="12.0">0.15</text><line x1="48.0" y1="108.32506805882485" x2="52.0" y2="108.32506805882485" stroke="rgb(192,192,192)" stroke-width="1"/><line x1="50.0" y1="78.88007259607986" x2="550.0" y2="78.88007259607986" stroke="rgb(192,192,192)" stroke-width="1"/><text text-anchor="end" alignment-baseline="middle" x="45.0" y="78.88007259607986" font-size="12.0">0.16</text><line x1="48.0" y1="78.88007259607986" x2="52.0" y2="78.88007259607986" stroke="rgb(192,192,192)" stroke-width="1"/><polyline points="50.0,313.96791958050846 76.3157894736842,484.7676951020751 102.63157894736841,525.9856485397584 128.94736842105263,497.787427195953 155.26315789473682,492.06484413888626 181.57894736842104,492.06484413888626 207.89473684210526,492.06484413888626 234.21052631578945,492.06484413888626 260.52631578947364,492.06484413888626 286.8421052631579,492.06484413888626 313.1578947368421,492.06484413888626 339.4736842105263,492.06484413888626 365.7894736842105,492.06484413888626 392.10526315789474,492.06484413888626 418.4210526315789,492.06484413888626 444.7368421052632,492.06484413888626 471.05263157894734,492.06484413888626 497.36842105263156,492.06484413888626 523.6842105263158,492.06484413888626 550.0,492.06484413888626" fill="none" stroke="rgb(255,0,0)" stroke-width="1"/><circle cx="50.0" cy="313.96791958050846" r="2" fill="rgb(255,0,0)"/><circle cx="76.3157894736842" cy="484.7676951020751" r="2" fill="rgb(255,0,0)"/><circle cx="102.63157894736841" cy="525.9856485397584" r="2" fill="rgb(255,0,0)"/><circle cx="128.94736842105263" cy="497.787427195953" r="2" fill="rgb(255,0,0)"/><circle cx="155.26315789473682" cy="492.06484413888626" r="2" fill="rgb(255,0,0)"/><circle cx="181.57894736842104" cy="492.06484413888626" r="2" fill="rgb(255,0,0)"/><circle cx="207.89473684210526" cy="492.06484413888626" r="2" fill="rgb(255,0,0)"/><circle cx="234.21052631578945" cy="492.06484413888626" r="2" fill="rgb(255,0,0)"/><circle cx="260.52631578947364" cy="492.06484413888626" r="2" fill="rgb(255,0,0)"/><circle cx="286.8421052631579" cy="492.06484413888626" r="2" fill="rgb(255,0,0)"/><circle cx="313.1578947368421" cy="492.06484413888626" r="2" fill="rgb(255,0,0)"/><circle cx="339.4736842105263" cy="492.06484413888626" r="2" fill="rgb(255,0,0)"/><circle cx="365.7894736842105" cy="492.06484413888626" r="2" fill="rgb(255,0,0)"/><circle cx="392.10526315789474" cy="492.06484413888626" r="2" fill="rgb(255,0,0)"/><circle cx="418.4210526315789" cy="492.06484413888626" r="2" fill="rgb(255,0,0)"/><circle cx="444.7368421052632" cy="492.06484413888626" r="2" fill="rgb(255,0,0)"/><circle cx="471.05263157894734" cy="492.06484413888626" r="2" fill="rgb(255,0,0)"/><circle cx="497.36842105263156" cy="492.06484413888626" r="2" fill="rgb(255,0,0)"/><circle cx="523.6842105263158" cy="492.06484413888626" r="2" fill="rgb(255,0,0)"/><circle cx="550.0" cy="492.06484413888626" r="2" fill="rgb(255,0,0)"/><polyline points="50.0,149.8228578581958 76.3157894736842,185.4886220786109 102.63157894736841,157.51958673471154 128.94736842105263,192.70436764623378 155.26315789473682,199.88202478930862 181.57894736842104,199.88202478930862 207.89473684210526,199.88202478930862 234.21052631578945,199.88202478930862 260.52631578947364,199.88202478930862 286.8421052631579,199.88202478930862 313.1578947368421,199.88202478930862 339.4736842105263,199.88202478930862 365.7894736842105,199.88202478930862 392.10526315789474,199.88202478930862 418.4210526315789,199.88202478930862 444.7368421052632,199.88202478930862 471.05263157894734,199.88202478930862 497.36842105263156,199.88202478930862 523.6842105263158,199.88202478930862 550.0,199.88202478930862" fill="none" stroke="rgb(0,0,255)" stroke-width="1"/><circle cx="50.0" cy="149.8228578581958" r="2" fill="rgb(0,0,255)"/><circle cx="76.3157894736842" cy="185.4886220786109" r="2" fill="rgb(0,0,255)"/><circle cx="102.63157894736841" cy="157.51958673471154" r="2" fill="rgb(0,0,255)"/><circle cx="128.94736842105263" cy="192.70436764623378" r="2" fill="rgb(0,0,255)"/><circle cx="155.26315789473682" cy="199.88202478930862" r="2" fill="rgb(0,0,255)"/><circle cx="181.57894736842104" cy="199.88202478930862" r="2" fill="rgb(0,0,255)"/><circle cx="207.89473684210526" cy="199.88202478930862" r="2" fill="rgb(0,0,255)"/><circle cx="234.21052631578945" cy="199.88202478930862" r="2" fill="rgb(0,0,255)"/><circle cx="260.52631578947364" cy="199.88202478930862" r="2" fill="rgb(0,0,255)"/><circle cx="286.8421052631579" cy="199.88202478930862" r="2" fill="rgb(0,0,255)"/><circle cx="313.1578947368421" cy="199.88202478930862" r="2" fill="rgb(0,0,255)"/><circle cx="339.4736842105263" cy="199.88202478930862" r="2" fill="rgb(0,0,255)"/><circle cx="365.7894736842105" cy="199.88202478930862" r="2" fill="rgb(0,0,255)"/><circle cx="392.10526315789474" cy="199.88202478930862" r="2" fill="rgb(0,0,255)"/><circle cx="418.4210526315789" cy="199.88202478930862" r="2" fill="rgb(0,0,255)"/><circle cx="444.7368421052632" cy="199.88202478930862" r="2" fill="rgb(0,0,255)"/><circle cx="471.05263157894734" cy="199.88202478930862" r="2" fill="rgb(0,0,255)"/><circle cx="497.36842105263156" cy="199.88202478930862" r="2" fill="rgb(0,0,255)"/><circle cx="523.6842105263158" cy="199.88202478930862" r="2" fill="rgb(0,0,255)"/><circle cx="550.0" cy="199.88202478930862" r="2" fill="rgb(0,0,255)"/><polyline points="50.0,50.0 76.3157894736842,207.77240104074838 102.63157894736841,279.45180615740446 128.94736842105263,313.9754650178028 155.26315789473682,320.0416523948468 181.57894736842104,320.0416523948468 207.89473684210526,320.0416523948468 234.21052631578945,320.0416523948468 260.52631578947364,320.0416523948468 286.8421052631579,320.0416523948468 313.1578947368421,320.0416523948468 339.4736842105263,320.0416523948468 365.7894736842105,320.0416523948468 392.10526315789474,320.0416523948468 418.4210526315789,320.0416523948468 444.7368421052632,320.0416523948468 471.05263157894734,320.0416523948468 497.36842105263156,320.0416523948468 523.6842105263158,320.0416523948468 550.0,320.0416523948468" fill="none" stroke="rgb(0,255,0)" stroke-width="1"/><circle cx="50.0" cy="50.0" r="2" fill="rgb(0,255,0)"/><circle cx="76.3157894736842" cy="207.77240104074838" r="2" fill="rgb(0,255,0)"/><circle cx="102.63157894736841" cy="279.45180615740446" r="2" fill="rgb(0,255,0)"/><circle cx="128.94736842105263" cy="313.9754650178028" r="2" fill="rgb(0,255,0)"/><circle cx="155.26315789473682" cy="320.0416523948468" r="2" fill="rgb(0,255,0)"/><circle cx="181.57894736842104" cy="320.0416523948468" r="2" fill="rgb(0,255,0)"/><circle cx="207.89473684210526" cy="320.0416523948468" r="2" fill="rgb(0,255,0)"/><circle cx="234.21052631578945" cy="320.0416523948468" r="2" fill="rgb(0,255,0)"/><circle cx="260.52631578947364" cy="320.0416523948468" r="2" fill="rgb(0,255,0)"/><circle cx="286.8421052631579" cy="320.0416523948468" r="2" fill="rgb(0,255,0)"/><circle cx="313.1578947368421" cy="320.0416523948468" r="2" fill="rgb(0,255,0)"/><circle cx="339.4736842105263" cy="320.0416523948468" r="2" fill="rgb(0,255,0)"/><circle cx="365.7894736842105" cy="320.0416523948468" r="2" fill="rgb(0,255,0)"/><circle cx="392.10526315789474" cy="320.0416523948468" r="2" fill="rgb(0,255,0)"/><circle cx="418.4210526315789" cy="320.0416523948468" r="2" fill="rgb(0,255,0)"/><circle cx="444.7368421052632" cy="320.0416523948468" r="2" fill="rgb(0,255,0)"/><circle cx="471.05263157894734" cy="320.0416523948468" r="2" fill="rgb(0,255,0)"/><circle cx="497.36842105263156" cy="320.0416523948468" r="2" fill="rgb(0,255,0)"/><circle cx="523.6842105263158" cy="320.0416523948468" r="2" fill="rgb(0,255,0)"/><circle cx="550.0" cy="320.0416523948468" r="2" fill="rgb(0,255,0)"/><text x="350.0" y="20.0" text-anchor="middle" fill="rgb(0,0,0)" font-size="20.0">KMeans Mean Centroid Distances</text><text x="350.0" y="575.0" text-anchor="middle" fill="rgb(0,0,0)" font-size="12.0">step</text><text transform="rotate(-90.0 20.0 300.0)" x="20.0" y="300.0" text-anchor="middle" fill="rgb(0,0,0)" font-size="12.0">average distance to centroid</text><text x="620" y="62" fill="rgb(255,0,0)" font-size="12">0</text><text x="620" y="74" fill="rgb(0,0,255)" font-size="12">1</text><text x="620" y="86" fill="rgb(0,255,0)" font-size="12">2</text>
      Sorry, your browser does not support inline SVG.
    </svg>