<?xml version='1.0' encoding='UTF-8'?>
<svg version="1.1" width="700.0" height="600.0" onload="init(evt)" xmlns="http://www.w3.org/2000/svg">
      <style>.caption {
  font-size: 14px;
  font-family: Georgia, serif;
}
</style>
      <script type="text/ecmascript"><![CDATA[
function init(evt) {
  if ( window.svgDocument == null ) {
    svgDocument = evt.target.ownerDocument;
  }
}

function RectHover(evt, i, c) {
  rect = svgDocument.getElementById('rect' + i);
  if( c != null ) {
    rect.setAttributeNS(null, "fill", c)  
  }
  tooltiptext = svgDocument.getElementById('tooltiptext' + i);
  tooltipbg = svgDocument.getElementById('tooltipbg' + i);
  if( tooltipbg != null) {
    tbb = tooltiptext.getBBox();
    tooltipbg.setAttributeNS(null, "width", tbb.width);
    tooltipbg.setAttributeNS(null, "height", tbb.height);
    tooltipbg.setAttributeNS(null, "x", tbb.x);
    tooltipbg.setAttributeNS(null, "y", tbb.y);
    tooltipbg.setAttributeNS(null, "visibility", "visible");
  }
  tooltiptext.setAttributeNS(null,"visibility","visible");
}

function RectUnhover(evt, i, c) {
  rect = svgDocument.getElementById('rect' + i);
  if( c != null ) {
    rect.setAttributeNS(null, "fill", c)  
  }
  tooltiptext = svgDocument.getElementById('tooltiptext' + i);
  tooltiptext.setAttributeNS(null,"visibility","hidden");
  tooltipbg = svgDocument.getElementById('tooltipbg' + i);
  if( tooltipbg != null ) {
    tooltipbg.setAttributeNS(null,"visibility","hidden");
  }
}
]]></script>
      <line x1="50.0" y1="550.0" x2="550.0" y2="550.0" stroke="rgb(0,0,0)" stroke-width="1"/><line x1="50.0" y1="550.0" x2="50.0" y2="50.0" stroke="rgb(0,0,0)" stroke-width="1"/><line x1="50.0" y1="550.0" x2="50.0" y2="50.0" stroke="rgb(192,192,192)" stroke-width="1"/><line x1="50.0" y1="548.0" x2="50.0" y2="552.0" stroke="rgb(192,192,192)" stroke-width="1"/><text text-anchor="middle" alignment-baseline="hanging" x="50.0" y="553.0" font-size="12.0">0</text><line x1="313.1578947368421" y1="550.0" x2="313.1578947368421" y2="50.0" stroke="rgb(192,192,192)" stroke-width="1"/><line x1="313.1578947368421" y1="548.0" x2="313.1578947368421" y2="552.0" stroke="rgb(192,192,192)" stroke-width="1"/><text text-anchor="middle" alignment-baseline="hanging" x="313.1578947368421" y="553.0" font-size="12.0">10</text><line x1="50.0" y1="550.0" x2="550.0" y2="550.0" stroke="rgb(192,192,192)" stroke-width="1"/><text text-anchor="end" alignment-baseline="middle" x="45.0" y="550.0" font-size="12.0">0.00</text><line x1="48.0" y1="550.0" x2="52.0" y2="550.0" stroke="rgb(192,192,192)" stroke-width="1"/><line x1="50.0" y1="513.0325583838488" x2="550.0" y2="513.0325583838488" stroke="rgb(192,192,192)" stroke-width="1"/><text text-anchor="end" alignment-baseline="middle" x="45.0" y="513.0325583838488" font-size="12.0">0.01</text><line x1="48.0" y1="513.0325583838488" x2="52.0" y2="513.0325583838488" stroke="rgb(192,192,192)" stroke-width="1"/><line x1="50.0" y1="476.0651167676976" x2="550.0" y2="476.0651167676976" stroke="rgb(192,192,192)" stroke-width="1"/><text text-anchor="end" alignment-baseline="middle" x="45.0" y="476.0651167676976" font-size="12.0">0.02</text><line x1="48.0" y1="476.0651167676976" x2="52.0" y2="476.0651167676976" stroke="rgb(192,192,192)" stroke-width="1"/><line x1="50.0" y1="439.0976751515464" x2="550.0" y2="439.0976751515464" stroke="rgb(192,192,192)" stroke-width="1"/><text text-anchor="end" alignment-baseline="middle" x="45.0" y="439.0976751515464" font-size="12.0">0.03</text><line x1="48.0" y1="439.0976751515464" x2="52.0" y2="439.0976751515464" stroke="rgb(192,192,192)" stroke-width="1"/><line x1="50.0" y1="402.1302335353952" x2="550.0" y2="402.1302335353952" stroke="rgb(192,192,192)" stroke-width="1"/><text text-anchor="end" alignment-baseline="middle" x="45.0" y="402.1302335353952" font-size="12.0">0.04</text><line x1="48.0" y1="402.1302335353952" x2="52.0" y2="402.1302335353952" stroke="rgb(192,192,192)" stroke-width="1"/><line x1="50.0" y1="365.16279191924394" x2="550.0" y2="365.16279191924394" stroke="rgb(192,192,192)" stroke-width="1"/><text text-anchor="end" alignment-baseline="middle" x="45.0" y="365.16279191924394" font-size="12.0">0.05</text><line x1="48.0" y1="365.16279191924394" x2="52.0" y2="365.16279191924394" stroke="rgb(192,192,192)" stroke-width="1"/><line x1="50.0" y1="328.1953503030928" x2="550.0" y2="328.1953503030928" stroke="rgb(192,192,192)" stroke-width="1"/><text text-anchor="end" alignment-baseline="middle" x="45.0" y="328.1953503030928" font-size="12.0">0.06</text><line x1="48.0" y1="328.1953503030928" x2="52.0" y2="328.1953503030928" stroke="rgb(192,192,192)" stroke-width="1"/><line x1="50.0" y1="291.22790868694153" x2="550.0" y2="291.22790868694153" stroke="rgb(192,192,192)" stroke-width="1"/><text text-anchor="end" alignment-baseline="middle" x="45.0" y="291.22790868694153" font-size="12.0">0.07</text><line x1="48.0" y1="291.22790868694153" x2="52.0" y2="291.22790868694153" stroke="rgb(192,192,192)" stroke-width="1"/><line x1="50.0" y1="254.26046707079036" x2="550.0" y2="254.26046707079036" stroke="rgb(192,192,192)" stroke-width="1"/><text text-anchor="end" alignment-baseline="middle" x="45.0" y="254.26046707079036" font-size="12.0">0.08</text><line x1="48.0" y1="254.26046707079036" x2="52.0" y2="254.26046707079036" stroke="rgb(192,192,192)" stroke-width="1"/><line x1="50.0" y1="217.29302545463912" x2="550.0" y2="217.29302545463912" stroke="rgb(192,192,192)" stroke-width="1"/><text text-anchor="end" alignment-baseline="middle" x="45.0" y="217.29302545463912" font-size="12.0">0.09</text><line x1="48.0" y1="217.29302545463912" x2="52.0" y2="217.29302545463912" stroke="rgb(192,192,192)" stroke-width="1"/><line x1="50.0" y1="180.3255838384879" x2="550.0" y2="180.3255838384879" stroke="rgb(192,192,192)" stroke-width="1"/><text text-anchor="end" alignment-baseline="middle" x="45.0" y="180.3255838384879" font-size="12.0">0.10</text><line x1="48.0" y1="180.3255838384879" x2="52.0" y2="180.3255838384879" stroke="rgb(192,192,192)" stroke-width="1"/><line x1="50.0" y1="143.3581422223367" x2="550.0" y2="143.3581422223367" stroke="rgb(192,192,192)" stroke-width="1"/><text text-anchor="end" alignment-baseline="middle" x="45.0" y="143.3581422223367" font-size="12.0">0.11</text><line x1="48.0" y1="143.3581422223367" x2="52.0" y2="143.3581422223367" stroke="rgb(192,192,192)" stroke-width="1"/><line x1="50.0" y1="106.39070060618559" x2="550.0" y2="106.39070060618559" stroke="rgb(192,192,192)" stroke-width="1"/><text text-anchor="end" alignment-baseline="middle" x="45.0" y="106.39070060618559" font-size="12.0">0.12</text><line x1="48.0" y1="106.39070060618559" x2="52.0" y2="106.39070060618559" stroke="rgb(192,192,192)" stroke-width="1"/><line x1="50.0" y1="69.42325899003436" x2="550.0" y2="69.42325899003436" stroke="rgb(192,192,192)" stroke-width="1"/><text text-anchor="end" alignment-baseline="middle" x="45.0" y="69.42325899003436" font-size="12.0">0.13</text><line x1="48.0" y1="69.42325899003436" x2="52.0" y2="69.42325899003436" stroke="rgb(192,192,192)" stroke-width="1"/><polyline points="50.0,345.7866496921107 76.3157894736842,443.3699003451548 102.63157894736841,545.4619255487136 128.94736842105263,511.8967509781055 155.26315789473682,482.115798575591 181.57894736842104,482.115798575591 207.89473684210526,482.115798575591 234.21052631578945,482.115798575591 260.52631578947364,482.115798575591 286.8421052631579,482.115798575591 313.1578947368421,482.115798575591 339.4736842105263,482.115798575591 365.7894736842105,482.115798575591 392.10526315789474,482.115798575591 418.4210526315789,482.115798575591 444.7368421052632,482.115798575591 471.05263157894734,482.115798575591 497.36842105263156,482.115798575591 523.6842105263158,482.115798575591 550.0,482.115798575591" fill="none" stroke="rgb(255,0,0)" stroke-width="1"/><circle cx="50.0" cy="345.7866496921107" r="2" fill="rgb(255,0,0)"/><circle cx="76.3157894736842" cy="443.3699003451548" r="2" fill="rgb(255,0,0)"/><circle cx="102.63157894736841" cy="545.4619255487136" r="2" fill="rgb(255,0,0)"/><circle cx="128.94736842105263" cy="511.8967509781055" r="2" fill="rgb(255,0,0)"/><circle cx="155.26315789473682" cy="482.115798575591" r="2" fill="rgb(255,0,0)"/><circle cx="181.57894736842104" cy="482.115798575591" r="2" fill="rgb(255,0,0)"/><circle cx="207.89473684210526" cy="482.115798575591" r="2" fill="rgb(255,0,0)"/><circle cx="234.21052631578945" cy="482.115798575591" r="2" fill="rgb(255,0,0)"/><circle cx="260.52631578947364" cy="482.115798575591" r="2" fill="rgb(255,0,0)"/><circle cx="286.8421052631579" cy="482.115798575591" r="2" fill="rgb(255,0,0)"/><circle cx="313.1578947368421" cy="482.115798575591" r="2" fill="rgb(255,0,0)"/><circle cx="339.4736842105263" cy="482.115798575591" r="2" fill="rgb(255,0,0)"/><circle cx="365.7894736842105" cy="482.115798575591" r="2" fill="rgb(255,0,0)"/><circle cx="392.10526315789474" cy="482.115798575591" r="2" fill="rgb(255,0,0)"/><circle cx="418.4210526315789" cy="482.115798575591" r="2" fill="rgb(255,0,0)"/><circle cx="444.7368421052632" cy="482.115798575591" r="2" fill="rgb(255,0,0)"/><circle cx="471.05263157894734" cy="482.115798575591" r="2" fill="rgb(255,0,0)"/><circle cx="497.36842105263156" cy="482.115798575591" r="2" fill="rgb(255,0,0)"/><circle cx="523.6842105263158" cy="482.115798575591" r="2" fill="rgb(255,0,0)"/><circle cx="550.0" cy="482.115798575591" r="2" fill="rgb(255,0,0)"/><polyline points="50.0,498.27788934591103 76.3157894736842,119.97043619688986 102.63157894736841,50.0 128.94736842105263,78.82608869922734 155.26315789473682,109.7238151638233 181.57894736842104,109.7238151638233 207.89473684210526,109.7238151638233 234.21052631578945,109.7238151638233 260.52631578947364,109.7238151638233 286.8421052631579,109.7238151638233 313.1578947368421,109.7238151638233 339.4736842105263,109.7238151638233 365.7894736842105,109.7238151638233 392.10526315789474,109.7238151638233 418.4210526315789,109.7238151638233 444.7368421052632,109.7238151638233 471.05263157894734,109.7238151638233 497.36842105263156,109.7238151638233 523.6842105263158,109.7238151638233 550.0,109.7238151638233" fill="none" stroke="rgb(0,0,255)" stroke-width="1"/><circle cx="50.0" cy="498.27788934591103" r="2" fill="rgb(0,0,255)"/><circle cx="76.3157894736842" cy="119.97043619688986" r="2" fill="rgb(0,0,255)"/><circle cx="102.63157894736841" cy="50.0" r="2" fill="rgb(0,0,255)"/><circle cx="128.94736842105263" cy="78.82608869922734" r="2" fill="rgb(0,0,255)"/><circle cx="155.26315789473682" cy="109.7238151638233" r="2" fill="rgb(0,0,255)"/><circle cx="181.57894736842104" cy="109.7238151638233" r="2" fill="rgb(0,0,255)"/><circle cx="207.89473684210526" cy="109.7238151638233" r="2" fill="rgb(0,0,255)"/><circle cx="234.21052631578945" cy="109.7238151638233" r="2" fill="rgb(0,0,255)"/><circle cx="260.52631578947364" cy="109.7238151638233" r="2" fill="rgb(0,0,255)"/><circle cx="286.8421052631579" cy="109.7238151638233" r="2" fill="rgb(0,0,255)"/><circle cx="313.1578947368421" cy="109.7238151638233" r="2" fill="rgb(0,0,255)"/><circle cx="339.4736842105263" cy="109.7238151638233" r="2" fill="rgb(0,0,255)"/><circle cx="365.7894736842105" cy="109.7238151638233" r="2" fill="rgb(0,0,255)"/><circle cx="392.10526315789474" cy="109.7238151638233" r="2" fill="rgb(0,0,255)"/><circle cx="418.4210526315789" cy="109.7238151638233" r="2" fill="rgb(0,0,255)"/><circle cx="444.7368421052632" cy="109.7238151638233" r="2" fill="rgb(0,0,255)"/><circle cx="471.05263157894734" cy="109.7238151638233" r="2" fill="rgb(0,0,255)"/><circle cx="497.36842105263156" cy="109.7238151638233" r="2" fill="rgb(0,0,255)"/><circle cx="523.6842105263158" cy="109.7238151638233" r="2" fill="rgb(0,0,255)"/><circle cx="550.0" cy="109.7238151638233" r="2" fill="rgb(0,0,255)"/><polyline points="50.0,366.06096253652754 76.3157894736842,138.3496041235149 102.63157894736841,192.84627379607122 128.94736842105263,226.5625135202888 155.26315789473682,256.05804340960594 181.57894736842104,256.05804340960594 207.89473684210526,256.05804340960594 234.21052631578945,256.05804340960594 260.52631578947364,256.05804340960594 286.8421052631579,256.05804340960594 313.1578947368421,256.05804340960594 339.4736842105263,256.05804340960594 365.7894736842105,256.05804340960594 392.10526315789474,256.05804340960594 418.4210526315789,256.05804340960594 444.7368421052632,256.05804340960594 471.05263157894734,256.05804340960594 497.36842105263156,256.05804340960594 523.6842105263158,256.05804340960594 550.0,256.05804340960594" fill="none" stroke="rgb(0,255,0)" stroke-width="1"/><circle cx="50.0" cy="366.06096253652754" r="2" fill="rgb(0,255,0)"/><circle cx="76.3157894736842" cy="138.3496041235149" r="2" fill="rgb(0,255,0)"/><circle cx="102.63157894736841" cy="192.84627379607122" r="2" fill="rgb(0,255,0)"/><circle cx="128.94736842105263" cy="226.5625135202888" r="2" fill="rgb(0,255,0)"/><circle cx="155.26315789473682" cy="256.05804340960594" r="2" fill="rgb(0,255,0)"/><circle cx="181.57894736842104" cy="256.05804340960594" r="2" fill="rgb(0,255,0)"/><circle cx="207.89473684210526" cy="256.05804340960594" r="2" fill="rgb(0,255,0)"/><circle cx="234.21052631578945" cy="256.05804340960594" r="2" fill="rgb(0,255,0)"/><circle cx="260.52631578947364" cy="256.05804340960594" r="2" fill="rgb(0,255,0)"/><circle cx="286.8421052631579" cy="256.05804340960594" r="2" fill="rgb(0,255,0)"/><circle cx="313.1578947368421" cy="256.05804340960594" r="2" fill="rgb(0,255,0)"/><circle cx="339.4736842105263" cy="256.05804340960594" r="2" fill="rgb(0,255,0)"/><circle cx="365.7894736842105" cy="256.05804340960594" r="2" fill="rgb(0,255,0)"/><circle cx="392.10526315789474" cy="256.05804340960594" r="2" fill="rgb(0,255,0)"/><circle cx="418.4210526315789" cy="256.05804340960594" r="2" fill="rgb(0,255,0)"/><circle cx="444.7368421052632" cy="256.05804340960594" r="2" fill="rgb(0,255,0)"/><circle cx="471.05263157894734" cy="256.05804340960594" r="2" fill="rgb(0,255,0)"/><circle cx="497.36842105263156" cy="256.05804340960594" r="2" fill="rgb(0,255,0)"/><circle cx="523.6842105263158" cy="256.05804340960594" r="2" fill="rgb(0,255,0)"/><circle cx="550.0" cy="256.05804340960594" r="2" fill="rgb(0,255,0)"/><text x="350.0" y="20.0" text-anchor="middle" fill="rgb(0,0,0)" font-size="20.0">KMeans Mean Centroid Distances</text><text x="350.0" y="575.0" text-anchor="middle" fill="rgb(0,0,0)" font-size="12.0">step</text><text transform="rotate(-90.0 20.0 300.0)" x="20.0" y="300.0" text-anchor="middle" fill="rgb(0,0,0)" font-size="12.0">average distance to centroid</text><text x="620" y="62" fill="rgb(255,0,0)" font-size="12">0</text><text x="620" y="74" fill="rgb(0,0,255)" font-size="12">1</text><text x="620" y="86" fill="rgb(0,255,0)" font-size="12">2</text>
      Sorry, your browser does not support inline SVG.
    </svg>