<?xml version='1.0' encoding='UTF-8'?>
<svg version="1.1" width="700.0" height="600.0" onload="init(evt)" xmlns="http://www.w3.org/2000/svg">
      <style>.caption {
  font-size: 14px;
  font-family: Georgia, serif;
}
</style>
      <script type="text/ecmascript"><![CDATA[
function init(evt) {
  if ( window.svgDocument == null ) {
    svgDocument = evt.target.ownerDocument;
  }
}

function RectHover(evt, i, c) {
  rect = svgDocument.getElementById('rect' + i);
  if( c != null ) {
    rect.setAttributeNS(null, "fill", c)  
  }
  tooltiptext = svgDocument.getElementById('tooltiptext' + i);
  tooltipbg = svgDocument.getElementById('tooltipbg' + i);
  if( tooltipbg != null) {
    tbb = tooltiptext.getBBox();
    tooltipbg.setAttributeNS(null, "width", tbb.width);
    tooltipbg.setAttributeNS(null, "height", tbb.height);
    tooltipbg.setAttributeNS(null, "x", tbb.x);
    tooltipbg.setAttributeNS(null, "y", tbb.y);
    tooltipbg.setAttributeNS(null, "visibility", "visible");
  }
  tooltiptext.setAttributeNS(null,"visibility","visible");
}

function RectUnhover(evt, i, c) {
  rect = svgDocument.getElementById('rect' + i);
  if( c != null ) {
    rect.setAttributeNS(null, "fill", c)  
  }
  tooltiptext = svgDocument.getElementById('tooltiptext' + i);
  tooltiptext.setAttributeNS(null,"visibility","hidden");
  tooltipbg = svgDocument.getElementById('tooltipbg' + i);
  if( tooltipbg != null ) {
    tooltipbg.setAttributeNS(null,"visibility","hidden");
  }
}
]]></script>
      <line x1="50.0" y1="550.0" x2="550.0" y2="550.0" stroke="rgb(0,0,0)" stroke-width="1"/><line x1="50.0" y1="550.0" x2="50.0" y2="50.0" stroke="rgb(0,0,0)" stroke-width="1"/><line x1="50.0" y1="550.0" x2="50.0" y2="50.0" stroke="rgb(192,192,192)" stroke-width="1"/><line x1="50.0" y1="548.0" x2="50.0" y2="552.0" stroke="rgb(192,192,192)" stroke-width="1"/><text text-anchor="middle" alignment-baseline="hanging" x="50.0" y="553.0" font-size="12.0">0</text><line x1="313.1578947368421" y1="550.0" x2="313.1578947368421" y2="50.0" stroke="rgb(192,192,192)" stroke-width="1"/><line x1="313.1578947368421" y1="548.0" x2="313.1578947368421" y2="552.0" stroke="rgb(192,192,192)" stroke-width="1"/><text text-anchor="middle" alignment-baseline="hanging" x="313.1578947368421" y="553.0" font-size="12.0">10</text><line x1="50.0" y1="550.0" x2="550.0" y2="550.0" stroke="rgb(192,192,192)" stroke-width="1"/><text text-anchor="end" alignment-baseline="middle" x="45.0" y="550.0" font-size="12.0">0.00</text><line x1="48.0" y1="550.0" x2="52.0" y2="550.0" stroke="rgb(192,192,192)" stroke-width="1"/><line x1="50.0" y1="506.9126497123585" x2="550.0" y2="506.9126497123585" stroke="rgb(192,192,192)" stroke-width="1"/><text text-anchor="end" alignment-baseline="middle" x="45.0" y="506.9126497123585" font-size="12.0">0.01</text><line x1="48.0" y1="506.9126497123585" x2="52.0" y2="506.9126497123585" stroke="rgb(192,192,192)" stroke-width="1"/><line x1="50.0" y1="463.82529942471695" x2="550.0" y2="463.82529942471695" stroke="rgb(192,192,192)" stroke-width="1"/><text text-anchor="end" alignment-baseline="middle" x="45.0" y="463.82529942471695" font-size="12.0">0.02</text><line x1="48.0" y1="463.82529942471695" x2="52.0" y2="463.82529942471695" stroke="rgb(192,192,192)" stroke-width="1"/><line x1="50.0" y1="420.73794913707536" x2="550.0" y2="420.73794913707536" stroke="rgb(192,192,192)" stroke-width="1"/><text text-anchor="end" alignment-baseline="middle" x="45.0" y="420.73794913707536" font-size="12.0">0.03</text><line x1="48.0" y1="420.73794913707536" x2="52.0" y2="420.73794913707536" stroke="rgb(192,192,192)" stroke-width="1"/><line x1="50.0" y1="377.65059884943383" x2="550.0" y2="377.65059884943383" stroke="rgb(192,192,192)" stroke-width="1"/><text text-anchor="end" alignment-baseline="middle" x="45.0" y="377.65059884943383" font-size="12.0">0.04</text><line x1="48.0" y1="377.65059884943383" x2="52.0" y2="377.65059884943383" stroke="rgb(192,192,192)" stroke-width="1"/><line x1="50.0" y1="334.5632485617923" x2="550.0" y2="334.5632485617923" stroke="rgb(192,192,192)" stroke-width="1"/><text text-anchor="end" alignment-baseline="middle" x="45.0" y="334.5632485617923" font-size="12.0">0.05</text><line x1="48.0" y1="334.5632485617923" x2="52.0" y2="334.5632485617923" stroke="rgb(192,192,192)" stroke-width="1"/><line x1="50.0" y1="291.4758982741508" x2="550.0" y2="291.4758982741508" stroke="rgb(192,192,192)" stroke-width="1"/><text text-anchor="end" alignment-baseline="middle" x="45.0" y="291.4758982741508" font-size="12.0">0.06</text><line x1="48.0" y1="291.4758982741508" x2="52.0" y2="291.4758982741508" stroke="rgb(192,192,192)" stroke-width="1"/><line x1="50.0" y1="248.3885479865092" x2="550.0" y2="248.3885479865092" stroke="rgb(192,192,192)" stroke-width="1"/><text text-anchor="end" alignment-baseline="middle" x="45.0" y="248.3885479865092" font-size="12.0">0.07</text><line x1="48.0" y1="248.3885479865092" x2="52.0" y2="248.3885479865092" stroke="rgb(192,192,192)" stroke-width="1"/><line x1="50.0" y1="205.30119769886767" x2="550.0" y2="205.30119769886767" stroke="rgb(192,192,192)" stroke-width="1"/><text text-anchor="end" alignment-baseline="middle" x="45.0" y="205.30119769886767" font-size="12.0">0.08</text><line x1="48.0" y1="205.30119769886767" x2="52.0" y2="205.30119769886767" stroke="rgb(192,192,192)" stroke-width="1"/><line x1="50.0" y1="162.21384741122614" x2="550.0" y2="162.21384741122614" stroke="rgb(192,192,192)" stroke-width="1"/><text text-anchor="end" alignment-baseline="middle" x="45.0" y="162.21384741122614" font-size="12.0">0.09</text><line x1="48.0" y1="162.21384741122614" x2="52.0" y2="162.21384741122614" stroke="rgb(192,192,192)" stroke-width="1"/><line x1="50.0" y1="119.12649712358461" x2="550.0" y2="119.12649712358461" stroke="rgb(192,192,192)" stroke-width="1"/><text text-anchor="end" alignment-baseline="middle" x="45.0" y="119.12649712358461" font-size="12.0">0.10</text><line x1="48.0" y1="119.12649712358461" x2="52.0" y2="119.12649712358461" stroke="rgb(192,192,192)" stroke-width="1"/><line x1="50.0" y1="76.03914683594303" x2="550.0" y2="76.03914683594303" stroke="rgb(192,192,192)" stroke-width="1"/><text text-anchor="end" alignment-baseline="middle" x="45.0" y="76.03914683594303" font-size="12.0">0.11</text><line x1="48.0" y1="76.03914683594303" x2="52.0" y2="76.03914683594303" stroke="rgb(192,192,192)" stroke-width="1"/><polyline points="50.0,311.97941287112076 76.3157894736842,95.62788626923708 102.63157894736841,77.16734805158421 128.94736842105263,50.0 155.26315789473682,54.94341652285283 181.57894736842104,63.22458695488763 207.89473684210526,63.391178555828844 234.21052631578945,66.24877512094974 260.52631578947364,66.24877512094974 286.8421052631579,66.24877512094974 313.1578947368421,66.24877512094974 339.4736842105263,66.24877512094974 365.7894736842105,66.24877512094974 392.10526315789474,66.24877512094974 418.4210526315789,66.24877512094974 444.7368421052632,66.24877512094974 471.05263157894734,66.24877512094974 497.36842105263156,66.24877512094974 523.6842105263158,66.24877512094974 550.0,66.24877512094974" fill="none" stroke="rgb(255,0,0)" stroke-width="1"/><circle cx="50.0" cy="311.97941287112076" r="2" fill="rgb(255,0,0)"/><circle cx="76.3157894736842" cy="95.62788626923708" r="2" fill="rgb(255,0,0)"/><circle cx="102.63157894736841" cy="77.16734805158421" r="2" fill="rgb(255,0,0)"/><circle cx="128.94736842105263" cy="50.0" r="2" fill="rgb(255,0,0)"/><circle cx="155.26315789473682" cy="54.94341652285283" r="2" fill="rgb(255,0,0)"/><circle cx="181.57894736842104" cy="63.22458695488763" r="2" fill="rgb(255,0,0)"/><circle cx="207.89473684210526" cy="63.391178555828844" r="2" fill="rgb(255,0,0)"/><circle cx="234.21052631578945" cy="66.24877512094974" r="2" fill="rgb(255,0,0)"/><circle cx="260.52631578947364" cy="66.24877512094974" r="2" fill="rgb(255,0,0)"/><circle cx="286.8421052631579" cy="66.24877512094974" r="2" fill="rgb(255,0,0)"/><circle cx="313.1578947368421" cy="66.24877512094974" r="2" fill="rgb(255,0,0)"/><circle cx="339.4736842105263" cy="66.24877512094974" r="2" fill="rgb(255,0,0)"/><circle cx="365.7894736842105" cy="66.24877512094974" r="2" fill="rgb(255,0,0)"/><circle cx="392.10526315789474" cy="66.24877512094974" r="2" fill="rgb(255,0,0)"/><circle cx="418.4210526315789" cy="66.24877512094974" r="2" fill="rgb(255,0,0)"/><circle cx="444.7368421052632" cy="66.24877512094974" r="2" fill="rgb(255,0,0)"/><circle cx="471.05263157894734" cy="66.24877512094974" r="2" fill="rgb(255,0,0)"/><circle cx="497.36842105263156" cy="66.24877512094974" r="2" fill="rgb(255,0,0)"/><circle cx="523.6842105263158" cy="66.24877512094974" r="2" fill="rgb(255,0,0)"/><circle cx="550.0" cy="66.24877512094974" r="2" fill="rgb(255,0,0)"/><polyline points="50.0,199.38874326311281 76.3157894736842,309.4817834926289 102.63157894736841,371.85296536100077 128.94736842105263,424.26433023393867 155.26315789473682,447.53888972324046 181.57894736842104,448.01337874847036 207.89473684210526,448.46792044877895 234.21052631578945,444.979257458079 260.52631578947364,444.979257458079 286.8421052631579,444.979257458079 313.1578947368421,444.979257458079 339.4736842105263,444.979257458079 365.7894736842105,444.979257458079 392.10526315789474,444.979257458079 418.4210526315789,444.979257458079 444.7368421052632,444.979257458079 471.05263157894734,444.979257458079 497.36842105263156,444.979257458079 523.6842105263158,444.979257458079 550.0,444.979257458079" fill="none" stroke="rgb(0,0,255)" stroke-width="1"/><circle cx="50.0" cy="199.38874326311281" r="2" fill="rgb(0,0,255)"/><circle cx="76.3157894736842" cy="309.4817834926289" r="2" fill="rgb(0,0,255)"/><circle cx="102.63157894736841" cy="371.85296536100077" r="2" fill="rgb(0,0,255)"/><circle cx="128.94736842105263" cy="424.26433023393867" r="2" fill="rgb(0,0,255)"/><circle cx="155.26315789473682" cy="447.53888972324046" r="2" fill="rgb(0,0,255)"/><circle cx="181.57894736842104" cy="448.01337874847036" r="2" fill="rgb(0,0,255)"/><circle cx="207.89473684210526" cy="448.46792044877895" r="2" fill="rgb(0,0,255)"/><circle cx="234.21052631578945" cy="444.979257458079" r="2" fill="rgb(0,0,255)"/><circle cx="260.52631578947364" cy="444.979257458079" r="2" fill="rgb(0,0,255)"/><circle cx="286.8421052631579" cy="444.979257458079" r="2" fill="rgb(0,0,255)"/><circle cx="313.1578947368421" cy="444.979257458079" r="2" fill="rgb(0,0,255)"/><circle cx="339.4736842105263" cy="444.979257458079" r="2" fill="rgb(0,0,255)"/><circle cx="365.7894736842105" cy="444.979257458079" r="2" fill="rgb(0,0,255)"/><circle cx="392.10526315789474" cy="444.979257458079" r="2" fill="rgb(0,0,255)"/><circle cx="418.4210526315789" cy="444.979257458079" r="2" fill="rgb(0,0,255)"/><circle cx="444.7368421052632" cy="444.979257458079" r="2" fill="rgb(0,0,255)"/><circle cx="471.05263157894734" cy="444.979257458079" r="2" fill="rgb(0,0,255)"/><circle cx="497.36842105263156" cy="444.979257458079" r="2" fill="rgb(0,0,255)"/><circle cx="523.6842105263158" cy="444.979257458079" r="2" fill="rgb(0,0,255)"/><circle cx="550.0" cy="444.979257458079" r="2" fill="rgb(0,0,255)"/><polyline points="50.0,335.610110078659 76.3157894736842,210.81011194489446 102.63157894736841,255.6786460914708 128.94736842105263,280.78464843268074 155.26315789473682,319.68446433908434 181.57894736842104,348.46662084874004 207.89473684210526,357.5644783232648 234.21052631578945,367.7833547204907 260.52631578947364,367.7833547204907 286.8421052631579,367.7833547204907 313.1578947368421,367.7833547204907 339.4736842105263,367.7833547204907 365.7894736842105,367.7833547204907 392.10526315789474,367.7833547204907 418.4210526315789,367.7833547204907 444.7368421052632,367.7833547204907 471.05263157894734,367.7833547204907 497.36842105263156,367.7833547204907 523.6842105263158,367.7833547204907 550.0,367.7833547204907" fill="none" stroke="rgb(0,255,0)" stroke-width="1"/><circle cx="50.0" cy="335.610110078659" r="2" fill="rgb(0,255,0)"/><circle cx="76.3157894736842" cy="210.81011194489446" r="2" fill="rgb(0,255,0)"/><circle cx="102.63157894736841" cy="255.6786460914708" r="2" fill="rgb(0,255,0)"/><circle cx="128.94736842105263" cy="280.78464843268074" r="2" fill="rgb(0,255,0)"/><circle cx="155.26315789473682" cy="319.68446433908434" r="2" fill="rgb(0,255,0)"/><circle cx="181.57894736842104" cy="348.46662084874004" r="2" fill="rgb(0,255,0)"/><circle cx="207.89473684210526" cy="357.5644783232648" r="2" fill="rgb(0,255,0)"/><circle cx="234.21052631578945" cy="367.7833547204907" r="2" fill="rgb(0,255,0)"/><circle cx="260.52631578947364" cy="367.7833547204907" r="2" fill="rgb(0,255,0)"/><circle cx="286.8421052631579" cy="367.7833547204907" r="2" fill="rgb(0,255,0)"/><circle cx="313.1578947368421" cy="367.7833547204907" r="2" fill="rgb(0,255,0)"/><circle cx="339.4736842105263" cy="367.7833547204907" r="2" fill="rgb(0,255,0)"/><circle cx="365.7894736842105" cy="367.7833547204907" r="2" fill="rgb(0,255,0)"/><circle cx="392.10526315789474" cy="367.7833547204907" r="2" fill="rgb(0,255,0)"/><circle cx="418.4210526315789" cy="367.7833547204907" r="2" fill="rgb(0,255,0)"/><circle cx="444.7368421052632" cy="367.7833547204907" r="2" fill="rgb(0,255,0)"/><circle cx="471.05263157894734" cy="367.7833547204907" r="2" fill="rgb(0,255,0)"/><circle cx="497.36842105263156" cy="367.7833547204907" r="2" fill="rgb(0,255,0)"/><circle cx="523.6842105263158" cy="367.7833547204907" r="2" fill="rgb(0,255,0)"/><circle cx="550.0" cy="367.7833547204907" r="2" fill="rgb(0,255,0)"/><text x="350.0" y="20.0" text-anchor="middle" fill="rgb(0,0,0)" font-size="20.0">KMeans Mean Centroid Distances</text><text x="350.0" y="575.0" text-anchor="middle" fill="rgb(0,0,0)" font-size="12.0">step</text><text transform="rotate(-90.0 20.0 300.0)" x="20.0" y="300.0" text-anchor="middle" fill="rgb(0,0,0)" font-size="12.0">average distance to centroid</text><text x="620" y="62" fill="rgb(255,0,0)" font-size="12">0</text><text x="620" y="74" fill="rgb(0,0,255)" font-size="12">1</text><text x="620" y="86" fill="rgb(0,255,0)" font-size="12">2</text>
      Sorry, your browser does not support inline SVG.
    </svg>