<?xml version='1.0' encoding='UTF-8'?>
<svg version="1.1" width="700.0" height="600.0" onload="init(evt)" xmlns="http://www.w3.org/2000/svg">
      <style>.caption {
  font-size: 14px;
  font-family: Georgia, serif;
}
</style>
      <script type="text/ecmascript"><![CDATA[
function init(evt) {
  if ( window.svgDocument == null ) {
    svgDocument = evt.target.ownerDocument;
  }
}

function RectHover(evt, i, c) {
  rect = svgDocument.getElementById('rect' + i);
  if( c != null ) {
    rect.setAttributeNS(null, "fill", c)  
  }
  tooltiptext = svgDocument.getElementById('tooltiptext' + i);
  tooltipbg = svgDocument.getElementById('tooltipbg' + i);
  if( tooltipbg != null) {
    tbb = tooltiptext.getBBox();
    tooltipbg.setAttributeNS(null, "width", tbb.width);
    tooltipbg.setAttributeNS(null, "height", tbb.height);
    tooltipbg.setAttributeNS(null, "x", tbb.x);
    tooltipbg.setAttributeNS(null, "y", tbb.y);
    tooltipbg.setAttributeNS(null, "visibility", "visible");
  }
  tooltiptext.setAttributeNS(null,"visibility","visible");
}

function RectUnhover(evt, i, c) {
  rect = svgDocument.getElementById('rect' + i);
  if( c != null ) {
    rect.setAttributeNS(null, "fill", c)  
  }
  tooltiptext = svgDocument.getElementById('tooltiptext' + i);
  tooltiptext.setAttributeNS(null,"visibility","hidden");
  tooltipbg = svgDocument.getElementById('tooltipbg' + i);
  if( tooltipbg != null ) {
    tooltipbg.setAttributeNS(null,"visibility","hidden");
  }
}
]]></script>
      <line x1="50.0" y1="550.0" x2="550.0" y2="550.0" stroke="rgb(0,0,0)" stroke-width="1"/><line x1="50.0" y1="550.0" x2="50.0" y2="50.0" stroke="rgb(0,0,0)" stroke-width="1"/><line x1="50.0" y1="550.0" x2="50.0" y2="50.0" stroke="rgb(192,192,192)" stroke-width="1"/><line x1="50.0" y1="548.0" x2="50.0" y2="552.0" stroke="rgb(192,192,192)" stroke-width="1"/><text text-anchor="middle" alignment-baseline="hanging" x="50.0" y="553.0" font-size="12.0">0</text><line x1="313.1578947368421" y1="550.0" x2="313.1578947368421" y2="50.0" stroke="rgb(192,192,192)" stroke-width="1"/><line x1="313.1578947368421" y1="548.0" x2="313.1578947368421" y2="552.0" stroke="rgb(192,192,192)" stroke-width="1"/><text text-anchor="middle" alignment-baseline="hanging" x="313.1578947368421" y="553.0" font-size="12.0">10</text><line x1="50.0" y1="550.0" x2="550.0" y2="550.0" stroke="rgb(192,192,192)" stroke-width="1"/><text text-anchor="end" alignment-baseline="middle" x="45.0" y="550.0" font-size="12.0">0.00</text><line x1="48.0" y1="550.0" x2="52.0" y2="550.0" stroke="rgb(192,192,192)" stroke-width="1"/><line x1="50.0" y1="512.4560404521446" x2="550.0" y2="512.4560404521446" stroke="rgb(192,192,192)" stroke-width="1"/><text text-anchor="end" alignment-baseline="middle" x="45.0" y="512.4560404521446" font-size="12.0">0.01</text><line x1="48.0" y1="512.4560404521446" x2="52.0" y2="512.4560404521446" stroke="rgb(192,192,192)" stroke-width="1"/><line x1="50.0" y1="474.91208090428927" x2="550.0" y2="474.91208090428927" stroke="rgb(192,192,192)" stroke-width="1"/><text text-anchor="end" alignment-baseline="middle" x="45.0" y="474.91208090428927" font-size="12.0">0.02</text><line x1="48.0" y1="474.91208090428927" x2="52.0" y2="474.91208090428927" stroke="rgb(192,192,192)" stroke-width="1"/><line x1="50.0" y1="437.36812135643385" x2="550.0" y2="437.36812135643385" stroke="rgb(192,192,192)" stroke-width="1"/><text text-anchor="end" alignment-baseline="middle" x="45.0" y="437.36812135643385" font-size="12.0">0.03</text><line x1="48.0" y1="437.36812135643385" x2="52.0" y2="437.36812135643385" stroke="rgb(192,192,192)" stroke-width="1"/><line x1="50.0" y1="399.8241618085785" x2="550.0" y2="399.8241618085785" stroke="rgb(192,192,192)" stroke-width="1"/><text text-anchor="end" alignment-baseline="middle" x="45.0" y="399.8241618085785" font-size="12.0">0.04</text><line x1="48.0" y1="399.8241618085785" x2="52.0" y2="399.8241618085785" stroke="rgb(192,192,192)" stroke-width="1"/><line x1="50.0" y1="362.28020226072306" x2="550.0" y2="362.28020226072306" stroke="rgb(192,192,192)" stroke-width="1"/><text text-anchor="end" alignment-baseline="middle" x="45.0" y="362.28020226072306" font-size="12.0">0.05</text><line x1="48.0" y1="362.28020226072306" x2="52.0" y2="362.28020226072306" stroke="rgb(192,192,192)" stroke-width="1"/><line x1="50.0" y1="324.7362427128677" x2="550.0" y2="324.7362427128677" stroke="rgb(192,192,192)" stroke-width="1"/><text text-anchor="end" alignment-baseline="middle" x="45.0" y="324.7362427128677" font-size="12.0">0.06</text><line x1="48.0" y1="324.7362427128677" x2="52.0" y2="324.7362427128677" stroke="rgb(192,192,192)" stroke-width="1"/><line x1="50.0" y1="287.1922831650123" x2="550.0" y2="287.1922831650123" stroke="rgb(192,192,192)" stroke-width="1"/><text text-anchor="end" alignment-baseline="middle" x="45.0" y="287.1922831650123" font-size="12.0">0.07</text><line x1="48.0" y1="287.1922831650123" x2="52.0" y2="287.1922831650123" stroke="rgb(192,192,192)" stroke-width="1"/><line x1="50.0" y1="249.64832361715696" x2="550.0" y2="249.64832361715696" stroke="rgb(192,192,192)" stroke-width="1"/><text text-anchor="end" alignment-baseline="middle" x="45.0" y="249.64832361715696" font-size="12.0">0.08</text><line x1="48.0" y1="249.64832361715696" x2="52.0" y2="249.64832361715696" stroke="rgb(192,192,192)" stroke-width="1"/><line x1="50.0" y1="212.1043640693016" x2="550.0" y2="212.1043640693016" stroke="rgb(192,192,192)" stroke-width="1"/><text text-anchor="end" alignment-baseline="middle" x="45.0" y="212.1043640693016" font-size="12.0">0.09</text><line x1="48.0" y1="212.1043640693016" x2="52.0" y2="212.1043640693016" stroke="rgb(192,192,192)" stroke-width="1"/><line x1="50.0" y1="174.56040452144617" x2="550.0" y2="174.56040452144617" stroke="rgb(192,192,192)" stroke-width="1"/><text text-anchor="end" alignment-baseline="middle" x="45.0" y="174.56040452144617" font-size="12.0">0.10</text><line x1="48.0" y1="174.56040452144617" x2="52.0" y2="174.56040452144617" stroke="rgb(192,192,192)" stroke-width="1"/><line x1="50.0" y1="137.01644497359086" x2="550.0" y2="137.01644497359086" stroke="rgb(192,192,192)" stroke-width="1"/><text text-anchor="end" alignment-baseline="middle" x="45.0" y="137.01644497359086" font-size="12.0">0.11</text><line x1="48.0" y1="137.01644497359086" x2="52.0" y2="137.01644497359086" stroke="rgb(192,192,192)" stroke-width="1"/><line x1="50.0" y1="99.47248542573544" x2="550.0" y2="99.47248542573544" stroke="rgb(192,192,192)" stroke-width="1"/><text text-anchor="end" alignment-baseline="middle" x="45.0" y="99.47248542573544" font-size="12.0">0.12</text><line x1="48.0" y1="99.47248542573544" x2="52.0" y2="99.47248542573544" stroke="rgb(192,192,192)" stroke-width="1"/><line x1="50.0" y1="61.92852587788008" x2="550.0" y2="61.92852587788008" stroke="rgb(192,192,192)" stroke-width="1"/><text text-anchor="end" alignment-baseline="middle" x="45.0" y="61.92852587788008" font-size="12.0">0.13</text><line x1="48.0" y1="61.92852587788008" x2="52.0" y2="61.92852587788008" stroke="rgb(192,192,192)" stroke-width="1"/><polyline points="50.0,436.76155494106035 76.3157894736842,441.89888984942314 102.63157894736841,426.8324867386679 128.94736842105263,479.04801277559454 155.26315789473682,492.39372130078056 181.57894736842104,535.9489521580927 207.89473684210526,529.303589273579 234.21052631578945,504.64685002036276 260.52631578947364,476.12954718229133 286.8421052631579,476.12954718229133 313.1578947368421,476.12954718229133 339.4736842105263,476.12954718229133 365.7894736842105,476.12954718229133 392.10526315789474,476.12954718229133 418.4210526315789,476.12954718229133 444.7368421052632,476.12954718229133 471.05263157894734,476.12954718229133 497.36842105263156,476.12954718229133 523.6842105263158,476.12954718229133 550.0,476.12954718229133" fill="none" stroke="rgb(255,0,0)" stroke-width="1"/><circle cx="50.0" cy="436.76155494106035" r="2" fill="rgb(255,0,0)"/><circle cx="76.3157894736842" cy="441.89888984942314" r="2" fill="rgb(255,0,0)"/><circle cx="102.63157894736841" cy="426.8324867386679" r="2" fill="rgb(255,0,0)"/><circle cx="128.94736842105263" cy="479.04801277559454" r="2" fill="rgb(255,0,0)"/><circle cx="155.26315789473682" cy="492.39372130078056" r="2" fill="rgb(255,0,0)"/><circle cx="181.57894736842104" cy="535.9489521580927" r="2" fill="rgb(255,0,0)"/><circle cx="207.89473684210526" cy="529.303589273579" r="2" fill="rgb(255,0,0)"/><circle cx="234.21052631578945" cy="504.64685002036276" r="2" fill="rgb(255,0,0)"/><circle cx="260.52631578947364" cy="476.12954718229133" r="2" fill="rgb(255,0,0)"/><circle cx="286.8421052631579" cy="476.12954718229133" r="2" fill="rgb(255,0,0)"/><circle cx="313.1578947368421" cy="476.12954718229133" r="2" fill="rgb(255,0,0)"/><circle cx="339.4736842105263" cy="476.12954718229133" r="2" fill="rgb(255,0,0)"/><circle cx="365.7894736842105" cy="476.12954718229133" r="2" fill="rgb(255,0,0)"/><circle cx="392.10526315789474" cy="476.12954718229133" r="2" fill="rgb(255,0,0)"/><circle cx="418.4210526315789" cy="476.12954718229133" r="2" fill="rgb(255,0,0)"/><circle cx="444.7368421052632" cy="476.12954718229133" r="2" fill="rgb(255,0,0)"/><circle cx="471.05263157894734" cy="476.12954718229133" r="2" fill="rgb(255,0,0)"/><circle cx="497.36842105263156" cy="476.12954718229133" r="2" fill="rgb(255,0,0)"/><circle cx="523.6842105263158" cy="476.12954718229133" r="2" fill="rgb(255,0,0)"/><circle cx="550.0" cy="476.12954718229133" r="2" fill="rgb(255,0,0)"/><polyline points="50.0,287.3563404400697 76.3157894736842,320.6199702254197 102.63157894736841,249.65943168195804 128.94736842105263,177.13287793354823 155.26315789473682,145.43410905024024 181.57894736842104,83.16442185714487 207.89473684210526,50.0 234.21052631578945,71.66218148210174 260.52631578947364,103.58067163166743 286.8421052631579,103.58067163166743 313.1578947368421,103.58067163166743 339.4736842105263,103.58067163166743 365.7894736842105,103.58067163166743 392.10526315789474,103.58067163166743 418.4210526315789,103.58067163166743 444.7368421052632,103.58067163166743 471.05263157894734,103.58067163166743 497.36842105263156,103.58067163166743 523.6842105263158,103.58067163166743 550.0,103.58067163166743" fill="none" stroke="rgb(0,0,255)" stroke-width="1"/><circle cx="50.0" cy="287.3563404400697" r="2" fill="rgb(0,0,255)"/><circle cx="76.3157894736842" cy="320.6199702254197" r="2" fill="rgb(0,0,255)"/><circle cx="102.63157894736841" cy="249.65943168195804" r="2" fill="rgb(0,0,255)"/><circle cx="128.94736842105263" cy="177.13287793354823" r="2" fill="rgb(0,0,255)"/><circle cx="155.26315789473682" cy="145.43410905024024" r="2" fill="rgb(0,0,255)"/><circle cx="181.57894736842104" cy="83.16442185714487" r="2" fill="rgb(0,0,255)"/><circle cx="207.89473684210526" cy="50.0" r="2" fill="rgb(0,0,255)"/><circle cx="234.21052631578945" cy="71.66218148210174" r="2" fill="rgb(0,0,255)"/><circle cx="260.52631578947364" cy="103.58067163166743" r="2" fill="rgb(0,0,255)"/><circle cx="286.8421052631579" cy="103.58067163166743" r="2" fill="rgb(0,0,255)"/><circle cx="313.1578947368421" cy="103.58067163166743" r="2" fill="rgb(0,0,255)"/><circle cx="339.4736842105263" cy="103.58067163166743" r="2" fill="rgb(0,0,255)"/><circle cx="365.7894736842105" cy="103.58067163166743" r="2" fill="rgb(0,0,255)"/><circle cx="392.10526315789474" cy="103.58067163166743" r="2" fill="rgb(0,0,255)"/><circle cx="418.4210526315789" cy="103.58067163166743" r="2" fill="rgb(0,0,255)"/><circle cx="444.7368421052632" cy="103.58067163166743" r="2" fill="rgb(0,0,255)"/><circle cx="471.05263157894734" cy="103.58067163166743" r="2" fill="rgb(0,0,255)"/><circle cx="497.36842105263156" cy="103.58067163166743" r="2" fill="rgb(0,0,255)"/><circle cx="523.6842105263158" cy="103.58067163166743" r="2" fill="rgb(0,0,255)"/><circle cx="550.0" cy="103.58067163166743" r="2" fill="rgb(0,0,255)"/><polyline points="50.0,131.12194233867456 76.3157894736842,94.66390987378531 102.63157894736841,61.32591629449496 128.94736842105263,115.69447080515317 155.26315789473682,129.72678693043002 181.57894736842104,172.07028808683862 207.89473684210526,200.80972853512668 234.21052631578945,226.21343140140021 260.52631578947364,256.7906866855168 286.8421052631579,256.7906866855168 313.1578947368421,256.7906866855168 339.4736842105263,256.7906866855168 365.7894736842105,256.7906866855168 392.10526315789474,256.7906866855168 418.4210526315789,256.7906866855168 444.7368421052632,256.7906866855168 471.05263157894734,256.7906866855168 497.36842105263156,256.7906866855168 523.6842105263158,256.7906866855168 550.0,256.7906866855168" fill="none" stroke="rgb(0,255,0)" stroke-width="1"/><circle cx="50.0" cy="131.12194233867456" r="2" fill="rgb(0,255,0)"/><circle cx="76.3157894736842" cy="94.66390987378531" r="2" fill="rgb(0,255,0)"/><circle cx="102.63157894736841" cy="61.32591629449496" r="2" fill="rgb(0,255,0)"/><circle cx="128.94736842105263" cy="115.69447080515317" r="2" fill="rgb(0,255,0)"/><circle cx="155.26315789473682" cy="129.72678693043002" r="2" fill="rgb(0,255,0)"/><circle cx="181.57894736842104" cy="172.07028808683862" r="2" fill="rgb(0,255,0)"/><circle cx="207.89473684210526" cy="200.80972853512668" r="2" fill="rgb(0,255,0)"/><circle cx="234.21052631578945" cy="226.21343140140021" r="2" fill="rgb(0,255,0)"/><circle cx="260.52631578947364" cy="256.7906866855168" r="2" fill="rgb(0,255,0)"/><circle cx="286.8421052631579" cy="256.7906866855168" r="2" fill="rgb(0,255,0)"/><circle cx="313.1578947368421" cy="256.7906866855168" r="2" fill="rgb(0,255,0)"/><circle cx="339.4736842105263" cy="256.7906866855168" r="2" fill="rgb(0,255,0)"/><circle cx="365.7894736842105" cy="256.7906866855168" r="2" fill="rgb(0,255,0)"/><circle cx="392.10526315789474" cy="256.7906866855168" r="2" fill="rgb(0,255,0)"/><circle cx="418.4210526315789" cy="256.7906866855168" r="2" fill="rgb(0,255,0)"/><circle cx="444.7368421052632" cy="256.7906866855168" r="2" fill="rgb(0,255,0)"/><circle cx="471.05263157894734" cy="256.7906866855168" r="2" fill="rgb(0,255,0)"/><circle cx="497.36842105263156" cy="256.7906866855168" r="2" fill="rgb(0,255,0)"/><circle cx="523.6842105263158" cy="256.7906866855168" r="2" fill="rgb(0,255,0)"/><circle cx="550.0" cy="256.7906866855168" r="2" fill="rgb(0,255,0)"/><text x="350.0" y="20.0" text-anchor="middle" fill="rgb(0,0,0)" font-size="20.0">KMeans Mean Centroid Distances</text><text x="350.0" y="575.0" text-anchor="middle" fill="rgb(0,0,0)" font-size="12.0">step</text><text transform="rotate(-90.0 20.0 300.0)" x="20.0" y="300.0" text-anchor="middle" fill="rgb(0,0,0)" font-size="12.0">average distance to centroid</text><text x="620" y="62" fill="rgb(255,0,0)" font-size="12">0</text><text x="620" y="74" fill="rgb(0,0,255)" font-size="12">1</text><text x="620" y="86" fill="rgb(0,255,0)" font-size="12">2</text>
      Sorry, your browser does not support inline SVG.
    </svg>