<?xml version='1.0' encoding='UTF-8'?>
<svg version="1.1" width="700.0" height="600.0" onload="init(evt)" xmlns="http://www.w3.org/2000/svg">
      <style>.caption {
  font-size: 14px;
  font-family: Georgia, serif;
}
</style>
      <script type="text/ecmascript"><![CDATA[
function init(evt) {
  if ( window.svgDocument == null ) {
    svgDocument = evt.target.ownerDocument;
  }
}

function RectHover(evt, i, c) {
  rect = svgDocument.getElementById('rect' + i);
  if( c != null ) {
    rect.setAttributeNS(null, "fill", c)  
  }
  tooltiptext = svgDocument.getElementById('tooltiptext' + i);
  tooltipbg = svgDocument.getElementById('tooltipbg' + i);
  if( tooltipbg != null) {
    tbb = tooltiptext.getBBox();
    tooltipbg.setAttributeNS(null, "width", tbb.width);
    tooltipbg.setAttributeNS(null, "height", tbb.height);
    tooltipbg.setAttributeNS(null, "x", tbb.x);
    tooltipbg.setAttributeNS(null, "y", tbb.y);
    tooltipbg.setAttributeNS(null, "visibility", "visible");
  }
  tooltiptext.setAttributeNS(null,"visibility","visible");
}

function RectUnhover(evt, i, c) {
  rect = svgDocument.getElementById('rect' + i);
  if( c != null ) {
    rect.setAttributeNS(null, "fill", c)  
  }
  tooltiptext = svgDocument.getElementById('tooltiptext' + i);
  tooltiptext.setAttributeNS(null,"visibility","hidden");
  tooltipbg = svgDocument.getElementById('tooltipbg' + i);
  if( tooltipbg != null ) {
    tooltipbg.setAttributeNS(null,"visibility","hidden");
  }
}
]]></script>
      <line x1="50.0" y1="550.0" x2="550.0" y2="550.0" stroke="rgb(0,0,0)" stroke-width="1"/><line x1="50.0" y1="550.0" x2="50.0" y2="50.0" stroke="rgb(0,0,0)" stroke-width="1"/><line x1="50.0" y1="550.0" x2="50.0" y2="50.0" stroke="rgb(192,192,192)" stroke-width="1"/><line x1="50.0" y1="548.0" x2="50.0" y2="552.0" stroke="rgb(192,192,192)" stroke-width="1"/><text text-anchor="middle" alignment-baseline="hanging" x="50.0" y="553.0" font-size="12.0">0</text><line x1="313.1578947368421" y1="550.0" x2="313.1578947368421" y2="50.0" stroke="rgb(192,192,192)" stroke-width="1"/><line x1="313.1578947368421" y1="548.0" x2="313.1578947368421" y2="552.0" stroke="rgb(192,192,192)" stroke-width="1"/><text text-anchor="middle" alignment-baseline="hanging" x="313.1578947368421" y="553.0" font-size="12.0">10</text><line x1="50.0" y1="550.0" x2="550.0" y2="550.0" stroke="rgb(192,192,192)" stroke-width="1"/><text text-anchor="end" alignment-baseline="middle" x="45.0" y="550.0" font-size="12.0">0.0</text><line x1="48.0" y1="550.0" x2="52.0" y2="550.0" stroke="rgb(192,192,192)" stroke-width="1"/><line x1="50.0" y1="303.7391289159726" x2="550.0" y2="303.7391289159726" stroke="rgb(192,192,192)" stroke-width="1"/><text text-anchor="end" alignment-baseline="middle" x="45.0" y="303.7391289159726" font-size="12.0">0.1</text><line x1="48.0" y1="303.7391289159726" x2="52.0" y2="303.7391289159726" stroke="rgb(192,192,192)" stroke-width="1"/><line x1="50.0" y1="57.4782578319452" x2="550.0" y2="57.4782578319452" stroke="rgb(192,192,192)" stroke-width="1"/><text text-anchor="end" alignment-baseline="middle" x="45.0" y="57.4782578319452" font-size="12.0">0.2</text><line x1="48.0" y1="57.4782578319452" x2="52.0" y2="57.4782578319452" stroke="rgb(192,192,192)" stroke-width="1"/><polyline points="50.0,264.1583415029356 76.3157894736842,469.9962420504046 102.63157894736841,503.46069410512416 128.94736842105263,540.7835419522523 155.26315789473682,536.4246707188549 181.57894736842104,518.771862419021 207.89473684210526,504.77852443996363 234.21052631578945,501.5463944737293 260.52631578947364,501.5463944737293 286.8421052631579,501.5463944737293 313.1578947368421,501.5463944737293 339.4736842105263,501.5463944737293 365.7894736842105,501.5463944737293 392.10526315789474,501.5463944737293 418.4210526315789,501.5463944737293 444.7368421052632,501.5463944737293 471.05263157894734,501.5463944737293 497.36842105263156,501.5463944737293 523.6842105263158,501.5463944737293 550.0,501.5463944737293" fill="none" stroke="rgb(255,0,0)" stroke-width="1"/><circle cx="50.0" cy="264.1583415029356" r="2" fill="rgb(255,0,0)"/><circle cx="76.3157894736842" cy="469.9962420504046" r="2" fill="rgb(255,0,0)"/><circle cx="102.63157894736841" cy="503.46069410512416" r="2" fill="rgb(255,0,0)"/><circle cx="128.94736842105263" cy="540.7835419522523" r="2" fill="rgb(255,0,0)"/><circle cx="155.26315789473682" cy="536.4246707188549" r="2" fill="rgb(255,0,0)"/><circle cx="181.57894736842104" cy="518.771862419021" r="2" fill="rgb(255,0,0)"/><circle cx="207.89473684210526" cy="504.77852443996363" r="2" fill="rgb(255,0,0)"/><circle cx="234.21052631578945" cy="501.5463944737293" r="2" fill="rgb(255,0,0)"/><circle cx="260.52631578947364" cy="501.5463944737293" r="2" fill="rgb(255,0,0)"/><circle cx="286.8421052631579" cy="501.5463944737293" r="2" fill="rgb(255,0,0)"/><circle cx="313.1578947368421" cy="501.5463944737293" r="2" fill="rgb(255,0,0)"/><circle cx="339.4736842105263" cy="501.5463944737293" r="2" fill="rgb(255,0,0)"/><circle cx="365.7894736842105" cy="501.5463944737293" r="2" fill="rgb(255,0,0)"/><circle cx="392.10526315789474" cy="501.5463944737293" r="2" fill="rgb(255,0,0)"/><circle cx="418.4210526315789" cy="501.5463944737293" r="2" fill="rgb(255,0,0)"/><circle cx="444.7368421052632" cy="501.5463944737293" r="2" fill="rgb(255,0,0)"/><circle cx="471.05263157894734" cy="501.5463944737293" r="2" fill="rgb(255,0,0)"/><circle cx="497.36842105263156" cy="501.5463944737293" r="2" fill="rgb(255,0,0)"/><circle cx="523.6842105263158" cy="501.5463944737293" r="2" fill="rgb(255,0,0)"/><circle cx="550.0" cy="501.5463944737293" r="2" fill="rgb(255,0,0)"/><polyline points="50.0,136.53999950868928 76.3157894736842,290.46296463042756 102.63157894736841,268.4486712120936 128.94736842105263,238.45396407879832 155.26315789473682,221.91361735278025 181.57894736842104,242.66369046957823 207.89473684210526,256.7073293274944 234.21052631578945,257.18162389717395 260.52631578947364,257.18162389717395 286.8421052631579,257.18162389717395 313.1578947368421,257.18162389717395 339.4736842105263,257.18162389717395 365.7894736842105,257.18162389717395 392.10526315789474,257.18162389717395 418.4210526315789,257.18162389717395 444.7368421052632,257.18162389717395 471.05263157894734,257.18162389717395 497.36842105263156,257.18162389717395 523.6842105263158,257.18162389717395 550.0,257.18162389717395" fill="none" stroke="rgb(0,0,255)" stroke-width="1"/><circle cx="50.0" cy="136.53999950868928" r="2" fill="rgb(0,0,255)"/><circle cx="76.3157894736842" cy="290.46296463042756" r="2" fill="rgb(0,0,255)"/><circle cx="102.63157894736841" cy="268.4486712120936" r="2" fill="rgb(0,0,255)"/><circle cx="128.94736842105263" cy="238.45396407879832" r="2" fill="rgb(0,0,255)"/><circle cx="155.26315789473682" cy="221.91361735278025" r="2" fill="rgb(0,0,255)"/><circle cx="181.57894736842104" cy="242.66369046957823" r="2" fill="rgb(0,0,255)"/><circle cx="207.89473684210526" cy="256.7073293274944" r="2" fill="rgb(0,0,255)"/><circle cx="234.21052631578945" cy="257.18162389717395" r="2" fill="rgb(0,0,255)"/><circle cx="260.52631578947364" cy="257.18162389717395" r="2" fill="rgb(0,0,255)"/><circle cx="286.8421052631579" cy="257.18162389717395" r="2" fill="rgb(0,0,255)"/><circle cx="313.1578947368421" cy="257.18162389717395" r="2" fill="rgb(0,0,255)"/><circle cx="339.4736842105263" cy="257.18162389717395" r="2" fill="rgb(0,0,255)"/><circle cx="365.7894736842105" cy="257.18162389717395" r="2" fill="rgb(0,0,255)"/><circle cx="392.10526315789474" cy="257.18162389717395" r="2" fill="rgb(0,0,255)"/><circle cx="418.4210526315789" cy="257.18162389717395" r="2" fill="rgb(0,0,255)"/><circle cx="444.7368421052632" cy="257.18162389717395" r="2" fill="rgb(0,0,255)"/><circle cx="471.05263157894734" cy="257.18162389717395" r="2" fill="rgb(0,0,255)"/><circle cx="497.36842105263156" cy="257.18162389717395" r="2" fill="rgb(0,0,255)"/><circle cx="523.6842105263158" cy="257.18162389717395" r="2" fill="rgb(0,0,255)"/><circle cx="550.0" cy="257.18162389717395" r="2" fill="rgb(0,0,255)"/><polyline points="50.0,50.0 76.3157894736842,233.3841765735604 102.63157894736841,265.12738873531544 128.94736842105263,302.1057949531404 155.26315789473682,320.95676252421333 181.57894736842104,340.4627550908281 207.89473684210526,354.1887695943018 234.21052631578945,357.6761700780738 260.52631578947364,357.6761700780738 286.8421052631579,357.6761700780738 313.1578947368421,357.6761700780738 339.4736842105263,357.6761700780738 365.7894736842105,357.6761700780738 392.10526315789474,357.6761700780738 418.4210526315789,357.6761700780738 444.7368421052632,357.6761700780738 471.05263157894734,357.6761700780738 497.36842105263156,357.6761700780738 523.6842105263158,357.6761700780738 550.0,357.6761700780738" fill="none" stroke="rgb(0,255,0)" stroke-width="1"/><circle cx="50.0" cy="50.0" r="2" fill="rgb(0,255,0)"/><circle cx="76.3157894736842" cy="233.3841765735604" r="2" fill="rgb(0,255,0)"/><circle cx="102.63157894736841" cy="265.12738873531544" r="2" fill="rgb(0,255,0)"/><circle cx="128.94736842105263" cy="302.1057949531404" r="2" fill="rgb(0,255,0)"/><circle cx="155.26315789473682" cy="320.95676252421333" r="2" fill="rgb(0,255,0)"/><circle cx="181.57894736842104" cy="340.4627550908281" r="2" fill="rgb(0,255,0)"/><circle cx="207.89473684210526" cy="354.1887695943018" r="2" fill="rgb(0,255,0)"/><circle cx="234.21052631578945" cy="357.6761700780738" r="2" fill="rgb(0,255,0)"/><circle cx="260.52631578947364" cy="357.6761700780738" r="2" fill="rgb(0,255,0)"/><circle cx="286.8421052631579" cy="357.6761700780738" r="2" fill="rgb(0,255,0)"/><circle cx="313.1578947368421" cy="357.6761700780738" r="2" fill="rgb(0,255,0)"/><circle cx="339.4736842105263" cy="357.6761700780738" r="2" fill="rgb(0,255,0)"/><circle cx="365.7894736842105" cy="357.6761700780738" r="2" fill="rgb(0,255,0)"/><circle cx="392.10526315789474" cy="357.6761700780738" r="2" fill="rgb(0,255,0)"/><circle cx="418.4210526315789" cy="357.6761700780738" r="2" fill="rgb(0,255,0)"/><circle cx="444.7368421052632" cy="357.6761700780738" r="2" fill="rgb(0,255,0)"/><circle cx="471.05263157894734" cy="357.6761700780738" r="2" fill="rgb(0,255,0)"/><circle cx="497.36842105263156" cy="357.6761700780738" r="2" fill="rgb(0,255,0)"/><circle cx="523.6842105263158" cy="357.6761700780738" r="2" fill="rgb(0,255,0)"/><circle cx="550.0" cy="357.6761700780738" r="2" fill="rgb(0,255,0)"/><text x="350.0" y="20.0" text-anchor="middle" fill="rgb(0,0,0)" font-size="20.0">KMeans Mean Centroid Distances</text><text x="350.0" y="575.0" text-anchor="middle" fill="rgb(0,0,0)" font-size="12.0">step</text><text transform="rotate(-90.0 20.0 300.0)" x="20.0" y="300.0" text-anchor="middle" fill="rgb(0,0,0)" font-size="12.0">average distance to centroid</text><text x="620" y="62" fill="rgb(255,0,0)" font-size="12">0</text><text x="620" y="74" fill="rgb(0,0,255)" font-size="12">1</text><text x="620" y="86" fill="rgb(0,255,0)" font-size="12">2</text>
      Sorry, your browser does not support inline SVG.
    </svg>