<?xml version='1.0' encoding='UTF-8'?>
<svg version="1.1" width="700.0" height="600.0" onload="init(evt)" xmlns="http://www.w3.org/2000/svg">
      <style>.caption {
  font-size: 14px;
  font-family: Georgia, serif;
}
</style>
      <script type="text/ecmascript"><![CDATA[
function init(evt) {
  if ( window.svgDocument == null ) {
    svgDocument = evt.target.ownerDocument;
  }
}

function RectHover(evt, i, c) {
  rect = svgDocument.getElementById('rect' + i);
  if( c != null ) {
    rect.setAttributeNS(null, "fill", c)  
  }
  tooltiptext = svgDocument.getElementById('tooltiptext' + i);
  tooltipbg = svgDocument.getElementById('tooltipbg' + i);
  if( tooltipbg != null) {
    tbb = tooltiptext.getBBox();
    tooltipbg.setAttributeNS(null, "width", tbb.width);
    tooltipbg.setAttributeNS(null, "height", tbb.height);
    tooltipbg.setAttributeNS(null, "x", tbb.x);
    tooltipbg.setAttributeNS(null, "y", tbb.y);
    tooltipbg.setAttributeNS(null, "visibility", "visible");
  }
  tooltiptext.setAttributeNS(null,"visibility","visible");
}

function RectUnhover(evt, i, c) {
  rect = svgDocument.getElementById('rect' + i);
  if( c != null ) {
    rect.setAttributeNS(null, "fill", c)  
  }
  tooltiptext = svgDocument.getElementById('tooltiptext' + i);
  tooltiptext.setAttributeNS(null,"visibility","hidden");
  tooltipbg = svgDocument.getElementById('tooltipbg' + i);
  if( tooltipbg != null ) {
    tooltipbg.setAttributeNS(null,"visibility","hidden");
  }
}
]]></script>
      <line x1="50.0" y1="550.0" x2="550.0" y2="550.0" stroke="rgb(0,0,0)" stroke-width="1"/><line x1="50.0" y1="550.0" x2="50.0" y2="50.0" stroke="rgb(0,0,0)" stroke-width="1"/><line x1="50.0" y1="550.0" x2="50.0" y2="50.0" stroke="rgb(192,192,192)" stroke-width="1"/><line x1="50.0" y1="548.0" x2="50.0" y2="552.0" stroke="rgb(192,192,192)" stroke-width="1"/><text text-anchor="middle" alignment-baseline="hanging" x="50.0" y="553.0" font-size="12.0">0</text><line x1="313.1578947368421" y1="550.0" x2="313.1578947368421" y2="50.0" stroke="rgb(192,192,192)" stroke-width="1"/><line x1="313.1578947368421" y1="548.0" x2="313.1578947368421" y2="552.0" stroke="rgb(192,192,192)" stroke-width="1"/><text text-anchor="middle" alignment-baseline="hanging" x="313.1578947368421" y="553.0" font-size="12.0">10</text><line x1="50.0" y1="550.0" x2="550.0" y2="550.0" stroke="rgb(192,192,192)" stroke-width="1"/><text text-anchor="end" alignment-baseline="middle" x="45.0" y="550.0" font-size="12.0">0.0</text><line x1="48.0" y1="550.0" x2="52.0" y2="550.0" stroke="rgb(192,192,192)" stroke-width="1"/><line x1="50.0" y1="361.50113155425754" x2="550.0" y2="361.50113155425754" stroke="rgb(192,192,192)" stroke-width="1"/><text text-anchor="end" alignment-baseline="middle" x="45.0" y="361.50113155425754" font-size="12.0">0.1</text><line x1="48.0" y1="361.50113155425754" x2="52.0" y2="361.50113155425754" stroke="rgb(192,192,192)" stroke-width="1"/><line x1="50.0" y1="173.00226310851508" x2="550.0" y2="173.00226310851508" stroke="rgb(192,192,192)" stroke-width="1"/><text text-anchor="end" alignment-baseline="middle" x="45.0" y="173.00226310851508" font-size="12.0">0.2</text><line x1="48.0" y1="173.00226310851508" x2="52.0" y2="173.00226310851508" stroke="rgb(192,192,192)" stroke-width="1"/><polyline points="50.0,82.39814808805312 76.3157894736842,290.03177316826145 102.63157894736841,379.221247155471 128.94736842105263,434.13690143704196 155.26315789473682,479.32743435735324 181.57894736842104,481.7777975979916 207.89473684210526,514.3767746746862 234.21052631578945,521.0773224749194 260.52631578947364,542.9453188993012 286.8421052631579,539.6088477352902 313.1578947368421,527.229313171631 339.4736842105263,512.911485801161 365.7894736842105,512.911485801161 392.10526315789474,512.911485801161 418.4210526315789,512.911485801161 444.7368421052632,512.911485801161 471.05263157894734,512.911485801161 497.36842105263156,512.911485801161 523.6842105263158,512.911485801161 550.0,512.911485801161" fill="none" stroke="rgb(255,0,0)" stroke-width="1"/><circle cx="50.0" cy="82.39814808805312" r="2" fill="rgb(255,0,0)"/><circle cx="76.3157894736842" cy="290.03177316826145" r="2" fill="rgb(255,0,0)"/><circle cx="102.63157894736841" cy="379.221247155471" r="2" fill="rgb(255,0,0)"/><circle cx="128.94736842105263" cy="434.13690143704196" r="2" fill="rgb(255,0,0)"/><circle cx="155.26315789473682" cy="479.32743435735324" r="2" fill="rgb(255,0,0)"/><circle cx="181.57894736842104" cy="481.7777975979916" r="2" fill="rgb(255,0,0)"/><circle cx="207.89473684210526" cy="514.3767746746862" r="2" fill="rgb(255,0,0)"/><circle cx="234.21052631578945" cy="521.0773224749194" r="2" fill="rgb(255,0,0)"/><circle cx="260.52631578947364" cy="542.9453188993012" r="2" fill="rgb(255,0,0)"/><circle cx="286.8421052631579" cy="539.6088477352902" r="2" fill="rgb(255,0,0)"/><circle cx="313.1578947368421" cy="527.229313171631" r="2" fill="rgb(255,0,0)"/><circle cx="339.4736842105263" cy="512.911485801161" r="2" fill="rgb(255,0,0)"/><circle cx="365.7894736842105" cy="512.911485801161" r="2" fill="rgb(255,0,0)"/><circle cx="392.10526315789474" cy="512.911485801161" r="2" fill="rgb(255,0,0)"/><circle cx="418.4210526315789" cy="512.911485801161" r="2" fill="rgb(255,0,0)"/><circle cx="444.7368421052632" cy="512.911485801161" r="2" fill="rgb(255,0,0)"/><circle cx="471.05263157894734" cy="512.911485801161" r="2" fill="rgb(255,0,0)"/><circle cx="497.36842105263156" cy="512.911485801161" r="2" fill="rgb(255,0,0)"/><circle cx="523.6842105263158" cy="512.911485801161" r="2" fill="rgb(255,0,0)"/><circle cx="550.0" cy="512.911485801161" r="2" fill="rgb(255,0,0)"/><polyline points="50.0,163.54766470320692 76.3157894736842,386.3963808021955 102.63157894736841,450.32395940102674 128.94736842105263,448.5714208745985 155.26315789473682,434.6577071799246 181.57894736842104,402.0634158860595 207.89473684210526,362.79270637249135 234.21052631578945,346.8775441530925 260.52631578947364,315.6134853917696 286.8421052631579,298.9624553245742 313.1578947368421,309.83849702773483 339.4736842105263,325.8639758215223 365.7894736842105,325.8639758215223 392.10526315789474,325.8639758215223 418.4210526315789,325.8639758215223 444.7368421052632,325.8639758215223 471.05263157894734,325.8639758215223 497.36842105263156,325.8639758215223 523.6842105263158,325.8639758215223 550.0,325.8639758215223" fill="none" stroke="rgb(0,0,255)" stroke-width="1"/><circle cx="50.0" cy="163.54766470320692" r="2" fill="rgb(0,0,255)"/><circle cx="76.3157894736842" cy="386.3963808021955" r="2" fill="rgb(0,0,255)"/><circle cx="102.63157894736841" cy="450.32395940102674" r="2" fill="rgb(0,0,255)"/><circle cx="128.94736842105263" cy="448.5714208745985" r="2" fill="rgb(0,0,255)"/><circle cx="155.26315789473682" cy="434.6577071799246" r="2" fill="rgb(0,0,255)"/><circle cx="181.57894736842104" cy="402.0634158860595" r="2" fill="rgb(0,0,255)"/><circle cx="207.89473684210526" cy="362.79270637249135" r="2" fill="rgb(0,0,255)"/><circle cx="234.21052631578945" cy="346.8775441530925" r="2" fill="rgb(0,0,255)"/><circle cx="260.52631578947364" cy="315.6134853917696" r="2" fill="rgb(0,0,255)"/><circle cx="286.8421052631579" cy="298.9624553245742" r="2" fill="rgb(0,0,255)"/><circle cx="313.1578947368421" cy="309.83849702773483" r="2" fill="rgb(0,0,255)"/><circle cx="339.4736842105263" cy="325.8639758215223" r="2" fill="rgb(0,0,255)"/><circle cx="365.7894736842105" cy="325.8639758215223" r="2" fill="rgb(0,0,255)"/><circle cx="392.10526315789474" cy="325.8639758215223" r="2" fill="rgb(0,0,255)"/><circle cx="418.4210526315789" cy="325.8639758215223" r="2" fill="rgb(0,0,255)"/><circle cx="444.7368421052632" cy="325.8639758215223" r="2" fill="rgb(0,0,255)"/><circle cx="471.05263157894734" cy="325.8639758215223" r="2" fill="rgb(0,0,255)"/><circle cx="497.36842105263156" cy="325.8639758215223" r="2" fill="rgb(0,0,255)"/><circle cx="523.6842105263158" cy="325.8639758215223" r="2" fill="rgb(0,0,255)"/><circle cx="550.0" cy="325.8639758215223" r="2" fill="rgb(0,0,255)"/><polyline points="50.0,50.0 76.3157894736842,272.9529595750293 102.63157894736841,338.7926976647801 128.94736842105263,335.3042581684482 155.26315789473682,321.0800156318997 181.57894736842104,298.4868960552611 207.89473684210526,331.9460126239284 234.21052631578945,338.99128899632615 260.52631578947364,360.25090612285794 286.8421052631579,374.6802632538256 313.1578947368421,387.43482964025236 339.4736842105263,402.78690781912906 365.7894736842105,402.78690781912906 392.10526315789474,402.78690781912906 418.4210526315789,402.78690781912906 444.7368421052632,402.78690781912906 471.05263157894734,402.78690781912906 497.36842105263156,402.78690781912906 523.6842105263158,402.78690781912906 550.0,402.78690781912906" fill="none" stroke="rgb(0,255,0)" stroke-width="1"/><circle cx="50.0" cy="50.0" r="2" fill="rgb(0,255,0)"/><circle cx="76.3157894736842" cy="272.9529595750293" r="2" fill="rgb(0,255,0)"/><circle cx="102.63157894736841" cy="338.7926976647801" r="2" fill="rgb(0,255,0)"/><circle cx="128.94736842105263" cy="335.3042581684482" r="2" fill="rgb(0,255,0)"/><circle cx="155.26315789473682" cy="321.0800156318997" r="2" fill="rgb(0,255,0)"/><circle cx="181.57894736842104" cy="298.4868960552611" r="2" fill="rgb(0,255,0)"/><circle cx="207.89473684210526" cy="331.9460126239284" r="2" fill="rgb(0,255,0)"/><circle cx="234.21052631578945" cy="338.99128899632615" r="2" fill="rgb(0,255,0)"/><circle cx="260.52631578947364" cy="360.25090612285794" r="2" fill="rgb(0,255,0)"/><circle cx="286.8421052631579" cy="374.6802632538256" r="2" fill="rgb(0,255,0)"/><circle cx="313.1578947368421" cy="387.43482964025236" r="2" fill="rgb(0,255,0)"/><circle cx="339.4736842105263" cy="402.78690781912906" r="2" fill="rgb(0,255,0)"/><circle cx="365.7894736842105" cy="402.78690781912906" r="2" fill="rgb(0,255,0)"/><circle cx="392.10526315789474" cy="402.78690781912906" r="2" fill="rgb(0,255,0)"/><circle cx="418.4210526315789" cy="402.78690781912906" r="2" fill="rgb(0,255,0)"/><circle cx="444.7368421052632" cy="402.78690781912906" r="2" fill="rgb(0,255,0)"/><circle cx="471.05263157894734" cy="402.78690781912906" r="2" fill="rgb(0,255,0)"/><circle cx="497.36842105263156" cy="402.78690781912906" r="2" fill="rgb(0,255,0)"/><circle cx="523.6842105263158" cy="402.78690781912906" r="2" fill="rgb(0,255,0)"/><circle cx="550.0" cy="402.78690781912906" r="2" fill="rgb(0,255,0)"/><text x="350.0" y="20.0" text-anchor="middle" fill="rgb(0,0,0)" font-size="20.0">KMeans Mean Centroid Distances</text><text x="350.0" y="575.0" text-anchor="middle" fill="rgb(0,0,0)" font-size="12.0">step</text><text transform="rotate(-90.0 20.0 300.0)" x="20.0" y="300.0" text-anchor="middle" fill="rgb(0,0,0)" font-size="12.0">average distance to centroid</text><text x="620" y="62" fill="rgb(255,0,0)" font-size="12">0</text><text x="620" y="74" fill="rgb(0,0,255)" font-size="12">1</text><text x="620" y="86" fill="rgb(0,255,0)" font-size="12">2</text>
      Sorry, your browser does not support inline SVG.
    </svg>