<?xml version='1.0' encoding='UTF-8'?>
<svg version="1.1" width="700.0" height="600.0" onload="init(evt)" xmlns="http://www.w3.org/2000/svg">
      <style>.caption {
  font-size: 14px;
  font-family: Georgia, serif;
}
</style>
      <script type="text/ecmascript"><![CDATA[
function init(evt) {
  if ( window.svgDocument == null ) {
    svgDocument = evt.target.ownerDocument;
  }
}

function RectHover(evt, i, c) {
  rect = svgDocument.getElementById('rect' + i);
  if( c != null ) {
    rect.setAttributeNS(null, "fill", c)  
  }
  tooltiptext = svgDocument.getElementById('tooltiptext' + i);
  tooltipbg = svgDocument.getElementById('tooltipbg' + i);
  if( tooltipbg != null) {
    tbb = tooltiptext.getBBox();
    tooltipbg.setAttributeNS(null, "width", tbb.width);
    tooltipbg.setAttributeNS(null, "height", tbb.height);
    tooltipbg.setAttributeNS(null, "x", tbb.x);
    tooltipbg.setAttributeNS(null, "y", tbb.y);
    tooltipbg.setAttributeNS(null, "visibility", "visible");
  }
  tooltiptext.setAttributeNS(null,"visibility","visible");
}

function RectUnhover(evt, i, c) {
  rect = svgDocument.getElementById('rect' + i);
  if( c != null ) {
    rect.setAttributeNS(null, "fill", c)  
  }
  tooltiptext = svgDocument.getElementById('tooltiptext' + i);
  tooltiptext.setAttributeNS(null,"visibility","hidden");
  tooltipbg = svgDocument.getElementById('tooltipbg' + i);
  if( tooltipbg != null ) {
    tooltipbg.setAttributeNS(null,"visibility","hidden");
  }
}
]]></script>
      <line x1="50.0" y1="550.0" x2="550.0" y2="550.0" stroke="rgb(0,0,0)" stroke-width="1"/><line x1="50.0" y1="550.0" x2="50.0" y2="50.0" stroke="rgb(0,0,0)" stroke-width="1"/><line x1="50.0" y1="550.0" x2="50.0" y2="50.0" stroke="rgb(192,192,192)" stroke-width="1"/><line x1="50.0" y1="548.0" x2="50.0" y2="552.0" stroke="rgb(192,192,192)" stroke-width="1"/><text text-anchor="middle" alignment-baseline="hanging" x="50.0" y="553.0" font-size="12.0">0</text><line x1="313.1578947368421" y1="550.0" x2="313.1578947368421" y2="50.0" stroke="rgb(192,192,192)" stroke-width="1"/><line x1="313.1578947368421" y1="548.0" x2="313.1578947368421" y2="552.0" stroke="rgb(192,192,192)" stroke-width="1"/><text text-anchor="middle" alignment-baseline="hanging" x="313.1578947368421" y="553.0" font-size="12.0">10</text><line x1="50.0" y1="550.0" x2="550.0" y2="550.0" stroke="rgb(192,192,192)" stroke-width="1"/><text text-anchor="end" alignment-baseline="middle" x="45.0" y="550.0" font-size="12.0">0.00</text><line x1="48.0" y1="550.0" x2="52.0" y2="550.0" stroke="rgb(192,192,192)" stroke-width="1"/><line x1="50.0" y1="512.5270283159564" x2="550.0" y2="512.5270283159564" stroke="rgb(192,192,192)" stroke-width="1"/><text text-anchor="end" alignment-baseline="middle" x="45.0" y="512.5270283159564" font-size="12.0">0.01</text><line x1="48.0" y1="512.5270283159564" x2="52.0" y2="512.5270283159564" stroke="rgb(192,192,192)" stroke-width="1"/><line x1="50.0" y1="475.0540566319128" x2="550.0" y2="475.0540566319128" stroke="rgb(192,192,192)" stroke-width="1"/><text text-anchor="end" alignment-baseline="middle" x="45.0" y="475.0540566319128" font-size="12.0">0.02</text><line x1="48.0" y1="475.0540566319128" x2="52.0" y2="475.0540566319128" stroke="rgb(192,192,192)" stroke-width="1"/><line x1="50.0" y1="437.58108494786916" x2="550.0" y2="437.58108494786916" stroke="rgb(192,192,192)" stroke-width="1"/><text text-anchor="end" alignment-baseline="middle" x="45.0" y="437.58108494786916" font-size="12.0">0.03</text><line x1="48.0" y1="437.58108494786916" x2="52.0" y2="437.58108494786916" stroke="rgb(192,192,192)" stroke-width="1"/><line x1="50.0" y1="400.1081132638255" x2="550.0" y2="400.1081132638255" stroke="rgb(192,192,192)" stroke-width="1"/><text text-anchor="end" alignment-baseline="middle" x="45.0" y="400.1081132638255" font-size="12.0">0.04</text><line x1="48.0" y1="400.1081132638255" x2="52.0" y2="400.1081132638255" stroke="rgb(192,192,192)" stroke-width="1"/><line x1="50.0" y1="362.6351415797818" x2="550.0" y2="362.6351415797818" stroke="rgb(192,192,192)" stroke-width="1"/><text text-anchor="end" alignment-baseline="middle" x="45.0" y="362.6351415797818" font-size="12.0">0.05</text><line x1="48.0" y1="362.6351415797818" x2="52.0" y2="362.6351415797818" stroke="rgb(192,192,192)" stroke-width="1"/><line x1="50.0" y1="325.16216989573826" x2="550.0" y2="325.16216989573826" stroke="rgb(192,192,192)" stroke-width="1"/><text text-anchor="end" alignment-baseline="middle" x="45.0" y="325.16216989573826" font-size="12.0">0.06</text><line x1="48.0" y1="325.16216989573826" x2="52.0" y2="325.16216989573826" stroke="rgb(192,192,192)" stroke-width="1"/><line x1="50.0" y1="287.6891982116946" x2="550.0" y2="287.6891982116946" stroke="rgb(192,192,192)" stroke-width="1"/><text text-anchor="end" alignment-baseline="middle" x="45.0" y="287.6891982116946" font-size="12.0">0.07</text><line x1="48.0" y1="287.6891982116946" x2="52.0" y2="287.6891982116946" stroke="rgb(192,192,192)" stroke-width="1"/><line x1="50.0" y1="250.21622652765097" x2="550.0" y2="250.21622652765097" stroke="rgb(192,192,192)" stroke-width="1"/><text text-anchor="end" alignment-baseline="middle" x="45.0" y="250.21622652765097" font-size="12.0">0.08</text><line x1="48.0" y1="250.21622652765097" x2="52.0" y2="250.21622652765097" stroke="rgb(192,192,192)" stroke-width="1"/><line x1="50.0" y1="212.74325484360736" x2="550.0" y2="212.74325484360736" stroke="rgb(192,192,192)" stroke-width="1"/><text text-anchor="end" alignment-baseline="middle" x="45.0" y="212.74325484360736" font-size="12.0">0.09</text><line x1="48.0" y1="212.74325484360736" x2="52.0" y2="212.74325484360736" stroke="rgb(192,192,192)" stroke-width="1"/><line x1="50.0" y1="175.2702831595637" x2="550.0" y2="175.2702831595637" stroke="rgb(192,192,192)" stroke-width="1"/><text text-anchor="end" alignment-baseline="middle" x="45.0" y="175.2702831595637" font-size="12.0">0.10</text><line x1="48.0" y1="175.2702831595637" x2="52.0" y2="175.2702831595637" stroke="rgb(192,192,192)" stroke-width="1"/><line x1="50.0" y1="137.79731147552013" x2="550.0" y2="137.79731147552013" stroke="rgb(192,192,192)" stroke-width="1"/><text text-anchor="end" alignment-baseline="middle" x="45.0" y="137.79731147552013" font-size="12.0">0.11</text><line x1="48.0" y1="137.79731147552013" x2="52.0" y2="137.79731147552013" stroke="rgb(192,192,192)" stroke-width="1"/><line x1="50.0" y1="100.32433979147652" x2="550.0" y2="100.32433979147652" stroke="rgb(192,192,192)" stroke-width="1"/><text text-anchor="end" alignment-baseline="middle" x="45.0" y="100.32433979147652" font-size="12.0">0.12</text><line x1="48.0" y1="100.32433979147652" x2="52.0" y2="100.32433979147652" stroke="rgb(192,192,192)" stroke-width="1"/><line x1="50.0" y1="62.85136810743279" x2="550.0" y2="62.85136810743279" stroke="rgb(192,192,192)" stroke-width="1"/><text text-anchor="end" alignment-baseline="middle" x="45.0" y="62.85136810743279" font-size="12.0">0.13</text><line x1="48.0" y1="62.85136810743279" x2="52.0" y2="62.85136810743279" stroke="rgb(192,192,192)" stroke-width="1"/><polyline points="50.0,249.6153904225817 76.3157894736842,354.59753156994043 102.63157894736841,393.06099061621615 128.94736842105263,414.3764453382163 155.26315789473682,414.3764453382163 181.57894736842104,414.3764453382163 207.89473684210526,479.18216831131633 234.21052631578945,492.5026428614324 260.52631578947364,535.9755197839538 286.8421052631579,529.342721906464 313.1578947368421,504.73260344842316 339.4736842105263,476.2692209329423 365.7894736842105,476.2692209329423 392.10526315789474,476.2692209329423 418.4210526315789,476.2692209329423 444.7368421052632,476.2692209329423 471.05263157894734,476.2692209329423 497.36842105263156,476.2692209329423 523.6842105263158,476.2692209329423 550.0,476.2692209329423" fill="none" stroke="rgb(255,0,0)" stroke-width="1"/><circle cx="50.0" cy="249.6153904225817" r="2" fill="rgb(255,0,0)"/><circle cx="76.3157894736842" cy="354.59753156994043" r="2" fill="rgb(255,0,0)"/><circle cx="102.63157894736841" cy="393.06099061621615" r="2" fill="rgb(255,0,0)"/><circle cx="128.94736842105263" cy="414.3764453382163" r="2" fill="rgb(255,0,0)"/><circle cx="155.26315789473682" cy="414.3764453382163" r="2" fill="rgb(255,0,0)"/><circle cx="181.57894736842104" cy="414.3764453382163" r="2" fill="rgb(255,0,0)"/><circle cx="207.89473684210526" cy="479.18216831131633" r="2" fill="rgb(255,0,0)"/><circle cx="234.21052631578945" cy="492.5026428614324" r="2" fill="rgb(255,0,0)"/><circle cx="260.52631578947364" cy="535.9755197839538" r="2" fill="rgb(255,0,0)"/><circle cx="286.8421052631579" cy="529.342721906464" r="2" fill="rgb(255,0,0)"/><circle cx="313.1578947368421" cy="504.73260344842316" r="2" fill="rgb(255,0,0)"/><circle cx="339.4736842105263" cy="476.2692209329423" r="2" fill="rgb(255,0,0)"/><circle cx="365.7894736842105" cy="476.2692209329423" r="2" fill="rgb(255,0,0)"/><circle cx="392.10526315789474" cy="476.2692209329423" r="2" fill="rgb(255,0,0)"/><circle cx="418.4210526315789" cy="476.2692209329423" r="2" fill="rgb(255,0,0)"/><circle cx="444.7368421052632" cy="476.2692209329423" r="2" fill="rgb(255,0,0)"/><circle cx="471.05263157894734" cy="476.2692209329423" r="2" fill="rgb(255,0,0)"/><circle cx="497.36842105263156" cy="476.2692209329423" r="2" fill="rgb(255,0,0)"/><circle cx="523.6842105263158" cy="476.2692209329423" r="2" fill="rgb(255,0,0)"/><circle cx="550.0" cy="476.2692209329423" r="2" fill="rgb(255,0,0)"/><polyline points="50.0,497.5705890576737 76.3157894736842,482.29827996183855 102.63157894736841,438.322012841772 128.94736842105263,348.3632313096362 155.26315789473682,288.6040877761297 181.57894736842104,255.90680605960722 207.89473684210526,177.8378925564037 234.21052631578945,146.19905949008432 260.52631578947364,84.04711139875923 286.8421052631579,50.945396605295 313.1578947368421,72.56661938172385 339.4736842105263,104.42475826682238 365.7894736842105,104.42475826682238 392.10526315789474,104.42475826682238 418.4210526315789,104.42475826682238 444.7368421052632,104.42475826682238 471.05263157894734,104.42475826682238 497.36842105263156,104.42475826682238 523.6842105263158,104.42475826682238 550.0,104.42475826682238" fill="none" stroke="rgb(0,0,255)" stroke-width="1"/><circle cx="50.0" cy="497.5705890576737" r="2" fill="rgb(0,0,255)"/><circle cx="76.3157894736842" cy="482.29827996183855" r="2" fill="rgb(0,0,255)"/><circle cx="102.63157894736841" cy="438.322012841772" r="2" fill="rgb(0,0,255)"/><circle cx="128.94736842105263" cy="348.3632313096362" r="2" fill="rgb(0,0,255)"/><circle cx="155.26315789473682" cy="288.6040877761297" r="2" fill="rgb(0,0,255)"/><circle cx="181.57894736842104" cy="255.90680605960722" r="2" fill="rgb(0,0,255)"/><circle cx="207.89473684210526" cy="177.8378925564037" r="2" fill="rgb(0,0,255)"/><circle cx="234.21052631578945" cy="146.19905949008432" r="2" fill="rgb(0,0,255)"/><circle cx="260.52631578947364" cy="84.04711139875923" r="2" fill="rgb(0,0,255)"/><circle cx="286.8421052631579" cy="50.945396605295" r="2" fill="rgb(0,0,255)"/><circle cx="313.1578947368421" cy="72.56661938172385" r="2" fill="rgb(0,0,255)"/><circle cx="339.4736842105263" cy="104.42475826682238" r="2" fill="rgb(0,0,255)"/><circle cx="365.7894736842105" cy="104.42475826682238" r="2" fill="rgb(0,0,255)"/><circle cx="392.10526315789474" cy="104.42475826682238" r="2" fill="rgb(0,0,255)"/><circle cx="418.4210526315789" cy="104.42475826682238" r="2" fill="rgb(0,0,255)"/><circle cx="444.7368421052632" cy="104.42475826682238" r="2" fill="rgb(0,0,255)"/><circle cx="471.05263157894734" cy="104.42475826682238" r="2" fill="rgb(0,0,255)"/><circle cx="497.36842105263156" cy="104.42475826682238" r="2" fill="rgb(0,0,255)"/><circle cx="523.6842105263158" cy="104.42475826682238" r="2" fill="rgb(0,0,255)"/><circle cx="550.0" cy="104.42475826682238" r="2" fill="rgb(0,0,255)"/><polyline points="50.0,342.994030448463 76.3157894736842,306.81449177831973 102.63157894736841,226.87650549207393 128.94736842105263,123.1917374000451 155.26315789473682,64.17061886652357 181.57894736842104,50.0 207.89473684210526,116.51565275107652 234.21052631578945,130.52143666829483 260.52631578947364,172.78487502020425 286.8421052631579,201.46997512961656 313.1578947368421,226.82564484698673 339.4736842105263,257.3450848644136 365.7894736842105,257.3450848644136 392.10526315789474,257.3450848644136 418.4210526315789,257.3450848644136 444.7368421052632,257.3450848644136 471.05263157894734,257.3450848644136 497.36842105263156,257.3450848644136 523.6842105263158,257.3450848644136 550.0,257.3450848644136" fill="none" stroke="rgb(0,255,0)" stroke-width="1"/><circle cx="50.0" cy="342.994030448463" r="2" fill="rgb(0,255,0)"/><circle cx="76.3157894736842" cy="306.81449177831973" r="2" fill="rgb(0,255,0)"/><circle cx="102.63157894736841" cy="226.87650549207393" r="2" fill="rgb(0,255,0)"/><circle cx="128.94736842105263" cy="123.1917374000451" r="2" fill="rgb(0,255,0)"/><circle cx="155.26315789473682" cy="64.17061886652357" r="2" fill="rgb(0,255,0)"/><circle cx="181.57894736842104" cy="50.0" r="2" fill="rgb(0,255,0)"/><circle cx="207.89473684210526" cy="116.51565275107652" r="2" fill="rgb(0,255,0)"/><circle cx="234.21052631578945" cy="130.52143666829483" r="2" fill="rgb(0,255,0)"/><circle cx="260.52631578947364" cy="172.78487502020425" r="2" fill="rgb(0,255,0)"/><circle cx="286.8421052631579" cy="201.46997512961656" r="2" fill="rgb(0,255,0)"/><circle cx="313.1578947368421" cy="226.82564484698673" r="2" fill="rgb(0,255,0)"/><circle cx="339.4736842105263" cy="257.3450848644136" r="2" fill="rgb(0,255,0)"/><circle cx="365.7894736842105" cy="257.3450848644136" r="2" fill="rgb(0,255,0)"/><circle cx="392.10526315789474" cy="257.3450848644136" r="2" fill="rgb(0,255,0)"/><circle cx="418.4210526315789" cy="257.3450848644136" r="2" fill="rgb(0,255,0)"/><circle cx="444.7368421052632" cy="257.3450848644136" r="2" fill="rgb(0,255,0)"/><circle cx="471.05263157894734" cy="257.3450848644136" r="2" fill="rgb(0,255,0)"/><circle cx="497.36842105263156" cy="257.3450848644136" r="2" fill="rgb(0,255,0)"/><circle cx="523.6842105263158" cy="257.3450848644136" r="2" fill="rgb(0,255,0)"/><circle cx="550.0" cy="257.3450848644136" r="2" fill="rgb(0,255,0)"/><text x="350.0" y="20.0" text-anchor="middle" fill="rgb(0,0,0)" font-size="20.0">KMeans Mean Centroid Distances</text><text x="350.0" y="575.0" text-anchor="middle" fill="rgb(0,0,0)" font-size="12.0">step</text><text transform="rotate(-90.0 20.0 300.0)" x="20.0" y="300.0" text-anchor="middle" fill="rgb(0,0,0)" font-size="12.0">average distance to centroid</text><text x="620" y="62" fill="rgb(255,0,0)" font-size="12">0</text><text x="620" y="74" fill="rgb(0,0,255)" font-size="12">1</text><text x="620" y="86" fill="rgb(0,255,0)" font-size="12">2</text>
      Sorry, your browser does not support inline SVG.
    </svg>