<?xml version='1.0' encoding='UTF-8'?>
<svg version="1.1" width="700.0" height="600.0" onload="init(evt)" xmlns="http://www.w3.org/2000/svg">
      <style>.caption {
  font-size: 14px;
  font-family: Georgia, serif;
}
</style>
      <script type="text/ecmascript"><![CDATA[
function init(evt) {
  if ( window.svgDocument == null ) {
    svgDocument = evt.target.ownerDocument;
  }
}

function RectHover(evt, i, c) {
  rect = svgDocument.getElementById('rect' + i);
  if( c != null ) {
    rect.setAttributeNS(null, "fill", c)  
  }
  tooltiptext = svgDocument.getElementById('tooltiptext' + i);
  tooltipbg = svgDocument.getElementById('tooltipbg' + i);
  if( tooltipbg != null) {
    tbb = tooltiptext.getBBox();
    tooltipbg.setAttributeNS(null, "width", tbb.width);
    tooltipbg.setAttributeNS(null, "height", tbb.height);
    tooltipbg.setAttributeNS(null, "x", tbb.x);
    tooltipbg.setAttributeNS(null, "y", tbb.y);
    tooltipbg.setAttributeNS(null, "visibility", "visible");
  }
  tooltiptext.setAttributeNS(null,"visibility","visible");
}

function RectUnhover(evt, i, c) {
  rect = svgDocument.getElementById('rect' + i);
  if( c != null ) {
    rect.setAttributeNS(null, "fill", c)  
  }
  tooltiptext = svgDocument.getElementById('tooltiptext' + i);
  tooltiptext.setAttributeNS(null,"visibility","hidden");
  tooltipbg = svgDocument.getElementById('tooltipbg' + i);
  if( tooltipbg != null ) {
    tooltipbg.setAttributeNS(null,"visibility","hidden");
  }
}
]]></script>
      <line x1="50.0" y1="550.0" x2="550.0" y2="550.0" stroke="rgb(0,0,0)" stroke-width="1"/><line x1="50.0" y1="550.0" x2="50.0" y2="50.0" stroke="rgb(0,0,0)" stroke-width="1"/><line x1="50.0" y1="550.0" x2="50.0" y2="50.0" stroke="rgb(192,192,192)" stroke-width="1"/><line x1="50.0" y1="548.0" x2="50.0" y2="552.0" stroke="rgb(192,192,192)" stroke-width="1"/><text text-anchor="middle" alignment-baseline="hanging" x="50.0" y="553.0" font-size="12.0">0</text><line x1="313.1578947368421" y1="550.0" x2="313.1578947368421" y2="50.0" stroke="rgb(192,192,192)" stroke-width="1"/><line x1="313.1578947368421" y1="548.0" x2="313.1578947368421" y2="552.0" stroke="rgb(192,192,192)" stroke-width="1"/><text text-anchor="middle" alignment-baseline="hanging" x="313.1578947368421" y="553.0" font-size="12.0">10</text><line x1="50.0" y1="550.0" x2="550.0" y2="550.0" stroke="rgb(192,192,192)" stroke-width="1"/><text text-anchor="end" alignment-baseline="middle" x="45.0" y="550.0" font-size="12.0">0.0</text><line x1="48.0" y1="550.0" x2="52.0" y2="550.0" stroke="rgb(192,192,192)" stroke-width="1"/><line x1="50.0" y1="316.5932339866958" x2="550.0" y2="316.5932339866958" stroke="rgb(192,192,192)" stroke-width="1"/><text text-anchor="end" alignment-baseline="middle" x="45.0" y="316.5932339866958" font-size="12.0">0.1</text><line x1="48.0" y1="316.5932339866958" x2="52.0" y2="316.5932339866958" stroke="rgb(192,192,192)" stroke-width="1"/><line x1="50.0" y1="83.18646797339159" x2="550.0" y2="83.18646797339159" stroke="rgb(192,192,192)" stroke-width="1"/><text text-anchor="end" alignment-baseline="middle" x="45.0" y="83.18646797339159" font-size="12.0">0.2</text><line x1="48.0" y1="83.18646797339159" x2="52.0" y2="83.18646797339159" stroke="rgb(192,192,192)" stroke-width="1"/><polyline points="50.0,50.0 76.3157894736842,345.3710961067874 102.63157894736841,492.00481501459586 128.94736842105263,504.0755325123808 155.26315789473682,504.0755325123808 181.57894736842104,504.0755325123808 207.89473684210526,504.0755325123808 234.21052631578945,504.0755325123808 260.52631578947364,504.0755325123808 286.8421052631579,504.0755325123808 313.1578947368421,504.0755325123808 339.4736842105263,504.0755325123808 365.7894736842105,504.0755325123808 392.10526315789474,504.0755325123808 418.4210526315789,504.0755325123808 444.7368421052632,504.0755325123808 471.05263157894734,504.0755325123808 497.36842105263156,504.0755325123808 523.6842105263158,504.0755325123808 550.0,504.0755325123808" fill="none" stroke="rgb(255,0,0)" stroke-width="1"/><circle cx="50.0" cy="50.0" r="2" fill="rgb(255,0,0)"/><circle cx="76.3157894736842" cy="345.3710961067874" r="2" fill="rgb(255,0,0)"/><circle cx="102.63157894736841" cy="492.00481501459586" r="2" fill="rgb(255,0,0)"/><circle cx="128.94736842105263" cy="504.0755325123808" r="2" fill="rgb(255,0,0)"/><circle cx="155.26315789473682" cy="504.0755325123808" r="2" fill="rgb(255,0,0)"/><circle cx="181.57894736842104" cy="504.0755325123808" r="2" fill="rgb(255,0,0)"/><circle cx="207.89473684210526" cy="504.0755325123808" r="2" fill="rgb(255,0,0)"/><circle cx="234.21052631578945" cy="504.0755325123808" r="2" fill="rgb(255,0,0)"/><circle cx="260.52631578947364" cy="504.0755325123808" r="2" fill="rgb(255,0,0)"/><circle cx="286.8421052631579" cy="504.0755325123808" r="2" fill="rgb(255,0,0)"/><circle cx="313.1578947368421" cy="504.0755325123808" r="2" fill="rgb(255,0,0)"/><circle cx="339.4736842105263" cy="504.0755325123808" r="2" fill="rgb(255,0,0)"/><circle cx="365.7894736842105" cy="504.0755325123808" r="2" fill="rgb(255,0,0)"/><circle cx="392.10526315789474" cy="504.0755325123808" r="2" fill="rgb(255,0,0)"/><circle cx="418.4210526315789" cy="504.0755325123808" r="2" fill="rgb(255,0,0)"/><circle cx="444.7368421052632" cy="504.0755325123808" r="2" fill="rgb(255,0,0)"/><circle cx="471.05263157894734" cy="504.0755325123808" r="2" fill="rgb(255,0,0)"/><circle cx="497.36842105263156" cy="504.0755325123808" r="2" fill="rgb(255,0,0)"/><circle cx="523.6842105263158" cy="504.0755325123808" r="2" fill="rgb(255,0,0)"/><circle cx="550.0" cy="504.0755325123808" r="2" fill="rgb(255,0,0)"/><polyline points="50.0,338.8026231019197 76.3157894736842,433.17691680383695 102.63157894736841,285.43733648958164 128.94736842105263,272.46589604522444 155.26315789473682,272.46589604522444 181.57894736842104,272.46589604522444 207.89473684210526,272.46589604522444 234.21052631578945,272.46589604522444 260.52631578947364,272.46589604522444 286.8421052631579,272.46589604522444 313.1578947368421,272.46589604522444 339.4736842105263,272.46589604522444 365.7894736842105,272.46589604522444 392.10526315789474,272.46589604522444 418.4210526315789,272.46589604522444 444.7368421052632,272.46589604522444 471.05263157894734,272.46589604522444 497.36842105263156,272.46589604522444 523.6842105263158,272.46589604522444 550.0,272.46589604522444" fill="none" stroke="rgb(0,0,255)" stroke-width="1"/><circle cx="50.0" cy="338.8026231019197" r="2" fill="rgb(0,0,255)"/><circle cx="76.3157894736842" cy="433.17691680383695" r="2" fill="rgb(0,0,255)"/><circle cx="102.63157894736841" cy="285.43733648958164" r="2" fill="rgb(0,0,255)"/><circle cx="128.94736842105263" cy="272.46589604522444" r="2" fill="rgb(0,0,255)"/><circle cx="155.26315789473682" cy="272.46589604522444" r="2" fill="rgb(0,0,255)"/><circle cx="181.57894736842104" cy="272.46589604522444" r="2" fill="rgb(0,0,255)"/><circle cx="207.89473684210526" cy="272.46589604522444" r="2" fill="rgb(0,0,255)"/><circle cx="234.21052631578945" cy="272.46589604522444" r="2" fill="rgb(0,0,255)"/><circle cx="260.52631578947364" cy="272.46589604522444" r="2" fill="rgb(0,0,255)"/><circle cx="286.8421052631579" cy="272.46589604522444" r="2" fill="rgb(0,0,255)"/><circle cx="313.1578947368421" cy="272.46589604522444" r="2" fill="rgb(0,0,255)"/><circle cx="339.4736842105263" cy="272.46589604522444" r="2" fill="rgb(0,0,255)"/><circle cx="365.7894736842105" cy="272.46589604522444" r="2" fill="rgb(0,0,255)"/><circle cx="392.10526315789474" cy="272.46589604522444" r="2" fill="rgb(0,0,255)"/><circle cx="418.4210526315789" cy="272.46589604522444" r="2" fill="rgb(0,0,255)"/><circle cx="444.7368421052632" cy="272.46589604522444" r="2" fill="rgb(0,0,255)"/><circle cx="471.05263157894734" cy="272.46589604522444" r="2" fill="rgb(0,0,255)"/><circle cx="497.36842105263156" cy="272.46589604522444" r="2" fill="rgb(0,0,255)"/><circle cx="523.6842105263158" cy="272.46589604522444" r="2" fill="rgb(0,0,255)"/><circle cx="550.0" cy="272.46589604522444" r="2" fill="rgb(0,0,255)"/><polyline points="50.0,198.00437183653264 76.3157894736842,480.7535768195972 102.63157894736841,379.638562108105 128.94736842105263,367.71491763280335 155.26315789473682,367.71491763280335 181.57894736842104,367.71491763280335 207.89473684210526,367.71491763280335 234.21052631578945,367.71491763280335 260.52631578947364,367.71491763280335 286.8421052631579,367.71491763280335 313.1578947368421,367.71491763280335 339.4736842105263,367.71491763280335 365.7894736842105,367.71491763280335 392.10526315789474,367.71491763280335 418.4210526315789,367.71491763280335 444.7368421052632,367.71491763280335 471.05263157894734,367.71491763280335 497.36842105263156,367.71491763280335 523.6842105263158,367.71491763280335 550.0,367.71491763280335" fill="none" stroke="rgb(0,255,0)" stroke-width="1"/><circle cx="50.0" cy="198.00437183653264" r="2" fill="rgb(0,255,0)"/><circle cx="76.3157894736842" cy="480.7535768195972" r="2" fill="rgb(0,255,0)"/><circle cx="102.63157894736841" cy="379.638562108105" r="2" fill="rgb(0,255,0)"/><circle cx="128.94736842105263" cy="367.71491763280335" r="2" fill="rgb(0,255,0)"/><circle cx="155.26315789473682" cy="367.71491763280335" r="2" fill="rgb(0,255,0)"/><circle cx="181.57894736842104" cy="367.71491763280335" r="2" fill="rgb(0,255,0)"/><circle cx="207.89473684210526" cy="367.71491763280335" r="2" fill="rgb(0,255,0)"/><circle cx="234.21052631578945" cy="367.71491763280335" r="2" fill="rgb(0,255,0)"/><circle cx="260.52631578947364" cy="367.71491763280335" r="2" fill="rgb(0,255,0)"/><circle cx="286.8421052631579" cy="367.71491763280335" r="2" fill="rgb(0,255,0)"/><circle cx="313.1578947368421" cy="367.71491763280335" r="2" fill="rgb(0,255,0)"/><circle cx="339.4736842105263" cy="367.71491763280335" r="2" fill="rgb(0,255,0)"/><circle cx="365.7894736842105" cy="367.71491763280335" r="2" fill="rgb(0,255,0)"/><circle cx="392.10526315789474" cy="367.71491763280335" r="2" fill="rgb(0,255,0)"/><circle cx="418.4210526315789" cy="367.71491763280335" r="2" fill="rgb(0,255,0)"/><circle cx="444.7368421052632" cy="367.71491763280335" r="2" fill="rgb(0,255,0)"/><circle cx="471.05263157894734" cy="367.71491763280335" r="2" fill="rgb(0,255,0)"/><circle cx="497.36842105263156" cy="367.71491763280335" r="2" fill="rgb(0,255,0)"/><circle cx="523.6842105263158" cy="367.71491763280335" r="2" fill="rgb(0,255,0)"/><circle cx="550.0" cy="367.71491763280335" r="2" fill="rgb(0,255,0)"/><text x="350.0" y="20.0" text-anchor="middle" fill="rgb(0,0,0)" font-size="20.0">KMeans Mean Centroid Distances</text><text x="350.0" y="575.0" text-anchor="middle" fill="rgb(0,0,0)" font-size="12.0">step</text><text transform="rotate(-90.0 20.0 300.0)" x="20.0" y="300.0" text-anchor="middle" fill="rgb(0,0,0)" font-size="12.0">average distance to centroid</text><text x="620" y="62" fill="rgb(255,0,0)" font-size="12">0</text><text x="620" y="74" fill="rgb(0,0,255)" font-size="12">1</text><text x="620" y="86" fill="rgb(0,255,0)" font-size="12">2</text>
      Sorry, your browser does not support inline SVG.
    </svg>