<?xml version='1.0' encoding='UTF-8'?>
<svg version="1.1" width="700.0" height="600.0" onload="init(evt)" xmlns="http://www.w3.org/2000/svg">
      <style>.caption {
  font-size: 14px;
  font-family: Georgia, serif;
}
</style>
      <script type="text/ecmascript"><![CDATA[
function init(evt) {
  if ( window.svgDocument == null ) {
    svgDocument = evt.target.ownerDocument;
  }
}

function RectHover(evt, i, c) {
  rect = svgDocument.getElementById('rect' + i);
  if( c != null ) {
    rect.setAttributeNS(null, "fill", c)  
  }
  tooltiptext = svgDocument.getElementById('tooltiptext' + i);
  tooltipbg = svgDocument.getElementById('tooltipbg' + i);
  if( tooltipbg != null) {
    tbb = tooltiptext.getBBox();
    tooltipbg.setAttributeNS(null, "width", tbb.width);
    tooltipbg.setAttributeNS(null, "height", tbb.height);
    tooltipbg.setAttributeNS(null, "x", tbb.x);
    tooltipbg.setAttributeNS(null, "y", tbb.y);
    tooltipbg.setAttributeNS(null, "visibility", "visible");
  }
  tooltiptext.setAttributeNS(null,"visibility","visible");
}

function RectUnhover(evt, i, c) {
  rect = svgDocument.getElementById('rect' + i);
  if( c != null ) {
    rect.setAttributeNS(null, "fill", c)  
  }
  tooltiptext = svgDocument.getElementById('tooltiptext' + i);
  tooltiptext.setAttributeNS(null,"visibility","hidden");
  tooltipbg = svgDocument.getElementById('tooltipbg' + i);
  if( tooltipbg != null ) {
    tooltipbg.setAttributeNS(null,"visibility","hidden");
  }
}
]]></script>
      <line x1="50.0" y1="550.0" x2="550.0" y2="550.0" stroke="rgb(0,0,0)" stroke-width="1"/><line x1="50.0" y1="550.0" x2="50.0" y2="50.0" stroke="rgb(0,0,0)" stroke-width="1"/><line x1="50.0" y1="550.0" x2="50.0" y2="50.0" stroke="rgb(192,192,192)" stroke-width="1"/><line x1="50.0" y1="548.0" x2="50.0" y2="552.0" stroke="rgb(192,192,192)" stroke-width="1"/><text text-anchor="middle" alignment-baseline="hanging" x="50.0" y="553.0" font-size="12.0">0</text><line x1="313.1578947368421" y1="550.0" x2="313.1578947368421" y2="50.0" stroke="rgb(192,192,192)" stroke-width="1"/><line x1="313.1578947368421" y1="548.0" x2="313.1578947368421" y2="552.0" stroke="rgb(192,192,192)" stroke-width="1"/><text text-anchor="middle" alignment-baseline="hanging" x="313.1578947368421" y="553.0" font-size="12.0">10</text><line x1="50.0" y1="550.0" x2="550.0" y2="550.0" stroke="rgb(192,192,192)" stroke-width="1"/><text text-anchor="end" alignment-baseline="middle" x="45.0" y="550.0" font-size="12.0">0.00</text><line x1="48.0" y1="550.0" x2="52.0" y2="550.0" stroke="rgb(192,192,192)" stroke-width="1"/><line x1="50.0" y1="523.3856995141326" x2="550.0" y2="523.3856995141326" stroke="rgb(192,192,192)" stroke-width="1"/><text text-anchor="end" alignment-baseline="middle" x="45.0" y="523.3856995141326" font-size="12.0">0.01</text><line x1="48.0" y1="523.3856995141326" x2="52.0" y2="523.3856995141326" stroke="rgb(192,192,192)" stroke-width="1"/><line x1="50.0" y1="496.77139902826525" x2="550.0" y2="496.77139902826525" stroke="rgb(192,192,192)" stroke-width="1"/><text text-anchor="end" alignment-baseline="middle" x="45.0" y="496.77139902826525" font-size="12.0">0.02</text><line x1="48.0" y1="496.77139902826525" x2="52.0" y2="496.77139902826525" stroke="rgb(192,192,192)" stroke-width="1"/><line x1="50.0" y1="470.1570985423979" x2="550.0" y2="470.1570985423979" stroke="rgb(192,192,192)" stroke-width="1"/><text text-anchor="end" alignment-baseline="middle" x="45.0" y="470.1570985423979" font-size="12.0">0.03</text><line x1="48.0" y1="470.1570985423979" x2="52.0" y2="470.1570985423979" stroke="rgb(192,192,192)" stroke-width="1"/><line x1="50.0" y1="443.5427980565305" x2="550.0" y2="443.5427980565305" stroke="rgb(192,192,192)" stroke-width="1"/><text text-anchor="end" alignment-baseline="middle" x="45.0" y="443.5427980565305" font-size="12.0">0.04</text><line x1="48.0" y1="443.5427980565305" x2="52.0" y2="443.5427980565305" stroke="rgb(192,192,192)" stroke-width="1"/><line x1="50.0" y1="416.9284975706631" x2="550.0" y2="416.9284975706631" stroke="rgb(192,192,192)" stroke-width="1"/><text text-anchor="end" alignment-baseline="middle" x="45.0" y="416.9284975706631" font-size="12.0">0.05</text><line x1="48.0" y1="416.9284975706631" x2="52.0" y2="416.9284975706631" stroke="rgb(192,192,192)" stroke-width="1"/><line x1="50.0" y1="390.31419708479575" x2="550.0" y2="390.31419708479575" stroke="rgb(192,192,192)" stroke-width="1"/><text text-anchor="end" alignment-baseline="middle" x="45.0" y="390.31419708479575" font-size="12.0">0.06</text><line x1="48.0" y1="390.31419708479575" x2="52.0" y2="390.31419708479575" stroke="rgb(192,192,192)" stroke-width="1"/><line x1="50.0" y1="363.6998965989284" x2="550.0" y2="363.6998965989284" stroke="rgb(192,192,192)" stroke-width="1"/><text text-anchor="end" alignment-baseline="middle" x="45.0" y="363.6998965989284" font-size="12.0">0.07</text><line x1="48.0" y1="363.6998965989284" x2="52.0" y2="363.6998965989284" stroke="rgb(192,192,192)" stroke-width="1"/><line x1="50.0" y1="337.085596113061" x2="550.0" y2="337.085596113061" stroke="rgb(192,192,192)" stroke-width="1"/><text text-anchor="end" alignment-baseline="middle" x="45.0" y="337.085596113061" font-size="12.0">0.08</text><line x1="48.0" y1="337.085596113061" x2="52.0" y2="337.085596113061" stroke="rgb(192,192,192)" stroke-width="1"/><line x1="50.0" y1="310.4712956271936" x2="550.0" y2="310.4712956271936" stroke="rgb(192,192,192)" stroke-width="1"/><text text-anchor="end" alignment-baseline="middle" x="45.0" y="310.4712956271936" font-size="12.0">0.09</text><line x1="48.0" y1="310.4712956271936" x2="52.0" y2="310.4712956271936" stroke="rgb(192,192,192)" stroke-width="1"/><line x1="50.0" y1="283.85699514132625" x2="550.0" y2="283.85699514132625" stroke="rgb(192,192,192)" stroke-width="1"/><text text-anchor="end" alignment-baseline="middle" x="45.0" y="283.85699514132625" font-size="12.0">0.10</text><line x1="48.0" y1="283.85699514132625" x2="52.0" y2="283.85699514132625" stroke="rgb(192,192,192)" stroke-width="1"/><line x1="50.0" y1="257.24269465545893" x2="550.0" y2="257.24269465545893" stroke="rgb(192,192,192)" stroke-width="1"/><text text-anchor="end" alignment-baseline="middle" x="45.0" y="257.24269465545893" font-size="12.0">0.11</text><line x1="48.0" y1="257.24269465545893" x2="52.0" y2="257.24269465545893" stroke="rgb(192,192,192)" stroke-width="1"/><line x1="50.0" y1="230.62839416959156" x2="550.0" y2="230.62839416959156" stroke="rgb(192,192,192)" stroke-width="1"/><text text-anchor="end" alignment-baseline="middle" x="45.0" y="230.62839416959156" font-size="12.0">0.12</text><line x1="48.0" y1="230.62839416959156" x2="52.0" y2="230.62839416959156" stroke="rgb(192,192,192)" stroke-width="1"/><line x1="50.0" y1="204.01409368372413" x2="550.0" y2="204.01409368372413" stroke="rgb(192,192,192)" stroke-width="1"/><text text-anchor="end" alignment-baseline="middle" x="45.0" y="204.01409368372413" font-size="12.0">0.13</text><line x1="48.0" y1="204.01409368372413" x2="52.0" y2="204.01409368372413" stroke="rgb(192,192,192)" stroke-width="1"/><line x1="50.0" y1="177.3997931978567" x2="550.0" y2="177.3997931978567" stroke="rgb(192,192,192)" stroke-width="1"/><text text-anchor="end" alignment-baseline="middle" x="45.0" y="177.3997931978567" font-size="12.0">0.14</text><line x1="48.0" y1="177.3997931978567" x2="52.0" y2="177.3997931978567" stroke="rgb(192,192,192)" stroke-width="1"/><line x1="50.0" y1="150.78549271198938" x2="550.0" y2="150.78549271198938" stroke="rgb(192,192,192)" stroke-width="1"/><text text-anchor="end" alignment-baseline="middle" x="45.0" y="150.78549271198938" font-size="12.0">0.15</text><line x1="48.0" y1="150.78549271198938" x2="52.0" y2="150.78549271198938" stroke="rgb(192,192,192)" stroke-width="1"/><line x1="50.0" y1="124.171192226122" x2="550.0" y2="124.171192226122" stroke="rgb(192,192,192)" stroke-width="1"/><text text-anchor="end" alignment-baseline="middle" x="45.0" y="124.171192226122" font-size="12.0">0.16</text><line x1="48.0" y1="124.171192226122" x2="52.0" y2="124.171192226122" stroke="rgb(192,192,192)" stroke-width="1"/><line x1="50.0" y1="97.55689174025463" x2="550.0" y2="97.55689174025463" stroke="rgb(192,192,192)" stroke-width="1"/><text text-anchor="end" alignment-baseline="middle" x="45.0" y="97.55689174025463" font-size="12.0">0.17</text><line x1="48.0" y1="97.55689174025463" x2="52.0" y2="97.55689174025463" stroke="rgb(192,192,192)" stroke-width="1"/><line x1="50.0" y1="70.94259125438731" x2="550.0" y2="70.94259125438731" stroke="rgb(192,192,192)" stroke-width="1"/><text text-anchor="end" alignment-baseline="middle" x="45.0" y="70.94259125438731" font-size="12.0">0.18</text><line x1="48.0" y1="70.94259125438731" x2="52.0" y2="70.94259125438731" stroke="rgb(192,192,192)" stroke-width="1"/><polyline points="50.0,50.0 76.3157894736842,203.1098406088111 102.63157894736841,279.621561795951 128.94736842105263,406.6481104859623 155.26315789473682,496.8011656860718 181.57894736842104,501.1275204350896 207.89473684210526,500.76160529716634 234.21052631578945,500.76160529716634 260.52631578947364,500.76160529716634 286.8421052631579,500.76160529716634 313.1578947368421,500.76160529716634 339.4736842105263,500.76160529716634 365.7894736842105,500.76160529716634 392.10526315789474,500.76160529716634 418.4210526315789,500.76160529716634 444.7368421052632,500.76160529716634 471.05263157894734,500.76160529716634 497.36842105263156,500.76160529716634 523.6842105263158,500.76160529716634 550.0,500.76160529716634" fill="none" stroke="rgb(255,0,0)" stroke-width="1"/><circle cx="50.0" cy="50.0" r="2" fill="rgb(255,0,0)"/><circle cx="76.3157894736842" cy="203.1098406088111" r="2" fill="rgb(255,0,0)"/><circle cx="102.63157894736841" cy="279.621561795951" r="2" fill="rgb(255,0,0)"/><circle cx="128.94736842105263" cy="406.6481104859623" r="2" fill="rgb(255,0,0)"/><circle cx="155.26315789473682" cy="496.8011656860718" r="2" fill="rgb(255,0,0)"/><circle cx="181.57894736842104" cy="501.1275204350896" r="2" fill="rgb(255,0,0)"/><circle cx="207.89473684210526" cy="500.76160529716634" r="2" fill="rgb(255,0,0)"/><circle cx="234.21052631578945" cy="500.76160529716634" r="2" fill="rgb(255,0,0)"/><circle cx="260.52631578947364" cy="500.76160529716634" r="2" fill="rgb(255,0,0)"/><circle cx="286.8421052631579" cy="500.76160529716634" r="2" fill="rgb(255,0,0)"/><circle cx="313.1578947368421" cy="500.76160529716634" r="2" fill="rgb(255,0,0)"/><circle cx="339.4736842105263" cy="500.76160529716634" r="2" fill="rgb(255,0,0)"/><circle cx="365.7894736842105" cy="500.76160529716634" r="2" fill="rgb(255,0,0)"/><circle cx="392.10526315789474" cy="500.76160529716634" r="2" fill="rgb(255,0,0)"/><circle cx="418.4210526315789" cy="500.76160529716634" r="2" fill="rgb(255,0,0)"/><circle cx="444.7368421052632" cy="500.76160529716634" r="2" fill="rgb(255,0,0)"/><circle cx="471.05263157894734" cy="500.76160529716634" r="2" fill="rgb(255,0,0)"/><circle cx="497.36842105263156" cy="500.76160529716634" r="2" fill="rgb(255,0,0)"/><circle cx="523.6842105263158" cy="500.76160529716634" r="2" fill="rgb(255,0,0)"/><circle cx="550.0" cy="500.76160529716634" r="2" fill="rgb(255,0,0)"/><polyline points="50.0,350.69729180591463 76.3157894736842,516.7158958398243 102.63157894736841,453.73218329501407 128.94736842105263,330.0262861859395 155.26315789473682,238.6390542508571 181.57894736842104,233.02803310895575 207.89473684210526,235.25105640756811 234.21052631578945,235.25105640756811 260.52631578947364,235.25105640756811 286.8421052631579,235.25105640756811 313.1578947368421,235.25105640756811 339.4736842105263,235.25105640756811 365.7894736842105,235.25105640756811 392.10526315789474,235.25105640756811 418.4210526315789,235.25105640756811 444.7368421052632,235.25105640756811 471.05263157894734,235.25105640756811 497.36842105263156,235.25105640756811 523.6842105263158,235.25105640756811 550.0,235.25105640756811" fill="none" stroke="rgb(0,0,255)" stroke-width="1"/><circle cx="50.0" cy="350.69729180591463" r="2" fill="rgb(0,0,255)"/><circle cx="76.3157894736842" cy="516.7158958398243" r="2" fill="rgb(0,0,255)"/><circle cx="102.63157894736841" cy="453.73218329501407" r="2" fill="rgb(0,0,255)"/><circle cx="128.94736842105263" cy="330.0262861859395" r="2" fill="rgb(0,0,255)"/><circle cx="155.26315789473682" cy="238.6390542508571" r="2" fill="rgb(0,0,255)"/><circle cx="181.57894736842104" cy="233.02803310895575" r="2" fill="rgb(0,0,255)"/><circle cx="207.89473684210526" cy="235.25105640756811" r="2" fill="rgb(0,0,255)"/><circle cx="234.21052631578945" cy="235.25105640756811" r="2" fill="rgb(0,0,255)"/><circle cx="260.52631578947364" cy="235.25105640756811" r="2" fill="rgb(0,0,255)"/><circle cx="286.8421052631579" cy="235.25105640756811" r="2" fill="rgb(0,0,255)"/><circle cx="313.1578947368421" cy="235.25105640756811" r="2" fill="rgb(0,0,255)"/><circle cx="339.4736842105263" cy="235.25105640756811" r="2" fill="rgb(0,0,255)"/><circle cx="365.7894736842105" cy="235.25105640756811" r="2" fill="rgb(0,0,255)"/><circle cx="392.10526315789474" cy="235.25105640756811" r="2" fill="rgb(0,0,255)"/><circle cx="418.4210526315789" cy="235.25105640756811" r="2" fill="rgb(0,0,255)"/><circle cx="444.7368421052632" cy="235.25105640756811" r="2" fill="rgb(0,0,255)"/><circle cx="471.05263157894734" cy="235.25105640756811" r="2" fill="rgb(0,0,255)"/><circle cx="497.36842105263156" cy="235.25105640756811" r="2" fill="rgb(0,0,255)"/><circle cx="523.6842105263158" cy="235.25105640756811" r="2" fill="rgb(0,0,255)"/><circle cx="550.0" cy="235.25105640756811" r="2" fill="rgb(0,0,255)"/><polyline points="50.0,309.18134051554824 76.3157894736842,381.75883051457083 102.63157894736841,422.59092567317464 128.94736842105263,411.82468216262123 155.26315789473682,341.67665860467116 181.57894736842104,338.37974130504585 207.89473684210526,337.2317011838527 234.21052631578945,337.2317011838527 260.52631578947364,337.2317011838527 286.8421052631579,337.2317011838527 313.1578947368421,337.2317011838527 339.4736842105263,337.2317011838527 365.7894736842105,337.2317011838527 392.10526315789474,337.2317011838527 418.4210526315789,337.2317011838527 444.7368421052632,337.2317011838527 471.05263157894734,337.2317011838527 497.36842105263156,337.2317011838527 523.6842105263158,337.2317011838527 550.0,337.2317011838527" fill="none" stroke="rgb(0,255,0)" stroke-width="1"/><circle cx="50.0" cy="309.18134051554824" r="2" fill="rgb(0,255,0)"/><circle cx="76.3157894736842" cy="381.75883051457083" r="2" fill="rgb(0,255,0)"/><circle cx="102.63157894736841" cy="422.59092567317464" r="2" fill="rgb(0,255,0)"/><circle cx="128.94736842105263" cy="411.82468216262123" r="2" fill="rgb(0,255,0)"/><circle cx="155.26315789473682" cy="341.67665860467116" r="2" fill="rgb(0,255,0)"/><circle cx="181.57894736842104" cy="338.37974130504585" r="2" fill="rgb(0,255,0)"/><circle cx="207.89473684210526" cy="337.2317011838527" r="2" fill="rgb(0,255,0)"/><circle cx="234.21052631578945" cy="337.2317011838527" r="2" fill="rgb(0,255,0)"/><circle cx="260.52631578947364" cy="337.2317011838527" r="2" fill="rgb(0,255,0)"/><circle cx="286.8421052631579" cy="337.2317011838527" r="2" fill="rgb(0,255,0)"/><circle cx="313.1578947368421" cy="337.2317011838527" r="2" fill="rgb(0,255,0)"/><circle cx="339.4736842105263" cy="337.2317011838527" r="2" fill="rgb(0,255,0)"/><circle cx="365.7894736842105" cy="337.2317011838527" r="2" fill="rgb(0,255,0)"/><circle cx="392.10526315789474" cy="337.2317011838527" r="2" fill="rgb(0,255,0)"/><circle cx="418.4210526315789" cy="337.2317011838527" r="2" fill="rgb(0,255,0)"/><circle cx="444.7368421052632" cy="337.2317011838527" r="2" fill="rgb(0,255,0)"/><circle cx="471.05263157894734" cy="337.2317011838527" r="2" fill="rgb(0,255,0)"/><circle cx="497.36842105263156" cy="337.2317011838527" r="2" fill="rgb(0,255,0)"/><circle cx="523.6842105263158" cy="337.2317011838527" r="2" fill="rgb(0,255,0)"/><circle cx="550.0" cy="337.2317011838527" r="2" fill="rgb(0,255,0)"/><text x="350.0" y="20.0" text-anchor="middle" fill="rgb(0,0,0)" font-size="20.0">KMeans Mean Centroid Distances</text><text x="350.0" y="575.0" text-anchor="middle" fill="rgb(0,0,0)" font-size="12.0">step</text><text transform="rotate(-90.0 20.0 300.0)" x="20.0" y="300.0" text-anchor="middle" fill="rgb(0,0,0)" font-size="12.0">average distance to centroid</text><text x="620" y="62" fill="rgb(255,0,0)" font-size="12">0</text><text x="620" y="74" fill="rgb(0,0,255)" font-size="12">1</text><text x="620" y="86" fill="rgb(0,255,0)" font-size="12">2</text>
      Sorry, your browser does not support inline SVG.
    </svg>