<?xml version='1.0' encoding='UTF-8'?>
<svg version="1.1" width="700.0" height="600.0" onload="init(evt)" xmlns="http://www.w3.org/2000/svg">
      <style>.caption {
  font-size: 14px;
  font-family: Georgia, serif;
}
</style>
      <script type="text/ecmascript"><![CDATA[
function init(evt) {
  if ( window.svgDocument == null ) {
    svgDocument = evt.target.ownerDocument;
  }
}

function RectHover(evt, i, c) {
  rect = svgDocument.getElementById('rect' + i);
  if( c != null ) {
    rect.setAttributeNS(null, "fill", c)  
  }
  tooltiptext = svgDocument.getElementById('tooltiptext' + i);
  tooltipbg = svgDocument.getElementById('tooltipbg' + i);
  if( tooltipbg != null) {
    tbb = tooltiptext.getBBox();
    tooltipbg.setAttributeNS(null, "width", tbb.width);
    tooltipbg.setAttributeNS(null, "height", tbb.height);
    tooltipbg.setAttributeNS(null, "x", tbb.x);
    tooltipbg.setAttributeNS(null, "y", tbb.y);
    tooltipbg.setAttributeNS(null, "visibility", "visible");
  }
  tooltiptext.setAttributeNS(null,"visibility","visible");
}

function RectUnhover(evt, i, c) {
  rect = svgDocument.getElementById('rect' + i);
  if( c != null ) {
    rect.setAttributeNS(null, "fill", c)  
  }
  tooltiptext = svgDocument.getElementById('tooltiptext' + i);
  tooltiptext.setAttributeNS(null,"visibility","hidden");
  tooltipbg = svgDocument.getElementById('tooltipbg' + i);
  if( tooltipbg != null ) {
    tooltipbg.setAttributeNS(null,"visibility","hidden");
  }
}
]]></script>
      <line x1="50.0" y1="550.0" x2="550.0" y2="550.0" stroke="rgb(0,0,0)" stroke-width="1"/><line x1="50.0" y1="550.0" x2="50.0" y2="50.0" stroke="rgb(0,0,0)" stroke-width="1"/><line x1="50.0" y1="550.0" x2="50.0" y2="50.0" stroke="rgb(192,192,192)" stroke-width="1"/><line x1="50.0" y1="548.0" x2="50.0" y2="552.0" stroke="rgb(192,192,192)" stroke-width="1"/><text text-anchor="middle" alignment-baseline="hanging" x="50.0" y="553.0" font-size="12.0">0</text><line x1="313.1578947368421" y1="550.0" x2="313.1578947368421" y2="50.0" stroke="rgb(192,192,192)" stroke-width="1"/><line x1="313.1578947368421" y1="548.0" x2="313.1578947368421" y2="552.0" stroke="rgb(192,192,192)" stroke-width="1"/><text text-anchor="middle" alignment-baseline="hanging" x="313.1578947368421" y="553.0" font-size="12.0">10</text><line x1="50.0" y1="550.0" x2="550.0" y2="550.0" stroke="rgb(192,192,192)" stroke-width="1"/><text text-anchor="end" alignment-baseline="middle" x="45.0" y="550.0" font-size="12.0">0.0</text><line x1="48.0" y1="550.0" x2="52.0" y2="550.0" stroke="rgb(192,192,192)" stroke-width="1"/><line x1="50.0" y1="339.78473986410427" x2="550.0" y2="339.78473986410427" stroke="rgb(192,192,192)" stroke-width="1"/><text text-anchor="end" alignment-baseline="middle" x="45.0" y="339.78473986410427" font-size="12.0">0.1</text><line x1="48.0" y1="339.78473986410427" x2="52.0" y2="339.78473986410427" stroke="rgb(192,192,192)" stroke-width="1"/><line x1="50.0" y1="129.5694797282086" x2="550.0" y2="129.5694797282086" stroke="rgb(192,192,192)" stroke-width="1"/><text text-anchor="end" alignment-baseline="middle" x="45.0" y="129.5694797282086" font-size="12.0">0.2</text><line x1="48.0" y1="129.5694797282086" x2="52.0" y2="129.5694797282086" stroke="rgb(192,192,192)" stroke-width="1"/><polyline points="50.0,132.16134246151273 76.3157894736842,427.30517675039266 102.63157894736841,503.80230780997846 128.94736842105263,512.5447922012294 155.26315789473682,511.1086454944534 181.57894736842104,511.1086454944534 207.89473684210526,511.1086454944534 234.21052631578945,511.1086454944534 260.52631578947364,511.1086454944534 286.8421052631579,511.1086454944534 313.1578947368421,511.1086454944534 339.4736842105263,511.1086454944534 365.7894736842105,511.1086454944534 392.10526315789474,511.1086454944534 418.4210526315789,511.1086454944534 444.7368421052632,511.1086454944534 471.05263157894734,511.1086454944534 497.36842105263156,511.1086454944534 523.6842105263158,511.1086454944534 550.0,511.1086454944534" fill="none" stroke="rgb(255,0,0)" stroke-width="1"/><circle cx="50.0" cy="132.16134246151273" r="2" fill="rgb(255,0,0)"/><circle cx="76.3157894736842" cy="427.30517675039266" r="2" fill="rgb(255,0,0)"/><circle cx="102.63157894736841" cy="503.80230780997846" r="2" fill="rgb(255,0,0)"/><circle cx="128.94736842105263" cy="512.5447922012294" r="2" fill="rgb(255,0,0)"/><circle cx="155.26315789473682" cy="511.1086454944534" r="2" fill="rgb(255,0,0)"/><circle cx="181.57894736842104" cy="511.1086454944534" r="2" fill="rgb(255,0,0)"/><circle cx="207.89473684210526" cy="511.1086454944534" r="2" fill="rgb(255,0,0)"/><circle cx="234.21052631578945" cy="511.1086454944534" r="2" fill="rgb(255,0,0)"/><circle cx="260.52631578947364" cy="511.1086454944534" r="2" fill="rgb(255,0,0)"/><circle cx="286.8421052631579" cy="511.1086454944534" r="2" fill="rgb(255,0,0)"/><circle cx="313.1578947368421" cy="511.1086454944534" r="2" fill="rgb(255,0,0)"/><circle cx="339.4736842105263" cy="511.1086454944534" r="2" fill="rgb(255,0,0)"/><circle cx="365.7894736842105" cy="511.1086454944534" r="2" fill="rgb(255,0,0)"/><circle cx="392.10526315789474" cy="511.1086454944534" r="2" fill="rgb(255,0,0)"/><circle cx="418.4210526315789" cy="511.1086454944534" r="2" fill="rgb(255,0,0)"/><circle cx="444.7368421052632" cy="511.1086454944534" r="2" fill="rgb(255,0,0)"/><circle cx="471.05263157894734" cy="511.1086454944534" r="2" fill="rgb(255,0,0)"/><circle cx="497.36842105263156" cy="511.1086454944534" r="2" fill="rgb(255,0,0)"/><circle cx="523.6842105263158" cy="511.1086454944534" r="2" fill="rgb(255,0,0)"/><circle cx="550.0" cy="511.1086454944534" r="2" fill="rgb(255,0,0)"/><polyline points="50.0,94.74529812235892 76.3157894736842,275.76381560319123 102.63157894736841,302.43711425068386 128.94736842105263,300.51059051794516 155.26315789473682,301.39293595217305 181.57894736842104,301.39293595217305 207.89473684210526,301.39293595217305 234.21052631578945,301.39293595217305 260.52631578947364,301.39293595217305 286.8421052631579,301.39293595217305 313.1578947368421,301.39293595217305 339.4736842105263,301.39293595217305 365.7894736842105,301.39293595217305 392.10526315789474,301.39293595217305 418.4210526315789,301.39293595217305 444.7368421052632,301.39293595217305 471.05263157894734,301.39293595217305 497.36842105263156,301.39293595217305 523.6842105263158,301.39293595217305 550.0,301.39293595217305" fill="none" stroke="rgb(0,0,255)" stroke-width="1"/><circle cx="50.0" cy="94.74529812235892" r="2" fill="rgb(0,0,255)"/><circle cx="76.3157894736842" cy="275.76381560319123" r="2" fill="rgb(0,0,255)"/><circle cx="102.63157894736841" cy="302.43711425068386" r="2" fill="rgb(0,0,255)"/><circle cx="128.94736842105263" cy="300.51059051794516" r="2" fill="rgb(0,0,255)"/><circle cx="155.26315789473682" cy="301.39293595217305" r="2" fill="rgb(0,0,255)"/><circle cx="181.57894736842104" cy="301.39293595217305" r="2" fill="rgb(0,0,255)"/><circle cx="207.89473684210526" cy="301.39293595217305" r="2" fill="rgb(0,0,255)"/><circle cx="234.21052631578945" cy="301.39293595217305" r="2" fill="rgb(0,0,255)"/><circle cx="260.52631578947364" cy="301.39293595217305" r="2" fill="rgb(0,0,255)"/><circle cx="286.8421052631579" cy="301.39293595217305" r="2" fill="rgb(0,0,255)"/><circle cx="313.1578947368421" cy="301.39293595217305" r="2" fill="rgb(0,0,255)"/><circle cx="339.4736842105263" cy="301.39293595217305" r="2" fill="rgb(0,0,255)"/><circle cx="365.7894736842105" cy="301.39293595217305" r="2" fill="rgb(0,0,255)"/><circle cx="392.10526315789474" cy="301.39293595217305" r="2" fill="rgb(0,0,255)"/><circle cx="418.4210526315789" cy="301.39293595217305" r="2" fill="rgb(0,0,255)"/><circle cx="444.7368421052632" cy="301.39293595217305" r="2" fill="rgb(0,0,255)"/><circle cx="471.05263157894734" cy="301.39293595217305" r="2" fill="rgb(0,0,255)"/><circle cx="497.36842105263156" cy="301.39293595217305" r="2" fill="rgb(0,0,255)"/><circle cx="523.6842105263158" cy="301.39293595217305" r="2" fill="rgb(0,0,255)"/><circle cx="550.0" cy="301.39293595217305" r="2" fill="rgb(0,0,255)"/><polyline points="50.0,50.0 76.3157894736842,302.11677201474834 102.63157894736841,369.1417325507925 128.94736842105263,378.1526216400039 155.26315789473682,381.9431941934404 181.57894736842104,381.9431941934404 207.89473684210526,381.9431941934404 234.21052631578945,381.9431941934404 260.52631578947364,381.9431941934404 286.8421052631579,381.9431941934404 313.1578947368421,381.9431941934404 339.4736842105263,381.9431941934404 365.7894736842105,381.9431941934404 392.10526315789474,381.9431941934404 418.4210526315789,381.9431941934404 444.7368421052632,381.9431941934404 471.05263157894734,381.9431941934404 497.36842105263156,381.9431941934404 523.6842105263158,381.9431941934404 550.0,381.9431941934404" fill="none" stroke="rgb(0,255,0)" stroke-width="1"/><circle cx="50.0" cy="50.0" r="2" fill="rgb(0,255,0)"/><circle cx="76.3157894736842" cy="302.11677201474834" r="2" fill="rgb(0,255,0)"/><circle cx="102.63157894736841" cy="369.1417325507925" r="2" fill="rgb(0,255,0)"/><circle cx="128.94736842105263" cy="378.1526216400039" r="2" fill="rgb(0,255,0)"/><circle cx="155.26315789473682" cy="381.9431941934404" r="2" fill="rgb(0,255,0)"/><circle cx="181.57894736842104" cy="381.9431941934404" r="2" fill="rgb(0,255,0)"/><circle cx="207.89473684210526" cy="381.9431941934404" r="2" fill="rgb(0,255,0)"/><circle cx="234.21052631578945" cy="381.9431941934404" r="2" fill="rgb(0,255,0)"/><circle cx="260.52631578947364" cy="381.9431941934404" r="2" fill="rgb(0,255,0)"/><circle cx="286.8421052631579" cy="381.9431941934404" r="2" fill="rgb(0,255,0)"/><circle cx="313.1578947368421" cy="381.9431941934404" r="2" fill="rgb(0,255,0)"/><circle cx="339.4736842105263" cy="381.9431941934404" r="2" fill="rgb(0,255,0)"/><circle cx="365.7894736842105" cy="381.9431941934404" r="2" fill="rgb(0,255,0)"/><circle cx="392.10526315789474" cy="381.9431941934404" r="2" fill="rgb(0,255,0)"/><circle cx="418.4210526315789" cy="381.9431941934404" r="2" fill="rgb(0,255,0)"/><circle cx="444.7368421052632" cy="381.9431941934404" r="2" fill="rgb(0,255,0)"/><circle cx="471.05263157894734" cy="381.9431941934404" r="2" fill="rgb(0,255,0)"/><circle cx="497.36842105263156" cy="381.9431941934404" r="2" fill="rgb(0,255,0)"/><circle cx="523.6842105263158" cy="381.9431941934404" r="2" fill="rgb(0,255,0)"/><circle cx="550.0" cy="381.9431941934404" r="2" fill="rgb(0,255,0)"/><text x="350.0" y="20.0" text-anchor="middle" fill="rgb(0,0,0)" font-size="20.0">KMeans Mean Centroid Distances</text><text x="350.0" y="575.0" text-anchor="middle" fill="rgb(0,0,0)" font-size="12.0">step</text><text transform="rotate(-90.0 20.0 300.0)" x="20.0" y="300.0" text-anchor="middle" fill="rgb(0,0,0)" font-size="12.0">average distance to centroid</text><text x="620" y="62" fill="rgb(255,0,0)" font-size="12">0</text><text x="620" y="74" fill="rgb(0,0,255)" font-size="12">1</text><text x="620" y="86" fill="rgb(0,255,0)" font-size="12">2</text>
      Sorry, your browser does not support inline SVG.
    </svg>