<?xml version='1.0' encoding='UTF-8'?>
<svg version="1.1" width="700.0" height="600.0" onload="init(evt)" xmlns="http://www.w3.org/2000/svg">
      <style>.caption {
  font-size: 14px;
  font-family: Georgia, serif;
}
</style>
      <script type="text/ecmascript"><![CDATA[
function init(evt) {
  if ( window.svgDocument == null ) {
    svgDocument = evt.target.ownerDocument;
  }
}

function RectHover(evt, i, c) {
  rect = svgDocument.getElementById('rect' + i);
  if( c != null ) {
    rect.setAttributeNS(null, "fill", c)  
  }
  tooltiptext = svgDocument.getElementById('tooltiptext' + i);
  tooltipbg = svgDocument.getElementById('tooltipbg' + i);
  if( tooltipbg != null) {
    tbb = tooltiptext.getBBox();
    tooltipbg.setAttributeNS(null, "width", tbb.width);
    tooltipbg.setAttributeNS(null, "height", tbb.height);
    tooltipbg.setAttributeNS(null, "x", tbb.x);
    tooltipbg.setAttributeNS(null, "y", tbb.y);
    tooltipbg.setAttributeNS(null, "visibility", "visible");
  }
  tooltiptext.setAttributeNS(null,"visibility","visible");
}

function RectUnhover(evt, i, c) {
  rect = svgDocument.getElementById('rect' + i);
  if( c != null ) {
    rect.setAttributeNS(null, "fill", c)  
  }
  tooltiptext = svgDocument.getElementById('tooltiptext' + i);
  tooltiptext.setAttributeNS(null,"visibility","hidden");
  tooltipbg = svgDocument.getElementById('tooltipbg' + i);
  if( tooltipbg != null ) {
    tooltipbg.setAttributeNS(null,"visibility","hidden");
  }
}
]]></script>
      <line x1="50.0" y1="550.0" x2="550.0" y2="550.0" stroke="rgb(0,0,0)" stroke-width="1"/><line x1="50.0" y1="550.0" x2="50.0" y2="50.0" stroke="rgb(0,0,0)" stroke-width="1"/><line x1="50.0" y1="550.0" x2="50.0" y2="50.0" stroke="rgb(192,192,192)" stroke-width="1"/><line x1="50.0" y1="548.0" x2="50.0" y2="552.0" stroke="rgb(192,192,192)" stroke-width="1"/><text text-anchor="middle" alignment-baseline="hanging" x="50.0" y="553.0" font-size="12.0">0</text><line x1="313.1578947368421" y1="550.0" x2="313.1578947368421" y2="50.0" stroke="rgb(192,192,192)" stroke-width="1"/><line x1="313.1578947368421" y1="548.0" x2="313.1578947368421" y2="552.0" stroke="rgb(192,192,192)" stroke-width="1"/><text text-anchor="middle" alignment-baseline="hanging" x="313.1578947368421" y="553.0" font-size="12.0">10</text><line x1="50.0" y1="550.0" x2="550.0" y2="550.0" stroke="rgb(192,192,192)" stroke-width="1"/><text text-anchor="end" alignment-baseline="middle" x="45.0" y="550.0" font-size="12.0">0.0</text><line x1="48.0" y1="550.0" x2="52.0" y2="550.0" stroke="rgb(192,192,192)" stroke-width="1"/><line x1="50.0" y1="328.2205429734687" x2="550.0" y2="328.2205429734687" stroke="rgb(192,192,192)" stroke-width="1"/><text text-anchor="end" alignment-baseline="middle" x="45.0" y="328.2205429734687" font-size="12.0">0.1</text><line x1="48.0" y1="328.2205429734687" x2="52.0" y2="328.2205429734687" stroke="rgb(192,192,192)" stroke-width="1"/><line x1="50.0" y1="106.44108594693733" x2="550.0" y2="106.44108594693733" stroke="rgb(192,192,192)" stroke-width="1"/><text text-anchor="end" alignment-baseline="middle" x="45.0" y="106.44108594693733" font-size="12.0">0.2</text><line x1="48.0" y1="106.44108594693733" x2="52.0" y2="106.44108594693733" stroke="rgb(192,192,192)" stroke-width="1"/><polyline points="50.0,159.23598069974196 76.3157894736842,354.3363336721525 102.63157894736841,456.40522346897353 128.94736842105263,492.8255466397079 155.26315789473682,505.6689134292575 181.57894736842104,506.3632895583831 207.89473684210526,506.3632895583831 234.21052631578945,506.3632895583831 260.52631578947364,506.3632895583831 286.8421052631579,506.3632895583831 313.1578947368421,506.3632895583831 339.4736842105263,506.3632895583831 365.7894736842105,506.3632895583831 392.10526315789474,506.3632895583831 418.4210526315789,506.3632895583831 444.7368421052632,506.3632895583831 471.05263157894734,506.3632895583831 497.36842105263156,506.3632895583831 523.6842105263158,506.3632895583831 550.0,506.3632895583831" fill="none" stroke="rgb(255,0,0)" stroke-width="1"/><circle cx="50.0" cy="159.23598069974196" r="2" fill="rgb(255,0,0)"/><circle cx="76.3157894736842" cy="354.3363336721525" r="2" fill="rgb(255,0,0)"/><circle cx="102.63157894736841" cy="456.40522346897353" r="2" fill="rgb(255,0,0)"/><circle cx="128.94736842105263" cy="492.8255466397079" r="2" fill="rgb(255,0,0)"/><circle cx="155.26315789473682" cy="505.6689134292575" r="2" fill="rgb(255,0,0)"/><circle cx="181.57894736842104" cy="506.3632895583831" r="2" fill="rgb(255,0,0)"/><circle cx="207.89473684210526" cy="506.3632895583831" r="2" fill="rgb(255,0,0)"/><circle cx="234.21052631578945" cy="506.3632895583831" r="2" fill="rgb(255,0,0)"/><circle cx="260.52631578947364" cy="506.3632895583831" r="2" fill="rgb(255,0,0)"/><circle cx="286.8421052631579" cy="506.3632895583831" r="2" fill="rgb(255,0,0)"/><circle cx="313.1578947368421" cy="506.3632895583831" r="2" fill="rgb(255,0,0)"/><circle cx="339.4736842105263" cy="506.3632895583831" r="2" fill="rgb(255,0,0)"/><circle cx="365.7894736842105" cy="506.3632895583831" r="2" fill="rgb(255,0,0)"/><circle cx="392.10526315789474" cy="506.3632895583831" r="2" fill="rgb(255,0,0)"/><circle cx="418.4210526315789" cy="506.3632895583831" r="2" fill="rgb(255,0,0)"/><circle cx="444.7368421052632" cy="506.3632895583831" r="2" fill="rgb(255,0,0)"/><circle cx="471.05263157894734" cy="506.3632895583831" r="2" fill="rgb(255,0,0)"/><circle cx="497.36842105263156" cy="506.3632895583831" r="2" fill="rgb(255,0,0)"/><circle cx="523.6842105263158" cy="506.3632895583831" r="2" fill="rgb(255,0,0)"/><circle cx="550.0" cy="506.3632895583831" r="2" fill="rgb(255,0,0)"/><polyline points="50.0,80.61420501749973 76.3157894736842,311.2414509775575 102.63157894736841,313.6636269026664 128.94736842105263,303.5798758347014 155.26315789473682,290.5400095930355 181.57894736842104,286.2914369075034 207.89473684210526,286.2914369075034 234.21052631578945,286.2914369075034 260.52631578947364,286.2914369075034 286.8421052631579,286.2914369075034 313.1578947368421,286.2914369075034 339.4736842105263,286.2914369075034 365.7894736842105,286.2914369075034 392.10526315789474,286.2914369075034 418.4210526315789,286.2914369075034 444.7368421052632,286.2914369075034 471.05263157894734,286.2914369075034 497.36842105263156,286.2914369075034 523.6842105263158,286.2914369075034 550.0,286.2914369075034" fill="none" stroke="rgb(0,0,255)" stroke-width="1"/><circle cx="50.0" cy="80.61420501749973" r="2" fill="rgb(0,0,255)"/><circle cx="76.3157894736842" cy="311.2414509775575" r="2" fill="rgb(0,0,255)"/><circle cx="102.63157894736841" cy="313.6636269026664" r="2" fill="rgb(0,0,255)"/><circle cx="128.94736842105263" cy="303.5798758347014" r="2" fill="rgb(0,0,255)"/><circle cx="155.26315789473682" cy="290.5400095930355" r="2" fill="rgb(0,0,255)"/><circle cx="181.57894736842104" cy="286.2914369075034" r="2" fill="rgb(0,0,255)"/><circle cx="207.89473684210526" cy="286.2914369075034" r="2" fill="rgb(0,0,255)"/><circle cx="234.21052631578945" cy="286.2914369075034" r="2" fill="rgb(0,0,255)"/><circle cx="260.52631578947364" cy="286.2914369075034" r="2" fill="rgb(0,0,255)"/><circle cx="286.8421052631579" cy="286.2914369075034" r="2" fill="rgb(0,0,255)"/><circle cx="313.1578947368421" cy="286.2914369075034" r="2" fill="rgb(0,0,255)"/><circle cx="339.4736842105263" cy="286.2914369075034" r="2" fill="rgb(0,0,255)"/><circle cx="365.7894736842105" cy="286.2914369075034" r="2" fill="rgb(0,0,255)"/><circle cx="392.10526315789474" cy="286.2914369075034" r="2" fill="rgb(0,0,255)"/><circle cx="418.4210526315789" cy="286.2914369075034" r="2" fill="rgb(0,0,255)"/><circle cx="444.7368421052632" cy="286.2914369075034" r="2" fill="rgb(0,0,255)"/><circle cx="471.05263157894734" cy="286.2914369075034" r="2" fill="rgb(0,0,255)"/><circle cx="497.36842105263156" cy="286.2914369075034" r="2" fill="rgb(0,0,255)"/><circle cx="523.6842105263158" cy="286.2914369075034" r="2" fill="rgb(0,0,255)"/><circle cx="550.0" cy="286.2914369075034" r="2" fill="rgb(0,0,255)"/><polyline points="50.0,50.0 76.3157894736842,298.05386595715277 102.63157894736841,359.5840945327981 128.94736842105263,378.8990909576578 155.26315789473682,376.402209725021 181.57894736842104,376.79556688974014 207.89473684210526,376.79556688974014 234.21052631578945,376.79556688974014 260.52631578947364,376.79556688974014 286.8421052631579,376.79556688974014 313.1578947368421,376.79556688974014 339.4736842105263,376.79556688974014 365.7894736842105,376.79556688974014 392.10526315789474,376.79556688974014 418.4210526315789,376.79556688974014 444.7368421052632,376.79556688974014 471.05263157894734,376.79556688974014 497.36842105263156,376.79556688974014 523.6842105263158,376.79556688974014 550.0,376.79556688974014" fill="none" stroke="rgb(0,255,0)" stroke-width="1"/><circle cx="50.0" cy="50.0" r="2" fill="rgb(0,255,0)"/><circle cx="76.3157894736842" cy="298.05386595715277" r="2" fill="rgb(0,255,0)"/><circle cx="102.63157894736841" cy="359.5840945327981" r="2" fill="rgb(0,255,0)"/><circle cx="128.94736842105263" cy="378.8990909576578" r="2" fill="rgb(0,255,0)"/><circle cx="155.26315789473682" cy="376.402209725021" r="2" fill="rgb(0,255,0)"/><circle cx="181.57894736842104" cy="376.79556688974014" r="2" fill="rgb(0,255,0)"/><circle cx="207.89473684210526" cy="376.79556688974014" r="2" fill="rgb(0,255,0)"/><circle cx="234.21052631578945" cy="376.79556688974014" r="2" fill="rgb(0,255,0)"/><circle cx="260.52631578947364" cy="376.79556688974014" r="2" fill="rgb(0,255,0)"/><circle cx="286.8421052631579" cy="376.79556688974014" r="2" fill="rgb(0,255,0)"/><circle cx="313.1578947368421" cy="376.79556688974014" r="2" fill="rgb(0,255,0)"/><circle cx="339.4736842105263" cy="376.79556688974014" r="2" fill="rgb(0,255,0)"/><circle cx="365.7894736842105" cy="376.79556688974014" r="2" fill="rgb(0,255,0)"/><circle cx="392.10526315789474" cy="376.79556688974014" r="2" fill="rgb(0,255,0)"/><circle cx="418.4210526315789" cy="376.79556688974014" r="2" fill="rgb(0,255,0)"/><circle cx="444.7368421052632" cy="376.79556688974014" r="2" fill="rgb(0,255,0)"/><circle cx="471.05263157894734" cy="376.79556688974014" r="2" fill="rgb(0,255,0)"/><circle cx="497.36842105263156" cy="376.79556688974014" r="2" fill="rgb(0,255,0)"/><circle cx="523.6842105263158" cy="376.79556688974014" r="2" fill="rgb(0,255,0)"/><circle cx="550.0" cy="376.79556688974014" r="2" fill="rgb(0,255,0)"/><text x="350.0" y="20.0" text-anchor="middle" fill="rgb(0,0,0)" font-size="20.0">KMeans Mean Centroid Distances</text><text x="350.0" y="575.0" text-anchor="middle" fill="rgb(0,0,0)" font-size="12.0">step</text><text transform="rotate(-90.0 20.0 300.0)" x="20.0" y="300.0" text-anchor="middle" fill="rgb(0,0,0)" font-size="12.0">average distance to centroid</text><text x="620" y="62" fill="rgb(255,0,0)" font-size="12">0</text><text x="620" y="74" fill="rgb(0,0,255)" font-size="12">1</text><text x="620" y="86" fill="rgb(0,255,0)" font-size="12">2</text>
      Sorry, your browser does not support inline SVG.
    </svg>