<?xml version='1.0' encoding='UTF-8'?>
<svg version="1.1" width="700.0" height="600.0" onload="init(evt)" xmlns="http://www.w3.org/2000/svg">
      <style>.caption {
  font-size: 14px;
  font-family: Georgia, serif;
}
</style>
      <script type="text/ecmascript"><![CDATA[
function init(evt) {
  if ( window.svgDocument == null ) {
    svgDocument = evt.target.ownerDocument;
  }
}

function RectHover(evt, i, c) {
  rect = svgDocument.getElementById('rect' + i);
  if( c != null ) {
    rect.setAttributeNS(null, "fill", c)  
  }
  tooltiptext = svgDocument.getElementById('tooltiptext' + i);
  tooltipbg = svgDocument.getElementById('tooltipbg' + i);
  if( tooltipbg != null) {
    tbb = tooltiptext.getBBox();
    tooltipbg.setAttributeNS(null, "width", tbb.width);
    tooltipbg.setAttributeNS(null, "height", tbb.height);
    tooltipbg.setAttributeNS(null, "x", tbb.x);
    tooltipbg.setAttributeNS(null, "y", tbb.y);
    tooltipbg.setAttributeNS(null, "visibility", "visible");
  }
  tooltiptext.setAttributeNS(null,"visibility","visible");
}

function RectUnhover(evt, i, c) {
  rect = svgDocument.getElementById('rect' + i);
  if( c != null ) {
    rect.setAttributeNS(null, "fill", c)  
  }
  tooltiptext = svgDocument.getElementById('tooltiptext' + i);
  tooltiptext.setAttributeNS(null,"visibility","hidden");
  tooltipbg = svgDocument.getElementById('tooltipbg' + i);
  if( tooltipbg != null ) {
    tooltipbg.setAttributeNS(null,"visibility","hidden");
  }
}
]]></script>
      <line x1="50.0" y1="550.0" x2="550.0" y2="550.0" stroke="rgb(0,0,0)" stroke-width="1"/><line x1="50.0" y1="550.0" x2="50.0" y2="50.0" stroke="rgb(0,0,0)" stroke-width="1"/><line x1="50.0" y1="550.0" x2="50.0" y2="50.0" stroke="rgb(192,192,192)" stroke-width="1"/><line x1="50.0" y1="548.0" x2="50.0" y2="552.0" stroke="rgb(192,192,192)" stroke-width="1"/><text text-anchor="middle" alignment-baseline="hanging" x="50.0" y="553.0" font-size="12.0">0</text><line x1="313.1578947368421" y1="550.0" x2="313.1578947368421" y2="50.0" stroke="rgb(192,192,192)" stroke-width="1"/><line x1="313.1578947368421" y1="548.0" x2="313.1578947368421" y2="552.0" stroke="rgb(192,192,192)" stroke-width="1"/><text text-anchor="middle" alignment-baseline="hanging" x="313.1578947368421" y="553.0" font-size="12.0">10</text><line x1="50.0" y1="550.0" x2="550.0" y2="550.0" stroke="rgb(192,192,192)" stroke-width="1"/><text text-anchor="end" alignment-baseline="middle" x="45.0" y="550.0" font-size="12.0">0.00</text><line x1="48.0" y1="550.0" x2="52.0" y2="550.0" stroke="rgb(192,192,192)" stroke-width="1"/><line x1="50.0" y1="514.2956491844594" x2="550.0" y2="514.2956491844594" stroke="rgb(192,192,192)" stroke-width="1"/><text text-anchor="end" alignment-baseline="middle" x="45.0" y="514.2956491844594" font-size="12.0">0.01</text><line x1="48.0" y1="514.2956491844594" x2="52.0" y2="514.2956491844594" stroke="rgb(192,192,192)" stroke-width="1"/><line x1="50.0" y1="478.59129836891896" x2="550.0" y2="478.59129836891896" stroke="rgb(192,192,192)" stroke-width="1"/><text text-anchor="end" alignment-baseline="middle" x="45.0" y="478.59129836891896" font-size="12.0">0.02</text><line x1="48.0" y1="478.59129836891896" x2="52.0" y2="478.59129836891896" stroke="rgb(192,192,192)" stroke-width="1"/><line x1="50.0" y1="442.8869475533784" x2="550.0" y2="442.8869475533784" stroke="rgb(192,192,192)" stroke-width="1"/><text text-anchor="end" alignment-baseline="middle" x="45.0" y="442.8869475533784" font-size="12.0">0.03</text><line x1="48.0" y1="442.8869475533784" x2="52.0" y2="442.8869475533784" stroke="rgb(192,192,192)" stroke-width="1"/><line x1="50.0" y1="407.18259673783786" x2="550.0" y2="407.18259673783786" stroke="rgb(192,192,192)" stroke-width="1"/><text text-anchor="end" alignment-baseline="middle" x="45.0" y="407.18259673783786" font-size="12.0">0.04</text><line x1="48.0" y1="407.18259673783786" x2="52.0" y2="407.18259673783786" stroke="rgb(192,192,192)" stroke-width="1"/><line x1="50.0" y1="371.47824592229733" x2="550.0" y2="371.47824592229733" stroke="rgb(192,192,192)" stroke-width="1"/><text text-anchor="end" alignment-baseline="middle" x="45.0" y="371.47824592229733" font-size="12.0">0.05</text><line x1="48.0" y1="371.47824592229733" x2="52.0" y2="371.47824592229733" stroke="rgb(192,192,192)" stroke-width="1"/><line x1="50.0" y1="335.7738951067568" x2="550.0" y2="335.7738951067568" stroke="rgb(192,192,192)" stroke-width="1"/><text text-anchor="end" alignment-baseline="middle" x="45.0" y="335.7738951067568" font-size="12.0">0.06</text><line x1="48.0" y1="335.7738951067568" x2="52.0" y2="335.7738951067568" stroke="rgb(192,192,192)" stroke-width="1"/><line x1="50.0" y1="300.06954429121623" x2="550.0" y2="300.06954429121623" stroke="rgb(192,192,192)" stroke-width="1"/><text text-anchor="end" alignment-baseline="middle" x="45.0" y="300.06954429121623" font-size="12.0">0.07</text><line x1="48.0" y1="300.06954429121623" x2="52.0" y2="300.06954429121623" stroke="rgb(192,192,192)" stroke-width="1"/><line x1="50.0" y1="264.3651934756757" x2="550.0" y2="264.3651934756757" stroke="rgb(192,192,192)" stroke-width="1"/><text text-anchor="end" alignment-baseline="middle" x="45.0" y="264.3651934756757" font-size="12.0">0.08</text><line x1="48.0" y1="264.3651934756757" x2="52.0" y2="264.3651934756757" stroke="rgb(192,192,192)" stroke-width="1"/><line x1="50.0" y1="228.6608426601352" x2="550.0" y2="228.6608426601352" stroke="rgb(192,192,192)" stroke-width="1"/><text text-anchor="end" alignment-baseline="middle" x="45.0" y="228.6608426601352" font-size="12.0">0.09</text><line x1="48.0" y1="228.6608426601352" x2="52.0" y2="228.6608426601352" stroke="rgb(192,192,192)" stroke-width="1"/><line x1="50.0" y1="192.9564918445946" x2="550.0" y2="192.9564918445946" stroke="rgb(192,192,192)" stroke-width="1"/><text text-anchor="end" alignment-baseline="middle" x="45.0" y="192.9564918445946" font-size="12.0">0.10</text><line x1="48.0" y1="192.9564918445946" x2="52.0" y2="192.9564918445946" stroke="rgb(192,192,192)" stroke-width="1"/><line x1="50.0" y1="157.2521410290541" x2="550.0" y2="157.2521410290541" stroke="rgb(192,192,192)" stroke-width="1"/><text text-anchor="end" alignment-baseline="middle" x="45.0" y="157.2521410290541" font-size="12.0">0.11</text><line x1="48.0" y1="157.2521410290541" x2="52.0" y2="157.2521410290541" stroke="rgb(192,192,192)" stroke-width="1"/><line x1="50.0" y1="121.54779021351362" x2="550.0" y2="121.54779021351362" stroke="rgb(192,192,192)" stroke-width="1"/><text text-anchor="end" alignment-baseline="middle" x="45.0" y="121.54779021351362" font-size="12.0">0.12</text><line x1="48.0" y1="121.54779021351362" x2="52.0" y2="121.54779021351362" stroke="rgb(192,192,192)" stroke-width="1"/><line x1="50.0" y1="85.84343939797304" x2="550.0" y2="85.84343939797304" stroke="rgb(192,192,192)" stroke-width="1"/><text text-anchor="end" alignment-baseline="middle" x="45.0" y="85.84343939797304" font-size="12.0">0.13</text><line x1="48.0" y1="85.84343939797304" x2="52.0" y2="85.84343939797304" stroke="rgb(192,192,192)" stroke-width="1"/><line x1="50.0" y1="50.139088582432464" x2="550.0" y2="50.139088582432464" stroke="rgb(192,192,192)" stroke-width="1"/><text text-anchor="end" alignment-baseline="middle" x="45.0" y="50.139088582432464" font-size="12.0">0.14</text><line x1="48.0" y1="50.139088582432464" x2="52.0" y2="50.139088582432464" stroke="rgb(192,192,192)" stroke-width="1"/><polyline points="50.0,50.0 76.3157894736842,357.6866173507847 102.63157894736841,442.66112934368243 128.94736842105263,474.8336105983642 155.26315789473682,479.74911026780694 181.57894736842104,479.74911026780694 207.89473684210526,479.74911026780694 234.21052631578945,479.74911026780694 260.52631578947364,479.74911026780694 286.8421052631579,479.74911026780694 313.1578947368421,479.74911026780694 339.4736842105263,479.74911026780694 365.7894736842105,479.74911026780694 392.10526315789474,479.74911026780694 418.4210526315789,479.74911026780694 444.7368421052632,479.74911026780694 471.05263157894734,479.74911026780694 497.36842105263156,479.74911026780694 523.6842105263158,479.74911026780694 550.0,479.74911026780694" fill="none" stroke="rgb(255,0,0)" stroke-width="1"/><circle cx="50.0" cy="50.0" r="2" fill="rgb(255,0,0)"/><circle cx="76.3157894736842" cy="357.6866173507847" r="2" fill="rgb(255,0,0)"/><circle cx="102.63157894736841" cy="442.66112934368243" r="2" fill="rgb(255,0,0)"/><circle cx="128.94736842105263" cy="474.8336105983642" r="2" fill="rgb(255,0,0)"/><circle cx="155.26315789473682" cy="479.74911026780694" r="2" fill="rgb(255,0,0)"/><circle cx="181.57894736842104" cy="479.74911026780694" r="2" fill="rgb(255,0,0)"/><circle cx="207.89473684210526" cy="479.74911026780694" r="2" fill="rgb(255,0,0)"/><circle cx="234.21052631578945" cy="479.74911026780694" r="2" fill="rgb(255,0,0)"/><circle cx="260.52631578947364" cy="479.74911026780694" r="2" fill="rgb(255,0,0)"/><circle cx="286.8421052631579" cy="479.74911026780694" r="2" fill="rgb(255,0,0)"/><circle cx="313.1578947368421" cy="479.74911026780694" r="2" fill="rgb(255,0,0)"/><circle cx="339.4736842105263" cy="479.74911026780694" r="2" fill="rgb(255,0,0)"/><circle cx="365.7894736842105" cy="479.74911026780694" r="2" fill="rgb(255,0,0)"/><circle cx="392.10526315789474" cy="479.74911026780694" r="2" fill="rgb(255,0,0)"/><circle cx="418.4210526315789" cy="479.74911026780694" r="2" fill="rgb(255,0,0)"/><circle cx="444.7368421052632" cy="479.74911026780694" r="2" fill="rgb(255,0,0)"/><circle cx="471.05263157894734" cy="479.74911026780694" r="2" fill="rgb(255,0,0)"/><circle cx="497.36842105263156" cy="479.74911026780694" r="2" fill="rgb(255,0,0)"/><circle cx="523.6842105263158" cy="479.74911026780694" r="2" fill="rgb(255,0,0)"/><circle cx="550.0" cy="479.74911026780694" r="2" fill="rgb(255,0,0)"/><polyline points="50.0,500.04511259153605 76.3157894736842,254.8947932189635 102.63157894736841,167.54345858696 128.94736842105263,133.23243687118645 155.26315789473682,125.45468025064974 181.57894736842104,125.45468025064974 207.89473684210526,125.45468025064974 234.21052631578945,125.45468025064974 260.52631578947364,125.45468025064974 286.8421052631579,125.45468025064974 313.1578947368421,125.45468025064974 339.4736842105263,125.45468025064974 365.7894736842105,125.45468025064974 392.10526315789474,125.45468025064974 418.4210526315789,125.45468025064974 444.7368421052632,125.45468025064974 471.05263157894734,125.45468025064974 497.36842105263156,125.45468025064974 523.6842105263158,125.45468025064974 550.0,125.45468025064974" fill="none" stroke="rgb(0,0,255)" stroke-width="1"/><circle cx="50.0" cy="500.04511259153605" r="2" fill="rgb(0,0,255)"/><circle cx="76.3157894736842" cy="254.8947932189635" r="2" fill="rgb(0,0,255)"/><circle cx="102.63157894736841" cy="167.54345858696" r="2" fill="rgb(0,0,255)"/><circle cx="128.94736842105263" cy="133.23243687118645" r="2" fill="rgb(0,0,255)"/><circle cx="155.26315789473682" cy="125.45468025064974" r="2" fill="rgb(0,0,255)"/><circle cx="181.57894736842104" cy="125.45468025064974" r="2" fill="rgb(0,0,255)"/><circle cx="207.89473684210526" cy="125.45468025064974" r="2" fill="rgb(0,0,255)"/><circle cx="234.21052631578945" cy="125.45468025064974" r="2" fill="rgb(0,0,255)"/><circle cx="260.52631578947364" cy="125.45468025064974" r="2" fill="rgb(0,0,255)"/><circle cx="286.8421052631579" cy="125.45468025064974" r="2" fill="rgb(0,0,255)"/><circle cx="313.1578947368421" cy="125.45468025064974" r="2" fill="rgb(0,0,255)"/><circle cx="339.4736842105263" cy="125.45468025064974" r="2" fill="rgb(0,0,255)"/><circle cx="365.7894736842105" cy="125.45468025064974" r="2" fill="rgb(0,0,255)"/><circle cx="392.10526315789474" cy="125.45468025064974" r="2" fill="rgb(0,0,255)"/><circle cx="418.4210526315789" cy="125.45468025064974" r="2" fill="rgb(0,0,255)"/><circle cx="444.7368421052632" cy="125.45468025064974" r="2" fill="rgb(0,0,255)"/><circle cx="471.05263157894734" cy="125.45468025064974" r="2" fill="rgb(0,0,255)"/><circle cx="497.36842105263156" cy="125.45468025064974" r="2" fill="rgb(0,0,255)"/><circle cx="523.6842105263158" cy="125.45468025064974" r="2" fill="rgb(0,0,255)"/><circle cx="550.0" cy="125.45468025064974" r="2" fill="rgb(0,0,255)"/><polyline points="50.0,352.76414104285334 76.3157894736842,364.6312346351416 102.63157894736841,304.7545114955449 128.94736842105263,275.8007269683522 155.26315789473682,271.1575893688054 181.57894736842104,271.1575893688054 207.89473684210526,271.1575893688054 234.21052631578945,271.1575893688054 260.52631578947364,271.1575893688054 286.8421052631579,271.1575893688054 313.1578947368421,271.1575893688054 339.4736842105263,271.1575893688054 365.7894736842105,271.1575893688054 392.10526315789474,271.1575893688054 418.4210526315789,271.1575893688054 444.7368421052632,271.1575893688054 471.05263157894734,271.1575893688054 497.36842105263156,271.1575893688054 523.6842105263158,271.1575893688054 550.0,271.1575893688054" fill="none" stroke="rgb(0,255,0)" stroke-width="1"/><circle cx="50.0" cy="352.76414104285334" r="2" fill="rgb(0,255,0)"/><circle cx="76.3157894736842" cy="364.6312346351416" r="2" fill="rgb(0,255,0)"/><circle cx="102.63157894736841" cy="304.7545114955449" r="2" fill="rgb(0,255,0)"/><circle cx="128.94736842105263" cy="275.8007269683522" r="2" fill="rgb(0,255,0)"/><circle cx="155.26315789473682" cy="271.1575893688054" r="2" fill="rgb(0,255,0)"/><circle cx="181.57894736842104" cy="271.1575893688054" r="2" fill="rgb(0,255,0)"/><circle cx="207.89473684210526" cy="271.1575893688054" r="2" fill="rgb(0,255,0)"/><circle cx="234.21052631578945" cy="271.1575893688054" r="2" fill="rgb(0,255,0)"/><circle cx="260.52631578947364" cy="271.1575893688054" r="2" fill="rgb(0,255,0)"/><circle cx="286.8421052631579" cy="271.1575893688054" r="2" fill="rgb(0,255,0)"/><circle cx="313.1578947368421" cy="271.1575893688054" r="2" fill="rgb(0,255,0)"/><circle cx="339.4736842105263" cy="271.1575893688054" r="2" fill="rgb(0,255,0)"/><circle cx="365.7894736842105" cy="271.1575893688054" r="2" fill="rgb(0,255,0)"/><circle cx="392.10526315789474" cy="271.1575893688054" r="2" fill="rgb(0,255,0)"/><circle cx="418.4210526315789" cy="271.1575893688054" r="2" fill="rgb(0,255,0)"/><circle cx="444.7368421052632" cy="271.1575893688054" r="2" fill="rgb(0,255,0)"/><circle cx="471.05263157894734" cy="271.1575893688054" r="2" fill="rgb(0,255,0)"/><circle cx="497.36842105263156" cy="271.1575893688054" r="2" fill="rgb(0,255,0)"/><circle cx="523.6842105263158" cy="271.1575893688054" r="2" fill="rgb(0,255,0)"/><circle cx="550.0" cy="271.1575893688054" r="2" fill="rgb(0,255,0)"/><text x="350.0" y="20.0" text-anchor="middle" fill="rgb(0,0,0)" font-size="20.0">KMeans Mean Centroid Distances</text><text x="350.0" y="575.0" text-anchor="middle" fill="rgb(0,0,0)" font-size="12.0">step</text><text transform="rotate(-90.0 20.0 300.0)" x="20.0" y="300.0" text-anchor="middle" fill="rgb(0,0,0)" font-size="12.0">average distance to centroid</text><text x="620" y="62" fill="rgb(255,0,0)" font-size="12">0</text><text x="620" y="74" fill="rgb(0,0,255)" font-size="12">1</text><text x="620" y="86" fill="rgb(0,255,0)" font-size="12">2</text>
      Sorry, your browser does not support inline SVG.
    </svg>