<?xml version='1.0' encoding='UTF-8'?>
<svg version="1.1" width="700.0" height="600.0" onload="init(evt)" xmlns="http://www.w3.org/2000/svg">
      <style>.caption {
  font-size: 14px;
  font-family: Georgia, serif;
}
</style>
      <script type="text/ecmascript"><![CDATA[
function init(evt) {
  if ( window.svgDocument == null ) {
    svgDocument = evt.target.ownerDocument;
  }
}

function RectHover(evt, i, c) {
  rect = svgDocument.getElementById('rect' + i);
  if( c != null ) {
    rect.setAttributeNS(null, "fill", c)  
  }
  tooltiptext = svgDocument.getElementById('tooltiptext' + i);
  tooltipbg = svgDocument.getElementById('tooltipbg' + i);
  if( tooltipbg != null) {
    tbb = tooltiptext.getBBox();
    tooltipbg.setAttributeNS(null, "width", tbb.width);
    tooltipbg.setAttributeNS(null, "height", tbb.height);
    tooltipbg.setAttributeNS(null, "x", tbb.x);
    tooltipbg.setAttributeNS(null, "y", tbb.y);
    tooltipbg.setAttributeNS(null, "visibility", "visible");
  }
  tooltiptext.setAttributeNS(null,"visibility","visible");
}

function RectUnhover(evt, i, c) {
  rect = svgDocument.getElementById('rect' + i);
  if( c != null ) {
    rect.setAttributeNS(null, "fill", c)  
  }
  tooltiptext = svgDocument.getElementById('tooltiptext' + i);
  tooltiptext.setAttributeNS(null,"visibility","hidden");
  tooltipbg = svgDocument.getElementById('tooltipbg' + i);
  if( tooltipbg != null ) {
    tooltipbg.setAttributeNS(null,"visibility","hidden");
  }
}
]]></script>
      <line x1="50.0" y1="550.0" x2="550.0" y2="550.0" stroke="rgb(0,0,0)" stroke-width="1"/><line x1="50.0" y1="550.0" x2="50.0" y2="50.0" stroke="rgb(0,0,0)" stroke-width="1"/><line x1="50.0" y1="550.0" x2="50.0" y2="50.0" stroke="rgb(192,192,192)" stroke-width="1"/><line x1="50.0" y1="548.0" x2="50.0" y2="552.0" stroke="rgb(192,192,192)" stroke-width="1"/><text text-anchor="middle" alignment-baseline="hanging" x="50.0" y="553.0" font-size="12.0">0</text><line x1="313.1578947368421" y1="550.0" x2="313.1578947368421" y2="50.0" stroke="rgb(192,192,192)" stroke-width="1"/><line x1="313.1578947368421" y1="548.0" x2="313.1578947368421" y2="552.0" stroke="rgb(192,192,192)" stroke-width="1"/><text text-anchor="middle" alignment-baseline="hanging" x="313.1578947368421" y="553.0" font-size="12.0">10</text><line x1="50.0" y1="550.0" x2="550.0" y2="550.0" stroke="rgb(192,192,192)" stroke-width="1"/><text text-anchor="end" alignment-baseline="middle" x="45.0" y="550.0" font-size="12.0">0.00</text><line x1="48.0" y1="550.0" x2="52.0" y2="550.0" stroke="rgb(192,192,192)" stroke-width="1"/><line x1="50.0" y1="501.35535297379346" x2="550.0" y2="501.35535297379346" stroke="rgb(192,192,192)" stroke-width="1"/><text text-anchor="end" alignment-baseline="middle" x="45.0" y="501.35535297379346" font-size="12.0">0.01</text><line x1="48.0" y1="501.35535297379346" x2="52.0" y2="501.35535297379346" stroke="rgb(192,192,192)" stroke-width="1"/><line x1="50.0" y1="452.7107059475869" x2="550.0" y2="452.7107059475869" stroke="rgb(192,192,192)" stroke-width="1"/><text text-anchor="end" alignment-baseline="middle" x="45.0" y="452.7107059475869" font-size="12.0">0.02</text><line x1="48.0" y1="452.7107059475869" x2="52.0" y2="452.7107059475869" stroke="rgb(192,192,192)" stroke-width="1"/><line x1="50.0" y1="404.0660589213803" x2="550.0" y2="404.0660589213803" stroke="rgb(192,192,192)" stroke-width="1"/><text text-anchor="end" alignment-baseline="middle" x="45.0" y="404.0660589213803" font-size="12.0">0.03</text><line x1="48.0" y1="404.0660589213803" x2="52.0" y2="404.0660589213803" stroke="rgb(192,192,192)" stroke-width="1"/><line x1="50.0" y1="355.42141189517383" x2="550.0" y2="355.42141189517383" stroke="rgb(192,192,192)" stroke-width="1"/><text text-anchor="end" alignment-baseline="middle" x="45.0" y="355.42141189517383" font-size="12.0">0.04</text><line x1="48.0" y1="355.42141189517383" x2="52.0" y2="355.42141189517383" stroke="rgb(192,192,192)" stroke-width="1"/><line x1="50.0" y1="306.77676486896723" x2="550.0" y2="306.77676486896723" stroke="rgb(192,192,192)" stroke-width="1"/><text text-anchor="end" alignment-baseline="middle" x="45.0" y="306.77676486896723" font-size="12.0">0.05</text><line x1="48.0" y1="306.77676486896723" x2="52.0" y2="306.77676486896723" stroke="rgb(192,192,192)" stroke-width="1"/><line x1="50.0" y1="258.1321178427607" x2="550.0" y2="258.1321178427607" stroke="rgb(192,192,192)" stroke-width="1"/><text text-anchor="end" alignment-baseline="middle" x="45.0" y="258.1321178427607" font-size="12.0">0.06</text><line x1="48.0" y1="258.1321178427607" x2="52.0" y2="258.1321178427607" stroke="rgb(192,192,192)" stroke-width="1"/><line x1="50.0" y1="209.48747081655415" x2="550.0" y2="209.48747081655415" stroke="rgb(192,192,192)" stroke-width="1"/><text text-anchor="end" alignment-baseline="middle" x="45.0" y="209.48747081655415" font-size="12.0">0.07</text><line x1="48.0" y1="209.48747081655415" x2="52.0" y2="209.48747081655415" stroke="rgb(192,192,192)" stroke-width="1"/><line x1="50.0" y1="160.8428237903476" x2="550.0" y2="160.8428237903476" stroke="rgb(192,192,192)" stroke-width="1"/><text text-anchor="end" alignment-baseline="middle" x="45.0" y="160.8428237903476" font-size="12.0">0.08</text><line x1="48.0" y1="160.8428237903476" x2="52.0" y2="160.8428237903476" stroke="rgb(192,192,192)" stroke-width="1"/><line x1="50.0" y1="112.19817676414107" x2="550.0" y2="112.19817676414107" stroke="rgb(192,192,192)" stroke-width="1"/><text text-anchor="end" alignment-baseline="middle" x="45.0" y="112.19817676414107" font-size="12.0">0.09</text><line x1="48.0" y1="112.19817676414107" x2="52.0" y2="112.19817676414107" stroke="rgb(192,192,192)" stroke-width="1"/><line x1="50.0" y1="63.553529737934525" x2="550.0" y2="63.553529737934525" stroke="rgb(192,192,192)" stroke-width="1"/><text text-anchor="end" alignment-baseline="middle" x="45.0" y="63.553529737934525" font-size="12.0">0.10</text><line x1="48.0" y1="63.553529737934525" x2="52.0" y2="63.553529737934525" stroke="rgb(192,192,192)" stroke-width="1"/><polyline points="50.0,281.28012354995667 76.3157894736842,175.2108712302355 102.63157894736841,212.63628579003682 128.94736842105263,142.59421436084597 155.26315789473682,86.73995643747651 181.57894736842104,62.573044150304156 207.89473684210526,62.573044150304156 234.21052631578945,62.573044150304156 260.52631578947364,62.573044150304156 286.8421052631579,62.573044150304156 313.1578947368421,62.573044150304156 339.4736842105263,62.573044150304156 365.7894736842105,62.573044150304156 392.10526315789474,62.573044150304156 418.4210526315789,62.573044150304156 444.7368421052632,62.573044150304156 471.05263157894734,62.573044150304156 497.36842105263156,62.573044150304156 523.6842105263158,62.573044150304156 550.0,62.573044150304156" fill="none" stroke="rgb(255,0,0)" stroke-width="1"/><circle cx="50.0" cy="281.28012354995667" r="2" fill="rgb(255,0,0)"/><circle cx="76.3157894736842" cy="175.2108712302355" r="2" fill="rgb(255,0,0)"/><circle cx="102.63157894736841" cy="212.63628579003682" r="2" fill="rgb(255,0,0)"/><circle cx="128.94736842105263" cy="142.59421436084597" r="2" fill="rgb(255,0,0)"/><circle cx="155.26315789473682" cy="86.73995643747651" r="2" fill="rgb(255,0,0)"/><circle cx="181.57894736842104" cy="62.573044150304156" r="2" fill="rgb(255,0,0)"/><circle cx="207.89473684210526" cy="62.573044150304156" r="2" fill="rgb(255,0,0)"/><circle cx="234.21052631578945" cy="62.573044150304156" r="2" fill="rgb(255,0,0)"/><circle cx="260.52631578947364" cy="62.573044150304156" r="2" fill="rgb(255,0,0)"/><circle cx="286.8421052631579" cy="62.573044150304156" r="2" fill="rgb(255,0,0)"/><circle cx="313.1578947368421" cy="62.573044150304156" r="2" fill="rgb(255,0,0)"/><circle cx="339.4736842105263" cy="62.573044150304156" r="2" fill="rgb(255,0,0)"/><circle cx="365.7894736842105" cy="62.573044150304156" r="2" fill="rgb(255,0,0)"/><circle cx="392.10526315789474" cy="62.573044150304156" r="2" fill="rgb(255,0,0)"/><circle cx="418.4210526315789" cy="62.573044150304156" r="2" fill="rgb(255,0,0)"/><circle cx="444.7368421052632" cy="62.573044150304156" r="2" fill="rgb(255,0,0)"/><circle cx="471.05263157894734" cy="62.573044150304156" r="2" fill="rgb(255,0,0)"/><circle cx="497.36842105263156" cy="62.573044150304156" r="2" fill="rgb(255,0,0)"/><circle cx="523.6842105263158" cy="62.573044150304156" r="2" fill="rgb(255,0,0)"/><circle cx="550.0" cy="62.573044150304156" r="2" fill="rgb(255,0,0)"/><polyline points="50.0,154.1677960347347 76.3157894736842,52.90970333891221 102.63157894736841,200.05912453660926 128.94736842105263,293.4035739904106 155.26315789473682,346.85695518870494 181.57894736842104,371.94102086017483 207.89473684210526,371.94102086017483 234.21052631578945,371.94102086017483 260.52631578947364,371.94102086017483 286.8421052631579,371.94102086017483 313.1578947368421,371.94102086017483 339.4736842105263,371.94102086017483 365.7894736842105,371.94102086017483 392.10526315789474,371.94102086017483 418.4210526315789,371.94102086017483 444.7368421052632,371.94102086017483 471.05263157894734,371.94102086017483 497.36842105263156,371.94102086017483 523.6842105263158,371.94102086017483 550.0,371.94102086017483" fill="none" stroke="rgb(0,0,255)" stroke-width="1"/><circle cx="50.0" cy="154.1677960347347" r="2" fill="rgb(0,0,255)"/><circle cx="76.3157894736842" cy="52.90970333891221" r="2" fill="rgb(0,0,255)"/><circle cx="102.63157894736841" cy="200.05912453660926" r="2" fill="rgb(0,0,255)"/><circle cx="128.94736842105263" cy="293.4035739904106" r="2" fill="rgb(0,0,255)"/><circle cx="155.26315789473682" cy="346.85695518870494" r="2" fill="rgb(0,0,255)"/><circle cx="181.57894736842104" cy="371.94102086017483" r="2" fill="rgb(0,0,255)"/><circle cx="207.89473684210526" cy="371.94102086017483" r="2" fill="rgb(0,0,255)"/><circle cx="234.21052631578945" cy="371.94102086017483" r="2" fill="rgb(0,0,255)"/><circle cx="260.52631578947364" cy="371.94102086017483" r="2" fill="rgb(0,0,255)"/><circle cx="286.8421052631579" cy="371.94102086017483" r="2" fill="rgb(0,0,255)"/><circle cx="313.1578947368421" cy="371.94102086017483" r="2" fill="rgb(0,0,255)"/><circle cx="339.4736842105263" cy="371.94102086017483" r="2" fill="rgb(0,0,255)"/><circle cx="365.7894736842105" cy="371.94102086017483" r="2" fill="rgb(0,0,255)"/><circle cx="392.10526315789474" cy="371.94102086017483" r="2" fill="rgb(0,0,255)"/><circle cx="418.4210526315789" cy="371.94102086017483" r="2" fill="rgb(0,0,255)"/><circle cx="444.7368421052632" cy="371.94102086017483" r="2" fill="rgb(0,0,255)"/><circle cx="471.05263157894734" cy="371.94102086017483" r="2" fill="rgb(0,0,255)"/><circle cx="497.36842105263156" cy="371.94102086017483" r="2" fill="rgb(0,0,255)"/><circle cx="523.6842105263158" cy="371.94102086017483" r="2" fill="rgb(0,0,255)"/><circle cx="550.0" cy="371.94102086017483" r="2" fill="rgb(0,0,255)"/><polyline points="50.0,307.95864791894223 76.3157894736842,50.0 102.63157894736841,252.85508317100056 128.94736842105263,359.8487792359056 155.26315789473682,387.5602715209386 181.57894736842104,375.9542619007942 207.89473684210526,375.9542619007942 234.21052631578945,375.9542619007942 260.52631578947364,375.9542619007942 286.8421052631579,375.9542619007942 313.1578947368421,375.9542619007942 339.4736842105263,375.9542619007942 365.7894736842105,375.9542619007942 392.10526315789474,375.9542619007942 418.4210526315789,375.9542619007942 444.7368421052632,375.9542619007942 471.05263157894734,375.9542619007942 497.36842105263156,375.9542619007942 523.6842105263158,375.9542619007942 550.0,375.9542619007942" fill="none" stroke="rgb(0,255,0)" stroke-width="1"/><circle cx="50.0" cy="307.95864791894223" r="2" fill="rgb(0,255,0)"/><circle cx="76.3157894736842" cy="50.0" r="2" fill="rgb(0,255,0)"/><circle cx="102.63157894736841" cy="252.85508317100056" r="2" fill="rgb(0,255,0)"/><circle cx="128.94736842105263" cy="359.8487792359056" r="2" fill="rgb(0,255,0)"/><circle cx="155.26315789473682" cy="387.5602715209386" r="2" fill="rgb(0,255,0)"/><circle cx="181.57894736842104" cy="375.9542619007942" r="2" fill="rgb(0,255,0)"/><circle cx="207.89473684210526" cy="375.9542619007942" r="2" fill="rgb(0,255,0)"/><circle cx="234.21052631578945" cy="375.9542619007942" r="2" fill="rgb(0,255,0)"/><circle cx="260.52631578947364" cy="375.9542619007942" r="2" fill="rgb(0,255,0)"/><circle cx="286.8421052631579" cy="375.9542619007942" r="2" fill="rgb(0,255,0)"/><circle cx="313.1578947368421" cy="375.9542619007942" r="2" fill="rgb(0,255,0)"/><circle cx="339.4736842105263" cy="375.9542619007942" r="2" fill="rgb(0,255,0)"/><circle cx="365.7894736842105" cy="375.9542619007942" r="2" fill="rgb(0,255,0)"/><circle cx="392.10526315789474" cy="375.9542619007942" r="2" fill="rgb(0,255,0)"/><circle cx="418.4210526315789" cy="375.9542619007942" r="2" fill="rgb(0,255,0)"/><circle cx="444.7368421052632" cy="375.9542619007942" r="2" fill="rgb(0,255,0)"/><circle cx="471.05263157894734" cy="375.9542619007942" r="2" fill="rgb(0,255,0)"/><circle cx="497.36842105263156" cy="375.9542619007942" r="2" fill="rgb(0,255,0)"/><circle cx="523.6842105263158" cy="375.9542619007942" r="2" fill="rgb(0,255,0)"/><circle cx="550.0" cy="375.9542619007942" r="2" fill="rgb(0,255,0)"/><text x="350.0" y="20.0" text-anchor="middle" fill="rgb(0,0,0)" font-size="20.0">KMeans Mean Centroid Distances</text><text x="350.0" y="575.0" text-anchor="middle" fill="rgb(0,0,0)" font-size="12.0">step</text><text transform="rotate(-90.0 20.0 300.0)" x="20.0" y="300.0" text-anchor="middle" fill="rgb(0,0,0)" font-size="12.0">average distance to centroid</text><text x="620" y="62" fill="rgb(255,0,0)" font-size="12">0</text><text x="620" y="74" fill="rgb(0,0,255)" font-size="12">1</text><text x="620" y="86" fill="rgb(0,255,0)" font-size="12">2</text>
      Sorry, your browser does not support inline SVG.
    </svg>