<?xml version='1.0' encoding='UTF-8'?>
<svg version="1.1" width="700.0" height="600.0" onload="init(evt)" xmlns="http://www.w3.org/2000/svg">
      <style>.caption {
  font-size: 14px;
  font-family: Georgia, serif;
}
</style>
      <script type="text/ecmascript"><![CDATA[
function init(evt) {
  if ( window.svgDocument == null ) {
    svgDocument = evt.target.ownerDocument;
  }
}

function RectHover(evt, i, c) {
  rect = svgDocument.getElementById('rect' + i);
  if( c != null ) {
    rect.setAttributeNS(null, "fill", c)  
  }
  tooltiptext = svgDocument.getElementById('tooltiptext' + i);
  tooltipbg = svgDocument.getElementById('tooltipbg' + i);
  if( tooltipbg != null) {
    tbb = tooltiptext.getBBox();
    tooltipbg.setAttributeNS(null, "width", tbb.width);
    tooltipbg.setAttributeNS(null, "height", tbb.height);
    tooltipbg.setAttributeNS(null, "x", tbb.x);
    tooltipbg.setAttributeNS(null, "y", tbb.y);
    tooltipbg.setAttributeNS(null, "visibility", "visible");
  }
  tooltiptext.setAttributeNS(null,"visibility","visible");
}

function RectUnhover(evt, i, c) {
  rect = svgDocument.getElementById('rect' + i);
  if( c != null ) {
    rect.setAttributeNS(null, "fill", c)  
  }
  tooltiptext = svgDocument.getElementById('tooltiptext' + i);
  tooltiptext.setAttributeNS(null,"visibility","hidden");
  tooltipbg = svgDocument.getElementById('tooltipbg' + i);
  if( tooltipbg != null ) {
    tooltipbg.setAttributeNS(null,"visibility","hidden");
  }
}
]]></script>
      <line x1="50.0" y1="550.0" x2="550.0" y2="550.0" stroke="rgb(0,0,0)" stroke-width="1"/><line x1="50.0" y1="550.0" x2="50.0" y2="50.0" stroke="rgb(0,0,0)" stroke-width="1"/><line x1="50.0" y1="550.0" x2="50.0" y2="50.0" stroke="rgb(192,192,192)" stroke-width="1"/><line x1="50.0" y1="548.0" x2="50.0" y2="552.0" stroke="rgb(192,192,192)" stroke-width="1"/><text text-anchor="middle" alignment-baseline="hanging" x="50.0" y="553.0" font-size="12.0">0</text><line x1="313.1578947368421" y1="550.0" x2="313.1578947368421" y2="50.0" stroke="rgb(192,192,192)" stroke-width="1"/><line x1="313.1578947368421" y1="548.0" x2="313.1578947368421" y2="552.0" stroke="rgb(192,192,192)" stroke-width="1"/><text text-anchor="middle" alignment-baseline="hanging" x="313.1578947368421" y="553.0" font-size="12.0">10</text><line x1="50.0" y1="550.0" x2="550.0" y2="550.0" stroke="rgb(192,192,192)" stroke-width="1"/><text text-anchor="end" alignment-baseline="middle" x="45.0" y="550.0" font-size="12.0">0.00</text><line x1="48.0" y1="550.0" x2="52.0" y2="550.0" stroke="rgb(192,192,192)" stroke-width="1"/><line x1="50.0" y1="517.3602333713949" x2="550.0" y2="517.3602333713949" stroke="rgb(192,192,192)" stroke-width="1"/><text text-anchor="end" alignment-baseline="middle" x="45.0" y="517.3602333713949" font-size="12.0">0.01</text><line x1="48.0" y1="517.3602333713949" x2="52.0" y2="517.3602333713949" stroke="rgb(192,192,192)" stroke-width="1"/><line x1="50.0" y1="484.72046674278965" x2="550.0" y2="484.72046674278965" stroke="rgb(192,192,192)" stroke-width="1"/><text text-anchor="end" alignment-baseline="middle" x="45.0" y="484.72046674278965" font-size="12.0">0.02</text><line x1="48.0" y1="484.72046674278965" x2="52.0" y2="484.72046674278965" stroke="rgb(192,192,192)" stroke-width="1"/><line x1="50.0" y1="452.0807001141845" x2="550.0" y2="452.0807001141845" stroke="rgb(192,192,192)" stroke-width="1"/><text text-anchor="end" alignment-baseline="middle" x="45.0" y="452.0807001141845" font-size="12.0">0.03</text><line x1="48.0" y1="452.0807001141845" x2="52.0" y2="452.0807001141845" stroke="rgb(192,192,192)" stroke-width="1"/><line x1="50.0" y1="419.4409334855793" x2="550.0" y2="419.4409334855793" stroke="rgb(192,192,192)" stroke-width="1"/><text text-anchor="end" alignment-baseline="middle" x="45.0" y="419.4409334855793" font-size="12.0">0.04</text><line x1="48.0" y1="419.4409334855793" x2="52.0" y2="419.4409334855793" stroke="rgb(192,192,192)" stroke-width="1"/><line x1="50.0" y1="386.80116685697413" x2="550.0" y2="386.80116685697413" stroke="rgb(192,192,192)" stroke-width="1"/><text text-anchor="end" alignment-baseline="middle" x="45.0" y="386.80116685697413" font-size="12.0">0.05</text><line x1="48.0" y1="386.80116685697413" x2="52.0" y2="386.80116685697413" stroke="rgb(192,192,192)" stroke-width="1"/><line x1="50.0" y1="354.16140022836896" x2="550.0" y2="354.16140022836896" stroke="rgb(192,192,192)" stroke-width="1"/><text text-anchor="end" alignment-baseline="middle" x="45.0" y="354.16140022836896" font-size="12.0">0.06</text><line x1="48.0" y1="354.16140022836896" x2="52.0" y2="354.16140022836896" stroke="rgb(192,192,192)" stroke-width="1"/><line x1="50.0" y1="321.5216335997638" x2="550.0" y2="321.5216335997638" stroke="rgb(192,192,192)" stroke-width="1"/><text text-anchor="end" alignment-baseline="middle" x="45.0" y="321.5216335997638" font-size="12.0">0.07</text><line x1="48.0" y1="321.5216335997638" x2="52.0" y2="321.5216335997638" stroke="rgb(192,192,192)" stroke-width="1"/><line x1="50.0" y1="288.8818669711587" x2="550.0" y2="288.8818669711587" stroke="rgb(192,192,192)" stroke-width="1"/><text text-anchor="end" alignment-baseline="middle" x="45.0" y="288.8818669711587" font-size="12.0">0.08</text><line x1="48.0" y1="288.8818669711587" x2="52.0" y2="288.8818669711587" stroke="rgb(192,192,192)" stroke-width="1"/><line x1="50.0" y1="256.24210034255344" x2="550.0" y2="256.24210034255344" stroke="rgb(192,192,192)" stroke-width="1"/><text text-anchor="end" alignment-baseline="middle" x="45.0" y="256.24210034255344" font-size="12.0">0.09</text><line x1="48.0" y1="256.24210034255344" x2="52.0" y2="256.24210034255344" stroke="rgb(192,192,192)" stroke-width="1"/><line x1="50.0" y1="223.60233371394827" x2="550.0" y2="223.60233371394827" stroke="rgb(192,192,192)" stroke-width="1"/><text text-anchor="end" alignment-baseline="middle" x="45.0" y="223.60233371394827" font-size="12.0">0.10</text><line x1="48.0" y1="223.60233371394827" x2="52.0" y2="223.60233371394827" stroke="rgb(192,192,192)" stroke-width="1"/><line x1="50.0" y1="190.9625670853431" x2="550.0" y2="190.9625670853431" stroke="rgb(192,192,192)" stroke-width="1"/><text text-anchor="end" alignment-baseline="middle" x="45.0" y="190.9625670853431" font-size="12.0">0.11</text><line x1="48.0" y1="190.9625670853431" x2="52.0" y2="190.9625670853431" stroke="rgb(192,192,192)" stroke-width="1"/><line x1="50.0" y1="158.32280045673798" x2="550.0" y2="158.32280045673798" stroke="rgb(192,192,192)" stroke-width="1"/><text text-anchor="end" alignment-baseline="middle" x="45.0" y="158.32280045673798" font-size="12.0">0.12</text><line x1="48.0" y1="158.32280045673798" x2="52.0" y2="158.32280045673798" stroke="rgb(192,192,192)" stroke-width="1"/><line x1="50.0" y1="125.6830338281328" x2="550.0" y2="125.6830338281328" stroke="rgb(192,192,192)" stroke-width="1"/><text text-anchor="end" alignment-baseline="middle" x="45.0" y="125.6830338281328" font-size="12.0">0.13</text><line x1="48.0" y1="125.6830338281328" x2="52.0" y2="125.6830338281328" stroke="rgb(192,192,192)" stroke-width="1"/><line x1="50.0" y1="93.04326719952758" x2="550.0" y2="93.04326719952758" stroke="rgb(192,192,192)" stroke-width="1"/><text text-anchor="end" alignment-baseline="middle" x="45.0" y="93.04326719952758" font-size="12.0">0.14</text><line x1="48.0" y1="93.04326719952758" x2="52.0" y2="93.04326719952758" stroke="rgb(192,192,192)" stroke-width="1"/><line x1="50.0" y1="60.40350057092246" x2="550.0" y2="60.40350057092246" stroke="rgb(192,192,192)" stroke-width="1"/><text text-anchor="end" alignment-baseline="middle" x="45.0" y="60.40350057092246" font-size="12.0">0.15</text><line x1="48.0" y1="60.40350057092246" x2="52.0" y2="60.40350057092246" stroke="rgb(192,192,192)" stroke-width="1"/><polyline points="50.0,57.76683325067012 76.3157894736842,176.05597528419003 102.63157894736841,262.15404591556273 128.94736842105263,400.60312164915274 155.26315789473682,485.37502957382094 181.57894736842104,484.7569725590757 207.89473684210526,481.28530970751075 234.21052631578945,485.77890106007396 260.52631578947364,485.77890106007396 286.8421052631579,485.77890106007396 313.1578947368421,485.77890106007396 339.4736842105263,485.77890106007396 365.7894736842105,485.77890106007396 392.10526315789474,485.77890106007396 418.4210526315789,485.77890106007396 444.7368421052632,485.77890106007396 471.05263157894734,485.77890106007396 497.36842105263156,485.77890106007396 523.6842105263158,485.77890106007396 550.0,485.77890106007396" fill="none" stroke="rgb(255,0,0)" stroke-width="1"/><circle cx="50.0" cy="57.76683325067012" r="2" fill="rgb(255,0,0)"/><circle cx="76.3157894736842" cy="176.05597528419003" r="2" fill="rgb(255,0,0)"/><circle cx="102.63157894736841" cy="262.15404591556273" r="2" fill="rgb(255,0,0)"/><circle cx="128.94736842105263" cy="400.60312164915274" r="2" fill="rgb(255,0,0)"/><circle cx="155.26315789473682" cy="485.37502957382094" r="2" fill="rgb(255,0,0)"/><circle cx="181.57894736842104" cy="484.7569725590757" r="2" fill="rgb(255,0,0)"/><circle cx="207.89473684210526" cy="481.28530970751075" r="2" fill="rgb(255,0,0)"/><circle cx="234.21052631578945" cy="485.77890106007396" r="2" fill="rgb(255,0,0)"/><circle cx="260.52631578947364" cy="485.77890106007396" r="2" fill="rgb(255,0,0)"/><circle cx="286.8421052631579" cy="485.77890106007396" r="2" fill="rgb(255,0,0)"/><circle cx="313.1578947368421" cy="485.77890106007396" r="2" fill="rgb(255,0,0)"/><circle cx="339.4736842105263" cy="485.77890106007396" r="2" fill="rgb(255,0,0)"/><circle cx="365.7894736842105" cy="485.77890106007396" r="2" fill="rgb(255,0,0)"/><circle cx="392.10526315789474" cy="485.77890106007396" r="2" fill="rgb(255,0,0)"/><circle cx="418.4210526315789" cy="485.77890106007396" r="2" fill="rgb(255,0,0)"/><circle cx="444.7368421052632" cy="485.77890106007396" r="2" fill="rgb(255,0,0)"/><circle cx="471.05263157894734" cy="485.77890106007396" r="2" fill="rgb(255,0,0)"/><circle cx="497.36842105263156" cy="485.77890106007396" r="2" fill="rgb(255,0,0)"/><circle cx="523.6842105263158" cy="485.77890106007396" r="2" fill="rgb(255,0,0)"/><circle cx="550.0" cy="485.77890106007396" r="2" fill="rgb(255,0,0)"/><polyline points="50.0,230.32996516980074 76.3157894736842,82.62420196524442 102.63157894736841,104.67950594242654 128.94736842105263,131.9092380522497 155.26315789473682,167.06269364386088 181.57894736842104,168.1470705228415 207.89473684210526,169.00452779059987 234.21052631578945,161.89435339476933 260.52631578947364,161.89435339476933 286.8421052631579,161.89435339476933 313.1578947368421,161.89435339476933 339.4736842105263,161.89435339476933 365.7894736842105,161.89435339476933 392.10526315789474,161.89435339476933 418.4210526315789,161.89435339476933 444.7368421052632,161.89435339476933 471.05263157894734,161.89435339476933 497.36842105263156,161.89435339476933 523.6842105263158,161.89435339476933 550.0,161.89435339476933" fill="none" stroke="rgb(0,0,255)" stroke-width="1"/><circle cx="50.0" cy="230.32996516980074" r="2" fill="rgb(0,0,255)"/><circle cx="76.3157894736842" cy="82.62420196524442" r="2" fill="rgb(0,0,255)"/><circle cx="102.63157894736841" cy="104.67950594242654" r="2" fill="rgb(0,0,255)"/><circle cx="128.94736842105263" cy="131.9092380522497" r="2" fill="rgb(0,0,255)"/><circle cx="155.26315789473682" cy="167.06269364386088" r="2" fill="rgb(0,0,255)"/><circle cx="181.57894736842104" cy="168.1470705228415" r="2" fill="rgb(0,0,255)"/><circle cx="207.89473684210526" cy="169.00452779059987" r="2" fill="rgb(0,0,255)"/><circle cx="234.21052631578945" cy="161.89435339476933" r="2" fill="rgb(0,0,255)"/><circle cx="260.52631578947364" cy="161.89435339476933" r="2" fill="rgb(0,0,255)"/><circle cx="286.8421052631579" cy="161.89435339476933" r="2" fill="rgb(0,0,255)"/><circle cx="313.1578947368421" cy="161.89435339476933" r="2" fill="rgb(0,0,255)"/><circle cx="339.4736842105263" cy="161.89435339476933" r="2" fill="rgb(0,0,255)"/><circle cx="365.7894736842105" cy="161.89435339476933" r="2" fill="rgb(0,0,255)"/><circle cx="392.10526315789474" cy="161.89435339476933" r="2" fill="rgb(0,0,255)"/><circle cx="418.4210526315789" cy="161.89435339476933" r="2" fill="rgb(0,0,255)"/><circle cx="444.7368421052632" cy="161.89435339476933" r="2" fill="rgb(0,0,255)"/><circle cx="471.05263157894734" cy="161.89435339476933" r="2" fill="rgb(0,0,255)"/><circle cx="497.36842105263156" cy="161.89435339476933" r="2" fill="rgb(0,0,255)"/><circle cx="523.6842105263158" cy="161.89435339476933" r="2" fill="rgb(0,0,255)"/><circle cx="550.0" cy="161.89435339476933" r="2" fill="rgb(0,0,255)"/><polyline points="50.0,103.51420560854308 76.3157894736842,50.0 102.63157894736841,104.87540478013551 128.94736842105263,190.95295040984087 155.26315789473682,280.1614861054766 181.57894736842104,294.51234402927525 207.89473684210526,299.33586307944523 234.21052631578945,295.09125635191594 260.52631578947364,295.09125635191594 286.8421052631579,295.09125635191594 313.1578947368421,295.09125635191594 339.4736842105263,295.09125635191594 365.7894736842105,295.09125635191594 392.10526315789474,295.09125635191594 418.4210526315789,295.09125635191594 444.7368421052632,295.09125635191594 471.05263157894734,295.09125635191594 497.36842105263156,295.09125635191594 523.6842105263158,295.09125635191594 550.0,295.09125635191594" fill="none" stroke="rgb(0,255,0)" stroke-width="1"/><circle cx="50.0" cy="103.51420560854308" r="2" fill="rgb(0,255,0)"/><circle cx="76.3157894736842" cy="50.0" r="2" fill="rgb(0,255,0)"/><circle cx="102.63157894736841" cy="104.87540478013551" r="2" fill="rgb(0,255,0)"/><circle cx="128.94736842105263" cy="190.95295040984087" r="2" fill="rgb(0,255,0)"/><circle cx="155.26315789473682" cy="280.1614861054766" r="2" fill="rgb(0,255,0)"/><circle cx="181.57894736842104" cy="294.51234402927525" r="2" fill="rgb(0,255,0)"/><circle cx="207.89473684210526" cy="299.33586307944523" r="2" fill="rgb(0,255,0)"/><circle cx="234.21052631578945" cy="295.09125635191594" r="2" fill="rgb(0,255,0)"/><circle cx="260.52631578947364" cy="295.09125635191594" r="2" fill="rgb(0,255,0)"/><circle cx="286.8421052631579" cy="295.09125635191594" r="2" fill="rgb(0,255,0)"/><circle cx="313.1578947368421" cy="295.09125635191594" r="2" fill="rgb(0,255,0)"/><circle cx="339.4736842105263" cy="295.09125635191594" r="2" fill="rgb(0,255,0)"/><circle cx="365.7894736842105" cy="295.09125635191594" r="2" fill="rgb(0,255,0)"/><circle cx="392.10526315789474" cy="295.09125635191594" r="2" fill="rgb(0,255,0)"/><circle cx="418.4210526315789" cy="295.09125635191594" r="2" fill="rgb(0,255,0)"/><circle cx="444.7368421052632" cy="295.09125635191594" r="2" fill="rgb(0,255,0)"/><circle cx="471.05263157894734" cy="295.09125635191594" r="2" fill="rgb(0,255,0)"/><circle cx="497.36842105263156" cy="295.09125635191594" r="2" fill="rgb(0,255,0)"/><circle cx="523.6842105263158" cy="295.09125635191594" r="2" fill="rgb(0,255,0)"/><circle cx="550.0" cy="295.09125635191594" r="2" fill="rgb(0,255,0)"/><text x="350.0" y="20.0" text-anchor="middle" fill="rgb(0,0,0)" font-size="20.0">KMeans Mean Centroid Distances</text><text x="350.0" y="575.0" text-anchor="middle" fill="rgb(0,0,0)" font-size="12.0">step</text><text transform="rotate(-90.0 20.0 300.0)" x="20.0" y="300.0" text-anchor="middle" fill="rgb(0,0,0)" font-size="12.0">average distance to centroid</text><text x="620" y="62" fill="rgb(255,0,0)" font-size="12">0</text><text x="620" y="74" fill="rgb(0,0,255)" font-size="12">1</text><text x="620" y="86" fill="rgb(0,255,0)" font-size="12">2</text>
      Sorry, your browser does not support inline SVG.
    </svg>