<?xml version='1.0' encoding='UTF-8'?>
<svg version="1.1" width="700.0" height="600.0" onload="init(evt)" xmlns="http://www.w3.org/2000/svg">
      <style>.caption {
  font-size: 14px;
  font-family: Georgia, serif;
}
</style>
      <script type="text/ecmascript"><![CDATA[
function init(evt) {
  if ( window.svgDocument == null ) {
    svgDocument = evt.target.ownerDocument;
  }
}

function RectHover(evt, i, c) {
  rect = svgDocument.getElementById('rect' + i);
  if( c != null ) {
    rect.setAttributeNS(null, "fill", c)  
  }
  tooltiptext = svgDocument.getElementById('tooltiptext' + i);
  tooltipbg = svgDocument.getElementById('tooltipbg' + i);
  if( tooltipbg != null) {
    tbb = tooltiptext.getBBox();
    tooltipbg.setAttributeNS(null, "width", tbb.width);
    tooltipbg.setAttributeNS(null, "height", tbb.height);
    tooltipbg.setAttributeNS(null, "x", tbb.x);
    tooltipbg.setAttributeNS(null, "y", tbb.y);
    tooltipbg.setAttributeNS(null, "visibility", "visible");
  }
  tooltiptext.setAttributeNS(null,"visibility","visible");
}

function RectUnhover(evt, i, c) {
  rect = svgDocument.getElementById('rect' + i);
  if( c != null ) {
    rect.setAttributeNS(null, "fill", c)  
  }
  tooltiptext = svgDocument.getElementById('tooltiptext' + i);
  tooltiptext.setAttributeNS(null,"visibility","hidden");
  tooltipbg = svgDocument.getElementById('tooltipbg' + i);
  if( tooltipbg != null ) {
    tooltipbg.setAttributeNS(null,"visibility","hidden");
  }
}
]]></script>
      <line x1="50.0" y1="550.0" x2="550.0" y2="550.0" stroke="rgb(0,0,0)" stroke-width="1"/><line x1="50.0" y1="550.0" x2="50.0" y2="50.0" stroke="rgb(0,0,0)" stroke-width="1"/><line x1="50.0" y1="550.0" x2="50.0" y2="50.0" stroke="rgb(192,192,192)" stroke-width="1"/><line x1="50.0" y1="548.0" x2="50.0" y2="552.0" stroke="rgb(192,192,192)" stroke-width="1"/><text text-anchor="middle" alignment-baseline="hanging" x="50.0" y="553.0" font-size="12.0">0</text><line x1="313.1578947368421" y1="550.0" x2="313.1578947368421" y2="50.0" stroke="rgb(192,192,192)" stroke-width="1"/><line x1="313.1578947368421" y1="548.0" x2="313.1578947368421" y2="552.0" stroke="rgb(192,192,192)" stroke-width="1"/><text text-anchor="middle" alignment-baseline="hanging" x="313.1578947368421" y="553.0" font-size="12.0">10</text><line x1="50.0" y1="550.0" x2="550.0" y2="550.0" stroke="rgb(192,192,192)" stroke-width="1"/><text text-anchor="end" alignment-baseline="middle" x="45.0" y="550.0" font-size="12.0">0.00</text><line x1="48.0" y1="550.0" x2="52.0" y2="550.0" stroke="rgb(192,192,192)" stroke-width="1"/><line x1="50.0" y1="510.8577619865763" x2="550.0" y2="510.8577619865763" stroke="rgb(192,192,192)" stroke-width="1"/><text text-anchor="end" alignment-baseline="middle" x="45.0" y="510.8577619865763" font-size="12.0">0.01</text><line x1="48.0" y1="510.8577619865763" x2="52.0" y2="510.8577619865763" stroke="rgb(192,192,192)" stroke-width="1"/><line x1="50.0" y1="471.7155239731526" x2="550.0" y2="471.7155239731526" stroke="rgb(192,192,192)" stroke-width="1"/><text text-anchor="end" alignment-baseline="middle" x="45.0" y="471.7155239731526" font-size="12.0">0.02</text><line x1="48.0" y1="471.7155239731526" x2="52.0" y2="471.7155239731526" stroke="rgb(192,192,192)" stroke-width="1"/><line x1="50.0" y1="432.5732859597288" x2="550.0" y2="432.5732859597288" stroke="rgb(192,192,192)" stroke-width="1"/><text text-anchor="end" alignment-baseline="middle" x="45.0" y="432.5732859597288" font-size="12.0">0.03</text><line x1="48.0" y1="432.5732859597288" x2="52.0" y2="432.5732859597288" stroke="rgb(192,192,192)" stroke-width="1"/><line x1="50.0" y1="393.4310479463051" x2="550.0" y2="393.4310479463051" stroke="rgb(192,192,192)" stroke-width="1"/><text text-anchor="end" alignment-baseline="middle" x="45.0" y="393.4310479463051" font-size="12.0">0.04</text><line x1="48.0" y1="393.4310479463051" x2="52.0" y2="393.4310479463051" stroke="rgb(192,192,192)" stroke-width="1"/><line x1="50.0" y1="354.28880993288135" x2="550.0" y2="354.28880993288135" stroke="rgb(192,192,192)" stroke-width="1"/><text text-anchor="end" alignment-baseline="middle" x="45.0" y="354.28880993288135" font-size="12.0">0.05</text><line x1="48.0" y1="354.28880993288135" x2="52.0" y2="354.28880993288135" stroke="rgb(192,192,192)" stroke-width="1"/><line x1="50.0" y1="315.14657191945764" x2="550.0" y2="315.14657191945764" stroke="rgb(192,192,192)" stroke-width="1"/><text text-anchor="end" alignment-baseline="middle" x="45.0" y="315.14657191945764" font-size="12.0">0.06</text><line x1="48.0" y1="315.14657191945764" x2="52.0" y2="315.14657191945764" stroke="rgb(192,192,192)" stroke-width="1"/><line x1="50.0" y1="276.00433390603393" x2="550.0" y2="276.00433390603393" stroke="rgb(192,192,192)" stroke-width="1"/><text text-anchor="end" alignment-baseline="middle" x="45.0" y="276.00433390603393" font-size="12.0">0.07</text><line x1="48.0" y1="276.00433390603393" x2="52.0" y2="276.00433390603393" stroke="rgb(192,192,192)" stroke-width="1"/><line x1="50.0" y1="236.86209589261023" x2="550.0" y2="236.86209589261023" stroke="rgb(192,192,192)" stroke-width="1"/><text text-anchor="end" alignment-baseline="middle" x="45.0" y="236.86209589261023" font-size="12.0">0.08</text><line x1="48.0" y1="236.86209589261023" x2="52.0" y2="236.86209589261023" stroke="rgb(192,192,192)" stroke-width="1"/><line x1="50.0" y1="197.71985787918652" x2="550.0" y2="197.71985787918652" stroke="rgb(192,192,192)" stroke-width="1"/><text text-anchor="end" alignment-baseline="middle" x="45.0" y="197.71985787918652" font-size="12.0">0.09</text><line x1="48.0" y1="197.71985787918652" x2="52.0" y2="197.71985787918652" stroke="rgb(192,192,192)" stroke-width="1"/><line x1="50.0" y1="158.57761986576276" x2="550.0" y2="158.57761986576276" stroke="rgb(192,192,192)" stroke-width="1"/><text text-anchor="end" alignment-baseline="middle" x="45.0" y="158.57761986576276" font-size="12.0">0.10</text><line x1="48.0" y1="158.57761986576276" x2="52.0" y2="158.57761986576276" stroke="rgb(192,192,192)" stroke-width="1"/><line x1="50.0" y1="119.43538185233905" x2="550.0" y2="119.43538185233905" stroke="rgb(192,192,192)" stroke-width="1"/><text text-anchor="end" alignment-baseline="middle" x="45.0" y="119.43538185233905" font-size="12.0">0.11</text><line x1="48.0" y1="119.43538185233905" x2="52.0" y2="119.43538185233905" stroke="rgb(192,192,192)" stroke-width="1"/><line x1="50.0" y1="80.29314383891534" x2="550.0" y2="80.29314383891534" stroke="rgb(192,192,192)" stroke-width="1"/><text text-anchor="end" alignment-baseline="middle" x="45.0" y="80.29314383891534" font-size="12.0">0.12</text><line x1="48.0" y1="80.29314383891534" x2="52.0" y2="80.29314383891534" stroke="rgb(192,192,192)" stroke-width="1"/><polyline points="50.0,355.23981997148223 76.3157894736842,448.9762547201461 102.63157894736841,477.5840082334441 128.94736842105263,477.5840082334441 155.26315789473682,477.5840082334441 181.57894736842104,477.5840082334441 207.89473684210526,477.5840082334441 234.21052631578945,477.5840082334441 260.52631578947364,477.5840082334441 286.8421052631579,477.5840082334441 313.1578947368421,477.5840082334441 339.4736842105263,477.5840082334441 365.7894736842105,477.5840082334441 392.10526315789474,477.5840082334441 418.4210526315789,477.5840082334441 444.7368421052632,477.5840082334441 471.05263157894734,477.5840082334441 497.36842105263156,477.5840082334441 523.6842105263158,477.5840082334441 550.0,477.5840082334441" fill="none" stroke="rgb(255,0,0)" stroke-width="1"/><circle cx="50.0" cy="355.23981997148223" r="2" fill="rgb(255,0,0)"/><circle cx="76.3157894736842" cy="448.9762547201461" r="2" fill="rgb(255,0,0)"/><circle cx="102.63157894736841" cy="477.5840082334441" r="2" fill="rgb(255,0,0)"/><circle cx="128.94736842105263" cy="477.5840082334441" r="2" fill="rgb(255,0,0)"/><circle cx="155.26315789473682" cy="477.5840082334441" r="2" fill="rgb(255,0,0)"/><circle cx="181.57894736842104" cy="477.5840082334441" r="2" fill="rgb(255,0,0)"/><circle cx="207.89473684210526" cy="477.5840082334441" r="2" fill="rgb(255,0,0)"/><circle cx="234.21052631578945" cy="477.5840082334441" r="2" fill="rgb(255,0,0)"/><circle cx="260.52631578947364" cy="477.5840082334441" r="2" fill="rgb(255,0,0)"/><circle cx="286.8421052631579" cy="477.5840082334441" r="2" fill="rgb(255,0,0)"/><circle cx="313.1578947368421" cy="477.5840082334441" r="2" fill="rgb(255,0,0)"/><circle cx="339.4736842105263" cy="477.5840082334441" r="2" fill="rgb(255,0,0)"/><circle cx="365.7894736842105" cy="477.5840082334441" r="2" fill="rgb(255,0,0)"/><circle cx="392.10526315789474" cy="477.5840082334441" r="2" fill="rgb(255,0,0)"/><circle cx="418.4210526315789" cy="477.5840082334441" r="2" fill="rgb(255,0,0)"/><circle cx="444.7368421052632" cy="477.5840082334441" r="2" fill="rgb(255,0,0)"/><circle cx="471.05263157894734" cy="477.5840082334441" r="2" fill="rgb(255,0,0)"/><circle cx="497.36842105263156" cy="477.5840082334441" r="2" fill="rgb(255,0,0)"/><circle cx="523.6842105263158" cy="477.5840082334441" r="2" fill="rgb(255,0,0)"/><circle cx="550.0" cy="477.5840082334441" r="2" fill="rgb(255,0,0)"/><polyline points="50.0,50.0 76.3157894736842,112.4203231748184 102.63157894736841,87.09179502535659 128.94736842105263,87.09179502535659 155.26315789473682,87.09179502535659 181.57894736842104,87.09179502535659 207.89473684210526,87.09179502535659 234.21052631578945,87.09179502535659 260.52631578947364,87.09179502535659 286.8421052631579,87.09179502535659 313.1578947368421,87.09179502535659 339.4736842105263,87.09179502535659 365.7894736842105,87.09179502535659 392.10526315789474,87.09179502535659 418.4210526315789,87.09179502535659 444.7368421052632,87.09179502535659 471.05263157894734,87.09179502535659 497.36842105263156,87.09179502535659 523.6842105263158,87.09179502535659 550.0,87.09179502535659" fill="none" stroke="rgb(0,0,255)" stroke-width="1"/><circle cx="50.0" cy="50.0" r="2" fill="rgb(0,0,255)"/><circle cx="76.3157894736842" cy="112.4203231748184" r="2" fill="rgb(0,0,255)"/><circle cx="102.63157894736841" cy="87.09179502535659" r="2" fill="rgb(0,0,255)"/><circle cx="128.94736842105263" cy="87.09179502535659" r="2" fill="rgb(0,0,255)"/><circle cx="155.26315789473682" cy="87.09179502535659" r="2" fill="rgb(0,0,255)"/><circle cx="181.57894736842104" cy="87.09179502535659" r="2" fill="rgb(0,0,255)"/><circle cx="207.89473684210526" cy="87.09179502535659" r="2" fill="rgb(0,0,255)"/><circle cx="234.21052631578945" cy="87.09179502535659" r="2" fill="rgb(0,0,255)"/><circle cx="260.52631578947364" cy="87.09179502535659" r="2" fill="rgb(0,0,255)"/><circle cx="286.8421052631579" cy="87.09179502535659" r="2" fill="rgb(0,0,255)"/><circle cx="313.1578947368421" cy="87.09179502535659" r="2" fill="rgb(0,0,255)"/><circle cx="339.4736842105263" cy="87.09179502535659" r="2" fill="rgb(0,0,255)"/><circle cx="365.7894736842105" cy="87.09179502535659" r="2" fill="rgb(0,0,255)"/><circle cx="392.10526315789474" cy="87.09179502535659" r="2" fill="rgb(0,0,255)"/><circle cx="418.4210526315789" cy="87.09179502535659" r="2" fill="rgb(0,0,255)"/><circle cx="444.7368421052632" cy="87.09179502535659" r="2" fill="rgb(0,0,255)"/><circle cx="471.05263157894734" cy="87.09179502535659" r="2" fill="rgb(0,0,255)"/><circle cx="497.36842105263156" cy="87.09179502535659" r="2" fill="rgb(0,0,255)"/><circle cx="523.6842105263158" cy="87.09179502535659" r="2" fill="rgb(0,0,255)"/><circle cx="550.0" cy="87.09179502535659" r="2" fill="rgb(0,0,255)"/><polyline points="50.0,113.2899451992725 76.3157894736842,240.28404564916502 102.63157894736841,237.0769758387856 128.94736842105263,237.0769758387856 155.26315789473682,237.0769758387856 181.57894736842104,237.0769758387856 207.89473684210526,237.0769758387856 234.21052631578945,237.0769758387856 260.52631578947364,237.0769758387856 286.8421052631579,237.0769758387856 313.1578947368421,237.0769758387856 339.4736842105263,237.0769758387856 365.7894736842105,237.0769758387856 392.10526315789474,237.0769758387856 418.4210526315789,237.0769758387856 444.7368421052632,237.0769758387856 471.05263157894734,237.0769758387856 497.36842105263156,237.0769758387856 523.6842105263158,237.0769758387856 550.0,237.0769758387856" fill="none" stroke="rgb(0,255,0)" stroke-width="1"/><circle cx="50.0" cy="113.2899451992725" r="2" fill="rgb(0,255,0)"/><circle cx="76.3157894736842" cy="240.28404564916502" r="2" fill="rgb(0,255,0)"/><circle cx="102.63157894736841" cy="237.0769758387856" r="2" fill="rgb(0,255,0)"/><circle cx="128.94736842105263" cy="237.0769758387856" r="2" fill="rgb(0,255,0)"/><circle cx="155.26315789473682" cy="237.0769758387856" r="2" fill="rgb(0,255,0)"/><circle cx="181.57894736842104" cy="237.0769758387856" r="2" fill="rgb(0,255,0)"/><circle cx="207.89473684210526" cy="237.0769758387856" r="2" fill="rgb(0,255,0)"/><circle cx="234.21052631578945" cy="237.0769758387856" r="2" fill="rgb(0,255,0)"/><circle cx="260.52631578947364" cy="237.0769758387856" r="2" fill="rgb(0,255,0)"/><circle cx="286.8421052631579" cy="237.0769758387856" r="2" fill="rgb(0,255,0)"/><circle cx="313.1578947368421" cy="237.0769758387856" r="2" fill="rgb(0,255,0)"/><circle cx="339.4736842105263" cy="237.0769758387856" r="2" fill="rgb(0,255,0)"/><circle cx="365.7894736842105" cy="237.0769758387856" r="2" fill="rgb(0,255,0)"/><circle cx="392.10526315789474" cy="237.0769758387856" r="2" fill="rgb(0,255,0)"/><circle cx="418.4210526315789" cy="237.0769758387856" r="2" fill="rgb(0,255,0)"/><circle cx="444.7368421052632" cy="237.0769758387856" r="2" fill="rgb(0,255,0)"/><circle cx="471.05263157894734" cy="237.0769758387856" r="2" fill="rgb(0,255,0)"/><circle cx="497.36842105263156" cy="237.0769758387856" r="2" fill="rgb(0,255,0)"/><circle cx="523.6842105263158" cy="237.0769758387856" r="2" fill="rgb(0,255,0)"/><circle cx="550.0" cy="237.0769758387856" r="2" fill="rgb(0,255,0)"/><text x="350.0" y="20.0" text-anchor="middle" fill="rgb(0,0,0)" font-size="20.0">KMeans Mean Centroid Distances</text><text x="350.0" y="575.0" text-anchor="middle" fill="rgb(0,0,0)" font-size="12.0">step</text><text transform="rotate(-90.0 20.0 300.0)" x="20.0" y="300.0" text-anchor="middle" fill="rgb(0,0,0)" font-size="12.0">average distance to centroid</text><text x="620" y="62" fill="rgb(255,0,0)" font-size="12">0</text><text x="620" y="74" fill="rgb(0,0,255)" font-size="12">1</text><text x="620" y="86" fill="rgb(0,255,0)" font-size="12">2</text>
      Sorry, your browser does not support inline SVG.
    </svg>