<?xml version='1.0' encoding='UTF-8'?>
<svg version="1.1" width="700.0" height="600.0" onload="init(evt)" xmlns="http://www.w3.org/2000/svg">
      <style>.caption {
  font-size: 14px;
  font-family: Georgia, serif;
}
</style>
      <script type="text/ecmascript"><![CDATA[
function init(evt) {
  if ( window.svgDocument == null ) {
    svgDocument = evt.target.ownerDocument;
  }
}

function RectHover(evt, i, c) {
  rect = svgDocument.getElementById('rect' + i);
  if( c != null ) {
    rect.setAttributeNS(null, "fill", c)  
  }
  tooltiptext = svgDocument.getElementById('tooltiptext' + i);
  tooltipbg = svgDocument.getElementById('tooltipbg' + i);
  if( tooltipbg != null) {
    tbb = tooltiptext.getBBox();
    tooltipbg.setAttributeNS(null, "width", tbb.width);
    tooltipbg.setAttributeNS(null, "height", tbb.height);
    tooltipbg.setAttributeNS(null, "x", tbb.x);
    tooltipbg.setAttributeNS(null, "y", tbb.y);
    tooltipbg.setAttributeNS(null, "visibility", "visible");
  }
  tooltiptext.setAttributeNS(null,"visibility","visible");
}

function RectUnhover(evt, i, c) {
  rect = svgDocument.getElementById('rect' + i);
  if( c != null ) {
    rect.setAttributeNS(null, "fill", c)  
  }
  tooltiptext = svgDocument.getElementById('tooltiptext' + i);
  tooltiptext.setAttributeNS(null,"visibility","hidden");
  tooltipbg = svgDocument.getElementById('tooltipbg' + i);
  if( tooltipbg != null ) {
    tooltipbg.setAttributeNS(null,"visibility","hidden");
  }
}
]]></script>
      <line x1="50.0" y1="550.0" x2="550.0" y2="550.0" stroke="rgb(0,0,0)" stroke-width="1"/><line x1="50.0" y1="550.0" x2="50.0" y2="50.0" stroke="rgb(0,0,0)" stroke-width="1"/><line x1="50.0" y1="550.0" x2="50.0" y2="50.0" stroke="rgb(192,192,192)" stroke-width="1"/><line x1="50.0" y1="548.0" x2="50.0" y2="552.0" stroke="rgb(192,192,192)" stroke-width="1"/><text text-anchor="middle" alignment-baseline="hanging" x="50.0" y="553.0" font-size="12.0">0</text><line x1="313.1578947368421" y1="550.0" x2="313.1578947368421" y2="50.0" stroke="rgb(192,192,192)" stroke-width="1"/><line x1="313.1578947368421" y1="548.0" x2="313.1578947368421" y2="552.0" stroke="rgb(192,192,192)" stroke-width="1"/><text text-anchor="middle" alignment-baseline="hanging" x="313.1578947368421" y="553.0" font-size="12.0">10</text><line x1="50.0" y1="550.0" x2="550.0" y2="550.0" stroke="rgb(192,192,192)" stroke-width="1"/><text text-anchor="end" alignment-baseline="middle" x="45.0" y="550.0" font-size="12.0">0.00</text><line x1="48.0" y1="550.0" x2="52.0" y2="550.0" stroke="rgb(192,192,192)" stroke-width="1"/><line x1="50.0" y1="508.0178954831426" x2="550.0" y2="508.0178954831426" stroke="rgb(192,192,192)" stroke-width="1"/><text text-anchor="end" alignment-baseline="middle" x="45.0" y="508.0178954831426" font-size="12.0">0.01</text><line x1="48.0" y1="508.0178954831426" x2="52.0" y2="508.0178954831426" stroke="rgb(192,192,192)" stroke-width="1"/><line x1="50.0" y1="466.03579096628516" x2="550.0" y2="466.03579096628516" stroke="rgb(192,192,192)" stroke-width="1"/><text text-anchor="end" alignment-baseline="middle" x="45.0" y="466.03579096628516" font-size="12.0">0.02</text><line x1="48.0" y1="466.03579096628516" x2="52.0" y2="466.03579096628516" stroke="rgb(192,192,192)" stroke-width="1"/><line x1="50.0" y1="424.0536864494278" x2="550.0" y2="424.0536864494278" stroke="rgb(192,192,192)" stroke-width="1"/><text text-anchor="end" alignment-baseline="middle" x="45.0" y="424.0536864494278" font-size="12.0">0.03</text><line x1="48.0" y1="424.0536864494278" x2="52.0" y2="424.0536864494278" stroke="rgb(192,192,192)" stroke-width="1"/><line x1="50.0" y1="382.0715819325703" x2="550.0" y2="382.0715819325703" stroke="rgb(192,192,192)" stroke-width="1"/><text text-anchor="end" alignment-baseline="middle" x="45.0" y="382.0715819325703" font-size="12.0">0.04</text><line x1="48.0" y1="382.0715819325703" x2="52.0" y2="382.0715819325703" stroke="rgb(192,192,192)" stroke-width="1"/><line x1="50.0" y1="340.08947741571296" x2="550.0" y2="340.08947741571296" stroke="rgb(192,192,192)" stroke-width="1"/><text text-anchor="end" alignment-baseline="middle" x="45.0" y="340.08947741571296" font-size="12.0">0.05</text><line x1="48.0" y1="340.08947741571296" x2="52.0" y2="340.08947741571296" stroke="rgb(192,192,192)" stroke-width="1"/><line x1="50.0" y1="298.10737289885554" x2="550.0" y2="298.10737289885554" stroke="rgb(192,192,192)" stroke-width="1"/><text text-anchor="end" alignment-baseline="middle" x="45.0" y="298.10737289885554" font-size="12.0">0.06</text><line x1="48.0" y1="298.10737289885554" x2="52.0" y2="298.10737289885554" stroke="rgb(192,192,192)" stroke-width="1"/><line x1="50.0" y1="256.12526838199807" x2="550.0" y2="256.12526838199807" stroke="rgb(192,192,192)" stroke-width="1"/><text text-anchor="end" alignment-baseline="middle" x="45.0" y="256.12526838199807" font-size="12.0">0.07</text><line x1="48.0" y1="256.12526838199807" x2="52.0" y2="256.12526838199807" stroke="rgb(192,192,192)" stroke-width="1"/><line x1="50.0" y1="214.1431638651407" x2="550.0" y2="214.1431638651407" stroke="rgb(192,192,192)" stroke-width="1"/><text text-anchor="end" alignment-baseline="middle" x="45.0" y="214.1431638651407" font-size="12.0">0.08</text><line x1="48.0" y1="214.1431638651407" x2="52.0" y2="214.1431638651407" stroke="rgb(192,192,192)" stroke-width="1"/><line x1="50.0" y1="172.1610593482833" x2="550.0" y2="172.1610593482833" stroke="rgb(192,192,192)" stroke-width="1"/><text text-anchor="end" alignment-baseline="middle" x="45.0" y="172.1610593482833" font-size="12.0">0.09</text><line x1="48.0" y1="172.1610593482833" x2="52.0" y2="172.1610593482833" stroke="rgb(192,192,192)" stroke-width="1"/><line x1="50.0" y1="130.17895483142587" x2="550.0" y2="130.17895483142587" stroke="rgb(192,192,192)" stroke-width="1"/><text text-anchor="end" alignment-baseline="middle" x="45.0" y="130.17895483142587" font-size="12.0">0.10</text><line x1="48.0" y1="130.17895483142587" x2="52.0" y2="130.17895483142587" stroke="rgb(192,192,192)" stroke-width="1"/><line x1="50.0" y1="88.19685031456851" x2="550.0" y2="88.19685031456851" stroke="rgb(192,192,192)" stroke-width="1"/><text text-anchor="end" alignment-baseline="middle" x="45.0" y="88.19685031456851" font-size="12.0">0.11</text><line x1="48.0" y1="88.19685031456851" x2="52.0" y2="88.19685031456851" stroke="rgb(192,192,192)" stroke-width="1"/><polyline points="50.0,103.33794675018396 76.3157894736842,323.872921760123 102.63157894736841,441.1741465271955 128.94736842105263,472.90725258093596 155.26315789473682,472.90725258093596 181.57894736842104,472.3300483229186 207.89473684210526,472.3300483229186 234.21052631578945,472.3300483229186 260.52631578947364,472.3300483229186 286.8421052631579,472.3300483229186 313.1578947368421,472.3300483229186 339.4736842105263,472.3300483229186 365.7894736842105,472.3300483229186 392.10526315789474,472.3300483229186 418.4210526315789,472.3300483229186 444.7368421052632,472.3300483229186 471.05263157894734,472.3300483229186 497.36842105263156,472.3300483229186 523.6842105263158,472.3300483229186 550.0,472.3300483229186" fill="none" stroke="rgb(255,0,0)" stroke-width="1"/><circle cx="50.0" cy="103.33794675018396" r="2" fill="rgb(255,0,0)"/><circle cx="76.3157894736842" cy="323.872921760123" r="2" fill="rgb(255,0,0)"/><circle cx="102.63157894736841" cy="441.1741465271955" r="2" fill="rgb(255,0,0)"/><circle cx="128.94736842105263" cy="472.90725258093596" r="2" fill="rgb(255,0,0)"/><circle cx="155.26315789473682" cy="472.90725258093596" r="2" fill="rgb(255,0,0)"/><circle cx="181.57894736842104" cy="472.3300483229186" r="2" fill="rgb(255,0,0)"/><circle cx="207.89473684210526" cy="472.3300483229186" r="2" fill="rgb(255,0,0)"/><circle cx="234.21052631578945" cy="472.3300483229186" r="2" fill="rgb(255,0,0)"/><circle cx="260.52631578947364" cy="472.3300483229186" r="2" fill="rgb(255,0,0)"/><circle cx="286.8421052631579" cy="472.3300483229186" r="2" fill="rgb(255,0,0)"/><circle cx="313.1578947368421" cy="472.3300483229186" r="2" fill="rgb(255,0,0)"/><circle cx="339.4736842105263" cy="472.3300483229186" r="2" fill="rgb(255,0,0)"/><circle cx="365.7894736842105" cy="472.3300483229186" r="2" fill="rgb(255,0,0)"/><circle cx="392.10526315789474" cy="472.3300483229186" r="2" fill="rgb(255,0,0)"/><circle cx="418.4210526315789" cy="472.3300483229186" r="2" fill="rgb(255,0,0)"/><circle cx="444.7368421052632" cy="472.3300483229186" r="2" fill="rgb(255,0,0)"/><circle cx="471.05263157894734" cy="472.3300483229186" r="2" fill="rgb(255,0,0)"/><circle cx="497.36842105263156" cy="472.3300483229186" r="2" fill="rgb(255,0,0)"/><circle cx="523.6842105263158" cy="472.3300483229186" r="2" fill="rgb(255,0,0)"/><circle cx="550.0" cy="472.3300483229186" r="2" fill="rgb(255,0,0)"/><polyline points="50.0,264.7175888019588 76.3157894736842,203.00762087633746 102.63157894736841,83.94367601425449 128.94736842105263,50.0 155.26315789473682,50.0 181.57894736842104,53.506655999293 207.89473684210526,53.506655999293 234.21052631578945,53.506655999293 260.52631578947364,53.506655999293 286.8421052631579,53.506655999293 313.1578947368421,53.506655999293 339.4736842105263,53.506655999293 365.7894736842105,53.506655999293 392.10526315789474,53.506655999293 418.4210526315789,53.506655999293 444.7368421052632,53.506655999293 471.05263157894734,53.506655999293 497.36842105263156,53.506655999293 523.6842105263158,53.506655999293 550.0,53.506655999293" fill="none" stroke="rgb(0,0,255)" stroke-width="1"/><circle cx="50.0" cy="264.7175888019588" r="2" fill="rgb(0,0,255)"/><circle cx="76.3157894736842" cy="203.00762087633746" r="2" fill="rgb(0,0,255)"/><circle cx="102.63157894736841" cy="83.94367601425449" r="2" fill="rgb(0,0,255)"/><circle cx="128.94736842105263" cy="50.0" r="2" fill="rgb(0,0,255)"/><circle cx="155.26315789473682" cy="50.0" r="2" fill="rgb(0,0,255)"/><circle cx="181.57894736842104" cy="53.506655999293" r="2" fill="rgb(0,0,255)"/><circle cx="207.89473684210526" cy="53.506655999293" r="2" fill="rgb(0,0,255)"/><circle cx="234.21052631578945" cy="53.506655999293" r="2" fill="rgb(0,0,255)"/><circle cx="260.52631578947364" cy="53.506655999293" r="2" fill="rgb(0,0,255)"/><circle cx="286.8421052631579" cy="53.506655999293" r="2" fill="rgb(0,0,255)"/><circle cx="313.1578947368421" cy="53.506655999293" r="2" fill="rgb(0,0,255)"/><circle cx="339.4736842105263" cy="53.506655999293" r="2" fill="rgb(0,0,255)"/><circle cx="365.7894736842105" cy="53.506655999293" r="2" fill="rgb(0,0,255)"/><circle cx="392.10526315789474" cy="53.506655999293" r="2" fill="rgb(0,0,255)"/><circle cx="418.4210526315789" cy="53.506655999293" r="2" fill="rgb(0,0,255)"/><circle cx="444.7368421052632" cy="53.506655999293" r="2" fill="rgb(0,0,255)"/><circle cx="471.05263157894734" cy="53.506655999293" r="2" fill="rgb(0,0,255)"/><circle cx="497.36842105263156" cy="53.506655999293" r="2" fill="rgb(0,0,255)"/><circle cx="523.6842105263158" cy="53.506655999293" r="2" fill="rgb(0,0,255)"/><circle cx="550.0" cy="53.506655999293" r="2" fill="rgb(0,0,255)"/><polyline points="50.0,491.26174383775225 76.3157894736842,332.0385834232542 102.63157894736841,244.25719818456696 128.94736842105263,216.1845828661303 155.26315789473682,216.1845828661303 181.57894736842104,214.37363388465815 207.89473684210526,214.37363388465815 234.21052631578945,214.37363388465815 260.52631578947364,214.37363388465815 286.8421052631579,214.37363388465815 313.1578947368421,214.37363388465815 339.4736842105263,214.37363388465815 365.7894736842105,214.37363388465815 392.10526315789474,214.37363388465815 418.4210526315789,214.37363388465815 444.7368421052632,214.37363388465815 471.05263157894734,214.37363388465815 497.36842105263156,214.37363388465815 523.6842105263158,214.37363388465815 550.0,214.37363388465815" fill="none" stroke="rgb(0,255,0)" stroke-width="1"/><circle cx="50.0" cy="491.26174383775225" r="2" fill="rgb(0,255,0)"/><circle cx="76.3157894736842" cy="332.0385834232542" r="2" fill="rgb(0,255,0)"/><circle cx="102.63157894736841" cy="244.25719818456696" r="2" fill="rgb(0,255,0)"/><circle cx="128.94736842105263" cy="216.1845828661303" r="2" fill="rgb(0,255,0)"/><circle cx="155.26315789473682" cy="216.1845828661303" r="2" fill="rgb(0,255,0)"/><circle cx="181.57894736842104" cy="214.37363388465815" r="2" fill="rgb(0,255,0)"/><circle cx="207.89473684210526" cy="214.37363388465815" r="2" fill="rgb(0,255,0)"/><circle cx="234.21052631578945" cy="214.37363388465815" r="2" fill="rgb(0,255,0)"/><circle cx="260.52631578947364" cy="214.37363388465815" r="2" fill="rgb(0,255,0)"/><circle cx="286.8421052631579" cy="214.37363388465815" r="2" fill="rgb(0,255,0)"/><circle cx="313.1578947368421" cy="214.37363388465815" r="2" fill="rgb(0,255,0)"/><circle cx="339.4736842105263" cy="214.37363388465815" r="2" fill="rgb(0,255,0)"/><circle cx="365.7894736842105" cy="214.37363388465815" r="2" fill="rgb(0,255,0)"/><circle cx="392.10526315789474" cy="214.37363388465815" r="2" fill="rgb(0,255,0)"/><circle cx="418.4210526315789" cy="214.37363388465815" r="2" fill="rgb(0,255,0)"/><circle cx="444.7368421052632" cy="214.37363388465815" r="2" fill="rgb(0,255,0)"/><circle cx="471.05263157894734" cy="214.37363388465815" r="2" fill="rgb(0,255,0)"/><circle cx="497.36842105263156" cy="214.37363388465815" r="2" fill="rgb(0,255,0)"/><circle cx="523.6842105263158" cy="214.37363388465815" r="2" fill="rgb(0,255,0)"/><circle cx="550.0" cy="214.37363388465815" r="2" fill="rgb(0,255,0)"/><text x="350.0" y="20.0" text-anchor="middle" fill="rgb(0,0,0)" font-size="20.0">KMeans Mean Centroid Distances</text><text x="350.0" y="575.0" text-anchor="middle" fill="rgb(0,0,0)" font-size="12.0">step</text><text transform="rotate(-90.0 20.0 300.0)" x="20.0" y="300.0" text-anchor="middle" fill="rgb(0,0,0)" font-size="12.0">average distance to centroid</text><text x="620" y="62" fill="rgb(255,0,0)" font-size="12">0</text><text x="620" y="74" fill="rgb(0,0,255)" font-size="12">1</text><text x="620" y="86" fill="rgb(0,255,0)" font-size="12">2</text>
      Sorry, your browser does not support inline SVG.
    </svg>