<?xml version='1.0' encoding='UTF-8'?>
<svg version="1.1" width="700.0" height="600.0" onload="init(evt)" xmlns="http://www.w3.org/2000/svg">
      <style>.caption {
  font-size: 14px;
  font-family: Georgia, serif;
}
</style>
      <script type="text/ecmascript"><![CDATA[
function init(evt) {
  if ( window.svgDocument == null ) {
    svgDocument = evt.target.ownerDocument;
  }
}

function RectHover(evt, i, c) {
  rect = svgDocument.getElementById('rect' + i);
  if( c != null ) {
    rect.setAttributeNS(null, "fill", c)  
  }
  tooltiptext = svgDocument.getElementById('tooltiptext' + i);
  tooltipbg = svgDocument.getElementById('tooltipbg' + i);
  if( tooltipbg != null) {
    tbb = tooltiptext.getBBox();
    tooltipbg.setAttributeNS(null, "width", tbb.width);
    tooltipbg.setAttributeNS(null, "height", tbb.height);
    tooltipbg.setAttributeNS(null, "x", tbb.x);
    tooltipbg.setAttributeNS(null, "y", tbb.y);
    tooltipbg.setAttributeNS(null, "visibility", "visible");
  }
  tooltiptext.setAttributeNS(null,"visibility","visible");
}

function RectUnhover(evt, i, c) {
  rect = svgDocument.getElementById('rect' + i);
  if( c != null ) {
    rect.setAttributeNS(null, "fill", c)  
  }
  tooltiptext = svgDocument.getElementById('tooltiptext' + i);
  tooltiptext.setAttributeNS(null,"visibility","hidden");
  tooltipbg = svgDocument.getElementById('tooltipbg' + i);
  if( tooltipbg != null ) {
    tooltipbg.setAttributeNS(null,"visibility","hidden");
  }
}
]]></script>
      <line x1="50.0" y1="550.0" x2="550.0" y2="550.0" stroke="rgb(0,0,0)" stroke-width="1"/><line x1="50.0" y1="550.0" x2="50.0" y2="50.0" stroke="rgb(0,0,0)" stroke-width="1"/><line x1="50.0" y1="550.0" x2="50.0" y2="50.0" stroke="rgb(192,192,192)" stroke-width="1"/><line x1="50.0" y1="548.0" x2="50.0" y2="552.0" stroke="rgb(192,192,192)" stroke-width="1"/><text text-anchor="middle" alignment-baseline="hanging" x="50.0" y="553.0" font-size="12.0">0</text><line x1="313.1578947368421" y1="550.0" x2="313.1578947368421" y2="50.0" stroke="rgb(192,192,192)" stroke-width="1"/><line x1="313.1578947368421" y1="548.0" x2="313.1578947368421" y2="552.0" stroke="rgb(192,192,192)" stroke-width="1"/><text text-anchor="middle" alignment-baseline="hanging" x="313.1578947368421" y="553.0" font-size="12.0">10</text><line x1="50.0" y1="550.0" x2="550.0" y2="550.0" stroke="rgb(192,192,192)" stroke-width="1"/><text text-anchor="end" alignment-baseline="middle" x="45.0" y="550.0" font-size="12.0">0.00</text><line x1="48.0" y1="550.0" x2="52.0" y2="550.0" stroke="rgb(192,192,192)" stroke-width="1"/><line x1="50.0" y1="521.3123935246329" x2="550.0" y2="521.3123935246329" stroke="rgb(192,192,192)" stroke-width="1"/><text text-anchor="end" alignment-baseline="middle" x="45.0" y="521.3123935246329" font-size="12.0">0.01</text><line x1="48.0" y1="521.3123935246329" x2="52.0" y2="521.3123935246329" stroke="rgb(192,192,192)" stroke-width="1"/><line x1="50.0" y1="492.62478704926565" x2="550.0" y2="492.62478704926565" stroke="rgb(192,192,192)" stroke-width="1"/><text text-anchor="end" alignment-baseline="middle" x="45.0" y="492.62478704926565" font-size="12.0">0.02</text><line x1="48.0" y1="492.62478704926565" x2="52.0" y2="492.62478704926565" stroke="rgb(192,192,192)" stroke-width="1"/><line x1="50.0" y1="463.9371805738985" x2="550.0" y2="463.9371805738985" stroke="rgb(192,192,192)" stroke-width="1"/><text text-anchor="end" alignment-baseline="middle" x="45.0" y="463.9371805738985" font-size="12.0">0.03</text><line x1="48.0" y1="463.9371805738985" x2="52.0" y2="463.9371805738985" stroke="rgb(192,192,192)" stroke-width="1"/><line x1="50.0" y1="435.2495740985313" x2="550.0" y2="435.2495740985313" stroke="rgb(192,192,192)" stroke-width="1"/><text text-anchor="end" alignment-baseline="middle" x="45.0" y="435.2495740985313" font-size="12.0">0.04</text><line x1="48.0" y1="435.2495740985313" x2="52.0" y2="435.2495740985313" stroke="rgb(192,192,192)" stroke-width="1"/><line x1="50.0" y1="406.56196762316415" x2="550.0" y2="406.56196762316415" stroke="rgb(192,192,192)" stroke-width="1"/><text text-anchor="end" alignment-baseline="middle" x="45.0" y="406.56196762316415" font-size="12.0">0.05</text><line x1="48.0" y1="406.56196762316415" x2="52.0" y2="406.56196762316415" stroke="rgb(192,192,192)" stroke-width="1"/><line x1="50.0" y1="377.874361147797" x2="550.0" y2="377.874361147797" stroke="rgb(192,192,192)" stroke-width="1"/><text text-anchor="end" alignment-baseline="middle" x="45.0" y="377.874361147797" font-size="12.0">0.06</text><line x1="48.0" y1="377.874361147797" x2="52.0" y2="377.874361147797" stroke="rgb(192,192,192)" stroke-width="1"/><line x1="50.0" y1="349.18675467242974" x2="550.0" y2="349.18675467242974" stroke="rgb(192,192,192)" stroke-width="1"/><text text-anchor="end" alignment-baseline="middle" x="45.0" y="349.18675467242974" font-size="12.0">0.07</text><line x1="48.0" y1="349.18675467242974" x2="52.0" y2="349.18675467242974" stroke="rgb(192,192,192)" stroke-width="1"/><line x1="50.0" y1="320.49914819706265" x2="550.0" y2="320.49914819706265" stroke="rgb(192,192,192)" stroke-width="1"/><text text-anchor="end" alignment-baseline="middle" x="45.0" y="320.49914819706265" font-size="12.0">0.08</text><line x1="48.0" y1="320.49914819706265" x2="52.0" y2="320.49914819706265" stroke="rgb(192,192,192)" stroke-width="1"/><line x1="50.0" y1="291.8115417216955" x2="550.0" y2="291.8115417216955" stroke="rgb(192,192,192)" stroke-width="1"/><text text-anchor="end" alignment-baseline="middle" x="45.0" y="291.8115417216955" font-size="12.0">0.09</text><line x1="48.0" y1="291.8115417216955" x2="52.0" y2="291.8115417216955" stroke="rgb(192,192,192)" stroke-width="1"/><line x1="50.0" y1="263.1239352463283" x2="550.0" y2="263.1239352463283" stroke="rgb(192,192,192)" stroke-width="1"/><text text-anchor="end" alignment-baseline="middle" x="45.0" y="263.1239352463283" font-size="12.0">0.10</text><line x1="48.0" y1="263.1239352463283" x2="52.0" y2="263.1239352463283" stroke="rgb(192,192,192)" stroke-width="1"/><line x1="50.0" y1="234.4363287709611" x2="550.0" y2="234.4363287709611" stroke="rgb(192,192,192)" stroke-width="1"/><text text-anchor="end" alignment-baseline="middle" x="45.0" y="234.4363287709611" font-size="12.0">0.11</text><line x1="48.0" y1="234.4363287709611" x2="52.0" y2="234.4363287709611" stroke="rgb(192,192,192)" stroke-width="1"/><line x1="50.0" y1="205.74872229559395" x2="550.0" y2="205.74872229559395" stroke="rgb(192,192,192)" stroke-width="1"/><text text-anchor="end" alignment-baseline="middle" x="45.0" y="205.74872229559395" font-size="12.0">0.12</text><line x1="48.0" y1="205.74872229559395" x2="52.0" y2="205.74872229559395" stroke="rgb(192,192,192)" stroke-width="1"/><line x1="50.0" y1="177.0611158202268" x2="550.0" y2="177.0611158202268" stroke="rgb(192,192,192)" stroke-width="1"/><text text-anchor="end" alignment-baseline="middle" x="45.0" y="177.0611158202268" font-size="12.0">0.13</text><line x1="48.0" y1="177.0611158202268" x2="52.0" y2="177.0611158202268" stroke="rgb(192,192,192)" stroke-width="1"/><line x1="50.0" y1="148.37350934485954" x2="550.0" y2="148.37350934485954" stroke="rgb(192,192,192)" stroke-width="1"/><text text-anchor="end" alignment-baseline="middle" x="45.0" y="148.37350934485954" font-size="12.0">0.14</text><line x1="48.0" y1="148.37350934485954" x2="52.0" y2="148.37350934485954" stroke="rgb(192,192,192)" stroke-width="1"/><line x1="50.0" y1="119.68590286949245" x2="550.0" y2="119.68590286949245" stroke="rgb(192,192,192)" stroke-width="1"/><text text-anchor="end" alignment-baseline="middle" x="45.0" y="119.68590286949245" font-size="12.0">0.15</text><line x1="48.0" y1="119.68590286949245" x2="52.0" y2="119.68590286949245" stroke="rgb(192,192,192)" stroke-width="1"/><line x1="50.0" y1="90.9982963941253" x2="550.0" y2="90.9982963941253" stroke="rgb(192,192,192)" stroke-width="1"/><text text-anchor="end" alignment-baseline="middle" x="45.0" y="90.9982963941253" font-size="12.0">0.16</text><line x1="48.0" y1="90.9982963941253" x2="52.0" y2="90.9982963941253" stroke="rgb(192,192,192)" stroke-width="1"/><line x1="50.0" y1="62.310689918758044" x2="550.0" y2="62.310689918758044" stroke="rgb(192,192,192)" stroke-width="1"/><text text-anchor="end" alignment-baseline="middle" x="45.0" y="62.310689918758044" font-size="12.0">0.17</text><line x1="48.0" y1="62.310689918758044" x2="52.0" y2="62.310689918758044" stroke="rgb(192,192,192)" stroke-width="1"/><polyline points="50.0,50.0 76.3157894736842,341.6621273235987 102.63157894736841,436.4342297569791 128.94736842105263,489.60557326840467 155.26315789473682,493.5550616900061 181.57894736842104,493.5550616900061 207.89473684210526,493.5550616900061 234.21052631578945,493.5550616900061 260.52631578947364,493.5550616900061 286.8421052631579,493.5550616900061 313.1578947368421,493.5550616900061 339.4736842105263,493.5550616900061 365.7894736842105,493.5550616900061 392.10526315789474,493.5550616900061 418.4210526315789,493.5550616900061 444.7368421052632,493.5550616900061 471.05263157894734,493.5550616900061 497.36842105263156,493.5550616900061 523.6842105263158,493.5550616900061 550.0,493.5550616900061" fill="none" stroke="rgb(255,0,0)" stroke-width="1"/><circle cx="50.0" cy="50.0" r="2" fill="rgb(255,0,0)"/><circle cx="76.3157894736842" cy="341.6621273235987" r="2" fill="rgb(255,0,0)"/><circle cx="102.63157894736841" cy="436.4342297569791" r="2" fill="rgb(255,0,0)"/><circle cx="128.94736842105263" cy="489.60557326840467" r="2" fill="rgb(255,0,0)"/><circle cx="155.26315789473682" cy="493.5550616900061" r="2" fill="rgb(255,0,0)"/><circle cx="181.57894736842104" cy="493.5550616900061" r="2" fill="rgb(255,0,0)"/><circle cx="207.89473684210526" cy="493.5550616900061" r="2" fill="rgb(255,0,0)"/><circle cx="234.21052631578945" cy="493.5550616900061" r="2" fill="rgb(255,0,0)"/><circle cx="260.52631578947364" cy="493.5550616900061" r="2" fill="rgb(255,0,0)"/><circle cx="286.8421052631579" cy="493.5550616900061" r="2" fill="rgb(255,0,0)"/><circle cx="313.1578947368421" cy="493.5550616900061" r="2" fill="rgb(255,0,0)"/><circle cx="339.4736842105263" cy="493.5550616900061" r="2" fill="rgb(255,0,0)"/><circle cx="365.7894736842105" cy="493.5550616900061" r="2" fill="rgb(255,0,0)"/><circle cx="392.10526315789474" cy="493.5550616900061" r="2" fill="rgb(255,0,0)"/><circle cx="418.4210526315789" cy="493.5550616900061" r="2" fill="rgb(255,0,0)"/><circle cx="444.7368421052632" cy="493.5550616900061" r="2" fill="rgb(255,0,0)"/><circle cx="471.05263157894734" cy="493.5550616900061" r="2" fill="rgb(255,0,0)"/><circle cx="497.36842105263156" cy="493.5550616900061" r="2" fill="rgb(255,0,0)"/><circle cx="523.6842105263158" cy="493.5550616900061" r="2" fill="rgb(255,0,0)"/><circle cx="550.0" cy="493.5550616900061" r="2" fill="rgb(255,0,0)"/><polyline points="50.0,309.1745344035458 76.3157894736842,355.5485782927857 102.63157894736841,265.99605877597736 128.94736842105263,215.1370611804207 155.26315789473682,208.887816589926 181.57894736842104,208.887816589926 207.89473684210526,208.887816589926 234.21052631578945,208.887816589926 260.52631578947364,208.887816589926 286.8421052631579,208.887816589926 313.1578947368421,208.887816589926 339.4736842105263,208.887816589926 365.7894736842105,208.887816589926 392.10526315789474,208.887816589926 418.4210526315789,208.887816589926 444.7368421052632,208.887816589926 471.05263157894734,208.887816589926 497.36842105263156,208.887816589926 523.6842105263158,208.887816589926 550.0,208.887816589926" fill="none" stroke="rgb(0,0,255)" stroke-width="1"/><circle cx="50.0" cy="309.1745344035458" r="2" fill="rgb(0,0,255)"/><circle cx="76.3157894736842" cy="355.5485782927857" r="2" fill="rgb(0,0,255)"/><circle cx="102.63157894736841" cy="265.99605877597736" r="2" fill="rgb(0,0,255)"/><circle cx="128.94736842105263" cy="215.1370611804207" r="2" fill="rgb(0,0,255)"/><circle cx="155.26315789473682" cy="208.887816589926" r="2" fill="rgb(0,0,255)"/><circle cx="181.57894736842104" cy="208.887816589926" r="2" fill="rgb(0,0,255)"/><circle cx="207.89473684210526" cy="208.887816589926" r="2" fill="rgb(0,0,255)"/><circle cx="234.21052631578945" cy="208.887816589926" r="2" fill="rgb(0,0,255)"/><circle cx="260.52631578947364" cy="208.887816589926" r="2" fill="rgb(0,0,255)"/><circle cx="286.8421052631579" cy="208.887816589926" r="2" fill="rgb(0,0,255)"/><circle cx="313.1578947368421" cy="208.887816589926" r="2" fill="rgb(0,0,255)"/><circle cx="339.4736842105263" cy="208.887816589926" r="2" fill="rgb(0,0,255)"/><circle cx="365.7894736842105" cy="208.887816589926" r="2" fill="rgb(0,0,255)"/><circle cx="392.10526315789474" cy="208.887816589926" r="2" fill="rgb(0,0,255)"/><circle cx="418.4210526315789" cy="208.887816589926" r="2" fill="rgb(0,0,255)"/><circle cx="444.7368421052632" cy="208.887816589926" r="2" fill="rgb(0,0,255)"/><circle cx="471.05263157894734" cy="208.887816589926" r="2" fill="rgb(0,0,255)"/><circle cx="497.36842105263156" cy="208.887816589926" r="2" fill="rgb(0,0,255)"/><circle cx="523.6842105263158" cy="208.887816589926" r="2" fill="rgb(0,0,255)"/><circle cx="550.0" cy="208.887816589926" r="2" fill="rgb(0,0,255)"/><polyline points="50.0,328.0101245985305 76.3157894736842,466.4414939745117 102.63157894736841,381.57176594754714 128.94736842105263,329.6873305104348 155.26315789473682,325.95667860879587 181.57894736842104,325.95667860879587 207.89473684210526,325.95667860879587 234.21052631578945,325.95667860879587 260.52631578947364,325.95667860879587 286.8421052631579,325.95667860879587 313.1578947368421,325.95667860879587 339.4736842105263,325.95667860879587 365.7894736842105,325.95667860879587 392.10526315789474,325.95667860879587 418.4210526315789,325.95667860879587 444.7368421052632,325.95667860879587 471.05263157894734,325.95667860879587 497.36842105263156,325.95667860879587 523.6842105263158,325.95667860879587 550.0,325.95667860879587" fill="none" stroke="rgb(0,255,0)" stroke-width="1"/><circle cx="50.0" cy="328.0101245985305" r="2" fill="rgb(0,255,0)"/><circle cx="76.3157894736842" cy="466.4414939745117" r="2" fill="rgb(0,255,0)"/><circle cx="102.63157894736841" cy="381.57176594754714" r="2" fill="rgb(0,255,0)"/><circle cx="128.94736842105263" cy="329.6873305104348" r="2" fill="rgb(0,255,0)"/><circle cx="155.26315789473682" cy="325.95667860879587" r="2" fill="rgb(0,255,0)"/><circle cx="181.57894736842104" cy="325.95667860879587" r="2" fill="rgb(0,255,0)"/><circle cx="207.89473684210526" cy="325.95667860879587" r="2" fill="rgb(0,255,0)"/><circle cx="234.21052631578945" cy="325.95667860879587" r="2" fill="rgb(0,255,0)"/><circle cx="260.52631578947364" cy="325.95667860879587" r="2" fill="rgb(0,255,0)"/><circle cx="286.8421052631579" cy="325.95667860879587" r="2" fill="rgb(0,255,0)"/><circle cx="313.1578947368421" cy="325.95667860879587" r="2" fill="rgb(0,255,0)"/><circle cx="339.4736842105263" cy="325.95667860879587" r="2" fill="rgb(0,255,0)"/><circle cx="365.7894736842105" cy="325.95667860879587" r="2" fill="rgb(0,255,0)"/><circle cx="392.10526315789474" cy="325.95667860879587" r="2" fill="rgb(0,255,0)"/><circle cx="418.4210526315789" cy="325.95667860879587" r="2" fill="rgb(0,255,0)"/><circle cx="444.7368421052632" cy="325.95667860879587" r="2" fill="rgb(0,255,0)"/><circle cx="471.05263157894734" cy="325.95667860879587" r="2" fill="rgb(0,255,0)"/><circle cx="497.36842105263156" cy="325.95667860879587" r="2" fill="rgb(0,255,0)"/><circle cx="523.6842105263158" cy="325.95667860879587" r="2" fill="rgb(0,255,0)"/><circle cx="550.0" cy="325.95667860879587" r="2" fill="rgb(0,255,0)"/><text x="350.0" y="20.0" text-anchor="middle" fill="rgb(0,0,0)" font-size="20.0">KMeans Mean Centroid Distances</text><text x="350.0" y="575.0" text-anchor="middle" fill="rgb(0,0,0)" font-size="12.0">step</text><text transform="rotate(-90.0 20.0 300.0)" x="20.0" y="300.0" text-anchor="middle" fill="rgb(0,0,0)" font-size="12.0">average distance to centroid</text><text x="620" y="62" fill="rgb(255,0,0)" font-size="12">0</text><text x="620" y="74" fill="rgb(0,0,255)" font-size="12">1</text><text x="620" y="86" fill="rgb(0,255,0)" font-size="12">2</text>
      Sorry, your browser does not support inline SVG.
    </svg>