<?xml version='1.0' encoding='UTF-8'?>
<svg version="1.1" width="700.0" height="600.0" onload="init(evt)" xmlns="http://www.w3.org/2000/svg">
      <style>.caption {
  font-size: 14px;
  font-family: Georgia, serif;
}
</style>
      <script type="text/ecmascript"><![CDATA[
function init(evt) {
  if ( window.svgDocument == null ) {
    svgDocument = evt.target.ownerDocument;
  }
}

function RectHover(evt, i, c) {
  rect = svgDocument.getElementById('rect' + i);
  if( c != null ) {
    rect.setAttributeNS(null, "fill", c)  
  }
  tooltiptext = svgDocument.getElementById('tooltiptext' + i);
  tooltipbg = svgDocument.getElementById('tooltipbg' + i);
  if( tooltipbg != null) {
    tbb = tooltiptext.getBBox();
    tooltipbg.setAttributeNS(null, "width", tbb.width);
    tooltipbg.setAttributeNS(null, "height", tbb.height);
    tooltipbg.setAttributeNS(null, "x", tbb.x);
    tooltipbg.setAttributeNS(null, "y", tbb.y);
    tooltipbg.setAttributeNS(null, "visibility", "visible");
  }
  tooltiptext.setAttributeNS(null,"visibility","visible");
}

function RectUnhover(evt, i, c) {
  rect = svgDocument.getElementById('rect' + i);
  if( c != null ) {
    rect.setAttributeNS(null, "fill", c)  
  }
  tooltiptext = svgDocument.getElementById('tooltiptext' + i);
  tooltiptext.setAttributeNS(null,"visibility","hidden");
  tooltipbg = svgDocument.getElementById('tooltipbg' + i);
  if( tooltipbg != null ) {
    tooltipbg.setAttributeNS(null,"visibility","hidden");
  }
}
]]></script>
      <line x1="50.0" y1="550.0" x2="550.0" y2="550.0" stroke="rgb(0,0,0)" stroke-width="1"/><line x1="50.0" y1="550.0" x2="50.0" y2="50.0" stroke="rgb(0,0,0)" stroke-width="1"/><line x1="50.0" y1="550.0" x2="50.0" y2="50.0" stroke="rgb(192,192,192)" stroke-width="1"/><line x1="50.0" y1="548.0" x2="50.0" y2="552.0" stroke="rgb(192,192,192)" stroke-width="1"/><text text-anchor="middle" alignment-baseline="hanging" x="50.0" y="553.0" font-size="12.0">0</text><line x1="313.1578947368421" y1="550.0" x2="313.1578947368421" y2="50.0" stroke="rgb(192,192,192)" stroke-width="1"/><line x1="313.1578947368421" y1="548.0" x2="313.1578947368421" y2="552.0" stroke="rgb(192,192,192)" stroke-width="1"/><text text-anchor="middle" alignment-baseline="hanging" x="313.1578947368421" y="553.0" font-size="12.0">10</text><line x1="50.0" y1="550.0" x2="550.0" y2="550.0" stroke="rgb(192,192,192)" stroke-width="1"/><text text-anchor="end" alignment-baseline="middle" x="45.0" y="550.0" font-size="12.0">0.00</text><line x1="48.0" y1="550.0" x2="52.0" y2="550.0" stroke="rgb(192,192,192)" stroke-width="1"/><line x1="50.0" y1="508.3032415431214" x2="550.0" y2="508.3032415431214" stroke="rgb(192,192,192)" stroke-width="1"/><text text-anchor="end" alignment-baseline="middle" x="45.0" y="508.3032415431214" font-size="12.0">0.01</text><line x1="48.0" y1="508.3032415431214" x2="52.0" y2="508.3032415431214" stroke="rgb(192,192,192)" stroke-width="1"/><line x1="50.0" y1="466.60648308624275" x2="550.0" y2="466.60648308624275" stroke="rgb(192,192,192)" stroke-width="1"/><text text-anchor="end" alignment-baseline="middle" x="45.0" y="466.60648308624275" font-size="12.0">0.02</text><line x1="48.0" y1="466.60648308624275" x2="52.0" y2="466.60648308624275" stroke="rgb(192,192,192)" stroke-width="1"/><line x1="50.0" y1="424.9097246293641" x2="550.0" y2="424.9097246293641" stroke="rgb(192,192,192)" stroke-width="1"/><text text-anchor="end" alignment-baseline="middle" x="45.0" y="424.9097246293641" font-size="12.0">0.03</text><line x1="48.0" y1="424.9097246293641" x2="52.0" y2="424.9097246293641" stroke="rgb(192,192,192)" stroke-width="1"/><line x1="50.0" y1="383.2129661724855" x2="550.0" y2="383.2129661724855" stroke="rgb(192,192,192)" stroke-width="1"/><text text-anchor="end" alignment-baseline="middle" x="45.0" y="383.2129661724855" font-size="12.0">0.04</text><line x1="48.0" y1="383.2129661724855" x2="52.0" y2="383.2129661724855" stroke="rgb(192,192,192)" stroke-width="1"/><line x1="50.0" y1="341.5162077156068" x2="550.0" y2="341.5162077156068" stroke="rgb(192,192,192)" stroke-width="1"/><text text-anchor="end" alignment-baseline="middle" x="45.0" y="341.5162077156068" font-size="12.0">0.05</text><line x1="48.0" y1="341.5162077156068" x2="52.0" y2="341.5162077156068" stroke="rgb(192,192,192)" stroke-width="1"/><line x1="50.0" y1="299.81944925872824" x2="550.0" y2="299.81944925872824" stroke="rgb(192,192,192)" stroke-width="1"/><text text-anchor="end" alignment-baseline="middle" x="45.0" y="299.81944925872824" font-size="12.0">0.06</text><line x1="48.0" y1="299.81944925872824" x2="52.0" y2="299.81944925872824" stroke="rgb(192,192,192)" stroke-width="1"/><line x1="50.0" y1="258.12269080184956" x2="550.0" y2="258.12269080184956" stroke="rgb(192,192,192)" stroke-width="1"/><text text-anchor="end" alignment-baseline="middle" x="45.0" y="258.12269080184956" font-size="12.0">0.07</text><line x1="48.0" y1="258.12269080184956" x2="52.0" y2="258.12269080184956" stroke="rgb(192,192,192)" stroke-width="1"/><line x1="50.0" y1="216.42593234497093" x2="550.0" y2="216.42593234497093" stroke="rgb(192,192,192)" stroke-width="1"/><text text-anchor="end" alignment-baseline="middle" x="45.0" y="216.42593234497093" font-size="12.0">0.08</text><line x1="48.0" y1="216.42593234497093" x2="52.0" y2="216.42593234497093" stroke="rgb(192,192,192)" stroke-width="1"/><line x1="50.0" y1="174.7291738880923" x2="550.0" y2="174.7291738880923" stroke="rgb(192,192,192)" stroke-width="1"/><text text-anchor="end" alignment-baseline="middle" x="45.0" y="174.7291738880923" font-size="12.0">0.09</text><line x1="48.0" y1="174.7291738880923" x2="52.0" y2="174.7291738880923" stroke="rgb(192,192,192)" stroke-width="1"/><line x1="50.0" y1="133.03241543121362" x2="550.0" y2="133.03241543121362" stroke="rgb(192,192,192)" stroke-width="1"/><text text-anchor="end" alignment-baseline="middle" x="45.0" y="133.03241543121362" font-size="12.0">0.10</text><line x1="48.0" y1="133.03241543121362" x2="52.0" y2="133.03241543121362" stroke="rgb(192,192,192)" stroke-width="1"/><line x1="50.0" y1="91.33565697433505" x2="550.0" y2="91.33565697433505" stroke="rgb(192,192,192)" stroke-width="1"/><text text-anchor="end" alignment-baseline="middle" x="45.0" y="91.33565697433505" font-size="12.0">0.11</text><line x1="48.0" y1="91.33565697433505" x2="52.0" y2="91.33565697433505" stroke="rgb(192,192,192)" stroke-width="1"/><polyline points="50.0,342.5292830501349 76.3157894736842,480.69790061583046 102.63157894736841,473.4312404081812 128.94736842105263,472.85795932082726 155.26315789473682,472.85795932082726 181.57894736842104,472.85795932082726 207.89473684210526,472.85795932082726 234.21052631578945,472.85795932082726 260.52631578947364,472.85795932082726 286.8421052631579,472.85795932082726 313.1578947368421,472.85795932082726 339.4736842105263,472.85795932082726 365.7894736842105,472.85795932082726 392.10526315789474,472.85795932082726 418.4210526315789,472.85795932082726 444.7368421052632,472.85795932082726 471.05263157894734,472.85795932082726 497.36842105263156,472.85795932082726 523.6842105263158,472.85795932082726 550.0,472.85795932082726" fill="none" stroke="rgb(255,0,0)" stroke-width="1"/><circle cx="50.0" cy="342.5292830501349" r="2" fill="rgb(255,0,0)"/><circle cx="76.3157894736842" cy="480.69790061583046" r="2" fill="rgb(255,0,0)"/><circle cx="102.63157894736841" cy="473.4312404081812" r="2" fill="rgb(255,0,0)"/><circle cx="128.94736842105263" cy="472.85795932082726" r="2" fill="rgb(255,0,0)"/><circle cx="155.26315789473682" cy="472.85795932082726" r="2" fill="rgb(255,0,0)"/><circle cx="181.57894736842104" cy="472.85795932082726" r="2" fill="rgb(255,0,0)"/><circle cx="207.89473684210526" cy="472.85795932082726" r="2" fill="rgb(255,0,0)"/><circle cx="234.21052631578945" cy="472.85795932082726" r="2" fill="rgb(255,0,0)"/><circle cx="260.52631578947364" cy="472.85795932082726" r="2" fill="rgb(255,0,0)"/><circle cx="286.8421052631579" cy="472.85795932082726" r="2" fill="rgb(255,0,0)"/><circle cx="313.1578947368421" cy="472.85795932082726" r="2" fill="rgb(255,0,0)"/><circle cx="339.4736842105263" cy="472.85795932082726" r="2" fill="rgb(255,0,0)"/><circle cx="365.7894736842105" cy="472.85795932082726" r="2" fill="rgb(255,0,0)"/><circle cx="392.10526315789474" cy="472.85795932082726" r="2" fill="rgb(255,0,0)"/><circle cx="418.4210526315789" cy="472.85795932082726" r="2" fill="rgb(255,0,0)"/><circle cx="444.7368421052632" cy="472.85795932082726" r="2" fill="rgb(255,0,0)"/><circle cx="471.05263157894734" cy="472.85795932082726" r="2" fill="rgb(255,0,0)"/><circle cx="497.36842105263156" cy="472.85795932082726" r="2" fill="rgb(255,0,0)"/><circle cx="523.6842105263158" cy="472.85795932082726" r="2" fill="rgb(255,0,0)"/><circle cx="550.0" cy="472.85795932082726" r="2" fill="rgb(255,0,0)"/><polyline points="50.0,100.54092817138724 76.3157894736842,50.0 102.63157894736841,53.39842491536126 128.94736842105263,56.88124670041907 155.26315789473682,56.88124670041907 181.57894736842104,56.88124670041907 207.89473684210526,56.88124670041907 234.21052631578945,56.88124670041907 260.52631578947364,56.88124670041907 286.8421052631579,56.88124670041907 313.1578947368421,56.88124670041907 339.4736842105263,56.88124670041907 365.7894736842105,56.88124670041907 392.10526315789474,56.88124670041907 418.4210526315789,56.88124670041907 444.7368421052632,56.88124670041907 471.05263157894734,56.88124670041907 497.36842105263156,56.88124670041907 523.6842105263158,56.88124670041907 550.0,56.88124670041907" fill="none" stroke="rgb(0,0,255)" stroke-width="1"/><circle cx="50.0" cy="100.54092817138724" r="2" fill="rgb(0,0,255)"/><circle cx="76.3157894736842" cy="50.0" r="2" fill="rgb(0,0,255)"/><circle cx="102.63157894736841" cy="53.39842491536126" r="2" fill="rgb(0,0,255)"/><circle cx="128.94736842105263" cy="56.88124670041907" r="2" fill="rgb(0,0,255)"/><circle cx="155.26315789473682" cy="56.88124670041907" r="2" fill="rgb(0,0,255)"/><circle cx="181.57894736842104" cy="56.88124670041907" r="2" fill="rgb(0,0,255)"/><circle cx="207.89473684210526" cy="56.88124670041907" r="2" fill="rgb(0,0,255)"/><circle cx="234.21052631578945" cy="56.88124670041907" r="2" fill="rgb(0,0,255)"/><circle cx="260.52631578947364" cy="56.88124670041907" r="2" fill="rgb(0,0,255)"/><circle cx="286.8421052631579" cy="56.88124670041907" r="2" fill="rgb(0,0,255)"/><circle cx="313.1578947368421" cy="56.88124670041907" r="2" fill="rgb(0,0,255)"/><circle cx="339.4736842105263" cy="56.88124670041907" r="2" fill="rgb(0,0,255)"/><circle cx="365.7894736842105" cy="56.88124670041907" r="2" fill="rgb(0,0,255)"/><circle cx="392.10526315789474" cy="56.88124670041907" r="2" fill="rgb(0,0,255)"/><circle cx="418.4210526315789" cy="56.88124670041907" r="2" fill="rgb(0,0,255)"/><circle cx="444.7368421052632" cy="56.88124670041907" r="2" fill="rgb(0,0,255)"/><circle cx="471.05263157894734" cy="56.88124670041907" r="2" fill="rgb(0,0,255)"/><circle cx="497.36842105263156" cy="56.88124670041907" r="2" fill="rgb(0,0,255)"/><circle cx="523.6842105263158" cy="56.88124670041907" r="2" fill="rgb(0,0,255)"/><circle cx="550.0" cy="56.88124670041907" r="2" fill="rgb(0,0,255)"/><polyline points="50.0,319.66123785699756 76.3157894736842,202.96910933941552 102.63157894736841,218.45347612756922 128.94736842105263,216.6548358943752 155.26315789473682,216.6548358943752 181.57894736842104,216.6548358943752 207.89473684210526,216.6548358943752 234.21052631578945,216.6548358943752 260.52631578947364,216.6548358943752 286.8421052631579,216.6548358943752 313.1578947368421,216.6548358943752 339.4736842105263,216.6548358943752 365.7894736842105,216.6548358943752 392.10526315789474,216.6548358943752 418.4210526315789,216.6548358943752 444.7368421052632,216.6548358943752 471.05263157894734,216.6548358943752 497.36842105263156,216.6548358943752 523.6842105263158,216.6548358943752 550.0,216.6548358943752" fill="none" stroke="rgb(0,255,0)" stroke-width="1"/><circle cx="50.0" cy="319.66123785699756" r="2" fill="rgb(0,255,0)"/><circle cx="76.3157894736842" cy="202.96910933941552" r="2" fill="rgb(0,255,0)"/><circle cx="102.63157894736841" cy="218.45347612756922" r="2" fill="rgb(0,255,0)"/><circle cx="128.94736842105263" cy="216.6548358943752" r="2" fill="rgb(0,255,0)"/><circle cx="155.26315789473682" cy="216.6548358943752" r="2" fill="rgb(0,255,0)"/><circle cx="181.57894736842104" cy="216.6548358943752" r="2" fill="rgb(0,255,0)"/><circle cx="207.89473684210526" cy="216.6548358943752" r="2" fill="rgb(0,255,0)"/><circle cx="234.21052631578945" cy="216.6548358943752" r="2" fill="rgb(0,255,0)"/><circle cx="260.52631578947364" cy="216.6548358943752" r="2" fill="rgb(0,255,0)"/><circle cx="286.8421052631579" cy="216.6548358943752" r="2" fill="rgb(0,255,0)"/><circle cx="313.1578947368421" cy="216.6548358943752" r="2" fill="rgb(0,255,0)"/><circle cx="339.4736842105263" cy="216.6548358943752" r="2" fill="rgb(0,255,0)"/><circle cx="365.7894736842105" cy="216.6548358943752" r="2" fill="rgb(0,255,0)"/><circle cx="392.10526315789474" cy="216.6548358943752" r="2" fill="rgb(0,255,0)"/><circle cx="418.4210526315789" cy="216.6548358943752" r="2" fill="rgb(0,255,0)"/><circle cx="444.7368421052632" cy="216.6548358943752" r="2" fill="rgb(0,255,0)"/><circle cx="471.05263157894734" cy="216.6548358943752" r="2" fill="rgb(0,255,0)"/><circle cx="497.36842105263156" cy="216.6548358943752" r="2" fill="rgb(0,255,0)"/><circle cx="523.6842105263158" cy="216.6548358943752" r="2" fill="rgb(0,255,0)"/><circle cx="550.0" cy="216.6548358943752" r="2" fill="rgb(0,255,0)"/><text x="350.0" y="20.0" text-anchor="middle" fill="rgb(0,0,0)" font-size="20.0">KMeans Mean Centroid Distances</text><text x="350.0" y="575.0" text-anchor="middle" fill="rgb(0,0,0)" font-size="12.0">step</text><text transform="rotate(-90.0 20.0 300.0)" x="20.0" y="300.0" text-anchor="middle" fill="rgb(0,0,0)" font-size="12.0">average distance to centroid</text><text x="620" y="62" fill="rgb(255,0,0)" font-size="12">0</text><text x="620" y="74" fill="rgb(0,0,255)" font-size="12">1</text><text x="620" y="86" fill="rgb(0,255,0)" font-size="12">2</text>
      Sorry, your browser does not support inline SVG.
    </svg>