<?xml version='1.0' encoding='UTF-8'?>
<svg version="1.1" width="700.0" height="600.0" onload="init(evt)" xmlns="http://www.w3.org/2000/svg">
      <style>.caption {
  font-size: 14px;
  font-family: Georgia, serif;
}
</style>
      <script type="text/ecmascript"><![CDATA[
function init(evt) {
  if ( window.svgDocument == null ) {
    svgDocument = evt.target.ownerDocument;
  }
}

function RectHover(evt, i, c) {
  rect = svgDocument.getElementById('rect' + i);
  if( c != null ) {
    rect.setAttributeNS(null, "fill", c)  
  }
  tooltiptext = svgDocument.getElementById('tooltiptext' + i);
  tooltipbg = svgDocument.getElementById('tooltipbg' + i);
  if( tooltipbg != null) {
    tbb = tooltiptext.getBBox();
    tooltipbg.setAttributeNS(null, "width", tbb.width);
    tooltipbg.setAttributeNS(null, "height", tbb.height);
    tooltipbg.setAttributeNS(null, "x", tbb.x);
    tooltipbg.setAttributeNS(null, "y", tbb.y);
    tooltipbg.setAttributeNS(null, "visibility", "visible");
  }
  tooltiptext.setAttributeNS(null,"visibility","visible");
}

function RectUnhover(evt, i, c) {
  rect = svgDocument.getElementById('rect' + i);
  if( c != null ) {
    rect.setAttributeNS(null, "fill", c)  
  }
  tooltiptext = svgDocument.getElementById('tooltiptext' + i);
  tooltiptext.setAttributeNS(null,"visibility","hidden");
  tooltipbg = svgDocument.getElementById('tooltipbg' + i);
  if( tooltipbg != null ) {
    tooltipbg.setAttributeNS(null,"visibility","hidden");
  }
}
]]></script>
      <line x1="50.0" y1="550.0" x2="550.0" y2="550.0" stroke="rgb(0,0,0)" stroke-width="1"/><line x1="50.0" y1="550.0" x2="50.0" y2="50.0" stroke="rgb(0,0,0)" stroke-width="1"/><line x1="50.0" y1="550.0" x2="50.0" y2="50.0" stroke="rgb(192,192,192)" stroke-width="1"/><line x1="50.0" y1="548.0" x2="50.0" y2="552.0" stroke="rgb(192,192,192)" stroke-width="1"/><text text-anchor="middle" alignment-baseline="hanging" x="50.0" y="553.0" font-size="12.0">0</text><line x1="313.1578947368421" y1="550.0" x2="313.1578947368421" y2="50.0" stroke="rgb(192,192,192)" stroke-width="1"/><line x1="313.1578947368421" y1="548.0" x2="313.1578947368421" y2="552.0" stroke="rgb(192,192,192)" stroke-width="1"/><text text-anchor="middle" alignment-baseline="hanging" x="313.1578947368421" y="553.0" font-size="12.0">10</text><line x1="50.0" y1="550.0" x2="550.0" y2="550.0" stroke="rgb(192,192,192)" stroke-width="1"/><text text-anchor="end" alignment-baseline="middle" x="45.0" y="550.0" font-size="12.0">0.00</text><line x1="48.0" y1="550.0" x2="52.0" y2="550.0" stroke="rgb(192,192,192)" stroke-width="1"/><line x1="50.0" y1="508.0178954831426" x2="550.0" y2="508.0178954831426" stroke="rgb(192,192,192)" stroke-width="1"/><text text-anchor="end" alignment-baseline="middle" x="45.0" y="508.0178954831426" font-size="12.0">0.01</text><line x1="48.0" y1="508.0178954831426" x2="52.0" y2="508.0178954831426" stroke="rgb(192,192,192)" stroke-width="1"/><line x1="50.0" y1="466.03579096628516" x2="550.0" y2="466.03579096628516" stroke="rgb(192,192,192)" stroke-width="1"/><text text-anchor="end" alignment-baseline="middle" x="45.0" y="466.03579096628516" font-size="12.0">0.02</text><line x1="48.0" y1="466.03579096628516" x2="52.0" y2="466.03579096628516" stroke="rgb(192,192,192)" stroke-width="1"/><line x1="50.0" y1="424.0536864494278" x2="550.0" y2="424.0536864494278" stroke="rgb(192,192,192)" stroke-width="1"/><text text-anchor="end" alignment-baseline="middle" x="45.0" y="424.0536864494278" font-size="12.0">0.03</text><line x1="48.0" y1="424.0536864494278" x2="52.0" y2="424.0536864494278" stroke="rgb(192,192,192)" stroke-width="1"/><line x1="50.0" y1="382.0715819325703" x2="550.0" y2="382.0715819325703" stroke="rgb(192,192,192)" stroke-width="1"/><text text-anchor="end" alignment-baseline="middle" x="45.0" y="382.0715819325703" font-size="12.0">0.04</text><line x1="48.0" y1="382.0715819325703" x2="52.0" y2="382.0715819325703" stroke="rgb(192,192,192)" stroke-width="1"/><line x1="50.0" y1="340.08947741571296" x2="550.0" y2="340.08947741571296" stroke="rgb(192,192,192)" stroke-width="1"/><text text-anchor="end" alignment-baseline="middle" x="45.0" y="340.08947741571296" font-size="12.0">0.05</text><line x1="48.0" y1="340.08947741571296" x2="52.0" y2="340.08947741571296" stroke="rgb(192,192,192)" stroke-width="1"/><line x1="50.0" y1="298.10737289885554" x2="550.0" y2="298.10737289885554" stroke="rgb(192,192,192)" stroke-width="1"/><text text-anchor="end" alignment-baseline="middle" x="45.0" y="298.10737289885554" font-size="12.0">0.06</text><line x1="48.0" y1="298.10737289885554" x2="52.0" y2="298.10737289885554" stroke="rgb(192,192,192)" stroke-width="1"/><line x1="50.0" y1="256.12526838199807" x2="550.0" y2="256.12526838199807" stroke="rgb(192,192,192)" stroke-width="1"/><text text-anchor="end" alignment-baseline="middle" x="45.0" y="256.12526838199807" font-size="12.0">0.07</text><line x1="48.0" y1="256.12526838199807" x2="52.0" y2="256.12526838199807" stroke="rgb(192,192,192)" stroke-width="1"/><line x1="50.0" y1="214.1431638651407" x2="550.0" y2="214.1431638651407" stroke="rgb(192,192,192)" stroke-width="1"/><text text-anchor="end" alignment-baseline="middle" x="45.0" y="214.1431638651407" font-size="12.0">0.08</text><line x1="48.0" y1="214.1431638651407" x2="52.0" y2="214.1431638651407" stroke="rgb(192,192,192)" stroke-width="1"/><line x1="50.0" y1="172.1610593482833" x2="550.0" y2="172.1610593482833" stroke="rgb(192,192,192)" stroke-width="1"/><text text-anchor="end" alignment-baseline="middle" x="45.0" y="172.1610593482833" font-size="12.0">0.09</text><line x1="48.0" y1="172.1610593482833" x2="52.0" y2="172.1610593482833" stroke="rgb(192,192,192)" stroke-width="1"/><line x1="50.0" y1="130.17895483142587" x2="550.0" y2="130.17895483142587" stroke="rgb(192,192,192)" stroke-width="1"/><text text-anchor="end" alignment-baseline="middle" x="45.0" y="130.17895483142587" font-size="12.0">0.10</text><line x1="48.0" y1="130.17895483142587" x2="52.0" y2="130.17895483142587" stroke="rgb(192,192,192)" stroke-width="1"/><line x1="50.0" y1="88.19685031456851" x2="550.0" y2="88.19685031456851" stroke="rgb(192,192,192)" stroke-width="1"/><text text-anchor="end" alignment-baseline="middle" x="45.0" y="88.19685031456851" font-size="12.0">0.11</text><line x1="48.0" y1="88.19685031456851" x2="52.0" y2="88.19685031456851" stroke="rgb(192,192,192)" stroke-width="1"/><polyline points="50.0,423.37541663043925 76.3157894736842,472.90725258093596 102.63157894736841,472.90725258093596 128.94736842105263,472.90725258093596 155.26315789473682,472.90725258093596 181.57894736842104,472.90725258093596 207.89473684210526,472.90725258093596 234.21052631578945,472.90725258093596 260.52631578947364,472.90725258093596 286.8421052631579,472.90725258093596 313.1578947368421,472.90725258093596 339.4736842105263,472.90725258093596 365.7894736842105,472.90725258093596 392.10526315789474,472.90725258093596 418.4210526315789,472.90725258093596 444.7368421052632,472.90725258093596 471.05263157894734,472.90725258093596 497.36842105263156,472.90725258093596 523.6842105263158,472.90725258093596 550.0,472.90725258093596" fill="none" stroke="rgb(255,0,0)" stroke-width="1"/><circle cx="50.0" cy="423.37541663043925" r="2" fill="rgb(255,0,0)"/><circle cx="76.3157894736842" cy="472.90725258093596" r="2" fill="rgb(255,0,0)"/><circle cx="102.63157894736841" cy="472.90725258093596" r="2" fill="rgb(255,0,0)"/><circle cx="128.94736842105263" cy="472.90725258093596" r="2" fill="rgb(255,0,0)"/><circle cx="155.26315789473682" cy="472.90725258093596" r="2" fill="rgb(255,0,0)"/><circle cx="181.57894736842104" cy="472.90725258093596" r="2" fill="rgb(255,0,0)"/><circle cx="207.89473684210526" cy="472.90725258093596" r="2" fill="rgb(255,0,0)"/><circle cx="234.21052631578945" cy="472.90725258093596" r="2" fill="rgb(255,0,0)"/><circle cx="260.52631578947364" cy="472.90725258093596" r="2" fill="rgb(255,0,0)"/><circle cx="286.8421052631579" cy="472.90725258093596" r="2" fill="rgb(255,0,0)"/><circle cx="313.1578947368421" cy="472.90725258093596" r="2" fill="rgb(255,0,0)"/><circle cx="339.4736842105263" cy="472.90725258093596" r="2" fill="rgb(255,0,0)"/><circle cx="365.7894736842105" cy="472.90725258093596" r="2" fill="rgb(255,0,0)"/><circle cx="392.10526315789474" cy="472.90725258093596" r="2" fill="rgb(255,0,0)"/><circle cx="418.4210526315789" cy="472.90725258093596" r="2" fill="rgb(255,0,0)"/><circle cx="444.7368421052632" cy="472.90725258093596" r="2" fill="rgb(255,0,0)"/><circle cx="471.05263157894734" cy="472.90725258093596" r="2" fill="rgb(255,0,0)"/><circle cx="497.36842105263156" cy="472.90725258093596" r="2" fill="rgb(255,0,0)"/><circle cx="523.6842105263158" cy="472.90725258093596" r="2" fill="rgb(255,0,0)"/><circle cx="550.0" cy="472.90725258093596" r="2" fill="rgb(255,0,0)"/><polyline points="50.0,67.93228415775059 76.3157894736842,50.0 102.63157894736841,50.0 128.94736842105263,50.0 155.26315789473682,50.0 181.57894736842104,50.0 207.89473684210526,50.0 234.21052631578945,50.0 260.52631578947364,50.0 286.8421052631579,50.0 313.1578947368421,50.0 339.4736842105263,50.0 365.7894736842105,50.0 392.10526315789474,50.0 418.4210526315789,50.0 444.7368421052632,50.0 471.05263157894734,50.0 497.36842105263156,50.0 523.6842105263158,50.0 550.0,50.0" fill="none" stroke="rgb(0,0,255)" stroke-width="1"/><circle cx="50.0" cy="67.93228415775059" r="2" fill="rgb(0,0,255)"/><circle cx="76.3157894736842" cy="50.0" r="2" fill="rgb(0,0,255)"/><circle cx="102.63157894736841" cy="50.0" r="2" fill="rgb(0,0,255)"/><circle cx="128.94736842105263" cy="50.0" r="2" fill="rgb(0,0,255)"/><circle cx="155.26315789473682" cy="50.0" r="2" fill="rgb(0,0,255)"/><circle cx="181.57894736842104" cy="50.0" r="2" fill="rgb(0,0,255)"/><circle cx="207.89473684210526" cy="50.0" r="2" fill="rgb(0,0,255)"/><circle cx="234.21052631578945" cy="50.0" r="2" fill="rgb(0,0,255)"/><circle cx="260.52631578947364" cy="50.0" r="2" fill="rgb(0,0,255)"/><circle cx="286.8421052631579" cy="50.0" r="2" fill="rgb(0,0,255)"/><circle cx="313.1578947368421" cy="50.0" r="2" fill="rgb(0,0,255)"/><circle cx="339.4736842105263" cy="50.0" r="2" fill="rgb(0,0,255)"/><circle cx="365.7894736842105" cy="50.0" r="2" fill="rgb(0,0,255)"/><circle cx="392.10526315789474" cy="50.0" r="2" fill="rgb(0,0,255)"/><circle cx="418.4210526315789" cy="50.0" r="2" fill="rgb(0,0,255)"/><circle cx="444.7368421052632" cy="50.0" r="2" fill="rgb(0,0,255)"/><circle cx="471.05263157894734" cy="50.0" r="2" fill="rgb(0,0,255)"/><circle cx="497.36842105263156" cy="50.0" r="2" fill="rgb(0,0,255)"/><circle cx="523.6842105263158" cy="50.0" r="2" fill="rgb(0,0,255)"/><circle cx="550.0" cy="50.0" r="2" fill="rgb(0,0,255)"/><polyline points="50.0,180.4205390843851 76.3157894736842,216.1845828661303 102.63157894736841,216.1845828661303 128.94736842105263,216.1845828661303 155.26315789473682,216.1845828661303 181.57894736842104,216.1845828661303 207.89473684210526,216.1845828661303 234.21052631578945,216.1845828661303 260.52631578947364,216.1845828661303 286.8421052631579,216.1845828661303 313.1578947368421,216.1845828661303 339.4736842105263,216.1845828661303 365.7894736842105,216.1845828661303 392.10526315789474,216.1845828661303 418.4210526315789,216.1845828661303 444.7368421052632,216.1845828661303 471.05263157894734,216.1845828661303 497.36842105263156,216.1845828661303 523.6842105263158,216.1845828661303 550.0,216.1845828661303" fill="none" stroke="rgb(0,255,0)" stroke-width="1"/><circle cx="50.0" cy="180.4205390843851" r="2" fill="rgb(0,255,0)"/><circle cx="76.3157894736842" cy="216.1845828661303" r="2" fill="rgb(0,255,0)"/><circle cx="102.63157894736841" cy="216.1845828661303" r="2" fill="rgb(0,255,0)"/><circle cx="128.94736842105263" cy="216.1845828661303" r="2" fill="rgb(0,255,0)"/><circle cx="155.26315789473682" cy="216.1845828661303" r="2" fill="rgb(0,255,0)"/><circle cx="181.57894736842104" cy="216.1845828661303" r="2" fill="rgb(0,255,0)"/><circle cx="207.89473684210526" cy="216.1845828661303" r="2" fill="rgb(0,255,0)"/><circle cx="234.21052631578945" cy="216.1845828661303" r="2" fill="rgb(0,255,0)"/><circle cx="260.52631578947364" cy="216.1845828661303" r="2" fill="rgb(0,255,0)"/><circle cx="286.8421052631579" cy="216.1845828661303" r="2" fill="rgb(0,255,0)"/><circle cx="313.1578947368421" cy="216.1845828661303" r="2" fill="rgb(0,255,0)"/><circle cx="339.4736842105263" cy="216.1845828661303" r="2" fill="rgb(0,255,0)"/><circle cx="365.7894736842105" cy="216.1845828661303" r="2" fill="rgb(0,255,0)"/><circle cx="392.10526315789474" cy="216.1845828661303" r="2" fill="rgb(0,255,0)"/><circle cx="418.4210526315789" cy="216.1845828661303" r="2" fill="rgb(0,255,0)"/><circle cx="444.7368421052632" cy="216.1845828661303" r="2" fill="rgb(0,255,0)"/><circle cx="471.05263157894734" cy="216.1845828661303" r="2" fill="rgb(0,255,0)"/><circle cx="497.36842105263156" cy="216.1845828661303" r="2" fill="rgb(0,255,0)"/><circle cx="523.6842105263158" cy="216.1845828661303" r="2" fill="rgb(0,255,0)"/><circle cx="550.0" cy="216.1845828661303" r="2" fill="rgb(0,255,0)"/><text x="350.0" y="20.0" text-anchor="middle" fill="rgb(0,0,0)" font-size="20.0">KMeans Mean Centroid Distances</text><text x="350.0" y="575.0" text-anchor="middle" fill="rgb(0,0,0)" font-size="12.0">step</text><text transform="rotate(-90.0 20.0 300.0)" x="20.0" y="300.0" text-anchor="middle" fill="rgb(0,0,0)" font-size="12.0">average distance to centroid</text><text x="620" y="62" fill="rgb(255,0,0)" font-size="12">0</text><text x="620" y="74" fill="rgb(0,0,255)" font-size="12">1</text><text x="620" y="86" fill="rgb(0,255,0)" font-size="12">2</text>
      Sorry, your browser does not support inline SVG.
    </svg>