<?xml version='1.0' encoding='UTF-8'?>
<svg version="1.1" width="700.0" height="600.0" onload="init(evt)" xmlns="http://www.w3.org/2000/svg">
      <style>.caption {
  font-size: 14px;
  font-family: Georgia, serif;
}
</style>
      <script type="text/ecmascript"><![CDATA[
function init(evt) {
  if ( window.svgDocument == null ) {
    svgDocument = evt.target.ownerDocument;
  }
}

function RectHover(evt, i, c) {
  rect = svgDocument.getElementById('rect' + i);
  if( c != null ) {
    rect.setAttributeNS(null, "fill", c)  
  }
  tooltiptext = svgDocument.getElementById('tooltiptext' + i);
  tooltipbg = svgDocument.getElementById('tooltipbg' + i);
  if( tooltipbg != null) {
    tbb = tooltiptext.getBBox();
    tooltipbg.setAttributeNS(null, "width", tbb.width);
    tooltipbg.setAttributeNS(null, "height", tbb.height);
    tooltipbg.setAttributeNS(null, "x", tbb.x);
    tooltipbg.setAttributeNS(null, "y", tbb.y);
    tooltipbg.setAttributeNS(null, "visibility", "visible");
  }
  tooltiptext.setAttributeNS(null,"visibility","visible");
}

function RectUnhover(evt, i, c) {
  rect = svgDocument.getElementById('rect' + i);
  if( c != null ) {
    rect.setAttributeNS(null, "fill", c)  
  }
  tooltiptext = svgDocument.getElementById('tooltiptext' + i);
  tooltiptext.setAttributeNS(null,"visibility","hidden");
  tooltipbg = svgDocument.getElementById('tooltipbg' + i);
  if( tooltipbg != null ) {
    tooltipbg.setAttributeNS(null,"visibility","hidden");
  }
}
]]></script>
      <line x1="50.0" y1="550.0" x2="550.0" y2="550.0" stroke="rgb(0,0,0)" stroke-width="1"/><line x1="50.0" y1="550.0" x2="50.0" y2="50.0" stroke="rgb(0,0,0)" stroke-width="1"/><line x1="50.0" y1="550.0" x2="50.0" y2="50.0" stroke="rgb(192,192,192)" stroke-width="1"/><line x1="50.0" y1="548.0" x2="50.0" y2="552.0" stroke="rgb(192,192,192)" stroke-width="1"/><text text-anchor="middle" alignment-baseline="hanging" x="50.0" y="553.0" font-size="12.0">0</text><line x1="313.1578947368421" y1="550.0" x2="313.1578947368421" y2="50.0" stroke="rgb(192,192,192)" stroke-width="1"/><line x1="313.1578947368421" y1="548.0" x2="313.1578947368421" y2="552.0" stroke="rgb(192,192,192)" stroke-width="1"/><text text-anchor="middle" alignment-baseline="hanging" x="313.1578947368421" y="553.0" font-size="12.0">10</text><line x1="50.0" y1="550.0" x2="550.0" y2="550.0" stroke="rgb(192,192,192)" stroke-width="1"/><text text-anchor="end" alignment-baseline="middle" x="45.0" y="550.0" font-size="12.0">0.00</text><line x1="48.0" y1="550.0" x2="52.0" y2="550.0" stroke="rgb(192,192,192)" stroke-width="1"/><line x1="50.0" y1="521.1862603171603" x2="550.0" y2="521.1862603171603" stroke="rgb(192,192,192)" stroke-width="1"/><text text-anchor="end" alignment-baseline="middle" x="45.0" y="521.1862603171603" font-size="12.0">0.01</text><line x1="48.0" y1="521.1862603171603" x2="52.0" y2="521.1862603171603" stroke="rgb(192,192,192)" stroke-width="1"/><line x1="50.0" y1="492.37252063432067" x2="550.0" y2="492.37252063432067" stroke="rgb(192,192,192)" stroke-width="1"/><text text-anchor="end" alignment-baseline="middle" x="45.0" y="492.37252063432067" font-size="12.0">0.02</text><line x1="48.0" y1="492.37252063432067" x2="52.0" y2="492.37252063432067" stroke="rgb(192,192,192)" stroke-width="1"/><line x1="50.0" y1="463.558780951481" x2="550.0" y2="463.558780951481" stroke="rgb(192,192,192)" stroke-width="1"/><text text-anchor="end" alignment-baseline="middle" x="45.0" y="463.558780951481" font-size="12.0">0.03</text><line x1="48.0" y1="463.558780951481" x2="52.0" y2="463.558780951481" stroke="rgb(192,192,192)" stroke-width="1"/><line x1="50.0" y1="434.74504126864133" x2="550.0" y2="434.74504126864133" stroke="rgb(192,192,192)" stroke-width="1"/><text text-anchor="end" alignment-baseline="middle" x="45.0" y="434.74504126864133" font-size="12.0">0.04</text><line x1="48.0" y1="434.74504126864133" x2="52.0" y2="434.74504126864133" stroke="rgb(192,192,192)" stroke-width="1"/><line x1="50.0" y1="405.9313015858017" x2="550.0" y2="405.9313015858017" stroke="rgb(192,192,192)" stroke-width="1"/><text text-anchor="end" alignment-baseline="middle" x="45.0" y="405.9313015858017" font-size="12.0">0.05</text><line x1="48.0" y1="405.9313015858017" x2="52.0" y2="405.9313015858017" stroke="rgb(192,192,192)" stroke-width="1"/><line x1="50.0" y1="377.11756190296205" x2="550.0" y2="377.11756190296205" stroke="rgb(192,192,192)" stroke-width="1"/><text text-anchor="end" alignment-baseline="middle" x="45.0" y="377.11756190296205" font-size="12.0">0.06</text><line x1="48.0" y1="377.11756190296205" x2="52.0" y2="377.11756190296205" stroke="rgb(192,192,192)" stroke-width="1"/><line x1="50.0" y1="348.30382222012236" x2="550.0" y2="348.30382222012236" stroke="rgb(192,192,192)" stroke-width="1"/><text text-anchor="end" alignment-baseline="middle" x="45.0" y="348.30382222012236" font-size="12.0">0.07</text><line x1="48.0" y1="348.30382222012236" x2="52.0" y2="348.30382222012236" stroke="rgb(192,192,192)" stroke-width="1"/><line x1="50.0" y1="319.4900825372827" x2="550.0" y2="319.4900825372827" stroke="rgb(192,192,192)" stroke-width="1"/><text text-anchor="end" alignment-baseline="middle" x="45.0" y="319.4900825372827" font-size="12.0">0.08</text><line x1="48.0" y1="319.4900825372827" x2="52.0" y2="319.4900825372827" stroke="rgb(192,192,192)" stroke-width="1"/><line x1="50.0" y1="290.6763428544431" x2="550.0" y2="290.6763428544431" stroke="rgb(192,192,192)" stroke-width="1"/><text text-anchor="end" alignment-baseline="middle" x="45.0" y="290.6763428544431" font-size="12.0">0.09</text><line x1="48.0" y1="290.6763428544431" x2="52.0" y2="290.6763428544431" stroke="rgb(192,192,192)" stroke-width="1"/><line x1="50.0" y1="261.8626031716034" x2="550.0" y2="261.8626031716034" stroke="rgb(192,192,192)" stroke-width="1"/><text text-anchor="end" alignment-baseline="middle" x="45.0" y="261.8626031716034" font-size="12.0">0.10</text><line x1="48.0" y1="261.8626031716034" x2="52.0" y2="261.8626031716034" stroke="rgb(192,192,192)" stroke-width="1"/><line x1="50.0" y1="233.0488634887637" x2="550.0" y2="233.0488634887637" stroke="rgb(192,192,192)" stroke-width="1"/><text text-anchor="end" alignment-baseline="middle" x="45.0" y="233.0488634887637" font-size="12.0">0.11</text><line x1="48.0" y1="233.0488634887637" x2="52.0" y2="233.0488634887637" stroke="rgb(192,192,192)" stroke-width="1"/><line x1="50.0" y1="204.2351238059241" x2="550.0" y2="204.2351238059241" stroke="rgb(192,192,192)" stroke-width="1"/><text text-anchor="end" alignment-baseline="middle" x="45.0" y="204.2351238059241" font-size="12.0">0.12</text><line x1="48.0" y1="204.2351238059241" x2="52.0" y2="204.2351238059241" stroke="rgb(192,192,192)" stroke-width="1"/><line x1="50.0" y1="175.4213841230844" x2="550.0" y2="175.4213841230844" stroke="rgb(192,192,192)" stroke-width="1"/><text text-anchor="end" alignment-baseline="middle" x="45.0" y="175.4213841230844" font-size="12.0">0.13</text><line x1="48.0" y1="175.4213841230844" x2="52.0" y2="175.4213841230844" stroke="rgb(192,192,192)" stroke-width="1"/><line x1="50.0" y1="146.60764444024466" x2="550.0" y2="146.60764444024466" stroke="rgb(192,192,192)" stroke-width="1"/><text text-anchor="end" alignment-baseline="middle" x="45.0" y="146.60764444024466" font-size="12.0">0.14</text><line x1="48.0" y1="146.60764444024466" x2="52.0" y2="146.60764444024466" stroke="rgb(192,192,192)" stroke-width="1"/><line x1="50.0" y1="117.79390475740507" x2="550.0" y2="117.79390475740507" stroke="rgb(192,192,192)" stroke-width="1"/><text text-anchor="end" alignment-baseline="middle" x="45.0" y="117.79390475740507" font-size="12.0">0.15</text><line x1="48.0" y1="117.79390475740507" x2="52.0" y2="117.79390475740507" stroke="rgb(192,192,192)" stroke-width="1"/><line x1="50.0" y1="88.98016507456543" x2="550.0" y2="88.98016507456543" stroke="rgb(192,192,192)" stroke-width="1"/><text text-anchor="end" alignment-baseline="middle" x="45.0" y="88.98016507456543" font-size="12.0">0.16</text><line x1="48.0" y1="88.98016507456543" x2="52.0" y2="88.98016507456543" stroke="rgb(192,192,192)" stroke-width="1"/><line x1="50.0" y1="60.16642539172568" x2="550.0" y2="60.16642539172568" stroke="rgb(192,192,192)" stroke-width="1"/><text text-anchor="end" alignment-baseline="middle" x="45.0" y="60.16642539172568" font-size="12.0">0.17</text><line x1="48.0" y1="60.16642539172568" x2="52.0" y2="60.16642539172568" stroke="rgb(192,192,192)" stroke-width="1"/><polyline points="50.0,354.2010226273312 76.3157894736842,467.701400216235 102.63157894736841,502.1101225843534 128.94736842105263,489.3400320227919 155.26315789473682,489.3400320227919 181.57894736842104,489.3400320227919 207.89473684210526,493.30688549166274 234.21052631578945,493.30688549166274 260.52631578947364,493.30688549166274 286.8421052631579,493.30688549166274 313.1578947368421,493.30688549166274 339.4736842105263,493.30688549166274 365.7894736842105,493.30688549166274 392.10526315789474,493.30688549166274 418.4210526315789,493.30688549166274 444.7368421052632,493.30688549166274 471.05263157894734,493.30688549166274 497.36842105263156,493.30688549166274 523.6842105263158,493.30688549166274 550.0,493.30688549166274" fill="none" stroke="rgb(255,0,0)" stroke-width="1"/><circle cx="50.0" cy="354.2010226273312" r="2" fill="rgb(255,0,0)"/><circle cx="76.3157894736842" cy="467.701400216235" r="2" fill="rgb(255,0,0)"/><circle cx="102.63157894736841" cy="502.1101225843534" r="2" fill="rgb(255,0,0)"/><circle cx="128.94736842105263" cy="489.3400320227919" r="2" fill="rgb(255,0,0)"/><circle cx="155.26315789473682" cy="489.3400320227919" r="2" fill="rgb(255,0,0)"/><circle cx="181.57894736842104" cy="489.3400320227919" r="2" fill="rgb(255,0,0)"/><circle cx="207.89473684210526" cy="493.30688549166274" r="2" fill="rgb(255,0,0)"/><circle cx="234.21052631578945" cy="493.30688549166274" r="2" fill="rgb(255,0,0)"/><circle cx="260.52631578947364" cy="493.30688549166274" r="2" fill="rgb(255,0,0)"/><circle cx="286.8421052631579" cy="493.30688549166274" r="2" fill="rgb(255,0,0)"/><circle cx="313.1578947368421" cy="493.30688549166274" r="2" fill="rgb(255,0,0)"/><circle cx="339.4736842105263" cy="493.30688549166274" r="2" fill="rgb(255,0,0)"/><circle cx="365.7894736842105" cy="493.30688549166274" r="2" fill="rgb(255,0,0)"/><circle cx="392.10526315789474" cy="493.30688549166274" r="2" fill="rgb(255,0,0)"/><circle cx="418.4210526315789" cy="493.30688549166274" r="2" fill="rgb(255,0,0)"/><circle cx="444.7368421052632" cy="493.30688549166274" r="2" fill="rgb(255,0,0)"/><circle cx="471.05263157894734" cy="493.30688549166274" r="2" fill="rgb(255,0,0)"/><circle cx="497.36842105263156" cy="493.30688549166274" r="2" fill="rgb(255,0,0)"/><circle cx="523.6842105263158" cy="493.30688549166274" r="2" fill="rgb(255,0,0)"/><circle cx="550.0" cy="493.30688549166274" r="2" fill="rgb(255,0,0)"/><polyline points="50.0,50.0 76.3157894736842,136.12202188016056 102.63157894736841,204.4846560118354 128.94736842105263,213.66474118839744 155.26315789473682,213.66474118839744 181.57894736842104,213.66474118839744 207.89473684210526,207.38802001964046 234.21052631578945,207.38802001964046 260.52631578947364,207.38802001964046 286.8421052631579,207.38802001964046 313.1578947368421,207.38802001964046 339.4736842105263,207.38802001964046 365.7894736842105,207.38802001964046 392.10526315789474,207.38802001964046 418.4210526315789,207.38802001964046 444.7368421052632,207.38802001964046 471.05263157894734,207.38802001964046 497.36842105263156,207.38802001964046 523.6842105263158,207.38802001964046 550.0,207.38802001964046" fill="none" stroke="rgb(0,0,255)" stroke-width="1"/><circle cx="50.0" cy="50.0" r="2" fill="rgb(0,0,255)"/><circle cx="76.3157894736842" cy="136.12202188016056" r="2" fill="rgb(0,0,255)"/><circle cx="102.63157894736841" cy="204.4846560118354" r="2" fill="rgb(0,0,255)"/><circle cx="128.94736842105263" cy="213.66474118839744" r="2" fill="rgb(0,0,255)"/><circle cx="155.26315789473682" cy="213.66474118839744" r="2" fill="rgb(0,0,255)"/><circle cx="181.57894736842104" cy="213.66474118839744" r="2" fill="rgb(0,0,255)"/><circle cx="207.89473684210526" cy="207.38802001964046" r="2" fill="rgb(0,0,255)"/><circle cx="234.21052631578945" cy="207.38802001964046" r="2" fill="rgb(0,0,255)"/><circle cx="260.52631578947364" cy="207.38802001964046" r="2" fill="rgb(0,0,255)"/><circle cx="286.8421052631579" cy="207.38802001964046" r="2" fill="rgb(0,0,255)"/><circle cx="313.1578947368421" cy="207.38802001964046" r="2" fill="rgb(0,0,255)"/><circle cx="339.4736842105263" cy="207.38802001964046" r="2" fill="rgb(0,0,255)"/><circle cx="365.7894736842105" cy="207.38802001964046" r="2" fill="rgb(0,0,255)"/><circle cx="392.10526315789474" cy="207.38802001964046" r="2" fill="rgb(0,0,255)"/><circle cx="418.4210526315789" cy="207.38802001964046" r="2" fill="rgb(0,0,255)"/><circle cx="444.7368421052632" cy="207.38802001964046" r="2" fill="rgb(0,0,255)"/><circle cx="471.05263157894734" cy="207.38802001964046" r="2" fill="rgb(0,0,255)"/><circle cx="497.36842105263156" cy="207.38802001964046" r="2" fill="rgb(0,0,255)"/><circle cx="523.6842105263158" cy="207.38802001964046" r="2" fill="rgb(0,0,255)"/><circle cx="550.0" cy="207.38802001964046" r="2" fill="rgb(0,0,255)"/><polyline points="50.0,72.68995315056992 76.3157894736842,217.46964120773413 102.63157894736841,310.1910048777781 128.94736842105263,328.71866330310235 155.26315789473682,328.71866330310235 181.57894736842104,328.71866330310235 207.89473684210526,324.9716085310908 234.21052631578945,324.9716085310908 260.52631578947364,324.9716085310908 286.8421052631579,324.9716085310908 313.1578947368421,324.9716085310908 339.4736842105263,324.9716085310908 365.7894736842105,324.9716085310908 392.10526315789474,324.9716085310908 418.4210526315789,324.9716085310908 444.7368421052632,324.9716085310908 471.05263157894734,324.9716085310908 497.36842105263156,324.9716085310908 523.6842105263158,324.9716085310908 550.0,324.9716085310908" fill="none" stroke="rgb(0,255,0)" stroke-width="1"/><circle cx="50.0" cy="72.68995315056992" r="2" fill="rgb(0,255,0)"/><circle cx="76.3157894736842" cy="217.46964120773413" r="2" fill="rgb(0,255,0)"/><circle cx="102.63157894736841" cy="310.1910048777781" r="2" fill="rgb(0,255,0)"/><circle cx="128.94736842105263" cy="328.71866330310235" r="2" fill="rgb(0,255,0)"/><circle cx="155.26315789473682" cy="328.71866330310235" r="2" fill="rgb(0,255,0)"/><circle cx="181.57894736842104" cy="328.71866330310235" r="2" fill="rgb(0,255,0)"/><circle cx="207.89473684210526" cy="324.9716085310908" r="2" fill="rgb(0,255,0)"/><circle cx="234.21052631578945" cy="324.9716085310908" r="2" fill="rgb(0,255,0)"/><circle cx="260.52631578947364" cy="324.9716085310908" r="2" fill="rgb(0,255,0)"/><circle cx="286.8421052631579" cy="324.9716085310908" r="2" fill="rgb(0,255,0)"/><circle cx="313.1578947368421" cy="324.9716085310908" r="2" fill="rgb(0,255,0)"/><circle cx="339.4736842105263" cy="324.9716085310908" r="2" fill="rgb(0,255,0)"/><circle cx="365.7894736842105" cy="324.9716085310908" r="2" fill="rgb(0,255,0)"/><circle cx="392.10526315789474" cy="324.9716085310908" r="2" fill="rgb(0,255,0)"/><circle cx="418.4210526315789" cy="324.9716085310908" r="2" fill="rgb(0,255,0)"/><circle cx="444.7368421052632" cy="324.9716085310908" r="2" fill="rgb(0,255,0)"/><circle cx="471.05263157894734" cy="324.9716085310908" r="2" fill="rgb(0,255,0)"/><circle cx="497.36842105263156" cy="324.9716085310908" r="2" fill="rgb(0,255,0)"/><circle cx="523.6842105263158" cy="324.9716085310908" r="2" fill="rgb(0,255,0)"/><circle cx="550.0" cy="324.9716085310908" r="2" fill="rgb(0,255,0)"/><text x="350.0" y="20.0" text-anchor="middle" fill="rgb(0,0,0)" font-size="20.0">KMeans Mean Centroid Distances</text><text x="350.0" y="575.0" text-anchor="middle" fill="rgb(0,0,0)" font-size="12.0">step</text><text transform="rotate(-90.0 20.0 300.0)" x="20.0" y="300.0" text-anchor="middle" fill="rgb(0,0,0)" font-size="12.0">average distance to centroid</text><text x="620" y="62" fill="rgb(255,0,0)" font-size="12">0</text><text x="620" y="74" fill="rgb(0,0,255)" font-size="12">1</text><text x="620" y="86" fill="rgb(0,255,0)" font-size="12">2</text>
      Sorry, your browser does not support inline SVG.
    </svg>