<?xml version='1.0' encoding='UTF-8'?>
<svg version="1.1" width="700.0" height="600.0" onload="init(evt)" xmlns="http://www.w3.org/2000/svg">
      <style>.caption {
  font-size: 14px;
  font-family: Georgia, serif;
}
</style>
      <script type="text/ecmascript"><![CDATA[
function init(evt) {
  if ( window.svgDocument == null ) {
    svgDocument = evt.target.ownerDocument;
  }
}

function RectHover(evt, i, c) {
  rect = svgDocument.getElementById('rect' + i);
  if( c != null ) {
    rect.setAttributeNS(null, "fill", c)  
  }
  tooltiptext = svgDocument.getElementById('tooltiptext' + i);
  tooltipbg = svgDocument.getElementById('tooltipbg' + i);
  if( tooltipbg != null) {
    tbb = tooltiptext.getBBox();
    tooltipbg.setAttributeNS(null, "width", tbb.width);
    tooltipbg.setAttributeNS(null, "height", tbb.height);
    tooltipbg.setAttributeNS(null, "x", tbb.x);
    tooltipbg.setAttributeNS(null, "y", tbb.y);
    tooltipbg.setAttributeNS(null, "visibility", "visible");
  }
  tooltiptext.setAttributeNS(null,"visibility","visible");
}

function RectUnhover(evt, i, c) {
  rect = svgDocument.getElementById('rect' + i);
  if( c != null ) {
    rect.setAttributeNS(null, "fill", c)  
  }
  tooltiptext = svgDocument.getElementById('tooltiptext' + i);
  tooltiptext.setAttributeNS(null,"visibility","hidden");
  tooltipbg = svgDocument.getElementById('tooltipbg' + i);
  if( tooltipbg != null ) {
    tooltipbg.setAttributeNS(null,"visibility","hidden");
  }
}
]]></script>
      <line x1="50.0" y1="550.0" x2="550.0" y2="550.0" stroke="rgb(0,0,0)" stroke-width="1"/><line x1="50.0" y1="550.0" x2="50.0" y2="50.0" stroke="rgb(0,0,0)" stroke-width="1"/><line x1="50.0" y1="550.0" x2="50.0" y2="50.0" stroke="rgb(192,192,192)" stroke-width="1"/><line x1="50.0" y1="548.0" x2="50.0" y2="552.0" stroke="rgb(192,192,192)" stroke-width="1"/><text text-anchor="middle" alignment-baseline="hanging" x="50.0" y="553.0" font-size="12.0">0</text><line x1="313.1578947368421" y1="550.0" x2="313.1578947368421" y2="50.0" stroke="rgb(192,192,192)" stroke-width="1"/><line x1="313.1578947368421" y1="548.0" x2="313.1578947368421" y2="552.0" stroke="rgb(192,192,192)" stroke-width="1"/><text text-anchor="middle" alignment-baseline="hanging" x="313.1578947368421" y="553.0" font-size="12.0">10</text><line x1="50.0" y1="550.0" x2="550.0" y2="550.0" stroke="rgb(192,192,192)" stroke-width="1"/><text text-anchor="end" alignment-baseline="middle" x="45.0" y="550.0" font-size="12.0">0.0</text><line x1="48.0" y1="550.0" x2="52.0" y2="550.0" stroke="rgb(192,192,192)" stroke-width="1"/><line x1="50.0" y1="315.02310745112146" x2="550.0" y2="315.02310745112146" stroke="rgb(192,192,192)" stroke-width="1"/><text text-anchor="end" alignment-baseline="middle" x="45.0" y="315.02310745112146" font-size="12.0">0.1</text><line x1="48.0" y1="315.02310745112146" x2="52.0" y2="315.02310745112146" stroke="rgb(192,192,192)" stroke-width="1"/><line x1="50.0" y1="80.04621490224292" x2="550.0" y2="80.04621490224292" stroke="rgb(192,192,192)" stroke-width="1"/><text text-anchor="end" alignment-baseline="middle" x="45.0" y="80.04621490224292" font-size="12.0">0.2</text><line x1="48.0" y1="80.04621490224292" x2="52.0" y2="80.04621490224292" stroke="rgb(192,192,192)" stroke-width="1"/><polyline points="50.0,50.0 76.3157894736842,298.99853720172155 102.63157894736841,433.4924833988835 128.94736842105263,518.8375041752497 155.26315789473682,543.1255858477266 181.57894736842104,537.0467091431557 207.89473684210526,525.780355199725 234.21052631578945,506.8506285355148 260.52631578947364,506.8506285355148 286.8421052631579,503.76659877294355 313.1578947368421,503.76659877294355 339.4736842105263,503.76659877294355 365.7894736842105,503.76659877294355 392.10526315789474,503.76659877294355 418.4210526315789,503.76659877294355 444.7368421052632,503.76659877294355 471.05263157894734,503.76659877294355 497.36842105263156,503.76659877294355 523.6842105263158,503.76659877294355 550.0,503.76659877294355" fill="none" stroke="rgb(255,0,0)" stroke-width="1"/><circle cx="50.0" cy="50.0" r="2" fill="rgb(255,0,0)"/><circle cx="76.3157894736842" cy="298.99853720172155" r="2" fill="rgb(255,0,0)"/><circle cx="102.63157894736841" cy="433.4924833988835" r="2" fill="rgb(255,0,0)"/><circle cx="128.94736842105263" cy="518.8375041752497" r="2" fill="rgb(255,0,0)"/><circle cx="155.26315789473682" cy="543.1255858477266" r="2" fill="rgb(255,0,0)"/><circle cx="181.57894736842104" cy="537.0467091431557" r="2" fill="rgb(255,0,0)"/><circle cx="207.89473684210526" cy="525.780355199725" r="2" fill="rgb(255,0,0)"/><circle cx="234.21052631578945" cy="506.8506285355148" r="2" fill="rgb(255,0,0)"/><circle cx="260.52631578947364" cy="506.8506285355148" r="2" fill="rgb(255,0,0)"/><circle cx="286.8421052631579" cy="503.76659877294355" r="2" fill="rgb(255,0,0)"/><circle cx="313.1578947368421" cy="503.76659877294355" r="2" fill="rgb(255,0,0)"/><circle cx="339.4736842105263" cy="503.76659877294355" r="2" fill="rgb(255,0,0)"/><circle cx="365.7894736842105" cy="503.76659877294355" r="2" fill="rgb(255,0,0)"/><circle cx="392.10526315789474" cy="503.76659877294355" r="2" fill="rgb(255,0,0)"/><circle cx="418.4210526315789" cy="503.76659877294355" r="2" fill="rgb(255,0,0)"/><circle cx="444.7368421052632" cy="503.76659877294355" r="2" fill="rgb(255,0,0)"/><circle cx="471.05263157894734" cy="503.76659877294355" r="2" fill="rgb(255,0,0)"/><circle cx="497.36842105263156" cy="503.76659877294355" r="2" fill="rgb(255,0,0)"/><circle cx="523.6842105263158" cy="503.76659877294355" r="2" fill="rgb(255,0,0)"/><circle cx="550.0" cy="503.76659877294355" r="2" fill="rgb(255,0,0)"/><polyline points="50.0,252.61083623577588 76.3157894736842,385.2068515389931 102.63157894736841,314.59977066382896 128.94736842105263,272.34175926405277 155.26315789473682,249.24782590819228 181.57894736842104,237.64219510893884 207.89473684210526,250.50677924332012 234.21052631578945,270.1463632504102 260.52631578947364,270.1463632504102 286.8421052631579,270.5989250546688 313.1578947368421,270.5989250546688 339.4736842105263,270.5989250546688 365.7894736842105,270.5989250546688 392.10526315789474,270.5989250546688 418.4210526315789,270.5989250546688 444.7368421052632,270.5989250546688 471.05263157894734,270.5989250546688 497.36842105263156,270.5989250546688 523.6842105263158,270.5989250546688 550.0,270.5989250546688" fill="none" stroke="rgb(0,0,255)" stroke-width="1"/><circle cx="50.0" cy="252.61083623577588" r="2" fill="rgb(0,0,255)"/><circle cx="76.3157894736842" cy="385.2068515389931" r="2" fill="rgb(0,0,255)"/><circle cx="102.63157894736841" cy="314.59977066382896" r="2" fill="rgb(0,0,255)"/><circle cx="128.94736842105263" cy="272.34175926405277" r="2" fill="rgb(0,0,255)"/><circle cx="155.26315789473682" cy="249.24782590819228" r="2" fill="rgb(0,0,255)"/><circle cx="181.57894736842104" cy="237.64219510893884" r="2" fill="rgb(0,0,255)"/><circle cx="207.89473684210526" cy="250.50677924332012" r="2" fill="rgb(0,0,255)"/><circle cx="234.21052631578945" cy="270.1463632504102" r="2" fill="rgb(0,0,255)"/><circle cx="260.52631578947364" cy="270.1463632504102" r="2" fill="rgb(0,0,255)"/><circle cx="286.8421052631579" cy="270.5989250546688" r="2" fill="rgb(0,0,255)"/><circle cx="313.1578947368421" cy="270.5989250546688" r="2" fill="rgb(0,0,255)"/><circle cx="339.4736842105263" cy="270.5989250546688" r="2" fill="rgb(0,0,255)"/><circle cx="365.7894736842105" cy="270.5989250546688" r="2" fill="rgb(0,0,255)"/><circle cx="392.10526315789474" cy="270.5989250546688" r="2" fill="rgb(0,0,255)"/><circle cx="418.4210526315789" cy="270.5989250546688" r="2" fill="rgb(0,0,255)"/><circle cx="444.7368421052632" cy="270.5989250546688" r="2" fill="rgb(0,0,255)"/><circle cx="471.05263157894734" cy="270.5989250546688" r="2" fill="rgb(0,0,255)"/><circle cx="497.36842105263156" cy="270.5989250546688" r="2" fill="rgb(0,0,255)"/><circle cx="523.6842105263158" cy="270.5989250546688" r="2" fill="rgb(0,0,255)"/><circle cx="550.0" cy="270.5989250546688" r="2" fill="rgb(0,0,255)"/><polyline points="50.0,118.60587362053298 76.3157894736842,245.51827909740314 102.63157894736841,258.640710291687 128.94736842105263,292.99966350005826 155.26315789473682,322.86889272878597 181.57894736842104,331.4518077334699 207.89473684210526,344.41278004584 234.21052631578945,363.1610830240105 260.52631578947364,363.1610830240105 286.8421052631579,366.48868649240967 313.1578947368421,366.48868649240967 339.4736842105263,366.48868649240967 365.7894736842105,366.48868649240967 392.10526315789474,366.48868649240967 418.4210526315789,366.48868649240967 444.7368421052632,366.48868649240967 471.05263157894734,366.48868649240967 497.36842105263156,366.48868649240967 523.6842105263158,366.48868649240967 550.0,366.48868649240967" fill="none" stroke="rgb(0,255,0)" stroke-width="1"/><circle cx="50.0" cy="118.60587362053298" r="2" fill="rgb(0,255,0)"/><circle cx="76.3157894736842" cy="245.51827909740314" r="2" fill="rgb(0,255,0)"/><circle cx="102.63157894736841" cy="258.640710291687" r="2" fill="rgb(0,255,0)"/><circle cx="128.94736842105263" cy="292.99966350005826" r="2" fill="rgb(0,255,0)"/><circle cx="155.26315789473682" cy="322.86889272878597" r="2" fill="rgb(0,255,0)"/><circle cx="181.57894736842104" cy="331.4518077334699" r="2" fill="rgb(0,255,0)"/><circle cx="207.89473684210526" cy="344.41278004584" r="2" fill="rgb(0,255,0)"/><circle cx="234.21052631578945" cy="363.1610830240105" r="2" fill="rgb(0,255,0)"/><circle cx="260.52631578947364" cy="363.1610830240105" r="2" fill="rgb(0,255,0)"/><circle cx="286.8421052631579" cy="366.48868649240967" r="2" fill="rgb(0,255,0)"/><circle cx="313.1578947368421" cy="366.48868649240967" r="2" fill="rgb(0,255,0)"/><circle cx="339.4736842105263" cy="366.48868649240967" r="2" fill="rgb(0,255,0)"/><circle cx="365.7894736842105" cy="366.48868649240967" r="2" fill="rgb(0,255,0)"/><circle cx="392.10526315789474" cy="366.48868649240967" r="2" fill="rgb(0,255,0)"/><circle cx="418.4210526315789" cy="366.48868649240967" r="2" fill="rgb(0,255,0)"/><circle cx="444.7368421052632" cy="366.48868649240967" r="2" fill="rgb(0,255,0)"/><circle cx="471.05263157894734" cy="366.48868649240967" r="2" fill="rgb(0,255,0)"/><circle cx="497.36842105263156" cy="366.48868649240967" r="2" fill="rgb(0,255,0)"/><circle cx="523.6842105263158" cy="366.48868649240967" r="2" fill="rgb(0,255,0)"/><circle cx="550.0" cy="366.48868649240967" r="2" fill="rgb(0,255,0)"/><text x="350.0" y="20.0" text-anchor="middle" fill="rgb(0,0,0)" font-size="20.0">KMeans Mean Centroid Distances</text><text x="350.0" y="575.0" text-anchor="middle" fill="rgb(0,0,0)" font-size="12.0">step</text><text transform="rotate(-90.0 20.0 300.0)" x="20.0" y="300.0" text-anchor="middle" fill="rgb(0,0,0)" font-size="12.0">average distance to centroid</text><text x="620" y="62" fill="rgb(255,0,0)" font-size="12">0</text><text x="620" y="74" fill="rgb(0,0,255)" font-size="12">1</text><text x="620" y="86" fill="rgb(0,255,0)" font-size="12">2</text>
      Sorry, your browser does not support inline SVG.
    </svg>