<?xml version='1.0' encoding='UTF-8'?>
<svg version="1.1" width="700.0" height="600.0" onload="init(evt)" xmlns="http://www.w3.org/2000/svg">
      <style>.caption {
  font-size: 14px;
  font-family: Georgia, serif;
}
</style>
      <script type="text/ecmascript"><![CDATA[
function init(evt) {
  if ( window.svgDocument == null ) {
    svgDocument = evt.target.ownerDocument;
  }
}

function RectHover(evt, i, c) {
  rect = svgDocument.getElementById('rect' + i);
  if( c != null ) {
    rect.setAttributeNS(null, "fill", c)  
  }
  tooltiptext = svgDocument.getElementById('tooltiptext' + i);
  tooltipbg = svgDocument.getElementById('tooltipbg' + i);
  if( tooltipbg != null) {
    tbb = tooltiptext.getBBox();
    tooltipbg.setAttributeNS(null, "width", tbb.width);
    tooltipbg.setAttributeNS(null, "height", tbb.height);
    tooltipbg.setAttributeNS(null, "x", tbb.x);
    tooltipbg.setAttributeNS(null, "y", tbb.y);
    tooltipbg.setAttributeNS(null, "visibility", "visible");
  }
  tooltiptext.setAttributeNS(null,"visibility","visible");
}

function RectUnhover(evt, i, c) {
  rect = svgDocument.getElementById('rect' + i);
  if( c != null ) {
    rect.setAttributeNS(null, "fill", c)  
  }
  tooltiptext = svgDocument.getElementById('tooltiptext' + i);
  tooltiptext.setAttributeNS(null,"visibility","hidden");
  tooltipbg = svgDocument.getElementById('tooltipbg' + i);
  if( tooltipbg != null ) {
    tooltipbg.setAttributeNS(null,"visibility","hidden");
  }
}
]]></script>
      <line x1="50.0" y1="550.0" x2="550.0" y2="550.0" stroke="rgb(0,0,0)" stroke-width="1"/><line x1="50.0" y1="550.0" x2="50.0" y2="50.0" stroke="rgb(0,0,0)" stroke-width="1"/><line x1="50.0" y1="550.0" x2="50.0" y2="50.0" stroke="rgb(192,192,192)" stroke-width="1"/><line x1="50.0" y1="548.0" x2="50.0" y2="552.0" stroke="rgb(192,192,192)" stroke-width="1"/><text text-anchor="middle" alignment-baseline="hanging" x="50.0" y="553.0" font-size="12.0">0</text><line x1="313.1578947368421" y1="550.0" x2="313.1578947368421" y2="50.0" stroke="rgb(192,192,192)" stroke-width="1"/><line x1="313.1578947368421" y1="548.0" x2="313.1578947368421" y2="552.0" stroke="rgb(192,192,192)" stroke-width="1"/><text text-anchor="middle" alignment-baseline="hanging" x="313.1578947368421" y="553.0" font-size="12.0">10</text><line x1="50.0" y1="550.0" x2="550.0" y2="550.0" stroke="rgb(192,192,192)" stroke-width="1"/><text text-anchor="end" alignment-baseline="middle" x="45.0" y="550.0" font-size="12.0">0.0</text><line x1="48.0" y1="550.0" x2="52.0" y2="550.0" stroke="rgb(192,192,192)" stroke-width="1"/><line x1="50.0" y1="348.4622999015422" x2="550.0" y2="348.4622999015422" stroke="rgb(192,192,192)" stroke-width="1"/><text text-anchor="end" alignment-baseline="middle" x="45.0" y="348.4622999015422" font-size="12.0">0.1</text><line x1="48.0" y1="348.4622999015422" x2="52.0" y2="348.4622999015422" stroke="rgb(192,192,192)" stroke-width="1"/><line x1="50.0" y1="146.9245998030844" x2="550.0" y2="146.9245998030844" stroke="rgb(192,192,192)" stroke-width="1"/><text text-anchor="end" alignment-baseline="middle" x="45.0" y="146.9245998030844" font-size="12.0">0.2</text><line x1="48.0" y1="146.9245998030844" x2="52.0" y2="146.9245998030844" stroke="rgb(192,192,192)" stroke-width="1"/><polyline points="50.0,50.0 76.3157894736842,306.0350972613012 102.63157894736841,402.210328004432 128.94736842105263,475.90402519642976 155.26315789473682,501.7889573148292 181.57894736842104,509.715000883674 207.89473684210526,510.34600147292383 234.21052631578945,510.34600147292383 260.52631578947364,510.34600147292383 286.8421052631579,510.34600147292383 313.1578947368421,510.34600147292383 339.4736842105263,510.34600147292383 365.7894736842105,510.34600147292383 392.10526315789474,510.34600147292383 418.4210526315789,510.34600147292383 444.7368421052632,510.34600147292383 471.05263157894734,510.34600147292383 497.36842105263156,510.34600147292383 523.6842105263158,510.34600147292383 550.0,510.34600147292383" fill="none" stroke="rgb(255,0,0)" stroke-width="1"/><circle cx="50.0" cy="50.0" r="2" fill="rgb(255,0,0)"/><circle cx="76.3157894736842" cy="306.0350972613012" r="2" fill="rgb(255,0,0)"/><circle cx="102.63157894736841" cy="402.210328004432" r="2" fill="rgb(255,0,0)"/><circle cx="128.94736842105263" cy="475.90402519642976" r="2" fill="rgb(255,0,0)"/><circle cx="155.26315789473682" cy="501.7889573148292" r="2" fill="rgb(255,0,0)"/><circle cx="181.57894736842104" cy="509.715000883674" r="2" fill="rgb(255,0,0)"/><circle cx="207.89473684210526" cy="510.34600147292383" r="2" fill="rgb(255,0,0)"/><circle cx="234.21052631578945" cy="510.34600147292383" r="2" fill="rgb(255,0,0)"/><circle cx="260.52631578947364" cy="510.34600147292383" r="2" fill="rgb(255,0,0)"/><circle cx="286.8421052631579" cy="510.34600147292383" r="2" fill="rgb(255,0,0)"/><circle cx="313.1578947368421" cy="510.34600147292383" r="2" fill="rgb(255,0,0)"/><circle cx="339.4736842105263" cy="510.34600147292383" r="2" fill="rgb(255,0,0)"/><circle cx="365.7894736842105" cy="510.34600147292383" r="2" fill="rgb(255,0,0)"/><circle cx="392.10526315789474" cy="510.34600147292383" r="2" fill="rgb(255,0,0)"/><circle cx="418.4210526315789" cy="510.34600147292383" r="2" fill="rgb(255,0,0)"/><circle cx="444.7368421052632" cy="510.34600147292383" r="2" fill="rgb(255,0,0)"/><circle cx="471.05263157894734" cy="510.34600147292383" r="2" fill="rgb(255,0,0)"/><circle cx="497.36842105263156" cy="510.34600147292383" r="2" fill="rgb(255,0,0)"/><circle cx="523.6842105263158" cy="510.34600147292383" r="2" fill="rgb(255,0,0)"/><circle cx="550.0" cy="510.34600147292383" r="2" fill="rgb(255,0,0)"/><polyline points="50.0,200.27500366693846 76.3157894736842,330.95863991093063 102.63157894736841,353.0369078440504 128.94736842105263,338.2181178602493 155.26315789473682,322.89177792959384 181.57894736842104,314.2208596085975 207.89473684210526,310.36005311541163 234.21052631578945,310.36005311541163 260.52631578947364,310.36005311541163 286.8421052631579,310.36005311541163 313.1578947368421,310.36005311541163 339.4736842105263,310.36005311541163 365.7894736842105,310.36005311541163 392.10526315789474,310.36005311541163 418.4210526315789,310.36005311541163 444.7368421052632,310.36005311541163 471.05263157894734,310.36005311541163 497.36842105263156,310.36005311541163 523.6842105263158,310.36005311541163 550.0,310.36005311541163" fill="none" stroke="rgb(0,0,255)" stroke-width="1"/><circle cx="50.0" cy="200.27500366693846" r="2" fill="rgb(0,0,255)"/><circle cx="76.3157894736842" cy="330.95863991093063" r="2" fill="rgb(0,0,255)"/><circle cx="102.63157894736841" cy="353.0369078440504" r="2" fill="rgb(0,0,255)"/><circle cx="128.94736842105263" cy="338.2181178602493" r="2" fill="rgb(0,0,255)"/><circle cx="155.26315789473682" cy="322.89177792959384" r="2" fill="rgb(0,0,255)"/><circle cx="181.57894736842104" cy="314.2208596085975" r="2" fill="rgb(0,0,255)"/><circle cx="207.89473684210526" cy="310.36005311541163" r="2" fill="rgb(0,0,255)"/><circle cx="234.21052631578945" cy="310.36005311541163" r="2" fill="rgb(0,0,255)"/><circle cx="260.52631578947364" cy="310.36005311541163" r="2" fill="rgb(0,0,255)"/><circle cx="286.8421052631579" cy="310.36005311541163" r="2" fill="rgb(0,0,255)"/><circle cx="313.1578947368421" cy="310.36005311541163" r="2" fill="rgb(0,0,255)"/><circle cx="339.4736842105263" cy="310.36005311541163" r="2" fill="rgb(0,0,255)"/><circle cx="365.7894736842105" cy="310.36005311541163" r="2" fill="rgb(0,0,255)"/><circle cx="392.10526315789474" cy="310.36005311541163" r="2" fill="rgb(0,0,255)"/><circle cx="418.4210526315789" cy="310.36005311541163" r="2" fill="rgb(0,0,255)"/><circle cx="444.7368421052632" cy="310.36005311541163" r="2" fill="rgb(0,0,255)"/><circle cx="471.05263157894734" cy="310.36005311541163" r="2" fill="rgb(0,0,255)"/><circle cx="497.36842105263156" cy="310.36005311541163" r="2" fill="rgb(0,0,255)"/><circle cx="523.6842105263158" cy="310.36005311541163" r="2" fill="rgb(0,0,255)"/><circle cx="550.0" cy="310.36005311541163" r="2" fill="rgb(0,0,255)"/><polyline points="50.0,95.16835181277162 76.3157894736842,286.2990023363755 102.63157894736841,355.6536122055927 128.94736842105263,390.04194247979535 155.26315789473682,393.84807866424046 181.57894736842104,392.2464376851267 207.89473684210526,392.603893237402 234.21052631578945,392.603893237402 260.52631578947364,392.603893237402 286.8421052631579,392.603893237402 313.1578947368421,392.603893237402 339.4736842105263,392.603893237402 365.7894736842105,392.603893237402 392.10526315789474,392.603893237402 418.4210526315789,392.603893237402 444.7368421052632,392.603893237402 471.05263157894734,392.603893237402 497.36842105263156,392.603893237402 523.6842105263158,392.603893237402 550.0,392.603893237402" fill="none" stroke="rgb(0,255,0)" stroke-width="1"/><circle cx="50.0" cy="95.16835181277162" r="2" fill="rgb(0,255,0)"/><circle cx="76.3157894736842" cy="286.2990023363755" r="2" fill="rgb(0,255,0)"/><circle cx="102.63157894736841" cy="355.6536122055927" r="2" fill="rgb(0,255,0)"/><circle cx="128.94736842105263" cy="390.04194247979535" r="2" fill="rgb(0,255,0)"/><circle cx="155.26315789473682" cy="393.84807866424046" r="2" fill="rgb(0,255,0)"/><circle cx="181.57894736842104" cy="392.2464376851267" r="2" fill="rgb(0,255,0)"/><circle cx="207.89473684210526" cy="392.603893237402" r="2" fill="rgb(0,255,0)"/><circle cx="234.21052631578945" cy="392.603893237402" r="2" fill="rgb(0,255,0)"/><circle cx="260.52631578947364" cy="392.603893237402" r="2" fill="rgb(0,255,0)"/><circle cx="286.8421052631579" cy="392.603893237402" r="2" fill="rgb(0,255,0)"/><circle cx="313.1578947368421" cy="392.603893237402" r="2" fill="rgb(0,255,0)"/><circle cx="339.4736842105263" cy="392.603893237402" r="2" fill="rgb(0,255,0)"/><circle cx="365.7894736842105" cy="392.603893237402" r="2" fill="rgb(0,255,0)"/><circle cx="392.10526315789474" cy="392.603893237402" r="2" fill="rgb(0,255,0)"/><circle cx="418.4210526315789" cy="392.603893237402" r="2" fill="rgb(0,255,0)"/><circle cx="444.7368421052632" cy="392.603893237402" r="2" fill="rgb(0,255,0)"/><circle cx="471.05263157894734" cy="392.603893237402" r="2" fill="rgb(0,255,0)"/><circle cx="497.36842105263156" cy="392.603893237402" r="2" fill="rgb(0,255,0)"/><circle cx="523.6842105263158" cy="392.603893237402" r="2" fill="rgb(0,255,0)"/><circle cx="550.0" cy="392.603893237402" r="2" fill="rgb(0,255,0)"/><text x="350.0" y="20.0" text-anchor="middle" fill="rgb(0,0,0)" font-size="20.0">KMeans Mean Centroid Distances</text><text x="350.0" y="575.0" text-anchor="middle" fill="rgb(0,0,0)" font-size="12.0">step</text><text transform="rotate(-90.0 20.0 300.0)" x="20.0" y="300.0" text-anchor="middle" fill="rgb(0,0,0)" font-size="12.0">average distance to centroid</text><text x="620" y="62" fill="rgb(255,0,0)" font-size="12">0</text><text x="620" y="74" fill="rgb(0,0,255)" font-size="12">1</text><text x="620" y="86" fill="rgb(0,255,0)" font-size="12">2</text>
      Sorry, your browser does not support inline SVG.
    </svg>