<?xml version='1.0' encoding='UTF-8'?>
<svg version="1.1" width="700.0" height="600.0" onload="init(evt)" xmlns="http://www.w3.org/2000/svg">
      <style>.caption {
  font-size: 14px;
  font-family: Georgia, serif;
}
</style>
      <script type="text/ecmascript"><![CDATA[
function init(evt) {
  if ( window.svgDocument == null ) {
    svgDocument = evt.target.ownerDocument;
  }
}

function RectHover(evt, i, c) {
  rect = svgDocument.getElementById('rect' + i);
  if( c != null ) {
    rect.setAttributeNS(null, "fill", c)  
  }
  tooltiptext = svgDocument.getElementById('tooltiptext' + i);
  tooltipbg = svgDocument.getElementById('tooltipbg' + i);
  if( tooltipbg != null) {
    tbb = tooltiptext.getBBox();
    tooltipbg.setAttributeNS(null, "width", tbb.width);
    tooltipbg.setAttributeNS(null, "height", tbb.height);
    tooltipbg.setAttributeNS(null, "x", tbb.x);
    tooltipbg.setAttributeNS(null, "y", tbb.y);
    tooltipbg.setAttributeNS(null, "visibility", "visible");
  }
  tooltiptext.setAttributeNS(null,"visibility","visible");
}

function RectUnhover(evt, i, c) {
  rect = svgDocument.getElementById('rect' + i);
  if( c != null ) {
    rect.setAttributeNS(null, "fill", c)  
  }
  tooltiptext = svgDocument.getElementById('tooltiptext' + i);
  tooltiptext.setAttributeNS(null,"visibility","hidden");
  tooltipbg = svgDocument.getElementById('tooltipbg' + i);
  if( tooltipbg != null ) {
    tooltipbg.setAttributeNS(null,"visibility","hidden");
  }
}
]]></script>
      <line x1="50.0" y1="550.0" x2="550.0" y2="550.0" stroke="rgb(0,0,0)" stroke-width="1"/><line x1="50.0" y1="550.0" x2="50.0" y2="50.0" stroke="rgb(0,0,0)" stroke-width="1"/><line x1="50.0" y1="550.0" x2="50.0" y2="50.0" stroke="rgb(192,192,192)" stroke-width="1"/><line x1="50.0" y1="548.0" x2="50.0" y2="552.0" stroke="rgb(192,192,192)" stroke-width="1"/><text text-anchor="middle" alignment-baseline="hanging" x="50.0" y="553.0" font-size="12.0">0</text><line x1="313.1578947368421" y1="550.0" x2="313.1578947368421" y2="50.0" stroke="rgb(192,192,192)" stroke-width="1"/><line x1="313.1578947368421" y1="548.0" x2="313.1578947368421" y2="552.0" stroke="rgb(192,192,192)" stroke-width="1"/><text text-anchor="middle" alignment-baseline="hanging" x="313.1578947368421" y="553.0" font-size="12.0">10</text><line x1="50.0" y1="550.0" x2="550.0" y2="550.0" stroke="rgb(192,192,192)" stroke-width="1"/><text text-anchor="end" alignment-baseline="middle" x="45.0" y="550.0" font-size="12.0">0.00</text><line x1="48.0" y1="550.0" x2="52.0" y2="550.0" stroke="rgb(192,192,192)" stroke-width="1"/><line x1="50.0" y1="514.2956491844595" x2="550.0" y2="514.2956491844595" stroke="rgb(192,192,192)" stroke-width="1"/><text text-anchor="end" alignment-baseline="middle" x="45.0" y="514.2956491844595" font-size="12.0">0.01</text><line x1="48.0" y1="514.2956491844595" x2="52.0" y2="514.2956491844595" stroke="rgb(192,192,192)" stroke-width="1"/><line x1="50.0" y1="478.59129836891896" x2="550.0" y2="478.59129836891896" stroke="rgb(192,192,192)" stroke-width="1"/><text text-anchor="end" alignment-baseline="middle" x="45.0" y="478.59129836891896" font-size="12.0">0.02</text><line x1="48.0" y1="478.59129836891896" x2="52.0" y2="478.59129836891896" stroke="rgb(192,192,192)" stroke-width="1"/><line x1="50.0" y1="442.88694755337843" x2="550.0" y2="442.88694755337843" stroke="rgb(192,192,192)" stroke-width="1"/><text text-anchor="end" alignment-baseline="middle" x="45.0" y="442.88694755337843" font-size="12.0">0.03</text><line x1="48.0" y1="442.88694755337843" x2="52.0" y2="442.88694755337843" stroke="rgb(192,192,192)" stroke-width="1"/><line x1="50.0" y1="407.1825967378379" x2="550.0" y2="407.1825967378379" stroke="rgb(192,192,192)" stroke-width="1"/><text text-anchor="end" alignment-baseline="middle" x="45.0" y="407.1825967378379" font-size="12.0">0.04</text><line x1="48.0" y1="407.1825967378379" x2="52.0" y2="407.1825967378379" stroke="rgb(192,192,192)" stroke-width="1"/><line x1="50.0" y1="371.47824592229733" x2="550.0" y2="371.47824592229733" stroke="rgb(192,192,192)" stroke-width="1"/><text text-anchor="end" alignment-baseline="middle" x="45.0" y="371.47824592229733" font-size="12.0">0.05</text><line x1="48.0" y1="371.47824592229733" x2="52.0" y2="371.47824592229733" stroke="rgb(192,192,192)" stroke-width="1"/><line x1="50.0" y1="335.77389510675687" x2="550.0" y2="335.77389510675687" stroke="rgb(192,192,192)" stroke-width="1"/><text text-anchor="end" alignment-baseline="middle" x="45.0" y="335.77389510675687" font-size="12.0">0.06</text><line x1="48.0" y1="335.77389510675687" x2="52.0" y2="335.77389510675687" stroke="rgb(192,192,192)" stroke-width="1"/><line x1="50.0" y1="300.06954429121635" x2="550.0" y2="300.06954429121635" stroke="rgb(192,192,192)" stroke-width="1"/><text text-anchor="end" alignment-baseline="middle" x="45.0" y="300.06954429121635" font-size="12.0">0.07</text><line x1="48.0" y1="300.06954429121635" x2="52.0" y2="300.06954429121635" stroke="rgb(192,192,192)" stroke-width="1"/><line x1="50.0" y1="264.3651934756758" x2="550.0" y2="264.3651934756758" stroke="rgb(192,192,192)" stroke-width="1"/><text text-anchor="end" alignment-baseline="middle" x="45.0" y="264.3651934756758" font-size="12.0">0.08</text><line x1="48.0" y1="264.3651934756758" x2="52.0" y2="264.3651934756758" stroke="rgb(192,192,192)" stroke-width="1"/><line x1="50.0" y1="228.6608426601353" x2="550.0" y2="228.6608426601353" stroke="rgb(192,192,192)" stroke-width="1"/><text text-anchor="end" alignment-baseline="middle" x="45.0" y="228.6608426601353" font-size="12.0">0.09</text><line x1="48.0" y1="228.6608426601353" x2="52.0" y2="228.6608426601353" stroke="rgb(192,192,192)" stroke-width="1"/><line x1="50.0" y1="192.95649184459472" x2="550.0" y2="192.95649184459472" stroke="rgb(192,192,192)" stroke-width="1"/><text text-anchor="end" alignment-baseline="middle" x="45.0" y="192.95649184459472" font-size="12.0">0.10</text><line x1="48.0" y1="192.95649184459472" x2="52.0" y2="192.95649184459472" stroke="rgb(192,192,192)" stroke-width="1"/><line x1="50.0" y1="157.25214102905426" x2="550.0" y2="157.25214102905426" stroke="rgb(192,192,192)" stroke-width="1"/><text text-anchor="end" alignment-baseline="middle" x="45.0" y="157.25214102905426" font-size="12.0">0.11</text><line x1="48.0" y1="157.25214102905426" x2="52.0" y2="157.25214102905426" stroke="rgb(192,192,192)" stroke-width="1"/><line x1="50.0" y1="121.54779021351374" x2="550.0" y2="121.54779021351374" stroke="rgb(192,192,192)" stroke-width="1"/><text text-anchor="end" alignment-baseline="middle" x="45.0" y="121.54779021351374" font-size="12.0">0.12</text><line x1="48.0" y1="121.54779021351374" x2="52.0" y2="121.54779021351374" stroke="rgb(192,192,192)" stroke-width="1"/><line x1="50.0" y1="85.84343939797321" x2="550.0" y2="85.84343939797321" stroke="rgb(192,192,192)" stroke-width="1"/><text text-anchor="end" alignment-baseline="middle" x="45.0" y="85.84343939797321" font-size="12.0">0.13</text><line x1="48.0" y1="85.84343939797321" x2="52.0" y2="85.84343939797321" stroke="rgb(192,192,192)" stroke-width="1"/><line x1="50.0" y1="50.13908858243269" x2="550.0" y2="50.13908858243269" stroke="rgb(192,192,192)" stroke-width="1"/><text text-anchor="end" alignment-baseline="middle" x="45.0" y="50.13908858243269" font-size="12.0">0.14</text><line x1="48.0" y1="50.13908858243269" x2="52.0" y2="50.13908858243269" stroke="rgb(192,192,192)" stroke-width="1"/><polyline points="50.0,50.0 76.3157894736842,222.40407155008415 102.63157894736841,438.15832127323966 128.94736842105263,484.4352425667735 155.26315789473682,484.4352425667735 181.57894736842104,484.4352425667735 207.89473684210526,484.4352425667735 234.21052631578945,484.4352425667735 260.52631578947364,484.4352425667735 286.8421052631579,484.4352425667735 313.1578947368421,484.4352425667735 339.4736842105263,484.4352425667735 365.7894736842105,484.4352425667735 392.10526315789474,484.4352425667735 418.4210526315789,484.4352425667735 444.7368421052632,484.4352425667735 471.05263157894734,484.4352425667735 497.36842105263156,484.4352425667735 523.6842105263158,484.4352425667735 550.0,484.4352425667735" fill="none" stroke="rgb(255,0,0)" stroke-width="1"/><circle cx="50.0" cy="50.0" r="2" fill="rgb(255,0,0)"/><circle cx="76.3157894736842" cy="222.40407155008415" r="2" fill="rgb(255,0,0)"/><circle cx="102.63157894736841" cy="438.15832127323966" r="2" fill="rgb(255,0,0)"/><circle cx="128.94736842105263" cy="484.4352425667735" r="2" fill="rgb(255,0,0)"/><circle cx="155.26315789473682" cy="484.4352425667735" r="2" fill="rgb(255,0,0)"/><circle cx="181.57894736842104" cy="484.4352425667735" r="2" fill="rgb(255,0,0)"/><circle cx="207.89473684210526" cy="484.4352425667735" r="2" fill="rgb(255,0,0)"/><circle cx="234.21052631578945" cy="484.4352425667735" r="2" fill="rgb(255,0,0)"/><circle cx="260.52631578947364" cy="484.4352425667735" r="2" fill="rgb(255,0,0)"/><circle cx="286.8421052631579" cy="484.4352425667735" r="2" fill="rgb(255,0,0)"/><circle cx="313.1578947368421" cy="484.4352425667735" r="2" fill="rgb(255,0,0)"/><circle cx="339.4736842105263" cy="484.4352425667735" r="2" fill="rgb(255,0,0)"/><circle cx="365.7894736842105" cy="484.4352425667735" r="2" fill="rgb(255,0,0)"/><circle cx="392.10526315789474" cy="484.4352425667735" r="2" fill="rgb(255,0,0)"/><circle cx="418.4210526315789" cy="484.4352425667735" r="2" fill="rgb(255,0,0)"/><circle cx="444.7368421052632" cy="484.4352425667735" r="2" fill="rgb(255,0,0)"/><circle cx="471.05263157894734" cy="484.4352425667735" r="2" fill="rgb(255,0,0)"/><circle cx="497.36842105263156" cy="484.4352425667735" r="2" fill="rgb(255,0,0)"/><circle cx="523.6842105263158" cy="484.4352425667735" r="2" fill="rgb(255,0,0)"/><circle cx="550.0" cy="484.4352425667735" r="2" fill="rgb(255,0,0)"/><polyline points="50.0,300.2255629576818 76.3157894736842,377.31036471348943 102.63157894736841,171.6041395900192 128.94736842105263,124.76702006203777 155.26315789473682,124.76702006203777 181.57894736842104,124.76702006203777 207.89473684210526,124.76702006203777 234.21052631578945,124.76702006203777 260.52631578947364,124.76702006203777 286.8421052631579,124.76702006203777 313.1578947368421,124.76702006203777 339.4736842105263,124.76702006203777 365.7894736842105,124.76702006203777 392.10526315789474,124.76702006203777 418.4210526315789,124.76702006203777 444.7368421052632,124.76702006203777 471.05263157894734,124.76702006203777 497.36842105263156,124.76702006203777 523.6842105263158,124.76702006203777 550.0,124.76702006203777" fill="none" stroke="rgb(0,0,255)" stroke-width="1"/><circle cx="50.0" cy="300.2255629576818" r="2" fill="rgb(0,0,255)"/><circle cx="76.3157894736842" cy="377.31036471348943" r="2" fill="rgb(0,0,255)"/><circle cx="102.63157894736841" cy="171.6041395900192" r="2" fill="rgb(0,0,255)"/><circle cx="128.94736842105263" cy="124.76702006203777" r="2" fill="rgb(0,0,255)"/><circle cx="155.26315789473682" cy="124.76702006203777" r="2" fill="rgb(0,0,255)"/><circle cx="181.57894736842104" cy="124.76702006203777" r="2" fill="rgb(0,0,255)"/><circle cx="207.89473684210526" cy="124.76702006203777" r="2" fill="rgb(0,0,255)"/><circle cx="234.21052631578945" cy="124.76702006203777" r="2" fill="rgb(0,0,255)"/><circle cx="260.52631578947364" cy="124.76702006203777" r="2" fill="rgb(0,0,255)"/><circle cx="286.8421052631579" cy="124.76702006203777" r="2" fill="rgb(0,0,255)"/><circle cx="313.1578947368421" cy="124.76702006203777" r="2" fill="rgb(0,0,255)"/><circle cx="339.4736842105263" cy="124.76702006203777" r="2" fill="rgb(0,0,255)"/><circle cx="365.7894736842105" cy="124.76702006203777" r="2" fill="rgb(0,0,255)"/><circle cx="392.10526315789474" cy="124.76702006203777" r="2" fill="rgb(0,0,255)"/><circle cx="418.4210526315789" cy="124.76702006203777" r="2" fill="rgb(0,0,255)"/><circle cx="444.7368421052632" cy="124.76702006203777" r="2" fill="rgb(0,0,255)"/><circle cx="471.05263157894734" cy="124.76702006203777" r="2" fill="rgb(0,0,255)"/><circle cx="497.36842105263156" cy="124.76702006203777" r="2" fill="rgb(0,0,255)"/><circle cx="523.6842105263158" cy="124.76702006203777" r="2" fill="rgb(0,0,255)"/><circle cx="550.0" cy="124.76702006203777" r="2" fill="rgb(0,0,255)"/><polyline points="50.0,151.64646191329882 76.3157894736842,359.52777804997686 102.63157894736841,309.4170870729925 128.94736842105263,266.1013508458614 155.26315789473682,266.1013508458614 181.57894736842104,266.1013508458614 207.89473684210526,266.1013508458614 234.21052631578945,266.1013508458614 260.52631578947364,266.1013508458614 286.8421052631579,266.1013508458614 313.1578947368421,266.1013508458614 339.4736842105263,266.1013508458614 365.7894736842105,266.1013508458614 392.10526315789474,266.1013508458614 418.4210526315789,266.1013508458614 444.7368421052632,266.1013508458614 471.05263157894734,266.1013508458614 497.36842105263156,266.1013508458614 523.6842105263158,266.1013508458614 550.0,266.1013508458614" fill="none" stroke="rgb(0,255,0)" stroke-width="1"/><circle cx="50.0" cy="151.64646191329882" r="2" fill="rgb(0,255,0)"/><circle cx="76.3157894736842" cy="359.52777804997686" r="2" fill="rgb(0,255,0)"/><circle cx="102.63157894736841" cy="309.4170870729925" r="2" fill="rgb(0,255,0)"/><circle cx="128.94736842105263" cy="266.1013508458614" r="2" fill="rgb(0,255,0)"/><circle cx="155.26315789473682" cy="266.1013508458614" r="2" fill="rgb(0,255,0)"/><circle cx="181.57894736842104" cy="266.1013508458614" r="2" fill="rgb(0,255,0)"/><circle cx="207.89473684210526" cy="266.1013508458614" r="2" fill="rgb(0,255,0)"/><circle cx="234.21052631578945" cy="266.1013508458614" r="2" fill="rgb(0,255,0)"/><circle cx="260.52631578947364" cy="266.1013508458614" r="2" fill="rgb(0,255,0)"/><circle cx="286.8421052631579" cy="266.1013508458614" r="2" fill="rgb(0,255,0)"/><circle cx="313.1578947368421" cy="266.1013508458614" r="2" fill="rgb(0,255,0)"/><circle cx="339.4736842105263" cy="266.1013508458614" r="2" fill="rgb(0,255,0)"/><circle cx="365.7894736842105" cy="266.1013508458614" r="2" fill="rgb(0,255,0)"/><circle cx="392.10526315789474" cy="266.1013508458614" r="2" fill="rgb(0,255,0)"/><circle cx="418.4210526315789" cy="266.1013508458614" r="2" fill="rgb(0,255,0)"/><circle cx="444.7368421052632" cy="266.1013508458614" r="2" fill="rgb(0,255,0)"/><circle cx="471.05263157894734" cy="266.1013508458614" r="2" fill="rgb(0,255,0)"/><circle cx="497.36842105263156" cy="266.1013508458614" r="2" fill="rgb(0,255,0)"/><circle cx="523.6842105263158" cy="266.1013508458614" r="2" fill="rgb(0,255,0)"/><circle cx="550.0" cy="266.1013508458614" r="2" fill="rgb(0,255,0)"/><text x="350.0" y="20.0" text-anchor="middle" fill="rgb(0,0,0)" font-size="20.0">KMeans Mean Centroid Distances</text><text x="350.0" y="575.0" text-anchor="middle" fill="rgb(0,0,0)" font-size="12.0">step</text><text transform="rotate(-90.0 20.0 300.0)" x="20.0" y="300.0" text-anchor="middle" fill="rgb(0,0,0)" font-size="12.0">average distance to centroid</text><text x="620" y="62" fill="rgb(255,0,0)" font-size="12">0</text><text x="620" y="74" fill="rgb(0,0,255)" font-size="12">1</text><text x="620" y="86" fill="rgb(0,255,0)" font-size="12">2</text>
      Sorry, your browser does not support inline SVG.
    </svg>