<?xml version='1.0' encoding='UTF-8'?>
<svg version="1.1" width="700.0" height="600.0" xmlns="http://www.w3.org/2000/svg"><line x1="50.0" y1="550.0" x2="550.0" y2="550.0" stroke="rgb(0,0,0)" stroke-width="1"/><line x1="50.0" y1="550.0" x2="50.0" y2="50.0" stroke="rgb(0,0,0)" stroke-width="1"/><text text-anchor="start" alignment-baseline="hanging" x="150.0" y="550.0" transform="rotate(36.0,150.0,550.0)" fill="rgb(0,0,0)" font-size="12.0">apple</text><line x1="150.0" y1="548.0" x2="150.0" y2="552.0" stroke="rgb(192,192,192)" stroke-width="1"/><text text-anchor="start" alignment-baseline="hanging" x="300.0" y="550.0" transform="rotate(36.0,300.0,550.0)" fill="rgb(0,0,0)" font-size="12.0">banana</text><line x1="300.0" y1="548.0" x2="300.0" y2="552.0" stroke="rgb(192,192,192)" stroke-width="1"/><text text-anchor="start" alignment-baseline="hanging" x="450.0" y="550.0" transform="rotate(36.0,450.0,550.0)" fill="rgb(0,0,0)" font-size="12.0">coconut</text><line x1="450.0" y1="548.0" x2="450.0" y2="552.0" stroke="rgb(192,192,192)" stroke-width="1"/><line x1="50.0" y1="550.0" x2="550.0" y2="550.0" stroke="rgb(192,192,192)" stroke-width="1"/><text text-anchor="end" alignment-baseline="middle" x="45.0" y="550.0" font-size="12.0">0.0</text><line x1="48.0" y1="550.0" x2="52.0" y2="550.0" stroke="rgb(192,192,192)" stroke-width="1"/><line x1="50.0" y1="493.1818181818182" x2="550.0" y2="493.1818181818182" stroke="rgb(192,192,192)" stroke-width="1"/><text text-anchor="end" alignment-baseline="middle" x="45.0" y="493.1818181818182" font-size="12.0">10.0</text><line x1="48.0" y1="493.1818181818182" x2="52.0" y2="493.1818181818182" stroke="rgb(192,192,192)" stroke-width="1"/><line x1="50.0" y1="436.3636363636364" x2="550.0" y2="436.3636363636364" stroke="rgb(192,192,192)" stroke-width="1"/><text text-anchor="end" alignment-baseline="middle" x="45.0" y="436.3636363636364" font-size="12.0">20.0</text><line x1="48.0" y1="436.3636363636364" x2="52.0" y2="436.3636363636364" stroke="rgb(192,192,192)" stroke-width="1"/><line x1="50.0" y1="379.54545454545456" x2="550.0" y2="379.54545454545456" stroke="rgb(192,192,192)" stroke-width="1"/><text text-anchor="end" alignment-baseline="middle" x="45.0" y="379.54545454545456" font-size="12.0">30.0</text><line x1="48.0" y1="379.54545454545456" x2="52.0" y2="379.54545454545456" stroke="rgb(192,192,192)" stroke-width="1"/><line x1="50.0" y1="322.72727272727275" x2="550.0" y2="322.72727272727275" stroke="rgb(192,192,192)" stroke-width="1"/><text text-anchor="end" alignment-baseline="middle" x="45.0" y="322.72727272727275" font-size="12.0">40.0</text><line x1="48.0" y1="322.72727272727275" x2="52.0" y2="322.72727272727275" stroke="rgb(192,192,192)" stroke-width="1"/><line x1="50.0" y1="265.9090909090909" x2="550.0" y2="265.9090909090909" stroke="rgb(192,192,192)" stroke-width="1"/><text text-anchor="end" alignment-baseline="middle" x="45.0" y="265.9090909090909" font-size="12.0">50.0</text><line x1="48.0" y1="265.9090909090909" x2="52.0" y2="265.9090909090909" stroke="rgb(192,192,192)" stroke-width="1"/><line x1="50.0" y1="209.09090909090912" x2="550.0" y2="209.09090909090912" stroke="rgb(192,192,192)" stroke-width="1"/><text text-anchor="end" alignment-baseline="middle" x="45.0" y="209.09090909090912" font-size="12.0">60.0</text><line x1="48.0" y1="209.09090909090912" x2="52.0" y2="209.09090909090912" stroke="rgb(192,192,192)" stroke-width="1"/><line x1="50.0" y1="152.2727272727273" x2="550.0" y2="152.2727272727273" stroke="rgb(192,192,192)" stroke-width="1"/><text text-anchor="end" alignment-baseline="middle" x="45.0" y="152.2727272727273" font-size="12.0">70.0</text><line x1="48.0" y1="152.2727272727273" x2="52.0" y2="152.2727272727273" stroke="rgb(192,192,192)" stroke-width="1"/><line x1="50.0" y1="95.4545454545455" x2="550.0" y2="95.4545454545455" stroke="rgb(192,192,192)" stroke-width="1"/><text text-anchor="end" alignment-baseline="middle" x="45.0" y="95.4545454545455" font-size="12.0">80.0</text><line x1="48.0" y1="95.4545454545455" x2="52.0" y2="95.4545454545455" stroke="rgb(192,192,192)" stroke-width="1"/><rect x="90.0" y="305.6818181818182" width="67.5" height="244.3181818181818" fill="rgb(0,0,255)" stroke-width="1"/><rect x="240.0" y="485.79545454545456" width="67.5" height="64.20454545454544" fill="rgb(0,0,255)" stroke-width="1"/><rect x="389.99999999999994" y="50.0" width="67.50000000000006" height="500.0" fill="rgb(0,0,255)" stroke-width="1"/><rect x="157.5" y="73.86363636363637" width="67.5" height="476.1363636363636" fill="rgb(255,0,0)" stroke-width="1"/><rect x="307.5" y="107.38636363636363" width="67.5" height="442.6136363636364" fill="rgb(255,0,0)" stroke-width="1"/><rect x="457.5" y="492.6136363636364" width="67.5" height="57.386363636363626" fill="rgb(255,0,0)" stroke-width="1"/><text x="620" y="62" fill="rgb(0,0,255)" font-size="12">2011</text><text x="620" y="74" fill="rgb(255,0,0)" font-size="12">2012</text><text text-anchor="middle" x="350.0" y="20.0" fill="rgb(0,0,0)" font-size="20.0">fruit sales</text>Sorry, your browser does not support inline SVG.</svg>