<?xml version='1.0' encoding='UTF-8'?>
<svg version="1.1" width="700.0" height="600.0" xmlns="http://www.w3.org/2000/svg"><line x1="50.0" y1="550.0" x2="650.0" y2="550.0" stroke="rgb(0,0,0)" stroke-width="1"/><line x1="50.0" y1="550.0" x2="50.0" y2="50.0" stroke="rgb(0,0,0)" stroke-width="1"/><line x1="50.0" y1="550.0" x2="50.0" y2="50.0" stroke="rgb(192,192,192)" stroke-width="1"/><text text-anchor="middle" alignment-baseline="hanging" x="50.0" y="553.0" fill="rgb(0,0,0)" font-size="12.0">0</text><line x1="50.0" y1="548.0" x2="50.0" y2="552.0" stroke="rgb(192,192,192)" stroke-width="1"/><line x1="110.0" y1="550.0" x2="110.0" y2="50.0" stroke="rgb(192,192,192)" stroke-width="1"/><text text-anchor="middle" alignment-baseline="hanging" x="110.0" y="553.0" fill="rgb(0,0,0)" font-size="12.0">1/10</text><line x1="110.0" y1="548.0" x2="110.0" y2="552.0" stroke="rgb(192,192,192)" stroke-width="1"/><line x1="170.0" y1="550.0" x2="170.0" y2="50.0" stroke="rgb(192,192,192)" stroke-width="1"/><text text-anchor="middle" alignment-baseline="hanging" x="170.0" y="553.0" fill="rgb(0,0,0)" font-size="12.0">1/5</text><line x1="170.0" y1="548.0" x2="170.0" y2="552.0" stroke="rgb(192,192,192)" stroke-width="1"/><line x1="230.0" y1="550.0" x2="230.0" y2="50.0" stroke="rgb(192,192,192)" stroke-width="1"/><text text-anchor="middle" alignment-baseline="hanging" x="230.0" y="553.0" fill="rgb(0,0,0)" font-size="12.0">3/10</text><line x1="230.0" y1="548.0" x2="230.0" y2="552.0" stroke="rgb(192,192,192)" stroke-width="1"/><line x1="290.0" y1="550.0" x2="290.0" y2="50.0" stroke="rgb(192,192,192)" stroke-width="1"/><text text-anchor="middle" alignment-baseline="hanging" x="290.0" y="553.0" fill="rgb(0,0,0)" font-size="12.0">2/5</text><line x1="290.0" y1="548.0" x2="290.0" y2="552.0" stroke="rgb(192,192,192)" stroke-width="1"/><line x1="350.0" y1="550.0" x2="350.0" y2="50.0" stroke="rgb(192,192,192)" stroke-width="1"/><text text-anchor="middle" alignment-baseline="hanging" x="350.0" y="553.0" fill="rgb(0,0,0)" font-size="12.0">1/2</text><line x1="350.0" y1="548.0" x2="350.0" y2="552.0" stroke="rgb(192,192,192)" stroke-width="1"/><line x1="410.0" y1="550.0" x2="410.0" y2="50.0" stroke="rgb(192,192,192)" stroke-width="1"/><text text-anchor="middle" alignment-baseline="hanging" x="410.0" y="553.0" fill="rgb(0,0,0)" font-size="12.0">3/5</text><line x1="410.0" y1="548.0" x2="410.0" y2="552.0" stroke="rgb(192,192,192)" stroke-width="1"/><line x1="470.0" y1="550.0" x2="470.0" y2="50.0" stroke="rgb(192,192,192)" stroke-width="1"/><text text-anchor="middle" alignment-baseline="hanging" x="470.0" y="553.0" fill="rgb(0,0,0)" font-size="12.0">7/10</text><line x1="470.0" y1="548.0" x2="470.0" y2="552.0" stroke="rgb(192,192,192)" stroke-width="1"/><line x1="530.0" y1="550.0" x2="530.0" y2="50.0" stroke="rgb(192,192,192)" stroke-width="1"/><text text-anchor="middle" alignment-baseline="hanging" x="530.0" y="553.0" fill="rgb(0,0,0)" font-size="12.0">4/5</text><line x1="530.0" y1="548.0" x2="530.0" y2="552.0" stroke="rgb(192,192,192)" stroke-width="1"/><line x1="590.0" y1="550.0" x2="590.0" y2="50.0" stroke="rgb(192,192,192)" stroke-width="1"/><text text-anchor="middle" alignment-baseline="hanging" x="590.0" y="553.0" fill="rgb(0,0,0)" font-size="12.0">9/10</text><line x1="590.0" y1="548.0" x2="590.0" y2="552.0" stroke="rgb(192,192,192)" stroke-width="1"/><line x1="650.0" y1="550.0" x2="650.0" y2="50.0" stroke="rgb(192,192,192)" stroke-width="1"/><text text-anchor="middle" alignment-baseline="hanging" x="650.0" y="553.0" fill="rgb(0,0,0)" font-size="12.0">1</text><line x1="650.0" y1="548.0" x2="650.0" y2="552.0" stroke="rgb(192,192,192)" stroke-width="1"/><line x1="50.0" y1="550.0" x2="650.0" y2="550.0" stroke="rgb(192,192,192)" stroke-width="1"/><text text-anchor="end" alignment-baseline="middle" x="45.0" y="550.0" font-size="12.0">0.000000</text><line x1="48.0" y1="550.0" x2="52.0" y2="550.0" stroke="rgb(192,192,192)" stroke-width="1"/><line x1="50.0" y1="500.0" x2="650.0" y2="500.0" stroke="rgb(192,192,192)" stroke-width="1"/><text text-anchor="end" alignment-baseline="middle" x="45.0" y="500.0" font-size="12.0">0.100000</text><line x1="48.0" y1="500.0" x2="52.0" y2="500.0" stroke="rgb(192,192,192)" stroke-width="1"/><line x1="50.0" y1="450.0" x2="650.0" y2="450.0" stroke="rgb(192,192,192)" stroke-width="1"/><text text-anchor="end" alignment-baseline="middle" x="45.0" y="450.0" font-size="12.0">0.200000</text><line x1="48.0" y1="450.0" x2="52.0" y2="450.0" stroke="rgb(192,192,192)" stroke-width="1"/><line x1="50.0" y1="400.0" x2="650.0" y2="400.0" stroke="rgb(192,192,192)" stroke-width="1"/><text text-anchor="end" alignment-baseline="middle" x="45.0" y="400.0" font-size="12.0">0.300000</text><line x1="48.0" y1="400.0" x2="52.0" y2="400.0" stroke="rgb(192,192,192)" stroke-width="1"/><line x1="50.0" y1="350.0" x2="650.0" y2="350.0" stroke="rgb(192,192,192)" stroke-width="1"/><text text-anchor="end" alignment-baseline="middle" x="45.0" y="350.0" font-size="12.0">0.400000</text><line x1="48.0" y1="350.0" x2="52.0" y2="350.0" stroke="rgb(192,192,192)" stroke-width="1"/><line x1="50.0" y1="300.0" x2="650.0" y2="300.0" stroke="rgb(192,192,192)" stroke-width="1"/><text text-anchor="end" alignment-baseline="middle" x="45.0" y="300.0" font-size="12.0">0.500000</text><line x1="48.0" y1="300.0" x2="52.0" y2="300.0" stroke="rgb(192,192,192)" stroke-width="1"/><line x1="50.0" y1="250.0" x2="650.0" y2="250.0" stroke="rgb(192,192,192)" stroke-width="1"/><text text-anchor="end" alignment-baseline="middle" x="45.0" y="250.0" font-size="12.0">0.600000</text><line x1="48.0" y1="250.0" x2="52.0" y2="250.0" stroke="rgb(192,192,192)" stroke-width="1"/><line x1="50.0" y1="200.0" x2="650.0" y2="200.0" stroke="rgb(192,192,192)" stroke-width="1"/><text text-anchor="end" alignment-baseline="middle" x="45.0" y="200.0" font-size="12.0">0.700000</text><line x1="48.0" y1="200.0" x2="52.0" y2="200.0" stroke="rgb(192,192,192)" stroke-width="1"/><line x1="50.0" y1="150.0" x2="650.0" y2="150.0" stroke="rgb(192,192,192)" stroke-width="1"/><text text-anchor="end" alignment-baseline="middle" x="45.0" y="150.0" font-size="12.0">0.800000</text><line x1="48.0" y1="150.0" x2="52.0" y2="150.0" stroke="rgb(192,192,192)" stroke-width="1"/><line x1="50.0" y1="100.0" x2="650.0" y2="100.0" stroke="rgb(192,192,192)" stroke-width="1"/><text text-anchor="end" alignment-baseline="middle" x="45.0" y="100.0" font-size="12.0">0.900000</text><line x1="48.0" y1="100.0" x2="52.0" y2="100.0" stroke="rgb(192,192,192)" stroke-width="1"/><line x1="50.0" y1="50.0" x2="650.0" y2="50.0" stroke="rgb(192,192,192)" stroke-width="1"/><text text-anchor="end" alignment-baseline="middle" x="45.0" y="50.0" font-size="12.0">1.000000</text><line x1="48.0" y1="50.0" x2="52.0" y2="50.0" stroke="rgb(192,192,192)" stroke-width="1"/><polyline points="50.0,550.0 56.0,509.6034320520444 62.0,479.2797287290897 68.0,452.8040710842119 74.0,428.8539054587926 80.0,406.8015214420219 86.0,386.27754042276183 92.0,367.0381745498884 98.0,348.9104048988636 104.0,331.76509146794854 110.0,315.50220320535936 116.0,300.042020917736 122.0,285.3195673563178 128.0,271.28090748600545 134.0,257.88059417857204 140.0,245.0798476417998 146.0,232.84522267971693 152.0,221.14761062789023 158.0,209.96147713586004 164.0,199.2642700580513 170.0,189.03595255631882 176.0,179.25863003436314 182.0,169.9162485190172 188.0,160.99434822673118 194.0,152.47986030773887 200.0,144.36093777043357 206.0,136.62681375369107 212.0,129.26768189591218 218.00000000000003,122.27459471993461 224.0,115.63937683029775 230.0,109.35455038465363 236.0,103.41327081107158 242.0,97.809271137753 248.0,92.53681361013628 254.00000000000003,87.59064751348501 260.0,82.96597231225451 266.0,78.65840537225387 272.0,74.66395365646707 278.0,70.97898888685023 284.0,67.60022574745642 290.0,64.5247027726657 296.0,61.74976562108793 302.0,59.27305248317322 308.0,57.092481410540074 314.0,55.20623938897211 320.0,53.61277300609578 326.0,52.31078058988709 332.0,51.29920571613019 338.0,50.577232002399114 344.0,50.14427912359503 350.0,50.0 356.0,50.14427912359503 362.0,50.577232002399114 368.0,51.29920571613019 374.0,52.31078058988709 380.0,53.61277300609578 386.00000000000006,55.20623938897211 391.99999999999994,57.092481410540074 398.0,59.27305248317322 404.0,61.74976562108793 410.0,64.5247027726657 416.0,67.60022574745642 422.0,70.97898888685023 428.0,74.66395365646707 434.0,78.65840537225387 440.0,82.96597231225451 446.0,87.59064751348501 452.0,92.53681361013628 458.00000000000006,97.809271137753 463.99999999999994,103.41327081107158 470.0,109.35455038465363 476.0,115.63937683029775 482.0,122.27459471993461 488.0,129.26768189591218 494.0,136.62681375369107 500.0,144.36093777043357 506.0,152.47986030773887 512.0,160.99434822673118 518.0,169.9162485190172 524.0,179.25863003436314 530.0,189.03595255631882 536.0,199.2642700580513 542.0,209.96147713586004 548.0,221.14761062789023 554.0,232.84522267971693 560.0,245.0798476417998 566.0,257.88059417857204 572.0,271.28090748600545 578.0,285.3195673563178 584.0,300.042020917736 590.0,315.50220320535936 596.0,331.76509146794854 602.0,348.9104048988636 608.0,367.0381745498884 614.0,386.27754042276183 620.0,406.8015214420219 626.0,428.8539054587926 632.0,452.8040710842119 638.0,479.2797287290897 644.0,509.6034320520444 650.0,550.0" fill="none" stroke="rgb(0,0,255)" stroke-width="1"/><circle cx="50.0" cy="550.0" r="2" fill="rgb(0,0,255)"/><circle cx="56.0" cy="509.6034320520444" r="2" fill="rgb(0,0,255)"/><circle cx="62.0" cy="479.2797287290897" r="2" fill="rgb(0,0,255)"/><circle cx="68.0" cy="452.8040710842119" r="2" fill="rgb(0,0,255)"/><circle cx="74.0" cy="428.8539054587926" r="2" fill="rgb(0,0,255)"/><circle cx="80.0" cy="406.8015214420219" r="2" fill="rgb(0,0,255)"/><circle cx="86.0" cy="386.27754042276183" r="2" fill="rgb(0,0,255)"/><circle cx="92.0" cy="367.0381745498884" r="2" fill="rgb(0,0,255)"/><circle cx="98.0" cy="348.9104048988636" r="2" fill="rgb(0,0,255)"/><circle cx="104.0" cy="331.76509146794854" r="2" fill="rgb(0,0,255)"/><circle cx="110.0" cy="315.50220320535936" r="2" fill="rgb(0,0,255)"/><circle cx="116.0" cy="300.042020917736" r="2" fill="rgb(0,0,255)"/><circle cx="122.0" cy="285.3195673563178" r="2" fill="rgb(0,0,255)"/><circle cx="128.0" cy="271.28090748600545" r="2" fill="rgb(0,0,255)"/><circle cx="134.0" cy="257.88059417857204" r="2" fill="rgb(0,0,255)"/><circle cx="140.0" cy="245.0798476417998" r="2" fill="rgb(0,0,255)"/><circle cx="146.0" cy="232.84522267971693" r="2" fill="rgb(0,0,255)"/><circle cx="152.0" cy="221.14761062789023" r="2" fill="rgb(0,0,255)"/><circle cx="158.0" cy="209.96147713586004" r="2" fill="rgb(0,0,255)"/><circle cx="164.0" cy="199.2642700580513" r="2" fill="rgb(0,0,255)"/><circle cx="170.0" cy="189.03595255631882" r="2" fill="rgb(0,0,255)"/><circle cx="176.0" cy="179.25863003436314" r="2" fill="rgb(0,0,255)"/><circle cx="182.0" cy="169.9162485190172" r="2" fill="rgb(0,0,255)"/><circle cx="188.0" cy="160.99434822673118" r="2" fill="rgb(0,0,255)"/><circle cx="194.0" cy="152.47986030773887" r="2" fill="rgb(0,0,255)"/><circle cx="200.0" cy="144.36093777043357" r="2" fill="rgb(0,0,255)"/><circle cx="206.0" cy="136.62681375369107" r="2" fill="rgb(0,0,255)"/><circle cx="212.0" cy="129.26768189591218" r="2" fill="rgb(0,0,255)"/><circle cx="218.00000000000003" cy="122.27459471993461" r="2" fill="rgb(0,0,255)"/><circle cx="224.0" cy="115.63937683029775" r="2" fill="rgb(0,0,255)"/><circle cx="230.0" cy="109.35455038465363" r="2" fill="rgb(0,0,255)"/><circle cx="236.0" cy="103.41327081107158" r="2" fill="rgb(0,0,255)"/><circle cx="242.0" cy="97.809271137753" r="2" fill="rgb(0,0,255)"/><circle cx="248.0" cy="92.53681361013628" r="2" fill="rgb(0,0,255)"/><circle cx="254.00000000000003" cy="87.59064751348501" r="2" fill="rgb(0,0,255)"/><circle cx="260.0" cy="82.96597231225451" r="2" fill="rgb(0,0,255)"/><circle cx="266.0" cy="78.65840537225387" r="2" fill="rgb(0,0,255)"/><circle cx="272.0" cy="74.66395365646707" r="2" fill="rgb(0,0,255)"/><circle cx="278.0" cy="70.97898888685023" r="2" fill="rgb(0,0,255)"/><circle cx="284.0" cy="67.60022574745642" r="2" fill="rgb(0,0,255)"/><circle cx="290.0" cy="64.5247027726657" r="2" fill="rgb(0,0,255)"/><circle cx="296.0" cy="61.74976562108793" r="2" fill="rgb(0,0,255)"/><circle cx="302.0" cy="59.27305248317322" r="2" fill="rgb(0,0,255)"/><circle cx="308.0" cy="57.092481410540074" r="2" fill="rgb(0,0,255)"/><circle cx="314.0" cy="55.20623938897211" r="2" fill="rgb(0,0,255)"/><circle cx="320.0" cy="53.61277300609578" r="2" fill="rgb(0,0,255)"/><circle cx="326.0" cy="52.31078058988709" r="2" fill="rgb(0,0,255)"/><circle cx="332.0" cy="51.29920571613019" r="2" fill="rgb(0,0,255)"/><circle cx="338.0" cy="50.577232002399114" r="2" fill="rgb(0,0,255)"/><circle cx="344.0" cy="50.14427912359503" r="2" fill="rgb(0,0,255)"/><circle cx="350.0" cy="50.0" r="2" fill="rgb(0,0,255)"/><circle cx="356.0" cy="50.14427912359503" r="2" fill="rgb(0,0,255)"/><circle cx="362.0" cy="50.577232002399114" r="2" fill="rgb(0,0,255)"/><circle cx="368.0" cy="51.29920571613019" r="2" fill="rgb(0,0,255)"/><circle cx="374.0" cy="52.31078058988709" r="2" fill="rgb(0,0,255)"/><circle cx="380.0" cy="53.61277300609578" r="2" fill="rgb(0,0,255)"/><circle cx="386.00000000000006" cy="55.20623938897211" r="2" fill="rgb(0,0,255)"/><circle cx="391.99999999999994" cy="57.092481410540074" r="2" fill="rgb(0,0,255)"/><circle cx="398.0" cy="59.27305248317322" r="2" fill="rgb(0,0,255)"/><circle cx="404.0" cy="61.74976562108793" r="2" fill="rgb(0,0,255)"/><circle cx="410.0" cy="64.5247027726657" r="2" fill="rgb(0,0,255)"/><circle cx="416.0" cy="67.60022574745642" r="2" fill="rgb(0,0,255)"/><circle cx="422.0" cy="70.97898888685023" r="2" fill="rgb(0,0,255)"/><circle cx="428.0" cy="74.66395365646707" r="2" fill="rgb(0,0,255)"/><circle cx="434.0" cy="78.65840537225387" r="2" fill="rgb(0,0,255)"/><circle cx="440.0" cy="82.96597231225451" r="2" fill="rgb(0,0,255)"/><circle cx="446.0" cy="87.59064751348501" r="2" fill="rgb(0,0,255)"/><circle cx="452.0" cy="92.53681361013628" r="2" fill="rgb(0,0,255)"/><circle cx="458.00000000000006" cy="97.809271137753" r="2" fill="rgb(0,0,255)"/><circle cx="463.99999999999994" cy="103.41327081107158" r="2" fill="rgb(0,0,255)"/><circle cx="470.0" cy="109.35455038465363" r="2" fill="rgb(0,0,255)"/><circle cx="476.0" cy="115.63937683029775" r="2" fill="rgb(0,0,255)"/><circle cx="482.0" cy="122.27459471993461" r="2" fill="rgb(0,0,255)"/><circle cx="488.0" cy="129.26768189591218" r="2" fill="rgb(0,0,255)"/><circle cx="494.0" cy="136.62681375369107" r="2" fill="rgb(0,0,255)"/><circle cx="500.0" cy="144.36093777043357" r="2" fill="rgb(0,0,255)"/><circle cx="506.0" cy="152.47986030773887" r="2" fill="rgb(0,0,255)"/><circle cx="512.0" cy="160.99434822673118" r="2" fill="rgb(0,0,255)"/><circle cx="518.0" cy="169.9162485190172" r="2" fill="rgb(0,0,255)"/><circle cx="524.0" cy="179.25863003436314" r="2" fill="rgb(0,0,255)"/><circle cx="530.0" cy="189.03595255631882" r="2" fill="rgb(0,0,255)"/><circle cx="536.0" cy="199.2642700580513" r="2" fill="rgb(0,0,255)"/><circle cx="542.0" cy="209.96147713586004" r="2" fill="rgb(0,0,255)"/><circle cx="548.0" cy="221.14761062789023" r="2" fill="rgb(0,0,255)"/><circle cx="554.0" cy="232.84522267971693" r="2" fill="rgb(0,0,255)"/><circle cx="560.0" cy="245.0798476417998" r="2" fill="rgb(0,0,255)"/><circle cx="566.0" cy="257.88059417857204" r="2" fill="rgb(0,0,255)"/><circle cx="572.0" cy="271.28090748600545" r="2" fill="rgb(0,0,255)"/><circle cx="578.0" cy="285.3195673563178" r="2" fill="rgb(0,0,255)"/><circle cx="584.0" cy="300.042020917736" r="2" fill="rgb(0,0,255)"/><circle cx="590.0" cy="315.50220320535936" r="2" fill="rgb(0,0,255)"/><circle cx="596.0" cy="331.76509146794854" r="2" fill="rgb(0,0,255)"/><circle cx="602.0" cy="348.9104048988636" r="2" fill="rgb(0,0,255)"/><circle cx="608.0" cy="367.0381745498884" r="2" fill="rgb(0,0,255)"/><circle cx="614.0" cy="386.27754042276183" r="2" fill="rgb(0,0,255)"/><circle cx="620.0" cy="406.8015214420219" r="2" fill="rgb(0,0,255)"/><circle cx="626.0" cy="428.8539054587926" r="2" fill="rgb(0,0,255)"/><circle cx="632.0" cy="452.8040710842119" r="2" fill="rgb(0,0,255)"/><circle cx="638.0" cy="479.2797287290897" r="2" fill="rgb(0,0,255)"/><circle cx="644.0" cy="509.6034320520444" r="2" fill="rgb(0,0,255)"/><circle cx="650.0" cy="550.0" r="2" fill="rgb(0,0,255)"/><text text-anchor="middle" x="350.0" y="20.0" fill="rgb(0,0,0)" font-size="20.0">Entropy</text><text text-anchor="middle" x="350.0" y="575.0" fill="rgb(0,0,0)" font-size="12.0">p(x='HEAD)</text><text text-anchor="middle" x="20.0" y="300.0" transform="rotate(-90.0 20.0 300.0)" fill="rgb(0,0,0)" font-size="12.0">H</text>Sorry, your browser does not support inline SVG.</svg>