<?xml version='1.0' encoding='UTF-8'?>
<svg version="1.1" width="700.0" height="600.0" xmlns="http://www.w3.org/2000/svg"><line x1="50.0" y1="550.0" x2="650.0" y2="550.0" stroke="rgb(0,0,0)" stroke-width="1"/><line x1="50.0" y1="550.0" x2="50.0" y2="50.0" stroke="rgb(0,0,0)" stroke-width="1"/><text text-anchor="middle" alignment-baseline="hanging" x="104.54545454545455" y="553.0" fill="rgb(0,0,0)" font-size="12.0">2</text><line x1="104.54545454545455" y1="548.0" x2="104.54545454545455" y2="552.0" stroke="rgb(192,192,192)" stroke-width="1"/><text text-anchor="middle" alignment-baseline="hanging" x="153.63636363636363" y="553.0" fill="rgb(0,0,0)" font-size="12.0">3</text><line x1="153.63636363636363" y1="548.0" x2="153.63636363636363" y2="552.0" stroke="rgb(192,192,192)" stroke-width="1"/><text text-anchor="middle" alignment-baseline="hanging" x="202.72727272727272" y="553.0" fill="rgb(0,0,0)" font-size="12.0">4</text><line x1="202.72727272727272" y1="548.0" x2="202.72727272727272" y2="552.0" stroke="rgb(192,192,192)" stroke-width="1"/><text text-anchor="middle" alignment-baseline="hanging" x="251.8181818181818" y="553.0" fill="rgb(0,0,0)" font-size="12.0">5</text><line x1="251.8181818181818" y1="548.0" x2="251.8181818181818" y2="552.0" stroke="rgb(192,192,192)" stroke-width="1"/><text text-anchor="middle" alignment-baseline="hanging" x="300.9090909090909" y="553.0" fill="rgb(0,0,0)" font-size="12.0">6</text><line x1="300.9090909090909" y1="548.0" x2="300.9090909090909" y2="552.0" stroke="rgb(192,192,192)" stroke-width="1"/><text text-anchor="middle" alignment-baseline="hanging" x="350.0" y="553.0" fill="rgb(0,0,0)" font-size="12.0">7</text><line x1="350.0" y1="548.0" x2="350.0" y2="552.0" stroke="rgb(192,192,192)" stroke-width="1"/><text text-anchor="middle" alignment-baseline="hanging" x="399.0909090909091" y="553.0" fill="rgb(0,0,0)" font-size="12.0">8</text><line x1="399.0909090909091" y1="548.0" x2="399.0909090909091" y2="552.0" stroke="rgb(192,192,192)" stroke-width="1"/><text text-anchor="middle" alignment-baseline="hanging" x="448.1818181818182" y="553.0" fill="rgb(0,0,0)" font-size="12.0">9</text><line x1="448.1818181818182" y1="548.0" x2="448.1818181818182" y2="552.0" stroke="rgb(192,192,192)" stroke-width="1"/><text text-anchor="middle" alignment-baseline="hanging" x="497.2727272727273" y="553.0" fill="rgb(0,0,0)" font-size="12.0">10</text><line x1="497.2727272727273" y1="548.0" x2="497.2727272727273" y2="552.0" stroke="rgb(192,192,192)" stroke-width="1"/><text text-anchor="middle" alignment-baseline="hanging" x="546.3636363636364" y="553.0" fill="rgb(0,0,0)" font-size="12.0">11</text><line x1="546.3636363636364" y1="548.0" x2="546.3636363636364" y2="552.0" stroke="rgb(192,192,192)" stroke-width="1"/><text text-anchor="middle" alignment-baseline="hanging" x="595.4545454545455" y="553.0" fill="rgb(0,0,0)" font-size="12.0">12</text><line x1="595.4545454545455" y1="548.0" x2="595.4545454545455" y2="552.0" stroke="rgb(192,192,192)" stroke-width="1"/><line x1="50.0" y1="550.0" x2="650.0" y2="550.0" stroke="rgb(192,192,192)" stroke-width="1"/><text text-anchor="end" alignment-baseline="middle" x="45.0" y="550.0" font-size="12.0">0</text><line x1="48.0" y1="550.0" x2="52.0" y2="550.0" stroke="rgb(192,192,192)" stroke-width="1"/><line x1="50.0" y1="259.47123765252763" x2="650.0" y2="259.47123765252763" stroke="rgb(192,192,192)" stroke-width="1"/><text text-anchor="end" alignment-baseline="middle" x="45.0" y="259.47123765252763" font-size="12.0">1000</text><line x1="48.0" y1="259.47123765252763" x2="52.0" y2="259.47123765252763" stroke="rgb(192,192,192)" stroke-width="1"/><rect x="84.9090909090909" y="470.10459035444507" width="39.27272727272728" height="79.89540964555493" fill="rgb(0,0,255)" stroke-width="1"/><rect x="134.0" y="380.04067402672865" width="39.27272727272728" height="169.95932597327135" fill="rgb(0,0,255)" stroke-width="1"/><rect x="183.0909090909091" y="313.21905868681" width="39.27272727272725" height="236.78094131319" fill="rgb(0,0,255)" stroke-width="1"/><rect x="232.1818181818182" y="229.83730389308545" width="39.27272727272731" height="320.16269610691455" fill="rgb(0,0,255)" stroke-width="1"/><rect x="281.27272727272725" y="154.5903544450901" width="39.27272727272731" height="395.4096455549099" fill="rgb(0,0,255)" stroke-width="1"/><rect x="330.3636363636363" y="50.0" width="39.27272727272731" height="500.0" fill="rgb(0,0,255)" stroke-width="1"/><rect x="379.45454545454544" y="156.04299825682745" width="39.27272727272725" height="393.95700174317255" fill="rgb(0,0,255)" stroke-width="1"/><rect x="428.54545454545456" y="230.9994189424753" width="39.27272727272731" height="319.0005810575247" fill="rgb(0,0,255)" stroke-width="1"/><rect x="477.6363636363637" y="308.8611272515979" width="39.27272727272731" height="241.1388727484021" fill="rgb(0,0,255)" stroke-width="1"/><rect x="526.7272727272727" y="381.7838466008135" width="39.27272727272725" height="168.2161533991865" fill="rgb(0,0,255)" stroke-width="1"/><rect x="575.8181818181818" y="469.2330040674027" width="39.272727272727366" height="80.7669959325973" fill="rgb(0,0,255)" stroke-width="1"/><text text-anchor="middle" x="350.0" y="20.0" fill="rgb(0,0,0)" font-size="20.0">d6 + d6</text>Sorry, your browser does not support inline SVG.</svg>