<?xml version='1.0' encoding='UTF-8'?>
<svg version="1.1" width="700.0" height="600.0" xmlns="http://www.w3.org/2000/svg"><line x1="50.0" y1="550.0" x2="650.0" y2="550.0" stroke="rgb(0,0,0)" stroke-width="1"/><line x1="50.0" y1="550.0" x2="50.0" y2="50.0" stroke="rgb(0,0,0)" stroke-width="1"/><text text-anchor="middle" alignment-baseline="hanging" x="104.54545454545455" y="553.0" fill="rgb(0,0,0)" font-size="12.0">2</text><line x1="104.54545454545455" y1="548.0" x2="104.54545454545455" y2="552.0" stroke="rgb(192,192,192)" stroke-width="1"/><text text-anchor="middle" alignment-baseline="hanging" x="153.63636363636363" y="553.0" fill="rgb(0,0,0)" font-size="12.0">3</text><line x1="153.63636363636363" y1="548.0" x2="153.63636363636363" y2="552.0" stroke="rgb(192,192,192)" stroke-width="1"/><text text-anchor="middle" alignment-baseline="hanging" x="202.72727272727272" y="553.0" fill="rgb(0,0,0)" font-size="12.0">4</text><line x1="202.72727272727272" y1="548.0" x2="202.72727272727272" y2="552.0" stroke="rgb(192,192,192)" stroke-width="1"/><text text-anchor="middle" alignment-baseline="hanging" x="251.8181818181818" y="553.0" fill="rgb(0,0,0)" font-size="12.0">5</text><line x1="251.8181818181818" y1="548.0" x2="251.8181818181818" y2="552.0" stroke="rgb(192,192,192)" stroke-width="1"/><text text-anchor="middle" alignment-baseline="hanging" x="300.9090909090909" y="553.0" fill="rgb(0,0,0)" font-size="12.0">6</text><line x1="300.9090909090909" y1="548.0" x2="300.9090909090909" y2="552.0" stroke="rgb(192,192,192)" stroke-width="1"/><text text-anchor="middle" alignment-baseline="hanging" x="350.0" y="553.0" fill="rgb(0,0,0)" font-size="12.0">7</text><line x1="350.0" y1="548.0" x2="350.0" y2="552.0" stroke="rgb(192,192,192)" stroke-width="1"/><text text-anchor="middle" alignment-baseline="hanging" x="399.0909090909091" y="553.0" fill="rgb(0,0,0)" font-size="12.0">8</text><line x1="399.0909090909091" y1="548.0" x2="399.0909090909091" y2="552.0" stroke="rgb(192,192,192)" stroke-width="1"/><text text-anchor="middle" alignment-baseline="hanging" x="448.1818181818182" y="553.0" fill="rgb(0,0,0)" font-size="12.0">9</text><line x1="448.1818181818182" y1="548.0" x2="448.1818181818182" y2="552.0" stroke="rgb(192,192,192)" stroke-width="1"/><text text-anchor="middle" alignment-baseline="hanging" x="497.2727272727273" y="553.0" fill="rgb(0,0,0)" font-size="12.0">10</text><line x1="497.2727272727273" y1="548.0" x2="497.2727272727273" y2="552.0" stroke="rgb(192,192,192)" stroke-width="1"/><text text-anchor="middle" alignment-baseline="hanging" x="546.3636363636364" y="553.0" fill="rgb(0,0,0)" font-size="12.0">11</text><line x1="546.3636363636364" y1="548.0" x2="546.3636363636364" y2="552.0" stroke="rgb(192,192,192)" stroke-width="1"/><text text-anchor="middle" alignment-baseline="hanging" x="595.4545454545455" y="553.0" fill="rgb(0,0,0)" font-size="12.0">12</text><line x1="595.4545454545455" y1="548.0" x2="595.4545454545455" y2="552.0" stroke="rgb(192,192,192)" stroke-width="1"/><line x1="50.0" y1="550.0" x2="650.0" y2="550.0" stroke="rgb(192,192,192)" stroke-width="1"/><text text-anchor="end" alignment-baseline="middle" x="45.0" y="550.0" font-size="12.0">0</text><line x1="48.0" y1="550.0" x2="52.0" y2="550.0" stroke="rgb(192,192,192)" stroke-width="1"/><line x1="50.0" y1="246.048632218845" x2="650.0" y2="246.048632218845" stroke="rgb(192,192,192)" stroke-width="1"/><text text-anchor="end" alignment-baseline="middle" x="45.0" y="246.048632218845" font-size="12.0">1000</text><line x1="48.0" y1="246.048632218845" x2="52.0" y2="246.048632218845" stroke="rgb(192,192,192)" stroke-width="1"/><rect x="84.9090909090909" y="461.5501519756839" width="39.27272727272728" height="88.44984802431611" fill="rgb(0,0,255)" stroke-width="1"/><rect x="134.0" y="377.6595744680851" width="39.27272727272728" height="172.3404255319149" fill="rgb(0,0,255)" stroke-width="1"/><rect x="183.0909090909091" y="305.3191489361702" width="39.27272727272725" height="244.68085106382978" fill="rgb(0,0,255)" stroke-width="1"/><rect x="232.1818181818182" y="209.5744680851064" width="39.27272727272731" height="340.4255319148936" fill="rgb(0,0,255)" stroke-width="1"/><rect x="281.27272727272725" y="138.4498480243161" width="39.27272727272731" height="411.5501519756839" fill="rgb(0,0,255)" stroke-width="1"/><rect x="330.3636363636363" y="50.0" width="39.27272727272731" height="500.0" fill="rgb(0,0,255)" stroke-width="1"/><rect x="379.45454545454544" y="129.3313069908815" width="39.27272727272725" height="420.6686930091185" fill="rgb(0,0,255)" stroke-width="1"/><rect x="428.54545454545456" y="209.87841945288756" width="39.27272727272731" height="340.12158054711244" fill="rgb(0,0,255)" stroke-width="1"/><rect x="477.6363636363637" y="282.21884498480244" width="39.27272727272731" height="267.78115501519756" fill="rgb(0,0,255)" stroke-width="1"/><rect x="526.7272727272727" y="383.7386018237082" width="39.27272727272725" height="166.26139817629178" fill="rgb(0,0,255)" stroke-width="1"/><rect x="575.8181818181818" y="462.7659574468085" width="39.272727272727366" height="87.2340425531915" fill="rgb(0,0,255)" stroke-width="1"/><text text-anchor="middle" x="350.0" y="20.0" fill="rgb(0,0,0)" font-size="20.0">d6 + d6</text>Sorry, your browser does not support inline SVG.</svg>