<?xml version='1.0' encoding='UTF-8'?>
<svg version="1.1" width="800.0" height="800.0" xmlns="http://www.w3.org/2000/svg"><line x1="606.9580640946903" y1="662.2443261528699" x2="777.7513206342646" y2="765.4299558162049" stroke="rgb(0,0,0)" stroke-width="1"/><line x1="225.59201899449417" y1="415.94278477066143" x2="267.5764459315325" y2="226.87650142444036" stroke="rgb(0,0,0)" stroke-width="1"/><line x1="606.9580640946903" y1="662.2443261528699" x2="398.48358294504334" y2="536.7051541201362" stroke="rgb(0,0,0)" stroke-width="1"/><line x1="267.5764459315325" y1="226.87650142444036" x2="225.59201899449417" y2="415.94278477066143" stroke="rgb(0,0,0)" stroke-width="1"/><line x1="225.59201899449417" y1="415.94278477066143" x2="54.631816386719805" y2="567.324170777309" stroke="rgb(0,0,0)" stroke-width="1"/><line x1="33.39923667114003" y1="19.22621224941824" x2="80.44197982873959" y2="192.67654372807888" stroke="rgb(0,0,0)" stroke-width="1"/><line x1="691.9903577041207" y1="394.44124858514675" x2="497.92059872117164" y2="543.081023808544" stroke="rgb(0,0,0)" stroke-width="1"/><line x1="225.59201899449417" y1="415.94278477066143" x2="80.44197982873959" y2="192.67654372807888" stroke="rgb(0,0,0)" stroke-width="1"/><line x1="80.44197982873959" y1="192.67654372807888" x2="33.39923667114003" y2="19.22621224941824" stroke="rgb(0,0,0)" stroke-width="1"/><line x1="80.44197982873959" y1="192.67654372807888" x2="225.59201899449417" y2="415.94278477066143" stroke="rgb(0,0,0)" stroke-width="1"/><line x1="398.48358294504334" y1="536.7051541201362" x2="606.9580640946903" y2="662.2443261528699" stroke="rgb(0,0,0)" stroke-width="1"/><line x1="225.59201899449417" y1="415.94278477066143" x2="39.211443641456235" y2="396.04344724723427" stroke="rgb(0,0,0)" stroke-width="1"/><line x1="497.92059872117164" y1="543.081023808544" x2="606.9580640946903" y2="662.2443261528699" stroke="rgb(0,0,0)" stroke-width="1"/><line x1="39.211443641456235" y1="396.04344724723427" x2="225.59201899449417" y2="415.94278477066143" stroke="rgb(0,0,0)" stroke-width="1"/><line x1="776.6167932550437" y1="248.42101626776653" x2="691.9903577041207" y2="394.44124858514675" stroke="rgb(0,0,0)" stroke-width="1"/><line x1="469.10468001223916" y1="773.361078747501" x2="497.92059872117164" y2="543.081023808544" stroke="rgb(0,0,0)" stroke-width="1"/><line x1="777.7513206342646" y1="765.4299558162049" x2="606.9580640946903" y2="662.2443261528699" stroke="rgb(0,0,0)" stroke-width="1"/><line x1="691.9903577041207" y1="394.44124858514675" x2="776.6167932550437" y2="248.42101626776653" stroke="rgb(0,0,0)" stroke-width="1"/><line x1="497.92059872117164" y1="543.081023808544" x2="225.59201899449417" y2="415.94278477066143" stroke="rgb(0,0,0)" stroke-width="1"/><line x1="606.9580640946903" y1="662.2443261528699" x2="497.92059872117164" y2="543.081023808544" stroke="rgb(0,0,0)" stroke-width="1"/><line x1="225.59201899449417" y1="415.94278477066143" x2="398.48358294504334" y2="536.7051541201362" stroke="rgb(0,0,0)" stroke-width="1"/><line x1="54.631816386719805" y1="567.324170777309" x2="225.59201899449417" y2="415.94278477066143" stroke="rgb(0,0,0)" stroke-width="1"/><line x1="398.48358294504334" y1="536.7051541201362" x2="225.59201899449417" y2="415.94278477066143" stroke="rgb(0,0,0)" stroke-width="1"/><line x1="225.59201899449417" y1="415.94278477066143" x2="497.92059872117164" y2="543.081023808544" stroke="rgb(0,0,0)" stroke-width="1"/><line x1="497.92059872117164" y1="543.081023808544" x2="469.10468001223916" y2="773.361078747501" stroke="rgb(0,0,0)" stroke-width="1"/><line x1="497.92059872117164" y1="543.081023808544" x2="691.9903577041207" y2="394.44124858514675" stroke="rgb(0,0,0)" stroke-width="1"/><polygon points="10,0 20,3 20,-3" fill="black" transform="translate(777.7513206342646,765.4299558162049) rotate(211.13849004676945)"/><polygon points="10,0 20,3 20,-3" fill="black" transform="translate(267.5764459315325,226.87650142444036) rotate(102.5200564481444)"/><polygon points="10,0 20,3 20,-3" fill="black" transform="translate(398.48358294504334,536.7051541201362) rotate(31.055511782580652)"/><polygon points="10,0 20,3 20,-3" fill="black" transform="translate(225.59201899449417,415.94278477066143) rotate(282.5200564481444)"/><polygon points="10,0 20,3 20,-3" fill="black" transform="translate(54.631816386719805,567.324170777309) rotate(318.4758378201367)"/><polygon points="10,0 20,3 20,-3" fill="black" transform="translate(80.44197982873959,192.67654372807888) rotate(254.82543381350536)"/><polygon points="10,0 20,3 20,-3" fill="black" transform="translate(497.92059872117164,543.081023808544) rotate(322.5511711994109)"/><polygon points="10,0 20,3 20,-3" fill="black" transform="translate(80.44197982873959,192.67654372807888) rotate(56.97126495152246)"/><polygon points="10,0 20,3 20,-3" fill="black" transform="translate(33.39923667114003,19.22621224941824) rotate(74.82543381350534)"/><polygon points="10,0 20,3 20,-3" fill="black" transform="translate(225.59201899449417,415.94278477066143) rotate(236.97126495152247)"/><polygon points="10,0 20,3 20,-3" fill="black" transform="translate(606.9580640946903,662.2443261528699) rotate(211.05551178258065)"/><polygon points="10,0 20,3 20,-3" fill="black" transform="translate(39.211443641456235,396.04344724723427) rotate(6.094225057963513)"/><polygon points="10,0 20,3 20,-3" fill="black" transform="translate(606.9580640946903,662.2443261528699) rotate(227.54068998044107)"/><polygon points="10,0 20,3 20,-3" fill="black" transform="translate(225.59201899449417,415.94278477066143) rotate(186.09422505796354)"/><polygon points="10,0 20,3 20,-3" fill="black" transform="translate(691.9903577041207,394.44124858514675) rotate(300.09455683283034)"/><polygon points="10,0 20,3 20,-3" fill="black" transform="translate(497.92059872117164,543.081023808544) rotate(97.1325890467115)"/><polygon points="10,0 20,3 20,-3" fill="black" transform="translate(606.9580640946903,662.2443261528699) rotate(31.13849004676942)"/><polygon points="10,0 20,3 20,-3" fill="black" transform="translate(776.6167932550437,248.42101626776653) rotate(120.09455683283036)"/><polygon points="10,0 20,3 20,-3" fill="black" transform="translate(225.59201899449417,415.94278477066143) rotate(25.0258021781776)"/><polygon points="10,0 20,3 20,-3" fill="black" transform="translate(497.92059872117164,543.081023808544) rotate(47.54068998044107)"/><polygon points="10,0 20,3 20,-3" fill="black" transform="translate(398.48358294504334,536.7051541201362) rotate(214.93376733424878)"/><polygon points="10,0 20,3 20,-3" fill="black" transform="translate(225.59201899449417,415.94278477066143) rotate(138.47583782013666)"/><polygon points="10,0 20,3 20,-3" fill="black" transform="translate(225.59201899449417,415.94278477066143) rotate(34.933767334248756)"/><polygon points="10,0 20,3 20,-3" fill="black" transform="translate(497.92059872117164,543.081023808544) rotate(205.02580217817763)"/><polygon points="10,0 20,3 20,-3" fill="black" transform="translate(469.10468001223916,773.361078747501) rotate(277.13258904671153)"/><polygon points="10,0 20,3 20,-3" fill="black" transform="translate(691.9903577041207,394.44124858514675) rotate(142.55117119941082)"/><circle cx="691.9903577041207" cy="394.44124858514675" r="10" fill="rgb(255,255,0)" stroke="rgb(0,0,0)" stroke-width="1"/><circle cx="225.59201899449417" cy="415.94278477066143" r="10" fill="rgb(255,255,0)" stroke="rgb(0,0,0)" stroke-width="1"/><circle cx="39.211443641456235" cy="396.04344724723427" r="10" fill="rgb(255,255,0)" stroke="rgb(0,0,0)" stroke-width="1"/><circle cx="33.39923667114003" cy="19.22621224941824" r="10" fill="rgb(255,255,0)" stroke="rgb(0,0,0)" stroke-width="1"/><circle cx="469.10468001223916" cy="773.361078747501" r="10" fill="rgb(255,255,0)" stroke="rgb(0,0,0)" stroke-width="1"/><circle cx="777.7513206342646" cy="765.4299558162049" r="10" fill="rgb(255,255,0)" stroke="rgb(0,0,0)" stroke-width="1"/><circle cx="54.631816386719805" cy="567.324170777309" r="10" fill="rgb(255,255,0)" stroke="rgb(0,0,0)" stroke-width="1"/><circle cx="80.44197982873959" cy="192.67654372807888" r="10" fill="rgb(255,255,0)" stroke="rgb(0,0,0)" stroke-width="1"/><circle cx="776.6167932550437" cy="248.42101626776653" r="10" fill="rgb(255,255,0)" stroke="rgb(0,0,0)" stroke-width="1"/><circle cx="497.92059872117164" cy="543.081023808544" r="10" fill="rgb(255,255,0)" stroke="rgb(0,0,0)" stroke-width="1"/><circle cx="398.48358294504334" cy="536.7051541201362" r="10" fill="rgb(255,255,0)" stroke="rgb(0,0,0)" stroke-width="1"/><circle cx="606.9580640946903" cy="662.2443261528699" r="10" fill="rgb(255,255,0)" stroke="rgb(0,0,0)" stroke-width="1"/><circle cx="267.5764459315325" cy="226.87650142444036" r="10" fill="rgb(255,255,0)" stroke="rgb(0,0,0)" stroke-width="1"/><text text-anchor="middle" alignment-baseline="middle" x="691.9903577041207" y="394.44124858514675" fill="rgb(0,0,0)" font-size="12">lightyear (ly) </text><text text-anchor="middle" alignment-baseline="middle" x="225.59201899449417" y="415.94278477066143" fill="rgb(0,0,0)" font-size="12">meter (m) </text><text text-anchor="middle" alignment-baseline="middle" x="39.211443641456235" y="396.04344724723427" fill="rgb(0,0,0)" font-size="12">millimeter (mm) </text><text text-anchor="middle" alignment-baseline="middle" x="33.39923667114003" y="19.22621224941824" fill="rgb(0,0,0)" font-size="12">Planck length (ℓP) </text><text text-anchor="middle" alignment-baseline="middle" x="469.10468001223916" y="773.361078747501" fill="rgb(0,0,0)" font-size="12">Astronomical Unit (SI) (AU) </text><text text-anchor="middle" alignment-baseline="middle" x="777.7513206342646" y="765.4299558162049" fill="rgb(0,0,0)" font-size="12">Astronomical Unit (AU) </text><text text-anchor="middle" alignment-baseline="middle" x="54.631816386719805" y="567.324170777309" fill="rgb(0,0,0)" font-size="12">centimeter (cm) </text><text text-anchor="middle" alignment-baseline="middle" x="80.44197982873959" y="192.67654372807888" fill="rgb(0,0,0)" font-size="12">nanometer (nm) </text><text text-anchor="middle" alignment-baseline="middle" x="776.6167932550437" y="248.42101626776653" fill="rgb(0,0,0)" font-size="12">parsec (pc) </text><text text-anchor="middle" alignment-baseline="middle" x="497.92059872117164" y="543.081023808544" fill="rgb(0,0,0)" font-size="12">kilometer (km) </text><text text-anchor="middle" alignment-baseline="middle" x="398.48358294504334" y="536.7051541201362" fill="rgb(0,0,0)" font-size="12">foot (ft) </text><text text-anchor="middle" alignment-baseline="middle" x="606.9580640946903" y="662.2443261528699" fill="rgb(0,0,0)" font-size="12">mile (m) </text><text text-anchor="middle" alignment-baseline="middle" x="267.5764459315325" y="226.87650142444036" fill="rgb(0,0,0)" font-size="12">micrometer (μm) </text><text text-anchor="middle" alignment-baseline="middle" x="709.4340180184349" y="724.1557039508709" fill="rgb(0,0,0)" font-size="12">9.29558073E7</text><text text-anchor="middle" alignment-baseline="middle" x="250.78267515671715" y="302.5030147629288" fill="rgb(0,0,0)" font-size="12">1.0E-6</text><text text-anchor="middle" alignment-baseline="middle" x="481.8733754049021" y="586.9208229332297" fill="rgb(0,0,0)" font-size="12">1.893939393939394E-4</text><text text-anchor="middle" alignment-baseline="middle" x="242.3857897693095" y="340.316271432173" fill="rgb(0,0,0)" font-size="12">1000000.0</text><text text-anchor="middle" alignment-baseline="middle" x="123.01589742982955" y="506.77161637464997" fill="rgb(0,0,0)" font-size="12">0.01</text><text text-anchor="middle" alignment-baseline="middle" x="61.624882565699764" y="123.29641113661462" fill="rgb(0,0,0)" font-size="12">1.6162E-26</text><text text-anchor="middle" alignment-baseline="middle" x="575.5485023143513" y="483.62511371918515" fill="rgb(0,0,0)" font-size="12">1.0570008340246153E-13</text><text text-anchor="middle" alignment-baseline="middle" x="138.50199549504143" y="281.9830401451119" fill="rgb(0,0,0)" font-size="12">1.0E-9</text><text text-anchor="middle" alignment-baseline="middle" x="52.21633393417986" y="88.6063448408825" fill="rgb(0,0,0)" font-size="12">6.187353050365054E25</text><text text-anchor="middle" alignment-baseline="middle" x="167.53200332819233" y="326.6362883536284" fill="rgb(0,0,0)" font-size="12">1.0E9</text><text text-anchor="middle" alignment-baseline="middle" x="523.5682716348315" y="612.0286573397764" fill="rgb(0,0,0)" font-size="12">5280.0</text><text text-anchor="middle" alignment-baseline="middle" x="113.76367378267142" y="404.00318225660516" fill="rgb(0,0,0)" font-size="12">0.001</text><text text-anchor="middle" alignment-baseline="middle" x="563.3430779452829" y="614.5790052151395" fill="rgb(0,0,0)" font-size="12">1.609344</text><text text-anchor="middle" alignment-baseline="middle" x="151.039788853279" y="407.98304976129054" fill="rgb(0,0,0)" font-size="12">1000.0</text><text text-anchor="middle" alignment-baseline="middle" x="725.84093192449" y="336.0331556581947" fill="rgb(0,0,0)" font-size="12">0.3067484662576687</text><text text-anchor="middle" alignment-baseline="middle" x="486.39423123759866" y="635.1930457841269" fill="rgb(0,0,0)" font-size="12">6.6845871222684464E-9</text><text text-anchor="middle" alignment-baseline="middle" x="675.27536671052" y="703.5185780182039" fill="rgb(0,0,0)" font-size="12">1.0757800174578227E-8</text><text text-anchor="middle" alignment-baseline="middle" x="742.7662190346745" y="306.8291091947186" fill="rgb(0,0,0)" font-size="12">3.26</text><text text-anchor="middle" alignment-baseline="middle" x="334.5234508851652" y="466.7980803858145" fill="rgb(0,0,0)" font-size="12">0.001</text><text text-anchor="middle" alignment-baseline="middle" x="541.5355848705791" y="590.7463447462744" fill="rgb(0,0,0)" font-size="12">0.621371192237334</text><text text-anchor="middle" alignment-baseline="middle" x="329.32695736482367" y="488.4002063803463" fill="rgb(0,0,0)" font-size="12">0.3048</text><text text-anchor="middle" alignment-baseline="middle" x="157.20793795138442" y="476.4953391733204" fill="rgb(0,0,0)" font-size="12">100.0</text><text text-anchor="middle" alignment-baseline="middle" x="294.7486445747138" y="464.2477325104513" fill="rgb(0,0,0)" font-size="12">3.2808398950131235</text><text text-anchor="middle" alignment-baseline="middle" x="388.98916683050066" y="492.225728193391" fill="rgb(0,0,0)" font-size="12">1000.0</text><text text-anchor="middle" alignment-baseline="middle" x="480.63104749581214" y="681.2490567719182" fill="rgb(0,0,0)" font-size="12">1.495978707E8</text><text text-anchor="middle" alignment-baseline="middle" x="614.362454110941" y="453.8971586745057" fill="rgb(0,0,0)" font-size="12">9.4607304725808E12</text>Sorry, your browser does not support inline SVG.</svg>