<?xml version='1.0' encoding='UTF-8'?>
<svg version="1.1" width="800.0" height="800.0" xmlns="http://www.w3.org/2000/svg"><line x1="504.99138866019445" y1="713.3528073690892" x2="520.1144222447009" y2="490.47325214580667" stroke="rgb(0,0,0)" stroke-width="1"/><line x1="527.897045604734" y1="192.6354846831309" x2="748.1993861067706" y2="182.04270069493205" stroke="rgb(0,0,0)" stroke-width="1"/><line x1="696.2137993571087" y1="16.168480727297773" x2="527.897045604734" y2="192.6354846831309" stroke="rgb(0,0,0)" stroke-width="1"/><line x1="527.897045604734" y1="192.6354846831309" x2="363.333858419566" y2="322.81415706603275" stroke="rgb(0,0,0)" stroke-width="1"/><line x1="748.1993861067706" y1="182.04270069493205" x2="527.897045604734" y2="192.6354846831309" stroke="rgb(0,0,0)" stroke-width="1"/><line x1="89.00244483268517" y1="21.538579691632005" x2="294.4680621146518" y2="49.942211291071764" stroke="rgb(0,0,0)" stroke-width="1"/><line x1="520.1144222447009" y1="490.47325214580667" x2="711.7164884075631" y2="601.7575114494167" stroke="rgb(0,0,0)" stroke-width="1"/><line x1="527.897045604734" y1="192.6354846831309" x2="520.1144222447009" y2="490.47325214580667" stroke="rgb(0,0,0)" stroke-width="1"/><line x1="363.333858419566" y1="322.81415706603275" x2="282.10783881581915" y2="496.564021830907" stroke="rgb(0,0,0)" stroke-width="1"/><line x1="294.4680621146518" y1="49.942211291071764" x2="527.897045604734" y2="192.6354846831309" stroke="rgb(0,0,0)" stroke-width="1"/><line x1="282.10783881581915" y1="496.564021830907" x2="81.15908221092768" y2="585.5041208547634" stroke="rgb(0,0,0)" stroke-width="1"/><line x1="520.1144222447009" y1="490.47325214580667" x2="527.897045604734" y2="192.6354846831309" stroke="rgb(0,0,0)" stroke-width="1"/><line x1="373.4488381296992" y1="781.1249206378238" x2="504.99138866019445" y2="713.3528073690892" stroke="rgb(0,0,0)" stroke-width="1"/><line x1="527.897045604734" y1="192.6354846831309" x2="294.4680621146518" y2="49.942211291071764" stroke="rgb(0,0,0)" stroke-width="1"/><line x1="554.4080580027263" y1="35.70391283292686" x2="527.897045604734" y2="192.6354846831309" stroke="rgb(0,0,0)" stroke-width="1"/><line x1="711.7164884075631" y1="601.7575114494167" x2="520.1144222447009" y2="490.47325214580667" stroke="rgb(0,0,0)" stroke-width="1"/><line x1="520.1144222447009" y1="490.47325214580667" x2="504.99138866019445" y2="713.3528073690892" stroke="rgb(0,0,0)" stroke-width="1"/><line x1="81.15908221092768" y1="585.5041208547634" x2="282.10783881581915" y2="496.564021830907" stroke="rgb(0,0,0)" stroke-width="1"/><line x1="363.333858419566" y1="322.81415706603275" x2="527.897045604734" y2="192.6354846831309" stroke="rgb(0,0,0)" stroke-width="1"/><line x1="527.897045604734" y1="192.6354846831309" x2="696.2137993571087" y2="16.168480727297773" stroke="rgb(0,0,0)" stroke-width="1"/><line x1="282.10783881581915" y1="496.564021830907" x2="520.1144222447009" y2="490.47325214580667" stroke="rgb(0,0,0)" stroke-width="1"/><line x1="282.10783881581915" y1="496.564021830907" x2="363.333858419566" y2="322.81415706603275" stroke="rgb(0,0,0)" stroke-width="1"/><line x1="520.1144222447009" y1="490.47325214580667" x2="282.10783881581915" y2="496.564021830907" stroke="rgb(0,0,0)" stroke-width="1"/><line x1="527.897045604734" y1="192.6354846831309" x2="554.4080580027263" y2="35.70391283292686" stroke="rgb(0,0,0)" stroke-width="1"/><line x1="294.4680621146518" y1="49.942211291071764" x2="89.00244483268517" y2="21.538579691632005" stroke="rgb(0,0,0)" stroke-width="1"/><line x1="504.99138866019445" y1="713.3528073690892" x2="373.4488381296992" y2="781.1249206378238" stroke="rgb(0,0,0)" stroke-width="1"/><polygon points="10,0 20,3 20,-3" fill="black" transform="translate(520.1144222447009,490.47325214580667) rotate(93.88173731251845)"/><polygon points="10,0 20,3 20,-3" fill="black" transform="translate(748.1993861067706,182.04270069493205) rotate(177.24717071073792)"/><polygon points="10,0 20,3 20,-3" fill="black" transform="translate(527.897045604734,192.6354846831309) rotate(313.64585272042035)"/><polygon points="10,0 20,3 20,-3" fill="black" transform="translate(363.333858419566,322.81415706603275) rotate(321.6540346756967)"/><polygon points="10,0 20,3 20,-3" fill="black" transform="translate(527.897045604734,192.6354846831309) rotate(357.2471707107379)"/><polygon points="10,0 20,3 20,-3" fill="black" transform="translate(294.4680621146518,49.942211291071764) rotate(187.87070218947375)"/><polygon points="10,0 20,3 20,-3" fill="black" transform="translate(711.7164884075631,601.7575114494167) rotate(210.14841767948693)"/><polygon points="10,0 20,3 20,-3" fill="black" transform="translate(520.1144222447009,490.47325214580667) rotate(271.49682166977396)"/><polygon points="10,0 20,3 20,-3" fill="black" transform="translate(282.10783881581915,496.564021830907) rotate(295.05553618726833)"/><polygon points="10,0 20,3 20,-3" fill="black" transform="translate(527.897045604734,192.6354846831309) rotate(211.43711162951362)"/><polygon points="10,0 20,3 20,-3" fill="black" transform="translate(81.15908221092768,585.5041208547634) rotate(336.12577595845767)"/><polygon points="10,0 20,3 20,-3" fill="black" transform="translate(527.897045604734,192.6354846831309) rotate(91.49682166977396)"/><polygon points="10,0 20,3 20,-3" fill="black" transform="translate(504.99138866019445,713.3528073690892) rotate(152.74199743143487)"/><polygon points="10,0 20,3 20,-3" fill="black" transform="translate(294.4680621146518,49.942211291071764) rotate(31.437111629513595)"/><polygon points="10,0 20,3 20,-3" fill="black" transform="translate(527.897045604734,192.6354846831309) rotate(279.58864979047746)"/><polygon points="10,0 20,3 20,-3" fill="black" transform="translate(520.1144222447009,490.47325214580667) rotate(30.148417679486897)"/><polygon points="10,0 20,3 20,-3" fill="black" transform="translate(504.99138866019445,713.3528073690892) rotate(273.88173731251845)"/><polygon points="10,0 20,3 20,-3" fill="black" transform="translate(282.10783881581915,496.564021830907) rotate(156.12577595845767)"/><polygon points="10,0 20,3 20,-3" fill="black" transform="translate(527.897045604734,192.6354846831309) rotate(141.65403467569675)"/><polygon points="10,0 20,3 20,-3" fill="black" transform="translate(696.2137993571087,16.168480727297773) rotate(133.64585272042032)"/><polygon points="10,0 20,3 20,-3" fill="black" transform="translate(520.1144222447009,490.47325214580667) rotate(178.53407732672503)"/><polygon points="10,0 20,3 20,-3" fill="black" transform="translate(363.333858419566,322.81415706603275) rotate(115.05553618726829)"/><polygon points="10,0 20,3 20,-3" fill="black" transform="translate(282.10783881581915,496.564021830907) rotate(358.534077326725)"/><polygon points="10,0 20,3 20,-3" fill="black" transform="translate(554.4080580027263,35.70391283292686) rotate(99.58864979047748)"/><polygon points="10,0 20,3 20,-3" fill="black" transform="translate(89.00244483268517,21.538579691632005) rotate(7.870702189473747)"/><polygon points="10,0 20,3 20,-3" fill="black" transform="translate(373.4488381296992,781.1249206378238) rotate(332.7419974314349)"/><circle cx="504.99138866019445" cy="713.3528073690892" r="10" fill="rgb(255,255,0)" stroke="rgb(0,0,0)" stroke-width="1"/><circle cx="527.897045604734" cy="192.6354846831309" r="10" fill="rgb(255,255,0)" stroke="rgb(0,0,0)" stroke-width="1"/><circle cx="554.4080580027263" cy="35.70391283292686" r="10" fill="rgb(255,255,0)" stroke="rgb(0,0,0)" stroke-width="1"/><circle cx="89.00244483268517" cy="21.538579691632005" r="10" fill="rgb(255,255,0)" stroke="rgb(0,0,0)" stroke-width="1"/><circle cx="711.7164884075631" cy="601.7575114494167" r="10" fill="rgb(255,255,0)" stroke="rgb(0,0,0)" stroke-width="1"/><circle cx="81.15908221092768" cy="585.5041208547634" r="10" fill="rgb(255,255,0)" stroke="rgb(0,0,0)" stroke-width="1"/><circle cx="748.1993861067706" cy="182.04270069493205" r="10" fill="rgb(255,255,0)" stroke="rgb(0,0,0)" stroke-width="1"/><circle cx="294.4680621146518" cy="49.942211291071764" r="10" fill="rgb(255,255,0)" stroke="rgb(0,0,0)" stroke-width="1"/><circle cx="373.4488381296992" cy="781.1249206378238" r="10" fill="rgb(255,255,0)" stroke="rgb(0,0,0)" stroke-width="1"/><circle cx="520.1144222447009" cy="490.47325214580667" r="10" fill="rgb(255,255,0)" stroke="rgb(0,0,0)" stroke-width="1"/><circle cx="363.333858419566" cy="322.81415706603275" r="10" fill="rgb(255,255,0)" stroke="rgb(0,0,0)" stroke-width="1"/><circle cx="282.10783881581915" cy="496.564021830907" r="10" fill="rgb(255,255,0)" stroke="rgb(0,0,0)" stroke-width="1"/><circle cx="696.2137993571087" cy="16.168480727297773" r="10" fill="rgb(255,255,0)" stroke="rgb(0,0,0)" stroke-width="1"/><text text-anchor="middle" alignment-baseline="middle" x="504.99138866019445" y="713.3528073690892" fill="rgb(0,0,0)" font-size="12">lightyear (ly) </text><text text-anchor="middle" alignment-baseline="middle" x="527.897045604734" y="192.6354846831309" fill="rgb(0,0,0)" font-size="12">meter (m) </text><text text-anchor="middle" alignment-baseline="middle" x="554.4080580027263" y="35.70391283292686" fill="rgb(0,0,0)" font-size="12">millimeter (mm) </text><text text-anchor="middle" alignment-baseline="middle" x="89.00244483268517" y="21.538579691632005" fill="rgb(0,0,0)" font-size="12">Planck length (ℓP) </text><text text-anchor="middle" alignment-baseline="middle" x="711.7164884075631" y="601.7575114494167" fill="rgb(0,0,0)" font-size="12">Astronomical Unit (SI) (AU) </text><text text-anchor="middle" alignment-baseline="middle" x="81.15908221092768" y="585.5041208547634" fill="rgb(0,0,0)" font-size="12">Astronomical Unit (AU) </text><text text-anchor="middle" alignment-baseline="middle" x="748.1993861067706" y="182.04270069493205" fill="rgb(0,0,0)" font-size="12">centimeter (cm) </text><text text-anchor="middle" alignment-baseline="middle" x="294.4680621146518" y="49.942211291071764" fill="rgb(0,0,0)" font-size="12">nanometer (nm) </text><text text-anchor="middle" alignment-baseline="middle" x="373.4488381296992" y="781.1249206378238" fill="rgb(0,0,0)" font-size="12">parsec (pc) </text><text text-anchor="middle" alignment-baseline="middle" x="520.1144222447009" y="490.47325214580667" fill="rgb(0,0,0)" font-size="12">kilometer (km) </text><text text-anchor="middle" alignment-baseline="middle" x="363.333858419566" y="322.81415706603275" fill="rgb(0,0,0)" font-size="12">foot (ft) </text><text text-anchor="middle" alignment-baseline="middle" x="282.10783881581915" y="496.564021830907" fill="rgb(0,0,0)" font-size="12">mile (m) </text><text text-anchor="middle" alignment-baseline="middle" x="696.2137993571087" y="16.168480727297773" fill="rgb(0,0,0)" font-size="12">micrometer (μm) </text><text text-anchor="middle" alignment-baseline="middle" x="514.0652088108983" y="579.6250742351197" fill="rgb(0,0,0)" font-size="12">1.0570008340246153E-13</text><text text-anchor="middle" alignment-baseline="middle" x="660.078449905956" y="186.2798142902116" fill="rgb(0,0,0)" font-size="12">0.01</text><text text-anchor="middle" alignment-baseline="middle" x="595.2237471056839" y="122.04868310079765" fill="rgb(0,0,0)" font-size="12">1000000.0</text><text text-anchor="middle" alignment-baseline="middle" x="429.1591332936332" y="270.742688112872" fill="rgb(0,0,0)" font-size="12">0.3048</text><text text-anchor="middle" alignment-baseline="middle" x="616.0179818055486" y="188.39837108785136" fill="rgb(0,0,0)" font-size="12">100.0</text><text text-anchor="middle" alignment-baseline="middle" x="212.28181520186513" y="38.58075865129586" fill="rgb(0,0,0)" font-size="12">1.6162E-26</text><text text-anchor="middle" alignment-baseline="middle" x="635.0756619424183" y="557.2438077279727" fill="rgb(0,0,0)" font-size="12">1.495978707E8</text><text text-anchor="middle" alignment-baseline="middle" x="523.2274715887141" y="371.3381451607363" fill="rgb(0,0,0)" font-size="12">1000.0</text><text text-anchor="middle" alignment-baseline="middle" x="314.5982466573179" y="427.0640759249573" fill="rgb(0,0,0)" font-size="12">5280.0</text><text text-anchor="middle" alignment-baseline="middle" x="434.5254522087011" y="135.55817532630724" fill="rgb(0,0,0)" font-size="12">1.0E9</text><text text-anchor="middle" alignment-baseline="middle" x="161.5385848528843" y="549.9280812452208" fill="rgb(0,0,0)" font-size="12">9.29558073E7</text><text text-anchor="middle" alignment-baseline="middle" x="524.7839962607208" y="311.77059166820123" fill="rgb(0,0,0)" font-size="12">0.001</text><text text-anchor="middle" alignment-baseline="middle" x="452.37436844799635" y="740.4616526765831" fill="rgb(0,0,0)" font-size="12">0.3067484662576687</text><text text-anchor="middle" alignment-baseline="middle" x="387.8396555106847" y="107.01952064789542" fill="rgb(0,0,0)" font-size="12">1.0E-9</text><text text-anchor="middle" alignment-baseline="middle" x="538.5014505639309" y="129.86285594304928" fill="rgb(0,0,0)" font-size="12">1000.0</text><text text-anchor="middle" alignment-baseline="middle" x="596.7552487098458" y="534.9869558672507" fill="rgb(0,0,0)" font-size="12">6.6845871222684464E-9</text><text text-anchor="middle" alignment-baseline="middle" x="511.04060209399705" y="624.2009852797762" fill="rgb(0,0,0)" font-size="12">9.4607304725808E12</text><text text-anchor="middle" alignment-baseline="middle" x="201.72833617386254" y="532.1400614404496" fill="rgb(0,0,0)" font-size="12">1.0757800174578227E-8</text><text text-anchor="middle" alignment-baseline="middle" x="462.0717707306668" y="244.70695363629164" fill="rgb(0,0,0)" font-size="12">3.2808398950131235</text><text text-anchor="middle" alignment-baseline="middle" x="628.8870978561588" y="86.75528230963103" fill="rgb(0,0,0)" font-size="12">1.0E-6</text><text text-anchor="middle" alignment-baseline="middle" x="424.9117888731482" y="492.9095600198468" fill="rgb(0,0,0)" font-size="12">0.621371192237334</text><text text-anchor="middle" alignment-baseline="middle" x="330.8434505780673" y="392.31410297198244" fill="rgb(0,0,0)" font-size="12">1.893939393939394E-4</text><text text-anchor="middle" alignment-baseline="middle" x="377.31047218737183" y="494.12771395686684" fill="rgb(0,0,0)" font-size="12">1.609344</text><text text-anchor="middle" alignment-baseline="middle" x="543.8036530435294" y="98.47654157300849" fill="rgb(0,0,0)" font-size="12">0.001</text><text text-anchor="middle" alignment-baseline="middle" x="171.18869174547183" y="32.900032331407914" fill="rgb(0,0,0)" font-size="12">6.187353050365054E25</text><text text-anchor="middle" alignment-baseline="middle" x="426.0658583418973" y="754.01607533033" fill="rgb(0,0,0)" font-size="12">3.26</text>Sorry, your browser does not support inline SVG.</svg>