<?xml version='1.0' encoding='UTF-8'?>
<svg version="1.1" width="700.0" height="600.0" xmlns="http://www.w3.org/2000/svg"><line x1="50.0" y1="550.0" x2="550.0" y2="550.0" stroke="rgb(0,0,0)" stroke-width="1"/><line x1="50.0" y1="550.0" x2="50.0" y2="50.0" stroke="rgb(0,0,0)" stroke-width="1"/><text text-anchor="start" alignment-baseline="hanging" x="150.0" y="550.0" transform="rotate(36.0,150.0,550.0)" fill="rgb(0,0,0)" font-size="12.0">apple</text><line x1="150.0" y1="548.0" x2="150.0" y2="552.0" stroke="rgb(192,192,192)" stroke-width="1"/><text text-anchor="start" alignment-baseline="hanging" x="300.0" y="550.0" transform="rotate(36.0,300.0,550.0)" fill="rgb(0,0,0)" font-size="12.0">banana</text><line x1="300.0" y1="548.0" x2="300.0" y2="552.0" stroke="rgb(192,192,192)" stroke-width="1"/><text text-anchor="start" alignment-baseline="hanging" x="450.0" y="550.0" transform="rotate(36.0,450.0,550.0)" fill="rgb(0,0,0)" font-size="12.0">coconut</text><line x1="450.0" y1="548.0" x2="450.0" y2="552.0" stroke="rgb(192,192,192)" stroke-width="1"/><line x1="50.0" y1="550.0" x2="550.0" y2="550.0" stroke="rgb(192,192,192)" stroke-width="1"/><text text-anchor="end" alignment-baseline="middle" x="45.0" y="550.0" font-size="12.0">0.0</text><line x1="48.0" y1="550.0" x2="52.0" y2="550.0" stroke="rgb(192,192,192)" stroke-width="1"/><line x1="50.0" y1="490.3341288782816" x2="550.0" y2="490.3341288782816" stroke="rgb(192,192,192)" stroke-width="1"/><text text-anchor="end" alignment-baseline="middle" x="45.0" y="490.3341288782816" font-size="12.0">10.0</text><line x1="48.0" y1="490.3341288782816" x2="52.0" y2="490.3341288782816" stroke="rgb(192,192,192)" stroke-width="1"/><line x1="50.0" y1="430.6682577565632" x2="550.0" y2="430.6682577565632" stroke="rgb(192,192,192)" stroke-width="1"/><text text-anchor="end" alignment-baseline="middle" x="45.0" y="430.6682577565632" font-size="12.0">20.0</text><line x1="48.0" y1="430.6682577565632" x2="52.0" y2="430.6682577565632" stroke="rgb(192,192,192)" stroke-width="1"/><line x1="50.0" y1="371.00238663484487" x2="550.0" y2="371.00238663484487" stroke="rgb(192,192,192)" stroke-width="1"/><text text-anchor="end" alignment-baseline="middle" x="45.0" y="371.00238663484487" font-size="12.0">30.0</text><line x1="48.0" y1="371.00238663484487" x2="52.0" y2="371.00238663484487" stroke="rgb(192,192,192)" stroke-width="1"/><line x1="50.0" y1="311.33651551312647" x2="550.0" y2="311.33651551312647" stroke="rgb(192,192,192)" stroke-width="1"/><text text-anchor="end" alignment-baseline="middle" x="45.0" y="311.33651551312647" font-size="12.0">40.0</text><line x1="48.0" y1="311.33651551312647" x2="52.0" y2="311.33651551312647" stroke="rgb(192,192,192)" stroke-width="1"/><line x1="50.0" y1="251.67064439140808" x2="550.0" y2="251.67064439140808" stroke="rgb(192,192,192)" stroke-width="1"/><text text-anchor="end" alignment-baseline="middle" x="45.0" y="251.67064439140808" font-size="12.0">50.0</text><line x1="48.0" y1="251.67064439140808" x2="52.0" y2="251.67064439140808" stroke="rgb(192,192,192)" stroke-width="1"/><line x1="50.0" y1="192.00477326968974" x2="550.0" y2="192.00477326968974" stroke="rgb(192,192,192)" stroke-width="1"/><text text-anchor="end" alignment-baseline="middle" x="45.0" y="192.00477326968974" font-size="12.0">60.0</text><line x1="48.0" y1="192.00477326968974" x2="52.0" y2="192.00477326968974" stroke="rgb(192,192,192)" stroke-width="1"/><line x1="50.0" y1="132.33890214797134" x2="550.0" y2="132.33890214797134" stroke="rgb(192,192,192)" stroke-width="1"/><text text-anchor="end" alignment-baseline="middle" x="45.0" y="132.33890214797134" font-size="12.0">70.0</text><line x1="48.0" y1="132.33890214797134" x2="52.0" y2="132.33890214797134" stroke="rgb(192,192,192)" stroke-width="1"/><line x1="50.0" y1="72.67303102625294" x2="550.0" y2="72.67303102625294" stroke="rgb(192,192,192)" stroke-width="1"/><text text-anchor="end" alignment-baseline="middle" x="45.0" y="72.67303102625294" font-size="12.0">80.0</text><line x1="48.0" y1="72.67303102625294" x2="52.0" y2="72.67303102625294" stroke="rgb(192,192,192)" stroke-width="1"/><rect x="90.0" y="50.0" width="119.99999999999997" height="500.0" fill="rgb(0,0,255)" stroke-width="1"/><rect x="240.0" y="85.20286396181376" width="120.0" height="464.79713603818624" fill="rgb(255,0,0)" stroke-width="1"/><rect x="389.99999999999994" y="489.73747016706443" width="120.0" height="60.26252983293557" fill="rgb(0,255,0)" stroke-width="1"/><text x="620" y="62" fill="rgb(0,0,255)" font-size="12">apple</text><text x="620" y="74" fill="rgb(255,0,0)" font-size="12">banana</text><text x="620" y="86" fill="rgb(0,255,0)" font-size="12">coconut</text><text text-anchor="middle" x="350.0" y="20.0" fill="rgb(0,0,0)" font-size="20.0">fruit sales</text>Sorry, your browser does not support inline SVG.</svg>