<?xml version='1.0' encoding='UTF-8'?>
<svg version="1.1" width="700.0" height="600.0" xmlns="http://www.w3.org/2000/svg"><line x1="50.0" y1="550.0" x2="550.0" y2="550.0" stroke="rgb(0,0,0)" stroke-width="1"/><line x1="50.0" y1="550.0" x2="50.0" y2="50.0" stroke="rgb(0,0,0)" stroke-width="1"/><line x1="50.0" y1="550.0" x2="50.0" y2="50.0" stroke="rgb(192,192,192)" stroke-width="1"/><text text-anchor="middle" alignment-baseline="hanging" x="50.0" y="553.0" fill="rgb(0,0,0)" font-size="12.0">0</text><line x1="50.0" y1="548.0" x2="50.0" y2="552.0" stroke="rgb(192,192,192)" stroke-width="1"/><line x1="100.5050505050505" y1="550.0" x2="100.5050505050505" y2="50.0" stroke="rgb(192,192,192)" stroke-width="1"/><text text-anchor="middle" alignment-baseline="hanging" x="100.5050505050505" y="553.0" fill="rgb(0,0,0)" font-size="12.0">10</text><line x1="100.5050505050505" y1="548.0" x2="100.5050505050505" y2="552.0" stroke="rgb(192,192,192)" stroke-width="1"/><line x1="151.010101010101" y1="550.0" x2="151.010101010101" y2="50.0" stroke="rgb(192,192,192)" stroke-width="1"/><text text-anchor="middle" alignment-baseline="hanging" x="151.010101010101" y="553.0" fill="rgb(0,0,0)" font-size="12.0">20</text><line x1="151.010101010101" y1="548.0" x2="151.010101010101" y2="552.0" stroke="rgb(192,192,192)" stroke-width="1"/><line x1="201.51515151515153" y1="550.0" x2="201.51515151515153" y2="50.0" stroke="rgb(192,192,192)" stroke-width="1"/><text text-anchor="middle" alignment-baseline="hanging" x="201.51515151515153" y="553.0" fill="rgb(0,0,0)" font-size="12.0">30</text><line x1="201.51515151515153" y1="548.0" x2="201.51515151515153" y2="552.0" stroke="rgb(192,192,192)" stroke-width="1"/><line x1="252.02020202020202" y1="550.0" x2="252.02020202020202" y2="50.0" stroke="rgb(192,192,192)" stroke-width="1"/><text text-anchor="middle" alignment-baseline="hanging" x="252.02020202020202" y="553.0" fill="rgb(0,0,0)" font-size="12.0">40</text><line x1="252.02020202020202" y1="548.0" x2="252.02020202020202" y2="552.0" stroke="rgb(192,192,192)" stroke-width="1"/><line x1="302.52525252525254" y1="550.0" x2="302.52525252525254" y2="50.0" stroke="rgb(192,192,192)" stroke-width="1"/><text text-anchor="middle" alignment-baseline="hanging" x="302.52525252525254" y="553.0" fill="rgb(0,0,0)" font-size="12.0">50</text><line x1="302.52525252525254" y1="548.0" x2="302.52525252525254" y2="552.0" stroke="rgb(192,192,192)" stroke-width="1"/><line x1="353.03030303030306" y1="550.0" x2="353.03030303030306" y2="50.0" stroke="rgb(192,192,192)" stroke-width="1"/><text text-anchor="middle" alignment-baseline="hanging" x="353.03030303030306" y="553.0" fill="rgb(0,0,0)" font-size="12.0">60</text><line x1="353.03030303030306" y1="548.0" x2="353.03030303030306" y2="552.0" stroke="rgb(192,192,192)" stroke-width="1"/><line x1="403.5353535353535" y1="550.0" x2="403.5353535353535" y2="50.0" stroke="rgb(192,192,192)" stroke-width="1"/><text text-anchor="middle" alignment-baseline="hanging" x="403.5353535353535" y="553.0" fill="rgb(0,0,0)" font-size="12.0">70</text><line x1="403.5353535353535" y1="548.0" x2="403.5353535353535" y2="552.0" stroke="rgb(192,192,192)" stroke-width="1"/><line x1="454.04040404040404" y1="550.0" x2="454.04040404040404" y2="50.0" stroke="rgb(192,192,192)" stroke-width="1"/><text text-anchor="middle" alignment-baseline="hanging" x="454.04040404040404" y="553.0" fill="rgb(0,0,0)" font-size="12.0">80</text><line x1="454.04040404040404" y1="548.0" x2="454.04040404040404" y2="552.0" stroke="rgb(192,192,192)" stroke-width="1"/><line x1="504.5454545454545" y1="550.0" x2="504.5454545454545" y2="50.0" stroke="rgb(192,192,192)" stroke-width="1"/><text text-anchor="middle" alignment-baseline="hanging" x="504.5454545454545" y="553.0" fill="rgb(0,0,0)" font-size="12.0">90</text><line x1="504.5454545454545" y1="548.0" x2="504.5454545454545" y2="552.0" stroke="rgb(192,192,192)" stroke-width="1"/><line x1="50.0" y1="550.0" x2="550.0" y2="550.0" stroke="rgb(192,192,192)" stroke-width="1"/><text text-anchor="end" alignment-baseline="middle" x="45.0" y="550.0" font-size="12.0">0.0</text><line x1="48.0" y1="550.0" x2="52.0" y2="550.0" stroke="rgb(192,192,192)" stroke-width="1"/><line x1="50.0" y1="367.61419373889134" x2="550.0" y2="367.61419373889134" stroke="rgb(192,192,192)" stroke-width="1"/><text text-anchor="end" alignment-baseline="middle" x="45.0" y="367.61419373889134" font-size="12.0">1000.0</text><line x1="48.0" y1="367.61419373889134" x2="52.0" y2="367.61419373889134" stroke="rgb(192,192,192)" stroke-width="1"/><line x1="50.0" y1="185.22838747778263" x2="550.0" y2="185.22838747778263" stroke="rgb(192,192,192)" stroke-width="1"/><text text-anchor="end" alignment-baseline="middle" x="45.0" y="185.22838747778263" font-size="12.0">2000.0</text><line x1="48.0" y1="185.22838747778263" x2="52.0" y2="185.22838747778263" stroke="rgb(192,192,192)" stroke-width="1"/><polyline points="50.0,419.51242359367797 55.05050505050505,411.8145448319828 60.101010101010104,389.8398775129451 65.15151515151516,366.6079260336436 70.20202020202021,404.12813097001214 75.25252525252526,403.21055997294707 80.30303030303031,404.2840530290599 85.35353535353535,405.48764319937845 90.40404040404042,423.20902415260565 95.45454545454545,420.9660822238649 100.5050505050505,378.93829278046076 105.55555555555554,414.4413111057097 110.60606060606061,349.45144143821096 115.65656565656566,404.4065617375737 120.7070707070707,390.63219218863037 125.75757575757576,232.8055162089086 130.80808080808083,177.6391336584204 135.85858585858585,339.86588034745796 140.9090909090909,369.0488116019916 145.95959595959596,397.36061570349636 151.010101010101,407.93480141272767 156.06060606060606,362.222373338626 161.1111111111111,363.19346373121095 166.16161616161617,229.66258899214614 171.21212121212122,386.84885461540716 176.26262626262627,348.74759592506393 181.31313131313132,348.9133636920069 186.36363636363635,269.1833088750684 191.4141414141414,395.1047089060363 196.46464646464648,294.6575195426335 201.51515151515153,295.00395041761425 206.56565656565658,296.2161979392987 211.61616161616163,215.71395420244033 216.66666666666666,341.8732418355944 221.7171717171717,342.30800298729366 226.76767676767676,342.2375953588554 231.8181818181818,342.4851708306642 236.86868686868686,385.01370384119423 241.91919191919192,387.0399574025913 246.96969696969697,409.8973428397887 252.02020202020202,351.9599481608737 257.07070707070704,352.0597089698292 262.1212121212121,378.21782051709135 267.1717171717172,402.47953493337707 272.2222222222222,402.2457319580028 277.27272727272725,402.54773132231287 282.32323232323233,397.1500007472631 287.3737373737374,398.4580132866744 292.42424242424244,401.1818575941543 297.47474747474746,402.0091620078377 302.52525252525254,414.53650774737497 307.57575757575756,412.62661845517687 312.62626262626264,313.28095619207403 317.67676767676767,226.73423242455777 322.7272727272727,190.1572499418702 327.77777777777777,345.8350078502975 332.8282828282828,335.18270569220317 337.8787878787879,336.68148953649415 342.92929292929296,144.3124408413201 347.979797979798,381.4917023534448 353.03030303030306,315.4514506882224 358.0808080808081,328.1209540299899 363.13131313131316,358.56494489088993 368.1818181818182,409.1554141992676 373.23232323232327,410.0834236475082 378.2828282828283,407.5887480624799 383.3333333333333,151.7289350559672 388.3838383838384,279.06410104119186 393.4343434343434,345.92098190627166 398.4848484848485,398.51751632826455 403.5353535353535,397.6128535037152 408.58585858585855,397.34026319768634 413.6363636363636,344.6097220947413 418.68686868686865,344.6097220947413 423.73737373737373,272.2099035645375 428.7878787878788,271.2367823578834 433.83838383838383,271.3999800206055 438.8888888888889,397.94151833077865 443.93939393939394,333.2124646229846 448.989898989899,326.3388203580145 454.04040404040404,383.0795314940069 459.0909090909091,383.0795314940069 464.14141414141415,407.30034280289135 469.19191919191917,407.571141023842 474.24242424242425,384.346245159374 479.2929292929293,384.75493492460646 484.34343434343435,410.29979068854965 489.3939393939394,383.8936202362504 494.4444444444444,401.45721844011814 499.4949494949495,402.80566787026476 504.5454545454545,402.7123551498441 509.59595959595964,347.0627850471907 514.6464646464647,380.9770212205891 519.6969696969697,403.1624646667799 524.7474747474748,403.13673837332516 529.7979797979798,365.2923409489269 534.8484848484849,341.4399758696397 539.8989898989898,326.5367869994268 544.9494949494949,323.6483157982269 550.0,287.5559558322441" fill="none" stroke="rgb(0,0,255)" stroke-width="1"/><circle cx="50.0" cy="419.51242359367797" r="2" fill="rgb(0,0,255)"/><circle cx="55.05050505050505" cy="411.8145448319828" r="2" fill="rgb(0,0,255)"/><circle cx="60.101010101010104" cy="389.8398775129451" r="2" fill="rgb(0,0,255)"/><circle cx="65.15151515151516" cy="366.6079260336436" r="2" fill="rgb(0,0,255)"/><circle cx="70.20202020202021" cy="404.12813097001214" r="2" fill="rgb(0,0,255)"/><circle cx="75.25252525252526" cy="403.21055997294707" r="2" fill="rgb(0,0,255)"/><circle cx="80.30303030303031" cy="404.2840530290599" r="2" fill="rgb(0,0,255)"/><circle cx="85.35353535353535" cy="405.48764319937845" r="2" fill="rgb(0,0,255)"/><circle cx="90.40404040404042" cy="423.20902415260565" r="2" fill="rgb(0,0,255)"/><circle cx="95.45454545454545" cy="420.9660822238649" r="2" fill="rgb(0,0,255)"/><circle cx="100.5050505050505" cy="378.93829278046076" r="2" fill="rgb(0,0,255)"/><circle cx="105.55555555555554" cy="414.4413111057097" r="2" fill="rgb(0,0,255)"/><circle cx="110.60606060606061" cy="349.45144143821096" r="2" fill="rgb(0,0,255)"/><circle cx="115.65656565656566" cy="404.4065617375737" r="2" fill="rgb(0,0,255)"/><circle cx="120.7070707070707" cy="390.63219218863037" r="2" fill="rgb(0,0,255)"/><circle cx="125.75757575757576" cy="232.8055162089086" r="2" fill="rgb(0,0,255)"/><circle cx="130.80808080808083" cy="177.6391336584204" r="2" fill="rgb(0,0,255)"/><circle cx="135.85858585858585" cy="339.86588034745796" r="2" fill="rgb(0,0,255)"/><circle cx="140.9090909090909" cy="369.0488116019916" r="2" fill="rgb(0,0,255)"/><circle cx="145.95959595959596" cy="397.36061570349636" r="2" fill="rgb(0,0,255)"/><circle cx="151.010101010101" cy="407.93480141272767" r="2" fill="rgb(0,0,255)"/><circle cx="156.06060606060606" cy="362.222373338626" r="2" fill="rgb(0,0,255)"/><circle cx="161.1111111111111" cy="363.19346373121095" r="2" fill="rgb(0,0,255)"/><circle cx="166.16161616161617" cy="229.66258899214614" r="2" fill="rgb(0,0,255)"/><circle cx="171.21212121212122" cy="386.84885461540716" r="2" fill="rgb(0,0,255)"/><circle cx="176.26262626262627" cy="348.74759592506393" r="2" fill="rgb(0,0,255)"/><circle cx="181.31313131313132" cy="348.9133636920069" r="2" fill="rgb(0,0,255)"/><circle cx="186.36363636363635" cy="269.1833088750684" r="2" fill="rgb(0,0,255)"/><circle cx="191.4141414141414" cy="395.1047089060363" r="2" fill="rgb(0,0,255)"/><circle cx="196.46464646464648" cy="294.6575195426335" r="2" fill="rgb(0,0,255)"/><circle cx="201.51515151515153" cy="295.00395041761425" r="2" fill="rgb(0,0,255)"/><circle cx="206.56565656565658" cy="296.2161979392987" r="2" fill="rgb(0,0,255)"/><circle cx="211.61616161616163" cy="215.71395420244033" r="2" fill="rgb(0,0,255)"/><circle cx="216.66666666666666" cy="341.8732418355944" r="2" fill="rgb(0,0,255)"/><circle cx="221.7171717171717" cy="342.30800298729366" r="2" fill="rgb(0,0,255)"/><circle cx="226.76767676767676" cy="342.2375953588554" r="2" fill="rgb(0,0,255)"/><circle cx="231.8181818181818" cy="342.4851708306642" r="2" fill="rgb(0,0,255)"/><circle cx="236.86868686868686" cy="385.01370384119423" r="2" fill="rgb(0,0,255)"/><circle cx="241.91919191919192" cy="387.0399574025913" r="2" fill="rgb(0,0,255)"/><circle cx="246.96969696969697" cy="409.8973428397887" r="2" fill="rgb(0,0,255)"/><circle cx="252.02020202020202" cy="351.9599481608737" r="2" fill="rgb(0,0,255)"/><circle cx="257.07070707070704" cy="352.0597089698292" r="2" fill="rgb(0,0,255)"/><circle cx="262.1212121212121" cy="378.21782051709135" r="2" fill="rgb(0,0,255)"/><circle cx="267.1717171717172" cy="402.47953493337707" r="2" fill="rgb(0,0,255)"/><circle cx="272.2222222222222" cy="402.2457319580028" r="2" fill="rgb(0,0,255)"/><circle cx="277.27272727272725" cy="402.54773132231287" r="2" fill="rgb(0,0,255)"/><circle cx="282.32323232323233" cy="397.1500007472631" r="2" fill="rgb(0,0,255)"/><circle cx="287.3737373737374" cy="398.4580132866744" r="2" fill="rgb(0,0,255)"/><circle cx="292.42424242424244" cy="401.1818575941543" r="2" fill="rgb(0,0,255)"/><circle cx="297.47474747474746" cy="402.0091620078377" r="2" fill="rgb(0,0,255)"/><circle cx="302.52525252525254" cy="414.53650774737497" r="2" fill="rgb(0,0,255)"/><circle cx="307.57575757575756" cy="412.62661845517687" r="2" fill="rgb(0,0,255)"/><circle cx="312.62626262626264" cy="313.28095619207403" r="2" fill="rgb(0,0,255)"/><circle cx="317.67676767676767" cy="226.73423242455777" r="2" fill="rgb(0,0,255)"/><circle cx="322.7272727272727" cy="190.1572499418702" r="2" fill="rgb(0,0,255)"/><circle cx="327.77777777777777" cy="345.8350078502975" r="2" fill="rgb(0,0,255)"/><circle cx="332.8282828282828" cy="335.18270569220317" r="2" fill="rgb(0,0,255)"/><circle cx="337.8787878787879" cy="336.68148953649415" r="2" fill="rgb(0,0,255)"/><circle cx="342.92929292929296" cy="144.3124408413201" r="2" fill="rgb(0,0,255)"/><circle cx="347.979797979798" cy="381.4917023534448" r="2" fill="rgb(0,0,255)"/><circle cx="353.03030303030306" cy="315.4514506882224" r="2" fill="rgb(0,0,255)"/><circle cx="358.0808080808081" cy="328.1209540299899" r="2" fill="rgb(0,0,255)"/><circle cx="363.13131313131316" cy="358.56494489088993" r="2" fill="rgb(0,0,255)"/><circle cx="368.1818181818182" cy="409.1554141992676" r="2" fill="rgb(0,0,255)"/><circle cx="373.23232323232327" cy="410.0834236475082" r="2" fill="rgb(0,0,255)"/><circle cx="378.2828282828283" cy="407.5887480624799" r="2" fill="rgb(0,0,255)"/><circle cx="383.3333333333333" cy="151.7289350559672" r="2" fill="rgb(0,0,255)"/><circle cx="388.3838383838384" cy="279.06410104119186" r="2" fill="rgb(0,0,255)"/><circle cx="393.4343434343434" cy="345.92098190627166" r="2" fill="rgb(0,0,255)"/><circle cx="398.4848484848485" cy="398.51751632826455" r="2" fill="rgb(0,0,255)"/><circle cx="403.5353535353535" cy="397.6128535037152" r="2" fill="rgb(0,0,255)"/><circle cx="408.58585858585855" cy="397.34026319768634" r="2" fill="rgb(0,0,255)"/><circle cx="413.6363636363636" cy="344.6097220947413" r="2" fill="rgb(0,0,255)"/><circle cx="418.68686868686865" cy="344.6097220947413" r="2" fill="rgb(0,0,255)"/><circle cx="423.73737373737373" cy="272.2099035645375" r="2" fill="rgb(0,0,255)"/><circle cx="428.7878787878788" cy="271.2367823578834" r="2" fill="rgb(0,0,255)"/><circle cx="433.83838383838383" cy="271.3999800206055" r="2" fill="rgb(0,0,255)"/><circle cx="438.8888888888889" cy="397.94151833077865" r="2" fill="rgb(0,0,255)"/><circle cx="443.93939393939394" cy="333.2124646229846" r="2" fill="rgb(0,0,255)"/><circle cx="448.989898989899" cy="326.3388203580145" r="2" fill="rgb(0,0,255)"/><circle cx="454.04040404040404" cy="383.0795314940069" r="2" fill="rgb(0,0,255)"/><circle cx="459.0909090909091" cy="383.0795314940069" r="2" fill="rgb(0,0,255)"/><circle cx="464.14141414141415" cy="407.30034280289135" r="2" fill="rgb(0,0,255)"/><circle cx="469.19191919191917" cy="407.571141023842" r="2" fill="rgb(0,0,255)"/><circle cx="474.24242424242425" cy="384.346245159374" r="2" fill="rgb(0,0,255)"/><circle cx="479.2929292929293" cy="384.75493492460646" r="2" fill="rgb(0,0,255)"/><circle cx="484.34343434343435" cy="410.29979068854965" r="2" fill="rgb(0,0,255)"/><circle cx="489.3939393939394" cy="383.8936202362504" r="2" fill="rgb(0,0,255)"/><circle cx="494.4444444444444" cy="401.45721844011814" r="2" fill="rgb(0,0,255)"/><circle cx="499.4949494949495" cy="402.80566787026476" r="2" fill="rgb(0,0,255)"/><circle cx="504.5454545454545" cy="402.7123551498441" r="2" fill="rgb(0,0,255)"/><circle cx="509.59595959595964" cy="347.0627850471907" r="2" fill="rgb(0,0,255)"/><circle cx="514.6464646464647" cy="380.9770212205891" r="2" fill="rgb(0,0,255)"/><circle cx="519.6969696969697" cy="403.1624646667799" r="2" fill="rgb(0,0,255)"/><circle cx="524.7474747474748" cy="403.13673837332516" r="2" fill="rgb(0,0,255)"/><circle cx="529.7979797979798" cy="365.2923409489269" r="2" fill="rgb(0,0,255)"/><circle cx="534.8484848484849" cy="341.4399758696397" r="2" fill="rgb(0,0,255)"/><circle cx="539.8989898989898" cy="326.5367869994268" r="2" fill="rgb(0,0,255)"/><circle cx="544.9494949494949" cy="323.6483157982269" r="2" fill="rgb(0,0,255)"/><circle cx="550.0" cy="287.5559558322441" r="2" fill="rgb(0,0,255)"/><polyline points="50.0,245.5202704191849 55.05050505050505,211.35240133250886 60.101010101010104,185.6170098532753 65.15151515151516,149.74553737680145 70.20202020202021,129.85054010927098 75.25252525252526,113.67207620703869 80.30303030303031,117.25885203393949 85.35353535353535,105.50934000640865 90.40404040404042,96.44281951853884 95.45454545454545,98.4606013406509 100.5050505050505,91.41950567014112 105.55555555555554,90.69427283170415 110.60606060606061,78.24879231774884 115.65656565656566,81.29630091247708 120.7070707070707,78.90616487311149 125.75757575757576,70.49217411754671 130.80808080808083,66.89686077334306 135.85858585858585,71.77325012859421 140.9090909090909,79.94510755336961 145.95959595959596,79.61128103519832 151.010101010101,70.97641811428838 156.06060606060606,63.9660476314225 161.1111111111111,71.3477722606329 166.16161616161617,63.38267435917476 171.21212121212122,68.52809592642467 176.26262626262627,71.29487316168053 181.31313131313132,63.63556358976223 186.36363636363635,66.04577699327461 191.4141414141414,62.51861300189836 196.46464646464648,65.07795683969147 201.51515151515153,63.81795967477382 206.56565656565658,60.77002607745521 211.61616161616163,60.53846080804959 216.66666666666666,66.33928189804209 221.7171717171717,65.73512622854935 226.76767676767676,65.55019324578672 231.8181818181818,68.50282742071539 236.86868686868686,66.60093080892204 241.91919191919192,61.599377907970336 246.96969696969697,65.24733967178679 252.02020202020202,67.43128102944485 257.07070707070704,66.56679569713833 262.1212121212121,73.95052662841528 267.1717171717172,73.82236387695167 272.2222222222222,73.48531400003583 277.27272727272725,68.96716606665791 282.32323232323233,66.35720157604862 287.3737373737374,80.26378301932084 292.42424242424244,73.3602888697094 297.47474747474746,64.80697834999773 302.52525252525254,68.27584888296923 307.57575757575756,71.7674002366038 312.62626262626264,67.91847939895763 317.67676767676767,60.73246273955459 322.7272727272727,57.354287797148686 327.77777777777777,58.294721946387256 332.8282828282828,59.72402321985021 337.8787878787879,57.64341459639974 342.92929292929296,55.63959644867771 347.979797979798,70.79875309222757 353.03030303030306,58.8882853590365 358.0808080808081,62.035895539919636 363.13131313131316,73.92595162620694 368.1818181818182,69.09662721258638 373.23232323232327,61.12681833034276 378.2828282828283,62.43189209693526 383.3333333333333,52.646375636253424 388.3838383838384,57.76173300345249 393.4343434343434,56.94810154649116 398.4848484848485,60.84439351380087 403.5353535353535,62.071482008402995 408.58585858585855,65.350547201827 413.6363636363636,67.52884304572967 418.68686868686865,68.54673530117907 423.73737373737373,65.3977226481125 428.7878787878788,65.59168611642417 433.83838383838383,62.24937111529107 438.8888888888889,67.89957453154642 443.93939393939394,58.8619017237213 448.989898989899,59.09667353305758 454.04040404040404,63.29272233241301 459.0909090909091,58.69340669640553 464.14141414141415,66.86724136964511 469.19191919191917,73.44396870667322 474.24242424242425,68.19900124527766 479.2929292929293,60.47526089277682 484.34343434343435,63.377113589874796 489.3939393939394,58.2416031515877 494.4444444444444,57.954031272770635 499.4949494949495,67.48497439134803 504.5454545454545,64.4087558775098 509.59595959595964,58.31773483605622 514.6464646464647,60.86615791295941 519.6969696969697,62.4019042048987 524.7474747474748,60.03219716950389 529.7979797979798,64.60404836603254 534.8484848484849,62.089344618703706 539.8989898989898,58.659711638882186 544.9494949494949,56.79559203214103 550.0,53.889461598598984" fill="none" stroke="rgb(255,0,0)" stroke-width="1"/><circle cx="50.0" cy="245.5202704191849" r="2" fill="rgb(255,0,0)"/><circle cx="55.05050505050505" cy="211.35240133250886" r="2" fill="rgb(255,0,0)"/><circle cx="60.101010101010104" cy="185.6170098532753" r="2" fill="rgb(255,0,0)"/><circle cx="65.15151515151516" cy="149.74553737680145" r="2" fill="rgb(255,0,0)"/><circle cx="70.20202020202021" cy="129.85054010927098" r="2" fill="rgb(255,0,0)"/><circle cx="75.25252525252526" cy="113.67207620703869" r="2" fill="rgb(255,0,0)"/><circle cx="80.30303030303031" cy="117.25885203393949" r="2" fill="rgb(255,0,0)"/><circle cx="85.35353535353535" cy="105.50934000640865" r="2" fill="rgb(255,0,0)"/><circle cx="90.40404040404042" cy="96.44281951853884" r="2" fill="rgb(255,0,0)"/><circle cx="95.45454545454545" cy="98.4606013406509" r="2" fill="rgb(255,0,0)"/><circle cx="100.5050505050505" cy="91.41950567014112" r="2" fill="rgb(255,0,0)"/><circle cx="105.55555555555554" cy="90.69427283170415" r="2" fill="rgb(255,0,0)"/><circle cx="110.60606060606061" cy="78.24879231774884" r="2" fill="rgb(255,0,0)"/><circle cx="115.65656565656566" cy="81.29630091247708" r="2" fill="rgb(255,0,0)"/><circle cx="120.7070707070707" cy="78.90616487311149" r="2" fill="rgb(255,0,0)"/><circle cx="125.75757575757576" cy="70.49217411754671" r="2" fill="rgb(255,0,0)"/><circle cx="130.80808080808083" cy="66.89686077334306" r="2" fill="rgb(255,0,0)"/><circle cx="135.85858585858585" cy="71.77325012859421" r="2" fill="rgb(255,0,0)"/><circle cx="140.9090909090909" cy="79.94510755336961" r="2" fill="rgb(255,0,0)"/><circle cx="145.95959595959596" cy="79.61128103519832" r="2" fill="rgb(255,0,0)"/><circle cx="151.010101010101" cy="70.97641811428838" r="2" fill="rgb(255,0,0)"/><circle cx="156.06060606060606" cy="63.9660476314225" r="2" fill="rgb(255,0,0)"/><circle cx="161.1111111111111" cy="71.3477722606329" r="2" fill="rgb(255,0,0)"/><circle cx="166.16161616161617" cy="63.38267435917476" r="2" fill="rgb(255,0,0)"/><circle cx="171.21212121212122" cy="68.52809592642467" r="2" fill="rgb(255,0,0)"/><circle cx="176.26262626262627" cy="71.29487316168053" r="2" fill="rgb(255,0,0)"/><circle cx="181.31313131313132" cy="63.63556358976223" r="2" fill="rgb(255,0,0)"/><circle cx="186.36363636363635" cy="66.04577699327461" r="2" fill="rgb(255,0,0)"/><circle cx="191.4141414141414" cy="62.51861300189836" r="2" fill="rgb(255,0,0)"/><circle cx="196.46464646464648" cy="65.07795683969147" r="2" fill="rgb(255,0,0)"/><circle cx="201.51515151515153" cy="63.81795967477382" r="2" fill="rgb(255,0,0)"/><circle cx="206.56565656565658" cy="60.77002607745521" r="2" fill="rgb(255,0,0)"/><circle cx="211.61616161616163" cy="60.53846080804959" r="2" fill="rgb(255,0,0)"/><circle cx="216.66666666666666" cy="66.33928189804209" r="2" fill="rgb(255,0,0)"/><circle cx="221.7171717171717" cy="65.73512622854935" r="2" fill="rgb(255,0,0)"/><circle cx="226.76767676767676" cy="65.55019324578672" r="2" fill="rgb(255,0,0)"/><circle cx="231.8181818181818" cy="68.50282742071539" r="2" fill="rgb(255,0,0)"/><circle cx="236.86868686868686" cy="66.60093080892204" r="2" fill="rgb(255,0,0)"/><circle cx="241.91919191919192" cy="61.599377907970336" r="2" fill="rgb(255,0,0)"/><circle cx="246.96969696969697" cy="65.24733967178679" r="2" fill="rgb(255,0,0)"/><circle cx="252.02020202020202" cy="67.43128102944485" r="2" fill="rgb(255,0,0)"/><circle cx="257.07070707070704" cy="66.56679569713833" r="2" fill="rgb(255,0,0)"/><circle cx="262.1212121212121" cy="73.95052662841528" r="2" fill="rgb(255,0,0)"/><circle cx="267.1717171717172" cy="73.82236387695167" r="2" fill="rgb(255,0,0)"/><circle cx="272.2222222222222" cy="73.48531400003583" r="2" fill="rgb(255,0,0)"/><circle cx="277.27272727272725" cy="68.96716606665791" r="2" fill="rgb(255,0,0)"/><circle cx="282.32323232323233" cy="66.35720157604862" r="2" fill="rgb(255,0,0)"/><circle cx="287.3737373737374" cy="80.26378301932084" r="2" fill="rgb(255,0,0)"/><circle cx="292.42424242424244" cy="73.3602888697094" r="2" fill="rgb(255,0,0)"/><circle cx="297.47474747474746" cy="64.80697834999773" r="2" fill="rgb(255,0,0)"/><circle cx="302.52525252525254" cy="68.27584888296923" r="2" fill="rgb(255,0,0)"/><circle cx="307.57575757575756" cy="71.7674002366038" r="2" fill="rgb(255,0,0)"/><circle cx="312.62626262626264" cy="67.91847939895763" r="2" fill="rgb(255,0,0)"/><circle cx="317.67676767676767" cy="60.73246273955459" r="2" fill="rgb(255,0,0)"/><circle cx="322.7272727272727" cy="57.354287797148686" r="2" fill="rgb(255,0,0)"/><circle cx="327.77777777777777" cy="58.294721946387256" r="2" fill="rgb(255,0,0)"/><circle cx="332.8282828282828" cy="59.72402321985021" r="2" fill="rgb(255,0,0)"/><circle cx="337.8787878787879" cy="57.64341459639974" r="2" fill="rgb(255,0,0)"/><circle cx="342.92929292929296" cy="55.63959644867771" r="2" fill="rgb(255,0,0)"/><circle cx="347.979797979798" cy="70.79875309222757" r="2" fill="rgb(255,0,0)"/><circle cx="353.03030303030306" cy="58.8882853590365" r="2" fill="rgb(255,0,0)"/><circle cx="358.0808080808081" cy="62.035895539919636" r="2" fill="rgb(255,0,0)"/><circle cx="363.13131313131316" cy="73.92595162620694" r="2" fill="rgb(255,0,0)"/><circle cx="368.1818181818182" cy="69.09662721258638" r="2" fill="rgb(255,0,0)"/><circle cx="373.23232323232327" cy="61.12681833034276" r="2" fill="rgb(255,0,0)"/><circle cx="378.2828282828283" cy="62.43189209693526" r="2" fill="rgb(255,0,0)"/><circle cx="383.3333333333333" cy="52.646375636253424" r="2" fill="rgb(255,0,0)"/><circle cx="388.3838383838384" cy="57.76173300345249" r="2" fill="rgb(255,0,0)"/><circle cx="393.4343434343434" cy="56.94810154649116" r="2" fill="rgb(255,0,0)"/><circle cx="398.4848484848485" cy="60.84439351380087" r="2" fill="rgb(255,0,0)"/><circle cx="403.5353535353535" cy="62.071482008402995" r="2" fill="rgb(255,0,0)"/><circle cx="408.58585858585855" cy="65.350547201827" r="2" fill="rgb(255,0,0)"/><circle cx="413.6363636363636" cy="67.52884304572967" r="2" fill="rgb(255,0,0)"/><circle cx="418.68686868686865" cy="68.54673530117907" r="2" fill="rgb(255,0,0)"/><circle cx="423.73737373737373" cy="65.3977226481125" r="2" fill="rgb(255,0,0)"/><circle cx="428.7878787878788" cy="65.59168611642417" r="2" fill="rgb(255,0,0)"/><circle cx="433.83838383838383" cy="62.24937111529107" r="2" fill="rgb(255,0,0)"/><circle cx="438.8888888888889" cy="67.89957453154642" r="2" fill="rgb(255,0,0)"/><circle cx="443.93939393939394" cy="58.8619017237213" r="2" fill="rgb(255,0,0)"/><circle cx="448.989898989899" cy="59.09667353305758" r="2" fill="rgb(255,0,0)"/><circle cx="454.04040404040404" cy="63.29272233241301" r="2" fill="rgb(255,0,0)"/><circle cx="459.0909090909091" cy="58.69340669640553" r="2" fill="rgb(255,0,0)"/><circle cx="464.14141414141415" cy="66.86724136964511" r="2" fill="rgb(255,0,0)"/><circle cx="469.19191919191917" cy="73.44396870667322" r="2" fill="rgb(255,0,0)"/><circle cx="474.24242424242425" cy="68.19900124527766" r="2" fill="rgb(255,0,0)"/><circle cx="479.2929292929293" cy="60.47526089277682" r="2" fill="rgb(255,0,0)"/><circle cx="484.34343434343435" cy="63.377113589874796" r="2" fill="rgb(255,0,0)"/><circle cx="489.3939393939394" cy="58.2416031515877" r="2" fill="rgb(255,0,0)"/><circle cx="494.4444444444444" cy="57.954031272770635" r="2" fill="rgb(255,0,0)"/><circle cx="499.4949494949495" cy="67.48497439134803" r="2" fill="rgb(255,0,0)"/><circle cx="504.5454545454545" cy="64.4087558775098" r="2" fill="rgb(255,0,0)"/><circle cx="509.59595959595964" cy="58.31773483605622" r="2" fill="rgb(255,0,0)"/><circle cx="514.6464646464647" cy="60.86615791295941" r="2" fill="rgb(255,0,0)"/><circle cx="519.6969696969697" cy="62.4019042048987" r="2" fill="rgb(255,0,0)"/><circle cx="524.7474747474748" cy="60.03219716950389" r="2" fill="rgb(255,0,0)"/><circle cx="529.7979797979798" cy="64.60404836603254" r="2" fill="rgb(255,0,0)"/><circle cx="534.8484848484849" cy="62.089344618703706" r="2" fill="rgb(255,0,0)"/><circle cx="539.8989898989898" cy="58.659711638882186" r="2" fill="rgb(255,0,0)"/><circle cx="544.9494949494949" cy="56.79559203214103" r="2" fill="rgb(255,0,0)"/><circle cx="550.0" cy="53.889461598598984" r="2" fill="rgb(255,0,0)"/><polyline points="50.0,58.262169940709214 55.05050505050505,68.59308690265999 60.101010101010104,67.7591639353214 65.15151515151516,57.945559779443045 70.20202020202021,58.85933435748626 75.25252525252526,56.4634037854284 80.30303030303031,57.061884777577006 85.35353535353535,57.25989461922393 90.40404040404042,58.064964788433144 95.45454545454545,56.94215694177052 100.5050505050505,57.18571670678563 105.55555555555554,55.90197319318986 110.60606060606061,55.7828091493235 115.65656565656566,55.7828091493235 120.7070707070707,55.23645205567425 125.75757575757576,54.42767757624131 130.80808080808083,55.33321496775096 135.85858585858585,55.400903495746036 140.9090909090909,55.16574115519404 145.95959595959596,55.48257906340302 151.010101010101,55.366821563150665 156.06060606060606,55.113736681146065 161.1111111111111,54.92854658768829 166.16161616161617,54.975689031244656 171.21212121212122,55.145166387637744 176.26262626262627,54.59858159119392 181.31313131313132,54.43449430432929 186.36363636363635,54.55798075645629 191.4141414141414,54.10714636931556 196.46464646464648,53.92704800364834 201.51515151515153,54.16977960643169 206.56565656565658,54.18345002294461 211.61616161616163,54.17792474576464 216.66666666666666,53.80357766915637 221.7171717171717,53.80357766915637 226.76767676767676,53.960211258409174 231.8181818181818,53.9442865376073 236.86868686868686,53.94283280275545 241.91919191919192,53.80357766915637 246.96969696969697,53.80357766915637 252.02020202020202,53.80357766915637 257.07070707070704,53.80357766915637 262.1212121212121,53.77268259432748 267.1717171717172,53.76019199207872 272.2222222222222,53.7390752523616 277.27272727272725,53.78953940529135 282.32323232323233,53.79487890402066 287.3737373737374,53.707787210713775 292.42424242424244,53.73722082388031 297.47474747474746,53.72890395043089 302.52525252525254,51.26117764845833 307.57575757575756,50.47912929122697 312.62626262626264,50.47912929122697 317.67676767676767,50.59245260651994 322.7272727272727,50.656187336625635 327.77777777777777,50.53928013846593 332.8282828282828,50.5603968781831 337.8787878787879,50.53928013846593 342.92929292929296,50.458012551509796 347.979797979798,50.458012551509796 353.03030303030306,50.37964155308032 358.0808080808081,50.41539456112133 363.13131313131316,50.458012551509796 368.1818181818182,50.458012551509796 373.23232323232327,50.458012551509796 378.2828282828283,50.3942778214041 383.3333333333333,50.3942778214041 388.3838383838384,50.25585645121578 393.4343434343434,50.348485346329426 398.4848484848485,50.25585645121578 403.5353535353535,50.3942778214041 408.58585858585855,50.25196946082929 413.6363636363636,50.309246233297245 418.68686868686865,50.31570419093498 423.73737373737373,50.245511503191494 428.7878787878788,50.245511503191494 433.83838383838383,50.08231384046945 438.8888888888889,50.231080158682005 443.93939393939394,50.231080158682005 448.989898989899,50.245511503191494 454.04040404040404,50.13577655507652 459.0909090909091,50.13577655507652 464.14141414141415,50.19814685480327 469.19191919191917,50.08877179810719 474.24242424242425,50.007783911968886 479.2929292929293,50.03637990357163 484.34343434343435,50.061171351949326 489.3939393939394,50.08231384046945 494.4444444444444,50.13026435884336 499.4949494949495,50.13026435884336 504.5454545454545,50.08231384046945 509.59595959595964,50.0 514.6464646464647,50.00894605130293 519.6969696969697,50.08231384046945 524.7474747474748,50.16159475404777 529.7979797979798,50.16159475404777 534.8484848484849,50.19724580556385 539.8989898989898,50.210898139643916 544.9494949494949,50.00111483896302 550.0,50.14716340953822" fill="none" stroke="rgb(0,255,0)" stroke-width="1"/><circle cx="50.0" cy="58.262169940709214" r="2" fill="rgb(0,255,0)"/><circle cx="55.05050505050505" cy="68.59308690265999" r="2" fill="rgb(0,255,0)"/><circle cx="60.101010101010104" cy="67.7591639353214" r="2" fill="rgb(0,255,0)"/><circle cx="65.15151515151516" cy="57.945559779443045" r="2" fill="rgb(0,255,0)"/><circle cx="70.20202020202021" cy="58.85933435748626" r="2" fill="rgb(0,255,0)"/><circle cx="75.25252525252526" cy="56.4634037854284" r="2" fill="rgb(0,255,0)"/><circle cx="80.30303030303031" cy="57.061884777577006" r="2" fill="rgb(0,255,0)"/><circle cx="85.35353535353535" cy="57.25989461922393" r="2" fill="rgb(0,255,0)"/><circle cx="90.40404040404042" cy="58.064964788433144" r="2" fill="rgb(0,255,0)"/><circle cx="95.45454545454545" cy="56.94215694177052" r="2" fill="rgb(0,255,0)"/><circle cx="100.5050505050505" cy="57.18571670678563" r="2" fill="rgb(0,255,0)"/><circle cx="105.55555555555554" cy="55.90197319318986" r="2" fill="rgb(0,255,0)"/><circle cx="110.60606060606061" cy="55.7828091493235" r="2" fill="rgb(0,255,0)"/><circle cx="115.65656565656566" cy="55.7828091493235" r="2" fill="rgb(0,255,0)"/><circle cx="120.7070707070707" cy="55.23645205567425" r="2" fill="rgb(0,255,0)"/><circle cx="125.75757575757576" cy="54.42767757624131" r="2" fill="rgb(0,255,0)"/><circle cx="130.80808080808083" cy="55.33321496775096" r="2" fill="rgb(0,255,0)"/><circle cx="135.85858585858585" cy="55.400903495746036" r="2" fill="rgb(0,255,0)"/><circle cx="140.9090909090909" cy="55.16574115519404" r="2" fill="rgb(0,255,0)"/><circle cx="145.95959595959596" cy="55.48257906340302" r="2" fill="rgb(0,255,0)"/><circle cx="151.010101010101" cy="55.366821563150665" r="2" fill="rgb(0,255,0)"/><circle cx="156.06060606060606" cy="55.113736681146065" r="2" fill="rgb(0,255,0)"/><circle cx="161.1111111111111" cy="54.92854658768829" r="2" fill="rgb(0,255,0)"/><circle cx="166.16161616161617" cy="54.975689031244656" r="2" fill="rgb(0,255,0)"/><circle cx="171.21212121212122" cy="55.145166387637744" r="2" fill="rgb(0,255,0)"/><circle cx="176.26262626262627" cy="54.59858159119392" r="2" fill="rgb(0,255,0)"/><circle cx="181.31313131313132" cy="54.43449430432929" r="2" fill="rgb(0,255,0)"/><circle cx="186.36363636363635" cy="54.55798075645629" r="2" fill="rgb(0,255,0)"/><circle cx="191.4141414141414" cy="54.10714636931556" r="2" fill="rgb(0,255,0)"/><circle cx="196.46464646464648" cy="53.92704800364834" r="2" fill="rgb(0,255,0)"/><circle cx="201.51515151515153" cy="54.16977960643169" r="2" fill="rgb(0,255,0)"/><circle cx="206.56565656565658" cy="54.18345002294461" r="2" fill="rgb(0,255,0)"/><circle cx="211.61616161616163" cy="54.17792474576464" r="2" fill="rgb(0,255,0)"/><circle cx="216.66666666666666" cy="53.80357766915637" r="2" fill="rgb(0,255,0)"/><circle cx="221.7171717171717" cy="53.80357766915637" r="2" fill="rgb(0,255,0)"/><circle cx="226.76767676767676" cy="53.960211258409174" r="2" fill="rgb(0,255,0)"/><circle cx="231.8181818181818" cy="53.9442865376073" r="2" fill="rgb(0,255,0)"/><circle cx="236.86868686868686" cy="53.94283280275545" r="2" fill="rgb(0,255,0)"/><circle cx="241.91919191919192" cy="53.80357766915637" r="2" fill="rgb(0,255,0)"/><circle cx="246.96969696969697" cy="53.80357766915637" r="2" fill="rgb(0,255,0)"/><circle cx="252.02020202020202" cy="53.80357766915637" r="2" fill="rgb(0,255,0)"/><circle cx="257.07070707070704" cy="53.80357766915637" r="2" fill="rgb(0,255,0)"/><circle cx="262.1212121212121" cy="53.77268259432748" r="2" fill="rgb(0,255,0)"/><circle cx="267.1717171717172" cy="53.76019199207872" r="2" fill="rgb(0,255,0)"/><circle cx="272.2222222222222" cy="53.7390752523616" r="2" fill="rgb(0,255,0)"/><circle cx="277.27272727272725" cy="53.78953940529135" r="2" fill="rgb(0,255,0)"/><circle cx="282.32323232323233" cy="53.79487890402066" r="2" fill="rgb(0,255,0)"/><circle cx="287.3737373737374" cy="53.707787210713775" r="2" fill="rgb(0,255,0)"/><circle cx="292.42424242424244" cy="53.73722082388031" r="2" fill="rgb(0,255,0)"/><circle cx="297.47474747474746" cy="53.72890395043089" r="2" fill="rgb(0,255,0)"/><circle cx="302.52525252525254" cy="51.26117764845833" r="2" fill="rgb(0,255,0)"/><circle cx="307.57575757575756" cy="50.47912929122697" r="2" fill="rgb(0,255,0)"/><circle cx="312.62626262626264" cy="50.47912929122697" r="2" fill="rgb(0,255,0)"/><circle cx="317.67676767676767" cy="50.59245260651994" r="2" fill="rgb(0,255,0)"/><circle cx="322.7272727272727" cy="50.656187336625635" r="2" fill="rgb(0,255,0)"/><circle cx="327.77777777777777" cy="50.53928013846593" r="2" fill="rgb(0,255,0)"/><circle cx="332.8282828282828" cy="50.5603968781831" r="2" fill="rgb(0,255,0)"/><circle cx="337.8787878787879" cy="50.53928013846593" r="2" fill="rgb(0,255,0)"/><circle cx="342.92929292929296" cy="50.458012551509796" r="2" fill="rgb(0,255,0)"/><circle cx="347.979797979798" cy="50.458012551509796" r="2" fill="rgb(0,255,0)"/><circle cx="353.03030303030306" cy="50.37964155308032" r="2" fill="rgb(0,255,0)"/><circle cx="358.0808080808081" cy="50.41539456112133" r="2" fill="rgb(0,255,0)"/><circle cx="363.13131313131316" cy="50.458012551509796" r="2" fill="rgb(0,255,0)"/><circle cx="368.1818181818182" cy="50.458012551509796" r="2" fill="rgb(0,255,0)"/><circle cx="373.23232323232327" cy="50.458012551509796" r="2" fill="rgb(0,255,0)"/><circle cx="378.2828282828283" cy="50.3942778214041" r="2" fill="rgb(0,255,0)"/><circle cx="383.3333333333333" cy="50.3942778214041" r="2" fill="rgb(0,255,0)"/><circle cx="388.3838383838384" cy="50.25585645121578" r="2" fill="rgb(0,255,0)"/><circle cx="393.4343434343434" cy="50.348485346329426" r="2" fill="rgb(0,255,0)"/><circle cx="398.4848484848485" cy="50.25585645121578" r="2" fill="rgb(0,255,0)"/><circle cx="403.5353535353535" cy="50.3942778214041" r="2" fill="rgb(0,255,0)"/><circle cx="408.58585858585855" cy="50.25196946082929" r="2" fill="rgb(0,255,0)"/><circle cx="413.6363636363636" cy="50.309246233297245" r="2" fill="rgb(0,255,0)"/><circle cx="418.68686868686865" cy="50.31570419093498" r="2" fill="rgb(0,255,0)"/><circle cx="423.73737373737373" cy="50.245511503191494" r="2" fill="rgb(0,255,0)"/><circle cx="428.7878787878788" cy="50.245511503191494" r="2" fill="rgb(0,255,0)"/><circle cx="433.83838383838383" cy="50.08231384046945" r="2" fill="rgb(0,255,0)"/><circle cx="438.8888888888889" cy="50.231080158682005" r="2" fill="rgb(0,255,0)"/><circle cx="443.93939393939394" cy="50.231080158682005" r="2" fill="rgb(0,255,0)"/><circle cx="448.989898989899" cy="50.245511503191494" r="2" fill="rgb(0,255,0)"/><circle cx="454.04040404040404" cy="50.13577655507652" r="2" fill="rgb(0,255,0)"/><circle cx="459.0909090909091" cy="50.13577655507652" r="2" fill="rgb(0,255,0)"/><circle cx="464.14141414141415" cy="50.19814685480327" r="2" fill="rgb(0,255,0)"/><circle cx="469.19191919191917" cy="50.08877179810719" r="2" fill="rgb(0,255,0)"/><circle cx="474.24242424242425" cy="50.007783911968886" r="2" fill="rgb(0,255,0)"/><circle cx="479.2929292929293" cy="50.03637990357163" r="2" fill="rgb(0,255,0)"/><circle cx="484.34343434343435" cy="50.061171351949326" r="2" fill="rgb(0,255,0)"/><circle cx="489.3939393939394" cy="50.08231384046945" r="2" fill="rgb(0,255,0)"/><circle cx="494.4444444444444" cy="50.13026435884336" r="2" fill="rgb(0,255,0)"/><circle cx="499.4949494949495" cy="50.13026435884336" r="2" fill="rgb(0,255,0)"/><circle cx="504.5454545454545" cy="50.08231384046945" r="2" fill="rgb(0,255,0)"/><circle cx="509.59595959595964" cy="50.0" r="2" fill="rgb(0,255,0)"/><circle cx="514.6464646464647" cy="50.00894605130293" r="2" fill="rgb(0,255,0)"/><circle cx="519.6969696969697" cy="50.08231384046945" r="2" fill="rgb(0,255,0)"/><circle cx="524.7474747474748" cy="50.16159475404777" r="2" fill="rgb(0,255,0)"/><circle cx="529.7979797979798" cy="50.16159475404777" r="2" fill="rgb(0,255,0)"/><circle cx="534.8484848484849" cy="50.19724580556385" r="2" fill="rgb(0,255,0)"/><circle cx="539.8989898989898" cy="50.210898139643916" r="2" fill="rgb(0,255,0)"/><circle cx="544.9494949494949" cy="50.00111483896302" r="2" fill="rgb(0,255,0)"/><circle cx="550.0" cy="50.14716340953822" r="2" fill="rgb(0,255,0)"/><text text-anchor="middle" x="350.0" y="20.0" fill="rgb(0,0,0)" font-size="20.0">GA Demo</text><text text-anchor="middle" x="350.0" y="575.0" fill="rgb(0,0,0)" font-size="12.0">generation</text><text text-anchor="middle" x="20.0" y="300.0" transform="rotate(-90.0 20.0 300.0)" fill="rgb(0,0,0)" font-size="12.0">fitness</text><text x="620" y="62" fill="rgb(0,0,255)" font-size="12">min</text><text x="620" y="74" fill="rgb(255,0,0)" font-size="12">ave</text><text x="620" y="86" fill="rgb(0,255,0)" font-size="12">max</text>Sorry, your browser does not support inline SVG.</svg>