<?xml version='1.0' encoding='UTF-8'?>
<svg version="1.1" width="700.0" height="600.0" xmlns="http://www.w3.org/2000/svg"><line x1="50.0" y1="550.0" x2="550.0" y2="550.0" stroke="rgb(0,0,0)" stroke-width="1"/><line x1="50.0" y1="550.0" x2="50.0" y2="50.0" stroke="rgb(0,0,0)" stroke-width="1"/><line x1="50.0" y1="550.0" x2="50.0" y2="50.0" stroke="rgb(192,192,192)" stroke-width="1"/><text text-anchor="middle" alignment-baseline="hanging" x="50.0" y="553.0" fill="rgb(0,0,0)" font-size="12.0">0</text><line x1="50.0" y1="548.0" x2="50.0" y2="552.0" stroke="rgb(192,192,192)" stroke-width="1"/><line x1="100.5050505050505" y1="550.0" x2="100.5050505050505" y2="50.0" stroke="rgb(192,192,192)" stroke-width="1"/><text text-anchor="middle" alignment-baseline="hanging" x="100.5050505050505" y="553.0" fill="rgb(0,0,0)" font-size="12.0">10</text><line x1="100.5050505050505" y1="548.0" x2="100.5050505050505" y2="552.0" stroke="rgb(192,192,192)" stroke-width="1"/><line x1="151.010101010101" y1="550.0" x2="151.010101010101" y2="50.0" stroke="rgb(192,192,192)" stroke-width="1"/><text text-anchor="middle" alignment-baseline="hanging" x="151.010101010101" y="553.0" fill="rgb(0,0,0)" font-size="12.0">20</text><line x1="151.010101010101" y1="548.0" x2="151.010101010101" y2="552.0" stroke="rgb(192,192,192)" stroke-width="1"/><line x1="201.51515151515153" y1="550.0" x2="201.51515151515153" y2="50.0" stroke="rgb(192,192,192)" stroke-width="1"/><text text-anchor="middle" alignment-baseline="hanging" x="201.51515151515153" y="553.0" fill="rgb(0,0,0)" font-size="12.0">30</text><line x1="201.51515151515153" y1="548.0" x2="201.51515151515153" y2="552.0" stroke="rgb(192,192,192)" stroke-width="1"/><line x1="252.02020202020202" y1="550.0" x2="252.02020202020202" y2="50.0" stroke="rgb(192,192,192)" stroke-width="1"/><text text-anchor="middle" alignment-baseline="hanging" x="252.02020202020202" y="553.0" fill="rgb(0,0,0)" font-size="12.0">40</text><line x1="252.02020202020202" y1="548.0" x2="252.02020202020202" y2="552.0" stroke="rgb(192,192,192)" stroke-width="1"/><line x1="302.52525252525254" y1="550.0" x2="302.52525252525254" y2="50.0" stroke="rgb(192,192,192)" stroke-width="1"/><text text-anchor="middle" alignment-baseline="hanging" x="302.52525252525254" y="553.0" fill="rgb(0,0,0)" font-size="12.0">50</text><line x1="302.52525252525254" y1="548.0" x2="302.52525252525254" y2="552.0" stroke="rgb(192,192,192)" stroke-width="1"/><line x1="353.03030303030306" y1="550.0" x2="353.03030303030306" y2="50.0" stroke="rgb(192,192,192)" stroke-width="1"/><text text-anchor="middle" alignment-baseline="hanging" x="353.03030303030306" y="553.0" fill="rgb(0,0,0)" font-size="12.0">60</text><line x1="353.03030303030306" y1="548.0" x2="353.03030303030306" y2="552.0" stroke="rgb(192,192,192)" stroke-width="1"/><line x1="403.5353535353535" y1="550.0" x2="403.5353535353535" y2="50.0" stroke="rgb(192,192,192)" stroke-width="1"/><text text-anchor="middle" alignment-baseline="hanging" x="403.5353535353535" y="553.0" fill="rgb(0,0,0)" font-size="12.0">70</text><line x1="403.5353535353535" y1="548.0" x2="403.5353535353535" y2="552.0" stroke="rgb(192,192,192)" stroke-width="1"/><line x1="454.04040404040404" y1="550.0" x2="454.04040404040404" y2="50.0" stroke="rgb(192,192,192)" stroke-width="1"/><text text-anchor="middle" alignment-baseline="hanging" x="454.04040404040404" y="553.0" fill="rgb(0,0,0)" font-size="12.0">80</text><line x1="454.04040404040404" y1="548.0" x2="454.04040404040404" y2="552.0" stroke="rgb(192,192,192)" stroke-width="1"/><line x1="504.5454545454545" y1="550.0" x2="504.5454545454545" y2="50.0" stroke="rgb(192,192,192)" stroke-width="1"/><text text-anchor="middle" alignment-baseline="hanging" x="504.5454545454545" y="553.0" fill="rgb(0,0,0)" font-size="12.0">90</text><line x1="504.5454545454545" y1="548.0" x2="504.5454545454545" y2="552.0" stroke="rgb(192,192,192)" stroke-width="1"/><line x1="50.0" y1="550.0" x2="550.0" y2="550.0" stroke="rgb(192,192,192)" stroke-width="1"/><text text-anchor="end" alignment-baseline="middle" x="45.0" y="550.0" font-size="12.0">0.0</text><line x1="48.0" y1="550.0" x2="52.0" y2="550.0" stroke="rgb(192,192,192)" stroke-width="1"/><line x1="50.0" y1="367.7679690005448" x2="550.0" y2="367.7679690005448" stroke="rgb(192,192,192)" stroke-width="1"/><text text-anchor="end" alignment-baseline="middle" x="45.0" y="367.7679690005448" font-size="12.0">1000.0</text><line x1="48.0" y1="367.7679690005448" x2="52.0" y2="367.7679690005448" stroke="rgb(192,192,192)" stroke-width="1"/><line x1="50.0" y1="185.53593800108962" x2="550.0" y2="185.53593800108962" stroke="rgb(192,192,192)" stroke-width="1"/><text text-anchor="end" alignment-baseline="middle" x="45.0" y="185.53593800108962" font-size="12.0">2000.0</text><line x1="48.0" y1="185.53593800108962" x2="52.0" y2="185.53593800108962" stroke="rgb(192,192,192)" stroke-width="1"/><polyline points="50.0,417.46417271123994 55.05050505050505,394.6286768441321 60.101010101010104,395.198041270231 65.15151515151516,408.7874702307197 70.20202020202021,408.52098619197443 75.25252525252526,400.38484459901287 80.30303030303031,362.7576447902526 85.35353535353535,350.7417407922149 90.40404040404042,398.0705441392728 95.45454545454545,308.7087408527294 100.5050505050505,308.7472268582852 105.55555555555554,344.9847052486308 110.60606060606061,326.98725895373195 115.65656565656566,307.86765229005056 120.7070707070707,317.06110363136577 125.75757575757576,398.832377945987 130.80808080808083,255.90065650018602 135.85858585858585,353.59578036697326 140.9090909090909,404.2866358731686 145.95959595959596,308.26608244073884 151.010101010101,196.83862112178144 156.06060606060606,256.24317101322697 161.1111111111111,301.9316005836274 166.16161616161617,301.1618465611436 171.21212121212122,355.52498211058764 176.26262626262627,368.30663095221644 181.31313131313132,203.45509593361226 186.36363636363635,175.15759892618325 191.4141414141414,177.43345458753862 196.46464646464648,206.13318204241813 201.51515151515153,405.40221766278796 206.56565656565658,404.6630122240565 211.61616161616163,368.9154067338061 216.66666666666666,386.8258243024161 221.7171717171717,371.3400961978741 226.76767676767676,393.3130345051776 231.8181818181818,329.30450619748353 236.86868686868686,329.33810830752776 241.91919191919192,320.3514128697875 246.96969696969697,311.2264077930439 252.02020202020202,325.7164706604486 257.07070707070704,304.2177428376472 262.1212121212121,358.86479467491233 267.1717171717172,358.5243625716349 272.2222222222222,376.06846859643474 277.27272727272725,377.3494981838584 282.32323232323233,348.878417896267 287.3737373737374,346.6248761099808 292.42424242424244,409.28317404845524 297.47474747474746,409.5806740291299 302.52525252525254,409.5806740291299 307.57575757575756,407.9887239851379 312.62626262626264,349.80222734628444 317.67676767676767,349.6686871986087 322.7272727272727,308.355754440134 327.77777777777777,310.30906254661426 332.8282828282828,390.33423995951455 337.8787878787879,405.38418128552314 342.92929292929296,414.6458787406523 347.979797979798,397.98107664331155 353.03030303030306,408.0485598294199 358.0808080808081,408.0968867229947 363.13131313131316,385.62935843850306 368.1818181818182,344.65141897409217 373.23232323232327,346.4733630008884 378.2828282828283,325.3499505165446 383.3333333333333,407.53106500873037 388.3838383838384,409.19781563329553 393.4343434343434,403.8614917934493 398.4848484848485,403.5468858328445 403.5353535353535,404.6360428155218 408.58585858585855,405.32911000952924 413.6363636363636,351.4028108381275 418.68686868686865,90.8398182618115 423.73737373737373,231.66310058412608 428.7878787878788,88.50621549397181 433.83838383838383,301.1843805122708 438.8888888888889,315.7236526876185 443.93939393939394,332.9495796470875 448.989898989899,398.2389809844726 454.04040404040404,338.72043658397973 459.0909090909091,401.278195195859 464.14141414141415,401.23823086816094 469.19191919191917,401.35447345412365 474.24242424242425,401.29511510759255 479.2929292929293,304.53860561016734 484.34343434343435,389.8319288324982 489.3939393939394,218.16619971826418 494.4444444444444,190.9832962303555 499.4949494949495,324.6474060851213 504.5454545454545,342.8706091850668 509.59595959595964,400.97504728178086 514.6464646464647,382.725818646156 519.6969696969697,286.5739682669534 524.7474747474748,304.023882927513 529.7979797979798,247.09075855861096 534.8484848484849,373.3408509777596 539.8989898989898,375.67693893570265 544.9494949494949,285.93653741209823 550.0,340.92656626409155" fill="none" stroke="rgb(0,0,255)" stroke-width="1"/><circle cx="50.0" cy="417.46417271123994" r="2" fill="rgb(0,0,255)"/><circle cx="55.05050505050505" cy="394.6286768441321" r="2" fill="rgb(0,0,255)"/><circle cx="60.101010101010104" cy="395.198041270231" r="2" fill="rgb(0,0,255)"/><circle cx="65.15151515151516" cy="408.7874702307197" r="2" fill="rgb(0,0,255)"/><circle cx="70.20202020202021" cy="408.52098619197443" r="2" fill="rgb(0,0,255)"/><circle cx="75.25252525252526" cy="400.38484459901287" r="2" fill="rgb(0,0,255)"/><circle cx="80.30303030303031" cy="362.7576447902526" r="2" fill="rgb(0,0,255)"/><circle cx="85.35353535353535" cy="350.7417407922149" r="2" fill="rgb(0,0,255)"/><circle cx="90.40404040404042" cy="398.0705441392728" r="2" fill="rgb(0,0,255)"/><circle cx="95.45454545454545" cy="308.7087408527294" r="2" fill="rgb(0,0,255)"/><circle cx="100.5050505050505" cy="308.7472268582852" r="2" fill="rgb(0,0,255)"/><circle cx="105.55555555555554" cy="344.9847052486308" r="2" fill="rgb(0,0,255)"/><circle cx="110.60606060606061" cy="326.98725895373195" r="2" fill="rgb(0,0,255)"/><circle cx="115.65656565656566" cy="307.86765229005056" r="2" fill="rgb(0,0,255)"/><circle cx="120.7070707070707" cy="317.06110363136577" r="2" fill="rgb(0,0,255)"/><circle cx="125.75757575757576" cy="398.832377945987" r="2" fill="rgb(0,0,255)"/><circle cx="130.80808080808083" cy="255.90065650018602" r="2" fill="rgb(0,0,255)"/><circle cx="135.85858585858585" cy="353.59578036697326" r="2" fill="rgb(0,0,255)"/><circle cx="140.9090909090909" cy="404.2866358731686" r="2" fill="rgb(0,0,255)"/><circle cx="145.95959595959596" cy="308.26608244073884" r="2" fill="rgb(0,0,255)"/><circle cx="151.010101010101" cy="196.83862112178144" r="2" fill="rgb(0,0,255)"/><circle cx="156.06060606060606" cy="256.24317101322697" r="2" fill="rgb(0,0,255)"/><circle cx="161.1111111111111" cy="301.9316005836274" r="2" fill="rgb(0,0,255)"/><circle cx="166.16161616161617" cy="301.1618465611436" r="2" fill="rgb(0,0,255)"/><circle cx="171.21212121212122" cy="355.52498211058764" r="2" fill="rgb(0,0,255)"/><circle cx="176.26262626262627" cy="368.30663095221644" r="2" fill="rgb(0,0,255)"/><circle cx="181.31313131313132" cy="203.45509593361226" r="2" fill="rgb(0,0,255)"/><circle cx="186.36363636363635" cy="175.15759892618325" r="2" fill="rgb(0,0,255)"/><circle cx="191.4141414141414" cy="177.43345458753862" r="2" fill="rgb(0,0,255)"/><circle cx="196.46464646464648" cy="206.13318204241813" r="2" fill="rgb(0,0,255)"/><circle cx="201.51515151515153" cy="405.40221766278796" r="2" fill="rgb(0,0,255)"/><circle cx="206.56565656565658" cy="404.6630122240565" r="2" fill="rgb(0,0,255)"/><circle cx="211.61616161616163" cy="368.9154067338061" r="2" fill="rgb(0,0,255)"/><circle cx="216.66666666666666" cy="386.8258243024161" r="2" fill="rgb(0,0,255)"/><circle cx="221.7171717171717" cy="371.3400961978741" r="2" fill="rgb(0,0,255)"/><circle cx="226.76767676767676" cy="393.3130345051776" r="2" fill="rgb(0,0,255)"/><circle cx="231.8181818181818" cy="329.30450619748353" r="2" fill="rgb(0,0,255)"/><circle cx="236.86868686868686" cy="329.33810830752776" r="2" fill="rgb(0,0,255)"/><circle cx="241.91919191919192" cy="320.3514128697875" r="2" fill="rgb(0,0,255)"/><circle cx="246.96969696969697" cy="311.2264077930439" r="2" fill="rgb(0,0,255)"/><circle cx="252.02020202020202" cy="325.7164706604486" r="2" fill="rgb(0,0,255)"/><circle cx="257.07070707070704" cy="304.2177428376472" r="2" fill="rgb(0,0,255)"/><circle cx="262.1212121212121" cy="358.86479467491233" r="2" fill="rgb(0,0,255)"/><circle cx="267.1717171717172" cy="358.5243625716349" r="2" fill="rgb(0,0,255)"/><circle cx="272.2222222222222" cy="376.06846859643474" r="2" fill="rgb(0,0,255)"/><circle cx="277.27272727272725" cy="377.3494981838584" r="2" fill="rgb(0,0,255)"/><circle cx="282.32323232323233" cy="348.878417896267" r="2" fill="rgb(0,0,255)"/><circle cx="287.3737373737374" cy="346.6248761099808" r="2" fill="rgb(0,0,255)"/><circle cx="292.42424242424244" cy="409.28317404845524" r="2" fill="rgb(0,0,255)"/><circle cx="297.47474747474746" cy="409.5806740291299" r="2" fill="rgb(0,0,255)"/><circle cx="302.52525252525254" cy="409.5806740291299" r="2" fill="rgb(0,0,255)"/><circle cx="307.57575757575756" cy="407.9887239851379" r="2" fill="rgb(0,0,255)"/><circle cx="312.62626262626264" cy="349.80222734628444" r="2" fill="rgb(0,0,255)"/><circle cx="317.67676767676767" cy="349.6686871986087" r="2" fill="rgb(0,0,255)"/><circle cx="322.7272727272727" cy="308.355754440134" r="2" fill="rgb(0,0,255)"/><circle cx="327.77777777777777" cy="310.30906254661426" r="2" fill="rgb(0,0,255)"/><circle cx="332.8282828282828" cy="390.33423995951455" r="2" fill="rgb(0,0,255)"/><circle cx="337.8787878787879" cy="405.38418128552314" r="2" fill="rgb(0,0,255)"/><circle cx="342.92929292929296" cy="414.6458787406523" r="2" fill="rgb(0,0,255)"/><circle cx="347.979797979798" cy="397.98107664331155" r="2" fill="rgb(0,0,255)"/><circle cx="353.03030303030306" cy="408.0485598294199" r="2" fill="rgb(0,0,255)"/><circle cx="358.0808080808081" cy="408.0968867229947" r="2" fill="rgb(0,0,255)"/><circle cx="363.13131313131316" cy="385.62935843850306" r="2" fill="rgb(0,0,255)"/><circle cx="368.1818181818182" cy="344.65141897409217" r="2" fill="rgb(0,0,255)"/><circle cx="373.23232323232327" cy="346.4733630008884" r="2" fill="rgb(0,0,255)"/><circle cx="378.2828282828283" cy="325.3499505165446" r="2" fill="rgb(0,0,255)"/><circle cx="383.3333333333333" cy="407.53106500873037" r="2" fill="rgb(0,0,255)"/><circle cx="388.3838383838384" cy="409.19781563329553" r="2" fill="rgb(0,0,255)"/><circle cx="393.4343434343434" cy="403.8614917934493" r="2" fill="rgb(0,0,255)"/><circle cx="398.4848484848485" cy="403.5468858328445" r="2" fill="rgb(0,0,255)"/><circle cx="403.5353535353535" cy="404.6360428155218" r="2" fill="rgb(0,0,255)"/><circle cx="408.58585858585855" cy="405.32911000952924" r="2" fill="rgb(0,0,255)"/><circle cx="413.6363636363636" cy="351.4028108381275" r="2" fill="rgb(0,0,255)"/><circle cx="418.68686868686865" cy="90.8398182618115" r="2" fill="rgb(0,0,255)"/><circle cx="423.73737373737373" cy="231.66310058412608" r="2" fill="rgb(0,0,255)"/><circle cx="428.7878787878788" cy="88.50621549397181" r="2" fill="rgb(0,0,255)"/><circle cx="433.83838383838383" cy="301.1843805122708" r="2" fill="rgb(0,0,255)"/><circle cx="438.8888888888889" cy="315.7236526876185" r="2" fill="rgb(0,0,255)"/><circle cx="443.93939393939394" cy="332.9495796470875" r="2" fill="rgb(0,0,255)"/><circle cx="448.989898989899" cy="398.2389809844726" r="2" fill="rgb(0,0,255)"/><circle cx="454.04040404040404" cy="338.72043658397973" r="2" fill="rgb(0,0,255)"/><circle cx="459.0909090909091" cy="401.278195195859" r="2" fill="rgb(0,0,255)"/><circle cx="464.14141414141415" cy="401.23823086816094" r="2" fill="rgb(0,0,255)"/><circle cx="469.19191919191917" cy="401.35447345412365" r="2" fill="rgb(0,0,255)"/><circle cx="474.24242424242425" cy="401.29511510759255" r="2" fill="rgb(0,0,255)"/><circle cx="479.2929292929293" cy="304.53860561016734" r="2" fill="rgb(0,0,255)"/><circle cx="484.34343434343435" cy="389.8319288324982" r="2" fill="rgb(0,0,255)"/><circle cx="489.3939393939394" cy="218.16619971826418" r="2" fill="rgb(0,0,255)"/><circle cx="494.4444444444444" cy="190.9832962303555" r="2" fill="rgb(0,0,255)"/><circle cx="499.4949494949495" cy="324.6474060851213" r="2" fill="rgb(0,0,255)"/><circle cx="504.5454545454545" cy="342.8706091850668" r="2" fill="rgb(0,0,255)"/><circle cx="509.59595959595964" cy="400.97504728178086" r="2" fill="rgb(0,0,255)"/><circle cx="514.6464646464647" cy="382.725818646156" r="2" fill="rgb(0,0,255)"/><circle cx="519.6969696969697" cy="286.5739682669534" r="2" fill="rgb(0,0,255)"/><circle cx="524.7474747474748" cy="304.023882927513" r="2" fill="rgb(0,0,255)"/><circle cx="529.7979797979798" cy="247.09075855861096" r="2" fill="rgb(0,0,255)"/><circle cx="534.8484848484849" cy="373.3408509777596" r="2" fill="rgb(0,0,255)"/><circle cx="539.8989898989898" cy="375.67693893570265" r="2" fill="rgb(0,0,255)"/><circle cx="544.9494949494949" cy="285.93653741209823" r="2" fill="rgb(0,0,255)"/><circle cx="550.0" cy="340.92656626409155" r="2" fill="rgb(0,0,255)"/><polyline points="50.0,214.33097329924107 55.05050505050505,183.10883532991375 60.101010101010104,166.8306054313024 65.15151515151516,161.32723884396938 70.20202020202021,144.30617582661563 75.25252525252526,123.86979641302491 80.30303030303031,107.95715105104352 85.35353535353535,95.34391549870674 90.40404040404042,92.95710945582113 95.45454545454545,80.10604095164149 100.5050505050505,80.49440559640783 105.55555555555554,78.8259459320293 110.60606060606061,80.72141511659589 115.65656565656566,74.30149275533404 120.7070707070707,70.77037765585857 125.75757575757576,67.17215090338141 130.80808080808083,60.97098492474322 135.85858585858585,65.20774774256938 140.9090909090909,63.355498478379445 145.95959595959596,67.31221707531432 151.010101010101,59.08483118491358 156.06060606060606,61.9622527375808 161.1111111111111,68.41822820496157 166.16161616161617,73.27626335171283 171.21212121212122,76.98683321459515 176.26262626262627,69.90385898064159 181.31313131313132,60.65206866217517 186.36363636363635,57.5531763970871 191.4141414141414,57.13334561822387 196.46464646464648,56.908349198800636 201.51515151515153,66.37492673493671 206.56565656565658,72.14358606250806 211.61616161616163,74.0306100675574 216.66666666666666,66.50943998570597 221.7171717171717,65.33069381973769 226.76767676767676,61.41952081046986 231.8181818181818,59.00620001146149 236.86868686868686,59.96606372162876 241.91919191919192,62.37875154781909 246.96969696969697,62.57245004597979 252.02020202020202,68.07875957458793 257.07070707070704,65.18382895063456 262.1212121212121,68.93981420374337 267.1717171717172,65.7858607508835 272.2222222222222,70.82486836709865 277.27272727272725,80.01469923802773 282.32323232323233,88.21058859297585 287.3737373737374,76.88551912172909 292.42424242424244,81.64527918837655 297.47474747474746,80.581076252056 302.52525252525254,76.19987359840593 307.57575757575756,68.47500434018457 312.62626262626264,65.91439941070371 317.67676767676767,72.94748829352869 322.7272727272727,60.3602311781508 327.77777777777777,61.743981289758096 332.8282828282828,68.01916349174553 337.8787878787879,77.7171787197363 342.92929292929296,73.4698414119141 347.979797979798,64.8144962229361 353.03030303030306,62.95007287153959 358.0808080808081,61.2694109796974 363.13131313131316,60.97485107975331 368.1818181818182,64.49857292511967 373.23232323232327,69.28924797813283 378.2828282828283,66.94657621820812 383.3333333333333,68.38473672950414 388.3838383838384,75.33032005112756 393.4343434343434,71.9580515882601 398.4848484848485,65.04246235506065 403.5353535353535,65.98722520362975 408.58585858585855,67.80262281885791 413.6363636363636,62.35806563176851 418.68686868686865,55.32514932806873 423.73737373737373,57.32948649717423 428.7878787878788,54.74090269146467 433.83838383838383,58.676677455479194 438.8888888888889,65.57566273625741 443.93939393939394,62.444172975416905 448.989898989899,69.8804842355949 454.04040404040404,64.94988162886159 459.0909090909091,66.3608166075224 464.14141414141415,66.79062820178729 469.19191919191917,65.74393530606312 474.24242424242425,69.71610826645787 479.2929292929293,62.17498445814289 484.34343434343435,62.91872808828583 489.3939393939394,57.32089421280102 494.4444444444444,57.19513550209041 499.4949494949495,58.3105103984434 504.5454545454545,61.74410030489719 509.59595959595964,64.19950658805385 514.6464646464647,65.10348046568066 519.6969696969697,60.280735397086744 524.7474747474748,61.348798758403575 529.7979797979798,59.271177659876 534.8484848484849,63.60598062823294 539.8989898989898,60.812792923390646 544.9494949494949,59.290899228415356 550.0,64.11878647758147" fill="none" stroke="rgb(255,0,0)" stroke-width="1"/><circle cx="50.0" cy="214.33097329924107" r="2" fill="rgb(255,0,0)"/><circle cx="55.05050505050505" cy="183.10883532991375" r="2" fill="rgb(255,0,0)"/><circle cx="60.101010101010104" cy="166.8306054313024" r="2" fill="rgb(255,0,0)"/><circle cx="65.15151515151516" cy="161.32723884396938" r="2" fill="rgb(255,0,0)"/><circle cx="70.20202020202021" cy="144.30617582661563" r="2" fill="rgb(255,0,0)"/><circle cx="75.25252525252526" cy="123.86979641302491" r="2" fill="rgb(255,0,0)"/><circle cx="80.30303030303031" cy="107.95715105104352" r="2" fill="rgb(255,0,0)"/><circle cx="85.35353535353535" cy="95.34391549870674" r="2" fill="rgb(255,0,0)"/><circle cx="90.40404040404042" cy="92.95710945582113" r="2" fill="rgb(255,0,0)"/><circle cx="95.45454545454545" cy="80.10604095164149" r="2" fill="rgb(255,0,0)"/><circle cx="100.5050505050505" cy="80.49440559640783" r="2" fill="rgb(255,0,0)"/><circle cx="105.55555555555554" cy="78.8259459320293" r="2" fill="rgb(255,0,0)"/><circle cx="110.60606060606061" cy="80.72141511659589" r="2" fill="rgb(255,0,0)"/><circle cx="115.65656565656566" cy="74.30149275533404" r="2" fill="rgb(255,0,0)"/><circle cx="120.7070707070707" cy="70.77037765585857" r="2" fill="rgb(255,0,0)"/><circle cx="125.75757575757576" cy="67.17215090338141" r="2" fill="rgb(255,0,0)"/><circle cx="130.80808080808083" cy="60.97098492474322" r="2" fill="rgb(255,0,0)"/><circle cx="135.85858585858585" cy="65.20774774256938" r="2" fill="rgb(255,0,0)"/><circle cx="140.9090909090909" cy="63.355498478379445" r="2" fill="rgb(255,0,0)"/><circle cx="145.95959595959596" cy="67.31221707531432" r="2" fill="rgb(255,0,0)"/><circle cx="151.010101010101" cy="59.08483118491358" r="2" fill="rgb(255,0,0)"/><circle cx="156.06060606060606" cy="61.9622527375808" r="2" fill="rgb(255,0,0)"/><circle cx="161.1111111111111" cy="68.41822820496157" r="2" fill="rgb(255,0,0)"/><circle cx="166.16161616161617" cy="73.27626335171283" r="2" fill="rgb(255,0,0)"/><circle cx="171.21212121212122" cy="76.98683321459515" r="2" fill="rgb(255,0,0)"/><circle cx="176.26262626262627" cy="69.90385898064159" r="2" fill="rgb(255,0,0)"/><circle cx="181.31313131313132" cy="60.65206866217517" r="2" fill="rgb(255,0,0)"/><circle cx="186.36363636363635" cy="57.5531763970871" r="2" fill="rgb(255,0,0)"/><circle cx="191.4141414141414" cy="57.13334561822387" r="2" fill="rgb(255,0,0)"/><circle cx="196.46464646464648" cy="56.908349198800636" r="2" fill="rgb(255,0,0)"/><circle cx="201.51515151515153" cy="66.37492673493671" r="2" fill="rgb(255,0,0)"/><circle cx="206.56565656565658" cy="72.14358606250806" r="2" fill="rgb(255,0,0)"/><circle cx="211.61616161616163" cy="74.0306100675574" r="2" fill="rgb(255,0,0)"/><circle cx="216.66666666666666" cy="66.50943998570597" r="2" fill="rgb(255,0,0)"/><circle cx="221.7171717171717" cy="65.33069381973769" r="2" fill="rgb(255,0,0)"/><circle cx="226.76767676767676" cy="61.41952081046986" r="2" fill="rgb(255,0,0)"/><circle cx="231.8181818181818" cy="59.00620001146149" r="2" fill="rgb(255,0,0)"/><circle cx="236.86868686868686" cy="59.96606372162876" r="2" fill="rgb(255,0,0)"/><circle cx="241.91919191919192" cy="62.37875154781909" r="2" fill="rgb(255,0,0)"/><circle cx="246.96969696969697" cy="62.57245004597979" r="2" fill="rgb(255,0,0)"/><circle cx="252.02020202020202" cy="68.07875957458793" r="2" fill="rgb(255,0,0)"/><circle cx="257.07070707070704" cy="65.18382895063456" r="2" fill="rgb(255,0,0)"/><circle cx="262.1212121212121" cy="68.93981420374337" r="2" fill="rgb(255,0,0)"/><circle cx="267.1717171717172" cy="65.7858607508835" r="2" fill="rgb(255,0,0)"/><circle cx="272.2222222222222" cy="70.82486836709865" r="2" fill="rgb(255,0,0)"/><circle cx="277.27272727272725" cy="80.01469923802773" r="2" fill="rgb(255,0,0)"/><circle cx="282.32323232323233" cy="88.21058859297585" r="2" fill="rgb(255,0,0)"/><circle cx="287.3737373737374" cy="76.88551912172909" r="2" fill="rgb(255,0,0)"/><circle cx="292.42424242424244" cy="81.64527918837655" r="2" fill="rgb(255,0,0)"/><circle cx="297.47474747474746" cy="80.581076252056" r="2" fill="rgb(255,0,0)"/><circle cx="302.52525252525254" cy="76.19987359840593" r="2" fill="rgb(255,0,0)"/><circle cx="307.57575757575756" cy="68.47500434018457" r="2" fill="rgb(255,0,0)"/><circle cx="312.62626262626264" cy="65.91439941070371" r="2" fill="rgb(255,0,0)"/><circle cx="317.67676767676767" cy="72.94748829352869" r="2" fill="rgb(255,0,0)"/><circle cx="322.7272727272727" cy="60.3602311781508" r="2" fill="rgb(255,0,0)"/><circle cx="327.77777777777777" cy="61.743981289758096" r="2" fill="rgb(255,0,0)"/><circle cx="332.8282828282828" cy="68.01916349174553" r="2" fill="rgb(255,0,0)"/><circle cx="337.8787878787879" cy="77.7171787197363" r="2" fill="rgb(255,0,0)"/><circle cx="342.92929292929296" cy="73.4698414119141" r="2" fill="rgb(255,0,0)"/><circle cx="347.979797979798" cy="64.8144962229361" r="2" fill="rgb(255,0,0)"/><circle cx="353.03030303030306" cy="62.95007287153959" r="2" fill="rgb(255,0,0)"/><circle cx="358.0808080808081" cy="61.2694109796974" r="2" fill="rgb(255,0,0)"/><circle cx="363.13131313131316" cy="60.97485107975331" r="2" fill="rgb(255,0,0)"/><circle cx="368.1818181818182" cy="64.49857292511967" r="2" fill="rgb(255,0,0)"/><circle cx="373.23232323232327" cy="69.28924797813283" r="2" fill="rgb(255,0,0)"/><circle cx="378.2828282828283" cy="66.94657621820812" r="2" fill="rgb(255,0,0)"/><circle cx="383.3333333333333" cy="68.38473672950414" r="2" fill="rgb(255,0,0)"/><circle cx="388.3838383838384" cy="75.33032005112756" r="2" fill="rgb(255,0,0)"/><circle cx="393.4343434343434" cy="71.9580515882601" r="2" fill="rgb(255,0,0)"/><circle cx="398.4848484848485" cy="65.04246235506065" r="2" fill="rgb(255,0,0)"/><circle cx="403.5353535353535" cy="65.98722520362975" r="2" fill="rgb(255,0,0)"/><circle cx="408.58585858585855" cy="67.80262281885791" r="2" fill="rgb(255,0,0)"/><circle cx="413.6363636363636" cy="62.35806563176851" r="2" fill="rgb(255,0,0)"/><circle cx="418.68686868686865" cy="55.32514932806873" r="2" fill="rgb(255,0,0)"/><circle cx="423.73737373737373" cy="57.32948649717423" r="2" fill="rgb(255,0,0)"/><circle cx="428.7878787878788" cy="54.74090269146467" r="2" fill="rgb(255,0,0)"/><circle cx="433.83838383838383" cy="58.676677455479194" r="2" fill="rgb(255,0,0)"/><circle cx="438.8888888888889" cy="65.57566273625741" r="2" fill="rgb(255,0,0)"/><circle cx="443.93939393939394" cy="62.444172975416905" r="2" fill="rgb(255,0,0)"/><circle cx="448.989898989899" cy="69.8804842355949" r="2" fill="rgb(255,0,0)"/><circle cx="454.04040404040404" cy="64.94988162886159" r="2" fill="rgb(255,0,0)"/><circle cx="459.0909090909091" cy="66.3608166075224" r="2" fill="rgb(255,0,0)"/><circle cx="464.14141414141415" cy="66.79062820178729" r="2" fill="rgb(255,0,0)"/><circle cx="469.19191919191917" cy="65.74393530606312" r="2" fill="rgb(255,0,0)"/><circle cx="474.24242424242425" cy="69.71610826645787" r="2" fill="rgb(255,0,0)"/><circle cx="479.2929292929293" cy="62.17498445814289" r="2" fill="rgb(255,0,0)"/><circle cx="484.34343434343435" cy="62.91872808828583" r="2" fill="rgb(255,0,0)"/><circle cx="489.3939393939394" cy="57.32089421280102" r="2" fill="rgb(255,0,0)"/><circle cx="494.4444444444444" cy="57.19513550209041" r="2" fill="rgb(255,0,0)"/><circle cx="499.4949494949495" cy="58.3105103984434" r="2" fill="rgb(255,0,0)"/><circle cx="504.5454545454545" cy="61.74410030489719" r="2" fill="rgb(255,0,0)"/><circle cx="509.59595959595964" cy="64.19950658805385" r="2" fill="rgb(255,0,0)"/><circle cx="514.6464646464647" cy="65.10348046568066" r="2" fill="rgb(255,0,0)"/><circle cx="519.6969696969697" cy="60.280735397086744" r="2" fill="rgb(255,0,0)"/><circle cx="524.7474747474748" cy="61.348798758403575" r="2" fill="rgb(255,0,0)"/><circle cx="529.7979797979798" cy="59.271177659876" r="2" fill="rgb(255,0,0)"/><circle cx="534.8484848484849" cy="63.60598062823294" r="2" fill="rgb(255,0,0)"/><circle cx="539.8989898989898" cy="60.812792923390646" r="2" fill="rgb(255,0,0)"/><circle cx="544.9494949494949" cy="59.290899228415356" r="2" fill="rgb(255,0,0)"/><circle cx="550.0" cy="64.11878647758147" r="2" fill="rgb(255,0,0)"/><polyline points="50.0,60.988923282028 55.05050505050505,60.42278050214503 60.101010101010104,58.3536397538204 65.15151515151516,58.13642388871045 70.20202020202021,55.22501536767447 75.25252525252526,56.168823035179 80.30303030303031,56.897495850218434 85.35353535353535,54.28016479822924 90.40404040404042,55.9113978604222 95.45454545454545,55.22646848501762 100.5050505050505,54.803180005567356 105.55555555555554,55.424610407713885 110.60606060606061,55.424610407713885 115.65656565656566,54.85643073744632 120.7070707070707,54.85643073744632 125.75757575757576,54.444703201901575 130.80808080808083,54.539446988853854 135.85858585858585,54.45069602898786 140.9090909090909,54.41206927634448 145.95959595959596,54.07605393007185 151.010101010101,54.00614402120027 156.06060606060606,53.7845166789395 161.1111111111111,53.732581260014626 166.16161616161617,53.681246621893365 171.21212121212122,53.681246621893365 176.26262626262627,53.75633552622753 181.31313131313132,53.80705903828306 186.36363636363635,53.64889868076398 191.4141414141414,53.74806186762652 196.46464646464648,53.74806186762652 201.51515151515153,53.80705903828306 206.56565656565658,53.71684278843196 211.61616161616163,53.64470454176421 216.66666666666666,53.64470454176421 221.7171717171717,53.6078647448378 226.76767676767676,53.74271567968708 231.8181818181818,53.64470454176421 236.86868686868686,51.18188240418323 241.91919191919192,53.54735087074073 246.96969696969697,53.6770524828936 252.02020202020202,53.626342902530496 257.07070707070704,53.48785806990094 262.1212121212121,53.51246376183144 267.1717171717172,53.53959951703109 272.2222222222222,53.53959951703109 277.27272727272725,53.53959951703109 282.32323232323233,53.60839761324985 287.3737373737374,53.617559682053866 292.42424242424244,53.475611142411935 297.47474747474746,53.54115899291571 302.52525252525254,53.54115899291571 307.57575757575756,53.506771743338334 312.62626262626264,53.5504601043707 317.67676767676767,53.36555781820442 322.7272727272727,53.529328971228324 327.77777777777777,53.54167688389424 332.8282828282828,53.517692690442175 337.8787878787879,53.431198137332615 342.92929292929296,53.181317403842854 347.979797979798,53.471370933359424 353.03030303030306,53.39521264292824 358.0808080808081,53.433472782951696 363.13131313131316,53.49592239062116 368.1818181818182,53.362460163308924 373.23232323232327,53.314142704273536 378.2828282828283,53.314142704273536 383.3333333333333,53.14911036727949 388.3838383838384,53.29804040082098 393.4343434343434,53.28826846902649 398.4848484848485,53.36025775361594 403.5353535353535,53.34373330198724 408.58585858585855,53.269607047204545 413.6363636363636,53.281515949192226 418.68686868686865,53.23234924126581 423.73737373737373,53.23234924126581 428.7878787878788,53.291710916960824 433.83838383838383,53.22721901861797 438.8888888888889,53.21042240591453 443.93939393939394,53.269607047204545 448.989898989899,53.269607047204545 454.04040404040404,53.303101816777826 459.0909090909091,53.22721901861797 464.14141414141415,53.303101816777826 469.19191919191917,53.260881050715966 474.24242424242425,53.28657736514913 479.2929292929293,53.28657736514913 484.34343434343435,53.25426385311721 489.3939393939394,53.13802126715444 494.4444444444444,53.21980412979144 499.4949494949495,53.160445783260286 504.5454545454545,53.237467240413764 509.59595959595964,53.14288590062614 514.6464646464647,53.13780577570515 519.6969696969697,50.0 524.7474747474748,53.188016234347 529.7979797979798,53.17810889388261 534.8484848484849,53.0326704967124 539.8989898989898,53.053195034525345 544.9494949494949,53.0326704967124 550.0,53.0215609557568" fill="none" stroke="rgb(0,255,0)" stroke-width="1"/><circle cx="50.0" cy="60.988923282028" r="2" fill="rgb(0,255,0)"/><circle cx="55.05050505050505" cy="60.42278050214503" r="2" fill="rgb(0,255,0)"/><circle cx="60.101010101010104" cy="58.3536397538204" r="2" fill="rgb(0,255,0)"/><circle cx="65.15151515151516" cy="58.13642388871045" r="2" fill="rgb(0,255,0)"/><circle cx="70.20202020202021" cy="55.22501536767447" r="2" fill="rgb(0,255,0)"/><circle cx="75.25252525252526" cy="56.168823035179" r="2" fill="rgb(0,255,0)"/><circle cx="80.30303030303031" cy="56.897495850218434" r="2" fill="rgb(0,255,0)"/><circle cx="85.35353535353535" cy="54.28016479822924" r="2" fill="rgb(0,255,0)"/><circle cx="90.40404040404042" cy="55.9113978604222" r="2" fill="rgb(0,255,0)"/><circle cx="95.45454545454545" cy="55.22646848501762" r="2" fill="rgb(0,255,0)"/><circle cx="100.5050505050505" cy="54.803180005567356" r="2" fill="rgb(0,255,0)"/><circle cx="105.55555555555554" cy="55.424610407713885" r="2" fill="rgb(0,255,0)"/><circle cx="110.60606060606061" cy="55.424610407713885" r="2" fill="rgb(0,255,0)"/><circle cx="115.65656565656566" cy="54.85643073744632" r="2" fill="rgb(0,255,0)"/><circle cx="120.7070707070707" cy="54.85643073744632" r="2" fill="rgb(0,255,0)"/><circle cx="125.75757575757576" cy="54.444703201901575" r="2" fill="rgb(0,255,0)"/><circle cx="130.80808080808083" cy="54.539446988853854" r="2" fill="rgb(0,255,0)"/><circle cx="135.85858585858585" cy="54.45069602898786" r="2" fill="rgb(0,255,0)"/><circle cx="140.9090909090909" cy="54.41206927634448" r="2" fill="rgb(0,255,0)"/><circle cx="145.95959595959596" cy="54.07605393007185" r="2" fill="rgb(0,255,0)"/><circle cx="151.010101010101" cy="54.00614402120027" r="2" fill="rgb(0,255,0)"/><circle cx="156.06060606060606" cy="53.7845166789395" r="2" fill="rgb(0,255,0)"/><circle cx="161.1111111111111" cy="53.732581260014626" r="2" fill="rgb(0,255,0)"/><circle cx="166.16161616161617" cy="53.681246621893365" r="2" fill="rgb(0,255,0)"/><circle cx="171.21212121212122" cy="53.681246621893365" r="2" fill="rgb(0,255,0)"/><circle cx="176.26262626262627" cy="53.75633552622753" r="2" fill="rgb(0,255,0)"/><circle cx="181.31313131313132" cy="53.80705903828306" r="2" fill="rgb(0,255,0)"/><circle cx="186.36363636363635" cy="53.64889868076398" r="2" fill="rgb(0,255,0)"/><circle cx="191.4141414141414" cy="53.74806186762652" r="2" fill="rgb(0,255,0)"/><circle cx="196.46464646464648" cy="53.74806186762652" r="2" fill="rgb(0,255,0)"/><circle cx="201.51515151515153" cy="53.80705903828306" r="2" fill="rgb(0,255,0)"/><circle cx="206.56565656565658" cy="53.71684278843196" r="2" fill="rgb(0,255,0)"/><circle cx="211.61616161616163" cy="53.64470454176421" r="2" fill="rgb(0,255,0)"/><circle cx="216.66666666666666" cy="53.64470454176421" r="2" fill="rgb(0,255,0)"/><circle cx="221.7171717171717" cy="53.6078647448378" r="2" fill="rgb(0,255,0)"/><circle cx="226.76767676767676" cy="53.74271567968708" r="2" fill="rgb(0,255,0)"/><circle cx="231.8181818181818" cy="53.64470454176421" r="2" fill="rgb(0,255,0)"/><circle cx="236.86868686868686" cy="51.18188240418323" r="2" fill="rgb(0,255,0)"/><circle cx="241.91919191919192" cy="53.54735087074073" r="2" fill="rgb(0,255,0)"/><circle cx="246.96969696969697" cy="53.6770524828936" r="2" fill="rgb(0,255,0)"/><circle cx="252.02020202020202" cy="53.626342902530496" r="2" fill="rgb(0,255,0)"/><circle cx="257.07070707070704" cy="53.48785806990094" r="2" fill="rgb(0,255,0)"/><circle cx="262.1212121212121" cy="53.51246376183144" r="2" fill="rgb(0,255,0)"/><circle cx="267.1717171717172" cy="53.53959951703109" r="2" fill="rgb(0,255,0)"/><circle cx="272.2222222222222" cy="53.53959951703109" r="2" fill="rgb(0,255,0)"/><circle cx="277.27272727272725" cy="53.53959951703109" r="2" fill="rgb(0,255,0)"/><circle cx="282.32323232323233" cy="53.60839761324985" r="2" fill="rgb(0,255,0)"/><circle cx="287.3737373737374" cy="53.617559682053866" r="2" fill="rgb(0,255,0)"/><circle cx="292.42424242424244" cy="53.475611142411935" r="2" fill="rgb(0,255,0)"/><circle cx="297.47474747474746" cy="53.54115899291571" r="2" fill="rgb(0,255,0)"/><circle cx="302.52525252525254" cy="53.54115899291571" r="2" fill="rgb(0,255,0)"/><circle cx="307.57575757575756" cy="53.506771743338334" r="2" fill="rgb(0,255,0)"/><circle cx="312.62626262626264" cy="53.5504601043707" r="2" fill="rgb(0,255,0)"/><circle cx="317.67676767676767" cy="53.36555781820442" r="2" fill="rgb(0,255,0)"/><circle cx="322.7272727272727" cy="53.529328971228324" r="2" fill="rgb(0,255,0)"/><circle cx="327.77777777777777" cy="53.54167688389424" r="2" fill="rgb(0,255,0)"/><circle cx="332.8282828282828" cy="53.517692690442175" r="2" fill="rgb(0,255,0)"/><circle cx="337.8787878787879" cy="53.431198137332615" r="2" fill="rgb(0,255,0)"/><circle cx="342.92929292929296" cy="53.181317403842854" r="2" fill="rgb(0,255,0)"/><circle cx="347.979797979798" cy="53.471370933359424" r="2" fill="rgb(0,255,0)"/><circle cx="353.03030303030306" cy="53.39521264292824" r="2" fill="rgb(0,255,0)"/><circle cx="358.0808080808081" cy="53.433472782951696" r="2" fill="rgb(0,255,0)"/><circle cx="363.13131313131316" cy="53.49592239062116" r="2" fill="rgb(0,255,0)"/><circle cx="368.1818181818182" cy="53.362460163308924" r="2" fill="rgb(0,255,0)"/><circle cx="373.23232323232327" cy="53.314142704273536" r="2" fill="rgb(0,255,0)"/><circle cx="378.2828282828283" cy="53.314142704273536" r="2" fill="rgb(0,255,0)"/><circle cx="383.3333333333333" cy="53.14911036727949" r="2" fill="rgb(0,255,0)"/><circle cx="388.3838383838384" cy="53.29804040082098" r="2" fill="rgb(0,255,0)"/><circle cx="393.4343434343434" cy="53.28826846902649" r="2" fill="rgb(0,255,0)"/><circle cx="398.4848484848485" cy="53.36025775361594" r="2" fill="rgb(0,255,0)"/><circle cx="403.5353535353535" cy="53.34373330198724" r="2" fill="rgb(0,255,0)"/><circle cx="408.58585858585855" cy="53.269607047204545" r="2" fill="rgb(0,255,0)"/><circle cx="413.6363636363636" cy="53.281515949192226" r="2" fill="rgb(0,255,0)"/><circle cx="418.68686868686865" cy="53.23234924126581" r="2" fill="rgb(0,255,0)"/><circle cx="423.73737373737373" cy="53.23234924126581" r="2" fill="rgb(0,255,0)"/><circle cx="428.7878787878788" cy="53.291710916960824" r="2" fill="rgb(0,255,0)"/><circle cx="433.83838383838383" cy="53.22721901861797" r="2" fill="rgb(0,255,0)"/><circle cx="438.8888888888889" cy="53.21042240591453" r="2" fill="rgb(0,255,0)"/><circle cx="443.93939393939394" cy="53.269607047204545" r="2" fill="rgb(0,255,0)"/><circle cx="448.989898989899" cy="53.269607047204545" r="2" fill="rgb(0,255,0)"/><circle cx="454.04040404040404" cy="53.303101816777826" r="2" fill="rgb(0,255,0)"/><circle cx="459.0909090909091" cy="53.22721901861797" r="2" fill="rgb(0,255,0)"/><circle cx="464.14141414141415" cy="53.303101816777826" r="2" fill="rgb(0,255,0)"/><circle cx="469.19191919191917" cy="53.260881050715966" r="2" fill="rgb(0,255,0)"/><circle cx="474.24242424242425" cy="53.28657736514913" r="2" fill="rgb(0,255,0)"/><circle cx="479.2929292929293" cy="53.28657736514913" r="2" fill="rgb(0,255,0)"/><circle cx="484.34343434343435" cy="53.25426385311721" r="2" fill="rgb(0,255,0)"/><circle cx="489.3939393939394" cy="53.13802126715444" r="2" fill="rgb(0,255,0)"/><circle cx="494.4444444444444" cy="53.21980412979144" r="2" fill="rgb(0,255,0)"/><circle cx="499.4949494949495" cy="53.160445783260286" r="2" fill="rgb(0,255,0)"/><circle cx="504.5454545454545" cy="53.237467240413764" r="2" fill="rgb(0,255,0)"/><circle cx="509.59595959595964" cy="53.14288590062614" r="2" fill="rgb(0,255,0)"/><circle cx="514.6464646464647" cy="53.13780577570515" r="2" fill="rgb(0,255,0)"/><circle cx="519.6969696969697" cy="50.0" r="2" fill="rgb(0,255,0)"/><circle cx="524.7474747474748" cy="53.188016234347" r="2" fill="rgb(0,255,0)"/><circle cx="529.7979797979798" cy="53.17810889388261" r="2" fill="rgb(0,255,0)"/><circle cx="534.8484848484849" cy="53.0326704967124" r="2" fill="rgb(0,255,0)"/><circle cx="539.8989898989898" cy="53.053195034525345" r="2" fill="rgb(0,255,0)"/><circle cx="544.9494949494949" cy="53.0326704967124" r="2" fill="rgb(0,255,0)"/><circle cx="550.0" cy="53.0215609557568" r="2" fill="rgb(0,255,0)"/><text text-anchor="middle" x="350.0" y="20.0" fill="rgb(0,0,0)" font-size="20.0">GA Demo</text><text text-anchor="middle" x="350.0" y="575.0" fill="rgb(0,0,0)" font-size="12.0">generation</text><text text-anchor="middle" x="20.0" y="300.0" transform="rotate(-90.0 20.0 300.0)" fill="rgb(0,0,0)" font-size="12.0">fitness</text><text x="620" y="62" fill="rgb(0,0,255)" font-size="12">min</text><text x="620" y="74" fill="rgb(255,0,0)" font-size="12">ave</text><text x="620" y="86" fill="rgb(0,255,0)" font-size="12">max</text>Sorry, your browser does not support inline SVG.</svg>