<?xml version='1.0' encoding='UTF-8'?>
<svg version="1.1" width="700.0" height="600.0" xmlns="http://www.w3.org/2000/svg"><line x1="50.0" y1="550.0" x2="550.0" y2="550.0" stroke="rgb(0,0,0)" stroke-width="1"/><line x1="50.0" y1="550.0" x2="50.0" y2="50.0" stroke="rgb(0,0,0)" stroke-width="1"/><line x1="50.0" y1="550.0" x2="50.0" y2="50.0" stroke="rgb(192,192,192)" stroke-width="1"/><text text-anchor="middle" alignment-baseline="hanging" x="50.0" y="553.0" fill="rgb(0,0,0)" font-size="12.0">0</text><line x1="50.0" y1="548.0" x2="50.0" y2="552.0" stroke="rgb(192,192,192)" stroke-width="1"/><line x1="100.5050505050505" y1="550.0" x2="100.5050505050505" y2="50.0" stroke="rgb(192,192,192)" stroke-width="1"/><text text-anchor="middle" alignment-baseline="hanging" x="100.5050505050505" y="553.0" fill="rgb(0,0,0)" font-size="12.0">10</text><line x1="100.5050505050505" y1="548.0" x2="100.5050505050505" y2="552.0" stroke="rgb(192,192,192)" stroke-width="1"/><line x1="151.010101010101" y1="550.0" x2="151.010101010101" y2="50.0" stroke="rgb(192,192,192)" stroke-width="1"/><text text-anchor="middle" alignment-baseline="hanging" x="151.010101010101" y="553.0" fill="rgb(0,0,0)" font-size="12.0">20</text><line x1="151.010101010101" y1="548.0" x2="151.010101010101" y2="552.0" stroke="rgb(192,192,192)" stroke-width="1"/><line x1="201.51515151515153" y1="550.0" x2="201.51515151515153" y2="50.0" stroke="rgb(192,192,192)" stroke-width="1"/><text text-anchor="middle" alignment-baseline="hanging" x="201.51515151515153" y="553.0" fill="rgb(0,0,0)" font-size="12.0">30</text><line x1="201.51515151515153" y1="548.0" x2="201.51515151515153" y2="552.0" stroke="rgb(192,192,192)" stroke-width="1"/><line x1="252.02020202020202" y1="550.0" x2="252.02020202020202" y2="50.0" stroke="rgb(192,192,192)" stroke-width="1"/><text text-anchor="middle" alignment-baseline="hanging" x="252.02020202020202" y="553.0" fill="rgb(0,0,0)" font-size="12.0">40</text><line x1="252.02020202020202" y1="548.0" x2="252.02020202020202" y2="552.0" stroke="rgb(192,192,192)" stroke-width="1"/><line x1="302.52525252525254" y1="550.0" x2="302.52525252525254" y2="50.0" stroke="rgb(192,192,192)" stroke-width="1"/><text text-anchor="middle" alignment-baseline="hanging" x="302.52525252525254" y="553.0" fill="rgb(0,0,0)" font-size="12.0">50</text><line x1="302.52525252525254" y1="548.0" x2="302.52525252525254" y2="552.0" stroke="rgb(192,192,192)" stroke-width="1"/><line x1="353.03030303030306" y1="550.0" x2="353.03030303030306" y2="50.0" stroke="rgb(192,192,192)" stroke-width="1"/><text text-anchor="middle" alignment-baseline="hanging" x="353.03030303030306" y="553.0" fill="rgb(0,0,0)" font-size="12.0">60</text><line x1="353.03030303030306" y1="548.0" x2="353.03030303030306" y2="552.0" stroke="rgb(192,192,192)" stroke-width="1"/><line x1="403.5353535353535" y1="550.0" x2="403.5353535353535" y2="50.0" stroke="rgb(192,192,192)" stroke-width="1"/><text text-anchor="middle" alignment-baseline="hanging" x="403.5353535353535" y="553.0" fill="rgb(0,0,0)" font-size="12.0">70</text><line x1="403.5353535353535" y1="548.0" x2="403.5353535353535" y2="552.0" stroke="rgb(192,192,192)" stroke-width="1"/><line x1="454.04040404040404" y1="550.0" x2="454.04040404040404" y2="50.0" stroke="rgb(192,192,192)" stroke-width="1"/><text text-anchor="middle" alignment-baseline="hanging" x="454.04040404040404" y="553.0" fill="rgb(0,0,0)" font-size="12.0">80</text><line x1="454.04040404040404" y1="548.0" x2="454.04040404040404" y2="552.0" stroke="rgb(192,192,192)" stroke-width="1"/><line x1="504.5454545454545" y1="550.0" x2="504.5454545454545" y2="50.0" stroke="rgb(192,192,192)" stroke-width="1"/><text text-anchor="middle" alignment-baseline="hanging" x="504.5454545454545" y="553.0" fill="rgb(0,0,0)" font-size="12.0">90</text><line x1="504.5454545454545" y1="548.0" x2="504.5454545454545" y2="552.0" stroke="rgb(192,192,192)" stroke-width="1"/><line x1="50.0" y1="550.0" x2="550.0" y2="550.0" stroke="rgb(192,192,192)" stroke-width="1"/><text text-anchor="end" alignment-baseline="middle" x="45.0" y="550.0" font-size="12.0">0.0</text><line x1="48.0" y1="550.0" x2="52.0" y2="550.0" stroke="rgb(192,192,192)" stroke-width="1"/><line x1="50.0" y1="367.7400213829783" x2="550.0" y2="367.7400213829783" stroke="rgb(192,192,192)" stroke-width="1"/><text text-anchor="end" alignment-baseline="middle" x="45.0" y="367.7400213829783" font-size="12.0">1000.0</text><line x1="48.0" y1="367.7400213829783" x2="52.0" y2="367.7400213829783" stroke="rgb(192,192,192)" stroke-width="1"/><line x1="50.0" y1="185.48004276595657" x2="550.0" y2="185.48004276595657" stroke="rgb(192,192,192)" stroke-width="1"/><text text-anchor="end" alignment-baseline="middle" x="45.0" y="185.48004276595657" font-size="12.0">2000.0</text><line x1="48.0" y1="185.48004276595657" x2="52.0" y2="185.48004276595657" stroke="rgb(192,192,192)" stroke-width="1"/><polyline points="50.0,423.0869210664341 55.05050505050505,425.02856250667213 60.101010101010104,405.9126153923812 65.15151515151516,404.62989703888684 70.20202020202021,372.9742321171805 75.25252525252526,429.0210731895892 80.30303030303031,429.08361534425273 85.35353535353535,238.6621157307045 90.40404040404042,351.22503799243896 95.45454545454545,401.7926108058724 100.5050505050505,403.7141697325534 105.55555555555554,432.35933628193743 110.60606060606061,433.4151507436445 115.65656565656566,342.4924879472155 120.7070707070707,342.0431111582327 125.75757575757576,411.8100291326501 130.80808080808083,333.09988152882966 135.85858585858585,403.2898826897939 140.9090909090909,301.3736884409751 145.95959595959596,330.63720625815574 151.010101010101,148.42240590911206 156.06060606060606,386.05769119017464 161.1111111111111,72.14849816924817 166.16161616161617,174.35424783111938 171.21212121212122,378.6787299447569 176.26262626262627,378.2734451341492 181.31313131313132,366.54782756367047 186.36363636363635,391.63300978655633 191.4141414141414,385.93543709114317 196.46464646464648,385.93543709114317 201.51515151515153,385.7952904607936 206.56565656565658,385.6007717079399 211.61616161616163,403.16689046292765 216.66666666666666,134.3053413954499 221.7171717171717,344.16781733587527 226.76767676767676,406.3186959921858 231.8181818181818,391.76060414992884 236.86868686868686,399.8821636440262 241.91919191919192,399.42715053724396 246.96969696969697,392.1206720109147 252.02020202020202,391.8823256873761 257.07070707070704,313.3731571334115 262.1212121212121,346.1040364342636 267.1717171717172,310.6518276069012 272.2222222222222,378.7770772351771 277.27272727272725,380.1666268510434 282.32323232323233,378.643337181673 287.3737373737374,378.7144084059687 292.42424242424244,333.5331759890656 297.47474747474746,332.71102042076075 302.52525252525254,265.5063588446629 307.57575757575756,391.3471199878219 312.62626262626264,378.6344659152039 317.67676767676767,266.19375512217 322.7272727272727,307.96015653212123 327.77777777777777,266.72530533457257 332.8282828282828,369.21715601666716 337.8787878787879,376.3784905883772 342.92929292929296,369.21715601666716 347.979797979798,299.82030611882243 353.03030303030306,382.8290877845508 358.0808080808081,73.9441555590522 363.13131313131316,69.55455678329258 368.1818181818182,220.3658675911068 373.23232323232327,219.8360767413887 378.2828282828283,404.9526751934675 383.3333333333333,404.9526751934675 388.3838383838384,363.0038170770264 393.4343434343434,287.47163901611367 398.4848484848485,280.62851653716046 403.5353535353535,280.61890417689983 408.58585858585855,280.61890417689983 413.6363636363636,329.6303609115396 418.68686868686865,339.56371163562085 423.73737373737373,354.98213702431724 428.7878787878788,354.8861071927822 433.83838383838383,402.1452831573853 438.8888888888889,261.28647468823095 443.93939393939394,323.10611042895704 448.989898989899,365.42327331586176 454.04040404040404,365.4846042693037 459.0909090909091,383.41540306792933 464.14141414141415,300.8209702026013 469.19191919191917,412.6996777375798 474.24242424242425,346.9333771305643 479.2929292929293,347.02940696209924 484.34343434343435,347.32413340224286 489.3939393939394,216.27060607051038 494.4444444444444,401.775425096969 499.4949494949495,411.7024743935473 504.5454545454545,360.41881821482707 509.59595959595964,393.28845995092956 514.6464646464647,395.5522921071238 519.6969696969697,411.64728373964715 524.7474747474748,411.64728373964715 529.7979797979798,393.48261683138696 534.8484848484849,386.837962497332 539.8989898989898,410.36042266736337 544.9494949494949,331.7297319552714 550.0,209.68029646158953" fill="none" stroke="rgb(0,0,255)" stroke-width="1"/><circle cx="50.0" cy="423.0869210664341" r="2" fill="rgb(0,0,255)"/><circle cx="55.05050505050505" cy="425.02856250667213" r="2" fill="rgb(0,0,255)"/><circle cx="60.101010101010104" cy="405.9126153923812" r="2" fill="rgb(0,0,255)"/><circle cx="65.15151515151516" cy="404.62989703888684" r="2" fill="rgb(0,0,255)"/><circle cx="70.20202020202021" cy="372.9742321171805" r="2" fill="rgb(0,0,255)"/><circle cx="75.25252525252526" cy="429.0210731895892" r="2" fill="rgb(0,0,255)"/><circle cx="80.30303030303031" cy="429.08361534425273" r="2" fill="rgb(0,0,255)"/><circle cx="85.35353535353535" cy="238.6621157307045" r="2" fill="rgb(0,0,255)"/><circle cx="90.40404040404042" cy="351.22503799243896" r="2" fill="rgb(0,0,255)"/><circle cx="95.45454545454545" cy="401.7926108058724" r="2" fill="rgb(0,0,255)"/><circle cx="100.5050505050505" cy="403.7141697325534" r="2" fill="rgb(0,0,255)"/><circle cx="105.55555555555554" cy="432.35933628193743" r="2" fill="rgb(0,0,255)"/><circle cx="110.60606060606061" cy="433.4151507436445" r="2" fill="rgb(0,0,255)"/><circle cx="115.65656565656566" cy="342.4924879472155" r="2" fill="rgb(0,0,255)"/><circle cx="120.7070707070707" cy="342.0431111582327" r="2" fill="rgb(0,0,255)"/><circle cx="125.75757575757576" cy="411.8100291326501" r="2" fill="rgb(0,0,255)"/><circle cx="130.80808080808083" cy="333.09988152882966" r="2" fill="rgb(0,0,255)"/><circle cx="135.85858585858585" cy="403.2898826897939" r="2" fill="rgb(0,0,255)"/><circle cx="140.9090909090909" cy="301.3736884409751" r="2" fill="rgb(0,0,255)"/><circle cx="145.95959595959596" cy="330.63720625815574" r="2" fill="rgb(0,0,255)"/><circle cx="151.010101010101" cy="148.42240590911206" r="2" fill="rgb(0,0,255)"/><circle cx="156.06060606060606" cy="386.05769119017464" r="2" fill="rgb(0,0,255)"/><circle cx="161.1111111111111" cy="72.14849816924817" r="2" fill="rgb(0,0,255)"/><circle cx="166.16161616161617" cy="174.35424783111938" r="2" fill="rgb(0,0,255)"/><circle cx="171.21212121212122" cy="378.6787299447569" r="2" fill="rgb(0,0,255)"/><circle cx="176.26262626262627" cy="378.2734451341492" r="2" fill="rgb(0,0,255)"/><circle cx="181.31313131313132" cy="366.54782756367047" r="2" fill="rgb(0,0,255)"/><circle cx="186.36363636363635" cy="391.63300978655633" r="2" fill="rgb(0,0,255)"/><circle cx="191.4141414141414" cy="385.93543709114317" r="2" fill="rgb(0,0,255)"/><circle cx="196.46464646464648" cy="385.93543709114317" r="2" fill="rgb(0,0,255)"/><circle cx="201.51515151515153" cy="385.7952904607936" r="2" fill="rgb(0,0,255)"/><circle cx="206.56565656565658" cy="385.6007717079399" r="2" fill="rgb(0,0,255)"/><circle cx="211.61616161616163" cy="403.16689046292765" r="2" fill="rgb(0,0,255)"/><circle cx="216.66666666666666" cy="134.3053413954499" r="2" fill="rgb(0,0,255)"/><circle cx="221.7171717171717" cy="344.16781733587527" r="2" fill="rgb(0,0,255)"/><circle cx="226.76767676767676" cy="406.3186959921858" r="2" fill="rgb(0,0,255)"/><circle cx="231.8181818181818" cy="391.76060414992884" r="2" fill="rgb(0,0,255)"/><circle cx="236.86868686868686" cy="399.8821636440262" r="2" fill="rgb(0,0,255)"/><circle cx="241.91919191919192" cy="399.42715053724396" r="2" fill="rgb(0,0,255)"/><circle cx="246.96969696969697" cy="392.1206720109147" r="2" fill="rgb(0,0,255)"/><circle cx="252.02020202020202" cy="391.8823256873761" r="2" fill="rgb(0,0,255)"/><circle cx="257.07070707070704" cy="313.3731571334115" r="2" fill="rgb(0,0,255)"/><circle cx="262.1212121212121" cy="346.1040364342636" r="2" fill="rgb(0,0,255)"/><circle cx="267.1717171717172" cy="310.6518276069012" r="2" fill="rgb(0,0,255)"/><circle cx="272.2222222222222" cy="378.7770772351771" r="2" fill="rgb(0,0,255)"/><circle cx="277.27272727272725" cy="380.1666268510434" r="2" fill="rgb(0,0,255)"/><circle cx="282.32323232323233" cy="378.643337181673" r="2" fill="rgb(0,0,255)"/><circle cx="287.3737373737374" cy="378.7144084059687" r="2" fill="rgb(0,0,255)"/><circle cx="292.42424242424244" cy="333.5331759890656" r="2" fill="rgb(0,0,255)"/><circle cx="297.47474747474746" cy="332.71102042076075" r="2" fill="rgb(0,0,255)"/><circle cx="302.52525252525254" cy="265.5063588446629" r="2" fill="rgb(0,0,255)"/><circle cx="307.57575757575756" cy="391.3471199878219" r="2" fill="rgb(0,0,255)"/><circle cx="312.62626262626264" cy="378.6344659152039" r="2" fill="rgb(0,0,255)"/><circle cx="317.67676767676767" cy="266.19375512217" r="2" fill="rgb(0,0,255)"/><circle cx="322.7272727272727" cy="307.96015653212123" r="2" fill="rgb(0,0,255)"/><circle cx="327.77777777777777" cy="266.72530533457257" r="2" fill="rgb(0,0,255)"/><circle cx="332.8282828282828" cy="369.21715601666716" r="2" fill="rgb(0,0,255)"/><circle cx="337.8787878787879" cy="376.3784905883772" r="2" fill="rgb(0,0,255)"/><circle cx="342.92929292929296" cy="369.21715601666716" r="2" fill="rgb(0,0,255)"/><circle cx="347.979797979798" cy="299.82030611882243" r="2" fill="rgb(0,0,255)"/><circle cx="353.03030303030306" cy="382.8290877845508" r="2" fill="rgb(0,0,255)"/><circle cx="358.0808080808081" cy="73.9441555590522" r="2" fill="rgb(0,0,255)"/><circle cx="363.13131313131316" cy="69.55455678329258" r="2" fill="rgb(0,0,255)"/><circle cx="368.1818181818182" cy="220.3658675911068" r="2" fill="rgb(0,0,255)"/><circle cx="373.23232323232327" cy="219.8360767413887" r="2" fill="rgb(0,0,255)"/><circle cx="378.2828282828283" cy="404.9526751934675" r="2" fill="rgb(0,0,255)"/><circle cx="383.3333333333333" cy="404.9526751934675" r="2" fill="rgb(0,0,255)"/><circle cx="388.3838383838384" cy="363.0038170770264" r="2" fill="rgb(0,0,255)"/><circle cx="393.4343434343434" cy="287.47163901611367" r="2" fill="rgb(0,0,255)"/><circle cx="398.4848484848485" cy="280.62851653716046" r="2" fill="rgb(0,0,255)"/><circle cx="403.5353535353535" cy="280.61890417689983" r="2" fill="rgb(0,0,255)"/><circle cx="408.58585858585855" cy="280.61890417689983" r="2" fill="rgb(0,0,255)"/><circle cx="413.6363636363636" cy="329.6303609115396" r="2" fill="rgb(0,0,255)"/><circle cx="418.68686868686865" cy="339.56371163562085" r="2" fill="rgb(0,0,255)"/><circle cx="423.73737373737373" cy="354.98213702431724" r="2" fill="rgb(0,0,255)"/><circle cx="428.7878787878788" cy="354.8861071927822" r="2" fill="rgb(0,0,255)"/><circle cx="433.83838383838383" cy="402.1452831573853" r="2" fill="rgb(0,0,255)"/><circle cx="438.8888888888889" cy="261.28647468823095" r="2" fill="rgb(0,0,255)"/><circle cx="443.93939393939394" cy="323.10611042895704" r="2" fill="rgb(0,0,255)"/><circle cx="448.989898989899" cy="365.42327331586176" r="2" fill="rgb(0,0,255)"/><circle cx="454.04040404040404" cy="365.4846042693037" r="2" fill="rgb(0,0,255)"/><circle cx="459.0909090909091" cy="383.41540306792933" r="2" fill="rgb(0,0,255)"/><circle cx="464.14141414141415" cy="300.8209702026013" r="2" fill="rgb(0,0,255)"/><circle cx="469.19191919191917" cy="412.6996777375798" r="2" fill="rgb(0,0,255)"/><circle cx="474.24242424242425" cy="346.9333771305643" r="2" fill="rgb(0,0,255)"/><circle cx="479.2929292929293" cy="347.02940696209924" r="2" fill="rgb(0,0,255)"/><circle cx="484.34343434343435" cy="347.32413340224286" r="2" fill="rgb(0,0,255)"/><circle cx="489.3939393939394" cy="216.27060607051038" r="2" fill="rgb(0,0,255)"/><circle cx="494.4444444444444" cy="401.775425096969" r="2" fill="rgb(0,0,255)"/><circle cx="499.4949494949495" cy="411.7024743935473" r="2" fill="rgb(0,0,255)"/><circle cx="504.5454545454545" cy="360.41881821482707" r="2" fill="rgb(0,0,255)"/><circle cx="509.59595959595964" cy="393.28845995092956" r="2" fill="rgb(0,0,255)"/><circle cx="514.6464646464647" cy="395.5522921071238" r="2" fill="rgb(0,0,255)"/><circle cx="519.6969696969697" cy="411.64728373964715" r="2" fill="rgb(0,0,255)"/><circle cx="524.7474747474748" cy="411.64728373964715" r="2" fill="rgb(0,0,255)"/><circle cx="529.7979797979798" cy="393.48261683138696" r="2" fill="rgb(0,0,255)"/><circle cx="534.8484848484849" cy="386.837962497332" r="2" fill="rgb(0,0,255)"/><circle cx="539.8989898989898" cy="410.36042266736337" r="2" fill="rgb(0,0,255)"/><circle cx="544.9494949494949" cy="331.7297319552714" r="2" fill="rgb(0,0,255)"/><circle cx="550.0" cy="209.68029646158953" r="2" fill="rgb(0,0,255)"/><polyline points="50.0,224.42917599038526 55.05050505050505,194.19581805275567 60.101010101010104,164.80188390250038 65.15151515151516,149.9641483184751 70.20202020202021,130.0716076815968 75.25252525252526,128.86964441990187 80.30303030303031,104.1951900222009 85.35353535353535,89.64018007373636 90.40404040404042,81.26621196722766 95.45454545454545,80.77460546427938 100.5050505050505,71.28351989868793 105.55555555555554,84.51263767874997 110.60606060606061,84.08136420153835 115.65656565656566,73.78728810169281 120.7070707070707,65.76124886530027 125.75757575757576,71.50482484199762 130.80808080808083,67.12089499244837 135.85858585858585,66.17575903749588 140.9090909090909,58.19419777709362 145.95959595959596,67.925766158258 151.010101010101,56.07228176786714 156.06060606060606,63.41894223622484 161.1111111111111,53.70851713819866 166.16161616161617,53.8161714898219 171.21212121212122,57.79612746503807 176.26262626262627,71.01451529504237 181.31313131313132,68.36599098575368 186.36363636363635,62.23094416998549 191.4141414141414,63.30088593880748 196.46464646464648,63.62887906580369 201.51515151515153,59.3509389662496 206.56565656565658,59.73885118215031 211.61616161616163,62.05761287888038 216.66666666666666,53.29416399954738 221.7171717171717,55.80730919470392 226.76767676767676,67.96983670142231 231.8181818181818,62.10865887270842 236.86868686868686,68.75571458266398 241.91919191919192,73.40131386886515 246.96969696969697,67.92486678874712 252.02020202020202,59.45632838766045 257.07070707070704,59.68789506481721 262.1212121212121,62.938242838054805 267.1717171717172,61.331692522728645 272.2222222222222,71.47557261529795 277.27272727272725,66.97326841629115 282.32323232323233,69.27666315944185 287.3737373737374,67.99547476154913 292.42424242424244,59.644613393309044 297.47474747474746,58.20774804076399 302.52525252525254,54.628845379517145 307.57575757575756,71.58494834258073 312.62626262626264,62.51110363634416 317.67676767676767,58.453003867081975 322.7272727272727,60.85418852983071 327.77777777777777,57.7918617541668 332.8282828282828,58.336155556294614 337.8787878787879,61.81640494687639 342.92929292929296,61.66648099263881 347.979797979798,63.871240980717175 353.03030303030306,65.8970081281862 358.0808080808081,52.21287130958939 363.13131313131316,51.13554786404211 368.1818181818182,53.31998701670449 373.23232323232327,53.31870034691332 378.2828282828283,63.418465627948876 383.3333333333333,57.230532787864206 388.3838383838384,62.50239166648373 393.4343434343434,60.94189509913372 398.4848484848485,58.51417226124903 403.5353535353535,53.86328544404216 408.58585858585855,60.25481767630589 413.6363636363636,59.48999484539689 418.68686868686865,58.38769609507648 423.73737373737373,60.87390977425656 428.7878787878788,57.90245932439427 433.83838383838383,59.04477004226999 438.8888888888889,57.09204245226465 443.93939393939394,58.76826332633681 448.989898989899,62.87121432810346 454.04040404040404,58.65538650778791 459.0909090909091,61.13199426848786 464.14141414141415,60.282974411878115 469.19191919191917,58.91887423988828 474.24242424242425,58.16652574669132 479.2929292929293,65.87315039023099 484.34343434343435,60.12270063931612 489.3939393939394,55.64610766972601 494.4444444444444,60.024212148343 499.4949494949495,65.08614956869633 504.5454545454545,58.212777297352034 509.59595959595964,63.45158307419456 514.6464646464647,70.32765786841622 519.6969696969697,81.75334802744123 524.7474747474748,68.53423510262331 529.7979797979798,67.51457440349799 534.8484848484849,54.872860683473675 539.8989898989898,63.51810991305217 544.9494949494949,57.138685373372084 550.0,55.39862823315286" fill="none" stroke="rgb(255,0,0)" stroke-width="1"/><circle cx="50.0" cy="224.42917599038526" r="2" fill="rgb(255,0,0)"/><circle cx="55.05050505050505" cy="194.19581805275567" r="2" fill="rgb(255,0,0)"/><circle cx="60.101010101010104" cy="164.80188390250038" r="2" fill="rgb(255,0,0)"/><circle cx="65.15151515151516" cy="149.9641483184751" r="2" fill="rgb(255,0,0)"/><circle cx="70.20202020202021" cy="130.0716076815968" r="2" fill="rgb(255,0,0)"/><circle cx="75.25252525252526" cy="128.86964441990187" r="2" fill="rgb(255,0,0)"/><circle cx="80.30303030303031" cy="104.1951900222009" r="2" fill="rgb(255,0,0)"/><circle cx="85.35353535353535" cy="89.64018007373636" r="2" fill="rgb(255,0,0)"/><circle cx="90.40404040404042" cy="81.26621196722766" r="2" fill="rgb(255,0,0)"/><circle cx="95.45454545454545" cy="80.77460546427938" r="2" fill="rgb(255,0,0)"/><circle cx="100.5050505050505" cy="71.28351989868793" r="2" fill="rgb(255,0,0)"/><circle cx="105.55555555555554" cy="84.51263767874997" r="2" fill="rgb(255,0,0)"/><circle cx="110.60606060606061" cy="84.08136420153835" r="2" fill="rgb(255,0,0)"/><circle cx="115.65656565656566" cy="73.78728810169281" r="2" fill="rgb(255,0,0)"/><circle cx="120.7070707070707" cy="65.76124886530027" r="2" fill="rgb(255,0,0)"/><circle cx="125.75757575757576" cy="71.50482484199762" r="2" fill="rgb(255,0,0)"/><circle cx="130.80808080808083" cy="67.12089499244837" r="2" fill="rgb(255,0,0)"/><circle cx="135.85858585858585" cy="66.17575903749588" r="2" fill="rgb(255,0,0)"/><circle cx="140.9090909090909" cy="58.19419777709362" r="2" fill="rgb(255,0,0)"/><circle cx="145.95959595959596" cy="67.925766158258" r="2" fill="rgb(255,0,0)"/><circle cx="151.010101010101" cy="56.07228176786714" r="2" fill="rgb(255,0,0)"/><circle cx="156.06060606060606" cy="63.41894223622484" r="2" fill="rgb(255,0,0)"/><circle cx="161.1111111111111" cy="53.70851713819866" r="2" fill="rgb(255,0,0)"/><circle cx="166.16161616161617" cy="53.8161714898219" r="2" fill="rgb(255,0,0)"/><circle cx="171.21212121212122" cy="57.79612746503807" r="2" fill="rgb(255,0,0)"/><circle cx="176.26262626262627" cy="71.01451529504237" r="2" fill="rgb(255,0,0)"/><circle cx="181.31313131313132" cy="68.36599098575368" r="2" fill="rgb(255,0,0)"/><circle cx="186.36363636363635" cy="62.23094416998549" r="2" fill="rgb(255,0,0)"/><circle cx="191.4141414141414" cy="63.30088593880748" r="2" fill="rgb(255,0,0)"/><circle cx="196.46464646464648" cy="63.62887906580369" r="2" fill="rgb(255,0,0)"/><circle cx="201.51515151515153" cy="59.3509389662496" r="2" fill="rgb(255,0,0)"/><circle cx="206.56565656565658" cy="59.73885118215031" r="2" fill="rgb(255,0,0)"/><circle cx="211.61616161616163" cy="62.05761287888038" r="2" fill="rgb(255,0,0)"/><circle cx="216.66666666666666" cy="53.29416399954738" r="2" fill="rgb(255,0,0)"/><circle cx="221.7171717171717" cy="55.80730919470392" r="2" fill="rgb(255,0,0)"/><circle cx="226.76767676767676" cy="67.96983670142231" r="2" fill="rgb(255,0,0)"/><circle cx="231.8181818181818" cy="62.10865887270842" r="2" fill="rgb(255,0,0)"/><circle cx="236.86868686868686" cy="68.75571458266398" r="2" fill="rgb(255,0,0)"/><circle cx="241.91919191919192" cy="73.40131386886515" r="2" fill="rgb(255,0,0)"/><circle cx="246.96969696969697" cy="67.92486678874712" r="2" fill="rgb(255,0,0)"/><circle cx="252.02020202020202" cy="59.45632838766045" r="2" fill="rgb(255,0,0)"/><circle cx="257.07070707070704" cy="59.68789506481721" r="2" fill="rgb(255,0,0)"/><circle cx="262.1212121212121" cy="62.938242838054805" r="2" fill="rgb(255,0,0)"/><circle cx="267.1717171717172" cy="61.331692522728645" r="2" fill="rgb(255,0,0)"/><circle cx="272.2222222222222" cy="71.47557261529795" r="2" fill="rgb(255,0,0)"/><circle cx="277.27272727272725" cy="66.97326841629115" r="2" fill="rgb(255,0,0)"/><circle cx="282.32323232323233" cy="69.27666315944185" r="2" fill="rgb(255,0,0)"/><circle cx="287.3737373737374" cy="67.99547476154913" r="2" fill="rgb(255,0,0)"/><circle cx="292.42424242424244" cy="59.644613393309044" r="2" fill="rgb(255,0,0)"/><circle cx="297.47474747474746" cy="58.20774804076399" r="2" fill="rgb(255,0,0)"/><circle cx="302.52525252525254" cy="54.628845379517145" r="2" fill="rgb(255,0,0)"/><circle cx="307.57575757575756" cy="71.58494834258073" r="2" fill="rgb(255,0,0)"/><circle cx="312.62626262626264" cy="62.51110363634416" r="2" fill="rgb(255,0,0)"/><circle cx="317.67676767676767" cy="58.453003867081975" r="2" fill="rgb(255,0,0)"/><circle cx="322.7272727272727" cy="60.85418852983071" r="2" fill="rgb(255,0,0)"/><circle cx="327.77777777777777" cy="57.7918617541668" r="2" fill="rgb(255,0,0)"/><circle cx="332.8282828282828" cy="58.336155556294614" r="2" fill="rgb(255,0,0)"/><circle cx="337.8787878787879" cy="61.81640494687639" r="2" fill="rgb(255,0,0)"/><circle cx="342.92929292929296" cy="61.66648099263881" r="2" fill="rgb(255,0,0)"/><circle cx="347.979797979798" cy="63.871240980717175" r="2" fill="rgb(255,0,0)"/><circle cx="353.03030303030306" cy="65.8970081281862" r="2" fill="rgb(255,0,0)"/><circle cx="358.0808080808081" cy="52.21287130958939" r="2" fill="rgb(255,0,0)"/><circle cx="363.13131313131316" cy="51.13554786404211" r="2" fill="rgb(255,0,0)"/><circle cx="368.1818181818182" cy="53.31998701670449" r="2" fill="rgb(255,0,0)"/><circle cx="373.23232323232327" cy="53.31870034691332" r="2" fill="rgb(255,0,0)"/><circle cx="378.2828282828283" cy="63.418465627948876" r="2" fill="rgb(255,0,0)"/><circle cx="383.3333333333333" cy="57.230532787864206" r="2" fill="rgb(255,0,0)"/><circle cx="388.3838383838384" cy="62.50239166648373" r="2" fill="rgb(255,0,0)"/><circle cx="393.4343434343434" cy="60.94189509913372" r="2" fill="rgb(255,0,0)"/><circle cx="398.4848484848485" cy="58.51417226124903" r="2" fill="rgb(255,0,0)"/><circle cx="403.5353535353535" cy="53.86328544404216" r="2" fill="rgb(255,0,0)"/><circle cx="408.58585858585855" cy="60.25481767630589" r="2" fill="rgb(255,0,0)"/><circle cx="413.6363636363636" cy="59.48999484539689" r="2" fill="rgb(255,0,0)"/><circle cx="418.68686868686865" cy="58.38769609507648" r="2" fill="rgb(255,0,0)"/><circle cx="423.73737373737373" cy="60.87390977425656" r="2" fill="rgb(255,0,0)"/><circle cx="428.7878787878788" cy="57.90245932439427" r="2" fill="rgb(255,0,0)"/><circle cx="433.83838383838383" cy="59.04477004226999" r="2" fill="rgb(255,0,0)"/><circle cx="438.8888888888889" cy="57.09204245226465" r="2" fill="rgb(255,0,0)"/><circle cx="443.93939393939394" cy="58.76826332633681" r="2" fill="rgb(255,0,0)"/><circle cx="448.989898989899" cy="62.87121432810346" r="2" fill="rgb(255,0,0)"/><circle cx="454.04040404040404" cy="58.65538650778791" r="2" fill="rgb(255,0,0)"/><circle cx="459.0909090909091" cy="61.13199426848786" r="2" fill="rgb(255,0,0)"/><circle cx="464.14141414141415" cy="60.282974411878115" r="2" fill="rgb(255,0,0)"/><circle cx="469.19191919191917" cy="58.91887423988828" r="2" fill="rgb(255,0,0)"/><circle cx="474.24242424242425" cy="58.16652574669132" r="2" fill="rgb(255,0,0)"/><circle cx="479.2929292929293" cy="65.87315039023099" r="2" fill="rgb(255,0,0)"/><circle cx="484.34343434343435" cy="60.12270063931612" r="2" fill="rgb(255,0,0)"/><circle cx="489.3939393939394" cy="55.64610766972601" r="2" fill="rgb(255,0,0)"/><circle cx="494.4444444444444" cy="60.024212148343" r="2" fill="rgb(255,0,0)"/><circle cx="499.4949494949495" cy="65.08614956869633" r="2" fill="rgb(255,0,0)"/><circle cx="504.5454545454545" cy="58.212777297352034" r="2" fill="rgb(255,0,0)"/><circle cx="509.59595959595964" cy="63.45158307419456" r="2" fill="rgb(255,0,0)"/><circle cx="514.6464646464647" cy="70.32765786841622" r="2" fill="rgb(255,0,0)"/><circle cx="519.6969696969697" cy="81.75334802744123" r="2" fill="rgb(255,0,0)"/><circle cx="524.7474747474748" cy="68.53423510262331" r="2" fill="rgb(255,0,0)"/><circle cx="529.7979797979798" cy="67.51457440349799" r="2" fill="rgb(255,0,0)"/><circle cx="534.8484848484849" cy="54.872860683473675" r="2" fill="rgb(255,0,0)"/><circle cx="539.8989898989898" cy="63.51810991305217" r="2" fill="rgb(255,0,0)"/><circle cx="544.9494949494949" cy="57.138685373372084" r="2" fill="rgb(255,0,0)"/><circle cx="550.0" cy="55.39862823315286" r="2" fill="rgb(255,0,0)"/><polyline points="50.0,62.386997272321366 55.05050505050505,54.79297692214766 60.101010101010104,55.47834752619559 65.15151515151516,53.35070439406945 70.20202020202021,54.30162840884549 75.25252525252526,53.82987693220173 80.30303030303031,52.37266020433765 85.35353535353535,51.63408127308696 90.40404040404042,52.44639621945544 95.45454545454545,51.95330654386947 100.5050505050505,52.11915541177689 105.55555555555554,52.08888373272134 110.60606060606061,51.20001169688834 115.65656565656566,51.821503112485345 120.7070707070707,51.41156332603208 125.75757575757576,51.164049179679296 130.80808080808083,50.77861289981348 135.85858585858585,50.83990896379305 140.9090909090909,50.849809528497815 145.95959595959596,50.758476646963345 151.010101010101,50.87012343131204 156.06060606060606,50.87012343131204 161.1111111111111,50.87012343131204 166.16161616161617,50.517012599936834 171.21212121212122,50.81880812304115 176.26262626262627,50.618132144392575 181.31313131313132,50.48272928608975 186.36363636363635,50.642570552673305 191.4141414141414,50.60353462968726 196.46464646464648,50.491887845338624 201.51515151515153,50.491887845338624 206.56565656565658,50.386804628548475 211.61616161616163,50.377192268287786 216.66666666666666,50.39697803332433 221.7171717171717,50.484235186856154 226.76767676767676,50.32830146347459 231.8181818181818,50.32830146347459 236.86868686868686,50.33568196934476 241.91919191919192,50.32830146347459 246.96969696969697,50.40200062302824 252.02020202020202,50.35924460359814 257.07070707070704,50.30395290087762 262.1212121212121,50.35924460359814 267.1717171717172,50.361446987476825 272.2222222222222,50.265417155941805 277.27272727272725,50.265417155941805 282.32323232323233,50.207923069342655 287.3737373737374,50.21753542960329 292.42424242424244,50.074477512392605 297.47474747474746,50.074477512392605 302.52525252525254,50.074477512392605 307.57575757575756,50.207923069342655 312.62626262626264,50.12590957764371 317.67676767676767,50.207923069342655 322.7272727272727,50.207923069342655 327.77777777777777,50.14659211590077 332.8282828282828,50.14659211590077 337.8787878787879,50.17379307068103 342.92929292929296,50.14659211590077 347.979797979798,50.14659211590077 353.03030303030306,50.14659211590077 358.0808080808081,50.14659211590077 363.13131313131316,50.14659211590077 368.1818181818182,50.14659211590077 373.23232323232327,50.14659211590077 378.2828282828283,50.04294470139138 383.3333333333333,50.15620447616146 388.3838383838384,50.1389745329264 393.4343434343434,50.05255706165201 398.4848484848485,50.14659211590077 403.5353535353535,50.14659211590077 408.58585858585855,50.14659211590077 413.6363636363636,50.14659211590077 418.68686868686865,50.14659211590077 423.73737373737373,50.06241018006085 428.7878787878788,50.14659211590077 433.83838383838383,50.14659211590077 438.8888888888889,50.14659211590077 443.93939393939394,50.04604953018213 448.989898989899,50.04604953018213 454.04040404040404,50.04604953018213 459.0909090909091,50.10738048362401 464.14141414141415,50.14659211590077 469.19191919191917,50.07605382357059 474.24242424242425,50.11852135532638 479.2929292929293,50.11852135532638 484.34343434343435,50.0 489.3939393939394,50.0 494.4444444444444,50.0 499.4949494949495,50.028070760574394 504.5454545454545,50.028070760574394 509.59595959595964,50.028070760574394 514.6464646464647,50.028070760574394 519.6969696969697,50.028070760574394 524.7474747474748,50.028070760574394 529.7979797979798,50.0 534.8484848484849,50.0 539.8989898989898,50.0 544.9494949494949,50.0 550.0,50.00496048245208" fill="none" stroke="rgb(0,255,0)" stroke-width="1"/><circle cx="50.0" cy="62.386997272321366" r="2" fill="rgb(0,255,0)"/><circle cx="55.05050505050505" cy="54.79297692214766" r="2" fill="rgb(0,255,0)"/><circle cx="60.101010101010104" cy="55.47834752619559" r="2" fill="rgb(0,255,0)"/><circle cx="65.15151515151516" cy="53.35070439406945" r="2" fill="rgb(0,255,0)"/><circle cx="70.20202020202021" cy="54.30162840884549" r="2" fill="rgb(0,255,0)"/><circle cx="75.25252525252526" cy="53.82987693220173" r="2" fill="rgb(0,255,0)"/><circle cx="80.30303030303031" cy="52.37266020433765" r="2" fill="rgb(0,255,0)"/><circle cx="85.35353535353535" cy="51.63408127308696" r="2" fill="rgb(0,255,0)"/><circle cx="90.40404040404042" cy="52.44639621945544" r="2" fill="rgb(0,255,0)"/><circle cx="95.45454545454545" cy="51.95330654386947" r="2" fill="rgb(0,255,0)"/><circle cx="100.5050505050505" cy="52.11915541177689" r="2" fill="rgb(0,255,0)"/><circle cx="105.55555555555554" cy="52.08888373272134" r="2" fill="rgb(0,255,0)"/><circle cx="110.60606060606061" cy="51.20001169688834" r="2" fill="rgb(0,255,0)"/><circle cx="115.65656565656566" cy="51.821503112485345" r="2" fill="rgb(0,255,0)"/><circle cx="120.7070707070707" cy="51.41156332603208" r="2" fill="rgb(0,255,0)"/><circle cx="125.75757575757576" cy="51.164049179679296" r="2" fill="rgb(0,255,0)"/><circle cx="130.80808080808083" cy="50.77861289981348" r="2" fill="rgb(0,255,0)"/><circle cx="135.85858585858585" cy="50.83990896379305" r="2" fill="rgb(0,255,0)"/><circle cx="140.9090909090909" cy="50.849809528497815" r="2" fill="rgb(0,255,0)"/><circle cx="145.95959595959596" cy="50.758476646963345" r="2" fill="rgb(0,255,0)"/><circle cx="151.010101010101" cy="50.87012343131204" r="2" fill="rgb(0,255,0)"/><circle cx="156.06060606060606" cy="50.87012343131204" r="2" fill="rgb(0,255,0)"/><circle cx="161.1111111111111" cy="50.87012343131204" r="2" fill="rgb(0,255,0)"/><circle cx="166.16161616161617" cy="50.517012599936834" r="2" fill="rgb(0,255,0)"/><circle cx="171.21212121212122" cy="50.81880812304115" r="2" fill="rgb(0,255,0)"/><circle cx="176.26262626262627" cy="50.618132144392575" r="2" fill="rgb(0,255,0)"/><circle cx="181.31313131313132" cy="50.48272928608975" r="2" fill="rgb(0,255,0)"/><circle cx="186.36363636363635" cy="50.642570552673305" r="2" fill="rgb(0,255,0)"/><circle cx="191.4141414141414" cy="50.60353462968726" r="2" fill="rgb(0,255,0)"/><circle cx="196.46464646464648" cy="50.491887845338624" r="2" fill="rgb(0,255,0)"/><circle cx="201.51515151515153" cy="50.491887845338624" r="2" fill="rgb(0,255,0)"/><circle cx="206.56565656565658" cy="50.386804628548475" r="2" fill="rgb(0,255,0)"/><circle cx="211.61616161616163" cy="50.377192268287786" r="2" fill="rgb(0,255,0)"/><circle cx="216.66666666666666" cy="50.39697803332433" r="2" fill="rgb(0,255,0)"/><circle cx="221.7171717171717" cy="50.484235186856154" r="2" fill="rgb(0,255,0)"/><circle cx="226.76767676767676" cy="50.32830146347459" r="2" fill="rgb(0,255,0)"/><circle cx="231.8181818181818" cy="50.32830146347459" r="2" fill="rgb(0,255,0)"/><circle cx="236.86868686868686" cy="50.33568196934476" r="2" fill="rgb(0,255,0)"/><circle cx="241.91919191919192" cy="50.32830146347459" r="2" fill="rgb(0,255,0)"/><circle cx="246.96969696969697" cy="50.40200062302824" r="2" fill="rgb(0,255,0)"/><circle cx="252.02020202020202" cy="50.35924460359814" r="2" fill="rgb(0,255,0)"/><circle cx="257.07070707070704" cy="50.30395290087762" r="2" fill="rgb(0,255,0)"/><circle cx="262.1212121212121" cy="50.35924460359814" r="2" fill="rgb(0,255,0)"/><circle cx="267.1717171717172" cy="50.361446987476825" r="2" fill="rgb(0,255,0)"/><circle cx="272.2222222222222" cy="50.265417155941805" r="2" fill="rgb(0,255,0)"/><circle cx="277.27272727272725" cy="50.265417155941805" r="2" fill="rgb(0,255,0)"/><circle cx="282.32323232323233" cy="50.207923069342655" r="2" fill="rgb(0,255,0)"/><circle cx="287.3737373737374" cy="50.21753542960329" r="2" fill="rgb(0,255,0)"/><circle cx="292.42424242424244" cy="50.074477512392605" r="2" fill="rgb(0,255,0)"/><circle cx="297.47474747474746" cy="50.074477512392605" r="2" fill="rgb(0,255,0)"/><circle cx="302.52525252525254" cy="50.074477512392605" r="2" fill="rgb(0,255,0)"/><circle cx="307.57575757575756" cy="50.207923069342655" r="2" fill="rgb(0,255,0)"/><circle cx="312.62626262626264" cy="50.12590957764371" r="2" fill="rgb(0,255,0)"/><circle cx="317.67676767676767" cy="50.207923069342655" r="2" fill="rgb(0,255,0)"/><circle cx="322.7272727272727" cy="50.207923069342655" r="2" fill="rgb(0,255,0)"/><circle cx="327.77777777777777" cy="50.14659211590077" r="2" fill="rgb(0,255,0)"/><circle cx="332.8282828282828" cy="50.14659211590077" r="2" fill="rgb(0,255,0)"/><circle cx="337.8787878787879" cy="50.17379307068103" r="2" fill="rgb(0,255,0)"/><circle cx="342.92929292929296" cy="50.14659211590077" r="2" fill="rgb(0,255,0)"/><circle cx="347.979797979798" cy="50.14659211590077" r="2" fill="rgb(0,255,0)"/><circle cx="353.03030303030306" cy="50.14659211590077" r="2" fill="rgb(0,255,0)"/><circle cx="358.0808080808081" cy="50.14659211590077" r="2" fill="rgb(0,255,0)"/><circle cx="363.13131313131316" cy="50.14659211590077" r="2" fill="rgb(0,255,0)"/><circle cx="368.1818181818182" cy="50.14659211590077" r="2" fill="rgb(0,255,0)"/><circle cx="373.23232323232327" cy="50.14659211590077" r="2" fill="rgb(0,255,0)"/><circle cx="378.2828282828283" cy="50.04294470139138" r="2" fill="rgb(0,255,0)"/><circle cx="383.3333333333333" cy="50.15620447616146" r="2" fill="rgb(0,255,0)"/><circle cx="388.3838383838384" cy="50.1389745329264" r="2" fill="rgb(0,255,0)"/><circle cx="393.4343434343434" cy="50.05255706165201" r="2" fill="rgb(0,255,0)"/><circle cx="398.4848484848485" cy="50.14659211590077" r="2" fill="rgb(0,255,0)"/><circle cx="403.5353535353535" cy="50.14659211590077" r="2" fill="rgb(0,255,0)"/><circle cx="408.58585858585855" cy="50.14659211590077" r="2" fill="rgb(0,255,0)"/><circle cx="413.6363636363636" cy="50.14659211590077" r="2" fill="rgb(0,255,0)"/><circle cx="418.68686868686865" cy="50.14659211590077" r="2" fill="rgb(0,255,0)"/><circle cx="423.73737373737373" cy="50.06241018006085" r="2" fill="rgb(0,255,0)"/><circle cx="428.7878787878788" cy="50.14659211590077" r="2" fill="rgb(0,255,0)"/><circle cx="433.83838383838383" cy="50.14659211590077" r="2" fill="rgb(0,255,0)"/><circle cx="438.8888888888889" cy="50.14659211590077" r="2" fill="rgb(0,255,0)"/><circle cx="443.93939393939394" cy="50.04604953018213" r="2" fill="rgb(0,255,0)"/><circle cx="448.989898989899" cy="50.04604953018213" r="2" fill="rgb(0,255,0)"/><circle cx="454.04040404040404" cy="50.04604953018213" r="2" fill="rgb(0,255,0)"/><circle cx="459.0909090909091" cy="50.10738048362401" r="2" fill="rgb(0,255,0)"/><circle cx="464.14141414141415" cy="50.14659211590077" r="2" fill="rgb(0,255,0)"/><circle cx="469.19191919191917" cy="50.07605382357059" r="2" fill="rgb(0,255,0)"/><circle cx="474.24242424242425" cy="50.11852135532638" r="2" fill="rgb(0,255,0)"/><circle cx="479.2929292929293" cy="50.11852135532638" r="2" fill="rgb(0,255,0)"/><circle cx="484.34343434343435" cy="50.0" r="2" fill="rgb(0,255,0)"/><circle cx="489.3939393939394" cy="50.0" r="2" fill="rgb(0,255,0)"/><circle cx="494.4444444444444" cy="50.0" r="2" fill="rgb(0,255,0)"/><circle cx="499.4949494949495" cy="50.028070760574394" r="2" fill="rgb(0,255,0)"/><circle cx="504.5454545454545" cy="50.028070760574394" r="2" fill="rgb(0,255,0)"/><circle cx="509.59595959595964" cy="50.028070760574394" r="2" fill="rgb(0,255,0)"/><circle cx="514.6464646464647" cy="50.028070760574394" r="2" fill="rgb(0,255,0)"/><circle cx="519.6969696969697" cy="50.028070760574394" r="2" fill="rgb(0,255,0)"/><circle cx="524.7474747474748" cy="50.028070760574394" r="2" fill="rgb(0,255,0)"/><circle cx="529.7979797979798" cy="50.0" r="2" fill="rgb(0,255,0)"/><circle cx="534.8484848484849" cy="50.0" r="2" fill="rgb(0,255,0)"/><circle cx="539.8989898989898" cy="50.0" r="2" fill="rgb(0,255,0)"/><circle cx="544.9494949494949" cy="50.0" r="2" fill="rgb(0,255,0)"/><circle cx="550.0" cy="50.00496048245208" r="2" fill="rgb(0,255,0)"/><text text-anchor="middle" x="350.0" y="20.0" fill="rgb(0,0,0)" font-size="20.0">GA Demo</text><text text-anchor="middle" x="350.0" y="575.0" fill="rgb(0,0,0)" font-size="12.0">generation</text><text text-anchor="middle" x="20.0" y="300.0" transform="rotate(-90.0 20.0 300.0)" fill="rgb(0,0,0)" font-size="12.0">fitness</text><text x="620" y="62" fill="rgb(0,0,255)" font-size="12">min</text><text x="620" y="74" fill="rgb(255,0,0)" font-size="12">ave</text><text x="620" y="86" fill="rgb(0,255,0)" font-size="12">max</text>Sorry, your browser does not support inline SVG.</svg>