<?xml version='1.0' encoding='UTF-8'?>
<svg version="1.1" width="700.0" height="600.0" xmlns="http://www.w3.org/2000/svg"><line x1="50.0" y1="550.0" x2="550.0" y2="550.0" stroke="rgb(0,0,0)" stroke-width="1"/><line x1="50.0" y1="550.0" x2="50.0" y2="50.0" stroke="rgb(0,0,0)" stroke-width="1"/><line x1="50.0" y1="550.0" x2="50.0" y2="50.0" stroke="rgb(192,192,192)" stroke-width="1"/><text text-anchor="middle" alignment-baseline="hanging" x="50.0" y="553.0" fill="rgb(0,0,0)" font-size="12.0">0</text><line x1="50.0" y1="548.0" x2="50.0" y2="552.0" stroke="rgb(192,192,192)" stroke-width="1"/><line x1="100.5050505050505" y1="550.0" x2="100.5050505050505" y2="50.0" stroke="rgb(192,192,192)" stroke-width="1"/><text text-anchor="middle" alignment-baseline="hanging" x="100.5050505050505" y="553.0" fill="rgb(0,0,0)" font-size="12.0">10</text><line x1="100.5050505050505" y1="548.0" x2="100.5050505050505" y2="552.0" stroke="rgb(192,192,192)" stroke-width="1"/><line x1="151.010101010101" y1="550.0" x2="151.010101010101" y2="50.0" stroke="rgb(192,192,192)" stroke-width="1"/><text text-anchor="middle" alignment-baseline="hanging" x="151.010101010101" y="553.0" fill="rgb(0,0,0)" font-size="12.0">20</text><line x1="151.010101010101" y1="548.0" x2="151.010101010101" y2="552.0" stroke="rgb(192,192,192)" stroke-width="1"/><line x1="201.51515151515153" y1="550.0" x2="201.51515151515153" y2="50.0" stroke="rgb(192,192,192)" stroke-width="1"/><text text-anchor="middle" alignment-baseline="hanging" x="201.51515151515153" y="553.0" fill="rgb(0,0,0)" font-size="12.0">30</text><line x1="201.51515151515153" y1="548.0" x2="201.51515151515153" y2="552.0" stroke="rgb(192,192,192)" stroke-width="1"/><line x1="252.02020202020202" y1="550.0" x2="252.02020202020202" y2="50.0" stroke="rgb(192,192,192)" stroke-width="1"/><text text-anchor="middle" alignment-baseline="hanging" x="252.02020202020202" y="553.0" fill="rgb(0,0,0)" font-size="12.0">40</text><line x1="252.02020202020202" y1="548.0" x2="252.02020202020202" y2="552.0" stroke="rgb(192,192,192)" stroke-width="1"/><line x1="302.52525252525254" y1="550.0" x2="302.52525252525254" y2="50.0" stroke="rgb(192,192,192)" stroke-width="1"/><text text-anchor="middle" alignment-baseline="hanging" x="302.52525252525254" y="553.0" fill="rgb(0,0,0)" font-size="12.0">50</text><line x1="302.52525252525254" y1="548.0" x2="302.52525252525254" y2="552.0" stroke="rgb(192,192,192)" stroke-width="1"/><line x1="353.03030303030306" y1="550.0" x2="353.03030303030306" y2="50.0" stroke="rgb(192,192,192)" stroke-width="1"/><text text-anchor="middle" alignment-baseline="hanging" x="353.03030303030306" y="553.0" fill="rgb(0,0,0)" font-size="12.0">60</text><line x1="353.03030303030306" y1="548.0" x2="353.03030303030306" y2="552.0" stroke="rgb(192,192,192)" stroke-width="1"/><line x1="403.5353535353535" y1="550.0" x2="403.5353535353535" y2="50.0" stroke="rgb(192,192,192)" stroke-width="1"/><text text-anchor="middle" alignment-baseline="hanging" x="403.5353535353535" y="553.0" fill="rgb(0,0,0)" font-size="12.0">70</text><line x1="403.5353535353535" y1="548.0" x2="403.5353535353535" y2="552.0" stroke="rgb(192,192,192)" stroke-width="1"/><line x1="454.04040404040404" y1="550.0" x2="454.04040404040404" y2="50.0" stroke="rgb(192,192,192)" stroke-width="1"/><text text-anchor="middle" alignment-baseline="hanging" x="454.04040404040404" y="553.0" fill="rgb(0,0,0)" font-size="12.0">80</text><line x1="454.04040404040404" y1="548.0" x2="454.04040404040404" y2="552.0" stroke="rgb(192,192,192)" stroke-width="1"/><line x1="504.5454545454545" y1="550.0" x2="504.5454545454545" y2="50.0" stroke="rgb(192,192,192)" stroke-width="1"/><text text-anchor="middle" alignment-baseline="hanging" x="504.5454545454545" y="553.0" fill="rgb(0,0,0)" font-size="12.0">90</text><line x1="504.5454545454545" y1="548.0" x2="504.5454545454545" y2="552.0" stroke="rgb(192,192,192)" stroke-width="1"/><line x1="50.0" y1="550.0" x2="550.0" y2="550.0" stroke="rgb(192,192,192)" stroke-width="1"/><text text-anchor="end" alignment-baseline="middle" x="45.0" y="550.0" font-size="12.0">0.0</text><line x1="48.0" y1="550.0" x2="52.0" y2="550.0" stroke="rgb(192,192,192)" stroke-width="1"/><line x1="50.0" y1="366.50512287517506" x2="550.0" y2="366.50512287517506" stroke="rgb(192,192,192)" stroke-width="1"/><text text-anchor="end" alignment-baseline="middle" x="45.0" y="366.50512287517506" font-size="12.0">1000.0</text><line x1="48.0" y1="366.50512287517506" x2="52.0" y2="366.50512287517506" stroke="rgb(192,192,192)" stroke-width="1"/><line x1="50.0" y1="183.01024575035007" x2="550.0" y2="183.01024575035007" stroke="rgb(192,192,192)" stroke-width="1"/><text text-anchor="end" alignment-baseline="middle" x="45.0" y="183.01024575035007" font-size="12.0">2000.0</text><line x1="48.0" y1="183.01024575035007" x2="52.0" y2="183.01024575035007" stroke="rgb(192,192,192)" stroke-width="1"/><polyline points="50.0,431.769577747322 55.05050505050505,415.27560370515556 60.101010101010104,425.5349595145465 65.15151515151516,431.07677856942473 70.20202020202021,424.2392155275717 75.25252525252526,424.174665147594 80.30303030303031,404.6284523435362 85.35353535353535,367.27869279342235 90.40404040404042,367.75044831979216 95.45454545454545,366.2589507053402 100.5050505050505,401.94954326614845 105.55555555555554,349.4186176808246 110.60606060606061,400.839643355077 115.65656565656566,318.48166601614713 120.7070707070707,317.0241263288121 125.75757575757576,316.91289555278564 130.80808080808083,314.4419861365139 135.85858585858585,299.0295510900953 140.9090909090909,331.2994532056419 145.95959595959596,330.2394639083494 151.010101010101,360.3403816312539 156.06060606060606,331.55807964935275 161.1111111111111,260.67310745527215 166.16161616161617,381.46934028387864 171.21212121212122,386.5541431030382 176.26262626262627,386.0693098781272 181.31313131313132,352.54229803404866 186.36363636363635,306.2600938207602 191.4141414141414,336.35391123598515 196.46464646464648,306.2989988624376 201.51515151515153,305.9486461555947 206.56565656565658,333.00542236871013 211.61616161616163,326.0736503802975 216.66666666666666,397.5623886753609 221.7171717171717,397.11479275540205 226.76767676767676,360.2210469567917 231.8181818181818,388.70115501272153 236.86868686868686,387.8755476111729 241.91919191919192,412.60590462787115 246.96969696969697,412.36127061072864 252.02020202020202,385.9080293528508 257.07070707070704,386.24405971796136 262.1212121212121,362.76780989324845 267.1717171717172,319.53358468683507 272.2222222222222,319.53358468683507 277.27272727272725,346.9496270677431 282.32323232323233,408.3096556417553 287.3737373737374,390.66515909477835 292.42424242424244,366.21993018974354 297.47474747474746,366.51947066711944 302.52525252525254,405.98823916857964 307.57575757575756,294.26793798455833 312.62626262626264,251.99071929622949 317.67676767676767,395.3824449115396 322.7272727272727,407.9414607797669 327.77777777777777,205.53300464580838 332.8282828282828,211.74493102961316 337.8787878787879,332.7160425905537 342.92929292929296,273.6787710906658 347.979797979798,367.43759121373785 353.03030303030306,378.43214508900877 358.0808080808081,378.34775342536545 363.13131313131316,367.9774022288927 368.1818181818182,369.68699857444835 373.23232323232327,368.9735699519738 378.2828282828283,359.23862418969406 383.3333333333333,247.87432138967273 388.3838383838384,266.1100967516656 393.4343434343434,350.5208939558562 398.4848484848485,350.5266702137694 403.5353535353535,351.86885850846727 408.58585858585855,411.149006956448 413.6363636363636,402.1886022189311 418.68686868686865,377.28612062279956 423.73737373737373,316.4467130076779 428.7878787878788,318.6176528858605 433.83838383838383,400.3164054883759 438.8888888888889,340.6538529452373 443.93939393939394,340.7961992004757 448.989898989899,340.5366751966692 454.04040404040404,361.7711564409717 459.0909090909091,373.6398846357544 464.14141414141415,373.4689944927279 469.19191919191917,396.41299780067845 474.24242424242425,409.3706644458698 479.2929292929293,409.31108313979337 484.34343434343435,409.4904564111664 489.3939393939394,409.4118374822833 494.4444444444444,281.0851645829789 499.4949494949495,368.13127022602896 504.5454545454545,368.13127022602896 509.59595959595964,367.01403017564564 514.6464646464647,276.575353825099 519.6969696969697,308.6663775059056 524.7474747474748,324.72025750020106 529.7979797979798,389.0524404827299 534.8484848484849,423.8056911442568 539.8989898989898,423.7421993782309 544.9494949494949,404.67909693083067 550.0,390.95374849662494" fill="none" stroke="rgb(0,0,255)" stroke-width="1"/><circle cx="50.0" cy="431.769577747322" r="2" fill="rgb(0,0,255)"/><circle cx="55.05050505050505" cy="415.27560370515556" r="2" fill="rgb(0,0,255)"/><circle cx="60.101010101010104" cy="425.5349595145465" r="2" fill="rgb(0,0,255)"/><circle cx="65.15151515151516" cy="431.07677856942473" r="2" fill="rgb(0,0,255)"/><circle cx="70.20202020202021" cy="424.2392155275717" r="2" fill="rgb(0,0,255)"/><circle cx="75.25252525252526" cy="424.174665147594" r="2" fill="rgb(0,0,255)"/><circle cx="80.30303030303031" cy="404.6284523435362" r="2" fill="rgb(0,0,255)"/><circle cx="85.35353535353535" cy="367.27869279342235" r="2" fill="rgb(0,0,255)"/><circle cx="90.40404040404042" cy="367.75044831979216" r="2" fill="rgb(0,0,255)"/><circle cx="95.45454545454545" cy="366.2589507053402" r="2" fill="rgb(0,0,255)"/><circle cx="100.5050505050505" cy="401.94954326614845" r="2" fill="rgb(0,0,255)"/><circle cx="105.55555555555554" cy="349.4186176808246" r="2" fill="rgb(0,0,255)"/><circle cx="110.60606060606061" cy="400.839643355077" r="2" fill="rgb(0,0,255)"/><circle cx="115.65656565656566" cy="318.48166601614713" r="2" fill="rgb(0,0,255)"/><circle cx="120.7070707070707" cy="317.0241263288121" r="2" fill="rgb(0,0,255)"/><circle cx="125.75757575757576" cy="316.91289555278564" r="2" fill="rgb(0,0,255)"/><circle cx="130.80808080808083" cy="314.4419861365139" r="2" fill="rgb(0,0,255)"/><circle cx="135.85858585858585" cy="299.0295510900953" r="2" fill="rgb(0,0,255)"/><circle cx="140.9090909090909" cy="331.2994532056419" r="2" fill="rgb(0,0,255)"/><circle cx="145.95959595959596" cy="330.2394639083494" r="2" fill="rgb(0,0,255)"/><circle cx="151.010101010101" cy="360.3403816312539" r="2" fill="rgb(0,0,255)"/><circle cx="156.06060606060606" cy="331.55807964935275" r="2" fill="rgb(0,0,255)"/><circle cx="161.1111111111111" cy="260.67310745527215" r="2" fill="rgb(0,0,255)"/><circle cx="166.16161616161617" cy="381.46934028387864" r="2" fill="rgb(0,0,255)"/><circle cx="171.21212121212122" cy="386.5541431030382" r="2" fill="rgb(0,0,255)"/><circle cx="176.26262626262627" cy="386.0693098781272" r="2" fill="rgb(0,0,255)"/><circle cx="181.31313131313132" cy="352.54229803404866" r="2" fill="rgb(0,0,255)"/><circle cx="186.36363636363635" cy="306.2600938207602" r="2" fill="rgb(0,0,255)"/><circle cx="191.4141414141414" cy="336.35391123598515" r="2" fill="rgb(0,0,255)"/><circle cx="196.46464646464648" cy="306.2989988624376" r="2" fill="rgb(0,0,255)"/><circle cx="201.51515151515153" cy="305.9486461555947" r="2" fill="rgb(0,0,255)"/><circle cx="206.56565656565658" cy="333.00542236871013" r="2" fill="rgb(0,0,255)"/><circle cx="211.61616161616163" cy="326.0736503802975" r="2" fill="rgb(0,0,255)"/><circle cx="216.66666666666666" cy="397.5623886753609" r="2" fill="rgb(0,0,255)"/><circle cx="221.7171717171717" cy="397.11479275540205" r="2" fill="rgb(0,0,255)"/><circle cx="226.76767676767676" cy="360.2210469567917" r="2" fill="rgb(0,0,255)"/><circle cx="231.8181818181818" cy="388.70115501272153" r="2" fill="rgb(0,0,255)"/><circle cx="236.86868686868686" cy="387.8755476111729" r="2" fill="rgb(0,0,255)"/><circle cx="241.91919191919192" cy="412.60590462787115" r="2" fill="rgb(0,0,255)"/><circle cx="246.96969696969697" cy="412.36127061072864" r="2" fill="rgb(0,0,255)"/><circle cx="252.02020202020202" cy="385.9080293528508" r="2" fill="rgb(0,0,255)"/><circle cx="257.07070707070704" cy="386.24405971796136" r="2" fill="rgb(0,0,255)"/><circle cx="262.1212121212121" cy="362.76780989324845" r="2" fill="rgb(0,0,255)"/><circle cx="267.1717171717172" cy="319.53358468683507" r="2" fill="rgb(0,0,255)"/><circle cx="272.2222222222222" cy="319.53358468683507" r="2" fill="rgb(0,0,255)"/><circle cx="277.27272727272725" cy="346.9496270677431" r="2" fill="rgb(0,0,255)"/><circle cx="282.32323232323233" cy="408.3096556417553" r="2" fill="rgb(0,0,255)"/><circle cx="287.3737373737374" cy="390.66515909477835" r="2" fill="rgb(0,0,255)"/><circle cx="292.42424242424244" cy="366.21993018974354" r="2" fill="rgb(0,0,255)"/><circle cx="297.47474747474746" cy="366.51947066711944" r="2" fill="rgb(0,0,255)"/><circle cx="302.52525252525254" cy="405.98823916857964" r="2" fill="rgb(0,0,255)"/><circle cx="307.57575757575756" cy="294.26793798455833" r="2" fill="rgb(0,0,255)"/><circle cx="312.62626262626264" cy="251.99071929622949" r="2" fill="rgb(0,0,255)"/><circle cx="317.67676767676767" cy="395.3824449115396" r="2" fill="rgb(0,0,255)"/><circle cx="322.7272727272727" cy="407.9414607797669" r="2" fill="rgb(0,0,255)"/><circle cx="327.77777777777777" cy="205.53300464580838" r="2" fill="rgb(0,0,255)"/><circle cx="332.8282828282828" cy="211.74493102961316" r="2" fill="rgb(0,0,255)"/><circle cx="337.8787878787879" cy="332.7160425905537" r="2" fill="rgb(0,0,255)"/><circle cx="342.92929292929296" cy="273.6787710906658" r="2" fill="rgb(0,0,255)"/><circle cx="347.979797979798" cy="367.43759121373785" r="2" fill="rgb(0,0,255)"/><circle cx="353.03030303030306" cy="378.43214508900877" r="2" fill="rgb(0,0,255)"/><circle cx="358.0808080808081" cy="378.34775342536545" r="2" fill="rgb(0,0,255)"/><circle cx="363.13131313131316" cy="367.9774022288927" r="2" fill="rgb(0,0,255)"/><circle cx="368.1818181818182" cy="369.68699857444835" r="2" fill="rgb(0,0,255)"/><circle cx="373.23232323232327" cy="368.9735699519738" r="2" fill="rgb(0,0,255)"/><circle cx="378.2828282828283" cy="359.23862418969406" r="2" fill="rgb(0,0,255)"/><circle cx="383.3333333333333" cy="247.87432138967273" r="2" fill="rgb(0,0,255)"/><circle cx="388.3838383838384" cy="266.1100967516656" r="2" fill="rgb(0,0,255)"/><circle cx="393.4343434343434" cy="350.5208939558562" r="2" fill="rgb(0,0,255)"/><circle cx="398.4848484848485" cy="350.5266702137694" r="2" fill="rgb(0,0,255)"/><circle cx="403.5353535353535" cy="351.86885850846727" r="2" fill="rgb(0,0,255)"/><circle cx="408.58585858585855" cy="411.149006956448" r="2" fill="rgb(0,0,255)"/><circle cx="413.6363636363636" cy="402.1886022189311" r="2" fill="rgb(0,0,255)"/><circle cx="418.68686868686865" cy="377.28612062279956" r="2" fill="rgb(0,0,255)"/><circle cx="423.73737373737373" cy="316.4467130076779" r="2" fill="rgb(0,0,255)"/><circle cx="428.7878787878788" cy="318.6176528858605" r="2" fill="rgb(0,0,255)"/><circle cx="433.83838383838383" cy="400.3164054883759" r="2" fill="rgb(0,0,255)"/><circle cx="438.8888888888889" cy="340.6538529452373" r="2" fill="rgb(0,0,255)"/><circle cx="443.93939393939394" cy="340.7961992004757" r="2" fill="rgb(0,0,255)"/><circle cx="448.989898989899" cy="340.5366751966692" r="2" fill="rgb(0,0,255)"/><circle cx="454.04040404040404" cy="361.7711564409717" r="2" fill="rgb(0,0,255)"/><circle cx="459.0909090909091" cy="373.6398846357544" r="2" fill="rgb(0,0,255)"/><circle cx="464.14141414141415" cy="373.4689944927279" r="2" fill="rgb(0,0,255)"/><circle cx="469.19191919191917" cy="396.41299780067845" r="2" fill="rgb(0,0,255)"/><circle cx="474.24242424242425" cy="409.3706644458698" r="2" fill="rgb(0,0,255)"/><circle cx="479.2929292929293" cy="409.31108313979337" r="2" fill="rgb(0,0,255)"/><circle cx="484.34343434343435" cy="409.4904564111664" r="2" fill="rgb(0,0,255)"/><circle cx="489.3939393939394" cy="409.4118374822833" r="2" fill="rgb(0,0,255)"/><circle cx="494.4444444444444" cy="281.0851645829789" r="2" fill="rgb(0,0,255)"/><circle cx="499.4949494949495" cy="368.13127022602896" r="2" fill="rgb(0,0,255)"/><circle cx="504.5454545454545" cy="368.13127022602896" r="2" fill="rgb(0,0,255)"/><circle cx="509.59595959595964" cy="367.01403017564564" r="2" fill="rgb(0,0,255)"/><circle cx="514.6464646464647" cy="276.575353825099" r="2" fill="rgb(0,0,255)"/><circle cx="519.6969696969697" cy="308.6663775059056" r="2" fill="rgb(0,0,255)"/><circle cx="524.7474747474748" cy="324.72025750020106" r="2" fill="rgb(0,0,255)"/><circle cx="529.7979797979798" cy="389.0524404827299" r="2" fill="rgb(0,0,255)"/><circle cx="534.8484848484849" cy="423.8056911442568" r="2" fill="rgb(0,0,255)"/><circle cx="539.8989898989898" cy="423.7421993782309" r="2" fill="rgb(0,0,255)"/><circle cx="544.9494949494949" cy="404.67909693083067" r="2" fill="rgb(0,0,255)"/><circle cx="550.0" cy="390.95374849662494" r="2" fill="rgb(0,0,255)"/><polyline points="50.0,198.88488205690368 55.05050505050505,177.8790619739426 60.101010101010104,148.02039903425566 65.15151515151516,121.48856453129878 70.20202020202021,117.90197126600646 75.25252525252526,110.23463634299219 80.30303030303031,88.87621013038523 85.35353535353535,81.43422002203243 90.40404040404042,76.80768208579923 95.45454545454545,70.48724978060585 100.5050505050505,74.40285498586246 105.55555555555554,70.60298866537727 110.60606060606061,74.09834298051908 115.65656565656566,63.96693267038296 120.7070707070707,63.50721622128896 125.75757575757576,64.6235568807117 130.80808080808083,63.7082886093728 135.85858585858585,61.53364953067336 140.9090909090909,65.29553907580947 145.95959595959596,63.690813750451184 151.010101010101,61.801004993535685 156.06060606060606,63.82435134137057 161.1111111111111,61.433004088154064 166.16161616161617,71.1964032290764 171.21212121212122,70.6704736126282 176.26262626262627,73.98501219008665 181.31313131313132,69.06247554763871 186.36363636363635,64.42183267857723 191.4141414141414,65.24902547821353 196.46464646464648,60.885225827087254 201.51515151515153,60.42265468661708 206.56565656565658,58.504274241083465 211.61616161616163,56.67198144926891 216.66666666666666,69.22165386592366 221.7171717171717,60.31666693454736 226.76767676767676,60.67366284001292 231.8181818181818,72.41650833924484 236.86868686868686,76.61002433997442 241.91919191919192,81.45995178872596 246.96969696969697,72.12792790985793 252.02020202020202,66.24851754135267 257.07070707070704,64.0662883549158 262.1212121212121,63.470089040494315 267.1717171717172,59.153971807526204 272.2222222222222,58.43276992730125 277.27272727272725,59.432088836950925 282.32323232323233,62.71846988499988 287.3737373737374,62.34764763230112 292.42424242424244,64.23200605779755 297.47474747474746,59.53940941272839 302.52525252525254,64.07410722937999 307.57575757575756,64.00759181665387 312.62626262626264,58.13144564574151 317.67676767676767,66.68782772490567 322.7272727272727,60.296144156323464 327.77777777777777,56.40533367063961 332.8282828282828,56.18030779242315 337.8787878787879,60.910188246104894 342.92929292929296,55.311896038127315 347.979797979798,63.60725282055398 353.03030303030306,60.4864886150653 358.0808080808081,70.64971040968908 363.13131313131316,76.91206847053445 368.1818181818182,69.24609599632669 373.23232323232327,61.9639358448465 378.2828282828283,59.80589672737341 383.3333333333333,57.9355109809444 388.3838383838384,57.930824155778396 393.4343434343434,57.457357342117234 398.4848484848485,57.39988759692051 403.5353535353535,59.97481556826739 408.58585858585855,63.88522310149102 413.6363636363636,62.02383354707183 418.68686868686865,67.27046310302546 423.73737373737373,64.676562897699 428.7878787878788,67.00877471749118 433.83838383838383,64.1085702041978 438.8888888888889,62.0392037279272 443.93939393939394,61.79867416686227 448.989898989899,57.38299772253583 454.04040404040404,60.223024942535346 459.0909090909091,58.536140830511386 464.14141414141415,55.88506795961882 469.19191919191917,55.0898775635639 474.24242424242425,63.76889645375769 479.2929292929293,55.185633530077496 484.34343434343435,56.702458412956446 489.3939393939394,60.36191948109047 494.4444444444444,56.41789821271061 499.4949494949495,59.90441296056224 504.5454545454545,62.940934230927326 509.59595959595964,54.63319656977097 514.6464646464647,60.10827643101868 519.6969696969697,59.274629359292476 524.7474747474748,70.41964046698882 529.7979797979798,69.17680114167098 534.8484848484849,66.5952493657577 539.8989898989898,68.4558596834413 544.9494949494949,60.82240776369764 550.0,58.16307142170217" fill="none" stroke="rgb(255,0,0)" stroke-width="1"/><circle cx="50.0" cy="198.88488205690368" r="2" fill="rgb(255,0,0)"/><circle cx="55.05050505050505" cy="177.8790619739426" r="2" fill="rgb(255,0,0)"/><circle cx="60.101010101010104" cy="148.02039903425566" r="2" fill="rgb(255,0,0)"/><circle cx="65.15151515151516" cy="121.48856453129878" r="2" fill="rgb(255,0,0)"/><circle cx="70.20202020202021" cy="117.90197126600646" r="2" fill="rgb(255,0,0)"/><circle cx="75.25252525252526" cy="110.23463634299219" r="2" fill="rgb(255,0,0)"/><circle cx="80.30303030303031" cy="88.87621013038523" r="2" fill="rgb(255,0,0)"/><circle cx="85.35353535353535" cy="81.43422002203243" r="2" fill="rgb(255,0,0)"/><circle cx="90.40404040404042" cy="76.80768208579923" r="2" fill="rgb(255,0,0)"/><circle cx="95.45454545454545" cy="70.48724978060585" r="2" fill="rgb(255,0,0)"/><circle cx="100.5050505050505" cy="74.40285498586246" r="2" fill="rgb(255,0,0)"/><circle cx="105.55555555555554" cy="70.60298866537727" r="2" fill="rgb(255,0,0)"/><circle cx="110.60606060606061" cy="74.09834298051908" r="2" fill="rgb(255,0,0)"/><circle cx="115.65656565656566" cy="63.96693267038296" r="2" fill="rgb(255,0,0)"/><circle cx="120.7070707070707" cy="63.50721622128896" r="2" fill="rgb(255,0,0)"/><circle cx="125.75757575757576" cy="64.6235568807117" r="2" fill="rgb(255,0,0)"/><circle cx="130.80808080808083" cy="63.7082886093728" r="2" fill="rgb(255,0,0)"/><circle cx="135.85858585858585" cy="61.53364953067336" r="2" fill="rgb(255,0,0)"/><circle cx="140.9090909090909" cy="65.29553907580947" r="2" fill="rgb(255,0,0)"/><circle cx="145.95959595959596" cy="63.690813750451184" r="2" fill="rgb(255,0,0)"/><circle cx="151.010101010101" cy="61.801004993535685" r="2" fill="rgb(255,0,0)"/><circle cx="156.06060606060606" cy="63.82435134137057" r="2" fill="rgb(255,0,0)"/><circle cx="161.1111111111111" cy="61.433004088154064" r="2" fill="rgb(255,0,0)"/><circle cx="166.16161616161617" cy="71.1964032290764" r="2" fill="rgb(255,0,0)"/><circle cx="171.21212121212122" cy="70.6704736126282" r="2" fill="rgb(255,0,0)"/><circle cx="176.26262626262627" cy="73.98501219008665" r="2" fill="rgb(255,0,0)"/><circle cx="181.31313131313132" cy="69.06247554763871" r="2" fill="rgb(255,0,0)"/><circle cx="186.36363636363635" cy="64.42183267857723" r="2" fill="rgb(255,0,0)"/><circle cx="191.4141414141414" cy="65.24902547821353" r="2" fill="rgb(255,0,0)"/><circle cx="196.46464646464648" cy="60.885225827087254" r="2" fill="rgb(255,0,0)"/><circle cx="201.51515151515153" cy="60.42265468661708" r="2" fill="rgb(255,0,0)"/><circle cx="206.56565656565658" cy="58.504274241083465" r="2" fill="rgb(255,0,0)"/><circle cx="211.61616161616163" cy="56.67198144926891" r="2" fill="rgb(255,0,0)"/><circle cx="216.66666666666666" cy="69.22165386592366" r="2" fill="rgb(255,0,0)"/><circle cx="221.7171717171717" cy="60.31666693454736" r="2" fill="rgb(255,0,0)"/><circle cx="226.76767676767676" cy="60.67366284001292" r="2" fill="rgb(255,0,0)"/><circle cx="231.8181818181818" cy="72.41650833924484" r="2" fill="rgb(255,0,0)"/><circle cx="236.86868686868686" cy="76.61002433997442" r="2" fill="rgb(255,0,0)"/><circle cx="241.91919191919192" cy="81.45995178872596" r="2" fill="rgb(255,0,0)"/><circle cx="246.96969696969697" cy="72.12792790985793" r="2" fill="rgb(255,0,0)"/><circle cx="252.02020202020202" cy="66.24851754135267" r="2" fill="rgb(255,0,0)"/><circle cx="257.07070707070704" cy="64.0662883549158" r="2" fill="rgb(255,0,0)"/><circle cx="262.1212121212121" cy="63.470089040494315" r="2" fill="rgb(255,0,0)"/><circle cx="267.1717171717172" cy="59.153971807526204" r="2" fill="rgb(255,0,0)"/><circle cx="272.2222222222222" cy="58.43276992730125" r="2" fill="rgb(255,0,0)"/><circle cx="277.27272727272725" cy="59.432088836950925" r="2" fill="rgb(255,0,0)"/><circle cx="282.32323232323233" cy="62.71846988499988" r="2" fill="rgb(255,0,0)"/><circle cx="287.3737373737374" cy="62.34764763230112" r="2" fill="rgb(255,0,0)"/><circle cx="292.42424242424244" cy="64.23200605779755" r="2" fill="rgb(255,0,0)"/><circle cx="297.47474747474746" cy="59.53940941272839" r="2" fill="rgb(255,0,0)"/><circle cx="302.52525252525254" cy="64.07410722937999" r="2" fill="rgb(255,0,0)"/><circle cx="307.57575757575756" cy="64.00759181665387" r="2" fill="rgb(255,0,0)"/><circle cx="312.62626262626264" cy="58.13144564574151" r="2" fill="rgb(255,0,0)"/><circle cx="317.67676767676767" cy="66.68782772490567" r="2" fill="rgb(255,0,0)"/><circle cx="322.7272727272727" cy="60.296144156323464" r="2" fill="rgb(255,0,0)"/><circle cx="327.77777777777777" cy="56.40533367063961" r="2" fill="rgb(255,0,0)"/><circle cx="332.8282828282828" cy="56.18030779242315" r="2" fill="rgb(255,0,0)"/><circle cx="337.8787878787879" cy="60.910188246104894" r="2" fill="rgb(255,0,0)"/><circle cx="342.92929292929296" cy="55.311896038127315" r="2" fill="rgb(255,0,0)"/><circle cx="347.979797979798" cy="63.60725282055398" r="2" fill="rgb(255,0,0)"/><circle cx="353.03030303030306" cy="60.4864886150653" r="2" fill="rgb(255,0,0)"/><circle cx="358.0808080808081" cy="70.64971040968908" r="2" fill="rgb(255,0,0)"/><circle cx="363.13131313131316" cy="76.91206847053445" r="2" fill="rgb(255,0,0)"/><circle cx="368.1818181818182" cy="69.24609599632669" r="2" fill="rgb(255,0,0)"/><circle cx="373.23232323232327" cy="61.9639358448465" r="2" fill="rgb(255,0,0)"/><circle cx="378.2828282828283" cy="59.80589672737341" r="2" fill="rgb(255,0,0)"/><circle cx="383.3333333333333" cy="57.9355109809444" r="2" fill="rgb(255,0,0)"/><circle cx="388.3838383838384" cy="57.930824155778396" r="2" fill="rgb(255,0,0)"/><circle cx="393.4343434343434" cy="57.457357342117234" r="2" fill="rgb(255,0,0)"/><circle cx="398.4848484848485" cy="57.39988759692051" r="2" fill="rgb(255,0,0)"/><circle cx="403.5353535353535" cy="59.97481556826739" r="2" fill="rgb(255,0,0)"/><circle cx="408.58585858585855" cy="63.88522310149102" r="2" fill="rgb(255,0,0)"/><circle cx="413.6363636363636" cy="62.02383354707183" r="2" fill="rgb(255,0,0)"/><circle cx="418.68686868686865" cy="67.27046310302546" r="2" fill="rgb(255,0,0)"/><circle cx="423.73737373737373" cy="64.676562897699" r="2" fill="rgb(255,0,0)"/><circle cx="428.7878787878788" cy="67.00877471749118" r="2" fill="rgb(255,0,0)"/><circle cx="433.83838383838383" cy="64.1085702041978" r="2" fill="rgb(255,0,0)"/><circle cx="438.8888888888889" cy="62.0392037279272" r="2" fill="rgb(255,0,0)"/><circle cx="443.93939393939394" cy="61.79867416686227" r="2" fill="rgb(255,0,0)"/><circle cx="448.989898989899" cy="57.38299772253583" r="2" fill="rgb(255,0,0)"/><circle cx="454.04040404040404" cy="60.223024942535346" r="2" fill="rgb(255,0,0)"/><circle cx="459.0909090909091" cy="58.536140830511386" r="2" fill="rgb(255,0,0)"/><circle cx="464.14141414141415" cy="55.88506795961882" r="2" fill="rgb(255,0,0)"/><circle cx="469.19191919191917" cy="55.0898775635639" r="2" fill="rgb(255,0,0)"/><circle cx="474.24242424242425" cy="63.76889645375769" r="2" fill="rgb(255,0,0)"/><circle cx="479.2929292929293" cy="55.185633530077496" r="2" fill="rgb(255,0,0)"/><circle cx="484.34343434343435" cy="56.702458412956446" r="2" fill="rgb(255,0,0)"/><circle cx="489.3939393939394" cy="60.36191948109047" r="2" fill="rgb(255,0,0)"/><circle cx="494.4444444444444" cy="56.41789821271061" r="2" fill="rgb(255,0,0)"/><circle cx="499.4949494949495" cy="59.90441296056224" r="2" fill="rgb(255,0,0)"/><circle cx="504.5454545454545" cy="62.940934230927326" r="2" fill="rgb(255,0,0)"/><circle cx="509.59595959595964" cy="54.63319656977097" r="2" fill="rgb(255,0,0)"/><circle cx="514.6464646464647" cy="60.10827643101868" r="2" fill="rgb(255,0,0)"/><circle cx="519.6969696969697" cy="59.274629359292476" r="2" fill="rgb(255,0,0)"/><circle cx="524.7474747474748" cy="70.41964046698882" r="2" fill="rgb(255,0,0)"/><circle cx="529.7979797979798" cy="69.17680114167098" r="2" fill="rgb(255,0,0)"/><circle cx="534.8484848484849" cy="66.5952493657577" r="2" fill="rgb(255,0,0)"/><circle cx="539.8989898989898" cy="68.4558596834413" r="2" fill="rgb(255,0,0)"/><circle cx="544.9494949494949" cy="60.82240776369764" r="2" fill="rgb(255,0,0)"/><circle cx="550.0" cy="58.16307142170217" r="2" fill="rgb(255,0,0)"/><polyline points="50.0,57.179260359277976 55.05050505050505,56.49673897957291 60.101010101010104,58.059794246605804 65.15151515151516,55.102409966355765 70.20202020202021,53.43715035483103 75.25252525252526,53.219322346259446 80.30303030303031,53.22032521850667 85.35353535353535,52.92670161741893 90.40404040404042,53.91051437527943 95.45454545454545,53.13073578521676 100.5050505050505,53.19623983189848 105.55555555555554,54.034124249343165 110.60606060606061,53.55183764415068 115.65656565656566,52.82853251966054 120.7070707070707,52.82853251966054 125.75757575757576,53.644898818093225 130.80808080808083,53.644898818093225 135.85858585858585,53.37236975603696 140.9090909090909,52.968025388746014 145.95959595959596,53.14458669813217 151.010101010101,53.1762831732957 156.06060606060606,52.67821997785779 161.1111111111111,52.66037356587145 166.16161616161617,52.48067565441511 171.21212121212122,52.748298291739616 176.26262626262627,52.593094135915635 181.31313131313132,52.48551234601706 186.36363636363635,52.660248603112905 191.4141414141414,52.197182340246684 196.46464646464648,52.08734378113536 201.51515151515153,52.21381123812739 206.56565656565658,52.206837022152854 211.61616161616163,52.275818753952876 216.66666666666666,51.98968627350524 221.7171717171717,52.18105142848185 226.76767676767676,52.18105142848185 231.8181818181818,52.18105142848185 236.86868686868686,52.180345640483836 241.91919191919192,51.94789767323664 246.96969696969697,51.94789767323664 252.02020202020202,52.15224737671173 257.07070707070704,52.125865942247174 262.1212121212121,52.05632561994622 267.1717171717172,51.991427921961645 272.2222222222222,51.991427921961645 277.27272727272725,52.113035774658385 282.32323232323233,52.097220282354385 287.3737373737374,52.097220282354385 292.42424242424244,51.968830818343974 297.47474747474746,51.968830818343974 302.52525252525254,50.91200908196896 307.57575757575756,50.90911889981004 312.62626262626264,50.44759437489404 317.67676767676767,50.91200908196896 322.7272727272727,50.772028380408926 327.77777777777777,50.74853836137197 332.8282828282828,50.73270085499638 337.8787878787879,50.54074634384807 342.92929292929296,50.42602265722314 347.979797979798,50.39432204999838 353.03030303030306,50.362530891197196 358.0808080808081,50.223334241271914 363.13131313131316,50.362530891197196 368.1818181818182,50.388545792085154 373.23232323232327,50.42602265722314 378.2828282828283,50.28945676630258 383.3333333333333,50.266082679826525 388.3838383838384,50.28042503622595 393.4343434343434,50.32189601014494 398.4848484848485,50.25714840599892 403.5353535353535,50.19365663997303 408.58585858585855,50.262314704068444 413.6363636363636,50.20735057552696 418.68686868686865,50.20446039336798 423.73737373737373,50.24908971900561 428.7878787878788,50.182439937065396 433.83838383838383,50.236042991558975 438.8888888888889,50.262314704068444 443.93939393939394,50.14096862734203 448.989898989899,50.14096862734203 454.04040404040404,50.14096862734203 459.0909090909091,50.14096862734203 464.14141414141415,50.14096862734203 469.19191919191917,50.1945716818355 474.24242424242425,50.144879087291486 479.2929292929293,50.14096862734203 484.34343434343435,50.14096862734203 489.3939393939394,50.14096862734203 494.4444444444444,50.1945716818355 499.4949494949495,50.14096862734203 504.5454545454545,50.057960767261704 509.59595959595964,50.0 514.6464646464647,50.00391045994945 519.6969696969697,50.11743561677696 524.7474747474748,50.123211874690185 529.7979797979798,50.14096862734203 534.8484848484849,50.03801629052731 539.8989898989898,50.03801629052731 544.9494949494949,50.09310785651178 550.0,50.01713771686508" fill="none" stroke="rgb(0,255,0)" stroke-width="1"/><circle cx="50.0" cy="57.179260359277976" r="2" fill="rgb(0,255,0)"/><circle cx="55.05050505050505" cy="56.49673897957291" r="2" fill="rgb(0,255,0)"/><circle cx="60.101010101010104" cy="58.059794246605804" r="2" fill="rgb(0,255,0)"/><circle cx="65.15151515151516" cy="55.102409966355765" r="2" fill="rgb(0,255,0)"/><circle cx="70.20202020202021" cy="53.43715035483103" r="2" fill="rgb(0,255,0)"/><circle cx="75.25252525252526" cy="53.219322346259446" r="2" fill="rgb(0,255,0)"/><circle cx="80.30303030303031" cy="53.22032521850667" r="2" fill="rgb(0,255,0)"/><circle cx="85.35353535353535" cy="52.92670161741893" r="2" fill="rgb(0,255,0)"/><circle cx="90.40404040404042" cy="53.91051437527943" r="2" fill="rgb(0,255,0)"/><circle cx="95.45454545454545" cy="53.13073578521676" r="2" fill="rgb(0,255,0)"/><circle cx="100.5050505050505" cy="53.19623983189848" r="2" fill="rgb(0,255,0)"/><circle cx="105.55555555555554" cy="54.034124249343165" r="2" fill="rgb(0,255,0)"/><circle cx="110.60606060606061" cy="53.55183764415068" r="2" fill="rgb(0,255,0)"/><circle cx="115.65656565656566" cy="52.82853251966054" r="2" fill="rgb(0,255,0)"/><circle cx="120.7070707070707" cy="52.82853251966054" r="2" fill="rgb(0,255,0)"/><circle cx="125.75757575757576" cy="53.644898818093225" r="2" fill="rgb(0,255,0)"/><circle cx="130.80808080808083" cy="53.644898818093225" r="2" fill="rgb(0,255,0)"/><circle cx="135.85858585858585" cy="53.37236975603696" r="2" fill="rgb(0,255,0)"/><circle cx="140.9090909090909" cy="52.968025388746014" r="2" fill="rgb(0,255,0)"/><circle cx="145.95959595959596" cy="53.14458669813217" r="2" fill="rgb(0,255,0)"/><circle cx="151.010101010101" cy="53.1762831732957" r="2" fill="rgb(0,255,0)"/><circle cx="156.06060606060606" cy="52.67821997785779" r="2" fill="rgb(0,255,0)"/><circle cx="161.1111111111111" cy="52.66037356587145" r="2" fill="rgb(0,255,0)"/><circle cx="166.16161616161617" cy="52.48067565441511" r="2" fill="rgb(0,255,0)"/><circle cx="171.21212121212122" cy="52.748298291739616" r="2" fill="rgb(0,255,0)"/><circle cx="176.26262626262627" cy="52.593094135915635" r="2" fill="rgb(0,255,0)"/><circle cx="181.31313131313132" cy="52.48551234601706" r="2" fill="rgb(0,255,0)"/><circle cx="186.36363636363635" cy="52.660248603112905" r="2" fill="rgb(0,255,0)"/><circle cx="191.4141414141414" cy="52.197182340246684" r="2" fill="rgb(0,255,0)"/><circle cx="196.46464646464648" cy="52.08734378113536" r="2" fill="rgb(0,255,0)"/><circle cx="201.51515151515153" cy="52.21381123812739" r="2" fill="rgb(0,255,0)"/><circle cx="206.56565656565658" cy="52.206837022152854" r="2" fill="rgb(0,255,0)"/><circle cx="211.61616161616163" cy="52.275818753952876" r="2" fill="rgb(0,255,0)"/><circle cx="216.66666666666666" cy="51.98968627350524" r="2" fill="rgb(0,255,0)"/><circle cx="221.7171717171717" cy="52.18105142848185" r="2" fill="rgb(0,255,0)"/><circle cx="226.76767676767676" cy="52.18105142848185" r="2" fill="rgb(0,255,0)"/><circle cx="231.8181818181818" cy="52.18105142848185" r="2" fill="rgb(0,255,0)"/><circle cx="236.86868686868686" cy="52.180345640483836" r="2" fill="rgb(0,255,0)"/><circle cx="241.91919191919192" cy="51.94789767323664" r="2" fill="rgb(0,255,0)"/><circle cx="246.96969696969697" cy="51.94789767323664" r="2" fill="rgb(0,255,0)"/><circle cx="252.02020202020202" cy="52.15224737671173" r="2" fill="rgb(0,255,0)"/><circle cx="257.07070707070704" cy="52.125865942247174" r="2" fill="rgb(0,255,0)"/><circle cx="262.1212121212121" cy="52.05632561994622" r="2" fill="rgb(0,255,0)"/><circle cx="267.1717171717172" cy="51.991427921961645" r="2" fill="rgb(0,255,0)"/><circle cx="272.2222222222222" cy="51.991427921961645" r="2" fill="rgb(0,255,0)"/><circle cx="277.27272727272725" cy="52.113035774658385" r="2" fill="rgb(0,255,0)"/><circle cx="282.32323232323233" cy="52.097220282354385" r="2" fill="rgb(0,255,0)"/><circle cx="287.3737373737374" cy="52.097220282354385" r="2" fill="rgb(0,255,0)"/><circle cx="292.42424242424244" cy="51.968830818343974" r="2" fill="rgb(0,255,0)"/><circle cx="297.47474747474746" cy="51.968830818343974" r="2" fill="rgb(0,255,0)"/><circle cx="302.52525252525254" cy="50.91200908196896" r="2" fill="rgb(0,255,0)"/><circle cx="307.57575757575756" cy="50.90911889981004" r="2" fill="rgb(0,255,0)"/><circle cx="312.62626262626264" cy="50.44759437489404" r="2" fill="rgb(0,255,0)"/><circle cx="317.67676767676767" cy="50.91200908196896" r="2" fill="rgb(0,255,0)"/><circle cx="322.7272727272727" cy="50.772028380408926" r="2" fill="rgb(0,255,0)"/><circle cx="327.77777777777777" cy="50.74853836137197" r="2" fill="rgb(0,255,0)"/><circle cx="332.8282828282828" cy="50.73270085499638" r="2" fill="rgb(0,255,0)"/><circle cx="337.8787878787879" cy="50.54074634384807" r="2" fill="rgb(0,255,0)"/><circle cx="342.92929292929296" cy="50.42602265722314" r="2" fill="rgb(0,255,0)"/><circle cx="347.979797979798" cy="50.39432204999838" r="2" fill="rgb(0,255,0)"/><circle cx="353.03030303030306" cy="50.362530891197196" r="2" fill="rgb(0,255,0)"/><circle cx="358.0808080808081" cy="50.223334241271914" r="2" fill="rgb(0,255,0)"/><circle cx="363.13131313131316" cy="50.362530891197196" r="2" fill="rgb(0,255,0)"/><circle cx="368.1818181818182" cy="50.388545792085154" r="2" fill="rgb(0,255,0)"/><circle cx="373.23232323232327" cy="50.42602265722314" r="2" fill="rgb(0,255,0)"/><circle cx="378.2828282828283" cy="50.28945676630258" r="2" fill="rgb(0,255,0)"/><circle cx="383.3333333333333" cy="50.266082679826525" r="2" fill="rgb(0,255,0)"/><circle cx="388.3838383838384" cy="50.28042503622595" r="2" fill="rgb(0,255,0)"/><circle cx="393.4343434343434" cy="50.32189601014494" r="2" fill="rgb(0,255,0)"/><circle cx="398.4848484848485" cy="50.25714840599892" r="2" fill="rgb(0,255,0)"/><circle cx="403.5353535353535" cy="50.19365663997303" r="2" fill="rgb(0,255,0)"/><circle cx="408.58585858585855" cy="50.262314704068444" r="2" fill="rgb(0,255,0)"/><circle cx="413.6363636363636" cy="50.20735057552696" r="2" fill="rgb(0,255,0)"/><circle cx="418.68686868686865" cy="50.20446039336798" r="2" fill="rgb(0,255,0)"/><circle cx="423.73737373737373" cy="50.24908971900561" r="2" fill="rgb(0,255,0)"/><circle cx="428.7878787878788" cy="50.182439937065396" r="2" fill="rgb(0,255,0)"/><circle cx="433.83838383838383" cy="50.236042991558975" r="2" fill="rgb(0,255,0)"/><circle cx="438.8888888888889" cy="50.262314704068444" r="2" fill="rgb(0,255,0)"/><circle cx="443.93939393939394" cy="50.14096862734203" r="2" fill="rgb(0,255,0)"/><circle cx="448.989898989899" cy="50.14096862734203" r="2" fill="rgb(0,255,0)"/><circle cx="454.04040404040404" cy="50.14096862734203" r="2" fill="rgb(0,255,0)"/><circle cx="459.0909090909091" cy="50.14096862734203" r="2" fill="rgb(0,255,0)"/><circle cx="464.14141414141415" cy="50.14096862734203" r="2" fill="rgb(0,255,0)"/><circle cx="469.19191919191917" cy="50.1945716818355" r="2" fill="rgb(0,255,0)"/><circle cx="474.24242424242425" cy="50.144879087291486" r="2" fill="rgb(0,255,0)"/><circle cx="479.2929292929293" cy="50.14096862734203" r="2" fill="rgb(0,255,0)"/><circle cx="484.34343434343435" cy="50.14096862734203" r="2" fill="rgb(0,255,0)"/><circle cx="489.3939393939394" cy="50.14096862734203" r="2" fill="rgb(0,255,0)"/><circle cx="494.4444444444444" cy="50.1945716818355" r="2" fill="rgb(0,255,0)"/><circle cx="499.4949494949495" cy="50.14096862734203" r="2" fill="rgb(0,255,0)"/><circle cx="504.5454545454545" cy="50.057960767261704" r="2" fill="rgb(0,255,0)"/><circle cx="509.59595959595964" cy="50.0" r="2" fill="rgb(0,255,0)"/><circle cx="514.6464646464647" cy="50.00391045994945" r="2" fill="rgb(0,255,0)"/><circle cx="519.6969696969697" cy="50.11743561677696" r="2" fill="rgb(0,255,0)"/><circle cx="524.7474747474748" cy="50.123211874690185" r="2" fill="rgb(0,255,0)"/><circle cx="529.7979797979798" cy="50.14096862734203" r="2" fill="rgb(0,255,0)"/><circle cx="534.8484848484849" cy="50.03801629052731" r="2" fill="rgb(0,255,0)"/><circle cx="539.8989898989898" cy="50.03801629052731" r="2" fill="rgb(0,255,0)"/><circle cx="544.9494949494949" cy="50.09310785651178" r="2" fill="rgb(0,255,0)"/><circle cx="550.0" cy="50.01713771686508" r="2" fill="rgb(0,255,0)"/><text text-anchor="middle" x="350.0" y="20.0" fill="rgb(0,0,0)" font-size="20.0">GA Demo</text><text text-anchor="middle" x="350.0" y="575.0" fill="rgb(0,0,0)" font-size="12.0">generation</text><text text-anchor="middle" x="20.0" y="300.0" transform="rotate(-90.0 20.0 300.0)" fill="rgb(0,0,0)" font-size="12.0">fitness</text><text x="620" y="62" fill="rgb(0,0,255)" font-size="12">min</text><text x="620" y="74" fill="rgb(255,0,0)" font-size="12">ave</text><text x="620" y="86" fill="rgb(0,255,0)" font-size="12">max</text>Sorry, your browser does not support inline SVG.</svg>