<?xml version='1.0' encoding='UTF-8'?>
<svg version="1.1" width="700.0" height="600.0" xmlns="http://www.w3.org/2000/svg"><line x1="50.0" y1="550.0" x2="550.0" y2="550.0" stroke="rgb(0,0,0)" stroke-width="1"/><line x1="50.0" y1="550.0" x2="50.0" y2="50.0" stroke="rgb(0,0,0)" stroke-width="1"/><line x1="50.0" y1="550.0" x2="50.0" y2="50.0" stroke="rgb(192,192,192)" stroke-width="1"/><text text-anchor="middle" alignment-baseline="hanging" x="50.0" y="553.0" fill="rgb(0,0,0)" font-size="12.0">0</text><line x1="50.0" y1="548.0" x2="50.0" y2="552.0" stroke="rgb(192,192,192)" stroke-width="1"/><line x1="100.5050505050505" y1="550.0" x2="100.5050505050505" y2="50.0" stroke="rgb(192,192,192)" stroke-width="1"/><text text-anchor="middle" alignment-baseline="hanging" x="100.5050505050505" y="553.0" fill="rgb(0,0,0)" font-size="12.0">10</text><line x1="100.5050505050505" y1="548.0" x2="100.5050505050505" y2="552.0" stroke="rgb(192,192,192)" stroke-width="1"/><line x1="151.010101010101" y1="550.0" x2="151.010101010101" y2="50.0" stroke="rgb(192,192,192)" stroke-width="1"/><text text-anchor="middle" alignment-baseline="hanging" x="151.010101010101" y="553.0" fill="rgb(0,0,0)" font-size="12.0">20</text><line x1="151.010101010101" y1="548.0" x2="151.010101010101" y2="552.0" stroke="rgb(192,192,192)" stroke-width="1"/><line x1="201.51515151515153" y1="550.0" x2="201.51515151515153" y2="50.0" stroke="rgb(192,192,192)" stroke-width="1"/><text text-anchor="middle" alignment-baseline="hanging" x="201.51515151515153" y="553.0" fill="rgb(0,0,0)" font-size="12.0">30</text><line x1="201.51515151515153" y1="548.0" x2="201.51515151515153" y2="552.0" stroke="rgb(192,192,192)" stroke-width="1"/><line x1="252.02020202020202" y1="550.0" x2="252.02020202020202" y2="50.0" stroke="rgb(192,192,192)" stroke-width="1"/><text text-anchor="middle" alignment-baseline="hanging" x="252.02020202020202" y="553.0" fill="rgb(0,0,0)" font-size="12.0">40</text><line x1="252.02020202020202" y1="548.0" x2="252.02020202020202" y2="552.0" stroke="rgb(192,192,192)" stroke-width="1"/><line x1="302.52525252525254" y1="550.0" x2="302.52525252525254" y2="50.0" stroke="rgb(192,192,192)" stroke-width="1"/><text text-anchor="middle" alignment-baseline="hanging" x="302.52525252525254" y="553.0" fill="rgb(0,0,0)" font-size="12.0">50</text><line x1="302.52525252525254" y1="548.0" x2="302.52525252525254" y2="552.0" stroke="rgb(192,192,192)" stroke-width="1"/><line x1="353.03030303030306" y1="550.0" x2="353.03030303030306" y2="50.0" stroke="rgb(192,192,192)" stroke-width="1"/><text text-anchor="middle" alignment-baseline="hanging" x="353.03030303030306" y="553.0" fill="rgb(0,0,0)" font-size="12.0">60</text><line x1="353.03030303030306" y1="548.0" x2="353.03030303030306" y2="552.0" stroke="rgb(192,192,192)" stroke-width="1"/><line x1="403.5353535353535" y1="550.0" x2="403.5353535353535" y2="50.0" stroke="rgb(192,192,192)" stroke-width="1"/><text text-anchor="middle" alignment-baseline="hanging" x="403.5353535353535" y="553.0" fill="rgb(0,0,0)" font-size="12.0">70</text><line x1="403.5353535353535" y1="548.0" x2="403.5353535353535" y2="552.0" stroke="rgb(192,192,192)" stroke-width="1"/><line x1="454.04040404040404" y1="550.0" x2="454.04040404040404" y2="50.0" stroke="rgb(192,192,192)" stroke-width="1"/><text text-anchor="middle" alignment-baseline="hanging" x="454.04040404040404" y="553.0" fill="rgb(0,0,0)" font-size="12.0">80</text><line x1="454.04040404040404" y1="548.0" x2="454.04040404040404" y2="552.0" stroke="rgb(192,192,192)" stroke-width="1"/><line x1="504.5454545454545" y1="550.0" x2="504.5454545454545" y2="50.0" stroke="rgb(192,192,192)" stroke-width="1"/><text text-anchor="middle" alignment-baseline="hanging" x="504.5454545454545" y="553.0" fill="rgb(0,0,0)" font-size="12.0">90</text><line x1="504.5454545454545" y1="548.0" x2="504.5454545454545" y2="552.0" stroke="rgb(192,192,192)" stroke-width="1"/><line x1="50.0" y1="550.0" x2="550.0" y2="550.0" stroke="rgb(192,192,192)" stroke-width="1"/><text text-anchor="end" alignment-baseline="middle" x="45.0" y="550.0" font-size="12.0">0.0</text><line x1="48.0" y1="550.0" x2="52.0" y2="550.0" stroke="rgb(192,192,192)" stroke-width="1"/><line x1="50.0" y1="367.81163094867975" x2="550.0" y2="367.81163094867975" stroke="rgb(192,192,192)" stroke-width="1"/><text text-anchor="end" alignment-baseline="middle" x="45.0" y="367.81163094867975" font-size="12.0">1000.0</text><line x1="48.0" y1="367.81163094867975" x2="52.0" y2="367.81163094867975" stroke="rgb(192,192,192)" stroke-width="1"/><line x1="50.0" y1="185.6232618973595" x2="550.0" y2="185.6232618973595" stroke="rgb(192,192,192)" stroke-width="1"/><text text-anchor="end" alignment-baseline="middle" x="45.0" y="185.6232618973595" font-size="12.0">2000.0</text><line x1="48.0" y1="185.6232618973595" x2="52.0" y2="185.6232618973595" stroke="rgb(192,192,192)" stroke-width="1"/><polyline points="50.0,432.9738552976187 55.05050505050505,432.80373840700366 60.101010101010104,416.3090379573471 65.15151515151516,426.4015822062531 70.20202020202021,408.4775619236859 75.25252525252526,407.88948514780384 80.30303030303031,407.70225264287444 85.35353535353535,425.0565892254629 90.40404040404042,391.2192509159679 95.45454545454545,390.4046552248474 100.5050505050505,390.67059505352836 105.55555555555554,297.21817941575955 110.60606060606061,382.15853562091854 115.65656565656566,372.30949869459016 120.7070707070707,406.05501164891393 125.75757575757576,218.5359397026723 130.80808080808083,324.92998584420343 135.85858585858585,259.2885871430247 140.9090909090909,393.52751897593214 145.95959595959596,358.0845266593811 151.010101010101,299.5948698558645 156.06060606060606,316.4427716327024 161.1111111111111,192.3710788801717 166.16161616161617,409.4566641755409 171.21212121212122,404.6668321927902 176.26262626262627,406.36232636684633 181.31313131313132,209.93892728906923 186.36363636363635,389.6207040379635 191.4141414141414,378.32361043518983 196.46464646464648,283.6001217147423 201.51515151515153,283.4295742794555 206.56565656565658,215.82060554484264 211.61616161616163,403.006700735 216.66666666666666,392.04663748640723 221.7171717171717,298.63982287173087 226.76767676767676,405.9492984562593 231.8181818181818,328.5139648732003 236.86868686868686,142.84087222114914 241.91919191919192,383.515551373657 246.96969696969697,356.85149482972713 252.02020202020202,356.5581277734425 257.07070707070704,364.72532409425105 262.1212121212121,378.0660652379221 267.1717171717172,377.04335213708805 272.2222222222222,377.04335213708805 277.27272727272725,376.840548591019 282.32323232323233,377.44765736051943 287.3737373737374,377.3373362471875 292.42424242424244,319.63856437030165 297.47474747474746,299.10180314359445 302.52525252525254,336.43213658098716 307.57575757575756,323.95585478615453 312.62626262626264,370.1640511327446 317.67676767676767,322.8962357802099 322.7272727272727,409.27649276051267 327.77777777777777,282.6110519244217 332.8282828282828,318.12825068290556 337.8787878787879,338.50945561483763 342.92929292929296,173.91940671392376 347.979797979798,274.4717500352596 353.03030303030306,177.305819914155 358.0808080808081,177.2495279481202 363.13131313131316,253.16016239826928 368.1818181818182,253.1896155816715 373.23232323232327,326.1157480648229 378.2828282828283,375.4178906123086 383.3333333333333,218.87840182539531 388.3838383838384,264.87173612358566 393.4343434343434,394.2463472329131 398.4848484848485,336.10141379818634 403.5353535353535,386.5529290732667 408.58585858585855,386.20195971316633 413.6363636363636,387.6346977165912 418.68686868686865,371.7961667928455 423.73737373737373,299.7568123468326 428.7878787878788,279.0158602813079 433.83838383838383,327.57930037945437 438.8888888888889,327.70499102030567 443.93939393939394,269.78407153168916 448.989898989899,231.0316146893033 454.04040404040404,231.0431070876212 459.0909090909091,68.73210817132104 464.14141414141415,330.5415799295034 469.19191919191917,315.80138891207883 474.24242424242425,387.66292072903695 479.2929292929293,393.01740610103536 484.34343434343435,402.1980232743482 489.3939393939394,401.1295690348908 494.4444444444444,323.07541754564545 499.4949494949495,249.64063413045488 504.5454545454545,306.7890811310996 509.59595959595964,410.91246401192484 514.6464646464647,263.40635297995374 519.6969696969697,359.7801216372467 524.7474747474748,359.68828559543397 529.7979797979798,277.398275924874 534.8484848484849,332.83207295564443 539.8989898989898,368.1680252362811 544.9494949494949,298.0111030803606 550.0,93.74554776669174" fill="none" stroke="rgb(0,0,255)" stroke-width="1"/><circle cx="50.0" cy="432.9738552976187" r="2" fill="rgb(0,0,255)"/><circle cx="55.05050505050505" cy="432.80373840700366" r="2" fill="rgb(0,0,255)"/><circle cx="60.101010101010104" cy="416.3090379573471" r="2" fill="rgb(0,0,255)"/><circle cx="65.15151515151516" cy="426.4015822062531" r="2" fill="rgb(0,0,255)"/><circle cx="70.20202020202021" cy="408.4775619236859" r="2" fill="rgb(0,0,255)"/><circle cx="75.25252525252526" cy="407.88948514780384" r="2" fill="rgb(0,0,255)"/><circle cx="80.30303030303031" cy="407.70225264287444" r="2" fill="rgb(0,0,255)"/><circle cx="85.35353535353535" cy="425.0565892254629" r="2" fill="rgb(0,0,255)"/><circle cx="90.40404040404042" cy="391.2192509159679" r="2" fill="rgb(0,0,255)"/><circle cx="95.45454545454545" cy="390.4046552248474" r="2" fill="rgb(0,0,255)"/><circle cx="100.5050505050505" cy="390.67059505352836" r="2" fill="rgb(0,0,255)"/><circle cx="105.55555555555554" cy="297.21817941575955" r="2" fill="rgb(0,0,255)"/><circle cx="110.60606060606061" cy="382.15853562091854" r="2" fill="rgb(0,0,255)"/><circle cx="115.65656565656566" cy="372.30949869459016" r="2" fill="rgb(0,0,255)"/><circle cx="120.7070707070707" cy="406.05501164891393" r="2" fill="rgb(0,0,255)"/><circle cx="125.75757575757576" cy="218.5359397026723" r="2" fill="rgb(0,0,255)"/><circle cx="130.80808080808083" cy="324.92998584420343" r="2" fill="rgb(0,0,255)"/><circle cx="135.85858585858585" cy="259.2885871430247" r="2" fill="rgb(0,0,255)"/><circle cx="140.9090909090909" cy="393.52751897593214" r="2" fill="rgb(0,0,255)"/><circle cx="145.95959595959596" cy="358.0845266593811" r="2" fill="rgb(0,0,255)"/><circle cx="151.010101010101" cy="299.5948698558645" r="2" fill="rgb(0,0,255)"/><circle cx="156.06060606060606" cy="316.4427716327024" r="2" fill="rgb(0,0,255)"/><circle cx="161.1111111111111" cy="192.3710788801717" r="2" fill="rgb(0,0,255)"/><circle cx="166.16161616161617" cy="409.4566641755409" r="2" fill="rgb(0,0,255)"/><circle cx="171.21212121212122" cy="404.6668321927902" r="2" fill="rgb(0,0,255)"/><circle cx="176.26262626262627" cy="406.36232636684633" r="2" fill="rgb(0,0,255)"/><circle cx="181.31313131313132" cy="209.93892728906923" r="2" fill="rgb(0,0,255)"/><circle cx="186.36363636363635" cy="389.6207040379635" r="2" fill="rgb(0,0,255)"/><circle cx="191.4141414141414" cy="378.32361043518983" r="2" fill="rgb(0,0,255)"/><circle cx="196.46464646464648" cy="283.6001217147423" r="2" fill="rgb(0,0,255)"/><circle cx="201.51515151515153" cy="283.4295742794555" r="2" fill="rgb(0,0,255)"/><circle cx="206.56565656565658" cy="215.82060554484264" r="2" fill="rgb(0,0,255)"/><circle cx="211.61616161616163" cy="403.006700735" r="2" fill="rgb(0,0,255)"/><circle cx="216.66666666666666" cy="392.04663748640723" r="2" fill="rgb(0,0,255)"/><circle cx="221.7171717171717" cy="298.63982287173087" r="2" fill="rgb(0,0,255)"/><circle cx="226.76767676767676" cy="405.9492984562593" r="2" fill="rgb(0,0,255)"/><circle cx="231.8181818181818" cy="328.5139648732003" r="2" fill="rgb(0,0,255)"/><circle cx="236.86868686868686" cy="142.84087222114914" r="2" fill="rgb(0,0,255)"/><circle cx="241.91919191919192" cy="383.515551373657" r="2" fill="rgb(0,0,255)"/><circle cx="246.96969696969697" cy="356.85149482972713" r="2" fill="rgb(0,0,255)"/><circle cx="252.02020202020202" cy="356.5581277734425" r="2" fill="rgb(0,0,255)"/><circle cx="257.07070707070704" cy="364.72532409425105" r="2" fill="rgb(0,0,255)"/><circle cx="262.1212121212121" cy="378.0660652379221" r="2" fill="rgb(0,0,255)"/><circle cx="267.1717171717172" cy="377.04335213708805" r="2" fill="rgb(0,0,255)"/><circle cx="272.2222222222222" cy="377.04335213708805" r="2" fill="rgb(0,0,255)"/><circle cx="277.27272727272725" cy="376.840548591019" r="2" fill="rgb(0,0,255)"/><circle cx="282.32323232323233" cy="377.44765736051943" r="2" fill="rgb(0,0,255)"/><circle cx="287.3737373737374" cy="377.3373362471875" r="2" fill="rgb(0,0,255)"/><circle cx="292.42424242424244" cy="319.63856437030165" r="2" fill="rgb(0,0,255)"/><circle cx="297.47474747474746" cy="299.10180314359445" r="2" fill="rgb(0,0,255)"/><circle cx="302.52525252525254" cy="336.43213658098716" r="2" fill="rgb(0,0,255)"/><circle cx="307.57575757575756" cy="323.95585478615453" r="2" fill="rgb(0,0,255)"/><circle cx="312.62626262626264" cy="370.1640511327446" r="2" fill="rgb(0,0,255)"/><circle cx="317.67676767676767" cy="322.8962357802099" r="2" fill="rgb(0,0,255)"/><circle cx="322.7272727272727" cy="409.27649276051267" r="2" fill="rgb(0,0,255)"/><circle cx="327.77777777777777" cy="282.6110519244217" r="2" fill="rgb(0,0,255)"/><circle cx="332.8282828282828" cy="318.12825068290556" r="2" fill="rgb(0,0,255)"/><circle cx="337.8787878787879" cy="338.50945561483763" r="2" fill="rgb(0,0,255)"/><circle cx="342.92929292929296" cy="173.91940671392376" r="2" fill="rgb(0,0,255)"/><circle cx="347.979797979798" cy="274.4717500352596" r="2" fill="rgb(0,0,255)"/><circle cx="353.03030303030306" cy="177.305819914155" r="2" fill="rgb(0,0,255)"/><circle cx="358.0808080808081" cy="177.2495279481202" r="2" fill="rgb(0,0,255)"/><circle cx="363.13131313131316" cy="253.16016239826928" r="2" fill="rgb(0,0,255)"/><circle cx="368.1818181818182" cy="253.1896155816715" r="2" fill="rgb(0,0,255)"/><circle cx="373.23232323232327" cy="326.1157480648229" r="2" fill="rgb(0,0,255)"/><circle cx="378.2828282828283" cy="375.4178906123086" r="2" fill="rgb(0,0,255)"/><circle cx="383.3333333333333" cy="218.87840182539531" r="2" fill="rgb(0,0,255)"/><circle cx="388.3838383838384" cy="264.87173612358566" r="2" fill="rgb(0,0,255)"/><circle cx="393.4343434343434" cy="394.2463472329131" r="2" fill="rgb(0,0,255)"/><circle cx="398.4848484848485" cy="336.10141379818634" r="2" fill="rgb(0,0,255)"/><circle cx="403.5353535353535" cy="386.5529290732667" r="2" fill="rgb(0,0,255)"/><circle cx="408.58585858585855" cy="386.20195971316633" r="2" fill="rgb(0,0,255)"/><circle cx="413.6363636363636" cy="387.6346977165912" r="2" fill="rgb(0,0,255)"/><circle cx="418.68686868686865" cy="371.7961667928455" r="2" fill="rgb(0,0,255)"/><circle cx="423.73737373737373" cy="299.7568123468326" r="2" fill="rgb(0,0,255)"/><circle cx="428.7878787878788" cy="279.0158602813079" r="2" fill="rgb(0,0,255)"/><circle cx="433.83838383838383" cy="327.57930037945437" r="2" fill="rgb(0,0,255)"/><circle cx="438.8888888888889" cy="327.70499102030567" r="2" fill="rgb(0,0,255)"/><circle cx="443.93939393939394" cy="269.78407153168916" r="2" fill="rgb(0,0,255)"/><circle cx="448.989898989899" cy="231.0316146893033" r="2" fill="rgb(0,0,255)"/><circle cx="454.04040404040404" cy="231.0431070876212" r="2" fill="rgb(0,0,255)"/><circle cx="459.0909090909091" cy="68.73210817132104" r="2" fill="rgb(0,0,255)"/><circle cx="464.14141414141415" cy="330.5415799295034" r="2" fill="rgb(0,0,255)"/><circle cx="469.19191919191917" cy="315.80138891207883" r="2" fill="rgb(0,0,255)"/><circle cx="474.24242424242425" cy="387.66292072903695" r="2" fill="rgb(0,0,255)"/><circle cx="479.2929292929293" cy="393.01740610103536" r="2" fill="rgb(0,0,255)"/><circle cx="484.34343434343435" cy="402.1980232743482" r="2" fill="rgb(0,0,255)"/><circle cx="489.3939393939394" cy="401.1295690348908" r="2" fill="rgb(0,0,255)"/><circle cx="494.4444444444444" cy="323.07541754564545" r="2" fill="rgb(0,0,255)"/><circle cx="499.4949494949495" cy="249.64063413045488" r="2" fill="rgb(0,0,255)"/><circle cx="504.5454545454545" cy="306.7890811310996" r="2" fill="rgb(0,0,255)"/><circle cx="509.59595959595964" cy="410.91246401192484" r="2" fill="rgb(0,0,255)"/><circle cx="514.6464646464647" cy="263.40635297995374" r="2" fill="rgb(0,0,255)"/><circle cx="519.6969696969697" cy="359.7801216372467" r="2" fill="rgb(0,0,255)"/><circle cx="524.7474747474748" cy="359.68828559543397" r="2" fill="rgb(0,0,255)"/><circle cx="529.7979797979798" cy="277.398275924874" r="2" fill="rgb(0,0,255)"/><circle cx="534.8484848484849" cy="332.83207295564443" r="2" fill="rgb(0,0,255)"/><circle cx="539.8989898989898" cy="368.1680252362811" r="2" fill="rgb(0,0,255)"/><circle cx="544.9494949494949" cy="298.0111030803606" r="2" fill="rgb(0,0,255)"/><circle cx="550.0" cy="93.74554776669174" r="2" fill="rgb(0,0,255)"/><polyline points="50.0,208.35734687832854 55.05050505050505,192.05455696869717 60.101010101010104,169.63386206883274 65.15151515151516,148.40809471884825 70.20202020202021,140.2553936232029 75.25252525252526,127.98137153818874 80.30303030303031,108.11996731242766 85.35353535353535,100.52483094251255 90.40404040404042,88.41578133626854 95.45454545454545,77.46038204112222 100.5050505050505,75.12006576843316 105.55555555555554,70.97195479303491 110.60606060606061,68.33652932969221 115.65656565656566,65.89437170129554 120.7070707070707,63.122248260621404 125.75757575757576,58.518705705031664 130.80808080808083,64.75617448798505 135.85858585858585,58.702315379962045 140.9090909090909,68.1296738574137 145.95959595959596,65.03240219555107 151.010101010101,59.88714241036121 156.06060606060606,62.78621688121166 161.1111111111111,54.44611939866661 166.16161616161617,60.282411269090005 171.21212121212122,57.58217911602242 176.26262626262627,63.96127195901306 181.31313131313132,56.46947591905388 186.36363636363635,60.156533014142724 191.4141414141414,65.17555968189072 196.46464646464648,58.675135995230846 201.51515151515153,60.91291240331219 206.56565656565658,55.24703687618552 211.61616161616163,64.32366771678863 216.66666666666666,62.68475617243644 221.7171717171717,59.226540374217336 226.76767676767676,58.78810791391953 231.8181818181818,57.97564813463282 236.86868686868686,53.0700303189729 241.91919191919192,60.51794547724643 246.96969696969697,63.01248544545422 252.02020202020202,64.70997898577065 257.07070707070704,63.97062120136604 262.1212121212121,65.3101448076614 267.1717171717172,63.36829051464139 272.2222222222222,63.025740784756806 277.27272727272725,64.54596601829911 282.32323232323233,67.13061890693285 287.3737373737374,68.25447311377326 292.42424242424244,59.72146795304076 297.47474747474746,59.53544094703568 302.52525252525254,63.887673385021344 307.57575757575756,58.48066051610613 312.62626262626264,61.260299751343666 317.67676767676767,55.80387546114213 322.7272727272727,61.58193097005716 327.77777777777777,57.62625243416164 332.8282828282828,55.23917710150192 337.8787878787879,59.984403724439005 342.92929292929296,54.49598362766619 347.979797979798,52.89895157415992 353.03030303030306,52.40271043759304 358.0808080808081,53.73260685453812 363.13131313131316,53.702408215402215 368.1818181818182,53.94491696650675 373.23232323232327,58.81607906331794 378.2828282828283,62.116836543496845 383.3333333333333,59.74586434353529 388.3838383838384,64.73992856351737 393.4343434343434,63.32414339915027 398.4848484848485,56.901490892651225 403.5353535353535,65.14472291945748 408.58585858585855,61.87385932211902 413.6363636363636,61.50049410271396 418.68686868686865,58.915943101662435 423.73737373737373,54.87455523624533 428.7878787878788,57.49939420748876 433.83838383838383,60.380021111478925 438.8888888888889,59.733748023070916 443.93939393939394,55.174123807858564 448.989898989899,54.238494290502786 454.04040404040404,57.24304392686571 459.0909090909091,51.11055827029588 464.14141414141415,55.251851497964594 469.19191919191917,56.10989439034796 474.24242424242425,64.20052708998014 479.2929292929293,74.60014488649517 484.34343434343435,75.47991901944494 489.3939393939394,69.50103483506518 494.4444444444444,62.13886747068523 499.4949494949495,59.368837522411354 504.5454545454545,67.46660957294802 509.59595959595964,62.51171373016183 514.6464646464647,54.46810520312209 519.6969696969697,57.591991250766455 524.7474747474748,63.61821421574382 529.7979797979798,60.56151784167815 534.8484848484849,65.77835977436331 539.8989898989898,63.325610492521434 544.9494949494949,59.855123895716986 550.0,52.155263008444194" fill="none" stroke="rgb(255,0,0)" stroke-width="1"/><circle cx="50.0" cy="208.35734687832854" r="2" fill="rgb(255,0,0)"/><circle cx="55.05050505050505" cy="192.05455696869717" r="2" fill="rgb(255,0,0)"/><circle cx="60.101010101010104" cy="169.63386206883274" r="2" fill="rgb(255,0,0)"/><circle cx="65.15151515151516" cy="148.40809471884825" r="2" fill="rgb(255,0,0)"/><circle cx="70.20202020202021" cy="140.2553936232029" r="2" fill="rgb(255,0,0)"/><circle cx="75.25252525252526" cy="127.98137153818874" r="2" fill="rgb(255,0,0)"/><circle cx="80.30303030303031" cy="108.11996731242766" r="2" fill="rgb(255,0,0)"/><circle cx="85.35353535353535" cy="100.52483094251255" r="2" fill="rgb(255,0,0)"/><circle cx="90.40404040404042" cy="88.41578133626854" r="2" fill="rgb(255,0,0)"/><circle cx="95.45454545454545" cy="77.46038204112222" r="2" fill="rgb(255,0,0)"/><circle cx="100.5050505050505" cy="75.12006576843316" r="2" fill="rgb(255,0,0)"/><circle cx="105.55555555555554" cy="70.97195479303491" r="2" fill="rgb(255,0,0)"/><circle cx="110.60606060606061" cy="68.33652932969221" r="2" fill="rgb(255,0,0)"/><circle cx="115.65656565656566" cy="65.89437170129554" r="2" fill="rgb(255,0,0)"/><circle cx="120.7070707070707" cy="63.122248260621404" r="2" fill="rgb(255,0,0)"/><circle cx="125.75757575757576" cy="58.518705705031664" r="2" fill="rgb(255,0,0)"/><circle cx="130.80808080808083" cy="64.75617448798505" r="2" fill="rgb(255,0,0)"/><circle cx="135.85858585858585" cy="58.702315379962045" r="2" fill="rgb(255,0,0)"/><circle cx="140.9090909090909" cy="68.1296738574137" r="2" fill="rgb(255,0,0)"/><circle cx="145.95959595959596" cy="65.03240219555107" r="2" fill="rgb(255,0,0)"/><circle cx="151.010101010101" cy="59.88714241036121" r="2" fill="rgb(255,0,0)"/><circle cx="156.06060606060606" cy="62.78621688121166" r="2" fill="rgb(255,0,0)"/><circle cx="161.1111111111111" cy="54.44611939866661" r="2" fill="rgb(255,0,0)"/><circle cx="166.16161616161617" cy="60.282411269090005" r="2" fill="rgb(255,0,0)"/><circle cx="171.21212121212122" cy="57.58217911602242" r="2" fill="rgb(255,0,0)"/><circle cx="176.26262626262627" cy="63.96127195901306" r="2" fill="rgb(255,0,0)"/><circle cx="181.31313131313132" cy="56.46947591905388" r="2" fill="rgb(255,0,0)"/><circle cx="186.36363636363635" cy="60.156533014142724" r="2" fill="rgb(255,0,0)"/><circle cx="191.4141414141414" cy="65.17555968189072" r="2" fill="rgb(255,0,0)"/><circle cx="196.46464646464648" cy="58.675135995230846" r="2" fill="rgb(255,0,0)"/><circle cx="201.51515151515153" cy="60.91291240331219" r="2" fill="rgb(255,0,0)"/><circle cx="206.56565656565658" cy="55.24703687618552" r="2" fill="rgb(255,0,0)"/><circle cx="211.61616161616163" cy="64.32366771678863" r="2" fill="rgb(255,0,0)"/><circle cx="216.66666666666666" cy="62.68475617243644" r="2" fill="rgb(255,0,0)"/><circle cx="221.7171717171717" cy="59.226540374217336" r="2" fill="rgb(255,0,0)"/><circle cx="226.76767676767676" cy="58.78810791391953" r="2" fill="rgb(255,0,0)"/><circle cx="231.8181818181818" cy="57.97564813463282" r="2" fill="rgb(255,0,0)"/><circle cx="236.86868686868686" cy="53.0700303189729" r="2" fill="rgb(255,0,0)"/><circle cx="241.91919191919192" cy="60.51794547724643" r="2" fill="rgb(255,0,0)"/><circle cx="246.96969696969697" cy="63.01248544545422" r="2" fill="rgb(255,0,0)"/><circle cx="252.02020202020202" cy="64.70997898577065" r="2" fill="rgb(255,0,0)"/><circle cx="257.07070707070704" cy="63.97062120136604" r="2" fill="rgb(255,0,0)"/><circle cx="262.1212121212121" cy="65.3101448076614" r="2" fill="rgb(255,0,0)"/><circle cx="267.1717171717172" cy="63.36829051464139" r="2" fill="rgb(255,0,0)"/><circle cx="272.2222222222222" cy="63.025740784756806" r="2" fill="rgb(255,0,0)"/><circle cx="277.27272727272725" cy="64.54596601829911" r="2" fill="rgb(255,0,0)"/><circle cx="282.32323232323233" cy="67.13061890693285" r="2" fill="rgb(255,0,0)"/><circle cx="287.3737373737374" cy="68.25447311377326" r="2" fill="rgb(255,0,0)"/><circle cx="292.42424242424244" cy="59.72146795304076" r="2" fill="rgb(255,0,0)"/><circle cx="297.47474747474746" cy="59.53544094703568" r="2" fill="rgb(255,0,0)"/><circle cx="302.52525252525254" cy="63.887673385021344" r="2" fill="rgb(255,0,0)"/><circle cx="307.57575757575756" cy="58.48066051610613" r="2" fill="rgb(255,0,0)"/><circle cx="312.62626262626264" cy="61.260299751343666" r="2" fill="rgb(255,0,0)"/><circle cx="317.67676767676767" cy="55.80387546114213" r="2" fill="rgb(255,0,0)"/><circle cx="322.7272727272727" cy="61.58193097005716" r="2" fill="rgb(255,0,0)"/><circle cx="327.77777777777777" cy="57.62625243416164" r="2" fill="rgb(255,0,0)"/><circle cx="332.8282828282828" cy="55.23917710150192" r="2" fill="rgb(255,0,0)"/><circle cx="337.8787878787879" cy="59.984403724439005" r="2" fill="rgb(255,0,0)"/><circle cx="342.92929292929296" cy="54.49598362766619" r="2" fill="rgb(255,0,0)"/><circle cx="347.979797979798" cy="52.89895157415992" r="2" fill="rgb(255,0,0)"/><circle cx="353.03030303030306" cy="52.40271043759304" r="2" fill="rgb(255,0,0)"/><circle cx="358.0808080808081" cy="53.73260685453812" r="2" fill="rgb(255,0,0)"/><circle cx="363.13131313131316" cy="53.702408215402215" r="2" fill="rgb(255,0,0)"/><circle cx="368.1818181818182" cy="53.94491696650675" r="2" fill="rgb(255,0,0)"/><circle cx="373.23232323232327" cy="58.81607906331794" r="2" fill="rgb(255,0,0)"/><circle cx="378.2828282828283" cy="62.116836543496845" r="2" fill="rgb(255,0,0)"/><circle cx="383.3333333333333" cy="59.74586434353529" r="2" fill="rgb(255,0,0)"/><circle cx="388.3838383838384" cy="64.73992856351737" r="2" fill="rgb(255,0,0)"/><circle cx="393.4343434343434" cy="63.32414339915027" r="2" fill="rgb(255,0,0)"/><circle cx="398.4848484848485" cy="56.901490892651225" r="2" fill="rgb(255,0,0)"/><circle cx="403.5353535353535" cy="65.14472291945748" r="2" fill="rgb(255,0,0)"/><circle cx="408.58585858585855" cy="61.87385932211902" r="2" fill="rgb(255,0,0)"/><circle cx="413.6363636363636" cy="61.50049410271396" r="2" fill="rgb(255,0,0)"/><circle cx="418.68686868686865" cy="58.915943101662435" r="2" fill="rgb(255,0,0)"/><circle cx="423.73737373737373" cy="54.87455523624533" r="2" fill="rgb(255,0,0)"/><circle cx="428.7878787878788" cy="57.49939420748876" r="2" fill="rgb(255,0,0)"/><circle cx="433.83838383838383" cy="60.380021111478925" r="2" fill="rgb(255,0,0)"/><circle cx="438.8888888888889" cy="59.733748023070916" r="2" fill="rgb(255,0,0)"/><circle cx="443.93939393939394" cy="55.174123807858564" r="2" fill="rgb(255,0,0)"/><circle cx="448.989898989899" cy="54.238494290502786" r="2" fill="rgb(255,0,0)"/><circle cx="454.04040404040404" cy="57.24304392686571" r="2" fill="rgb(255,0,0)"/><circle cx="459.0909090909091" cy="51.11055827029588" r="2" fill="rgb(255,0,0)"/><circle cx="464.14141414141415" cy="55.251851497964594" r="2" fill="rgb(255,0,0)"/><circle cx="469.19191919191917" cy="56.10989439034796" r="2" fill="rgb(255,0,0)"/><circle cx="474.24242424242425" cy="64.20052708998014" r="2" fill="rgb(255,0,0)"/><circle cx="479.2929292929293" cy="74.60014488649517" r="2" fill="rgb(255,0,0)"/><circle cx="484.34343434343435" cy="75.47991901944494" r="2" fill="rgb(255,0,0)"/><circle cx="489.3939393939394" cy="69.50103483506518" r="2" fill="rgb(255,0,0)"/><circle cx="494.4444444444444" cy="62.13886747068523" r="2" fill="rgb(255,0,0)"/><circle cx="499.4949494949495" cy="59.368837522411354" r="2" fill="rgb(255,0,0)"/><circle cx="504.5454545454545" cy="67.46660957294802" r="2" fill="rgb(255,0,0)"/><circle cx="509.59595959595964" cy="62.51171373016183" r="2" fill="rgb(255,0,0)"/><circle cx="514.6464646464647" cy="54.46810520312209" r="2" fill="rgb(255,0,0)"/><circle cx="519.6969696969697" cy="57.591991250766455" r="2" fill="rgb(255,0,0)"/><circle cx="524.7474747474748" cy="63.61821421574382" r="2" fill="rgb(255,0,0)"/><circle cx="529.7979797979798" cy="60.56151784167815" r="2" fill="rgb(255,0,0)"/><circle cx="534.8484848484849" cy="65.77835977436331" r="2" fill="rgb(255,0,0)"/><circle cx="539.8989898989898" cy="63.325610492521434" r="2" fill="rgb(255,0,0)"/><circle cx="544.9494949494949" cy="59.855123895716986" r="2" fill="rgb(255,0,0)"/><circle cx="550.0" cy="52.155263008444194" r="2" fill="rgb(255,0,0)"/><polyline points="50.0,56.091431813050065 55.05050505050505,54.0350058498488 60.101010101010104,54.738441127512715 65.15151515151516,52.75558392794255 70.20202020202021,53.252145625781736 75.25252525252526,53.252145625781736 80.30303030303031,51.84341437298093 85.35353535353535,52.523896793825145 90.40404040404042,52.59259753665077 95.45454545454545,52.127263222836405 100.5050505050505,51.58311396869453 105.55555555555554,52.07726243927908 110.60606060606061,51.5619381445419 115.65656565656566,51.902955426105564 120.7070707070707,50.6592644700371 125.75757575757576,51.24147435271766 130.80808080808083,51.21733999836033 135.85858585858585,50.85006442840006 140.9090909090909,50.65559750833779 145.95959595959596,50.65559750833779 151.010101010101,50.449395208052636 156.06060606060606,50.45945924315896 161.1111111111111,50.29495613488018 166.16161616161617,50.56097306765059 171.21212121212122,50.58512884744681 176.26262626262627,50.42740270100637 181.31313131313132,50.58562869539281 186.36363636363635,50.47093043764795 191.4141414141414,50.274792172469176 196.46464646464648,50.455647356667896 201.51515151515153,50.51868365244536 206.56565656565658,50.31133633855285 211.61616161616163,50.304543715559646 216.66666666666666,50.274792172469176 221.7171717171717,50.210332158849724 226.76767676767676,50.201621647018726 231.8181818181818,50.203241176168206 236.86868686868686,50.203241176168206 241.91919191919192,50.203241176168206 246.96969696969697,50.203241176168206 252.02020202020202,50.210332158849724 257.07070707070704,50.203241176168206 262.1212121212121,50.198140469623695 267.1717171717172,50.274792172469176 272.2222222222222,50.267713797034276 277.27272727272725,50.26310512596399 282.32323232323233,50.187090144843296 287.3737373737374,50.17848897630722 292.42424242424244,50.17848897630722 297.47474747474746,50.220778391512454 302.52525252525254,50.220778391512454 307.57575757575756,50.248931371177946 312.62626262626264,50.21946904759335 317.67676767676767,50.190047113337926 322.7272727272727,50.190047113337926 327.77777777777777,50.190047113337926 332.8282828282828,50.190047113337926 337.8787878787879,50.14579611583713 342.92929292929296,50.1150664274889 347.979797979798,50.1150664274889 353.03030303030306,50.178554715020084 358.0808080808081,50.125558735501045 363.13131313131316,50.14579611583713 368.1818181818182,50.125558735501045 373.23232323232327,50.148805029427024 378.2828282828283,50.1150664274889 383.3333333333333,50.125558735501045 388.3838383838384,50.108193079032674 393.4343434343434,50.12655882580674 398.4848484848485,50.1150664274889 403.5353535353535,50.11078824071734 408.58585858585855,50.1150664274889 413.6363636363636,50.097460786601005 418.68686868686865,50.085316741895895 423.73737373737373,50.085316741895895 428.7878787878788,50.08382786873295 433.83838383838383,50.070213361347214 438.8888888888889,50.08070566935936 443.93939393939394,50.070213361347214 448.989898989899,50.074357909457945 454.04040404040404,50.074357909457945 459.0909090909091,50.08070566935936 464.14141414141415,50.070213361347214 469.19191919191917,50.070213361347214 474.24242424242425,50.08485021747009 479.2929292929293,50.08070566935936 484.34343434343435,50.070213361347214 489.3939393939394,50.070213361347214 494.4444444444444,50.04804064892846 499.4949494949495,50.070213361347214 504.5454545454545,50.066814545716 509.59595959595964,50.070213361347214 514.6464646464647,50.070213361347214 519.6969696969697,50.070213361347214 524.7474747474748,50.066814545716 529.7979797979798,50.070213361347214 534.8484848484849,50.070213361347214 539.8989898989898,50.02300312156842 544.9494949494949,50.02300312156842 550.0,50.0" fill="none" stroke="rgb(0,255,0)" stroke-width="1"/><circle cx="50.0" cy="56.091431813050065" r="2" fill="rgb(0,255,0)"/><circle cx="55.05050505050505" cy="54.0350058498488" r="2" fill="rgb(0,255,0)"/><circle cx="60.101010101010104" cy="54.738441127512715" r="2" fill="rgb(0,255,0)"/><circle cx="65.15151515151516" cy="52.75558392794255" r="2" fill="rgb(0,255,0)"/><circle cx="70.20202020202021" cy="53.252145625781736" r="2" fill="rgb(0,255,0)"/><circle cx="75.25252525252526" cy="53.252145625781736" r="2" fill="rgb(0,255,0)"/><circle cx="80.30303030303031" cy="51.84341437298093" r="2" fill="rgb(0,255,0)"/><circle cx="85.35353535353535" cy="52.523896793825145" r="2" fill="rgb(0,255,0)"/><circle cx="90.40404040404042" cy="52.59259753665077" r="2" fill="rgb(0,255,0)"/><circle cx="95.45454545454545" cy="52.127263222836405" r="2" fill="rgb(0,255,0)"/><circle cx="100.5050505050505" cy="51.58311396869453" r="2" fill="rgb(0,255,0)"/><circle cx="105.55555555555554" cy="52.07726243927908" r="2" fill="rgb(0,255,0)"/><circle cx="110.60606060606061" cy="51.5619381445419" r="2" fill="rgb(0,255,0)"/><circle cx="115.65656565656566" cy="51.902955426105564" r="2" fill="rgb(0,255,0)"/><circle cx="120.7070707070707" cy="50.6592644700371" r="2" fill="rgb(0,255,0)"/><circle cx="125.75757575757576" cy="51.24147435271766" r="2" fill="rgb(0,255,0)"/><circle cx="130.80808080808083" cy="51.21733999836033" r="2" fill="rgb(0,255,0)"/><circle cx="135.85858585858585" cy="50.85006442840006" r="2" fill="rgb(0,255,0)"/><circle cx="140.9090909090909" cy="50.65559750833779" r="2" fill="rgb(0,255,0)"/><circle cx="145.95959595959596" cy="50.65559750833779" r="2" fill="rgb(0,255,0)"/><circle cx="151.010101010101" cy="50.449395208052636" r="2" fill="rgb(0,255,0)"/><circle cx="156.06060606060606" cy="50.45945924315896" r="2" fill="rgb(0,255,0)"/><circle cx="161.1111111111111" cy="50.29495613488018" r="2" fill="rgb(0,255,0)"/><circle cx="166.16161616161617" cy="50.56097306765059" r="2" fill="rgb(0,255,0)"/><circle cx="171.21212121212122" cy="50.58512884744681" r="2" fill="rgb(0,255,0)"/><circle cx="176.26262626262627" cy="50.42740270100637" r="2" fill="rgb(0,255,0)"/><circle cx="181.31313131313132" cy="50.58562869539281" r="2" fill="rgb(0,255,0)"/><circle cx="186.36363636363635" cy="50.47093043764795" r="2" fill="rgb(0,255,0)"/><circle cx="191.4141414141414" cy="50.274792172469176" r="2" fill="rgb(0,255,0)"/><circle cx="196.46464646464648" cy="50.455647356667896" r="2" fill="rgb(0,255,0)"/><circle cx="201.51515151515153" cy="50.51868365244536" r="2" fill="rgb(0,255,0)"/><circle cx="206.56565656565658" cy="50.31133633855285" r="2" fill="rgb(0,255,0)"/><circle cx="211.61616161616163" cy="50.304543715559646" r="2" fill="rgb(0,255,0)"/><circle cx="216.66666666666666" cy="50.274792172469176" r="2" fill="rgb(0,255,0)"/><circle cx="221.7171717171717" cy="50.210332158849724" r="2" fill="rgb(0,255,0)"/><circle cx="226.76767676767676" cy="50.201621647018726" r="2" fill="rgb(0,255,0)"/><circle cx="231.8181818181818" cy="50.203241176168206" r="2" fill="rgb(0,255,0)"/><circle cx="236.86868686868686" cy="50.203241176168206" r="2" fill="rgb(0,255,0)"/><circle cx="241.91919191919192" cy="50.203241176168206" r="2" fill="rgb(0,255,0)"/><circle cx="246.96969696969697" cy="50.203241176168206" r="2" fill="rgb(0,255,0)"/><circle cx="252.02020202020202" cy="50.210332158849724" r="2" fill="rgb(0,255,0)"/><circle cx="257.07070707070704" cy="50.203241176168206" r="2" fill="rgb(0,255,0)"/><circle cx="262.1212121212121" cy="50.198140469623695" r="2" fill="rgb(0,255,0)"/><circle cx="267.1717171717172" cy="50.274792172469176" r="2" fill="rgb(0,255,0)"/><circle cx="272.2222222222222" cy="50.267713797034276" r="2" fill="rgb(0,255,0)"/><circle cx="277.27272727272725" cy="50.26310512596399" r="2" fill="rgb(0,255,0)"/><circle cx="282.32323232323233" cy="50.187090144843296" r="2" fill="rgb(0,255,0)"/><circle cx="287.3737373737374" cy="50.17848897630722" r="2" fill="rgb(0,255,0)"/><circle cx="292.42424242424244" cy="50.17848897630722" r="2" fill="rgb(0,255,0)"/><circle cx="297.47474747474746" cy="50.220778391512454" r="2" fill="rgb(0,255,0)"/><circle cx="302.52525252525254" cy="50.220778391512454" r="2" fill="rgb(0,255,0)"/><circle cx="307.57575757575756" cy="50.248931371177946" r="2" fill="rgb(0,255,0)"/><circle cx="312.62626262626264" cy="50.21946904759335" r="2" fill="rgb(0,255,0)"/><circle cx="317.67676767676767" cy="50.190047113337926" r="2" fill="rgb(0,255,0)"/><circle cx="322.7272727272727" cy="50.190047113337926" r="2" fill="rgb(0,255,0)"/><circle cx="327.77777777777777" cy="50.190047113337926" r="2" fill="rgb(0,255,0)"/><circle cx="332.8282828282828" cy="50.190047113337926" r="2" fill="rgb(0,255,0)"/><circle cx="337.8787878787879" cy="50.14579611583713" r="2" fill="rgb(0,255,0)"/><circle cx="342.92929292929296" cy="50.1150664274889" r="2" fill="rgb(0,255,0)"/><circle cx="347.979797979798" cy="50.1150664274889" r="2" fill="rgb(0,255,0)"/><circle cx="353.03030303030306" cy="50.178554715020084" r="2" fill="rgb(0,255,0)"/><circle cx="358.0808080808081" cy="50.125558735501045" r="2" fill="rgb(0,255,0)"/><circle cx="363.13131313131316" cy="50.14579611583713" r="2" fill="rgb(0,255,0)"/><circle cx="368.1818181818182" cy="50.125558735501045" r="2" fill="rgb(0,255,0)"/><circle cx="373.23232323232327" cy="50.148805029427024" r="2" fill="rgb(0,255,0)"/><circle cx="378.2828282828283" cy="50.1150664274889" r="2" fill="rgb(0,255,0)"/><circle cx="383.3333333333333" cy="50.125558735501045" r="2" fill="rgb(0,255,0)"/><circle cx="388.3838383838384" cy="50.108193079032674" r="2" fill="rgb(0,255,0)"/><circle cx="393.4343434343434" cy="50.12655882580674" r="2" fill="rgb(0,255,0)"/><circle cx="398.4848484848485" cy="50.1150664274889" r="2" fill="rgb(0,255,0)"/><circle cx="403.5353535353535" cy="50.11078824071734" r="2" fill="rgb(0,255,0)"/><circle cx="408.58585858585855" cy="50.1150664274889" r="2" fill="rgb(0,255,0)"/><circle cx="413.6363636363636" cy="50.097460786601005" r="2" fill="rgb(0,255,0)"/><circle cx="418.68686868686865" cy="50.085316741895895" r="2" fill="rgb(0,255,0)"/><circle cx="423.73737373737373" cy="50.085316741895895" r="2" fill="rgb(0,255,0)"/><circle cx="428.7878787878788" cy="50.08382786873295" r="2" fill="rgb(0,255,0)"/><circle cx="433.83838383838383" cy="50.070213361347214" r="2" fill="rgb(0,255,0)"/><circle cx="438.8888888888889" cy="50.08070566935936" r="2" fill="rgb(0,255,0)"/><circle cx="443.93939393939394" cy="50.070213361347214" r="2" fill="rgb(0,255,0)"/><circle cx="448.989898989899" cy="50.074357909457945" r="2" fill="rgb(0,255,0)"/><circle cx="454.04040404040404" cy="50.074357909457945" r="2" fill="rgb(0,255,0)"/><circle cx="459.0909090909091" cy="50.08070566935936" r="2" fill="rgb(0,255,0)"/><circle cx="464.14141414141415" cy="50.070213361347214" r="2" fill="rgb(0,255,0)"/><circle cx="469.19191919191917" cy="50.070213361347214" r="2" fill="rgb(0,255,0)"/><circle cx="474.24242424242425" cy="50.08485021747009" r="2" fill="rgb(0,255,0)"/><circle cx="479.2929292929293" cy="50.08070566935936" r="2" fill="rgb(0,255,0)"/><circle cx="484.34343434343435" cy="50.070213361347214" r="2" fill="rgb(0,255,0)"/><circle cx="489.3939393939394" cy="50.070213361347214" r="2" fill="rgb(0,255,0)"/><circle cx="494.4444444444444" cy="50.04804064892846" r="2" fill="rgb(0,255,0)"/><circle cx="499.4949494949495" cy="50.070213361347214" r="2" fill="rgb(0,255,0)"/><circle cx="504.5454545454545" cy="50.066814545716" r="2" fill="rgb(0,255,0)"/><circle cx="509.59595959595964" cy="50.070213361347214" r="2" fill="rgb(0,255,0)"/><circle cx="514.6464646464647" cy="50.070213361347214" r="2" fill="rgb(0,255,0)"/><circle cx="519.6969696969697" cy="50.070213361347214" r="2" fill="rgb(0,255,0)"/><circle cx="524.7474747474748" cy="50.066814545716" r="2" fill="rgb(0,255,0)"/><circle cx="529.7979797979798" cy="50.070213361347214" r="2" fill="rgb(0,255,0)"/><circle cx="534.8484848484849" cy="50.070213361347214" r="2" fill="rgb(0,255,0)"/><circle cx="539.8989898989898" cy="50.02300312156842" r="2" fill="rgb(0,255,0)"/><circle cx="544.9494949494949" cy="50.02300312156842" r="2" fill="rgb(0,255,0)"/><circle cx="550.0" cy="50.0" r="2" fill="rgb(0,255,0)"/><text text-anchor="middle" x="350.0" y="20.0" fill="rgb(0,0,0)" font-size="20.0">GA Demo</text><text text-anchor="middle" x="350.0" y="575.0" fill="rgb(0,0,0)" font-size="12.0">generation</text><text text-anchor="middle" x="20.0" y="300.0" transform="rotate(-90.0 20.0 300.0)" fill="rgb(0,0,0)" font-size="12.0">fitness</text><text x="620" y="62" fill="rgb(0,0,255)" font-size="12">min</text><text x="620" y="74" fill="rgb(255,0,0)" font-size="12">ave</text><text x="620" y="86" fill="rgb(0,255,0)" font-size="12">max</text>Sorry, your browser does not support inline SVG.</svg>