<?xml version='1.0' encoding='UTF-8'?>
<svg version="1.1" width="700.0" height="600.0" xmlns="http://www.w3.org/2000/svg"><line x1="50.0" y1="550.0" x2="550.0" y2="550.0" stroke="rgb(0,0,0)" stroke-width="1"/><line x1="50.0" y1="550.0" x2="50.0" y2="50.0" stroke="rgb(0,0,0)" stroke-width="1"/><line x1="50.0" y1="550.0" x2="50.0" y2="50.0" stroke="rgb(192,192,192)" stroke-width="1"/><text text-anchor="middle" alignment-baseline="hanging" x="50.0" y="553.0" fill="rgb(0,0,0)" font-size="12.0">0</text><line x1="50.0" y1="548.0" x2="50.0" y2="552.0" stroke="rgb(192,192,192)" stroke-width="1"/><line x1="100.5050505050505" y1="550.0" x2="100.5050505050505" y2="50.0" stroke="rgb(192,192,192)" stroke-width="1"/><text text-anchor="middle" alignment-baseline="hanging" x="100.5050505050505" y="553.0" fill="rgb(0,0,0)" font-size="12.0">10</text><line x1="100.5050505050505" y1="548.0" x2="100.5050505050505" y2="552.0" stroke="rgb(192,192,192)" stroke-width="1"/><line x1="151.010101010101" y1="550.0" x2="151.010101010101" y2="50.0" stroke="rgb(192,192,192)" stroke-width="1"/><text text-anchor="middle" alignment-baseline="hanging" x="151.010101010101" y="553.0" fill="rgb(0,0,0)" font-size="12.0">20</text><line x1="151.010101010101" y1="548.0" x2="151.010101010101" y2="552.0" stroke="rgb(192,192,192)" stroke-width="1"/><line x1="201.51515151515153" y1="550.0" x2="201.51515151515153" y2="50.0" stroke="rgb(192,192,192)" stroke-width="1"/><text text-anchor="middle" alignment-baseline="hanging" x="201.51515151515153" y="553.0" fill="rgb(0,0,0)" font-size="12.0">30</text><line x1="201.51515151515153" y1="548.0" x2="201.51515151515153" y2="552.0" stroke="rgb(192,192,192)" stroke-width="1"/><line x1="252.02020202020202" y1="550.0" x2="252.02020202020202" y2="50.0" stroke="rgb(192,192,192)" stroke-width="1"/><text text-anchor="middle" alignment-baseline="hanging" x="252.02020202020202" y="553.0" fill="rgb(0,0,0)" font-size="12.0">40</text><line x1="252.02020202020202" y1="548.0" x2="252.02020202020202" y2="552.0" stroke="rgb(192,192,192)" stroke-width="1"/><line x1="302.52525252525254" y1="550.0" x2="302.52525252525254" y2="50.0" stroke="rgb(192,192,192)" stroke-width="1"/><text text-anchor="middle" alignment-baseline="hanging" x="302.52525252525254" y="553.0" fill="rgb(0,0,0)" font-size="12.0">50</text><line x1="302.52525252525254" y1="548.0" x2="302.52525252525254" y2="552.0" stroke="rgb(192,192,192)" stroke-width="1"/><line x1="353.03030303030306" y1="550.0" x2="353.03030303030306" y2="50.0" stroke="rgb(192,192,192)" stroke-width="1"/><text text-anchor="middle" alignment-baseline="hanging" x="353.03030303030306" y="553.0" fill="rgb(0,0,0)" font-size="12.0">60</text><line x1="353.03030303030306" y1="548.0" x2="353.03030303030306" y2="552.0" stroke="rgb(192,192,192)" stroke-width="1"/><line x1="403.5353535353535" y1="550.0" x2="403.5353535353535" y2="50.0" stroke="rgb(192,192,192)" stroke-width="1"/><text text-anchor="middle" alignment-baseline="hanging" x="403.5353535353535" y="553.0" fill="rgb(0,0,0)" font-size="12.0">70</text><line x1="403.5353535353535" y1="548.0" x2="403.5353535353535" y2="552.0" stroke="rgb(192,192,192)" stroke-width="1"/><line x1="454.04040404040404" y1="550.0" x2="454.04040404040404" y2="50.0" stroke="rgb(192,192,192)" stroke-width="1"/><text text-anchor="middle" alignment-baseline="hanging" x="454.04040404040404" y="553.0" fill="rgb(0,0,0)" font-size="12.0">80</text><line x1="454.04040404040404" y1="548.0" x2="454.04040404040404" y2="552.0" stroke="rgb(192,192,192)" stroke-width="1"/><line x1="504.5454545454545" y1="550.0" x2="504.5454545454545" y2="50.0" stroke="rgb(192,192,192)" stroke-width="1"/><text text-anchor="middle" alignment-baseline="hanging" x="504.5454545454545" y="553.0" fill="rgb(0,0,0)" font-size="12.0">90</text><line x1="504.5454545454545" y1="548.0" x2="504.5454545454545" y2="552.0" stroke="rgb(192,192,192)" stroke-width="1"/><line x1="50.0" y1="550.0" x2="550.0" y2="550.0" stroke="rgb(192,192,192)" stroke-width="1"/><text text-anchor="end" alignment-baseline="middle" x="45.0" y="550.0" font-size="12.0">0.0</text><line x1="48.0" y1="550.0" x2="52.0" y2="550.0" stroke="rgb(192,192,192)" stroke-width="1"/><line x1="50.0" y1="368.0213773734558" x2="550.0" y2="368.0213773734558" stroke="rgb(192,192,192)" stroke-width="1"/><text text-anchor="end" alignment-baseline="middle" x="45.0" y="368.0213773734558" font-size="12.0">1000.0</text><line x1="48.0" y1="368.0213773734558" x2="52.0" y2="368.0213773734558" stroke="rgb(192,192,192)" stroke-width="1"/><line x1="50.0" y1="186.04275474691156" x2="550.0" y2="186.04275474691156" stroke="rgb(192,192,192)" stroke-width="1"/><text text-anchor="end" alignment-baseline="middle" x="45.0" y="186.04275474691156" font-size="12.0">2000.0</text><line x1="48.0" y1="186.04275474691156" x2="52.0" y2="186.04275474691156" stroke="rgb(192,192,192)" stroke-width="1"/><polyline points="50.0,433.532564061088 55.05050505050505,407.6110889657966 60.101010101010104,407.1546751581846 65.15151515151516,408.6765046129465 70.20202020202021,408.69869324837555 75.25252525252526,404.9669992279998 80.30303030303031,396.6590029965038 85.35353535353535,395.94730417823143 90.40404040404042,396.7348680533114 95.45454545454545,401.62786938136446 100.5050505050505,186.38687247914697 105.55555555555554,237.13027904601472 110.60606060606061,274.67148977010226 115.65656565656566,367.32438278388616 120.7070707070707,393.8019705670788 125.75757575757576,311.18684143790597 130.80808080808083,241.12549199963405 135.85858585858585,310.0380416250806 140.9090909090909,407.1379329723463 145.95959595959596,393.60232696695186 151.010101010101,391.7903933334293 156.06060606060606,415.2588265123105 161.1111111111111,383.81594494731553 166.16161616161617,412.04906894910437 171.21212121212122,404.6556531083679 176.26262626262627,406.0729395138857 181.31313131313132,353.2331223265305 186.36363636363635,328.95875053724757 191.4141414141414,377.6667117616655 196.46464646464648,404.706531113217 201.51515151515153,408.02560935616054 206.56565656565658,407.34773476268265 211.61616161616163,403.5010511003633 216.66666666666666,402.05303449426333 221.7171717171717,382.1104591500435 226.76767676767676,359.29098840326066 231.8181818181818,414.79015086438125 236.86868686868686,414.85357937472804 241.91919191919192,414.0130093911722 246.96969696969697,388.5818847754662 252.02020202020202,389.6706171824481 257.07070707070704,409.01275085840575 262.1212121212121,371.0725995649419 267.1717171717172,414.235260956018 272.2222222222222,413.7594079676469 277.27272727272725,413.2999197743733 282.32323232323233,413.9420583437494 287.3737373737374,313.9350130090203 292.42424242424244,313.11017111387605 297.47474747474746,253.36450007490384 302.52525252525254,334.79359071816486 307.57575757575756,143.54199581749606 312.62626262626264,337.4307647011318 317.67676767676767,369.8930713125278 322.7272727272727,402.02508594333784 327.77777777777777,377.1712723824514 332.8282828282828,376.69601096995825 337.8787878787879,351.7376598559659 342.92929292929296,350.1316623774147 347.979797979798,301.04082744452387 353.03030303030306,343.24061632589616 358.0808080808081,214.6890995595569 363.13131313131316,376.89214789383016 368.1818181818182,355.52733944177186 373.23232323232327,403.96638979988677 378.2828282828283,375.6676046074506 383.3333333333333,375.45290889140983 388.3838383838384,388.2827923613846 393.4343434343434,357.3412395239956 398.4848484848485,161.00216004383606 403.5353535353535,198.49451023602666 408.58585858585855,406.4282736486309 413.6363636363636,388.2869492769515 418.68686868686865,401.86605252309346 423.73737373737373,403.8676384436418 428.7878787878788,404.0778191619061 433.83838383838383,403.6031832451051 438.8888888888889,322.05805547189357 443.93939393939394,404.3033983782118 448.989898989899,404.7107087657775 454.04040404040404,405.93663061503685 459.0909090909091,354.26374050267725 464.14141414141415,354.3132173114209 469.19191919191917,389.0211194206267 474.24242424242425,415.2724071682833 479.2929292929293,331.6983199685758 484.34343434343435,225.5465631512738 489.3939393939394,354.9389748029825 494.4444444444444,355.147380780453 499.4949494949495,392.9273356150578 504.5454545454545,390.880918914634 509.59595959595964,333.1671805982777 514.6464646464647,421.2200729034429 519.6969696969697,424.1929701982113 524.7474747474748,405.71202473921676 529.7979797979798,409.3013811974301 534.8484848484849,180.20136403338023 539.8989898989898,294.41122663336205 544.9494949494949,406.59703434723497 550.0,395.59531620766296" fill="none" stroke="rgb(0,0,255)" stroke-width="1"/><circle cx="50.0" cy="433.532564061088" r="2" fill="rgb(0,0,255)"/><circle cx="55.05050505050505" cy="407.6110889657966" r="2" fill="rgb(0,0,255)"/><circle cx="60.101010101010104" cy="407.1546751581846" r="2" fill="rgb(0,0,255)"/><circle cx="65.15151515151516" cy="408.6765046129465" r="2" fill="rgb(0,0,255)"/><circle cx="70.20202020202021" cy="408.69869324837555" r="2" fill="rgb(0,0,255)"/><circle cx="75.25252525252526" cy="404.9669992279998" r="2" fill="rgb(0,0,255)"/><circle cx="80.30303030303031" cy="396.6590029965038" r="2" fill="rgb(0,0,255)"/><circle cx="85.35353535353535" cy="395.94730417823143" r="2" fill="rgb(0,0,255)"/><circle cx="90.40404040404042" cy="396.7348680533114" r="2" fill="rgb(0,0,255)"/><circle cx="95.45454545454545" cy="401.62786938136446" r="2" fill="rgb(0,0,255)"/><circle cx="100.5050505050505" cy="186.38687247914697" r="2" fill="rgb(0,0,255)"/><circle cx="105.55555555555554" cy="237.13027904601472" r="2" fill="rgb(0,0,255)"/><circle cx="110.60606060606061" cy="274.67148977010226" r="2" fill="rgb(0,0,255)"/><circle cx="115.65656565656566" cy="367.32438278388616" r="2" fill="rgb(0,0,255)"/><circle cx="120.7070707070707" cy="393.8019705670788" r="2" fill="rgb(0,0,255)"/><circle cx="125.75757575757576" cy="311.18684143790597" r="2" fill="rgb(0,0,255)"/><circle cx="130.80808080808083" cy="241.12549199963405" r="2" fill="rgb(0,0,255)"/><circle cx="135.85858585858585" cy="310.0380416250806" r="2" fill="rgb(0,0,255)"/><circle cx="140.9090909090909" cy="407.1379329723463" r="2" fill="rgb(0,0,255)"/><circle cx="145.95959595959596" cy="393.60232696695186" r="2" fill="rgb(0,0,255)"/><circle cx="151.010101010101" cy="391.7903933334293" r="2" fill="rgb(0,0,255)"/><circle cx="156.06060606060606" cy="415.2588265123105" r="2" fill="rgb(0,0,255)"/><circle cx="161.1111111111111" cy="383.81594494731553" r="2" fill="rgb(0,0,255)"/><circle cx="166.16161616161617" cy="412.04906894910437" r="2" fill="rgb(0,0,255)"/><circle cx="171.21212121212122" cy="404.6556531083679" r="2" fill="rgb(0,0,255)"/><circle cx="176.26262626262627" cy="406.0729395138857" r="2" fill="rgb(0,0,255)"/><circle cx="181.31313131313132" cy="353.2331223265305" r="2" fill="rgb(0,0,255)"/><circle cx="186.36363636363635" cy="328.95875053724757" r="2" fill="rgb(0,0,255)"/><circle cx="191.4141414141414" cy="377.6667117616655" r="2" fill="rgb(0,0,255)"/><circle cx="196.46464646464648" cy="404.706531113217" r="2" fill="rgb(0,0,255)"/><circle cx="201.51515151515153" cy="408.02560935616054" r="2" fill="rgb(0,0,255)"/><circle cx="206.56565656565658" cy="407.34773476268265" r="2" fill="rgb(0,0,255)"/><circle cx="211.61616161616163" cy="403.5010511003633" r="2" fill="rgb(0,0,255)"/><circle cx="216.66666666666666" cy="402.05303449426333" r="2" fill="rgb(0,0,255)"/><circle cx="221.7171717171717" cy="382.1104591500435" r="2" fill="rgb(0,0,255)"/><circle cx="226.76767676767676" cy="359.29098840326066" r="2" fill="rgb(0,0,255)"/><circle cx="231.8181818181818" cy="414.79015086438125" r="2" fill="rgb(0,0,255)"/><circle cx="236.86868686868686" cy="414.85357937472804" r="2" fill="rgb(0,0,255)"/><circle cx="241.91919191919192" cy="414.0130093911722" r="2" fill="rgb(0,0,255)"/><circle cx="246.96969696969697" cy="388.5818847754662" r="2" fill="rgb(0,0,255)"/><circle cx="252.02020202020202" cy="389.6706171824481" r="2" fill="rgb(0,0,255)"/><circle cx="257.07070707070704" cy="409.01275085840575" r="2" fill="rgb(0,0,255)"/><circle cx="262.1212121212121" cy="371.0725995649419" r="2" fill="rgb(0,0,255)"/><circle cx="267.1717171717172" cy="414.235260956018" r="2" fill="rgb(0,0,255)"/><circle cx="272.2222222222222" cy="413.7594079676469" r="2" fill="rgb(0,0,255)"/><circle cx="277.27272727272725" cy="413.2999197743733" r="2" fill="rgb(0,0,255)"/><circle cx="282.32323232323233" cy="413.9420583437494" r="2" fill="rgb(0,0,255)"/><circle cx="287.3737373737374" cy="313.9350130090203" r="2" fill="rgb(0,0,255)"/><circle cx="292.42424242424244" cy="313.11017111387605" r="2" fill="rgb(0,0,255)"/><circle cx="297.47474747474746" cy="253.36450007490384" r="2" fill="rgb(0,0,255)"/><circle cx="302.52525252525254" cy="334.79359071816486" r="2" fill="rgb(0,0,255)"/><circle cx="307.57575757575756" cy="143.54199581749606" r="2" fill="rgb(0,0,255)"/><circle cx="312.62626262626264" cy="337.4307647011318" r="2" fill="rgb(0,0,255)"/><circle cx="317.67676767676767" cy="369.8930713125278" r="2" fill="rgb(0,0,255)"/><circle cx="322.7272727272727" cy="402.02508594333784" r="2" fill="rgb(0,0,255)"/><circle cx="327.77777777777777" cy="377.1712723824514" r="2" fill="rgb(0,0,255)"/><circle cx="332.8282828282828" cy="376.69601096995825" r="2" fill="rgb(0,0,255)"/><circle cx="337.8787878787879" cy="351.7376598559659" r="2" fill="rgb(0,0,255)"/><circle cx="342.92929292929296" cy="350.1316623774147" r="2" fill="rgb(0,0,255)"/><circle cx="347.979797979798" cy="301.04082744452387" r="2" fill="rgb(0,0,255)"/><circle cx="353.03030303030306" cy="343.24061632589616" r="2" fill="rgb(0,0,255)"/><circle cx="358.0808080808081" cy="214.6890995595569" r="2" fill="rgb(0,0,255)"/><circle cx="363.13131313131316" cy="376.89214789383016" r="2" fill="rgb(0,0,255)"/><circle cx="368.1818181818182" cy="355.52733944177186" r="2" fill="rgb(0,0,255)"/><circle cx="373.23232323232327" cy="403.96638979988677" r="2" fill="rgb(0,0,255)"/><circle cx="378.2828282828283" cy="375.6676046074506" r="2" fill="rgb(0,0,255)"/><circle cx="383.3333333333333" cy="375.45290889140983" r="2" fill="rgb(0,0,255)"/><circle cx="388.3838383838384" cy="388.2827923613846" r="2" fill="rgb(0,0,255)"/><circle cx="393.4343434343434" cy="357.3412395239956" r="2" fill="rgb(0,0,255)"/><circle cx="398.4848484848485" cy="161.00216004383606" r="2" fill="rgb(0,0,255)"/><circle cx="403.5353535353535" cy="198.49451023602666" r="2" fill="rgb(0,0,255)"/><circle cx="408.58585858585855" cy="406.4282736486309" r="2" fill="rgb(0,0,255)"/><circle cx="413.6363636363636" cy="388.2869492769515" r="2" fill="rgb(0,0,255)"/><circle cx="418.68686868686865" cy="401.86605252309346" r="2" fill="rgb(0,0,255)"/><circle cx="423.73737373737373" cy="403.8676384436418" r="2" fill="rgb(0,0,255)"/><circle cx="428.7878787878788" cy="404.0778191619061" r="2" fill="rgb(0,0,255)"/><circle cx="433.83838383838383" cy="403.6031832451051" r="2" fill="rgb(0,0,255)"/><circle cx="438.8888888888889" cy="322.05805547189357" r="2" fill="rgb(0,0,255)"/><circle cx="443.93939393939394" cy="404.3033983782118" r="2" fill="rgb(0,0,255)"/><circle cx="448.989898989899" cy="404.7107087657775" r="2" fill="rgb(0,0,255)"/><circle cx="454.04040404040404" cy="405.93663061503685" r="2" fill="rgb(0,0,255)"/><circle cx="459.0909090909091" cy="354.26374050267725" r="2" fill="rgb(0,0,255)"/><circle cx="464.14141414141415" cy="354.3132173114209" r="2" fill="rgb(0,0,255)"/><circle cx="469.19191919191917" cy="389.0211194206267" r="2" fill="rgb(0,0,255)"/><circle cx="474.24242424242425" cy="415.2724071682833" r="2" fill="rgb(0,0,255)"/><circle cx="479.2929292929293" cy="331.6983199685758" r="2" fill="rgb(0,0,255)"/><circle cx="484.34343434343435" cy="225.5465631512738" r="2" fill="rgb(0,0,255)"/><circle cx="489.3939393939394" cy="354.9389748029825" r="2" fill="rgb(0,0,255)"/><circle cx="494.4444444444444" cy="355.147380780453" r="2" fill="rgb(0,0,255)"/><circle cx="499.4949494949495" cy="392.9273356150578" r="2" fill="rgb(0,0,255)"/><circle cx="504.5454545454545" cy="390.880918914634" r="2" fill="rgb(0,0,255)"/><circle cx="509.59595959595964" cy="333.1671805982777" r="2" fill="rgb(0,0,255)"/><circle cx="514.6464646464647" cy="421.2200729034429" r="2" fill="rgb(0,0,255)"/><circle cx="519.6969696969697" cy="424.1929701982113" r="2" fill="rgb(0,0,255)"/><circle cx="524.7474747474748" cy="405.71202473921676" r="2" fill="rgb(0,0,255)"/><circle cx="529.7979797979798" cy="409.3013811974301" r="2" fill="rgb(0,0,255)"/><circle cx="534.8484848484849" cy="180.20136403338023" r="2" fill="rgb(0,0,255)"/><circle cx="539.8989898989898" cy="294.41122663336205" r="2" fill="rgb(0,0,255)"/><circle cx="544.9494949494949" cy="406.59703434723497" r="2" fill="rgb(0,0,255)"/><circle cx="550.0" cy="395.59531620766296" r="2" fill="rgb(0,0,255)"/><polyline points="50.0,223.17984462147393 55.05050505050505,201.8636221357409 60.101010101010104,167.7704794951061 65.15151515151516,151.48708621621137 70.20202020202021,143.47993933420304 75.25252525252526,128.1392721514078 80.30303030303031,122.07552280462204 85.35353535353535,106.1475811540007 90.40404040404042,100.55640794279162 95.45454545454545,96.27636161447947 100.5050505050505,84.04330850287386 105.55555555555554,78.34299767336381 110.60606060606061,76.12384477421409 115.65656565656566,71.63179808890357 120.7070707070707,70.53738498518476 125.75757575757576,74.33752906797713 130.80808080808083,68.70333025969865 135.85858585858585,71.66568279650312 140.9090909090909,74.09756025860298 145.95959595959596,72.08619294261126 151.010101010101,70.3765745758821 156.06060606060606,76.3948042270149 161.1111111111111,74.26364469631363 166.16161616161617,80.11260379608893 171.21212121212122,83.48394686888543 176.26262626262627,83.26251032174929 181.31313131313132,75.99241781742586 186.36363636363635,75.1039934052655 191.4141414141414,74.59288201171069 196.46464646464648,76.62675369540204 201.51515151515153,78.50562130542511 206.56565656565658,75.41209876438415 211.61616161616163,71.70299874325491 216.66666666666666,73.01052762839748 221.7171717171717,69.17021348023866 226.76767676767676,65.81836144604574 231.8181818181818,69.22110484215983 236.86868686868686,71.7424850336119 241.91919191919192,71.8102834154111 246.96969696969697,67.60634802651168 252.02020202020202,70.6752711206774 257.07070707070704,77.2949581096571 262.1212121212121,74.35628522614559 267.1717171717172,72.08889928489617 272.2222222222222,82.69184813254793 277.27272727272725,82.4051886619576 282.32323232323233,74.03122179003884 287.3737373737374,67.96885643068032 292.42424242424244,68.15765575088983 297.47474747474746,63.29500560633045 302.52525252525254,63.76759303716369 307.57575757575756,62.04832224762049 312.62626262626264,70.07922978824445 317.67676767676767,69.67440497233969 322.7272727272727,70.24886209912057 327.77777777777777,67.42990412228602 332.8282828282828,70.05242738467575 337.8787878787879,71.92550907168453 342.92929292929296,71.83099656907973 347.979797979798,67.49543379889946 353.03030303030306,70.67645240567543 358.0808080808081,64.63469359896965 363.13131313131316,70.7394595762002 368.1818181818182,73.22779262778465 373.23232323232327,80.52863945472046 378.2828282828283,73.39199383785729 383.3333333333333,75.54898255318034 388.3838383838384,77.02340179563214 393.4343434343434,71.55104181118219 398.4848484848485,62.236752284414536 403.5353535353535,62.73507402304347 408.58585858585855,68.62389471394312 413.6363636363636,71.64033110322237 418.68686868686865,67.38578558994539 423.73737373737373,72.18208536134381 428.7878787878788,74.00955927820024 433.83838383838383,81.82452932843324 438.8888888888889,65.98700619894561 443.93939393939394,65.55534298485526 448.989898989899,73.1769393732032 454.04040404040404,68.20821827946185 459.0909090909091,65.29170952339416 464.14141414141415,68.11148085784902 469.19191919191917,77.81476416079664 474.24242424242425,74.76170960548632 479.2929292929293,63.12442476295735 484.34343434343435,57.88863996180925 489.3939393939394,60.99034011867178 494.4444444444444,62.781205159707895 499.4949494949495,67.26419476606338 504.5454545454545,73.56655987100959 509.59595959595964,66.97925772901493 514.6464646464647,65.65279892235725 519.6969696969697,67.40536987452163 524.7474747474748,69.31551924627769 529.7979797979798,59.61875598814896 534.8484848484849,54.63939557763797 539.8989898989898,57.9999742365182 544.9494949494949,66.80765507613143 550.0,67.5299007556103" fill="none" stroke="rgb(255,0,0)" stroke-width="1"/><circle cx="50.0" cy="223.17984462147393" r="2" fill="rgb(255,0,0)"/><circle cx="55.05050505050505" cy="201.8636221357409" r="2" fill="rgb(255,0,0)"/><circle cx="60.101010101010104" cy="167.7704794951061" r="2" fill="rgb(255,0,0)"/><circle cx="65.15151515151516" cy="151.48708621621137" r="2" fill="rgb(255,0,0)"/><circle cx="70.20202020202021" cy="143.47993933420304" r="2" fill="rgb(255,0,0)"/><circle cx="75.25252525252526" cy="128.1392721514078" r="2" fill="rgb(255,0,0)"/><circle cx="80.30303030303031" cy="122.07552280462204" r="2" fill="rgb(255,0,0)"/><circle cx="85.35353535353535" cy="106.1475811540007" r="2" fill="rgb(255,0,0)"/><circle cx="90.40404040404042" cy="100.55640794279162" r="2" fill="rgb(255,0,0)"/><circle cx="95.45454545454545" cy="96.27636161447947" r="2" fill="rgb(255,0,0)"/><circle cx="100.5050505050505" cy="84.04330850287386" r="2" fill="rgb(255,0,0)"/><circle cx="105.55555555555554" cy="78.34299767336381" r="2" fill="rgb(255,0,0)"/><circle cx="110.60606060606061" cy="76.12384477421409" r="2" fill="rgb(255,0,0)"/><circle cx="115.65656565656566" cy="71.63179808890357" r="2" fill="rgb(255,0,0)"/><circle cx="120.7070707070707" cy="70.53738498518476" r="2" fill="rgb(255,0,0)"/><circle cx="125.75757575757576" cy="74.33752906797713" r="2" fill="rgb(255,0,0)"/><circle cx="130.80808080808083" cy="68.70333025969865" r="2" fill="rgb(255,0,0)"/><circle cx="135.85858585858585" cy="71.66568279650312" r="2" fill="rgb(255,0,0)"/><circle cx="140.9090909090909" cy="74.09756025860298" r="2" fill="rgb(255,0,0)"/><circle cx="145.95959595959596" cy="72.08619294261126" r="2" fill="rgb(255,0,0)"/><circle cx="151.010101010101" cy="70.3765745758821" r="2" fill="rgb(255,0,0)"/><circle cx="156.06060606060606" cy="76.3948042270149" r="2" fill="rgb(255,0,0)"/><circle cx="161.1111111111111" cy="74.26364469631363" r="2" fill="rgb(255,0,0)"/><circle cx="166.16161616161617" cy="80.11260379608893" r="2" fill="rgb(255,0,0)"/><circle cx="171.21212121212122" cy="83.48394686888543" r="2" fill="rgb(255,0,0)"/><circle cx="176.26262626262627" cy="83.26251032174929" r="2" fill="rgb(255,0,0)"/><circle cx="181.31313131313132" cy="75.99241781742586" r="2" fill="rgb(255,0,0)"/><circle cx="186.36363636363635" cy="75.1039934052655" r="2" fill="rgb(255,0,0)"/><circle cx="191.4141414141414" cy="74.59288201171069" r="2" fill="rgb(255,0,0)"/><circle cx="196.46464646464648" cy="76.62675369540204" r="2" fill="rgb(255,0,0)"/><circle cx="201.51515151515153" cy="78.50562130542511" r="2" fill="rgb(255,0,0)"/><circle cx="206.56565656565658" cy="75.41209876438415" r="2" fill="rgb(255,0,0)"/><circle cx="211.61616161616163" cy="71.70299874325491" r="2" fill="rgb(255,0,0)"/><circle cx="216.66666666666666" cy="73.01052762839748" r="2" fill="rgb(255,0,0)"/><circle cx="221.7171717171717" cy="69.17021348023866" r="2" fill="rgb(255,0,0)"/><circle cx="226.76767676767676" cy="65.81836144604574" r="2" fill="rgb(255,0,0)"/><circle cx="231.8181818181818" cy="69.22110484215983" r="2" fill="rgb(255,0,0)"/><circle cx="236.86868686868686" cy="71.7424850336119" r="2" fill="rgb(255,0,0)"/><circle cx="241.91919191919192" cy="71.8102834154111" r="2" fill="rgb(255,0,0)"/><circle cx="246.96969696969697" cy="67.60634802651168" r="2" fill="rgb(255,0,0)"/><circle cx="252.02020202020202" cy="70.6752711206774" r="2" fill="rgb(255,0,0)"/><circle cx="257.07070707070704" cy="77.2949581096571" r="2" fill="rgb(255,0,0)"/><circle cx="262.1212121212121" cy="74.35628522614559" r="2" fill="rgb(255,0,0)"/><circle cx="267.1717171717172" cy="72.08889928489617" r="2" fill="rgb(255,0,0)"/><circle cx="272.2222222222222" cy="82.69184813254793" r="2" fill="rgb(255,0,0)"/><circle cx="277.27272727272725" cy="82.4051886619576" r="2" fill="rgb(255,0,0)"/><circle cx="282.32323232323233" cy="74.03122179003884" r="2" fill="rgb(255,0,0)"/><circle cx="287.3737373737374" cy="67.96885643068032" r="2" fill="rgb(255,0,0)"/><circle cx="292.42424242424244" cy="68.15765575088983" r="2" fill="rgb(255,0,0)"/><circle cx="297.47474747474746" cy="63.29500560633045" r="2" fill="rgb(255,0,0)"/><circle cx="302.52525252525254" cy="63.76759303716369" r="2" fill="rgb(255,0,0)"/><circle cx="307.57575757575756" cy="62.04832224762049" r="2" fill="rgb(255,0,0)"/><circle cx="312.62626262626264" cy="70.07922978824445" r="2" fill="rgb(255,0,0)"/><circle cx="317.67676767676767" cy="69.67440497233969" r="2" fill="rgb(255,0,0)"/><circle cx="322.7272727272727" cy="70.24886209912057" r="2" fill="rgb(255,0,0)"/><circle cx="327.77777777777777" cy="67.42990412228602" r="2" fill="rgb(255,0,0)"/><circle cx="332.8282828282828" cy="70.05242738467575" r="2" fill="rgb(255,0,0)"/><circle cx="337.8787878787879" cy="71.92550907168453" r="2" fill="rgb(255,0,0)"/><circle cx="342.92929292929296" cy="71.83099656907973" r="2" fill="rgb(255,0,0)"/><circle cx="347.979797979798" cy="67.49543379889946" r="2" fill="rgb(255,0,0)"/><circle cx="353.03030303030306" cy="70.67645240567543" r="2" fill="rgb(255,0,0)"/><circle cx="358.0808080808081" cy="64.63469359896965" r="2" fill="rgb(255,0,0)"/><circle cx="363.13131313131316" cy="70.7394595762002" r="2" fill="rgb(255,0,0)"/><circle cx="368.1818181818182" cy="73.22779262778465" r="2" fill="rgb(255,0,0)"/><circle cx="373.23232323232327" cy="80.52863945472046" r="2" fill="rgb(255,0,0)"/><circle cx="378.2828282828283" cy="73.39199383785729" r="2" fill="rgb(255,0,0)"/><circle cx="383.3333333333333" cy="75.54898255318034" r="2" fill="rgb(255,0,0)"/><circle cx="388.3838383838384" cy="77.02340179563214" r="2" fill="rgb(255,0,0)"/><circle cx="393.4343434343434" cy="71.55104181118219" r="2" fill="rgb(255,0,0)"/><circle cx="398.4848484848485" cy="62.236752284414536" r="2" fill="rgb(255,0,0)"/><circle cx="403.5353535353535" cy="62.73507402304347" r="2" fill="rgb(255,0,0)"/><circle cx="408.58585858585855" cy="68.62389471394312" r="2" fill="rgb(255,0,0)"/><circle cx="413.6363636363636" cy="71.64033110322237" r="2" fill="rgb(255,0,0)"/><circle cx="418.68686868686865" cy="67.38578558994539" r="2" fill="rgb(255,0,0)"/><circle cx="423.73737373737373" cy="72.18208536134381" r="2" fill="rgb(255,0,0)"/><circle cx="428.7878787878788" cy="74.00955927820024" r="2" fill="rgb(255,0,0)"/><circle cx="433.83838383838383" cy="81.82452932843324" r="2" fill="rgb(255,0,0)"/><circle cx="438.8888888888889" cy="65.98700619894561" r="2" fill="rgb(255,0,0)"/><circle cx="443.93939393939394" cy="65.55534298485526" r="2" fill="rgb(255,0,0)"/><circle cx="448.989898989899" cy="73.1769393732032" r="2" fill="rgb(255,0,0)"/><circle cx="454.04040404040404" cy="68.20821827946185" r="2" fill="rgb(255,0,0)"/><circle cx="459.0909090909091" cy="65.29170952339416" r="2" fill="rgb(255,0,0)"/><circle cx="464.14141414141415" cy="68.11148085784902" r="2" fill="rgb(255,0,0)"/><circle cx="469.19191919191917" cy="77.81476416079664" r="2" fill="rgb(255,0,0)"/><circle cx="474.24242424242425" cy="74.76170960548632" r="2" fill="rgb(255,0,0)"/><circle cx="479.2929292929293" cy="63.12442476295735" r="2" fill="rgb(255,0,0)"/><circle cx="484.34343434343435" cy="57.88863996180925" r="2" fill="rgb(255,0,0)"/><circle cx="489.3939393939394" cy="60.99034011867178" r="2" fill="rgb(255,0,0)"/><circle cx="494.4444444444444" cy="62.781205159707895" r="2" fill="rgb(255,0,0)"/><circle cx="499.4949494949495" cy="67.26419476606338" r="2" fill="rgb(255,0,0)"/><circle cx="504.5454545454545" cy="73.56655987100959" r="2" fill="rgb(255,0,0)"/><circle cx="509.59595959595964" cy="66.97925772901493" r="2" fill="rgb(255,0,0)"/><circle cx="514.6464646464647" cy="65.65279892235725" r="2" fill="rgb(255,0,0)"/><circle cx="519.6969696969697" cy="67.40536987452163" r="2" fill="rgb(255,0,0)"/><circle cx="524.7474747474748" cy="69.31551924627769" r="2" fill="rgb(255,0,0)"/><circle cx="529.7979797979798" cy="59.61875598814896" r="2" fill="rgb(255,0,0)"/><circle cx="534.8484848484849" cy="54.63939557763797" r="2" fill="rgb(255,0,0)"/><circle cx="539.8989898989898" cy="57.9999742365182" r="2" fill="rgb(255,0,0)"/><circle cx="544.9494949494949" cy="66.80765507613143" r="2" fill="rgb(255,0,0)"/><circle cx="550.0" cy="67.5299007556103" r="2" fill="rgb(255,0,0)"/><polyline points="50.0,64.97207325279771 55.05050505050505,64.81748759234205 60.101010101010104,64.26596200733911 65.15151515151516,63.31014833153921 70.20202020202021,62.82186084763896 75.25252525252526,63.11870705392715 80.30303030303031,62.75599313677685 85.35353535353535,62.2242999622668 90.40404040404042,62.45705149344025 95.45454545454545,62.53981763547898 100.5050505050505,62.58796966762702 105.55555555555554,61.73922462600916 110.60606060606061,60.19316329903626 115.65656565656566,60.15083409976256 120.7070707070707,61.10284125579341 125.75757575757576,61.04173730265694 130.80808080808083,61.43346819790935 135.85858585858585,61.5277793169289 140.9090909090909,61.52341993214361 145.95959595959596,60.495813510869596 151.010101010101,61.04608683067812 156.06060606060606,60.68951799015531 161.1111111111111,60.645190758744945 166.16161616161617,60.60748638629616 171.21212121212122,60.67478371599742 176.26262626262627,60.59929427804474 181.31313131313132,60.59408097908499 186.36363636363635,60.19450276754759 191.4141414141414,60.46977573670051 196.46464646464648,60.32435940197422 201.51515151515153,60.17721099896937 206.56565656565658,60.02431117645682 211.61616161616163,59.76353786232022 216.66666666666666,54.55672911941292 221.7171717171717,60.26604723189229 226.76767676767676,60.14294244699488 231.8181818181818,60.13884818739996 236.86868686868686,60.17011935181921 241.91919191919192,60.13884818739996 246.96969696969697,59.86381962803671 252.02020202020202,59.74823939570774 257.07070707070704,60.22031026366062 262.1212121212121,59.97981102252561 267.1717171717172,59.68614569501341 272.2222222222222,59.84240108743904 277.27272727272725,59.79434444736199 282.32323232323233,59.80889486412076 287.3737373737374,59.820138817797556 292.42424242424244,59.80989644899705 297.47474747474746,59.761839808919945 302.52525252525254,59.79434444736199 307.57575757575756,59.70144128411533 312.62626262626264,59.733945922557325 317.67676767676767,59.733945922557325 322.7272727272727,59.760943596537174 327.77777777777777,59.75779306636042 332.8282828282828,59.746393179778295 337.8787878787879,59.741404749045785 342.92929292929296,59.622707215363505 347.979797979798,56.01413675780901 353.03030303030306,56.678898784240744 358.0808080808081,56.47480034974757 363.13131313131316,56.238928942085124 368.1818181818182,55.96119705949269 373.23232323232327,56.24862337205627 378.2828282828283,55.94664664273381 383.3333333333333,55.94664664273381 388.3838383838384,55.91414200429182 393.4343434343434,55.96506019639696 398.4848484848485,56.14165074660178 403.5353535353535,55.94664664273381 408.58585858585855,55.9286924210507 413.6363636363636,50.7953958534041 418.68686868686865,54.66643938527267 423.73737373737373,54.69894402371466 428.7878787878788,54.30587616769782 433.83838383838383,54.377624761013294 438.8888888888889,54.35293122289886 443.93939393939394,52.32373047722518 448.989898989899,54.342639284380255 454.04040404040404,50.51834895174113 459.0909090909091,50.565404006942 464.14141414141415,50.310751917277685 469.19191919191917,50.10484603585007 474.24242424242425,50.211470272919485 479.2929292929293,50.105559145009124 484.34343434343435,50.07305450656696 489.3939393939394,50.07305450656696 494.4444444444444,50.17233615092522 499.4949494949495,50.05261944669286 504.5454545454545,50.02011480825075 509.59595959595964,50.18688656768404 514.6464646464647,50.00556439149187 519.6969696969697,50.00556439149187 524.7474747474748,50.14216311405386 529.7979797979798,50.08760492332584 534.8484848484849,50.12010956176795 539.8989898989898,50.05899959281726 544.9494949494949,50.03806902993398 550.0,50.0" fill="none" stroke="rgb(0,255,0)" stroke-width="1"/><circle cx="50.0" cy="64.97207325279771" r="2" fill="rgb(0,255,0)"/><circle cx="55.05050505050505" cy="64.81748759234205" r="2" fill="rgb(0,255,0)"/><circle cx="60.101010101010104" cy="64.26596200733911" r="2" fill="rgb(0,255,0)"/><circle cx="65.15151515151516" cy="63.31014833153921" r="2" fill="rgb(0,255,0)"/><circle cx="70.20202020202021" cy="62.82186084763896" r="2" fill="rgb(0,255,0)"/><circle cx="75.25252525252526" cy="63.11870705392715" r="2" fill="rgb(0,255,0)"/><circle cx="80.30303030303031" cy="62.75599313677685" r="2" fill="rgb(0,255,0)"/><circle cx="85.35353535353535" cy="62.2242999622668" r="2" fill="rgb(0,255,0)"/><circle cx="90.40404040404042" cy="62.45705149344025" r="2" fill="rgb(0,255,0)"/><circle cx="95.45454545454545" cy="62.53981763547898" r="2" fill="rgb(0,255,0)"/><circle cx="100.5050505050505" cy="62.58796966762702" r="2" fill="rgb(0,255,0)"/><circle cx="105.55555555555554" cy="61.73922462600916" r="2" fill="rgb(0,255,0)"/><circle cx="110.60606060606061" cy="60.19316329903626" r="2" fill="rgb(0,255,0)"/><circle cx="115.65656565656566" cy="60.15083409976256" r="2" fill="rgb(0,255,0)"/><circle cx="120.7070707070707" cy="61.10284125579341" r="2" fill="rgb(0,255,0)"/><circle cx="125.75757575757576" cy="61.04173730265694" r="2" fill="rgb(0,255,0)"/><circle cx="130.80808080808083" cy="61.43346819790935" r="2" fill="rgb(0,255,0)"/><circle cx="135.85858585858585" cy="61.5277793169289" r="2" fill="rgb(0,255,0)"/><circle cx="140.9090909090909" cy="61.52341993214361" r="2" fill="rgb(0,255,0)"/><circle cx="145.95959595959596" cy="60.495813510869596" r="2" fill="rgb(0,255,0)"/><circle cx="151.010101010101" cy="61.04608683067812" r="2" fill="rgb(0,255,0)"/><circle cx="156.06060606060606" cy="60.68951799015531" r="2" fill="rgb(0,255,0)"/><circle cx="161.1111111111111" cy="60.645190758744945" r="2" fill="rgb(0,255,0)"/><circle cx="166.16161616161617" cy="60.60748638629616" r="2" fill="rgb(0,255,0)"/><circle cx="171.21212121212122" cy="60.67478371599742" r="2" fill="rgb(0,255,0)"/><circle cx="176.26262626262627" cy="60.59929427804474" r="2" fill="rgb(0,255,0)"/><circle cx="181.31313131313132" cy="60.59408097908499" r="2" fill="rgb(0,255,0)"/><circle cx="186.36363636363635" cy="60.19450276754759" r="2" fill="rgb(0,255,0)"/><circle cx="191.4141414141414" cy="60.46977573670051" r="2" fill="rgb(0,255,0)"/><circle cx="196.46464646464648" cy="60.32435940197422" r="2" fill="rgb(0,255,0)"/><circle cx="201.51515151515153" cy="60.17721099896937" r="2" fill="rgb(0,255,0)"/><circle cx="206.56565656565658" cy="60.02431117645682" r="2" fill="rgb(0,255,0)"/><circle cx="211.61616161616163" cy="59.76353786232022" r="2" fill="rgb(0,255,0)"/><circle cx="216.66666666666666" cy="54.55672911941292" r="2" fill="rgb(0,255,0)"/><circle cx="221.7171717171717" cy="60.26604723189229" r="2" fill="rgb(0,255,0)"/><circle cx="226.76767676767676" cy="60.14294244699488" r="2" fill="rgb(0,255,0)"/><circle cx="231.8181818181818" cy="60.13884818739996" r="2" fill="rgb(0,255,0)"/><circle cx="236.86868686868686" cy="60.17011935181921" r="2" fill="rgb(0,255,0)"/><circle cx="241.91919191919192" cy="60.13884818739996" r="2" fill="rgb(0,255,0)"/><circle cx="246.96969696969697" cy="59.86381962803671" r="2" fill="rgb(0,255,0)"/><circle cx="252.02020202020202" cy="59.74823939570774" r="2" fill="rgb(0,255,0)"/><circle cx="257.07070707070704" cy="60.22031026366062" r="2" fill="rgb(0,255,0)"/><circle cx="262.1212121212121" cy="59.97981102252561" r="2" fill="rgb(0,255,0)"/><circle cx="267.1717171717172" cy="59.68614569501341" r="2" fill="rgb(0,255,0)"/><circle cx="272.2222222222222" cy="59.84240108743904" r="2" fill="rgb(0,255,0)"/><circle cx="277.27272727272725" cy="59.79434444736199" r="2" fill="rgb(0,255,0)"/><circle cx="282.32323232323233" cy="59.80889486412076" r="2" fill="rgb(0,255,0)"/><circle cx="287.3737373737374" cy="59.820138817797556" r="2" fill="rgb(0,255,0)"/><circle cx="292.42424242424244" cy="59.80989644899705" r="2" fill="rgb(0,255,0)"/><circle cx="297.47474747474746" cy="59.761839808919945" r="2" fill="rgb(0,255,0)"/><circle cx="302.52525252525254" cy="59.79434444736199" r="2" fill="rgb(0,255,0)"/><circle cx="307.57575757575756" cy="59.70144128411533" r="2" fill="rgb(0,255,0)"/><circle cx="312.62626262626264" cy="59.733945922557325" r="2" fill="rgb(0,255,0)"/><circle cx="317.67676767676767" cy="59.733945922557325" r="2" fill="rgb(0,255,0)"/><circle cx="322.7272727272727" cy="59.760943596537174" r="2" fill="rgb(0,255,0)"/><circle cx="327.77777777777777" cy="59.75779306636042" r="2" fill="rgb(0,255,0)"/><circle cx="332.8282828282828" cy="59.746393179778295" r="2" fill="rgb(0,255,0)"/><circle cx="337.8787878787879" cy="59.741404749045785" r="2" fill="rgb(0,255,0)"/><circle cx="342.92929292929296" cy="59.622707215363505" r="2" fill="rgb(0,255,0)"/><circle cx="347.979797979798" cy="56.01413675780901" r="2" fill="rgb(0,255,0)"/><circle cx="353.03030303030306" cy="56.678898784240744" r="2" fill="rgb(0,255,0)"/><circle cx="358.0808080808081" cy="56.47480034974757" r="2" fill="rgb(0,255,0)"/><circle cx="363.13131313131316" cy="56.238928942085124" r="2" fill="rgb(0,255,0)"/><circle cx="368.1818181818182" cy="55.96119705949269" r="2" fill="rgb(0,255,0)"/><circle cx="373.23232323232327" cy="56.24862337205627" r="2" fill="rgb(0,255,0)"/><circle cx="378.2828282828283" cy="55.94664664273381" r="2" fill="rgb(0,255,0)"/><circle cx="383.3333333333333" cy="55.94664664273381" r="2" fill="rgb(0,255,0)"/><circle cx="388.3838383838384" cy="55.91414200429182" r="2" fill="rgb(0,255,0)"/><circle cx="393.4343434343434" cy="55.96506019639696" r="2" fill="rgb(0,255,0)"/><circle cx="398.4848484848485" cy="56.14165074660178" r="2" fill="rgb(0,255,0)"/><circle cx="403.5353535353535" cy="55.94664664273381" r="2" fill="rgb(0,255,0)"/><circle cx="408.58585858585855" cy="55.9286924210507" r="2" fill="rgb(0,255,0)"/><circle cx="413.6363636363636" cy="50.7953958534041" r="2" fill="rgb(0,255,0)"/><circle cx="418.68686868686865" cy="54.66643938527267" r="2" fill="rgb(0,255,0)"/><circle cx="423.73737373737373" cy="54.69894402371466" r="2" fill="rgb(0,255,0)"/><circle cx="428.7878787878788" cy="54.30587616769782" r="2" fill="rgb(0,255,0)"/><circle cx="433.83838383838383" cy="54.377624761013294" r="2" fill="rgb(0,255,0)"/><circle cx="438.8888888888889" cy="54.35293122289886" r="2" fill="rgb(0,255,0)"/><circle cx="443.93939393939394" cy="52.32373047722518" r="2" fill="rgb(0,255,0)"/><circle cx="448.989898989899" cy="54.342639284380255" r="2" fill="rgb(0,255,0)"/><circle cx="454.04040404040404" cy="50.51834895174113" r="2" fill="rgb(0,255,0)"/><circle cx="459.0909090909091" cy="50.565404006942" r="2" fill="rgb(0,255,0)"/><circle cx="464.14141414141415" cy="50.310751917277685" r="2" fill="rgb(0,255,0)"/><circle cx="469.19191919191917" cy="50.10484603585007" r="2" fill="rgb(0,255,0)"/><circle cx="474.24242424242425" cy="50.211470272919485" r="2" fill="rgb(0,255,0)"/><circle cx="479.2929292929293" cy="50.105559145009124" r="2" fill="rgb(0,255,0)"/><circle cx="484.34343434343435" cy="50.07305450656696" r="2" fill="rgb(0,255,0)"/><circle cx="489.3939393939394" cy="50.07305450656696" r="2" fill="rgb(0,255,0)"/><circle cx="494.4444444444444" cy="50.17233615092522" r="2" fill="rgb(0,255,0)"/><circle cx="499.4949494949495" cy="50.05261944669286" r="2" fill="rgb(0,255,0)"/><circle cx="504.5454545454545" cy="50.02011480825075" r="2" fill="rgb(0,255,0)"/><circle cx="509.59595959595964" cy="50.18688656768404" r="2" fill="rgb(0,255,0)"/><circle cx="514.6464646464647" cy="50.00556439149187" r="2" fill="rgb(0,255,0)"/><circle cx="519.6969696969697" cy="50.00556439149187" r="2" fill="rgb(0,255,0)"/><circle cx="524.7474747474748" cy="50.14216311405386" r="2" fill="rgb(0,255,0)"/><circle cx="529.7979797979798" cy="50.08760492332584" r="2" fill="rgb(0,255,0)"/><circle cx="534.8484848484849" cy="50.12010956176795" r="2" fill="rgb(0,255,0)"/><circle cx="539.8989898989898" cy="50.05899959281726" r="2" fill="rgb(0,255,0)"/><circle cx="544.9494949494949" cy="50.03806902993398" r="2" fill="rgb(0,255,0)"/><circle cx="550.0" cy="50.0" r="2" fill="rgb(0,255,0)"/><text text-anchor="middle" x="350.0" y="20.0" fill="rgb(0,0,0)" font-size="20.0">GA Demo</text><text text-anchor="middle" x="350.0" y="575.0" fill="rgb(0,0,0)" font-size="12.0">generation</text><text text-anchor="middle" x="20.0" y="300.0" transform="rotate(-90.0 20.0 300.0)" fill="rgb(0,0,0)" font-size="12.0">fitness</text><text x="620" y="62" fill="rgb(0,0,255)" font-size="12">min</text><text x="620" y="74" fill="rgb(255,0,0)" font-size="12">ave</text><text x="620" y="86" fill="rgb(0,255,0)" font-size="12">max</text>Sorry, your browser does not support inline SVG.</svg>