<?xml version='1.0' encoding='UTF-8'?>
<svg version="1.1" width="700.0" height="600.0" xmlns="http://www.w3.org/2000/svg"><line x1="50.0" y1="550.0" x2="550.0" y2="550.0" stroke="rgb(0,0,0)" stroke-width="1"/><line x1="50.0" y1="550.0" x2="50.0" y2="50.0" stroke="rgb(0,0,0)" stroke-width="1"/><line x1="50.0" y1="550.0" x2="50.0" y2="50.0" stroke="rgb(192,192,192)" stroke-width="1"/><text text-anchor="middle" alignment-baseline="hanging" x="50.0" y="553.0" fill="rgb(0,0,0)" font-size="12.0">0</text><line x1="50.0" y1="548.0" x2="50.0" y2="552.0" stroke="rgb(192,192,192)" stroke-width="1"/><line x1="313.1578947368421" y1="550.0" x2="313.1578947368421" y2="50.0" stroke="rgb(192,192,192)" stroke-width="1"/><text text-anchor="middle" alignment-baseline="hanging" x="313.1578947368421" y="553.0" fill="rgb(0,0,0)" font-size="12.0">10</text><line x1="313.1578947368421" y1="548.0" x2="313.1578947368421" y2="552.0" stroke="rgb(192,192,192)" stroke-width="1"/><line x1="50.0" y1="550.0" x2="550.0" y2="550.0" stroke="rgb(192,192,192)" stroke-width="1"/><text text-anchor="end" alignment-baseline="middle" x="45.0" y="550.0" font-size="12.0">0.0</text><line x1="48.0" y1="550.0" x2="52.0" y2="550.0" stroke="rgb(192,192,192)" stroke-width="1"/><line x1="50.0" y1="177.78559890842303" x2="550.0" y2="177.78559890842303" stroke="rgb(192,192,192)" stroke-width="1"/><text text-anchor="end" alignment-baseline="middle" x="45.0" y="177.78559890842303" font-size="12.0">0.1</text><line x1="48.0" y1="177.78559890842303" x2="52.0" y2="177.78559890842303" stroke="rgb(192,192,192)" stroke-width="1"/><polyline points="50.0,50.0 76.3157894736842,98.8311024931163 102.63157894736841,424.1083106394906 128.94736842105263,476.76412747872337 155.26315789473682,476.76412747872337 181.57894736842104,476.76412747872337 207.89473684210526,476.76412747872337 234.21052631578945,476.76412747872337 260.52631578947364,476.76412747872337 286.8421052631579,476.76412747872337 313.1578947368421,476.76412747872337 339.4736842105263,476.76412747872337 365.7894736842105,476.76412747872337 392.10526315789474,476.76412747872337 418.4210526315789,476.76412747872337 444.7368421052632,476.76412747872337 471.05263157894734,476.76412747872337 497.36842105263156,476.76412747872337 523.6842105263158,476.76412747872337 550.0,476.76412747872337" fill="none" stroke="rgb(0,0,255)" stroke-width="1"/><circle cx="50.0" cy="50.0" r="2" fill="rgb(0,0,255)"/><circle cx="76.3157894736842" cy="98.8311024931163" r="2" fill="rgb(0,0,255)"/><circle cx="102.63157894736841" cy="424.1083106394906" r="2" fill="rgb(0,0,255)"/><circle cx="128.94736842105263" cy="476.76412747872337" r="2" fill="rgb(0,0,255)"/><circle cx="155.26315789473682" cy="476.76412747872337" r="2" fill="rgb(0,0,255)"/><circle cx="181.57894736842104" cy="476.76412747872337" r="2" fill="rgb(0,0,255)"/><circle cx="207.89473684210526" cy="476.76412747872337" r="2" fill="rgb(0,0,255)"/><circle cx="234.21052631578945" cy="476.76412747872337" r="2" fill="rgb(0,0,255)"/><circle cx="260.52631578947364" cy="476.76412747872337" r="2" fill="rgb(0,0,255)"/><circle cx="286.8421052631579" cy="476.76412747872337" r="2" fill="rgb(0,0,255)"/><circle cx="313.1578947368421" cy="476.76412747872337" r="2" fill="rgb(0,0,255)"/><circle cx="339.4736842105263" cy="476.76412747872337" r="2" fill="rgb(0,0,255)"/><circle cx="365.7894736842105" cy="476.76412747872337" r="2" fill="rgb(0,0,255)"/><circle cx="392.10526315789474" cy="476.76412747872337" r="2" fill="rgb(0,0,255)"/><circle cx="418.4210526315789" cy="476.76412747872337" r="2" fill="rgb(0,0,255)"/><circle cx="444.7368421052632" cy="476.76412747872337" r="2" fill="rgb(0,0,255)"/><circle cx="471.05263157894734" cy="476.76412747872337" r="2" fill="rgb(0,0,255)"/><circle cx="497.36842105263156" cy="476.76412747872337" r="2" fill="rgb(0,0,255)"/><circle cx="523.6842105263158" cy="476.76412747872337" r="2" fill="rgb(0,0,255)"/><circle cx="550.0" cy="476.76412747872337" r="2" fill="rgb(0,0,255)"/><polyline points="50.0,497.9225134370871 76.3157894736842,355.3916626222782 102.63157894736841,144.6446400361445 128.94736842105263,107.41561373535325 155.26315789473682,107.41561373535325 181.57894736842104,107.41561373535325 207.89473684210526,107.41561373535325 234.21052631578945,107.41561373535325 260.52631578947364,107.41561373535325 286.8421052631579,107.41561373535325 313.1578947368421,107.41561373535325 339.4736842105263,107.41561373535325 365.7894736842105,107.41561373535325 392.10526315789474,107.41561373535325 418.4210526315789,107.41561373535325 444.7368421052632,107.41561373535325 471.05263157894734,107.41561373535325 497.36842105263156,107.41561373535325 523.6842105263158,107.41561373535325 550.0,107.41561373535325" fill="none" stroke="rgb(255,0,0)" stroke-width="1"/><circle cx="50.0" cy="497.9225134370871" r="2" fill="rgb(255,0,0)"/><circle cx="76.3157894736842" cy="355.3916626222782" r="2" fill="rgb(255,0,0)"/><circle cx="102.63157894736841" cy="144.6446400361445" r="2" fill="rgb(255,0,0)"/><circle cx="128.94736842105263" cy="107.41561373535325" r="2" fill="rgb(255,0,0)"/><circle cx="155.26315789473682" cy="107.41561373535325" r="2" fill="rgb(255,0,0)"/><circle cx="181.57894736842104" cy="107.41561373535325" r="2" fill="rgb(255,0,0)"/><circle cx="207.89473684210526" cy="107.41561373535325" r="2" fill="rgb(255,0,0)"/><circle cx="234.21052631578945" cy="107.41561373535325" r="2" fill="rgb(255,0,0)"/><circle cx="260.52631578947364" cy="107.41561373535325" r="2" fill="rgb(255,0,0)"/><circle cx="286.8421052631579" cy="107.41561373535325" r="2" fill="rgb(255,0,0)"/><circle cx="313.1578947368421" cy="107.41561373535325" r="2" fill="rgb(255,0,0)"/><circle cx="339.4736842105263" cy="107.41561373535325" r="2" fill="rgb(255,0,0)"/><circle cx="365.7894736842105" cy="107.41561373535325" r="2" fill="rgb(255,0,0)"/><circle cx="392.10526315789474" cy="107.41561373535325" r="2" fill="rgb(255,0,0)"/><circle cx="418.4210526315789" cy="107.41561373535325" r="2" fill="rgb(255,0,0)"/><circle cx="444.7368421052632" cy="107.41561373535325" r="2" fill="rgb(255,0,0)"/><circle cx="471.05263157894734" cy="107.41561373535325" r="2" fill="rgb(255,0,0)"/><circle cx="497.36842105263156" cy="107.41561373535325" r="2" fill="rgb(255,0,0)"/><circle cx="523.6842105263158" cy="107.41561373535325" r="2" fill="rgb(255,0,0)"/><circle cx="550.0" cy="107.41561373535325" r="2" fill="rgb(255,0,0)"/><polyline points="50.0,344.38352626884006 76.3157894736842,462.59060112973145 102.63157894736841,310.18497239328497 128.94736842105263,259.30948609532817 155.26315789473682,259.30948609532817 181.57894736842104,259.30948609532817 207.89473684210526,259.30948609532817 234.21052631578945,259.30948609532817 260.52631578947364,259.30948609532817 286.8421052631579,259.30948609532817 313.1578947368421,259.30948609532817 339.4736842105263,259.30948609532817 365.7894736842105,259.30948609532817 392.10526315789474,259.30948609532817 418.4210526315789,259.30948609532817 444.7368421052632,259.30948609532817 471.05263157894734,259.30948609532817 497.36842105263156,259.30948609532817 523.6842105263158,259.30948609532817 550.0,259.30948609532817" fill="none" stroke="rgb(0,255,0)" stroke-width="1"/><circle cx="50.0" cy="344.38352626884006" r="2" fill="rgb(0,255,0)"/><circle cx="76.3157894736842" cy="462.59060112973145" r="2" fill="rgb(0,255,0)"/><circle cx="102.63157894736841" cy="310.18497239328497" r="2" fill="rgb(0,255,0)"/><circle cx="128.94736842105263" cy="259.30948609532817" r="2" fill="rgb(0,255,0)"/><circle cx="155.26315789473682" cy="259.30948609532817" r="2" fill="rgb(0,255,0)"/><circle cx="181.57894736842104" cy="259.30948609532817" r="2" fill="rgb(0,255,0)"/><circle cx="207.89473684210526" cy="259.30948609532817" r="2" fill="rgb(0,255,0)"/><circle cx="234.21052631578945" cy="259.30948609532817" r="2" fill="rgb(0,255,0)"/><circle cx="260.52631578947364" cy="259.30948609532817" r="2" fill="rgb(0,255,0)"/><circle cx="286.8421052631579" cy="259.30948609532817" r="2" fill="rgb(0,255,0)"/><circle cx="313.1578947368421" cy="259.30948609532817" r="2" fill="rgb(0,255,0)"/><circle cx="339.4736842105263" cy="259.30948609532817" r="2" fill="rgb(0,255,0)"/><circle cx="365.7894736842105" cy="259.30948609532817" r="2" fill="rgb(0,255,0)"/><circle cx="392.10526315789474" cy="259.30948609532817" r="2" fill="rgb(0,255,0)"/><circle cx="418.4210526315789" cy="259.30948609532817" r="2" fill="rgb(0,255,0)"/><circle cx="444.7368421052632" cy="259.30948609532817" r="2" fill="rgb(0,255,0)"/><circle cx="471.05263157894734" cy="259.30948609532817" r="2" fill="rgb(0,255,0)"/><circle cx="497.36842105263156" cy="259.30948609532817" r="2" fill="rgb(0,255,0)"/><circle cx="523.6842105263158" cy="259.30948609532817" r="2" fill="rgb(0,255,0)"/><circle cx="550.0" cy="259.30948609532817" r="2" fill="rgb(0,255,0)"/><text text-anchor="middle" x="350.0" y="20.0" fill="rgb(0,0,0)" font-size="20.0">KMeans Mean Centroid Distances</text><text text-anchor="middle" x="350.0" y="575.0" fill="rgb(0,0,0)" font-size="12.0">step</text><text text-anchor="middle" x="20.0" y="300.0" transform="rotate(-90.0 20.0 300.0)" fill="rgb(0,0,0)" font-size="12.0">average distance to centroid</text><text x="620" y="62" fill="rgb(0,0,255)" font-size="12">centroid 0</text><text x="620" y="74" fill="rgb(255,0,0)" font-size="12">centroid 1</text><text x="620" y="86" fill="rgb(0,255,0)" font-size="12">centroid 2</text>Sorry, your browser does not support inline SVG.</svg>