<?xml version='1.0' encoding='UTF-8'?>
<svg version="1.1" width="700.0" height="600.0" xmlns="http://www.w3.org/2000/svg"><line x1="50.0" y1="550.0" x2="550.0" y2="550.0" stroke="rgb(0,0,0)" stroke-width="1"/><line x1="50.0" y1="550.0" x2="50.0" y2="50.0" stroke="rgb(0,0,0)" stroke-width="1"/><line x1="50.0" y1="550.0" x2="50.0" y2="50.0" stroke="rgb(192,192,192)" stroke-width="1"/><text text-anchor="middle" alignment-baseline="hanging" x="50.0" y="553.0" fill="rgb(0,0,0)" font-size="12.0">0</text><line x1="50.0" y1="548.0" x2="50.0" y2="552.0" stroke="rgb(192,192,192)" stroke-width="1"/><line x1="313.1578947368421" y1="550.0" x2="313.1578947368421" y2="50.0" stroke="rgb(192,192,192)" stroke-width="1"/><text text-anchor="middle" alignment-baseline="hanging" x="313.1578947368421" y="553.0" fill="rgb(0,0,0)" font-size="12.0">10</text><line x1="313.1578947368421" y1="548.0" x2="313.1578947368421" y2="552.0" stroke="rgb(192,192,192)" stroke-width="1"/><line x1="50.0" y1="550.0" x2="550.0" y2="550.0" stroke="rgb(192,192,192)" stroke-width="1"/><text text-anchor="end" alignment-baseline="middle" x="45.0" y="550.0" font-size="12.0">0.0</text><line x1="48.0" y1="550.0" x2="52.0" y2="550.0" stroke="rgb(192,192,192)" stroke-width="1"/><line x1="50.0" y1="339.78473986410427" x2="550.0" y2="339.78473986410427" stroke="rgb(192,192,192)" stroke-width="1"/><text text-anchor="end" alignment-baseline="middle" x="45.0" y="339.78473986410427" font-size="12.0">0.1</text><line x1="48.0" y1="339.78473986410427" x2="52.0" y2="339.78473986410427" stroke="rgb(192,192,192)" stroke-width="1"/><line x1="50.0" y1="129.5694797282086" x2="550.0" y2="129.5694797282086" stroke="rgb(192,192,192)" stroke-width="1"/><text text-anchor="end" alignment-baseline="middle" x="45.0" y="129.5694797282086" font-size="12.0">0.2</text><line x1="48.0" y1="129.5694797282086" x2="52.0" y2="129.5694797282086" stroke="rgb(192,192,192)" stroke-width="1"/><polyline points="50.0,132.16134246151273 76.3157894736842,324.36430758494885 102.63157894736841,402.0149466738576 128.94736842105263,439.8636730992607 155.26315789473682,445.98236664884405 181.57894736842104,445.98236664884405 207.89473684210526,461.96061267505564 234.21052631578945,473.9181214018272 260.52631578947364,473.9181214018272 286.8421052631579,510.27272927213363 313.1578947368421,517.7452271735439 339.4736842105263,542.1325701581809 365.7894736842105,538.4117141155867 392.10526315789474,524.6059703457775 418.4210526315789,508.6386288435097 444.7368421052632,508.6386288435097 471.05263157894734,508.6386288435097 497.36842105263156,508.6386288435097 523.6842105263158,508.6386288435097 550.0,508.6386288435097" fill="none" stroke="rgb(0,0,255)" stroke-width="1"/><circle cx="50.0" cy="132.16134246151273" r="2" fill="rgb(0,0,255)"/><circle cx="76.3157894736842" cy="324.36430758494885" r="2" fill="rgb(0,0,255)"/><circle cx="102.63157894736841" cy="402.0149466738576" r="2" fill="rgb(0,0,255)"/><circle cx="128.94736842105263" cy="439.8636730992607" r="2" fill="rgb(0,0,255)"/><circle cx="155.26315789473682" cy="445.98236664884405" r="2" fill="rgb(0,0,255)"/><circle cx="181.57894736842104" cy="445.98236664884405" r="2" fill="rgb(0,0,255)"/><circle cx="207.89473684210526" cy="461.96061267505564" r="2" fill="rgb(0,0,255)"/><circle cx="234.21052631578945" cy="473.9181214018272" r="2" fill="rgb(0,0,255)"/><circle cx="260.52631578947364" cy="473.9181214018272" r="2" fill="rgb(0,0,255)"/><circle cx="286.8421052631579" cy="510.27272927213363" r="2" fill="rgb(0,0,255)"/><circle cx="313.1578947368421" cy="517.7452271735439" r="2" fill="rgb(0,0,255)"/><circle cx="339.4736842105263" cy="542.1325701581809" r="2" fill="rgb(0,0,255)"/><circle cx="365.7894736842105" cy="538.4117141155867" r="2" fill="rgb(0,0,255)"/><circle cx="392.10526315789474" cy="524.6059703457775" r="2" fill="rgb(0,0,255)"/><circle cx="418.4210526315789" cy="508.6386288435097" r="2" fill="rgb(0,0,255)"/><circle cx="444.7368421052632" cy="508.6386288435097" r="2" fill="rgb(0,0,255)"/><circle cx="471.05263157894734" cy="508.6386288435097" r="2" fill="rgb(0,0,255)"/><circle cx="497.36842105263156" cy="508.6386288435097" r="2" fill="rgb(0,0,255)"/><circle cx="523.6842105263158" cy="508.6386288435097" r="2" fill="rgb(0,0,255)"/><circle cx="550.0" cy="508.6386288435097" r="2" fill="rgb(0,0,255)"/><polyline points="50.0,94.74529812235892 76.3157894736842,288.8369910991634 102.63157894736841,299.80909211186156 128.94736842105263,327.11371861817435 155.26315789473682,377.46700693272095 181.57894736842104,464.9790625817597 207.89473684210526,487.5079501073151 234.21052631578945,421.3694660887475 260.52631578947364,385.02008383631636 286.8421052631579,341.2251131599161 313.1578947368421,323.47641263114394 339.4736842105263,288.61051502864893 365.7894736842105,270.04116951497224 392.10526315789474,282.17020750193944 418.4210526315789,300.04193384818 444.7368421052632,300.04193384818 471.05263157894734,300.04193384818 497.36842105263156,300.04193384818 523.6842105263158,300.04193384818 550.0,300.04193384818" fill="none" stroke="rgb(255,0,0)" stroke-width="1"/><circle cx="50.0" cy="94.74529812235892" r="2" fill="rgb(255,0,0)"/><circle cx="76.3157894736842" cy="288.8369910991634" r="2" fill="rgb(255,0,0)"/><circle cx="102.63157894736841" cy="299.80909211186156" r="2" fill="rgb(255,0,0)"/><circle cx="128.94736842105263" cy="327.11371861817435" r="2" fill="rgb(255,0,0)"/><circle cx="155.26315789473682" cy="377.46700693272095" r="2" fill="rgb(255,0,0)"/><circle cx="181.57894736842104" cy="464.9790625817597" r="2" fill="rgb(255,0,0)"/><circle cx="207.89473684210526" cy="487.5079501073151" r="2" fill="rgb(255,0,0)"/><circle cx="234.21052631578945" cy="421.3694660887475" r="2" fill="rgb(255,0,0)"/><circle cx="260.52631578947364" cy="385.02008383631636" r="2" fill="rgb(255,0,0)"/><circle cx="286.8421052631579" cy="341.2251131599161" r="2" fill="rgb(255,0,0)"/><circle cx="313.1578947368421" cy="323.47641263114394" r="2" fill="rgb(255,0,0)"/><circle cx="339.4736842105263" cy="288.61051502864893" r="2" fill="rgb(255,0,0)"/><circle cx="365.7894736842105" cy="270.04116951497224" r="2" fill="rgb(255,0,0)"/><circle cx="392.10526315789474" cy="282.17020750193944" r="2" fill="rgb(255,0,0)"/><circle cx="418.4210526315789" cy="300.04193384818" r="2" fill="rgb(255,0,0)"/><circle cx="444.7368421052632" cy="300.04193384818" r="2" fill="rgb(255,0,0)"/><circle cx="471.05263157894734" cy="300.04193384818" r="2" fill="rgb(255,0,0)"/><circle cx="497.36842105263156" cy="300.04193384818" r="2" fill="rgb(255,0,0)"/><circle cx="523.6842105263158" cy="300.04193384818" r="2" fill="rgb(255,0,0)"/><circle cx="550.0" cy="300.04193384818" r="2" fill="rgb(255,0,0)"/><polyline points="50.0,50.0 76.3157894736842,248.8140608206686 102.63157894736841,267.15531348004964 128.94736842105263,295.2365455661436 155.26315789473682,342.09170098923516 181.57894736842104,392.89756780485686 207.89473684210526,361.2543233076128 234.21052631578945,294.70682789219524 260.52631578947364,269.5108224824781 286.8421052631579,306.8246639468592 313.1578947368421,314.68160556971657 339.4736842105263,338.39047969449575 365.7894736842105,354.4821999678894 392.10526315789474,368.7061818567515 418.4210526315789,385.8269271143184 444.7368421052632,385.8269271143184 471.05263157894734,385.8269271143184 497.36842105263156,385.8269271143184 523.6842105263158,385.8269271143184 550.0,385.8269271143184" fill="none" stroke="rgb(0,255,0)" stroke-width="1"/><circle cx="50.0" cy="50.0" r="2" fill="rgb(0,255,0)"/><circle cx="76.3157894736842" cy="248.8140608206686" r="2" fill="rgb(0,255,0)"/><circle cx="102.63157894736841" cy="267.15531348004964" r="2" fill="rgb(0,255,0)"/><circle cx="128.94736842105263" cy="295.2365455661436" r="2" fill="rgb(0,255,0)"/><circle cx="155.26315789473682" cy="342.09170098923516" r="2" fill="rgb(0,255,0)"/><circle cx="181.57894736842104" cy="392.89756780485686" r="2" fill="rgb(0,255,0)"/><circle cx="207.89473684210526" cy="361.2543233076128" r="2" fill="rgb(0,255,0)"/><circle cx="234.21052631578945" cy="294.70682789219524" r="2" fill="rgb(0,255,0)"/><circle cx="260.52631578947364" cy="269.5108224824781" r="2" fill="rgb(0,255,0)"/><circle cx="286.8421052631579" cy="306.8246639468592" r="2" fill="rgb(0,255,0)"/><circle cx="313.1578947368421" cy="314.68160556971657" r="2" fill="rgb(0,255,0)"/><circle cx="339.4736842105263" cy="338.39047969449575" r="2" fill="rgb(0,255,0)"/><circle cx="365.7894736842105" cy="354.4821999678894" r="2" fill="rgb(0,255,0)"/><circle cx="392.10526315789474" cy="368.7061818567515" r="2" fill="rgb(0,255,0)"/><circle cx="418.4210526315789" cy="385.8269271143184" r="2" fill="rgb(0,255,0)"/><circle cx="444.7368421052632" cy="385.8269271143184" r="2" fill="rgb(0,255,0)"/><circle cx="471.05263157894734" cy="385.8269271143184" r="2" fill="rgb(0,255,0)"/><circle cx="497.36842105263156" cy="385.8269271143184" r="2" fill="rgb(0,255,0)"/><circle cx="523.6842105263158" cy="385.8269271143184" r="2" fill="rgb(0,255,0)"/><circle cx="550.0" cy="385.8269271143184" r="2" fill="rgb(0,255,0)"/><text text-anchor="middle" x="350.0" y="20.0" fill="rgb(0,0,0)" font-size="20.0">KMeans Mean Centroid Distances</text><text text-anchor="middle" x="350.0" y="575.0" fill="rgb(0,0,0)" font-size="12.0">step</text><text text-anchor="middle" x="20.0" y="300.0" transform="rotate(-90.0 20.0 300.0)" fill="rgb(0,0,0)" font-size="12.0">average distance to centroid</text><text x="620" y="62" fill="rgb(0,0,255)" font-size="12">centroid 0</text><text x="620" y="74" fill="rgb(255,0,0)" font-size="12">centroid 1</text><text x="620" y="86" fill="rgb(0,255,0)" font-size="12">centroid 2</text>Sorry, your browser does not support inline SVG.</svg>