<?xml version='1.0' encoding='UTF-8'?>
<svg version="1.1" width="700.0" height="600.0" xmlns="http://www.w3.org/2000/svg"><line x1="50.0" y1="550.0" x2="550.0" y2="550.0" stroke="rgb(0,0,0)" stroke-width="1"/><line x1="50.0" y1="550.0" x2="50.0" y2="50.0" stroke="rgb(0,0,0)" stroke-width="1"/><line x1="50.0" y1="550.0" x2="50.0" y2="50.0" stroke="rgb(192,192,192)" stroke-width="1"/><text text-anchor="middle" alignment-baseline="hanging" x="50.0" y="553.0" fill="rgb(0,0,0)" font-size="12.0">0</text><line x1="50.0" y1="548.0" x2="50.0" y2="552.0" stroke="rgb(192,192,192)" stroke-width="1"/><line x1="313.1578947368421" y1="550.0" x2="313.1578947368421" y2="50.0" stroke="rgb(192,192,192)" stroke-width="1"/><text text-anchor="middle" alignment-baseline="hanging" x="313.1578947368421" y="553.0" fill="rgb(0,0,0)" font-size="12.0">10</text><line x1="313.1578947368421" y1="548.0" x2="313.1578947368421" y2="552.0" stroke="rgb(192,192,192)" stroke-width="1"/><line x1="50.0" y1="550.0" x2="550.0" y2="550.0" stroke="rgb(192,192,192)" stroke-width="1"/><text text-anchor="end" alignment-baseline="middle" x="45.0" y="550.0" font-size="12.0">0.0</text><line x1="48.0" y1="550.0" x2="52.0" y2="550.0" stroke="rgb(192,192,192)" stroke-width="1"/><line x1="50.0" y1="255.5500453725499" x2="550.0" y2="255.5500453725499" stroke="rgb(192,192,192)" stroke-width="1"/><text text-anchor="end" alignment-baseline="middle" x="45.0" y="255.5500453725499" font-size="12.0">0.1</text><line x1="48.0" y1="255.5500453725499" x2="52.0" y2="255.5500453725499" stroke="rgb(192,192,192)" stroke-width="1"/><polyline points="50.0,313.96791958050846 76.3157894736842,484.1863329008223 102.63157894736841,541.385659614142 128.94736842105263,519.6503207818595 155.26315789473682,495.92944722308056 181.57894736842104,495.92944722308056 207.89473684210526,495.92944722308056 234.21052631578945,495.92944722308056 260.52631578947364,495.92944722308056 286.8421052631579,495.92944722308056 313.1578947368421,495.92944722308056 339.4736842105263,495.92944722308056 365.7894736842105,495.92944722308056 392.10526315789474,495.92944722308056 418.4210526315789,495.92944722308056 444.7368421052632,495.92944722308056 471.05263157894734,495.92944722308056 497.36842105263156,495.92944722308056 523.6842105263158,495.92944722308056 550.0,495.92944722308056" fill="none" stroke="rgb(0,0,255)" stroke-width="1"/><circle cx="50.0" cy="313.96791958050846" r="2" fill="rgb(0,0,255)"/><circle cx="76.3157894736842" cy="484.1863329008223" r="2" fill="rgb(0,0,255)"/><circle cx="102.63157894736841" cy="541.385659614142" r="2" fill="rgb(0,0,255)"/><circle cx="128.94736842105263" cy="519.6503207818595" r="2" fill="rgb(0,0,255)"/><circle cx="155.26315789473682" cy="495.92944722308056" r="2" fill="rgb(0,0,255)"/><circle cx="181.57894736842104" cy="495.92944722308056" r="2" fill="rgb(0,0,255)"/><circle cx="207.89473684210526" cy="495.92944722308056" r="2" fill="rgb(0,0,255)"/><circle cx="234.21052631578945" cy="495.92944722308056" r="2" fill="rgb(0,0,255)"/><circle cx="260.52631578947364" cy="495.92944722308056" r="2" fill="rgb(0,0,255)"/><circle cx="286.8421052631579" cy="495.92944722308056" r="2" fill="rgb(0,0,255)"/><circle cx="313.1578947368421" cy="495.92944722308056" r="2" fill="rgb(0,0,255)"/><circle cx="339.4736842105263" cy="495.92944722308056" r="2" fill="rgb(0,0,255)"/><circle cx="365.7894736842105" cy="495.92944722308056" r="2" fill="rgb(0,0,255)"/><circle cx="392.10526315789474" cy="495.92944722308056" r="2" fill="rgb(0,0,255)"/><circle cx="418.4210526315789" cy="495.92944722308056" r="2" fill="rgb(0,0,255)"/><circle cx="444.7368421052632" cy="495.92944722308056" r="2" fill="rgb(0,0,255)"/><circle cx="471.05263157894734" cy="495.92944722308056" r="2" fill="rgb(0,0,255)"/><circle cx="497.36842105263156" cy="495.92944722308056" r="2" fill="rgb(0,0,255)"/><circle cx="523.6842105263158" cy="495.92944722308056" r="2" fill="rgb(0,0,255)"/><circle cx="550.0" cy="495.92944722308056" r="2" fill="rgb(0,0,255)"/><polyline points="50.0,147.21610942785207 76.3157894736842,194.90647215938782 102.63157894736841,154.44019387333344 128.94736842105263,174.70452176615873 155.26315789473682,199.31491880163225 181.57894736842104,199.31491880163225 207.89473684210526,199.31491880163225 234.21052631578945,199.31491880163225 260.52631578947364,199.31491880163225 286.8421052631579,199.31491880163225 313.1578947368421,199.31491880163225 339.4736842105263,199.31491880163225 365.7894736842105,199.31491880163225 392.10526315789474,199.31491880163225 418.4210526315789,199.31491880163225 444.7368421052632,199.31491880163225 471.05263157894734,199.31491880163225 497.36842105263156,199.31491880163225 523.6842105263158,199.31491880163225 550.0,199.31491880163225" fill="none" stroke="rgb(255,0,0)" stroke-width="1"/><circle cx="50.0" cy="147.21610942785207" r="2" fill="rgb(255,0,0)"/><circle cx="76.3157894736842" cy="194.90647215938782" r="2" fill="rgb(255,0,0)"/><circle cx="102.63157894736841" cy="154.44019387333344" r="2" fill="rgb(255,0,0)"/><circle cx="128.94736842105263" cy="174.70452176615873" r="2" fill="rgb(255,0,0)"/><circle cx="155.26315789473682" cy="199.31491880163225" r="2" fill="rgb(255,0,0)"/><circle cx="181.57894736842104" cy="199.31491880163225" r="2" fill="rgb(255,0,0)"/><circle cx="207.89473684210526" cy="199.31491880163225" r="2" fill="rgb(255,0,0)"/><circle cx="234.21052631578945" cy="199.31491880163225" r="2" fill="rgb(255,0,0)"/><circle cx="260.52631578947364" cy="199.31491880163225" r="2" fill="rgb(255,0,0)"/><circle cx="286.8421052631579" cy="199.31491880163225" r="2" fill="rgb(255,0,0)"/><circle cx="313.1578947368421" cy="199.31491880163225" r="2" fill="rgb(255,0,0)"/><circle cx="339.4736842105263" cy="199.31491880163225" r="2" fill="rgb(255,0,0)"/><circle cx="365.7894736842105" cy="199.31491880163225" r="2" fill="rgb(255,0,0)"/><circle cx="392.10526315789474" cy="199.31491880163225" r="2" fill="rgb(255,0,0)"/><circle cx="418.4210526315789" cy="199.31491880163225" r="2" fill="rgb(255,0,0)"/><circle cx="444.7368421052632" cy="199.31491880163225" r="2" fill="rgb(255,0,0)"/><circle cx="471.05263157894734" cy="199.31491880163225" r="2" fill="rgb(255,0,0)"/><circle cx="497.36842105263156" cy="199.31491880163225" r="2" fill="rgb(255,0,0)"/><circle cx="523.6842105263158" cy="199.31491880163225" r="2" fill="rgb(255,0,0)"/><circle cx="550.0" cy="199.31491880163225" r="2" fill="rgb(255,0,0)"/><polyline points="50.0,50.0 76.3157894736842,203.54013446991564 102.63157894736841,265.38161261290946 128.94736842105263,292.37829545348234 155.26315789473682,315.87182667428374 181.57894736842104,315.87182667428374 207.89473684210526,315.87182667428374 234.21052631578945,315.87182667428374 260.52631578947364,315.87182667428374 286.8421052631579,315.87182667428374 313.1578947368421,315.87182667428374 339.4736842105263,315.87182667428374 365.7894736842105,315.87182667428374 392.10526315789474,315.87182667428374 418.4210526315789,315.87182667428374 444.7368421052632,315.87182667428374 471.05263157894734,315.87182667428374 497.36842105263156,315.87182667428374 523.6842105263158,315.87182667428374 550.0,315.87182667428374" fill="none" stroke="rgb(0,255,0)" stroke-width="1"/><circle cx="50.0" cy="50.0" r="2" fill="rgb(0,255,0)"/><circle cx="76.3157894736842" cy="203.54013446991564" r="2" fill="rgb(0,255,0)"/><circle cx="102.63157894736841" cy="265.38161261290946" r="2" fill="rgb(0,255,0)"/><circle cx="128.94736842105263" cy="292.37829545348234" r="2" fill="rgb(0,255,0)"/><circle cx="155.26315789473682" cy="315.87182667428374" r="2" fill="rgb(0,255,0)"/><circle cx="181.57894736842104" cy="315.87182667428374" r="2" fill="rgb(0,255,0)"/><circle cx="207.89473684210526" cy="315.87182667428374" r="2" fill="rgb(0,255,0)"/><circle cx="234.21052631578945" cy="315.87182667428374" r="2" fill="rgb(0,255,0)"/><circle cx="260.52631578947364" cy="315.87182667428374" r="2" fill="rgb(0,255,0)"/><circle cx="286.8421052631579" cy="315.87182667428374" r="2" fill="rgb(0,255,0)"/><circle cx="313.1578947368421" cy="315.87182667428374" r="2" fill="rgb(0,255,0)"/><circle cx="339.4736842105263" cy="315.87182667428374" r="2" fill="rgb(0,255,0)"/><circle cx="365.7894736842105" cy="315.87182667428374" r="2" fill="rgb(0,255,0)"/><circle cx="392.10526315789474" cy="315.87182667428374" r="2" fill="rgb(0,255,0)"/><circle cx="418.4210526315789" cy="315.87182667428374" r="2" fill="rgb(0,255,0)"/><circle cx="444.7368421052632" cy="315.87182667428374" r="2" fill="rgb(0,255,0)"/><circle cx="471.05263157894734" cy="315.87182667428374" r="2" fill="rgb(0,255,0)"/><circle cx="497.36842105263156" cy="315.87182667428374" r="2" fill="rgb(0,255,0)"/><circle cx="523.6842105263158" cy="315.87182667428374" r="2" fill="rgb(0,255,0)"/><circle cx="550.0" cy="315.87182667428374" r="2" fill="rgb(0,255,0)"/><text text-anchor="middle" x="350.0" y="20.0" fill="rgb(0,0,0)" font-size="20.0">KMeans Mean Centroid Distances</text><text text-anchor="middle" x="350.0" y="575.0" fill="rgb(0,0,0)" font-size="12.0">step</text><text text-anchor="middle" x="20.0" y="300.0" transform="rotate(-90.0 20.0 300.0)" fill="rgb(0,0,0)" font-size="12.0">average distance to centroid</text><text x="620" y="62" fill="rgb(0,0,255)" font-size="12">centroid 0</text><text x="620" y="74" fill="rgb(255,0,0)" font-size="12">centroid 1</text><text x="620" y="86" fill="rgb(0,255,0)" font-size="12">centroid 2</text>Sorry, your browser does not support inline SVG.</svg>