<?xml version='1.0' encoding='UTF-8'?>
<svg version="1.1" width="700.0" height="600.0" xmlns="http://www.w3.org/2000/svg"><line x1="50.0" y1="550.0" x2="550.0" y2="550.0" stroke="rgb(0,0,0)" stroke-width="1"/><line x1="50.0" y1="550.0" x2="50.0" y2="50.0" stroke="rgb(0,0,0)" stroke-width="1"/><line x1="50.0" y1="550.0" x2="50.0" y2="50.0" stroke="rgb(192,192,192)" stroke-width="1"/><text text-anchor="middle" alignment-baseline="hanging" x="50.0" y="553.0" fill="rgb(0,0,0)" font-size="12.0">0</text><line x1="50.0" y1="548.0" x2="50.0" y2="552.0" stroke="rgb(192,192,192)" stroke-width="1"/><line x1="313.1578947368421" y1="550.0" x2="313.1578947368421" y2="50.0" stroke="rgb(192,192,192)" stroke-width="1"/><text text-anchor="middle" alignment-baseline="hanging" x="313.1578947368421" y="553.0" fill="rgb(0,0,0)" font-size="12.0">10</text><line x1="313.1578947368421" y1="548.0" x2="313.1578947368421" y2="552.0" stroke="rgb(192,192,192)" stroke-width="1"/><line x1="50.0" y1="550.0" x2="550.0" y2="550.0" stroke="rgb(192,192,192)" stroke-width="1"/><text text-anchor="end" alignment-baseline="middle" x="45.0" y="550.0" font-size="12.0">0.0</text><line x1="48.0" y1="550.0" x2="52.0" y2="550.0" stroke="rgb(192,192,192)" stroke-width="1"/><line x1="50.0" y1="327.69566439105375" x2="550.0" y2="327.69566439105375" stroke="rgb(192,192,192)" stroke-width="1"/><text text-anchor="end" alignment-baseline="middle" x="45.0" y="327.69566439105375" font-size="12.0">0.1</text><line x1="48.0" y1="327.69566439105375" x2="52.0" y2="327.69566439105375" stroke="rgb(192,192,192)" stroke-width="1"/><line x1="50.0" y1="105.39132878210751" x2="550.0" y2="105.39132878210751" stroke="rgb(192,192,192)" stroke-width="1"/><text text-anchor="end" alignment-baseline="middle" x="45.0" y="105.39132878210751" font-size="12.0">0.2</text><line x1="48.0" y1="105.39132878210751" x2="52.0" y2="105.39132878210751" stroke="rgb(192,192,192)" stroke-width="1"/><polyline points="50.0,50.0 76.3157894736842,311.9404488713863 102.63157894736841,430.5035973312233 128.94736842105263,503.1995012529931 155.26315789473682,506.26001590524623 181.57894736842104,506.26001590524623 207.89473684210526,506.26001590524623 234.21052631578945,506.26001590524623 260.52631578947364,506.26001590524623 286.8421052631579,506.26001590524623 313.1578947368421,506.26001590524623 339.4736842105263,506.26001590524623 365.7894736842105,506.26001590524623 392.10526315789474,506.26001590524623 418.4210526315789,506.26001590524623 444.7368421052632,506.26001590524623 471.05263157894734,506.26001590524623 497.36842105263156,506.26001590524623 523.6842105263158,506.26001590524623 550.0,506.26001590524623" fill="none" stroke="rgb(0,0,255)" stroke-width="1"/><circle cx="50.0" cy="50.0" r="2" fill="rgb(0,0,255)"/><circle cx="76.3157894736842" cy="311.9404488713863" r="2" fill="rgb(0,0,255)"/><circle cx="102.63157894736841" cy="430.5035973312233" r="2" fill="rgb(0,0,255)"/><circle cx="128.94736842105263" cy="503.1995012529931" r="2" fill="rgb(0,0,255)"/><circle cx="155.26315789473682" cy="506.26001590524623" r="2" fill="rgb(0,0,255)"/><circle cx="181.57894736842104" cy="506.26001590524623" r="2" fill="rgb(0,0,255)"/><circle cx="207.89473684210526" cy="506.26001590524623" r="2" fill="rgb(0,0,255)"/><circle cx="234.21052631578945" cy="506.26001590524623" r="2" fill="rgb(0,0,255)"/><circle cx="260.52631578947364" cy="506.26001590524623" r="2" fill="rgb(0,0,255)"/><circle cx="286.8421052631579" cy="506.26001590524623" r="2" fill="rgb(0,0,255)"/><circle cx="313.1578947368421" cy="506.26001590524623" r="2" fill="rgb(0,0,255)"/><circle cx="339.4736842105263" cy="506.26001590524623" r="2" fill="rgb(0,0,255)"/><circle cx="365.7894736842105" cy="506.26001590524623" r="2" fill="rgb(0,0,255)"/><circle cx="392.10526315789474" cy="506.26001590524623" r="2" fill="rgb(0,0,255)"/><circle cx="418.4210526315789" cy="506.26001590524623" r="2" fill="rgb(0,0,255)"/><circle cx="444.7368421052632" cy="506.26001590524623" r="2" fill="rgb(0,0,255)"/><circle cx="471.05263157894734" cy="506.26001590524623" r="2" fill="rgb(0,0,255)"/><circle cx="497.36842105263156" cy="506.26001590524623" r="2" fill="rgb(0,0,255)"/><circle cx="523.6842105263158" cy="506.26001590524623" r="2" fill="rgb(0,0,255)"/><circle cx="550.0" cy="506.26001590524623" r="2" fill="rgb(0,0,255)"/><polyline points="50.0,268.6493541948856 76.3157894736842,473.99358673624033 102.63157894736841,365.1828348389322 128.94736842105263,290.5099543656055 155.26315789473682,285.66732600641984 181.57894736842104,285.66732600641984 207.89473684210526,285.66732600641984 234.21052631578945,285.66732600641984 260.52631578947364,285.66732600641984 286.8421052631579,285.66732600641984 313.1578947368421,285.66732600641984 339.4736842105263,285.66732600641984 365.7894736842105,285.66732600641984 392.10526315789474,285.66732600641984 418.4210526315789,285.66732600641984 444.7368421052632,285.66732600641984 471.05263157894734,285.66732600641984 497.36842105263156,285.66732600641984 523.6842105263158,285.66732600641984 550.0,285.66732600641984" fill="none" stroke="rgb(255,0,0)" stroke-width="1"/><circle cx="50.0" cy="268.6493541948856" r="2" fill="rgb(255,0,0)"/><circle cx="76.3157894736842" cy="473.99358673624033" r="2" fill="rgb(255,0,0)"/><circle cx="102.63157894736841" cy="365.1828348389322" r="2" fill="rgb(255,0,0)"/><circle cx="128.94736842105263" cy="290.5099543656055" r="2" fill="rgb(255,0,0)"/><circle cx="155.26315789473682" cy="285.66732600641984" r="2" fill="rgb(255,0,0)"/><circle cx="181.57894736842104" cy="285.66732600641984" r="2" fill="rgb(255,0,0)"/><circle cx="207.89473684210526" cy="285.66732600641984" r="2" fill="rgb(255,0,0)"/><circle cx="234.21052631578945" cy="285.66732600641984" r="2" fill="rgb(255,0,0)"/><circle cx="260.52631578947364" cy="285.66732600641984" r="2" fill="rgb(255,0,0)"/><circle cx="286.8421052631579" cy="285.66732600641984" r="2" fill="rgb(255,0,0)"/><circle cx="313.1578947368421" cy="285.66732600641984" r="2" fill="rgb(255,0,0)"/><circle cx="339.4736842105263" cy="285.66732600641984" r="2" fill="rgb(255,0,0)"/><circle cx="365.7894736842105" cy="285.66732600641984" r="2" fill="rgb(255,0,0)"/><circle cx="392.10526315789474" cy="285.66732600641984" r="2" fill="rgb(255,0,0)"/><circle cx="418.4210526315789" cy="285.66732600641984" r="2" fill="rgb(255,0,0)"/><circle cx="444.7368421052632" cy="285.66732600641984" r="2" fill="rgb(255,0,0)"/><circle cx="471.05263157894734" cy="285.66732600641984" r="2" fill="rgb(255,0,0)"/><circle cx="497.36842105263156" cy="285.66732600641984" r="2" fill="rgb(255,0,0)"/><circle cx="523.6842105263158" cy="285.66732600641984" r="2" fill="rgb(255,0,0)"/><circle cx="550.0" cy="285.66732600641984" r="2" fill="rgb(255,0,0)"/><polyline points="50.0,141.87142356799842 76.3157894736842,425.3155703408719 102.63157894736841,440.31073718362103 128.94736842105263,379.27658444016527 155.26315789473682,376.38564931424526 181.57894736842104,376.38564931424526 207.89473684210526,376.38564931424526 234.21052631578945,376.38564931424526 260.52631578947364,376.38564931424526 286.8421052631579,376.38564931424526 313.1578947368421,376.38564931424526 339.4736842105263,376.38564931424526 365.7894736842105,376.38564931424526 392.10526315789474,376.38564931424526 418.4210526315789,376.38564931424526 444.7368421052632,376.38564931424526 471.05263157894734,376.38564931424526 497.36842105263156,376.38564931424526 523.6842105263158,376.38564931424526 550.0,376.38564931424526" fill="none" stroke="rgb(0,255,0)" stroke-width="1"/><circle cx="50.0" cy="141.87142356799842" r="2" fill="rgb(0,255,0)"/><circle cx="76.3157894736842" cy="425.3155703408719" r="2" fill="rgb(0,255,0)"/><circle cx="102.63157894736841" cy="440.31073718362103" r="2" fill="rgb(0,255,0)"/><circle cx="128.94736842105263" cy="379.27658444016527" r="2" fill="rgb(0,255,0)"/><circle cx="155.26315789473682" cy="376.38564931424526" r="2" fill="rgb(0,255,0)"/><circle cx="181.57894736842104" cy="376.38564931424526" r="2" fill="rgb(0,255,0)"/><circle cx="207.89473684210526" cy="376.38564931424526" r="2" fill="rgb(0,255,0)"/><circle cx="234.21052631578945" cy="376.38564931424526" r="2" fill="rgb(0,255,0)"/><circle cx="260.52631578947364" cy="376.38564931424526" r="2" fill="rgb(0,255,0)"/><circle cx="286.8421052631579" cy="376.38564931424526" r="2" fill="rgb(0,255,0)"/><circle cx="313.1578947368421" cy="376.38564931424526" r="2" fill="rgb(0,255,0)"/><circle cx="339.4736842105263" cy="376.38564931424526" r="2" fill="rgb(0,255,0)"/><circle cx="365.7894736842105" cy="376.38564931424526" r="2" fill="rgb(0,255,0)"/><circle cx="392.10526315789474" cy="376.38564931424526" r="2" fill="rgb(0,255,0)"/><circle cx="418.4210526315789" cy="376.38564931424526" r="2" fill="rgb(0,255,0)"/><circle cx="444.7368421052632" cy="376.38564931424526" r="2" fill="rgb(0,255,0)"/><circle cx="471.05263157894734" cy="376.38564931424526" r="2" fill="rgb(0,255,0)"/><circle cx="497.36842105263156" cy="376.38564931424526" r="2" fill="rgb(0,255,0)"/><circle cx="523.6842105263158" cy="376.38564931424526" r="2" fill="rgb(0,255,0)"/><circle cx="550.0" cy="376.38564931424526" r="2" fill="rgb(0,255,0)"/><text text-anchor="middle" x="350.0" y="20.0" fill="rgb(0,0,0)" font-size="20.0">KMeans Mean Centroid Distances</text><text text-anchor="middle" x="350.0" y="575.0" fill="rgb(0,0,0)" font-size="12.0">step</text><text text-anchor="middle" x="20.0" y="300.0" transform="rotate(-90.0 20.0 300.0)" fill="rgb(0,0,0)" font-size="12.0">average distance to centroid</text><text x="620" y="62" fill="rgb(0,0,255)" font-size="12">centroid 0</text><text x="620" y="74" fill="rgb(255,0,0)" font-size="12">centroid 1</text><text x="620" y="86" fill="rgb(0,255,0)" font-size="12">centroid 2</text>Sorry, your browser does not support inline SVG.</svg>