<?xml version='1.0' encoding='UTF-8'?>
<svg version="1.1" width="700.0" height="600.0" xmlns="http://www.w3.org/2000/svg"><line x1="50.0" y1="550.0" x2="550.0" y2="550.0" stroke="rgb(0,0,0)" stroke-width="1"/><line x1="50.0" y1="550.0" x2="50.0" y2="50.0" stroke="rgb(0,0,0)" stroke-width="1"/><line x1="50.0" y1="550.0" x2="50.0" y2="50.0" stroke="rgb(192,192,192)" stroke-width="1"/><text text-anchor="middle" alignment-baseline="hanging" x="50.0" y="553.0" fill="rgb(0,0,0)" font-size="12.0">0</text><line x1="50.0" y1="548.0" x2="50.0" y2="552.0" stroke="rgb(192,192,192)" stroke-width="1"/><line x1="100.5050505050505" y1="550.0" x2="100.5050505050505" y2="50.0" stroke="rgb(192,192,192)" stroke-width="1"/><text text-anchor="middle" alignment-baseline="hanging" x="100.5050505050505" y="553.0" fill="rgb(0,0,0)" font-size="12.0">10</text><line x1="100.5050505050505" y1="548.0" x2="100.5050505050505" y2="552.0" stroke="rgb(192,192,192)" stroke-width="1"/><line x1="151.010101010101" y1="550.0" x2="151.010101010101" y2="50.0" stroke="rgb(192,192,192)" stroke-width="1"/><text text-anchor="middle" alignment-baseline="hanging" x="151.010101010101" y="553.0" fill="rgb(0,0,0)" font-size="12.0">20</text><line x1="151.010101010101" y1="548.0" x2="151.010101010101" y2="552.0" stroke="rgb(192,192,192)" stroke-width="1"/><line x1="201.51515151515153" y1="550.0" x2="201.51515151515153" y2="50.0" stroke="rgb(192,192,192)" stroke-width="1"/><text text-anchor="middle" alignment-baseline="hanging" x="201.51515151515153" y="553.0" fill="rgb(0,0,0)" font-size="12.0">30</text><line x1="201.51515151515153" y1="548.0" x2="201.51515151515153" y2="552.0" stroke="rgb(192,192,192)" stroke-width="1"/><line x1="252.02020202020202" y1="550.0" x2="252.02020202020202" y2="50.0" stroke="rgb(192,192,192)" stroke-width="1"/><text text-anchor="middle" alignment-baseline="hanging" x="252.02020202020202" y="553.0" fill="rgb(0,0,0)" font-size="12.0">40</text><line x1="252.02020202020202" y1="548.0" x2="252.02020202020202" y2="552.0" stroke="rgb(192,192,192)" stroke-width="1"/><line x1="302.52525252525254" y1="550.0" x2="302.52525252525254" y2="50.0" stroke="rgb(192,192,192)" stroke-width="1"/><text text-anchor="middle" alignment-baseline="hanging" x="302.52525252525254" y="553.0" fill="rgb(0,0,0)" font-size="12.0">50</text><line x1="302.52525252525254" y1="548.0" x2="302.52525252525254" y2="552.0" stroke="rgb(192,192,192)" stroke-width="1"/><line x1="353.03030303030306" y1="550.0" x2="353.03030303030306" y2="50.0" stroke="rgb(192,192,192)" stroke-width="1"/><text text-anchor="middle" alignment-baseline="hanging" x="353.03030303030306" y="553.0" fill="rgb(0,0,0)" font-size="12.0">60</text><line x1="353.03030303030306" y1="548.0" x2="353.03030303030306" y2="552.0" stroke="rgb(192,192,192)" stroke-width="1"/><line x1="403.5353535353535" y1="550.0" x2="403.5353535353535" y2="50.0" stroke="rgb(192,192,192)" stroke-width="1"/><text text-anchor="middle" alignment-baseline="hanging" x="403.5353535353535" y="553.0" fill="rgb(0,0,0)" font-size="12.0">70</text><line x1="403.5353535353535" y1="548.0" x2="403.5353535353535" y2="552.0" stroke="rgb(192,192,192)" stroke-width="1"/><line x1="454.04040404040404" y1="550.0" x2="454.04040404040404" y2="50.0" stroke="rgb(192,192,192)" stroke-width="1"/><text text-anchor="middle" alignment-baseline="hanging" x="454.04040404040404" y="553.0" fill="rgb(0,0,0)" font-size="12.0">80</text><line x1="454.04040404040404" y1="548.0" x2="454.04040404040404" y2="552.0" stroke="rgb(192,192,192)" stroke-width="1"/><line x1="504.5454545454545" y1="550.0" x2="504.5454545454545" y2="50.0" stroke="rgb(192,192,192)" stroke-width="1"/><text text-anchor="middle" alignment-baseline="hanging" x="504.5454545454545" y="553.0" fill="rgb(0,0,0)" font-size="12.0">90</text><line x1="504.5454545454545" y1="548.0" x2="504.5454545454545" y2="552.0" stroke="rgb(192,192,192)" stroke-width="1"/><line x1="50.0" y1="550.0" x2="550.0" y2="550.0" stroke="rgb(192,192,192)" stroke-width="1"/><text text-anchor="end" alignment-baseline="middle" x="45.0" y="550.0" font-size="12.0">0.0</text><line x1="48.0" y1="550.0" x2="52.0" y2="550.0" stroke="rgb(192,192,192)" stroke-width="1"/><line x1="50.0" y1="351.0194972307836" x2="550.0" y2="351.0194972307836" stroke="rgb(192,192,192)" stroke-width="1"/><text text-anchor="end" alignment-baseline="middle" x="45.0" y="351.0194972307836" font-size="12.0">1.0</text><line x1="48.0" y1="351.0194972307836" x2="52.0" y2="351.0194972307836" stroke="rgb(192,192,192)" stroke-width="1"/><line x1="50.0" y1="152.03899446156726" x2="550.0" y2="152.03899446156726" stroke="rgb(192,192,192)" stroke-width="1"/><text text-anchor="end" alignment-baseline="middle" x="45.0" y="152.03899446156726" font-size="12.0">2.0</text><line x1="48.0" y1="152.03899446156726" x2="52.0" y2="152.03899446156726" stroke="rgb(192,192,192)" stroke-width="1"/><polyline points="50.0,50.0 55.05050505050505,153.232695117182 60.101010101010104,235.22901737189045 65.15151515151516,300.35919197341366 70.20202020202021,352.09401844850083 75.25252525252526,393.18998221870424 80.30303030303031,425.8362681003105 85.35353535353535,451.7715167500991 90.40404040404042,472.3765513071186 95.45454545454545,488.7480198407482 100.5050505050505,501.75688135166763 105.55555555555554,512.0948546968017 110.60606060606061,520.311307806766 115.65656565656566,526.8425546933286 120.7070707070707,532.0351228107313 125.75757575757576,536.1642317410644 130.80808080808083,539.4484687679186 135.85858585858585,542.0614440620702 140.9090909090909,544.14104710939 145.95959595959596,545.7967980725165 151.010101010101,547.1156861704384 156.06060606060606,548.1668064647025 161.1111111111111,549.0050423535895 166.16161616161617,549.6739901781469 171.21212121212122,549.791718078207 176.26262626262627,549.3645701176138 181.31313131313132,549.0227083000376 186.36363636363635,548.7487661250468 191.4141414141414,548.5289441693285 196.46464646464648,548.3522761975265 201.51515151515153,548.2100463068707 206.56565656565658,548.0953260214175 211.61616161616163,548.0026066491965 216.66666666666666,547.9275072963555 221.7171717171717,547.8665429675059 226.76767676767676,547.8169403861132 231.8181818181818,547.7764917138626 236.86868686868686,547.7434383692109 241.91919191919192,547.7163787506148 246.96969696969697,547.6941949448143 252.02020202020202,547.6759945130615 257.07070707070704,547.6610642523026 262.1212121212121,547.6488334669434 267.1717171717172,547.6388447940201 272.2222222222222,547.6307310273963 277.27272727272725,547.6241967065126 282.32323232323233,547.619003489273 287.3737373737374,547.6149585304327 292.42424242424244,547.6119052470898 297.47474747474746,547.6097159801593 302.52525252525254,547.6082861617734 307.57575757575756,547.6075296788273 312.62626262626264,547.607375186642 317.67676767676767,547.6077631773429 322.7272727272727,547.6086436477657 327.77777777777777,547.6099742436351 332.8282828282828,547.6117187821245 337.8787878787879,547.6138460750473 342.92929292929296,547.6163289909271 347.979797979798,547.6191437069015 353.03030303030306,547.6222691115013 358.0808080808081,547.6256863273625 363.13131313131316,547.6293783292929 368.1818181818182,547.6333296381705 373.23232323232327,547.6375260751634 378.2828282828283,547.6419545639511 383.3333333333333,547.6466029711603 388.3838383838384,547.6514599772362 393.4343434343434,547.6565149715727 398.4848484848485,547.661757966988 403.5353535353535,547.6671795296452 408.58585858585855,547.6727707213141 413.6363636363636,547.6785230515086 418.68686868686865,547.6844284375376 423.73737373737373,547.6904791709094 428.7878787878788,547.6966678888481 433.83838383838383,547.7029875499335 438.8888888888889,547.709431413077 443.93939393939394,547.7159930192074 448.989898989899,547.7226661751644 454.04040404040404,547.7294449394017 459.0909090909091,547.7363236091813 464.14141414141415,547.7432967090012 469.19191919191917,547.7503589800544 474.24242424242425,547.7575053705539 479.2929292929293,547.7647310267913 484.34343434343435,547.7720312848236 489.3939393939394,547.7794016627006 494.4444444444444,547.786837853164 499.4949494949495,547.7943357167608 504.5454545454545,547.801891275324 509.59595959595964,547.8095007057831 514.6464646464647,547.8171603342714 519.6969696969697,547.8248666305041 524.7474747474748,547.8326162024051 529.7979797979798,547.8404057909636 534.8484848484849,547.8482322653031 539.8989898989898,547.8560926179514 544.9494949494949,547.8639839602967 550.0,547.8719035182211" fill="none" stroke="rgb(0,0,255)" stroke-width="1"/><circle cx="50.0" cy="50.0" r="2" fill="rgb(0,0,255)"/><circle cx="55.05050505050505" cy="153.232695117182" r="2" fill="rgb(0,0,255)"/><circle cx="60.101010101010104" cy="235.22901737189045" r="2" fill="rgb(0,0,255)"/><circle cx="65.15151515151516" cy="300.35919197341366" r="2" fill="rgb(0,0,255)"/><circle cx="70.20202020202021" cy="352.09401844850083" r="2" fill="rgb(0,0,255)"/><circle cx="75.25252525252526" cy="393.18998221870424" r="2" fill="rgb(0,0,255)"/><circle cx="80.30303030303031" cy="425.8362681003105" r="2" fill="rgb(0,0,255)"/><circle cx="85.35353535353535" cy="451.7715167500991" r="2" fill="rgb(0,0,255)"/><circle cx="90.40404040404042" cy="472.3765513071186" r="2" fill="rgb(0,0,255)"/><circle cx="95.45454545454545" cy="488.7480198407482" r="2" fill="rgb(0,0,255)"/><circle cx="100.5050505050505" cy="501.75688135166763" r="2" fill="rgb(0,0,255)"/><circle cx="105.55555555555554" cy="512.0948546968017" r="2" fill="rgb(0,0,255)"/><circle cx="110.60606060606061" cy="520.311307806766" r="2" fill="rgb(0,0,255)"/><circle cx="115.65656565656566" cy="526.8425546933286" r="2" fill="rgb(0,0,255)"/><circle cx="120.7070707070707" cy="532.0351228107313" r="2" fill="rgb(0,0,255)"/><circle cx="125.75757575757576" cy="536.1642317410644" r="2" fill="rgb(0,0,255)"/><circle cx="130.80808080808083" cy="539.4484687679186" r="2" fill="rgb(0,0,255)"/><circle cx="135.85858585858585" cy="542.0614440620702" r="2" fill="rgb(0,0,255)"/><circle cx="140.9090909090909" cy="544.14104710939" r="2" fill="rgb(0,0,255)"/><circle cx="145.95959595959596" cy="545.7967980725165" r="2" fill="rgb(0,0,255)"/><circle cx="151.010101010101" cy="547.1156861704384" r="2" fill="rgb(0,0,255)"/><circle cx="156.06060606060606" cy="548.1668064647025" r="2" fill="rgb(0,0,255)"/><circle cx="161.1111111111111" cy="549.0050423535895" r="2" fill="rgb(0,0,255)"/><circle cx="166.16161616161617" cy="549.6739901781469" r="2" fill="rgb(0,0,255)"/><circle cx="171.21212121212122" cy="549.791718078207" r="2" fill="rgb(0,0,255)"/><circle cx="176.26262626262627" cy="549.3645701176138" r="2" fill="rgb(0,0,255)"/><circle cx="181.31313131313132" cy="549.0227083000376" r="2" fill="rgb(0,0,255)"/><circle cx="186.36363636363635" cy="548.7487661250468" r="2" fill="rgb(0,0,255)"/><circle cx="191.4141414141414" cy="548.5289441693285" r="2" fill="rgb(0,0,255)"/><circle cx="196.46464646464648" cy="548.3522761975265" r="2" fill="rgb(0,0,255)"/><circle cx="201.51515151515153" cy="548.2100463068707" r="2" fill="rgb(0,0,255)"/><circle cx="206.56565656565658" cy="548.0953260214175" r="2" fill="rgb(0,0,255)"/><circle cx="211.61616161616163" cy="548.0026066491965" r="2" fill="rgb(0,0,255)"/><circle cx="216.66666666666666" cy="547.9275072963555" r="2" fill="rgb(0,0,255)"/><circle cx="221.7171717171717" cy="547.8665429675059" r="2" fill="rgb(0,0,255)"/><circle cx="226.76767676767676" cy="547.8169403861132" r="2" fill="rgb(0,0,255)"/><circle cx="231.8181818181818" cy="547.7764917138626" r="2" fill="rgb(0,0,255)"/><circle cx="236.86868686868686" cy="547.7434383692109" r="2" fill="rgb(0,0,255)"/><circle cx="241.91919191919192" cy="547.7163787506148" r="2" fill="rgb(0,0,255)"/><circle cx="246.96969696969697" cy="547.6941949448143" r="2" fill="rgb(0,0,255)"/><circle cx="252.02020202020202" cy="547.6759945130615" r="2" fill="rgb(0,0,255)"/><circle cx="257.07070707070704" cy="547.6610642523026" r="2" fill="rgb(0,0,255)"/><circle cx="262.1212121212121" cy="547.6488334669434" r="2" fill="rgb(0,0,255)"/><circle cx="267.1717171717172" cy="547.6388447940201" r="2" fill="rgb(0,0,255)"/><circle cx="272.2222222222222" cy="547.6307310273963" r="2" fill="rgb(0,0,255)"/><circle cx="277.27272727272725" cy="547.6241967065126" r="2" fill="rgb(0,0,255)"/><circle cx="282.32323232323233" cy="547.619003489273" r="2" fill="rgb(0,0,255)"/><circle cx="287.3737373737374" cy="547.6149585304327" r="2" fill="rgb(0,0,255)"/><circle cx="292.42424242424244" cy="547.6119052470898" r="2" fill="rgb(0,0,255)"/><circle cx="297.47474747474746" cy="547.6097159801593" r="2" fill="rgb(0,0,255)"/><circle cx="302.52525252525254" cy="547.6082861617734" r="2" fill="rgb(0,0,255)"/><circle cx="307.57575757575756" cy="547.6075296788273" r="2" fill="rgb(0,0,255)"/><circle cx="312.62626262626264" cy="547.607375186642" r="2" fill="rgb(0,0,255)"/><circle cx="317.67676767676767" cy="547.6077631773429" r="2" fill="rgb(0,0,255)"/><circle cx="322.7272727272727" cy="547.6086436477657" r="2" fill="rgb(0,0,255)"/><circle cx="327.77777777777777" cy="547.6099742436351" r="2" fill="rgb(0,0,255)"/><circle cx="332.8282828282828" cy="547.6117187821245" r="2" fill="rgb(0,0,255)"/><circle cx="337.8787878787879" cy="547.6138460750473" r="2" fill="rgb(0,0,255)"/><circle cx="342.92929292929296" cy="547.6163289909271" r="2" fill="rgb(0,0,255)"/><circle cx="347.979797979798" cy="547.6191437069015" r="2" fill="rgb(0,0,255)"/><circle cx="353.03030303030306" cy="547.6222691115013" r="2" fill="rgb(0,0,255)"/><circle cx="358.0808080808081" cy="547.6256863273625" r="2" fill="rgb(0,0,255)"/><circle cx="363.13131313131316" cy="547.6293783292929" r="2" fill="rgb(0,0,255)"/><circle cx="368.1818181818182" cy="547.6333296381705" r="2" fill="rgb(0,0,255)"/><circle cx="373.23232323232327" cy="547.6375260751634" r="2" fill="rgb(0,0,255)"/><circle cx="378.2828282828283" cy="547.6419545639511" r="2" fill="rgb(0,0,255)"/><circle cx="383.3333333333333" cy="547.6466029711603" r="2" fill="rgb(0,0,255)"/><circle cx="388.3838383838384" cy="547.6514599772362" r="2" fill="rgb(0,0,255)"/><circle cx="393.4343434343434" cy="547.6565149715727" r="2" fill="rgb(0,0,255)"/><circle cx="398.4848484848485" cy="547.661757966988" r="2" fill="rgb(0,0,255)"/><circle cx="403.5353535353535" cy="547.6671795296452" r="2" fill="rgb(0,0,255)"/><circle cx="408.58585858585855" cy="547.6727707213141" r="2" fill="rgb(0,0,255)"/><circle cx="413.6363636363636" cy="547.6785230515086" r="2" fill="rgb(0,0,255)"/><circle cx="418.68686868686865" cy="547.6844284375376" r="2" fill="rgb(0,0,255)"/><circle cx="423.73737373737373" cy="547.6904791709094" r="2" fill="rgb(0,0,255)"/><circle cx="428.7878787878788" cy="547.6966678888481" r="2" fill="rgb(0,0,255)"/><circle cx="433.83838383838383" cy="547.7029875499335" r="2" fill="rgb(0,0,255)"/><circle cx="438.8888888888889" cy="547.709431413077" r="2" fill="rgb(0,0,255)"/><circle cx="443.93939393939394" cy="547.7159930192074" r="2" fill="rgb(0,0,255)"/><circle cx="448.989898989899" cy="547.7226661751644" r="2" fill="rgb(0,0,255)"/><circle cx="454.04040404040404" cy="547.7294449394017" r="2" fill="rgb(0,0,255)"/><circle cx="459.0909090909091" cy="547.7363236091813" r="2" fill="rgb(0,0,255)"/><circle cx="464.14141414141415" cy="547.7432967090012" r="2" fill="rgb(0,0,255)"/><circle cx="469.19191919191917" cy="547.7503589800544" r="2" fill="rgb(0,0,255)"/><circle cx="474.24242424242425" cy="547.7575053705539" r="2" fill="rgb(0,0,255)"/><circle cx="479.2929292929293" cy="547.7647310267913" r="2" fill="rgb(0,0,255)"/><circle cx="484.34343434343435" cy="547.7720312848236" r="2" fill="rgb(0,0,255)"/><circle cx="489.3939393939394" cy="547.7794016627006" r="2" fill="rgb(0,0,255)"/><circle cx="494.4444444444444" cy="547.786837853164" r="2" fill="rgb(0,0,255)"/><circle cx="499.4949494949495" cy="547.7943357167608" r="2" fill="rgb(0,0,255)"/><circle cx="504.5454545454545" cy="547.801891275324" r="2" fill="rgb(0,0,255)"/><circle cx="509.59595959595964" cy="547.8095007057831" r="2" fill="rgb(0,0,255)"/><circle cx="514.6464646464647" cy="547.8171603342714" r="2" fill="rgb(0,0,255)"/><circle cx="519.6969696969697" cy="547.8248666305041" r="2" fill="rgb(0,0,255)"/><circle cx="524.7474747474748" cy="547.8326162024051" r="2" fill="rgb(0,0,255)"/><circle cx="529.7979797979798" cy="547.8404057909636" r="2" fill="rgb(0,0,255)"/><circle cx="534.8484848484849" cy="547.8482322653031" r="2" fill="rgb(0,0,255)"/><circle cx="539.8989898989898" cy="547.8560926179514" r="2" fill="rgb(0,0,255)"/><circle cx="544.9494949494949" cy="547.8639839602967" r="2" fill="rgb(0,0,255)"/><circle cx="550.0" cy="547.8719035182211" r="2" fill="rgb(0,0,255)"/><text text-anchor="middle" x="350.0" y="20.0" fill="rgb(0,0,0)" font-size="20.0">Linear Regression Error</text><text text-anchor="middle" x="350.0" y="575.0" fill="rgb(0,0,0)" font-size="12.0">step</text><text text-anchor="middle" x="20.0" y="300.0" transform="rotate(-90.0 20.0 300.0)" fill="rgb(0,0,0)" font-size="12.0">error</text><text x="620" y="62" fill="rgb(0,0,255)" font-size="12">error</text>Sorry, your browser does not support inline SVG.</svg>