<?xml version='1.0' encoding='UTF-8'?>
<svg version="1.1" width="700.0" height="600.0" xmlns="http://www.w3.org/2000/svg"><line x1="50.0" y1="550.0" x2="550.0" y2="550.0" stroke="rgb(0,0,0)" stroke-width="1"/><line x1="50.0" y1="550.0" x2="50.0" y2="50.0" stroke="rgb(0,0,0)" stroke-width="1"/><text text-anchor="start" alignment-baseline="hanging" x="97.5" y="550.0" transform="rotate(36.0,97.5,550.0)" fill="rgb(0,0,0)" font-size="12.0">high</text><line x1="97.5" y1="548.0" x2="97.5" y2="552.0" stroke="rgb(192,192,192)" stroke-width="1"/><text text-anchor="start" alignment-baseline="hanging" x="142.5" y="550.0" transform="rotate(36.0,142.5,550.0)" fill="rgb(0,0,0)" font-size="12.0">pair</text><line x1="142.5" y1="548.0" x2="142.5" y2="552.0" stroke="rgb(192,192,192)" stroke-width="1"/><text text-anchor="start" alignment-baseline="hanging" x="187.49999999999997" y="550.0" transform="rotate(36.0,187.49999999999997,550.0)" fill="rgb(0,0,0)" font-size="12.0">two pair</text><line x1="187.49999999999997" y1="548.0" x2="187.49999999999997" y2="552.0" stroke="rgb(192,192,192)" stroke-width="1"/><text text-anchor="start" alignment-baseline="hanging" x="232.5" y="550.0" transform="rotate(36.0,232.5,550.0)" fill="rgb(0,0,0)" font-size="12.0">three of a kind</text><line x1="232.5" y1="548.0" x2="232.5" y2="552.0" stroke="rgb(192,192,192)" stroke-width="1"/><text text-anchor="start" alignment-baseline="hanging" x="277.5" y="550.0" transform="rotate(36.0,277.5,550.0)" fill="rgb(0,0,0)" font-size="12.0">straight</text><line x1="277.5" y1="548.0" x2="277.5" y2="552.0" stroke="rgb(192,192,192)" stroke-width="1"/><text text-anchor="start" alignment-baseline="hanging" x="322.5" y="550.0" transform="rotate(36.0,322.5,550.0)" fill="rgb(0,0,0)" font-size="12.0">flush</text><line x1="322.5" y1="548.0" x2="322.5" y2="552.0" stroke="rgb(192,192,192)" stroke-width="1"/><text text-anchor="start" alignment-baseline="hanging" x="367.5" y="550.0" transform="rotate(36.0,367.5,550.0)" fill="rgb(0,0,0)" font-size="12.0">full house</text><line x1="367.5" y1="548.0" x2="367.5" y2="552.0" stroke="rgb(192,192,192)" stroke-width="1"/><text text-anchor="start" alignment-baseline="hanging" x="412.5" y="550.0" transform="rotate(36.0,412.5,550.0)" fill="rgb(0,0,0)" font-size="12.0">four of a kind</text><line x1="412.5" y1="548.0" x2="412.5" y2="552.0" stroke="rgb(192,192,192)" stroke-width="1"/><text text-anchor="start" alignment-baseline="hanging" x="457.50000000000006" y="550.0" transform="rotate(36.0,457.50000000000006,550.0)" fill="rgb(0,0,0)" font-size="12.0">straight flush</text><line x1="457.50000000000006" y1="548.0" x2="457.50000000000006" y2="552.0" stroke="rgb(192,192,192)" stroke-width="1"/><text text-anchor="start" alignment-baseline="hanging" x="502.5" y="550.0" transform="rotate(36.0,502.5,550.0)" fill="rgb(0,0,0)" font-size="12.0">royal flush</text><line x1="502.5" y1="548.0" x2="502.5" y2="552.0" stroke="rgb(192,192,192)" stroke-width="1"/><line x1="50.0" y1="550.0" x2="550.0" y2="550.0" stroke="rgb(192,192,192)" stroke-width="1"/><text text-anchor="end" alignment-baseline="middle" x="45.0" y="550.0" font-size="12.0">0</text><line x1="48.0" y1="550.0" x2="52.0" y2="550.0" stroke="rgb(192,192,192)" stroke-width="1"/><line x1="50.0" y1="449.3963782696177" x2="550.0" y2="449.3963782696177" stroke="rgb(192,192,192)" stroke-width="1"/><text text-anchor="end" alignment-baseline="middle" x="45.0" y="449.3963782696177" font-size="12.0">100</text><line x1="48.0" y1="449.3963782696177" x2="52.0" y2="449.3963782696177" stroke="rgb(192,192,192)" stroke-width="1"/><line x1="50.0" y1="348.79275653923537" x2="550.0" y2="348.79275653923537" stroke="rgb(192,192,192)" stroke-width="1"/><text text-anchor="end" alignment-baseline="middle" x="45.0" y="348.79275653923537" font-size="12.0">200</text><line x1="48.0" y1="348.79275653923537" x2="52.0" y2="348.79275653923537" stroke="rgb(192,192,192)" stroke-width="1"/><line x1="50.0" y1="248.18913480885317" x2="550.0" y2="248.18913480885317" stroke="rgb(192,192,192)" stroke-width="1"/><text text-anchor="end" alignment-baseline="middle" x="45.0" y="248.18913480885317" font-size="12.0">300</text><line x1="48.0" y1="248.18913480885317" x2="52.0" y2="248.18913480885317" stroke="rgb(192,192,192)" stroke-width="1"/><line x1="50.0" y1="147.5855130784708" x2="550.0" y2="147.5855130784708" stroke="rgb(192,192,192)" stroke-width="1"/><text text-anchor="end" alignment-baseline="middle" x="45.0" y="147.5855130784708" font-size="12.0">400</text><line x1="48.0" y1="147.5855130784708" x2="52.0" y2="147.5855130784708" stroke="rgb(192,192,192)" stroke-width="1"/><rect x="79.5" y="50.0" width="8.099999999999994" height="500.0" fill="rgb(0,0,255)" stroke-width="1"/><rect x="124.5" y="120.42253521126764" width="8.099999999999994" height="429.57746478873236" fill="rgb(0,0,255)" stroke-width="1"/><rect x="169.5" y="493.6619718309859" width="8.099999999999994" height="56.33802816901408" fill="rgb(0,0,255)" stroke-width="1"/><rect x="214.5" y="535.9154929577464" width="8.099999999999994" height="14.084507042253563" fill="rgb(0,0,255)" stroke-width="1"/><rect x="259.5" y="546.9818913480885" width="8.100000000000023" height="3.0181086519114615" fill="rgb(0,0,255)" stroke-width="1"/><rect x="304.49999999999994" y="547.9879275653924" width="8.100000000000023" height="2.012072434607603" fill="rgb(0,0,255)" stroke-width="1"/><rect x="349.5" y="548.9939637826961" width="8.099999999999966" height="1.0060362173038584" fill="rgb(0,0,255)" stroke-width="1"/><rect x="394.5" y="550.0" width="8.100000000000023" height="0.0" fill="rgb(0,0,255)" stroke-width="1"/><rect x="439.49999999999994" y="550.0" width="8.100000000000023" height="0.0" fill="rgb(0,0,255)" stroke-width="1"/><rect x="484.5" y="550.0" width="8.099999999999966" height="0.0" fill="rgb(0,0,255)" stroke-width="1"/><rect x="87.6" y="232.092555331992" width="8.099999999999994" height="317.907444668008" fill="rgb(255,0,0)" stroke-width="1"/><rect x="132.6" y="78.16901408450707" width="8.099999999999994" height="471.83098591549293" fill="rgb(255,0,0)" stroke-width="1"/><rect x="177.6" y="414.1851106639839" width="8.099999999999994" height="135.8148893360161" fill="rgb(255,0,0)" stroke-width="1"/><rect x="222.6" y="515.7947686116701" width="8.099999999999994" height="34.205231388329935" fill="rgb(255,0,0)" stroke-width="1"/><rect x="267.6" y="529.8792756539235" width="8.099999999999966" height="20.120724346076486" fill="rgb(255,0,0)" stroke-width="1"/><rect x="312.59999999999997" y="539.9396378269618" width="8.099999999999966" height="10.060362173038243" fill="rgb(255,0,0)" stroke-width="1"/><rect x="357.59999999999997" y="535.9154929577464" width="8.100000000000023" height="14.084507042253563" fill="rgb(255,0,0)" stroke-width="1"/><rect x="402.6" y="547.9879275653924" width="8.100000000000023" height="2.012072434607603" fill="rgb(255,0,0)" stroke-width="1"/><rect x="447.59999999999997" y="550.0" width="8.099999999999966" height="0.0" fill="rgb(255,0,0)" stroke-width="1"/><rect x="492.59999999999997" y="550.0" width="8.100000000000023" height="0.0" fill="rgb(255,0,0)" stroke-width="1"/><rect x="95.69999999999999" y="387.0221327967807" width="8.100000000000009" height="162.97786720321932" fill="rgb(0,255,0)" stroke-width="1"/><rect x="140.7" y="109.35613682092554" width="8.100000000000023" height="440.64386317907446" fill="rgb(0,255,0)" stroke-width="1"/><rect x="185.7" y="299.4969818913481" width="8.099999999999994" height="250.50301810865187" fill="rgb(0,255,0)" stroke-width="1"/><rect x="230.7" y="502.7162977867203" width="8.099999999999994" height="47.283702213279696" fill="rgb(0,255,0)" stroke-width="1"/><rect x="275.7" y="509.7585513078471" width="8.099999999999966" height="40.241448692152915" fill="rgb(0,255,0)" stroke-width="1"/><rect x="320.69999999999993" y="519.8189134808853" width="8.100000000000023" height="30.18108651911473" fill="rgb(0,255,0)" stroke-width="1"/><rect x="365.7" y="520.8249496981891" width="8.099999999999966" height="29.17505030181087" fill="rgb(0,255,0)" stroke-width="1"/><rect x="410.70000000000005" y="544.9698189134809" width="8.099999999999966" height="5.030181086519065" fill="rgb(0,255,0)" stroke-width="1"/><rect x="455.69999999999993" y="550.0" width="8.100000000000023" height="0.0" fill="rgb(0,255,0)" stroke-width="1"/><rect x="500.7" y="550.0" width="8.100000000000023" height="0.0" fill="rgb(0,255,0)" stroke-width="1"/><rect x="103.8" y="475.5533199195171" width="8.100000000000009" height="74.4466800804829" fill="rgb(255,200,0)" stroke-width="1"/><rect x="148.8" y="219.01408450704224" width="8.099999999999966" height="330.98591549295776" fill="rgb(255,200,0)" stroke-width="1"/><rect x="193.79999999999998" y="192.85714285714283" width="8.099999999999994" height="357.14285714285717" fill="rgb(255,200,0)" stroke-width="1"/><rect x="238.79999999999998" y="506.7404426559356" width="8.100000000000023" height="43.259557344064376" fill="rgb(255,200,0)" stroke-width="1"/><rect x="283.79999999999995" y="464.48692152917505" width="8.100000000000023" height="85.51307847082495" fill="rgb(255,200,0)" stroke-width="1"/><rect x="328.79999999999995" y="497.6861167002012" width="8.099999999999966" height="52.31388329979882" fill="rgb(255,200,0)" stroke-width="1"/><rect x="373.79999999999995" y="491.64989939637826" width="8.100000000000023" height="58.35010060362174" fill="rgb(255,200,0)" stroke-width="1"/><rect x="418.8" y="547.9879275653924" width="8.100000000000023" height="2.012072434607603" fill="rgb(255,200,0)" stroke-width="1"/><rect x="463.79999999999995" y="548.9939637826961" width="8.099999999999966" height="1.0060362173038584" fill="rgb(255,200,0)" stroke-width="1"/><rect x="508.8" y="548.9939637826961" width="8.099999999999966" height="1.0060362173038584" fill="rgb(255,200,0)" stroke-width="1"/><rect x="111.9" y="520.8249496981891" width="8.09999999999998" height="29.17505030181087" fill="rgb(255,175,175)" stroke-width="1"/><rect x="156.89999999999998" y="406.1368209255533" width="8.100000000000023" height="143.8631790744467" fill="rgb(255,175,175)" stroke-width="1"/><rect x="201.89999999999998" y="149.59758551307846" width="8.099999999999994" height="400.40241448692154" fill="rgb(255,175,175)" stroke-width="1"/><rect x="246.9" y="507.7464788732394" width="8.100000000000023" height="42.253521126760575" fill="rgb(255,175,175)" stroke-width="1"/><rect x="291.9" y="414.1851106639839" width="8.100000000000023" height="135.8148893360161" fill="rgb(255,175,175)" stroke-width="1"/><rect x="336.8999999999999" y="418.2092555331992" width="8.100000000000023" height="131.7907444668008" fill="rgb(255,175,175)" stroke-width="1"/><rect x="381.9" y="435.3118712273642" width="8.099999999999966" height="114.68812877263582" fill="rgb(255,175,175)" stroke-width="1"/><rect x="426.90000000000003" y="545.9758551307847" width="8.099999999999966" height="4.02414486921532" fill="rgb(255,175,175)" stroke-width="1"/><rect x="471.8999999999999" y="546.9818913480885" width="8.100000000000023" height="3.0181086519114615" fill="rgb(255,175,175)" stroke-width="1"/><rect x="516.9" y="548.9939637826961" width="8.100000000000023" height="1.0060362173038584" fill="rgb(255,175,175)" stroke-width="1"/><text x="620" y="62" font-size="12">Hand Size</text><text x="620" y="74" fill="rgb(0,0,255)" font-size="12">5</text><text x="620" y="86" fill="rgb(255,0,0)" font-size="12">6</text><text x="620" y="98" fill="rgb(0,255,0)" font-size="12">7</text><text x="620" y="110" fill="rgb(255,200,0)" font-size="12">8</text><text x="620" y="122" fill="rgb(255,175,175)" font-size="12">9</text><text text-anchor="middle" x="350.0" y="20.0" fill="rgb(0,0,0)" font-size="20.0">Poker Hands</text><text text-anchor="middle" x="20.0" y="300.0" transform="rotate(-90.0 20.0 300.0)" fill="rgb(0,0,0)" font-size="12.0">instances of category by hand size (1000 trials each)</text>Sorry, your browser does not support inline SVG.</svg>