<?xml version='1.0' encoding='UTF-8'?>
<svg version="1.1" width="700.0" height="600.0" xmlns="http://www.w3.org/2000/svg"><line x1="50.0" y1="550.0" x2="550.0" y2="550.0" stroke="rgb(0,0,0)" stroke-width="1"/><line x1="50.0" y1="550.0" x2="50.0" y2="50.0" stroke="rgb(0,0,0)" stroke-width="1"/><text text-anchor="start" alignment-baseline="hanging" x="100.0" y="550.0" transform="rotate(36.0,100.0,550.0)" fill="rgb(0,0,0)" font-size="12.0">high</text><line x1="100.0" y1="548.0" x2="100.0" y2="552.0" stroke="rgb(192,192,192)" stroke-width="1"/><text text-anchor="start" alignment-baseline="hanging" x="150.0" y="550.0" transform="rotate(36.0,150.0,550.0)" fill="rgb(0,0,0)" font-size="12.0">pair</text><line x1="150.0" y1="548.0" x2="150.0" y2="552.0" stroke="rgb(192,192,192)" stroke-width="1"/><text text-anchor="start" alignment-baseline="hanging" x="200.0" y="550.0" transform="rotate(36.0,200.0,550.0)" fill="rgb(0,0,0)" font-size="12.0">two pair</text><line x1="200.0" y1="548.0" x2="200.0" y2="552.0" stroke="rgb(192,192,192)" stroke-width="1"/><text text-anchor="start" alignment-baseline="hanging" x="250.0" y="550.0" transform="rotate(36.0,250.0,550.0)" fill="rgb(0,0,0)" font-size="12.0">three of a kind</text><line x1="250.0" y1="548.0" x2="250.0" y2="552.0" stroke="rgb(192,192,192)" stroke-width="1"/><text text-anchor="start" alignment-baseline="hanging" x="300.0" y="550.0" transform="rotate(36.0,300.0,550.0)" fill="rgb(0,0,0)" font-size="12.0">straight</text><line x1="300.0" y1="548.0" x2="300.0" y2="552.0" stroke="rgb(192,192,192)" stroke-width="1"/><text text-anchor="start" alignment-baseline="hanging" x="350.00000000000006" y="550.0" transform="rotate(36.0,350.00000000000006,550.0)" fill="rgb(0,0,0)" font-size="12.0">flush</text><line x1="350.00000000000006" y1="548.0" x2="350.00000000000006" y2="552.0" stroke="rgb(192,192,192)" stroke-width="1"/><text text-anchor="start" alignment-baseline="hanging" x="400.00000000000006" y="550.0" transform="rotate(36.0,400.00000000000006,550.0)" fill="rgb(0,0,0)" font-size="12.0">full house</text><line x1="400.00000000000006" y1="548.0" x2="400.00000000000006" y2="552.0" stroke="rgb(192,192,192)" stroke-width="1"/><text text-anchor="start" alignment-baseline="hanging" x="450.0" y="550.0" transform="rotate(36.0,450.0,550.0)" fill="rgb(0,0,0)" font-size="12.0">four of a kind</text><line x1="450.0" y1="548.0" x2="450.0" y2="552.0" stroke="rgb(192,192,192)" stroke-width="1"/><text text-anchor="start" alignment-baseline="hanging" x="500.00000000000006" y="550.0" transform="rotate(36.0,500.00000000000006,550.0)" fill="rgb(0,0,0)" font-size="12.0">straight flush</text><line x1="500.00000000000006" y1="548.0" x2="500.00000000000006" y2="552.0" stroke="rgb(192,192,192)" stroke-width="1"/><line x1="50.0" y1="550.0" x2="550.0" y2="550.0" stroke="rgb(192,192,192)" stroke-width="1"/><text text-anchor="end" alignment-baseline="middle" x="45.0" y="550.0" font-size="12.0">0</text><line x1="48.0" y1="550.0" x2="52.0" y2="550.0" stroke="rgb(192,192,192)" stroke-width="1"/><line x1="50.0" y1="451.7681728880157" x2="550.0" y2="451.7681728880157" stroke="rgb(192,192,192)" stroke-width="1"/><text text-anchor="end" alignment-baseline="middle" x="45.0" y="451.7681728880157" font-size="12.0">100</text><line x1="48.0" y1="451.7681728880157" x2="52.0" y2="451.7681728880157" stroke="rgb(192,192,192)" stroke-width="1"/><line x1="50.0" y1="353.53634577603145" x2="550.0" y2="353.53634577603145" stroke="rgb(192,192,192)" stroke-width="1"/><text text-anchor="end" alignment-baseline="middle" x="45.0" y="353.53634577603145" font-size="12.0">200</text><line x1="48.0" y1="353.53634577603145" x2="52.0" y2="353.53634577603145" stroke="rgb(192,192,192)" stroke-width="1"/><line x1="50.0" y1="255.30451866404712" x2="550.0" y2="255.30451866404712" stroke="rgb(192,192,192)" stroke-width="1"/><text text-anchor="end" alignment-baseline="middle" x="45.0" y="255.30451866404712" font-size="12.0">300</text><line x1="48.0" y1="255.30451866404712" x2="52.0" y2="255.30451866404712" stroke="rgb(192,192,192)" stroke-width="1"/><line x1="50.0" y1="157.0726915520629" x2="550.0" y2="157.0726915520629" stroke="rgb(192,192,192)" stroke-width="1"/><text text-anchor="end" alignment-baseline="middle" x="45.0" y="157.0726915520629" font-size="12.0">400</text><line x1="48.0" y1="157.0726915520629" x2="52.0" y2="157.0726915520629" stroke="rgb(192,192,192)" stroke-width="1"/><line x1="50.0" y1="58.840864440078576" x2="550.0" y2="58.840864440078576" stroke="rgb(192,192,192)" stroke-width="1"/><text text-anchor="end" alignment-baseline="middle" x="45.0" y="58.840864440078576" font-size="12.0">500</text><line x1="48.0" y1="58.840864440078576" x2="52.0" y2="58.840864440078576" stroke="rgb(192,192,192)" stroke-width="1"/><rect x="80.0" y="50.0" width="9.0" height="500.0" fill="rgb(0,0,255)" stroke-width="1"/><rect x="130.0" y="149.21414538310415" width="9.0" height="400.78585461689585" fill="rgb(0,0,255)" stroke-width="1"/><rect x="180.0" y="499.901768172888" width="9.0" height="50.09823182711199" fill="rgb(0,0,255)" stroke-width="1"/><rect x="230.00000000000003" y="527.4066797642436" width="9.0" height="22.593320235756437" fill="rgb(0,0,255)" stroke-width="1"/><rect x="280.0" y="546.0707269155206" width="9.0" height="3.929273084479405" fill="rgb(0,0,255)" stroke-width="1"/><rect x="330.0" y="547.0530451866405" width="9.000000000000057" height="2.9469548133595254" fill="rgb(0,0,255)" stroke-width="1"/><rect x="380.00000000000006" y="549.0176817288801" width="9.0" height="0.9823182711198797" fill="rgb(0,0,255)" stroke-width="1"/><rect x="430.0" y="549.0176817288801" width="9.0" height="0.9823182711198797" fill="rgb(0,0,255)" stroke-width="1"/><rect x="480.00000000000006" y="550.0" width="9.0" height="0.0" fill="rgb(0,0,255)" stroke-width="1"/><rect x="89.0" y="248.42829076620825" width="9.0" height="301.57170923379175" fill="rgb(255,0,0)" stroke-width="1"/><rect x="139.0" y="51.964636542239646" width="9.0" height="498.03536345776035" fill="rgb(255,0,0)" stroke-width="1"/><rect x="189.0" y="437.0333988212181" width="9.000000000000028" height="112.9666011787819" fill="rgb(255,0,0)" stroke-width="1"/><rect x="239.00000000000003" y="507.76031434184677" width="9.0" height="42.239685658153235" fill="rgb(255,0,0)" stroke-width="1"/><rect x="289.0" y="534.2829076620825" width="9.0" height="15.717092337917506" fill="rgb(255,0,0)" stroke-width="1"/><rect x="339.00000000000006" y="544.106090373281" width="9.0" height="5.893909626719051" fill="rgb(255,0,0)" stroke-width="1"/><rect x="389.00000000000006" y="544.106090373281" width="9.000000000000057" height="5.893909626719051" fill="rgb(255,0,0)" stroke-width="1"/><rect x="439.0" y="550.0" width="9.0" height="0.0" fill="rgb(255,0,0)" stroke-width="1"/><rect x="489.00000000000006" y="550.0" width="9.0" height="0.0" fill="rgb(255,0,0)" stroke-width="1"/><rect x="98.0" y="381.04125736738706" width="9.0" height="168.95874263261294" fill="rgb(0,255,0)" stroke-width="1"/><rect x="148.0" y="92.23968565815323" width="9.0" height="457.76031434184677" fill="rgb(0,255,0)" stroke-width="1"/><rect x="198.00000000000003" y="328.97838899803537" width="9.0" height="221.02161100196463" fill="rgb(0,255,0)" stroke-width="1"/><rect x="248.0" y="517.5834970530452" width="9.0" height="32.41650294695478" fill="rgb(0,255,0)" stroke-width="1"/><rect x="298.0" y="515.6188605108055" width="9.0" height="34.38113948919454" fill="rgb(0,255,0)" stroke-width="1"/><rect x="348.00000000000006" y="519.5481335952849" width="9.0" height="30.451866404715133" fill="rgb(0,255,0)" stroke-width="1"/><rect x="398.0000000000001" y="514.6365422396857" width="9.0" height="35.363457760314304" fill="rgb(0,255,0)" stroke-width="1"/><rect x="448.0" y="548.0353634577604" width="9.0" height="1.9646365422396457" fill="rgb(0,255,0)" stroke-width="1"/><rect x="498.00000000000006" y="550.0" width="9.0" height="0.0" fill="rgb(0,255,0)" stroke-width="1"/><rect x="107.0" y="480.25540275049116" width="9.0" height="69.74459724950884" fill="rgb(255,200,0)" stroke-width="1"/><rect x="157.0" y="223.87033398821217" width="9.0" height="326.12966601178783" fill="rgb(255,200,0)" stroke-width="1"/><rect x="207.0" y="225.83497053045187" width="9.0" height="324.16502946954813" fill="rgb(255,200,0)" stroke-width="1"/><rect x="257.0" y="494.00785854616896" width="9.0" height="55.99214145383104" fill="rgb(255,200,0)" stroke-width="1"/><rect x="307.0" y="460.6090373280943" width="9.0" height="89.3909626719057" fill="rgb(255,200,0)" stroke-width="1"/><rect x="357.00000000000006" y="491.06090373280944" width="9.0" height="58.939096267190564" fill="rgb(255,200,0)" stroke-width="1"/><rect x="407.0000000000001" y="495.97249508840866" width="9.0" height="54.027504911591336" fill="rgb(255,200,0)" stroke-width="1"/><rect x="457.0" y="548.0353634577604" width="9.000000000000057" height="1.9646365422396457" fill="rgb(255,200,0)" stroke-width="1"/><rect x="507.00000000000006" y="548.0353634577604" width="8.999999999999943" height="1.9646365422396457" fill="rgb(255,200,0)" stroke-width="1"/><rect x="116.0" y="533.3005893909626" width="9.000000000000014" height="16.699410609037386" fill="rgb(255,175,175)" stroke-width="1"/><rect x="166.0" y="390.86444007858546" width="9.0" height="159.13555992141454" fill="rgb(255,175,175)" stroke-width="1"/><rect x="216.0" y="149.21414538310415" width="9.000000000000028" height="400.78585461689585" fill="rgb(255,175,175)" stroke-width="1"/><rect x="266.0" y="509.72495088408647" width="9.0" height="40.27504911591353" fill="rgb(255,175,175)" stroke-width="1"/><rect x="316.0" y="426.2278978388998" width="9.0" height="123.77210216110018" fill="rgb(255,175,175)" stroke-width="1"/><rect x="366.00000000000006" y="435.0687622789784" width="9.0" height="114.9312377210216" fill="rgb(255,175,175)" stroke-width="1"/><rect x="416.0000000000001" y="430.15717092337917" width="9.0" height="119.84282907662083" fill="rgb(255,175,175)" stroke-width="1"/><rect x="466.00000000000006" y="543.1237721021611" width="9.0" height="6.87622789783893" fill="rgb(255,175,175)" stroke-width="1"/><rect x="516.0" y="550.0" width="9.000000000000114" height="0.0" fill="rgb(255,175,175)" stroke-width="1"/><text x="620" y="62" font-size="12">Hand Size</text><text x="620" y="74" fill="rgb(0,0,255)" font-size="12">5</text><text x="620" y="86" fill="rgb(255,0,0)" font-size="12">6</text><text x="620" y="98" fill="rgb(0,255,0)" font-size="12">7</text><text x="620" y="110" fill="rgb(255,200,0)" font-size="12">8</text><text x="620" y="122" fill="rgb(255,175,175)" font-size="12">9</text><text text-anchor="middle" x="350.0" y="20.0" fill="rgb(0,0,0)" font-size="20.0">Poker Hands</text><text text-anchor="middle" x="20.0" y="300.0" transform="rotate(-90.0 20.0 300.0)" fill="rgb(0,0,0)" font-size="12.0">instances of category by hand size (1000 trials each)</text>Sorry, your browser does not support inline SVG.</svg>