<?xml version='1.0' encoding='UTF-8'?>
<svg version="1.1" width="700.0" height="600.0" xmlns="http://www.w3.org/2000/svg"><line x1="50.0" y1="550.0" x2="550.0" y2="550.0" stroke="rgb(0,0,0)" stroke-width="1"/><line x1="50.0" y1="550.0" x2="50.0" y2="50.0" stroke="rgb(0,0,0)" stroke-width="1"/><text text-anchor="start" alignment-baseline="hanging" x="100.0" y="550.0" transform="rotate(36.0,100.0,550.0)" fill="rgb(0,0,0)" font-size="12.0">high</text><line x1="100.0" y1="548.0" x2="100.0" y2="552.0" stroke="rgb(192,192,192)" stroke-width="1"/><text text-anchor="start" alignment-baseline="hanging" x="150.0" y="550.0" transform="rotate(36.0,150.0,550.0)" fill="rgb(0,0,0)" font-size="12.0">pair</text><line x1="150.0" y1="548.0" x2="150.0" y2="552.0" stroke="rgb(192,192,192)" stroke-width="1"/><text text-anchor="start" alignment-baseline="hanging" x="200.0" y="550.0" transform="rotate(36.0,200.0,550.0)" fill="rgb(0,0,0)" font-size="12.0">two pair</text><line x1="200.0" y1="548.0" x2="200.0" y2="552.0" stroke="rgb(192,192,192)" stroke-width="1"/><text text-anchor="start" alignment-baseline="hanging" x="250.0" y="550.0" transform="rotate(36.0,250.0,550.0)" fill="rgb(0,0,0)" font-size="12.0">three of a kind</text><line x1="250.0" y1="548.0" x2="250.0" y2="552.0" stroke="rgb(192,192,192)" stroke-width="1"/><text text-anchor="start" alignment-baseline="hanging" x="300.0" y="550.0" transform="rotate(36.0,300.0,550.0)" fill="rgb(0,0,0)" font-size="12.0">straight</text><line x1="300.0" y1="548.0" x2="300.0" y2="552.0" stroke="rgb(192,192,192)" stroke-width="1"/><text text-anchor="start" alignment-baseline="hanging" x="350.00000000000006" y="550.0" transform="rotate(36.0,350.00000000000006,550.0)" fill="rgb(0,0,0)" font-size="12.0">flush</text><line x1="350.00000000000006" y1="548.0" x2="350.00000000000006" y2="552.0" stroke="rgb(192,192,192)" stroke-width="1"/><text text-anchor="start" alignment-baseline="hanging" x="400.00000000000006" y="550.0" transform="rotate(36.0,400.00000000000006,550.0)" fill="rgb(0,0,0)" font-size="12.0">full house</text><line x1="400.00000000000006" y1="548.0" x2="400.00000000000006" y2="552.0" stroke="rgb(192,192,192)" stroke-width="1"/><text text-anchor="start" alignment-baseline="hanging" x="450.0" y="550.0" transform="rotate(36.0,450.0,550.0)" fill="rgb(0,0,0)" font-size="12.0">four of a kind</text><line x1="450.0" y1="548.0" x2="450.0" y2="552.0" stroke="rgb(192,192,192)" stroke-width="1"/><text text-anchor="start" alignment-baseline="hanging" x="500.00000000000006" y="550.0" transform="rotate(36.0,500.00000000000006,550.0)" fill="rgb(0,0,0)" font-size="12.0">straight flush</text><line x1="500.00000000000006" y1="548.0" x2="500.00000000000006" y2="552.0" stroke="rgb(192,192,192)" stroke-width="1"/><line x1="50.0" y1="550.0" x2="550.0" y2="550.0" stroke="rgb(192,192,192)" stroke-width="1"/><text text-anchor="end" alignment-baseline="middle" x="45.0" y="550.0" font-size="12.0">0</text><line x1="48.0" y1="550.0" x2="52.0" y2="550.0" stroke="rgb(192,192,192)" stroke-width="1"/><line x1="50.0" y1="452.1526418786693" x2="550.0" y2="452.1526418786693" stroke="rgb(192,192,192)" stroke-width="1"/><text text-anchor="end" alignment-baseline="middle" x="45.0" y="452.1526418786693" font-size="12.0">100</text><line x1="48.0" y1="452.1526418786693" x2="52.0" y2="452.1526418786693" stroke="rgb(192,192,192)" stroke-width="1"/><line x1="50.0" y1="354.30528375733854" x2="550.0" y2="354.30528375733854" stroke="rgb(192,192,192)" stroke-width="1"/><text text-anchor="end" alignment-baseline="middle" x="45.0" y="354.30528375733854" font-size="12.0">200</text><line x1="48.0" y1="354.30528375733854" x2="52.0" y2="354.30528375733854" stroke="rgb(192,192,192)" stroke-width="1"/><line x1="50.0" y1="256.4579256360079" x2="550.0" y2="256.4579256360079" stroke="rgb(192,192,192)" stroke-width="1"/><text text-anchor="end" alignment-baseline="middle" x="45.0" y="256.4579256360079" font-size="12.0">300</text><line x1="48.0" y1="256.4579256360079" x2="52.0" y2="256.4579256360079" stroke="rgb(192,192,192)" stroke-width="1"/><line x1="50.0" y1="158.61056751467714" x2="550.0" y2="158.61056751467714" stroke="rgb(192,192,192)" stroke-width="1"/><text text-anchor="end" alignment-baseline="middle" x="45.0" y="158.61056751467714" font-size="12.0">400</text><line x1="48.0" y1="158.61056751467714" x2="52.0" y2="158.61056751467714" stroke="rgb(192,192,192)" stroke-width="1"/><line x1="50.0" y1="60.763209393346415" x2="550.0" y2="60.763209393346415" stroke="rgb(192,192,192)" stroke-width="1"/><text text-anchor="end" alignment-baseline="middle" x="45.0" y="60.763209393346415" font-size="12.0">500</text><line x1="48.0" y1="60.763209393346415" x2="52.0" y2="60.763209393346415" stroke="rgb(192,192,192)" stroke-width="1"/><rect x="80.0" y="50.0" width="9.0" height="500.0" fill="rgb(0,0,255)" stroke-width="1"/><rect x="130.0" y="143.9334637964775" width="9.0" height="406.0665362035225" fill="rgb(0,0,255)" stroke-width="1"/><rect x="180.0" y="504.9902152641879" width="9.0" height="45.009784735812104" fill="rgb(0,0,255)" stroke-width="1"/><rect x="230.00000000000003" y="531.4090019569471" width="9.0" height="18.590998043052878" fill="rgb(0,0,255)" stroke-width="1"/><rect x="280.0" y="547.06457925636" width="9.0" height="2.935420743639952" fill="rgb(0,0,255)" stroke-width="1"/><rect x="330.0" y="548.0430528375734" width="9.000000000000057" height="1.9569471624265589" fill="rgb(0,0,255)" stroke-width="1"/><rect x="380.00000000000006" y="546.0861056751468" width="9.0" height="3.9138943248532314" fill="rgb(0,0,255)" stroke-width="1"/><rect x="430.0" y="550.0" width="9.0" height="0.0" fill="rgb(0,0,255)" stroke-width="1"/><rect x="480.00000000000006" y="550.0" width="9.0" height="0.0" fill="rgb(0,0,255)" stroke-width="1"/><rect x="89.0" y="217.31898238747556" width="9.0" height="332.68101761252444" fill="rgb(255,0,0)" stroke-width="1"/><rect x="139.0" y="92.07436399217221" width="9.0" height="457.9256360078278" fill="rgb(255,0,0)" stroke-width="1"/><rect x="189.0" y="425.73385518591" width="9.000000000000028" height="124.26614481409001" fill="rgb(255,0,0)" stroke-width="1"/><rect x="239.00000000000003" y="518.6888454011741" width="9.0" height="31.31115459882585" fill="rgb(255,0,0)" stroke-width="1"/><rect x="289.0" y="530.4305283757338" width="9.0" height="19.569471624266157" fill="rgb(255,0,0)" stroke-width="1"/><rect x="339.00000000000006" y="544.1291585127202" width="9.0" height="5.87084148727979" fill="rgb(255,0,0)" stroke-width="1"/><rect x="389.00000000000006" y="544.1291585127202" width="9.000000000000057" height="5.87084148727979" fill="rgb(255,0,0)" stroke-width="1"/><rect x="439.0" y="550.0" width="9.0" height="0.0" fill="rgb(255,0,0)" stroke-width="1"/><rect x="489.00000000000006" y="549.0215264187867" width="9.0" height="0.9784735812132794" fill="rgb(255,0,0)" stroke-width="1"/><rect x="98.0" y="393.44422700587086" width="9.0" height="156.55577299412914" fill="rgb(0,255,0)" stroke-width="1"/><rect x="148.0" y="115.5577299412916" width="9.0" height="434.4422700587084" fill="rgb(0,255,0)" stroke-width="1"/><rect x="198.00000000000003" y="313.20939334637967" width="9.0" height="236.79060665362033" fill="rgb(0,255,0)" stroke-width="1"/><rect x="248.0" y="494.2270058708415" width="9.0" height="55.77299412915852" fill="rgb(0,255,0)" stroke-width="1"/><rect x="298.0" y="512.8180039138944" width="9.0" height="37.18199608610564" fill="rgb(0,255,0)" stroke-width="1"/><rect x="348.00000000000006" y="521.6242661448141" width="9.0" height="28.3757338551859" fill="rgb(0,255,0)" stroke-width="1"/><rect x="398.0000000000001" y="521.6242661448141" width="9.0" height="28.3757338551859" fill="rgb(0,255,0)" stroke-width="1"/><rect x="448.0" y="549.0215264187867" width="9.0" height="0.9784735812132794" fill="rgb(0,255,0)" stroke-width="1"/><rect x="498.00000000000006" y="550.0" width="9.0" height="0.0" fill="rgb(0,255,0)" stroke-width="1"/><rect x="107.0" y="476.614481409002" width="9.0" height="73.385518590998" fill="rgb(255,200,0)" stroke-width="1"/><rect x="157.0" y="231.99608610567515" width="9.0" height="318.00391389432485" fill="rgb(255,200,0)" stroke-width="1"/><rect x="207.0" y="205.57729941291586" width="9.0" height="344.42270058708414" fill="rgb(255,200,0)" stroke-width="1"/><rect x="257.0" y="485.42074363992174" width="9.0" height="64.57925636007826" fill="rgb(255,200,0)" stroke-width="1"/><rect x="307.0" y="480.52837573385517" width="9.0" height="69.47162426614483" fill="rgb(255,200,0)" stroke-width="1"/><rect x="357.00000000000006" y="488.35616438356163" width="9.0" height="61.643835616438366" fill="rgb(255,200,0)" stroke-width="1"/><rect x="407.0000000000001" y="503.0332681017612" width="9.0" height="46.96673189823878" fill="rgb(255,200,0)" stroke-width="1"/><rect x="457.0" y="550.0" width="9.000000000000057" height="0.0" fill="rgb(255,200,0)" stroke-width="1"/><rect x="507.00000000000006" y="550.0" width="8.999999999999943" height="0.0" fill="rgb(255,200,0)" stroke-width="1"/><rect x="116.0" y="528.4735812133073" width="9.000000000000014" height="21.526418786692716" fill="rgb(255,175,175)" stroke-width="1"/><rect x="166.0" y="387.573385518591" width="9.0" height="162.426614481409" fill="rgb(255,175,175)" stroke-width="1"/><rect x="216.0" y="147.84735812133073" width="9.000000000000028" height="402.1526418786693" fill="rgb(255,175,175)" stroke-width="1"/><rect x="266.0" y="508.9041095890411" width="9.0" height="41.09589041095887" fill="rgb(255,175,175)" stroke-width="1"/><rect x="316.0" y="438.45401174168296" width="9.0" height="111.54598825831704" fill="rgb(255,175,175)" stroke-width="1"/><rect x="366.00000000000006" y="438.45401174168296" width="9.0" height="111.54598825831704" fill="rgb(255,175,175)" stroke-width="1"/><rect x="416.0000000000001" y="431.60469667318984" width="9.0" height="118.39530332681016" fill="rgb(255,175,175)" stroke-width="1"/><rect x="466.00000000000006" y="542.1722113502935" width="9.0" height="7.827788649706463" fill="rgb(255,175,175)" stroke-width="1"/><rect x="516.0" y="548.0430528375734" width="9.000000000000114" height="1.9569471624265589" fill="rgb(255,175,175)" stroke-width="1"/><text x="620" y="62" font-size="12">Hand Size</text><text x="620" y="74" fill="rgb(0,0,255)" font-size="12">5</text><text x="620" y="86" fill="rgb(255,0,0)" font-size="12">6</text><text x="620" y="98" fill="rgb(0,255,0)" font-size="12">7</text><text x="620" y="110" fill="rgb(255,200,0)" font-size="12">8</text><text x="620" y="122" fill="rgb(255,175,175)" font-size="12">9</text><text text-anchor="middle" x="350.0" y="20.0" fill="rgb(0,0,0)" font-size="20.0">Poker Hands</text><text text-anchor="middle" x="20.0" y="300.0" transform="rotate(-90.0 20.0 300.0)" fill="rgb(0,0,0)" font-size="12.0">instances of category by hand size (1000 trials each)</text>Sorry, your browser does not support inline SVG.</svg>