<?xml version='1.0' encoding='UTF-8'?>
<svg version="1.1" width="700.0" height="600.0" xmlns="http://www.w3.org/2000/svg"><line x1="50.0" y1="550.0" x2="550.0" y2="550.0" stroke="rgb(0,0,0)" stroke-width="1"/><line x1="50.0" y1="550.0" x2="50.0" y2="50.0" stroke="rgb(0,0,0)" stroke-width="1"/><text text-anchor="start" alignment-baseline="hanging" x="100.0" y="550.0" transform="rotate(36.0,100.0,550.0)" fill="rgb(0,0,0)" font-size="12.0">high</text><line x1="100.0" y1="548.0" x2="100.0" y2="552.0" stroke="rgb(192,192,192)" stroke-width="1"/><text text-anchor="start" alignment-baseline="hanging" x="150.0" y="550.0" transform="rotate(36.0,150.0,550.0)" fill="rgb(0,0,0)" font-size="12.0">pair</text><line x1="150.0" y1="548.0" x2="150.0" y2="552.0" stroke="rgb(192,192,192)" stroke-width="1"/><text text-anchor="start" alignment-baseline="hanging" x="200.0" y="550.0" transform="rotate(36.0,200.0,550.0)" fill="rgb(0,0,0)" font-size="12.0">two pair</text><line x1="200.0" y1="548.0" x2="200.0" y2="552.0" stroke="rgb(192,192,192)" stroke-width="1"/><text text-anchor="start" alignment-baseline="hanging" x="250.0" y="550.0" transform="rotate(36.0,250.0,550.0)" fill="rgb(0,0,0)" font-size="12.0">three of a kind</text><line x1="250.0" y1="548.0" x2="250.0" y2="552.0" stroke="rgb(192,192,192)" stroke-width="1"/><text text-anchor="start" alignment-baseline="hanging" x="300.0" y="550.0" transform="rotate(36.0,300.0,550.0)" fill="rgb(0,0,0)" font-size="12.0">straight</text><line x1="300.0" y1="548.0" x2="300.0" y2="552.0" stroke="rgb(192,192,192)" stroke-width="1"/><text text-anchor="start" alignment-baseline="hanging" x="350.00000000000006" y="550.0" transform="rotate(36.0,350.00000000000006,550.0)" fill="rgb(0,0,0)" font-size="12.0">flush</text><line x1="350.00000000000006" y1="548.0" x2="350.00000000000006" y2="552.0" stroke="rgb(192,192,192)" stroke-width="1"/><text text-anchor="start" alignment-baseline="hanging" x="400.00000000000006" y="550.0" transform="rotate(36.0,400.00000000000006,550.0)" fill="rgb(0,0,0)" font-size="12.0">full house</text><line x1="400.00000000000006" y1="548.0" x2="400.00000000000006" y2="552.0" stroke="rgb(192,192,192)" stroke-width="1"/><text text-anchor="start" alignment-baseline="hanging" x="450.0" y="550.0" transform="rotate(36.0,450.0,550.0)" fill="rgb(0,0,0)" font-size="12.0">four of a kind</text><line x1="450.0" y1="548.0" x2="450.0" y2="552.0" stroke="rgb(192,192,192)" stroke-width="1"/><text text-anchor="start" alignment-baseline="hanging" x="500.00000000000006" y="550.0" transform="rotate(36.0,500.00000000000006,550.0)" fill="rgb(0,0,0)" font-size="12.0">straight flush</text><line x1="500.00000000000006" y1="548.0" x2="500.00000000000006" y2="552.0" stroke="rgb(192,192,192)" stroke-width="1"/><line x1="50.0" y1="550.0" x2="550.0" y2="550.0" stroke="rgb(192,192,192)" stroke-width="1"/><text text-anchor="end" alignment-baseline="middle" x="45.0" y="550.0" font-size="12.0">0</text><line x1="48.0" y1="550.0" x2="52.0" y2="550.0" stroke="rgb(192,192,192)" stroke-width="1"/><line x1="50.0" y1="448.98989898989896" x2="550.0" y2="448.98989898989896" stroke="rgb(192,192,192)" stroke-width="1"/><text text-anchor="end" alignment-baseline="middle" x="45.0" y="448.98989898989896" font-size="12.0">100</text><line x1="48.0" y1="448.98989898989896" x2="52.0" y2="448.98989898989896" stroke="rgb(192,192,192)" stroke-width="1"/><line x1="50.0" y1="347.979797979798" x2="550.0" y2="347.979797979798" stroke="rgb(192,192,192)" stroke-width="1"/><text text-anchor="end" alignment-baseline="middle" x="45.0" y="347.979797979798" font-size="12.0">200</text><line x1="48.0" y1="347.979797979798" x2="52.0" y2="347.979797979798" stroke="rgb(192,192,192)" stroke-width="1"/><line x1="50.0" y1="246.96969696969694" x2="550.0" y2="246.96969696969694" stroke="rgb(192,192,192)" stroke-width="1"/><text text-anchor="end" alignment-baseline="middle" x="45.0" y="246.96969696969694" font-size="12.0">300</text><line x1="48.0" y1="246.96969696969694" x2="52.0" y2="246.96969696969694" stroke="rgb(192,192,192)" stroke-width="1"/><line x1="50.0" y1="145.95959595959596" x2="550.0" y2="145.95959595959596" stroke="rgb(192,192,192)" stroke-width="1"/><text text-anchor="end" alignment-baseline="middle" x="45.0" y="145.95959595959596" font-size="12.0">400</text><line x1="48.0" y1="145.95959595959596" x2="52.0" y2="145.95959595959596" stroke="rgb(192,192,192)" stroke-width="1"/><rect x="80.0" y="50.0" width="9.0" height="500.0" fill="rgb(0,0,255)" stroke-width="1"/><rect x="130.0" y="111.6161616161616" width="9.0" height="438.3838383838384" fill="rgb(0,0,255)" stroke-width="1"/><rect x="180.0" y="510.6060606060606" width="9.0" height="39.39393939393938" fill="rgb(0,0,255)" stroke-width="1"/><rect x="230.00000000000003" y="527.7777777777778" width="9.0" height="22.22222222222217" fill="rgb(0,0,255)" stroke-width="1"/><rect x="280.0" y="545.959595959596" width="9.0" height="4.0404040404040416" fill="rgb(0,0,255)" stroke-width="1"/><rect x="330.0" y="545.959595959596" width="9.000000000000057" height="4.0404040404040416" fill="rgb(0,0,255)" stroke-width="1"/><rect x="380.00000000000006" y="547.979797979798" width="9.0" height="2.020202020201964" fill="rgb(0,0,255)" stroke-width="1"/><rect x="430.0" y="550.0" width="9.0" height="0.0" fill="rgb(0,0,255)" stroke-width="1"/><rect x="480.00000000000006" y="550.0" width="9.0" height="0.0" fill="rgb(0,0,255)" stroke-width="1"/><rect x="89.0" y="203.53535353535352" width="9.0" height="346.4646464646465" fill="rgb(255,0,0)" stroke-width="1"/><rect x="139.0" y="76.26262626262627" width="9.0" height="473.73737373737373" fill="rgb(255,0,0)" stroke-width="1"/><rect x="189.0" y="419.6969696969697" width="9.000000000000028" height="130.3030303030303" fill="rgb(255,0,0)" stroke-width="1"/><rect x="239.00000000000003" y="519.6969696969697" width="9.0" height="30.303030303030255" fill="rgb(255,0,0)" stroke-width="1"/><rect x="289.0" y="536.8686868686868" width="9.0" height="13.131313131313163" fill="rgb(255,0,0)" stroke-width="1"/><rect x="339.00000000000006" y="543.939393939394" width="9.0" height="6.0606060606060055" fill="rgb(255,0,0)" stroke-width="1"/><rect x="389.00000000000006" y="539.89898989899" width="9.000000000000057" height="10.101010101010047" fill="rgb(255,0,0)" stroke-width="1"/><rect x="439.0" y="550.0" width="9.0" height="0.0" fill="rgb(255,0,0)" stroke-width="1"/><rect x="489.00000000000006" y="550.0" width="9.0" height="0.0" fill="rgb(255,0,0)" stroke-width="1"/><rect x="98.0" y="402.52525252525254" width="9.0" height="147.47474747474746" fill="rgb(0,255,0)" stroke-width="1"/><rect x="148.0" y="95.4545454545455" width="9.0" height="454.5454545454545" fill="rgb(0,255,0)" stroke-width="1"/><rect x="198.00000000000003" y="311.6161616161616" width="9.0" height="238.3838383838384" fill="rgb(0,255,0)" stroke-width="1"/><rect x="248.0" y="485.35353535353534" width="9.0" height="64.64646464646466" fill="rgb(0,255,0)" stroke-width="1"/><rect x="298.0" y="505.55555555555554" width="9.0" height="44.44444444444446" fill="rgb(0,255,0)" stroke-width="1"/><rect x="348.00000000000006" y="518.6868686868687" width="9.0" height="31.313131313131294" fill="rgb(0,255,0)" stroke-width="1"/><rect x="398.0000000000001" y="521.7171717171717" width="9.0" height="28.28282828282829" fill="rgb(0,255,0)" stroke-width="1"/><rect x="448.0" y="548.989898989899" width="9.0" height="1.0101010101010388" fill="rgb(0,255,0)" stroke-width="1"/><rect x="498.00000000000006" y="550.0" width="9.0" height="0.0" fill="rgb(0,255,0)" stroke-width="1"/><rect x="107.0" y="494.44444444444446" width="9.0" height="55.55555555555554" fill="rgb(255,200,0)" stroke-width="1"/><rect x="157.0" y="213.63636363636363" width="9.0" height="336.3636363636364" fill="rgb(255,200,0)" stroke-width="1"/><rect x="207.0" y="203.53535353535352" width="9.0" height="346.4646464646465" fill="rgb(255,200,0)" stroke-width="1"/><rect x="257.0" y="497.47474747474746" width="9.0" height="52.52525252525254" fill="rgb(255,200,0)" stroke-width="1"/><rect x="307.0" y="464.14141414141415" width="9.0" height="85.85858585858585" fill="rgb(255,200,0)" stroke-width="1"/><rect x="357.00000000000006" y="487.37373737373736" width="9.0" height="62.626262626262644" fill="rgb(255,200,0)" stroke-width="1"/><rect x="407.0000000000001" y="485.35353535353534" width="9.0" height="64.64646464646466" fill="rgb(255,200,0)" stroke-width="1"/><rect x="457.0" y="544.9494949494949" width="9.000000000000057" height="5.05050505050508" fill="rgb(255,200,0)" stroke-width="1"/><rect x="507.00000000000006" y="548.989898989899" width="8.999999999999943" height="1.0101010101010388" fill="rgb(255,200,0)" stroke-width="1"/><rect x="116.0" y="528.7878787878788" width="9.000000000000014" height="21.212121212121247" fill="rgb(255,175,175)" stroke-width="1"/><rect x="166.0" y="381.3131313131313" width="9.0" height="168.6868686868687" fill="rgb(255,175,175)" stroke-width="1"/><rect x="216.0" y="126.76767676767679" width="9.000000000000028" height="423.2323232323232" fill="rgb(255,175,175)" stroke-width="1"/><rect x="266.0" y="509.5959595959596" width="9.0" height="40.404040404040416" fill="rgb(255,175,175)" stroke-width="1"/><rect x="316.0" y="440.90909090909093" width="9.0" height="109.09090909090907" fill="rgb(255,175,175)" stroke-width="1"/><rect x="366.00000000000006" y="422.72727272727275" width="9.0" height="127.27272727272725" fill="rgb(255,175,175)" stroke-width="1"/><rect x="416.0000000000001" y="438.8888888888889" width="9.0" height="111.11111111111109" fill="rgb(255,175,175)" stroke-width="1"/><rect x="466.00000000000006" y="542.929292929293" width="9.0" height="7.070707070707044" fill="rgb(255,175,175)" stroke-width="1"/><rect x="516.0" y="547.979797979798" width="9.000000000000114" height="2.020202020201964" fill="rgb(255,175,175)" stroke-width="1"/><text x="620" y="62" font-size="12">Hand Size</text><text x="620" y="74" fill="rgb(0,0,255)" font-size="12">5</text><text x="620" y="86" fill="rgb(255,0,0)" font-size="12">6</text><text x="620" y="98" fill="rgb(0,255,0)" font-size="12">7</text><text x="620" y="110" fill="rgb(255,200,0)" font-size="12">8</text><text x="620" y="122" fill="rgb(255,175,175)" font-size="12">9</text><text text-anchor="middle" x="350.0" y="20.0" fill="rgb(0,0,0)" font-size="20.0">Poker Hands</text><text text-anchor="middle" x="20.0" y="300.0" transform="rotate(-90.0 20.0 300.0)" fill="rgb(0,0,0)" font-size="12.0">instances of category by hand size (1000 trials each)</text>Sorry, your browser does not support inline SVG.</svg>