<?xml version='1.0' encoding='UTF-8'?>
<svg version="1.1" width="700.0" height="600.0" xmlns="http://www.w3.org/2000/svg"><line x1="50.0" y1="550.0" x2="550.0" y2="550.0" stroke="rgb(0,0,0)" stroke-width="1"/><line x1="50.0" y1="550.0" x2="50.0" y2="50.0" stroke="rgb(0,0,0)" stroke-width="1"/><text text-anchor="start" alignment-baseline="hanging" x="100.0" y="550.0" transform="rotate(36.0,100.0,550.0)" fill="rgb(0,0,0)" font-size="12.0">high</text><line x1="100.0" y1="548.0" x2="100.0" y2="552.0" stroke="rgb(192,192,192)" stroke-width="1"/><text text-anchor="start" alignment-baseline="hanging" x="150.0" y="550.0" transform="rotate(36.0,150.0,550.0)" fill="rgb(0,0,0)" font-size="12.0">pair</text><line x1="150.0" y1="548.0" x2="150.0" y2="552.0" stroke="rgb(192,192,192)" stroke-width="1"/><text text-anchor="start" alignment-baseline="hanging" x="200.0" y="550.0" transform="rotate(36.0,200.0,550.0)" fill="rgb(0,0,0)" font-size="12.0">two pair</text><line x1="200.0" y1="548.0" x2="200.0" y2="552.0" stroke="rgb(192,192,192)" stroke-width="1"/><text text-anchor="start" alignment-baseline="hanging" x="250.0" y="550.0" transform="rotate(36.0,250.0,550.0)" fill="rgb(0,0,0)" font-size="12.0">three of a kind</text><line x1="250.0" y1="548.0" x2="250.0" y2="552.0" stroke="rgb(192,192,192)" stroke-width="1"/><text text-anchor="start" alignment-baseline="hanging" x="300.0" y="550.0" transform="rotate(36.0,300.0,550.0)" fill="rgb(0,0,0)" font-size="12.0">straight</text><line x1="300.0" y1="548.0" x2="300.0" y2="552.0" stroke="rgb(192,192,192)" stroke-width="1"/><text text-anchor="start" alignment-baseline="hanging" x="350.00000000000006" y="550.0" transform="rotate(36.0,350.00000000000006,550.0)" fill="rgb(0,0,0)" font-size="12.0">flush</text><line x1="350.00000000000006" y1="548.0" x2="350.00000000000006" y2="552.0" stroke="rgb(192,192,192)" stroke-width="1"/><text text-anchor="start" alignment-baseline="hanging" x="400.00000000000006" y="550.0" transform="rotate(36.0,400.00000000000006,550.0)" fill="rgb(0,0,0)" font-size="12.0">full house</text><line x1="400.00000000000006" y1="548.0" x2="400.00000000000006" y2="552.0" stroke="rgb(192,192,192)" stroke-width="1"/><text text-anchor="start" alignment-baseline="hanging" x="450.0" y="550.0" transform="rotate(36.0,450.0,550.0)" fill="rgb(0,0,0)" font-size="12.0">four of a kind</text><line x1="450.0" y1="548.0" x2="450.0" y2="552.0" stroke="rgb(192,192,192)" stroke-width="1"/><text text-anchor="start" alignment-baseline="hanging" x="500.00000000000006" y="550.0" transform="rotate(36.0,500.00000000000006,550.0)" fill="rgb(0,0,0)" font-size="12.0">straight flush</text><line x1="500.00000000000006" y1="548.0" x2="500.00000000000006" y2="552.0" stroke="rgb(192,192,192)" stroke-width="1"/><line x1="50.0" y1="550.0" x2="550.0" y2="550.0" stroke="rgb(192,192,192)" stroke-width="1"/><text text-anchor="end" alignment-baseline="middle" x="45.0" y="550.0" font-size="12.0">0</text><line x1="48.0" y1="550.0" x2="52.0" y2="550.0" stroke="rgb(192,192,192)" stroke-width="1"/><line x1="50.0" y1="455.3030303030303" x2="550.0" y2="455.3030303030303" stroke="rgb(192,192,192)" stroke-width="1"/><text text-anchor="end" alignment-baseline="middle" x="45.0" y="455.3030303030303" font-size="12.0">100</text><line x1="48.0" y1="455.3030303030303" x2="52.0" y2="455.3030303030303" stroke="rgb(192,192,192)" stroke-width="1"/><line x1="50.0" y1="360.6060606060606" x2="550.0" y2="360.6060606060606" stroke="rgb(192,192,192)" stroke-width="1"/><text text-anchor="end" alignment-baseline="middle" x="45.0" y="360.6060606060606" font-size="12.0">200</text><line x1="48.0" y1="360.6060606060606" x2="52.0" y2="360.6060606060606" stroke="rgb(192,192,192)" stroke-width="1"/><line x1="50.0" y1="265.9090909090909" x2="550.0" y2="265.9090909090909" stroke="rgb(192,192,192)" stroke-width="1"/><text text-anchor="end" alignment-baseline="middle" x="45.0" y="265.9090909090909" font-size="12.0">300</text><line x1="48.0" y1="265.9090909090909" x2="52.0" y2="265.9090909090909" stroke="rgb(192,192,192)" stroke-width="1"/><line x1="50.0" y1="171.2121212121212" x2="550.0" y2="171.2121212121212" stroke="rgb(192,192,192)" stroke-width="1"/><text text-anchor="end" alignment-baseline="middle" x="45.0" y="171.2121212121212" font-size="12.0">400</text><line x1="48.0" y1="171.2121212121212" x2="52.0" y2="171.2121212121212" stroke="rgb(192,192,192)" stroke-width="1"/><line x1="50.0" y1="76.5151515151515" x2="550.0" y2="76.5151515151515" stroke="rgb(192,192,192)" stroke-width="1"/><text text-anchor="end" alignment-baseline="middle" x="45.0" y="76.5151515151515" font-size="12.0">500</text><line x1="48.0" y1="76.5151515151515" x2="52.0" y2="76.5151515151515" stroke="rgb(192,192,192)" stroke-width="1"/><rect x="80.0" y="50.0" width="9.0" height="500.0" fill="rgb(0,0,255)" stroke-width="1"/><rect x="130.0" y="179.7348484848485" width="9.0" height="370.2651515151515" fill="rgb(0,0,255)" stroke-width="1"/><rect x="180.0" y="496.02272727272725" width="9.0" height="53.97727272727275" fill="rgb(0,0,255)" stroke-width="1"/><rect x="230.00000000000003" y="534.8484848484849" width="9.0" height="15.151515151515127" fill="rgb(0,0,255)" stroke-width="1"/><rect x="280.0" y="543.3712121212121" width="9.0" height="6.628787878787875" fill="rgb(0,0,255)" stroke-width="1"/><rect x="330.0" y="549.0530303030303" width="9.000000000000057" height="0.9469696969697452" fill="rgb(0,0,255)" stroke-width="1"/><rect x="380.00000000000006" y="550.0" width="9.0" height="0.0" fill="rgb(0,0,255)" stroke-width="1"/><rect x="430.0" y="550.0" width="9.0" height="0.0" fill="rgb(0,0,255)" stroke-width="1"/><rect x="480.00000000000006" y="550.0" width="9.0" height="0.0" fill="rgb(0,0,255)" stroke-width="1"/><rect x="89.0" y="227.08333333333331" width="9.0" height="322.9166666666667" fill="rgb(255,0,0)" stroke-width="1"/><rect x="139.0" y="93.56060606060606" width="9.0" height="456.43939393939394" fill="rgb(255,0,0)" stroke-width="1"/><rect x="189.0" y="434.469696969697" width="9.000000000000028" height="115.530303030303" fill="rgb(255,0,0)" stroke-width="1"/><rect x="239.00000000000003" y="520.6439393939394" width="9.0" height="29.356060606060623" fill="rgb(255,0,0)" stroke-width="1"/><rect x="289.0" y="543.3712121212121" width="9.0" height="6.628787878787875" fill="rgb(255,0,0)" stroke-width="1"/><rect x="339.00000000000006" y="541.4772727272727" width="9.0" height="8.522727272727252" fill="rgb(255,0,0)" stroke-width="1"/><rect x="389.00000000000006" y="542.4242424242424" width="9.000000000000057" height="7.5757575757576205" fill="rgb(255,0,0)" stroke-width="1"/><rect x="439.0" y="550.0" width="9.0" height="0.0" fill="rgb(255,0,0)" stroke-width="1"/><rect x="489.00000000000006" y="550.0" width="9.0" height="0.0" fill="rgb(255,0,0)" stroke-width="1"/><rect x="98.0" y="371.969696969697" width="9.0" height="178.030303030303" fill="rgb(0,255,0)" stroke-width="1"/><rect x="148.0" y="149.4318181818182" width="9.0" height="400.5681818181818" fill="rgb(0,255,0)" stroke-width="1"/><rect x="198.00000000000003" y="330.3030303030303" width="9.0" height="219.6969696969697" fill="rgb(0,255,0)" stroke-width="1"/><rect x="248.0" y="500.75757575757575" width="9.0" height="49.24242424242425" fill="rgb(0,255,0)" stroke-width="1"/><rect x="298.0" y="513.0681818181818" width="9.0" height="36.931818181818244" fill="rgb(0,255,0)" stroke-width="1"/><rect x="348.00000000000006" y="514.9621212121212" width="9.0" height="35.03787878787875" fill="rgb(0,255,0)" stroke-width="1"/><rect x="398.0000000000001" y="526.3257575757576" width="9.0" height="23.67424242424238" fill="rgb(0,255,0)" stroke-width="1"/><rect x="448.0" y="546.2121212121212" width="9.0" height="3.7878787878787534" fill="rgb(0,255,0)" stroke-width="1"/><rect x="498.00000000000006" y="550.0" width="9.0" height="0.0" fill="rgb(0,255,0)" stroke-width="1"/><rect x="107.0" y="475.18939393939394" width="9.0" height="74.81060606060606" fill="rgb(255,200,0)" stroke-width="1"/><rect x="157.0" y="226.13636363636363" width="9.0" height="323.8636363636364" fill="rgb(255,200,0)" stroke-width="1"/><rect x="207.0" y="246.0227272727273" width="9.0" height="303.9772727272727" fill="rgb(255,200,0)" stroke-width="1"/><rect x="257.0" y="500.75757575757575" width="9.0" height="49.24242424242425" fill="rgb(255,200,0)" stroke-width="1"/><rect x="307.0" y="484.6590909090909" width="9.0" height="65.34090909090912" fill="rgb(255,200,0)" stroke-width="1"/><rect x="357.00000000000006" y="488.4469696969697" width="9.0" height="61.55303030303031" fill="rgb(255,200,0)" stroke-width="1"/><rect x="407.0000000000001" y="490.34090909090907" width="9.0" height="59.659090909090935" fill="rgb(255,200,0)" stroke-width="1"/><rect x="457.0" y="545.2651515151515" width="9.000000000000057" height="4.734848484848499" fill="rgb(255,200,0)" stroke-width="1"/><rect x="507.00000000000006" y="546.2121212121212" width="8.999999999999943" height="3.7878787878787534" fill="rgb(255,200,0)" stroke-width="1"/><rect x="116.0" y="539.5833333333334" width="9.000000000000014" height="10.416666666666629" fill="rgb(255,175,175)" stroke-width="1"/><rect x="166.0" y="386.17424242424244" width="9.0" height="163.82575757575756" fill="rgb(255,175,175)" stroke-width="1"/><rect x="216.0" y="162.68939393939394" width="9.000000000000028" height="387.31060606060606" fill="rgb(255,175,175)" stroke-width="1"/><rect x="266.0" y="513.0681818181818" width="9.0" height="36.931818181818244" fill="rgb(255,175,175)" stroke-width="1"/><rect x="316.0" y="434.469696969697" width="9.0" height="115.530303030303" fill="rgb(255,175,175)" stroke-width="1"/><rect x="366.00000000000006" y="442.99242424242425" width="9.0" height="107.00757575757575" fill="rgb(255,175,175)" stroke-width="1"/><rect x="416.0000000000001" y="433.52272727272725" width="9.0" height="116.47727272727275" fill="rgb(255,175,175)" stroke-width="1"/><rect x="466.00000000000006" y="541.4772727272727" width="9.0" height="8.522727272727252" fill="rgb(255,175,175)" stroke-width="1"/><rect x="516.0" y="549.0530303030303" width="9.000000000000114" height="0.9469696969697452" fill="rgb(255,175,175)" stroke-width="1"/><text x="620" y="62" font-size="12">Hand Size</text><text x="620" y="74" fill="rgb(0,0,255)" font-size="12">5</text><text x="620" y="86" fill="rgb(255,0,0)" font-size="12">6</text><text x="620" y="98" fill="rgb(0,255,0)" font-size="12">7</text><text x="620" y="110" fill="rgb(255,200,0)" font-size="12">8</text><text x="620" y="122" fill="rgb(255,175,175)" font-size="12">9</text><text text-anchor="middle" x="350.0" y="20.0" fill="rgb(0,0,0)" font-size="20.0">Poker Hands</text><text text-anchor="middle" x="20.0" y="300.0" transform="rotate(-90.0 20.0 300.0)" fill="rgb(0,0,0)" font-size="12.0">instances of category by hand size (1000 trials each)</text>Sorry, your browser does not support inline SVG.</svg>