<?xml version='1.0' encoding='UTF-8'?>
<svg version="1.1" width="800.0" height="800.0" xmlns="http://www.w3.org/2000/svg"><line x1="515.8426498631895" y1="373.47929893321685" x2="362.57571977461004" y2="45.496810686872124" stroke="rgb(0,0,0)" stroke-width="1"/><line x1="275.21821179671514" y1="286.121393168253" x2="362.57571977461004" y2="45.496810686872124" stroke="rgb(0,0,0)" stroke-width="1"/><line x1="275.21821179671514" y1="286.121393168253" x2="515.8426498631895" y2="373.47929893321685" stroke="rgb(0,0,0)" stroke-width="1"/><line x1="362.57571977461004" y1="45.496810686872124" x2="603.2001578410844" y2="132.85471645183588" stroke="rgb(0,0,0)" stroke-width="1"/><line x1="603.2001578410844" y1="132.85471645183588" x2="275.21821179671514" y2="286.121393168253" stroke="rgb(0,0,0)" stroke-width="1"/><line x1="603.2001578410844" y1="132.85471645183588" x2="515.8426498631895" y2="373.47929893321685" stroke="rgb(0,0,0)" stroke-width="1"/><polygon points="10,0 20,3 20,-3" fill="black" transform="translate(362.57571977461004,45.496810686872124) rotate(64.95321348893067)"/><polygon points="10,0 20,3 20,-3" fill="black" transform="translate(362.57571977461004,45.496810686872124) rotate(109.95316612983132)"/><polygon points="10,0 20,3 20,-3" fill="black" transform="translate(515.8426498631895,373.47929893321685) rotate(199.95326084803008)"/><polygon points="10,0 20,3 20,-3" fill="black" transform="translate(603.2001578410844,132.85471645183588) rotate(199.95326084803008)"/><polygon points="10,0 20,3 20,-3" fill="black" transform="translate(275.21821179671514,286.121393168253) rotate(334.9532134889307)"/><polygon points="10,0 20,3 20,-3" fill="black" transform="translate(515.8426498631895,373.47929893321685) rotate(289.95316612983135)"/><circle cx="603.2001578410844" cy="132.85471645183588" r="10" fill="rgb(255,255,0)" stroke="rgb(0,0,0)" stroke-width="1"/><circle cx="275.21821179671514" cy="286.121393168253" r="10" fill="rgb(255,255,0)" stroke="rgb(0,0,0)" stroke-width="1"/><circle cx="515.8426498631895" cy="373.47929893321685" r="10" fill="rgb(255,255,0)" stroke="rgb(0,0,0)" stroke-width="1"/><circle cx="362.57571977461004" cy="45.496810686872124" r="10" fill="rgb(255,255,0)" stroke="rgb(0,0,0)" stroke-width="1"/><text text-anchor="middle" alignment-baseline="middle" x="603.2001578410844" y="132.85471645183588" fill="rgb(0,0,0)" font-size="12">a</text><text text-anchor="middle" alignment-baseline="middle" x="275.21821179671514" y="286.121393168253" fill="rgb(0,0,0)" font-size="12">b</text><text text-anchor="middle" alignment-baseline="middle" x="515.8426498631895" y="373.47929893321685" fill="rgb(0,0,0)" font-size="12">c</text><text text-anchor="middle" alignment-baseline="middle" x="362.57571977461004" y="45.496810686872124" fill="rgb(0,0,0)" font-size="12">d</text><text text-anchor="middle" alignment-baseline="middle" x="423.88249181004187" y="176.68980598541003" fill="rgb(0,0,0)" font-size="12"></text><text text-anchor="middle" alignment-baseline="middle" x="327.63271658345207" y="141.7466436794245" fill="rgb(0,0,0)" font-size="12"></text><text text-anchor="middle" alignment-baseline="middle" x="419.59287463659973" y="338.5361366272313" fill="rgb(0,0,0)" font-size="12"></text><text text-anchor="middle" alignment-baseline="middle" x="506.95038261449463" y="97.91155414585037" fill="rgb(0,0,0)" font-size="12"></text><text text-anchor="middle" alignment-baseline="middle" x="406.41099021446286" y="224.81472248168615" fill="rgb(0,0,0)" font-size="12"></text><text text-anchor="middle" alignment-baseline="middle" x="550.7856530543474" y="277.22946594066445" fill="rgb(0,0,0)" font-size="12"></text>Sorry, your browser does not support inline SVG.</svg>