<?xml version='1.0' encoding='UTF-8'?>
<svg version="1.1" width="800.0" height="800.0" xmlns="http://www.w3.org/2000/svg"><line x1="121.92205061377426" y1="420.7992514177612" x2="442.7722470607076" y2="588.4905881786585" stroke="rgb(0,0,0)" stroke-width="1"/><line x1="442.7722470607076" y1="588.4905881786585" x2="198.50158457580068" y2="665.0698188036785" stroke="rgb(0,0,0)" stroke-width="1"/><line x1="121.92205061377426" y1="420.7992514177612" x2="366.1927130986812" y2="344.22002079274114" stroke="rgb(0,0,0)" stroke-width="1"/><line x1="366.1927130986812" y1="344.22002079274114" x2="442.7722470607076" y2="588.4905881786585" stroke="rgb(0,0,0)" stroke-width="1"/><line x1="198.50158457580068" y1="665.0698188036785" x2="121.92205061377426" y2="420.7992514177612" stroke="rgb(0,0,0)" stroke-width="1"/><line x1="198.50158457580068" y1="665.0698188036785" x2="366.1927130986812" y2="344.22002079274114" stroke="rgb(0,0,0)" stroke-width="1"/><polygon points="10,0 20,3 20,-3" fill="black" transform="translate(442.7722470607076,588.4905881786585) rotate(207.59367565375072)"/><polygon points="10,0 20,3 20,-3" fill="black" transform="translate(198.50158457580068,665.0698188036785) rotate(342.5937112292095)"/><polygon points="10,0 20,3 20,-3" fill="black" transform="translate(366.1927130986812,344.22002079274114) rotate(162.59371122920948)"/><polygon points="10,0 20,3 20,-3" fill="black" transform="translate(442.7722470607076,588.4905881786585) rotate(252.59364007875365)"/><polygon points="10,0 20,3 20,-3" fill="black" transform="translate(121.92205061377426,420.7992514177612) rotate(72.59364007875365)"/><polygon points="10,0 20,3 20,-3" fill="black" transform="translate(366.1927130986812,344.22002079274114) rotate(117.59367565421243)"/><circle cx="198.50158457580068" cy="665.0698188036785" r="10" fill="rgb(255,255,0)" stroke="rgb(0,0,0)" stroke-width="1"/><circle cx="121.92205061377426" cy="420.7992514177612" r="10" fill="rgb(255,255,0)" stroke="rgb(0,0,0)" stroke-width="1"/><circle cx="366.1927130986812" cy="344.22002079274114" r="10" fill="rgb(255,255,0)" stroke="rgb(0,0,0)" stroke-width="1"/><circle cx="442.7722470607076" cy="588.4905881786585" r="10" fill="rgb(255,255,0)" stroke="rgb(0,0,0)" stroke-width="1"/><text text-anchor="middle" alignment-baseline="middle" x="198.50158457580068" y="665.0698188036785" fill="rgb(0,0,0)" font-size="12">a</text><text text-anchor="middle" alignment-baseline="middle" x="121.92205061377426" y="420.7992514177612" fill="rgb(0,0,0)" font-size="12">b</text><text text-anchor="middle" alignment-baseline="middle" x="366.1927130986812" y="344.22002079274114" fill="rgb(0,0,0)" font-size="12">c</text><text text-anchor="middle" alignment-baseline="middle" x="442.7722470607076" y="588.4905881786585" fill="rgb(0,0,0)" font-size="12">d</text><text text-anchor="middle" alignment-baseline="middle" x="314.43216848193424" y="521.4140534742996" fill="rgb(0,0,0)" font-size="12"></text><text text-anchor="middle" alignment-baseline="middle" x="296.2098495697635" y="634.4381265536705" fill="rgb(0,0,0)" font-size="12"></text><text text-anchor="middle" alignment-baseline="middle" x="268.4844481047184" y="374.85171304274917" fill="rgb(0,0,0)" font-size="12"></text><text text-anchor="middle" alignment-baseline="middle" x="412.14043347589705" y="490.78236122429155" fill="rgb(0,0,0)" font-size="12"></text><text text-anchor="middle" alignment-baseline="middle" x="152.55386419858482" y="518.5074783721282" fill="rgb(0,0,0)" font-size="12"></text><text text-anchor="middle" alignment-baseline="middle" x="299.116261689529" y="472.5599399971161" fill="rgb(0,0,0)" font-size="12"></text>Sorry, your browser does not support inline SVG.</svg>